<svg xmlns="http://www.w3.org/2000/svg" id="svg928" width="64" height="64" viewBox="-17 19 64 64"><style>.st0{fill:#fff}.st1{fill:#c4e1f7}.st2{fill:#1485e0}</style><g id="use480" transform="translate(1135 -1495.32)"><path id="path79_fill" d="M1118-1476.3h50v47.3h-50v-47.3z" class="st0"/></g><g id="Mask"><g id="use49" transform="translate(891 -1610)"><path id="path9_fill" d="M964-1591h-55v51h55v-51zm-61 51h-29v52h29v-52z" class="st0"/></g></g><title id="title2">Canvas</title><desc id="desc4">Created using Figma</desc><g id="g11393" transform="translate(-250.49 -325.657)"><g id="use777-0" transform="translate(250.49 329.657)"><path id="path89_fill" d="M233.5 352.7c0-2.2 1.8-4 4-4h56c2.2 0 4 1.8 4 4v37c0 2.2-1.8 4-4 4h-56c-2.2 0-4-1.8-4-4v-37z" class="st1"/></g><path id="rect4645" d="M260.5 394.5l10.9.1 2 9.4h-16.2l3.3-9.5z" class="st0"/><path d="M293.5 347.7h-56c-2.2 0-4 1.8-4 4v40c0 2.2 1.8 4 4 4h20.7l-2.4 8h-3.3v2h26v-2h-3.3l-2.4-8h20.7c2.2 0 4-1.8 4-4v-40c0-2.2-1.8-4-4-4zm-20.4 56h-15.3l2.4-8h10.5l2.4 8zm22.4-12c0 1.1-.9 2-2 2h-56c-1.1 0-2-.9-2-2v-40c0-1.1.9-2 2-2h56c1.1 0 2 .9 2 2v40z" class="st2"/><path d="M264.5 389.7h2v2h-2zM292.5 351.7h-54c-.6 0-1 .4-1 1v34c0 .6.4 1 1 1h54c.6 0 1-.4 1-1v-34c0-.6-.5-1-1-1zm-1 34h-52v-32h52v32z" class="st2"/><g id="use799-6" transform="translate(256.49 334.657)"><path id="path91_fill" d="M239.5 353.7h52v32h-52v-32z" class="st0"/></g><g><path d="M268.8 381.3l-2-2.3 1.5-1.3-3.9-4.6-3 2.6 1.3 1.5 1.5-1.3 1.3 1.5-1.5 1.3 2 2.3-1.5 1.3-11.8-13.7c.3-.2.5-.4.8-.6s.5-.5.7-.7l5.9 6.9 3-2.6-1.3-1.5-1.5 1.3-4.9-5.8c1.4-2.8 1.2-6.3-1-8.9-2.9-3.3-7.9-3.7-11.3-.9-3.3 2.9-3.7 7.9-.9 11.3 2.2 2.5 5.6 3.4 8.6 2.4l13.4 15.6 4.6-3.8zm-25-15.4c-2.2-2.5-1.9-6.3.7-8.5 2.5-2.2 6.3-1.9 8.5.7s1.9 6.3-.7 8.5c-2.6 2.1-6.4 1.9-8.5-.7z" class="st2"/><path d="M245.4 357.8h2v4h-2z" class="st2" transform="scale(-1) rotate(49.392 782.298 -535.732)"/></g><g id="g11336" transform="translate(64.887 50.43)"><path id="rect10338-82-5-6" d="M211.8 307.5c4-1.7 1.9-2 6-.3 3.4 4.3.8 4.4.3 8.8-1.7.8-3.4 1.7-6.2.2-.6-4.4-3.5-4.4-.1-8.7z" class="st1"/><path id="rect10338-82-0" d="M208.5 319.1c3.8-2 7.8-2.7 12.4 0 3.4 4.3 2.8 8.7 2.3 13h-17c-.5-4.4-1-8.8 2.3-13z" class="st1"/><path d="M218.6 316.7c1.2-1.5 1.9-3.6 1.9-5.6 0-3.7-2.4-6.4-5.7-6.4s-5.7 2.7-5.7 6.4c0 2 .7 4.1 1.9 5.6-3.8 1.2-7.1 3.6-7.1 10.1 0 .7.1 5.6.2 6.6.1.6.6 1 1.2 1h19.2c.6 0 1.1-.4 1.2-1 .2-1 .2-5.9.2-6.6-.2-6.6-3.5-9-7.3-10.1zm-3.9 2c.5 0 1.1-.1 1.6-.3.6.1 1.2.3 1.7.4-1 .8-2.1 1.2-3.3 1.2-1.2 0-2.3-.4-3.3-1.2.5-.2 1.1-.3 1.7-.4.6.2 1.1.3 1.6.3zm0-11.8c2 0 3.4 1.7 3.4 4.1 0 2.7-1.7 5.4-3.4 5.4s-3.4-2.7-3.4-5.4c.1-2.4 1.4-4.1 3.4-4.1zm8.6 25.2h-17c-.1-1.6-.1-4.4-.1-5.3 0-3.6 1.1-5.7 3.1-6.9 1.5 1.6 3.5 2.5 5.5 2.5 2.1 0 4.1-.9 5.5-2.5 2 1.2 3.1 3.3 3.1 6.9 0 .9-.1 3.7-.1 5.3zM214.8 322.4h-.1z" class="st2"/></g></g></svg>