<svg xmlns="http://www.w3.org/2000/svg" xmlns:xlink="http://www.w3.org/1999/xlink" viewBox="0 0 64 64" height="64" width="64"><title>Canvas</title><desc>Created using Figma</desc><path fill="#fff" fill-rule="evenodd" paint-order="fill markers stroke" d="M49.464 39.36h8.071V43h-8.071zM49.17 41A3.17 3.17 0 1 1 46 37.829a3.17 3.17 0 0 1 3.17 3.17z"/><path d="M1.094 48.352l37.178-37.096 8.393.995 2.641-1.676 6.077 5.828-2.017 3.966 2.555 2.53-7.612 8.53 2.306 2.51-3.13 3.113c-5-.336-5.153 2.319-6.476 4.251L35 41.6l-9.18 8.336-3.53-2.231-8.429 8.102-7.36-6.897-5.566 4.554z" fill="#c4e1f7" fill-rule="evenodd" paint-order="fill markers stroke"/><g transform="translate(-212.02)" fill="#1485e0"><use height="100%" width="100%" transform="translate(212.02 10)" xlink:href="#a"/><use height="100%" width="100%" transform="translate(218.31 46.29)" xlink:href="#b"/><use height="100%" width="100%" transform="translate(231.31 32.29)" xlink:href="#c"/><use height="100%" width="100%" transform="translate(240.31 10)" xlink:href="#d"/><use height="100%" width="100%" transform="translate(221.31 45.29)" xlink:href="#e"/><use height="100%" width="100%" transform="translate(259.31 30.29)" xlink:href="#f"/><use height="100%" width="100%" transform="translate(247.02 40)" xlink:href="#g"/><use height="100%" width="100%" transform="translate(274.02)" xlink:href="#h"/><use height="100%" width="100%" transform="translate(268.02 28.29)" xlink:href="#i"/><use height="100%" width="100%" transform="translate(264.31)" xlink:href="#j"/><use height="100%" width="100%" transform="translate(233.31 19.29)" xlink:href="#k"/><use height="100%" width="100%" transform="translate(257.31 9)" xlink:href="#l"/><use height="100%" width="100%" transform="translate(253.02 36)" xlink:href="#m"/><use height="100%" width="100%" transform="translate(262.02 38)" xlink:href="#g"/><use height="100%" width="100%" transform="translate(262.02 42)" xlink:href="#g"/></g><defs><path d="M2 38.414v3.172l8.293-8.293A.996.996 0 0 1 11 33h14.586l10.707-10.707A.996.996 0 0 1 37 22h8.586l9-9L44 2.414l-8.293 8.293A.996.996 0 0 1 35 11h-5.586zM1 45a1 1 0 0 1-1-1v-6c0-.265.105-.52.293-.707l28-28A.996.996 0 0 1 29 9h5.586L43.293.293a.999.999 0 0 1 1.414 0l12 12a.999.999 0 0 1 0 1.414l-10 10A.996.996 0 0 1 46 24h-8.586L26.707 34.707A.996.996 0 0 1 26 35H11.414l-9.707 9.707A1 1 0 0 1 1 45z" id="a" fill-rule="evenodd"/><path d="M7.707 10.707A.997.997 0 0 1 7 10.414l-7-7L1.414 2l6.293 6.293L16 0l1.414 1.414-9 9a.997.997 0 0 1-.707.293" id="b" fill-rule="evenodd"/><path d="M6.707 18.707A.997.997 0 0 1 6 18.414l-6-6L1.414 11l5.293 5.293L23 0l1.414 1.414-17 17a.997.997 0 0 1-.707.293" id="c" fill-rule="evenodd"/><path d="M1.414 10.707L0 9.293l9-9A.996.996 0 0 1 9.707 0h6v2h-5.586l-8.707 8.707" id="d" fill-rule="evenodd"/><path d="M7 8.414l-7-7L1.414 0l7 7L7 8.414" id="e" fill-rule="evenodd"/><path d="M1.414 7.414L0 6l2.293-2.293L0 1.414 1.414 0l3 3a.999.999 0 0 1 0 1.414l-3 3" id="f" fill-rule="evenodd"/><path d="M0 2h7V0H0z" id="g" fill-rule="evenodd"/><path d="M0 64h2V0H0z" id="h" fill-rule="evenodd"/><path d="M6.293 25.414l-6-6A.997.997 0 0 1 0 18.707v-12c0-.265.105-.52.293-.707l6-6 1.414 1.414L2 7.121v11.172L7.707 24l-1.414 1.414" id="i" fill-rule="evenodd"/><path d="M1.414 13.707L0 12.293l3.707-3.707V0h2v9c0 .265-.105.52-.293.707l-4 4" id="j" fill-rule="evenodd"/><path d="M1.414 14.414L0 13 13 0l1.414 1.414-13 13" id="k" fill-rule="evenodd"/><path d="M8.414 11.707L7 10.293 9.293 8 3.707 2.414 1.414 4.707 0 3.293l3-3a.999.999 0 0 1 1.414 0l7 7a.999.999 0 0 1 0 1.414l-3 3" id="l" fill-rule="evenodd"/><path d="M5 2C3.346 2 2 3.346 2 5s1.346 3 3 3 3-1.346 3-3-1.346-3-3-3zm0 8c-2.757 0-5-2.243-5-5s2.243-5 5-5 5 2.243 5 5-2.243 5-5 5z" id="m" fill-rule="evenodd"/></defs></svg>