<svg xmlns="http://www.w3.org/2000/svg" xmlns:svg="http://www.w3.org/2000/svg" xmlns:xlink="http://www.w3.org/1999/xlink" id="svg8" width="157.166" height="157.166" version="1.1" viewBox="0 0 41.583 41.583"><metadata id="metadata5"/><g id="layer1" transform="translate(74.359384,-126.75728)"><g id="g4736" transform="rotate(-23.363996,-53.567669,147.549)"><g id="g4646" transform="matrix(0.62704545,0,0,0.62704545,-19.978306,55.029071)"><path id="rect3724" fill="#00f" stroke-width=".212" d="m -65.673363,142.47861 h 2.126116 l 8.873925,-0.002 c 5.279322,0.0937 5.779098,10.20614 0,10.12879 l -4.196613,0.009 0.03765,-5.90816 1.812525,0.008 0.0084,4.3601 2.338038,-0.0268 c 3.107309,0.0267 2.701752,-6.97505 0,-6.92126 l -8.873847,-0.0887 v 2.7033 l 2.62221,-0.009 0.02362,1.45993 -2.645833,-0.009 v 4.431 h -2.126116 z"/><path id="rect3727" fill="#00f" stroke-width=".265" d="m -47.07575,142.47567 1.789111,-4.1e-4 3.824661,10.14448 -2.05536,0.003 -2.619378,-7.80563 -1.220263,3.67219 1.455574,0.01 0.418504,1.48847 -2.368784,-0.009 -0.887917,2.64378 h -1.960751 z"/></g><circle id="path3753" cx="-53.568" cy="147.549" r="19.398" fill="none" stroke="#00f" stroke-dasharray="none" stroke-miterlimit="4" stroke-opacity="1" stroke-width=".688"/><circle id="path3753-3" cx="-53.568" cy="147.549" r="20.426" fill="none" stroke="#00f" stroke-dasharray="none" stroke-miterlimit="4" stroke-opacity="1" stroke-width=".724"/><circle id="path3753-6" cx="-53.568" cy="147.549" r="14.891" fill="none" stroke="#00f" stroke-dasharray="none" stroke-miterlimit="4" stroke-opacity="1" stroke-width=".528"/><circle id="path3753-3-7" cx="-53.568" cy="147.549" r="15.681" fill="none" stroke="#00f" stroke-dasharray="none" stroke-miterlimit="4" stroke-opacity="1" stroke-width=".556"/><g id="g4642" transform="matrix(0.99479305,0.21566707,-0.21566707,0.99479305,40.163395,53.778694)"><text id="text4595" x="-81.382" y="38.202" fill="#00f" fill-opacity="1" stroke="none" stroke-width=".265" font-family="sans-serif" font-size="10.855" font-style="normal" font-weight="normal" letter-spacing="0" word-spacing="0" xml:space="preserve" style="line-height:1.25"><textPath id="textPath4626" fill="#00f" stroke-width=".265" font-family="Open Sans" font-size="3.21" font-stretch="normal" font-style="normal" font-variant="normal" font-weight="normal" xlink:href="#path3753-3-7-4" style="-inkscape-font-specification:'Open Sans'">21 CFR Part 11 ** security ** privacy ** encryption ** validation **</textPath></text><circle id="path3753-3-7-4" cx="-38.999" cy="-124.33" r="16.083" fill="none" stroke="none" stroke-dasharray="none" stroke-miterlimit="4" stroke-opacity="1" stroke-width=".57" transform="rotate(-129.87263)"/></g><g id="g4718" transform="translate(-2.175415e-6,42.333341)"><rect id="rect4648" width="28.15" height=".149" x="-67.643" y="100.889" fill="#00f" fill-opacity="1" stroke="#00f" stroke-dasharray="none" stroke-miterlimit="4" stroke-opacity="1" stroke-width=".201" ry="0"/><rect id="rect4648-5" width="28.872" height=".148" x="-68.004" y="101.466" fill="#00f" fill-opacity="1" stroke="#00f" stroke-dasharray="none" stroke-miterlimit="4" stroke-opacity="1" stroke-width=".203" ry="0"/><rect id="rect4648-7" width="28.15" height=".149" x="-67.643" y="109.394" fill="#00f" fill-opacity="1" stroke="#00f" stroke-dasharray="none" stroke-miterlimit="4" stroke-opacity="1" stroke-width=".201" ry="0"/><rect id="rect4648-5-0" width="28.872" height=".148" x="-68.004" y="108.885" fill="#00f" fill-opacity="1" stroke="#00f" stroke-dasharray="none" stroke-miterlimit="4" stroke-opacity="1" stroke-width=".203" ry="0"/></g></g></g></svg>