<svg xmlns="http://www.w3.org/2000/svg" xmlns:xlink="http://www.w3.org/1999/xlink" viewBox="0 0 64 64" height="64" width="64"><title>Canvas</title><desc>Created using Figma</desc><path d="M14.781 12c0 1.484-1.245 2.687-2.78 2.688-1.537 0-2.782-1.203-2.782-2.688 0-1.484 1.244-2.687 2.78-2.687 1.536 0 2.782 1.202 2.782 2.686zM6.781 32c0 1.484-1.245 2.687-2.78 2.688-1.537 0-2.782-1.203-2.782-2.688 0-1.484 1.244-2.687 2.78-2.688 1.536 0 2.782 1.203 2.782 2.687zM14.781 52c0 1.484-1.245 2.687-2.78 2.688-1.537 0-2.782-1.203-2.782-2.688 0-1.484 1.244-2.687 2.78-2.688 1.536 0 2.782 1.203 2.782 2.687zM28.781 52c0 1.484-1.245 2.687-2.78 2.688-1.537 0-2.782-1.203-2.782-2.688 0-1.484 1.244-2.687 2.78-2.688 1.536 0 2.782 1.203 2.782 2.687zM40.781 52c0 1.484-1.245 2.687-2.78 2.688-1.537 0-2.782-1.203-2.782-2.688 0-1.484 1.244-2.687 2.78-2.688 1.536 0 2.782 1.203 2.782 2.687zM54.781 52c0 1.484-1.245 2.687-2.78 2.688-1.537 0-2.782-1.203-2.782-2.688 0-1.484 1.244-2.687 2.78-2.688 1.536 0 2.782 1.203 2.782 2.687zM62.781 32c0 1.484-1.245 2.687-2.78 2.688-1.537 0-2.782-1.203-2.782-2.688 0-1.484 1.244-2.687 2.78-2.688 1.536 0 2.782 1.203 2.782 2.687zM54.781 12c0 1.484-1.245 2.687-2.78 2.688-1.537 0-2.782-1.203-2.782-2.688 0-1.484 1.244-2.687 2.78-2.687 1.536 0 2.782 1.202 2.782 2.686zM40.781 12c0 1.484-1.245 2.687-2.78 2.688-1.537 0-2.782-1.203-2.782-2.688 0-1.484 1.244-2.687 2.78-2.688 1.536 0 2.782 1.203 2.782 2.687zM28.781 12c0 1.484-1.245 2.687-2.78 2.688-1.537 0-2.782-1.203-2.782-2.688 0-1.484 1.244-2.687 2.78-2.687 1.536 0 2.782 1.202 2.782 2.686z" fill="#fff" fill-rule="evenodd" paint-order="fill markers stroke"/><path d="M14.781 12c0 1.484-1.245 2.687-2.78 2.688-1.537 0-2.782-1.203-2.782-2.688 0-1.484 1.244-2.687 2.78-2.688 1.536 0 2.782 1.203 2.782 2.687z" fill="#fff" fill-rule="evenodd" paint-order="fill markers stroke"/><path d="M27.366 19.619l9.224-.089L39.24 28H24.76z" fill="#c4e1f7" fill-rule="evenodd" paint-order="fill markers stroke"/><rect width="16.525" height="15.037" x="23.737" y="29.481" ry="0" rx="0" fill="#c4e1f7" fill-rule="evenodd" paint-order="fill markers stroke"/><g transform="translate(-.02)" fill="#1485e0"><use height="100%" width="100%" transform="translate(22.02 28)" xlink:href="#a"/><use height="100%" width="100%" transform="translate(24.02 18)" xlink:href="#b"/><use height="100%" width="100%" transform="translate(30.02 33)" xlink:href="#c"/><use height="100%" width="100%" transform="translate(31.02 36)" xlink:href="#d"/><use height="100%" width="100%" transform="translate(7.02 31)" xlink:href="#e"/><use height="100%" width="100%" transform="translate(.02 28)" xlink:href="#f"/><use height="100%" width="100%" transform="translate(48.02 31)" xlink:href="#e"/><use height="100%" width="100%" transform="translate(56.02 28)" xlink:href="#f"/><use height="100%" width="100%" transform="translate(44.02 38)" xlink:href="#g"/><use height="100%" width="100%" transform="translate(48.02 48)" xlink:href="#f"/><use height="100%" width="100%" transform="translate(11.02 38)" xlink:href="#h"/><use height="100%" width="100%" transform="translate(8.02 48)" xlink:href="#f"/><use height="100%" width="100%" transform="translate(44.02 15)" xlink:href="#i"/><use height="100%" width="100%" transform="translate(48.02 8)" xlink:href="#f"/><use height="100%" width="100%" transform="translate(11.02 15)" xlink:href="#j"/><use height="100%" width="100%" transform="translate(8.02 8)" xlink:href="#f"/><use height="100%" width="100%" transform="translate(22.02 48)" xlink:href="#f"/><use height="100%" width="100%" transform="translate(25.02 55)" xlink:href="#k"/><use height="100%" width="100%" transform="translate(34.02 48)" xlink:href="#f"/><use height="100%" width="100%" transform="translate(37.02 55)" xlink:href="#k"/><use height="100%" width="100%" transform="translate(22.02 8)" xlink:href="#f"/><use height="100%" width="100%" transform="translate(25.02)" xlink:href="#k"/><use height="100%" width="100%" transform="translate(34.02 8)" xlink:href="#f"/><use height="100%" width="100%" transform="translate(37.02)" xlink:href="#k"/><use height="100%" width="100%" transform="translate(44.02 31)" xlink:href="#l"/><use height="100%" width="100%" transform="translate(18.02 31)" xlink:href="#l"/></g><defs><path d="M3 2c-.551 0-1 .449-1 1v12c0 .551.449 1 1 1h14c.551 0 1-.449 1-1V3c0-.551-.449-1-1-1zm14 16H3c-1.654 0-3-1.346-3-3V3c0-1.654 1.346-3 3-3h14c1.654 0 3 1.346 3 3v12c0 1.654-1.346 3-3 3z" id="a" fill-rule="evenodd"/><path d="M16 11h-2V7c0-2.757-2.243-5-5-5H7C4.243 2 2 4.243 2 7v4H0V7c0-3.86 3.14-7 7-7h2c3.86 0 7 3.14 7 7v4" id="b" fill-rule="evenodd"/><path d="M2 4C.897 4 0 3.103 0 2s.897-2 2-2 2 .897 2 2-.897 2-2 2" id="c" fill-rule="evenodd"/><path d="M0 5h2V0H0z" id="d" fill-rule="evenodd"/><path d="M0 2h9V0H0z" id="e" fill-rule="evenodd"/><path d="M4 2c-1.103 0-2 .897-2 2s.897 2 2 2 2-.897 2-2-.897-2-2-2zm0 6C1.794 8 0 6.206 0 4s1.794-4 4-4 4 1.794 4 4-1.794 4-4 4z" id="f" fill-rule="evenodd"/><path d="M9 11H7V5c0-1.654-1.346-3-3-3H0V0h4c2.757 0 5 2.243 5 5v6" id="g" fill-rule="evenodd"/><path d="M2 11H0V5c0-2.757 2.243-5 5-5h4v2H5C3.346 2 2 3.346 2 5v6" id="h" fill-rule="evenodd"/><path d="M4 11H0V9h4c1.654 0 3-1.346 3-3V0h2v6c0 2.757-2.243 5-5 5" id="i" fill-rule="evenodd"/><path d="M9 11H5c-2.757 0-5-2.243-5-5V0h2v6c0 1.654 1.346 3 3 3h4v2" id="j" fill-rule="evenodd"/><path d="M0 9h2V0H0z" id="k" fill-rule="evenodd"/><path d="M0 2h2V0H0z" id="l" fill-rule="evenodd"/></defs></svg>