<svg xmlns="http://www.w3.org/2000/svg" xmlns:xlink="http://www.w3.org/1999/xlink" viewBox="0 0 64 64" height="64" width="64"><title>Canvas</title><desc>Created using Figma</desc><rect width="24" height="34.001" x="20" y="15" ry="0" rx="0" fill="#c4e1f7" fill-rule="evenodd" paint-order="fill markers stroke"/><path d="M26.72 29.445l.592-7.344H36.5l.405 7.531 1.875.087V41.96H25.188V29.844z" fill="#fff" fill-rule="evenodd" paint-order="fill markers stroke"/><g transform="translate(-.02 -211)" fill="#1485e0"><use height="100%" width="100%" transform="translate(24.02 240)" xlink:href="#a"/><use height="100%" width="100%" transform="translate(26.02 232)" xlink:href="#b"/><use height="100%" width="100%" transform="translate(31.02 244)" xlink:href="#c"/><use height="100%" width="100%" transform="translate(.02 226)" xlink:href="#d"/><use height="100%" width="100%" transform="translate(18.02 211)" xlink:href="#e"/><use height="100%" width="100%" transform="translate(6.02 232)" xlink:href="#c"/><use height="100%" width="100%" transform="translate(10.02 232)" xlink:href="#c"/><use height="100%" width="100%" transform="translate(14.02 232)" xlink:href="#c"/><use height="100%" width="100%" transform="translate(48.02 252)" xlink:href="#c"/><use height="100%" width="100%" transform="translate(52.02 252)" xlink:href="#c"/><use height="100%" width="100%" transform="translate(56.02 252)" xlink:href="#c"/></g><defs><path d="M0 2h2V0H0z" id="c" fill-rule="evenodd"/><path d="M2 12h12V2H2zm-2 2h16V0H0z" id="a" fill-rule="evenodd"/><path d="M12 9h-2V3c0-.552-.449-1-1-1H3c-.551 0-1 .448-1 1v6H0V3c0-1.654 1.346-3 3-3h6c1.654 0 3 1.346 3 3v6" id="b" fill-rule="evenodd"/><path d="M7 49a1 1 0 0 1-1-1v-9H2c-1.103 0-2-.897-2-2V2C0 .897.897 0 2 0h14v2H2v35h5a1 1 0 0 1 1 1v7.586l8.293-8.293A.997.997 0 0 1 17 37h27V2H22V0h22c1.103 0 2 .897 2 2v35c0 1.103-.897 2-2 2H17.414l-9.707 9.707A1 1 0 0 1 7 49" id="d" fill-rule="evenodd"/><path d="M44 49H30v-2h14V12h-5a1 1 0 0 1-1-1V3.416l-8.293 8.293A.997.997 0 0 1 29 12H2v35h22v2H2c-1.103 0-2-.897-2-2V12c0-1.103.897-2 2-2h26.586L38.293.294A1 1 0 0 1 40 1v9h4c1.103 0 2 .897 2 2v35c0 1.103-.897 2-2 2" id="e" fill-rule="evenodd"/></defs></svg>