<svg xmlns="http://www.w3.org/2000/svg" viewBox="0 0 64 64" height="64" width="64"><title>ENCRIPTION</title><g fill-rule="evenodd" fill="none"><rect rx="4" height="45" width="64" y="4" fill="#C4E1F7"/><path fill="#1485E0" d="M4 5c-1.103 0-2 .897-2 2v40c0 1.103.897 2 2 2h56c1.103 0 2-.897 2-2V7c0-1.103-.897-2-2-2H4zm56 46H4c-2.206 0-4-1.794-4-4V7c0-2.206 1.794-4 4-4h56c2.206 0 4 1.794 4 4v40c0 2.206-1.794 4-4 4z"/><path fill="#FFF" d="M6 9h52v32H6z"/><path fill="#1485E0" d="M40.042 60.287l-3-10 1.916-.574 3 10-1.916.574M23.958 60.287l-1.916-.574 3-10 1.916.574-3 10"/><path fill="#1485E0" d="M19 61h26v-2H19zM31 47h2v-2h-2zM6 41h52V9H6v32zm53 2H5a1 1 0 0 1-1-1V8a1 1 0 0 1 1-1h54a1 1 0 0 1 1 1v34a1 1 0 0 1-1 1z"/><path fill="#1485E0" d="M17 23h2v-2h-2zM39 23h4v-2h-4zM43 25h4v-2h-4zM45 27h2v-2h-2zM43 29h2v-2h-2zM43 31h4v-2h-4zM47 29h4v-2h-4zM39 27h2v-2h-2zM37 25h4v-2h-4zM35 29h2v-2h-2zM33 27h2v-2h-2zM35 31h4v-2h-4zM35 33h2v-2h-2zM39 35h2v-4h-2zM37 37h2v-2h-2zM45 35h2v-2h-2zM51 35h2v-2h-2zM43 37h2v-2h-2zM47 37h4v-2h-4zM31 37h4v-2h-4zM29 35h2v-2h-2zM23 35h4v-2h-4zM27 29h2v-2h-2zM25 27h4v-2h-4zM23 25h2v-2h-2zM19 27h4v-2h-4zM13 21h4v-2h-4zM17 29h4v-2h-4zM19 33h2v-2h-2zM23 31h4v-2h-4zM23 33h2v-2h-2zM21 37h2v-2h-2zM25 37h2v-2h-2zM29 33h4v-2h-4zM31 29h2v-2h-2zM29 25h4v-2h-4zM17 25h2v-2h-2zM15 35h4v-2h-4zM29 17h4v-2h-4zM31 21h6v-2h-6zM25 19h6v-2h-6zM33 23h2v-2h-2zM13 23h2v-2h-2zM21 23h8v-2h-8zM39 19h8v-2h-8zM49 33h4v-2h-4zM51 31h2v-2h-2zM49 27h4v-2h-4zM45 23h6v-2h-6zM51 21h2v-2h-2zM49 19h4v-2h-4zM45 17h4v-2h-4zM51 15h2v-2h-2zM43 15h4v-2h-4zM41 17h2v-2h-2zM37 15h4v-2h-4zM35 19h2v-4h-2zM21 19h2v-2h-2zM15 19h4v-2h-4zM11 19h2v-2h-2zM11 23h2v-2h-2zM11 27h2v-2h-2zM13 31h4v-2h-4zM15 27h2v-2h-2zM11 33h2v-2h-2zM13 37h4v-2h-4zM11 35h2v-2h-2zM19 17h4v-2h-4zM23 15h4v-2h-4zM11 15h8v-2h-8zM31 15h4v-2h-4z"/></g></svg>