<svg xmlns="http://www.w3.org/2000/svg" xmlns:xlink="http://www.w3.org/1999/xlink" viewBox="0 0 64 64" height="64" width="64"><title>Canvas</title><desc>Created using Figma</desc><rect width="62.237" height="10" x=".763" y="4" ry="0" rx="0" fill="#fff" fill-rule="evenodd" paint-order="fill markers stroke"/><rect width="53.799" height="42.955" x="5.101" y="16" ry="0" rx="0" fill="#c4e1f7" fill-rule="evenodd" paint-order="fill markers stroke"/><rect width="31.237" height="8.165" x="11.763" y="35.835" ry="0" rx="0" fill="#fff" fill-rule="evenodd" paint-order="fill markers stroke"/><rect width="30.474" height="8.33" x="11.263" y="22.835" ry="0" rx="0" fill="#fff" fill-rule="evenodd" paint-order="fill markers stroke"/><rect width="11.382" height="4.802" x="11.309" y="47.599" ry="0" rx="0" fill="#fff" fill-rule="evenodd" paint-order="fill markers stroke"/><rect width="5.46" height="5.042" x="46.27" y="23.479" ry="0" rx="0" fill="#fff" fill-rule="evenodd" paint-order="fill markers stroke"/><g transform="translate(-318.02 -106)" fill="#1485e0"><use height="100%" width="100%" transform="translate(318.02 110)" xlink:href="#a"/><use height="100%" width="100%" transform="translate(378.02 118)" xlink:href="#b"/><use height="100%" width="100%" transform="translate(319.02 118)" xlink:href="#c"/><use height="100%" width="100%" transform="translate(322.02 114)" xlink:href="#d"/><use height="100%" width="100%" transform="translate(326.02 114)" xlink:href="#d"/><use height="100%" width="100%" transform="translate(330.02 114)" xlink:href="#d"/><use height="100%" width="100%" transform="translate(334.02 111)" xlink:href="#e"/><use height="100%" width="100%" transform="translate(338.02 114)" xlink:href="#f"/><use height="100%" width="100%" transform="translate(322.02 122)" xlink:href="#g"/><use height="100%" width="100%" transform="translate(328.02 128)" xlink:href="#h"/><use height="100%" width="100%" transform="translate(328.02 140)" xlink:href="#i"/><use height="100%" width="100%" transform="translate(332.02 132)" xlink:href="#d"/><use height="100%" width="100%" transform="translate(336.02 132)" xlink:href="#d"/><use height="100%" width="100%" transform="translate(340.02 132)" xlink:href="#d"/><use height="100%" width="100%" transform="translate(344.02 132)" xlink:href="#d"/><use height="100%" width="100%" transform="translate(332.02 144)" xlink:href="#d"/><use height="100%" width="100%" transform="translate(336.02 144)" xlink:href="#d"/><use height="100%" width="100%" transform="translate(340.02 144)" xlink:href="#d"/><use height="100%" width="100%" transform="translate(344.02 144)" xlink:href="#d"/><use height="100%" width="100%" transform="translate(348.02 132)" xlink:href="#d"/><use height="100%" width="100%" transform="translate(352.02 132)" xlink:href="#d"/><use height="100%" width="100%" transform="translate(328.02 153)" xlink:href="#j"/><use height="100%" width="100%" transform="translate(363.02 128)" xlink:href="#k"/><use height="100%" width="100%" transform="translate(352.02 135)" xlink:href="#l"/><use height="100%" width="100%" transform="translate(358.02 106)" xlink:href="#m"/></g><defs><path d="M4 2c-1.103 0-2 .897-2 2s.897 2 2 2 2-.897 2-2-.897-2-2-2zm0 6C1.794 8 0 6.206 0 4s1.794-4 4-4 4 1.794 4 4-1.794 4-4 4z" id="k" fill-rule="evenodd"/><path d="M0 2h2V0H0z" id="d" fill-rule="evenodd"/><path d="M0 8h2V0H0z" id="e" fill-rule="evenodd"/><path d="M63 60H1a1 1 0 0 1-1-1V1a1 1 0 0 1 1-1h37v2H2v56h60V2h-2V0h3a1 1 0 0 1 1 1v58a1 1 0 0 1-1 1" id="a" fill-rule="evenodd"/><path d="M0 2h3V0H0z" id="b" fill-rule="evenodd"/><path d="M0 2h45V0H0z" id="c" fill-rule="evenodd"/><path d="M0 2h34V0H0z" id="f" fill-rule="evenodd"/><path d="M55 44H1a1 1 0 0 1-1-1V1a1 1 0 0 1 1-1h41v2H2v40h52V2h-6V0h7a1 1 0 0 1 1 1v42a1 1 0 0 1-1 1" id="g" fill-rule="evenodd"/><path d="M2 8h29V2H2zm30 2H1a1 1 0 0 1-1-1V1a1 1 0 0 1 1-1h31a1 1 0 0 1 1 1v8a1 1 0 0 1-1 1z" id="h" fill-rule="evenodd"/><path d="M22 10H1a1 1 0 0 1-1-1V1a1 1 0 0 1 1-1h31a1 1 0 0 1 1 1v5h-2V2H2v6h20v2" id="i" fill-rule="evenodd"/><path d="M2 4h10V2H2zm11 2H1a1 1 0 0 1-1-1V1a1 1 0 0 1 1-1h12a1 1 0 0 1 1 1v4a1 1 0 0 1-1 1z" id="j" fill-rule="evenodd"/><path d="M8 25c-4.411 0-8-3.589-8-8v-7a1 1 0 0 1 1.707-.707l6 6-1.414 1.414L2 12.414V17c0 3.309 2.691 6 6 6s6-2.691 6-6V0h2v17c0 4.411-3.589 8-8 8" id="l" fill-rule="evenodd"/><path d="M10 23H8v-6c0-2.757 2.243-5 5-5 1.654 0 3-1.346 3-3s-1.346-3-3-3H5C2.243 6 0 3.757 0 1V0h2v1c0 1.654 1.346 3 3 3h8c2.757 0 5 2.243 5 5s-2.243 5-5 5c-1.654 0-3 1.346-3 3v6" id="m" fill-rule="evenodd"/></defs></svg>