<svg id="svg7851" xmlns="http://www.w3.org/2000/svg" width="64" height="64" viewBox="-17 19 64 64"><style>.st0{fill:#c4e1f7}.st1{fill:#1485e0}</style><title id="title6190">Canvas</title><desc id="desc6192">Created using Figma</desc><g id="g13817"><path id="rect13716-1" class="st0" d="M-4.3 32.9l8.1 3.3c5.3-11.7 9.5-11.6 14-14.1.3 6 2.8 11.5 7.7 16.5 1.4-1.7 3.2-4.3 3.6-7.3C35 34.7 35.3 41.2 37 47H-7.1c1.5-4.5 6-8.2 2.8-14.1z"/><path class="st1" d="M29.6 30.2L28 29.1V31c0 3-1.1 4.7-2.4 6.3-.5-.6-.9-1.2-1.4-1.8C21.7 32.4 19 29.1 19 22v-1h-1c-4.2 0-11 5-14.6 13.6C1.4 33-1.4 32-5 32h-2.1l1.4 1.6c2.7 3.2 1.8 4.8.6 7.3C-6 42.6-7 44.5-7 47h2c0-2 .8-3.6 1.6-5.1 1.1-2.2 2.3-4.5.5-7.8 2.4.3 4.3 1.2 5.6 2.4C1.6 39.7 1 43.1 1 47h2c0-3.2.5-6.1 1.2-8.7C7 41.9 7 46.7 7 47h2c0-3.2-1-7.8-4-11 3-7.7 8.6-12.1 12-12.9.3 7 3.1 10.6 5.7 13.7.6.7 1.1 1.4 1.6 2.1C22.7 40.8 21 43 21 47h2c0-3 1.1-4.8 2.4-6.4 1 1.7 1.6 3.7 1.6 6.4h2c0-3.4-.9-5.9-2.2-8 1.3-1.5 2.6-3.3 3.1-6.1C35 37.4 35 42.5 35 47h2c0-5.1 0-11.5-7.4-16.8z"/><path class="st1" d="M13.4 37.1l-1.8-.9.4 2c.6 2.8.1 4.2-.4 5.6-.3.9-.6 1.9-.6 3.2h2c0-1 .2-1.7.5-2.6.4-1.1.8-2.4.7-4.4 2.3 2.1 2.7 5.1 2.7 6.9h2c.1-4.4-1.9-8-5.5-9.8z"/></g><path class="st1" d="M47 57v-2H37v-4h8v-2h-60v2h8v4h-10v2h4v4h-2v2h8v4h-10v2h4v4h-2v2h8v4h-10v2h62v-2h-8v-4h10v-2h-4v-4h2v-2h-8v-4h10v-2h-4v-4h4zm-24-6h12v4H23v-4zm4 10H15v-4h12v4zm0 12H15v-4h12v4zM1 69h12v4H1v-4zm20-2H9v-4h12v4zM1 57h12v4H1v-4zm8-6h12v4H9v-4zm-14 0H7v4H-5v-4zm-6 10v-4h10v4h-10zm6 2H7v4H-5v-4zm-6 10v-4h10v4h-10zm18 6H-5v-4H7v4zm14 0H9v-4h12v4zm14 0H23v-4h12v4zm6-10v4H29v-4h12zm-6-2H23v-4h12v4zm6-6H29v-4h12v4z"/></svg>
