<?xml version="1.0" encoding="UTF-8" standalone="no"?>
<svg
   xmlns:dc="http://purl.org/dc/elements/1.1/"
   xmlns:cc="http://creativecommons.org/ns#"
   xmlns:rdf="http://www.w3.org/1999/02/22-rdf-syntax-ns#"
   xmlns:svg="http://www.w3.org/2000/svg"
   xmlns="http://www.w3.org/2000/svg"
   xmlns:xlink="http://www.w3.org/1999/xlink"
   id="svg7851"
   version="1.1"
   viewBox="0 0 64 64"
   height="64"
   width="64">
  <metadata
     id="metadata7855">
    <rdf:RDF>
      <cc:Work
         rdf:about="">
        <dc:format>image/svg+xml</dc:format>
        <dc:type
           rdf:resource="http://purl.org/dc/dcmitype/StillImage" />
        <dc:title>Canvas</dc:title>
      </cc:Work>
    </rdf:RDF>
  </metadata>
  <title
     id="title6190">Canvas</title>
  <desc
     id="desc6192">Created using Figma</desc>
  <defs
     id="defs7849">
    <path
       style="fill-rule:evenodd"
       d="M 36,25 H 34 V 17 C 34,8.729 27.271,2 19,2 H 17 C 8.729,2 2,8.729 2,17 v 8 H 0 V 17 C 0,7.626 7.626,0 17,0 h 2 c 9.374,0 17,7.626 17,17 v 8"
       id="path0_fill" />
    <path
       style="fill-rule:evenodd"
       d="M 24,16 H 22 V 11 C 22,6.037 17.962,2 13,2 H 11 C 6.038,2 2,6.037 2,11 v 5 H 0 V 11 C 0,4.935 4.935,0 11,0 h 2 c 6.065,0 11,4.935 11,11 v 5"
       id="path1_fill" />
    <path
       style="fill-rule:evenodd"
       d="M 2.828,9.414 8.414,15 19,4.414 17.414,2.828 l -9,9 -4,-4 z M 8.414,17.828 0,9.414 4.414,5 l 4,4 9,-9 4.414,4.414 z"
       id="path2_fill" />
    <path
       style="fill-rule:evenodd"
       d="M 14,28 C 6.28,28 0,21.72 0,14 0,6.28 6.28,0 14,0 c 1.866,0 3.68,0.361 5.391,1.075 l -0.77,1.846 C 17.155,2.31 15.601,2 14,2 7.383,2 2,7.383 2,14 c 0,6.617 5.383,12 12,12 6.617,0 12,-5.383 12,-12 h 2 c 0,7.72 -6.28,14 -14,14"
       id="path3_fill" />
    <path
       style="fill-rule:evenodd"
       d="M 4,2 C 2.897,2 2,2.897 2,4 v 32 c 0,1.103 0.897,2 2,2 h 40 c 1.103,0 2,-0.897 2,-2 V 4 C 46,2.897 45.103,2 44,2 Z M 44,40 H 4 C 1.794,40 0,38.206 0,36 V 4 C 0,1.794 1.794,0 4,0 h 40 c 2.206,0 4,1.794 4,4 v 32 c 0,2.206 -1.794,4 -4,4 z"
       id="path4_fill" />
    <path
       style="fill-rule:evenodd"
       d="M 1.414,35.414 0,34 3.707,30.293 V 5.121 L 0,1.414 1.414,0 5.707,4.293 v 26.828 l -4.293,4.293"
       id="path5_fill" />
    <path
       style="fill-rule:evenodd"
       d="M 4.293,35.414 0,31.121 V 4.293 L 4.293,0 5.707,1.414 2,5.121 V 30.293 L 5.707,34 4.293,35.414"
       id="path6_fill" />
    <path
       style="fill-rule:evenodd"
       d="M 0,2 H 4 V 0 H 0 Z"
       id="path7_fill" />
    <path
       style="fill-rule:evenodd"
       d="M 3,2 C 2.449,2 2,2.449 2,3 v 12 c 0,0.551 0.449,1 1,1 h 14 c 0.551,0 1,-0.449 1,-1 V 3 C 18,2.449 17.551,2 17,2 Z M 17,18 H 3 C 1.346,18 0,16.654 0,15 V 3 C 0,1.346 1.346,0 3,0 h 14 c 1.654,0 3,1.346 3,3 v 12 c 0,1.654 -1.346,3 -3,3 z"
       id="path8_fill" />
    <path
       style="fill-rule:evenodd"
       d="M 16,11 H 14 V 7 C 14,4.243 11.757,2 9,2 H 7 C 4.243,2 2,4.243 2,7 v 4 H 0 V 7 C 0,3.14 3.14,0 7,0 h 2 c 3.86,0 7,3.14 7,7 v 4"
       id="path9_fill" />
    <path
       style="fill-rule:evenodd"
       d="M 2,4 C 0.897,4 0,3.103 0,2 0,0.897 0.897,0 2,0 3.103,0 4,0.897 4,2 4,3.103 3.103,4 2,4"
       id="path10_fill" />
    <path
       style="fill-rule:evenodd"
       d="M 0,5 H 2 V 0 H 0 Z"
       id="path11_fill" />
    <path
       style="fill-rule:evenodd"
       d="M 0,2 H 9 V 0 H 0 Z"
       id="path12_fill" />
    <path
       style="fill-rule:evenodd"
       d="M 4,2 C 2.897,2 2,2.897 2,4 2,5.103 2.897,6 4,6 5.103,6 6,5.103 6,4 6,2.897 5.103,2 4,2 Z M 4,8 C 1.794,8 0,6.206 0,4 0,1.794 1.794,0 4,0 6.206,0 8,1.794 8,4 8,6.206 6.206,8 4,8 Z"
       id="path13_fill" />
    <path
       style="fill-rule:evenodd"
       d="M 9,11 H 7 V 5 C 7,3.346 5.654,2 4,2 H 0 V 0 h 4 c 2.757,0 5,2.243 5,5 v 6"
       id="path14_fill" />
    <path
       style="fill-rule:evenodd"
       d="M 2,11 H 0 V 5 C 0,2.243 2.243,0 5,0 H 9 V 2 H 5 C 3.346,2 2,3.346 2,5 v 6"
       id="path15_fill" />
    <path
       style="fill-rule:evenodd"
       d="M 4,11 H 0 V 9 H 4 C 5.654,9 7,7.654 7,6 V 0 h 2 v 6 c 0,2.757 -2.243,5 -5,5"
       id="path16_fill" />
    <path
       style="fill-rule:evenodd"
       d="M 9,11 H 5 C 2.243,11 0,8.757 0,6 V 0 h 2 v 6 c 0,1.654 1.346,3 3,3 h 4 v 2"
       id="path17_fill" />
    <path
       style="fill-rule:evenodd"
       d="M 0,9 H 2 V 0 H 0 Z"
       id="path18_fill" />
    <path
       style="fill-rule:evenodd"
       d="M 0,2 H 2 V 0 H 0 Z"
       id="path19_fill" />
    <path
       style="fill-rule:evenodd"
       d="M 8,4 H 6 C 6,2.897 5.103,2 4,2 2.897,2 2,2.897 2,4 H 0 C 0,1.794 1.794,0 4,0 6.206,0 8,1.794 8,4"
       id="path20_fill" />
    <path
       style="fill-rule:evenodd"
       d="M 8,8 H 6 C 6,4.691 3.309,2 0,2 V 0 c 4.411,0 8,3.589 8,8"
       id="path21_fill" />
    <path
       style="fill-rule:evenodd"
       d="M 2,5.599 H 0 C 0,3.493 0.812,1.504 2.286,0 L 3.714,1.401 C 2.609,2.528 2,4.019 2,5.599"
       id="path22_fill" />
    <path
       style="fill-rule:evenodd"
       d="M 24,12 H 22 C 22,6.486 17.514,2 12,2 6.486,2 2,6.486 2,12 H 0 C 0,5.383 5.383,0 12,0 18.617,0 24,5.383 24,12"
       id="path23_fill" />
    <path
       style="fill-rule:evenodd"
       d="m 6.669,11.927 h -2 C 4.669,7.949 2.967,4.145 0,1.49 L 1.334,0 c 3.39,3.033 5.335,7.381 5.335,11.927"
       id="path24_fill" />
    <path
       style="fill-rule:evenodd"
       d="M 2,16 H 0 C 0,7.178 7.178,0 16,0 V 2 C 8.28,2 2,8.28 2,16"
       id="path25_fill" />
    <path
       style="fill-rule:evenodd"
       d="m 26.316,20 h -2 c 0,-9.925 -8.075,-18 -18,-18 C 4.371,2 2.459,2.308 0.631,2.916 L 0,1.019 C 2.031,0.343 4.156,0 6.316,0 c 11.028,0 20,8.972 20,20"
       id="path26_fill" />
    <path
       style="fill-rule:evenodd"
       d="M 2,13.685 H 0 C 0,8.58 1.923,3.72 5.415,0 L 6.873,1.37 C 3.73,4.717 2,9.091 2,13.685"
       id="path27_fill" />
    <path
       style="fill-rule:evenodd"
       d="m 3.748,9.393 h -2 C 1.748,6.404 1.16,3.507 0,0.783 L 1.84,0 c 1.266,2.973 1.908,6.133 1.908,9.393"
       id="path28_fill" />
    <path
       style="fill-rule:evenodd"
       d="M 1.906,17.304 0,16.695 C 3.187,6.709 12.377,0 22.868,0 c 7.914,0 15.316,3.9 19.8,10.433 l -1.649,1.132 C 36.908,5.576 30.122,2 22.868,2 13.251,2 4.827,8.15 1.906,17.304"
       id="path29_fill" />
    <path
       style="fill-rule:evenodd"
       d="M 0,2 H 64 V 0 H 0 Z"
       id="path30_fill" />
    <path
       style="fill-rule:evenodd"
       d="M 0,6 H 2 V 0 H 0 Z"
       id="path31_fill" />
    <path
       style="fill-rule:evenodd"
       d="M 0,4 H 2 V 0 H 0 Z"
       id="path32_fill" />
    <path
       style="fill-rule:evenodd"
       d="M 0,8 H 2 V 0 H 0 Z"
       id="path33_fill" />
    <path
       style="fill-rule:evenodd"
       d="M 0,7 H 2 V 0 H 0 Z"
       id="path34_fill" />
    <path
       style="fill-rule:evenodd"
       d="M 0,3 H 2 V 0 H 0 Z"
       id="path35_fill" />
    <path
       style="fill-rule:evenodd"
       d="M 9,10 H 0 V 8 H 8 V 0 h 2 v 9 c 0,0.552 -0.448,1 -1,1"
       id="path36_fill" />
    <path
       style="fill-rule:evenodd"
       d="M 10,10 H 1 C 0.448,10 0,9.552 0,9 V 0 h 2 v 8 h 8 v 2"
       id="path37_fill" />
    <path
       style="fill-rule:evenodd"
       d="M 2,10 H 0 V 1 C 0,0.448 0.448,0 1,0 h 9 V 2 H 2 v 8"
       id="path38_fill" />
    <path
       style="fill-rule:evenodd"
       d="M 10,10 H 8 V 2 H 0 V 0 h 9 c 0.552,0 1,0.448 1,1 v 9"
       id="path39_fill" />
    <path
       style="fill-rule:evenodd"
       d="m 2,38.4143 v 3.172 l 8.293,-8.293 c 0.187,-0.188 0.441,-0.293 0.707,-0.293 h 14.586 l 10.707,-10.707 c 0.187,-0.188 0.441,-0.293 0.707,-0.293 h 8.586 l 9,-9 L 44,2.41431 35.707,10.7073 c -0.187,0.188 -0.441,0.293 -0.707,0.293 h -5.586 z m -1,6.586 c -0.129,0 -0.259,-0.025 -0.383,-0.076 C 0.243,44.7693 0,44.4043 0,44.0003 v -6 c 0,-0.265 0.105,-0.52 0.293,-0.707 l 28,-28.00005 c 0.187,-0.188 0.441,-0.293 0.707,-0.293 h 5.586 l 8.707,-8.707 c 0.391,-0.391 1.023,-0.391 1.414,0 l 12,12.00005 c 0.391,0.391 0.391,1.0229 0,1.4139 l -10,10.0001 C 46.52,23.8953 46.266,24.0002 46,24.0002 H 37.414 L 26.707,34.7072 C 26.52,34.8952 26.266,35.0003 26,35.0003 H 11.414 L 1.707,44.7072 C 1.516,44.8982 1.26,45.0003 1,45.0003 Z"
       id="path40_fill" />
    <path
       style="fill-rule:evenodd"
       d="M 7.707,10.707 C 7.451,10.707 7.195,10.609 7,10.414 L 0,3.414 1.414,2 7.707,8.293 16,0 l 1.414,1.414 -9,9 c -0.195,0.195 -0.451,0.293 -0.707,0.293"
       id="path41_fill" />
    <path
       style="fill-rule:evenodd"
       d="M 6.707,18.707 C 6.451,18.707 6.195,18.609 6,18.414 l -6,-6 L 1.414,11 6.707,16.293 23,0 l 1.414,1.414 -17,17 c -0.195,0.195 -0.451,0.293 -0.707,0.293"
       id="path42_fill" />
    <path
       style="fill-rule:evenodd"
       d="M 1.414,10.707 0,9.293 l 9,-9 C 9.187,0.105 9.441,0 9.707,0 h 6 v 2 h -5.586 l -8.707,8.707"
       id="path43_fill" />
    <path
       style="fill-rule:evenodd"
       d="M 7,8.414 0,1.414 1.414,0 8.414,7 7,8.414"
       id="path44_fill" />
    <path
       style="fill-rule:evenodd"
       d="M 1.414,7.414 0,6 2.293,3.707 0,1.414 1.414,0 l 3,3 c 0.391,0.391 0.391,1.023 0,1.414 l -3,3"
       id="path45_fill" />
    <path
       style="fill-rule:evenodd"
       d="M 0,2 H 7 V 0 H 0 Z"
       id="path46_fill" />
    <path
       style="fill-rule:evenodd"
       d="M 0,64 H 2 V 0 H 0 Z"
       id="path47_fill" />
    <path
       style="fill-rule:evenodd"
       d="m 6.293,25.414 -6,-6 C 0.105,19.227 0,18.972 0,18.707 v -12 C 0,6.442 0.105,6.187 0.293,6 l 6,-6 L 7.707,1.414 2,7.121 V 18.293 L 7.707,24 6.293,25.414"
       id="path48_fill" />
    <path
       style="fill-rule:evenodd"
       d="M 1.414,13.707 0,12.293 3.707,8.586 V 0 h 2 v 9 c 0,0.265 -0.105,0.52 -0.293,0.707 l -4,4"
       id="path49_fill" />
    <path
       style="fill-rule:evenodd"
       d="M 1.414,14.414 0,13 13,0 l 1.414,1.414 -13,13"
       id="path50_fill" />
    <path
       style="fill-rule:evenodd"
       d="M 8.414,11.7072 7,10.2933 9.293,8.00025 3.707,2.41425 1.414,4.70725 0,3.29325 l 3,-3 c 0.391,-0.391 1.023,-0.391 1.414,0 l 7,7 c 0.391,0.391 0.391,1.023 0,1.414 l -3,2.99995"
       id="path51_fill" />
    <path
       style="fill-rule:evenodd"
       d="M 5,2 C 3.346,2 2,3.346 2,5 2,6.654 3.346,8 5,8 6.654,8 8,6.654 8,5 8,3.346 6.654,2 5,2 Z m 0,8 C 2.243,10 0,7.757 0,5 0,2.243 2.243,0 5,0 c 2.757,0 5,2.243 5,5 0,2.757 -2.243,5 -5,5 z"
       id="path52_fill" />
    <path
       style="fill-rule:evenodd"
       d="M 32,64 H 6 C 2.691,64 0,61.309 0,58 V 6 C 0,2.691 2.691,0 6,0 h 26 c 3.309,0 6,2.691 6,6 V 23 H 36 V 6 C 36,3.794 34.206,2 32,2 H 6 C 3.794,2 2,3.794 2,6 v 52 c 0,2.206 1.794,4 4,4 h 26 c 2.206,0 4,-1.794 4,-4 V 43 h 2 v 15 c 0,3.309 -2.691,6 -6,6"
       id="path53_fill" />
    <path
       style="fill-rule:evenodd"
       d="M 0,2 H 10 V 0 H 0 Z"
       id="path54_fill" />
    <path
       style="fill-rule:evenodd"
       d="M 0,2 H 36 V 0 H 0 Z"
       id="path55_fill" />
    <path
       style="fill-rule:evenodd"
       d="M 30,40 H 0 V 0 H 30 V 15 H 28 V 2 H 2 V 38 H 28 V 27 h 2 v 13"
       id="path56_fill" />
    <path
       style="fill-rule:evenodd"
       d="M 12,2 C 6.486,2 2,6.486 2,12 2,17.514 6.486,22 12,22 17.514,22 22,17.514 22,12 22,6.486 17.514,2 12,2 Z m 0,22 C 5.383,24 0,18.617 0,12 0,5.383 5.383,0 12,0 c 6.617,0 12,5.383 12,12 0,6.617 -5.383,12 -12,12 z"
       id="path57_fill" />
    <path
       style="fill-rule:evenodd"
       d="M 0,2 H 15 V 0 H 0 Z"
       id="path58_fill" />
    <path
       style="fill-rule:evenodd"
       d="M 6,18 H 0 V 0 H 6 V 4 H 4 V 2 H 2 v 14 h 2 v -4 h 15 v 2 H 6 v 4"
       id="path59_fill" />
    <path
       style="fill-rule:evenodd"
       d="M 5.414,6 H 58.586 L 62,2.586 V 2 H 39.414 L 37.707,3.707 C 37.52,3.895 37.266,4 37,4 H 27 C 26.734,4 26.48,3.895 26.293,3.707 L 24.586,2 H 2 V 2.586 Z M 59,8 H 5 C 4.734,8 4.48,7.895 4.293,7.707 l -4,-4 C 0.105,3.52 0,3.265 0,3 V 1 C 0,0.448 0.447,0 1,0 h 24 c 0.266,0 0.52,0.105 0.707,0.293 L 27.414,2 h 9.172 L 38.293,0.293 C 38.48,0.105 38.734,0 39,0 h 24 c 0.553,0 1,0.448 1,1 v 2 c 0,0.265 -0.105,0.52 -0.293,0.707 l -4,4 C 59.52,7.895 59.266,8 59,8 Z"
       id="path60_fill" />
    <path
       style="fill-rule:evenodd"
       d="M 2,34 H 0 V 4 C 0,1.794 1.794,0 4,0 h 7 V 2 H 4 C 2.897,2 2,2.897 2,4 v 30"
       id="path61_fill" />
    <path
       style="fill-rule:evenodd"
       d="M 11,34 H 9 V 4 C 9,2.897 8.103,2 7,2 H 0 V 0 h 7 c 2.206,0 4,1.794 4,4 v 30"
       id="path62_fill" />
    <path
       style="fill-rule:evenodd"
       d="M 12,28 H 0 V 26 H 11 V 2 H 6 V 0 h 6 c 0.553,0 1,0.448 1,1 v 26 c 0,0.552 -0.447,1 -1,1"
       id="path63_fill" />
    <path
       style="fill-rule:evenodd"
       d="M 13,28 H 1 C 0.447,28 0,27.552 0,27 V 1 C 0,0.448 0.447,0 1,0 H 7 V 2 H 2 v 24 h 11 v 2"
       id="path64_fill" />
    <path
       style="fill-rule:evenodd"
       d="m 2,28.485 13,9.286 13,-9.286 V 2.443 L 21.352,4.937 C 20.985,5.072 20.569,4.985 20.293,4.707 L 17.586,2 H 12.414 L 9.707,4.707 C 9.43,4.985 9.019,5.072 8.648,4.937 L 2,2.443 Z M 15,40 c -0.204,0 -0.407,-0.062 -0.581,-0.186 l -14,-10 C 0.156,29.626 0,29.323 0,29 V 1 C 0,0.672 0.161,0.365 0.431,0.178 0.698,-0.008 1.043,-0.051 1.352,0.063 L 8.748,2.837 11.293,0.293 C 11.48,0.105 11.734,0 12,0 h 6 c 0.266,0 0.52,0.105 0.707,0.293 l 2.545,2.544 7.396,-2.774 c 0.309,-0.114 0.654,-0.071 0.921,0.115 C 29.839,0.365 30,0.672 30,1 v 28 c 0,0.323 -0.156,0.626 -0.419,0.814 l -14,10 C 15.407,39.938 15.204,40 15,40 Z"
       id="path65_fill" />
    <path
       style="fill-rule:evenodd"
       d="M 3.707,6.707 C 3.451,6.707 3.195,6.609 3,6.414 L 0,3.414 1.414,2 3.707,4.293 8,0 l 1.414,1.414 -5,5 C 4.219,6.609 3.963,6.707 3.707,6.707"
       id="path66_fill" />
    <path
       style="fill-rule:evenodd"
       d="M 9,2 C 5.141,2 2,5.14 2,9 c 0,3.86 3.141,7 7,7 3.859,0 7,-3.14 7,-7 C 16,5.14 12.859,2 9,2 Z M 9,18 C 4.037,18 0,13.962 0,9 0,4.038 4.037,0 9,0 c 4.963,0 9,4.038 9,9 0,4.962 -4.037,9 -9,9 z"
       id="path67_fill" />
    <path
       style="fill-rule:evenodd"
       d="M 60,42.707 H 0 V 7.293 L 7.293,0 8.707,1.414 2,8.121 V 40.707 H 58 V 8.121 L 51.293,1.414 52.707,0 60,7.293 v 35.414"
       id="path68_fill" />
    <path
       style="fill-rule:evenodd"
       d="M 29.527,20.027 0,1.7 1.054,0 29.527,17.673 58,0 59.054,1.7 29.527,20.027"
       id="path69_fill" />
    <path
       style="fill-rule:evenodd"
       d="M 1.414,19.414 0,18 18,0 l 1.414,1.414 -18,18"
       id="path70_fill" />
    <path
       style="fill-rule:evenodd"
       d="M 18,19.414 0,1.414 1.414,0 19.414,18 18,19.414"
       id="path71_fill" />
    <path
       style="fill-rule:evenodd"
       d="M 38,36 H 36 V 9.414 L 28.586,2 H 2 V 36 H 0 V 0 H 29.414 L 38,8.586 V 36"
       id="path72_fill" />
    <path
       style="fill-rule:evenodd"
       d="M 9,9 H 0 V 0 h 2 v 7 h 7 v 2"
       id="path73_fill" />
    <path
       style="fill-rule:evenodd"
       d="M 6,2 C 4.427,2 2,4.577 2,8 c 0,3.423 2.427,6 4,6 1.573,0 4,-2.577 4,-6 C 10,4.577 7.573,2 6,2 Z M 6,16 C 3.282,16 0,12.432 0,8 0,3.568 3.282,0 6,0 c 2.718,0 6,3.568 6,8 0,4.432 -3.282,8 -6,8 z"
       id="path74_fill" />
    <path
       style="fill-rule:evenodd"
       d="M 0,2 H 5 V 0 H 0 Z"
       id="path75_fill" />
    <path
       style="fill-rule:evenodd"
       d="M 3.414,4.707 H 0 v -2 H 2.586 L 5.293,0 6.707,1.414 3.414,4.707"
       id="path76_fill" />
    <path
       style="fill-rule:evenodd"
       d="M 6.707,4.707 H 3.293 L 0,1.414 1.414,0 4.121,2.707 h 2.586 v 2"
       id="path77_fill" />
    <path
       style="fill-rule:evenodd"
       d="M 5.293,4.707 2.586,2 H 0 V 0 H 3.414 L 6.707,3.293 5.293,4.707"
       id="path78_fill" />
    <path
       style="fill-rule:evenodd"
       d="M 1.414,4.707 0,3.293 3.293,0 H 6.707 V 2 H 4.121 L 1.414,4.707"
       id="path79_fill" />
    <path
       style="fill-rule:evenodd"
       d="M 0,14 H 2 V 0 H 0 Z"
       id="path80_fill" />
    <path
       style="fill-rule:evenodd"
       d="M 0,2 H 18 V 0 H 0 Z"
       id="path81_fill" />
    <path
       style="fill-rule:evenodd"
       d="M 38,25 H 36 V 9.414 L 28.586,2 H 2 V 25 H 0 V 0 H 29.414 L 38,8.586 V 25"
       id="path82_fill" />
    <path
       style="fill-rule:evenodd"
       d="m 61,24 h -8 v -2 h 8 c 0.551,0 1,-0.448 1,-1 V 3 C 62,2.448 61.551,2 61,2 h -1.586 l -4,4 H 8.586 l -4,-4 H 3 C 2.449,2 2,2.448 2,3 v 18 c 0,0.552 0.449,1 1,1 h 8 v 2 H 3 C 1.346,24 0,22.654 0,21 V 3 C 0,1.346 1.346,0 3,0 h 2.414 l 4,4 h 45.172 l 4,-4 H 61 c 1.654,0 3,1.346 3,3 v 18 c 0,1.654 -1.346,3 -3,3"
       id="path83_fill" />
    <path
       style="fill-rule:evenodd"
       d="M 0,10 H 2 V 0 H 0 Z"
       id="path84_fill" />
    <path
       style="fill-rule:evenodd"
       d="M 0,16 H 2 V 0 H 0 Z"
       id="path85_fill" />
    <path
       style="fill-rule:evenodd"
       d="M 0,12 H 2 V 0 H 0 Z"
       id="path86_fill" />
    <path
       style="fill-rule:evenodd"
       d="M 0,2 H 62 V 0 H 0 Z"
       id="path87_fill" />
    <path
       style="fill-rule:evenodd"
       d="M 0,2 H 6 V 0 H 0 Z"
       id="path88_fill" />
    <path
       style="fill-rule:evenodd"
       d="M 0,2 H 23 V 0 H 0 Z"
       id="path89_fill" />
    <path
       style="fill-rule:evenodd"
       d="M 0,2 H 26 V 0 H 0 Z"
       id="path90_fill" />
    <path
       style="fill-rule:evenodd"
       d="M 4,2 C 2.897,2 2,2.897 2,4 v 40 c 0,1.103 0.897,2 2,2 h 56 c 1.103,0 2,-0.897 2,-2 V 4 C 62,2.897 61.103,2 60,2 Z M 60,48 H 4 C 1.794,48 0,46.206 0,44 V 4 C 0,1.794 1.794,0 4,0 h 56 c 2.206,0 4,1.794 4,4 v 40 c 0,2.206 -1.794,4 -4,4 z"
       id="path91_fill" />
    <path
       style="fill-rule:evenodd"
       d="M 3,10.574 0,0.574 1.916,0 4.916,10 3,10.574"
       id="path92_fill" />
    <path
       style="fill-rule:evenodd"
       d="M 1.916,10.574 0,10 3,0 l 1.916,0.574 -3,10"
       id="path93_fill" />
    <path
       style="fill-rule:evenodd"
       d="M 2,34 H 54 V 2 H 2 Z m 53,2 H 1 C 0.447,36 0,35.552 0,35 V 1 C 0,0.448 0.447,0 1,0 h 54 c 0.553,0 1,0.448 1,1 v 34 c 0,0.552 -0.447,1 -1,1 z"
       id="path94_fill" />
    <path
       style="fill-rule:evenodd"
       d="M 0,2 H 8 V 0 H 0 Z"
       id="path95_fill" />
    <path
       style="fill-rule:evenodd"
       d="M 2,34 H 54 V 2 H 2 Z m 53,2 H 1 C 0.447,36 0,35.553 0,35 V 1 C 0,0.447 0.447,0 1,0 h 54 c 0.553,0 1,0.447 1,1 v 34 c 0,0.553 -0.447,1 -1,1 z"
       id="path96_fill" />
    <path
       style="fill-rule:evenodd"
       d="m 2.39429,12 c 2.357,2.344 10.73601,10 19.60601,10 8.87,0 17.249,-7.656 19.606,-10 C 39.2493,9.656 30.8703,2 22.0003,2 13.1303,2 4.75129,9.656 2.39429,12 Z M 22.0002,24 C 10.6882,24 0.68125,13.135 0.26025,12.673 c -0.347,-0.382 -0.347,-0.964 0,-1.346 C 0.68125,10.865 10.6882,0 22.0002,0 c 11.313,0 21.319,10.865 21.74,11.327 0.347,0.382 0.347,0.964 0,1.346 C 43.3192,13.135 33.3132,24 22.0002,24 Z"
       id="path97_fill" />
    <path
       style="fill-rule:evenodd"
       d="M 12,24 C 5.383,24 0,18.617 0,12 H 2 C 2,17.514 6.486,22 12,22 17.514,22 22,17.514 22,12 22,6.486 17.514,2 12,2 V 0 c 6.617,0 12,5.383 12,12 0,6.617 -5.383,12 -12,12"
       id="path98_fill" />
    <path
       style="fill-rule:evenodd"
       d="M 2,8 H 0 C 0,3.589 3.589,0 8,0 V 2 C 4.691,2 2,4.691 2,8"
       id="path99_fill" />
    <path
       style="fill-rule:evenodd"
       d="M 0,8 V 6 C 3.309,6 6,3.309 6,0 H 8 C 8,4.411 4.411,8 0,8"
       id="path100_fill" />
    <path
       style="fill-rule:evenodd"
       d="M 0,2 H 30 V 0 H 0 Z"
       id="path101_fill" />
    <path
       style="fill-rule:evenodd"
       d="m 63,54 h -5 v -2 h 4 V 12 H 8 V 50 C 8,52.206 6.206,54 4,54 1.794,54 0,52.206 0,50 V 1 C 0,0.447 0.447,0 1,0 h 18 c 0.266,0 0.52,0.105 0.707,0.293 L 23.414,4 H 59 c 0.553,0 1,0.447 1,1 V 8 H 58 V 6 H 23 C 22.734,6 22.48,5.895 22.293,5.707 L 18.586,2 H 2 v 48 c 0,1.103 0.897,2 2,2 1.103,0 2,-0.897 2,-2 V 11 c 0,-0.553 0.447,-1 1,-1 h 56 c 0.553,0 1,0.447 1,1 v 42 c 0,0.553 -0.447,1 -1,1"
       id="path102_fill" />
    <path
       style="fill-rule:evenodd"
       d="M 3,2 C 2.448,2 2,2.448 2,3 v 12 c 0,0.552 0.448,1 1,1 h 14 c 0.552,0 1,-0.448 1,-1 V 3 C 18,2.448 17.552,2 17,2 Z M 17,18 H 3 C 1.346,18 0,16.654 0,15 V 3 C 0,1.346 1.346,0 3,0 h 14 c 1.654,0 3,1.346 3,3 v 12 c 0,1.654 -1.346,3 -3,3 z"
       id="path103_fill" />
    <path
       style="fill-rule:evenodd"
       d="M 16,11 H 14 V 7 C 14,4.243 11.757,2 9,2 H 7 C 4.243,2 2,4.243 2,7 v 4 H 0 V 7 C 0,3.141 3.141,0 7,0 h 2 c 3.859,0 7,3.141 7,7 v 4"
       id="path104_fill" />
    <path
       style="fill-rule:evenodd"
       d="M 2,8 H 44 V 2 H 2 Z m 43,2 H 1 C 0.447,10 0,9.553 0,9 V 1 C 0,0.447 0.447,0 1,0 h 44 c 0.553,0 1,0.447 1,1 v 8 c 0,0.553 -0.447,1 -1,1 z"
       id="path105_fill" />
    <path
       style="fill-rule:evenodd"
       d="m 2,45.496 22,16.26 22,-16.26 V 2.618 L 37.447,6.895 C 36.981,7.127 36.412,6.963 36.143,6.515 L 33.434,2 H 14.566 l -2.709,4.515 c -0.269,0.448 -0.839,0.612 -1.304,0.38 L 2,2.618 Z M 24,64 c -0.209,0 -0.418,-0.065 -0.594,-0.196 l -23,-17 C 0.15,46.616 0,46.317 0,46 V 1 C 0,0.653004 0.18,0.332004 0.474,0.149004 0.769,-0.0329959 1.138,-0.0489959 1.447,0.105004 L 10.619,4.691 13.143,0.485004 C 13.323,0.184004 13.649,4.10868e-6 14,4.10868e-6 h 20 c 0.351,0 0.677,0.18399989132 0.857,0.48499989132 L 37.381,4.691 46.553,0.105004 c 0.31,-0.1539999 0.677,-0.1379999 0.973,0.044 C 47.82,0.332004 48,0.653004 48,1 v 45 c 0,0.317 -0.15,0.616 -0.406,0.804 l -23,17 C 24.418,63.935 24.209,64 24,64 Z"
       id="path106_fill" />
    <path
       style="fill-rule:evenodd"
       d="m 20,56 c -0.209,0 -0.417,-0.065 -0.593,-0.195 l -19,-14 C 0.151,41.617 0,41.318 0,41 V 0 H 2 V 40.495 L 20,53.758 38,40.495 V 0 h 2 v 41 c 0,0.318 -0.151,0.617 -0.407,0.805 l -19,14 C 20.417,55.935 20.208,56 20,56"
       id="path107_fill" />
    <path
       style="fill-rule:evenodd"
       d="M 14,2 C 7.383,2 2,7.383 2,14 2,20.617 7.383,26 14,26 20.617,26 26,20.617 26,14 26,7.383 20.617,2 14,2 Z m 0,26 C 6.28,28 0,21.72 0,14 0,6.28 6.28,0 14,0 c 7.72,0 14,6.28 14,14 0,7.72 -6.28,14 -14,14 z"
       id="path108_fill" />
    <path
       style="fill-rule:evenodd"
       d="m 4,2.05505 c -0.767,0.717 -2,5.016 -2,11.94505 0,6.929 1.233,11.228 2,11.945 0.767,-0.717 2,-5.016 2,-11.945 C 6,7.07105 4.767,2.77205 4,2.05505 Z M 4,28 C 0.112,28 0,15.433 0,14 0,12.567 0.112,0 4,0 7.888,0 8,12.567 8,14 8,15.433 7.888,28 4,28 Z"
       id="path109_fill" />
    <path
       style="fill-rule:evenodd"
       d="M 9,2 C 5.206,2 2,7.495 2,14 2,20.505 5.206,26 9,26 12.794,26 16,20.505 16,14 16,7.495 12.794,2 9,2 Z M 9,28 C 3.953,28 0,21.851 0,14 0,6.149 3.953,0 9,0 c 5.047,0 9,6.149 9,14 0,7.851 -3.953,14 -9,14 z"
       id="path110_fill" />
    <path
       style="fill-rule:evenodd"
       d="M 6,14 H 0 V 0 h 2 v 12 h 4 v 2"
       id="path111_fill" />
    <path
       style="fill-rule:evenodd"
       d="M 8,22 H 0 V 0 h 2 v 20 h 4 v -3 h 4 V 15 H 6 v -2 h 6 v 6 H 8 v 3"
       id="path112_fill" />
    <path
       style="fill-rule:evenodd"
       d="M 13,2 C 6.935,2 2,6.935 2,13 2,19.065 6.935,24 13,24 19.065,24 24,19.065 24,13 24,6.935 19.065,2 13,2 Z m 0,24 C 5.832,26 0,20.168 0,13 0,5.832 5.832,0 13,0 c 7.168,0 13,5.832 13,13 0,7.168 -5.832,13 -13,13 z"
       id="path113_fill" />
    <path
       style="fill-rule:evenodd"
       d="M 10,24.707 H 0 V 18.293 L 18.293,0 19.707,1.414 2,19.121 v 3.586 h 6 v -3 h 4 v -4 h 4 V 12.294 L 21.293,7 22.707,8.414 18,13.122 v 4.585 h -4 v 4 h -4 v 3"
       id="path114_fill" />
    <path
       style="fill-rule:evenodd"
       d="M 8.756,25.291 C 3.519,23.482 0,18.543 0,13 0,5.832 5.832,0 13,0 c 3.691,0 7.223,1.579 9.688,4.331 l -1.49,1.334 C 19.112,3.336 16.124,2 13,2 6.935,2 2,6.935 2,13 c 0,4.691 2.978,8.87 7.408,10.4 l -0.652,1.891"
       id="path115_fill" />
    <path
       style="fill-rule:evenodd"
       d="M 2,9 H 0 C 0,4.038 4.037,0 9,0 V 2 C 5.141,2 2,5.14 2,9"
       id="path116_fill" />
    <path
       style="fill-rule:evenodd"
       d="M 11.798,28 C 8.034,28 4.502,26.528 1.854,23.854 L 3.276,22.447 C 5.545,24.738 8.571,26 11.798,26 c 6.617,0 12,-5.383 12,-12 0,-6.617 -5.383,-12 -12,-12 C 7.686,2 3.905,4.071 1.684,7.539 L 0,6.461 C 2.59,2.415 7.001,0 11.798,0 c 7.72,0 14,6.28 14,14 0,7.72 -6.28,14 -14,14"
       id="path117_fill" />
    <path
       style="fill-rule:evenodd"
       d="M 12,8 H 0 V 6 H 10 V 2 H 2 V 0 h 10 v 8"
       id="path118_fill" />
    <path
       style="fill-rule:evenodd"
       d="M 2,6 H 14 V 2 H 2 Z M 0,8 H 16 V 0 H 0 Z"
       id="path119_fill" />
    <path
       style="fill-rule:evenodd"
       d="M 10,8 H 0 V 0 H 12 V 2 H 2 v 4 h 8 v 2"
       id="path120_fill" />
    <path
       style="fill-rule:evenodd"
       d="M 6,8 H 2 V 6 H 4 V 2 H 0 V 0 h 6 v 8"
       id="path121_fill" />
    <path
       style="fill-rule:evenodd"
       d="M 2,6 H 12 V 2 H 2 Z M 0,8 H 14 V 0 H 0 Z"
       id="path122_fill" />
    <path
       style="fill-rule:evenodd"
       d="M 6,8 H 0 V 0 H 4 V 2 H 2 v 4 h 4 v 2"
       id="path123_fill" />
    <path
       style="fill-rule:evenodd"
       d="M 12,8 H 0 V 0 H 10 V 2 H 2 v 4 h 10 v 2"
       id="path124_fill" />
    <path
       style="fill-rule:evenodd"
       d="M 6,8 H 0 V 0 H 6 V 2 H 2 v 4 h 4 v 2"
       id="path125_fill" />
    <path
       style="fill-rule:evenodd"
       d="M 28,26 H 26 C 26,21.184 23.995,18.695 21.672,15.813 19.145,12.677 16.295,9.141 16.021,2.118 11.237,3.187 2,11.479 2,26 H 0 C 0,9.871 11.007,0 17,0 h 1 v 1 c 0,7.068 2.659,10.368 5.23,13.559 C 25.575,17.469 28,20.479 28,26"
       id="path126_fill" />
    <path
       style="fill-rule:evenodd"
       d="M 16,17.943 H 14 C 14,13.416 14,8.333 8.857,3.885 8.371,7.038 6.729,8.915 5.252,10.601 3.58,12.513 2,14.319 2,17.943 H 0 C 0,13.567 1.991,11.292 3.748,9.285 5.42,7.373 7,5.567 7,1.943 V 0 L 8.581,1.13 C 16,6.428 16,12.813 16,17.943"
       id="path127_fill" />
    <path
       style="fill-rule:evenodd"
       d="m 16.135,15 h -2 C 14.135,14.501 14.015,3.459 4.154,2.131 6.013,5.373 4.84,7.664 3.701,9.891 2.931,11.396 2.135,12.952 2.135,15 h -2 c 0,-2.53 0.949,-4.384 1.786,-6.02 C 3.195,6.489 4.036,4.844 1.367,1.641 L 0,0 h 2.135 c 11.051,0 14,9.429 14,15"
       id="path128_fill" />
    <path
       style="fill-rule:evenodd"
       d="M 8,10.809 H 6 C 6,8.99 5.604,5.951 3.269,3.862 3.36,5.833 2.931,7.096 2.541,8.244 2.25,9.096 2,9.832 2,10.809 H 0 C 0,9.501 0.329,8.535 0.647,7.599 1.13,6.179 1.586,4.838 1.02,2.005 L 0.619,0 2.447,0.914 C 5.976,2.679 8,6.286 8,10.809"
       id="path129_fill" />
    <path
       style="fill-rule:evenodd"
       d="M 8,34 H 4 C 1.794,34 0,32.206 0,30 V 4 C 0,1.794 1.794,0 4,0 H 32 V 2 H 4 C 2.897,2 2,2.897 2,4 v 26 c 0,1.103 0.897,2 2,2 h 4 v 2"
       id="path130_fill" />
    <path
       style="fill-rule:evenodd"
       d="M 50,34 H 4 C 1.794,34 0,32.206 0,30 V 4 C 0,1.794 1.794,0 4,0 H 22 V 2 H 4 C 2.897,2 2,2.897 2,4 v 26 c 0,1.103 0.897,2 2,2 h 46 c 1.103,0 2,-0.897 2,-2 V 4 C 52,2.897 51.103,2 50,2 H 46 V 0 h 4 c 2.206,0 4,1.794 4,4 v 26 c 0,2.206 -1.794,4 -4,4"
       id="path131_fill" />
    <path
       style="fill-rule:evenodd"
       d="M 0,2 H 31 V 0 H 0 Z"
       id="path132_fill" />
    <path
       style="fill-rule:evenodd"
       d="M 0,2 H 21 V 0 H 0 Z"
       id="path133_fill" />
    <path
       style="fill-rule:evenodd"
       d="M 0,2 H 52 V 0 H 0 Z"
       id="path134_fill" />
    <path
       style="fill-rule:evenodd"
       d="M 0,2 H 16 V 0 H 0 Z"
       id="path135_fill" />
    <path
       style="fill-rule:evenodd"
       d="M 18,2 C 9.178,2 2,9.178 2,18 2,26.822 9.178,34 18,34 26.822,34 34,26.822 34,18 34,9.178 26.822,2 18,2 Z m 0,34 C 8.075,36 0,27.925 0,18 0,8.075 8.075,0 18,0 c 9.925,0 18,8.075 18,18 0,9.925 -8.075,18 -18,18 z"
       id="path136_fill" />
    <path
       style="fill-rule:evenodd"
       d="M 17,23 H 1 C 0.447,23 0,22.552 0,22 V 5 H 2 V 21 H 16 V 0 h 2 v 22 c 0,0.552 -0.447,1 -1,1"
       id="path137_fill" />
    <path
       style="fill-rule:evenodd"
       d="M 4,16 H 0 V 14 H 3 V 2 H 0 V 0 h 4 c 0.553,0 1,0.448 1,1 v 14 c 0,0.552 -0.447,1 -1,1"
       id="path138_fill" />
    <path
       style="fill-rule:evenodd"
       d="M 1.048,28.852 0,27.148 12.524,19.441 V 0 h 2 v 20 c 0,0.347 -0.18,0.669 -0.476,0.852 l -13,8"
       id="path139_fill" />
    <path
       style="fill-rule:evenodd"
       d="M 0.588,5.912 0,4 13,0 l 0.588,1.912 -13,4"
       id="path140_fill" />
    <path
       style="fill-rule:evenodd"
       d="M 0,14 V 12 C 6.617,12 12,6.617 12,0 h 2 C 14,7.72 7.72,14 0,14"
       id="path141_fill" />
    <path
       style="fill-rule:evenodd"
       d="M 2,14 H 0 C 0,6.28 6.28,0 14,0 V 2 C 7.383,2 2,7.383 2,14"
       id="path142_fill" />
    <path
       style="fill-rule:evenodd"
       d="M 5.001,4.687 0,1.72 1.02,0 6.021,2.967 5.001,4.687"
       id="path143_fill" />
    <path
       style="fill-rule:evenodd"
       d="M 2.857,5.993 0,0.992 1.736,0 4.594,5.001 2.857,5.993"
       id="path144_fill" />
    <path
       style="fill-rule:evenodd"
       d="M 1.02,4.687 0,2.967 5.001,0 6.021,1.72 1.02,4.687"
       id="path145_fill" />
    <path
       style="fill-rule:evenodd"
       d="M 1.019,4.687 0,2.967 5.001,0 6.02,1.72 1.019,4.687"
       id="path146_fill" />
    <path
       style="fill-rule:evenodd"
       d="M 1.736,5.993 0,5.001 2.857,0 4.594,0.992 1.736,5.993"
       id="path147_fill" />
    <path
       style="fill-rule:evenodd"
       d="m 61,50 h -1 v -2 h 1 c 0.552,0 1,-0.448 1,-1 V 3 C 62,2.448 61.552,2 61,2 H 3 C 2.448,2 2,2.448 2,3 v 44 c 0,0.552 0.448,1 1,1 h 1 v 2 H 3 C 1.346,50 0,48.654 0,47 V 3 C 0,1.346 1.346,0 3,0 h 58 c 1.654,0 3,1.346 3,3 v 44 c 0,1.654 -1.346,3 -3,3"
       id="path148_fill" />
    <path
       style="fill-rule:evenodd"
       d="m 2,4 h 8 V 2 H 2 Z M 0,6 H 12 V 0 H 0 Z"
       id="path149_fill" />
    <path
       style="fill-rule:evenodd"
       d="M 2,10 H 4 V 2 H 2 Z M 0,12 H 6 V 0 H 0 Z"
       id="path150_fill" />
    <path
       style="fill-rule:evenodd"
       d="M 0,2 H 29 V 0 H 0 Z"
       id="path151_fill" />
    <path
       style="fill-rule:evenodd"
       d="M 46,38 H 0 V 0 H 46 V 2 H 2 v 34 h 44 v 2"
       id="path152_fill" />
    <path
       style="fill-rule:evenodd"
       d="M 9,2 C 5.141,2 2,5.141 2,9 c 0,3.859 3.141,7 7,7 3.859,0 7,-3.141 7,-7 C 16,5.141 12.859,2 9,2 Z M 9,18 C 4.037,18 0,13.963 0,9 0,4.037 4.037,0 9,0 c 4.963,0 9,4.037 9,9 0,4.963 -4.037,9 -9,9 z"
       id="path153_fill" />
    <path
       style="fill-rule:evenodd"
       d="M 2,3.414 0,1.414 1.414,0 3.414,2 2,3.414"
       id="path154_fill" />
    <path
       style="fill-rule:evenodd"
       d="M 1.414,3.414 0,2 2,0 l 1.414,1.414 -2,2"
       id="path155_fill" />
    <path
       style="fill-rule:evenodd"
       d="M 2,45.496 24,61.757 46,45.496 V 2.618 l -8.553,4.277 c -0.47,0.233 -1.036,0.067 -1.304,-0.38 L 33.434,2 H 14.566 L 11.857,6.515 C 11.59,6.963 11.023,7.129 10.553,6.895 L 2,2.618 Z M 24,64 c -0.209,0 -0.418,-0.065 -0.595,-0.196 l -23,-17 C 0.15,46.615 0,46.317 0,46 V 1 C 0,0.653004 0.18,0.332004 0.475,0.149004 0.77,-0.0329959 1.137,-0.0489959 1.447,0.105004 L 10.619,4.691 13.143,0.485004 C 13.323,0.185004 13.648,4.10868e-6 14,4.10868e-6 h 20 c 0.352,0 0.677,0.18499989132 0.857,0.48499989132 L 37.381,4.691 46.553,0.105004 c 0.309,-0.1539999 0.677,-0.1379999 0.972,0.044 C 47.82,0.332004 48,0.653004 48,1 v 45 c 0,0.317 -0.15,0.615 -0.405,0.804 l -23,17 C 24.418,63.935 24.209,64 24,64 Z"
       id="path156_fill" />
    <path
       style="fill-rule:evenodd"
       d="m 20,56 c -0.208,0 -0.417,-0.065 -0.593,-0.195 l -19,-14 C 0.151,41.616 0,41.317 0,41 V 0 H 2 V 40.495 L 20,53.758 38,40.495 V 0 h 2 v 41 c 0,0.317 -0.151,0.616 -0.407,0.805 l -19,14 C 20.417,55.935 20.208,56 20,56"
       id="path157_fill" />
    <path
       style="fill-rule:evenodd"
       d="M 8,2 C 4.691,2 2,4.691 2,8 c 0,3.309 2.691,6 6,6 3.309,0 6,-2.691 6,-6 C 14,4.691 11.309,2 8,2 Z M 8,16 C 3.589,16 0,12.411 0,8 0,3.589 3.589,0 8,0 c 4.411,0 8,3.589 8,8 0,4.411 -3.589,8 -8,8 z"
       id="path158_fill" />
    <path
       style="fill-rule:evenodd"
       d="M 4,10 H 0 V 0 h 2 v 8 h 2 v 2"
       id="path159_fill" />
    <path
       style="fill-rule:evenodd"
       d="M 6,21 H 0 V 0 H 2 V 19 H 4 V 16 H 6 V 14 H 4 v -2 h 4 v 6 H 6 v 3"
       id="path160_fill" />
    <path
       style="fill-rule:evenodd"
       d="M 2,12 H 14 V 2 H 2 Z M 0,14 H 16 V 0 H 0 Z"
       id="path161_fill" />
    <path
       style="fill-rule:evenodd"
       d="M 12,9 H 10 V 3 C 10,2.448 9.551,2 9,2 H 3 C 2.449,2 2,2.448 2,3 V 9 H 0 V 3 C 0,1.346 1.346,0 3,0 h 6 c 1.654,0 3,1.346 3,3 v 6"
       id="path162_fill" />
    <path
       style="fill-rule:evenodd"
       d="M 7,49 C 6.871,49 6.741,48.976 6.617,48.924 6.244,48.77 6,48.404 6,48 V 39 H 2 C 0.897,39 0,38.103 0,37 V 2 C 0,0.897 0.897,0 2,0 H 16 V 2 H 2 v 35 h 5 c 0.552,0 1,0.447 1,1 v 7.586 l 8.293,-8.293 C 16.48,37.105 16.735,37 17,37 H 44 V 2 H 22 V 0 h 22 c 1.103,0 2,0.897 2,2 v 35 c 0,1.103 -0.897,2 -2,2 H 17.414 L 7.707,48.707 C 7.516,48.898 7.26,49 7,49"
       id="path163_fill" />
    <path
       style="fill-rule:evenodd"
       d="M 44,49.0009 H 30 v -2 h 14 v -35 h -5 c -0.552,0 -1,-0.447 -1,-1 V 3.41485 l -8.293,8.29305 c -0.187,0.188 -0.442,0.293 -0.707,0.293 H 2 v 35 h 22 v 2 H 2 c -1.103,0 -2,-0.897 -2,-2 v -35 c 0,-1.103 0.897,-2 2,-2 H 28.586 L 38.293,0.293854 C 38.579,0.00685385 39.008,-0.0791462 39.383,0.0768538 39.756,0.230854 40,0.596854 40,1.00085 v 9.00005 h 4 c 1.103,0 2,0.897 2,2 v 35 c 0,1.103 -0.897,2 -2,2"
       id="path164_fill" />
    <path
       style="fill-rule:evenodd"
       d="M 63,60 H 1 C 0.447,60 0,59.552 0,59 V 1 C 0,0.448 0.447,0 1,0 H 38 V 2 H 2 V 58 H 62 V 2 H 60 V 0 h 3 c 0.553,0 1,0.448 1,1 v 58 c 0,0.552 -0.447,1 -1,1"
       id="path165_fill" />
    <path
       style="fill-rule:evenodd"
       d="M 0,2 H 3 V 0 H 0 Z"
       id="path166_fill" />
    <path
       style="fill-rule:evenodd"
       d="M 0,2 H 45 V 0 H 0 Z"
       id="path167_fill" />
    <path
       style="fill-rule:evenodd"
       d="M 0,2 H 34 V 0 H 0 Z"
       id="path168_fill" />
    <path
       style="fill-rule:evenodd"
       d="M 55,44 H 1 C 0.447,44 0,43.552 0,43 V 1 C 0,0.448 0.447,0 1,0 H 42 V 2 H 2 V 42 H 54 V 2 H 48 V 0 h 7 c 0.553,0 1,0.448 1,1 v 42 c 0,0.552 -0.447,1 -1,1"
       id="path169_fill" />
    <path
       style="fill-rule:evenodd"
       d="M 2,8 H 31 V 2 H 2 Z m 30,2 H 1 C 0.447,10 0,9.552 0,9 V 1 C 0,0.448 0.447,0 1,0 h 31 c 0.553,0 1,0.448 1,1 v 8 c 0,0.552 -0.447,1 -1,1 z"
       id="path170_fill" />
    <path
       style="fill-rule:evenodd"
       d="M 22,10 H 1 C 0.447,10 0,9.552 0,9 V 1 C 0,0.448 0.447,0 1,0 h 31 c 0.553,0 1,0.448 1,1 V 6 H 31 V 2 H 2 v 6 h 20 v 2"
       id="path171_fill" />
    <path
       style="fill-rule:evenodd"
       d="M 2,4 H 12 V 2 H 2 Z M 13,6 H 1 C 0.447,6 0,5.552 0,5 V 1 C 0,0.448 0.447,0 1,0 h 12 c 0.553,0 1,0.448 1,1 v 4 c 0,0.552 -0.447,1 -1,1 z"
       id="path172_fill" />
    <path
       style="fill-rule:evenodd"
       d="M 8,25 C 3.589,25 0,21.411 0,17 V 10 C 0,9.596 0.243,9.231 0.617,9.076 0.992,8.923 1.421,9.007 1.707,9.293 l 6,6 L 6.293,16.707 2,12.414 V 17 c 0,3.309 2.691,6 6,6 3.309,0 6,-2.691 6,-6 V 0 h 2 v 17 c 0,4.411 -3.589,8 -8,8"
       id="path173_fill" />
    <path
       style="fill-rule:evenodd"
       d="M 10,23 H 8 v -6 c 0,-2.757 2.243,-5 5,-5 1.654,0 3,-1.346 3,-3 C 16,7.346 14.654,6 13,6 H 5 C 2.243,6 0,3.757 0,1 V 0 h 2 v 1 c 0,1.654 1.346,3 3,3 h 8 c 2.757,0 5,2.243 5,5 0,2.757 -2.243,5 -5,5 -1.654,0 -3,1.346 -3,3 v 6"
       id="path174_fill" />
  </defs>
  <g
     id="g13817">
    <rect
       y="28"
       x="0.0034179688"
       height="36"
       width="63.993164"
       id="rect13714-4"
       style="opacity:1;fill:#ffffff;fill-opacity:1;fill-rule:evenodd;stroke-width:0.31719905;stroke-miterlimit:4;stroke-dasharray:none;paint-order:fill markers stroke" />
    <path
       style="opacity:1;fill:#c4e1f7;fill-opacity:1;fill-rule:evenodd;stroke-width:0.14311929;stroke-miterlimit:4;stroke-dasharray:none;paint-order:fill markers stroke"
       d="m 12.738588,13.888233 8.077333,3.343897 C 26.069678,5.4977284 30.323378,5.6211555 34.799225,3.1105485 35.122682,9.082768 37.59977,14.613217 42.519007,19.642712 43.920805,17.965613 45.67088,15.378777 46.133437,12.292817 51.99558,15.652781 52.346662,22.203359 54,28 H 9.8659664 C 11.392536,23.4642 15.8682,19.799723 12.738588,13.888233 Z"
       id="rect13716-1" />
    <g
       id="g12958"
       transform="translate(-105.02,-320)"
       style="fill:#1485e0">
      <use
         height="100%"
         width="100%"
         y="0"
         x="0"
         style="fill:#1485e0"
         id="use7241"
         transform="translate(105.02,374)"
         xlink:href="#path118_fill" />
      <use
         height="100%"
         width="100%"
         y="0"
         x="0"
         style="fill:#1485e0"
         id="use7244"
         transform="translate(115.02,374)"
         xlink:href="#path119_fill" />
      <use
         height="100%"
         width="100%"
         y="0"
         x="0"
         style="fill:#1485e0"
         id="use7247"
         transform="translate(143.02,374)"
         xlink:href="#path119_fill" />
      <use
         height="100%"
         width="100%"
         y="0"
         x="0"
         style="fill:#1485e0"
         id="use7250"
         transform="translate(129.02,374)"
         xlink:href="#path119_fill" />
      <use
         height="100%"
         width="100%"
         y="0"
         x="0"
         style="fill:#1485e0"
         id="use7253"
         transform="translate(157.02,374)"
         xlink:href="#path120_fill" />
      <use
         height="100%"
         width="100%"
         y="0"
         x="0"
         style="fill:#1485e0"
         id="use7256"
         transform="translate(105.02,362)"
         xlink:href="#path118_fill" />
      <use
         height="100%"
         width="100%"
         y="0"
         x="0"
         style="fill:#1485e0"
         id="use7259"
         transform="translate(115.02,362)"
         xlink:href="#path119_fill" />
      <use
         height="100%"
         width="100%"
         y="0"
         x="0"
         style="fill:#1485e0"
         id="use7262"
         transform="translate(143.02,362)"
         xlink:href="#path119_fill" />
      <use
         height="100%"
         width="100%"
         y="0"
         x="0"
         style="fill:#1485e0"
         id="use7265"
         transform="translate(129.02,362)"
         xlink:href="#path119_fill" />
      <use
         height="100%"
         width="100%"
         y="0"
         x="0"
         style="fill:#1485e0"
         id="use7268"
         transform="translate(157.02,362)"
         xlink:href="#path120_fill" />
      <use
         height="100%"
         width="100%"
         y="0"
         x="0"
         style="fill:#1485e0"
         id="use7271"
         transform="translate(105.02,368)"
         xlink:href="#path121_fill" />
      <use
         height="100%"
         width="100%"
         y="0"
         x="0"
         style="fill:#1485e0"
         id="use7274"
         transform="translate(109.02,368)"
         xlink:href="#path122_fill" />
      <use
         height="100%"
         width="100%"
         y="0"
         x="0"
         style="fill:#1485e0"
         id="use7277"
         transform="translate(135.02,368)"
         xlink:href="#path119_fill" />
      <use
         height="100%"
         width="100%"
         y="0"
         x="0"
         style="fill:#1485e0"
         id="use7280"
         transform="translate(149.02,368)"
         xlink:href="#path119_fill" />
      <use
         height="100%"
         width="100%"
         y="0"
         x="0"
         style="fill:#1485e0"
         id="use7283"
         transform="translate(163.02,368)"
         xlink:href="#path123_fill" />
      <use
         height="100%"
         width="100%"
         y="0"
         x="0"
         style="fill:#1485e0"
         id="use7286"
         transform="translate(121.02,368)"
         xlink:href="#path119_fill" />
      <use
         height="100%"
         width="100%"
         y="0"
         x="0"
         style="fill:#1485e0"
         id="use7289"
         transform="translate(105.02,350)"
         xlink:href="#path118_fill" />
      <use
         height="100%"
         width="100%"
         y="0"
         x="0"
         style="fill:#1485e0"
         id="use7292"
         transform="translate(115.02,350)"
         xlink:href="#path119_fill" />
      <use
         height="100%"
         width="100%"
         y="0"
         x="0"
         style="fill:#1485e0"
         id="use7295"
         transform="translate(143.02,350)"
         xlink:href="#path119_fill" />
      <use
         height="100%"
         width="100%"
         y="0"
         x="0"
         style="fill:#1485e0"
         id="use7298"
         transform="translate(129.02,350)"
         xlink:href="#path119_fill" />
      <use
         height="100%"
         width="100%"
         y="0"
         x="0"
         style="fill:#1485e0"
         id="use7301"
         transform="translate(157.02,350)"
         xlink:href="#path124_fill" />
      <use
         height="100%"
         width="100%"
         y="0"
         x="0"
         style="fill:#1485e0"
         id="use7304"
         transform="translate(105.02,356)"
         xlink:href="#path121_fill" />
      <use
         height="100%"
         width="100%"
         y="0"
         x="0"
         style="fill:#1485e0"
         id="use7307"
         transform="translate(109.02,356)"
         xlink:href="#path122_fill" />
      <use
         height="100%"
         width="100%"
         y="0"
         x="0"
         style="fill:#1485e0"
         id="use7310"
         transform="translate(135.02,356)"
         xlink:href="#path119_fill" />
      <use
         height="100%"
         width="100%"
         y="0"
         x="0"
         style="fill:#1485e0"
         id="use7313"
         transform="translate(149.02,356)"
         xlink:href="#path119_fill" />
      <use
         height="100%"
         width="100%"
         y="0"
         x="0"
         style="fill:#1485e0"
         id="use7316"
         transform="translate(163.02,356)"
         xlink:href="#path125_fill" />
      <use
         height="100%"
         width="100%"
         y="0"
         x="0"
         style="fill:#1485e0"
         id="use7319"
         transform="translate(121.02,356)"
         xlink:href="#path119_fill" />
      <use
         height="100%"
         width="100%"
         y="0"
         x="0"
         style="fill:#1485e0"
         id="use7322"
         transform="translate(123.02,322)"
         xlink:href="#path126_fill" />
      <use
         height="100%"
         width="100%"
         y="0"
         x="0"
         style="fill:#1485e0"
         id="use7325"
         transform="translate(143.02,330.057)"
         xlink:href="#path127_fill" />
      <use
         height="100%"
         width="100%"
         y="0"
         x="0"
         style="fill:#1485e0"
         id="use7328"
         transform="translate(114.89,333)"
         xlink:href="#path128_fill" />
      <use
         height="100%"
         width="100%"
         y="0"
         x="0"
         style="fill:#1485e0"
         id="use7331"
         transform="translate(133.02,337.191)"
         xlink:href="#path129_fill" />
    </g>
  </g>
</svg>
