<svg xmlns="http://www.w3.org/2000/svg" xmlns:xlink="http://www.w3.org/1999/xlink" width="114.003" height="30.019" viewBox="0 0 30.163 7.942"><g fill="#fff"><path d="M5.428 3.098a.187.187 0 0 0-.054-.13l-.039-.04a.187.187 0 0 0-.261 0L3.589 4.415l-.788-.79a.187.187 0 0 0-.261 0l-.04.038a.187.187 0 0 0 0 .262l.697.696.262.262a.187.187 0 0 0 .261 0l.262-.262L5.374 3.23a.187.187 0 0 0 .054-.131z" style="line-height:125%;-inkscape-font-specification:FontAwesome;text-align:start" font-weight="400" font-size="2474.955" font-family="FontAwesome" letter-spacing="0" word-spacing="0"/><use transform="matrix(.34594 0 0 .34594 -13.212 -39.958)" xlink:href="#a" width="100%" height="100%"/><use transform="matrix(.34594 0 0 .34594 -12.009 -38.755)" xlink:href="#a" width="100%" height="100%"/><use transform="matrix(.34594 0 0 .34594 -11.569 -37.112)" xlink:href="#a" width="100%" height="100%"/><use transform="matrix(.34594 0 0 .34594 -12.009 -35.469)" xlink:href="#a" width="100%" height="100%"/><use transform="matrix(.34594 0 0 .34594 -13.212 -34.266)" xlink:href="#a" width="100%" height="100%"/><use transform="matrix(.34594 0 0 .34594 -14.855 -33.826)" xlink:href="#a" width="100%" height="100%"/><use transform="matrix(.34594 0 0 .34594 -16.498 -34.266)" xlink:href="#a" width="100%" height="100%"/><use transform="matrix(.34594 0 0 .34594 -17.7 -35.469)" xlink:href="#a" width="100%" height="100%"/><use transform="matrix(.34594 0 0 .34594 -18.141 -37.112)" xlink:href="#a" width="100%" height="100%"/><use transform="matrix(.34594 0 0 .34594 -17.7 -38.755)" xlink:href="#a" width="100%" height="100%"/><use transform="matrix(.34594 0 0 .34594 -16.498 -39.958)" xlink:href="#a" width="100%" height="100%"/><g transform="matrix(.34594 0 0 .34594 -14.855 -40.398)"><g transform="matrix(.09895 0 0 .09895 54.323 118.759)" id="a" fill="#fff"><g id="c" fill="#fff"><path transform="rotate(18 0 -20)" d="M0-20V0h10" id="b" fill="#fff"/><use transform="scale(-1 1)" xlink:href="#b" width="100%" height="100%"/></g><use transform="rotate(72)" xlink:href="#c" width="100%" height="100%"/><use transform="rotate(144)" xlink:href="#c" width="100%" height="100%"/><use transform="rotate(-144)" xlink:href="#c" width="100%" height="100%"/><use transform="rotate(-72)" xlink:href="#c" width="100%" height="100%"/></g></g><g style="line-height:1.25;-inkscape-font-specification:'Open Sans'" aria-label="100% GDPR Compliant" font-weight="400" font-size="3.558" font-family="Open Sans" letter-spacing="0" word-spacing="0" stroke-width=".089"><path style="line-height:0" d="M11.697 1.82q0-.214.014-.427-.037.038-.082.076-.02.019-.302.248l-.111.09-.153-.197.672-.52h.243v2.54h-.281zM13.787 3.665q-.41 0-.624-.332-.214-.334-.214-.976 0-.662.207-.984.207-.323.63-.323.412 0 .628.336.215.333.215.97 0 .66-.208.986-.209.323-.634.323zm0-.249q.192 0 .312-.113.12-.112.177-.345.058-.233.058-.601 0-.369-.057-.6-.058-.232-.178-.344-.12-.113-.312-.113-.191 0-.311.112-.12.11-.178.342-.057.23-.057.603 0 .371.057.604.058.233.178.344.12.111.31.111zM15.823 3.665q-.41 0-.624-.332-.214-.334-.214-.976 0-.662.207-.984.207-.323.63-.323.412 0 .628.336.215.333.215.97 0 .66-.208.986-.209.323-.634.323zm0-.249q.192 0 .312-.113.12-.112.178-.345.057-.233.057-.601 0-.369-.057-.6-.058-.232-.178-.344-.12-.113-.312-.113-.191 0-.311.112-.12.11-.178.342-.057.23-.057.603 0 .371.057.604.058.233.178.344.12.111.31.111zM17.537 2.649q-.245 0-.378-.207-.134-.209-.134-.594 0-.395.128-.594.13-.2.384-.2.252 0 .388.206.135.207.135.588 0 .396-.134.599-.132.202-.389.202zm1.35-1.559h.255l-1.408 2.54h-.256zm-1.35 1.348q.285 0 .285-.59 0-.588-.285-.588-.142 0-.208.146-.064.145-.064.442 0 .297.064.443.064.147.208.147zm1.53 1.227q-.246 0-.38-.207-.132-.207-.132-.592 0-.395.129-.594.13-.2.384-.2.248 0 .385.207.138.204.138.587 0 .394-.134.597-.132.202-.39.202zm0-.209q.147 0 .216-.146.07-.14.07-.444 0-.297-.07-.44-.07-.144-.215-.144-.146 0-.21.142-.065.141-.065.442 0 .298.065.443.064.147.21.147zM22.137 3.665q-.382 0-.656-.153-.275-.155-.419-.448-.144-.294-.144-.704 0-.396.16-.693.16-.299.457-.457.298-.156.7-.156.403 0 .757.15l-.115.26q-.344-.146-.661-.146-.308 0-.53.125-.22.123-.339.358-.116.234-.116.56 0 .513.25.78.252.265.738.265.259 0 .516-.06v-.783h-.568V2.3h.863v1.236q-.21.066-.418.097-.209.033-.475.033zM23.642 1.09h.778q.393 0 .672.148.282.148.43.427.147.28.147.67 0 .42-.153.71-.153.288-.45.437-.295.148-.72.148h-.704zm.655 2.285q.526 0 .792-.26.267-.258.267-.769 0-.497-.25-.748-.248-.252-.74-.252h-.429v2.029zM26.234 1.09h.658q.952 0 .952.74 0 .256-.118.436t-.346.273q-.227.092-.552.092h-.299v1h-.295zm.56 1.288q.263 0 .426-.056.164-.056.24-.172.078-.118.078-.306 0-.252-.166-.375-.165-.123-.513-.123h-.33v1.032zM28.374 1.09h.697q.465 0 .69.18.223.176.223.538 0 .504-.51.68l.69 1.142h-.35L29.2 2.574h-.53V3.63h-.295zm.7 1.23q.311 0 .457-.123.148-.123.148-.374 0-.168-.066-.272-.065-.105-.202-.153-.137-.049-.358-.049h-.384v.971z"/><path style="line-height:0" d="M12.124 7.122q-.373 0-.636-.152-.262-.153-.4-.447-.135-.293-.135-.709 0-.392.148-.688.148-.295.424-.455.278-.16.651-.16.4 0 .699.146l-.126.254q-.288-.136-.576-.136-.276 0-.481.127-.204.125-.313.362-.11.234-.11.554 0 .332.105.566.106.233.307.355.202.121.488.121.268 0 .607-.095v.258q-.263.1-.652.1zM14.306 7.122q-.255 0-.453-.12t-.306-.343q-.108-.226-.108-.525 0-.308.104-.528.106-.223.303-.339.198-.118.472-.118.264 0 .46.12.199.12.305.342.106.222.106.523 0 .307-.106.53-.106.222-.304.34-.198.118-.473.118zm.007-.241q.283 0 .429-.19.148-.19.148-.557 0-.365-.148-.552-.146-.188-.433-.188-.283 0-.427.186-.144.186-.144.554 0 .365.146.556.148.191.429.191zM15.951 5.184h.235l.047.26h.014q.081-.139.229-.217.15-.078.333-.078.447 0 .584.323h.014q.085-.151.247-.236.163-.087.368-.087.327 0 .485.168.16.167.16.529v1.242h-.289V5.849q0-.23-.099-.342-.097-.113-.3-.113-.27 0-.398.154-.129.155-.129.476v1.064h-.288V5.849q0-.23-.1-.342-.097-.113-.301-.113-.183 0-.298.071-.114.071-.17.224-.055.153-.055.4v.999h-.289zM19.518 5.184h.234l.04.26h.014q.11-.153.255-.224.148-.071.343-.071.252 0 .429.116.177.117.27.337.091.221.091.532 0 .31-.094.533-.093.223-.272.34-.178.115-.424.115-.19 0-.343-.069-.152-.071-.255-.21h-.02q.02.167.02.316v.783h-.288zm.851 1.697q.163 0 .281-.09.119-.09.181-.26.064-.168.064-.4 0-.355-.139-.546-.139-.191-.394-.191-.195 0-.316.071-.122.071-.18.219-.056.148-.06.386v.064q0 .27.057.433.06.163.183.24.123.074.323.074zM21.959 4.385h.288v2.703h-.288zM23.096 7.088zm.025-1.904h.288v1.904h-.288zm.146-.323q-.077 0-.124-.049-.047-.05-.047-.144 0-.096.047-.143.047-.048.124-.048.073 0 .121.048.049.049.049.143 0 .094-.049.144-.048.049-.121.049zM24.745 7.122q-.285 0-.445-.145-.16-.148-.16-.416 0-.576.923-.604l.323-.01v-.119q0-.226-.097-.332-.097-.106-.308-.106-.24 0-.538.146l-.089-.22q.143-.078.31-.12.168-.044.335-.044.342 0 .505.153.164.151.164.483v1.3h-.214l-.057-.271h-.014q-.094.118-.186.186-.092.066-.2.092-.106.028-.252.028zm.057-.238q.271 0 .424-.147.153-.148.153-.414v-.172l-.288.013q-.231.009-.374.053-.14.044-.208.129-.066.085-.066.219 0 .154.094.238.093.081.265.081zM26.522 5.184h.235l.047.26h.014q.088-.14.246-.217.16-.078.358-.078.35 0 .52.168.172.169.172.529v1.242h-.289V5.856q0-.235-.108-.347-.105-.115-.33-.115-.201 0-.328.071t-.188.224q-.06.151-.06.4v.999h-.289zM29.536 7.122q-.552 0-.552-.582V5.408h-.273v-.14l.273-.119.122-.407h.166v.442h.553v.224h-.553v1.12q0 .17.08.264.082.092.226.092.07 0 .14-.01.072-.01.12-.024v.22q-.045.021-.137.037-.09.015-.165.015z" letter-spacing=".259"/></g></g></svg>