<svg xmlns="http://www.w3.org/2000/svg" width="64" height="64" viewBox="0 0 64 64"><title>MONITORING</title><path class="st1" d="M33.776 14.143c3.023-1.285 1.436-1.512 4.535-.227 2.57 3.25.605 3.326.227 6.652-1.285.605-2.57 1.286-4.687.152-.453-3.327-2.646-3.402-.075-6.577z" fill="#c4e1f7"/><path class="st1" d="M31.28 22.836c2.874-1.512 5.897-2.04 9.375 0 2.57 3.25 2.116 6.577 1.738 9.828h-12.85c-.379-3.251-.832-6.577 1.738-9.828z" fill="#c4e1f7"/><path class="st2" d="M31.961 18.83c.227.831.605 1.587 1.134 2.192-2.872.907-5.367 2.721-5.367 7.635 0 .53.076 4.233.151 4.99a.898.898 0 0 0 .907.755H43.3a.898.898 0 0 0 .908-.756c.15-.756.15-4.46.15-4.989 0-4.99-2.494-6.803-5.366-7.635.453-.605.907-1.36 1.133-2.192l.152-1.512v-.53c0-.302 0-.68-.076-.982l-.453-1.512c-.756-1.436-2.117-2.419-3.78-2.419-2.495 0-4.31 2.041-4.31 4.838v.53zm5.14 3.553c.454.075.908.226 1.286.302-.756.605-1.588.907-2.495.907s-1.738-.302-2.494-.907c.378-.151.831-.227 1.285-.302.378.15.756.226 1.134.226.529 0 .907-.075 1.285-.226zm5.368 6.35c0 .68 0 2.797-.076 4.006h-12.85c-.076-1.21-.076-3.326-.076-4.006 0-2.722.831-4.31 2.343-5.216 1.134 1.21 2.646 1.89 4.158 1.89 1.587 0 3.1-.68 4.158-1.89 1.511.907 2.343 2.419 2.343 5.216zm-6.501-15.044c1.512 0 2.57 1.285 2.57 3.1 0 2.04-1.285 4.082-2.57 4.082s-2.57-2.041-2.57-4.082c0-1.89 1.058-3.1 2.57-3.1z" fill="#1485e0"/><path class="st1" d="M42.167 15.882c3.023-1.286 1.436-1.512 4.535-.227 2.57 3.25.605 3.326.227 6.652-1.285.605-2.57 1.285-4.687.151-.453-3.326-2.646-3.401-.075-6.576z" fill="#c4e1f7"/><path class="st1" d="M39.672 24.575c2.873-1.512 5.896-2.041 9.374 0 2.57 3.25 2.116 6.577 1.738 9.827h-12.85c-.379-3.25-.832-6.577 1.738-9.827z" fill="#c4e1f7"/><path class="st2" d="M40.352 20.568c.227.832.605 1.588 1.134 2.193-2.872.907-5.367 2.721-5.367 7.635 0 .529.076 4.233.151 4.989a.898.898 0 0 0 .907.756h14.514a.898.898 0 0 0 .908-.756c.15-.756.15-4.46.15-4.99 0-4.989-2.494-6.803-5.366-7.634.453-.605.907-1.361 1.133-2.193l.152-1.511v-.53c0-.302 0-.68-.076-.982l-.453-1.512c-.756-1.437-2.117-2.42-3.78-2.42-2.495 0-4.31 2.042-4.31 4.839v.529zm5.14 3.553c.454.076.908.227 1.286.303-.756.604-1.588.907-2.495.907s-1.738-.303-2.494-.907c.378-.151.831-.227 1.285-.303.378.152.756.227 1.134.227.529 0 .907-.075 1.285-.227zm5.368 6.35c0 .68 0 2.797-.076 4.007h-12.85c-.076-1.21-.076-3.326-.076-4.007 0-2.721.831-4.309 2.343-5.216 1.134 1.21 2.646 1.89 4.158 1.89 1.587 0 3.1-.68 4.157-1.89 1.512.907 2.344 2.42 2.344 5.216zm-6.501-15.043c1.512 0 2.57 1.285 2.57 3.1 0 2.04-1.285 4.081-2.57 4.081s-2.57-2.04-2.57-4.082c0-1.89 1.058-3.099 2.57-3.099z" fill="#1485e0"/><path class="st1" d="M15.14 14.006c3.023-1.285 1.436-1.512 4.535-.227 2.57 3.25.605 3.326.227 6.652-1.285.605-2.57 1.285-4.687.151-.453-3.326-2.646-3.401-.075-6.576z" fill="#c4e1f7"/><path class="st1" d="M12.645 22.699c2.873-1.512 5.896-2.041 9.374 0 2.57 3.25 2.116 6.577 1.738 9.827h-12.85c-.379-3.25-.832-6.576 1.738-9.827z" fill="#c4e1f7"/><path class="st2" d="M13.325 18.692c.227.832.605 1.588 1.134 2.193-2.872.907-5.367 2.721-5.367 7.635 0 .529.076 4.233.151 4.989a.898.898 0 0 0 .907.756h14.515a.898.898 0 0 0 .907-.756c.15-.756.15-4.46.15-4.99 0-4.988-2.494-6.803-5.366-7.634.453-.605.907-1.361 1.134-2.193l.15-1.511v-.53c0-.302 0-.68-.075-.982l-.453-1.512c-.756-1.436-2.117-2.42-3.78-2.42-2.495 0-4.309 2.042-4.309 4.839v.529zm5.14 3.553c.454.076.908.227 1.286.303-.756.605-1.588.907-2.495.907s-1.738-.302-2.494-.907c.378-.151.831-.227 1.285-.303.378.152.756.227 1.134.227.529 0 .907-.075 1.285-.227zm5.368 6.35c0 .68 0 2.797-.076 4.007h-12.85c-.076-1.21-.076-3.326-.076-4.007 0-2.721.831-4.309 2.343-5.216 1.134 1.21 2.646 1.89 4.158 1.89 1.587 0 3.1-.68 4.158-1.89 1.511.907 2.343 2.42 2.343 5.216zm-6.501-15.043c1.512 0 2.57 1.285 2.57 3.1 0 2.04-1.285 4.082-2.57 4.082s-2.57-2.042-2.57-4.083c0-1.89 1.058-3.099 2.57-3.099z" fill="#1485e0"/><g><path class="st1" d="M53.279 25.709c3.024-1.285 1.436-1.512 4.536-.227 2.57 3.25.604 3.326.226 6.652-1.285.605-2.57 1.285-4.686.152-.454-3.327-2.646-3.402-.076-6.577z" fill="#c4e1f7"/><path class="st1" d="M50.784 34.402c2.873-1.512 5.897-2.04 9.374 0 2.57 3.25 2.117 6.577 1.739 9.827H49.046c-.378-3.25-.832-6.576 1.738-9.827z" fill="#c4e1f7"/><path class="st2" d="M51.465 30.396c.226.831.604 1.587 1.134 2.192-2.873.907-5.368 2.721-5.368 7.635 0 .53.076 4.233.152 4.99a.898.898 0 0 0 .907.755h14.514a.898.898 0 0 0 .907-.756c.151-.756.151-4.46.151-4.989 0-4.99-2.494-6.804-5.367-7.635.454-.605.907-1.36 1.134-2.192l.151-1.512v-.53c0-.302 0-.68-.076-.982l-.453-1.512c-.756-1.436-2.117-2.419-3.78-2.419-2.494 0-4.309 2.041-4.309 4.838v.53zm5.14 3.553c.454.075.907.226 1.285.302-.756.605-1.587.907-2.494.907-.908 0-1.74-.302-2.495-.907.378-.151.832-.227 1.285-.302.378.15.756.226 1.134.226.53 0 .907-.075 1.285-.226zm5.367 6.35c0 .68 0 2.797-.075 4.006H49.046c-.076-1.21-.076-3.326-.076-4.006 0-2.722.832-4.31 2.343-5.216 1.134 1.21 2.646 1.89 4.158 1.89 1.588 0 3.1-.68 4.158-1.89 1.512.907 2.343 2.419 2.343 5.216zm-6.5-15.044c1.511 0 2.57 1.285 2.57 3.1 0 2.04-1.286 4.082-2.57 4.082-1.286 0-2.571-2.041-2.571-4.082 0-1.89 1.058-3.1 2.57-3.1z" fill="#1485e0"/></g><g><path class="st1" d="M28.919 21.377c3.023-1.285 1.436-1.512 4.535-.227 2.57 3.25.605 3.327.227 6.653-1.285.604-2.57 1.285-4.687.15-.453-3.325-2.646-3.4-.075-6.576z" fill="#c4e1f7"/><path class="st1" d="M26.424 30.07c2.873-1.511 5.896-2.04 9.374 0 2.57 3.251 2.116 6.577 1.738 9.828h-12.85c-.379-3.25-.832-6.577 1.738-9.827z" fill="#c4e1f7"/><path class="st2" d="M27.104 26.064c.227.832.605 1.587 1.134 2.192-2.872.907-5.367 2.722-5.367 7.635 0 .53.076 4.234.151 4.99a.898.898 0 0 0 .907.755h14.515a.898.898 0 0 0 .907-.755c.15-.756.15-4.46.15-4.99 0-4.989-2.494-6.803-5.366-7.635.453-.605.907-1.36 1.134-2.192l.15-1.512v-.53c0-.301 0-.68-.075-.982l-.453-1.512c-.756-1.436-2.117-2.419-3.78-2.419-2.495 0-4.309 2.041-4.309 4.838v.53zm5.14 3.553c.454.076.908.227 1.286.302-.756.605-1.588.907-2.495.907s-1.738-.302-2.494-.907c.378-.15.831-.226 1.285-.302.378.151.756.227 1.134.227.529 0 .907-.076 1.285-.227zm5.368 6.35c0 .68 0 2.797-.076 4.006h-12.85c-.076-1.21-.076-3.326-.076-4.006 0-2.722.831-4.309 2.343-5.216 1.134 1.21 2.646 1.89 4.158 1.89 1.587 0 3.1-.68 4.158-1.89 1.511.907 2.343 2.419 2.343 5.216zm-6.501-15.043c1.512 0 2.57 1.285 2.57 3.099 0 2.041-1.285 4.082-2.57 4.082s-2.57-2.041-2.57-4.082c0-1.89 1.058-3.1 2.57-3.1z" fill="#1485e0"/></g><g><path class="st1" d="M6.144 19.524c3.024-1.285 1.436-1.512 4.536-.227 2.57 3.25.604 3.326.226 6.653-1.285.604-2.57 1.285-4.686.15-.454-3.325-2.646-3.401-.076-6.576z" fill="#c4e1f7"/><path class="st1" d="M3.65 28.217c2.872-1.511 5.896-2.04 9.373 0 2.57 3.251 2.117 6.577 1.739 9.828H1.91c-.378-3.25-.832-6.577 1.738-9.828z" fill="#c4e1f7"/><path class="st2" d="M4.33 24.21c.226.832.604 1.588 1.134 2.193C2.59 27.31.096 29.125.096 34.038c0 .53.076 4.233.152 4.99a.898.898 0 0 0 .907.755h14.514a.898.898 0 0 0 .907-.756c.151-.756.151-4.46.151-4.989 0-4.99-2.494-6.803-5.367-7.635.453-.605.907-1.36 1.134-2.192l.151-1.512v-.53c0-.302 0-.68-.076-.982l-.453-1.512c-.756-1.436-2.117-2.419-3.78-2.419-2.494 0-4.309 2.041-4.309 4.838v.53zm5.14 3.554c.454.075.907.227 1.285.302-.756.605-1.587.907-2.494.907-.908 0-1.74-.302-2.495-.907.378-.151.831-.227 1.285-.302.378.151.756.227 1.134.227.53 0 .907-.076 1.285-.227zm5.367 6.35c0 .68 0 2.797-.075 4.006H1.91c-.076-1.21-.076-3.326-.076-4.006 0-2.722.832-4.31 2.343-5.216 1.134 1.21 2.646 1.89 4.158 1.89 1.588 0 3.1-.68 4.158-1.89 1.512.907 2.343 2.419 2.343 5.216zm-6.5-15.044c1.511 0 2.57 1.286 2.57 3.1 0 2.04-1.286 4.082-2.57 4.082-1.286 0-2.571-2.041-2.571-4.082 0-1.89 1.058-3.1 2.57-3.1z" fill="#1485e0"/></g><g><path class="st1" d="M16.143 30.187c3.024-1.285 1.436-1.512 4.536-.227 2.57 3.25.605 3.327.227 6.653-1.286.604-2.57 1.285-4.687.15-.454-3.325-2.646-3.4-.076-6.576z" fill="#c4e1f7"/><path class="st1" d="M13.649 38.88c2.872-1.511 5.896-2.04 9.373 0 2.57 3.251 2.117 6.577 1.739 9.828H11.91c-.378-3.25-.832-6.577 1.739-9.827z" fill="#c4e1f7"/><path class="st2" d="M14.329 34.874c.227.832.605 1.587 1.134 2.192-2.873.907-5.367 2.722-5.367 7.635 0 .53.075 4.234.15 4.99a.898.898 0 0 0 .908.755h14.514a.898.898 0 0 0 .907-.755c.151-.756.151-4.46.151-4.99 0-4.989-2.494-6.803-5.367-7.635.454-.605.907-1.36 1.134-2.192l.151-1.512v-.529c0-.302 0-.68-.075-.983l-.454-1.512c-.756-1.436-2.117-2.419-3.78-2.419-2.494 0-4.308 2.041-4.308 4.838v.53zm5.14 3.553c.454.076.907.227 1.285.302-.756.605-1.587.907-2.494.907-.907 0-1.739-.302-2.495-.907.378-.15.832-.226 1.285-.302.378.151.756.227 1.134.227.53 0 .907-.076 1.285-.227zm5.368 6.35c0 .68 0 2.797-.076 4.006H11.91c-.076-1.21-.076-3.326-.076-4.006 0-2.722.832-4.309 2.344-5.216 1.134 1.21 2.645 1.89 4.157 1.89 1.588 0 3.1-.68 4.158-1.89 1.512.907 2.344 2.419 2.344 5.216zm-6.502-15.043c1.512 0 2.57 1.285 2.57 3.099 0 2.041-1.285 4.082-2.57 4.082s-2.57-2.041-2.57-4.082c0-1.89 1.058-3.1 2.57-3.1z" fill="#1485e0"/></g></svg>