<svg xmlns="http://www.w3.org/2000/svg" height="300" width="300" fill="#0082c9" version="1.0" viewBox="0 0 16 16"><path style="text-indent:0;text-transform:none" d="M8.009.275c-.471 0-.961.542-.95 1v9.413c-.007.528.422 1 .95 1s.957-.472.95-1V1.275a.967.967 0 0 0-.95-1z" color="#000"/><path style="text-indent:0;text-transform:none" d="M0 5.537c0 .471.542.961 1 .95l14.007-.042c.528.007 1-.422 1-.95 0-.529-.472-.958-1-.95L1 4.587a.967.967 0 0 0-1 .95z" color="#000"/><path style="text-indent:0;text-transform:none" d="M15.05 4.587c-.472 0-.961.542-.95 1v5.146c-.008.529.421 1 .95 1 .528 0 .957-.471.95-1V5.587a.967.967 0 0 0-.95-1zM.95 4.587c-.471 0-.96.542-.95 1v5.146c-.007.529.422 1 .95 1 .529 0 .958-.471.95-1V5.587a.967.967 0 0 0-.95-1zM.95 12.8c-.471 0-.96.542-.95 1v-.007c-.007.528.422 1 .95 1 .529 0 .958-.472.95-1v.007a.967.967 0 0 0-.95-1zM8.009 12.755c-.471 0-.961.542-.95 1v-.008c-.008.529.422 1 .95 1s.957-.471.95-1v.008a.967.967 0 0 0-.95-1zM15.05 12.8c-.472 0-.961.542-.95 1v-.007c-.008.528.421 1 .95 1 .528 0 .957-.472.95-1v.007a.967.967 0 0 0-.95-1z" color="#000"/></svg>