<svg xmlns="http://www.w3.org/2000/svg" width="64" height="64" version="1"><g fill="#1485e0"><path fill-rule="evenodd" d="M52.614 18.462a.712.712 0 0 1-.72-.703v-7.267c0-.388.323-.7.72-.7a.71.71 0 0 1 .72.7v7.267a.712.712 0 0 1-.72.703"/><path fill-rule="evenodd" d="M51.588 19.846l1.083 1.058 1.08-1.058-1.08-1.055zm1.083 2.751a.712.712 0 0 1-.508-.203l-2.1-2.051a.689.689 0 0 1 0-.993l2.1-2.048a.75.75 0 0 1 1.016 0l2.096 2.048c.138.13.211.311.211.496a.678.678 0 0 1-.211.497l-2.096 2.051a.726.726 0 0 1-.508.203z"/></g><path fill="#c4e1f7" fill-rule="evenodd" d="M25.47 15.44c7.232-3.009 3.426-3.565 10.784-.56 6.178 7.85 1.869 9.256 1.008 17.105-3.005 2.285-7.692 4.043-13.01-.175-.93-7.946-4.91-8.718 1.218-16.37z"/><path fill="#c4e1f7" fill-rule="evenodd" d="M19.55 36.33c6.913-3.698 14.206-4.955 22.464 0 9.586 5.22 8.105 18.468 6.995 26.509l-36.199-.31c-1.288-8.2-3.322-21.329 6.74-26.2z"/><path fill="#1485e0" fill-rule="evenodd" d="M30.77 12.299c-3.652 0-8.106 5.014-8.106 9.499 0 4.942 5.02 11.8 8.106 11.8 3.084 0 8.116-6.858 8.116-11.8 0-4.485-4.465-9.5-8.116-9.5zm0 23.42c-6.094 0-10.335-7.338-10.335-13.921 0-6.743 4.35-11.632 10.335-11.632 5.985 0 10.334 4.89 10.334 11.632 0 6.583-4.24 13.922-10.334 13.922z"/><path fill="#1485e0" fill-rule="evenodd" d="M48.136 64h-34.71c-1.047 0-1.941-.746-2.093-1.758-.284-1.864-.406-10.609-.406-11.94 0-14.071 6.514-15.671 14.843-17.322 1.144-.234 2.256.49 2.485 1.608.239 1.118-.5.205-1.647.429-8.306 1.661-13.462 4.793-13.462 15.285 0 1.694.1 8.753.227 11.576h34.808c.145-2.823.228-9.882.228-11.576 0-10.492-5.157-13.624-13.463-15.285-1.145-.224-1.886.69-1.646-.429.227-1.118 1.34-1.843 2.485-1.608 8.328 1.65 14.842 3.25 14.842 17.322 0 1.331-.11 10.076-.406 11.94C50.066 63.254 49.175 64 48.128 64"/><path fill="#1485e0" fill-rule="evenodd" d="M30.778 42.337c-4.36 0-8.449-2.194-11.229-6.007-.676-.927-.456-.216.49-.876.958-.66 1.33-.448 2.005.48 1.984 2.715 5.756 4.27 8.732 4.27 2.976 0 6.81-1.555 8.795-4.27.675-.928.995-1.14 1.943-.48.948.66 1.177-.05.5.876-2.78 3.813-6.878 6.007-11.239 6.007"/><path fill="#c4e1f7" fill-rule="evenodd" stroke="#1485e0" stroke-width="1.787" d="M10.663 10.419L31.323.982l19.554 8.931-20.66 9.437z" paint-order="fill markers stroke"/></svg>