<svg xmlns="http://www.w3.org/2000/svg" id="svg928" width="64" height="64" viewBox="-17 19 64 64"><style>.st0{fill:#fff}.st1{fill:#c4e1f7}.st2{fill:#1485e0}</style><g id="use480" transform="translate(1135 -1495.32)"><path id="path79_fill" d="M1118-1476.3h50v47.3h-50v-47.3z" class="st0"/></g><g id="Mask"><g id="use49" transform="translate(891 -1610)"><path id="path9_fill" d="M964-1591h-55v51h55v-51zm-61 51h-29v52h29v-52z" class="st0"/></g></g><title id="title2">Canvas</title><desc id="desc4">Created using Figma</desc><path id="rect4617" d="M-7.7 35.6h45.6v25.9H-7.7z" class="st0"/><path id="rect4617-0" d="M-16.5 68.4l25.2-.1 1.7 1.1 9.5-.1 1.6-1.1 25.1.1-3.8 4.8h-55.3l-4-4.7z" class="st0"/><g id="g11360" transform="translate(-114.472 -273.06)"><path id="rect10338-82-5" d="M127 303.4c4-1.7 1.9-2 6-.3 3.4 4.3.8 4.4.3 8.8-1.7.8-3.4 1.7-6.2.2-.6-4.4-3.5-4.5-.1-8.7z" class="st1"/><path id="rect10338-82" d="M123.7 314.9c3.8-2 7.8-2.7 12.4 0 3.4 4.3 2.8 8.7 2.3 13h-17c-.5-4.3-1.1-8.7 2.3-13z" class="st1"/><path id="use1926-0-8" d="M125.7 304.6c0 .6-.5 1-1 1h-15.8c-.6 0-1-.4-1-1s.5-1 1-1h15.8c.5 0 1 .5 1 1" class="st2"/><path d="M160.5 339.6h-24c-.3 0-.5.1-.7.3l-1.7 1.7h-9.2l-1.7-1.7c-.2-.2-.4-.3-.7-.3h-24c-.6 0-1 .4-1 1v2c0 .3.1.5.3.7l4 4c.2.2.4.3.7.3h54c.3 0 .5-.1.7-.3l4-4c.2-.2.3-.4.3-.7v-2c0-.5-.5-1-1-1zm-1 2.6l-3.4 3.4h-53.2l-3.4-3.4v-.6h22.6l1.7 1.7c.2.2.4.3.7.3h10c.3 0 .5-.1.7-.3l1.7-1.7h22.6v.6zM103.5 307.6c0-1.1.9-2 2-2h7v-2h-7c-2.2 0-4 1.8-4 4v30h2v-30zM124.5 333.6h2v2h-2zM120.5 333.6h2v2h-2zM128.5 333.6h2v2h-2zM132.5 333.6h2v2h-2zM136.5 333.6h2v2h-2z" class="st2"/><path d="M112.5 307.6h-6c-.6 0-1 .4-1 1v26c0 .6.4 1 1 1h12v-2h-11v-24h17.1c.3 1.1.8 2.1 1.5 2.9-3.8 1.2-7.1 3.6-7.1 10.1 0 .7.1 5.6.2 6.6.1.6.6 1 1.2 1h19.2c.6 0 1.1-.4 1.2-1 .2-1 .2-5.9.2-6.6 0-6.6-3.3-9-7.1-10.1.6-.8 1.2-1.8 1.5-2.9h16.3v24h-11v2h12c.6 0 1-.4 1-1v-26c0-.6-.4-1-1-1h-17.1v-.7c0-.4 0-.9-.1-1.3h18c1.1 0 2 .9 2 2v30h2v-30c0-2.2-1.8-4-4-4h-18.6c-1-1.9-2.8-3.2-5-3.2-3.3 0-5.7 2.7-5.7 6.4v.7h-11.7zm18.9 6.7c.6.1 1.2.3 1.7.4-1 .8-2.1 1.2-3.3 1.2-1.2 0-2.3-.4-3.3-1.2.5-.2 1.1-.3 1.7-.4.5.2 1 .3 1.5.3.7 0 1.2-.1 1.7-.3zm7.1 8.4c0 .9 0 3.7-.1 5.3h-17c-.1-1.6-.1-4.4-.1-5.3 0-3.6 1.1-5.7 3.1-6.9 1.5 1.6 3.5 2.5 5.5 2.5 2.1 0 4.1-.9 5.5-2.5 2 1.2 3.1 3.2 3.1 6.9zm-8.6-19.9c2 0 3.4 1.7 3.4 4.1 0 2.7-1.7 5.4-3.4 5.4s-3.4-2.7-3.4-5.4c0-2.5 1.4-4.1 3.4-4.1zM129.9 318.3z" class="st2"/></g></svg>