<svg xmlns="http://www.w3.org/2000/svg" xmlns:xlink="http://www.w3.org/1999/xlink" width="64" height="64" viewBox="0 0 64 64"><title>Canvas</title><desc>Created using Figma</desc><path d="M43.002 20.008a13 13.008 0 0 1-13 13.008 13 13.008 0 0 1-13-13.006A13 13.008 0 0 1 29.999 7a13 13.008 0 0 1 13.003 13.005l-13 .003z" fill="#c4e1f7" fill-rule="evenodd" paint-order="fill markers stroke"/><path d="M53.995 27a12.993 12.374 0 0 1-12.992 12.374 12.993 12.374 0 0 1-12.994-12.372 12.993 12.374 0 0 1 12.99-12.376 12.993 12.374 0 0 1 12.996 12.37L41.002 27z" fill="#c4e1f7" fill-rule="evenodd" paint-order="fill markers stroke"/><path d="M45.078 23a4.076 4.088 0 0 1-4.076 4.088A4.076 4.088 0 0 1 36.926 23a4.076 4.088 0 0 1 4.075-4.089A4.076 4.088 0 0 1 45.078 23L41.002 23z" fill="#fff" fill-rule="evenodd" paint-order="fill markers stroke"/><g transform="translate(-212.018 -106)" fill="#1485e0"><use xlink:href="#a" transform="translate(255.02 145)" width="100%" height="100%"/><use xlink:href="#b" transform="translate(249.02 148)" width="100%" height="100%"/><use xlink:href="#c" transform="translate(248.02 124)" width="100%" height="100%"/><use xlink:href="#d" transform="translate(240.02 120)" width="100%" height="100%"/><use xlink:href="#e" transform="translate(212.02 131.29)" width="100%" height="100%"/><use xlink:href="#f" transform="translate(229.02 113)" width="100%" height="100%"/><use xlink:href="#g" transform="translate(233.02 117)" width="100%" height="100%"/><use xlink:href="#h" transform="translate(250.22 106)" width="100%" height="100%"/></g><defs><path id="c" d="M5 2C3.346 2 2 3.346 2 5s1.346 3 3 3 3-1.346 3-3-1.346-3-3-3zm0 8c-2.757 0-5-2.243-5-5s2.243-5 5-5 5 2.243 5 5-2.243 5-5 5z" fill-rule="evenodd"/><path id="a" d="M6 14H0V0h2v12h4v2" fill-rule="evenodd"/><path id="b" d="M8 22H0V0h2v20h4v-3h4v-2H6v-2h6v6H8v3" fill-rule="evenodd"/><path id="d" d="M13 2C6.935 2 2 6.935 2 13s4.935 11 11 11 11-4.935 11-11S19.065 2 13 2zm0 24C5.832 26 0 20.168 0 13S5.832 0 13 0s13 5.832 13 13-5.832 13-13 13z" fill-rule="evenodd"/><path id="e" d="M10 24.707H0v-6.414L18.293 0l1.414 1.414L2 19.121v3.586h6v-3h4v-4h4v-3.413L21.293 7l1.414 1.414L18 13.122v4.585h-4v4h-4v3" fill-rule="evenodd"/><path id="f" d="M8.756 25.291A13.008 13.008 0 0 1 0 13C0 5.832 5.832 0 13 0c3.691 0 7.223 1.579 9.688 4.331l-1.49 1.334A11.02 11.02 0 0 0 13 2C6.935 2 2 6.935 2 13c0 4.691 2.978 8.87 7.408 10.4l-.652 1.891" fill-rule="evenodd"/><path id="g" d="M2 9H0c0-4.962 4.037-9 9-9v2C5.141 2 2 5.14 2 9" fill-rule="evenodd"/><path id="h" d="M11.798 28a13.896 13.896 0 0 1-9.944-4.146l1.422-1.407A11.909 11.909 0 0 0 11.798 26c6.617 0 12-5.383 12-12s-5.383-12-12-12A11.962 11.962 0 0 0 1.684 7.539L0 6.461A13.95 13.95 0 0 1 11.798 0c7.72 0 14 6.28 14 14s-6.28 14-14 14" fill-rule="evenodd"/></defs></svg>