<?xml version="1.0" encoding="UTF-8" standalone="no"?>
<svg
   xmlns:dc="http://purl.org/dc/elements/1.1/"
   xmlns:cc="http://creativecommons.org/ns#"
   xmlns:rdf="http://www.w3.org/1999/02/22-rdf-syntax-ns#"
   xmlns:svg="http://www.w3.org/2000/svg"
   xmlns="http://www.w3.org/2000/svg"
   xmlns:sodipodi="http://sodipodi.sourceforge.net/DTD/sodipodi-0.dtd"
   xmlns:inkscape="http://www.inkscape.org/namespaces/inkscape"
   id="Layer_1"
   version="1.1"
   viewBox="0 0 20 20"
   xml:space="preserve"
   sodipodi:docname="language2.svg"
   width="20"
   height="20"
   inkscape:version="0.92.3 (2405546, 2018-03-11)"><metadata
     id="metadata75"><rdf:RDF><cc:Work
         rdf:about=""><dc:format>image/svg+xml</dc:format><dc:type
           rdf:resource="http://purl.org/dc/dcmitype/StillImage" /><dc:title /></cc:Work></rdf:RDF></metadata><defs
     id="defs73" /><sodipodi:namedview
     pagecolor="#ffffff"
     bordercolor="#666666"
     borderopacity="1"
     objecttolerance="10"
     gridtolerance="10"
     guidetolerance="10"
     inkscape:pageopacity="0"
     inkscape:pageshadow="2"
     inkscape:window-width="1920"
     inkscape:window-height="1007"
     id="namedview71"
     showgrid="false"
     inkscape:snap-bbox="true"
     inkscape:bbox-paths="true"
     inkscape:bbox-nodes="true"
     inkscape:snap-bbox-edge-midpoints="true"
     inkscape:snap-page="true"
     inkscape:zoom="9.8333333"
     inkscape:cx="-4.7796611"
     inkscape:cy="12"
     inkscape:window-x="0"
     inkscape:window-y="0"
     inkscape:window-maximized="1"
     inkscape:current-layer="Layer_1" /><g
     id="g38"
     transform="scale(0.83333333)"><g
       id="g4"><path
         d="M 17,20 H 2.5 C 1.122,20 0,18.878 0,17.5 V 2.5 C 0,1.122 1.122,0 2.5,0 h 8 c 0.214,0 0.404,0.136 0.473,0.338 l 6.5,19 C 17.525,19.49 17.5,19.659 17.407,19.79 17.313,19.922 17.162,20 17,20 Z M 2.5,1 C 1.673,1 1,1.673 1,2.5 v 15 C 1,18.327 1.673,19 2.5,19 H 16.3 L 10.143,1 Z"
         id="path2"
         inkscape:connector-curvature="0" /></g><g
       id="g8"><path
         d="m 21.5,24 h -8 c -0.208,0 -0.395,-0.129 -0.468,-0.324 l -1.5,-4 c -0.097,-0.259 0.034,-0.547 0.292,-0.644 0.259,-0.096 0.547,0.034 0.644,0.292 L 13.847,23 H 21.5 C 22.327,23 23,22.327 23,21.5 V 6.5 C 23,5.673 22.327,5 21.5,5 H 12 C 11.724,5 11.5,4.776 11.5,4.5 11.5,4.224 11.724,4 12,4 h 9.5 C 22.878,4 24,5.122 24,6.5 v 15 c 0,1.378 -1.122,2.5 -2.5,2.5 z"
         id="path6"
         inkscape:connector-curvature="0" /></g><g
       id="g12"><path
         d="m 13.5,24 c -0.117,0 -0.234,-0.041 -0.329,-0.124 -0.208,-0.182 -0.229,-0.498 -0.047,-0.706 l 3.5,-4 c 0.182,-0.209 0.498,-0.229 0.706,-0.047 0.208,0.182 0.229,0.498 0.047,0.706 l -3.5,4 C 13.777,23.942 13.639,24 13.5,24 Z"
         id="path10"
         inkscape:connector-curvature="0" /></g><g
       id="g16"><path
         d="M 9.5,14 C 9.294,14 9.102,13.873 9.029,13.668 L 7,7.987 4.971,13.668 c -0.093,0.26 -0.38,0.396 -0.639,0.303 -0.26,-0.093 -0.396,-0.379 -0.303,-0.639 l 2.5,-7 c 0.142,-0.398 0.8,-0.398 0.941,0 l 2.5,7 c 0.093,0.26 -0.042,0.546 -0.303,0.639 C 9.613,13.991 9.556,14 9.5,14 Z"
         id="path14"
         inkscape:connector-curvature="0" /></g><g
       id="g20"><path
         d="M 8,11 H 6 C 5.724,11 5.5,10.776 5.5,10.5 5.5,10.224 5.724,10 6,10 h 2 c 0.276,0 0.5,0.224 0.5,0.5 C 8.5,10.776 8.276,11 8,11 Z"
         id="path18"
         inkscape:connector-curvature="0" /></g><g
       id="g24"><path
         d="m 21.5,11 h -7 C 14.224,11 14,10.776 14,10.5 14,10.224 14.224,10 14.5,10 h 7 c 0.276,0 0.5,0.224 0.5,0.5 0,0.276 -0.224,0.5 -0.5,0.5 z"
         id="path22"
         inkscape:connector-curvature="0" /></g><g
       id="g28"><path
         d="M 17.5,11 C 17.224,11 17,10.776 17,10.5 v -1 C 17,9.224 17.224,9 17.5,9 17.776,9 18,9.224 18,9.5 v 1 c 0,0.276 -0.224,0.5 -0.5,0.5 z"
         id="path26"
         inkscape:connector-curvature="0" /></g><g
       id="g32"><path
         d="m 16,17 c -0.157,0 -0.311,-0.073 -0.408,-0.21 -0.16,-0.225 -0.107,-0.537 0.118,-0.697 2.189,-1.555 3.79,-4.727 3.79,-5.592 0,-0.276 0.224,-0.5 0.5,-0.5 0.276,0 0.5,0.224 0.5,0.5 0,1.318 -1.927,4.785 -4.21,6.408 C 16.202,16.97 16.101,17 16,17 Z"
         id="path30"
         inkscape:connector-curvature="0" /></g><g
       id="g36"><path
         d="m 20,18 c -0.121,0 -0.242,-0.043 -0.337,-0.131 -0.363,-0.332 -3.558,-3.283 -4.126,-4.681 -0.104,-0.256 0.02,-0.547 0.275,-0.651 0.253,-0.103 0.547,0.019 0.651,0.275 0.409,1.007 2.936,3.459 3.875,4.319 0.204,0.187 0.217,0.502 0.031,0.707 C 20.27,17.945 20.135,18 20,18 Z"
         id="path34"
         inkscape:connector-curvature="0" /></g></g><g
     id="g40"
     transform="translate(0,-4)" /><g
     id="g42"
     transform="translate(0,-4)" /><g
     id="g44"
     transform="translate(0,-4)" /><g
     id="g46"
     transform="translate(0,-4)" /><g
     id="g48"
     transform="translate(0,-4)" /><g
     id="g50"
     transform="translate(0,-4)" /><g
     id="g52"
     transform="translate(0,-4)" /><g
     id="g54"
     transform="translate(0,-4)" /><g
     id="g56"
     transform="translate(0,-4)" /><g
     id="g58"
     transform="translate(0,-4)" /><g
     id="g60"
     transform="translate(0,-4)" /><g
     id="g62"
     transform="translate(0,-4)" /><g
     id="g64"
     transform="translate(0,-4)" /><g
     id="g66"
     transform="translate(0,-4)" /><g
     id="g68"
     transform="translate(0,-4)" /></svg>