<svg xmlns="http://www.w3.org/2000/svg" xmlns:xlink="http://www.w3.org/1999/xlink" width="64" height="64" viewBox="0 0 64 64"><title>Canvas</title><desc>Created using Figma</desc><defs><path id="a" d="M90 0H35v51h55zM29 51H0v52h29z" fill-rule="evenodd"/><path id="c" d="M0 0h56v42H0z" fill-rule="evenodd"/><path id="d" d="M0 2h30V0H0z" fill-rule="evenodd"/><path id="e" d="M63 54h-5v-2h4V12H8v38c0 2.206-1.794 4-4 4s-4-1.794-4-4V1a1 1 0 0 1 1-1h18c.266 0 .52.105.707.293L23.414 4H59a1 1 0 0 1 1 1v3h-2V6H23a.996.996 0 0 1-.707-.293L18.586 2H2v48c0 1.103.897 2 2 2s2-.897 2-2V11a1 1 0 0 1 1-1h56a1 1 0 0 1 1 1v42a1 1 0 0 1-1 1" fill-rule="evenodd"/><path id="f" d="M2 8h42V2H2zm43 2H1a1 1 0 0 1-1-1V1a1 1 0 0 1 1-1h44a1 1 0 0 1 1 1v8a1 1 0 0 1-1 1z" fill-rule="evenodd"/><path id="g" d="M0 2h2V0H0z" fill-rule="evenodd"/><path id="h" d="M0 1h18V0H0z" fill-rule="evenodd"/><path id="k" d="M2 34H0V4c0-2.206 1.794-4 4-4h7v2H4c-1.103 0-2 .897-2 2v30" fill-rule="evenodd"/><path id="p" d="M3 6a3 3 0 1 0 0-6 3 3 0 0 0 0 6z" fill-rule="evenodd"/><path id="q" d="M4 2c-1.103 0-2 .897-2 2s.897 2 2 2 2-.897 2-2-.897-2-2-2zm0 6C1.794 8 0 6.206 0 4s1.794-4 4-4 4 1.794 4 4-1.794 4-4 4z" fill-rule="evenodd"/><path id="i" d="M0 0h29v47H0z" fill-rule="evenodd"/><path id="j" d="M9 34V4c0-1.103-.897-2-2-2H0V0h7c2.206 0 4 1.794 4 4v30z" fill-rule="evenodd"/><path id="b" d="M0 0h50v47.323H0z" fill-rule="evenodd"/><path id="l" d="M2.394 12C4.751 14.344 13.13 22 22 22c8.87 0 17.25-7.656 19.606-10C39.25 9.656 30.87 2 22 2 13.13 2 4.751 9.656 2.394 12zM22 24C10.688 24 .681 13.135.26 12.673a1 1 0 0 1 0-1.346C.681 10.865 10.688 0 22 0c11.313 0 21.32 10.865 21.74 11.327a1 1 0 0 1 0 1.346C43.32 13.135 33.313 24 22 24z" fill-rule="evenodd"/><path id="m" d="M0 12h2c0 5.514 4.486 10 10 10s10-4.486 10-10S17.514 2 12 2V0c6.617 0 12 5.383 12 12s-5.383 12-12 12S0 18.617 0 12z" fill-rule="evenodd"/><path id="n" d="M2 8H0c0-4.411 3.589-8 8-8v2C4.691 2 2 4.691 2 8" fill-rule="evenodd"/><path id="o" d="M0 8V6c3.309 0 6-2.691 6-6h2c0 4.411-3.589 8-8 8" fill-rule="evenodd"/></defs><g transform="translate(-199.931 -267.895)"><path d="M201.119 271.207h18.302l3.437 3.491 35.886.23v6.276l-51.796.366-.476 41.012h-5.353z" fill="#fff" fill-rule="evenodd"/><use xlink:href="#c" transform="translate(206.931 282.318)" width="100%" height="100%" fill="#c4e1f7"/><use height="100%" width="100%" transform="matrix(.37244 0 0 1 203.136 322.349)" xlink:href="#d" fill="#1485e0"/><use height="100%" width="100%" transform="translate(199.931 270.349)" xlink:href="#e" fill="#1485e0"/><rect width="22.375" height="21.875" x="226.441" y="306.836" ry="10.938" fill="#fff" fill-rule="evenodd"/><use xlink:href="#f" transform="translate(211.931 286.349)" width="100%" height="100%" fill="#1485e0"/><use xlink:href="#g" transform="translate(215.931 290.349)" width="100%" height="100%" fill="#1485e0"/><use xlink:href="#g" transform="translate(219.931 290.349)" width="100%" height="100%" fill="#1485e0"/><use xlink:href="#g" transform="translate(223.931 290.349)" width="100%" height="100%" fill="#1485e0"/><use xlink:href="#g" transform="translate(227.931 290.349)" width="100%" height="100%" fill="#1485e0"/><use xlink:href="#g" transform="translate(231.931 290.349)" width="100%" height="100%" fill="#1485e0"/><use xlink:href="#g" transform="translate(235.931 290.349)" width="100%" height="100%" fill="#1485e0"/><use xlink:href="#g" transform="translate(239.931 290.349)" width="100%" height="100%" fill="#1485e0"/><use xlink:href="#h" transform="translate(211.931 300.349)" width="100%" height="100%" fill="#1485e0"/><use xlink:href="#i" transform="matrix(0 -.71133 1 0 212.431 324.365)" width="100%" height="100%" fill="#fff"/><use xlink:href="#j" transform="rotate(-90 262.64 51.209)" width="100%" height="100%" fill="#1485e0"/><use xlink:href="#k" transform="rotate(90 -20.709 282.14)" width="100%" height="100%" fill="#1485e0"/><use xlink:href="#l" transform="matrix(.96548 0 0 .97917 215.7 305.94)" width="100%" height="100%" fill="#1485e0"/><use xlink:href="#m" transform="matrix(.96548 0 0 .97917 225.356 305.94)" width="100%" height="100%" fill="#1485e0"/><use xlink:href="#n" transform="matrix(.96548 0 0 .97917 229.217 309.857)" width="100%" height="100%" fill="#1485e0"/><use xlink:href="#o" transform="matrix(.96548 0 0 .97917 236.941 317.69)" width="100%" height="100%" fill="#1485e0"/><use xlink:href="#p" transform="matrix(.96548 0 0 .97917 234.045 314.753)" width="100%" height="100%" fill="#c4e1f7"/><use xlink:href="#q" transform="matrix(.96548 0 0 .97917 233.08 313.773)" width="100%" height="100%" fill="#1485e0"/><use height="100%" width="100%" transform="matrix(0 -.37244 1 0 211.431 324.349)" xlink:href="#d" fill="#1485e0"/><use height="100%" width="100%" transform="matrix(0 -.37244 1 0 259.431 323.823)" xlink:href="#d" fill="#1485e0"/><use height="100%" width="100%" transform="matrix(0 -.0964 1 0 257.934 280.868)" xlink:href="#d" fill="#1485e0"/></g></svg>