<?xml version="1.0" encoding="UTF-8" standalone="no"?>
<svg
   xmlns:dc="http://purl.org/dc/elements/1.1/"
   xmlns:cc="http://creativecommons.org/ns#"
   xmlns:rdf="http://www.w3.org/1999/02/22-rdf-syntax-ns#"
   xmlns:svg="http://www.w3.org/2000/svg"
   xmlns="http://www.w3.org/2000/svg"
   xmlns:sodipodi="http://sodipodi.sourceforge.net/DTD/sodipodi-0.dtd"
   xmlns:inkscape="http://www.inkscape.org/namespaces/inkscape"
   width="64"
   height="64"
   viewBox="0 0 64 64"
   version="1.1"
   id="svg24"
   sodipodi:docname="machine.svg"
   inkscape:version="0.92.4 (5da689c313, 2019-01-14)">
  <metadata
     id="metadata30">
    <rdf:RDF>
      <cc:Work
         rdf:about="">
        <dc:format>image/svg+xml</dc:format>
        <dc:type
           rdf:resource="http://purl.org/dc/dcmitype/StillImage" />
        <dc:title>VIRUS SCANNING</dc:title>
      </cc:Work>
    </rdf:RDF>
  </metadata>
  <defs
     id="defs28" />
  <sodipodi:namedview
     pagecolor="#ffffff"
     bordercolor="#666666"
     borderopacity="1"
     objecttolerance="10"
     gridtolerance="10"
     guidetolerance="10"
     inkscape:pageopacity="0"
     inkscape:pageshadow="2"
     inkscape:window-width="2560"
     inkscape:window-height="1355"
     id="namedview26"
     showgrid="false"
     inkscape:snap-bbox="true"
     inkscape:bbox-paths="true"
     inkscape:bbox-nodes="true"
     inkscape:snap-bbox-edge-midpoints="true"
     inkscape:snap-bbox-midpoints="true"
     inkscape:snap-page="true"
     inkscape:zoom="3.6875"
     inkscape:cx="-3.2542373"
     inkscape:cy="32"
     inkscape:window-x="0"
     inkscape:window-y="240"
     inkscape:window-maximized="1"
     inkscape:current-layer="svg24" />
  <title
     id="title2">VIRUS SCANNING</title>
  <g
     id="g2573"
     transform="matrix(0.80856848,0,0,0.80856848,-245.44081,298.9094)">
    <path
       sodipodi:nodetypes="ccccccccc"
       inkscape:connector-curvature="0"
       id="rect13614-6-9-1-2-6"
       d="m 304.23361,-318.24557 h 35.82266 l 0.004,4.66602 4.04881,1.08705 0.91503,2.42343 -1.84324,2.94407 2.875,3.5657 h -41.82266 z"
       style="opacity:1;fill:#c4e1f7;fill-opacity:1;fill-rule:evenodd;stroke-width:0.21507995;paint-order:fill markers stroke" />
    <circle
       r="7"
       cy="-316.1875"
       cx="325.6875"
       id="path2411"
       style="opacity:0.99468085;fill:#ffffff;fill-opacity:1;fill-rule:evenodd;stroke-width:6.4000001;paint-order:fill markers stroke" />
    <circle
       r="1.6875"
       cy="-308.6875"
       cx="339.5"
       id="path2411-7"
       style="opacity:0.99468085;fill:#ffffff;fill-opacity:1;fill-rule:evenodd;stroke-width:1.54285717;paint-order:fill markers stroke" />
    <path
       sodipodi:nodetypes="ccccc"
       inkscape:connector-curvature="0"
       id="rect13614-6-9-1-2-6-5"
       d="m 309.02621,-327.59314 h 4.69802 l -5e-5,8.93627 h -4.69801 z"
       style="opacity:1;fill:#c4e1f7;fill-opacity:1;fill-rule:evenodd;stroke-width:0.05623072;paint-order:fill markers stroke" />
    <path
       sodipodi:nodetypes="ccccc"
       inkscape:connector-curvature="0"
       id="rect13614-6-9-1-2-6-5-5"
       d="m 308.65101,-339.78064 4.82302,-4.3125 -0.12505,9.68627 h -4.69801 z"
       style="opacity:1;fill:#c4e1f7;fill-opacity:1;fill-rule:evenodd;stroke-width:0.04360487;paint-order:fill markers stroke" />
    <path
       sodipodi:nodetypes="ccccc"
       inkscape:connector-curvature="0"
       id="rect13614-6-9-1-2-6-5-3"
       d="m 312.40116,-344.03064 h 22.76037 l -2.4e-4,4.56127 h -22.76032 z"
       style="opacity:1;fill:#c4e1f7;fill-opacity:1;fill-rule:evenodd;stroke-width:0.08842409;paint-order:fill markers stroke" />
    <path
       sodipodi:nodetypes="ccccccccc"
       inkscape:connector-curvature="0"
       id="rect13614-6-9-1-2-6-5-6"
       d="m 351.38118,-343.78416 h 1.55349 l 1.8187,1.43631 1.32582,2.4131 -3e-5,5.54637 -1.54681,0.0708 -0.47073,3.62392 h -2.68048 z"
       style="opacity:1;fill:#c4e1f7;fill-opacity:1;fill-rule:evenodd;stroke-width:0.06805719;paint-order:fill markers stroke" />
    <path
       sodipodi:nodetypes="ccccc"
       inkscape:connector-curvature="0"
       id="rect13614-6-9-1-2-6-5-2"
       d="m 342.58658,-343.91674 h 9.49305 l -1e-4,4.27378 h -9.49303 z"
       style="opacity:1;fill:#c4e1f7;fill-opacity:1;fill-rule:evenodd;stroke-width:0.05527736;paint-order:fill markers stroke" />
    <circle
       r="8.09375"
       cy="-316.78125"
       cx="358.28125"
       id="path2480"
       style="opacity:0.99468085;fill:#c4e1f7;fill-opacity:1;fill-rule:evenodd;paint-order:fill markers stroke" />
    <path
       sodipodi:nodetypes="sssssss"
       inkscape:connector-curvature="0"
       id="path2480-9"
       d="m 378.30838,-353.81174 c 0,1.74374 -0.17649,3.92126 -1.64932,4.5897 -1.67597,0.76064 -2.92464,0.36627 -5.1628,0.36627 -2.14996,0 -3.34112,-0.15554 -5.79882,-0.17979 -1.70232,-0.0168 -1.8088,-2.94423 -1.8088,-4.77618 0,-3.9819 3.22797,-7.20986 7.20987,-7.20986 3.9819,0 7.20987,3.22796 7.20987,7.20986 z"
       style="opacity:0.99468085;fill:#c4e1f7;fill-opacity:1;fill-rule:evenodd;stroke-width:0.89079434;paint-order:fill markers stroke" />
    <circle
       r="3.21875"
       cy="-316.375"
       cx="326"
       id="path2480-1"
       style="opacity:0.99468085;fill:#c4e1f7;fill-opacity:1;fill-rule:evenodd;stroke-width:0.39768338;paint-order:fill markers stroke" />
    <g
       style="fill:#1485e0"
       id="g2393">
      <path
         inkscape:connector-curvature="0"
         d="m 355.09839,-300.16084 h 6.31633 l 0.44429,-3.10712 c 0.0435,-0.31478 0.27012,-0.57446 0.57935,-0.67243 0.74928,-0.22992 1.49413,-0.53203 2.21299,-0.89812 0.28745,-0.14884 0.64021,-0.11907 0.89723,0.0724 l 2.56576,1.89399 4.46508,-4.36689 -1.93842,-2.50267 c -0.19616,-0.25546 -0.22215,-0.59601 -0.0742,-0.8768 0.37476,-0.70242 0.68398,-1.43016 0.91923,-2.16234 0.10019,-0.30216 0.36587,-0.52348 0.6882,-0.57031 l 3.17998,-0.42989 v -6.17168 l -3.17998,-0.43415 c -0.32233,-0.0427 -0.58801,-0.26389 -0.6882,-0.57036 -0.23525,-0.73207 -0.54447,-1.45566 -0.91923,-2.15794 -0.14795,-0.28519 -0.12196,-0.62569 0.0742,-0.88107 l 1.93842,-2.50273 -4.46508,-4.36274 -2.56576,1.88982 c -0.25702,0.19149 -0.60978,0.22125 -0.89723,0.0766 -0.71886,-0.36605 -1.46371,-0.66825 -2.21299,-0.90235 -0.30923,-0.0937 -0.53581,-0.35754 -0.57935,-0.67251 l -0.44429,-3.10286 h -6.31633 l -0.44431,3.10286 c -0.0435,0.31497 -0.27009,0.57886 -0.57938,0.67251 -0.74924,0.2341 -1.49413,0.5363 -2.21288,0.90235 -0.28752,0.14461 -0.64035,0.11485 -0.89737,-0.0766 l -2.56573,-1.88982 -4.46499,4.36274 1.93847,2.50273 c 0.19593,0.25538 0.22214,0.59588 0.074,0.88107 -0.37462,0.69802 -0.68389,1.42587 -0.91914,2.15794 -0.10019,0.30647 -0.36589,0.52779 -0.68824,0.57036 l -3.17996,0.43415 v 6.17168 l 3.17996,0.42989 c 0.32235,0.0469 0.58805,0.26815 0.68824,0.57031 0.23525,0.73218 0.54452,1.45992 0.91914,2.16234 0.14817,0.28079 0.12196,0.62134 -0.074,0.8768 l -1.93847,2.50267 4.46499,4.36689 2.56573,-1.89399 c 0.25702,-0.19149 0.60985,-0.22126 0.89737,-0.0724 0.71875,0.36609 1.46364,0.6682 2.21288,0.89812 0.30929,0.098 0.53581,0.35765 0.57938,0.67243 z m 7.05273,1.64741 h -7.78867 c -0.41819,0 -0.77539,-0.30233 -0.83637,-0.71083 l -0.47048,-3.31152 c -0.50529,-0.17438 -1.00189,-0.37453 -1.49414,-0.60445 l -2.73127,2.01751 c -0.33541,0.24702 -0.80587,0.21281 -1.10643,-0.0766 l -5.50176,-5.37989 c -0.30056,-0.28943 -0.33106,-0.74905 -0.0784,-1.08115 l 2.06478,-2.66861 c -0.23523,-0.47674 -0.44434,-0.96632 -0.62292,-1.45572 l -3.38468,-0.46406 c -0.41819,-0.0553 -0.73183,-0.4043 -0.73183,-0.81713 v -7.60608 c 0,-0.41287 0.31364,-0.76188 0.73183,-0.81722 l 3.38468,-0.45968 c 0.17861,-0.49374 0.38769,-0.98321 0.62292,-1.45993 l -2.06478,-2.66871 c -0.25267,-0.32773 -0.22217,-0.79168 0.0784,-1.08111 l 5.50176,-5.37998 c 0.30056,-0.28945 0.77102,-0.3235 1.10643,-0.0724 l 2.73127,2.01753 c 0.49225,-0.22983 0.98885,-0.43413 1.49414,-0.60867 l 0.47048,-3.31142 c 0.0611,-0.40861 0.41818,-0.71082 0.83637,-0.71082 h 7.78867 c 0.4183,0 0.77528,0.30221 0.83193,0.71082 l 0.47494,3.31142 c 0.50538,0.1746 1.00187,0.37882 1.4897,0.60867 l 2.73569,-2.01753 c 0.33544,-0.25111 0.80594,-0.21703 1.1065,0.0724 l 5.5016,5.37998 c 0.30056,0.28943 0.33121,0.75338 0.0784,1.08111 l -2.06482,2.66871 c 0.23525,0.48099 0.44451,0.96619 0.62311,1.45993 l 3.38458,0.45968 c 0.41829,0.0553 0.73174,0.40435 0.73174,0.81722 v 7.60608 c 0,0.41283 -0.31345,0.76181 -0.73174,0.81713 l -3.38458,0.46406 c -0.1786,0.4894 -0.38786,0.97898 -0.62311,1.45572 l 2.06482,2.66861 c 0.2528,0.3321 0.22215,0.79172 -0.0784,1.08115 l -5.5016,5.37989 c -0.30056,0.28943 -0.77106,0.32364 -1.1065,0.0766 l -2.73569,-2.01751 c -0.48783,0.22992 -0.98432,0.43007 -1.4897,0.60445 l -0.47494,3.31152 c -0.0566,0.4085 -0.41363,0.71083 -0.83193,0.71083 z"
         id="use1266"
         style="fill:#1485e0;fill-rule:evenodd;stroke-width:2.22143292" />
      <path
         inkscape:connector-curvature="0"
         d="m 359.92027,-326.27141 c -0.45737,-0.0766 -0.76666,-0.50224 -0.68824,-0.95342 0.0826,-0.4469 0.51402,-0.74911 0.97576,-0.67249 0.46173,0.0809 0.76666,0.50649 0.68825,0.95342 -0.0653,0.40008 -0.4269,0.68526 -0.83202,0.68526 -0.048,0 -0.0915,-0.004 -0.14373,-0.0133 z m -4.3694,-0.6555 c -0.0784,-0.45117 0.22216,-0.8768 0.68391,-0.95768 0.46175,-0.0809 0.89735,0.22125 0.98012,0.66825 0.0784,0.44691 -0.22217,0.8768 -0.68391,0.95768 v -0.004 c -0.0522,0.0133 -0.10019,0.0178 -0.14817,0.0178 -0.40512,0 -0.75798,-0.28092 -0.83202,-0.68102 z m 7.55807,1.77915 c -0.40077,-0.22986 -0.54016,-0.7321 -0.30929,-1.12791 0.23087,-0.39584 0.74927,-0.53206 1.15437,-0.3065 0.40077,0.22986 0.54016,0.7321 0.30929,1.12794 -0.15684,0.26815 -0.43998,0.41712 -0.73183,0.41712 -0.14373,0 -0.2875,-0.0382 -0.42254,-0.11063 z m -10.91195,-0.26811 c -0.23958,-0.39584 -0.10018,-0.90235 0.30059,-1.12793 0.40512,-0.22983 0.92349,-0.098 1.15872,0.29798 0.23087,0.39155 0.0957,0.89806 -0.30494,1.12367 -0.13506,0.0809 -0.28314,0.11485 -0.42689,0.11485 -0.29185,0 -0.57064,-0.14462 -0.72748,-0.40861 z m 13.52116,2.39197 c -0.30494,-0.35325 -0.25702,-0.87253 0.0957,-1.16623 0.35283,-0.29369 0.88864,-0.25113 1.1892,0.098 0.30058,0.34901 0.25702,0.86829 -0.10019,1.16199 -0.15683,0.13195 -0.34847,0.1957 -0.54449,0.1957 -0.23961,0 -0.47483,-0.10218 -0.64035,-0.28943 z m -16.14802,0.14906 c -0.35721,-0.29367 -0.40513,-0.81295 -0.10463,-1.16623 0.2962,-0.34903 0.83201,-0.39584 1.1892,-0.10218 0.35285,0.28943 0.40512,0.81297 0.10463,1.15772 -0.16994,0.20015 -0.40948,0.29798 -0.64906,0.29798 -0.19171,0 -0.38333,-0.0595 -0.54017,-0.18727 z m 17.8515,2.70702 v 0 c -0.16128,-0.42563 0.0653,-0.90235 0.50095,-1.05983 0.43561,-0.1575 0.92348,0.0638 1.08466,0.49374 0.16106,0.42138 -0.0653,0.8981 -0.50095,1.0556 -0.0957,0.034 -0.19171,0.0511 -0.29185,0.0511 -0.34415,0 -0.6665,-0.20438 -0.79281,-0.54057 z m -19.43287,0.55336 c -0.43561,-0.1575 -0.66648,-0.62994 -0.50967,-1.05558 0.16128,-0.4299 0.64035,-0.65122 1.08031,-0.49798 0.43997,0.1575 0.66649,0.62993 0.50968,1.05556 -0.1264,0.33625 -0.44868,0.5448 -0.79718,0.5448 -0.0915,0 -0.18727,-0.0133 -0.28314,-0.0469 z m 21.7239,2.70279 v -0.004 c 0,0.004 0,0.004 0,0.004 z m -1.69,0.0469 v -0.004 c 0,-0.0133 0,-0.0256 0,-0.0382 -0.004,-0.45541 0.37027,-0.82573 0.84072,-0.82997 0.46608,0 0.84506,0.36605 0.8495,0.82573 0,0.009 0,0.0178 0,0.0256 0,0.004 0,0.0133 0,0.0222 0,0.45117 -0.38342,0.82149 -0.84514,0.82149 -0.47046,0 -0.84508,-0.37032 -0.84508,-0.82149 z m -21.22297,0.0256 c 0,-0.45968 0.37898,-0.82997 0.84508,-0.82997 0.4661,0 0.84507,0.36605 0.84507,0.82148 0.004,0.45542 -0.37462,0.82573 -0.84072,0.82573 -0.47045,0 -0.84508,-0.36604 -0.84943,-0.81724 z m 21.14027,4.29043 c -0.4356,-0.1575 -0.66648,-0.62569 -0.50531,-1.05558 0.16127,-0.42989 0.6447,-0.65121 1.08468,-0.49373 0.4356,0.1575 0.66218,0.62993 0.50535,1.05982 -0.13084,0.33199 -0.44873,0.54056 -0.79723,0.54056 -0.0957,0 -0.19171,-0.0178 -0.28749,-0.0511 z m -20.44345,-0.46814 v 0 c -0.16106,-0.42987 0.0653,-0.90235 0.50095,-1.05985 0.43998,-0.1575 0.92785,0.0638 1.08468,0.48949 0.16106,0.4299 -0.0653,0.90237 -0.50095,1.05983 -0.0957,0.034 -0.19171,0.0511 -0.29185,0.0511 -0.33979,0 -0.6665,-0.20859 -0.79283,-0.54054 z m 18.34801,3.44333 c -0.36154,-0.2937 -0.4051,-0.81296 -0.10463,-1.16199 0.29623,-0.35327 0.83202,-0.39157 1.18923,-0.098 0.35718,0.28516 0.4051,0.80869 0.10462,1.15772 -0.16993,0.19149 -0.40512,0.29794 -0.64905,0.29794 -0.19171,0 -0.38333,-0.0682 -0.54017,-0.19571 z m -16.35272,-0.0851 c -0.29623,-0.34903 -0.25702,-0.86829 0.10463,-1.16623 0.35285,-0.28943 0.88864,-0.24687 1.18922,0.10218 v 0.004 c 0.30056,0.34476 0.25264,0.86402 -0.10019,1.15772 -0.16127,0.13195 -0.3572,0.19149 -0.54451,0.19149 -0.24394,0 -0.48354,-0.098 -0.64906,-0.28943 z m 13.34724,2.17922 c -0.23523,-0.39583 -0.0958,-0.8981 0.30493,-1.12369 0.4051,-0.22983 0.91912,-0.098 1.15435,0.30221 0.23087,0.39159 0.0957,0.89808 -0.30927,1.12367 -0.13506,0.0766 -0.27879,0.11062 -0.42254,0.11062 -0.2875,0 -0.57066,-0.14906 -0.72747,-0.41285 z m -10.29801,0.315 v 0 c -0.4051,-0.22558 -0.5445,-0.73211 -0.30927,-1.12793 0.23523,-0.39584 0.74924,-0.53203 1.15437,-0.30218 0.40074,0.22556 0.54014,0.73207 0.30926,1.12367 -0.15683,0.26812 -0.43995,0.41711 -0.73182,0.41711 -0.14373,0 -0.29186,-0.0382 -0.42254,-0.11062 z m 6.73454,0.65117 c -0.0829,-0.45117 0.22652,-0.8768 0.68826,-0.95766 0.45304,-0.0766 0.893,0.22557 0.97577,0.66823 0.0784,0.45117 -0.22652,0.88107 -0.68391,0.95768 -0.0522,0.009 -0.10019,0.0133 -0.14817,0.0133 -0.40077,0 -0.76233,-0.28092 -0.83202,-0.68102 z m -2.99261,0.67259 c -0.46174,-0.0766 -0.77103,-0.50225 -0.68826,-0.95342 0.0784,-0.44691 0.51402,-0.74911 0.97576,-0.6725 0.4574,0.0809 0.76666,0.50225 0.68827,0.95342 -0.074,0.40435 -0.43127,0.68527 -0.83202,0.68527 -0.048,0 -0.10018,-0.004 -0.14372,-0.0133 z"
         id="use1269"
         style="fill:#1485e0;fill-rule:evenodd;stroke-width:2.22143292" />
      <path
         inkscape:connector-curvature="0"
         d="m 358.26273,-323.46738 c -3.72448,0 -6.75196,2.96239 -6.75196,6.60156 0,3.63491 3.02748,6.59732 6.75196,6.59732 3.72445,0 6.75193,-2.96241 6.75193,-6.59732 0,-3.63917 -3.02748,-6.60156 -6.75193,-6.60156 z m 2.2e-4,14.85028 c -4.65668,0 -8.44211,-3.703 -8.44211,-8.24874 0,-4.55005 3.78543,-8.2488 8.44211,-8.2488 4.65666,0 8.44209,3.69875 8.44209,8.2488 0,4.54574 -3.78543,8.24874 -8.44209,8.24874 z"
         id="use1272"
         style="fill:#1485e0;fill-rule:evenodd;stroke-width:2.22143292" />
      <path
         inkscape:connector-curvature="0"
         d="m 358.27366,-318.78905 c -1.08466,0 -1.96459,0.86403 -1.96459,1.92385 0,1.05981 0.87993,1.91959 1.96459,1.91959 1.08468,0 1.96461,-0.85978 1.96461,-1.91959 0,-1.05982 -0.87993,-1.92385 -1.96461,-1.92385 z m 2.4e-4,5.4949 c -2.01688,0 -3.65477,-1.60463 -3.65477,-3.57107 0,-1.97068 1.63789,-3.57106 3.65477,-3.57106 2.01686,0 3.65475,1.60038 3.65475,3.57106 0,1.96644 -1.63789,3.57107 -3.65475,3.57107 z"
         id="use1275"
         style="fill:#1485e0;fill-rule:evenodd;stroke-width:2.22143292" />
      <path
         inkscape:connector-curvature="0"
         d="m 325.98846,-322.96092 c -3.79849,0 -6.88698,3.02199 -6.88698,6.72925 0,3.71153 3.08849,6.73352 6.88698,6.73352 3.79852,0 6.887,-3.02199 6.887,-6.73352 0,-3.70726 -3.08848,-6.72925 -6.887,-6.72925 z m 2.4e-4,15.10994 c -4.73071,0 -8.57715,-3.75833 -8.57715,-8.38069 0,-4.61813 3.84644,-8.37649 8.57715,-8.37649 4.72635,0 8.57713,3.75834 8.57713,8.37649 0,4.62236 -3.85078,8.38069 -8.57713,8.38069 z"
         id="use1278"
         style="fill:#1485e0;fill-rule:evenodd;stroke-width:2.22143292" />
      <path
         inkscape:connector-curvature="0"
         d="m 325.98722,-322.96039 c -0.46611,0 -0.84508,-0.36604 -0.84508,-0.82146 v -2.16647 c 0,-0.45969 0.37897,-0.82573 0.84508,-0.82573 0.4661,0 0.84507,0.36604 0.84507,0.82573 v 2.16647 c 0,0.45542 -0.37897,0.82146 -0.84507,0.82146"
         id="use1281"
         style="fill:#1485e0;fill-rule:evenodd;stroke-width:2.22143292" />
      <path
         inkscape:connector-curvature="0"
         d="m 325.98722,-305.6843 c -0.46611,0 -0.84508,-0.36605 -0.84508,-0.82147 v -2.17074 c 0,-0.45541 0.37897,-0.82146 0.84508,-0.82146 0.4661,0 0.84507,0.36605 0.84507,0.82146 v 2.17074 c 0,0.45542 -0.37897,0.82147 -0.84507,0.82147"
         id="use1284"
         style="fill:#1485e0;fill-rule:evenodd;stroke-width:2.22143292" />
      <path
         inkscape:connector-curvature="0"
         d="m 335.93506,-315.40587 h -2.21726 c -0.4661,0 -0.84507,-0.36603 -0.84507,-0.82573 0,-0.45541 0.37897,-0.82146 0.84507,-0.82146 h 2.21726 c 0.4661,0 0.84508,0.36605 0.84508,0.82146 0,0.4597 -0.37898,0.82573 -0.84508,0.82573"
         id="use1287"
         style="fill:#1485e0;fill-rule:evenodd;stroke-width:2.22143292" />
      <path
         inkscape:connector-curvature="0"
         d="m 318.25245,-315.40587 h -2.21725 c -0.4661,0 -0.84508,-0.36603 -0.84508,-0.82573 0,-0.45541 0.37898,-0.82146 0.84508,-0.82146 h 2.21725 c 0.4661,0 0.84508,0.36605 0.84508,0.82146 0,0.4597 -0.37898,0.82573 -0.84508,0.82573"
         id="use1290"
         style="fill:#1485e0;fill-rule:evenodd;stroke-width:2.22143292" />
      <path
         inkscape:connector-curvature="0"
         d="m 331.45194,-320.74671 c -0.2177,0 -0.43125,-0.0809 -0.59679,-0.23831 -0.33106,-0.32349 -0.33106,-0.84701 0,-1.1705 l 1.5682,-1.52803 c 0.32671,-0.32346 0.86252,-0.32346 1.19358,0 0.33106,0.31924 0.33106,0.84277 0,1.16623 l -1.5682,1.5323 c -0.1655,0.1575 -0.37898,0.23831 -0.59679,0.23831"
         id="use1293"
         style="fill:#1485e0;fill-rule:evenodd;stroke-width:2.22143292" />
      <path
         inkscape:connector-curvature="0"
         d="m 318.96749,-308.53102 c -0.2177,0 -0.43125,-0.0809 -0.59679,-0.23834 -0.33106,-0.32349 -0.33106,-0.84701 0,-1.1705 l 1.5682,-1.52803 c 0.3267,-0.32346 0.86251,-0.32346 1.19357,0 0.32671,0.31924 0.32671,0.84277 0,1.16625 l -1.56819,1.53228 c -0.1655,0.1575 -0.38333,0.23834 -0.59679,0.23834"
         id="use1296"
         style="fill:#1485e0;fill-rule:evenodd;stroke-width:2.22143292" />
      <path
         inkscape:connector-curvature="0"
         d="m 333.02014,-308.53102 c -0.2177,0 -0.43125,-0.0809 -0.59679,-0.23834 l -1.5682,-1.53228 c -0.33106,-0.32348 -0.33106,-0.84701 0,-1.16625 0.33109,-0.32346 0.86252,-0.32346 1.19358,0 l 1.5682,1.52803 c 0.33106,0.32349 0.33106,0.84701 0,1.1705 -0.1655,0.1575 -0.38333,0.23834 -0.59679,0.23834"
         id="use1299"
         style="fill:#1485e0;fill-rule:evenodd;stroke-width:2.22143292" />
      <path
         inkscape:connector-curvature="0"
         d="m 320.53569,-320.74671 c -0.2177,0 -0.43125,-0.0809 -0.59679,-0.23831 l -1.5682,-1.5323 c -0.33106,-0.32349 -0.33106,-0.84699 0,-1.16623 0.32671,-0.32346 0.86252,-0.32346 1.19358,0 l 1.56819,1.52803 c 0.32671,0.32349 0.32671,0.84701 0,1.1705 -0.16549,0.1575 -0.38333,0.23831 -0.59678,0.23831"
         id="use1302"
         style="fill:#1485e0;fill-rule:evenodd;stroke-width:2.22143292" />
      <path
         inkscape:connector-curvature="0"
         d="m 328.89776,-322.40656 c -0.10885,0 -0.21348,-0.0222 -0.318,-0.0595 -0.43125,-0.17461 -0.64035,-0.65548 -0.4661,-1.07687 l 0.83202,-2.00471 c 0.17416,-0.42138 0.66647,-0.62569 1.10209,-0.45543 0.43125,0.17016 0.64033,0.65123 0.46175,1.07686 l -0.83202,2.00471 c -0.13062,0.31924 -0.44868,0.51501 -0.77974,0.51501"
         id="use1305"
         style="fill:#1485e0;fill-rule:evenodd;stroke-width:2.22143292" />
      <path
         inkscape:connector-curvature="0"
         d="m 322.25568,-306.39447 c -0.10463,0 -0.21348,-0.0222 -0.318,-0.0595 -0.43125,-0.17016 -0.64035,-0.65123 -0.4661,-1.07686 l 0.83201,-2.00473 c 0.17416,-0.42138 0.66648,-0.62569 1.1021,-0.45542 0.43125,0.17017 0.64033,0.65122 0.4661,1.07684 l -0.83637,2.00474 c -0.13062,0.31922 -0.44868,0.51499 -0.77974,0.51499"
         id="use1308"
         style="fill:#1485e0;fill-rule:evenodd;stroke-width:2.22143292" />
      <path
         inkscape:connector-curvature="0"
         d="m 335.21272,-311.75512 c -0.10463,0 -0.20904,-0.0178 -0.31363,-0.0595 l -2.05609,-0.81293 c -0.43124,-0.17016 -0.64035,-0.65124 -0.46174,-1.0726 0.17416,-0.42562 0.66649,-0.62569 1.09774,-0.45544 l 2.05171,0.81296 c 0.4356,0.17016 0.64035,0.65121 0.46611,1.0726 -0.13063,0.32348 -0.44869,0.51501 -0.7841,0.51501"
         id="use1311"
         style="fill:#1485e0;fill-rule:evenodd;stroke-width:2.22143292" />
      <path
         inkscape:connector-curvature="0"
         d="m 318.81854,-318.24393 c -0.10463,0 -0.21348,-0.0178 -0.31362,-0.0595 l -2.05609,-0.81294 c -0.43125,-0.17016 -0.64035,-0.65123 -0.46175,-1.07259 0.17416,-0.42563 0.6665,-0.62569 1.09774,-0.45544 l 2.05172,0.81295 c 0.43125,0.17017 0.64035,0.65122 0.4661,1.0726 -0.13506,0.32349 -0.44869,0.51502 -0.7841,0.51502"
         id="use1314"
         style="fill:#1485e0;fill-rule:evenodd;stroke-width:2.22143292" />
      <path
         inkscape:connector-curvature="0"
         d="m 333.11795,-318.34627 c -0.32671,0 -0.64033,-0.19149 -0.77972,-0.50651 -0.17861,-0.41712 0.0222,-0.90232 0.44866,-1.0811 l 2.04301,-0.84275 c 0.42689,-0.17882 0.92349,0.0178 1.10645,0.4384 0.1786,0.42136 -0.0222,0.90235 -0.44869,1.08111 l -2.043,0.84276 c -0.10463,0.0469 -0.21771,0.0682 -0.32671,0.0682"
         id="use1317"
         style="fill:#1485e0;fill-rule:evenodd;stroke-width:2.22143292" />
      <path
         inkscape:connector-curvature="0"
         d="m 316.83729,-311.61735 c -0.33106,0 -0.64468,-0.18727 -0.77972,-0.50227 -0.18305,-0.42136 0.0178,-0.90232 0.44866,-1.0811 l 2.03865,-0.84275 c 0.43127,-0.17882 0.92785,0.0178 1.10645,0.4384 0.18305,0.41712 -0.0178,0.90235 -0.44868,1.08111 l -2.03865,0.84277 c -0.10885,0.0427 -0.21771,0.0638 -0.32671,0.0638"
         id="use1320"
         style="fill:#1485e0;fill-rule:evenodd;stroke-width:2.22143292" />
      <path
         inkscape:connector-curvature="0"
         d="m 329.87264,-306.45158 c -0.33106,0 -0.64033,-0.19149 -0.77973,-0.50649 l -0.86251,-1.99198 c -0.18305,-0.42136 0.0222,-0.90235 0.44868,-1.08111 0.43125,-0.1746 0.92785,0.0178 1.10645,0.4384 l 0.8625,1.99196 c 0.18304,0.42139 -0.0178,0.90661 -0.44867,1.08113 -0.10463,0.0469 -0.21792,0.068 -0.32672,0.068"
         id="use1323"
         style="fill:#1485e0;fill-rule:evenodd;stroke-width:2.22143292" />
      <path
         inkscape:connector-curvature="0"
         d="m 322.98437,-322.36395 c -0.3267,0 -0.64035,-0.18727 -0.77974,-0.50225 l -0.8625,-1.99196 c -0.1786,-0.42138 0.0222,-0.90659 0.44867,-1.0811 0.43124,-0.17883 0.92784,0.0178 1.10645,0.4384 l 0.86251,1.99196 c 0.18305,0.41712 -0.0178,0.90234 -0.44433,1.0811 -0.10885,0.0426 -0.22216,0.0638 -0.33106,0.0638"
         id="use1326"
         style="fill:#1485e0;fill-rule:evenodd;stroke-width:2.22143292" />
      <path
         inkscape:connector-curvature="0"
         d="m 326.78978,-320.70088 v 0 c -0.46175,-0.0766 -0.76669,-0.50224 -0.68827,-0.94915 0.074,-0.45117 0.51402,-0.75338 0.97576,-0.67252 0.4574,0.0724 0.76666,0.50227 0.68827,0.94918 -0.074,0.4001 -0.42692,0.68527 -0.83202,0.68527 -0.048,0 -0.0957,-0.004 -0.14372,-0.0133 z m -4.27784,0.25116 c -0.23523,-0.39582 -0.10019,-0.9023 0.30491,-1.12791 0.40077,-0.22985 0.91479,-0.098 1.15437,0.29794 0.23523,0.39157 0.0957,0.89808 -0.30493,1.12793 -0.13507,0.0766 -0.27879,0.11063 -0.42254,0.11063 -0.29186,0 -0.575,-0.14462 -0.73181,-0.40861 z m 7.03083,1.29387 c -0.30055,-0.34901 -0.25699,-0.87256 0.10019,-1.16196 0.35285,-0.2937 0.88866,-0.2554 1.18487,0.098 0.30491,0.34477 0.257,0.86405 -0.0957,1.15772 -0.16128,0.13196 -0.3485,0.20015 -0.54452,0.20015 -0.23958,0 -0.47481,-0.10218 -0.64471,-0.29367 z m -8.99118,1.88133 c -0.43995,-0.1575 -0.67083,-0.63417 -0.51402,-1.05558 0,0 0,0 0,-0.004 0.16128,-0.42565 0.64906,-0.64697 1.08469,-0.498 0.4356,0.1575 0.66647,0.6342 0.50966,1.05982 v -0.004 c -0.1264,0.3405 -0.45304,0.54905 -0.80154,0.54905 -0.0915,0 -0.18727,-0.0178 -0.27879,-0.0469 z m 10.08846,1.07262 c 0,-0.0178 0,-0.0298 0,-0.0469 -0.004,-0.45542 0.37027,-0.82573 0.84073,-0.82997 0.46174,0 0.84072,0.36602 0.84507,0.82146 0,0.009 0,0.0133 0,0.0178 0,0.004 0,0.009 0,0.0133 0,0.45544 -0.37897,0.82573 -0.84072,0.82573 -0.46175,0 -0.83202,-0.36178 -0.84508,-0.80018 z m -10.59381,2.09841 c -0.15684,-0.42989 0.0697,-0.90234 0.50964,-1.05984 0.43127,-0.15328 0.91914,0.0637 1.08033,0.49373 0.15683,0.42565 -0.0653,0.89811 -0.50531,1.05558 -0.0958,0.034 -0.19171,0.0511 -0.29185,0.0511 -0.3398,0 -0.6665,-0.2086 -0.79281,-0.54057 z m 9.60941,1.94926 c -0.35286,-0.28943 -0.40077,-0.81719 -0.10019,-1.16196 0.29623,-0.34903 0.83201,-0.39584 1.18922,-0.10219 0.35285,0.2937 0.40077,0.81296 0.10019,1.16199 -0.1655,0.19571 -0.40512,0.2937 -0.64471,0.2937 -0.19171,0 -0.38333,-0.064 -0.54449,-0.19149 z m -6.81687,1.28553 c -0.40512,-0.22983 -0.54452,-0.73208 -0.31365,-1.12791 0.23523,-0.3916 0.7536,-0.52779 1.15873,-0.30221 0.40074,0.22983 0.54014,0.73208 0.30491,1.12793 -0.15239,0.26389 -0.4356,0.41286 -0.73181,0.41286 -0.13928,0 -0.28752,-0.0382 -0.41818,-0.11063 z m 3.28405,0.0595 c -0.0829,-0.44691 0.22217,-0.87253 0.68392,-0.95766 0.45737,-0.0766 0.89734,0.22556 0.98012,0.67249 0.0784,0.44691 -0.23088,0.8768 -0.68392,0.95342 -0.0522,0.009 -0.10463,0.0133 -0.14817,0.0133 -0.40077,0 -0.76233,-0.28092 -0.83201,-0.68102 z"
         id="use1329"
         style="fill:#1485e0;fill-rule:evenodd;stroke-width:2.22143292" />
      <path
         inkscape:connector-curvature="0"
         d="m 325.98506,-318.55137 c -1.31118,0 -2.37407,1.04278 -2.37407,2.3197 0,1.28117 1.06289,2.32396 2.37407,2.32396 1.30683,0 2.37407,-1.04279 2.37407,-2.32396 0,-1.27692 -1.06724,-2.3197 -2.37407,-2.3197 z m 2.2e-4,6.29083 c -2.24338,0 -4.06422,-1.77915 -4.06422,-3.97117 0,-2.18776 1.82084,-3.96688 4.06422,-3.96688 2.23905,0 4.06425,1.77915 4.06425,3.96688 0,2.19202 -1.8252,3.97117 -4.06425,3.97117 z"
         id="use1332"
         style="fill:#1485e0;fill-rule:evenodd;stroke-width:2.22143292" />
      <path
         inkscape:connector-curvature="0"
         d="m 340.17241,-317.72078 h -6.81004 c -0.4661,0 -0.84507,-0.37029 -0.84507,-0.82573 0,-0.45542 0.37897,-0.82573 0.84507,-0.82573 h 6.81004 c 0.4661,0 0.84507,0.37031 0.84507,0.82573 0,0.45544 -0.37897,0.82573 -0.84507,0.82573"
         id="use1335"
         style="fill:#1485e0;fill-rule:evenodd;stroke-width:2.22143292"
         sodipodi:nodetypes="csssssc" />
      <path
         inkscape:connector-curvature="0"
         d="m 365.78183,-302.73497 h -1.94282 c -0.4661,0 -0.84507,-0.37031 -0.84507,-0.82573 0,-0.45544 0.37897,-0.82575 0.84507,-0.82575 h 1.94282 c 0.46611,0 0.84073,0.37031 0.84073,0.82575 0,0.45542 -0.37462,0.82573 -0.84073,0.82573"
         id="use1341"
         style="fill:#1485e0;fill-rule:evenodd;stroke-width:2.22143292" />
      <path
         inkscape:connector-curvature="0"
         d="m 352.67103,-302.73497 h -1.94283 c -0.4661,0 -0.84072,-0.37031 -0.84072,-0.82573 0,-0.45544 0.37462,-0.82575 0.84072,-0.82575 h 1.94283 c 0.4661,0 0.84507,0.37031 0.84507,0.82575 0,0.45542 -0.37897,0.82573 -0.84507,0.82573"
         id="use1344"
         style="fill:#1485e0;fill-rule:evenodd;stroke-width:2.22143292" />
      <path
         inkscape:connector-curvature="0"
         d="m 345.78153,-302.73422 h -41.38664 c -0.4661,0 -0.84508,-0.37031 -0.84508,-0.82575 v -14.98652 c 0,-0.45541 0.37898,-0.82573 0.84508,-0.82573 h 14.24878 c 0.4661,0 0.84508,0.37032 0.84508,0.82573 0,0.45544 -0.37898,0.82573 -0.84508,0.82573 h -13.4037 v 13.33509 h 40.54156 c 0.46605,0 0.84503,0.37031 0.84503,0.82572 0,0.45544 -0.37898,0.82573 -0.84503,0.82573"
         id="use1347"
         style="fill:#1485e0;fill-rule:evenodd;stroke-width:2.22143292"
         sodipodi:nodetypes="csssssssccssc" />
      <path
         inkscape:connector-curvature="0"
         d="m 339.56486,-309.17026 c -0.26138,0 -0.47481,0.20859 -0.47481,0.46394 0,0.2554 0.21348,0.46393 0.47481,0.46393 0.26137,0 0.47481,-0.2086 0.47481,-0.46393 0,-0.25537 -0.21348,-0.46394 -0.47481,-0.46394 z m 2e-4,2.5793 c -1.19356,0 -2.16061,-0.94917 -2.16061,-2.1154 0,-1.16623 0.96705,-2.11114 2.16061,-2.11114 1.19357,0 2.16498,0.94491 2.16498,2.11114 0,1.16623 -0.97141,2.1154 -2.16498,2.1154 z"
         id="use1410"
         style="fill:#1485e0;fill-rule:evenodd;stroke-width:2.22143292" />
      <path
         inkscape:connector-curvature="0"
         d="m 308.92661,-317.72129 c -0.4661,0 -0.84508,-0.37029 -0.84508,-0.82573 v -9.33839 c 0,-0.45542 0.37898,-0.82573 0.84508,-0.82573 0.4661,0 0.84072,0.37031 0.84072,0.82573 v 9.33839 c 0,0.45544 -0.37462,0.82573 -0.84072,0.82573"
         id="use1413"
         style="fill:#1485e0;fill-rule:evenodd;stroke-width:2.22143292" />
      <path
         inkscape:connector-curvature="0"
         d="m 308.92661,-333.5556 c -0.4661,0 -0.84508,-0.37031 -0.84508,-0.82575 v -3.94986 c 0,-3.67747 3.06234,-6.66968 6.826,-6.66968 h 20.81329 c 0.46628,0 0.84526,0.37029 0.84526,0.82573 0,0.45542 -0.37898,0.82573 -0.84526,0.82573 h -20.81329 c -2.83146,0 -5.1402,2.2516 -5.1402,5.01822 v 3.94988 c 0,0.45542 -0.37462,0.82573 -0.84072,0.82573"
         id="use1416"
         style="fill:#1485e0;fill-rule:evenodd;stroke-width:2.22143292" />
      <path
         inkscape:connector-curvature="0"
         d="m 356.21199,-333.85741 c -0.4661,0 -0.84073,-0.37031 -0.84073,-0.82573 v -3.64807 c 0,-2.76664 -2.30873,-5.01824 -5.14019,-5.01824 h -7.84968 c -0.4661,0 -0.84508,-0.37029 -0.84508,-0.82573 0,-0.45544 0.37898,-0.82573 0.84508,-0.82573 h 7.84968 c 3.76366,0 6.826,2.9922 6.826,6.66967 v 3.64808 c 0,0.45542 -0.37898,0.82573 -0.84508,0.82573"
         id="use1419"
         style="fill:#1485e0;fill-rule:evenodd;stroke-width:2.22143292"
         sodipodi:nodetypes="csssssssssc" />
      <path
         inkscape:connector-curvature="0"
         d="m 313.72055,-317.72129 c -0.4661,0 -0.84072,-0.37029 -0.84072,-0.82573 v -9.33839 c 0,-0.45542 0.37462,-0.82573 0.84072,-0.82573 0.47046,0 0.84508,0.37031 0.84508,0.82573 v 9.33839 c 0,0.45544 -0.37462,0.82573 -0.84508,0.82573"
         id="use1422"
         style="fill:#1485e0;fill-rule:evenodd;stroke-width:2.22143292" />
      <path
         inkscape:connector-curvature="0"
         d="m 313.72055,-333.555 c -0.4661,0 -0.84072,-0.37031 -0.84072,-0.82573 v -3.94988 c 0,-1.09812 0.91478,-1.99196 2.03865,-1.99196 h 20.81345 c 0.46606,0 0.84503,0.37029 0.84503,0.82573 0,0.45541 -0.37897,0.82148 -0.84503,0.82148 h -20.81345 c -0.19171,0 -0.35285,0.1575 -0.35285,0.34475 v 3.94988 c 0,0.45542 -0.37462,0.82573 -0.84508,0.82573"
         id="use1425"
         style="fill:#1485e0;fill-rule:evenodd;stroke-width:2.22143292" />
      <path
         inkscape:connector-curvature="0"
         d="m 351.42464,-330.23931 c -0.4661,0 -0.84072,-0.37031 -0.84072,-0.82573 v -7.26557 c 0,-0.18727 -0.16127,-0.34475 -0.35285,-0.34475 h -7.84968 c -0.4661,0 -0.84508,-0.36607 -0.84508,-0.82148 0,-0.45544 0.37898,-0.82573 0.84508,-0.82573 h 7.84968 c 1.12387,0 2.03865,0.89384 2.03865,1.99196 v 7.26557 c 0,0.45542 -0.37462,0.82573 -0.84508,0.82573"
         id="use1428"
         style="fill:#1485e0;fill-rule:evenodd;stroke-width:2.22143292" />
      <path
         inkscape:connector-curvature="0"
         d="m 336.56195,-336.64848 h 4.95724 v -10.51739 h -4.95724 z m 5.80254,1.65146 h -6.6474 c -0.4661,0 -0.84508,-0.37029 -0.84508,-0.82573 v -12.16885 c 0,-0.45544 0.37898,-0.82573 0.84508,-0.82573 h 6.6474 c 0.4661,0 0.84507,0.37029 0.84507,0.82573 v 12.16885 c 0,0.45544 -0.37897,0.82573 -0.84507,0.82573 z"
         id="use1431"
         style="fill:#1485e0;fill-rule:evenodd;stroke-width:2.22143292" />
      <path
         inkscape:connector-curvature="0"
         d="m 339.04924,-334.99702 c -0.4661,0 -0.84508,-0.37029 -0.84508,-0.82573 v -12.16885 c 0,-0.45544 0.37898,-0.82573 0.84508,-0.82573 0.4661,0 0.84508,0.37029 0.84508,0.82573 v 12.16885 c 0,0.45544 -0.37898,0.82573 -0.84508,0.82573"
         id="use1434"
         style="fill:#1485e0;fill-rule:evenodd;stroke-width:2.22143292" />
      <path
         inkscape:connector-curvature="0"
         d="m 315.79959,-294.18788 c -0.39641,0 -0.74054,-0.26814 -0.82766,-0.64697 l -1.91667,-8.54671 c -0.10019,-0.44691 0.18726,-0.88531 0.64468,-0.98321 0.45304,-0.098 0.90608,0.18305 1.00626,0.62993 l 1.09339,4.87351 1.09337,-4.87351 c 0.10018,-0.44691 0.54887,-0.72783 1.00626,-0.62993 0.45304,0.098 0.74489,0.5363 0.64471,0.98321 l -1.92105,8.54671 c -0.0829,0.37883 -0.4269,0.64697 -0.82329,0.64697"
         id="use1437"
         style="fill:#1485e0;fill-rule:evenodd;stroke-width:2.22143292" />
      <path
         inkscape:connector-curvature="0"
         d="m 305.81298,-328.71148 h 10.76391 v -4.84367 h -10.76391 z m 11.60919,1.65148 h -12.45406 c -0.4661,0 -0.84073,-0.37029 -0.84073,-0.82572 v -6.49516 c 0,-0.45544 0.37463,-0.82573 0.84073,-0.82573 h 12.45406 c 0.4661,0 0.84508,0.37029 0.84508,0.82573 v 6.49516 c 0,0.45543 -0.37898,0.82572 -0.84508,0.82572 z"
         id="use1443"
         style="fill:#1485e0;fill-rule:evenodd;stroke-width:2.22143292" />
      <path
         inkscape:connector-curvature="0"
         d="m 317.42217,-330.30742 h -12.45406 c -0.4661,0 -0.84073,-0.37031 -0.84073,-0.82573 0,-0.45544 0.37463,-0.82573 0.84073,-0.82573 h 12.45406 c 0.4661,0 0.84508,0.37029 0.84508,0.82573 0,0.45542 -0.37898,0.82573 -0.84508,0.82573"
         id="use1446"
         style="fill:#1485e0;fill-rule:evenodd;stroke-width:2.22143292" />
      <path
         inkscape:connector-curvature="0"
         d="m 371.0925,-338.72698 c -3.41081,0 -6.63868,-1.08535 -9.32637,-3.13265 -0.37027,-0.28092 -0.43563,-0.80018 -0.14817,-1.15772 0.28752,-0.3618 0.8146,-0.42563 1.18487,-0.14461 2.39148,1.8217 5.25779,2.78363 8.28963,2.78363 3.03185,0 5.89815,-0.96193 8.28965,-2.78363 0.36592,-0.28093 0.89735,-0.21704 1.18485,0.14461 0.2875,0.35754 0.21792,0.8768 -0.14817,1.15772 -2.69207,2.0473 -5.91557,3.13265 -9.3264,3.13265"
         id="use1488"
         style="fill:#1485e0;fill-rule:evenodd;stroke-width:2.22143292" />
      <path
         inkscape:connector-curvature="0"
         d="m 371.09284,-363.27326 c -5.47124,0 -9.92317,4.34998 -9.92317,9.69591 0,5.34172 4.45193,9.69171 9.92317,9.69171 5.47125,0 9.91883,-4.34999 9.91883,-9.69171 0,-5.34593 -4.44758,-9.69591 -9.91883,-9.69591 z m 2.2e-4,21.03892 c -6.40346,0 -11.60899,-5.09048 -11.60899,-11.34301 0,-6.2568 5.20553,-11.34315 11.60899,-11.34315 6.3991,0 11.60898,5.08635 11.60898,11.34315 0,6.25253 -5.20988,11.34301 -11.60898,11.34301 z"
         id="use1491"
         style="fill:#1485e0;fill-rule:evenodd;stroke-width:2.22143292" />
      <path
         inkscape:connector-curvature="0"
         d="m 371.1031,-328.29864 c -0.4661,0 -0.84508,-0.3703 -0.84508,-0.82573 v -10.42801 c 0,-0.45542 0.37898,-0.82573 0.84508,-0.82573 0.4661,0 0.84508,0.37031 0.84508,0.82573 v 10.42801 c 0,0.45543 -0.37898,0.82573 -0.84508,0.82573"
         id="use1494"
         style="fill:#1485e0;fill-rule:evenodd;stroke-width:2.22143292" />
      <path
         inkscape:connector-curvature="0"
         d="m 371.10181,-348.32075 c -0.1264,0 -0.25264,-0.0256 -0.37027,-0.0809 -0.41818,-0.20015 -0.59243,-0.6938 -0.38768,-1.10665 l 3.02312,-6.04826 c 0.20482,-0.40861 0.71004,-0.57886 1.12822,-0.37882 0.42254,0.20015 0.59679,0.69378 0.38769,1.10239 l -3.02313,6.05252 c -0.14817,0.28943 -0.44866,0.45968 -0.75795,0.45968"
         id="use1497"
         style="fill:#1485e0;fill-rule:evenodd;stroke-width:2.22143292" />
      <path
         inkscape:connector-curvature="0"
         d="m 365.9663,-349.96752 h 10.27166 c 0.77104,-1.05132 1.19358,-2.31547 1.19358,-3.60939 0,-3.41356 -2.84017,-6.18871 -6.32942,-6.18871 -3.49358,0 -6.32939,2.77515 -6.32939,6.18871 0,1.29392 0.41818,2.55807 1.19357,3.60939 z m 10.68572,1.64717 h -11.10368 c -0.25264,0 -0.49225,-0.11063 -0.65341,-0.30221 -1.16743,-1.39608 -1.81214,-3.15394 -1.81214,-4.95437 0,-4.32442 3.59812,-7.83591 8.01958,-7.83591 4.42142,0 8.01955,3.51149 8.01955,7.83591 0,1.80043 -0.64471,3.55829 -1.81649,4.95437 -0.16106,0.19149 -0.40077,0.30221 -0.65341,0.30221 z"
         id="use1500"
         style="fill:#1485e0;fill-rule:evenodd;stroke-width:2.22143292" />
      <path
         inkscape:connector-curvature="0"
         d="m 366.1493,-349.48989 c -0.22652,0 -0.43995,-0.0851 -0.59678,-0.23834 -0.16106,-0.1575 -0.24829,-0.36605 -0.24829,-0.58313 0,-0.21703 0.0871,-0.43413 0.24829,-0.58737 0.31799,-0.3022 0.87993,-0.3022 1.18922,0 0.16105,0.15328 0.25264,0.37029 0.25264,0.58737 0,0.21704 -0.0915,0.42563 -0.24829,0.58313 -0.16105,0.15328 -0.37462,0.23834 -0.59679,0.23834"
         id="use1503"
         style="fill:#1485e0;fill-rule:evenodd;stroke-width:2.22143292" />
      <path
         inkscape:connector-curvature="0"
         d="m 372.6372,-358.36025 c -0.44869,-0.1404 -0.69262,-0.60015 -0.54887,-1.03855 0.13928,-0.43413 0.61855,-0.67249 1.05853,-0.53203 0.44431,0.13618 0.68827,0.60439 0.54887,1.03428 -0.11329,0.35327 -0.44433,0.57462 -0.80589,0.57462 -0.0829,0 -0.16994,-0.0133 -0.25264,-0.0384 z m -4.18198,-0.53208 c -0.14373,-0.42989 0.10018,-0.8981 0.54449,-1.0343 0.44433,-0.14039 0.91914,0.098 1.06289,0.53203 0.14373,0.43416 -0.10018,0.89808 -0.54452,1.03855 -0.0871,0.0255 -0.17416,0.0384 -0.25699,0.0384 -0.36156,0 -0.69262,-0.22126 -0.80587,-0.5746 z m 6.72574,2.2984 c -0.27879,-0.36178 -0.20481,-0.87679 0.1655,-1.15345 0.37027,-0.27242 0.90605,-0.20437 1.18484,0.16594 0.27879,0.3618 0.20482,0.87682 -0.16549,1.15348 -0.15239,0.11063 -0.33542,0.16594 -0.50964,0.16594 -0.25702,0 -0.50967,-0.11485 -0.67521,-0.33199 z m -9.39137,0.17461 c -0.37027,-0.27241 -0.44869,-0.7917 -0.1655,-1.15348 0.27879,-0.36605 0.80589,-0.4384 1.18487,-0.16594 0.37027,0.27239 0.44431,0.79167 0.16549,1.15346 -0.16549,0.21703 -0.41818,0.33199 -0.67953,0.33199 -0.17416,0 -0.35285,-0.0553 -0.50531,-0.16594 z m 10.42412,2.70708 c -0.0133,-0.45968 0.35285,-0.83423 0.81895,-0.84701 0.47045,-0.0133 0.85814,0.34477 0.87122,0.80021 0.009,0.45541 -0.3572,0.83423 -0.8233,0.84701 -0.009,0.004 -0.0133,0.004 -0.0222,0.004 -0.45737,0 -0.83201,-0.35752 -0.84508,-0.80445 z m -11.12992,0.80869 c -0.4661,-0.009 -0.83637,-0.38733 -0.8233,-0.84274 0.009,-0.45544 0.39641,-0.81298 0.86687,-0.80021 0.4661,0.009 0.83201,0.38733 0.81893,0.84277 h 0.004 c -0.0133,0.44691 -0.38768,0.80018 -0.84508,0.80018 -0.009,0 -0.0178,0 -0.0222,0 z"
         id="use1506"
         style="fill:#1485e0;fill-rule:evenodd;stroke-width:2.22143292" />
      <path
         inkscape:connector-curvature="0"
         d="m 376.03033,-349.49049 c -0.2177,0 -0.43996,-0.0851 -0.59244,-0.23836 -0.15683,-0.15328 -0.24829,-0.36607 -0.24829,-0.58313 0,-0.21703 0.0915,-0.43418 0.24829,-0.58737 0.30929,-0.3022 0.87558,-0.30649 1.19358,0 0.15683,0.15328 0.24829,0.37029 0.24829,0.58737 0,0.21703 -0.0915,0.42563 -0.24829,0.58313 -0.15684,0.15328 -0.37462,0.23836 -0.60114,0.23836"
         id="use1509"
         style="fill:#1485e0;fill-rule:evenodd;stroke-width:2.22143292" />
      <path
         inkscape:connector-curvature="0"
         d="m 343.37186,-294.15121 c -0.39641,0 -0.74054,-0.26814 -0.82766,-0.64697 l -1.91667,-8.54671 c -0.10019,-0.44691 0.18726,-0.88531 0.64468,-0.98321 0.45304,-0.098 0.90608,0.18305 1.00626,0.62993 l 1.09339,4.87351 1.09337,-4.87351 c 0.10018,-0.44691 0.54887,-0.72783 1.00626,-0.62993 0.45304,0.098 0.74489,0.5363 0.64471,0.98321 l -1.92105,8.54671 c -0.0829,0.37883 -0.4269,0.64697 -0.82329,0.64697"
         id="use1437-3"
         style="fill:#1485e0;fill-rule:evenodd;stroke-width:2.22143292" />
    </g>
  </g>
</svg>
