<svg xmlns="http://www.w3.org/2000/svg" xmlns:svg="http://www.w3.org/2000/svg" id="svg4" width="20" height="20" version="1.0" viewBox="0 0 20 20"><metadata id="metadata10"/><path id="path2" fill="#fff" fill-opacity="1" stroke-width=".625" d="M 1.111132,3.749836 C 0.49555934,3.749836 0,4.2457766 0,4.861343 v 10.278814 c 0,0.615629 0.49555934,1.110007 1.111132,1.110007 H 18.888743 C 19.504372,16.250164 20,15.755786 20,15.140157 V 4.861343 C 20,4.2457766 19.504372,3.749836 18.888743,3.749836 Z m 0.9375058,1.285133 7.6044224,7.604423 h 0.6597548 l 7.638797,-7.604423 0.76388,0.7638798 -4.548654,4.6180912 3.437521,3.50696 -0.763879,0.763879 -3.506959,-3.506959 -2.534766,2.569454 H 9.2014949 L 6.6671041,11.181507 3.1599573,14.722779 2.3960149,13.924025 5.8682866,10.417128 1.2849456,5.7992238 Z"/></svg>