<svg xmlns="http://www.w3.org/2000/svg" width="64" height="64" viewBox="0 0 64 64"><title>Canvas</title><desc>Created using Figma</desc><defs><path id="a" d="M90 0H35v51h55zM29 51H0v52h29z" fill-rule="evenodd"/><path id="b" d="M0 0h50v47.323H0z" fill-rule="evenodd"/></defs><rect width="46.25" height="45" x="9.126" y="14.437" ry="22.5" fill="#fff" fill-rule="evenodd"/><path d="M30.38 58.906h3.547l.052-1.166a1.23 1.23 0 0 1 1.071-1.147 19.793 19.793 0 0 0 1.93-.363c.578-.138 1.181.15 1.425.683l.487 1.06 3.297-1.28-.391-1.096a1.208 1.208 0 0 1 .558-1.454 20.434 20.434 0 0 0 2.116-1.366 1.264 1.264 0 0 1 1.585.075l.878.783 2.508-2.45-.802-.859a1.189 1.189 0 0 1-.075-1.548c.398-.513.77-1.046 1.11-1.591a1.251 1.251 0 0 1 1.494-.502l1.116.414 1.398-3.184-1.064-.507a1.206 1.206 0 0 1-.661-1.41c.226-.796.391-1.611.513-2.426a1.243 1.243 0 0 1 1.174-1.046l1.186-.05V35.01l-1.186-.05a1.231 1.231 0 0 1-1.174-1.047 20.818 20.818 0 0 0-.372-1.886 1.214 1.214 0 0 1 .7-1.391l1.083-.477-1.308-3.221-1.123.382a1.255 1.255 0 0 1-1.488-.545 19.95 19.95 0 0 0-1.398-2.068 1.193 1.193 0 0 1 .075-1.548l.802-.859-2.508-2.45-.878.783a1.263 1.263 0 0 1-1.585.076 22.05 22.05 0 0 0-1.629-1.085 1.195 1.195 0 0 1-.513-1.46l.424-1.09-3.259-1.366-.52 1.04c-.254.526-.865.796-1.442.645a21.75 21.75 0 0 0-2.483-.501 1.223 1.223 0 0 1-1.07-1.147l-.053-1.16H30.38l-.052 1.16a1.23 1.23 0 0 1-1.071 1.147c-.642.088-1.296.213-1.931.363a1.25 1.25 0 0 1-1.424-.683l-.487-1.059-3.297 1.279.391 1.103c.193.545-.039 1.16-.558 1.447-.724.408-1.443.872-2.116 1.367a1.263 1.263 0 0 1-1.585-.076l-.878-.783-2.508 2.45.802.859c.404.432.436 1.078.078 1.548a21.551 21.551 0 0 0-1.11 1.592 1.251 1.251 0 0 1-1.494.501l-1.116-.414-1.398 3.184 1.064.508c.54.25.815.846.66 1.41-.225.796-.39 1.61-.512 2.425a1.229 1.229 0 0 1-1.174 1.047l-1.187.05v3.465l1.187.05c.597.033 1.09.464 1.174 1.047.088.633.22 1.266.372 1.886a1.21 1.21 0 0 1-.7 1.392l-1.083.476 1.308 3.221 1.123-.382a1.254 1.254 0 0 1 1.488.545c.416.708.885 1.41 1.398 2.068.36.47.327 1.122-.078 1.548l-.802.859 2.508 2.45.878-.783a1.263 1.263 0 0 1 1.585-.075c.52.388 1.07.752 1.629 1.084.506.3.725.915.513 1.46l-.423 1.09 3.258 1.367.52-1.04c.255-.527.86-.796 1.443-.646.814.22 1.648.389 2.482.501a1.223 1.223 0 0 1 1.07 1.147zm4.734 2.425h-5.92a1.23 1.23 0 0 1-1.245-1.16l-.058-1.334c-.256-.05-.514-.1-.764-.157l-.596 1.204c-.294.589-1 .846-1.61.589l-5.44-2.288a1.214 1.214 0 0 1-.673-1.548l.488-1.253a7.628 7.628 0 0 0-.115-.075l-1.013.902a1.26 1.26 0 0 1-1.719-.038l-4.182-4.086a1.192 1.192 0 0 1-.039-1.679l.924-.99c-.147-.207-.288-.42-.43-.633l-1.295.438a1.244 1.244 0 0 1-1.559-.702l-2.194-5.37a1.208 1.208 0 0 1 .648-1.56l1.251-.552c0-.044-.033-.088-.033-.132l-1.366-.056c-.66-.033-1.187-.564-1.187-1.216v-5.784c0-.652.526-1.185 1.187-1.216l1.372-.056c.046-.25.095-.502.154-.746L8.47 31.25c-.603-.282-.866-.978-.603-1.573l2.34-5.314c.263-.596.963-.884 1.585-.658l1.283.476c.032-.038.052-.075.078-.113l-.923-.99a1.183 1.183 0 0 1 .039-1.673l4.182-4.093a1.26 1.26 0 0 1 1.718-.037l1.014.902c.212-.144.43-.282.648-.42l-.45-1.266a1.2 1.2 0 0 1 .72-1.523l5.496-2.143a1.26 1.26 0 0 1 1.597.633l.564 1.222a.97.97 0 0 1 .134-.026l.06-1.341a1.235 1.235 0 0 1 1.244-1.16h5.92c.667 0 1.212.514 1.244 1.16l.059 1.34c.255.045.513.095.763.151l.596-1.203c.295-.59 1-.846 1.61-.59l5.44 2.288c.609.257.904.94.673 1.548l-.488 1.254c.04.026.079.05.115.075l1.013-.903a1.259 1.259 0 0 1 1.712.038l4.189 4.092c.474.458.487 1.197.039 1.674l-.924.99c.148.213.288.42.43.633l1.296-.439a1.25 1.25 0 0 1 1.558.702l2.194 5.377a1.206 1.206 0 0 1-.648 1.554l-1.25.552c0 .044.032.088.032.131l1.372.057c.661.032 1.187.564 1.187 1.215v5.785c0 .652-.526 1.184-1.187 1.216l-1.372.056c-.046.25-.098.501-.154.746l1.232.583c.596.288.866.977.603 1.573l-2.341 5.314c-.262.595-.963.89-1.585.658l-1.283-.476c-.032.037-.052.075-.075.113l.924.99a1.19 1.19 0 0 1-.04 1.68l-4.188 4.085a1.252 1.252 0 0 1-1.712.038l-1.014-.902c-.219.144-.43.282-.647.42l.449 1.265a1.197 1.197 0 0 1-.719 1.523l-5.496 2.144a1.26 1.26 0 0 1-1.598-.633l-.564-1.216a.884.884 0 0 0-.134.026l-.059 1.335a1.23 1.23 0 0 1-1.244 1.16z" fill-rule="evenodd" fill="#c4e1f7"/><path d="M30.057 61.174h3.878l.057-1.274a1.344 1.344 0 0 1 1.172-1.254 21.644 21.644 0 0 0 2.11-.398c.632-.15 1.291.165 1.558.747l.533 1.158 3.605-1.398-.428-1.199a1.32 1.32 0 0 1 .61-1.59 22.344 22.344 0 0 0 2.314-1.494 1.382 1.382 0 0 1 1.733.082l.96.857 2.743-2.68-.877-.938a1.3 1.3 0 0 1-.082-1.693c.435-.562.842-1.144 1.213-1.74a1.368 1.368 0 0 1 1.634-.549l1.22.453 1.53-3.482-1.165-.555a1.319 1.319 0 0 1-.722-1.542c.247-.87.428-1.761.561-2.652a1.36 1.36 0 0 1 1.284-1.144l1.297-.055v-3.79l-1.297-.054a1.346 1.346 0 0 1-1.284-1.145 22.764 22.764 0 0 0-.406-2.063 1.327 1.327 0 0 1 .764-1.52l1.185-.522-1.43-3.522-1.228.418a1.372 1.372 0 0 1-1.627-.596 21.815 21.815 0 0 0-1.529-2.262 1.305 1.305 0 0 1 .082-1.692l.877-.94-2.742-2.679-.961.857a1.381 1.381 0 0 1-1.733.082 24.11 24.11 0 0 0-1.781-1.185c-.554-.33-.792-1.001-.56-1.597l.462-1.193-3.563-1.494-.568 1.138c-.279.576-.947.87-1.578.706a23.784 23.784 0 0 0-2.714-.548 1.338 1.338 0 0 1-1.172-1.254l-.057-1.268h-3.878l-.058 1.268a1.345 1.345 0 0 1-1.17 1.254c-.702.096-1.417.233-2.112.397a1.368 1.368 0 0 1-1.557-.747l-.533-1.158-3.605 1.398.428 1.206a1.315 1.315 0 0 1-.61 1.583c-.793.446-1.578.953-2.314 1.494a1.381 1.381 0 0 1-1.733-.082l-.96-.857-2.743 2.68.876.939c.443.472.478 1.178.086 1.692a23.566 23.566 0 0 0-1.213 1.74 1.368 1.368 0 0 1-1.634.55l-1.22-.453-1.53 3.481 1.165.555c.589.274.89.925.722 1.542-.247.87-.428 1.761-.56 2.652a1.343 1.343 0 0 1-1.285 1.145l-1.297.054v3.79l1.297.055c.653.035 1.193.507 1.284 1.144.097.692.24 1.384.407 2.063a1.324 1.324 0 0 1-.765 1.521l-1.185.521 1.43 3.523 1.228-.419a1.372 1.372 0 0 1 1.627.597c.456.774.968 1.542 1.53 2.261a1.3 1.3 0 0 1-.087 1.693l-.876.938 2.742 2.68.961-.857a1.381 1.381 0 0 1 1.733-.082c.568.425 1.17.822 1.78 1.186.555.329.793 1 .562 1.596l-.463 1.193 3.563 1.494.568-1.138c.28-.575.94-.87 1.578-.706.89.24 1.803.425 2.714.549.652.089 1.143.616 1.171 1.254zm5.176 2.653H28.76c-.73 0-1.326-.556-1.361-1.268l-.065-1.46c-.279-.055-.56-.11-.834-.171l-.652 1.315a1.372 1.372 0 0 1-1.76.645l-5.948-2.502a1.327 1.327 0 0 1-.737-1.692l.533-1.37a8.34 8.34 0 0 0-.125-.083l-1.108.987c-.533.48-1.36.466-1.88-.041l-4.572-4.469a1.303 1.303 0 0 1-.043-1.836l1.01-1.083c-.161-.226-.315-.46-.47-.692l-1.417.48a1.36 1.36 0 0 1-1.704-.768l-2.399-5.873a1.321 1.321 0 0 1 .709-1.706l1.367-.603c0-.048-.035-.096-.035-.144l-1.494-.062c-.723-.035-1.298-.616-1.298-1.329v-6.325c0-.713.575-1.295 1.298-1.33l1.5-.061c.05-.274.104-.548.168-.816l-1.346-.637a1.312 1.312 0 0 1-.66-1.72l2.56-5.811c.287-.651 1.052-.967 1.733-.72l1.402.52c.036-.04.058-.081.086-.122l-1.01-1.083a1.294 1.294 0 0 1 .043-1.83l4.573-4.475a1.379 1.379 0 0 1 1.88-.041l1.107.987c.233-.158.47-.309.709-.46l-.491-1.384a1.312 1.312 0 0 1 .786-1.665l6.01-2.344c.68-.26 1.445.042 1.747.693l.617 1.336c.05-.014.096-.022.146-.029l.065-1.466a1.35 1.35 0 0 1 1.36-1.268h6.474c.73 0 1.325.562 1.36 1.268l.065 1.466c.279.048.56.103.834.165l.653-1.316a1.372 1.372 0 0 1 1.76-.644l5.947 2.501c.667.28.99 1.028.737 1.693l-.533 1.37c.043.029.085.055.125.083l1.108-.987c.533-.48 1.36-.46 1.873.04l4.58 4.476c.518.5.533 1.309.042 1.83l-1.01 1.082c.161.233.315.46.47.693l1.417-.48a1.367 1.367 0 0 1 1.704.767l2.4 5.88a1.32 1.32 0 0 1-.71 1.7l-1.367.603c0 .048.036.096.036.144l1.5.061c.723.036 1.298.617 1.298 1.33V40.1c0 .712-.575 1.295-1.298 1.33l-1.5.06c-.05.275-.108.549-.168.816l1.346.638c.652.315.947 1.069.66 1.72l-2.56 5.811a1.374 1.374 0 0 1-1.733.72l-1.403-.522c-.036.042-.057.083-.082.124l1.01 1.083c.491.52.477 1.33-.043 1.836l-4.58 4.468a1.37 1.37 0 0 1-1.872.042l-1.109-.987a46.4 46.4 0 0 1-.708.459l.491 1.384a1.31 1.31 0 0 1-.785 1.665l-6.01 2.344a1.377 1.377 0 0 1-1.747-.692l-.617-1.33c-.05.007-.1.015-.147.029l-.064 1.46a1.346 1.346 0 0 1-1.36 1.267z" fill-rule="evenodd" fill="#1485e0"/><path d="M33.188 30.248c-.729-.13-1.227-.815-1.108-1.535a1.354 1.354 0 0 1 1.571-1.083 1.329 1.329 0 0 1 1.115 1.535c-.11.645-.694 1.097-1.34 1.097-.07 0-.153 0-.239-.014zm-6.53.336c-.378-.637-.153-1.446.492-1.823.645-.363 1.48-.15 1.851.487a1.3 1.3 0 0 1-.484 1.816 1.366 1.366 0 0 1-.68.178c-.47 0-.926-.233-1.179-.658zm10.662 1.974a1.3 1.3 0 0 1 .16-1.871 1.365 1.365 0 0 1 1.908.157 1.303 1.303 0 0 1-.153 1.864 1.366 1.366 0 0 1-1.915-.15zm-13.593 2.871a1.327 1.327 0 0 1-.82-1.706 1.375 1.375 0 0 1 1.746-.795c.701.253 1.066 1.007.807 1.7a1.354 1.354 0 0 1-1.284.876c-.146 0-.3-.028-.456-.075zm15.234 1.515v-.029c0-.733.596-1.33 1.354-1.336.75 0 1.36.589 1.36 1.322V36.944c0 .733-.61 1.323-1.36 1.323-.758 0-1.361-.59-1.361-1.323zm-16.04 3.24c-.26-.684.111-1.452.807-1.706.708-.246 1.493.11 1.746.802.261.679-.097 1.446-.807 1.7a1.402 1.402 0 0 1-.47.075 1.361 1.361 0 0 1-1.276-.87zm14.58 2.989a1.31 1.31 0 0 1-.167-1.871 1.386 1.386 0 0 1 1.914-.165c.575.473.653 1.316.168 1.871a1.368 1.368 0 0 1-1.915.165zm-10.316 1.953a1.309 1.309 0 0 1-.505-1.81 1.38 1.38 0 0 1 1.858-.486 1.32 1.32 0 0 1 .498 1.816 1.37 1.37 0 0 1-1.178.665c-.225 0-.463-.062-.673-.185zm4.93.041a1.342 1.342 0 0 1 1.102-1.542c.743-.123 1.452.363 1.578 1.076a1.335 1.335 0 0 1-1.101 1.542 1.357 1.357 0 0 1-1.58-1.075zM32.01 33.913c-1.712 0-3.1 1.357-3.1 3.03 0 1.664 1.388 3.021 3.1 3.021 1.704 0 3.093-1.357 3.093-3.022 0-1.672-1.389-3.029-3.093-3.029zm0 8.71c-3.212 0-5.821-2.55-5.821-5.68 0-3.14 2.609-5.682 5.821-5.682 3.205 0 5.807 2.542 5.807 5.681 0 3.132-2.602 5.681-5.807 5.681zM32.028 20.49c-.799 0-1.444.63-1.444 1.405 0 .774.645 1.411 1.444 1.411.793 0 1.438-.637 1.438-1.411 0-.775-.645-1.405-1.438-1.405zm0 5.468c-2.293 0-4.158-1.822-4.158-4.063 0-2.241 1.865-4.064 4.159-4.064 2.293 0 4.152 1.823 4.152 4.064 0 2.24-1.859 4.063-4.152 4.063zM32.028 50.58c-.799 0-1.444.63-1.444 1.405 0 .774.645 1.405 1.444 1.405.793 0 1.438-.63 1.438-1.405s-.645-1.405-1.438-1.405zm0 5.468c-2.293 0-4.158-1.822-4.158-4.063 0-2.241 1.865-4.064 4.159-4.064 2.293 0 4.152 1.823 4.152 4.064 0 2.24-1.859 4.063-4.152 4.063zM47.408 35.53c-.793 0-1.438.63-1.438 1.411 0 .775.645 1.405 1.438 1.405.792 0 1.438-.63 1.438-1.405 0-.78-.646-1.411-1.438-1.411zm0 5.475c-2.293 0-4.159-1.823-4.159-4.064 0-2.24 1.866-4.063 4.16-4.063 2.293 0 4.158 1.823 4.158 4.063 0 2.241-1.865 4.064-4.159 4.064zM16.613 35.53c-.792 0-1.438.63-1.438 1.411 0 .775.646 1.405 1.438 1.405.793 0 1.438-.63 1.438-1.405 0-.78-.645-1.411-1.438-1.411zm0 5.475c-2.293 0-4.158-1.823-4.158-4.064 0-2.24 1.865-4.063 4.159-4.063 2.293 0 4.159 1.823 4.159 4.063 0 2.241-1.866 4.064-4.16 4.064zM42.887 25.99a.338.338 0 0 0-.232.09.324.324 0 0 0 0 .445c.154.144.293.15.449 0a.326.326 0 0 0 .1-.226.39.39 0 0 0-.1-.22.31.31 0 0 0-.226-.088zm0 3.276a3.054 3.054 0 0 1-2.146-.863 2.926 2.926 0 0 1 0-4.201 3.06 3.06 0 0 1 2.154-.87c.813 0 1.57.308 2.146.87.575.562.89 1.302.89 2.097 0 .795-.314 1.542-.89 2.104a3.067 3.067 0 0 1-2.146.863zM21.142 47.265a.325.325 0 0 0-.225.096.31.31 0 0 0-.097.219c0 .061.036.144.097.219.154.158.293.15.456 0a.316.316 0 0 0-.225-.534zm0 3.282a3.043 3.043 0 0 1-2.146-.87 2.894 2.894 0 0 1-.89-2.097c0-.795.314-1.542.89-2.097a3.032 3.032 0 0 1 2.147-.87 3.06 3.06 0 0 1 2.153.87 2.93 2.93 0 0 1 0 4.194 3.06 3.06 0 0 1-2.153.87zM42.887 47.265a.325.325 0 0 0-.225.096.303.303 0 0 0 0 .438c.146.15.293.158.449 0a.296.296 0 0 0 .096-.22.387.387 0 0 0-.096-.218.32.32 0 0 0-.226-.096zm0 3.282a3.054 3.054 0 0 1-2.146-.863 2.926 2.926 0 0 1 0-4.201 3.06 3.06 0 0 1 2.154-.87c.813 0 1.57.308 2.146.87.575.555.89 1.302.89 2.097a2.89 2.89 0 0 1-.89 2.097 3.044 3.044 0 0 1-2.146.87zM21.142 25.99a.312.312 0 0 0-.225.09.321.321 0 0 0-.097.219c0 .061.036.144.097.22.154.157.293.157.456 0a.316.316 0 0 0 0-.44.304.304 0 0 0-.225-.088zm0 3.276a3.067 3.067 0 0 1-2.146-.863 2.92 2.92 0 0 1 0-4.201 3.044 3.044 0 0 1 2.147-.87 3.03 3.03 0 0 1 2.146.87 2.926 2.926 0 0 1 0 4.2 3.083 3.083 0 0 1-2.154.864z" fill-rule="evenodd" fill="#1485e0"/><path d="M44.763 12.645c9.705 3.017 14.805 8.148 7.854 18.811l-42.278.277c-8.293-11.853-.656-15.732 6.899-18.87C19.452 7.903 25.47 1.35 34.642 2.858c7.548 1.241 10.057 9.859 10.121 9.787z" fill="#c4e1f7" fill-rule="evenodd"/><path d="M15.547 14.647c-4.782 0-8.67 3.8-8.67 8.472s3.888 8.476 8.67 8.476h31.862c4.782 0 8.671-3.804 8.671-8.476 0-4.672-3.89-8.472-8.67-8.472-.139 0-.272.01-.408.017l-.137.01a.659.659 0 0 1-.688-.516C44.816 7.3 38.633 2.326 31.476 2.326c-7.154 0-13.337 4.974-14.698 11.832a.659.659 0 0 1-.689.517l-.135-.01c-.137-.008-.268-.018-.407-.018zm31.863 18.23H15.547c-5.508 0-9.987-4.376-9.987-9.758 0-5.381 4.48-9.758 9.987-9.758h.057c1.697-7.173 8.28-12.322 15.872-12.322 7.595 0 14.178 5.15 15.875 12.322h.057c5.508 0 9.987 4.377 9.987 9.758 0 5.382-4.479 9.759-9.987 9.759z" fill-rule="evenodd" fill="#1485e0" stroke="#1485e0" stroke-width="1.73059"/><path d="M41.118 26.865h-20.5c-.711 0-1.29-.566-1.29-1.261 0-.696.579-1.261 1.29-1.261h20.5c.712 0 1.29.565 1.29 1.26 0 .696-.578 1.262-1.29 1.262" fill-rule="evenodd" fill="#1485e0"/><path d="M25.45 30.115c-.252 0-.507-.071-.726-.221l-4.837-3.257a1.235 1.235 0 0 1-.56-1.034c0-.416.208-.806.56-1.04l4.837-3.25a1.298 1.298 0 0 1 1.79.325 1.237 1.237 0 0 1-.333 1.748l-3.294 2.217 3.294 2.21c.585.397.738 1.184.333 1.756a1.282 1.282 0 0 1-1.065.546M41.118 14.58h-20.5c-.711 0-1.29-.566-1.29-1.262 0-.696.579-1.255 1.29-1.255h20.5c.712 0 1.29.56 1.29 1.255 0 .696-.578 1.261-1.29 1.261" fill-rule="evenodd" fill="#1485e0"/><path d="M36.293 17.836a1.32 1.32 0 0 1-1.065-.546 1.25 1.25 0 0 1 .333-1.755l3.293-2.217-3.293-2.21a1.25 1.25 0 0 1-.333-1.756 1.31 1.31 0 0 1 1.796-.318l4.837 3.25c.347.234.56.624.56 1.034 0 .416-.214.806-.56 1.04l-4.837 3.25a1.279 1.279 0 0 1-.731.228" fill-rule="evenodd" fill="#1485e0"/></svg>