<svg width="64" height="64" viewBox="0 0 64 64" xmlns="http://www.w3.org/2000/svg"><title>MONITORING</title><g fill="none" fill-rule="evenodd"><rect fill="#C4E1F7" y="4" width="64" height="45" rx="4"/><path d="M4 5c-1.103 0-2 .897-2 2v40c0 1.103.897 2 2 2h56c1.103 0 2-.897 2-2V7c0-1.103-.897-2-2-2H4zm56 46H4c-2.206 0-4-1.794-4-4V7c0-2.206 1.794-4 4-4h56c2.206 0 4 1.794 4 4v40c0 2.206-1.794 4-4 4z" fill="#1485E0"/><path fill="#1485E0" d="M40.042 60.287l-3-10 1.916-.574 3 10-1.916.574M23.958 60.287l-1.916-.574 3-10 1.916.574-3 10"/><path fill="#1485E0" d="M19 61h26v-2H19zM31 47h2v-2h-2zM6 41h52V9H6v32zm53 2H5a1 1 0 0 1-1-1V8a1 1 0 0 1 1-1h54a1 1 0 0 1 1 1v34a1 1 0 0 1-1 1z"/><path fill="#FFF" d="M6 9h52v32H6z"/><path d="M12.394 25C14.751 27.344 23.13 35 32 35c8.87 0 17.249-7.656 19.606-10C49.249 22.656 40.87 15 32 15c-8.87 0-17.249 7.656-19.606 10zM32 37c-11.312 0-21.319-10.865-21.74-11.327a1 1 0 0 1 0-1.346C10.681 23.865 20.688 13 32 13c11.313 0 21.319 10.865 21.74 11.327a1 1 0 0 1 0 1.346C53.319 26.135 43.313 37 32 37z" fill="#1485E0"/><path d="M20 25h2c0 5.514 4.486 10 10 10s10-4.486 10-10-4.486-10-10-10v-2c6.617 0 12 5.383 12 12s-5.383 12-12 12-12-5.383-12-12z" fill="#1485E0"/><path d="M26 25h-2c0-4.411 3.589-8 8-8v2c-3.309 0-6 2.691-6 6M32 33v-2c3.309 0 6-2.691 6-6h2c0 4.411-3.589 8-8 8" fill="#1485E0"/><circle fill="#C4E1F7" cx="32" cy="25" r="3"/><path d="M32 23c-1.103 0-2 .897-2 2s.897 2 2 2 2-.897 2-2-.897-2-2-2zm0 6c-2.206 0-4-1.794-4-4s1.794-4 4-4 4 1.794 4 4-1.794 4-4 4z" fill="#1485E0"/></g></svg>