<?xml version="1.0" encoding="UTF-8" standalone="no"?>
<svg
   xmlns:dc="http://purl.org/dc/elements/1.1/"
   xmlns:cc="http://creativecommons.org/ns#"
   xmlns:rdf="http://www.w3.org/1999/02/22-rdf-syntax-ns#"
   xmlns:svg="http://www.w3.org/2000/svg"
   xmlns="http://www.w3.org/2000/svg"
   xmlns:xlink="http://www.w3.org/1999/xlink"
   xmlns:sodipodi="http://sodipodi.sourceforge.net/DTD/sodipodi-0.dtd"
   xmlns:inkscape="http://www.inkscape.org/namespaces/inkscape"
   width="123"
   height="53.578999"
   viewBox="0 0 32.54375 14.17611"
   version="1.1"
   id="svg1706"
   inkscape:version="1.0.1 (3bc2e813f5, 2020-09-07)"
   sodipodi:docname="Open Collaboration Services icon color.svg">
  <defs
     id="defs1700">
    <linearGradient
       inkscape:collect="always"
       id="linearGradient890">
      <stop
         style="stop-color:#0082c9;stop-opacity:1"
         offset="0"
         id="stop886" />
      <stop
         style="stop-color:#f822ff;stop-opacity:1"
         offset="1"
         id="stop888" />
    </linearGradient>
    <linearGradient
       inkscape:collect="always"
       xlink:href="#linearGradient890"
       id="linearGradient1005"
       gradientUnits="userSpaceOnUse"
       gradientTransform="translate(169.33338,5.2916663)"
       x1="0.26933604"
       y1="10.18114"
       x2="49.405983"
       y2="-10.753183" />
  </defs>
  <sodipodi:namedview
     id="base"
     pagecolor="#ffffff"
     bordercolor="#666666"
     borderopacity="1.0"
     inkscape:pageopacity="0.0"
     inkscape:pageshadow="2"
     inkscape:zoom="2.8"
     inkscape:cx="62.2243"
     inkscape:cy="-1.2888533"
     inkscape:document-units="mm"
     inkscape:current-layer="layer1"
     inkscape:document-rotation="0"
     showgrid="false"
     units="px"
     inkscape:showpageshadow="false"
     inkscape:window-width="1920"
     inkscape:window-height="1016"
     inkscape:window-x="0"
     inkscape:window-y="0"
     inkscape:window-maximized="1"
     fit-margin-top="0"
     fit-margin-left="0"
     fit-margin-right="0"
     fit-margin-bottom="0" />
  <metadata
     id="metadata1703">
    <rdf:RDF>
      <cc:Work
         rdf:about="">
        <dc:format>image/svg+xml</dc:format>
        <dc:type
           rdf:resource="http://purl.org/dc/dcmitype/StillImage" />
        <dc:title></dc:title>
      </cc:Work>
    </rdf:RDF>
  </metadata>
  <g
     inkscape:label="Layer 1"
     inkscape:groupmode="layer"
     id="layer1"
     transform="translate(-166.68752,-2.6458333)">
    <rect
       style="fill:url(#linearGradient1005);fill-opacity:1;stroke-width:0.603053;stroke-linecap:round;stroke-linejoin:round;paint-order:stroke markers fill"
       id="rect981"
       width="32.543751"
       height="14.17611"
       x="166.68752"
       y="2.6458333"
       rx="7.0880551"
       ry="7.0880551" />
    <path
       id="path1986"
       style="font-style:normal;font-variant:normal;font-weight:800;font-stretch:normal;font-size:12.204px;line-height:1.25;font-family:Montserrat;-inkscape-font-specification:'Montserrat Ultra-Bold';letter-spacing:0px;fill:#ffffff;fill-opacity:1;stroke-width:1.15314"
       d="m 48.945312,10 c -3.413266,0 -6.487828,0.722708 -9.224609,2.167969 -2.706016,1.445261 -4.843857,3.443824 -6.412109,5.996093 -1.537512,2.55227 -2.306641,5.426976 -2.306641,8.625 0,3.198024 0.769129,6.074684 2.306641,8.626954 1.568252,2.552269 3.706093,4.550832 6.412109,5.996093 2.736781,1.445261 5.811343,2.167969 9.224609,2.167969 3.413292,0 6.471719,-0.722708 9.177735,-2.167969 2.736781,-1.445261 4.874597,-3.443824 6.412109,-5.996093 1.568252,-2.55227 2.353516,-5.42893 2.353516,-8.626954 0,-3.198024 -0.785264,-6.07273 -2.353516,-8.625 C 62.997644,15.611793 60.859828,13.61323 58.123047,12.167969 55.417031,10.722708 52.358604,10 48.945312,10 Z m 38.837891,0 c -3.382526,0 -6.426797,0.722708 -9.132812,2.167969 -2.675276,1.414511 -4.782801,3.396949 -6.320313,5.949219 -1.537512,2.552269 -2.30664,5.443099 -2.30664,8.671874 0,3.228775 0.769128,6.119606 2.30664,8.671876 1.537512,2.552269 3.645037,4.550832 6.320313,5.996093 2.706015,1.414511 5.750286,2.123047 9.132812,2.123047 2.952013,0 5.610743,-0.522851 7.978516,-1.568359 2.367773,-1.045508 4.336041,-2.55347 5.904301,-4.521485 l -5.812504,-5.257812 c -2.091011,2.521519 -4.626597,3.783203 -7.609375,3.783203 -1.752769,0 -3.321318,-0.385541 -4.705079,-1.154297 -1.35302,-0.768756 -2.414837,-1.844755 -3.183593,-3.228516 C 79.617478,30.218302 79.25,28.603326 79.25,26.789062 c 0,-1.814263 0.367478,-3.413114 1.105469,-4.796874 0.768756,-1.414511 1.830573,-2.506635 3.183593,-3.275391 1.383761,-0.768756 2.95231,-1.152344 4.705079,-1.152344 2.982778,0 5.518364,1.261684 7.609375,3.783203 l 5.812504,-5.259765 C 100.09776,14.119876 98.129492,12.613868 95.761719,11.568359 93.393946,10.522851 90.735216,10 87.783203,10 Z m 30.166017,0 c -3.10577,0 -5.73616,0.460305 -7.88867,1.382812 -2.12178,0.922508 -3.72062,2.184191 -4.79688,3.783204 -1.07626,1.568262 -1.61328,3.336672 -1.61328,5.304687 0,2.244768 0.58342,4.027349 1.75195,5.349609 1.16851,1.32226 2.56751,2.291246 4.19727,2.90625 1.62976,0.584255 3.65861,1.137403 6.08789,1.660157 2.21402,0.492004 3.81289,0.968434 4.79688,1.429687 1.01477,0.430504 1.52343,1.108743 1.52343,2.03125 0,1.752764 -1.75227,2.628906 -5.25781,2.628906 -1.84501,0 -3.72239,-0.292698 -5.62891,-0.876953 -1.90652,-0.584254 -3.5821,-1.353383 -5.02734,-2.30664 l -2.99805,6.734375 c 1.53751,1.076258 3.53608,1.938229 5.9961,2.583984 2.46002,0.645755 4.99755,0.96875 7.61132,0.96875 3.07503,0 5.68929,-0.462258 7.8418,-1.384766 2.15252,-0.953257 3.76554,-2.212987 4.8418,-3.78125 1.07626,-1.568262 1.61523,-3.3225 1.61523,-5.259765 0,-2.244767 -0.59956,-4.013178 -1.79883,-5.304688 -1.1685,-1.322259 -2.5675,-2.27512 -4.19726,-2.859375 -1.59902,-0.615004 -3.62787,-1.184277 -6.08789,-1.707031 -2.18328,-0.461254 -3.76797,-0.905434 -4.75195,-1.335937 -0.98402,-0.430504 -1.47657,-1.076494 -1.47657,-1.9375 0,-0.861007 0.41584,-1.553418 1.2461,-2.076172 0.83023,-0.553505 2.15252,-0.830078 3.96679,-0.830078 2.89054,0 5.87225,0.829721 8.94727,2.490234 l 2.81445,-6.779297 C 128.09581,11.891946 126.28097,11.199535 124.2207,10.738281 122.16043,10.246277 120.071,10 117.94922,10 Z m -69.003908,7.564453 c 1.629783,0 3.10548,0.383588 4.427735,1.152344 1.322255,0.768756 2.367963,1.86088 3.136719,3.275391 0.768756,1.38376 1.152343,2.982611 1.152343,4.796874 0,1.814264 -0.383587,3.42924 -1.152343,4.84375 -0.768756,1.383761 -1.814464,2.45976 -3.136719,3.228516 -1.322255,0.768756 -2.797952,1.154297 -4.427735,1.154297 -1.629757,0 -3.105479,-0.385541 -4.427734,-1.154297 -1.322255,-0.768756 -2.367963,-1.844755 -3.136719,-3.228516 -0.768756,-1.41451 -1.154297,-3.029486 -1.154297,-4.84375 0,-1.814263 0.385541,-3.413114 1.154297,-4.796874 0.768756,-1.414511 1.814464,-2.506635 3.136719,-3.275391 1.322255,-0.768756 2.797977,-1.152344 4.427734,-1.152344 z"
       transform="matrix(0.26458333,0,0,0.26458333,161.13067,2.6458333)" />
  </g>
</svg>
