<svg xmlns="http://www.w3.org/2000/svg" width="64" height="64" viewBox="0 0 64 64"><title>PERMISSION AND FILE ACESS</title><path d="M20 6l1.56-4.508h20.745L44 6l6.576-1.797v39.73L32 56.948 13.424 43.525V3.661z" fill="#fff" fill-rule="evenodd"/><g fill="none" fill-rule="evenodd"><path fill="#C4E1F7" d="M10 2l2 1v41l20 15v3L10 46zM54 2l-2 1v41L32 59v3l22-16z"/><path d="M10 45.496l22 16.261 22-16.261V2.618l-8.553 4.277a1 1 0 0 1-1.304-.38L41.434 2H22.566l-2.709 4.515a.998.998 0 0 1-1.304.38L10 2.618v42.878zM32 64a.998.998 0 0 1-.595-.196l-23-17A1 1 0 0 1 8 46V1A1.001 1.001 0 0 1 9.447.105l9.172 4.586L21.143.485A1 1 0 0 1 22 0h20a1 1 0 0 1 .857.485l2.524 4.206L54.553.105A1.001 1.001 0 0 1 56 1v45a1 1 0 0 1-.405.804l-23 17A.998.998 0 0 1 32 64z" fill="#1485E0"/><path d="M32 59a.998.998 0 0 1-.593-.195l-19-14A1.001 1.001 0 0 1 12 44V3h2v40.495l18 13.263 18-13.263V3h2v41c0 .317-.151.616-.407.805l-19 14A.998.998 0 0 1 32 59" fill="#1485E0"/><path fill="#1485E0" d="M18 11h2V6h-2zM44 11h2V6h-2zM32 13c-3.309 0-6 2.691-6 6s2.691 6 6 6 6-2.691 6-6-2.691-6-6-6zm0 14c-4.411 0-8-3.589-8-8s3.589-8 8-8 8 3.589 8 8-3.589 8-8 8z"/><path fill="#1485E0" d="M37 36h-4V26h2v8h2v2"/><path fill="#1485E0" d="M35 47h-6V26h2v19h2v-3h2v-2h-2v-2h4v6h-2v3M30 17h4v-2h-4zM18 15h2v-2h-2zM18 19h2v-2h-2zM18 23h2v-2h-2zM44 15h2v-2h-2zM44 19h2v-2h-2zM44 23h2v-2h-2z"/></g></svg>