<svg xmlns="http://www.w3.org/2000/svg" height="300" width="300" fill="#0082c9" viewBox="0 0 16 16"><path d="M3.88.32C3.72.48 3.6.8 3.6.8v14.4s.114.274.32.48c.212.211.48.32.48.32h7.2s.158.002.48-.32c.18-.18.32-.48.32-.48V.8s-.122-.282-.32-.48A1.477 1.477 0 0 0 11.6 0H4.4s-.356.156-.52.32zM4.4.8h7.2v14.4H4.4z" overflow="visible"/><path overflow="visible" d="M7.634 14.696v.063s.037.12.104.187a.48.48 0 0 0 .182.1h.16s.123-.032.19-.1c.068-.068.096-.187.096-.187v-.063z"/><path overflow="visible" d="M8.366 14.697v-.064s-.037-.12-.104-.186c-.068-.068-.182-.1-.182-.1h-.16s-.123.032-.19.1c-.068.068-.096.186-.096.186v.064zM4.4 1.547v.4h7.2v-.4zM7.247.973v.4H9.18v-.4zM6.447.973v.4h.433v-.4zM4.4 13.733v.4h7.2v-.4z"/></svg>