<svg id="svg7851" xmlns="http://www.w3.org/2000/svg" width="64" height="64" viewBox="-17 19 64 64"><style>.st0{fill:#c4e1f7}.st1{fill:#fff}.st2{fill:#1485e0}</style><title id="title6190">Canvas</title><desc id="desc6192">Created using Figma</desc><g id="g15335"><path id="rect13614-6-0" class="st0" d="M-3 20h28.7l7.3 7.1V44H-3V20z"/><path id="rect13614-6-9-1-3" class="st1" d="M-15.8 41h5l3 3h45.4l3-3h5.2v17.1h-61.5V41z"/><g id="g12925" transform="translate(-.02 -317)"><g id="use6785" transform="translate(49.02 359)"><path id="path19_fill" class="st2" d="M32 380h2v-2h-2v2z"/></g><g id="use6839" transform="translate(21.02 359)"><path id="path19_fill_7_" class="st2" d="M4 380h2v-2H4v2z"/></g><path class="st2" d="M38 364c-2.2 0-4 1.8-4 4s1.8 4 4 4 4-1.8 4-4-1.8-4-4-4zm0 6c-1.1 0-2-.9-2-2s.9-2 2-2 2 .9 2 2-.9 2-2 2zM30 367h2v2h-2zM26 367h2v2h-2zM22 367h2v2h-2z"/><path class="st2" d="M44 356h-8v2h3.6l-2 2H34v-15.4l-8.6-8.6H-4v24h-3.6l-2-2H-6v-2h-8c-1.7 0-3 1.3-3 3v18c0 1.7 1.3 3 3 3h8v-2h-8c-.6 0-1-.4-1-1v-1h60v1c0 .6-.4 1-1 1h-8v2h8c1.7 0 3-1.3 3-3v-18c0-1.7-1.3-3-3-3zm-18-16.6l4.6 4.6H26v-4.6zM-2 344h22v-2H-2v-4h26v8h8v14H-2v-16zm47 30h-60v-15c0-.6.4-1 1-1h1.6l4 4h46.8l4-4H44c.6 0 1 .4 1 1v15zM-4 386h2v6h-2z"/><path class="st2" d="M0 378h2v10H0zM4 382h2v10H4zM8 378h2v16H8zM12 394h2v6h-2zM16 390h2v8h-2zM16 378h2v10h-2zM20 384h2v12h-2zM24 378h2v12h-2zM28 378h2v6h-2zM32 382h2v10h-2zM32 394h2v4h-2zM28 386h2v2h-2zM28 390h2v6h-2zM20 378h2v4h-2zM20 398h2v2h-2zM24 392h2v6h-2zM12 378h2v14h-2zM4 394h2v6H4zM8 396h2v2H8zM0 390h2v8H0zM-4 394h2v2h-2zM-4 378h2v6h-2zM2 348h26v2H2zM2 352h26v2H2zM2 356h26v2H2z"/></g></g></svg>
