<svg id="svg928" xmlns="http://www.w3.org/2000/svg" width="64" height="64" viewBox="-50.9 65.3 64 64"><style>.st0{fill:#fff}.st1{fill:#c4e1f7}.st2{fill:#1485e0}</style><g id="g10336" transform="translate(1035.204 -179.46)"><path id="rect4653-6-9" class="st0" d="M-1060.1 254.9c1.2 0 2.1.9 2.1 2v.1c0 1.1-.9 2-2 2h-.1c-1.1 0-2-.9-2-2v-.1c0-1.1.9-2 2-2z"/><path id="rect4653-6-6" class="st0" d="M-1050.4 254.9c1.2 0 2.1.9 2.1 2v.1c0 1.1-.9 2-2 2h-.1c-1.1 0-2-.9-2-2v-.1c0-1.1.9-2 2-2z"/><path id="rect4653-6" class="st0" d="M-1040.7 254.9c1.2 0 2.1.9 2.1 2v.1c0 1.1-.9 2-2 2h-.1c-1.1 0-2-.9-2-2v-.1c0-1.1.9-2 2-2z"/><g id="g5323" transform="translate(-5.374 1.159)"><g id="g10095" transform="translate(-1396.494 -19.37)"><g id="g10073" transform="translate(88.64 -32.83)"><path id="rect10003" class="st1" d="M243.6 314.7c17.2-.4 15.1 4.4 15.1 4.4l.1 22c0 3.4-9.1 3.7-15.8 3.8-13.3.2-14.2-3.7-14.2-3.7l.1-22.5c.1-3 8-3.8 14.7-4z"/><g id="Fill_545" transform="translate(-2407.916 1216.43) scale(1.01743)"><g id="use1629"><path class="st1" d="M2591.7-863.3c-.1 0-.2 0-.3-.1s-.1-.2-.1-.3 0-.2.1-.3.4-.1.5 0 .1.2.1.3 0 .2-.1.3c0 0-.1.1-.2.1"/><path class="st2" d="M2591.7-863v-.8.8c-.2 0-.4-.1-.5-.2-.1-.1-.2-.3-.2-.5s.1-.4.2-.5c.3-.3.8-.3 1.1 0 .1.1.2.3.2.5s-.1.4-.2.5c-.2.2-.4.2-.6.2z"/></g></g><g id="Fill_551" transform="translate(-2407.916 1216.43) scale(1.01743)"><g id="use1647"><path class="st1" d="M2591.7-870.6c-.1 0-.2 0-.3-.1s-.1-.2-.1-.3 0-.2.1-.3.4-.1.5 0 .1.2.1.3 0 .2-.1.3c0 0-.1.1-.2.1"/><path class="st2" d="M2591.7-870.2v-.8.8c-.2 0-.4-.1-.5-.2-.1-.1-.2-.3-.2-.5s.1-.4.2-.5c.3-.3.8-.3 1.1 0 .1.1.2.3.2.5s-.1.4-.2.5c-.2.1-.4.2-.6.2z"/></g></g><path class="st2" d="M259.7 318.5c0-3.2-8.2-4.7-15.8-4.7s-15.8 1.5-15.8 4.7c0 .1 0 .2.1.3v22.8c0 .3.2.6.6.7 2 2.2 9 3.3 15.2 3.3 6.9 0 14.8-1.3 15.7-4.1v-23zm-15.8 25.6c-8.4 0-13.6-1.7-14.2-3v-5.4c2.8 1.7 8.8 2.5 14.2 2.5s11.4-.8 14.2-2.5v5.4c-.4 1.2-5.7 3-14.2 3zm0-28.7c9.2 0 14.2 2.1 14.2 3.1 0 1.1-5 3.1-14.2 3.1s-14.2-2.1-14.2-3.1c0-1.1 5-3.1 14.2-3.1zm14.2 18.2c-.5 1.2-5.8 3-14.2 3-8.4 0-13.6-1.7-14.2-3v-5.4c2.8 1.7 8.8 2.5 14.2 2.5s11.4-.8 14.2-2.5v5.4zm0-7.4c-.5 1.2-5.8 3-14.2 3-8.4 0-13.6-1.7-14.2-3v-5.5c2.8 1.7 8.6 2.5 14.2 2.5s11.4-.8 14.2-2.5v5.5z"/></g></g><g id="Fill_567" transform="translate(-8814.566 2958.887) scale(2.91326)"><path id="use1695" class="st2" d="M2655.3-927.8c0-.2.2-.4.4-.4s.4.2.4.4-.2.4-.4.4-.4-.2-.4-.4zm1.9 0c0-.2.2-.4.4-.4s.4.2.4.4-.2.4-.4.4-.4-.2-.4-.4z"/></g><g id="Fill_568" transform="translate(-8814.566 2958.887) scale(2.91326)"><path id="use1698" class="st2" d="M2659.5-927.4c-.1 0-.2 0-.3-.1s-.1-.2-.1-.3 0-.2.1-.3.4-.1.5 0 .1.2.1.3 0 .2-.1.3c0 0-.1.1-.2.1"/></g><g id="Fill_569" transform="translate(-8810.566 2916.887) scale(2.91326)"><path id="use1701" class="st2" d="M2659.5-898.5h-5.7c-.2 0-.4-.2-.4-.4s.2-.4.4-.4h5.7c.2 0 .4.2.4.4s-.2.4-.4.4"/></g><g id="Fill_570" transform="translate(-8814.566 2916.887) scale(2.91326)"><path id="use1704" class="st2" d="M2669.8-898.5c-.1 0-.2 0-.3-.1s-.1-.2-.1-.3 0-.2.1-.3.4-.1.5 0 .1.2.1.3 0 .2-.1.3c0 0-.1.1-.2.1"/></g><g id="Fill_571" transform="translate(-8814.566 2916.887) scale(2.91326)"><path id="use1707" class="st2" d="M2662.6-898.9c0-.2.2-.4.4-.4s.4.2.4.4-.2.4-.4.4c-.3 0-.4-.2-.4-.4zm1.7 0c0-.2.2-.4.4-.4s.4.2.4.4-.2.4-.4.4c-.3 0-.4-.2-.4-.4zm1.7 0c0-.2.2-.4.4-.4s.4.2.4.4-.2.4-.4.4-.4-.2-.4-.4zm1.7 0c0-.2.2-.4.4-.4s.4.2.4.4-.2.4-.4.4-.4-.2-.4-.4z"/></g><g id="Fill_572" transform="translate(-8814.566 2916.887) scale(2.91326)"><path id="use1710" class="st2" d="M2659.5-898.5c-.1 0-.2 0-.3-.1s-.1-.2-.1-.3 0-.2.1-.3.4-.1.5 0 .1.2.1.3 0 .2-.1.3c0 0-.1.1-.2.1"/></g><g id="Fill_573" transform="translate(-8814.566 2916.887) scale(2.91326)"><path id="use1713" class="st2" d="M2676.3-898.5h-6.5c-.2 0-.4-.2-.4-.4s.2-.4.4-.4h6.1v-5.1c0-.2.2-.4.4-.4s.4.2.4.4v5.5c-.1.2-.2.4-.4.4"/></g><path class="st2" d="M-1018.1 254.8h-13.3c-.5-1.7-2-2.9-3.9-2.9s-3.4 1.2-3.9 2.9h-1.9c-.5-1.7-2-2.9-3.9-2.9s-3.4 1.2-3.9 2.9h-1.9c-.5-1.7-2-2.9-3.9-2.9s-3.4 1.2-3.9 2.9h-8.4c-.6 0-1.1.5-1.1 1.1 0 .6.5 1.1 1.1 1.1h8.5c.5 1.6 2 2.9 3.9 2.9 1.8 0 3.4-1.2 3.9-2.9h1.9c.5 1.6 2 2.9 3.9 2.9 1.8 0 3.4-1.2 3.9-2.9h1.9c.5 1.6 2 2.9 3.9 2.9 1.8 0 3.4-1.2 3.9-2.9h12.2v14.9c0 .6.5 1.1 1.1 1.1s1.1-.5 1.1-1.1v-16c-.1-.6-.6-1.1-1.2-1.1zm-36.5 2.8c-1 0-1.8-.8-1.8-1.8s.8-1.8 1.8-1.8 1.8.8 1.8 1.8-.8 1.8-1.8 1.8zm9.6 0c-1 0-1.8-.8-1.8-1.8s.8-1.8 1.8-1.8 1.9.8 1.9 1.8-.8 1.8-1.9 1.8zm9.7 0c-1 0-1.8-.8-1.8-1.8s.8-1.8 1.8-1.8 1.8.8 1.8 1.8c.1 1-.8 1.8-1.8 1.8z"/><g id="g10102" transform="translate(-1497.857 -.903)"><g id="use102-2" transform="translate(506.89 210.044)"><path id="path18_fill" class="st1" d="M-50.9 69.2c0-2.2 1.8-4 4-4h10c2.2 0 4 1.8 4 4v8c0 2.2-1.8 4-4 4h-10c-2.2 0-4-1.8-4-4v-8z"/></g><path class="st2" d="M472.9 274.4v-3.2c0-3.9-3.1-7-7-7h-2c-3.9 0-7 3.1-7 7v3.2c-1.2.4-2 1.5-2 2.8v12c0 1.7 1.3 3 3 3h14c1.7 0 3-1.3 3-3v-12c0-1.3-.8-2.4-2-2.8zm-9-8.2h2c2.8 0 5 2.2 5 5v3h-12v-3c0-2.7 2.2-5 5-5zm9 23c0 .6-.4 1-1 1h-14c-.6 0-1-.4-1-1v-12c0-.6.4-1 1-1h14c.6 0 1 .4 1 1v12z"/><g id="use108-6" transform="translate(513.89 214.044)"><path id="path20_fill" class="st0" d="M-49.9 69c-.6-.3-1-1-1-1.7 0-1.1.9-2 2-2s2 .9 2 2c0 .7-.4 1.4-1 1.7v4.3h-2V69z"/></g><path class="st2" d="M467.4 281.2c0-1.4-1.1-2.5-2.5-2.5s-2.5 1.1-2.5 2.5c0 .8.4 1.5 1 2v4.5h3v-4.5c.6-.4 1-1.1 1-2zm-1.8 1.3l-.2.1v4.1h-1v-4.1l-.2-.1-.3.4.3-.4c-.4-.3-.8-.7-.8-1.3 0-.8.7-1.5 1.5-1.5s1.5.7 1.5 1.5c0 .6-.3 1.1-.8 1.3z"/></g></g></g></svg>
