<svg xmlns="http://www.w3.org/2000/svg" width="64" height="64" viewBox="0 0 64 64"><title>SECURITY POLICIES</title><path d="M1.12 3.095h18.69l3.51 3.491 36.645.23v6.276l-52.892.366-.487 41.012H1.12z" fill="#fff" fill-rule="evenodd"/><g fill="none" fill-rule="evenodd"><path fill="#c4e1f7" d="M6.945 14H64v42H6.945z"/><path fill="#1485E0" d="M4 56h30v-2H4z"/><path d="M63 56h-5v-2h4V14H8v38c0 2.206-1.794 4-4 4s-4-1.794-4-4V3a1 1 0 0 1 1-1h18c.266 0 .52.105.707.293L23.414 6H59a1 1 0 0 1 1 1v3h-2V8H23a.996.996 0 0 1-.707-.293L18.586 4H2v48c0 1.103.897 2 2 2s2-.897 2-2V13a1 1 0 0 1 1-1h56a1 1 0 0 1 1 1v42a1 1 0 0 1-1 1" fill="#1485E0"/><path d="M54 45h-2v-4c0-2.757-2.243-5-5-5h-2c-2.757 0-5 2.243-5 5v4h-2v-4c0-3.859 3.141-7 7-7h2c3.859 0 7 3.141 7 7v4M14 26h42v-6H14v6zm43 2H13a1 1 0 0 1-1-1v-8a1 1 0 0 1 1-1h44a1 1 0 0 1 1 1v8a1 1 0 0 1-1 1z" fill="#1485E0"/><path fill="#1485E0" d="M16 24h2v-2h-2zM20 24h2v-2h-2zM24 24h2v-2h-2zM28 24h2v-2h-2zM32 24h2v-2h-2zM36 24h2v-2h-2zM40 24h2v-2h-2zM12 33h18v-1H12zM12 37h18v-1H12z"/><rect fill="#C4E1F7" x="37" y="45" width="18" height="16" rx="4"/><path d="M39 46a1 1 0 0 0-1 1v12a1 1 0 0 0 1 1h14a1 1 0 0 0 1-1V47a1 1 0 0 0-1-1H39zm14 16H39c-1.654 0-3-1.346-3-3V47c0-1.654 1.346-3 3-3h14c1.654 0 3 1.346 3 3v12c0 1.654-1.346 3-3 3z" fill="#1485E0"/><path d="M45 52.732V57h2v-4.268A2.001 2.001 0 0 0 46 49a2.001 2.001 0 1 0-1 3.732z" stroke="#1485E0" fill="#FFF"/></g></svg>