<svg xmlns="http://www.w3.org/2000/svg" xmlns:xlink="http://www.w3.org/1999/xlink" width="64" height="64" viewBox="0 0 64 64"><title>Canvas</title><desc>Created using Figma</desc><defs><path id="a" d="M3 2c-.551 0-1 .449-1 1v12c0 .551.449 1 1 1h14c.551 0 1-.449 1-1V3c0-.551-.449-1-1-1zm14 16H3c-1.654 0-3-1.346-3-3V3c0-1.654 1.346-3 3-3h14c1.654 0 3 1.346 3 3v12c0 1.654-1.346 3-3 3z" fill-rule="evenodd"/><path id="b" d="M16 11h-2V7c0-2.757-2.243-5-5-5H7C4.243 2 2 4.243 2 7v4H0V7c0-3.86 3.14-7 7-7h2c3.86 0 7 3.14 7 7v4" fill-rule="evenodd"/><path id="c" d="M2 4C.897 4 0 3.103 0 2s.897-2 2-2 2 .897 2 2-.897 2-2 2" fill-rule="evenodd"/><path id="d" d="M0 5h2V0H0z" fill-rule="evenodd"/></defs><path d="M11.486 4.728C11.35.508 52.038.707 51.908 5.606L51.76 9.25c-13.676 2.622-27.1 3.029-40.196-.485zM11.564 39.585l12.311 4.077h14.562l14.01-4.085.366 10.417-11.752 2.43L22 52.297l-10.813-2.304zM11.564 18.59l12.311 4.078h14.562l14.01-4.085L52.813 29 41.06 31.43 22 31.303 11.187 29z" fill="#c4e1f7" fill-rule="evenodd" paint-order="fill markers stroke"/><g fill="none" stroke="#1485e0"><path d="M32 1.774c-12.087 0-20.51 2.602-20.51 4.939s8.423 4.939 20.51 4.939c12.087 0 20.51-2.602 20.51-4.94 0-2.336-8.423-4.938-20.51-4.938zm0 10.938c-10.467 0-21.592-2.105-21.592-6C10.408 2.819 21.533.714 32 .714c10.467 0 21.592 2.105 21.592 6 0 3.894-11.125 5.999-21.592 5.999zM32 63.287c-9.832 0-20.372-1.85-21.496-5.385a.529.529 0 0 1 .358-.664.54.54 0 0 1 .677.35c.71 2.23 8.736 4.638 20.462 4.638 11.726 0 19.751-2.408 20.462-4.638a.54.54 0 0 1 .677-.35.527.527 0 0 1 .358.664C52.373 61.436 41.833 63.287 32 63.287" stroke-width="1.4265"/><path d="M11.022 58.275a.537.537 0 0 1-.543-.53V7.168c0-.292.244-.53.543-.53.3 0 .542.238.542.53v50.575c0 .293-.243.53-.542.53M52.99 58.275a.537.537 0 0 1-.543-.53V7.168c0-.292.243-.53.542-.53.3 0 .543.238.543.53v50.575c0 .293-.243.53-.543.53" stroke-width="1.4265"/><path d="M32 53.983c-9.832 0-20.372-1.85-21.496-5.384a.529.529 0 0 1 .358-.665.543.543 0 0 1 .677.35c.71 2.23 8.736 4.638 20.462 4.638 11.726 0 19.751-2.408 20.462-4.638a.543.543 0 0 1 .677-.35.527.527 0 0 1 .358.665C52.373 52.133 41.833 53.983 32 53.983M32 43.501c-9.832 0-20.372-1.85-21.496-5.384a.53.53 0 0 1 .358-.665.543.543 0 0 1 .677.35c.71 2.23 8.736 4.639 20.462 4.639 11.729 0 19.751-2.408 20.462-4.639a.543.543 0 0 1 .677-.35.528.528 0 0 1 .358.665C52.373 41.65 41.833 43.5 32 43.5M32 33.02c-9.832 0-20.372-1.851-21.496-5.385a.53.53 0 0 1 .358-.664.543.543 0 0 1 .677.35c.71 2.23 8.736 4.638 20.462 4.638 11.726 0 19.751-2.408 20.462-4.639a.543.543 0 0 1 .677-.35.528.528 0 0 1 .358.665C52.373 31.169 41.833 33.019 32 33.019M32 22.537c-9.832 0-20.372-1.85-21.496-5.384a.53.53 0 0 1 .358-.664.543.543 0 0 1 .677.35c.71 2.23 8.736 4.638 20.462 4.638 11.729 0 19.751-2.408 20.462-4.638a.543.543 0 0 1 .677-.35.528.528 0 0 1 .358.664C52.373 20.687 41.833 22.537 32 22.537" stroke-width="1.4265"/></g><g transform="translate(77.25 .144)"><path d="M-49.883 19.475l9.224-.088 2.651 8.47H-52.49z" fill="#c4e1f7" fill-rule="evenodd" paint-order="fill markers stroke"/><rect width="16.525" height="15.037" x="-53.512" y="29.337" ry="0" rx="0" fill="#c4e1f7" fill-rule="evenodd" paint-order="fill markers stroke"/><use xlink:href="#a" transform="translate(-55.25 27.856)" width="100%" height="100%" fill="#1485e0"/><use xlink:href="#b" transform="translate(-53.25 17.856)" width="100%" height="100%" fill="#1485e0"/><use xlink:href="#c" transform="translate(-47.25 32.856)" width="100%" height="100%" fill="#1485e0"/><use xlink:href="#d" transform="translate(-46.25 35.856)" width="100%" height="100%" fill="#1485e0"/></g></svg>