<svg xmlns="http://www.w3.org/2000/svg" xmlns:xlink="http://www.w3.org/1999/xlink" width="64" height="64" viewBox="0 0 64 64"><title>Canvas</title><desc>Created using Figma</desc><defs><path id="b" d="M0 4h2V0H0z" fill-rule="evenodd"/><path id="a" d="M2 28.485l13 9.286 13-9.286V2.443l-6.648 2.494a1.005 1.005 0 0 1-1.059-.23L17.586 2h-5.172L9.707 4.707a1.004 1.004 0 0 1-1.059.23L2 2.443zM15 40a.999.999 0 0 1-.581-.186l-14-10A1 1 0 0 1 0 29V1A1 1 0 0 1 1.352.063l7.396 2.774L11.293.293A.996.996 0 0 1 12 0h6c.266 0 .52.105.707.293l2.545 2.544L28.648.063A1 1 0 0 1 30 1v28a1 1 0 0 1-.419.814l-14 10A.999.999 0 0 1 15 40z" fill-rule="evenodd"/><path id="c" d="M3.707 6.707A.997.997 0 0 1 3 6.414l-3-3L1.414 2l2.293 2.293L8 0l1.414 1.414-5 5a.997.997 0 0 1-.707.293" fill-rule="evenodd"/><path id="d" d="M9 2C5.141 2 2 5.14 2 9s3.141 7 7 7 7-3.14 7-7-3.141-7-7-7zm0 16c-4.963 0-9-4.038-9-9s4.037-9 9-9 9 4.038 9 9-4.037 9-9 9z" fill-rule="evenodd"/></defs><g transform="translate(-.172)"><rect rx="0" ry="0" y="25.314" x="2.834" height="13.371" width="58.676" fill="#c4e1f7" fill-rule="evenodd" paint-order="fill markers stroke"/><rect rx="0" ry="0" y="48.201" x="2.834" height="13.371" width="58.676" fill="#c4e1f7" fill-rule="evenodd" paint-order="fill markers stroke"/><rect rx="0" ry="0" y="2.427" x="2.834" height="13.371" width="58.676" fill="#c4e1f7" fill-rule="evenodd" paint-order="fill markers stroke"/><g fill="#1485e0"><path d="M2.834 15.799h58.682V2.427H2.834zm59.92 2.427H1.59c-.687 0-1.246-.54-1.246-1.21v-15.8C.344.547.903 0 1.59 0h61.165C63.442 0 64 .546 64 1.217v15.799c0 .67-.558 1.21-1.245 1.21z" fill-rule="evenodd"/><path d="M11.173 7.426c-.956 0-1.726.759-1.726 1.687s.77 1.687 1.726 1.687c.95 0 1.72-.759 1.72-1.687s-.77-1.687-1.72-1.687zm0 5.807c-2.323 0-4.216-1.85-4.216-4.12s1.893-4.115 4.217-4.115c2.323 0 4.21 1.844 4.21 4.115 0 2.27-1.887 4.12-4.21 4.12zM21.066 10.33c-.327 0-.655-.132-.88-.358a1.207 1.207 0 0 1-.365-.86c0-.319.134-.633.366-.858.462-.452 1.296-.452 1.759 0 .232.226.365.539.365.859 0 .32-.134.633-.365.86a1.272 1.272 0 0 1-.88.357M24.895 9.112c0-.67.558-1.21 1.245-1.21s1.245.54 1.245 1.21c0 .671-.558 1.217-1.245 1.217s-1.245-.546-1.245-1.217zm5.058 0c0-.67.558-1.21 1.245-1.21.686 0 1.245.54 1.245 1.21 0 .671-.559 1.217-1.245 1.217-.687 0-1.245-.546-1.245-1.217zM36.254 10.329c-.333 0-.654-.132-.885-.358a1.203 1.203 0 0 1 0-1.719c.462-.45 1.296-.457 1.758 0 .233.227.373.54.373.86 0 .32-.141.633-.373.86a1.256 1.256 0 0 1-.873.357" fill-rule="evenodd"/><g><path d="M2.834 38.686h58.682V25.314H2.834zm59.92 2.427H1.59c-.687 0-1.246-.546-1.246-1.217V24.097c0-.67.559-1.21 1.246-1.21h61.165c.687 0 1.245.54 1.245 1.21v15.8c0 .67-.558 1.216-1.245 1.216z" fill-rule="evenodd"/><path d="M11.173 30.312c-.956 0-1.726.76-1.726 1.687 0 .929.77 1.688 1.726 1.688.95 0 1.72-.76 1.72-1.688 0-.928-.77-1.687-1.72-1.687zm0 5.802c-2.323 0-4.216-1.844-4.216-4.115 0-2.27 1.893-4.12 4.217-4.12 2.323 0 4.21 1.85 4.21 4.12s-1.887 4.115-4.21 4.115zM21.066 33.216c-.327 0-.655-.132-.88-.364a1.182 1.182 0 0 1 0-1.712c.463-.458 1.29-.458 1.76-.007.232.232.365.546.365.866 0 .32-.134.633-.365.853a1.251 1.251 0 0 1-.88.363M24.895 32c0-.672.558-1.218 1.245-1.218.693 0 1.245.546 1.245 1.217 0 .665-.552 1.217-1.245 1.217-.687 0-1.245-.552-1.245-1.217zm5.058 0c0-.672.558-1.218 1.245-1.218.686 0 1.245.546 1.245 1.217 0 .665-.559 1.217-1.245 1.217-.687 0-1.245-.552-1.245-1.217zM36.254 33.217c-.333 0-.654-.132-.885-.364a1.203 1.203 0 0 1 0-1.712c.468-.458 1.303-.452 1.758-.007.233.232.373.54.373.865 0 .32-.141.634-.373.853a1.225 1.225 0 0 1-.873.364" fill-rule="evenodd"/></g><g><path d="M2.834 61.573h58.682V48.2H2.834zM62.754 64H1.59c-.687 0-1.246-.546-1.246-1.217V46.984c0-.67.559-1.21 1.246-1.21h61.165c.687 0 1.245.54 1.245 1.21v15.8c0 .67-.558 1.216-1.245 1.216z" fill-rule="evenodd"/><path d="M11.173 53.2c-.956 0-1.726.758-1.726 1.686 0 .929.77 1.688 1.726 1.688.95 0 1.72-.76 1.72-1.688 0-.928-.77-1.687-1.72-1.687zm0 5.8c-2.323 0-4.216-1.843-4.216-4.114 0-2.27 1.893-4.12 4.217-4.12 2.323 0 4.21 1.85 4.21 4.12s-1.887 4.115-4.21 4.115zM21.066 56.102c-.327 0-.648-.125-.88-.358a1.207 1.207 0 0 1-.365-.859c0-.32.134-.633.366-.865.462-.446 1.29-.446 1.759 0 .232.232.365.545.365.865 0 .32-.134.634-.365.86a1.245 1.245 0 0 1-.88.357M24.895 54.886c0-.677.558-1.217 1.245-1.217.693 0 1.245.54 1.245 1.217 0 .671-.552 1.217-1.245 1.217-.687 0-1.245-.546-1.245-1.217zm5.058 0c0-.677.558-1.217 1.245-1.217.686 0 1.245.54 1.245 1.217 0 .671-.559 1.217-1.245 1.217-.687 0-1.245-.546-1.245-1.217zM36.254 56.102c-.333 0-.648-.125-.885-.358a1.2 1.2 0 0 1-.36-.859c0-.32.128-.633.36-.865.468-.446 1.303-.446 1.758 0 .233.232.373.545.373.865 0 .32-.141.634-.373.86a1.23 1.23 0 0 1-.873.357" fill-rule="evenodd"/></g></g><path d="M20.165 15.092l6 2.25 4.414-2.693h5.172l4.414 2.694 6-2.251v26.042l-13 9.286-13-9.286z" fill="#c4e1f7" fill-rule="evenodd" paint-order="fill markers stroke"/><path d="M41.01 31.649a7.846 8 0 0 1-7.845 8 7.846 8 0 0 1-7.847-8 7.846 8 0 0 1 7.845-8 7.846 8 0 0 1 7.848 7.998l-7.846.002z" fill="#fff" fill-rule="evenodd" paint-order="fill markers stroke"/><g transform="translate(-282.912 386.195)" fill="#1485e0"><use xlink:href="#a" transform="translate(301.077 -373.547)" width="100%" height="100%"/><use xlink:href="#b" transform="translate(309.077 -369.547)" width="100%" height="100%"/><use xlink:href="#b" transform="translate(321.077 -369.547)" width="100%" height="100%"/><use xlink:href="#c" transform="translate(311.367 -357.257)" width="100%" height="100%"/><use xlink:href="#d" transform="translate(307.077 -363.547)" width="100%" height="100%"/></g></g></svg>