<?xml version="1.0" encoding="UTF-8"?>
<svg width="64px" height="64px" viewBox="0 0 64 64" version="1.1" xmlns="http://www.w3.org/2000/svg" xmlns:xlink="http://www.w3.org/1999/xlink">
    <!-- Generator: Sketch 42 (36781) - http://www.bohemiancoding.com/sketch -->
    <title>STORAGE AND DATABASE</title>
    <desc>Created with Sketch.</desc>
    <defs>
        <path d="M0,51 L29,51 L29,103 L0,103 L0,51 Z M35,0 L90,0 L90,51 L35,51 L35,0 Z" id="path-1"></path>
    </defs>
    <g id="STYLEGUIDE" stroke="none" stroke-width="1" fill="none" fill-rule="evenodd">
        <g id="STORAGE-AND-DATABASE">
            <path d="M6,28 C4.895,28 4,27.105 4,26 L4,4 C4,2.895 4.895,2 6,2 L28,2 C29.105,2 30,2.895 30,4 L30,26 C30,27.105 29.105,28 28,28 L6,28 Z" id="Shape" stroke="#1485E0" stroke-width="2" fill="#C4E1F7"></path>
            <path d="M62,38 C62,39.657 56.18,41 49,41 C41.82,41 36,39.657 36,38 C36,36.343 41.82,35 49,35 C56.18,35 62,36.343 62,38 L62,38 Z" id="Shape" stroke="#1485E0" stroke-width="2" fill="#C4E1F7"></path>
            <path d="M49,41 C41.82,41 36,39.657 36,38 L36,44 C36,45.657 41.82,47 49,47 C56.18,47 62,45.657 62,44 L62,38 C62,39.657 56.18,41 49,41 L49,41 Z" id="Shape" stroke="#1485E0" stroke-width="2"></path>
            <path d="M49,47 C41.82,47 36,45.657 36,44 L36,50 C36,51.657 41.82,53 49,53 C56.18,53 62,51.657 62,50 L62,44 C62,45.657 56.18,47 49,47 L49,47 Z" id="Shape" stroke="#1485E0" stroke-width="2"></path>
            <path d="M49,53 C41.82,53 36,51.657 36,50 L36,56 C36,57.657 41.82,59 49,59 C56.18,59 62,57.657 62,56 L62,50 C62,51.657 56.18,53 49,53 L49,53 Z" id="Shape" stroke="#1485E0" stroke-width="2"></path>
            <path d="M8,7 L18,7" id="Shape" stroke="#1485E0" stroke-width="2"></path>
            <path d="M11,11 L22,11" id="Shape" stroke="#1485E0" stroke-width="2"></path>
            <path d="M8,15 L18,15" id="Shape" stroke="#1485E0" stroke-width="2"></path>
            <path d="M8,19 L12,19" id="Shape" stroke="#1485E0" stroke-width="2"></path>
            <path d="M10,23 L18,23" id="Shape" stroke="#1485E0" stroke-width="2"></path>
            <g id="Stroke-7" transform="translate(1.000000, -19.000000)">
                <mask id="mask-2" fill="white">
                    <use xlink:href="#path-1"></use>
                </mask>
                <g id="Mask"></g>
                <path d="M30,74 C15.6404364,74 4,62.3595636 4,48 C4,33.6404364 15.6404364,22 30,22 C39.438249,22 47.70179,27.028861 52.2573667,34.5533267 C54.6327465,38.4767519 56,43.0786853 56,48 C56,62.3595636 44.3595636,74 30,74 Z" stroke="#1385E0" stroke-linecap="round" stroke-linejoin="bevel" stroke-dasharray="5,5" mask="url(#mask-2)"></path>
            </g>
        </g>
    </g>
</svg>