<svg width="64" height="64" viewBox="0 0 64 64" xmlns="http://www.w3.org/2000/svg" xmlns:xlink="http://www.w3.org/1999/xlink"><title>STORAGE AND DATABASE</title><defs><path d="M0 51h29v52H0V51zM35 0h55v51H35V0z" id="a"/></defs><g fill="none" fill-rule="evenodd"><path d="M6 28a2 2 0 0 1-2-2V4a2 2 0 0 1 2-2h22a2 2 0 0 1 2 2v22a2 2 0 0 1-2 2H6zM62 38c0 1.657-5.82 3-13 3s-13-1.343-13-3 5.82-3 13-3 13 1.343 13 3z" stroke="#1485E0" stroke-width="2" fill="#C4E1F7"/><path d="M49 41c-7.18 0-13-1.343-13-3v6c0 1.657 5.82 3 13 3s13-1.343 13-3v-6c0 1.657-5.82 3-13 3z" stroke="#1485E0" stroke-width="2"/><path d="M49 47c-7.18 0-13-1.343-13-3v6c0 1.657 5.82 3 13 3s13-1.343 13-3v-6c0 1.657-5.82 3-13 3z" stroke="#1485E0" stroke-width="2"/><path d="M49 53c-7.18 0-13-1.343-13-3v6c0 1.657 5.82 3 13 3s13-1.343 13-3v-6c0 1.657-5.82 3-13 3zM8 7h10M11 11h11M8 15h10M8 19h4M10 23h8" stroke="#1485E0" stroke-width="2"/><g transform="translate(1 -19)"><mask id="b" fill="#fff"><use xlink:href="#a"/></mask><path d="M30 74C15.64 74 4 62.36 4 48s11.64-26 26-26c9.438 0 17.702 5.029 22.257 12.553A25.88 25.88 0 0 1 56 48c0 14.36-11.64 26-26 26z" stroke="#1385E0" stroke-linecap="round" stroke-linejoin="bevel" stroke-dasharray="5,5" mask="url(#b)"/></g></g></svg>