<svg xmlns="http://www.w3.org/2000/svg" xmlns:svg="http://www.w3.org/2000/svg" id="svg26" width="64" height="64" version="1.1" viewBox="0 0 64 64"><metadata id="metadata32"/><title id="title2">SECURITY TOOLS</title><path id="rect847" fill="#c4e1f7" fill-opacity="1" fill-rule="evenodd" stroke="none" stroke-width=".737" d="M 5.4237261,17.220339 15,16 v 6 h 34 v -6 l 9.000001,1.220339 V 50.000002 H 5.4237261 Z" opacity="1" paint-order="fill markers stroke"/><path id="path4" fill="#fff" fill-rule="evenodd" d="M9.438 21.117h45.563v25.938H9.438z"/><path id="path6" fill="#fff" fill-rule="evenodd" d="M.585 53.848l25.173-.088 1.679 1.149 9.458-.088 1.59-1.061 25.085.088-3.783 4.85H4.456z"/><path id="path8" fill="#c4e1f7" fill-rule="evenodd" d="m 18,2 7,3 4,-3 h 6 l 4,3 7,-3 V 30 L 32,39 18,30 Z"/><path id="path10" fill="#1485e0" fill-rule="evenodd" d="M 5.414,58 H 58.586 L 62,54.586 V 54 H 39.414 l -1.707,1.707 A 0.996,0.996 0 0 1 37,56 H 27 A 0.996,0.996 0 0 1 26.293,55.707 L 24.586,54 H 2 v 0.586 z M 59,60 H 5 A 0.996,0.996 0 0 1 4.293,59.707 l -4,-4 A 0.997,0.997 0 0 1 0,55 v -2 a 1,1 0 0 1 1,-1 h 24 c 0.266,0 0.52,0.105 0.707,0.293 L 27.414,54 h 9.172 l 1.707,-1.707 A 0.996,0.996 0 0 1 39,52 h 24 a 1,1 0 0 1 1,1 v 2 c 0,0.265 -0.105,0.52 -0.293,0.707 l -4,4 A 0.996,0.996 0 0 1 59,60 Z M 6,50 H 4 V 20 c 0,-2.206 1.794,-4 4,-4 h 7 v 2 H 8 c -1.103,0 -2,0.897 -2,2 v 30 m 54,0 H 58 V 20 c 0,-1.103 -0.897,-2 -2,-2 h -7 v -2 h 7 c 2.206,0 4,1.794 4,4 V 50 M 27,48 h 2 v -2 h -2 z m -4,0 h 2 v -2 h -2 z m 8,0 h 2 v -2 h -2 z m 4,0 h 2 v -2 h -2 z m 4,0 h 2 v -2 h -2 z"/><path id="path12" fill="#1485e0" fill-rule="evenodd" d="M 55,48 H 43 V 46 H 54 V 22 h -5 v -2 h 6 a 1,1 0 0 1 1,1 v 26 a 1,1 0 0 1 -1,1 M 21,48 H 9 A 1,1 0 0 1 8,47 V 21 a 1,1 0 0 1 1,-1 h 6 v 2 h -5 v 24 h 11 v 2"/><path id="path14" fill="#1485e0" fill-rule="evenodd" d="m 19,29.485 13,9.286 13,-9.286 V 3.443 L 38.352,5.937 A 1.005,1.005 0 0 1 37.293,5.707 L 34.586,3 h -5.172 l -2.707,2.707 a 1.004,1.004 0 0 1 -1.059,0.23 L 19,3.443 Z M 32,41 a 0.999,0.999 0 0 1 -0.581,-0.186 l -14,-10 A 1,1 0 0 1 17,30 V 2 a 1,1 0 0 1 1.352,-0.937 l 7.396,2.774 2.545,-2.544 A 0.996,0.996 0 0 1 29,1 h 6 c 0.266,0 0.52,0.105 0.707,0.293 l 2.545,2.544 7.396,-2.774 A 1,1 0 0 1 47,2 v 28 a 1,1 0 0 1 -0.419,0.814 l -14,10 A 0.999,0.999 0 0 1 32,41 Z"/><path id="path16" fill="#1485e0" fill-rule="evenodd" d="m 25,9 h 2 V 5 h -2 z m 12,0 h 2 V 5 h -2 z"/><circle id="circle18" cx="32" cy="19" r="8" fill="#fff" fill-rule="evenodd"/><path id="path20" fill="#1485e0" fill-rule="evenodd" d="m 31,24 a 0.997,0.997 0 0 1 -0.707,-0.293 l -3,-3 1.414,-1.414 2.293,2.293 4.293,-4.293 1.414,1.414 -5,5 A 0.997,0.997 0 0 1 31,24"/><path id="path22" fill="#1485e0" fill-rule="evenodd" d="m 32,13 c -3.859,0 -7,3.14 -7,7 0,3.86 3.141,7 7,7 3.859,0 7,-3.14 7,-7 0,-3.86 -3.141,-7 -7,-7 z m 0,16 c -4.963,0 -9,-4.038 -9,-9 0,-4.962 4.037,-9 9,-9 4.963,0 9,4.038 9,9 0,4.962 -4.037,9 -9,9 z"/></svg>