<?xml version="1.0" encoding="UTF-8" standalone="no"?>
<svg
   xmlns:dc="http://purl.org/dc/elements/1.1/"
   xmlns:cc="http://creativecommons.org/ns#"
   xmlns:rdf="http://www.w3.org/1999/02/22-rdf-syntax-ns#"
   xmlns:svg="http://www.w3.org/2000/svg"
   xmlns="http://www.w3.org/2000/svg"
   xmlns:sodipodi="http://sodipodi.sourceforge.net/DTD/sodipodi-0.dtd"
   xmlns:inkscape="http://www.inkscape.org/namespaces/inkscape"
   width="64"
   height="64"
   viewBox="0 0 64 64"
   version="1.1"
   id="svg26"
   sodipodi:docname="tools.svg"
   inkscape:version="0.92.2 5c3e80d, 2017-08-06">
  <metadata
     id="metadata32">
    <rdf:RDF>
      <cc:Work
         rdf:about="">
        <dc:format>image/svg+xml</dc:format>
        <dc:type
           rdf:resource="http://purl.org/dc/dcmitype/StillImage" />
      </cc:Work>
    </rdf:RDF>
  </metadata>
  <defs
     id="defs30" />
  <sodipodi:namedview
     pagecolor="#ffffff"
     bordercolor="#666666"
     borderopacity="1"
     objecttolerance="10"
     gridtolerance="10"
     guidetolerance="10"
     inkscape:pageopacity="0"
     inkscape:pageshadow="2"
     inkscape:window-width="2560"
     inkscape:window-height="1353"
     id="namedview28"
     showgrid="false"
     inkscape:zoom="7.375"
     inkscape:cx="42.060919"
     inkscape:cy="25.884961"
     inkscape:window-x="0"
     inkscape:window-y="240"
     inkscape:window-maximized="1"
     inkscape:current-layer="svg26" />
  <title
     id="title2">SECURITY TOOLS</title>
  <path
     style="opacity:1;fill:#c4e1f7;fill-opacity:1;fill-rule:evenodd;stroke:none;stroke-width:0.73748553;paint-order:fill markers stroke"
     d="M 5.4237261,17.220339 15,16 v 6 h 34 v -6 l 9.000001,1.220339 V 50.000002 H 5.4237261 Z"
     id="rect847"
     inkscape:connector-curvature="0"
     sodipodi:nodetypes="ccccccccc" />
  <path
     fill="#fff"
     fill-rule="evenodd"
     d="M9.438 21.117h45.563v25.938H9.438z"
     id="path4" />
  <path
     d="M.585 53.848l25.173-.088 1.679 1.149 9.458-.088 1.59-1.061 25.085.088-3.783 4.85H4.456z"
     fill="#fff"
     fill-rule="evenodd"
     id="path6" />
  <path
     style="fill:#c4e1f7;fill-rule:evenodd"
     inkscape:connector-curvature="0"
     id="path8"
     d="m 18,2 7,3 4,-3 h 6 l 4,3 7,-3 V 30 L 32,39 18,30 Z" />
  <path
     style="fill:#1485e0;fill-rule:evenodd"
     inkscape:connector-curvature="0"
     id="path10"
     d="M 5.414,58 H 58.586 L 62,54.586 V 54 H 39.414 l -1.707,1.707 A 0.996,0.996 0 0 1 37,56 H 27 A 0.996,0.996 0 0 1 26.293,55.707 L 24.586,54 H 2 v 0.586 z M 59,60 H 5 A 0.996,0.996 0 0 1 4.293,59.707 l -4,-4 A 0.997,0.997 0 0 1 0,55 v -2 a 1,1 0 0 1 1,-1 h 24 c 0.266,0 0.52,0.105 0.707,0.293 L 27.414,54 h 9.172 l 1.707,-1.707 A 0.996,0.996 0 0 1 39,52 h 24 a 1,1 0 0 1 1,1 v 2 c 0,0.265 -0.105,0.52 -0.293,0.707 l -4,4 A 0.996,0.996 0 0 1 59,60 Z M 6,50 H 4 V 20 c 0,-2.206 1.794,-4 4,-4 h 7 v 2 H 8 c -1.103,0 -2,0.897 -2,2 v 30 m 54,0 H 58 V 20 c 0,-1.103 -0.897,-2 -2,-2 h -7 v -2 h 7 c 2.206,0 4,1.794 4,4 V 50 M 27,48 h 2 v -2 h -2 z m -4,0 h 2 v -2 h -2 z m 8,0 h 2 v -2 h -2 z m 4,0 h 2 v -2 h -2 z m 4,0 h 2 v -2 h -2 z" />
  <path
     style="fill:#1485e0;fill-rule:evenodd"
     inkscape:connector-curvature="0"
     id="path12"
     d="M 55,48 H 43 V 46 H 54 V 22 h -5 v -2 h 6 a 1,1 0 0 1 1,1 v 26 a 1,1 0 0 1 -1,1 M 21,48 H 9 A 1,1 0 0 1 8,47 V 21 a 1,1 0 0 1 1,-1 h 6 v 2 h -5 v 24 h 11 v 2" />
  <path
     style="fill:#1485e0;fill-rule:evenodd"
     inkscape:connector-curvature="0"
     id="path14"
     d="m 19,29.485 13,9.286 13,-9.286 V 3.443 L 38.352,5.937 A 1.005,1.005 0 0 1 37.293,5.707 L 34.586,3 h -5.172 l -2.707,2.707 a 1.004,1.004 0 0 1 -1.059,0.23 L 19,3.443 Z M 32,41 a 0.999,0.999 0 0 1 -0.581,-0.186 l -14,-10 A 1,1 0 0 1 17,30 V 2 a 1,1 0 0 1 1.352,-0.937 l 7.396,2.774 2.545,-2.544 A 0.996,0.996 0 0 1 29,1 h 6 c 0.266,0 0.52,0.105 0.707,0.293 l 2.545,2.544 7.396,-2.774 A 1,1 0 0 1 47,2 v 28 a 1,1 0 0 1 -0.419,0.814 l -14,10 A 0.999,0.999 0 0 1 32,41 Z" />
  <path
     style="fill:#1485e0;fill-rule:evenodd"
     inkscape:connector-curvature="0"
     id="path16"
     d="m 25,9 h 2 V 5 h -2 z m 12,0 h 2 V 5 h -2 z" />
  <circle
     style="fill:#ffffff;fill-rule:evenodd"
     id="circle18"
     r="8"
     cy="19"
     cx="32" />
  <path
     style="fill:#1485e0;fill-rule:evenodd"
     inkscape:connector-curvature="0"
     id="path20"
     d="m 31,24 a 0.997,0.997 0 0 1 -0.707,-0.293 l -3,-3 1.414,-1.414 2.293,2.293 4.293,-4.293 1.414,1.414 -5,5 A 0.997,0.997 0 0 1 31,24" />
  <path
     style="fill:#1485e0;fill-rule:evenodd"
     inkscape:connector-curvature="0"
     id="path22"
     d="m 32,13 c -3.859,0 -7,3.14 -7,7 0,3.86 3.141,7 7,7 3.859,0 7,-3.14 7,-7 0,-3.86 -3.141,-7 -7,-7 z m 0,16 c -4.963,0 -9,-4.038 -9,-9 0,-4.962 4.037,-9 9,-9 4.963,0 9,4.038 9,9 0,4.962 -4.037,9 -9,9 z" />
</svg>
