<?xml version="1.0" encoding="UTF-8"?>
<svg width="64px" height="64px" viewBox="0 0 64 64" version="1.1" xmlns="http://www.w3.org/2000/svg" xmlns:xlink="http://www.w3.org/1999/xlink">
    <!-- Generator: Sketch 42 (36781) - http://www.bohemiancoding.com/sketch -->
    <title>SECURITY TOOLS</title>
    <desc>Created with Sketch.</desc>
    <defs></defs>
    <g id="STYLEGUIDE" stroke="none" stroke-width="1" fill="none" fill-rule="evenodd">
        <g id="SECURITY-TOOLS">
            <polygon id="Rectangle-8" fill="#C4E1F7" points="18 2 25 5 29 2 35 2 39 5 46 2 46 30 32 39 18 30"></polygon>
            <path d="M5.414,58 L58.586,58 L62,54.586 L62,54 L39.414,54 L37.707,55.707 C37.52,55.895 37.266,56 37,56 L27,56 C26.734,56 26.48,55.895 26.293,55.707 L24.586,54 L2,54 L2,54.586 L5.414,58 Z M59,60 L5,60 C4.734,60 4.48,59.895 4.293,59.707 L0.293,55.707 C0.105,55.52 0,55.265 0,55 L0,53 C0,52.448 0.447,52 1,52 L25,52 C25.266,52 25.52,52.105 25.707,52.293 L27.414,54 L36.586,54 L38.293,52.293 C38.48,52.105 38.734,52 39,52 L63,52 C63.553,52 64,52.448 64,53 L64,55 C64,55.265 63.895,55.52 63.707,55.707 L59.707,59.707 C59.52,59.895 59.266,60 59,60 L59,60 Z" id="Fill-493" fill="#1485E0"></path>
            <path d="M6,50 L4,50 L4,20 C4,17.794 5.794,16 8,16 L15,16 L15,18 L8,18 C6.897,18 6,18.897 6,20 L6,50" id="Fill-494" fill="#1485E0"></path>
            <path d="M60,50 L58,50 L58,20 C58,18.897 57.103,18 56,18 L49,18 L49,16 L56,16 C58.206,16 60,17.794 60,20 L60,50" id="Fill-495" fill="#1485E0"></path>
            <polygon id="Fill-496" fill="#1485E0" points="27 48 29 48 29 46 27 46"></polygon>
            <polygon id="Fill-497" fill="#1485E0" points="23 48 25 48 25 46 23 46"></polygon>
            <polygon id="Fill-498" fill="#1485E0" points="31 48 33 48 33 46 31 46"></polygon>
            <polygon id="Fill-499" fill="#1485E0" points="35 48 37 48 37 46 35 46"></polygon>
            <polygon id="Fill-500" fill="#1485E0" points="39 48 41 48 41 46 39 46"></polygon>
            <path d="M55,48 L43,48 L43,46 L54,46 L54,22 L49,22 L49,20 L55,20 C55.553,20 56,20.448 56,21 L56,47 C56,47.552 55.553,48 55,48" id="Fill-501" fill="#1485E0"></path>
            <path d="M21,48 L9,48 C8.447,48 8,47.552 8,47 L8,21 C8,20.448 8.447,20 9,20 L15,20 L15,22 L10,22 L10,46 L21,46 L21,48" id="Fill-502" fill="#1485E0"></path>
            <path d="M19,29.485 L32,38.771 L45,29.485 L45,3.443 L38.352,5.937 C37.985,6.072 37.569,5.985 37.293,5.707 L34.586,3 L29.414,3 L26.707,5.707 C26.43,5.985 26.019,6.072 25.648,5.937 L19,3.443 L19,29.485 Z M32,41 C31.796,41 31.593,40.938 31.419,40.814 L17.419,30.814 C17.156,30.626 17,30.323 17,30 L17,2 C17,1.672 17.161,1.365 17.431,1.178 C17.698,0.992 18.043,0.949 18.352,1.063 L25.748,3.837 L28.293,1.293 C28.48,1.105 28.734,1 29,1 L35,1 C35.266,1 35.52,1.105 35.707,1.293 L38.252,3.837 L45.648,1.063 C45.957,0.949 46.302,0.992 46.569,1.178 C46.839,1.365 47,1.672 47,2 L47,30 C47,30.323 46.844,30.626 46.581,30.814 L32.581,40.814 C32.407,40.938 32.204,41 32,41 L32,41 Z" id="Fill-503" fill="#1485E0"></path>
            <polygon id="Fill-504" fill="#1485E0" points="25 9 27 9 27 5 25 5"></polygon>
            <polygon id="Fill-505" fill="#1485E0" points="37 9 39 9 39 5 37 5"></polygon>
            <circle id="Oval" fill="#FFFFFF" cx="32" cy="19" r="8"></circle>
            <path d="M31,24 C30.744,24 30.488,23.902 30.293,23.707 L27.293,20.707 L28.707,19.293 L31,21.586 L35.293,17.293 L36.707,18.707 L31.707,23.707 C31.512,23.902 31.256,24 31,24" id="Fill-506" fill="#1485E0"></path>
            <path d="M32,13 C28.141,13 25,16.14 25,20 C25,23.86 28.141,27 32,27 C35.859,27 39,23.86 39,20 C39,16.14 35.859,13 32,13 Z M32,29 C27.037,29 23,24.962 23,20 C23,15.038 27.037,11 32,11 C36.963,11 41,15.038 41,20 C41,24.962 36.963,29 32,29 L32,29 Z" id="Fill-507" fill="#1485E0"></path>
        </g>
    </g>
</svg>