<svg xmlns="http://www.w3.org/2000/svg" width="64" height="64" viewBox="0 0 64 64"><title>SECURITY TOOLS</title><path fill="#fff" fill-rule="evenodd" d="M9.438 21.117h45.563v25.938H9.438z"/><path d="M.585 53.848l25.173-.088 1.679 1.149 9.458-.088 1.59-1.061 25.085.088-3.783 4.85H4.456z" fill="#fff" fill-rule="evenodd"/><g fill="none" fill-rule="evenodd"><path fill="#C4E1F7" d="M18 2l7 3 4-3h6l4 3 7-3v28l-14 9-14-9z"/><path d="M5.414 58h53.172L62 54.586V54H39.414l-1.707 1.707A.996.996 0 0 1 37 56H27a.996.996 0 0 1-.707-.293L24.586 54H2v.586L5.414 58zM59 60H5a.996.996 0 0 1-.707-.293l-4-4A.997.997 0 0 1 0 55v-2a1 1 0 0 1 1-1h24c.266 0 .52.105.707.293L27.414 54h9.172l1.707-1.707A.996.996 0 0 1 39 52h24a1 1 0 0 1 1 1v2c0 .265-.105.52-.293.707l-4 4A.996.996 0 0 1 59 60zM6 50H4V20c0-2.206 1.794-4 4-4h7v2H8c-1.103 0-2 .897-2 2v30M60 50h-2V20c0-1.103-.897-2-2-2h-7v-2h7c2.206 0 4 1.794 4 4v30M27 48h2v-2h-2zM23 48h2v-2h-2zM31 48h2v-2h-2zM35 48h2v-2h-2zM39 48h2v-2h-2z" fill="#1485E0"/><path d="M55 48H43v-2h11V22h-5v-2h6a1 1 0 0 1 1 1v26a1 1 0 0 1-1 1M21 48H9a1 1 0 0 1-1-1V21a1 1 0 0 1 1-1h6v2h-5v24h11v2" fill="#1485E0"/><path d="M19 29.485l13 9.286 13-9.286V3.443l-6.648 2.494a1.005 1.005 0 0 1-1.059-.23L34.586 3h-5.172l-2.707 2.707a1.004 1.004 0 0 1-1.059.23L19 3.443v26.042zM32 41a.999.999 0 0 1-.581-.186l-14-10A1 1 0 0 1 17 30V2a1 1 0 0 1 1.352-.937l7.396 2.774 2.545-2.544A.996.996 0 0 1 29 1h6c.266 0 .52.105.707.293l2.545 2.544 7.396-2.774A1 1 0 0 1 47 2v28a1 1 0 0 1-.419.814l-14 10A.999.999 0 0 1 32 41z" fill="#1485E0"/><path fill="#1485E0" d="M25 9h2V5h-2zM37 9h2V5h-2z"/><circle fill="#FFF" cx="32" cy="19" r="8"/><path d="M31 24a.997.997 0 0 1-.707-.293l-3-3 1.414-1.414L31 21.586l4.293-4.293 1.414 1.414-5 5A.997.997 0 0 1 31 24" fill="#1485E0"/><path d="M32 13c-3.859 0-7 3.14-7 7s3.141 7 7 7 7-3.14 7-7-3.141-7-7-7zm0 16c-4.963 0-9-4.038-9-9s4.037-9 9-9 9 4.038 9 9-4.037 9-9 9z" fill="#1485E0"/></g></svg>