<svg xmlns="http://www.w3.org/2000/svg" width="64" height="64" viewBox="0 0 64 64"><title>MONITORING</title><path class="st1" d="M55.417 27.37c3.024-1.285 1.436-1.512 4.535-.227 2.57 3.25.605 3.326.227 6.652-1.285.605-2.57 1.285-4.687.152-.453-3.327-2.645-3.402-.075-6.577z" fill="#c4e1f7"/><path class="st1" d="M52.922 36.063c2.873-1.512 5.897-2.04 9.374 0 2.57 3.25 2.117 6.577 1.739 9.828H51.183c-.377-3.251-.831-6.577 1.74-9.828z" fill="#c4e1f7"/><path class="st2" d="M53.603 32.057c.226.831.604 1.587 1.133 2.192-2.872.907-5.367 2.721-5.367 7.635 0 .53.076 4.233.151 4.99a.898.898 0 0 0 .908.755h14.514a.898.898 0 0 0 .907-.756c.151-.756.151-4.46.151-4.989 0-4.99-2.495-6.804-5.367-7.635.453-.605.907-1.36 1.134-2.192l.15-1.512v-.53c0-.302 0-.68-.075-.982l-.453-1.512c-.756-1.436-2.117-2.419-3.78-2.419-2.495 0-4.309 2.041-4.309 4.838v.53zm5.14 3.553c.453.075.907.226 1.285.302-.756.605-1.587.907-2.495.907-.907 0-1.738-.302-2.494-.907.378-.151.831-.227 1.285-.302.378.15.756.226 1.134.226.529 0 .907-.075 1.285-.226zm5.367 6.35c0 .68 0 2.797-.075 4.006H51.183c-.075-1.21-.075-3.326-.075-4.006 0-2.722.831-4.31 2.343-5.216 1.134 1.21 2.646 1.89 4.158 1.89 1.588 0 3.1-.68 4.158-1.89 1.512.907 2.343 2.419 2.343 5.216zM57.61 26.916c1.512 0 2.57 1.285 2.57 3.1 0 2.04-1.285 4.082-2.57 4.082s-2.57-2.041-2.57-4.082c0-1.89 1.058-3.1 2.57-3.1z" fill="#1485e0"/><path d="M5.95 30.898a2 2 0 0 1-2-2v-22a2 2 0 0 1 2-2h22a2 2 0 0 1 2 2v22a2 2 0 0 1-2 2z" fill="#c4e1f7" fill-rule="evenodd"/><path d="M5.95 29.898a1 1 0 0 1-1-1h-2a3 3 0 0 0 3 3zm-1-1v-22h-2v22zm0-22a1 1 0 0 1 1-1v-2a3 3 0 0 0-3 3zm1-1h22v-2h-22zm22 0a1 1 0 0 1 1 1h2a3 3 0 0 0-3-3zm1 1v22h2v-22zm0 22a1 1 0 0 1-1 1v2a3 3 0 0 0 3-3zm-1 1h-22v2h22zM7.95 10.898h10v-2h-10zM10.95 14.898h11v-2h-11zM7.95 18.898h10v-2h-10zM7.95 22.898h4v-2h-4zM9.95 26.898h8v-2h-8z" fill="#1485e0"/><g><path class="st1" d="M41.867 32.84c3.024-1.286 1.436-1.513 4.535-.228 2.57 3.251.605 3.327.227 6.653-1.285.604-2.57 1.285-4.687.15-.453-3.325-2.645-3.4-.075-6.576z" fill="#c4e1f7"/><path class="st1" d="M39.372 41.533c2.873-1.512 5.897-2.041 9.374 0 2.57 3.25 2.117 6.576 1.739 9.827H37.633c-.377-3.25-.831-6.577 1.74-9.827z" fill="#c4e1f7"/><path class="st2" d="M40.053 37.526c.226.832.604 1.588 1.133 2.192-2.872.907-5.367 2.722-5.367 7.635 0 .53.076 4.234.151 4.99a.898.898 0 0 0 .908.756h14.514a.898.898 0 0 0 .907-.756c.151-.756.151-4.46.151-4.99 0-4.989-2.495-6.803-5.367-7.635.453-.604.907-1.36 1.134-2.192l.15-1.512v-.529c0-.302 0-.68-.075-.983l-.453-1.512c-.756-1.436-2.117-2.419-3.78-2.419-2.495 0-4.309 2.041-4.309 4.838v.53zm5.14 3.553c.454.076.907.227 1.285.302-.756.605-1.587.908-2.495.908-.907 0-1.738-.303-2.494-.908.378-.15.831-.226 1.285-.302.378.151.756.227 1.134.227.529 0 .907-.076 1.285-.227zm5.367 6.35c0 .68 0 2.797-.075 4.006H37.633c-.075-1.21-.075-3.326-.075-4.006 0-2.721.831-4.309 2.343-5.216 1.134 1.21 2.646 1.89 4.158 1.89 1.588 0 3.1-.68 4.158-1.89 1.512.907 2.343 2.419 2.343 5.216zM44.06 32.386c1.512 0 2.57 1.285 2.57 3.099 0 2.041-1.285 4.082-2.57 4.082s-2.57-2.04-2.57-4.082c0-1.89 1.058-3.1 2.57-3.1z" fill="#1485e0"/></g><g><path class="st1" d="M32.124 45.7c3.024-1.284 1.436-1.511 4.535-.226 2.57 3.25.605 3.326.227 6.652-1.285.605-2.57 1.285-4.687.152-.453-3.327-2.645-3.402-.075-6.577z" fill="#c4e1f7"/><path class="st1" d="M29.63 54.394c2.872-1.512 5.896-2.04 9.373 0 2.57 3.25 2.117 6.577 1.739 9.827H27.89c-.378-3.25-.832-6.576 1.738-9.827z" fill="#c4e1f7"/><path class="st2" d="M30.31 50.388c.226.831.604 1.587 1.133 2.192-2.872.907-5.367 2.721-5.367 7.635 0 .53.076 4.233.151 4.99a.898.898 0 0 0 .908.755h14.514a.898.898 0 0 0 .907-.756c.151-.756.151-4.46.151-4.99 0-4.988-2.495-6.803-5.367-7.634.453-.605.907-1.36 1.134-2.192l.15-1.512v-.53c0-.302 0-.68-.075-.982l-.453-1.512c-.756-1.436-2.117-2.419-3.78-2.419-2.495 0-4.309 2.041-4.309 4.838v.53zm5.14 3.553c.454.075.907.226 1.285.302-.756.605-1.587.907-2.495.907-.907 0-1.738-.302-2.494-.907.378-.151.831-.227 1.285-.302.378.15.756.226 1.134.226.529 0 .907-.075 1.285-.226zm5.367 6.35c0 .68 0 2.797-.075 4.006H27.89c-.076-1.21-.076-3.326-.076-4.006 0-2.722.831-4.31 2.343-5.216 1.134 1.209 2.646 1.89 4.158 1.89 1.588 0 3.1-.681 4.158-1.89 1.512.907 2.343 2.419 2.343 5.216zm-6.5-15.044c1.51 0 2.57 1.285 2.57 3.1 0 2.04-1.286 4.082-2.57 4.082-1.286 0-2.571-2.041-2.571-4.082 0-1.89 1.058-3.1 2.57-3.1z" fill="#1485e0"/></g><g><path class="st1" d="M48.217 42.213c3.024-1.285 1.436-1.512 4.535-.227 2.57 3.25.605 3.326.227 6.652-1.285.605-2.57 1.286-4.687.152-.453-3.327-2.645-3.402-.075-6.577z" fill="#c4e1f7"/><path class="st1" d="M45.722 50.906c2.873-1.512 5.896-2.04 9.374 0 2.57 3.25 2.116 6.577 1.738 9.828h-12.85c-.379-3.251-.832-6.577 1.738-9.828z" fill="#c4e1f7"/><path class="st2" d="M46.402 46.9c.227.831.605 1.587 1.134 2.192-2.872.907-5.367 2.721-5.367 7.635 0 .53.076 4.233.151 4.99a.898.898 0 0 0 .907.755h14.515a.898.898 0 0 0 .907-.756c.151-.756.151-4.46.151-4.989 0-4.99-2.495-6.803-5.367-7.635.453-.605.907-1.36 1.134-2.192l.15-1.512v-.53c0-.302 0-.68-.075-.982l-.453-1.512c-.756-1.436-2.117-2.419-3.78-2.419-2.495 0-4.309 2.041-4.309 4.838v.53zm5.14 3.553c.454.075.908.227 1.286.302-.756.605-1.587.907-2.495.907-.907 0-1.738-.302-2.494-.907.378-.151.831-.227 1.285-.302.378.15.756.227 1.134.227.529 0 .907-.076 1.285-.227zm5.368 6.35c0 .68 0 2.797-.075 4.006H43.983c-.075-1.21-.075-3.326-.075-4.006 0-2.722.831-4.31 2.343-5.216 1.134 1.21 2.646 1.89 4.158 1.89 1.587 0 3.1-.68 4.158-1.89 1.512.907 2.343 2.419 2.343 5.216zM50.41 41.759c1.512 0 2.57 1.285 2.57 3.1 0 2.04-1.285 4.082-2.57 4.082s-2.57-2.041-2.57-4.082c0-1.89 1.058-3.1 2.57-3.1z" fill="#1485e0"/></g><g><path class="st1" d="M3.6 20.211c3.023-1.285 1.436-1.511 4.535-.226 2.57 3.25.605 3.326.227 6.652-1.285.605-2.57 1.285-4.687.151-.454-3.326-2.646-3.402-.076-6.577z" fill="#c4e1f7"/><path class="st1" d="M1.105 28.905c2.872-1.512 5.896-2.041 9.373 0 2.57 3.25 2.117 6.577 1.739 9.827H-.634c-.378-3.25-.832-6.577 1.739-9.827z" fill="#c4e1f7"/><path class="st2" d="M1.785 24.898c.227.832.605 1.588 1.134 2.193-2.873.907-5.367 2.72-5.367 7.635 0 .529.075 4.233.15 4.989a.898.898 0 0 0 .908.756h14.514a.898.898 0 0 0 .907-.756c.151-.756.151-4.46.151-4.99 0-4.989-2.494-6.803-5.367-7.634.454-.605.907-1.361 1.134-2.193l.151-1.512v-.529c0-.302 0-.68-.075-.982l-.454-1.512c-.756-1.437-2.116-2.42-3.78-2.42-2.494 0-4.308 2.042-4.308 4.839v.529zm5.14 3.553c.454.076.908.227 1.285.303-.755.604-1.587.907-2.494.907-.907 0-1.739-.303-2.495-.907.378-.152.832-.227 1.285-.303.378.151.756.227 1.134.227.53 0 .907-.076 1.285-.227zm5.368 6.35c0 .68 0 2.797-.076 4.007H-.634C-.71 37.598-.71 35.482-.71 34.8c0-2.721.832-4.309 2.344-5.216 1.134 1.21 2.646 1.89 4.157 1.89 1.588 0 3.1-.68 4.158-1.89 1.512.907 2.344 2.42 2.344 5.216zM5.79 19.758c1.512 0 2.57 1.285 2.57 3.1 0 2.04-1.284 4.081-2.57 4.081-1.285 0-2.57-2.04-2.57-4.082 0-1.89 1.059-3.1 2.57-3.1z" fill="#1485e0"/></g></svg>