<svg xmlns="http://www.w3.org/2000/svg" xmlns:xlink="http://www.w3.org/1999/xlink" viewBox="0 0 64 64" height="64" width="64"><title>Canvas</title><desc>Created using Figma</desc><g transform="translate(-.424 -.28)"><rect width="54" height="38" x="6.424" y="6.28" ry="0" rx="0" fill="#c4e1f7" fill-rule="evenodd" paint-order="fill markers stroke"/><path d="M43.928 25.28c0 6.2-5.15 11.226-11.503 11.226-6.354 0-11.504-5.025-11.505-11.225-.001-6.2 5.148-11.227 11.502-11.228 6.353-.001 11.505 5.024 11.506 11.224zM35.116 60.28c0 1.436-1.205 2.6-2.692 2.601-1.486 0-2.692-1.164-2.692-2.601s1.205-2.602 2.691-2.602c1.487 0 2.692 1.164 2.693 2.6zM54.924 7.311h5v9.937h-5zM54.924 33.311h5v9.937h-5zM47.455 53.78v-5h9.937v5zM7.455 53.78v-5h9.937v5z" fill="#fff" fill-rule="evenodd" paint-order="fill markers stroke"/><g transform="translate(-211.596 -210.72)" fill="#1485e0"><use height="100%" width="100%" transform="translate(212.02 211)" xlink:href="#a"/><use height="100%" width="100%" transform="translate(229.02 259)" xlink:href="#b"/><use height="100%" width="100%" transform="translate(268.02 228)" xlink:href="#c"/><use height="100%" width="100%" transform="translate(218.02 259)" xlink:href="#d"/><use height="100%" width="100%" transform="translate(258.02 259)" xlink:href="#d"/><use height="100%" width="100%" transform="translate(266.02 217)" xlink:href="#e"/><use height="100%" width="100%" transform="translate(266.02 243)" xlink:href="#e"/><use height="100%" width="100%" transform="translate(243.02 260)" xlink:href="#f"/><use height="100%" width="100%" transform="translate(240.02 267)" xlink:href="#g"/><use height="100%" width="100%" transform="translate(247.02 270)" xlink:href="#h"/><use height="100%" width="100%" transform="translate(212.02 270)" xlink:href="#h"/><use height="100%" width="100%" transform="translate(218.02 217)" xlink:href="#i"/><use height="100%" width="100%" transform="translate(231.02 223)" xlink:href="#j"/><use height="100%" width="100%" transform="translate(235.02 227)" xlink:href="#k"/><use height="100%" width="100%" transform="translate(232.02 235)" xlink:href="#l"/><use height="100%" width="100%" transform="translate(243.02 224)" xlink:href="#m"/><use height="100%" width="100%" transform="translate(252.02 235)" xlink:href="#l"/><use height="100%" width="100%" transform="translate(243.02 244)" xlink:href="#m"/><use height="100%" width="100%" transform="translate(235.31 227.29)" xlink:href="#n"/><use height="100%" width="100%" transform="translate(249.31 227.29)" xlink:href="#o"/><use height="100%" width="100%" transform="translate(249.31 241.29)" xlink:href="#n"/><use height="100%" width="100%" transform="translate(235.31 241.29)" xlink:href="#o"/></g></g><defs><path d="M0 2h4V0H0z" id="l" fill-rule="evenodd"/><path d="M4 2c-1.103 0-2 .897-2 2s.897 2 2 2 2-.897 2-2-.897-2-2-2zm0 6C1.794 8 0 6.206 0 4s1.794-4 4-4 4 1.794 4 4-1.794 4-4 4z" id="g" fill-rule="evenodd"/><path d="M0 4h2V0H0z" id="m" fill-rule="evenodd"/><path d="M0 8h2V0H0z" id="f" fill-rule="evenodd"/><path d="M0 16h2V0H0z" id="c" fill-rule="evenodd"/><path d="M0 2h30V0H0z" id="b" fill-rule="evenodd"/><path d="M13 2C6.935 2 2 6.935 2 13s4.935 11 11 11 11-4.935 11-11S19.065 2 13 2zm0 24C5.832 26 0 20.168 0 13S5.832 0 13 0s13 5.832 13 13-5.832 13-13 13z" id="j" fill-rule="evenodd"/><path d="M61 50h-1v-2h1a1 1 0 0 0 1-1V3a1 1 0 0 0-1-1H3a1 1 0 0 0-1 1v44a1 1 0 0 0 1 1h1v2H3c-1.654 0-3-1.346-3-3V3c0-1.654 1.346-3 3-3h58c1.654 0 3 1.346 3 3v44c0 1.654-1.346 3-3 3" id="a" fill-rule="evenodd"/><path d="M2 4h8V2H2zM0 6h12V0H0z" id="d" fill-rule="evenodd"/><path d="M2 10h2V2H2zm-2 2h6V0H0z" id="e" fill-rule="evenodd"/><path d="M0 2h29V0H0z" id="h" fill-rule="evenodd"/><path d="M46 38H0V0h46v2H2v34h44v2" id="i" fill-rule="evenodd"/><path d="M9 2C5.141 2 2 5.141 2 9s3.141 7 7 7 7-3.141 7-7-3.141-7-7-7zm0 16c-4.963 0-9-4.037-9-9s4.037-9 9-9 9 4.037 9 9-4.037 9-9 9z" id="k" fill-rule="evenodd"/><path d="M2 3.414l-2-2L1.414 0l2 2L2 3.414" id="n" fill-rule="evenodd"/><path d="M1.414 3.414L0 2l2-2 1.414 1.414-2 2" id="o" fill-rule="evenodd"/></defs></svg>