<svg xmlns="http://www.w3.org/2000/svg" xmlns:xlink="http://www.w3.org/1999/xlink" width="64" height="64" viewBox="0 0 64 64"><title>Canvas</title><desc>Created using Figma</desc><path d="M23.757 9.38L32.306 6l7.96 3.823L44 17.198v6.861H20V17z" fill="#c4e1f7" fill-rule="evenodd" paint-order="fill markers stroke"/><rect rx="0" ry="0" y="25.941" x="10" height="36.118" width="44" fill="#c4e1f7" fill-rule="evenodd" paint-order="fill markers stroke"/><rect rx="14" ry="14" y="30" x="18" height="28" width="28" fill="#fff" fill-rule="evenodd" paint-order="fill markers stroke"/><rect ry="0" y="28.841" x="8.997" height="30.313" width="3.258" fill="#fff" fill-rule="evenodd" paint-order="fill markers stroke"/><rect ry="0" y="28.868" x="51.715" height="30.313" width="3.258" fill="#fff" fill-rule="evenodd" paint-order="fill markers stroke"/><g transform="translate(-105.02 -211)" fill="#1485e0"><use xlink:href="#a" transform="translate(119.02 211)" width="100%" height="100%"/><use xlink:href="#b" transform="translate(125.02 217)" width="100%" height="100%"/><use xlink:href="#c" transform="translate(128.61 244.59)" width="100%" height="100%"/><use xlink:href="#d" transform="translate(123.02 241)" width="100%" height="100%"/><use xlink:href="#e" transform="translate(113.02 235)" width="100%" height="100%"/><use xlink:href="#f" transform="translate(113.31 237.29)" width="100%" height="100%"/><use xlink:href="#g" transform="translate(155.02 237.29)" width="100%" height="100%"/><use xlink:href="#h" transform="translate(156.02 244)" width="100%" height="100%"/><use xlink:href="#h" transform="translate(156.02 248)" width="100%" height="100%"/><use xlink:href="#h" transform="translate(156.02 252)" width="100%" height="100%"/><use xlink:href="#h" transform="translate(156.02 256)" width="100%" height="100%"/><use xlink:href="#h" transform="translate(156.02 260)" width="100%" height="100%"/><use xlink:href="#h" transform="translate(156.02 264)" width="100%" height="100%"/><use xlink:href="#h" transform="translate(114.02 244)" width="100%" height="100%"/><use xlink:href="#h" transform="translate(114.02 248)" width="100%" height="100%"/><use xlink:href="#h" transform="translate(114.02 252)" width="100%" height="100%"/><use xlink:href="#h" transform="translate(114.02 256)" width="100%" height="100%"/><use xlink:href="#h" transform="translate(114.02 260)" width="100%" height="100%"/><use xlink:href="#h" transform="translate(114.02 264)" width="100%" height="100%"/></g><defs><path id="a" d="M36 25h-2v-8c0-8.271-6.729-15-15-15h-2C8.729 2 2 8.729 2 17v8H0v-8C0 7.626 7.626 0 17 0h2c9.374 0 17 7.626 17 17v8" fill-rule="evenodd"/><path id="b" d="M24 16h-2v-5c0-4.963-4.038-9-9-9h-2c-4.962 0-9 4.037-9 9v5H0v-5C0 4.935 4.935 0 11 0h2c6.065 0 11 4.935 11 11v5" fill-rule="evenodd"/><path id="c" d="M2.828 9.414L8.414 15 19 4.414l-1.586-1.586-9 9-4-4zm5.586 8.414L0 9.414 4.414 5l4 4 9-9 4.414 4.414z" fill-rule="evenodd"/><path id="d" d="M14 28C6.28 28 0 21.72 0 14S6.28 0 14 0c1.866 0 3.68.361 5.391 1.075l-.77 1.846A11.947 11.947 0 0 0 14 2C7.383 2 2 7.383 2 14s5.383 12 12 12 12-5.383 12-12h2c0 7.72-6.28 14-14 14" fill-rule="evenodd"/><path id="e" d="M4 2c-1.103 0-2 .897-2 2v32c0 1.103.897 2 2 2h40c1.103 0 2-.897 2-2V4c0-1.103-.897-2-2-2zm40 38H4c-2.206 0-4-1.794-4-4V4c0-2.206 1.794-4 4-4h40c2.206 0 4 1.794 4 4v32c0 2.206-1.794 4-4 4z" fill-rule="evenodd"/><path id="f" d="M1.414 35.414L0 34l3.707-3.707V5.121L0 1.414 1.414 0l4.293 4.293v26.828l-4.293 4.293" fill-rule="evenodd"/><path id="g" d="M4.293 35.414L0 31.121V4.293L4.293 0l1.414 1.414L2 5.121v25.172L5.707 34l-1.414 1.414" fill-rule="evenodd"/><path id="h" d="M0 2h4V0H0z" fill-rule="evenodd"/></defs></svg>