<svg xmlns="http://www.w3.org/2000/svg" width="64" height="64" viewBox="0 0 64 64"><title>VIRUS SCANNING</title><path fill="#fff" fill-rule="evenodd" d="M9.616 21.329h44.927v25.492H9.616zM.74 53.555H25.79l1.63 1.247 9.109-.096 1.534-1.15h25.34l-4.15 5.548H5.368zM42.063 4.274l7.534 6.507h-7.534z"/><g fill="none" fill-rule="evenodd"><path d="M5.414 58h53.172L62 54.586V54H39.414l-1.707 1.707A.996.996 0 0 1 37 56H27a.996.996 0 0 1-.707-.293L24.586 54H2v.586L5.414 58zM59 60H5a.996.996 0 0 1-.707-.293l-4-4A.997.997 0 0 1 0 55v-2a1 1 0 0 1 1-1h24c.266 0 .52.105.707.293L27.414 54h9.172l1.707-1.707A.996.996 0 0 1 39 52h24a1 1 0 0 1 1 1v2c0 .265-.105.52-.293.707l-4 4A.996.996 0 0 1 59 60zM6 50H4V20c0-2.206 1.794-4 4-4h7v2H8c-1.103 0-2 .897-2 2v30M60 50h-2V20c0-1.103-.897-2-2-2h-7v-2h7c2.206 0 4 1.794 4 4v30M27 48h2v-2h-2zM23 48h2v-2h-2zM31 48h2v-2h-2zM35 48h2v-2h-2zM39 48h2v-2h-2z" fill="#1485E0"/><path d="M55 48H43v-2h11V22h-5v-2h6a1 1 0 0 1 1 1v26a1 1 0 0 1-1 1M21 48H9a1 1 0 0 1-1-1V21a1 1 0 0 1 1-1h6v2h-5v24h11v2" fill="#1485E0"/><path fill="#1485E0" d="M51 44h-2V11.414L41.586 4H15v40h-2V2h29.414L51 10.586V38"/><path fill="#C4E1F7" d="M15 4h28v6h6v34H15z"/><circle stroke="#979797" fill="#FFF" cx="32" cy="19" r="3"/><path d="M32 23c-1.573 0-4 2.577-4 6s2.427 6 4 6 4-2.577 4-6-2.427-6-4-6zm0 14c-2.718 0-6-3.568-6-8s3.282-8 6-8 6 3.568 6 8-3.282 8-6 8z" fill="#1485E0"/><path fill="#1485E0" d="M22 30h5v-2h-5zM28 26h-3.414l-3.293-3.293 1.414-1.414L25.414 24H28v2M22.707 36.707l-1.414-1.414L24.586 32H28v2h-2.586l-2.707 2.707M19 7h1V6h-1zM23 7h1V6h-1zM27 7h1V6h-1zM19 10h1V9h-1zM22 10h1V9h-1zM25 10h1V9h-1zM19 13h18v-1H19zM50 12h-9V3h2v7h7v2M32 17c-1.103 0-2 .897-2 2s.897 2 2 2 2-.897 2-2-.897-2-2-2zm0 6c-2.206 0-4-1.794-4-4s1.794-4 4-4 4 1.794 4 4-1.794 4-4 4zM37 30h5v-2h-5zM39.414 26H36v-2h2.586l2.707-2.707 1.414 1.414L39.414 26M41.293 36.707L38.586 34H36v-2h3.414l3.293 3.293-1.414 1.414"/><path fill="#1485E0" d="M31 36h2V22h-2z"/></g></svg>