<svg height="90mm" stroke-linejoin="round" stroke-width="28.222" viewBox="0 0 16000 9000" width="160mm" xmlns="http://www.w3.org/2000/svg"><path d="M8000 8999H0V0h15999v8999z" fill="#fff"/><g fill="none"><path d="M6436 7191H1767V2337h9338v4854zM1767 7340v-150M1767 7340v-150M3634 7340v-150M3634 7340v-150M5502 7340v-150M5502 7340v-150M7370 7340v-150M7370 7340v-150M9237 7340v-150M9237 7340v-150M11105 7340v-150M11105 7340v-150M1767 7190h9338M1617 7190h150M1617 7190h150M1617 6704h150M1617 6704h150M1617 6219h150M1617 6219h150M1617 5733h150M1617 5733h150M1617 5248h150M1617 5248h150M1617 4762h150M1617 4762h150M1617 4278h150M1617 4278h150M1617 3792h150M1617 3792h150M1617 3307h150M1617 3307h150M1617 2821h150M1617 2821h150M1617 2336h150M1617 2336h150M1767 7190V2336" stroke="#b3b3b3"/><path d="M1767 6947h9338" stroke="#004586" stroke-width="80"/><path d="M1767 6947l93-12 93-11 94-12 93-11 93-12 94-12 93-11 94-12 93-12 93-12 94-12 93-12 94-12 93-13 93-12 94-13 93-13 94-13 93-13 93-13 94-14 93-13 93-14 94-14 93-13 94-14 93-14 93-13 94-14 93-13 94-13 93-12 93-12 94-12 93-11 94-10 93-11 93-9 94-9 93-8 93-7 94-7 93-6 94-6 93-6 93-7 94-6 93-7 94-8 93-8 93-10 94-11 93-12 94-14 93-16 93-18 94-19 93-23 94-24 93-27 93-31 94-33 93-36 93-39 94-42 93-45 93-49 93-52 93-54 94-59 93-61 94-65 93-69 93-72 94-75 93-79 94-83 93-86 93-90 94-94 93-98 93-101 94-105 93-108 94-110 93-114 93-117 94-119 93-122 94-123 93-126 93-127 94-129 93-130 94-131 93-132 93-133 94-134 93-134 94-134" stroke="#ff420e" stroke-width="80"/></g><text><tspan font-family="Liberation Sans, sans-serif" font-size="353" font-weight="400"><tspan x="1674" y="7758"><tspan>2</tspan></tspan></tspan></text><text><tspan font-family="Liberation Sans, sans-serif" font-size="353" font-weight="400"><tspan x="3541" y="7758"><tspan>3</tspan></tspan></tspan></text><text><tspan font-family="Liberation Sans, sans-serif" font-size="353" font-weight="400"><tspan x="5409" y="7758"><tspan>4</tspan></tspan></tspan></text><text><tspan font-family="Liberation Sans, sans-serif" font-size="353" font-weight="400"><tspan x="7277" y="7758"><tspan>5</tspan></tspan></tspan></text><text><tspan font-family="Liberation Sans, sans-serif" font-size="353" font-weight="400"><tspan x="9053" y="7758"><tspan>10</tspan></tspan></tspan></text><text><tspan font-family="Liberation Sans, sans-serif" font-size="353" font-weight="400"><tspan x="10921" y="7758"><tspan>20</tspan></tspan></tspan></text><text><tspan font-family="Liberation Sans, sans-serif" font-size="353" font-weight="400"><tspan x="1332" y="7311"><tspan>0</tspan></tspan></tspan></text><text><tspan font-family="Liberation Sans, sans-serif" font-size="353" font-weight="400"><tspan x="1332" y="6825"><tspan>2</tspan></tspan></tspan></text><text><tspan font-family="Liberation Sans, sans-serif" font-size="353" font-weight="400"><tspan x="1332" y="6340"><tspan>4</tspan></tspan></tspan></text><text><tspan font-family="Liberation Sans, sans-serif" font-size="353" font-weight="400"><tspan x="1332" y="5854"><tspan>6</tspan></tspan></tspan></text><text><tspan font-family="Liberation Sans, sans-serif" font-size="353" font-weight="400"><tspan x="1332" y="5369"><tspan>8</tspan></tspan></tspan></text><text><tspan font-family="Liberation Sans, sans-serif" font-size="353" font-weight="400"><tspan x="1147" y="4883"><tspan>10</tspan></tspan></tspan></text><text><tspan font-family="Liberation Sans, sans-serif" font-size="353" font-weight="400"><tspan x="1147" y="4398"><tspan>12</tspan></tspan></tspan></text><text><tspan font-family="Liberation Sans, sans-serif" font-size="353" font-weight="400"><tspan x="1147" y="3912"><tspan>14</tspan></tspan></tspan></text><text><tspan font-family="Liberation Sans, sans-serif" font-size="353" font-weight="400"><tspan x="1147" y="3427"><tspan>16</tspan></tspan></tspan></text><text><tspan font-family="Liberation Sans, sans-serif" font-size="353" font-weight="400"><tspan x="1147" y="2941"><tspan>18</tspan></tspan></tspan></text><text><tspan font-family="Liberation Sans, sans-serif" font-size="353" font-weight="400"><tspan x="1147" y="2456"><tspan>20</tspan></tspan></tspan></text><text><tspan font-family="Liberation Sans, sans-serif" font-size="459" font-weight="400"><tspan x="5685" y="851"><tspan>Streams per participant</tspan></tspan></tspan></text><text><tspan font-family="Liberation Sans, sans-serif" font-size="388" font-weight="400"><tspan x="6783" y="1761"><tspan>Using an SFU</tspan></tspan></tspan></text><path d="M11913 4250h800" fill="none" stroke="#004586" stroke-width="80"/><path d="M11913 4747h800" fill="none" stroke="#ff420e" stroke-width="80"/><text><tspan font-family="Liberation Sans, sans-serif" font-size="353" font-weight="400"><tspan x="12813" y="4370"><tspan>streams to send</tspan></tspan></tspan></text><text><tspan font-family="Liberation Sans, sans-serif" font-size="353" font-weight="400"><tspan x="12813" y="4867"><tspan>streams to receive</tspan></tspan></tspan></text><text><tspan font-family="Liberation Sans, sans-serif" font-size="318" font-weight="400"><tspan x="5557" y="8405"><tspan>Participants</tspan></tspan></tspan></text><text transform="rotate(-90 837 5583)"><tspan font-family="Liberation Sans, sans-serif" font-size="318" font-weight="400"><tspan x="837" y="5583"><tspan>Streams</tspan></tspan></tspan></text></svg>