<?xml version="1.0" encoding="UTF-8"?>
<svg width="64px" height="64px" viewBox="0 0 64 64" version="1.1" xmlns="http://www.w3.org/2000/svg" xmlns:xlink="http://www.w3.org/1999/xlink">
    <!-- Generator: Sketch 42 (36781) - http://www.bohemiancoding.com/sketch -->
    <title>PERMISSION AND FILE ACESS</title>
    <desc>Created with Sketch.</desc>
    <defs></defs>
    <g id="STYLEGUIDE" stroke="none" stroke-width="1" fill="none" fill-rule="evenodd">
        <g id="PERMISSION-AND-FILE-ACESS">
            <polygon id="Rectangle" fill="#C4E1F7" points="10 2 12 3 12 44 32 59 32 62 10 46"></polygon>
            <polygon id="Rectangle-Copy" fill="#C4E1F7" transform="translate(43.000000, 32.000000) scale(-1, 1) translate(-43.000000, -32.000000) " points="32 2 34 3 34 44 54 59 54 62 32 46"></polygon>
            <path d="M10,45.4960041 L32,61.7570041 L54,45.4960041 L54,2.61800411 L45.447,6.89500411 C44.977,7.12800411 44.411,6.96200411 44.143,6.51500411 L41.434,2.00000411 L22.566,2.00000411 L19.857,6.51500411 C19.59,6.96300411 19.023,7.12900411 18.553,6.89500411 L10,2.61800411 L10,45.4960041 Z M32,64.0000041 C31.791,64.0000041 31.582,63.9350041 31.405,63.8040041 L8.405,46.8040041 C8.15,46.6150041 8,46.3170041 8,46.0000041 L8,1.00000411 C8,0.653004109 8.18,0.332004109 8.475,0.149004109 C8.77,-0.0329958913 9.137,-0.0489958913 9.447,0.105004109 L18.619,4.69100411 L21.143,0.485004109 C21.323,0.185004109 21.648,4.10867901e-06 22,4.10867901e-06 L42,4.10867901e-06 C42.352,4.10867901e-06 42.677,0.185004109 42.857,0.485004109 L45.381,4.69100411 L54.553,0.105004109 C54.862,-0.0489958913 55.23,-0.0329958913 55.525,0.149004109 C55.82,0.332004109 56,0.653004109 56,1.00000411 L56,46.0000041 C56,46.3170041 55.85,46.6150041 55.595,46.8040041 L32.595,63.8040041 C32.418,63.9350041 32.209,64.0000041 32,64.0000041 L32,64.0000041 Z" id="Fill-788" fill="#1485E0"></path>
            <path d="M32,59.0000041 C31.792,59.0000041 31.583,58.9350041 31.407,58.8050041 L12.407,44.8050041 C12.151,44.6160041 12,44.3170041 12,44.0000041 L12,3.00000411 L14,3.00000411 L14,43.4950041 L32,56.7580041 L50,43.4950041 L50,3.00000411 L52,3.00000411 L52,44.0000041 C52,44.3170041 51.849,44.6160041 51.593,44.8050041 L32.593,58.8050041 C32.417,58.9350041 32.208,59.0000041 32,59.0000041" id="Fill-789" fill="#1485E0"></path>
            <polygon id="Fill-790" fill="#1485E0" points="18 11.0000041 20 11.0000041 20 6.00000411 18 6.00000411"></polygon>
            <polygon id="Fill-791" fill="#1485E0" points="44 11.0000041 46 11.0000041 46 6.00000411 44 6.00000411"></polygon>
            <path d="M32,13.0000041 C28.691,13.0000041 26,15.6910041 26,19.0000041 C26,22.3090041 28.691,25.0000041 32,25.0000041 C35.309,25.0000041 38,22.3090041 38,19.0000041 C38,15.6910041 35.309,13.0000041 32,13.0000041 Z M32,27.0000041 C27.589,27.0000041 24,23.4110041 24,19.0000041 C24,14.5890041 27.589,11.0000041 32,11.0000041 C36.411,11.0000041 40,14.5890041 40,19.0000041 C40,23.4110041 36.411,27.0000041 32,27.0000041 L32,27.0000041 Z" id="Fill-792" fill="#1485E0"></path>
            <polyline id="Fill-793" fill="#1485E0" points="37 36.0000041 33 36.0000041 33 26.0000041 35 26.0000041 35 34.0000041 37 34.0000041 37 36.0000041"></polyline>
            <polyline id="Fill-794" fill="#1485E0" points="35 47.0000041 29 47.0000041 29 26.0000041 31 26.0000041 31 45.0000041 33 45.0000041 33 42.0000041 35 42.0000041 35 40.0000041 33 40.0000041 33 38.0000041 37 38.0000041 37 44.0000041 35 44.0000041 35 47.0000041"></polyline>
            <polygon id="Fill-795" fill="#1485E0" points="30 17.0000041 34 17.0000041 34 15.0000041 30 15.0000041"></polygon>
            <polygon id="Fill-796" fill="#1485E0" points="18 15.0000041 20 15.0000041 20 13.0000041 18 13.0000041"></polygon>
            <polygon id="Fill-797" fill="#1485E0" points="18 19.0000041 20 19.0000041 20 17.0000041 18 17.0000041"></polygon>
            <polygon id="Fill-798" fill="#1485E0" points="18 23.0000041 20 23.0000041 20 21.0000041 18 21.0000041"></polygon>
            <polygon id="Fill-799" fill="#1485E0" points="44 15.0000041 46 15.0000041 46 13.0000041 44 13.0000041"></polygon>
            <polygon id="Fill-800" fill="#1485E0" points="44 19.0000041 46 19.0000041 46 17.0000041 44 17.0000041"></polygon>
            <polygon id="Fill-801" fill="#1485E0" points="44 23.0000041 46 23.0000041 46 21.0000041 44 21.0000041"></polygon>
        </g>
    </g>
</svg>