<svg xmlns="http://www.w3.org/2000/svg" xmlns:svg="http://www.w3.org/2000/svg" xmlns:xlink="http://www.w3.org/1999/xlink" id="Layer_1" width="1920" height="1080" x="0" y="0" enable-background="new 384.5 42.5 1082 1037.5" version="1.1" viewBox="384.5 42.5 1920 1080" xml:space="preserve"><metadata id="metadata695"/><defs id="defs693"><defs id="defs223"><rect id="SVGID_45_" width="1920" height="1080" x="0" y="0"/></defs><clipPath id="SVGID_46_"><use id="use225" width="100%" height="100%" x="0" y="0" overflow="visible" xlink:href="#SVGID_45_"/></clipPath><defs id="defs213"><rect id="SVGID_43_" width="1920" height="1080" x="0" y="0"/></defs><clipPath id="SVGID_44_"><use id="use215" width="100%" height="100%" x="0" y="0" overflow="visible" xlink:href="#SVGID_43_"/></clipPath><defs id="defs203"><rect id="SVGID_41_" width="1920" height="1080" x="0" y="0"/></defs><clipPath id="SVGID_42_"><use id="use205" width="100%" height="100%" x="0" y="0" overflow="visible" xlink:href="#SVGID_41_"/></clipPath><defs id="defs193"><rect id="SVGID_39_" width="1920" height="1080" x="0" y="0"/></defs><clipPath id="SVGID_40_"><use id="use195" width="100%" height="100%" x="0" y="0" overflow="visible" xlink:href="#SVGID_39_"/></clipPath><defs id="defs183"><rect id="SVGID_37_" width="1920" height="1080" x="0" y="0"/></defs><clipPath id="SVGID_38_"><use id="use185" width="100%" height="100%" x="0" y="0" overflow="visible" xlink:href="#SVGID_37_"/></clipPath><defs id="defs173"><rect id="SVGID_35_" width="1920" height="1080" x="0" y="0"/></defs><clipPath id="SVGID_36_"><use id="use175" width="100%" height="100%" x="0" y="0" overflow="visible" xlink:href="#SVGID_35_"/></clipPath><defs id="defs163"><rect id="SVGID_33_" width="1920" height="1080" x="0" y="0"/></defs><clipPath id="SVGID_34_"><use id="use165" width="100%" height="100%" x="0" y="0" overflow="visible" xlink:href="#SVGID_33_"/></clipPath><defs id="defs153"><rect id="SVGID_31_" width="1920" height="1080" x="0" y="0"/></defs><clipPath id="SVGID_32_"><use id="use155" width="100%" height="100%" x="0" y="0" overflow="visible" xlink:href="#SVGID_31_"/></clipPath><defs id="defs143"><rect id="SVGID_29_" width="1920" height="1080" x="0" y="0"/></defs><clipPath id="SVGID_30_"><use id="use145" width="100%" height="100%" x="0" y="0" overflow="visible" xlink:href="#SVGID_29_"/></clipPath><defs id="defs133"><rect id="SVGID_27_" width="1920" height="1080" x="0" y="0"/></defs><clipPath id="SVGID_28_"><use id="use135" width="100%" height="100%" x="0" y="0" overflow="visible" xlink:href="#SVGID_27_"/></clipPath><defs id="defs123"><rect id="SVGID_25_" width="1920" height="1080" x="0" y="0"/></defs><clipPath id="SVGID_26_"><use id="use125" width="100%" height="100%" x="0" y="0" overflow="visible" xlink:href="#SVGID_25_"/></clipPath><defs id="defs113"><rect id="SVGID_23_" width="1920" height="1080" x="0" y="0"/></defs><clipPath id="SVGID_24_"><use id="use115" width="100%" height="100%" x="0" y="0" overflow="visible" xlink:href="#SVGID_23_"/></clipPath><defs id="defs103"><rect id="SVGID_21_" width="1920" height="1080" x="0" y="0"/></defs><clipPath id="SVGID_22_"><use id="use105" width="100%" height="100%" x="0" y="0" overflow="visible" xlink:href="#SVGID_21_"/></clipPath><defs id="defs93"><rect id="SVGID_19_" width="1920" height="1080" x="0" y="0"/></defs><clipPath id="SVGID_20_"><use id="use95" width="100%" height="100%" x="0" y="0" overflow="visible" xlink:href="#SVGID_19_"/></clipPath><defs id="defs83"><rect id="SVGID_17_" width="1920" height="1080" x="0" y="0"/></defs><clipPath id="SVGID_18_"><use id="use85" width="100%" height="100%" x="0" y="0" overflow="visible" xlink:href="#SVGID_17_"/></clipPath><defs id="defs73"><rect id="SVGID_15_" width="1920" height="1080" x="0" y="0"/></defs><clipPath id="SVGID_16_"><use id="use75" width="100%" height="100%" x="0" y="0" overflow="visible" xlink:href="#SVGID_15_"/></clipPath><defs id="defs63"><rect id="SVGID_13_" width="1920" height="1080" x="0" y="0"/></defs><clipPath id="SVGID_14_"><use id="use65" width="100%" height="100%" x="0" y="0" overflow="visible" xlink:href="#SVGID_13_"/></clipPath><defs id="defs53"><rect id="SVGID_11_" width="1920" height="1080" x="0" y="0"/></defs><clipPath id="SVGID_12_"><use id="use55" width="100%" height="100%" x="0" y="0" overflow="visible" xlink:href="#SVGID_11_"/></clipPath><defs id="defs43"><rect id="SVGID_9_" width="1920" height="1080" x="0" y="0"/></defs><clipPath id="SVGID_10_"><use id="use45" width="100%" height="100%" x="0" y="0" overflow="visible" xlink:href="#SVGID_9_"/></clipPath><defs id="defs33"><rect id="SVGID_7_" width="1920" height="1080" x="0" y="0"/></defs><clipPath id="SVGID_8_"><use id="use35" width="100%" height="100%" x="0" y="0" overflow="visible" xlink:href="#SVGID_7_"/></clipPath><defs id="defs23"><rect id="SVGID_5_" width="1920" height="1080" x="0" y="0"/></defs><clipPath id="SVGID_6_"><use id="use25" width="100%" height="100%" x="0" y="0" overflow="visible" xlink:href="#SVGID_5_"/></clipPath><defs id="defs13"><rect id="SVGID_3_" width="1920" height="1080" x="0" y="0"/></defs><clipPath id="SVGID_4_"><use id="use15" width="100%" height="100%" x="0" y="0" overflow="visible" xlink:href="#SVGID_3_"/></clipPath><defs id="defs3"><rect id="SVGID_1_" width="1920" height="1080" x="0" y="0"/></defs><clipPath id="SVGID_2_"><use id="use5" width="100%" height="100%" x="0" y="0" overflow="visible" xlink:href="#SVGID_1_"/></clipPath><defs id="defs385"><rect id="SVGID_77_" width="1920" height="1080" x="0" y="0"/></defs><clipPath id="SVGID_78_"><use id="use387" width="100%" height="100%" x="0" y="0" overflow="visible" xlink:href="#SVGID_77_"/></clipPath><defs id="defs375"><rect id="SVGID_75_" width="1920" height="1080" x="0" y="0"/></defs><clipPath id="SVGID_76_"><use id="use377" width="100%" height="100%" x="0" y="0" overflow="visible" xlink:href="#SVGID_75_"/></clipPath><defs id="defs365"><rect id="SVGID_73_" width="1920" height="1080" x="0" y="0"/></defs><clipPath id="SVGID_74_"><use id="use367" width="100%" height="100%" x="0" y="0" overflow="visible" xlink:href="#SVGID_73_"/></clipPath><defs id="defs355"><rect id="SVGID_71_" width="1920" height="1080" x="0" y="0"/></defs><clipPath id="SVGID_72_"><use id="use357" width="100%" height="100%" x="0" y="0" overflow="visible" xlink:href="#SVGID_71_"/></clipPath><defs id="defs345"><rect id="SVGID_69_" width="1920" height="1080" x="0" y="0"/></defs><clipPath id="SVGID_70_"><use id="use347" width="100%" height="100%" x="0" y="0" overflow="visible" xlink:href="#SVGID_69_"/></clipPath><defs id="defs335"><rect id="SVGID_67_" width="1920" height="1080" x="0" y="0"/></defs><clipPath id="SVGID_68_"><use id="use337" width="100%" height="100%" x="0" y="0" overflow="visible" xlink:href="#SVGID_67_"/></clipPath><defs id="defs325"><rect id="SVGID_65_" width="1920" height="1080" x="0" y="0"/></defs><clipPath id="SVGID_66_"><use id="use327" width="100%" height="100%" x="0" y="0" overflow="visible" xlink:href="#SVGID_65_"/></clipPath><defs id="defs315"><rect id="SVGID_63_" width="1920" height="1080" x="0" y="0"/></defs><clipPath id="SVGID_64_"><use id="use317" width="100%" height="100%" x="0" y="0" overflow="visible" xlink:href="#SVGID_63_"/></clipPath><defs id="defs305"><rect id="SVGID_61_" width="1920" height="1080" x="0" y="0"/></defs><clipPath id="SVGID_62_"><use id="use307" width="100%" height="100%" x="0" y="0" overflow="visible" xlink:href="#SVGID_61_"/></clipPath><defs id="defs295"><rect id="SVGID_59_" width="1920" height="1080" x="0" y="0"/></defs><clipPath id="SVGID_60_"><use id="use297" width="100%" height="100%" x="0" y="0" overflow="visible" xlink:href="#SVGID_59_"/></clipPath><defs id="defs285"><rect id="SVGID_57_" width="1920" height="1080" x="0" y="0"/></defs><clipPath id="SVGID_58_"><use id="use287" width="100%" height="100%" x="0" y="0" overflow="visible" xlink:href="#SVGID_57_"/></clipPath><defs id="defs275"><rect id="SVGID_55_" width="1920" height="1080" x="0" y="0"/></defs><clipPath id="SVGID_56_"><use id="use277" width="100%" height="100%" x="0" y="0" overflow="visible" xlink:href="#SVGID_55_"/></clipPath><defs id="defs265"><rect id="SVGID_53_" width="1920" height="1080" x="0" y="0"/></defs><clipPath id="SVGID_54_"><use id="use267" width="100%" height="100%" x="0" y="0" overflow="visible" xlink:href="#SVGID_53_"/></clipPath><defs id="defs255"><rect id="SVGID_51_" width="1920" height="1080" x="0" y="0"/></defs><clipPath id="SVGID_52_"><use id="use257" width="100%" height="100%" x="0" y="0" overflow="visible" xlink:href="#SVGID_51_"/></clipPath><defs id="defs245"><rect id="SVGID_49_" width="1920" height="1080" x="0" y="0"/></defs><clipPath id="SVGID_50_"><use id="use247" width="100%" height="100%" x="0" y="0" overflow="visible" xlink:href="#SVGID_49_"/></clipPath><defs id="defs235"><rect id="SVGID_47_" width="1920" height="1080" x="0" y="0"/></defs><clipPath id="SVGID_48_"><use id="use237" width="100%" height="100%" x="0" y="0" overflow="visible" xlink:href="#SVGID_47_"/></clipPath><defs id="defs477"><rect id="SVGID_91_" width="1920" height="1080" x="0" y="0"/></defs><clipPath id="SVGID_92_"><use id="use479" width="100%" height="100%" x="0" y="0" overflow="visible" xlink:href="#SVGID_91_"/></clipPath><defs id="defs467"><rect id="SVGID_89_" width="1920" height="1080" x="0" y="0"/></defs><clipPath id="SVGID_90_"><use id="use469" width="100%" height="100%" x="0" y="0" overflow="visible" xlink:href="#SVGID_89_"/></clipPath><defs id="defs457"><rect id="SVGID_87_" width="1920" height="1080" x="0" y="0"/></defs><clipPath id="SVGID_88_"><use id="use459" width="100%" height="100%" x="0" y="0" overflow="visible" xlink:href="#SVGID_87_"/></clipPath><defs id="defs447"><rect id="SVGID_85_" width="1920" height="1080" x="0" y="0"/></defs><clipPath id="SVGID_86_"><use id="use449" width="100%" height="100%" x="0" y="0" overflow="visible" xlink:href="#SVGID_85_"/></clipPath><defs id="defs437"><rect id="SVGID_83_" width="1920" height="1080" x="0" y="0"/></defs><clipPath id="SVGID_84_"><use id="use439" width="100%" height="100%" x="0" y="0" overflow="visible" xlink:href="#SVGID_83_"/></clipPath><defs id="defs427"><rect id="SVGID_81_" width="1920" height="1080" x="0" y="0"/></defs><clipPath id="SVGID_82_"><use id="use429" width="100%" height="100%" x="0" y="0" overflow="visible" xlink:href="#SVGID_81_"/></clipPath><defs id="defs417"><rect id="SVGID_79_" width="1920" height="1080" x="0" y="0"/></defs><clipPath id="SVGID_80_"><use id="use419" width="100%" height="100%" x="0" y="0" overflow="visible" xlink:href="#SVGID_79_"/></clipPath><defs id="defs679"><rect id="SVGID_129_" width="1920" height="1080" x="0" y="0"/></defs><clipPath id="SVGID_130_"><use id="use681" width="100%" height="100%" x="0" y="0" overflow="visible" xlink:href="#SVGID_129_"/></clipPath><defs id="defs669"><rect id="SVGID_127_" width="1920" height="1080" x="0" y="0"/></defs><clipPath id="SVGID_128_"><use id="use671" width="100%" height="100%" x="0" y="0" overflow="visible" xlink:href="#SVGID_127_"/></clipPath><defs id="defs659"><rect id="SVGID_125_" width="1920" height="1080" x="0" y="0"/></defs><clipPath id="SVGID_126_"><use id="use661" width="100%" height="100%" x="0" y="0" overflow="visible" xlink:href="#SVGID_125_"/></clipPath><defs id="defs649"><rect id="SVGID_123_" width="1920" height="1080" x="0" y="0"/></defs><clipPath id="SVGID_124_"><use id="use651" width="100%" height="100%" x="0" y="0" overflow="visible" xlink:href="#SVGID_123_"/></clipPath><defs id="defs639"><rect id="SVGID_121_" width="1920" height="1080" x="0" y="0"/></defs><clipPath id="SVGID_122_"><use id="use641" width="100%" height="100%" x="0" y="0" overflow="visible" xlink:href="#SVGID_121_"/></clipPath><defs id="defs629"><rect id="SVGID_119_" width="1920" height="1080" x="0" y="0"/></defs><clipPath id="SVGID_120_"><use id="use631" width="100%" height="100%" x="0" y="0" overflow="visible" xlink:href="#SVGID_119_"/></clipPath><defs id="defs619"><rect id="SVGID_117_" width="1920" height="1080" x="0" y="0"/></defs><clipPath id="SVGID_118_"><use id="use621" width="100%" height="100%" x="0" y="0" overflow="visible" xlink:href="#SVGID_117_"/></clipPath><defs id="defs609"><rect id="SVGID_115_" width="1920" height="1080" x="0" y="0"/></defs><clipPath id="SVGID_116_"><use id="use611" width="100%" height="100%" x="0" y="0" overflow="visible" xlink:href="#SVGID_115_"/></clipPath><defs id="defs599"><rect id="SVGID_113_" width="1920" height="1080" x="0" y="0"/></defs><clipPath id="SVGID_114_"><use id="use601" width="100%" height="100%" x="0" y="0" overflow="visible" xlink:href="#SVGID_113_"/></clipPath><defs id="defs589"><rect id="SVGID_111_" width="1920" height="1080" x="0" y="0"/></defs><clipPath id="SVGID_112_"><use id="use591" width="100%" height="100%" x="0" y="0" overflow="visible" xlink:href="#SVGID_111_"/></clipPath><defs id="defs579"><rect id="SVGID_109_" width="1920" height="1080" x="0" y="0"/></defs><clipPath id="SVGID_110_"><use id="use581" width="100%" height="100%" x="0" y="0" overflow="visible" xlink:href="#SVGID_109_"/></clipPath><defs id="defs569"><rect id="SVGID_107_" width="1920" height="1080" x="0" y="0"/></defs><clipPath id="SVGID_108_"><use id="use571" width="100%" height="100%" x="0" y="0" overflow="visible" xlink:href="#SVGID_107_"/></clipPath><defs id="defs559"><rect id="SVGID_105_" width="1920" height="1080" x="0" y="0"/></defs><clipPath id="SVGID_106_"><use id="use561" width="100%" height="100%" x="0" y="0" overflow="visible" xlink:href="#SVGID_105_"/></clipPath><defs id="defs549"><rect id="SVGID_103_" width="1920" height="1080" x="0" y="0"/></defs><clipPath id="SVGID_104_"><use id="use551" width="100%" height="100%" x="0" y="0" overflow="visible" xlink:href="#SVGID_103_"/></clipPath><defs id="defs539"><rect id="SVGID_101_" width="1920" height="1080" x="0" y="0"/></defs><clipPath id="SVGID_102_"><use id="use541" width="100%" height="100%" x="0" y="0" overflow="visible" xlink:href="#SVGID_101_"/></clipPath><defs id="defs529"><rect id="SVGID_99_" width="1920" height="1080" x="0" y="0"/></defs><clipPath id="SVGID_100_"><use id="use531" width="100%" height="100%" x="0" y="0" overflow="visible" xlink:href="#SVGID_99_"/></clipPath><defs id="defs519"><rect id="SVGID_97_" width="1920" height="1080" x="0" y="0"/></defs><clipPath id="SVGID_98_"><use id="use521" width="100%" height="100%" x="0" y="0" overflow="visible" xlink:href="#SVGID_97_"/></clipPath><defs id="defs509"><rect id="SVGID_95_" width="1920" height="1080" x="0" y="0"/></defs><clipPath id="SVGID_96_"><use id="use511" width="100%" height="100%" x="0" y="0" overflow="visible" xlink:href="#SVGID_95_"/></clipPath><defs id="defs499"><rect id="SVGID_93_" width="1920" height="1080" x="0" y="0"/></defs><clipPath id="SVGID_94_"><use id="use501" width="100%" height="100%" x="0" y="0" overflow="visible" xlink:href="#SVGID_93_"/></clipPath><clipPath id="SVGID_10_-1"><use id="use45-2" width="100%" height="100%" x="0" y="0" overflow="visible" xlink:href="#SVGID_9_"/></clipPath><clipPath id="SVGID_6_-8"><use id="use25-9" width="100%" height="100%" x="0" y="0" overflow="visible" xlink:href="#SVGID_5_"/></clipPath><clipPath id="SVGID_2_-3"><use id="use5-6" width="100%" height="100%" x="0" y="0" overflow="visible" xlink:href="#SVGID_1_"/></clipPath><clipPath id="SVGID_20_-0"><use id="use95-3" width="100%" height="100%" x="0" y="0" overflow="visible" xlink:href="#SVGID_19_"/></clipPath><clipPath id="SVGID_20_-1"><use id="use95-0" width="100%" height="100%" x="0" y="0" overflow="visible" xlink:href="#SVGID_19_"/></clipPath></defs><ellipse id="path4876" cx="1352.038" cy="702.64" fill="#fff" fill-opacity="1" fill-rule="evenodd" stroke="none" stroke-dasharray="none" stroke-miterlimit="4" stroke-width="9.244" opacity="1" paint-order="fill markers stroke" rx="274.576" ry="275.72"/><path id="path98-7" fill="#fff" d="m 798.875,743.025 c 0,1.6583 0.31494,5.17579 1.60517,4.34096 1.43708,-0.92986 9.00833,-1.54817 9.94806,0.20063 0.76958,1.43219 1.78477,-2.78649 1.78477,-4.54159 0,-3.683 -2.986,-6.669 -6.669,-6.669 -3.683,0 -6.669,2.988 -6.669,6.669" clip-path="url(#SVGID_20_-1)" transform="matrix(5.4603033,0,0,5.4603033,-2691.4722,-3586.1885)"/><path id="path98-4" fill="#fff" d="m 798.875,743.025 c 0,3.685 2.985,6.669 6.669,6.669 3.683,0 6.669,-2.984 6.669,-6.669 0,-3.683 -2.986,-6.669 -6.669,-6.669 -3.683,0 -6.669,2.988 -6.669,6.669" clip-path="url(#SVGID_20_-0)" transform="matrix(5.8467373,0,0,5.7713687,-3752.4092,-3657.3188)"/><path id="path8-8" fill="#fff" d="m 866.537,684.262 c 0,3.684 2.986,6.669 6.67,6.669 3.683,0 6.669,-2.985 6.669,-6.669 0,-3.685 -2.986,-6.669 -6.669,-6.669 -3.683,0.001 -6.67,2.985 -6.67,6.669" clip-path="url(#SVGID_2_-3)" transform="translate(393.60786,72.175413)"/><path id="path28" fill="#fff" d="m 838.907,684.262 c 0,3.684 2.986,6.669 6.669,6.669 3.684,0 6.669,-2.985 6.669,-6.669 0,-3.685 -2.985,-6.669 -6.669,-6.669 -3.682,0.001 -6.669,2.985 -6.669,6.669" clip-path="url(#SVGID_6_-8)" transform="translate(393.60786,72.175413)"/><path id="path48" fill="#fff" d="m 811.279,684.262 c 0,3.684 2.986,6.669 6.669,6.669 3.685,0 6.669,-2.985 6.669,-6.669 0,-3.685 -2.984,-6.669 -6.669,-6.669 -3.683,0.001 -6.669,2.985 -6.669,6.669" clip-path="url(#SVGID_10_-1)" transform="translate(393.60786,72.175413)"/><path id="path4809-2" fill="#fff" fill-opacity="1" fill-rule="evenodd" stroke="none" stroke-dasharray="none" stroke-miterlimit="4" stroke-width="2.472" d="m 1084.8955,913.78369 a 6.2923727,6.1521144 0 0 1 -6.2919,6.15212 6.2923727,6.1521144 0 0 1 -6.2928,-6.15131 6.2923727,6.1521144 0 0 1 6.2911,-6.15292 6.2923727,6.1521144 0 0 1 6.2936,6.1505 l -6.2924,0.002 z" opacity="1" paint-order="fill markers stroke"/><path id="rect4822-3-9" fill="#fff" fill-opacity="1" fill-rule="evenodd" stroke="none" stroke-dasharray="none" stroke-miterlimit="4" stroke-width="1.246" d="m 1183.756,843.75601 h 17.4363 l 26.5868,26.7887 v 31.52095 h -44.0231 z" opacity="1" paint-order="fill markers stroke"/><path id="rect4822-3-6" fill="#fff" fill-opacity="1" fill-rule="evenodd" stroke="none" stroke-dasharray="none" stroke-miterlimit="4" stroke-width="1.246" d="m 1513.6449,766.25731 h 17.4363 l 26.5868,26.7887 v 31.52095 h -44.0231 z" opacity="1" paint-order="fill markers stroke"/><path id="rect4822-3-4" fill="#fff" fill-opacity="1" fill-rule="evenodd" stroke="none" stroke-dasharray="none" stroke-miterlimit="4" stroke-width="1.246" d="m 1106.7269,653.39031 h 17.4363 l 26.5868,26.7887 v 31.52095 h -44.0231 z" opacity="1" paint-order="fill markers stroke"/><path id="rect4822-3-7" fill="#fff" fill-opacity="1" fill-rule="evenodd" stroke="none" stroke-dasharray="none" stroke-miterlimit="4" stroke-width="1.246" d="m 1232.098,574.98401 h 17.4363 l 26.5868,26.7887 v 31.52095 h -44.0231 z" opacity="1" paint-order="fill markers stroke"/><path id="rect4822-3" fill="#fff" fill-opacity="1" fill-rule="evenodd" stroke="none" stroke-dasharray="none" stroke-miterlimit="4" stroke-width="1.246" d="m 1450.6899,556.5274 h 17.4363 l 26.5868,26.7887 v 31.52095 h -44.0231 z" opacity="1" paint-order="fill markers stroke"/><rect id="rect4822-9" width="120.067" height="137.994" x="1399.503" y="189.791" fill="#fff" fill-opacity="1" fill-rule="evenodd" stroke="none" stroke-dasharray="none" stroke-miterlimit="4" stroke-width="3.167" opacity="1" paint-order="fill markers stroke"/><rect id="rect4822" width="120.067" height="137.994" x="1213.716" y="189.791" fill="#fff" fill-opacity="1" fill-rule="evenodd" stroke="none" stroke-dasharray="none" stroke-miterlimit="4" stroke-width="3.167" opacity="1" paint-order="fill markers stroke"/><path id="path8" d="m 1123.64,225.169 c 0.521,3.104 3.457,5.194 6.559,4.675 3.103,-0.521 5.194,-3.457 4.673,-6.56 -0.52,-3.101 -3.457,-5.193 -6.558,-4.673 -3.102,0.521 -5.197,3.456 -4.674,6.558" clip-path="url(#SVGID_2_)" transform="translate(433.5,13.765014)"/><line id="line18" x1="1168.413" x2="1154.373" y1="255.899" y2="271.515" fill="none" stroke="#000" stroke-miterlimit="10" stroke-width="6" clip-path="url(#SVGID_4_)" transform="translate(433.5,13.765014)"/><line id="line28" x1="1169.2" x2="1153.586" y1="270.728" y2="256.687" fill="none" stroke="#000" stroke-miterlimit="10" stroke-width="6" clip-path="url(#SVGID_6_)" transform="translate(433.5,13.765014)"/><path id="path38" fill="none" stroke="#1183c5" stroke-linejoin="bevel" stroke-miterlimit="10" stroke-width="6" d="m 724.03,162.041 v 0 c -1.337,7.222 -7.309,12.673 -14.62,13.353 7.221,1.336 12.673,7.307 13.352,14.619 1.337,-7.221 7.309,-12.674 14.62,-13.352 -7.222,-1.337 -12.675,-7.308 -13.352,-14.62 z" clip-path="url(#SVGID_8_)" transform="translate(433.5,13.765014)"/><line id="line48" x1="848.5" x2="888.714" y1="301.544" y2="301.544" fill="none" stroke="#1183c5" stroke-miterlimit="10" stroke-width="6" clip-path="url(#SVGID_10_)" transform="translate(433.5,13.765014)"/><line id="line58" x1="1064.155" x2="1084.262" y1="163.035" y2="163.035" fill="none" stroke="#1183c5" stroke-miterlimit="10" stroke-width="6" clip-path="url(#SVGID_12_)" transform="translate(433.5,13.765014)"/><line id="line68" x1="1035.799" x2="1055.904" y1="163.035" y2="163.035" fill="none" stroke="#1183c5" stroke-miterlimit="10" stroke-width="6" clip-path="url(#SVGID_14_)" transform="translate(433.5,13.765014)"/><path id="path78" fill="#fff" d="m 826.504,743.025 c 0,3.685 2.985,6.669 6.669,6.669 3.684,0 6.669,-2.984 6.669,-6.669 0,-3.683 -2.985,-6.669 -6.669,-6.669 -3.684,0 -6.669,2.988 -6.669,6.669" clip-path="url(#SVGID_16_)" transform="translate(433.5,13.765014)"/><circle id="circle88" cx="833.173" cy="743.025" r="6.669" fill="none" stroke="#000" stroke-miterlimit="10" stroke-width="6" clip-path="url(#SVGID_18_)" transform="translate(433.5,13.765014)"/><path id="path98" fill="#fff" d="m 798.875,743.025 c 0,3.685 2.985,6.669 6.669,6.669 3.683,0 6.669,-2.984 6.669,-6.669 0,-3.683 -2.986,-6.669 -6.669,-6.669 -3.683,0 -6.669,2.988 -6.669,6.669" clip-path="url(#SVGID_20_)" transform="translate(433.5,13.765014)"/><circle id="circle108" cx="805.544" cy="743.025" r="6.669" fill="none" stroke="#000" stroke-miterlimit="10" stroke-width="6" clip-path="url(#SVGID_22_)" transform="translate(433.5,13.765014)"/><path id="path118" fill="#fff" d="m 771.245,743.025 c 0,3.685 2.986,6.669 6.669,6.669 3.685,0 6.67,-2.984 6.67,-6.669 0,-3.683 -2.985,-6.669 -6.67,-6.669 -3.682,0 -6.669,2.988 -6.669,6.669" clip-path="url(#SVGID_24_)" transform="translate(433.5,13.765014)"/><circle id="circle128" cx="777.914" cy="743.025" r="6.669" fill="none" stroke="#000" stroke-miterlimit="10" stroke-width="6" clip-path="url(#SVGID_26_)" transform="translate(433.5,13.765014)"/><line id="line138" x1="1242.233" x2="1223.316" y1="552.102" y2="573.138" fill="none" stroke="#000" stroke-miterlimit="10" stroke-width="6" clip-path="url(#SVGID_28_)" transform="translate(433.5,13.765014)"/><line id="line148" x1="1243.293" x2="1222.257" y1="572.078" y2="553.161" fill="none" stroke="#000" stroke-miterlimit="10" stroke-width="6" clip-path="url(#SVGID_30_)" transform="translate(433.5,13.765014)"/><line id="line158" x1="637.821" x2="623.78" y1="823.758" y2="839.373" fill="none" stroke="#000" stroke-miterlimit="10" stroke-width="6" clip-path="url(#SVGID_32_)" transform="translate(433.5,13.765014)"/><line id="line168" x1="638.608" x2="622.992" y1="838.587" y2="824.545" fill="none" stroke="#000" stroke-miterlimit="10" stroke-width="6" clip-path="url(#SVGID_34_)" transform="translate(433.5,13.765014)"/><path id="path178" fill="none" stroke="#000" stroke-linejoin="bevel" stroke-miterlimit="10" stroke-width="6" d="m 646.424,885.789 v 0 c -1.337,7.222 -7.31,12.675 -14.62,13.353 7.22,1.337 12.673,7.309 13.351,14.62 1.337,-7.222 7.31,-12.674 14.62,-13.353 -7.22,-1.337 -12.673,-7.307 -13.351,-14.62 z" clip-path="url(#SVGID_36_)" transform="translate(433.5,13.765014)"/><path id="path188" fill="none" stroke="#1183c5" stroke-miterlimit="10" stroke-width="6" d="m 927.238,671.444 c 5.643,0 5.643,4 11.284,4 5.64,0 5.64,-4 11.28,-4 5.642,0 5.642,4 11.283,4 5.644,0 5.644,-4 11.286,-4" clip-path="url(#SVGID_38_)" transform="translate(433.5,13.765014)"/><path id="path198" fill="none" stroke="#1183c5" stroke-miterlimit="10" stroke-width="6" d="m 858.73,882.814 c 5.642,0 5.642,5.95 11.284,5.95 5.64,0 5.64,-5.95 11.28,-5.95 5.642,0 5.642,5.95 11.282,5.95 5.645,0 5.645,-5.95 11.287,-5.95 5.642,0 5.643,5.95 11.284,5.95 5.646,0 5.646,-5.95 11.291,-5.95 5.645,0 5.646,5.95 11.291,5.95" clip-path="url(#SVGID_40_)" transform="translate(433.5,13.765014)"/><path id="path208" fill="none" stroke="#1183c5" stroke-miterlimit="10" stroke-width="6" d="m 858.73,479.12 c 5.642,0 5.642,5.95 11.284,5.95 5.64,0 5.64,-5.95 11.28,-5.95 5.642,0 5.642,5.95 11.282,5.95 5.645,0 5.645,-5.95 11.287,-5.95 5.642,0 5.643,5.95 11.284,5.95 5.646,0 5.646,-5.95 11.291,-5.95 5.645,0 5.646,5.95 11.291,5.95" clip-path="url(#SVGID_42_)" transform="translate(433.5,13.765014)"/><line id="line218" x1="1067.155" x2="1061.155" y1="295.254" y2="295.254" fill="none" stroke="#000" stroke-miterlimit="10" stroke-width="6" clip-path="url(#SVGID_44_)" transform="translate(433.5,13.765014)"/><line id="line228" x1="1047.031" x2="1041.031" y1="295.254" y2="295.254" fill="none" stroke="#000" stroke-miterlimit="10" stroke-width="6" clip-path="url(#SVGID_46_)" transform="translate(433.5,13.765014)"/><circle id="circle240" cx="1274" cy="458" r="52" fill="none" stroke="#000" stroke-miterlimit="10" stroke-width="6" clip-path="url(#SVGID_48_)" transform="translate(433.5,13.765014)"/><path id="path250" fill="none" stroke="#000" stroke-miterlimit="10" stroke-width="6" d="m 1310.92,455.529 c 0.604,9.336 -2.254,17.981 -7.409,24.788 -1.539,2.03 -4.432,2.366 -6.42,0.775 -6.332,-5.063 -14.362,-8.093 -23.091,-8.093 -8.729,0 -16.761,3.029 -23.087,8.094 -2.004,1.604 -4.897,1.233 -6.446,-0.813 -4.688,-6.194 -7.468,-13.91 -7.468,-22.28 0,-21.312 18.03,-38.423 39.665,-36.906 18.285,1.281 33.067,16.143 34.256,34.435 z" clip-path="url(#SVGID_50_)" transform="translate(433.5,13.765014)"/><line id="line260" x1="1298" x2="1274" y1="444" y2="470" fill="none" clip-path="url(#SVGID_52_)" transform="translate(433.5,13.765014)"/><line id="line270" x1="1298" x2="1274" y1="444" y2="470" fill="none" stroke="#000" stroke-linejoin="round" stroke-miterlimit="10" stroke-width="6" clip-path="url(#SVGID_54_)" transform="translate(433.5,13.765014)"/><path id="path280" fill="#fff" d="m 1281,470 c 0,3.866 -3.135,7 -7,7 -3.866,0 -7,-3.134 -7,-7 0,-3.865 3.134,-7 7,-7 3.865,0 7,3.135 7,7" clip-path="url(#SVGID_56_)" transform="translate(433.5,13.765014)"/><circle id="circle290" cx="1274" cy="470" r="7" fill="none" stroke="#000" stroke-linejoin="round" stroke-miterlimit="10" stroke-width="6" clip-path="url(#SVGID_58_)" transform="translate(433.5,13.765014)"/><circle id="circle300" cx="1298" cy="867" r="52" fill="none" stroke="#000" stroke-miterlimit="10" stroke-width="6" clip-path="url(#SVGID_60_)" transform="translate(433.5,13.765014)"/><path id="path310" fill="#fff" d="m 1314,882 h -32 v -34 c 0,-8.837 7.162,-16 16,-16 8.837,0 16,7.163 16,16 z" clip-path="url(#SVGID_62_)" transform="translate(433.5,13.765014)"/><path id="path320" fill="none" stroke="#000" stroke-miterlimit="10" stroke-width="6" d="m 1314,882 h -32 v -34 c 0,-8.837 7.162,-16 16,-16 8.837,0 16,7.163 16,16 z" clip-path="url(#SVGID_64_)" transform="translate(433.5,13.765014)"/><rect id="rect330" width="48" height="38" x="1274" y="857" fill="#fff" clip-path="url(#SVGID_66_)" transform="translate(433.5,13.765014)"/><rect id="rect340" width="48" height="38" x="1274" y="857" fill="none" stroke="#000" stroke-miterlimit="10" stroke-width="6" clip-path="url(#SVGID_68_)" transform="translate(433.5,13.765014)"/><line id="line350" x1="1298" x2="1298" y1="869" y2="881" fill="none" clip-path="url(#SVGID_70_)" transform="translate(433.5,13.765014)"/><line id="line360" x1="1298" x2="1298" y1="869" y2="881" fill="none" stroke="#000" stroke-miterlimit="10" stroke-width="6" clip-path="url(#SVGID_72_)" transform="translate(433.5,13.765014)"/><circle id="circle370" cx="524" cy="617" r="52" fill="none" stroke="#000" stroke-miterlimit="10" stroke-width="6" clip-path="url(#SVGID_74_)" transform="translate(433.5,13.765014)"/><path id="path380" fill="none" stroke="#000" stroke-miterlimit="10" stroke-width="6" d="m 531.633,580.52 v 0 c 2.219,1.612 4.891,2.479 7.634,2.479 5.626,0 10.612,3.623 12.351,8.975 0.849,2.607 2.499,4.882 4.719,6.493 4.551,3.308 6.455,9.169 4.717,14.521 -0.848,2.607 -0.848,5.418 0,8.025 1.738,5.352 -0.166,11.213 -4.717,14.521 -2.22,1.611 -3.87,3.886 -4.719,6.493 -1.738,5.352 -6.725,8.975 -12.351,8.975 -2.743,0 -5.415,0.867 -7.634,2.479 -4.553,3.307 -10.715,3.307 -15.268,0 -2.218,-1.612 -4.891,-2.479 -7.633,-2.479 -5.626,0 -10.613,-3.623 -12.351,-8.975 -0.849,-2.607 -2.499,-4.882 -4.719,-6.493 -4.552,-3.308 -6.457,-9.169 -4.718,-14.521 0.849,-2.607 0.849,-5.418 0,-8.025 -1.739,-5.352 0.166,-11.213 4.718,-14.521 2.22,-1.611 3.87,-3.886 4.719,-6.493 1.737,-5.352 6.725,-8.975 12.351,-8.975 2.742,0 5.415,-0.867 7.633,-2.479 4.553,-3.306 10.715,-3.306 15.268,0 z" clip-path="url(#SVGID_76_)" transform="translate(433.5,13.765014)"/><polyline id="polyline390" fill="none" stroke="#000" stroke-miterlimit="10" stroke-width="6" points="506 615 520.5 629.5 544 606" clip-path="url(#SVGID_78_)" transform="translate(433.5,13.765014)"/><polygon id="polygon396" fill="none" stroke="#000" stroke-miterlimit="10" stroke-width="6" points="798.598 561.219 817.778 561.219 842.108 585.558 842.108 617.078 798.598 617.078" transform="translate(433.5,13.765014)"/><polygon id="polygon398" fill="none" stroke="#000" stroke-linejoin="round" stroke-miterlimit="10" stroke-width="6" points="817.778 561.213 842.108 585.552 817.778 585.552" transform="translate(433.5,13.765014)"/><polygon id="polygon400" fill="none" stroke="#000" stroke-miterlimit="10" stroke-width="6" points="1017.19 545.212 1036.369 545.212 1060.699 569.552 1060.699 601.072 1017.19 601.072" transform="translate(433.5,13.765014)"/><polygon id="polygon402" fill="none" stroke="#000" stroke-linejoin="round" stroke-miterlimit="10" stroke-width="6" points="1036.369 545.205 1060.699 569.546 1036.369 569.546" transform="translate(433.5,13.765014)"/><polygon id="polygon404" fill="none" stroke="#000" stroke-miterlimit="10" stroke-width="6" points="673.739 642.074 692.919 642.074 717.25 666.414 717.25 697.935 673.739 697.935" transform="translate(433.5,13.765014)"/><polygon id="polygon406" fill="none" stroke="#000" stroke-linejoin="round" stroke-miterlimit="10" stroke-width="6" points="692.919 642.067 717.25 666.407 692.919 666.407" transform="translate(433.5,13.765014)"/><polygon id="polygon408" fill="none" stroke="#000" stroke-miterlimit="10" stroke-width="6" points="1080.657 754.941 1099.838 754.941 1124.168 779.281 1124.168 810.802 1080.657 810.802" transform="translate(433.5,13.765014)"/><polygon id="polygon410" fill="none" stroke="#000" stroke-linejoin="round" stroke-miterlimit="10" stroke-width="6" points="1099.838 754.935 1124.168 779.274 1099.838 779.274" transform="translate(433.5,13.765014)"/><polygon id="polygon412" fill="none" stroke="#000" stroke-miterlimit="10" stroke-width="6" points="750.256 829.991 769.436 829.991 793.766 854.331 793.766 885.852 750.256 885.852" transform="translate(433.5,13.765014)"/><polygon id="polygon414" fill="none" stroke="#000" stroke-linejoin="round" stroke-miterlimit="10" stroke-width="6" points="769.436 829.984 793.766 854.324 769.436 854.324" transform="translate(433.5,13.765014)"/><path id="path422" fill="none" stroke="#000" stroke-miterlimit="10" stroke-width="6" d="m 657.897,604.802 c 11.642,-36.221 31.046,-70.585 58.333,-100.55 101.975,-111.979 275.417,-120.089 387.397,-18.114 111.979,101.976 120.088,275.418 18.113,387.396 -101.975,111.979 -275.417,120.088 -387.396,18.114 -43.696,-39.793 -71.576,-90.468 -83.271,-144.127 -0.9,-4.134 -1.706,-8.285 -2.414,-12.451 -0.479,-2.815 -0.914,-5.64 -1.305,-8.467 -0.694,-5.017 -1.249,-10.049 -1.666,-15.092" clip-path="url(#SVGID_80_)" transform="translate(433.5,13.765014)"/><path id="path432" fill="none" stroke="#000" stroke-miterlimit="10" stroke-width="6" d="M 934.784,976 C 820.239,982.271 708.232,919.152 657.6,808.529 631.817,752.198 625.758,691.873 636.534,635.321 c 0.831,-4.356 1.762,-8.691 2.79,-13 0.695,-2.913 1.436,-5.813 2.222,-8.702 1.392,-5.121 2.925,-10.201 4.596,-15.235" clip-path="url(#SVGID_82_)" transform="translate(433.5,13.765014)"/><path id="path442" fill="none" stroke="#1183c5" stroke-miterlimit="10" stroke-width="6" d="m 1194.891,769.604 c -10.537,35.964 -28.041,69.785 -51.707,99.308" clip-path="url(#SVGID_84_)" transform="translate(433.5,13.765014)"/><path id="path452" fill="none" stroke="#000" stroke-miterlimit="10" stroke-width="6" d="m 701.772,500.496 c 26.112,-30.143 58.948,-55.308 97.577,-72.987 144.358,-66.074 314.948,-2.611 381.021,141.749 20.729,45.291 28.709,93.165 25.439,139.583" clip-path="url(#SVGID_86_)" transform="translate(433.5,13.765014)"/><path id="path462" fill="none" stroke="#1183c5" stroke-miterlimit="10" stroke-width="6" d="m 645.397,670.002 c 1.018,-14.888 3.248,-29.719 6.695,-44.332" clip-path="url(#SVGID_88_)" transform="translate(433.5,13.765014)"/><path id="path472" fill="none" stroke="#000" stroke-miterlimit="10" stroke-width="6" d="m 771.245,457.68 99.503,99.503 c 7.517,7.517 11.738,17.709 11.738,28.338 v 38.661 c 0,16.593 -10.225,31.47 -25.717,37.415 L 813.12,678.35 c -3.245,1.245 -6.313,2.907 -9.13,4.945 l -48.508,35.093 c -22.276,16.115 -22.08,49.363 0.384,65.215 l 63.377,44.724 c 10.642,7.51 16.971,19.721 16.971,32.744 V 885.8 c 0,9.05 -3.063,17.832 -8.69,24.92 l -21.98,27.685" clip-path="url(#SVGID_90_)" transform="translate(433.5,13.765014)"/><path id="path482" fill="none" stroke="#000" stroke-miterlimit="10" stroke-width="6" d="m 1063.42,455.507 -98.399,86.788 c -7.578,6.683 -11.917,16.299 -11.917,26.4 v 35.041 c 0,11.823 5.936,22.857 15.8,29.374 l 20.937,13.829 c 3.106,2.053 4.978,5.528 4.978,9.253 v 21.422 c 0,6.124 4.964,11.088 11.088,11.088 10.479,0 15.11,13.19 6.935,19.742 l -27.706,22.198 c -13.651,10.938 -17.2,30.239 -8.334,45.317 l 26.62,45.268 c 6.323,10.755 17.869,17.358 30.346,17.358 19.441,0 35.203,15.761 35.203,35.202 v 44.404" clip-path="url(#SVGID_92_)" transform="translate(433.5,13.765014)"/><line id="line488" x1="1213.716" x2="1213.716" y1="233.808" y2="212.225" fill="none" stroke="#000" stroke-linejoin="round" stroke-miterlimit="10" stroke-width="6"/><polyline id="polyline490" fill="none" stroke="#000" stroke-linejoin="round" stroke-miterlimit="10" stroke-width="6" points="780.216 191.546 780.216 176.026 900.283 176.026 900.283 314.02 780.216 314.02 780.216 227.213" transform="translate(433.5,13.765014)"/><polyline id="polyline492" fill="none" stroke="#000" stroke-linejoin="round" stroke-miterlimit="10" stroke-width="6" points="966.003 264.177 966.003 176.027 1086.07 176.027 1086.07 314.02 966.003 314.02 966.003 281.531" transform="translate(433.5,13.765014)"/><line id="line494" x1="1181.867" x2="1600.063" y1="327.785" y2="327.785" fill="none" stroke="#000" stroke-linejoin="round" stroke-miterlimit="10" stroke-width="6"/><line id="line496" x1="1122.279" x2="1157.134" y1="327.785" y2="327.785" fill="none" stroke="#000" stroke-linejoin="round" stroke-miterlimit="10" stroke-width="6"/><path id="path504" fill="none" stroke="#000" stroke-linejoin="round" stroke-miterlimit="10" stroke-width="6" d="m 761.411,314.02 v -31.043 c 0,-10.386 8.418,-18.805 18.805,-18.805" clip-path="url(#SVGID_94_)" transform="translate(433.5,13.765014)"/><path id="path514" fill="none" stroke="#000" stroke-linejoin="round" stroke-miterlimit="10" stroke-width="6" d="m 1086.07,249.043 v 0 c 13.15,0 23.812,10.66 23.812,23.812 v 41.166" clip-path="url(#SVGID_96_)" transform="translate(433.5,13.765014)"/><line id="line524" x1="900.283" x2="966.003" y1="201.543" y2="201.543" fill="none" stroke="#000" stroke-linejoin="round" stroke-miterlimit="10" stroke-width="6" clip-path="url(#SVGID_98_)" transform="translate(433.5,13.765014)"/><circle id="circle534" cx="802.131" cy="213.793" r="8.25" fill="none" stroke="#000" stroke-linejoin="round" stroke-miterlimit="10" stroke-width="6" clip-path="url(#SVGID_100_)" transform="translate(433.5,13.765014)"/><circle id="circle544" cx="840.25" cy="213.793" r="8.25" fill="none" stroke="#1183c5" stroke-miterlimit="10" stroke-width="6" clip-path="url(#SVGID_102_)" transform="translate(433.5,13.765014)"/><circle id="circle554" cx="878.368" cy="213.793" r="8.25" fill="none" stroke="#000" stroke-linejoin="round" stroke-miterlimit="10" stroke-width="6" clip-path="url(#SVGID_104_)" transform="translate(433.5,13.765014)"/><circle id="circle564" cx="802.131" cy="245.023" r="8.25" fill="none" stroke="#000" stroke-linejoin="round" stroke-miterlimit="10" stroke-width="6" clip-path="url(#SVGID_106_)" transform="translate(433.5,13.765014)"/><circle id="circle574" cx="840.25" cy="245.023" r="8.25" fill="none" stroke="#1183c5" stroke-miterlimit="10" stroke-width="6" clip-path="url(#SVGID_108_)" transform="translate(433.5,13.765014)"/><circle id="circle584" cx="878.368" cy="245.023" r="8.25" fill="none" stroke="#1183c5" stroke-miterlimit="10" stroke-width="6" clip-path="url(#SVGID_110_)" transform="translate(433.5,13.765014)"/><circle id="circle594" cx="987.918" cy="213.793" r="8.25" fill="none" stroke="#000" stroke-linejoin="round" stroke-miterlimit="10" stroke-width="6" clip-path="url(#SVGID_112_)" transform="translate(433.5,13.765014)"/><circle id="circle604" cx="1026.036" cy="213.793" r="8.25" fill="none" stroke="#1183c5" stroke-miterlimit="10" stroke-width="6" clip-path="url(#SVGID_114_)" transform="translate(433.5,13.765014)"/><circle id="circle614" cx="1064.155" cy="213.793" r="8.25" fill="none" stroke="#000" stroke-linejoin="round" stroke-miterlimit="10" stroke-width="6" clip-path="url(#SVGID_116_)" transform="translate(433.5,13.765014)"/><circle id="circle624" cx="987.918" cy="245.023" r="8.25" fill="none" stroke="#1183c5" stroke-miterlimit="10" stroke-width="6" clip-path="url(#SVGID_118_)" transform="translate(433.5,13.765014)"/><circle id="circle634" cx="1026.036" cy="245.023" r="8.25" fill="none" stroke="#1183c5" stroke-miterlimit="10" stroke-width="6" clip-path="url(#SVGID_120_)" transform="translate(433.5,13.765014)"/><circle id="circle644" cx="1064.155" cy="245.023" r="8.25" fill="none" stroke="#000" stroke-linejoin="round" stroke-miterlimit="10" stroke-width="6" clip-path="url(#SVGID_122_)" transform="translate(433.5,13.765014)"/><line id="line654" x1="807.881" x2="807.881" y1="176.026" y2="158.043" fill="none" stroke="#000" stroke-linejoin="round" stroke-miterlimit="10" stroke-width="6" clip-path="url(#SVGID_124_)" transform="translate(433.5,13.765014)"/><line id="line664" x1="824.381" x2="824.381" y1="176.026" y2="167.036" fill="none" stroke="#000" stroke-linejoin="round" stroke-miterlimit="10" stroke-width="6" clip-path="url(#SVGID_126_)" transform="translate(433.5,13.765014)"/><line id="line674" x1="1013.881" x2="1013.881" y1="176.026" y2="160.543" fill="none" stroke="#000" stroke-linejoin="round" stroke-miterlimit="10" stroke-width="6" clip-path="url(#SVGID_128_)" transform="translate(433.5,13.765014)"/><path id="path684" fill="none" stroke="#000" stroke-linejoin="round" stroke-miterlimit="10" stroke-width="6" d="m 900.283,278.366 v 0 c 8.614,0 15.598,6.983 15.598,15.597 v 20.057" clip-path="url(#SVGID_130_)" transform="translate(433.5,13.765014)"/></svg>