<?xml version="1.0" encoding="UTF-8" standalone="no"?>
<!-- Generator: Adobe Illustrator 16.0.4, SVG Export Plug-In . SVG Version: 6.00 Build 0)  -->

<svg
   xmlns:dc="http://purl.org/dc/elements/1.1/"
   xmlns:cc="http://creativecommons.org/ns#"
   xmlns:rdf="http://www.w3.org/1999/02/22-rdf-syntax-ns#"
   xmlns:svg="http://www.w3.org/2000/svg"
   xmlns="http://www.w3.org/2000/svg"
   xmlns:xlink="http://www.w3.org/1999/xlink"
   xmlns:sodipodi="http://sodipodi.sourceforge.net/DTD/sodipodi-0.dtd"
   xmlns:inkscape="http://www.inkscape.org/namespaces/inkscape"
   version="1.1"
   id="Layer_1"
   x="0px"
   y="0px"
   width="1920"
   height="1080"
   viewBox="0 0 1920 1080"
   enable-background="new 0 0 1018 520"
   xml:space="preserve"
   sodipodi:docname="costs.svg"
   inkscape:version="0.92.1 r"><metadata
     id="metadata119"><rdf:RDF><cc:Work
         rdf:about=""><dc:format>image/svg+xml</dc:format><dc:type
           rdf:resource="http://purl.org/dc/dcmitype/StillImage" /><dc:title></dc:title></cc:Work></rdf:RDF></metadata><defs
     id="defs117"><defs
       id="defs3"><rect
         height="1080"
         width="1920"
         y="-277"
         x="-262"
         id="SVGID_1_" /></defs><clipPath
       id="SVGID_2_"><use
         id="use5"
         overflow="visible"
         xlink:href="#SVGID_1_"
         style="overflow:visible"
         x="0"
         y="0"
         width="100%"
         height="100%" /></clipPath></defs><sodipodi:namedview
     pagecolor="#ffffff"
     bordercolor="#666666"
     borderopacity="1"
     objecttolerance="10"
     gridtolerance="10"
     guidetolerance="10"
     inkscape:pageopacity="0"
     inkscape:pageshadow="2"
     inkscape:window-width="2560"
     inkscape:window-height="1353"
     id="namedview115"
     showgrid="false"
     inkscape:zoom="0.23338691"
     inkscape:cx="227.68673"
     inkscape:cy="573.53462"
     inkscape:window-x="0"
     inkscape:window-y="240"
     inkscape:window-maximized="1"
     inkscape:current-layer="Layer_1" /><path
     style="fill:#ffffff"
     inkscape:connector-curvature="0"
     id="path8"
     d="M 495.108,441.067 H 838.319 C 893.923,441.067 939,395.991 939,340.386 939,284.781 893.924,239.706 838.319,239.706 h -1.228 c 0,-40.71 -13.759,-78.206 -36.881,-108.093"
     clip-path="url(#SVGID_2_)"
     transform="translate(304.011,288.0155)" /><path
     style="fill:none;stroke:#000000;stroke-width:6;stroke-miterlimit:10"
     inkscape:connector-curvature="0"
     id="path10"
     d="M 495.108,441.067 H 838.319 C 893.923,441.067 939,395.991 939,340.386 939,284.781 893.924,239.706 838.319,239.706 h -1.228 c 0,-40.71 -13.759,-78.206 -36.881,-108.093"
     stroke-miterlimit="10"
     clip-path="url(#SVGID_2_)"
     transform="translate(304.011,288.0155)" /><path
     style="fill:#ffffff"
     inkscape:connector-curvature="0"
     id="path12"
     d="m 860.603,291.083 v 0 c 1.293,9.324 8.622,16.654 17.946,17.947 -9.324,1.293 -16.653,8.623 -17.946,17.946 -1.293,-9.323 -8.623,-16.653 -17.947,-17.946 9.323,-1.293 16.654,-8.623 17.947,-17.947"
     clip-path="url(#SVGID_2_)"
     transform="translate(304.011,288.0155)" /><path
     style="fill:none;stroke:#1183c5;stroke-width:6;stroke-linecap:square;stroke-linejoin:bevel;stroke-miterlimit:10"
     inkscape:connector-curvature="0"
     id="path14"
     d="m 860.603,291.083 v 0 c 1.293,9.324 8.622,16.654 17.946,17.947 -9.324,1.293 -16.653,8.623 -17.946,17.946 -1.293,-9.323 -8.623,-16.653 -17.947,-17.946 9.323,-1.293 16.654,-8.623 17.947,-17.947 z"
     stroke-miterlimit="10"
     clip-path="url(#SVGID_2_)"
     transform="translate(304.011,288.0155)" /><path
     style="fill:#ffffff"
     inkscape:connector-curvature="0"
     id="path16"
     d="m 391.553,282.104 c -11.697,16.448 -18.575,36.562 -18.575,58.282 0,55.604 45.076,100.681 100.681,100.681"
     clip-path="url(#SVGID_2_)"
     transform="translate(304.011,288.0155)" /><path
     style="fill:none;stroke:#000000;stroke-width:6;stroke-miterlimit:10"
     inkscape:connector-curvature="0"
     id="path18"
     d="m 391.553,282.104 c -11.697,16.448 -18.575,36.562 -18.575,58.282 0,55.604 45.076,100.681 100.681,100.681"
     stroke-miterlimit="10"
     clip-path="url(#SVGID_2_)"
     transform="translate(304.011,288.0155)" /><path
     style="fill:none;stroke:#1183c5;stroke-width:6;stroke-miterlimit:10"
     inkscape:connector-curvature="0"
     id="path20"
     d="m 425.731,401.008 c 9.502,0 9.502,7.051 19.005,7.051 9.499,0 9.499,-7.051 18.998,-7.051 9.502,0 9.502,7.051 19.004,7.051 9.505,0 9.505,-7.051 19.01,-7.051"
     stroke-miterlimit="10"
     clip-path="url(#SVGID_2_)"
     transform="translate(304.011,288.0155)" /><path
     style="fill:#ffffff"
     inkscape:connector-curvature="0"
     id="path22"
     d="m 753.951,89.722 c -27.158,-16.996 -59.264,-26.82 -93.665,-26.82 -97.647,0 -176.805,79.158 -176.805,176.804 h -9.822 c -20.852,0 -40.223,6.339 -56.291,17.196"
     clip-path="url(#SVGID_2_)"
     transform="translate(304.011,288.0155)" /><path
     style="fill:none;stroke:#000000;stroke-width:6;stroke-miterlimit:10"
     inkscape:connector-curvature="0"
     id="path24"
     d="m 753.951,89.722 c -27.158,-16.996 -59.264,-26.82 -93.665,-26.82 -97.647,0 -176.805,79.158 -176.805,176.804 h -9.822 c -20.852,0 -40.223,6.339 -56.291,17.196"
     stroke-miterlimit="10"
     clip-path="url(#SVGID_2_)"
     transform="translate(304.011,288.0155)" /><rect
     style="fill:#ffffff"
     id="rect26"
     height="174.341"
     width="23.075001"
     clip-path="url(#SVGID_2_)"
     y="230.83299"
     x="648.93799"
     transform="translate(304.011,288.0155)" /><rect
     style="fill:none;stroke:#000000;stroke-width:6;stroke-miterlimit:10"
     id="rect28"
     height="174.341"
     width="23.075001"
     stroke-miterlimit="10"
     clip-path="url(#SVGID_2_)"
     y="230.83299"
     x="648.93799"
     transform="translate(304.011,288.0155)" /><polyline
     style="fill:#ffffff"
     id="polyline30"
     points="756.619,194.939 800.205,194.939 800.205,266.727 520.746,266.727    520.746,194.939 737.391,194.939  "
     clip-path="url(#SVGID_2_)"
     transform="translate(304.011,288.0155)" /><polyline
     style="fill:none;stroke:#000000;stroke-width:6;stroke-miterlimit:10"
     id="polyline32"
     points="   756.619,194.939 800.205,194.939 800.205,266.727 520.746,266.727 520.746,194.939 737.391,194.939  "
     stroke-miterlimit="10"
     clip-path="url(#SVGID_2_)"
     transform="translate(304.011,288.0155)" /><path
     style="fill:#ffffff"
     inkscape:connector-curvature="0"
     id="path34"
     d="m 586.125,230.833 c 0,9.912 -8.035,17.946 -17.947,17.946 -9.911,0 -17.947,-8.034 -17.947,-17.946 0,-9.912 8.036,-17.947 17.947,-17.947 9.911,0 17.947,8.035 17.947,17.947"
     clip-path="url(#SVGID_2_)"
     transform="translate(304.011,288.0155)" /><circle
     style="fill:none;stroke:#000000;stroke-width:6;stroke-miterlimit:10"
     id="circle36"
     r="17.947001"
     cy="230.83299"
     cx="568.177"
     stroke-miterlimit="10"
     clip-path="url(#SVGID_2_)"
     transform="translate(304.011,288.0155)" /><path
     style="fill:#ffffff"
     inkscape:connector-curvature="0"
     id="path38"
     d="m 700.216,230.833 c 0,4.956 -4.018,8.974 -8.974,8.974 -4.956,0 -8.973,-4.018 -8.973,-8.974 0,-4.956 4.017,-8.974 8.973,-8.974 4.956,0 8.974,4.018 8.974,8.974"
     clip-path="url(#SVGID_2_)"
     transform="translate(304.011,288.0155)" /><circle
     style="fill:none;stroke:#000000;stroke-width:6;stroke-miterlimit:10"
     id="circle40"
     r="8.974"
     cy="230.83299"
     cx="691.242"
     stroke-miterlimit="10"
     clip-path="url(#SVGID_2_)"
     transform="translate(304.011,288.0155)" /><circle
     style="fill:none;stroke:#1183c5;stroke-width:6;stroke-miterlimit:10"
     id="circle42"
     r="8.974"
     cy="230.83299"
     cx="728.41803"
     stroke-miterlimit="10"
     clip-path="url(#SVGID_2_)"
     transform="translate(304.011,288.0155)" /><path
     style="fill:#ffffff"
     inkscape:connector-curvature="0"
     id="path44"
     d="m 774.566,230.833 c 0,4.956 -4.018,8.974 -8.973,8.974 -4.956,0 -8.974,-4.018 -8.974,-8.974 0,-4.956 4.018,-8.974 8.974,-8.974 4.956,0 8.973,4.018 8.973,8.974"
     clip-path="url(#SVGID_2_)"
     transform="translate(304.011,288.0155)" /><circle
     style="fill:none;stroke:#000000;stroke-width:6;stroke-miterlimit:10"
     id="circle46"
     r="8.9729996"
     cy="230.83299"
     cx="765.59302"
     stroke-miterlimit="10"
     clip-path="url(#SVGID_2_)"
     transform="translate(304.011,288.0155)" /><rect
     style="fill:#ffffff"
     id="rect48"
     height="53.84"
     width="107.681"
     clip-path="url(#SVGID_2_)"
     y="135.76199"
     x="52.268002"
     transform="translate(876.02251,266.59185)" /><rect
     style="fill:none;stroke:#000000;stroke-width:6;stroke-miterlimit:10"
     id="rect50"
     height="53.84"
     width="107.681"
     stroke-miterlimit="10"
     clip-path="url(#SVGID_2_)"
     y="135.76199"
     x="52.268002"
     transform="translate(876.02251,266.59185)" /><path
     style="fill:#ffffff"
     inkscape:connector-curvature="0"
     id="path52"
     d="m 121.457,162.682 c 0,8.477 -6.872,15.349 -15.348,15.349 -8.477,0 -15.349,-6.872 -15.349,-15.349 0,-8.477 6.872,-15.349 15.349,-15.349 8.475,0 15.348,6.872 15.348,15.349"
     clip-path="url(#SVGID_2_)"
     transform="translate(876.02251,266.59185)" /><circle
     style="fill:none;stroke:#1183c5;stroke-width:6;stroke-linecap:square;stroke-linejoin:bevel;stroke-miterlimit:10"
     id="circle54"
     r="15.349"
     cy="162.68201"
     cx="106.108"
     stroke-miterlimit="10"
     clip-path="url(#SVGID_2_)"
     transform="translate(876.02251,266.59185)" /><rect
     style="fill:#ffffff"
     id="rect56"
     height="71.788002"
     width="279.45801"
     clip-path="url(#SVGID_2_)"
     y="282.10901"
     x="520.74701"
     transform="translate(304.011,288.0155)" /><rect
     style="fill:none;stroke:#000000;stroke-width:6;stroke-miterlimit:10"
     id="rect58"
     height="71.788002"
     width="279.45801"
     stroke-miterlimit="10"
     clip-path="url(#SVGID_2_)"
     y="282.10901"
     x="520.74701"
     transform="translate(304.011,288.0155)" /><path
     style="fill:#ffffff"
     inkscape:connector-curvature="0"
     id="path60"
     d="m 586.125,318.003 c 0,9.912 -8.035,17.947 -17.947,17.947 -9.911,0 -17.947,-8.035 -17.947,-17.947 0,-9.911 8.036,-17.946 17.947,-17.946 9.911,0 17.947,8.035 17.947,17.946"
     clip-path="url(#SVGID_2_)"
     transform="translate(304.011,288.0155)" /><circle
     style="fill:none;stroke:#000000;stroke-width:6;stroke-miterlimit:10"
     id="circle62"
     r="17.947001"
     cy="318.00299"
     cx="568.177"
     stroke-miterlimit="10"
     clip-path="url(#SVGID_2_)"
     transform="translate(304.011,288.0155)" /><circle
     style="fill:none;stroke:#1183c5;stroke-width:6;stroke-miterlimit:10"
     id="circle64"
     r="8.974"
     cy="318.00299"
     cx="691.242"
     stroke-miterlimit="10"
     clip-path="url(#SVGID_2_)"
     transform="translate(304.011,288.0155)" /><path
     style="fill:#ffffff"
     inkscape:connector-curvature="0"
     id="path66"
     d="m 737.392,318.003 c 0,4.956 -4.018,8.974 -8.974,8.974 -4.956,0 -8.974,-4.018 -8.974,-8.974 0,-4.955 4.018,-8.973 8.974,-8.973 4.956,0 8.974,4.018 8.974,8.973"
     clip-path="url(#SVGID_2_)"
     transform="translate(304.011,288.0155)" /><circle
     style="fill:none;stroke:#000000;stroke-width:6;stroke-miterlimit:10"
     id="circle68"
     r="8.974"
     cy="318.00299"
     cx="728.41803"
     stroke-miterlimit="10"
     clip-path="url(#SVGID_2_)"
     transform="translate(304.011,288.0155)" /><path
     style="fill:#ffffff"
     inkscape:connector-curvature="0"
     id="path70"
     d="m 774.566,318.003 c 0,4.956 -4.018,8.974 -8.973,8.974 -4.956,0 -8.974,-4.018 -8.974,-8.974 0,-4.955 4.018,-8.973 8.974,-8.973 4.956,0 8.973,4.018 8.973,8.973"
     clip-path="url(#SVGID_2_)"
     transform="translate(304.011,288.0155)" /><circle
     style="fill:none;stroke:#000000;stroke-width:6;stroke-miterlimit:10"
     id="circle72"
     r="8.9729996"
     cy="318.00299"
     cx="765.59302"
     stroke-miterlimit="10"
     clip-path="url(#SVGID_2_)"
     transform="translate(304.011,288.0155)" /><polyline
     style="fill:#ffffff"
     id="polyline74"
     points="800.205,414.147 800.205,441.067 520.747,441.067 520.747,369.28    800.205,369.28 800.205,393.015  "
     clip-path="url(#SVGID_2_)"
     transform="translate(304.011,288.0155)" /><polyline
     style="fill:none;stroke:#000000;stroke-width:6;stroke-miterlimit:10"
     id="polyline76"
     points="   800.205,414.147 800.205,441.067 520.747,441.067 520.747,369.28 800.205,369.28 800.205,393.015  "
     stroke-miterlimit="10"
     clip-path="url(#SVGID_2_)"
     transform="translate(304.011,288.0155)" /><path
     style="fill:#ffffff"
     inkscape:connector-curvature="0"
     id="path78"
     d="m 586.125,405.174 c 0,9.912 -8.035,17.947 -17.947,17.947 -9.911,0 -17.947,-8.035 -17.947,-17.947 0,-9.912 8.036,-17.946 17.947,-17.946 9.911,0 17.947,8.034 17.947,17.946"
     clip-path="url(#SVGID_2_)"
     transform="translate(304.011,288.0155)" /><circle
     style="fill:none;stroke:#000000;stroke-width:6;stroke-miterlimit:10"
     id="circle80"
     r="17.947001"
     cy="405.17401"
     cx="568.177"
     stroke-miterlimit="10"
     clip-path="url(#SVGID_2_)"
     transform="translate(304.011,288.0155)" /><path
     style="fill:#ffffff"
     inkscape:connector-curvature="0"
     id="path82"
     d="m 700.216,405.174 c 0,4.956 -4.018,8.974 -8.974,8.974 -4.956,0 -8.973,-4.018 -8.973,-8.974 0,-4.956 4.017,-8.974 8.973,-8.974 4.956,0 8.974,4.018 8.974,8.974"
     clip-path="url(#SVGID_2_)"
     transform="translate(304.011,288.0155)" /><circle
     style="fill:none;stroke:#000000;stroke-width:6;stroke-miterlimit:10"
     id="circle84"
     r="8.974"
     cy="405.17401"
     cx="691.242"
     stroke-miterlimit="10"
     clip-path="url(#SVGID_2_)"
     transform="translate(304.011,288.0155)" /><path
     style="fill:#ffffff"
     inkscape:connector-curvature="0"
     id="path86"
     d="m 737.392,405.174 c 0,4.956 -4.018,8.974 -8.974,8.974 -4.956,0 -8.974,-4.018 -8.974,-8.974 0,-4.956 4.018,-8.974 8.974,-8.974 4.956,0 8.974,4.018 8.974,8.974"
     clip-path="url(#SVGID_2_)"
     transform="translate(304.011,288.0155)" /><circle
     style="fill:none;stroke:#1183c5;stroke-width:6;stroke-linecap:square;stroke-linejoin:bevel;stroke-miterlimit:10"
     id="circle88"
     r="8.974"
     cy="405.17401"
     cx="728.41803"
     stroke-miterlimit="10"
     clip-path="url(#SVGID_2_)"
     transform="translate(304.011,288.0155)" /><circle
     style="fill:none;stroke:#1183c5;stroke-width:6;stroke-miterlimit:10"
     id="circle90"
     r="8.9729996"
     cy="405.17401"
     cx="765.59302"
     stroke-miterlimit="10"
     clip-path="url(#SVGID_2_)"
     transform="translate(304.011,288.0155)" /><path
     inkscape:connector-curvature="0"
     id="path92"
     d="m 572.023,230.833 c 0,2.124 -1.722,3.846 -3.846,3.846 -2.124,0 -3.845,-1.722 -3.845,-3.846 0,-2.124 1.721,-3.846 3.845,-3.846 2.124,0 3.846,1.722 3.846,3.846"
     clip-path="url(#SVGID_2_)"
     transform="translate(304.011,288.0155)" /><path
     inkscape:connector-curvature="0"
     id="path94"
     d="m 572.023,318.003 c 0,2.124 -1.722,3.847 -3.846,3.847 -2.124,0 -3.845,-1.723 -3.845,-3.847 0,-2.123 1.721,-3.846 3.845,-3.846 2.124,0 3.846,1.723 3.846,3.846"
     clip-path="url(#SVGID_2_)"
     transform="translate(304.011,288.0155)" /><path
     inkscape:connector-curvature="0"
     id="path96"
     d="m 572.023,405.174 c 0,2.124 -1.722,3.846 -3.846,3.846 -2.124,0 -3.845,-1.722 -3.845,-3.846 0,-2.124 1.721,-3.846 3.845,-3.846 2.124,0 3.846,1.722 3.846,3.846"
     clip-path="url(#SVGID_2_)"
     transform="translate(304.011,288.0155)" /><path
     style="fill:#ffffff"
     inkscape:connector-curvature="0"
     id="path98"
     d="m 106.277,384.102 c 0,14.159 -11.479,25.638 -25.639,25.638 C 66.479,409.739 55,398.261 55,384.102 c 0,-14.16 11.479,-25.639 25.638,-25.639 14.16,0 25.639,11.478 25.639,25.639"
     clip-path="url(#SVGID_2_)"
     transform="translate(650.00298,234.45637)" /><circle
     style="fill:none;stroke:#000000;stroke-width:6;stroke-miterlimit:10"
     id="circle100"
     r="25.638"
     cy="384.10199"
     cx="80.638"
     stroke-miterlimit="10"
     clip-path="url(#SVGID_2_)"
     transform="translate(650.00298,234.45637)" /><path
     style="fill:#ffffff"
     inkscape:connector-curvature="0"
     id="path102"
     d="m 94.12,384.102 c 0,7.445 -6.036,13.48 -13.481,13.48 -7.446,0 -13.481,-6.035 -13.481,-13.48 0,-7.446 6.035,-13.48 13.481,-13.48 7.444,-0.001 13.481,6.033 13.481,13.48"
     clip-path="url(#SVGID_2_)"
     transform="translate(650.00298,234.45637)" /><circle
     style="fill:none;stroke:#1183c5;stroke-width:6;stroke-linecap:square;stroke-linejoin:bevel;stroke-miterlimit:10"
     id="circle104"
     r="13.481"
     cy="384.10199"
     cx="80.639"
     stroke-miterlimit="10"
     clip-path="url(#SVGID_2_)"
     transform="translate(650.00298,234.45637)" /><path
     style="fill:none;stroke:#000000;stroke-width:6;stroke-miterlimit:10"
     inkscape:connector-curvature="0"
     id="path106"
     d="m 560.652,131.613 c 0,0 23.502,-23.845 44.44,-28.118"
     stroke-miterlimit="10"
     clip-path="url(#SVGID_2_)"
     transform="translate(304.011,288.0155)" /><rect
     style="fill:#ffffff"
     id="rect108"
     height="51.276001"
     width="15"
     clip-path="url(#SVGID_2_)"
     y="358.46301"
     x="128"
     transform="translate(650.00298,234.45637)" /><rect
     style="fill:none;stroke:#000000;stroke-width:6;stroke-miterlimit:10"
     id="rect110"
     height="51.276001"
     width="15"
     stroke-miterlimit="10"
     clip-path="url(#SVGID_2_)"
     y="358.46301"
     x="128"
     transform="translate(650.00298,234.45637)" /></svg>