<svg xmlns="http://www.w3.org/2000/svg" xmlns:svg="http://www.w3.org/2000/svg" xmlns:xlink="http://www.w3.org/1999/xlink" id="Layer_1" width="1920" height="1080" x="0" y="0" enable-background="new 0 0 1018 520" version="1.1" viewBox="0 0 1920 1080" xml:space="preserve"><metadata id="metadata119"/><defs id="defs117"><defs id="defs3"><rect id="SVGID_1_" width="1920" height="1080" x="-262" y="-277"/></defs><clipPath id="SVGID_2_"><use id="use5" width="100%" height="100%" x="0" y="0" overflow="visible" xlink:href="#SVGID_1_"/></clipPath></defs><path id="path8" fill="#fff" d="M 495.108,441.067 H 838.319 C 893.923,441.067 939,395.991 939,340.386 939,284.781 893.924,239.706 838.319,239.706 h -1.228 c 0,-40.71 -13.759,-78.206 -36.881,-108.093" clip-path="url(#SVGID_2_)" transform="translate(304.011,288.0155)"/><path id="path10" fill="none" stroke="#000" stroke-miterlimit="10" stroke-width="6" d="M 495.108,441.067 H 838.319 C 893.923,441.067 939,395.991 939,340.386 939,284.781 893.924,239.706 838.319,239.706 h -1.228 c 0,-40.71 -13.759,-78.206 -36.881,-108.093" clip-path="url(#SVGID_2_)" transform="translate(304.011,288.0155)"/><path id="path12" fill="#fff" d="m 860.603,291.083 v 0 c 1.293,9.324 8.622,16.654 17.946,17.947 -9.324,1.293 -16.653,8.623 -17.946,17.946 -1.293,-9.323 -8.623,-16.653 -17.947,-17.946 9.323,-1.293 16.654,-8.623 17.947,-17.947" clip-path="url(#SVGID_2_)" transform="translate(304.011,288.0155)"/><path id="path14" fill="none" stroke="#1183c5" stroke-linecap="square" stroke-linejoin="bevel" stroke-miterlimit="10" stroke-width="6" d="m 860.603,291.083 v 0 c 1.293,9.324 8.622,16.654 17.946,17.947 -9.324,1.293 -16.653,8.623 -17.946,17.946 -1.293,-9.323 -8.623,-16.653 -17.947,-17.946 9.323,-1.293 16.654,-8.623 17.947,-17.947 z" clip-path="url(#SVGID_2_)" transform="translate(304.011,288.0155)"/><path id="path16" fill="#fff" d="m 391.553,282.104 c -11.697,16.448 -18.575,36.562 -18.575,58.282 0,55.604 45.076,100.681 100.681,100.681" clip-path="url(#SVGID_2_)" transform="translate(304.011,288.0155)"/><path id="path18" fill="none" stroke="#000" stroke-miterlimit="10" stroke-width="6" d="m 391.553,282.104 c -11.697,16.448 -18.575,36.562 -18.575,58.282 0,55.604 45.076,100.681 100.681,100.681" clip-path="url(#SVGID_2_)" transform="translate(304.011,288.0155)"/><path id="path20" fill="none" stroke="#1183c5" stroke-miterlimit="10" stroke-width="6" d="m 425.731,401.008 c 9.502,0 9.502,7.051 19.005,7.051 9.499,0 9.499,-7.051 18.998,-7.051 9.502,0 9.502,7.051 19.004,7.051 9.505,0 9.505,-7.051 19.01,-7.051" clip-path="url(#SVGID_2_)" transform="translate(304.011,288.0155)"/><path id="path22" fill="#fff" d="m 753.951,89.722 c -27.158,-16.996 -59.264,-26.82 -93.665,-26.82 -97.647,0 -176.805,79.158 -176.805,176.804 h -9.822 c -20.852,0 -40.223,6.339 -56.291,17.196" clip-path="url(#SVGID_2_)" transform="translate(304.011,288.0155)"/><path id="path24" fill="none" stroke="#000" stroke-miterlimit="10" stroke-width="6" d="m 753.951,89.722 c -27.158,-16.996 -59.264,-26.82 -93.665,-26.82 -97.647,0 -176.805,79.158 -176.805,176.804 h -9.822 c -20.852,0 -40.223,6.339 -56.291,17.196" clip-path="url(#SVGID_2_)" transform="translate(304.011,288.0155)"/><rect id="rect26" width="23.075" height="174.341" x="648.938" y="230.833" fill="#fff" clip-path="url(#SVGID_2_)" transform="translate(304.011,288.0155)"/><rect id="rect28" width="23.075" height="174.341" x="648.938" y="230.833" fill="none" stroke="#000" stroke-miterlimit="10" stroke-width="6" clip-path="url(#SVGID_2_)" transform="translate(304.011,288.0155)"/><polyline id="polyline30" fill="#fff" points="756.619 194.939 800.205 194.939 800.205 266.727 520.746 266.727 520.746 194.939 737.391 194.939" clip-path="url(#SVGID_2_)" transform="translate(304.011,288.0155)"/><polyline id="polyline32" fill="none" stroke="#000" stroke-miterlimit="10" stroke-width="6" points="756.619 194.939 800.205 194.939 800.205 266.727 520.746 266.727 520.746 194.939 737.391 194.939" clip-path="url(#SVGID_2_)" transform="translate(304.011,288.0155)"/><path id="path34" fill="#fff" d="m 586.125,230.833 c 0,9.912 -8.035,17.946 -17.947,17.946 -9.911,0 -17.947,-8.034 -17.947,-17.946 0,-9.912 8.036,-17.947 17.947,-17.947 9.911,0 17.947,8.035 17.947,17.947" clip-path="url(#SVGID_2_)" transform="translate(304.011,288.0155)"/><circle id="circle36" cx="568.177" cy="230.833" r="17.947" fill="none" stroke="#000" stroke-miterlimit="10" stroke-width="6" clip-path="url(#SVGID_2_)" transform="translate(304.011,288.0155)"/><path id="path38" fill="#fff" d="m 700.216,230.833 c 0,4.956 -4.018,8.974 -8.974,8.974 -4.956,0 -8.973,-4.018 -8.973,-8.974 0,-4.956 4.017,-8.974 8.973,-8.974 4.956,0 8.974,4.018 8.974,8.974" clip-path="url(#SVGID_2_)" transform="translate(304.011,288.0155)"/><circle id="circle40" cx="691.242" cy="230.833" r="8.974" fill="none" stroke="#000" stroke-miterlimit="10" stroke-width="6" clip-path="url(#SVGID_2_)" transform="translate(304.011,288.0155)"/><circle id="circle42" cx="728.418" cy="230.833" r="8.974" fill="none" stroke="#1183c5" stroke-miterlimit="10" stroke-width="6" clip-path="url(#SVGID_2_)" transform="translate(304.011,288.0155)"/><path id="path44" fill="#fff" d="m 774.566,230.833 c 0,4.956 -4.018,8.974 -8.973,8.974 -4.956,0 -8.974,-4.018 -8.974,-8.974 0,-4.956 4.018,-8.974 8.974,-8.974 4.956,0 8.973,4.018 8.973,8.974" clip-path="url(#SVGID_2_)" transform="translate(304.011,288.0155)"/><circle id="circle46" cx="765.593" cy="230.833" r="8.973" fill="none" stroke="#000" stroke-miterlimit="10" stroke-width="6" clip-path="url(#SVGID_2_)" transform="translate(304.011,288.0155)"/><rect id="rect48" width="107.681" height="53.84" x="52.268" y="135.762" fill="#fff" clip-path="url(#SVGID_2_)" transform="translate(876.02251,266.59185)"/><rect id="rect50" width="107.681" height="53.84" x="52.268" y="135.762" fill="none" stroke="#000" stroke-miterlimit="10" stroke-width="6" clip-path="url(#SVGID_2_)" transform="translate(876.02251,266.59185)"/><path id="path52" fill="#fff" d="m 121.457,162.682 c 0,8.477 -6.872,15.349 -15.348,15.349 -8.477,0 -15.349,-6.872 -15.349,-15.349 0,-8.477 6.872,-15.349 15.349,-15.349 8.475,0 15.348,6.872 15.348,15.349" clip-path="url(#SVGID_2_)" transform="translate(876.02251,266.59185)"/><circle id="circle54" cx="106.108" cy="162.682" r="15.349" fill="none" stroke="#1183c5" stroke-linecap="square" stroke-linejoin="bevel" stroke-miterlimit="10" stroke-width="6" clip-path="url(#SVGID_2_)" transform="translate(876.02251,266.59185)"/><rect id="rect56" width="279.458" height="71.788" x="520.747" y="282.109" fill="#fff" clip-path="url(#SVGID_2_)" transform="translate(304.011,288.0155)"/><rect id="rect58" width="279.458" height="71.788" x="520.747" y="282.109" fill="none" stroke="#000" stroke-miterlimit="10" stroke-width="6" clip-path="url(#SVGID_2_)" transform="translate(304.011,288.0155)"/><path id="path60" fill="#fff" d="m 586.125,318.003 c 0,9.912 -8.035,17.947 -17.947,17.947 -9.911,0 -17.947,-8.035 -17.947,-17.947 0,-9.911 8.036,-17.946 17.947,-17.946 9.911,0 17.947,8.035 17.947,17.946" clip-path="url(#SVGID_2_)" transform="translate(304.011,288.0155)"/><circle id="circle62" cx="568.177" cy="318.003" r="17.947" fill="none" stroke="#000" stroke-miterlimit="10" stroke-width="6" clip-path="url(#SVGID_2_)" transform="translate(304.011,288.0155)"/><circle id="circle64" cx="691.242" cy="318.003" r="8.974" fill="none" stroke="#1183c5" stroke-miterlimit="10" stroke-width="6" clip-path="url(#SVGID_2_)" transform="translate(304.011,288.0155)"/><path id="path66" fill="#fff" d="m 737.392,318.003 c 0,4.956 -4.018,8.974 -8.974,8.974 -4.956,0 -8.974,-4.018 -8.974,-8.974 0,-4.955 4.018,-8.973 8.974,-8.973 4.956,0 8.974,4.018 8.974,8.973" clip-path="url(#SVGID_2_)" transform="translate(304.011,288.0155)"/><circle id="circle68" cx="728.418" cy="318.003" r="8.974" fill="none" stroke="#000" stroke-miterlimit="10" stroke-width="6" clip-path="url(#SVGID_2_)" transform="translate(304.011,288.0155)"/><path id="path70" fill="#fff" d="m 774.566,318.003 c 0,4.956 -4.018,8.974 -8.973,8.974 -4.956,0 -8.974,-4.018 -8.974,-8.974 0,-4.955 4.018,-8.973 8.974,-8.973 4.956,0 8.973,4.018 8.973,8.973" clip-path="url(#SVGID_2_)" transform="translate(304.011,288.0155)"/><circle id="circle72" cx="765.593" cy="318.003" r="8.973" fill="none" stroke="#000" stroke-miterlimit="10" stroke-width="6" clip-path="url(#SVGID_2_)" transform="translate(304.011,288.0155)"/><polyline id="polyline74" fill="#fff" points="800.205 414.147 800.205 441.067 520.747 441.067 520.747 369.28 800.205 369.28 800.205 393.015" clip-path="url(#SVGID_2_)" transform="translate(304.011,288.0155)"/><polyline id="polyline76" fill="none" stroke="#000" stroke-miterlimit="10" stroke-width="6" points="800.205 414.147 800.205 441.067 520.747 441.067 520.747 369.28 800.205 369.28 800.205 393.015" clip-path="url(#SVGID_2_)" transform="translate(304.011,288.0155)"/><path id="path78" fill="#fff" d="m 586.125,405.174 c 0,9.912 -8.035,17.947 -17.947,17.947 -9.911,0 -17.947,-8.035 -17.947,-17.947 0,-9.912 8.036,-17.946 17.947,-17.946 9.911,0 17.947,8.034 17.947,17.946" clip-path="url(#SVGID_2_)" transform="translate(304.011,288.0155)"/><circle id="circle80" cx="568.177" cy="405.174" r="17.947" fill="none" stroke="#000" stroke-miterlimit="10" stroke-width="6" clip-path="url(#SVGID_2_)" transform="translate(304.011,288.0155)"/><path id="path82" fill="#fff" d="m 700.216,405.174 c 0,4.956 -4.018,8.974 -8.974,8.974 -4.956,0 -8.973,-4.018 -8.973,-8.974 0,-4.956 4.017,-8.974 8.973,-8.974 4.956,0 8.974,4.018 8.974,8.974" clip-path="url(#SVGID_2_)" transform="translate(304.011,288.0155)"/><circle id="circle84" cx="691.242" cy="405.174" r="8.974" fill="none" stroke="#000" stroke-miterlimit="10" stroke-width="6" clip-path="url(#SVGID_2_)" transform="translate(304.011,288.0155)"/><path id="path86" fill="#fff" d="m 737.392,405.174 c 0,4.956 -4.018,8.974 -8.974,8.974 -4.956,0 -8.974,-4.018 -8.974,-8.974 0,-4.956 4.018,-8.974 8.974,-8.974 4.956,0 8.974,4.018 8.974,8.974" clip-path="url(#SVGID_2_)" transform="translate(304.011,288.0155)"/><circle id="circle88" cx="728.418" cy="405.174" r="8.974" fill="none" stroke="#1183c5" stroke-linecap="square" stroke-linejoin="bevel" stroke-miterlimit="10" stroke-width="6" clip-path="url(#SVGID_2_)" transform="translate(304.011,288.0155)"/><circle id="circle90" cx="765.593" cy="405.174" r="8.973" fill="none" stroke="#1183c5" stroke-miterlimit="10" stroke-width="6" clip-path="url(#SVGID_2_)" transform="translate(304.011,288.0155)"/><path id="path92" d="m 572.023,230.833 c 0,2.124 -1.722,3.846 -3.846,3.846 -2.124,0 -3.845,-1.722 -3.845,-3.846 0,-2.124 1.721,-3.846 3.845,-3.846 2.124,0 3.846,1.722 3.846,3.846" clip-path="url(#SVGID_2_)" transform="translate(304.011,288.0155)"/><path id="path94" d="m 572.023,318.003 c 0,2.124 -1.722,3.847 -3.846,3.847 -2.124,0 -3.845,-1.723 -3.845,-3.847 0,-2.123 1.721,-3.846 3.845,-3.846 2.124,0 3.846,1.723 3.846,3.846" clip-path="url(#SVGID_2_)" transform="translate(304.011,288.0155)"/><path id="path96" d="m 572.023,405.174 c 0,2.124 -1.722,3.846 -3.846,3.846 -2.124,0 -3.845,-1.722 -3.845,-3.846 0,-2.124 1.721,-3.846 3.845,-3.846 2.124,0 3.846,1.722 3.846,3.846" clip-path="url(#SVGID_2_)" transform="translate(304.011,288.0155)"/><path id="path98" fill="#fff" d="m 106.277,384.102 c 0,14.159 -11.479,25.638 -25.639,25.638 C 66.479,409.739 55,398.261 55,384.102 c 0,-14.16 11.479,-25.639 25.638,-25.639 14.16,0 25.639,11.478 25.639,25.639" clip-path="url(#SVGID_2_)" transform="translate(650.00298,234.45637)"/><circle id="circle100" cx="80.638" cy="384.102" r="25.638" fill="none" stroke="#000" stroke-miterlimit="10" stroke-width="6" clip-path="url(#SVGID_2_)" transform="translate(650.00298,234.45637)"/><path id="path102" fill="#fff" d="m 94.12,384.102 c 0,7.445 -6.036,13.48 -13.481,13.48 -7.446,0 -13.481,-6.035 -13.481,-13.48 0,-7.446 6.035,-13.48 13.481,-13.48 7.444,-0.001 13.481,6.033 13.481,13.48" clip-path="url(#SVGID_2_)" transform="translate(650.00298,234.45637)"/><circle id="circle104" cx="80.639" cy="384.102" r="13.481" fill="none" stroke="#1183c5" stroke-linecap="square" stroke-linejoin="bevel" stroke-miterlimit="10" stroke-width="6" clip-path="url(#SVGID_2_)" transform="translate(650.00298,234.45637)"/><path id="path106" fill="none" stroke="#000" stroke-miterlimit="10" stroke-width="6" d="m 560.652,131.613 c 0,0 23.502,-23.845 44.44,-28.118" clip-path="url(#SVGID_2_)" transform="translate(304.011,288.0155)"/><rect id="rect108" width="15" height="51.276" x="128" y="358.463" fill="#fff" clip-path="url(#SVGID_2_)" transform="translate(650.00298,234.45637)"/><rect id="rect110" width="15" height="51.276" x="128" y="358.463" fill="none" stroke="#000" stroke-miterlimit="10" stroke-width="6" clip-path="url(#SVGID_2_)" transform="translate(650.00298,234.45637)"/></svg>