<?xml version="1.0" encoding="UTF-8" standalone="no"?>
<svg
   xmlns:dc="http://purl.org/dc/elements/1.1/"
   xmlns:cc="http://creativecommons.org/ns#"
   xmlns:rdf="http://www.w3.org/1999/02/22-rdf-syntax-ns#"
   xmlns:svg="http://www.w3.org/2000/svg"
   xmlns="http://www.w3.org/2000/svg"
   xmlns:xlink="http://www.w3.org/1999/xlink"
   xml:space="preserve"
   enable-background="new 0 0 1920 1080"
   viewBox="0 0 1920 1080"
   height="1080px"
   width="1920px"
   y="0px"
   x="0px"
   id="Layer_1"
   version="1.1"><metadata
     id="metadata265"><rdf:RDF><cc:Work
         rdf:about=""><dc:format>image/svg+xml</dc:format><dc:type
           rdf:resource="http://purl.org/dc/dcmitype/StillImage" /><dc:title></dc:title></cc:Work></rdf:RDF></metadata><defs
     id="defs263"><defs
       id="defs145"><rect
         id="SVGID_7_"
         width="1920"
         height="1080" /></defs><clipPath
       id="SVGID_8_"><use
         xlink:href="#SVGID_7_"
         overflow="visible"
         id="use147" /></clipPath><defs
       id="defs119"><rect
         id="SVGID_5_"
         width="1920"
         height="1080" /></defs><clipPath
       id="SVGID_6_"><use
         xlink:href="#SVGID_5_"
         overflow="visible"
         id="use121" /></clipPath><defs
       id="defs49"><rect
         id="SVGID_3_"
         width="1920"
         height="1080" /></defs><clipPath
       id="SVGID_4_"><use
         xlink:href="#SVGID_3_"
         overflow="visible"
         id="use51" /></clipPath><defs
       id="defs3"><rect
         id="SVGID_1_"
         width="1920"
         height="1080" /></defs><clipPath
       id="SVGID_2_"><use
         xlink:href="#SVGID_1_"
         overflow="visible"
         id="use5" /></clipPath></defs><path
     clip-path="url(#SVGID_2_)"
     d="m 1005.074,292.573 c 5.642,0 5.642,5.95 11.283,5.95 5.641,0 5.641,-5.95 11.279,-5.95 5.643,0 5.643,5.95 11.284,5.95 5.644,0 5.644,-5.95 11.287,-5.95 5.642,0 5.642,5.95 11.283,5.95 5.646,0 5.646,-5.95 11.292,-5.95 5.645,0 5.645,5.95 11.291,5.95"
     id="path8"
     style="fill:#ffffff" /><path
     clip-path="url(#SVGID_2_)"
     stroke-miterlimit="10"
     d="m 1005.074,292.573 c 5.642,0 5.642,5.95 11.283,5.95 5.641,0 5.641,-5.95 11.279,-5.95 5.643,0 5.643,5.95 11.284,5.95 5.644,0 5.644,-5.95 11.287,-5.95 5.642,0 5.642,5.95 11.283,5.95 5.646,0 5.646,-5.95 11.292,-5.95 5.645,0 5.645,5.95 11.291,5.95"
     id="path10"
     style="fill:none;stroke:#1183c5;stroke-width:6;stroke-miterlimit:10" /><line
     clip-path="url(#SVGID_2_)"
     stroke-miterlimit="10"
     x1="492.18399"
     y1="391.285"
     x2="492.18399"
     y2="412.285"
     id="line12"
     style="fill:none;stroke:#000000;stroke-width:6;stroke-miterlimit:10" /><line
     clip-path="url(#SVGID_2_)"
     stroke-miterlimit="10"
     x1="502.68399"
     y1="401.785"
     x2="481.68399"
     y2="401.785"
     id="line14"
     style="fill:none;stroke:#000000;stroke-width:6;stroke-miterlimit:10" /><circle
     clip-path="url(#SVGID_2_)"
     stroke-miterlimit="10"
     cx="619.36401"
     cy="329.021"
     r="7"
     id="circle16"
     style="fill:none;stroke:#000000;stroke-width:6;stroke-miterlimit:10" /><path
     clip-path="url(#SVGID_2_)"
     d="m 546.68,273.748 v 0 c 1.008,7.273 6.727,12.991 14,14 -7.273,1.009 -12.992,6.727 -14,14 -1.009,-7.273 -6.727,-12.991 -14,-14 7.273,-1.009 12.991,-6.727 14,-14"
     id="path18"
     style="fill:#ffffff" /><path
     clip-path="url(#SVGID_2_)"
     stroke-miterlimit="10"
     d="m 546.68,273.748 v 0 c 1.008,7.273 6.727,12.991 14,14 -7.273,1.009 -12.992,6.727 -14,14 -1.009,-7.273 -6.727,-12.991 -14,-14 7.273,-1.009 12.991,-6.727 14,-14 z"
     id="path20"
     style="fill:none;stroke:#1183c5;stroke-width:6;stroke-linecap:square;stroke-linejoin:bevel;stroke-miterlimit:10" /><line
     clip-path="url(#SVGID_2_)"
     stroke-miterlimit="10"
     x1="1425.734"
     y1="389.05399"
     x2="1425.734"
     y2="410.05399"
     id="line22"
     style="fill:none;stroke:#000000;stroke-width:6;stroke-miterlimit:10" /><line
     clip-path="url(#SVGID_2_)"
     stroke-miterlimit="10"
     x1="1415.234"
     y1="399.55399"
     x2="1436.234"
     y2="399.55399"
     id="line24"
     style="fill:none;stroke:#000000;stroke-width:6;stroke-miterlimit:10" /><circle
     clip-path="url(#SVGID_2_)"
     stroke-miterlimit="10"
     cx="1298.554"
     cy="326.789"
     r="7"
     id="circle26"
     style="fill:none;stroke:#000000;stroke-width:6;stroke-miterlimit:10" /><path
     clip-path="url(#SVGID_2_)"
     d="m 1371.238,271.517 v 0 c -1.009,7.273 -6.727,12.991 -14,14 7.273,1.009 12.991,6.727 14,14 1.009,-7.273 6.727,-12.991 14,-14 -7.273,-1.009 -12.991,-6.727 -14,-14"
     id="path28"
     style="fill:#ffffff" /><path
     clip-path="url(#SVGID_2_)"
     stroke-miterlimit="10"
     d="m 1371.238,271.517 v 0 c -1.009,7.273 -6.727,12.991 -14,14 7.273,1.009 12.991,6.727 14,14 1.009,-7.273 6.727,-12.991 14,-14 -7.273,-1.009 -12.991,-6.727 -14,-14 z"
     id="path30"
     style="fill:none;stroke:#1183c5;stroke-width:6;stroke-linecap:square;stroke-linejoin:bevel;stroke-miterlimit:10" /><path
     clip-path="url(#SVGID_2_)"
     d="m 1215,288.5 c 1.931,0 1.934,-3 0,-3 -1.931,0 -1.934,3 0,3"
     id="path32"
     style="fill:#1183c5" /><line
     clip-path="url(#SVGID_2_)"
     x1="953.40698"
     y1="505"
     x2="908.40698"
     y2="505"
     id="line34"
     style="fill:#ffffff" /><line
     clip-path="url(#SVGID_2_)"
     stroke-miterlimit="10"
     x1="953.40698"
     y1="505"
     x2="908.40698"
     y2="505"
     id="line36"
     style="fill:none;stroke:#1183c5;stroke-width:6;stroke-miterlimit:10" /><rect
     id="rect40"
     height="155.137"
     width="25.856"
     fill="#FFFFFF"
     y="471.542"
     x="945.499" /><rect
     id="rect42"
     height="155.137"
     width="25.856"
     stroke-miterlimit="10"
     stroke-width="6"
     stroke="#000000"
     fill="none"
     y="471.542"
     x="945.499" /><polyline
     id="polyline44"
     points="883.407,471 801.407,471 801.407,391 1064.406,390.899 1066.406,391 1115.406,391 1115.406,471   910.407,471 "
     fill="#FFFFFF" /><polyline
     id="polyline46"
     points="883.407,471 801.407,471 801.407,391   1064.406,390.899 1066.406,391 1115.406,391 1115.406,471 910.407,471 "
     stroke-miterlimit="10"
     stroke-width="6"
     stroke="#000000"
     fill="none" /><path
     clip-path="url(#SVGID_4_)"
     d="m 875.113,431.321 c 0,11.106 -9.004,20.11 -20.11,20.11 -11.107,0 -20.111,-9.004 -20.111,-20.11 0,-11.106 9.004,-20.11 20.111,-20.11 11.106,0 20.11,9.004 20.11,20.11"
     id="path54"
     style="fill:#ffffff" /><circle
     clip-path="url(#SVGID_4_)"
     stroke-miterlimit="10"
     cx="855.00299"
     cy="431.32101"
     r="20.111"
     id="circle56"
     style="fill:none;stroke:#000000;stroke-width:6;stroke-miterlimit:10" /><path
     clip-path="url(#SVGID_4_)"
     d="m 1002.957,431.321 c 0,5.554 -4.502,10.056 -10.056,10.056 -5.553,0 -10.055,-4.502 -10.055,-10.056 0,-5.553 4.502,-10.055 10.055,-10.055 5.554,0 10.056,4.503 10.056,10.055"
     id="path58"
     style="fill:#ffffff" /><circle
     clip-path="url(#SVGID_4_)"
     stroke-miterlimit="10"
     cx="992.90198"
     cy="431.32101"
     r="10.055"
     id="circle60"
     style="fill:none;stroke:#000000;stroke-width:6;stroke-miterlimit:10" /><path
     clip-path="url(#SVGID_4_)"
     d="m 1044.614,431.321 c 0,5.554 -4.502,10.056 -10.056,10.056 -5.553,0 -10.055,-4.502 -10.055,-10.056 0,-5.553 4.502,-10.055 10.055,-10.055 5.554,0 10.056,4.503 10.056,10.055"
     id="path62"
     style="fill:#ffffff" /><circle
     clip-path="url(#SVGID_4_)"
     stroke-miterlimit="10"
     cx="1034.559"
     cy="431.32101"
     r="10.055"
     id="circle64"
     style="fill:none;stroke:#000000;stroke-width:6;stroke-miterlimit:10" /><path
     clip-path="url(#SVGID_4_)"
     d="m 1086.271,431.321 c 0,5.554 -4.502,10.056 -10.056,10.056 -5.554,0 -10.055,-4.502 -10.055,-10.056 0,-5.553 4.501,-10.055 10.055,-10.055 5.554,0 10.056,4.503 10.056,10.055"
     id="path66"
     style="fill:#ffffff" /><circle
     clip-path="url(#SVGID_4_)"
     stroke-miterlimit="10"
     cx="1076.2159"
     cy="431.32101"
     r="10.055"
     id="circle68"
     style="fill:none;stroke:#000000;stroke-width:6;stroke-miterlimit:10" /><rect
     x="802.40601"
     y="489"
     clip-path="url(#SVGID_4_)"
     width="313"
     height="80"
     id="rect70"
     style="fill:#ffffff" /><rect
     x="802.40601"
     y="489"
     clip-path="url(#SVGID_4_)"
     stroke-miterlimit="10"
     width="313"
     height="80"
     id="rect72"
     style="fill:none;stroke:#000000;stroke-width:6;stroke-miterlimit:10" /><path
     clip-path="url(#SVGID_4_)"
     d="m 875.113,529 c 0,11.106 -9.004,20.11 -20.11,20.11 -11.107,0 -20.111,-9.004 -20.111,-20.11 0,-11.106 9.004,-20.11 20.111,-20.11 11.106,0 20.11,9.004 20.11,20.11"
     id="path74"
     style="fill:#ffffff" /><circle
     clip-path="url(#SVGID_4_)"
     stroke-miterlimit="10"
     cx="855.00299"
     cy="529"
     r="20.111"
     id="circle76"
     style="fill:none;stroke:#000000;stroke-width:6;stroke-miterlimit:10" /><path
     clip-path="url(#SVGID_4_)"
     d="m 1002.957,529 c 0,5.554 -4.502,10.055 -10.056,10.055 -5.553,0 -10.055,-4.501 -10.055,-10.055 0,-5.554 4.502,-10.055 10.055,-10.055 5.554,0 10.056,4.501 10.056,10.055"
     id="path78"
     style="fill:#ffffff" /><circle
     clip-path="url(#SVGID_4_)"
     stroke-miterlimit="10"
     cx="992.90198"
     cy="529"
     r="10.055"
     id="circle80"
     style="fill:none;stroke:#000000;stroke-width:6;stroke-miterlimit:10" /><path
     clip-path="url(#SVGID_4_)"
     d="m 1044.614,529 c 0,5.554 -4.502,10.055 -10.056,10.055 -5.553,0 -10.055,-4.501 -10.055,-10.055 0,-5.554 4.502,-10.055 10.055,-10.055 5.554,0 10.056,4.501 10.056,10.055"
     id="path82"
     style="fill:#ffffff" /><circle
     clip-path="url(#SVGID_4_)"
     stroke-miterlimit="10"
     cx="1034.559"
     cy="529"
     r="10.055"
     id="circle84"
     style="fill:none;stroke:#000000;stroke-width:6;stroke-miterlimit:10" /><path
     clip-path="url(#SVGID_4_)"
     d="m 1086.271,529 c 0,5.554 -4.502,10.055 -10.056,10.055 -5.554,0 -10.055,-4.501 -10.055,-10.055 0,-5.554 4.501,-10.055 10.055,-10.055 5.554,0 10.056,4.501 10.056,10.055"
     id="path86"
     style="fill:#ffffff" /><circle
     clip-path="url(#SVGID_4_)"
     stroke-miterlimit="10"
     cx="1076.2159"
     cy="529"
     r="10.055"
     id="circle88"
     style="fill:none;stroke:#1183c5;stroke-width:6;stroke-miterlimit:10" /><polyline
     clip-path="url(#SVGID_4_)"
     points="1115.406,637 1115.406,667 802.406,667 802.406,587 1115.406,587    1115.406,613  "
     id="polyline90"
     style="fill:#ffffff" /><polyline
     clip-path="url(#SVGID_4_)"
     stroke-miterlimit="10"
     points="1115.406,637    1115.406,667 802.406,667 802.406,587 1115.406,587 1115.406,613  "
     id="polyline92"
     style="fill:none;stroke:#000000;stroke-width:6;stroke-miterlimit:10" /><path
     clip-path="url(#SVGID_4_)"
     d="m 875.113,626.679 c 0,11.106 -9.004,20.11 -20.11,20.11 -11.107,0 -20.111,-9.004 -20.111,-20.11 0,-11.106 9.004,-20.11 20.111,-20.11 11.106,-10e-4 20.11,9.003 20.11,20.11"
     id="path94"
     style="fill:#ffffff" /><circle
     clip-path="url(#SVGID_4_)"
     stroke-miterlimit="10"
     cx="855.00299"
     cy="626.67902"
     r="20.111"
     id="circle96"
     style="fill:none;stroke:#000000;stroke-width:6;stroke-miterlimit:10" /><path
     clip-path="url(#SVGID_4_)"
     d="m 1002.957,626.679 c 0,5.553 -4.502,10.055 -10.056,10.055 -5.553,0 -10.055,-4.502 -10.055,-10.055 0,-5.554 4.502,-10.056 10.055,-10.056 5.554,0 10.056,4.502 10.056,10.056"
     id="path98"
     style="fill:#ffffff" /><circle
     clip-path="url(#SVGID_4_)"
     stroke-miterlimit="10"
     cx="992.90198"
     cy="626.67902"
     r="10.055"
     id="circle100"
     style="fill:none;stroke:#1183c5;stroke-width:6;stroke-miterlimit:10" /><path
     clip-path="url(#SVGID_4_)"
     d="m 1044.614,626.679 c 0,5.553 -4.502,10.055 -10.056,10.055 -5.553,0 -10.055,-4.502 -10.055,-10.055 0,-5.554 4.502,-10.056 10.055,-10.056 5.554,0 10.056,4.502 10.056,10.056"
     id="path102"
     style="fill:#ffffff" /><circle
     clip-path="url(#SVGID_4_)"
     stroke-miterlimit="10"
     cx="1034.559"
     cy="626.67902"
     r="10.055"
     id="circle104"
     style="fill:none;stroke:#000000;stroke-width:6;stroke-miterlimit:10" /><path
     clip-path="url(#SVGID_4_)"
     d="m 1086.271,626.679 c 0,5.553 -4.502,10.055 -10.056,10.055 -5.554,0 -10.055,-4.502 -10.055,-10.055 0,-5.554 4.501,-10.056 10.055,-10.056 5.554,0 10.056,4.502 10.056,10.056"
     id="path106"
     style="fill:#ffffff" /><circle
     clip-path="url(#SVGID_4_)"
     stroke-miterlimit="10"
     cx="1076.2159"
     cy="626.67902"
     r="10.055"
     id="circle108"
     style="fill:none;stroke:#000000;stroke-width:6;stroke-miterlimit:10" /><path
     clip-path="url(#SVGID_4_)"
     d="m 859.312,431.321 c 0,2.38 -1.929,4.31 -4.309,4.31 -2.38,0 -4.31,-1.93 -4.31,-4.31 0,-2.38 1.93,-4.31 4.31,-4.31 2.38,0 4.309,1.93 4.309,4.31"
     id="path110" /><path
     clip-path="url(#SVGID_4_)"
     d="m 859.312,529 c 0,2.38 -1.929,4.31 -4.309,4.31 -2.38,0 -4.31,-1.93 -4.31,-4.31 0,-2.38 1.93,-4.31 4.31,-4.31 2.38,0 4.309,1.93 4.309,4.31"
     id="path112" /><path
     clip-path="url(#SVGID_4_)"
     d="m 859.312,626.679 c 0,2.38 -1.929,4.31 -4.309,4.31 -2.38,0 -4.31,-1.93 -4.31,-4.31 0,-2.38 1.93,-4.31 4.31,-4.31 2.38,0 4.309,1.93 4.309,4.31"
     id="path114" /><circle
     clip-path="url(#SVGID_6_)"
     stroke-miterlimit="10"
     cx="956.42401"
     cy="166.472"
     r="49.471001"
     id="circle124"
     style="fill:none;stroke:#000000;stroke-width:6;stroke-miterlimit:10" /><path
     clip-path="url(#SVGID_6_)"
     stroke-miterlimit="10"
     d="m 906.953,174.511 c 0,0 32.156,-8.039 51.945,-30.302 0,0 17.314,17.316 46.998,22.263"
     id="path126"
     style="fill:none;stroke:#000000;stroke-width:6;stroke-linejoin:round;stroke-miterlimit:10" /><path
     clip-path="url(#SVGID_6_)"
     stroke-miterlimit="10"
     d="M 1046.698,391 H 870.219 l 4.79,-81.245 0.87,-14.754 1.694,-28.735 c 0,-13.402 10.864,-24.266 24.266,-24.266 h 113.24 c 13.401,0 24.265,10.864 24.265,24.266 z"
     id="path128"
     style="fill:none;stroke:#000000;stroke-width:6;stroke-miterlimit:10" /><line
     clip-path="url(#SVGID_6_)"
     stroke-miterlimit="10"
     x1="1011.747"
     y1="391.617"
     x2="1011.747"
     y2="319.349"
     id="line130"
     style="fill:none;stroke:#000000;stroke-width:6;stroke-miterlimit:10" /><line
     clip-path="url(#SVGID_6_)"
     stroke-miterlimit="10"
     x1="908.49402"
     y1="391.617"
     x2="908.49402"
     y2="319.349"
     id="line132"
     style="fill:none;stroke:#000000;stroke-width:6;stroke-miterlimit:10" /><polygon
     clip-path="url(#SVGID_6_)"
     stroke-miterlimit="10"
     points="943.824,242.193 973.094,242.193 964.615,268.443 952.302,268.443 "
     id="polygon134"
     style="fill:none;stroke:#000000;stroke-width:6;stroke-miterlimit:10" /><polygon
     clip-path="url(#SVGID_6_)"
     stroke-miterlimit="10"
     points="939.728,332.253 953.369,268.443 963.548,268.443 977.19,332.253 958.415,359.251 "
     id="polygon136"
     style="fill:none;stroke:#000000;stroke-width:6;stroke-miterlimit:10" /><line
     clip-path="url(#SVGID_6_)"
     x1="908.49402"
     y1="301.74799"
     x2="908.49402"
     y2="285.517"
     id="line138"
     style="fill:#ffffff" /><line
     clip-path="url(#SVGID_6_)"
     stroke-miterlimit="10"
     x1="908.49402"
     y1="301.74799"
     x2="908.49402"
     y2="285.517"
     id="line140"
     style="fill:none;stroke:#000000;stroke-width:6;stroke-miterlimit:10" /><path
     clip-path="url(#SVGID_8_)"
     d="m 1260.814,734.191 -26.028,-13.913 c -10.577,-5.653 -14.568,-18.812 -8.914,-29.39 l 101.621,-190.114 c 9.496,-17.765 31.595,-24.468 49.36,-14.973 17.765,9.496 24.469,31.596 14.973,49.361 l -101.622,190.114 c -5.653,10.578 -18.811,14.57 -29.39,8.915"
     id="path150"
     style="fill:#ffffff" /><path
     clip-path="url(#SVGID_8_)"
     stroke-miterlimit="10"
     d="m 1260.814,734.191 -26.028,-13.913 c -10.577,-5.653 -14.568,-18.812 -8.914,-29.39 l 101.621,-190.114 c 9.496,-17.765 31.595,-24.468 49.36,-14.973 17.765,9.496 24.469,31.596 14.973,49.361 l -101.622,190.114 c -5.653,10.578 -18.811,14.57 -29.39,8.915 z"
     id="path152"
     style="fill:none;stroke:#000000;stroke-width:6;stroke-miterlimit:10" /><path
     clip-path="url(#SVGID_8_)"
     d="m 1275.964,768.077 -28.849,-6.226 c -11.725,-2.529 -19.178,-14.084 -16.648,-25.809 l 57.308,-265.596 c 4.248,-19.69 23.655,-32.209 43.346,-27.961 19.69,4.249 32.208,23.655 27.96,43.346 l -57.308,265.597 c -2.53,11.725 -14.085,19.178 -25.809,16.649"
     id="path154"
     style="fill:#ffffff" /><path
     clip-path="url(#SVGID_8_)"
     stroke-miterlimit="10"
     d="m 1275.964,768.077 -28.849,-6.226 c -11.725,-2.529 -19.178,-14.084 -16.648,-25.809 l 57.308,-265.596 c 4.248,-19.69 23.655,-32.209 43.346,-27.961 19.69,4.249 32.208,23.655 27.96,43.346 l -57.308,265.597 c -2.53,11.725 -14.085,19.178 -25.809,16.649 z"
     id="path156"
     style="fill:none;stroke:#000000;stroke-width:6;stroke-miterlimit:10" /><path
     clip-path="url(#SVGID_8_)"
     d="m 1286.724,697.686 c 0.386,-17.506 -1.769,-109.932 -2.883,-155.523 -0.395,-16.164 -7.849,-31.335 -20.398,-41.532 l -83.301,-67.668 c -16.56,-13.451 -40.887,-10.932 -54.338,5.627 -13.452,16.559 -10.933,40.887 5.626,54.339 l 65.431,53.151 c 5.433,4.413 8.729,10.932 9.061,17.923 l 4.513,94.897 c 0.041,1.078 -0.528,2.088 -1.472,2.61 l -83.18,46.07 c -1.021,0.564 -2.282,0.453 -3.188,-0.282 l -33.516,-27.227 c -24.703,-20.067 -60.995,-16.309 -81.062,8.394 l -6.407,7.887 c -3.298,4.06 -2.68,10.024 1.38,13.321 l 101.363,81.579 c 16.048,12.916 36.03,19.958 56.631,19.958 0.615,0 1.214,0.198 1.707,0.565 l 100.671,74.944 c 1.288,0.958 3.112,0.669 4.04,-0.641 l 90.754,-128.026 c 0.895,-1.264 0.623,-3.008 -0.613,-3.938 l -48.166,-36.957"
     id="path158"
     style="fill:#ffffff" /><path
     clip-path="url(#SVGID_8_)"
     stroke-miterlimit="10"
     d="m 1286.724,697.686 c 0.386,-17.506 -1.769,-109.932 -2.883,-155.523 -0.395,-16.164 -7.849,-31.335 -20.398,-41.532 l -83.301,-67.668 c -16.56,-13.451 -40.887,-10.932 -54.338,5.627 -13.452,16.559 -10.933,40.887 5.626,54.339 l 65.431,53.151 c 5.433,4.413 8.729,10.932 9.061,17.923 l 4.513,94.897 c 0.041,1.078 -0.528,2.088 -1.472,2.61 l -83.18,46.07 c -1.021,0.564 -2.282,0.453 -3.188,-0.282 l -33.516,-27.227 c -24.703,-20.067 -60.995,-16.309 -81.062,8.394 l -6.407,7.887 c -3.298,4.06 -2.68,10.024 1.38,13.321 l 101.363,81.579 c 16.048,12.916 36.03,19.958 56.631,19.958 0.615,0 1.214,0.198 1.707,0.565 l 100.671,74.944 c 1.288,0.958 3.112,0.669 4.04,-0.641 l 90.754,-128.026 c 0.895,-1.264 0.623,-3.008 -0.613,-3.938 l -48.166,-36.957"
     id="path160"
     style="fill:none;stroke:#000000;stroke-width:6;stroke-linecap:round;stroke-miterlimit:10" /><path
     clip-path="url(#SVGID_8_)"
     d="m 1422.396,784.112 c 4.44,-6.181 3.03,-14.792 -3.15,-19.233 l -47.856,-34.384 c -6.182,-4.44 -14.792,-3.03 -19.232,3.151 L 1243.065,885.48 c -4.44,6.181 -3.03,14.792 3.15,19.232 l 47.856,34.384 c 6.18,4.441 14.792,3.031 19.232,-3.15 z"
     id="path162"
     style="fill:#ffffff" /><path
     clip-path="url(#SVGID_8_)"
     stroke-miterlimit="10"
     d="m 1422.396,784.112 c 4.44,-6.181 3.03,-14.792 -3.15,-19.233 l -47.856,-34.384 c -6.182,-4.44 -14.792,-3.03 -19.232,3.151 L 1243.065,885.48 c -4.44,6.181 -3.03,14.792 3.15,19.232 l 47.856,34.384 c 6.18,4.441 14.792,3.031 19.232,-3.15 z"
     id="path164"
     style="fill:none;stroke:#000000;stroke-width:6;stroke-miterlimit:10" /><path
     clip-path="url(#SVGID_8_)"
     d="m 1353.455,786.653 c 1.422,8.68 9.61,14.563 18.289,13.141 8.68,-1.422 14.562,-9.61 13.141,-18.289 -1.421,-8.68 -9.61,-14.562 -18.289,-13.142 -8.68,1.422 -14.563,9.611 -13.141,18.29"
     id="path166"
     style="fill:#ffffff" /><circle
     clip-path="url(#SVGID_8_)"
     stroke-miterlimit="10"
     cx="1369.17"
     cy="784.07898"
     r="15.924"
     id="circle168"
     style="fill:none;stroke:#000000;stroke-width:6;stroke-miterlimit:10" /><line
     clip-path="url(#SVGID_8_)"
     x1="1410.5649"
     y1="800.57703"
     x2="1447"
     y2="828.02802"
     id="line170"
     style="fill:#ffffff" /><line
     clip-path="url(#SVGID_8_)"
     stroke-miterlimit="10"
     x1="1410.5649"
     y1="800.57703"
     x2="1447"
     y2="828.02802"
     id="line172"
     style="fill:none;stroke:#000000;stroke-width:6;stroke-miterlimit:10" /><path
     clip-path="url(#SVGID_8_)"
     d="m 1375.775,782.997 c 0.598,3.647 -1.875,7.09 -5.523,7.688 -3.647,0.598 -7.09,-1.875 -7.688,-5.523 -0.598,-3.648 1.875,-7.09 5.523,-7.687 3.649,-0.599 7.091,1.875 7.688,5.522"
     id="path174"
     style="fill:#ffffff" /><circle
     clip-path="url(#SVGID_8_)"
     stroke-miterlimit="10"
     cx="1369.17"
     cy="784.07898"
     r="6.6939998"
     id="circle176"
     style="fill:none;stroke:#000000;stroke-width:6;stroke-miterlimit:10" /><line
     clip-path="url(#SVGID_8_)"
     x1="1253.9"
     y1="869.85797"
     x2="1324.396"
     y2="920.50897"
     id="line178"
     style="fill:#ffffff" /><line
     clip-path="url(#SVGID_8_)"
     stroke-miterlimit="10"
     x1="1253.9"
     y1="869.85797"
     x2="1324.396"
     y2="920.50897"
     id="line180"
     style="fill:none;stroke:#000000;stroke-width:6;stroke-miterlimit:10" /><path
     clip-path="url(#SVGID_8_)"
     d="m 1156.526,811.031 c 14.335,0.119 28.13,-5.46 38.35,-15.512 l 4.814,-4.734"
     id="path182"
     style="fill:#ffffff" /><path
     clip-path="url(#SVGID_8_)"
     stroke-miterlimit="10"
     d="m 1156.526,811.031 c 14.335,0.119 28.13,-5.46 38.35,-15.512 l 4.814,-4.734"
     id="path184"
     style="fill:none;stroke:#000000;stroke-width:6;stroke-linecap:round;stroke-miterlimit:10" /><path
     clip-path="url(#SVGID_8_)"
     d="m 1260.814,734.191 -26.028,-13.913 c -10.577,-5.653 -14.568,-18.812 -8.914,-29.39 l 101.621,-190.114 c 9.496,-17.765 31.595,-24.468 49.36,-14.973 17.765,9.496 24.469,31.596 14.973,49.361 l -101.622,190.114 c -5.653,10.578 -18.811,14.57 -29.39,8.915"
     id="path186"
     style="fill:#ffffff" /><path
     clip-path="url(#SVGID_8_)"
     stroke-miterlimit="10"
     d="m 1260.814,734.191 -26.028,-13.913 c -10.577,-5.653 -14.568,-18.812 -8.914,-29.39 l 101.621,-190.114 c 9.496,-17.765 31.595,-24.468 49.36,-14.973 17.765,9.496 24.469,31.596 14.973,49.361 l -101.622,190.114 c -5.653,10.578 -18.811,14.57 -29.39,8.915 z"
     id="path188"
     style="fill:none;stroke:#000000;stroke-width:6;stroke-miterlimit:10" /><path
     clip-path="url(#SVGID_8_)"
     d="m 1275.964,768.077 -28.849,-6.226 c -11.725,-2.529 -19.178,-14.084 -16.648,-25.809 l 57.308,-265.596 c 4.248,-19.69 23.655,-32.209 43.346,-27.961 19.69,4.249 32.208,23.655 27.96,43.346 l -57.308,265.597 c -2.53,11.725 -14.085,19.178 -25.809,16.649"
     id="path190"
     style="fill:#ffffff" /><path
     clip-path="url(#SVGID_8_)"
     stroke-miterlimit="10"
     d="m 1275.964,768.077 -28.849,-6.226 c -11.725,-2.529 -19.178,-14.084 -16.648,-25.809 l 57.308,-265.596 c 4.248,-19.69 23.655,-32.209 43.346,-27.961 19.69,4.249 32.208,23.655 27.96,43.346 l -57.308,265.597 c -2.53,11.725 -14.085,19.178 -25.809,16.649 z"
     id="path192"
     style="fill:none;stroke:#000000;stroke-width:6;stroke-miterlimit:10" /><path
     clip-path="url(#SVGID_8_)"
     d="m 1286.724,697.686 c 0.386,-17.506 -1.769,-109.932 -2.883,-155.523 -0.395,-16.164 -7.849,-31.335 -20.398,-41.532 l -83.301,-67.668 c -16.56,-13.451 -40.887,-10.932 -54.338,5.627 -13.452,16.559 -10.933,40.887 5.626,54.339 l 65.431,53.151 c 5.433,4.413 8.729,10.932 9.061,17.923 l 4.513,94.897 c 0.041,1.078 -0.528,2.088 -1.472,2.61 l -83.18,46.07 c -1.021,0.564 -2.282,0.453 -3.188,-0.282 l -33.516,-27.227 c -24.703,-20.067 -60.995,-16.309 -81.062,8.394 l -6.407,7.887 c -3.298,4.06 -2.68,10.024 1.38,13.321 l 101.363,81.579 c 16.048,12.916 36.03,19.958 56.631,19.958 0.615,0 1.214,0.198 1.707,0.565 l 100.671,74.944 c 1.288,0.958 3.112,0.669 4.04,-0.641 l 90.754,-128.026 c 0.895,-1.264 0.623,-3.008 -0.613,-3.938 l -48.166,-36.957"
     id="path194"
     style="fill:#ffffff" /><path
     clip-path="url(#SVGID_8_)"
     stroke-miterlimit="10"
     d="m 1286.724,697.686 c 0.386,-17.506 -1.769,-109.932 -2.883,-155.523 -0.395,-16.164 -7.849,-31.335 -20.398,-41.532 l -83.301,-67.668 c -16.56,-13.451 -40.887,-10.932 -54.338,5.627 -13.452,16.559 -10.933,40.887 5.626,54.339 l 65.431,53.151 c 5.433,4.413 8.729,10.932 9.061,17.923 l 4.513,94.897 c 0.041,1.078 -0.528,2.088 -1.472,2.61 l -83.18,46.07 c -1.021,0.564 -2.282,0.453 -3.188,-0.282 l -33.516,-27.227 c -24.703,-20.067 -60.995,-16.309 -81.062,8.394 l -6.407,7.887 c -3.298,4.06 -2.68,10.024 1.38,13.321 l 101.363,81.579 c 16.048,12.916 36.03,19.958 56.631,19.958 0.615,0 1.214,0.198 1.707,0.565 l 100.671,74.944 c 1.288,0.958 3.112,0.669 4.04,-0.641 l 90.754,-128.026 c 0.895,-1.264 0.623,-3.008 -0.613,-3.938 l -48.166,-36.957"
     id="path196"
     style="fill:none;stroke:#000000;stroke-width:6;stroke-linecap:round;stroke-miterlimit:10" /><path
     clip-path="url(#SVGID_8_)"
     d="m 1422.396,784.112 c 4.44,-6.181 3.03,-14.792 -3.15,-19.233 l -47.856,-34.384 c -6.182,-4.44 -14.792,-3.03 -19.232,3.151 L 1243.065,885.48 c -4.44,6.181 -3.03,14.792 3.15,19.232 l 47.856,34.384 c 6.18,4.441 14.792,3.031 19.232,-3.15 z"
     id="path198"
     style="fill:#ffffff" /><path
     clip-path="url(#SVGID_8_)"
     stroke-miterlimit="10"
     d="m 1422.396,784.112 c 4.44,-6.181 3.03,-14.792 -3.15,-19.233 l -47.856,-34.384 c -6.182,-4.44 -14.792,-3.03 -19.232,3.151 L 1243.065,885.48 c -4.44,6.181 -3.03,14.792 3.15,19.232 l 47.856,34.384 c 6.18,4.441 14.792,3.031 19.232,-3.15 z"
     id="path200"
     style="fill:none;stroke:#000000;stroke-width:6;stroke-miterlimit:10" /><path
     clip-path="url(#SVGID_8_)"
     d="m 1353.455,786.653 c 1.422,8.68 9.61,14.563 18.289,13.141 8.68,-1.422 14.562,-9.61 13.141,-18.289 -1.421,-8.68 -9.61,-14.562 -18.289,-13.142 -8.68,1.422 -14.563,9.611 -13.141,18.29"
     id="path202"
     style="fill:#ffffff" /><circle
     clip-path="url(#SVGID_8_)"
     stroke-miterlimit="10"
     cx="1369.17"
     cy="784.07898"
     r="15.924"
     id="circle204"
     style="fill:none;stroke:#000000;stroke-width:6;stroke-miterlimit:10" /><line
     clip-path="url(#SVGID_8_)"
     x1="1410.5649"
     y1="800.57703"
     x2="1447"
     y2="828.02802"
     id="line206"
     style="fill:#ffffff" /><line
     clip-path="url(#SVGID_8_)"
     stroke-miterlimit="10"
     x1="1410.5649"
     y1="800.57703"
     x2="1447"
     y2="828.02802"
     id="line208"
     style="fill:none;stroke:#000000;stroke-width:6;stroke-miterlimit:10" /><path
     clip-path="url(#SVGID_8_)"
     d="m 1375.775,782.997 c 0.598,3.647 -1.875,7.09 -5.523,7.688 -3.647,0.598 -7.09,-1.875 -7.688,-5.523 -0.598,-3.648 1.875,-7.09 5.523,-7.687 3.649,-0.599 7.091,1.875 7.688,5.522"
     id="path210"
     style="fill:#ffffff" /><circle
     clip-path="url(#SVGID_8_)"
     stroke-miterlimit="10"
     cx="1369.17"
     cy="784.07898"
     r="6.6939998"
     id="circle212"
     style="fill:none;stroke:#000000;stroke-width:6;stroke-miterlimit:10" /><line
     clip-path="url(#SVGID_8_)"
     x1="1253.9"
     y1="869.85797"
     x2="1324.396"
     y2="920.50897"
     id="line214"
     style="fill:#ffffff" /><line
     clip-path="url(#SVGID_8_)"
     stroke-miterlimit="10"
     x1="1253.9"
     y1="869.85797"
     x2="1324.396"
     y2="920.50897"
     id="line216"
     style="fill:none;stroke:#000000;stroke-width:6;stroke-miterlimit:10" /><path
     clip-path="url(#SVGID_8_)"
     d="m 1156.526,811.031 c 14.335,0.119 28.13,-5.46 38.35,-15.512 l 4.814,-4.734"
     id="path218"
     style="fill:#ffffff" /><path
     clip-path="url(#SVGID_8_)"
     stroke-miterlimit="10"
     d="m 1156.526,811.031 c 14.335,0.119 28.13,-5.46 38.35,-15.512 l 4.814,-4.734"
     id="path220"
     style="fill:none;stroke:#000000;stroke-width:6;stroke-linecap:round;stroke-miterlimit:10" /><path
     clip-path="url(#SVGID_8_)"
     d="m 657.675,734.191 26.028,-13.913 c 10.578,-5.653 14.569,-18.812 8.915,-29.39 L 590.997,500.774 c -9.496,-17.765 -31.595,-24.468 -49.361,-14.973 -17.765,9.496 -24.468,31.596 -14.972,49.361 l 101.621,190.114 c 5.654,10.578 18.812,14.57 29.39,8.915"
     id="path222"
     style="fill:#ffffff" /><path
     clip-path="url(#SVGID_8_)"
     stroke-miterlimit="10"
     d="m 657.675,734.191 26.028,-13.913 c 10.578,-5.653 14.569,-18.812 8.915,-29.39 L 590.997,500.774 c -9.496,-17.765 -31.595,-24.468 -49.361,-14.973 -17.765,9.496 -24.468,31.596 -14.972,49.361 l 101.621,190.114 c 5.654,10.578 18.812,14.57 29.39,8.915 z"
     id="path224"
     style="fill:none;stroke:#000000;stroke-width:6;stroke-miterlimit:10" /><path
     clip-path="url(#SVGID_8_)"
     d="m 642.525,768.077 28.85,-6.226 c 11.723,-2.529 19.177,-14.084 16.647,-25.809 L 630.715,470.446 c -4.249,-19.69 -23.655,-32.209 -43.346,-27.961 -19.69,4.249 -32.208,23.655 -27.96,43.346 l 57.307,265.597 c 2.53,11.725 14.085,19.178 25.809,16.649"
     id="path226"
     style="fill:#ffffff" /><path
     clip-path="url(#SVGID_8_)"
     stroke-miterlimit="10"
     d="m 642.525,768.077 28.85,-6.226 c 11.723,-2.529 19.177,-14.084 16.647,-25.809 L 630.715,470.446 c -4.249,-19.69 -23.655,-32.209 -43.346,-27.961 -19.69,4.249 -32.208,23.655 -27.96,43.346 l 57.307,265.597 c 2.53,11.725 14.085,19.178 25.809,16.649 z"
     id="path228"
     style="fill:none;stroke:#000000;stroke-width:6;stroke-miterlimit:10" /><path
     clip-path="url(#SVGID_8_)"
     d="m 631.767,697.686 c -0.387,-17.506 1.768,-109.932 2.882,-155.523 0.395,-16.164 7.849,-31.335 20.398,-41.532 l 83.301,-67.668 c 16.559,-13.451 40.887,-10.932 54.338,5.627 13.452,16.559 10.933,40.887 -5.626,54.339 l -65.43,53.151 c -5.433,4.413 -8.728,10.932 -9.061,17.923 l -4.512,94.897 c -0.042,1.078 0.527,2.088 1.471,2.61 l 83.179,46.07 c 1.021,0.564 2.284,0.453 3.189,-0.282 l 33.517,-27.227 c 24.702,-20.067 60.994,-16.309 81.061,8.394 l 6.406,7.887 c 3.298,4.06 2.68,10.024 -1.379,13.321 l -101.363,81.579 c -16.049,12.916 -36.031,19.958 -56.631,19.958 -0.615,0 -1.214,0.198 -1.708,0.565 l -100.67,74.944 c -1.288,0.958 -3.112,0.669 -4.041,-0.641 L 560.335,758.052 c -0.895,-1.264 -0.623,-3.008 0.613,-3.938 l 48.166,-36.957"
     id="path230"
     style="fill:#ffffff" /><path
     clip-path="url(#SVGID_8_)"
     stroke-miterlimit="10"
     d="m 631.767,697.686 c -0.387,-17.506 1.768,-109.932 2.882,-155.523 0.395,-16.164 7.849,-31.335 20.398,-41.532 l 83.301,-67.668 c 16.559,-13.451 40.887,-10.932 54.338,5.627 13.452,16.559 10.933,40.887 -5.626,54.339 l -65.43,53.151 c -5.433,4.413 -8.728,10.932 -9.061,17.923 l -4.512,94.897 c -0.042,1.078 0.527,2.088 1.471,2.61 l 83.179,46.07 c 1.021,0.564 2.284,0.453 3.189,-0.282 l 33.517,-27.227 c 24.702,-20.067 60.994,-16.309 81.061,8.394 l 6.406,7.887 c 3.298,4.06 2.68,10.024 -1.379,13.321 l -101.363,81.579 c -16.049,12.916 -36.031,19.958 -56.631,19.958 -0.615,0 -1.214,0.198 -1.708,0.565 l -100.67,74.944 c -1.288,0.958 -3.112,0.669 -4.041,-0.641 L 560.335,758.052 c -0.895,-1.264 -0.623,-3.008 0.613,-3.938 l 48.166,-36.957"
     id="path232"
     style="fill:none;stroke:#000000;stroke-width:6;stroke-linecap:round;stroke-miterlimit:10" /><path
     clip-path="url(#SVGID_8_)"
     d="m 496.094,784.112 c -4.441,-6.181 -3.031,-14.792 3.15,-19.233 L 547.1,730.495 c 6.182,-4.44 14.792,-3.03 19.234,3.151 l 109.09,151.834 c 4.441,6.181 3.03,14.792 -3.15,19.232 l -47.857,34.384 c -6.18,4.441 -14.792,3.031 -19.233,-3.15 z"
     id="path234"
     style="fill:#ffffff" /><path
     clip-path="url(#SVGID_8_)"
     stroke-miterlimit="10"
     d="m 496.094,784.112 c -4.441,-6.181 -3.031,-14.792 3.15,-19.233 L 547.1,730.495 c 6.182,-4.44 14.792,-3.03 19.234,3.151 l 109.09,151.834 c 4.441,6.181 3.03,14.792 -3.15,19.232 l -47.857,34.384 c -6.18,4.441 -14.792,3.031 -19.233,-3.15 z"
     id="path236"
     style="fill:none;stroke:#000000;stroke-width:6;stroke-miterlimit:10" /><path
     clip-path="url(#SVGID_8_)"
     d="m 565.035,786.653 c -1.422,8.68 -9.61,14.563 -18.29,13.141 -8.679,-1.422 -14.562,-9.61 -13.14,-18.289 1.422,-8.68 9.61,-14.562 18.289,-13.142 8.68,1.422 14.563,9.611 13.141,18.29"
     id="path238"
     style="fill:#ffffff" /><circle
     clip-path="url(#SVGID_8_)"
     stroke-miterlimit="10"
     cx="549.32001"
     cy="784.07898"
     r="15.925"
     id="circle240"
     style="fill:none;stroke:#000000;stroke-width:6;stroke-miterlimit:10" /><line
     clip-path="url(#SVGID_8_)"
     x1="507.92401"
     y1="800.57703"
     x2="471.48999"
     y2="828.02802"
     id="line242"
     style="fill:#ffffff" /><line
     clip-path="url(#SVGID_8_)"
     stroke-miterlimit="10"
     x1="507.92401"
     y1="800.57703"
     x2="471.48999"
     y2="828.02802"
     id="line244"
     style="fill:none;stroke:#000000;stroke-width:6;stroke-miterlimit:10" /><path
     clip-path="url(#SVGID_8_)"
     d="m 542.714,782.997 c -0.598,3.647 1.875,7.09 5.523,7.688 3.648,0.598 7.09,-1.875 7.687,-5.523 0.598,-3.648 -1.875,-7.09 -5.523,-7.687 -3.648,-0.599 -7.089,1.875 -7.687,5.522"
     id="path246"
     style="fill:#ffffff" /><circle
     clip-path="url(#SVGID_8_)"
     stroke-miterlimit="10"
     cx="549.31897"
     cy="784.07898"
     r="6.6929998"
     id="circle248"
     style="fill:none;stroke:#000000;stroke-width:6;stroke-miterlimit:10" /><line
     clip-path="url(#SVGID_8_)"
     x1="664.58899"
     y1="869.85797"
     x2="594.09302"
     y2="920.50897"
     id="line250"
     style="fill:#ffffff" /><line
     clip-path="url(#SVGID_8_)"
     stroke-miterlimit="10"
     x1="664.58899"
     y1="869.85797"
     x2="594.09302"
     y2="920.50897"
     id="line252"
     style="fill:none;stroke:#000000;stroke-width:6;stroke-miterlimit:10" /><path
     clip-path="url(#SVGID_8_)"
     d="m 761.963,811.031 c -14.334,0.119 -28.129,-5.46 -38.35,-15.512 l -4.814,-4.734"
     id="path254"
     style="fill:#ffffff" /><path
     clip-path="url(#SVGID_8_)"
     stroke-miterlimit="10"
     d="m 761.963,811.031 c -14.334,0.119 -28.129,-5.46 -38.35,-15.512 l -4.814,-4.734"
     id="path256"
     style="fill:none;stroke:#000000;stroke-width:6;stroke-linecap:round;stroke-miterlimit:10" /></svg>