<svg xmlns="http://www.w3.org/2000/svg" xmlns:xlink="http://www.w3.org/1999/xlink" viewBox="0 0 1920 1080"><defs><path id="a" d="M0 0h1920v1080H0z"/><clipPath id="n"><use width="100%" height="100%" overflow="visible" xlink:href="#a"/></clipPath><path id="b" d="M0 0h1920v1080H0z"/><clipPath id="m"><use width="100%" height="100%" overflow="visible" xlink:href="#b"/></clipPath><path id="c" d="M0 0h1920v1080H0z"/><clipPath id="l"><use width="100%" height="100%" overflow="visible" xlink:href="#c"/></clipPath><path id="d" d="M0 0h1920v1080H0z"/><clipPath id="k"><use width="100%" height="100%" overflow="visible" xlink:href="#d"/></clipPath><path id="e" d="M0 0h1920v1080H0z"/><clipPath id="j"><use width="100%" height="100%" overflow="visible" xlink:href="#e"/></clipPath><path id="f" d="M0 0h1920v1080H0z"/><clipPath id="i"><use width="100%" height="100%" overflow="visible" xlink:href="#f"/></clipPath><path id="g" d="M0 0h1920v1080H0z"/><clipPath id="h"><use width="100%" height="100%" overflow="visible" xlink:href="#g"/></clipPath></defs><path fill="none" stroke="#000" stroke-miterlimit="10" stroke-width="6" d="M632.114 708.477h8.923c8.876 0 16.072 7.195 16.072 16.071v55.836" clip-path="url(#h)"/><path fill="#fff" d="M639.427 744.311v36.073H422.398V607.931h217.029v120.038" clip-path="url(#h)"/><path fill="none" stroke="#000" stroke-miterlimit="10" stroke-width="6" d="M639.427 744.311v36.073H422.398V607.931h217.029v120.038" clip-path="url(#h)"/><path fill="none" stroke="#000" stroke-miterlimit="10" stroke-width="6" d="M555.461 716.814c0 11.147-6.639 20.745-16.167 25.045-.419.199-.849.38-1.289.55-3.11 1.229-6.489 1.899-10.028 1.899-14.267 0-25.995-10.878-27.354-24.795-.09-.889-.13-1.789-.13-2.699 0-1.739.16-3.43.48-5.079 2.37-12.747 13.567-22.403 27.004-22.403 15.177 0 27.484 12.306 27.484 27.482z" clip-path="url(#h)"/><circle cx="471.338" cy="646.068" r="7.187" fill="none" stroke="#1183c5" stroke-miterlimit="10" stroke-width="6" clip-path="url(#h)"/><circle cx="507.677" cy="646.068" r="7.187" fill="none" stroke="#000" stroke-miterlimit="10" stroke-width="6" clip-path="url(#h)"/><circle cx="544.015" cy="646.068" r="7.187" fill="none" stroke="#000" stroke-miterlimit="10" stroke-width="6" clip-path="url(#h)"/><path fill="none" stroke="#000" stroke-miterlimit="10" stroke-width="6" d="M387 780.38397h279M405.165 780.384v-95.235c0-8.65 7.013-15.663 15.664-15.663h1.569M471.336 670.69h-23.96v-48.989h165.537v48.989H487.646M464.151 607.93103v-11.71405M481.14801 607.93103v-18.42804M573.12701 607.93103v-18.42804M589.12402 607.93103v-11.71405" clip-path="url(#h)"/><circle cx="588.485" cy="647.129" r="12.997" fill="none" stroke="#000" stroke-miterlimit="10" stroke-width="6" clip-path="url(#h)"/><path d="M585.627 647.129c0 1.578 1.279 2.857 2.857 2.857 1.579 0 2.858-1.279 2.858-2.857 0-1.578-1.279-2.857-2.858-2.857-1.578-.001-2.857 1.279-2.857 2.857" clip-path="url(#h)"/><path fill="#fff" d="M523.948 725.537c0 2.239-1.815 4.055-4.055 4.055-2.239 0-4.054-1.815-4.054-4.055 0-2.24 1.815-4.055 4.054-4.055 2.24 0 4.055 1.816 4.055 4.055" clip-path="url(#h)"/><circle cx="527.978" cy="716.819" r="16.038" fill="none" stroke="#000" stroke-miterlimit="10" stroke-width="6" clip-path="url(#h)"/><path d="M536 716.819c0 4.431-3.592 8.022-8.022 8.022-4.431 0-8.023-3.592-8.023-8.022s3.592-8.022 8.023-8.022c4.43 0 8.022 3.592 8.022 8.022" clip-path="url(#h)"/><path fill="#fff" d="M546 708.331c0 4.984-4.041 9.025-9.026 9.025-4.985 0-9.026-4.041-9.026-9.025 0-4.985 4.041-9.026 9.026-9.026 4.985 0 9.026 4.041 9.026 9.026" clip-path="url(#h)"/><path fill="#fff" d="M1184.634 624.5c-5.642 0-5.642 4-11.283 4-5.641 0-5.641-4-11.28-4-5.642 0-5.642 4-11.283 4-5.644 0-5.644-4-11.287-4-5.642 0-5.642 4-11.283 4-5.646 0-5.646-4-11.291-4-5.646 0-5.646 4-11.292 4" clip-path="url(#i)"/><path fill="none" stroke="#1183c5" stroke-miterlimit="10" stroke-width="6" d="M1184.634 624.5c-5.642 0-5.642 4-11.283 4-5.641 0-5.641-4-11.28-4-5.642 0-5.642 4-11.283 4-5.644 0-5.644-4-11.287-4-5.642 0-5.642 4-11.283 4-5.646 0-5.646-4-11.291-4-5.646 0-5.646 4-11.292 4" clip-path="url(#i)"/><path fill="none" stroke="#000" stroke-miterlimit="10" stroke-width="6" d="M1396.634 560.5h-6M1375.634 560.5h-6" clip-path="url(#i)"/><path fill="#fff" d="M347.634 829.5c-5.642 0-5.642 4-11.284 4-5.64 0-5.64-4-11.28-4-5.642 0-5.642 4-11.283 4-5.644 0-5.644-4-11.287-4" clip-path="url(#i)"/><path fill="none" stroke="#1183c5" stroke-miterlimit="10" stroke-width="6" d="M347.634 829.5c-5.642 0-5.642 4-11.284 4-5.64 0-5.64-4-11.28-4-5.642 0-5.642 4-11.283 4-5.644 0-5.644-4-11.287-4" clip-path="url(#i)"/><path fill="none" stroke="#000" stroke-miterlimit="10" stroke-width="6" d="M803 535l-8 8M768 535l8 8M785 556v10" clip-path="url(#i)"/><path fill="#fff" d="M1224.634 905.5h-9" clip-path="url(#i)"/><path fill="none" stroke="#1183c5" stroke-miterlimit="10" stroke-width="6" d="M1224.634 905.5h-9" clip-path="url(#i)"/><path fill="#fff" d="M1189.634 905.5h-9" clip-path="url(#i)"/><path fill="none" stroke="#1183c5" stroke-miterlimit="10" stroke-width="6" d="M1189.634 905.5h-9" clip-path="url(#i)"/><path fill="none" stroke="#000" stroke-miterlimit="10" stroke-width="6" d="M1523.634 542.5c-13-10-26-16-45-23" clip-path="url(#i)"/><path fill="#fff" d="M1314.634 882.5c-1.008 7.273-6.728 12.991-14 14 7.272 1.009 12.992 6.727 14 14 1.009-7.273 6.727-12.991 14-14-7.274-1.009-12.991-6.727-14-14" clip-path="url(#i)"/><path fill="none" stroke="#1183c5" stroke-linecap="square" stroke-linejoin="bevel" stroke-miterlimit="10" stroke-width="6" d="M1314.634 882.5c-1.008 7.273-6.728 12.991-14 14 7.272 1.009 12.992 6.727 14 14 1.009-7.273 6.727-12.991 14-14-7.274-1.009-12.991-6.727-14-14z" clip-path="url(#i)"/><path fill="#fff" d="M770.634 910.5c-1.009 7.273-6.727 12.991-14 14 7.273 1.009 12.991 6.727 14 14 1.008-7.273 6.727-12.991 14-14-7.273-1.009-12.992-6.727-14-14" clip-path="url(#i)"/><path fill="none" stroke="#1183c5" stroke-linecap="square" stroke-linejoin="bevel" stroke-miterlimit="10" stroke-width="6" d="M770.634 910.5c-1.009 7.273-6.727 12.991-14 14 7.273 1.009 12.991 6.727 14 14 1.008-7.273 6.727-12.991 14-14-7.273-1.009-12.992-6.727-14-14z" clip-path="url(#i)"/><path fill="none" stroke="#000" stroke-miterlimit="10" stroke-width="6" d="M1314.634 303.5h-52" clip-path="url(#i)"/><path fill="#fff" d="M631.63397 303.5h-33" clip-path="url(#i)"/><path fill="none" stroke="#1183c5" stroke-linecap="square" stroke-linejoin="bevel" stroke-miterlimit="10" stroke-width="6" d="M631.63397 303.5h-33" clip-path="url(#i)"/><path fill="none" stroke="#000" stroke-miterlimit="10" stroke-width="6" d="M511.634 377.5v33" clip-path="url(#i)"/><path fill="#fff" d="M983.63397 444.5v28" clip-path="url(#i)"/><path fill="none" stroke="#1183c5" stroke-linecap="square" stroke-linejoin="bevel" stroke-miterlimit="10" stroke-width="6" d="M983.63397 444.5v28" clip-path="url(#i)"/><path fill="none" stroke="#000" stroke-miterlimit="10" stroke-width="6" d="M1423.634 405.5v28M983.63397 491.5v13" clip-path="url(#i)"/><path fill="#fff" d="M1338.634 303.5h24" clip-path="url(#i)"/><path fill="none" stroke="#1183c5" stroke-linecap="square" stroke-linejoin="bevel" stroke-miterlimit="10" stroke-width="6" d="M1338.634 303.5h24" clip-path="url(#i)"/><path fill="none" stroke="#000" stroke-linejoin="round" stroke-miterlimit="10" stroke-width="6" d="M1327 758h123M1480 758h71" clip-path="url(#i)"/><path fill="none" stroke="#000" stroke-miterlimit="10" stroke-width="6" d="M610.47998 767.29797h-43.22797M627.04102 767.29797h-5.99903M639.133 554l-14.03803 15.612M639.91998 568.82501l-15.61096-14.03802" clip-path="url(#i)"/><path fill="#fff" d="M325.929 517.149c-1.337 7.219-7.307 12.67-14.617 13.349 7.219 1.337 12.671 7.306 13.348 14.616 1.337-7.219 7.307-12.67 14.617-13.348-7.219-1.336-12.67-7.307-13.348-14.617" clip-path="url(#i)"/><path fill="none" stroke="#1183c5" stroke-linecap="round" stroke-linejoin="round" stroke-miterlimit="10" stroke-width="6" d="M325.929 517.149c-1.337 7.219-7.307 12.67-14.617 13.349 7.219 1.337 12.671 7.306 13.348 14.616 1.337-7.219 7.307-12.67 14.617-13.348-7.219-1.336-12.67-7.307-13.348-14.617z" clip-path="url(#i)"/><path fill="none" stroke="#000" stroke-miterlimit="10" stroke-width="6" d="M608.125 541.484c-13.434-9.41-26.688-14.823-45.982-20.969" clip-path="url(#i)"/><path d="M1583.805 674.113c.428 2.547 2.838 4.265 5.385 3.837 2.547-.427 4.264-2.838 3.837-5.385-.427-2.546-2.838-4.264-5.385-3.837-2.546.428-4.264 2.838-3.837 5.385" clip-path="url(#i)"/><path fill="none" stroke="#000" stroke-miterlimit="10" stroke-width="6" d="M1520.907 731.65503h-4.926M1537.429 731.65503h-4.9259" clip-path="url(#i)"/><path fill="none" stroke="#1183c5" stroke-miterlimit="10" stroke-width="6" d="M1357.9041 736.81897h33.0179" clip-path="url(#i)"/><path fill="none" stroke="#000" stroke-linejoin="round" stroke-miterlimit="10" stroke-width="6" d="M1301.8409 669.90399v-17.71997M1301.841 646.508v-12.742h98.58v113.296h-98.58v-71.271M1454.379 706.14v-72.374h98.58v113.296h-98.58v-26.674M1268 747.06201h320"/><path fill="none" stroke="#000" stroke-linejoin="round" stroke-miterlimit="10" stroke-width="6" d="M1286.402 747.062v-25.487c0-8.526 6.912-15.438 15.438-15.438M1552.959 693.715c10.797 0 19.549 8.752 19.549 19.549v33.799M1400.421 654.71503h53.958" clip-path="url(#j)"/><circle cx="1319.834" cy="664.772" r="6.773" fill="none" stroke="#000" stroke-linejoin="round" stroke-miterlimit="10" stroke-width="6" clip-path="url(#j)"/><circle cx="1351.131" cy="664.772" r="6.773" fill="none" stroke="#1183c5" stroke-miterlimit="10" stroke-width="6" clip-path="url(#j)"/><circle cx="1382.428" cy="664.772" r="6.773" fill="none" stroke="#000" stroke-linejoin="round" stroke-miterlimit="10" stroke-width="6" clip-path="url(#j)"/><circle cx="1319.834" cy="690.414" r="6.773" fill="none" stroke="#000" stroke-linejoin="round" stroke-miterlimit="10" stroke-width="6" clip-path="url(#j)"/><circle cx="1351.131" cy="690.414" r="6.773" fill="none" stroke="#1183c5" stroke-miterlimit="10" stroke-width="6" clip-path="url(#j)"/><circle cx="1382.428" cy="690.414" r="6.773" fill="none" stroke="#1183c5" stroke-miterlimit="10" stroke-width="6" clip-path="url(#j)"/><circle cx="1472.372" cy="664.772" r="6.773" fill="none" stroke="#000" stroke-linejoin="round" stroke-miterlimit="10" stroke-width="6" clip-path="url(#j)"/><circle cx="1503.669" cy="664.772" r="6.773" fill="none" stroke="#1183c5" stroke-miterlimit="10" stroke-width="6" clip-path="url(#j)"/><circle cx="1534.966" cy="664.772" r="6.773" fill="none" stroke="#000" stroke-linejoin="round" stroke-miterlimit="10" stroke-width="6" clip-path="url(#j)"/><circle cx="1472.372" cy="690.414" r="6.773" fill="none" stroke="#1183c5" stroke-miterlimit="10" stroke-width="6" clip-path="url(#j)"/><circle cx="1503.669" cy="690.414" r="6.773" fill="none" stroke="#1183c5" stroke-miterlimit="10" stroke-width="6" clip-path="url(#j)"/><circle cx="1534.966" cy="690.414" r="6.773" fill="none" stroke="#000" stroke-linejoin="round" stroke-miterlimit="10" stroke-width="6" clip-path="url(#j)"/><path fill="none" stroke="#000" stroke-linejoin="round" stroke-miterlimit="10" stroke-width="6" d="M1324.5551 633.76599V619M1338.1021 633.76599V626.383M1493.688 633.76599v-12.71301M1400.421 717.79c7.072 0 12.806 5.733 12.806 12.806v16.467" clip-path="url(#j)"/><path fill="none" stroke="#000" stroke-miterlimit="10" stroke-width="6" d="M875 897h195V597H875z"/><path fill="#fff" d="M966 662h12v96h-12z"/><path fill="none" stroke="#000" stroke-miterlimit="10" stroke-width="6" d="M966 662h12v96h-12z"/><path fill="#fff" d="M1025 643h24v39H896v-39l129-.049"/><path fill="none" stroke="#000" stroke-miterlimit="10" stroke-width="6" d="M1025 643h24v39H896v-39l129-.049"/><circle cx="922" cy="663" r="10" fill="none" stroke="#1183c5" stroke-miterlimit="10" stroke-width="6" clip-path="url(#k)"/><path fill="#fff" d="M994 662c0 2.762-2.238 5-5 5s-5-2.238-5-5 2.238-5 5-5 5 2.238 5 5" clip-path="url(#k)"/><circle cx="989" cy="662" r="5" fill="none" stroke="#000" stroke-miterlimit="10" stroke-width="6" clip-path="url(#k)"/><path fill="#fff" d="M1014 662c0 2.762-2.238 5-5 5s-5-2.238-5-5 2.238-5 5-5 5 2.238 5 5" clip-path="url(#k)"/><circle cx="1009" cy="662" r="5" fill="none" stroke="#000" stroke-miterlimit="10" stroke-width="6" clip-path="url(#k)"/><path fill="#fff" d="M1035 662c0 2.762-2.238 5-5 5s-5-2.238-5-5 2.238-5 5-5 5 2.238 5 5" clip-path="url(#k)"/><circle cx="1030" cy="662" r="5" fill="none" stroke="#000" stroke-miterlimit="10" stroke-width="6" clip-path="url(#k)"/><path fill="#fff" d="M896 691h153v39H896z" clip-path="url(#k)"/><path fill="none" stroke="#000" stroke-miterlimit="10" stroke-width="6" d="M896 691h153v39H896z" clip-path="url(#k)"/><path fill="#fff" d="M932 710c0 5.522-4.477 10-10 10s-10-4.478-10-10c0-5.521 4.477-10 10-10s10 4.479 10 10" clip-path="url(#k)"/><circle cx="922" cy="710" r="10" fill="none" stroke="#000" stroke-miterlimit="10" stroke-width="6" clip-path="url(#k)"/><path fill="#fff" d="M994 710c0 2.762-2.238 5-5 5s-5-2.238-5-5 2.238-5 5-5 5 2.238 5 5" clip-path="url(#k)"/><circle cx="989" cy="710" r="5" fill="none" stroke="#000" stroke-miterlimit="10" stroke-width="6" clip-path="url(#k)"/><path fill="#fff" d="M1014 710c0 2.762-2.238 5-5 5s-5-2.238-5-5 2.238-5 5-5 5 2.238 5 5" clip-path="url(#k)"/><circle cx="1009" cy="710" r="5" fill="none" stroke="#000" stroke-miterlimit="10" stroke-width="6" clip-path="url(#k)"/><path fill="#fff" d="M1035 710c0 2.762-2.238 5-5 5s-5-2.238-5-5 2.238-5 5-5 5 2.238 5 5" clip-path="url(#k)"/><circle cx="1030" cy="710" r="5" fill="none" stroke="#000" stroke-miterlimit="10" stroke-width="6" clip-path="url(#k)"/><path fill="#fff" d="M966 758h12v67h-12z" clip-path="url(#k)"/><path fill="none" stroke="#000" stroke-miterlimit="10" stroke-width="6" d="M966 758h12v67h-12z" clip-path="url(#k)"/><path fill="#fff" d="M1049 763v14H896v-39h153v13" clip-path="url(#k)"/><path fill="none" stroke="#000" stroke-miterlimit="10" stroke-width="6" d="M1049 763v14H896v-39h153v13" clip-path="url(#k)"/><path fill="#fff" d="M932 757c0 5.522-4.477 10-10 10s-10-4.478-10-10c0-5.521 4.477-10 10-10s10 4.479 10 10" clip-path="url(#k)"/><circle cx="922" cy="757" r="10" fill="none" stroke="#000" stroke-miterlimit="10" stroke-width="6" clip-path="url(#k)"/><path fill="#fff" d="M994 758c0 2.762-2.238 5-5 5s-5-2.238-5-5 2.238-5 5-5 5 2.238 5 5" clip-path="url(#k)"/><circle cx="989" cy="758" r="5" fill="none" stroke="#000" stroke-miterlimit="10" stroke-width="6" clip-path="url(#k)"/><path fill="#fff" d="M1014 758c0 2.762-2.238 5-5 5s-5-2.238-5-5 2.238-5 5-5 5 2.238 5 5" clip-path="url(#k)"/><circle cx="1009" cy="758" r="5" fill="none" stroke="#000" stroke-miterlimit="10" stroke-width="6" clip-path="url(#k)"/><path fill="#fff" d="M1035 758c0 2.762-2.238 5-5 5s-5-2.238-5-5 2.238-5 5-5 5 2.238 5 5" clip-path="url(#k)"/><circle cx="1030" cy="758" r="5" fill="none" stroke="#000" stroke-miterlimit="10" stroke-width="6" clip-path="url(#k)"/><path d="M924 663c0 1.104-.896 2-2 2s-2-.896-2-2 .896-2 2-2 2 .896 2 2M924 710c0 1.104-.896 2-2 2s-2-.896-2-2 .896-2 2-2 2 .896 2 2M924 757c0 1.104-.896 2-2 2s-2-.896-2-2 .896-2 2-2 2 .896 2 2" clip-path="url(#k)"/><path fill="#fff" d="M896 786h153v39H896z" clip-path="url(#k)"/><path fill="none" stroke="#000" stroke-miterlimit="10" stroke-width="6" d="M896 786h153v39H896z" clip-path="url(#k)"/><path fill="#fff" d="M932 805c0 5.522-4.477 10-10 10s-10-4.478-10-10c0-5.521 4.477-10 10-10s10 4.479 10 10" clip-path="url(#k)"/><circle cx="922" cy="805" r="10" fill="none" stroke="#000" stroke-miterlimit="10" stroke-width="6" clip-path="url(#k)"/><path fill="#fff" d="M994 806c0 2.762-2.238 5-5 5s-5-2.238-5-5 2.238-5 5-5 5 2.238 5 5" clip-path="url(#k)"/><circle cx="989" cy="806" r="5" fill="none" stroke="#000" stroke-miterlimit="10" stroke-width="6" clip-path="url(#k)"/><path fill="#fff" d="M1014 806c0 2.762-2.238 5-5 5s-5-2.238-5-5 2.238-5 5-5 5 2.238 5 5" clip-path="url(#k)"/><circle cx="1009" cy="806" r="5" fill="none" stroke="#000" stroke-miterlimit="10" stroke-width="6" clip-path="url(#k)"/><path fill="#fff" d="M1035 806c0 2.762-2.238 5-5 5s-5-2.238-5-5 2.238-5 5-5 5 2.238 5 5" clip-path="url(#k)"/><circle cx="1030" cy="806" r="5" fill="none" stroke="#000" stroke-miterlimit="10" stroke-width="6" clip-path="url(#k)"/><path d="M924 805c0 1.104-.896 2-2 2s-2-.896-2-2 .896-2 2-2 2 .896 2 2" clip-path="url(#k)"/><path fill="none" stroke="#000" stroke-miterlimit="10" stroke-width="6" d="M846 897h260M1084 868v28.5M859 886v10.5" clip-path="url(#k)"/><path fill="none" stroke="#000" stroke-miterlimit="10" stroke-width="6" d="M1203.634 293.5h187.712c23.907 0 43.288 19.381 43.288 43.289V459.5M1580.255 572.318c-33.965-45.991-88.56-75.818-150.121-75.818-33.611 0-65.147 8.891-92.381 24.451M1430.134 869.5c103.002 0 186.5-83.499 186.5-186.5 0-23.755-4.44-46.472-12.538-67.366M1243.634 683c0 69.742 38.282 130.544 94.979 162.537M1274.63 580.004c-11.101 16.727-19.575 35.348-24.834 55.274" clip-path="url(#l)"/><circle cx="972.135" cy="758" r="208.5" fill="none" stroke="#000" stroke-miterlimit="10" stroke-width="6" clip-path="url(#m)"/><path fill="none" stroke="#000" stroke-miterlimit="10" stroke-width="6" d="M972.63397 522.5v-99" clip-path="url(#m)"/><path fill="none" stroke="#000" stroke-miterlimit="10" stroke-width="6" d="M741.634 293.5H565.923c-23.908 0-43.289 19.381-43.289 43.289V459.5M441.457 513.433c-51.96 23.853-92.312 71.202-104.889 131.465-6.867 32.903-4.606 65.589 5.061 95.428M701.701 721.103c21.043-100.829-43.635-199.625-144.464-220.669-23.253-4.852-46.399-5.146-68.507-1.489M481.032 865.566c68.271 14.248 135.611-10.804 178.514-59.769M386.541 814.182c14.106 14.284 30.603 26.385 49.035 35.604" clip-path="url(#n)"/><path style="line-height:normal;text-indent:0;text-align:start;text-decoration-line:none;text-decoration-style:solid;text-decoration-color:#000;text-transform:none;isolation:auto;mix-blend-mode:normal" fill="#0082c9" d="M960.95432 119.4069c-40.70393 0-75.20389 27.59457-85.89657 64.98212-9.29306-19.83093-29.43144-33.72417-52.62736-33.72417-31.89985 0-58.12238 26.22253-58.12238 58.12239 0 31.89982 26.22253 58.13432 58.12238 58.13432 23.19592 0 43.3343-13.90173 52.62736-33.7361 10.69268 37.39034 45.19264 64.99409 85.89657 64.99409 40.40288 0 74.72698-27.18744 85.69308-64.15607 9.4648 19.38411 29.3539 32.89808 52.2204 32.89808 31.8998 0 58.1343-26.2345 58.1343-58.13432 0-31.89986-26.2345-58.12239-58.1343-58.12239-22.8665 0-42.7556 13.50549-52.2204 32.88615-10.9661-36.96577-45.2902-64.1441-85.69308-64.1441zm0 34.1192c30.72686 0 55.27318 24.53438 55.27318 55.26114s-24.54632 55.27311-55.27318 55.27311c-30.7267 0-55.26108-24.54635-55.26108-55.27311 0-30.72676 24.53438-55.26114 55.26108-55.26114zm-138.52393 31.25799c13.46208 0 24.01512 10.541 24.01512 24.00315 0 13.46211-10.55304 24.01512-24.01512 24.01512-13.46214 0-24.00318-10.55301-24.00318-24.01512 0-13.46215 10.54104-24.00315 24.00318-24.00315zm276.43741 0c13.4622 0 24.0151 10.541 24.0151 24.00315 0 13.46211-10.553 24.01512-24.0151 24.01512s-24.0031-10.55301-24.0031-24.01512c0-13.46215 10.5411-24.00315 24.0031-24.00315z" color="#000" font-family="sans-serif" overflow="visible" solid-color="#000000" white-space="normal"/><path fill="#0082c9" d="M864.67254 339.25329c9.569 0 14.92116 6.81183 14.92116 17.02958 0 .97312-.81094 1.78405-1.78406 1.78405h-25.78765c.16218 9.08245 6.48746 14.27242 13.78585 14.27242 4.54122 0 7.78495-1.94624 9.40682-3.24373.97312-.64875 1.78405-.48656 2.27061.48656l.48656.81093c.48656.81093.32437 1.62187-.48656 2.27061-1.94624 1.45968-6.16309 3.89248-11.83962 3.89248-10.54212 0-18.65145-7.62277-18.65145-18.65145.16219-11.67743 7.94714-18.65145 17.67834-18.65145zm9.89337 15.24553c-.32437-7.46058-4.86559-11.19087-10.05556-11.19087-6.0009 0-11.19087 3.89248-12.32618 11.19087zM928.29884 344.44326v-12.48837c0-1.1353.64875-1.78405 1.78406-1.78405h1.29749c1.1353 0 1.62186.64875 1.62186 1.78405v8.4337h7.2984c1.1353 0 1.78405.64875 1.78405 1.78406v.48656c0 1.1353-.64875 1.62186-1.78405 1.62186h-7.2984v17.84052c0 8.27151 5.02779 9.24463 7.78496 9.40682 1.45967.16218 1.94623.48656 1.94623 1.78405v.97312c0 1.1353-.48656 1.62186-1.94623 1.62186-7.78496 0-12.48837-4.70341-12.48837-13.13711zM965.43956 339.25329c6.16308 0 10.05556 2.59498 11.83961 4.05466.81094.64875.97312 1.45968.16219 2.4328l-.48656.81093c-.64875.97312-1.45968.97312-2.4328.32437-1.62186-1.1353-4.70341-3.24373-8.92026-3.24373-7.78495 0-13.94804 5.83872-13.94804 14.4346 0 8.4337 6.16309 14.27242 13.94804 14.27242 5.02779 0 8.4337-2.27061 10.05557-3.73029.97312-.64875 1.62186-.48656 2.27061.48656l.48656.64874c.48656.97312.32437 1.62187-.48656 2.4328-1.78405 1.45968-6.16309 4.54122-12.65055 4.54122-10.54212 0-18.65145-7.62276-18.65145-18.65145.16219-11.02868 8.27151-18.81363 18.81364-18.81363zM987.01036 327.73805c0-1.13531-.64874-1.78406.48656-1.78406h1.2975c1.1353 0 2.91935.64875 2.91935 1.78406v38.76257c0 4.54123 2.10843 5.02779 3.73029 5.18997.81094 0 1.45968.48656 1.45968 1.62187v1.1353c0 1.13531-.48656 1.78405-1.78405 1.78405-2.91936 0-8.10933-.97311-8.10933-8.75807zM1020.2586 339.25329c10.3799 0 18.8136 7.94714 18.8136 18.48926 0 10.70431-8.4337 18.81364-18.8136 18.81364-10.3799 0-18.8136-8.10933-18.8136-18.81364 0-10.54212 8.4337-18.48926 18.8136-18.48926zm0 33.08605c7.6228 0 13.7859-6.16309 13.7859-14.59679 0-8.10932-6.1631-14.11023-13.7859-14.11023s-13.948 6.16309-13.948 14.11023c.1621 8.27151 6.3252 14.59679 13.948 14.59679zM1101.1897 339.25329c8.5959 0 11.6774 7.13621 11.6774 7.13621h.1622s-.1622-1.13531-.1622-2.75718v-16.05646c0-1.13531-.4866-1.78405.6487-1.78405h1.2975c1.1353 0 2.9194.64874 2.9194 1.78405v46.22316c0 1.1353-.4866 1.78405-1.6219 1.78405h-1.1353c-1.1353 0-1.784-.48656-1.784-1.62187v-2.75717c0-1.29749.3243-2.27061.3243-2.27061h-.1621s-3.0816 7.46058-12.3262 7.46058c-9.569 0-15.5699-7.62277-15.5699-18.65145-.3244-11.02868 6.3253-18.48926 15.7321-18.48926zm.1622 33.08605c6.0009 0 11.5152-4.21685 11.5152-14.4346 0-7.2984-3.7303-14.27242-11.3531-14.27242-6.3252 0-11.5152 5.18997-11.5152 14.27242.1622 8.75807 4.7034 14.4346 11.3531 14.4346zM805.19928 375.74526h1.29749c1.1353 0 1.78405-.64875 1.78405-1.78406v-34.82523c0-5.51434 6.0009-9.45169 12.81273-9.45169 6.81184 0 12.81274 3.93735 12.81274 9.45169v34.82523c0 1.13531.64875 1.78406 1.78405 1.78406h1.29749c1.13531 0 1.62187-.64875 1.62187-1.78406v-35.03228c0-9.24464-9.24463-13.78586-17.67833-13.78586-8.10933 0-17.35396 4.54122-17.35396 13.78586v35.03228c0 1.13531.48656 1.78406 1.62187 1.78406zM1075.8886 340.06422h-1.2975c-1.1353 0-1.7841.64875-1.7841 1.78405v19.62457c0 5.51434-3.5681 10.54213-10.5421 10.54213-6.8118 0-10.5421-5.02779-10.5421-10.54213v-19.62457c0-1.1353-.6488-1.78405-1.7841-1.78405h-1.2975c-1.1353 0-1.6218.64875-1.6218 1.78405v20.92206c0 9.24464 6.8118 13.78586 15.2455 13.78586s15.2455-4.54122 15.2455-13.78586v-20.92206c.1622-1.1353-.4865-1.78405-1.6218-1.78405zM915.33723 339.79813c-.39727.0634-.77866.32858-1.14355.76342l-6.56348 7.82423-4.91311 5.85392-7.43777-8.8664-4.03566-4.81175c-.36488-.43485-.77809-.67262-1.2069-.70956-.42881-.0369-.87341.1261-1.30826.49099l-.99466.83311c-.86969.72976-.82479 1.53776-.095 2.40745l6.56665 7.82423 5.44529 6.48747-7.97312 9.49994c-.006.007-.01.0151-.0159.0222l-4.02299 4.79274c-.72976.8697-.64799 1.7854.22174 2.51516l.99466.82994c.86969.72976 1.65869.54658 2.38845-.32311l6.56348-7.82423 4.91312-5.85392 7.43777 8.86641c.005.006.0109.01.0159.0159l4.02299 4.79591c.72976.8697 1.64229.94836 2.51199.21857l.99466-.8331c.86969-.72977.82479-1.53777.095-2.40746l-6.56666-7.82423-5.44528-6.48746 7.97311-9.49995c.006-.007.01-.0151.0159-.0222l4.02298-4.79274c.72976-.86969.64799-1.7854-.22174-2.51516l-.99466-.83311c-.43484-.36488-.84764-.50056-1.24491-.43714z"/></svg>