<svg xmlns="http://www.w3.org/2000/svg" xmlns:svg="http://www.w3.org/2000/svg" xmlns:xlink="http://www.w3.org/1999/xlink" id="Layer_1" width="1027.449" height="506.974" x="0" y="0" enable-background="new 0 0 1027.449 506.974" version="1.1" viewBox="0 0 1027.449 506.974" xml:space="preserve"><metadata id="metadata47"/><defs id="defs45"><defs id="defs3"><rect id="SVGID_1_" width="1920" height="1080" x="-458.116" y="-331.601"/></defs><clipPath id="SVGID_2_"><use id="use5" overflow="visible" xlink:href="#SVGID_1_"/></clipPath></defs><path id="path8" fill="#fff" d="m 129.884,139.126 c 7.118,0 7.118,6.271 14.236,6.271 7.116,0 7.116,-6.271 14.231,-6.271 7.117,0 7.117,6.271 14.235,6.271 7.12,0 7.12,-6.271 14.24,-6.271 7.118,0 7.118,6.271 14.235,6.271 7.123,0 7.123,-6.271 14.245,-6.271 7.123,0 7.123,6.271 14.245,6.271" clip-path="url(#SVGID_2_)"/><path id="path10" fill="none" stroke="#1183c5" stroke-miterlimit="10" stroke-width="6" d="m 129.884,139.126 c 7.118,0 7.118,6.271 14.236,6.271 7.116,0 7.116,-6.271 14.231,-6.271 7.117,0 7.117,6.271 14.235,6.271 7.12,0 7.12,-6.271 14.24,-6.271 7.118,0 7.118,6.271 14.235,6.271 7.123,0 7.123,-6.271 14.245,-6.271 7.123,0 7.123,6.271 14.245,6.271" clip-path="url(#SVGID_2_)"/><line id="line12" x1="644.192" x2="630.15" y1="386.874" y2="371.258" fill="none" stroke="#1183c5" stroke-miterlimit="10" stroke-width="6" clip-path="url(#SVGID_2_)"/><line id="line14" x1="644.979" x2="629.363" y1="372.044" y2="386.086" fill="none" stroke="#1183c5" stroke-miterlimit="10" stroke-width="6" clip-path="url(#SVGID_2_)"/><circle id="circle16" cx="188.884" cy="324.399" r="7" fill="none" stroke="#000" stroke-miterlimit="10" stroke-width="6" clip-path="url(#SVGID_2_)"/><line id="line18" x1="857.211" x2="857.211" y1="122.621" y2="101.621" fill="none" stroke="#000" stroke-miterlimit="10" stroke-width="6" clip-path="url(#SVGID_2_)"/><line id="line20" x1="846.711" x2="867.711" y1="112.121" y2="112.121" fill="none" stroke="#000" stroke-miterlimit="10" stroke-width="6" clip-path="url(#SVGID_2_)"/><circle id="circle22" cx="852.884" cy="308.399" r="7.001" fill="none" stroke="#000" stroke-miterlimit="10" stroke-width="6" clip-path="url(#SVGID_2_)"/><path id="path24" fill="#fff" d="m 923.573,198.919 v 0 c -4.431,5.856 -4.431,13.943 0,19.8 -5.856,-4.431 -13.943,-4.431 -19.799,0 4.43,-5.856 4.43,-13.944 0,-19.8 5.855,4.432 13.942,4.432 19.799,0" clip-path="url(#SVGID_2_)"/><path id="path26" fill="none" stroke="#1183c5" stroke-linecap="square" stroke-linejoin="bevel" stroke-miterlimit="10" stroke-width="6" d="m 923.573,198.919 v 0 c -4.431,5.856 -4.431,13.943 0,19.8 -5.856,-4.431 -13.943,-4.431 -19.799,0 4.43,-5.856 4.43,-13.944 0,-19.8 5.855,4.432 13.942,4.432 19.799,0 z" clip-path="url(#SVGID_2_)"/><path id="path28" fill="#fff" d="m 588.922,427.12 v 0 c -1.338,-7.22 -7.31,-12.673 -14.62,-13.351 7.22,-1.337 12.673,-7.309 13.35,-14.62 1.339,7.22 7.31,12.673 14.621,13.351 -7.22,1.337 -12.673,7.308 -13.351,14.62" clip-path="url(#SVGID_2_)"/><path id="path30" fill="none" stroke="#1183c5" stroke-linecap="square" stroke-linejoin="bevel" stroke-miterlimit="10" stroke-width="6" d="m 588.922,427.12 v 0 c -1.338,-7.22 -7.31,-12.673 -14.62,-13.351 7.22,-1.337 12.673,-7.309 13.35,-14.62 1.339,7.22 7.31,12.673 14.621,13.351 -7.22,1.337 -12.673,7.308 -13.351,14.62 z" clip-path="url(#SVGID_2_)"/><line id="line32" x1="116.738" x2="102.697" y1="273.681" y2="258.066" fill="none" stroke="#000" stroke-miterlimit="10" stroke-width="6" clip-path="url(#SVGID_2_)"/><line id="line34" x1="117.525" x2="101.91" y1="258.853" y2="272.894" fill="none" stroke="#000" stroke-miterlimit="10" stroke-width="6" clip-path="url(#SVGID_2_)"/><path id="path36" fill="none" stroke="#000" stroke-linejoin="bevel" stroke-miterlimit="10" stroke-width="6" d="m 424.341,82.649 v 0 c -1.337,-7.22 -7.309,-12.673 -14.62,-13.351 7.22,-1.337 12.673,-7.308 13.351,-14.62 1.337,7.22 7.309,12.673 14.62,13.351 -7.22,1.338 -12.673,7.308 -13.351,14.62 z" clip-path="url(#SVGID_2_)"/><text id="text40" font-family="'OpenSans-Light'" font-size="103.014" transform="matrix(1 0 0 1 242.7046 249.2817)">Global Scale</text></svg>