<?xml version="1.0" encoding="UTF-8" standalone="no"?>
<svg
   xmlns:dc="http://purl.org/dc/elements/1.1/"
   xmlns:cc="http://creativecommons.org/ns#"
   xmlns:rdf="http://www.w3.org/1999/02/22-rdf-syntax-ns#"
   xmlns:svg="http://www.w3.org/2000/svg"
   xmlns="http://www.w3.org/2000/svg"
   xmlns:xlink="http://www.w3.org/1999/xlink"
   xml:space="preserve"
   enable-background="new 0 0 1027.449 506.974"
   viewBox="0 0 1027.449 506.974"
   height="506.974px"
   width="1027.449px"
   y="0px"
   x="0px"
   id="Layer_1"
   version="1.1"><metadata
     id="metadata47"><rdf:RDF><cc:Work
         rdf:about=""><dc:format>image/svg+xml</dc:format><dc:type
           rdf:resource="http://purl.org/dc/dcmitype/StillImage" /><dc:title></dc:title></cc:Work></rdf:RDF></metadata><defs
     id="defs45"><defs
       id="defs3"><rect
         id="SVGID_1_"
         x="-458.116"
         y="-331.601"
         width="1920"
         height="1080" /></defs><clipPath
       id="SVGID_2_"><use
         xlink:href="#SVGID_1_"
         overflow="visible"
         id="use5" /></clipPath></defs><path
     clip-path="url(#SVGID_2_)"
     d="m 129.884,139.126 c 7.118,0 7.118,6.271 14.236,6.271 7.116,0 7.116,-6.271 14.231,-6.271 7.117,0 7.117,6.271 14.235,6.271 7.12,0 7.12,-6.271 14.24,-6.271 7.118,0 7.118,6.271 14.235,6.271 7.123,0 7.123,-6.271 14.245,-6.271 7.123,0 7.123,6.271 14.245,6.271"
     id="path8"
     style="fill:#ffffff" /><path
     clip-path="url(#SVGID_2_)"
     stroke-miterlimit="10"
     d="m 129.884,139.126 c 7.118,0 7.118,6.271 14.236,6.271 7.116,0 7.116,-6.271 14.231,-6.271 7.117,0 7.117,6.271 14.235,6.271 7.12,0 7.12,-6.271 14.24,-6.271 7.118,0 7.118,6.271 14.235,6.271 7.123,0 7.123,-6.271 14.245,-6.271 7.123,0 7.123,6.271 14.245,6.271"
     id="path10"
     style="fill:none;stroke:#1183c5;stroke-width:6;stroke-miterlimit:10" /><line
     clip-path="url(#SVGID_2_)"
     stroke-miterlimit="10"
     x1="644.19202"
     y1="386.87399"
     x2="630.15002"
     y2="371.258"
     id="line12"
     style="fill:none;stroke:#1183c5;stroke-width:6;stroke-miterlimit:10" /><line
     clip-path="url(#SVGID_2_)"
     stroke-miterlimit="10"
     x1="644.979"
     y1="372.04401"
     x2="629.36298"
     y2="386.086"
     id="line14"
     style="fill:none;stroke:#1183c5;stroke-width:6;stroke-miterlimit:10" /><circle
     clip-path="url(#SVGID_2_)"
     stroke-miterlimit="10"
     cx="188.884"
     cy="324.39899"
     r="7"
     id="circle16"
     style="fill:none;stroke:#000000;stroke-width:6;stroke-miterlimit:10" /><line
     clip-path="url(#SVGID_2_)"
     stroke-miterlimit="10"
     x1="857.211"
     y1="122.621"
     x2="857.211"
     y2="101.621"
     id="line18"
     style="fill:none;stroke:#000000;stroke-width:6;stroke-miterlimit:10" /><line
     clip-path="url(#SVGID_2_)"
     stroke-miterlimit="10"
     x1="846.711"
     y1="112.121"
     x2="867.711"
     y2="112.121"
     id="line20"
     style="fill:none;stroke:#000000;stroke-width:6;stroke-miterlimit:10" /><circle
     clip-path="url(#SVGID_2_)"
     stroke-miterlimit="10"
     cx="852.88397"
     cy="308.39899"
     r="7.0009999"
     id="circle22"
     style="fill:none;stroke:#000000;stroke-width:6;stroke-miterlimit:10" /><path
     clip-path="url(#SVGID_2_)"
     d="m 923.573,198.919 v 0 c -4.431,5.856 -4.431,13.943 0,19.8 -5.856,-4.431 -13.943,-4.431 -19.799,0 4.43,-5.856 4.43,-13.944 0,-19.8 5.855,4.432 13.942,4.432 19.799,0"
     id="path24"
     style="fill:#ffffff" /><path
     clip-path="url(#SVGID_2_)"
     stroke-miterlimit="10"
     d="m 923.573,198.919 v 0 c -4.431,5.856 -4.431,13.943 0,19.8 -5.856,-4.431 -13.943,-4.431 -19.799,0 4.43,-5.856 4.43,-13.944 0,-19.8 5.855,4.432 13.942,4.432 19.799,0 z"
     id="path26"
     style="fill:none;stroke:#1183c5;stroke-width:6;stroke-linecap:square;stroke-linejoin:bevel;stroke-miterlimit:10" /><path
     clip-path="url(#SVGID_2_)"
     d="m 588.922,427.12 v 0 c -1.338,-7.22 -7.31,-12.673 -14.62,-13.351 7.22,-1.337 12.673,-7.309 13.35,-14.62 1.339,7.22 7.31,12.673 14.621,13.351 -7.22,1.337 -12.673,7.308 -13.351,14.62"
     id="path28"
     style="fill:#ffffff" /><path
     clip-path="url(#SVGID_2_)"
     stroke-miterlimit="10"
     d="m 588.922,427.12 v 0 c -1.338,-7.22 -7.31,-12.673 -14.62,-13.351 7.22,-1.337 12.673,-7.309 13.35,-14.62 1.339,7.22 7.31,12.673 14.621,13.351 -7.22,1.337 -12.673,7.308 -13.351,14.62 z"
     id="path30"
     style="fill:none;stroke:#1183c5;stroke-width:6;stroke-linecap:square;stroke-linejoin:bevel;stroke-miterlimit:10" /><line
     clip-path="url(#SVGID_2_)"
     stroke-miterlimit="10"
     x1="116.738"
     y1="273.681"
     x2="102.697"
     y2="258.06601"
     id="line32"
     style="fill:none;stroke:#000000;stroke-width:6;stroke-miterlimit:10" /><line
     clip-path="url(#SVGID_2_)"
     stroke-miterlimit="10"
     x1="117.525"
     y1="258.853"
     x2="101.91"
     y2="272.89401"
     id="line34"
     style="fill:none;stroke:#000000;stroke-width:6;stroke-miterlimit:10" /><path
     clip-path="url(#SVGID_2_)"
     stroke-miterlimit="10"
     d="m 424.341,82.649 v 0 c -1.337,-7.22 -7.309,-12.673 -14.62,-13.351 7.22,-1.337 12.673,-7.308 13.351,-14.62 1.337,7.22 7.309,12.673 14.62,13.351 -7.22,1.338 -12.673,7.308 -13.351,14.62 z"
     id="path36"
     style="fill:none;stroke:#000000;stroke-width:6;stroke-linejoin:bevel;stroke-miterlimit:10" /><text
     id="text40"
     font-size="103.0136"
     font-family="'OpenSans-Light'"
     transform="matrix(1 0 0 1 242.7046 249.2817)">Global Scale</text>
</svg>