<svg xmlns="http://www.w3.org/2000/svg" xmlns:svg="http://www.w3.org/2000/svg" xmlns:xlink="http://www.w3.org/1999/xlink" id="Layer_1" width="1920" height="1080" x="0" y="0" enable-background="new 484.5 84.5 922 934" version="1.1" viewBox="484.5 84.5 1920 1080" xml:space="preserve"><metadata id="metadata657"/><defs id="defs655"><defs id="defs283"><rect id="SVGID_57_" width="1920" height="1080" x="0" y="0"/></defs><clipPath id="SVGID_58_"><use id="use285" width="100%" height="100%" x="0" y="0" overflow="visible" xlink:href="#SVGID_57_"/></clipPath><defs id="defs273"><rect id="SVGID_55_" width="1920" height="1080" x="0" y="0"/></defs><clipPath id="SVGID_56_"><use id="use275" width="100%" height="100%" x="0" y="0" overflow="visible" xlink:href="#SVGID_55_"/></clipPath><defs id="defs263"><rect id="SVGID_53_" width="1920" height="1080" x="0" y="0"/></defs><clipPath id="SVGID_54_"><use id="use265" width="100%" height="100%" x="0" y="0" overflow="visible" xlink:href="#SVGID_53_"/></clipPath><defs id="defs253"><rect id="SVGID_51_" width="1920" height="1080" x="0" y="0"/></defs><clipPath id="SVGID_52_"><use id="use255" width="100%" height="100%" x="0" y="0" overflow="visible" xlink:href="#SVGID_51_"/></clipPath><defs id="defs243"><rect id="SVGID_49_" width="1920" height="1080" x="0" y="0"/></defs><clipPath id="SVGID_50_"><use id="use245" width="100%" height="100%" x="0" y="0" overflow="visible" xlink:href="#SVGID_49_"/></clipPath><defs id="defs233"><rect id="SVGID_47_" width="1920" height="1080" x="0" y="0"/></defs><clipPath id="SVGID_48_"><use id="use235" width="100%" height="100%" x="0" y="0" overflow="visible" xlink:href="#SVGID_47_"/></clipPath><defs id="defs223"><rect id="SVGID_45_" width="1920" height="1080" x="0" y="0"/></defs><clipPath id="SVGID_46_"><use id="use225" width="100%" height="100%" x="0" y="0" overflow="visible" xlink:href="#SVGID_45_"/></clipPath><defs id="defs213"><rect id="SVGID_43_" width="1920" height="1080" x="0" y="0"/></defs><clipPath id="SVGID_44_"><use id="use215" width="100%" height="100%" x="0" y="0" overflow="visible" xlink:href="#SVGID_43_"/></clipPath><defs id="defs203"><rect id="SVGID_41_" width="1920" height="1080" x="0" y="0"/></defs><clipPath id="SVGID_42_"><use id="use205" width="100%" height="100%" x="0" y="0" overflow="visible" xlink:href="#SVGID_41_"/></clipPath><defs id="defs193"><rect id="SVGID_39_" width="1920" height="1080" x="0" y="0"/></defs><clipPath id="SVGID_40_"><use id="use195" width="100%" height="100%" x="0" y="0" overflow="visible" xlink:href="#SVGID_39_"/></clipPath><defs id="defs183"><rect id="SVGID_37_" width="1920" height="1080" x="0" y="0"/></defs><clipPath id="SVGID_38_"><use id="use185" width="100%" height="100%" x="0" y="0" overflow="visible" xlink:href="#SVGID_37_"/></clipPath><defs id="defs173"><rect id="SVGID_35_" width="1920" height="1080" x="0" y="0"/></defs><clipPath id="SVGID_36_"><use id="use175" width="100%" height="100%" x="0" y="0" overflow="visible" xlink:href="#SVGID_35_"/></clipPath><defs id="defs163"><rect id="SVGID_33_" width="1920" height="1080" x="0" y="0"/></defs><clipPath id="SVGID_34_"><use id="use165" width="100%" height="100%" x="0" y="0" overflow="visible" xlink:href="#SVGID_33_"/></clipPath><defs id="defs153"><rect id="SVGID_31_" width="1920" height="1080" x="0" y="0"/></defs><clipPath id="SVGID_32_"><use id="use155" width="100%" height="100%" x="0" y="0" overflow="visible" xlink:href="#SVGID_31_"/></clipPath><defs id="defs143"><rect id="SVGID_29_" width="1920" height="1080" x="0" y="0"/></defs><clipPath id="SVGID_30_"><use id="use145" width="100%" height="100%" x="0" y="0" overflow="visible" xlink:href="#SVGID_29_"/></clipPath><defs id="defs133"><rect id="SVGID_27_" width="1920" height="1080" x="0" y="0"/></defs><clipPath id="SVGID_28_"><use id="use135" width="100%" height="100%" x="0" y="0" overflow="visible" xlink:href="#SVGID_27_"/></clipPath><defs id="defs123"><rect id="SVGID_25_" width="1920" height="1080" x="0" y="0"/></defs><clipPath id="SVGID_26_"><use id="use125" width="100%" height="100%" x="0" y="0" overflow="visible" xlink:href="#SVGID_25_"/></clipPath><defs id="defs113"><rect id="SVGID_23_" width="1920" height="1080" x="0" y="0"/></defs><clipPath id="SVGID_24_"><use id="use115" width="100%" height="100%" x="0" y="0" overflow="visible" xlink:href="#SVGID_23_"/></clipPath><defs id="defs103"><rect id="SVGID_21_" width="1920" height="1080" x="0" y="0"/></defs><clipPath id="SVGID_22_"><use id="use105" width="100%" height="100%" x="0" y="0" overflow="visible" xlink:href="#SVGID_21_"/></clipPath><defs id="defs93"><rect id="SVGID_19_" width="1920" height="1080" x="0" y="0"/></defs><clipPath id="SVGID_20_"><use id="use95" width="100%" height="100%" x="0" y="0" overflow="visible" xlink:href="#SVGID_19_"/></clipPath><defs id="defs83"><rect id="SVGID_17_" width="1920" height="1080" x="0" y="0"/></defs><clipPath id="SVGID_18_"><use id="use85" width="100%" height="100%" x="0" y="0" overflow="visible" xlink:href="#SVGID_17_"/></clipPath><defs id="defs73"><rect id="SVGID_15_" width="1920" height="1080" x="0" y="0"/></defs><clipPath id="SVGID_16_"><use id="use75" width="100%" height="100%" x="0" y="0" overflow="visible" xlink:href="#SVGID_15_"/></clipPath><defs id="defs63"><rect id="SVGID_13_" width="1920" height="1080" x="0" y="0"/></defs><clipPath id="SVGID_14_"><use id="use65" width="100%" height="100%" x="0" y="0" overflow="visible" xlink:href="#SVGID_13_"/></clipPath><defs id="defs53"><rect id="SVGID_11_" width="1920" height="1080" x="0" y="0"/></defs><clipPath id="SVGID_12_"><use id="use55" width="100%" height="100%" x="0" y="0" overflow="visible" xlink:href="#SVGID_11_"/></clipPath><defs id="defs43"><rect id="SVGID_9_" width="1920" height="1080" x="0" y="0"/></defs><clipPath id="SVGID_10_"><use id="use45" width="100%" height="100%" x="0" y="0" overflow="visible" xlink:href="#SVGID_9_"/></clipPath><defs id="defs33"><rect id="SVGID_7_" width="1920" height="1080" x="0" y="0"/></defs><clipPath id="SVGID_8_"><use id="use35" width="100%" height="100%" x="0" y="0" overflow="visible" xlink:href="#SVGID_7_"/></clipPath><defs id="defs23"><rect id="SVGID_5_" width="1920" height="1080" x="0" y="0"/></defs><clipPath id="SVGID_6_"><use id="use25" width="100%" height="100%" x="0" y="0" overflow="visible" xlink:href="#SVGID_5_"/></clipPath><defs id="defs13"><rect id="SVGID_3_" width="1920" height="1080" x="0" y="0"/></defs><clipPath id="SVGID_4_"><use id="use15" width="100%" height="100%" x="0" y="0" overflow="visible" xlink:href="#SVGID_3_"/></clipPath><defs id="defs3"><rect id="SVGID_1_" width="1920" height="1080" x="0" y="0"/></defs><clipPath id="SVGID_2_"><use id="use5" width="100%" height="100%" x="0" y="0" overflow="visible" xlink:href="#SVGID_1_"/></clipPath><defs id="defs425"><rect id="SVGID_85_" width="1920" height="1080" x="0" y="0"/></defs><clipPath id="SVGID_86_"><use id="use427" width="100%" height="100%" x="0" y="0" overflow="visible" xlink:href="#SVGID_85_"/></clipPath><defs id="defs415"><rect id="SVGID_83_" width="1920" height="1080" x="0" y="0"/></defs><clipPath id="SVGID_84_"><use id="use417" width="100%" height="100%" x="0" y="0" overflow="visible" xlink:href="#SVGID_83_"/></clipPath><defs id="defs405"><rect id="SVGID_81_" width="1920" height="1080" x="0" y="0"/></defs><clipPath id="SVGID_82_"><use id="use407" width="100%" height="100%" x="0" y="0" overflow="visible" xlink:href="#SVGID_81_"/></clipPath><defs id="defs395"><rect id="SVGID_79_" width="1920" height="1080" x="0" y="0"/></defs><clipPath id="SVGID_80_"><use id="use397" width="100%" height="100%" x="0" y="0" overflow="visible" xlink:href="#SVGID_79_"/></clipPath><defs id="defs385"><rect id="SVGID_77_" width="1920" height="1080" x="0" y="0"/></defs><clipPath id="SVGID_78_"><use id="use387" width="100%" height="100%" x="0" y="0" overflow="visible" xlink:href="#SVGID_77_"/></clipPath><defs id="defs375"><rect id="SVGID_75_" width="1920" height="1080" x="0" y="0"/></defs><clipPath id="SVGID_76_"><use id="use377" width="100%" height="100%" x="0" y="0" overflow="visible" xlink:href="#SVGID_75_"/></clipPath><defs id="defs365"><rect id="SVGID_73_" width="1920" height="1080" x="0" y="0"/></defs><clipPath id="SVGID_74_"><use id="use367" width="100%" height="100%" x="0" y="0" overflow="visible" xlink:href="#SVGID_73_"/></clipPath><defs id="defs355"><rect id="SVGID_71_" width="1920" height="1080" x="0" y="0"/></defs><clipPath id="SVGID_72_"><use id="use357" width="100%" height="100%" x="0" y="0" overflow="visible" xlink:href="#SVGID_71_"/></clipPath><defs id="defs345"><rect id="SVGID_69_" width="1920" height="1080" x="0" y="0"/></defs><clipPath id="SVGID_70_"><use id="use347" width="100%" height="100%" x="0" y="0" overflow="visible" xlink:href="#SVGID_69_"/></clipPath><defs id="defs335"><rect id="SVGID_67_" width="1920" height="1080" x="0" y="0"/></defs><clipPath id="SVGID_68_"><use id="use337" width="100%" height="100%" x="0" y="0" overflow="visible" xlink:href="#SVGID_67_"/></clipPath><defs id="defs325"><rect id="SVGID_65_" width="1920" height="1080" x="0" y="0"/></defs><clipPath id="SVGID_66_"><use id="use327" width="100%" height="100%" x="0" y="0" overflow="visible" xlink:href="#SVGID_65_"/></clipPath><defs id="defs315"><rect id="SVGID_63_" width="1920" height="1080" x="0" y="0"/></defs><clipPath id="SVGID_64_"><use id="use317" width="100%" height="100%" x="0" y="0" overflow="visible" xlink:href="#SVGID_63_"/></clipPath><defs id="defs305"><rect id="SVGID_61_" width="1920" height="1080" x="0" y="0"/></defs><clipPath id="SVGID_62_"><use id="use307" width="100%" height="100%" x="0" y="0" overflow="visible" xlink:href="#SVGID_61_"/></clipPath><defs id="defs295"><rect id="SVGID_59_" width="1920" height="1080" x="0" y="0"/></defs><clipPath id="SVGID_60_"><use id="use297" width="100%" height="100%" x="0" y="0" overflow="visible" xlink:href="#SVGID_59_"/></clipPath><defs id="defs507"><rect id="SVGID_101_" width="1920" height="1080" x="0" y="0"/></defs><clipPath id="SVGID_102_"><use id="use509" width="100%" height="100%" x="0" y="0" overflow="visible" xlink:href="#SVGID_101_"/></clipPath><defs id="defs497"><rect id="SVGID_99_" width="1920" height="1080" x="0" y="0"/></defs><clipPath id="SVGID_100_"><use id="use499" width="100%" height="100%" x="0" y="0" overflow="visible" xlink:href="#SVGID_99_"/></clipPath><defs id="defs487"><rect id="SVGID_97_" width="1920" height="1080" x="0" y="0"/></defs><clipPath id="SVGID_98_"><use id="use489" width="100%" height="100%" x="0" y="0" overflow="visible" xlink:href="#SVGID_97_"/></clipPath><defs id="defs477"><rect id="SVGID_95_" width="1920" height="1080" x="0" y="0"/></defs><clipPath id="SVGID_96_"><use id="use479" width="100%" height="100%" x="0" y="0" overflow="visible" xlink:href="#SVGID_95_"/></clipPath><defs id="defs467"><rect id="SVGID_93_" width="1920" height="1080" x="0" y="0"/></defs><clipPath id="SVGID_94_"><use id="use469" width="100%" height="100%" x="0" y="0" overflow="visible" xlink:href="#SVGID_93_"/></clipPath><defs id="defs457"><rect id="SVGID_91_" width="1920" height="1080" x="0" y="0"/></defs><clipPath id="SVGID_92_"><use id="use459" width="100%" height="100%" x="0" y="0" overflow="visible" xlink:href="#SVGID_91_"/></clipPath><defs id="defs447"><rect id="SVGID_89_" width="1920" height="1080" x="0" y="0"/></defs><clipPath id="SVGID_90_"><use id="use449" width="100%" height="100%" x="0" y="0" overflow="visible" xlink:href="#SVGID_89_"/></clipPath><defs id="defs437"><rect id="SVGID_87_" width="1920" height="1080" x="0" y="0"/></defs><clipPath id="SVGID_88_"><use id="use439" width="100%" height="100%" x="0" y="0" overflow="visible" xlink:href="#SVGID_87_"/></clipPath><defs id="defs641"><rect id="SVGID_127_" width="1920" height="1080" x="0" y="0"/></defs><clipPath id="SVGID_128_"><use id="use643" width="100%" height="100%" x="0" y="0" overflow="visible" xlink:href="#SVGID_127_"/></clipPath><defs id="defs631"><rect id="SVGID_125_" width="1920" height="1080" x="0" y="0"/></defs><clipPath id="SVGID_126_"><use id="use633" width="100%" height="100%" x="0" y="0" overflow="visible" xlink:href="#SVGID_125_"/></clipPath><defs id="defs621"><rect id="SVGID_123_" width="1920" height="1080" x="0" y="0"/></defs><clipPath id="SVGID_124_"><use id="use623" width="100%" height="100%" x="0" y="0" overflow="visible" xlink:href="#SVGID_123_"/></clipPath><defs id="defs611"><rect id="SVGID_121_" width="1920" height="1080" x="0" y="0"/></defs><clipPath id="SVGID_122_"><use id="use613" width="100%" height="100%" x="0" y="0" overflow="visible" xlink:href="#SVGID_121_"/></clipPath><defs id="defs601"><rect id="SVGID_119_" width="1920" height="1080" x="0" y="0"/></defs><clipPath id="SVGID_120_"><use id="use603" width="100%" height="100%" x="0" y="0" overflow="visible" xlink:href="#SVGID_119_"/></clipPath><defs id="defs591"><rect id="SVGID_117_" width="1920" height="1080" x="0" y="0"/></defs><clipPath id="SVGID_118_"><use id="use593" width="100%" height="100%" x="0" y="0" overflow="visible" xlink:href="#SVGID_117_"/></clipPath><defs id="defs581"><rect id="SVGID_115_" width="1920" height="1080" x="0" y="0"/></defs><clipPath id="SVGID_116_"><use id="use583" width="100%" height="100%" x="0" y="0" overflow="visible" xlink:href="#SVGID_115_"/></clipPath><defs id="defs571"><rect id="SVGID_113_" width="1920" height="1080" x="0" y="0"/></defs><clipPath id="SVGID_114_"><use id="use573" width="100%" height="100%" x="0" y="0" overflow="visible" xlink:href="#SVGID_113_"/></clipPath><defs id="defs561"><rect id="SVGID_111_" width="1920" height="1080" x="0" y="0"/></defs><clipPath id="SVGID_112_"><use id="use563" width="100%" height="100%" x="0" y="0" overflow="visible" xlink:href="#SVGID_111_"/></clipPath><defs id="defs551"><rect id="SVGID_109_" width="1920" height="1080" x="0" y="0"/></defs><clipPath id="SVGID_110_"><use id="use553" width="100%" height="100%" x="0" y="0" overflow="visible" xlink:href="#SVGID_109_"/></clipPath><defs id="defs541"><rect id="SVGID_107_" width="1920" height="1080" x="0" y="0"/></defs><clipPath id="SVGID_108_"><use id="use543" width="100%" height="100%" x="0" y="0" overflow="visible" xlink:href="#SVGID_107_"/></clipPath><defs id="defs531"><rect id="SVGID_105_" width="1920" height="1080" x="0" y="0"/></defs><clipPath id="SVGID_106_"><use id="use533" width="100%" height="100%" x="0" y="0" overflow="visible" xlink:href="#SVGID_105_"/></clipPath><defs id="defs521"><rect id="SVGID_103_" width="1920" height="1080" x="0" y="0"/></defs><clipPath id="SVGID_104_"><use id="use523" width="100%" height="100%" x="0" y="0" overflow="visible" xlink:href="#SVGID_103_"/></clipPath></defs><ellipse id="path4876" cx="1466.6" cy="715.754" fill="#fff" fill-opacity="1" fill-rule="evenodd" stroke="none" stroke-dasharray="none" stroke-miterlimit="4" stroke-width="9.244" opacity="1" paint-order="fill markers stroke" rx="274.576" ry="275.72"/><path id="path4809-2" fill="#fff" fill-opacity="1" fill-rule="evenodd" stroke="none" stroke-dasharray="none" stroke-miterlimit="4" stroke-width="2.472" d="m 1199.6854,927.39191 a 6.2923727,6.1521144 0 0 1 -6.2919,6.15211 6.2923727,6.1521144 0 0 1 -6.2928,-6.15131 6.2923727,6.1521144 0 0 1 6.2911,-6.15292 6.2923727,6.1521144 0 0 1 6.2936,6.15051 l -6.2923,0.002 z" opacity="1" paint-order="fill markers stroke"/><path id="path4809" fill="#fff" fill-opacity="1" fill-rule="evenodd" stroke="none" stroke-dasharray="none" stroke-miterlimit="4" stroke-width="2.045" d="m 1330.8243,770.50897 a 5.0052962,5.2940636 0 0 1 -5.005,5.29407 5.0052962,5.2940636 0 0 1 -5.0056,-5.29337 5.0052962,5.2940636 0 0 1 5.0043,-5.29476 5.0052962,5.2940636 0 0 1 5.0063,5.29268 l -5.0053,0.001 z" opacity="1" paint-order="fill markers stroke"/><path id="path4809-7" fill="#fff" fill-opacity="1" fill-rule="evenodd" stroke="none" stroke-dasharray="none" stroke-miterlimit="4" stroke-width="2.045" d="m 1358.1388,770.65466 a 5.0052962,5.2940636 0 0 1 -5.0049,5.29407 5.0052962,5.2940636 0 0 1 -5.0057,-5.29337 5.0052962,5.2940636 0 0 1 5.0044,-5.29476 5.0052962,5.2940636 0 0 1 5.0062,5.29268 l -5.0053,0.001 z" opacity="1" paint-order="fill markers stroke"/><path id="path4809-76" fill="#fff" fill-opacity="1" fill-rule="evenodd" stroke="none" stroke-dasharray="none" stroke-miterlimit="4" stroke-width="2.045" d="m 1386.1684,770.08258 a 5.0052962,5.2940636 0 0 1 -5.005,5.29406 5.0052962,5.2940636 0 0 1 -5.0056,-5.29337 5.0052962,5.2940636 0 0 1 5.0043,-5.29475 5.0052962,5.2940636 0 0 1 5.0063,5.29267 l -5.0053,0.001 z" opacity="1" paint-order="fill markers stroke"/><rect id="rect4807-8" width="242.028" height="13.314" x="1342.574" y="308.564" fill="#fff" fill-opacity="1" fill-rule="evenodd" stroke="none" stroke-dasharray="none" stroke-miterlimit="4" stroke-width="1.982" opacity="1" paint-order="fill markers stroke"/><rect id="rect4807" width="304.484" height="68.997" x="1315.471" y="321.878" fill="#fff" fill-opacity="1" fill-rule="evenodd" stroke="none" stroke-dasharray="none" stroke-miterlimit="4" stroke-width="5.06" opacity="1" paint-order="fill markers stroke"/><path id="path4805" fill="#fff" fill-opacity="1" fill-rule="evenodd" stroke="none" stroke-dasharray="none" stroke-miterlimit="4" stroke-width="8.89" d="m 1310.7626,579.8111 a 20.170191,18.808741 0 0 1 -20.1689,18.80874 20.170191,18.808741 0 0 1 -20.1715,-18.80628 20.170191,18.808741 0 0 1 20.1662,-18.8112 20.170191,18.808741 0 0 1 20.1742,18.80381 l -20.1702,0.005 z" opacity="1" paint-order="fill markers stroke"/><rect id="rect4803" width="63.585" height="56.184" x="1258.113" y="613.208" fill="#fff" fill-opacity="1" fill-rule="evenodd" stroke="none" stroke-dasharray="none" stroke-miterlimit="4" stroke-width="4.711" opacity="1" paint-order="fill markers stroke"/><g id="g4868" transform="translate(480)"><path id="path8" fill="#fff" d="m 866.537,684.262 c 0,3.684 2.986,6.669 6.67,6.669 3.683,0 6.669,-2.985 6.669,-6.669 0,-3.685 -2.986,-6.669 -6.669,-6.669 -3.683,0.001 -6.67,2.985 -6.67,6.669" clip-path="url(#SVGID_2_)" transform="translate(28.0412,85.896904)"/><circle id="circle18" cx="873.206" cy="684.262" r="6.669" fill="none" stroke="#000" stroke-miterlimit="10" stroke-width="6" clip-path="url(#SVGID_4_)" transform="translate(28.0412,85.896904)"/><path id="path28" fill="#fff" d="m 838.907,684.262 c 0,3.684 2.986,6.669 6.669,6.669 3.684,0 6.669,-2.985 6.669,-6.669 0,-3.685 -2.985,-6.669 -6.669,-6.669 -3.682,0.001 -6.669,2.985 -6.669,6.669" clip-path="url(#SVGID_6_)" transform="translate(28.0412,85.896904)"/><circle id="circle38" cx="845.576" cy="684.262" r="6.669" fill="none" stroke="#000" stroke-miterlimit="10" stroke-width="6" clip-path="url(#SVGID_8_)" transform="translate(28.0412,85.896904)"/><path id="path48" fill="#fff" d="m 811.279,684.262 c 0,3.684 2.986,6.669 6.669,6.669 3.685,0 6.669,-2.985 6.669,-6.669 0,-3.685 -2.984,-6.669 -6.669,-6.669 -3.683,0.001 -6.669,2.985 -6.669,6.669" clip-path="url(#SVGID_10_)" transform="translate(28.0412,85.896904)"/><circle id="circle58" cx="817.948" cy="684.262" r="6.669" fill="none" stroke="#000" stroke-miterlimit="10" stroke-width="6" clip-path="url(#SVGID_12_)" transform="translate(28.0412,85.896904)"/><line id="line68" x1="1123.308" x2="1109.266" y1="197.525" y2="213.141" fill="none" stroke="#1183c5" stroke-miterlimit="10" stroke-width="6" clip-path="url(#SVGID_14_)" transform="translate(28.0412,85.896904)"/><line id="line78" x1="1124.095" x2="1108.479" y1="212.354" y2="198.312" fill="none" stroke="#1183c5" stroke-miterlimit="10" stroke-width="6" clip-path="url(#SVGID_16_)" transform="translate(28.0412,85.896904)"/><line id="line88" x1="1069.326" x2="1063.326" y1="715.254" y2="715.254" fill="none" stroke="#000" stroke-miterlimit="10" stroke-width="6" clip-path="url(#SVGID_18_)" transform="translate(28.0412,85.896904)"/><line id="line98" x1="1099.404" x2="1093.404" y1="715.254" y2="715.254" fill="none" stroke="#000" stroke-miterlimit="10" stroke-width="6" clip-path="url(#SVGID_20_)" transform="translate(28.0412,85.896904)"/><line id="line108" x1="1083.735" x2="1077.735" y1="690.931" y2="690.931" fill="none" stroke="#000" stroke-miterlimit="10" stroke-width="6" clip-path="url(#SVGID_22_)" transform="translate(28.0412,85.896904)"/><path id="path118" fill="#fff" d="m 1068.037,157.279 v 0 c -1.338,7.22 -7.31,12.673 -14.619,13.351 7.22,1.337 12.673,7.309 13.35,14.62 1.339,-7.22 7.31,-12.673 14.621,-13.351 -7.221,-1.337 -12.673,-7.308 -13.352,-14.62" clip-path="url(#SVGID_24_)" transform="translate(28.0412,85.896904)"/><path id="path128" fill="none" stroke="#1183c5" stroke-linecap="square" stroke-linejoin="bevel" stroke-miterlimit="10" stroke-width="6" d="m 1068.037,157.279 v 0 c -1.338,7.22 -7.31,12.673 -14.619,13.351 7.22,1.337 12.673,7.309 13.35,14.62 1.339,-7.22 7.31,-12.673 14.621,-13.351 -7.221,-1.337 -12.673,-7.308 -13.352,-14.62 z" clip-path="url(#SVGID_26_)" transform="translate(28.0412,85.896904)"/><line id="line138" x1="1282.266" x2="1263.35" y1="493.339" y2="514.375" fill="none" stroke="#000" stroke-miterlimit="10" stroke-width="6" clip-path="url(#SVGID_28_)" transform="translate(28.0412,85.896904)"/><line id="line148" x1="1283.325" x2="1262.288" y1="513.313" y2="494.397" fill="none" stroke="#000" stroke-miterlimit="10" stroke-width="6" clip-path="url(#SVGID_30_)" transform="translate(28.0412,85.896904)"/><line id="line158" x1="677.854" x2="663.813" y1="764.993" y2="780.609" fill="none" stroke="#000" stroke-miterlimit="10" stroke-width="6" clip-path="url(#SVGID_32_)" transform="translate(28.0412,85.896904)"/><line id="line168" x1="678.641" x2="663.026" y1="779.822" y2="765.78" fill="none" stroke="#000" stroke-miterlimit="10" stroke-width="6" clip-path="url(#SVGID_34_)" transform="translate(28.0412,85.896904)"/><path id="path178" fill="none" stroke="#000" stroke-linejoin="bevel" stroke-miterlimit="10" stroke-width="6" d="m 686.456,827.025 v 0 c -1.337,7.221 -7.309,12.673 -14.619,13.353 7.22,1.337 12.673,7.308 13.351,14.619 1.337,-7.221 7.309,-12.674 14.62,-13.352 -7.221,-1.336 -12.674,-7.306 -13.352,-14.62 z" clip-path="url(#SVGID_36_)" transform="translate(28.0412,85.896904)"/><path id="path188" fill="none" stroke="#1183c5" stroke-miterlimit="10" stroke-width="6" d="m 967.271,612.681 c 5.642,0 5.642,4 11.284,4 5.64,0 5.64,-4 11.279,-4 5.642,0 5.642,4 11.282,4 5.645,0 5.645,-4 11.287,-4" clip-path="url(#SVGID_38_)" transform="translate(28.0412,85.896904)"/><path id="path198" fill="none" stroke="#1183c5" stroke-miterlimit="10" stroke-width="6" d="m 898.763,824.052 c 5.642,0 5.642,5.948 11.284,5.948 5.64,0 5.64,-5.948 11.279,-5.948 5.643,0 5.643,5.948 11.283,5.948 5.645,0 5.645,-5.948 11.287,-5.948 5.642,0 5.643,5.948 11.285,5.948 5.645,0 5.645,-5.948 11.292,-5.948 5.646,0 5.646,5.948 11.291,5.948" clip-path="url(#SVGID_40_)" transform="translate(28.0412,85.896904)"/><path id="path208" fill="none" stroke="#1183c5" stroke-miterlimit="10" stroke-width="6" d="m 898.763,420.356 c 5.642,0 5.642,5.95 11.284,5.95 5.64,0 5.64,-5.95 11.279,-5.95 5.643,0 5.643,5.95 11.283,5.95 5.645,0 5.645,-5.95 11.287,-5.95 5.642,0 5.643,5.95 11.284,5.95 5.645,0 5.645,-5.95 11.292,-5.95 5.646,0 5.646,5.95 11.291,5.95" clip-path="url(#SVGID_42_)" transform="translate(28.0412,85.896904)"/><path id="path218" fill="none" stroke="#000" stroke-miterlimit="10" stroke-width="6" d="M 758.437,470.742 C 733.034,430.984 737.583,358.839 775.272,326.727" clip-path="url(#SVGID_44_)" transform="translate(28.0412,85.896904)"/><polygon id="polygon228" points="778.448 358.723 772.451 358.4 774.078 328.861 744.495 329.395 744.393 323.391 780.422 322.746" clip-path="url(#SVGID_46_)" transform="translate(28.0412,85.896904)"/><path id="path238" fill="none" stroke="#000" stroke-miterlimit="10" stroke-width="6" d="m 1130.981,331.4 c 25.402,39.757 20.854,111.904 -16.836,144.015" clip-path="url(#SVGID_48_)" transform="translate(28.0412,85.896904)"/><polygon id="polygon248" points="1110.969 443.421 1116.966 443.743 1115.338 473.282 1144.921 472.747 1145.023 478.753 1108.993 479.396" clip-path="url(#SVGID_50_)" transform="translate(28.0412,85.896904)"/><path id="path258" fill="#fff" d="m 599.68,510.748 v 0 c 1.008,7.273 6.727,12.991 14,14 -7.273,1.01 -12.992,6.728 -14,14 -1.009,-7.272 -6.728,-12.99 -14,-14 7.272,-1.009 12.991,-6.727 14,-14" clip-path="url(#SVGID_52_)" transform="translate(28.0412,85.896904)"/><path id="path268" fill="none" stroke="#1183c5" stroke-linecap="square" stroke-linejoin="bevel" stroke-miterlimit="10" stroke-width="6" d="m 599.68,510.748 v 0 c 1.008,7.273 6.727,12.991 14,14 -7.273,1.01 -12.992,6.728 -14,14 -1.009,-7.272 -6.728,-12.99 -14,-14 7.272,-1.009 12.991,-6.727 14,-14 z" clip-path="url(#SVGID_54_)" transform="translate(28.0412,85.896904)"/><path id="path278" fill="#fff" d="m 1273.238,767.517 v 0 c -1.009,7.273 -6.727,12.991 -14,14 7.273,1.009 12.991,6.727 14,14 1.009,-7.273 6.728,-12.991 14,-14 -7.273,-1.008 -12.992,-6.727 -14,-14" clip-path="url(#SVGID_56_)" transform="translate(28.0412,85.896904)"/><path id="path288" fill="none" stroke="#1183c5" stroke-linecap="square" stroke-linejoin="bevel" stroke-miterlimit="10" stroke-width="6" d="m 1273.238,767.517 v 0 c -1.009,7.273 -6.727,12.991 -14,14 7.273,1.009 12.991,6.727 14,14 1.009,-7.273 6.728,-12.991 14,-14 -7.273,-1.008 -12.992,-6.727 -14,-14 z" clip-path="url(#SVGID_58_)" transform="translate(28.0412,85.896904)"/><circle id="circle300" cx="782.141" cy="494.041" r="20.676" fill="none" stroke="#000" stroke-miterlimit="10" stroke-width="6" clip-path="url(#SVGID_60_)" transform="translate(28.0412,85.896904)"/><path id="path310" fill="none" stroke="#000" stroke-miterlimit="10" stroke-width="6" d="m 814.21,583.495 h -64.138 v -47.072 c 0,-6.628 5.373,-12 12,-12 h 40.138 c 6.627,0 12,5.372 12,12 z" clip-path="url(#SVGID_62_)" transform="translate(28.0412,85.896904)"/><line id="line320" x1="781.298" x2="781.298" y1="524.844" y2="557.334" fill="none" stroke="#000" stroke-miterlimit="10" stroke-width="6" clip-path="url(#SVGID_64_)" transform="translate(28.0412,85.896904)"/><line id="line330" x1="800.285" x2="800.285" y1="583.918" y2="555.225" fill="none" stroke="#000" stroke-miterlimit="10" stroke-width="6" clip-path="url(#SVGID_66_)" transform="translate(28.0412,85.896904)"/><line id="line340" x1="762.31" x2="762.31" y1="583.918" y2="555.225" fill="none" stroke="#000" stroke-miterlimit="10" stroke-width="6" clip-path="url(#SVGID_68_)" transform="translate(28.0412,85.896904)"/><polyline id="polyline350" fill="none" stroke="#000" stroke-linejoin="round" stroke-miterlimit="10" stroke-width="6" points="802.817 492.775 782.563 492.775 776.656 486.024 772.437 492.775 761.465 492.775" clip-path="url(#SVGID_70_)" transform="translate(28.0412,85.896904)"/><line id="line360" x1="781.409" x2="781.409" y1="563.909" y2="576.05" fill="none" stroke="#1183c5" stroke-miterlimit="10" stroke-width="6" clip-path="url(#SVGID_72_)" transform="translate(28.0412,85.896904)"/><line id="line370" x1="735.332" x2="834.875" y1="584.34" y2="584.34" fill="none" stroke="#000" stroke-miterlimit="10" stroke-width="6" clip-path="url(#SVGID_74_)" transform="translate(28.0412,85.896904)"/><line id="line380" x1="726.332" x2="713.666" y1="584.34" y2="584.34" fill="none" stroke="#000" stroke-miterlimit="10" stroke-width="6" clip-path="url(#SVGID_76_)" transform="translate(28.0412,85.896904)"/><rect id="rect390" width="58.997" height="78.352" x="1076.663" y="501.603" fill="none" stroke="#000" stroke-miterlimit="10" stroke-width="6" clip-path="url(#SVGID_78_)" transform="translate(28.0412,85.896904)"/><rect id="rect400" width="58.996" height="78.352" x="1091.675" y="514.375" fill="#fff" clip-path="url(#SVGID_80_)" transform="translate(28.0412,85.896904)"/><rect id="rect410" width="58.996" height="78.352" x="1091.675" y="514.375" fill="none" stroke="#000" stroke-miterlimit="10" stroke-width="6" clip-path="url(#SVGID_82_)" transform="translate(28.0412,85.896904)"/><line id="line420" x1="1106.584" x2="1135.918" y1="532.954" y2="532.954" fill="none" stroke="#000" stroke-miterlimit="10" stroke-width="6" clip-path="url(#SVGID_84_)" transform="translate(28.0412,85.896904)"/><line id="line430" x1="1106.24" x2="1135.573" y1="552.334" y2="552.334" fill="none" stroke="#1183c5" stroke-miterlimit="10" stroke-width="6" clip-path="url(#SVGID_86_)" transform="translate(28.0412,85.896904)"/><path id="path442" fill="none" stroke="#000" stroke-miterlimit="10" stroke-width="6" d="m 709.434,743.558 c -15.779,-34.618 -24.571,-73.092 -24.571,-113.619 0,-151.453 122.777,-274.23 274.23,-274.23 151.452,0 274.229,122.777 274.229,274.23 0,151.453 -122.776,274.229 -274.229,274.229 -59.101,0 -113.833,-18.694 -158.609,-50.493 -3.449,-2.45 -6.84,-4.979 -10.169,-7.581 -2.251,-1.761 -4.473,-3.555 -6.666,-5.383 -3.89,-3.24 -7.689,-6.588 -11.392,-10.035" clip-path="url(#SVGID_88_)" transform="translate(28.0412,85.896904)"/><path id="path452" fill="none" stroke="#000" stroke-miterlimit="10" stroke-width="6" d="m 744.09,800.18 c -9.271,-11.692 -17.607,-24.158 -24.898,-37.285" clip-path="url(#SVGID_90_)" transform="translate(28.0412,85.896904)"/><path id="path462" fill="none" stroke="#000" stroke-miterlimit="10" stroke-width="6" d="m 811.279,398.916 99.503,99.504 c 7.517,7.516 11.738,17.709 11.738,28.338 v 38.66 c 0,16.594 -10.225,31.471 -25.717,37.415 l -43.649,16.753 c -3.245,1.245 -6.313,2.907 -9.13,4.945 l -48.508,35.093 c -22.275,16.115 -22.08,49.362 0.384,65.216 l 63.377,44.724 c 10.642,7.509 16.97,19.72 16.97,32.744 v 24.729 c 0,9.051 -3.062,17.832 -8.689,24.92 l -21.98,27.686" clip-path="url(#SVGID_92_)" transform="translate(28.0412,85.896904)"/><path id="path472" fill="none" stroke="#000" stroke-miterlimit="10" stroke-width="6" d="m 1103.452,396.742 -98.399,86.788 c -7.576,6.684 -11.917,16.299 -11.917,26.401 v 35.042 c 0,11.823 5.935,22.856 15.8,29.373 l 20.937,13.83 c 3.107,2.053 4.979,5.527 4.979,9.252 v 21.423 c 0,6.124 4.964,11.088 11.088,11.088 10.478,0 15.109,13.19 6.933,19.742 l -27.706,22.198 c -13.649,10.938 -17.199,30.238 -8.333,45.316 l 26.62,45.269 c 6.324,10.754 17.868,17.357 30.345,17.357 19.442,0 35.203,15.762 35.203,35.203 v 44.402" clip-path="url(#SVGID_94_)" transform="translate(28.0412,85.896904)"/><path id="path482" fill="none" stroke="#000" stroke-miterlimit="10" stroke-width="6" d="m 1164.084,831.576 c -80.468,81.763 -205.779,110.51 -317.698,62.811 -56.991,-24.289 -102.089,-64.813 -132.198,-113.881 -2.319,-3.78 -4.55,-7.611 -6.69,-11.489 -1.446,-2.622 -2.853,-5.267 -4.217,-7.929 -2.419,-4.726 -4.706,-9.515 -6.859,-14.361" clip-path="url(#SVGID_96_)" transform="translate(28.0412,85.896904)"/><path id="path492" fill="none" stroke="#000" stroke-miterlimit="10" stroke-width="6" d="m 1217.429,503.845 c 16.424,33.685 26.255,70.476 28.634,108.238" clip-path="url(#SVGID_98_)" transform="translate(28.0412,85.896904)"/><path id="path502" fill="none" stroke="#000" stroke-miterlimit="10" stroke-width="6" d="m 671.644,636.896 c -0.989,-39.868 6.345,-80.583 23.001,-119.664 62.247,-146.05 231.104,-213.987 377.154,-151.741 45.821,19.529 83.955,49.553 112.791,86.074" clip-path="url(#SVGID_100_)" transform="translate(28.0412,85.896904)"/><path id="path512" fill="none" stroke="#000" stroke-miterlimit="10" stroke-width="6" d="m 1262.908,612.047 c 0.985,20.904 -0.396,41.373 -3.908,61.146" clip-path="url(#SVGID_102_)" transform="translate(28.0412,85.896904)"/><polyline id="polyline518" fill="none" stroke="#000" stroke-miterlimit="10" stroke-width="6" points="1111.914 279.476 1111.914 304.978 807.43 304.978 807.43 235.981 1111.914 235.981 1111.914 253.003" transform="translate(28.0412,85.896904)"/><circle id="circle526" cx="834.533" cy="271.229" r="8.25" fill="none" stroke="#1183c5" stroke-miterlimit="10" stroke-width="6" clip-path="url(#SVGID_104_)" transform="translate(28.0412,85.896904)"/><circle id="circle536" cx="876.246" cy="271.229" r="8.25" fill="none" stroke="#000" stroke-miterlimit="10" stroke-width="6" clip-path="url(#SVGID_106_)" transform="translate(28.0412,85.896904)"/><circle id="circle546" cx="917.959" cy="271.229" r="8.25" fill="none" stroke="#000" stroke-miterlimit="10" stroke-width="6" clip-path="url(#SVGID_108_)" transform="translate(28.0412,85.896904)"/><circle id="circle556" cx="959.672" cy="271.229" r="8.25" fill="none" stroke="#1183c5" stroke-miterlimit="10" stroke-width="6" clip-path="url(#SVGID_110_)" transform="translate(28.0412,85.896904)"/><circle id="circle566" cx="1001.385" cy="271.229" r="8.25" fill="none" stroke="#000" stroke-miterlimit="10" stroke-width="6" clip-path="url(#SVGID_112_)" transform="translate(28.0412,85.896904)"/><circle id="circle576" cx="1043.098" cy="271.229" r="8.25" fill="none" stroke="#000" stroke-miterlimit="10" stroke-width="6" clip-path="url(#SVGID_114_)" transform="translate(28.0412,85.896904)"/><circle id="circle586" cx="1084.811" cy="271.229" r="8.25" fill="none" stroke="#000" stroke-miterlimit="10" stroke-width="6" clip-path="url(#SVGID_116_)" transform="translate(28.0412,85.896904)"/><rect id="rect596" width="242.028" height="13.314" x="834.533" y="222.667" fill="none" stroke="#000" stroke-miterlimit="10" stroke-width="6" clip-path="url(#SVGID_118_)" transform="translate(28.0412,85.896904)"/><line id="line606" x1="848.266" x2="848.266" y1="222.667" y2="205.333" fill="none" stroke="#000" stroke-miterlimit="10" stroke-width="6" clip-path="url(#SVGID_120_)" transform="translate(28.0412,85.896904)"/><line id="line616" x1="864.932" x2="864.932" y1="222.667" y2="193.333" fill="none" stroke="#000" stroke-miterlimit="10" stroke-width="6" clip-path="url(#SVGID_122_)" transform="translate(28.0412,85.896904)"/><line id="line626" x1="1034.849" x2="1034.849" y1="222.667" y2="208" fill="none" stroke="#000" stroke-miterlimit="10" stroke-width="6" clip-path="url(#SVGID_124_)" transform="translate(28.0412,85.896904)"/><rect id="rect636" width="14.602" height="14.602" x="819.932" y="304.977" fill="none" stroke="#000" stroke-miterlimit="10" stroke-width="6" clip-path="url(#SVGID_126_)" transform="translate(28.0412,85.896904)"/><rect id="rect646" width="14.602" height="14.602" x="1077.51" y="304.977" fill="none" stroke="#000" stroke-miterlimit="10" stroke-width="6" clip-path="url(#SVGID_128_)" transform="translate(28.0412,85.896904)"/></g></svg>