<svg xmlns="http://www.w3.org/2000/svg" xmlns:svg="http://www.w3.org/2000/svg" xmlns:xlink="http://www.w3.org/1999/xlink" id="Layer_1" width="1920" height="1080" x="0" y="0" enable-background="new 518.5 0 892 1080" version="1.1" viewBox="518.5 0 1920 1080" xml:space="preserve"><metadata id="metadata773"/><defs id="defs771"><defs id="defs193"><rect id="SVGID_39_" width="1920" height="1080" x="0" y="0"/></defs><clipPath id="SVGID_40_"><use id="use195" width="100%" height="100%" x="0" y="0" overflow="visible" xlink:href="#SVGID_39_"/></clipPath><defs id="defs183"><rect id="SVGID_37_" width="1920" height="1080" x="0" y="0"/></defs><clipPath id="SVGID_38_"><use id="use185" width="100%" height="100%" x="0" y="0" overflow="visible" xlink:href="#SVGID_37_"/></clipPath><defs id="defs173"><rect id="SVGID_35_" width="1920" height="1080" x="0" y="0"/></defs><clipPath id="SVGID_36_"><use id="use175" width="100%" height="100%" x="0" y="0" overflow="visible" xlink:href="#SVGID_35_"/></clipPath><defs id="defs163"><rect id="SVGID_33_" width="1920" height="1080" x="0" y="0"/></defs><clipPath id="SVGID_34_"><use id="use165" width="100%" height="100%" x="0" y="0" overflow="visible" xlink:href="#SVGID_33_"/></clipPath><defs id="defs153"><rect id="SVGID_31_" width="1920" height="1080" x="0" y="0"/></defs><clipPath id="SVGID_32_"><use id="use155" width="100%" height="100%" x="0" y="0" overflow="visible" xlink:href="#SVGID_31_"/></clipPath><defs id="defs143"><rect id="SVGID_29_" width="1920" height="1080" x="0" y="0"/></defs><clipPath id="SVGID_30_"><use id="use145" width="100%" height="100%" x="0" y="0" overflow="visible" xlink:href="#SVGID_29_"/></clipPath><defs id="defs133"><rect id="SVGID_27_" width="1920" height="1080" x="0" y="0"/></defs><clipPath id="SVGID_28_"><use id="use135" width="100%" height="100%" x="0" y="0" overflow="visible" xlink:href="#SVGID_27_"/></clipPath><defs id="defs123"><rect id="SVGID_25_" width="1920" height="1080" x="0" y="0"/></defs><clipPath id="SVGID_26_"><use id="use125" width="100%" height="100%" x="0" y="0" overflow="visible" xlink:href="#SVGID_25_"/></clipPath><defs id="defs113"><rect id="SVGID_23_" width="1920" height="1080" x="0" y="0"/></defs><clipPath id="SVGID_24_"><use id="use115" width="100%" height="100%" x="0" y="0" overflow="visible" xlink:href="#SVGID_23_"/></clipPath><defs id="defs103"><rect id="SVGID_21_" width="1920" height="1080" x="0" y="0"/></defs><clipPath id="SVGID_22_"><use id="use105" width="100%" height="100%" x="0" y="0" overflow="visible" xlink:href="#SVGID_21_"/></clipPath><defs id="defs93"><rect id="SVGID_19_" width="1920" height="1080" x="0" y="0"/></defs><clipPath id="SVGID_20_"><use id="use95" width="100%" height="100%" x="0" y="0" overflow="visible" xlink:href="#SVGID_19_"/></clipPath><defs id="defs83"><rect id="SVGID_17_" width="1920" height="1080" x="0" y="0"/></defs><clipPath id="SVGID_18_"><use id="use85" width="100%" height="100%" x="0" y="0" overflow="visible" xlink:href="#SVGID_17_"/></clipPath><defs id="defs73"><rect id="SVGID_15_" width="1920" height="1080" x="0" y="0"/></defs><clipPath id="SVGID_16_"><use id="use75" width="100%" height="100%" x="0" y="0" overflow="visible" xlink:href="#SVGID_15_"/></clipPath><defs id="defs63"><rect id="SVGID_13_" width="1920" height="1080" x="0" y="0"/></defs><clipPath id="SVGID_14_"><use id="use65" width="100%" height="100%" x="0" y="0" overflow="visible" xlink:href="#SVGID_13_"/></clipPath><defs id="defs53"><rect id="SVGID_11_" width="1920" height="1080" x="0" y="0"/></defs><clipPath id="SVGID_12_"><use id="use55" width="100%" height="100%" x="0" y="0" overflow="visible" xlink:href="#SVGID_11_"/></clipPath><defs id="defs43"><rect id="SVGID_9_" width="1920" height="1080" x="0" y="0"/></defs><clipPath id="SVGID_10_"><use id="use45" width="100%" height="100%" x="0" y="0" overflow="visible" xlink:href="#SVGID_9_"/></clipPath><defs id="defs33"><rect id="SVGID_7_" width="1920" height="1080" x="0" y="0"/></defs><clipPath id="SVGID_8_"><use id="use35" width="100%" height="100%" x="0" y="0" overflow="visible" xlink:href="#SVGID_7_"/></clipPath><defs id="defs23"><rect id="SVGID_5_" width="1920" height="1080" x="0" y="0"/></defs><clipPath id="SVGID_6_"><use id="use25" width="100%" height="100%" x="0" y="0" overflow="visible" xlink:href="#SVGID_5_"/></clipPath><defs id="defs13"><rect id="SVGID_3_" width="1920" height="1080" x="0" y="0"/></defs><clipPath id="SVGID_4_"><use id="use15" width="100%" height="100%" x="0" y="0" overflow="visible" xlink:href="#SVGID_3_"/></clipPath><defs id="defs3"><rect id="SVGID_1_" width="1920" height="1080" x="0" y="0"/></defs><clipPath id="SVGID_2_"><use id="use5" width="100%" height="100%" x="0" y="0" overflow="visible" xlink:href="#SVGID_1_"/></clipPath><defs id="defs393"><rect id="SVGID_77_" width="1920" height="1080" x="0" y="0"/></defs><clipPath id="SVGID_78_"><use id="use395" width="100%" height="100%" x="0" y="0" overflow="visible" xlink:href="#SVGID_77_"/></clipPath><defs id="defs383"><rect id="SVGID_75_" width="1920" height="1080" x="0" y="0"/></defs><clipPath id="SVGID_76_"><use id="use385" width="100%" height="100%" x="0" y="0" overflow="visible" xlink:href="#SVGID_75_"/></clipPath><defs id="defs373"><rect id="SVGID_73_" width="1920" height="1080" x="0" y="0"/></defs><clipPath id="SVGID_74_"><use id="use375" width="100%" height="100%" x="0" y="0" overflow="visible" xlink:href="#SVGID_73_"/></clipPath><defs id="defs363"><rect id="SVGID_71_" width="1920" height="1080" x="0" y="0"/></defs><clipPath id="SVGID_72_"><use id="use365" width="100%" height="100%" x="0" y="0" overflow="visible" xlink:href="#SVGID_71_"/></clipPath><defs id="defs353"><rect id="SVGID_69_" width="1920" height="1080" x="0" y="0"/></defs><clipPath id="SVGID_70_"><use id="use355" width="100%" height="100%" x="0" y="0" overflow="visible" xlink:href="#SVGID_69_"/></clipPath><defs id="defs343"><rect id="SVGID_67_" width="1920" height="1080" x="0" y="0"/></defs><clipPath id="SVGID_68_"><use id="use345" width="100%" height="100%" x="0" y="0" overflow="visible" xlink:href="#SVGID_67_"/></clipPath><defs id="defs333"><rect id="SVGID_65_" width="1920" height="1080" x="0" y="0"/></defs><clipPath id="SVGID_66_"><use id="use335" width="100%" height="100%" x="0" y="0" overflow="visible" xlink:href="#SVGID_65_"/></clipPath><defs id="defs323"><rect id="SVGID_63_" width="1920" height="1080" x="0" y="0"/></defs><clipPath id="SVGID_64_"><use id="use325" width="100%" height="100%" x="0" y="0" overflow="visible" xlink:href="#SVGID_63_"/></clipPath><defs id="defs313"><rect id="SVGID_61_" width="1920" height="1080" x="0" y="0"/></defs><clipPath id="SVGID_62_"><use id="use315" width="100%" height="100%" x="0" y="0" overflow="visible" xlink:href="#SVGID_61_"/></clipPath><defs id="defs303"><rect id="SVGID_59_" width="1920" height="1080" x="0" y="0"/></defs><clipPath id="SVGID_60_"><use id="use305" width="100%" height="100%" x="0" y="0" overflow="visible" xlink:href="#SVGID_59_"/></clipPath><defs id="defs293"><rect id="SVGID_57_" width="1920" height="1080" x="0" y="0"/></defs><clipPath id="SVGID_58_"><use id="use295" width="100%" height="100%" x="0" y="0" overflow="visible" xlink:href="#SVGID_57_"/></clipPath><defs id="defs283"><rect id="SVGID_55_" width="1920" height="1080" x="0" y="0"/></defs><clipPath id="SVGID_56_"><use id="use285" width="100%" height="100%" x="0" y="0" overflow="visible" xlink:href="#SVGID_55_"/></clipPath><defs id="defs273"><rect id="SVGID_53_" width="1920" height="1080" x="0" y="0"/></defs><clipPath id="SVGID_54_"><use id="use275" width="100%" height="100%" x="0" y="0" overflow="visible" xlink:href="#SVGID_53_"/></clipPath><defs id="defs263"><rect id="SVGID_51_" width="1920" height="1080" x="0" y="0"/></defs><clipPath id="SVGID_52_"><use id="use265" width="100%" height="100%" x="0" y="0" overflow="visible" xlink:href="#SVGID_51_"/></clipPath><defs id="defs253"><rect id="SVGID_49_" width="1920" height="1080" x="0" y="0"/></defs><clipPath id="SVGID_50_"><use id="use255" width="100%" height="100%" x="0" y="0" overflow="visible" xlink:href="#SVGID_49_"/></clipPath><defs id="defs243"><rect id="SVGID_47_" width="1920" height="1080" x="0" y="0"/></defs><clipPath id="SVGID_48_"><use id="use245" width="100%" height="100%" x="0" y="0" overflow="visible" xlink:href="#SVGID_47_"/></clipPath><defs id="defs233"><rect id="SVGID_45_" width="1920" height="1080" x="0" y="0"/></defs><clipPath id="SVGID_46_"><use id="use235" width="100%" height="100%" x="0" y="0" overflow="visible" xlink:href="#SVGID_45_"/></clipPath><defs id="defs223"><rect id="SVGID_43_" width="1920" height="1080" x="0" y="0"/></defs><clipPath id="SVGID_44_"><use id="use225" width="100%" height="100%" x="0" y="0" overflow="visible" xlink:href="#SVGID_43_"/></clipPath><defs id="defs213"><rect id="SVGID_41_" width="1920" height="1080" x="0" y="0"/></defs><clipPath id="SVGID_42_"><use id="use215" width="100%" height="100%" x="0" y="0" overflow="visible" xlink:href="#SVGID_41_"/></clipPath><defs id="defs685"><rect id="SVGID_135_" width="1920" height="1080" x="0" y="0"/></defs><clipPath id="SVGID_136_"><use id="use687" width="100%" height="100%" x="0" y="0" overflow="visible" xlink:href="#SVGID_135_"/></clipPath><defs id="defs675"><rect id="SVGID_133_" width="1920" height="1080" x="0" y="0"/></defs><clipPath id="SVGID_134_"><use id="use677" width="100%" height="100%" x="0" y="0" overflow="visible" xlink:href="#SVGID_133_"/></clipPath><defs id="defs665"><rect id="SVGID_131_" width="1920" height="1080" x="0" y="0"/></defs><clipPath id="SVGID_132_"><use id="use667" width="100%" height="100%" x="0" y="0" overflow="visible" xlink:href="#SVGID_131_"/></clipPath><defs id="defs655"><rect id="SVGID_129_" width="1920" height="1080" x="0" y="0"/></defs><clipPath id="SVGID_130_"><use id="use657" width="100%" height="100%" x="0" y="0" overflow="visible" xlink:href="#SVGID_129_"/></clipPath><defs id="defs645"><rect id="SVGID_127_" width="1920" height="1080" x="0" y="0"/></defs><clipPath id="SVGID_128_"><use id="use647" width="100%" height="100%" x="0" y="0" overflow="visible" xlink:href="#SVGID_127_"/></clipPath><defs id="defs635"><rect id="SVGID_125_" width="1920" height="1080" x="0" y="0"/></defs><clipPath id="SVGID_126_"><use id="use637" width="100%" height="100%" x="0" y="0" overflow="visible" xlink:href="#SVGID_125_"/></clipPath><defs id="defs625"><rect id="SVGID_123_" width="1920" height="1080" x="0" y="0"/></defs><clipPath id="SVGID_124_"><use id="use627" width="100%" height="100%" x="0" y="0" overflow="visible" xlink:href="#SVGID_123_"/></clipPath><defs id="defs615"><rect id="SVGID_121_" width="1920" height="1080" x="0" y="0"/></defs><clipPath id="SVGID_122_"><use id="use617" width="100%" height="100%" x="0" y="0" overflow="visible" xlink:href="#SVGID_121_"/></clipPath><defs id="defs605"><rect id="SVGID_119_" width="1920" height="1080" x="0" y="0"/></defs><clipPath id="SVGID_120_"><use id="use607" width="100%" height="100%" x="0" y="0" overflow="visible" xlink:href="#SVGID_119_"/></clipPath><defs id="defs595"><rect id="SVGID_117_" width="1920" height="1080" x="0" y="0"/></defs><clipPath id="SVGID_118_"><use id="use597" width="100%" height="100%" x="0" y="0" overflow="visible" xlink:href="#SVGID_117_"/></clipPath><defs id="defs585"><rect id="SVGID_115_" width="1920" height="1080" x="0" y="0"/></defs><clipPath id="SVGID_116_"><use id="use587" width="100%" height="100%" x="0" y="0" overflow="visible" xlink:href="#SVGID_115_"/></clipPath><defs id="defs575"><rect id="SVGID_113_" width="1920" height="1080" x="0" y="0"/></defs><clipPath id="SVGID_114_"><use id="use577" width="100%" height="100%" x="0" y="0" overflow="visible" xlink:href="#SVGID_113_"/></clipPath><defs id="defs565"><rect id="SVGID_111_" width="1920" height="1080" x="0" y="0"/></defs><clipPath id="SVGID_112_"><use id="use567" width="100%" height="100%" x="0" y="0" overflow="visible" xlink:href="#SVGID_111_"/></clipPath><defs id="defs555"><rect id="SVGID_109_" width="1920" height="1080" x="0" y="0"/></defs><clipPath id="SVGID_110_"><use id="use557" width="100%" height="100%" x="0" y="0" overflow="visible" xlink:href="#SVGID_109_"/></clipPath><defs id="defs545"><rect id="SVGID_107_" width="1920" height="1080" x="0" y="0"/></defs><clipPath id="SVGID_108_"><use id="use547" width="100%" height="100%" x="0" y="0" overflow="visible" xlink:href="#SVGID_107_"/></clipPath><defs id="defs535"><rect id="SVGID_105_" width="1920" height="1080" x="0" y="0"/></defs><clipPath id="SVGID_106_"><use id="use537" width="100%" height="100%" x="0" y="0" overflow="visible" xlink:href="#SVGID_105_"/></clipPath><defs id="defs525"><rect id="SVGID_103_" width="1920" height="1080" x="0" y="0"/></defs><clipPath id="SVGID_104_"><use id="use527" width="100%" height="100%" x="0" y="0" overflow="visible" xlink:href="#SVGID_103_"/></clipPath><defs id="defs515"><rect id="SVGID_101_" width="1920" height="1080" x="0" y="0"/></defs><clipPath id="SVGID_102_"><use id="use517" width="100%" height="100%" x="0" y="0" overflow="visible" xlink:href="#SVGID_101_"/></clipPath><defs id="defs505"><rect id="SVGID_99_" width="1920" height="1080" x="0" y="0"/></defs><clipPath id="SVGID_100_"><use id="use507" width="100%" height="100%" x="0" y="0" overflow="visible" xlink:href="#SVGID_99_"/></clipPath><defs id="defs495"><rect id="SVGID_97_" width="1920" height="1080" x="0" y="0"/></defs><clipPath id="SVGID_98_"><use id="use497" width="100%" height="100%" x="0" y="0" overflow="visible" xlink:href="#SVGID_97_"/></clipPath><defs id="defs485"><rect id="SVGID_95_" width="1920" height="1080" x="0" y="0"/></defs><clipPath id="SVGID_96_"><use id="use487" width="100%" height="100%" x="0" y="0" overflow="visible" xlink:href="#SVGID_95_"/></clipPath><defs id="defs475"><rect id="SVGID_93_" width="1920" height="1080" x="0" y="0"/></defs><clipPath id="SVGID_94_"><use id="use477" width="100%" height="100%" x="0" y="0" overflow="visible" xlink:href="#SVGID_93_"/></clipPath><defs id="defs465"><rect id="SVGID_91_" width="1920" height="1080" x="0" y="0"/></defs><clipPath id="SVGID_92_"><use id="use467" width="100%" height="100%" x="0" y="0" overflow="visible" xlink:href="#SVGID_91_"/></clipPath><defs id="defs455"><rect id="SVGID_89_" width="1920" height="1080" x="0" y="0"/></defs><clipPath id="SVGID_90_"><use id="use457" width="100%" height="100%" x="0" y="0" overflow="visible" xlink:href="#SVGID_89_"/></clipPath><defs id="defs445"><rect id="SVGID_87_" width="1920" height="1080" x="0" y="0"/></defs><clipPath id="SVGID_88_"><use id="use447" width="100%" height="100%" x="0" y="0" overflow="visible" xlink:href="#SVGID_87_"/></clipPath><defs id="defs435"><rect id="SVGID_85_" width="1920" height="1080" x="0" y="0"/></defs><clipPath id="SVGID_86_"><use id="use437" width="100%" height="100%" x="0" y="0" overflow="visible" xlink:href="#SVGID_85_"/></clipPath><defs id="defs425"><rect id="SVGID_83_" width="1920" height="1080" x="0" y="0"/></defs><clipPath id="SVGID_84_"><use id="use427" width="100%" height="100%" x="0" y="0" overflow="visible" xlink:href="#SVGID_83_"/></clipPath><defs id="defs415"><rect id="SVGID_81_" width="1920" height="1080" x="0" y="0"/></defs><clipPath id="SVGID_82_"><use id="use417" width="100%" height="100%" x="0" y="0" overflow="visible" xlink:href="#SVGID_81_"/></clipPath><defs id="defs405"><rect id="SVGID_79_" width="1920" height="1080" x="0" y="0"/></defs><clipPath id="SVGID_80_"><use id="use407" width="100%" height="100%" x="0" y="0" overflow="visible" xlink:href="#SVGID_79_"/></clipPath><defs id="defs757"><rect id="SVGID_149_" width="1920" height="1080" x="0" y="0"/></defs><clipPath id="SVGID_150_"><use id="use759" width="100%" height="100%" x="0" y="0" overflow="visible" xlink:href="#SVGID_149_"/></clipPath><defs id="defs747"><rect id="SVGID_147_" width="1920" height="1080" x="0" y="0"/></defs><clipPath id="SVGID_148_"><use id="use749" width="100%" height="100%" x="0" y="0" overflow="visible" xlink:href="#SVGID_147_"/></clipPath><defs id="defs737"><rect id="SVGID_145_" width="1920" height="1080" x="0" y="0"/></defs><clipPath id="SVGID_146_"><use id="use739" width="100%" height="100%" x="0" y="0" overflow="visible" xlink:href="#SVGID_145_"/></clipPath><defs id="defs727"><rect id="SVGID_143_" width="1920" height="1080" x="0" y="0"/></defs><clipPath id="SVGID_144_"><use id="use729" width="100%" height="100%" x="0" y="0" overflow="visible" xlink:href="#SVGID_143_"/></clipPath><defs id="defs717"><rect id="SVGID_141_" width="1920" height="1080" x="0" y="0"/></defs><clipPath id="SVGID_142_"><use id="use719" width="100%" height="100%" x="0" y="0" overflow="visible" xlink:href="#SVGID_141_"/></clipPath><defs id="defs707"><rect id="SVGID_139_" width="1920" height="1080" x="0" y="0"/></defs><clipPath id="SVGID_140_"><use id="use709" width="100%" height="100%" x="0" y="0" overflow="visible" xlink:href="#SVGID_139_"/></clipPath><defs id="defs697"><rect id="SVGID_137_" width="1920" height="1080" x="0" y="0"/></defs><clipPath id="SVGID_138_"><use id="use699" width="100%" height="100%" x="0" y="0" overflow="visible" xlink:href="#SVGID_137_"/></clipPath><clipPath id="SVGID_2_-0"><use id="use5-4" width="100%" height="100%" x="0" y="0" overflow="visible" xlink:href="#SVGID_1_"/></clipPath><clipPath id="SVGID_6_-1"><use id="use25-0" width="100%" height="100%" x="0" y="0" overflow="visible" xlink:href="#SVGID_5_"/></clipPath><clipPath id="SVGID_10_-4"><use id="use45-8" width="100%" height="100%" x="0" y="0" overflow="visible" xlink:href="#SVGID_9_"/></clipPath></defs><ellipse id="path4876" cx="1463.5" cy="704.746" fill="#fff" fill-opacity="1" fill-rule="evenodd" stroke="none" stroke-dasharray="none" stroke-miterlimit="4" stroke-width="9.244" opacity="1" paint-order="fill markers stroke" rx="274.576" ry="275.72"/><path id="path4809-2" fill="#fff" fill-opacity="1" fill-rule="evenodd" stroke="none" stroke-dasharray="none" stroke-miterlimit="4" stroke-width="2.472" d="m 1197.0531,915.37299 a 6.2923727,6.1521144 0 0 1 -6.2919,6.15211 6.2923727,6.1521144 0 0 1 -6.2928,-6.15131 6.2923727,6.1521144 0 0 1 6.2911,-6.15292 6.2923727,6.1521144 0 0 1 6.2936,6.15051 l -6.2924,0.002 z" opacity="1" paint-order="fill markers stroke"/><path id="path8-7" fill="#fff" d="m 866.537,684.262 c 0,3.684 2.986,6.669 6.67,6.669 3.683,0 6.669,-2.985 6.669,-6.669 0,-3.685 -2.986,-6.669 -6.669,-6.669 -3.683,0.001 -6.67,2.985 -6.67,6.669" clip-path="url(#SVGID_2_-0)" transform="translate(505.32552,74.737927)"/><path id="path28" fill="#fff" d="m 838.907,684.262 c 0,3.684 2.986,6.669 6.669,6.669 3.684,0 6.669,-2.985 6.669,-6.669 0,-3.685 -2.985,-6.669 -6.669,-6.669 -3.682,0.001 -6.669,2.985 -6.669,6.669" clip-path="url(#SVGID_6_-1)" transform="translate(505.32552,74.737927)"/><path id="path48" fill="#fff" d="m 811.279,684.262 c 0,3.684 2.986,6.669 6.669,6.669 3.685,0 6.669,-2.985 6.669,-6.669 0,-3.685 -2.984,-6.669 -6.669,-6.669 -3.683,0.001 -6.669,2.985 -6.669,6.669" clip-path="url(#SVGID_10_-4)" transform="translate(505.32552,74.737927)"/><path id="rect4803-87" fill="#fff" fill-opacity="1" fill-rule="evenodd" stroke="none" stroke-dasharray="none" stroke-miterlimit="4" stroke-width="5.531" d="m 1583.7689,755.30631 h 68.4476 l 3.4322,63.90598 h -74.883 z" opacity="1" paint-order="fill markers stroke"/><path id="path4805-5" fill="#fff" fill-opacity="1" fill-rule="evenodd" stroke="none" stroke-dasharray="none" stroke-miterlimit="4" stroke-width="9.488" d="m 1638.9924,719.17163 a 21.52877,20.075619 0 0 1 -21.5274,20.07562 21.52877,20.075619 0 0 1 -21.5301,-20.07299 21.52877,20.075619 0 0 1 21.5245,-20.07825 21.52877,20.075619 0 0 1 21.533,20.07036 l -21.5288,0.005 z" opacity="1" paint-order="fill markers stroke"/><path id="path4805-8" fill="#fff" fill-opacity="1" fill-rule="evenodd" stroke="none" stroke-dasharray="none" stroke-miterlimit="4" stroke-width="8.89" d="m 1646.8059,549.5186 c 0.6522,7.41952 -4.5161,17.03846 -10.9885,16.8303 -7.0671,-0.22729 -11.7501,8.14179 -17.1804,7.97844 -6.1053,-0.18365 -11.0012,-9.96113 -18.7132,-10.07665 -9.5472,-0.143 -7.4576,-10.03807 -7.4583,-14.72962 -0,-10.38729 15.027,-24.80915 26.1662,-24.81121 11.1392,-0.002 28.1713,14.4165 28.1742,24.80382 z" opacity="1" paint-order="fill markers stroke"/><path id="rect4803-8" fill="#fff" fill-opacity="1" fill-rule="evenodd" stroke="none" stroke-dasharray="none" stroke-miterlimit="4" stroke-width="4.711" d="m 1587.8726,589.20825 c 11.2425,-8.73668 15.1277,-1.70796 21.496,0 7.6653,15.37716 14.9951,8.20933 22.3094,0 5.971,-4.97808 11.6122,-12.59419 19.7798,0 v 56.18352 h -63.5852 z" opacity="1" paint-order="fill markers stroke"/><path id="path4805" fill="#fff" fill-opacity="1" fill-rule="evenodd" stroke="none" stroke-dasharray="none" stroke-miterlimit="4" stroke-width="8.89" d="m 1308.0578,567.51392 a 20.170191,18.808741 0 0 1 -20.1689,18.80874 20.170191,18.808741 0 0 1 -20.1715,-18.80628 20.170191,18.808741 0 0 1 20.1662,-18.8112 20.170191,18.808741 0 0 1 20.1742,18.80381 l -20.1702,0.005 z" opacity="1" paint-order="fill markers stroke"/><rect id="rect4803" width="63.585" height="56.184" x="1255.408" y="600.911" fill="#fff" fill-opacity="1" fill-rule="evenodd" stroke="none" stroke-dasharray="none" stroke-miterlimit="4" stroke-width="4.711" opacity="1" paint-order="fill markers stroke"/><path id="path8" fill="none" stroke="#000" stroke-miterlimit="10" stroke-width="6" d="m 1072.314,240.623 h 9.819 c 9.768,0 17.686,7.919 17.686,17.688 v 61.445" clip-path="url(#SVGID_2_)" transform="translate(504.54352,15.974927)"/><polyline id="polyline18" fill="#fff" points="1080.361 280.058 1080.361 319.756 841.53 319.756 841.53 129.978 1080.361 129.978 1080.361 262.075" clip-path="url(#SVGID_4_)" transform="translate(504.54352,15.974927)"/><polyline id="polyline28" fill="none" stroke="#000" stroke-miterlimit="10" stroke-width="6" points="1080.361 280.058 1080.361 319.756 841.53 319.756 841.53 129.978 1080.361 129.978 1080.361 262.075" clip-path="url(#SVGID_6_)" transform="translate(504.54352,15.974927)"/><path id="path38" fill="none" stroke="#000" stroke-miterlimit="10" stroke-width="6" d="m 987.961,249.799 c 0,12.269 -7.307,22.83 -17.79,27.562 -0.462,0.219 -0.938,0.418 -1.419,0.604 -3.424,1.354 -7.142,2.091 -11.036,2.091 -15.7,0 -28.605,-11.971 -30.102,-27.285 -0.099,-0.979 -0.143,-1.97 -0.143,-2.972 0,-1.913 0.176,-3.772 0.528,-5.589 2.606,-14.026 14.929,-24.654 29.716,-24.654 16.703,-0.001 30.246,13.542 30.246,30.243 z" clip-path="url(#SVGID_8_)" transform="translate(504.54352,15.974927)"/><circle id="circle48" cx="895.387" cy="171.946" r="7.908" fill="none" stroke="#1183c5" stroke-miterlimit="10" stroke-width="6" clip-path="url(#SVGID_10_)" transform="translate(504.54352,15.974927)"/><circle id="circle58" cx="935.375" cy="171.946" r="7.908" fill="none" stroke="#000" stroke-miterlimit="10" stroke-width="6" clip-path="url(#SVGID_12_)" transform="translate(504.54352,15.974927)"/><circle id="circle68" cx="975.365" cy="171.946" r="7.909" fill="none" stroke="#000" stroke-miterlimit="10" stroke-width="6" clip-path="url(#SVGID_14_)" transform="translate(504.54352,15.974927)"/><line id="line78" x1="773.781" x2="1145.969" y1="319.756" y2="319.756" fill="none" stroke="#000" stroke-miterlimit="10" stroke-width="6" clip-path="url(#SVGID_16_)" transform="translate(504.54352,15.974927)"/><path id="path88" fill="none" stroke="#000" stroke-miterlimit="10" stroke-width="6" d="M 822.566,319.756 V 214.952 c 0,-9.519 7.717,-17.237 17.237,-17.237 h 1.727" clip-path="url(#SVGID_18_)" transform="translate(504.54352,15.974927)"/><polyline id="polyline98" fill="none" stroke="#000" stroke-miterlimit="10" stroke-width="6" points="895.385 199.042 869.018 199.042 869.018 145.131 1051.185 145.131 1051.185 199.042 913.332 199.042" clip-path="url(#SVGID_20_)" transform="translate(504.54352,15.974927)"/><line id="line108" x1="887.479" x2="887.479" y1="129.978" y2="117.087" fill="none" stroke="#000" stroke-miterlimit="10" stroke-width="6" clip-path="url(#SVGID_22_)" transform="translate(504.54352,15.974927)"/><line id="line118" x1="906.183" x2="906.183" y1="129.978" y2="109.698" fill="none" stroke="#000" stroke-miterlimit="10" stroke-width="6" clip-path="url(#SVGID_24_)" transform="translate(504.54352,15.974927)"/><line id="line128" x1="1007.402" x2="1007.402" y1="129.978" y2="109.698" fill="none" stroke="#000" stroke-miterlimit="10" stroke-width="6" clip-path="url(#SVGID_26_)" transform="translate(504.54352,15.974927)"/><line id="line138" x1="1025.005" x2="1025.005" y1="129.978" y2="117.087" fill="none" stroke="#000" stroke-miterlimit="10" stroke-width="6" clip-path="url(#SVGID_28_)" transform="translate(504.54352,15.974927)"/><circle id="circle148" cx="1024.302" cy="173.113" r="14.303" fill="none" stroke="#000" stroke-miterlimit="10" stroke-width="6" clip-path="url(#SVGID_30_)" transform="translate(504.54352,15.974927)"/><path id="path158" d="m 1021.156,173.113 c 0,1.737 1.408,3.145 3.146,3.145 1.738,0 3.145,-1.407 3.145,-3.145 0,-1.736 -1.407,-3.145 -3.145,-3.145 -1.738,0 -3.146,1.409 -3.146,3.145" clip-path="url(#SVGID_32_)" transform="translate(504.54352,15.974927)"/><path id="path168" fill="#fff" d="m 953.281,259.398 c 0,2.464 -1.998,4.461 -4.462,4.461 -2.464,0 -4.461,-1.997 -4.461,-4.461 0,-2.465 1.997,-4.462 4.461,-4.462 2.464,0 4.462,1.998 4.462,4.462" clip-path="url(#SVGID_34_)" transform="translate(504.54352,15.974927)"/><circle id="circle178" cx="957.717" cy="249.805" r="17.648" fill="none" stroke="#000" stroke-miterlimit="10" stroke-width="6" clip-path="url(#SVGID_36_)" transform="translate(504.54352,15.974927)"/><path id="path188" d="m 967.455,249.805 c 0,5.379 -4.359,9.739 -9.739,9.739 -5.379,0 -9.739,-4.36 -9.739,-9.739 0,-5.38 4.36,-9.74 9.739,-9.74 5.38,-0.001 9.739,4.361 9.739,9.74" clip-path="url(#SVGID_38_)" transform="translate(504.54352,15.974927)"/><path id="path198" fill="#fff" d="m 977.342,238.646 c 0,4.366 -3.54,7.906 -7.907,7.906 -4.366,0 -7.906,-3.54 -7.906,-7.906 0,-4.367 3.54,-7.907 7.906,-7.907 4.367,-0.001 7.907,3.539 7.907,7.907" clip-path="url(#SVGID_40_)" transform="translate(504.54352,15.974927)"/><line id="line204" x1="1553.05" x2="1505.479" y1="321.329" y2="321.329" fill="none" stroke="#000" stroke-miterlimit="10" stroke-width="6"/><line id="line206" x1="1571.274" x2="1564.672" y1="321.329" y2="321.329" fill="none" stroke="#000" stroke-miterlimit="10" stroke-width="6"/><line id="line208" x1="1584.581" x2="1569.133" y1="86.604" y2="103.785" fill="none" stroke="#000" stroke-miterlimit="10" stroke-width="6"/><line id="line210" x1="1585.447" x2="1568.268" y1="102.918" y2="87.471" fill="none" stroke="#000" stroke-miterlimit="10" stroke-width="6"/><path id="path218" fill="none" stroke="#000" stroke-linejoin="bevel" stroke-miterlimit="10" stroke-width="6" d="m 791.493,143.424 v 0 c -1.471,7.943 -8.041,13.943 -16.085,14.689 7.944,1.471 13.943,8.04 14.689,16.085 1.471,-7.944 8.041,-13.943 16.085,-14.689 -7.942,-1.471 -13.942,-8.04 -14.689,-16.085 z" clip-path="url(#SVGID_42_)" transform="translate(504.54352,15.974927)"/><path id="path228" fill="#fff" d="m 867.318,743.025 c 0,3.685 2.986,6.669 6.669,6.669 3.685,0 6.669,-2.984 6.669,-6.669 0,-3.683 -2.984,-6.669 -6.669,-6.669 -3.683,0 -6.669,2.988 -6.669,6.669" clip-path="url(#SVGID_44_)" transform="translate(504.54352,15.974927)"/><circle id="circle238" cx="873.987" cy="743.025" r="6.669" fill="none" stroke="#000" stroke-miterlimit="10" stroke-width="6" clip-path="url(#SVGID_46_)" transform="translate(504.54352,15.974927)"/><path id="path248" fill="#fff" d="m 839.689,743.025 c 0,3.685 2.986,6.669 6.669,6.669 3.685,0 6.669,-2.984 6.669,-6.669 0,-3.683 -2.984,-6.669 -6.669,-6.669 -3.683,0 -6.669,2.988 -6.669,6.669" clip-path="url(#SVGID_48_)" transform="translate(504.54352,15.974927)"/><circle id="circle258" cx="846.358" cy="743.025" r="6.669" fill="none" stroke="#000" stroke-miterlimit="10" stroke-width="6" clip-path="url(#SVGID_50_)" transform="translate(504.54352,15.974927)"/><path id="path268" fill="#fff" d="m 812.06,743.025 c 0,3.685 2.986,6.669 6.669,6.669 3.684,0 6.669,-2.984 6.669,-6.669 0,-3.683 -2.985,-6.669 -6.669,-6.669 -3.684,0 -6.669,2.988 -6.669,6.669" clip-path="url(#SVGID_52_)" transform="translate(504.54352,15.974927)"/><circle id="circle278" cx="818.729" cy="743.025" r="6.669" fill="none" stroke="#000" stroke-miterlimit="10" stroke-width="6" clip-path="url(#SVGID_54_)" transform="translate(504.54352,15.974927)"/><line id="line288" x1="1283.047" x2="1264.131" y1="552.102" y2="573.138" fill="none" stroke="#000" stroke-miterlimit="10" stroke-width="6" clip-path="url(#SVGID_56_)" transform="translate(504.54352,15.974927)"/><line id="line298" x1="1284.106" x2="1263.07" y1="572.078" y2="553.161" fill="none" stroke="#000" stroke-miterlimit="10" stroke-width="6" clip-path="url(#SVGID_58_)" transform="translate(504.54352,15.974927)"/><line id="line308" x1="678.635" x2="664.593" y1="823.758" y2="839.373" fill="none" stroke="#000" stroke-miterlimit="10" stroke-width="6" clip-path="url(#SVGID_60_)" transform="translate(504.54352,15.974927)"/><line id="line318" x1="679.422" x2="663.807" y1="838.587" y2="824.545" fill="none" stroke="#000" stroke-miterlimit="10" stroke-width="6" clip-path="url(#SVGID_62_)" transform="translate(504.54352,15.974927)"/><path id="path328" fill="none" stroke="#000" stroke-linejoin="bevel" stroke-miterlimit="10" stroke-width="6" d="m 687.237,885.789 v 0 c -1.337,7.222 -7.308,12.675 -14.62,13.353 7.222,1.337 12.673,7.309 13.352,14.62 1.337,-7.222 7.309,-12.674 14.621,-13.353 -7.223,-1.337 -12.676,-7.307 -13.353,-14.62 z" clip-path="url(#SVGID_64_)" transform="translate(504.54352,15.974927)"/><path id="path338" fill="none" stroke="#1183c5" stroke-miterlimit="10" stroke-width="6" d="m 968.052,671.444 c 5.642,0 5.642,4 11.283,4 5.641,0 5.641,-4 11.279,-4 5.643,0 5.643,4 11.283,4 5.645,0 5.645,-4 11.287,-4" clip-path="url(#SVGID_66_)" transform="translate(504.54352,15.974927)"/><path id="path348" fill="none" stroke="#1183c5" stroke-miterlimit="10" stroke-width="6" d="m 899.544,882.814 c 5.642,0 5.642,5.95 11.283,5.95 5.641,0 5.641,-5.95 11.28,-5.95 5.643,0 5.643,5.95 11.283,5.95 5.644,0 5.644,-5.95 11.287,-5.95 5.642,0 5.642,5.95 11.283,5.95 5.646,0 5.646,-5.95 11.291,-5.95 5.645,0 5.646,5.95 11.292,5.95" clip-path="url(#SVGID_68_)" transform="translate(504.54352,15.974927)"/><path id="path358" fill="none" stroke="#1183c5" stroke-miterlimit="10" stroke-width="6" d="m 899.544,479.12 c 5.642,0 5.642,5.95 11.283,5.95 5.641,0 5.641,-5.95 11.28,-5.95 5.643,0 5.643,5.95 11.283,5.95 5.644,0 5.644,-5.95 11.287,-5.95 5.642,0 5.642,5.95 11.283,5.95 5.646,0 5.646,-5.95 11.291,-5.95 5.645,0 5.646,5.95 11.292,5.95" clip-path="url(#SVGID_70_)" transform="translate(504.54352,15.974927)"/><path id="path368" fill="none" stroke="#000" stroke-miterlimit="10" stroke-width="6" d="m 853.027,609.488 c 0,0 67.97,-23.182 195.515,-11.713" clip-path="url(#SVGID_72_)" transform="translate(504.54352,15.974927)"/><polygon id="polygon378" points="1026.315 575.785 1030.759 571.746 1055.021 598.389 1026.689 620.648 1022.976 615.93 1046.24 597.658" clip-path="url(#SVGID_74_)" transform="translate(504.54352,15.974927)"/><path id="path388" fill="none" stroke="#000" stroke-miterlimit="10" stroke-width="6" d="m 839.689,661 c 0,0 84.996,74.144 214.74,102.53" clip-path="url(#SVGID_76_)" transform="translate(504.54352,15.974927)"/><polygon id="polygon398" points="1035.597 738.427 1040.569 735.061 1060.793 764.885 1029.582 782.887 1026.576 777.688 1052.207 762.912" clip-path="url(#SVGID_78_)" transform="translate(504.54352,15.974927)"/><circle id="circle410" cx="782.922" cy="552.805" r="20.676" fill="none" stroke="#000" stroke-miterlimit="10" stroke-width="6" clip-path="url(#SVGID_80_)" transform="translate(504.54352,15.974927)"/><path id="path420" fill="none" stroke="#000" stroke-miterlimit="10" stroke-width="6" d="m 814.99,642.26 h -64.137 v -47.073 c 0,-6.627 5.372,-12 12,-12 h 40.137 c 6.627,0 12,5.373 12,12 z" clip-path="url(#SVGID_82_)" transform="translate(504.54352,15.974927)"/><line id="line430" x1="782.078" x2="782.078" y1="583.607" y2="616.097" fill="none" stroke="#000" stroke-miterlimit="10" stroke-width="6" clip-path="url(#SVGID_84_)" transform="translate(504.54352,15.974927)"/><line id="line440" x1="801.066" x2="801.066" y1="642.681" y2="613.988" fill="none" stroke="#000" stroke-miterlimit="10" stroke-width="6" clip-path="url(#SVGID_86_)" transform="translate(504.54352,15.974927)"/><line id="line450" x1="763.091" x2="763.091" y1="642.681" y2="613.988" fill="none" stroke="#000" stroke-miterlimit="10" stroke-width="6" clip-path="url(#SVGID_88_)" transform="translate(504.54352,15.974927)"/><polyline id="polyline460" fill="none" stroke="#000" stroke-linejoin="round" stroke-miterlimit="10" stroke-width="6" points="803.598 551.539 783.344 551.539 777.437 544.788 773.218 551.539 762.245 551.539" clip-path="url(#SVGID_90_)" transform="translate(504.54352,15.974927)"/><line id="line470" x1="782.19" x2="782.19" y1="622.674" y2="634.812" fill="none" stroke="#1183c5" stroke-miterlimit="10" stroke-width="6" clip-path="url(#SVGID_92_)" transform="translate(504.54352,15.974927)"/><line id="line480" x1="736.114" x2="835.656" y1="643.104" y2="643.104" fill="none" stroke="#000" stroke-miterlimit="10" stroke-width="6" clip-path="url(#SVGID_94_)" transform="translate(504.54352,15.974927)"/><line id="line490" x1="727.114" x2="714.447" y1="643.104" y2="643.104" fill="none" stroke="#000" stroke-miterlimit="10" stroke-width="6" clip-path="url(#SVGID_96_)" transform="translate(504.54352,15.974927)"/><path id="path500" fill="none" stroke="#000" stroke-miterlimit="10" stroke-width="6" d="m 1149.891,578.629 v 52.608 h -68.937 v -52.608 c 0,-6.015 4.871,-10.885 10.886,-10.885 h 6.604 l 16.526,14.514 16.525,-14.514 h 7.511 c 6.015,0 10.885,4.87 10.885,10.885 z" clip-path="url(#SVGID_98_)" transform="translate(504.54352,15.974927)"/><line id="line510" x1="1114.516" x2="1114.516" y1="582.258" y2="632.145" fill="none" stroke="#000" stroke-miterlimit="10" stroke-width="6" clip-path="url(#SVGID_100_)" transform="translate(504.54352,15.974927)"/><line id="line520" x1="1134.925" x2="1134.925" y1="631.69" y2="600.852" fill="none" stroke="#000" stroke-miterlimit="10" stroke-width="6" clip-path="url(#SVGID_102_)" transform="translate(504.54352,15.974927)"/><line id="line530" x1="1094.107" x2="1094.107" y1="631.69" y2="600.852" fill="none" stroke="#000" stroke-miterlimit="10" stroke-width="6" clip-path="url(#SVGID_104_)" transform="translate(504.54352,15.974927)"/><path id="path540" fill="#fff" d="m 1140.95,549.469 h -52.797 V 532.56 c 0,-13.251 10.742,-23.994 23.994,-23.994 h 4.81 c 13.252,0 23.993,10.743 23.993,23.994 z" clip-path="url(#SVGID_106_)" transform="translate(504.54352,15.974927)"/><path id="path550" fill="none" stroke="#000" stroke-miterlimit="10" stroke-width="6" d="m 1140.95,549.469 h -52.797 V 532.56 c 0,-13.251 10.742,-23.994 23.994,-23.994 h 4.81 c 13.252,0 23.993,10.743 23.993,23.994 z" clip-path="url(#SVGID_108_)" transform="translate(504.54352,15.974927)"/><path id="path560" fill="#fff" d="m 1131.957,540.766 c 0,9.616 -7.788,17.405 -17.404,17.405 -9.616,0 -17.406,-7.789 -17.406,-17.405 0,-2.726 0.627,-5.311 1.75,-7.606 l 18.268,-0.227 4.352,-6.092 4.352,6.092 4.344,0.227 c 1.119,2.296 1.744,4.881 1.744,7.606" clip-path="url(#SVGID_110_)" transform="translate(504.54352,15.974927)"/><path id="path570" fill="none" stroke="#000" stroke-miterlimit="10" stroke-width="6" d="m 1131.957,540.766 c 0,9.616 -7.788,17.405 -17.404,17.405 -9.616,0 -17.406,-7.789 -17.406,-17.405 0,-2.726 0.627,-5.311 1.75,-7.606 l 18.268,-0.227 4.352,-6.092 4.352,6.092 4.344,0.227 c 1.119,2.296 1.744,4.881 1.744,7.606 z" clip-path="url(#SVGID_112_)" transform="translate(504.54352,15.974927)"/><line id="line580" x1="1108.613" x2="1103.851" y1="593.776" y2="593.776" fill="none" stroke="#000" stroke-miterlimit="10" stroke-width="6" clip-path="url(#SVGID_114_)" transform="translate(504.54352,15.974927)"/><line id="line590" x1="1108.613" x2="1103.851" y1="604.89" y2="604.89" fill="none" stroke="#000" stroke-miterlimit="10" stroke-width="6" clip-path="url(#SVGID_116_)" transform="translate(504.54352,15.974927)"/><line id="line600" x1="1055.021" x2="1164.537" y1="632.145" y2="632.145" fill="none" stroke="#000" stroke-miterlimit="10" stroke-width="6" clip-path="url(#SVGID_118_)" transform="translate(504.54352,15.974927)"/><circle id="circle610" cx="1112.616" cy="703.498" r="22.262" fill="none" stroke="#000" stroke-miterlimit="10" stroke-width="6" clip-path="url(#SVGID_120_)" transform="translate(504.54352,15.974927)"/><path id="path620" fill="none" stroke="#000" stroke-linejoin="round" stroke-miterlimit="10" stroke-width="6" d="m 1090.354,707.116 c 0,0 14.471,-3.618 23.375,-13.636 0,0 7.792,7.792 21.149,10.018" clip-path="url(#SVGID_122_)" transform="translate(504.54352,15.974927)"/><path id="path630" fill="none" stroke="#000" stroke-miterlimit="10" stroke-width="6" d="m 1153.177,804.338 h -79.304 l 3.306,-56.052 c 0,-6.021 4.882,-10.903 10.904,-10.903 h 50.885 c 6.021,0 10.904,4.883 10.904,10.903 z" clip-path="url(#SVGID_124_)" transform="translate(504.54352,15.974927)"/><line id="line640" x1="1134.09" x2="1134.09" y1="804.815" y2="772.295" fill="none" stroke="#000" stroke-miterlimit="10" stroke-width="6" clip-path="url(#SVGID_126_)" transform="translate(504.54352,15.974927)"/><line id="line650" x1="1091.048" x2="1091.048" y1="804.815" y2="772.295" fill="none" stroke="#000" stroke-miterlimit="10" stroke-width="6" clip-path="url(#SVGID_128_)" transform="translate(504.54352,15.974927)"/><polygon id="polygon660" fill="none" stroke="#000" stroke-miterlimit="10" stroke-width="6" points="1118.978 737.573 1116.819 749.387 1108.413 749.387 1106.256 737.573" clip-path="url(#SVGID_130_)" transform="translate(504.54352,15.974927)"/><polygon id="polygon670" fill="none" stroke="#000" stroke-miterlimit="10" stroke-width="6" points="1116.276 749.387 1118.693 803.906 1106.539 803.906 1108.957 749.387" clip-path="url(#SVGID_132_)" transform="translate(504.54352,15.974927)"/><line id="line680" x1="1059.396" x2="1163.279" y1="804.815" y2="804.815" fill="none" stroke="#000" stroke-miterlimit="10" stroke-width="6" clip-path="url(#SVGID_134_)" transform="translate(504.54352,15.974927)"/><line id="line690" x1="1171.616" x2="1190.688" y1="803.906" y2="803.906" fill="none" stroke="#000" stroke-miterlimit="10" stroke-width="6" clip-path="url(#SVGID_136_)" transform="translate(504.54352,15.974927)"/><path id="path702" fill="none" stroke="#000" stroke-miterlimit="10" stroke-width="6" d="m 698.711,604.802 c 11.641,-36.221 31.046,-70.585 58.333,-100.55 101.975,-111.979 275.418,-120.089 387.396,-18.114 111.979,101.976 120.09,275.418 18.115,387.396 -101.976,111.979 -275.418,120.088 -387.396,18.114 -43.697,-39.793 -71.576,-90.468 -83.271,-144.127 -0.901,-4.134 -1.706,-8.285 -2.415,-12.451 -0.479,-2.815 -0.914,-5.64 -1.305,-8.467 -0.693,-5.017 -1.25,-10.049 -1.665,-15.092" clip-path="url(#SVGID_138_)" transform="translate(504.54352,15.974927)"/><path id="path712" fill="none" stroke="#000" stroke-miterlimit="10" stroke-width="6" d="M 975.599,976 C 861.054,982.271 749.047,919.152 698.414,808.529 672.632,752.198 666.572,691.873 677.349,635.321 c 0.831,-4.356 1.761,-8.691 2.79,-13 0.695,-2.913 1.436,-5.813 2.221,-8.702 1.393,-5.121 2.926,-10.201 4.596,-15.235" clip-path="url(#SVGID_140_)" transform="translate(504.54352,15.974927)"/><path id="path722" fill="none" stroke="#000" stroke-miterlimit="10" stroke-width="6" d="m 1235.703,769.604 c -10.537,35.964 -28.04,69.785 -51.707,99.308" clip-path="url(#SVGID_142_)" transform="translate(504.54352,15.974927)"/><path id="path732" fill="none" stroke="#000" stroke-miterlimit="10" stroke-width="6" d="m 742.585,500.496 c 26.111,-30.143 58.948,-55.308 97.577,-72.987 144.358,-66.074 314.948,-2.611 381.021,141.749 20.729,45.291 28.709,93.165 25.439,139.583" clip-path="url(#SVGID_144_)" transform="translate(504.54352,15.974927)"/><path id="path742" fill="none" stroke="#000" stroke-miterlimit="10" stroke-width="6" d="m 812.06,457.68 99.503,99.503 c 7.516,7.517 11.738,17.709 11.738,28.338 v 38.661 c 0,16.593 -10.226,31.47 -25.717,37.415 l -43.649,16.753 c -3.245,1.245 -6.314,2.907 -9.13,4.945 l -48.508,35.093 c -22.275,16.115 -22.079,49.363 0.384,65.215 l 63.378,44.724 c 10.64,7.51 16.969,19.721 16.969,32.744 V 885.8 c 0,9.05 -3.062,17.832 -8.689,24.92 l -21.98,27.685" clip-path="url(#SVGID_146_)" transform="translate(504.54352,15.974927)"/><path id="path752" fill="none" stroke="#000" stroke-miterlimit="10" stroke-width="6" d="m 1104.234,455.507 -98.399,86.788 c -7.578,6.683 -11.918,16.299 -11.918,26.4 v 35.041 c 0,11.823 5.936,22.857 15.801,29.374 l 20.936,13.829 c 3.107,2.053 4.979,5.528 4.979,9.253 v 21.422 c 0,6.124 4.963,11.088 11.086,11.088 10.479,0 15.11,13.19 6.935,19.742 l -27.706,22.198 c -13.65,10.938 -17.2,30.239 -8.333,45.317 l 26.619,45.268 c 6.325,10.755 17.869,17.358 30.346,17.358 19.442,0 35.203,15.761 35.203,35.202 v 44.404" clip-path="url(#SVGID_148_)" transform="translate(504.54352,15.974927)"/><path id="path762" fill="none" stroke="#000" stroke-miterlimit="10" stroke-width="6" d="m 686.21,670.002 c 1.018,-14.888 3.247,-29.719 6.695,-44.332" clip-path="url(#SVGID_150_)" transform="translate(504.54352,15.974927)"/></svg>