<?xml version="1.0" encoding="UTF-8" standalone="no"?>
<svg
   xmlns:dc="http://purl.org/dc/elements/1.1/"
   xmlns:cc="http://creativecommons.org/ns#"
   xmlns:rdf="http://www.w3.org/1999/02/22-rdf-syntax-ns#"
   xmlns:svg="http://www.w3.org/2000/svg"
   xmlns="http://www.w3.org/2000/svg"
   xmlns:xlink="http://www.w3.org/1999/xlink"
   xml:space="preserve"
   enable-background="new 514.5 180.5 878 766"
   viewBox="514.5 180.5 878 766"
   height="766px"
   width="878px"
   y="0px"
   x="0px"
   id="Layer_1"
   version="1.1"><metadata
     id="metadata519"><rdf:RDF><cc:Work
         rdf:about=""><dc:format>image/svg+xml</dc:format><dc:type
           rdf:resource="http://purl.org/dc/dcmitype/StillImage" /><dc:title></dc:title></cc:Work></rdf:RDF></metadata><defs
     id="defs517"><defs
       id="defs207"><rect
         height="1080"
         width="1920"
         y="0"
         x="0"
         id="SVGID_41_" /></defs><clipPath
       id="SVGID_42_"><use
         height="100%"
         width="100%"
         y="0"
         x="0"
         style="overflow:visible"
         id="use209"
         overflow="visible"
         xlink:href="#SVGID_41_" /></clipPath><defs
       id="defs197"><rect
         height="1080"
         width="1920"
         y="0"
         x="0"
         id="SVGID_39_" /></defs><clipPath
       id="SVGID_40_"><use
         height="100%"
         width="100%"
         y="0"
         x="0"
         style="overflow:visible"
         id="use199"
         overflow="visible"
         xlink:href="#SVGID_39_" /></clipPath><defs
       id="defs187"><rect
         height="1080"
         width="1920"
         y="0"
         x="0"
         id="SVGID_37_" /></defs><clipPath
       id="SVGID_38_"><use
         height="100%"
         width="100%"
         y="0"
         x="0"
         style="overflow:visible"
         id="use189"
         overflow="visible"
         xlink:href="#SVGID_37_" /></clipPath><defs
       id="defs177"><rect
         height="1080"
         width="1920"
         y="0"
         x="0"
         id="SVGID_35_" /></defs><clipPath
       id="SVGID_36_"><use
         height="100%"
         width="100%"
         y="0"
         x="0"
         style="overflow:visible"
         id="use179"
         overflow="visible"
         xlink:href="#SVGID_35_" /></clipPath><defs
       id="defs167"><rect
         height="1080"
         width="1920"
         y="0"
         x="0"
         id="SVGID_33_" /></defs><clipPath
       id="SVGID_34_"><use
         height="100%"
         width="100%"
         y="0"
         x="0"
         style="overflow:visible"
         id="use169"
         overflow="visible"
         xlink:href="#SVGID_33_" /></clipPath><defs
       id="defs157"><rect
         height="1080"
         width="1920"
         y="0"
         x="0"
         id="SVGID_31_" /></defs><clipPath
       id="SVGID_32_"><use
         height="100%"
         width="100%"
         y="0"
         x="0"
         style="overflow:visible"
         id="use159"
         overflow="visible"
         xlink:href="#SVGID_31_" /></clipPath><defs
       id="defs147"><rect
         height="1080"
         width="1920"
         y="0"
         x="0"
         id="SVGID_29_" /></defs><clipPath
       id="SVGID_30_"><use
         height="100%"
         width="100%"
         y="0"
         x="0"
         style="overflow:visible"
         id="use149"
         overflow="visible"
         xlink:href="#SVGID_29_" /></clipPath><defs
       id="defs137"><rect
         height="1080"
         width="1920"
         y="0"
         x="0"
         id="SVGID_27_" /></defs><clipPath
       id="SVGID_28_"><use
         height="100%"
         width="100%"
         y="0"
         x="0"
         style="overflow:visible"
         id="use139"
         overflow="visible"
         xlink:href="#SVGID_27_" /></clipPath><defs
       id="defs127"><rect
         height="1080"
         width="1920"
         y="0"
         x="0"
         id="SVGID_25_" /></defs><clipPath
       id="SVGID_26_"><use
         height="100%"
         width="100%"
         y="0"
         x="0"
         style="overflow:visible"
         id="use129"
         overflow="visible"
         xlink:href="#SVGID_25_" /></clipPath><defs
       id="defs117"><rect
         height="1080"
         width="1920"
         y="0"
         x="0"
         id="SVGID_23_" /></defs><clipPath
       id="SVGID_24_"><use
         height="100%"
         width="100%"
         y="0"
         x="0"
         style="overflow:visible"
         id="use119"
         overflow="visible"
         xlink:href="#SVGID_23_" /></clipPath><defs
       id="defs107"><rect
         height="1080"
         width="1920"
         y="0"
         x="0"
         id="SVGID_21_" /></defs><clipPath
       id="SVGID_22_"><use
         height="100%"
         width="100%"
         y="0"
         x="0"
         style="overflow:visible"
         id="use109"
         overflow="visible"
         xlink:href="#SVGID_21_" /></clipPath><defs
       id="defs97"><rect
         height="1080"
         width="1920"
         y="0"
         x="0"
         id="SVGID_19_" /></defs><clipPath
       id="SVGID_20_"><use
         height="100%"
         width="100%"
         y="0"
         x="0"
         style="overflow:visible"
         id="use99"
         overflow="visible"
         xlink:href="#SVGID_19_" /></clipPath><defs
       id="defs87"><rect
         height="1080"
         width="1920"
         y="0"
         x="0"
         id="SVGID_17_" /></defs><clipPath
       id="SVGID_18_"><use
         height="100%"
         width="100%"
         y="0"
         x="0"
         style="overflow:visible"
         id="use89"
         overflow="visible"
         xlink:href="#SVGID_17_" /></clipPath><defs
       id="defs77"><rect
         height="1080"
         width="1920"
         y="0"
         x="0"
         id="SVGID_15_" /></defs><clipPath
       id="SVGID_16_"><use
         height="100%"
         width="100%"
         y="0"
         x="0"
         style="overflow:visible"
         id="use79"
         overflow="visible"
         xlink:href="#SVGID_15_" /></clipPath><defs
       id="defs67"><rect
         height="1080"
         width="1920"
         y="0"
         x="0"
         id="SVGID_13_" /></defs><clipPath
       id="SVGID_14_"><use
         height="100%"
         width="100%"
         y="0"
         x="0"
         style="overflow:visible"
         id="use69"
         overflow="visible"
         xlink:href="#SVGID_13_" /></clipPath><defs
       id="defs57"><rect
         height="1080"
         width="1920"
         y="0"
         x="0"
         id="SVGID_11_" /></defs><clipPath
       id="SVGID_12_"><use
         height="100%"
         width="100%"
         y="0"
         x="0"
         style="overflow:visible"
         id="use59"
         overflow="visible"
         xlink:href="#SVGID_11_" /></clipPath><defs
       id="defs47"><rect
         height="1080"
         width="1920"
         y="0"
         x="0"
         id="SVGID_9_" /></defs><clipPath
       id="SVGID_10_"><use
         height="100%"
         width="100%"
         y="0"
         x="0"
         style="overflow:visible"
         id="use49"
         overflow="visible"
         xlink:href="#SVGID_9_" /></clipPath><defs
       id="defs37"><rect
         height="1080"
         width="1920"
         y="0"
         x="0"
         id="SVGID_7_" /></defs><clipPath
       id="SVGID_8_"><use
         height="100%"
         width="100%"
         y="0"
         x="0"
         style="overflow:visible"
         id="use39"
         overflow="visible"
         xlink:href="#SVGID_7_" /></clipPath><defs
       id="defs27"><rect
         height="1080"
         width="1920"
         y="0"
         x="0"
         id="SVGID_5_" /></defs><clipPath
       id="SVGID_6_"><use
         height="100%"
         width="100%"
         y="0"
         x="0"
         style="overflow:visible"
         id="use29"
         overflow="visible"
         xlink:href="#SVGID_5_" /></clipPath><defs
       id="defs17"><rect
         height="1080"
         width="1920"
         y="0"
         x="0"
         id="SVGID_3_" /></defs><clipPath
       id="SVGID_4_"><use
         height="100%"
         width="100%"
         y="0"
         x="0"
         style="overflow:visible"
         id="use19"
         overflow="visible"
         xlink:href="#SVGID_3_" /></clipPath><defs
       id="defs7"><rect
         height="1080"
         width="1920"
         y="0"
         x="0"
         id="SVGID_1_" /></defs><clipPath
       id="SVGID_2_"><use
         height="100%"
         width="100%"
         y="0"
         x="0"
         style="overflow:visible"
         id="use9"
         overflow="visible"
         xlink:href="#SVGID_1_" /></clipPath><defs
       id="defs309"><rect
         height="1080"
         width="1920"
         y="0"
         x="0"
         id="SVGID_61_" /></defs><clipPath
       id="SVGID_62_"><use
         height="100%"
         width="100%"
         y="0"
         x="0"
         style="overflow:visible"
         id="use311"
         overflow="visible"
         xlink:href="#SVGID_61_" /></clipPath><defs
       id="defs299"><rect
         height="1080"
         width="1920"
         y="0"
         x="0"
         id="SVGID_59_" /></defs><clipPath
       id="SVGID_60_"><use
         height="100%"
         width="100%"
         y="0"
         x="0"
         style="overflow:visible"
         id="use301"
         overflow="visible"
         xlink:href="#SVGID_59_" /></clipPath><defs
       id="defs289"><rect
         height="1080"
         width="1920"
         y="0"
         x="0"
         id="SVGID_57_" /></defs><clipPath
       id="SVGID_58_"><use
         height="100%"
         width="100%"
         y="0"
         x="0"
         style="overflow:visible"
         id="use291"
         overflow="visible"
         xlink:href="#SVGID_57_" /></clipPath><defs
       id="defs279"><rect
         height="1080"
         width="1920"
         y="0"
         x="0"
         id="SVGID_55_" /></defs><clipPath
       id="SVGID_56_"><use
         height="100%"
         width="100%"
         y="0"
         x="0"
         style="overflow:visible"
         id="use281"
         overflow="visible"
         xlink:href="#SVGID_55_" /></clipPath><defs
       id="defs269"><rect
         height="1080"
         width="1920"
         y="0"
         x="0"
         id="SVGID_53_" /></defs><clipPath
       id="SVGID_54_"><use
         height="100%"
         width="100%"
         y="0"
         x="0"
         style="overflow:visible"
         id="use271"
         overflow="visible"
         xlink:href="#SVGID_53_" /></clipPath><defs
       id="defs259"><rect
         height="1080"
         width="1920"
         y="0"
         x="0"
         id="SVGID_51_" /></defs><clipPath
       id="SVGID_52_"><use
         height="100%"
         width="100%"
         y="0"
         x="0"
         style="overflow:visible"
         id="use261"
         overflow="visible"
         xlink:href="#SVGID_51_" /></clipPath><defs
       id="defs249"><rect
         height="1080"
         width="1920"
         y="0"
         x="0"
         id="SVGID_49_" /></defs><clipPath
       id="SVGID_50_"><use
         height="100%"
         width="100%"
         y="0"
         x="0"
         style="overflow:visible"
         id="use251"
         overflow="visible"
         xlink:href="#SVGID_49_" /></clipPath><defs
       id="defs239"><rect
         height="1080"
         width="1920"
         y="0"
         x="0"
         id="SVGID_47_" /></defs><clipPath
       id="SVGID_48_"><use
         height="100%"
         width="100%"
         y="0"
         x="0"
         style="overflow:visible"
         id="use241"
         overflow="visible"
         xlink:href="#SVGID_47_" /></clipPath><defs
       id="defs229"><rect
         height="1080"
         width="1920"
         y="0"
         x="0"
         id="SVGID_45_" /></defs><clipPath
       id="SVGID_46_"><use
         height="100%"
         width="100%"
         y="0"
         x="0"
         style="overflow:visible"
         id="use231"
         overflow="visible"
         xlink:href="#SVGID_45_" /></clipPath><defs
       id="defs219"><rect
         height="1080"
         width="1920"
         y="0"
         x="0"
         id="SVGID_43_" /></defs><clipPath
       id="SVGID_44_"><use
         height="100%"
         width="100%"
         y="0"
         x="0"
         style="overflow:visible"
         id="use221"
         overflow="visible"
         xlink:href="#SVGID_43_" /></clipPath><defs
       id="defs421"><rect
         height="1080"
         width="1920"
         y="0"
         x="0"
         id="SVGID_83_" /></defs><clipPath
       id="SVGID_84_"><use
         height="100%"
         width="100%"
         y="0"
         x="0"
         style="overflow:visible"
         id="use423"
         overflow="visible"
         xlink:href="#SVGID_83_" /></clipPath><defs
       id="defs411"><rect
         height="1080"
         width="1920"
         y="0"
         x="0"
         id="SVGID_81_" /></defs><clipPath
       id="SVGID_82_"><use
         height="100%"
         width="100%"
         y="0"
         x="0"
         style="overflow:visible"
         id="use413"
         overflow="visible"
         xlink:href="#SVGID_81_" /></clipPath><defs
       id="defs401"><rect
         height="1080"
         width="1920"
         y="0"
         x="0"
         id="SVGID_79_" /></defs><clipPath
       id="SVGID_80_"><use
         height="100%"
         width="100%"
         y="0"
         x="0"
         style="overflow:visible"
         id="use403"
         overflow="visible"
         xlink:href="#SVGID_79_" /></clipPath><defs
       id="defs391"><rect
         height="1080"
         width="1920"
         y="0"
         x="0"
         id="SVGID_77_" /></defs><clipPath
       id="SVGID_78_"><use
         height="100%"
         width="100%"
         y="0"
         x="0"
         style="overflow:visible"
         id="use393"
         overflow="visible"
         xlink:href="#SVGID_77_" /></clipPath><defs
       id="defs381"><rect
         height="1080"
         width="1920"
         y="0"
         x="0"
         id="SVGID_75_" /></defs><clipPath
       id="SVGID_76_"><use
         height="100%"
         width="100%"
         y="0"
         x="0"
         style="overflow:visible"
         id="use383"
         overflow="visible"
         xlink:href="#SVGID_75_" /></clipPath><defs
       id="defs371"><rect
         height="1080"
         width="1920"
         y="0"
         x="0"
         id="SVGID_73_" /></defs><clipPath
       id="SVGID_74_"><use
         height="100%"
         width="100%"
         y="0"
         x="0"
         style="overflow:visible"
         id="use373"
         overflow="visible"
         xlink:href="#SVGID_73_" /></clipPath><defs
       id="defs361"><rect
         height="1080"
         width="1920"
         y="0"
         x="0"
         id="SVGID_71_" /></defs><clipPath
       id="SVGID_72_"><use
         height="100%"
         width="100%"
         y="0"
         x="0"
         style="overflow:visible"
         id="use363"
         overflow="visible"
         xlink:href="#SVGID_71_" /></clipPath><defs
       id="defs351"><rect
         height="1080"
         width="1920"
         y="0"
         x="0"
         id="SVGID_69_" /></defs><clipPath
       id="SVGID_70_"><use
         height="100%"
         width="100%"
         y="0"
         x="0"
         style="overflow:visible"
         id="use353"
         overflow="visible"
         xlink:href="#SVGID_69_" /></clipPath><defs
       id="defs341"><rect
         height="1080"
         width="1920"
         y="0"
         x="0"
         id="SVGID_67_" /></defs><clipPath
       id="SVGID_68_"><use
         height="100%"
         width="100%"
         y="0"
         x="0"
         style="overflow:visible"
         id="use343"
         overflow="visible"
         xlink:href="#SVGID_67_" /></clipPath><defs
       id="defs331"><rect
         height="1080"
         width="1920"
         y="0"
         x="0"
         id="SVGID_65_" /></defs><clipPath
       id="SVGID_66_"><use
         height="100%"
         width="100%"
         y="0"
         x="0"
         style="overflow:visible"
         id="use333"
         overflow="visible"
         xlink:href="#SVGID_65_" /></clipPath><defs
       id="defs321"><rect
         height="1080"
         width="1920"
         y="0"
         x="0"
         id="SVGID_63_" /></defs><clipPath
       id="SVGID_64_"><use
         height="100%"
         width="100%"
         y="0"
         x="0"
         style="overflow:visible"
         id="use323"
         overflow="visible"
         xlink:href="#SVGID_63_" /></clipPath><defs
       id="defs503"><rect
         height="1080"
         width="1920"
         y="0"
         x="0"
         id="SVGID_99_" /></defs><clipPath
       id="SVGID_100_"><use
         height="100%"
         width="100%"
         y="0"
         x="0"
         style="overflow:visible"
         id="use505"
         overflow="visible"
         xlink:href="#SVGID_99_" /></clipPath><defs
       id="defs493"><rect
         height="1080"
         width="1920"
         y="0"
         x="0"
         id="SVGID_97_" /></defs><clipPath
       id="SVGID_98_"><use
         height="100%"
         width="100%"
         y="0"
         x="0"
         style="overflow:visible"
         id="use495"
         overflow="visible"
         xlink:href="#SVGID_97_" /></clipPath><defs
       id="defs483"><rect
         height="1080"
         width="1920"
         y="0"
         x="0"
         id="SVGID_95_" /></defs><clipPath
       id="SVGID_96_"><use
         height="100%"
         width="100%"
         y="0"
         x="0"
         style="overflow:visible"
         id="use485"
         overflow="visible"
         xlink:href="#SVGID_95_" /></clipPath><defs
       id="defs473"><rect
         height="1080"
         width="1920"
         y="0"
         x="0"
         id="SVGID_93_" /></defs><clipPath
       id="SVGID_94_"><use
         height="100%"
         width="100%"
         y="0"
         x="0"
         style="overflow:visible"
         id="use475"
         overflow="visible"
         xlink:href="#SVGID_93_" /></clipPath><defs
       id="defs463"><rect
         height="1080"
         width="1920"
         y="0"
         x="0"
         id="SVGID_91_" /></defs><clipPath
       id="SVGID_92_"><use
         height="100%"
         width="100%"
         y="0"
         x="0"
         style="overflow:visible"
         id="use465"
         overflow="visible"
         xlink:href="#SVGID_91_" /></clipPath><defs
       id="defs453"><rect
         height="1080"
         width="1920"
         y="0"
         x="0"
         id="SVGID_89_" /></defs><clipPath
       id="SVGID_90_"><use
         height="100%"
         width="100%"
         y="0"
         x="0"
         style="overflow:visible"
         id="use455"
         overflow="visible"
         xlink:href="#SVGID_89_" /></clipPath><defs
       id="defs443"><rect
         height="1080"
         width="1920"
         y="0"
         x="0"
         id="SVGID_87_" /></defs><clipPath
       id="SVGID_88_"><use
         height="100%"
         width="100%"
         y="0"
         x="0"
         style="overflow:visible"
         id="use445"
         overflow="visible"
         xlink:href="#SVGID_87_" /></clipPath><defs
       id="defs433"><rect
         height="1080"
         width="1920"
         y="0"
         x="0"
         id="SVGID_85_" /></defs><clipPath
       id="SVGID_86_"><use
         height="100%"
         width="100%"
         y="0"
         x="0"
         style="overflow:visible"
         id="use435"
         overflow="visible"
         xlink:href="#SVGID_85_" /></clipPath></defs><polyline
     id="polyline2"
     points="894.683,656.649 943.299,621.601   991.416,657.332 "
     stroke-miterlimit="10"
     stroke-width="6"
     stroke="#000000"
     fill="none" /><line
     id="line4"
     y2="567"
     x2="944"
     y1="621"
     x1="944"
     stroke-miterlimit="10"
     stroke-width="6"
     stroke="#000000"
     fill="none" /><path
     style="fill:#ffffff"
     id="path12"
     d="m 1194.498,729.177 c 7.068,0 7.068,5.012 14.139,5.012 7.065,0 7.065,-5.012 14.133,-5.012 7.068,0 7.068,5.012 14.137,5.012 7.07,0 7.07,-5.012 14.143,-5.012 7.067,0 7.067,5.012 14.137,5.012 7.073,0 7.073,-5.012 14.146,-5.012 7.073,0 7.073,5.012 14.146,5.012"
     clip-path="url(#SVGID_2_)" /><path
     style="fill:none;stroke:#1183c5;stroke-width:6;stroke-miterlimit:10"
     id="path22"
     d="m 1194.498,729.177 c 7.068,0 7.068,5.012 14.139,5.012 7.065,0 7.065,-5.012 14.133,-5.012 7.068,0 7.068,5.012 14.137,5.012 7.07,0 7.07,-5.012 14.143,-5.012 7.067,0 7.067,5.012 14.137,5.012 7.073,0 7.073,-5.012 14.146,-5.012 7.073,0 7.073,5.012 14.146,5.012"
     stroke-miterlimit="10"
     clip-path="url(#SVGID_4_)" /><line
     style="fill:none"
     id="line32"
     y2="531"
     x2="994"
     y1="531"
     x1="974"
     clip-path="url(#SVGID_6_)" /><line
     style="fill:none;stroke:#1183c5;stroke-width:6;stroke-miterlimit:10"
     id="line42"
     y2="531"
     x2="994"
     y1="531"
     x1="974"
     stroke-miterlimit="10"
     clip-path="url(#SVGID_8_)" /><line
     style="fill:none;stroke:#000000;stroke-width:6;stroke-miterlimit:10"
     id="line52"
     y2="531"
     x2="1024"
     y1="531"
     x1="1005"
     stroke-miterlimit="10"
     clip-path="url(#SVGID_10_)" /><path
     style="fill:#ffffff"
     id="path62"
     d="m 1153.153,325.743 v 0 c 1.264,9.113 8.428,16.277 17.54,17.541 h 10e-4 -10e-4 c -9.112,1.264 -16.276,8.428 -17.54,17.54 -1.264,-9.112 -8.428,-16.276 -17.541,-17.54 9.114,-1.264 16.278,-8.429 17.541,-17.541"
     clip-path="url(#SVGID_12_)" /><path
     style="fill:none;stroke:#1183c5;stroke-width:6;stroke-linecap:square;stroke-linejoin:bevel;stroke-miterlimit:10"
     id="path72"
     d="m 1153.153,325.743 v 0 c 1.264,9.113 8.428,16.277 17.54,17.541 h 10e-4 -10e-4 c -9.112,1.264 -16.276,8.428 -17.54,17.54 -1.264,-9.112 -8.428,-16.276 -17.541,-17.54 9.114,-1.264 16.278,-8.429 17.541,-17.541 z"
     stroke-miterlimit="10"
     clip-path="url(#SVGID_14_)" /><path
     style="fill:none;stroke:#000000;stroke-width:6;stroke-miterlimit:10"
     id="path82"
     d="m 1121.834,425.489 c 20.459,22.567 36.693,49.036 47.452,78.159"
     stroke-miterlimit="10"
     clip-path="url(#SVGID_16_)" /><path
     style="fill:none;stroke:#000000;stroke-width:6;stroke-miterlimit:10"
     id="path92"
     d="m 1043.326,368.054 c 18.497,8.439 35.737,19.154 51.364,31.787"
     stroke-miterlimit="10"
     clip-path="url(#SVGID_18_)" /><path
     style="fill:none;stroke:#000000;stroke-width:6;stroke-miterlimit:10"
     id="path102"
     d="M 714.214,514.37 C 733.461,453.53 776.243,403.152 831.878,373.926"
     stroke-miterlimit="10"
     clip-path="url(#SVGID_20_)" /><path
     style="fill:none;stroke:#000000;stroke-width:6;stroke-miterlimit:10"
     id="path112"
     d="m 1023.916,813.791 c -25.12,8.896 -52.159,13.74 -80.328,13.74 -21.864,0 -43.047,-2.917 -63.18,-8.383"
     stroke-miterlimit="10"
     clip-path="url(#SVGID_22_)" /><line
     style="fill:none;stroke:#000000;stroke-width:6;stroke-miterlimit:10"
     id="line122"
     y2="401.89999"
     x2="623.73499"
     y1="409.89999"
     x1="615.73499"
     stroke-miterlimit="10"
     clip-path="url(#SVGID_24_)" /><line
     style="fill:none;stroke:#000000;stroke-width:6;stroke-miterlimit:10"
     id="line132"
     y2="401.89999"
     x2="642.73499"
     y1="409.89999"
     x1="650.73499"
     stroke-miterlimit="10"
     clip-path="url(#SVGID_26_)" /><line
     style="fill:none;stroke:#000000;stroke-width:6;stroke-miterlimit:10"
     id="line142"
     y2="378"
     x2="634"
     y1="389"
     x1="634"
     stroke-miterlimit="10"
     clip-path="url(#SVGID_28_)" /><line
     style="fill:none"
     id="line152"
     y2="551"
     x2="674"
     y1="529"
     x1="674"
     clip-path="url(#SVGID_30_)" /><line
     style="fill:none;stroke:#1183c5;stroke-width:6;stroke-miterlimit:10"
     id="line162"
     y2="551"
     x2="674"
     y1="529"
     x1="674"
     stroke-miterlimit="10"
     clip-path="url(#SVGID_32_)" /><line
     style="fill:none"
     id="line172"
     y2="540"
     x2="663"
     y1="540"
     x1="685"
     clip-path="url(#SVGID_34_)" /><line
     style="fill:none;stroke:#1183c5;stroke-width:6;stroke-miterlimit:10"
     id="line182"
     y2="540"
     x2="663"
     y1="540"
     x1="685"
     stroke-miterlimit="10"
     clip-path="url(#SVGID_36_)" /><path
     style="fill:#1183c5"
     id="path192"
     d="m 943,772 v 0 c -3.313,0 -6,-2.687 -6,-6 0,-3.312 2.687,-6 6,-6 3.312,0 6,2.688 6,6 0,3.313 -2.687,6 -6,6"
     clip-path="url(#SVGID_38_)" /><path
     id="path202"
     d="m 943,735 v 0 c -3.313,0 -6,-2.687 -6,-6 0,-3.312 2.687,-6 6,-6 3.312,0 6,2.688 6,6 0,3.313 -2.687,6 -6,6"
     clip-path="url(#SVGID_40_)" /><path
     style="fill:#1183c5"
     id="path212"
     d="m 943,697 v 0 c -3.313,0 -6,-2.687 -6,-6 0,-3.312 2.687,-6 6,-6 3.312,0 6,2.688 6,6 0,3.313 -2.687,6 -6,6"
     clip-path="url(#SVGID_42_)" /><path
     style="fill:none;stroke:#000000;stroke-width:6;stroke-miterlimit:10"
     id="path224"
     d="M 1219,719 V 834 H 1056 V 719 c 0,-19.329 15.67,-35 35,-35 h 6.351 l 39.077,34.286 L 1175.505,684 H 1184 c 19.329,0 35,15.671 35,35 z"
     stroke-miterlimit="10"
     clip-path="url(#SVGID_44_)" /><line
     style="fill:none;stroke:#000000;stroke-width:6;stroke-miterlimit:10"
     id="line234"
     y2="836"
     x2="1136"
     y1="718"
     x1="1136"
     stroke-miterlimit="10"
     clip-path="url(#SVGID_46_)" /><line
     style="fill:none;stroke:#000000;stroke-width:6;stroke-miterlimit:10"
     id="line244"
     y2="762"
     x2="1184"
     y1="835"
     x1="1184"
     stroke-miterlimit="10"
     clip-path="url(#SVGID_48_)" /><line
     style="fill:none;stroke:#000000;stroke-width:6;stroke-miterlimit:10"
     id="line254"
     y2="762"
     x2="1087"
     y1="835"
     x1="1087"
     stroke-miterlimit="10"
     clip-path="url(#SVGID_50_)" /><path
     style="fill:#ffffff"
     id="path264"
     d="M 1198,641 H 1073 V 593.883 C 1073,566.334 1095.332,544 1122.882,544 h 25.235 c 27.549,0 49.882,22.334 49.882,49.883 z"
     clip-path="url(#SVGID_52_)" /><path
     style="fill:none;stroke:#000000;stroke-width:6;stroke-miterlimit:10"
     id="path274"
     d="M 1198,641 H 1073 V 593.883 C 1073,566.334 1095.332,544 1122.882,544 h 25.235 c 27.549,0 49.882,22.334 49.882,49.883 z"
     stroke-miterlimit="10"
     clip-path="url(#SVGID_54_)" /><path
     style="fill:#ffffff"
     id="path284"
     d="m 1177.098,620.009 c 0,23.646 -19.896,42.627 -43.868,41.123 -20.276,-1.272 -36.822,-17.544 -38.414,-37.798 -0.603,-7.669 0.899,-14.967 4.011,-21.334 h 43.246 l 10.301,-14.957 10.302,14.957 h 10.281 c 2.657,5.439 4.141,11.559 4.141,18.009"
     clip-path="url(#SVGID_56_)" /><path
     style="fill:none;stroke:#000000;stroke-width:6;stroke-miterlimit:10"
     id="path294"
     d="m 1177.098,620.009 c 0,23.646 -19.896,42.627 -43.868,41.123 -20.276,-1.272 -36.822,-17.544 -38.414,-37.798 -0.603,-7.669 0.899,-14.967 4.011,-21.334 h 43.246 l 10.301,-14.957 10.302,14.957 h 10.281 c 2.657,5.439 4.141,11.559 4.141,18.009 z"
     stroke-miterlimit="10"
     clip-path="url(#SVGID_58_)" /><line
     style="fill:none;stroke:#000000;stroke-width:6;stroke-miterlimit:10"
     id="line304"
     y2="745"
     x2="1111"
     y1="745"
     x1="1122"
     stroke-miterlimit="10"
     clip-path="url(#SVGID_60_)" /><line
     style="fill:none;stroke:#000000;stroke-width:6;stroke-miterlimit:10"
     id="line314"
     y2="772"
     x2="1111"
     y1="772"
     x1="1122"
     stroke-miterlimit="10"
     clip-path="url(#SVGID_62_)" /><circle
     style="fill:none;stroke:#000000;stroke-width:6;stroke-miterlimit:10"
     id="circle326"
     r="51"
     cy="292"
     cx="944"
     stroke-miterlimit="10"
     clip-path="url(#SVGID_64_)" /><path
     style="fill:none;stroke:#000000;stroke-width:6;stroke-miterlimit:10"
     id="path336"
     d="M 906,513 H 865 V 401.5 c 0,-19.054 15.445,-34.5 34.5,-34.5 h 90 c 19.054,0 34.5,15.446 34.5,34.5 V 513 h -94.5"
     stroke-miterlimit="10"
     clip-path="url(#SVGID_66_)" /><line
     style="fill:none;stroke:#000000;stroke-width:6;stroke-miterlimit:10"
     id="line346"
     y2="449"
     x2="943"
     y1="368"
     x1="943"
     stroke-miterlimit="10"
     clip-path="url(#SVGID_68_)" /><line
     style="fill:none;stroke:#000000;stroke-width:6;stroke-miterlimit:10"
     id="line356"
     y2="443"
     x2="989"
     y1="514"
     x1="989"
     stroke-miterlimit="10"
     clip-path="url(#SVGID_70_)" /><line
     style="fill:none;stroke:#000000;stroke-width:6;stroke-miterlimit:10"
     id="line366"
     y2="443"
     x2="895"
     y1="514"
     x1="895"
     stroke-miterlimit="10"
     clip-path="url(#SVGID_72_)" /><line
     style="fill:none;stroke:#000000;stroke-width:6;stroke-miterlimit:10"
     id="line376"
     y2="423"
     x2="961"
     y1="423"
     x1="984"
     stroke-miterlimit="10"
     clip-path="url(#SVGID_74_)" /><polyline
     style="fill:none;stroke:#000000;stroke-width:6;stroke-miterlimit:10"
     id="polyline386"
     points="    943.434,367.009 922.531,391.047 895.357,368.053   "
     stroke-miterlimit="10"
     clip-path="url(#SVGID_76_)" /><polyline
     style="fill:none;stroke:#000000;stroke-width:6;stroke-miterlimit:10"
     id="polyline396"
     points="    943.434,367.009 964.337,391.047 991.511,368.053   "
     stroke-miterlimit="10"
     clip-path="url(#SVGID_78_)" /><polyline
     style="fill:none;stroke:#000000;stroke-width:6;stroke-linejoin:round;stroke-miterlimit:10"
     id="polyline406"
     points="    966,289 945.524,289 932.666,272.278 920.441,289 893,289   "
     stroke-miterlimit="10"
     clip-path="url(#SVGID_80_)" /><line
     style="fill:none;stroke:#000000;stroke-width:6;stroke-miterlimit:10"
     id="line416"
     y2="513"
     x2="943"
     y1="465"
     x1="943"
     stroke-miterlimit="10"
     clip-path="url(#SVGID_82_)" /><line
     style="fill:none;stroke:#000000;stroke-width:6;stroke-linejoin:round;stroke-miterlimit:10"
     id="line426"
     y2="289"
     x2="995"
     y1="289"
     x1="974.33197"
     stroke-miterlimit="10"
     clip-path="url(#SVGID_84_)" /><circle
     style="fill:none;stroke:#000000;stroke-width:6;stroke-miterlimit:10"
     id="circle438"
     r="52.5"
     cy="597.5"
     cx="760.5"
     stroke-miterlimit="10"
     clip-path="url(#SVGID_86_)" /><path
     style="fill:none;stroke:#000000;stroke-width:6;stroke-linejoin:round;stroke-miterlimit:10"
     id="path448"
     d="m 708.39,605.76 c 0,0 33.981,-8.496 54.894,-32.021 0,0 18.298,18.297 49.667,23.524"
     stroke-miterlimit="10"
     clip-path="url(#SVGID_88_)" /><path
     style="fill:none;stroke:#000000;stroke-width:6;stroke-miterlimit:10"
     id="path458"
     d="m 675.043,745.526 2.531,-42.958 c 0,-14.121 11.447,-25.568 25.569,-25.568 h 119.32 c 14.121,0 25.567,11.447 25.567,25.568 L 855.78,834 H 669.826 l 3.093,-52.454"
     stroke-miterlimit="10"
     clip-path="url(#SVGID_90_)" /><line
     style="fill:none;stroke:#000000;stroke-width:6;stroke-miterlimit:10"
     id="line468"
     y2="759"
     x2="811"
     y1="835"
     x1="811"
     stroke-miterlimit="10"
     clip-path="url(#SVGID_92_)" /><line
     style="fill:none;stroke:#000000;stroke-width:6;stroke-miterlimit:10"
     id="line478"
     y2="759"
     x2="710"
     y1="835"
     x1="710"
     stroke-miterlimit="10"
     clip-path="url(#SVGID_94_)" /><polygon
     style="fill:none;stroke:#000000;stroke-width:6;stroke-miterlimit:10"
     id="polygon488"
     points="770.631,705 750.707,705 745.592,677 775.745,677 "
     stroke-miterlimit="10"
     clip-path="url(#SVGID_96_)" /><polygon
     style="fill:none;stroke:#000000;stroke-width:6;stroke-miterlimit:10"
     id="polygon498"
     points="774.937,833 746.403,833 752.077,705 769.263,705 "
     stroke-miterlimit="10"
     clip-path="url(#SVGID_98_)" /><line
     style="fill:none;stroke:#000000;stroke-width:6;stroke-miterlimit:10"
     id="line508"
     y2="733"
     x2="812"
     y1="733"
     x1="786"
     stroke-miterlimit="10"
     clip-path="url(#SVGID_100_)" /></svg>