<svg xmlns="http://www.w3.org/2000/svg" xmlns:svg="http://www.w3.org/2000/svg" xmlns:xlink="http://www.w3.org/1999/xlink" id="Layer_1" width="878" height="766" x="0" y="0" enable-background="new 514.5 180.5 878 766" version="1.1" viewBox="514.5 180.5 878 766" xml:space="preserve"><metadata id="metadata519"/><defs id="defs517"><defs id="defs207"><rect id="SVGID_41_" width="1920" height="1080" x="0" y="0"/></defs><clipPath id="SVGID_42_"><use id="use209" width="100%" height="100%" x="0" y="0" overflow="visible" xlink:href="#SVGID_41_"/></clipPath><defs id="defs197"><rect id="SVGID_39_" width="1920" height="1080" x="0" y="0"/></defs><clipPath id="SVGID_40_"><use id="use199" width="100%" height="100%" x="0" y="0" overflow="visible" xlink:href="#SVGID_39_"/></clipPath><defs id="defs187"><rect id="SVGID_37_" width="1920" height="1080" x="0" y="0"/></defs><clipPath id="SVGID_38_"><use id="use189" width="100%" height="100%" x="0" y="0" overflow="visible" xlink:href="#SVGID_37_"/></clipPath><defs id="defs177"><rect id="SVGID_35_" width="1920" height="1080" x="0" y="0"/></defs><clipPath id="SVGID_36_"><use id="use179" width="100%" height="100%" x="0" y="0" overflow="visible" xlink:href="#SVGID_35_"/></clipPath><defs id="defs167"><rect id="SVGID_33_" width="1920" height="1080" x="0" y="0"/></defs><clipPath id="SVGID_34_"><use id="use169" width="100%" height="100%" x="0" y="0" overflow="visible" xlink:href="#SVGID_33_"/></clipPath><defs id="defs157"><rect id="SVGID_31_" width="1920" height="1080" x="0" y="0"/></defs><clipPath id="SVGID_32_"><use id="use159" width="100%" height="100%" x="0" y="0" overflow="visible" xlink:href="#SVGID_31_"/></clipPath><defs id="defs147"><rect id="SVGID_29_" width="1920" height="1080" x="0" y="0"/></defs><clipPath id="SVGID_30_"><use id="use149" width="100%" height="100%" x="0" y="0" overflow="visible" xlink:href="#SVGID_29_"/></clipPath><defs id="defs137"><rect id="SVGID_27_" width="1920" height="1080" x="0" y="0"/></defs><clipPath id="SVGID_28_"><use id="use139" width="100%" height="100%" x="0" y="0" overflow="visible" xlink:href="#SVGID_27_"/></clipPath><defs id="defs127"><rect id="SVGID_25_" width="1920" height="1080" x="0" y="0"/></defs><clipPath id="SVGID_26_"><use id="use129" width="100%" height="100%" x="0" y="0" overflow="visible" xlink:href="#SVGID_25_"/></clipPath><defs id="defs117"><rect id="SVGID_23_" width="1920" height="1080" x="0" y="0"/></defs><clipPath id="SVGID_24_"><use id="use119" width="100%" height="100%" x="0" y="0" overflow="visible" xlink:href="#SVGID_23_"/></clipPath><defs id="defs107"><rect id="SVGID_21_" width="1920" height="1080" x="0" y="0"/></defs><clipPath id="SVGID_22_"><use id="use109" width="100%" height="100%" x="0" y="0" overflow="visible" xlink:href="#SVGID_21_"/></clipPath><defs id="defs97"><rect id="SVGID_19_" width="1920" height="1080" x="0" y="0"/></defs><clipPath id="SVGID_20_"><use id="use99" width="100%" height="100%" x="0" y="0" overflow="visible" xlink:href="#SVGID_19_"/></clipPath><defs id="defs87"><rect id="SVGID_17_" width="1920" height="1080" x="0" y="0"/></defs><clipPath id="SVGID_18_"><use id="use89" width="100%" height="100%" x="0" y="0" overflow="visible" xlink:href="#SVGID_17_"/></clipPath><defs id="defs77"><rect id="SVGID_15_" width="1920" height="1080" x="0" y="0"/></defs><clipPath id="SVGID_16_"><use id="use79" width="100%" height="100%" x="0" y="0" overflow="visible" xlink:href="#SVGID_15_"/></clipPath><defs id="defs67"><rect id="SVGID_13_" width="1920" height="1080" x="0" y="0"/></defs><clipPath id="SVGID_14_"><use id="use69" width="100%" height="100%" x="0" y="0" overflow="visible" xlink:href="#SVGID_13_"/></clipPath><defs id="defs57"><rect id="SVGID_11_" width="1920" height="1080" x="0" y="0"/></defs><clipPath id="SVGID_12_"><use id="use59" width="100%" height="100%" x="0" y="0" overflow="visible" xlink:href="#SVGID_11_"/></clipPath><defs id="defs47"><rect id="SVGID_9_" width="1920" height="1080" x="0" y="0"/></defs><clipPath id="SVGID_10_"><use id="use49" width="100%" height="100%" x="0" y="0" overflow="visible" xlink:href="#SVGID_9_"/></clipPath><defs id="defs37"><rect id="SVGID_7_" width="1920" height="1080" x="0" y="0"/></defs><clipPath id="SVGID_8_"><use id="use39" width="100%" height="100%" x="0" y="0" overflow="visible" xlink:href="#SVGID_7_"/></clipPath><defs id="defs27"><rect id="SVGID_5_" width="1920" height="1080" x="0" y="0"/></defs><clipPath id="SVGID_6_"><use id="use29" width="100%" height="100%" x="0" y="0" overflow="visible" xlink:href="#SVGID_5_"/></clipPath><defs id="defs17"><rect id="SVGID_3_" width="1920" height="1080" x="0" y="0"/></defs><clipPath id="SVGID_4_"><use id="use19" width="100%" height="100%" x="0" y="0" overflow="visible" xlink:href="#SVGID_3_"/></clipPath><defs id="defs7"><rect id="SVGID_1_" width="1920" height="1080" x="0" y="0"/></defs><clipPath id="SVGID_2_"><use id="use9" width="100%" height="100%" x="0" y="0" overflow="visible" xlink:href="#SVGID_1_"/></clipPath><defs id="defs309"><rect id="SVGID_61_" width="1920" height="1080" x="0" y="0"/></defs><clipPath id="SVGID_62_"><use id="use311" width="100%" height="100%" x="0" y="0" overflow="visible" xlink:href="#SVGID_61_"/></clipPath><defs id="defs299"><rect id="SVGID_59_" width="1920" height="1080" x="0" y="0"/></defs><clipPath id="SVGID_60_"><use id="use301" width="100%" height="100%" x="0" y="0" overflow="visible" xlink:href="#SVGID_59_"/></clipPath><defs id="defs289"><rect id="SVGID_57_" width="1920" height="1080" x="0" y="0"/></defs><clipPath id="SVGID_58_"><use id="use291" width="100%" height="100%" x="0" y="0" overflow="visible" xlink:href="#SVGID_57_"/></clipPath><defs id="defs279"><rect id="SVGID_55_" width="1920" height="1080" x="0" y="0"/></defs><clipPath id="SVGID_56_"><use id="use281" width="100%" height="100%" x="0" y="0" overflow="visible" xlink:href="#SVGID_55_"/></clipPath><defs id="defs269"><rect id="SVGID_53_" width="1920" height="1080" x="0" y="0"/></defs><clipPath id="SVGID_54_"><use id="use271" width="100%" height="100%" x="0" y="0" overflow="visible" xlink:href="#SVGID_53_"/></clipPath><defs id="defs259"><rect id="SVGID_51_" width="1920" height="1080" x="0" y="0"/></defs><clipPath id="SVGID_52_"><use id="use261" width="100%" height="100%" x="0" y="0" overflow="visible" xlink:href="#SVGID_51_"/></clipPath><defs id="defs249"><rect id="SVGID_49_" width="1920" height="1080" x="0" y="0"/></defs><clipPath id="SVGID_50_"><use id="use251" width="100%" height="100%" x="0" y="0" overflow="visible" xlink:href="#SVGID_49_"/></clipPath><defs id="defs239"><rect id="SVGID_47_" width="1920" height="1080" x="0" y="0"/></defs><clipPath id="SVGID_48_"><use id="use241" width="100%" height="100%" x="0" y="0" overflow="visible" xlink:href="#SVGID_47_"/></clipPath><defs id="defs229"><rect id="SVGID_45_" width="1920" height="1080" x="0" y="0"/></defs><clipPath id="SVGID_46_"><use id="use231" width="100%" height="100%" x="0" y="0" overflow="visible" xlink:href="#SVGID_45_"/></clipPath><defs id="defs219"><rect id="SVGID_43_" width="1920" height="1080" x="0" y="0"/></defs><clipPath id="SVGID_44_"><use id="use221" width="100%" height="100%" x="0" y="0" overflow="visible" xlink:href="#SVGID_43_"/></clipPath><defs id="defs421"><rect id="SVGID_83_" width="1920" height="1080" x="0" y="0"/></defs><clipPath id="SVGID_84_"><use id="use423" width="100%" height="100%" x="0" y="0" overflow="visible" xlink:href="#SVGID_83_"/></clipPath><defs id="defs411"><rect id="SVGID_81_" width="1920" height="1080" x="0" y="0"/></defs><clipPath id="SVGID_82_"><use id="use413" width="100%" height="100%" x="0" y="0" overflow="visible" xlink:href="#SVGID_81_"/></clipPath><defs id="defs401"><rect id="SVGID_79_" width="1920" height="1080" x="0" y="0"/></defs><clipPath id="SVGID_80_"><use id="use403" width="100%" height="100%" x="0" y="0" overflow="visible" xlink:href="#SVGID_79_"/></clipPath><defs id="defs391"><rect id="SVGID_77_" width="1920" height="1080" x="0" y="0"/></defs><clipPath id="SVGID_78_"><use id="use393" width="100%" height="100%" x="0" y="0" overflow="visible" xlink:href="#SVGID_77_"/></clipPath><defs id="defs381"><rect id="SVGID_75_" width="1920" height="1080" x="0" y="0"/></defs><clipPath id="SVGID_76_"><use id="use383" width="100%" height="100%" x="0" y="0" overflow="visible" xlink:href="#SVGID_75_"/></clipPath><defs id="defs371"><rect id="SVGID_73_" width="1920" height="1080" x="0" y="0"/></defs><clipPath id="SVGID_74_"><use id="use373" width="100%" height="100%" x="0" y="0" overflow="visible" xlink:href="#SVGID_73_"/></clipPath><defs id="defs361"><rect id="SVGID_71_" width="1920" height="1080" x="0" y="0"/></defs><clipPath id="SVGID_72_"><use id="use363" width="100%" height="100%" x="0" y="0" overflow="visible" xlink:href="#SVGID_71_"/></clipPath><defs id="defs351"><rect id="SVGID_69_" width="1920" height="1080" x="0" y="0"/></defs><clipPath id="SVGID_70_"><use id="use353" width="100%" height="100%" x="0" y="0" overflow="visible" xlink:href="#SVGID_69_"/></clipPath><defs id="defs341"><rect id="SVGID_67_" width="1920" height="1080" x="0" y="0"/></defs><clipPath id="SVGID_68_"><use id="use343" width="100%" height="100%" x="0" y="0" overflow="visible" xlink:href="#SVGID_67_"/></clipPath><defs id="defs331"><rect id="SVGID_65_" width="1920" height="1080" x="0" y="0"/></defs><clipPath id="SVGID_66_"><use id="use333" width="100%" height="100%" x="0" y="0" overflow="visible" xlink:href="#SVGID_65_"/></clipPath><defs id="defs321"><rect id="SVGID_63_" width="1920" height="1080" x="0" y="0"/></defs><clipPath id="SVGID_64_"><use id="use323" width="100%" height="100%" x="0" y="0" overflow="visible" xlink:href="#SVGID_63_"/></clipPath><defs id="defs503"><rect id="SVGID_99_" width="1920" height="1080" x="0" y="0"/></defs><clipPath id="SVGID_100_"><use id="use505" width="100%" height="100%" x="0" y="0" overflow="visible" xlink:href="#SVGID_99_"/></clipPath><defs id="defs493"><rect id="SVGID_97_" width="1920" height="1080" x="0" y="0"/></defs><clipPath id="SVGID_98_"><use id="use495" width="100%" height="100%" x="0" y="0" overflow="visible" xlink:href="#SVGID_97_"/></clipPath><defs id="defs483"><rect id="SVGID_95_" width="1920" height="1080" x="0" y="0"/></defs><clipPath id="SVGID_96_"><use id="use485" width="100%" height="100%" x="0" y="0" overflow="visible" xlink:href="#SVGID_95_"/></clipPath><defs id="defs473"><rect id="SVGID_93_" width="1920" height="1080" x="0" y="0"/></defs><clipPath id="SVGID_94_"><use id="use475" width="100%" height="100%" x="0" y="0" overflow="visible" xlink:href="#SVGID_93_"/></clipPath><defs id="defs463"><rect id="SVGID_91_" width="1920" height="1080" x="0" y="0"/></defs><clipPath id="SVGID_92_"><use id="use465" width="100%" height="100%" x="0" y="0" overflow="visible" xlink:href="#SVGID_91_"/></clipPath><defs id="defs453"><rect id="SVGID_89_" width="1920" height="1080" x="0" y="0"/></defs><clipPath id="SVGID_90_"><use id="use455" width="100%" height="100%" x="0" y="0" overflow="visible" xlink:href="#SVGID_89_"/></clipPath><defs id="defs443"><rect id="SVGID_87_" width="1920" height="1080" x="0" y="0"/></defs><clipPath id="SVGID_88_"><use id="use445" width="100%" height="100%" x="0" y="0" overflow="visible" xlink:href="#SVGID_87_"/></clipPath><defs id="defs433"><rect id="SVGID_85_" width="1920" height="1080" x="0" y="0"/></defs><clipPath id="SVGID_86_"><use id="use435" width="100%" height="100%" x="0" y="0" overflow="visible" xlink:href="#SVGID_85_"/></clipPath></defs><polyline id="polyline2" fill="none" stroke="#000" stroke-miterlimit="10" stroke-width="6" points="894.683 656.649 943.299 621.601 991.416 657.332"/><line id="line4" x1="944" x2="944" y1="621" y2="567" fill="none" stroke="#000" stroke-miterlimit="10" stroke-width="6"/><path id="path12" fill="#fff" d="m 1194.498,729.177 c 7.068,0 7.068,5.012 14.139,5.012 7.065,0 7.065,-5.012 14.133,-5.012 7.068,0 7.068,5.012 14.137,5.012 7.07,0 7.07,-5.012 14.143,-5.012 7.067,0 7.067,5.012 14.137,5.012 7.073,0 7.073,-5.012 14.146,-5.012 7.073,0 7.073,5.012 14.146,5.012" clip-path="url(#SVGID_2_)"/><path id="path22" fill="none" stroke="#1183c5" stroke-miterlimit="10" stroke-width="6" d="m 1194.498,729.177 c 7.068,0 7.068,5.012 14.139,5.012 7.065,0 7.065,-5.012 14.133,-5.012 7.068,0 7.068,5.012 14.137,5.012 7.07,0 7.07,-5.012 14.143,-5.012 7.067,0 7.067,5.012 14.137,5.012 7.073,0 7.073,-5.012 14.146,-5.012 7.073,0 7.073,5.012 14.146,5.012" clip-path="url(#SVGID_4_)"/><line id="line32" x1="974" x2="994" y1="531" y2="531" fill="none" clip-path="url(#SVGID_6_)"/><line id="line42" x1="974" x2="994" y1="531" y2="531" fill="none" stroke="#1183c5" stroke-miterlimit="10" stroke-width="6" clip-path="url(#SVGID_8_)"/><line id="line52" x1="1005" x2="1024" y1="531" y2="531" fill="none" stroke="#000" stroke-miterlimit="10" stroke-width="6" clip-path="url(#SVGID_10_)"/><path id="path62" fill="#fff" d="m 1153.153,325.743 v 0 c 1.264,9.113 8.428,16.277 17.54,17.541 h 10e-4 -10e-4 c -9.112,1.264 -16.276,8.428 -17.54,17.54 -1.264,-9.112 -8.428,-16.276 -17.541,-17.54 9.114,-1.264 16.278,-8.429 17.541,-17.541" clip-path="url(#SVGID_12_)"/><path id="path72" fill="none" stroke="#1183c5" stroke-linecap="square" stroke-linejoin="bevel" stroke-miterlimit="10" stroke-width="6" d="m 1153.153,325.743 v 0 c 1.264,9.113 8.428,16.277 17.54,17.541 h 10e-4 -10e-4 c -9.112,1.264 -16.276,8.428 -17.54,17.54 -1.264,-9.112 -8.428,-16.276 -17.541,-17.54 9.114,-1.264 16.278,-8.429 17.541,-17.541 z" clip-path="url(#SVGID_14_)"/><path id="path82" fill="none" stroke="#000" stroke-miterlimit="10" stroke-width="6" d="m 1121.834,425.489 c 20.459,22.567 36.693,49.036 47.452,78.159" clip-path="url(#SVGID_16_)"/><path id="path92" fill="none" stroke="#000" stroke-miterlimit="10" stroke-width="6" d="m 1043.326,368.054 c 18.497,8.439 35.737,19.154 51.364,31.787" clip-path="url(#SVGID_18_)"/><path id="path102" fill="none" stroke="#000" stroke-miterlimit="10" stroke-width="6" d="M 714.214,514.37 C 733.461,453.53 776.243,403.152 831.878,373.926" clip-path="url(#SVGID_20_)"/><path id="path112" fill="none" stroke="#000" stroke-miterlimit="10" stroke-width="6" d="m 1023.916,813.791 c -25.12,8.896 -52.159,13.74 -80.328,13.74 -21.864,0 -43.047,-2.917 -63.18,-8.383" clip-path="url(#SVGID_22_)"/><line id="line122" x1="615.735" x2="623.735" y1="409.9" y2="401.9" fill="none" stroke="#000" stroke-miterlimit="10" stroke-width="6" clip-path="url(#SVGID_24_)"/><line id="line132" x1="650.735" x2="642.735" y1="409.9" y2="401.9" fill="none" stroke="#000" stroke-miterlimit="10" stroke-width="6" clip-path="url(#SVGID_26_)"/><line id="line142" x1="634" x2="634" y1="389" y2="378" fill="none" stroke="#000" stroke-miterlimit="10" stroke-width="6" clip-path="url(#SVGID_28_)"/><line id="line152" x1="674" x2="674" y1="529" y2="551" fill="none" clip-path="url(#SVGID_30_)"/><line id="line162" x1="674" x2="674" y1="529" y2="551" fill="none" stroke="#1183c5" stroke-miterlimit="10" stroke-width="6" clip-path="url(#SVGID_32_)"/><line id="line172" x1="685" x2="663" y1="540" y2="540" fill="none" clip-path="url(#SVGID_34_)"/><line id="line182" x1="685" x2="663" y1="540" y2="540" fill="none" stroke="#1183c5" stroke-miterlimit="10" stroke-width="6" clip-path="url(#SVGID_36_)"/><path id="path192" fill="#1183c5" d="m 943,772 v 0 c -3.313,0 -6,-2.687 -6,-6 0,-3.312 2.687,-6 6,-6 3.312,0 6,2.688 6,6 0,3.313 -2.687,6 -6,6" clip-path="url(#SVGID_38_)"/><path id="path202" d="m 943,735 v 0 c -3.313,0 -6,-2.687 -6,-6 0,-3.312 2.687,-6 6,-6 3.312,0 6,2.688 6,6 0,3.313 -2.687,6 -6,6" clip-path="url(#SVGID_40_)"/><path id="path212" fill="#1183c5" d="m 943,697 v 0 c -3.313,0 -6,-2.687 -6,-6 0,-3.312 2.687,-6 6,-6 3.312,0 6,2.688 6,6 0,3.313 -2.687,6 -6,6" clip-path="url(#SVGID_42_)"/><path id="path224" fill="none" stroke="#000" stroke-miterlimit="10" stroke-width="6" d="M 1219,719 V 834 H 1056 V 719 c 0,-19.329 15.67,-35 35,-35 h 6.351 l 39.077,34.286 L 1175.505,684 H 1184 c 19.329,0 35,15.671 35,35 z" clip-path="url(#SVGID_44_)"/><line id="line234" x1="1136" x2="1136" y1="718" y2="836" fill="none" stroke="#000" stroke-miterlimit="10" stroke-width="6" clip-path="url(#SVGID_46_)"/><line id="line244" x1="1184" x2="1184" y1="835" y2="762" fill="none" stroke="#000" stroke-miterlimit="10" stroke-width="6" clip-path="url(#SVGID_48_)"/><line id="line254" x1="1087" x2="1087" y1="835" y2="762" fill="none" stroke="#000" stroke-miterlimit="10" stroke-width="6" clip-path="url(#SVGID_50_)"/><path id="path264" fill="#fff" d="M 1198,641 H 1073 V 593.883 C 1073,566.334 1095.332,544 1122.882,544 h 25.235 c 27.549,0 49.882,22.334 49.882,49.883 z" clip-path="url(#SVGID_52_)"/><path id="path274" fill="none" stroke="#000" stroke-miterlimit="10" stroke-width="6" d="M 1198,641 H 1073 V 593.883 C 1073,566.334 1095.332,544 1122.882,544 h 25.235 c 27.549,0 49.882,22.334 49.882,49.883 z" clip-path="url(#SVGID_54_)"/><path id="path284" fill="#fff" d="m 1177.098,620.009 c 0,23.646 -19.896,42.627 -43.868,41.123 -20.276,-1.272 -36.822,-17.544 -38.414,-37.798 -0.603,-7.669 0.899,-14.967 4.011,-21.334 h 43.246 l 10.301,-14.957 10.302,14.957 h 10.281 c 2.657,5.439 4.141,11.559 4.141,18.009" clip-path="url(#SVGID_56_)"/><path id="path294" fill="none" stroke="#000" stroke-miterlimit="10" stroke-width="6" d="m 1177.098,620.009 c 0,23.646 -19.896,42.627 -43.868,41.123 -20.276,-1.272 -36.822,-17.544 -38.414,-37.798 -0.603,-7.669 0.899,-14.967 4.011,-21.334 h 43.246 l 10.301,-14.957 10.302,14.957 h 10.281 c 2.657,5.439 4.141,11.559 4.141,18.009 z" clip-path="url(#SVGID_58_)"/><line id="line304" x1="1122" x2="1111" y1="745" y2="745" fill="none" stroke="#000" stroke-miterlimit="10" stroke-width="6" clip-path="url(#SVGID_60_)"/><line id="line314" x1="1122" x2="1111" y1="772" y2="772" fill="none" stroke="#000" stroke-miterlimit="10" stroke-width="6" clip-path="url(#SVGID_62_)"/><circle id="circle326" cx="944" cy="292" r="51" fill="none" stroke="#000" stroke-miterlimit="10" stroke-width="6" clip-path="url(#SVGID_64_)"/><path id="path336" fill="none" stroke="#000" stroke-miterlimit="10" stroke-width="6" d="M 906,513 H 865 V 401.5 c 0,-19.054 15.445,-34.5 34.5,-34.5 h 90 c 19.054,0 34.5,15.446 34.5,34.5 V 513 h -94.5" clip-path="url(#SVGID_66_)"/><line id="line346" x1="943" x2="943" y1="368" y2="449" fill="none" stroke="#000" stroke-miterlimit="10" stroke-width="6" clip-path="url(#SVGID_68_)"/><line id="line356" x1="989" x2="989" y1="514" y2="443" fill="none" stroke="#000" stroke-miterlimit="10" stroke-width="6" clip-path="url(#SVGID_70_)"/><line id="line366" x1="895" x2="895" y1="514" y2="443" fill="none" stroke="#000" stroke-miterlimit="10" stroke-width="6" clip-path="url(#SVGID_72_)"/><line id="line376" x1="984" x2="961" y1="423" y2="423" fill="none" stroke="#000" stroke-miterlimit="10" stroke-width="6" clip-path="url(#SVGID_74_)"/><polyline id="polyline386" fill="none" stroke="#000" stroke-miterlimit="10" stroke-width="6" points="943.434 367.009 922.531 391.047 895.357 368.053" clip-path="url(#SVGID_76_)"/><polyline id="polyline396" fill="none" stroke="#000" stroke-miterlimit="10" stroke-width="6" points="943.434 367.009 964.337 391.047 991.511 368.053" clip-path="url(#SVGID_78_)"/><polyline id="polyline406" fill="none" stroke="#000" stroke-linejoin="round" stroke-miterlimit="10" stroke-width="6" points="966 289 945.524 289 932.666 272.278 920.441 289 893 289" clip-path="url(#SVGID_80_)"/><line id="line416" x1="943" x2="943" y1="465" y2="513" fill="none" stroke="#000" stroke-miterlimit="10" stroke-width="6" clip-path="url(#SVGID_82_)"/><line id="line426" x1="974.332" x2="995" y1="289" y2="289" fill="none" stroke="#000" stroke-linejoin="round" stroke-miterlimit="10" stroke-width="6" clip-path="url(#SVGID_84_)"/><circle id="circle438" cx="760.5" cy="597.5" r="52.5" fill="none" stroke="#000" stroke-miterlimit="10" stroke-width="6" clip-path="url(#SVGID_86_)"/><path id="path448" fill="none" stroke="#000" stroke-linejoin="round" stroke-miterlimit="10" stroke-width="6" d="m 708.39,605.76 c 0,0 33.981,-8.496 54.894,-32.021 0,0 18.298,18.297 49.667,23.524" clip-path="url(#SVGID_88_)"/><path id="path458" fill="none" stroke="#000" stroke-miterlimit="10" stroke-width="6" d="m 675.043,745.526 2.531,-42.958 c 0,-14.121 11.447,-25.568 25.569,-25.568 h 119.32 c 14.121,0 25.567,11.447 25.567,25.568 L 855.78,834 H 669.826 l 3.093,-52.454" clip-path="url(#SVGID_90_)"/><line id="line468" x1="811" x2="811" y1="835" y2="759" fill="none" stroke="#000" stroke-miterlimit="10" stroke-width="6" clip-path="url(#SVGID_92_)"/><line id="line478" x1="710" x2="710" y1="835" y2="759" fill="none" stroke="#000" stroke-miterlimit="10" stroke-width="6" clip-path="url(#SVGID_94_)"/><polygon id="polygon488" fill="none" stroke="#000" stroke-miterlimit="10" stroke-width="6" points="770.631 705 750.707 705 745.592 677 775.745 677" clip-path="url(#SVGID_96_)"/><polygon id="polygon498" fill="none" stroke="#000" stroke-miterlimit="10" stroke-width="6" points="774.937 833 746.403 833 752.077 705 769.263 705" clip-path="url(#SVGID_98_)"/><line id="line508" x1="786" x2="812" y1="733" y2="733" fill="none" stroke="#000" stroke-miterlimit="10" stroke-width="6" clip-path="url(#SVGID_100_)"/></svg>