<svg xmlns="http://www.w3.org/2000/svg" xmlns:svg="http://www.w3.org/2000/svg" xmlns:xlink="http://www.w3.org/1999/xlink" id="svg239" width="2560" height="1440" version="1.2" viewBox="0 0 1920 1080"><metadata id="metadata243"/><defs id="defs120"><clipPath id="clip2"><path id="path2" d="M 0.5 491 L 25 491 L 25 498 L 0.5 498 Z M 0.5 491"/></clipPath><clipPath id="clip3"><path id="path5" d="M 1212 716 L 1257.128906 716 L 1257.128906 720 L 1212 720 Z M 1212 716"/></clipPath><clipPath id="clip4"><path id="path8" d="M 1127 631 L 1257.128906 631 L 1257.128906 797.410156 L 1127 797.410156 Z M 1127 631"/></clipPath><clipPath id="clip5"><path id="path11" d="M 1083 403 L 1257.128906 403 L 1257.128906 587 L 1083 587 Z M 1083 403"/></clipPath><clipPath id="clip6"><path id="path14" d="M 724 644 L 902 644 L 902 797.410156 L 724 797.410156 Z M 724 644"/></clipPath><clipPath id="clip7"><path id="path17" d="M 751 644 L 929 644 L 929 797.410156 L 751 797.410156 Z M 751 644"/></clipPath><clipPath id="clip8"><path id="path20" d="M 226 764 L 264 764 L 264 797.410156 L 226 797.410156 Z M 226 764"/></clipPath><clipPath id="clip9"><path id="path23" d="M 0.5 321 L 166 321 L 166 514 L 0.5 514 Z M 0.5 321"/></clipPath><clipPath id="clip1"><rect id="rect26" width="1258" height="798"/></clipPath><g id="surface494" clip-path="url(#clip1)"><path id="path29" fill="#FFF" fill-opacity="1" fill-rule="nonzero" stroke="#1183C5" stroke-linecap="butt" stroke-linejoin="miter" stroke-miterlimit="10" stroke-opacity="1" stroke-width="6" d="M 0 0 C 5.640625 0 5.640625 -4 11.285156 -4 C 16.925781 -4 16.925781 0 22.5625 0 C 28.207031 0 28.207031 -4 33.847656 -4 C 39.492188 -4 39.492188 0 45.132812 0 C 50.777344 0 50.777344 -4 56.417969 -4 C 62.0625 -4 62.0625 0 67.710938 0 C 73.355469 0 73.355469 -4 79 -4" transform="matrix(1,0,0,-1,375,511)"/><path id="path31" fill="none" stroke="#1183C5" stroke-linecap="butt" stroke-linejoin="miter" stroke-miterlimit="10" stroke-opacity="1" stroke-width="6" d="M 0 0 L 0 -21" transform="matrix(1,0,0,-1,11,484)"/><g id="g35" clip-path="url(#clip2)" clip-rule="nonzero"><path id="path33" fill="none" stroke="#1183C5" stroke-linecap="butt" stroke-linejoin="miter" stroke-miterlimit="10" stroke-opacity="1" stroke-width="6" d="M 0 0 L -21 0" transform="matrix(1,0,0,-1,21.5,494.5)"/></g><path id="path37" fill="none" stroke="#000" stroke-linecap="butt" stroke-linejoin="miter" stroke-miterlimit="10" stroke-opacity="1" stroke-width="6" d="M 0 0 L 0 -21" transform="matrix(1,0,0,-1,897,518)"/><path id="path39" fill="none" stroke="#000" stroke-linecap="butt" stroke-linejoin="miter" stroke-miterlimit="10" stroke-opacity="1" stroke-width="6" d="M 0 0 L -21 0" transform="matrix(1,0,0,-1,907.5,528.5)"/><path id="path41" fill="none" stroke="#000" stroke-linecap="butt" stroke-linejoin="miter" stroke-miterlimit="10" stroke-opacity="1" stroke-width="6" d="M 0 0 L 6 0" transform="matrix(1,0,0,-1,163,447)"/><path id="path43" fill="none" stroke="#000" stroke-linecap="butt" stroke-linejoin="miter" stroke-miterlimit="10" stroke-opacity="1" stroke-width="6" d="M 0 0 L 6 0" transform="matrix(1,0,0,-1,184,447)"/><g id="g47" clip-path="url(#clip3)" clip-rule="nonzero"><path id="path45" fill="#FFF" fill-opacity="1" fill-rule="nonzero" stroke="none" d="M 1212 716 C 1217.640625 716 1217.640625 720 1223.285156 720 C 1228.925781 720 1228.925781 716 1234.5625 716 C 1240.207031 716 1240.207031 720 1245.847656 720 C 1251.488281 720 1251.488281 716 1257.132812 716"/></g><g id="g51" clip-path="url(#clip4)" clip-rule="nonzero"><path id="path49" fill="none" stroke="#1183C5" stroke-linecap="butt" stroke-linejoin="miter" stroke-miterlimit="10" stroke-opacity="1" stroke-width="6" d="M 0 0 C 5.640625 0 5.640625 -4 11.285156 -4 C 16.925781 -4 16.925781 0 22.5625 0 C 28.207031 0 28.207031 -4 33.847656 -4 C 39.488281 -4 39.488281 0 45.132812 0" transform="matrix(1,0,0,-1,1212,716)"/></g><path id="path53" fill="none" stroke="#000" stroke-linecap="butt" stroke-linejoin="miter" stroke-miterlimit="10" stroke-opacity="1" stroke-width="6" d="M 0 0 C 0 -3.867188 -3.132812 -7 -7 -7 C -10.867188 -7 -14 -3.867188 -14 0 C -14 3.867188 -10.867188 7 -7 7 C -3.132812 7 0 3.867188 0 0 Z M 0 0" transform="matrix(1,0,0,-1,1149,495)"/><g id="g57" clip-path="url(#clip5)" clip-rule="nonzero"><path id="path55" fill="none" stroke="#000" stroke-linecap="butt" stroke-linejoin="miter" stroke-miterlimit="10" stroke-opacity="1" stroke-width="6" d="M 0 0 C 0 -3.867188 -3.132812 -7 -7 -7 C -10.867188 -7 -14 -3.867188 -14 0 C -14 3.867188 -10.867188 7 -7 7 C -3.132812 7 0 3.867188 0 0 Z M 0 0" transform="matrix(1,0,0,-1,1182,495)"/></g><g id="g61" clip-path="url(#clip6)" clip-rule="nonzero"><path id="path59" fill="none" stroke="#000" stroke-linecap="butt" stroke-linejoin="miter" stroke-miterlimit="10" stroke-opacity="1" stroke-width="6" d="M 0 0 L 8 -8" transform="matrix(1,0,0,-1,809,729)"/></g><g id="g65" clip-path="url(#clip7)" clip-rule="nonzero"><path id="path63" fill="none" stroke="#000" stroke-linecap="butt" stroke-linejoin="miter" stroke-miterlimit="10" stroke-opacity="1" stroke-width="6" d="M 0 0 L -8 -8" transform="matrix(1,0,0,-1,844,729)"/></g><path id="path67" fill="none" stroke="#000" stroke-linecap="butt" stroke-linejoin="miter" stroke-miterlimit="10" stroke-opacity="1" stroke-width="6" d="M 0 0 L 0 -10" transform="matrix(1,0,0,-1,827,750)"/><path id="path69" fill="none" stroke="#1183C5" stroke-linecap="butt" stroke-linejoin="miter" stroke-miterlimit="10" stroke-opacity="1" stroke-width="6" d="M 0 0 L 9 0" transform="matrix(1,0,0,-1,335,792)"/><path id="path71" fill="none" stroke="#1183C5" stroke-linecap="butt" stroke-linejoin="miter" stroke-miterlimit="10" stroke-opacity="1" stroke-width="6" d="M 0 0 L 9 0" transform="matrix(1,0,0,-1,370,792)"/><path id="path73" fill="#FFF" fill-opacity="1" fill-rule="nonzero" stroke="none" d="M 245 769 C 246.007812 776.273438 251.726562 781.992188 259 783 C 251.726562 784.007812 246.007812 789.726562 245 797 C 243.992188 789.726562 238.273438 784.007812 231 783 C 238.273438 781.992188 243.992188 776.273438 245 769"/><g id="g77" clip-path="url(#clip8)" clip-rule="nonzero"><path id="path75" fill="none" stroke="#1183C5" stroke-linecap="square" stroke-linejoin="bevel" stroke-miterlimit="10" stroke-opacity="1" stroke-width="6" d="M 0 0 C 1.007812 -7.273438 6.726562 -12.992188 14 -14 C 6.726562 -15.007812 1.007812 -20.726562 0 -28 C -1.007812 -20.726562 -6.726562 -15.007812 -14 -14 C -6.726562 -12.992188 -1.007812 -7.273438 0 0 Z M 0 0" transform="matrix(1,0,0,-1,245,769)"/></g><path id="path79" fill="#FFF" fill-opacity="1" fill-rule="nonzero" stroke="none" d="M 775 436 C 776.007812 443.273438 781.726562 448.992188 789 450 C 781.726562 451.007812 776.007812 456.726562 775 464 C 773.992188 456.726562 768.273438 451.007812 761 450 C 768.273438 448.992188 773.992188 443.273438 775 436"/><path id="path81" fill="none" stroke="#1183C5" stroke-linecap="square" stroke-linejoin="bevel" stroke-miterlimit="10" stroke-opacity="1" stroke-width="6" d="M 0 0 C 1.007812 -7.273438 6.726562 -12.992188 14 -14 C 6.726562 -15.007812 1.007812 -20.726562 0 -28 C -1.007812 -20.726562 -6.726562 -15.007812 -14 -14 C -6.726562 -12.992188 -1.007812 -7.273438 0 0 Z M 0 0" transform="matrix(1,0,0,-1,775,436)"/><path id="path83" fill="none" stroke="#000" stroke-linecap="butt" stroke-linejoin="miter" stroke-miterlimit="10" stroke-opacity="1" stroke-width="6" d="M 0 0 L 52 0" transform="matrix(1,0,0,-1,245,190)"/><path id="path85" fill="none" stroke="#1183C5" stroke-linecap="square" stroke-linejoin="bevel" stroke-miterlimit="10" stroke-opacity="1" stroke-width="6" d="M 0 0 L 33 0" transform="matrix(1,0,0,-1,928,190)"/><path id="path87" fill="none" stroke="#000" stroke-linecap="butt" stroke-linejoin="miter" stroke-miterlimit="10" stroke-opacity="1" stroke-width="6" d="M 0 0 L 0 -33" transform="matrix(1,0,0,-1,1048,264)"/><path id="path89" fill="none" stroke="#1183C5" stroke-linecap="square" stroke-linejoin="bevel" stroke-miterlimit="10" stroke-opacity="1" stroke-width="6" d="M 0 0 L 0 -28" transform="matrix(1,0,0,-1,576,331)"/><path id="path91" fill="none" stroke="#000" stroke-linecap="butt" stroke-linejoin="miter" stroke-miterlimit="10" stroke-opacity="1" stroke-width="6" d="M 0 0 L 0 -28" transform="matrix(1,0,0,-1,136,292)"/><path id="path93" fill="none" stroke="#000" stroke-linecap="butt" stroke-linejoin="miter" stroke-miterlimit="10" stroke-opacity="1" stroke-width="6" d="M 0 0 L 0 -13" transform="matrix(1,0,0,-1,576,378)"/><path id="path95" fill="none" stroke="#1183C5" stroke-linecap="square" stroke-linejoin="bevel" stroke-miterlimit="10" stroke-opacity="1" stroke-width="6" d="M 0 0 L -24 0" transform="matrix(1,0,0,-1,221,190)"/><g id="g99" clip-path="url(#clip9)" clip-rule="nonzero"><path id="path97" fill="none" stroke="#000" stroke-linecap="butt" stroke-linejoin="miter" stroke-miterlimit="10" stroke-opacity="1" stroke-width="6" d="M 0 0 C 13 10 26 16 45 23" transform="matrix(1,0,0,-1,36,429)"/></g><path id="path101" fill="none" stroke="#000" stroke-linecap="butt" stroke-linejoin="miter" stroke-miterlimit="10" stroke-opacity="1" stroke-width="6" d="M 0 0 L -74 0" transform="matrix(1,0,0,-1,200,678)"/><path id="path103" fill="none" stroke="#000" stroke-linecap="butt" stroke-linejoin="miter" stroke-miterlimit="10" stroke-opacity="1" stroke-width="6" d="M 0 0 L -43 0" transform="matrix(1,0,0,-1,112,678)"/><path id="path105" fill="none" stroke="#000" stroke-linecap="butt" stroke-linejoin="miter" stroke-miterlimit="10" stroke-opacity="1" stroke-width="6" d="M -0.0009875 0.000025 C 13.432606 9.410181 26.686512 14.824244 45.983387 20.968775" transform="matrix(1,0,0,-1,951.5088,427.9844)"/><path id="path107" fill="none" stroke="#000" stroke-linecap="butt" stroke-linejoin="miter" stroke-miterlimit="10" stroke-opacity="1" stroke-width="6" d="M 0 0 L -74 0" transform="matrix(1,0,0,-1,1081,678)"/><path id="path109" fill="none" stroke="#000" stroke-linecap="butt" stroke-linejoin="miter" stroke-miterlimit="10" stroke-opacity="1" stroke-width="6" d="M 0 0 L -43 0" transform="matrix(1,0,0,-1,993,678)"/><path id="path111" fill="none" stroke="#000" stroke-linecap="butt" stroke-linejoin="miter" stroke-miterlimit="10" stroke-opacity="1" stroke-width="6" d="M 0 0 L 74 0" transform="matrix(1,0,0,-1,442,732)"/><path id="path113" fill="none" stroke="#000" stroke-linecap="butt" stroke-linejoin="miter" stroke-miterlimit="10" stroke-opacity="1" stroke-width="6" d="M 0 0 L 43 0" transform="matrix(1,0,0,-1,530,732)"/><path id="path115" fill="none" stroke="#000" stroke-linecap="butt" stroke-linejoin="miter" stroke-miterlimit="10" stroke-opacity="1" stroke-width="6" d="M 0.00000625 -0.00095 C 0.00000625 -0.00095 8.894537 6.1553 18.820319 10.331081" transform="matrix(1,0,0,-1,484.2539,486.8428)"/><path id="path117" fill="none" stroke="#000" stroke-linecap="butt" stroke-linejoin="miter" stroke-miterlimit="10" stroke-opacity="1" stroke-width="6" d="M 0.0009625 0.00093125 C 16.18065 6.164994 36.8369 9.649369 53.832994 9.95015" transform="matrix(1,0,0,-1,525.9131,467.1064)"/></g></defs><path id="rect4721" fill="#fff" fill-opacity="1" fill-rule="evenodd" stroke="none" stroke-dasharray="none" stroke-miterlimit="4" stroke-width="3.506" d="m 761.06344,124.84882 112.90191,-0.80628 0.92205,14.53668 -101.11387,0.79454 -13.85686,99.8109 -14.63563,-2.53657 5.31057,-37.61899 -19.74027,-21.34871 12.04091,-10.53644 10.64661,11.0074 z" opacity="1" paint-order="fill markers stroke" transform="rotate(41.187633)"/><path id="rect4619" fill="#fff" fill-opacity="1" fill-rule="evenodd" stroke="none" stroke-dasharray="none" stroke-miterlimit="4" stroke-width="2.278" d="m 880,634 200,46.71429 V 813.00002 H 880 Z" opacity="1" paint-order="fill markers stroke"/><path id="rect4622" fill="#fff" fill-opacity="1" fill-rule="evenodd" stroke="none" stroke-dasharray="none" stroke-miterlimit="4" stroke-width="2.961" d="M 803,751 880.1415,722.62627 880,813.00002 h -77 z" opacity="1" paint-order="fill markers stroke"/><path id="rect4622-1" fill="#fff" fill-opacity="1" fill-rule="evenodd" stroke="none" stroke-dasharray="none" stroke-miterlimit="4" stroke-width="2.961" d="M 425,672 490.52734,614.4375 557,672 v 87 l -132,0 z" opacity="1" paint-order="fill markers stroke"/><rect id="rect4655" width="43" height="69" x="557" y="690" fill="#fff" fill-opacity="1" fill-rule="evenodd" stroke="none" stroke-dasharray="none" stroke-miterlimit="4" stroke-width="4.559" opacity="1" paint-order="fill markers stroke"/><path id="rect4657" fill="#fff" fill-opacity="1" fill-rule="evenodd" stroke="none" stroke-dasharray="none" stroke-miterlimit="4" stroke-width="4.559" d="m 521,621 h 47.49219 l 42.0039,69 H 557 v -18 l 10.14453,8.42578 8.87891,-11.54687 z" opacity="1" paint-order="fill markers stroke"/><g id="surface491"><rect id="rect4719" width="15" height="12" x="1415" y="529" fill="#fff" fill-opacity="1" fill-rule="evenodd" stroke="none" stroke-dasharray="none" stroke-miterlimit="4" stroke-width="4.559" opacity="1" paint-order="fill markers stroke"/><path id="path190-9-1" fill="#fff" fill-opacity="1" fill-rule="nonzero" stroke="none" stroke-width=".368" d="m 1528,588 c 0,3.04769 -2.4701,5.51775 -5.5177,5.51775 -3.0477,0 -5.5178,-2.47005 -5.5178,-5.51775 0,-3.0477 2.4701,-5.51776 5.5178,-5.51776 3.0476,0 5.5177,2.47006 5.5177,5.51776"/><path id="path190-9-3" fill="#fff" fill-opacity="1" fill-rule="nonzero" stroke="none" stroke-width=".427" d="m 1561,588 c 0,3.54086 -2.8697,6.41061 -6.4106,6.41061 -3.5408,0 -6.4106,-2.86975 -6.4106,-6.41061 0,-3.54086 2.8698,-6.41062 6.4106,-6.41062 3.5409,0 6.4106,2.86976 6.4106,6.41062"/><use id="use122" comp-op="multiply" transform="matrix(1,0,0,1,379,93)" xlink:href="#surface494"/><rect id="rect4717" width="37" height="12" x="1443" y="529" fill="#fff" fill-opacity="1" fill-rule="evenodd" stroke="none" stroke-dasharray="none" stroke-miterlimit="4" stroke-width="4.559" opacity="1" paint-order="fill markers stroke"/><rect id="rect4715" width="132" height="32" x="1356" y="542" fill="#fff" fill-opacity="1" fill-rule="evenodd" stroke="none" stroke-dasharray="none" stroke-miterlimit="4" stroke-width="4.559" opacity="1" paint-order="fill markers stroke"/><path id="path124" fill="none" stroke="#000" stroke-linecap="butt" stroke-linejoin="miter" stroke-miterlimit="10" stroke-opacity="1" stroke-width="6" d="M 0 0 L 175.710938 0 C 199.617188 0 219 -19.382812 219 -43.289062 L 219 -166" transform="matrix(1,0,0,-1,1197,273)"/><path id="path126" fill="none" stroke="#000" stroke-linecap="butt" stroke-linejoin="miter" stroke-miterlimit="10" stroke-opacity="1" stroke-width="6" d="M -0.00101875 -0.00099375 C 51.959919 -23.852556 92.311481 -71.200212 104.889606 -131.465837 C 111.756794 -164.368181 109.495075 -197.055681 99.827106 -226.891619" transform="matrix(1,0,0,-1,1497.1768,492.9326)"/><path id="path128" fill="none" stroke="#000" stroke-linecap="butt" stroke-linejoin="miter" stroke-miterlimit="10" stroke-opacity="1" stroke-width="6" d="M -0.00000625 0.0009375 C -21.042975 100.829062 43.636712 199.625937 144.464837 220.668906 C 167.718744 225.520469 190.863275 225.817344 212.97265 222.157187" transform="matrix(1,0,0,-1,1236.9336,700.6025)"/><path id="path130" fill="none" stroke="#000" stroke-linecap="butt" stroke-linejoin="miter" stroke-miterlimit="10" stroke-opacity="1" stroke-width="6" d="M -0.0009375 -0.00000625 C -68.270469 -14.2461 -135.610312 10.804681 -178.512656 59.769525" transform="matrix(1,0,0,-1,1457.6025,845.0664)"/><path id="path132" fill="none" stroke="#000" stroke-linecap="butt" stroke-linejoin="miter" stroke-miterlimit="10" stroke-opacity="1" stroke-width="6" d="M -0.00005 0.0019125 C -14.105519 -14.283244 -30.605519 -26.384806 -49.035206 -35.603556" transform="matrix(1,0,0,-1,1552.0938,793.6816)"/><rect id="rect4675-7" width="33.082" height="55.306" x="1509.799" y="680.863" fill="#fff" fill-opacity="1" fill-rule="evenodd" stroke="none" stroke-dasharray="none" stroke-miterlimit="4" stroke-width="2.192" opacity="1" paint-order="fill markers stroke"/><path id="path134" fill="none" stroke="#000" stroke-linecap="butt" stroke-linejoin="miter" stroke-miterlimit="10" stroke-opacity="1" stroke-width="6" d="M 0 0 L -20.5 0 C -23.675781 0 -26.25 2.574219 -26.25 5.75 L -26.25 52.25 C -26.25 55.425781 -23.675781 58 -20.5 58 L 0 58 C 3.175781 58 5.75 55.425781 5.75 52.25 L 5.75 5.75 C 5.75 2.574219 3.175781 0 0 0 Z M 0 0" transform="matrix(1,0,0,-1,1536.25,737)"/><path id="path136" fill="none" stroke="#000" stroke-linecap="butt" stroke-linejoin="round" stroke-miterlimit="10" stroke-opacity="1" stroke-width="6" d="M 0 0 L 275 0" transform="matrix(1,0,0,-1,1284,757)"/><path id="path138" fill="none" stroke="#000" stroke-linecap="butt" stroke-linejoin="round" stroke-miterlimit="10" stroke-opacity="1" stroke-width="6" d="M 0 0 L 0 -48" transform="matrix(1,0,0,-1,1527,708)"/><path id="path190-9" fill="#fff" fill-opacity="1" fill-rule="nonzero" stroke="none" stroke-width="1.118" d="m 1329.5,722 c 0,9.26158 -7.5062,16.76777 -16.7677,16.76777 -9.2616,0 -16.7678,-7.50619 -16.7678,-16.76777 0,-9.26156 7.5062,-16.76776 16.7678,-16.76776 9.2615,0 16.7677,7.5062 16.7677,16.76776"/><path id="path140" fill="none" stroke="#000" stroke-linecap="butt" stroke-linejoin="miter" stroke-miterlimit="10" stroke-opacity="1" stroke-width="6" d="M 0 0 C 0 -10.492188 -8.507812 -19 -19 -19 C -29.492188 -19 -38 -10.492188 -38 0 C -38 10.492188 -29.492188 19 -19 19 C -8.507812 19 0 10.492188 0 0 Z M 0 0" transform="matrix(1,0,0,-1,1331,722)"/><path id="path142" fill="none" stroke="#000" stroke-linecap="butt" stroke-linejoin="round" stroke-miterlimit="10" stroke-opacity="1" stroke-width="6" d="M 0 0 L 0 -39" transform="matrix(1,0,0,-1,1313,717)"/><path id="path144" fill="#FFF" fill-opacity="1" fill-rule="nonzero" stroke="#000" stroke-linecap="butt" stroke-linejoin="miter" stroke-miterlimit="10" stroke-opacity="1" stroke-width="6" d="M 0 0 L 0 64 L 132 64 L 132 -119 L 0 -119 L 0 -25" transform="matrix(1,0,0,-1,1356,638)"/><path id="path146" fill="none" stroke="#000" stroke-linecap="butt" stroke-linejoin="miter" stroke-miterlimit="10" stroke-opacity="1" stroke-width="6" d="M 1488 506 L 1356 506 L 1356 538 L 1488 538 Z M 1488 506" transform="matrix(1,0,0,-1,0,1080)"/><path id="path148" fill="none" stroke="#000" stroke-linecap="butt" stroke-linejoin="miter" stroke-miterlimit="10" stroke-opacity="1" stroke-width="6" d="M 1480 539 L 1443 539 L 1443 551 L 1480 551 Z M 1480 539" transform="matrix(1,0,0,-1,0,1080)"/><path id="path150" fill="none" stroke="#000" stroke-linecap="butt" stroke-linejoin="miter" stroke-miterlimit="10" stroke-opacity="1" stroke-width="6" d="M 1430 539 L 1415 539 L 1415 551 L 1430 551 Z M 1430 539" transform="matrix(1,0,0,-1,0,1080)"/><path id="path152" fill="none" stroke="#000" stroke-linecap="butt" stroke-linejoin="miter" stroke-miterlimit="10" stroke-opacity="1" stroke-width="6" d="M 1395 337 L 1373 337 L 1373 490 L 1395 490 Z M 1395 337" transform="matrix(1,0,0,-1,0,1080)"/><path id="path154" fill="none" stroke="#000" stroke-linecap="butt" stroke-linejoin="miter" stroke-miterlimit="10" stroke-opacity="1" stroke-width="6" d="M 1433 337 L 1411 337 L 1411 490 L 1433 490 Z M 1433 337" transform="matrix(1,0,0,-1,0,1080)"/><path id="path156" fill="none" stroke="#000" stroke-linecap="butt" stroke-linejoin="miter" stroke-miterlimit="10" stroke-opacity="1" stroke-width="6" d="M 1471 337 L 1449 337 L 1449 490 L 1471 490 Z M 1471 337" transform="matrix(1,0,0,-1,0,1080)"/><path id="path158" fill="none" stroke="#000" stroke-linecap="butt" stroke-linejoin="miter" stroke-miterlimit="10" stroke-opacity="1" stroke-width="6" d="M 0 0 L 159 0" transform="matrix(1,0,0,-1,1343,541)"/><path id="path160" fill="none" stroke="#000" stroke-linecap="butt" stroke-linejoin="miter" stroke-miterlimit="10" stroke-opacity="1" stroke-width="6" d="M 0 0 L 0 -14" transform="matrix(1,0,0,-1,1368,551)"/><path id="path162" fill="none" stroke="#000" stroke-linecap="butt" stroke-linejoin="miter" stroke-miterlimit="10" stroke-opacity="1" stroke-width="6" d="M 0 0 L -187.710938 0 C -211.617188 0 -231 -19.382812 -231 -43.289062 L -231 -166" transform="matrix(1,0,0,-1,735,273)"/><path id="path164" fill="none" stroke="#000" stroke-linecap="butt" stroke-linejoin="miter" stroke-miterlimit="10" stroke-opacity="1" stroke-width="6" d="M 0.00000625 -0.0019125 C 33.96485 45.990275 88.5586 75.8184 150.1211 75.8184 C 183.734381 75.8184 215.269538 66.927775 242.503913 51.365275" transform="matrix(1,0,0,-1,358.3789,551.8184)"/><path id="path166" fill="none" stroke="#000" stroke-linecap="butt" stroke-linejoin="miter" stroke-miterlimit="10" stroke-opacity="1" stroke-width="6" d="M 0 0 C -103 0 -186.5 83.5 -186.5 186.5 C -186.5 210.253906 -182.058594 232.972656 -173.960938 253.867188" transform="matrix(1,0,0,-1,508.5,849)"/><path id="path168" fill="none" stroke="#000" stroke-linecap="butt" stroke-linejoin="miter" stroke-miterlimit="10" stroke-opacity="1" stroke-width="6" d="M 0 0 C 0 -69.742188 -38.28125 -130.542969 -94.980469 -162.535156" transform="matrix(1,0,0,-1,695,662.5)"/><path id="path170" fill="none" stroke="#000" stroke-linecap="butt" stroke-linejoin="miter" stroke-miterlimit="10" stroke-opacity="1" stroke-width="6" d="M -0.00049375 -0.00000625 C 11.101069 -16.726569 19.573725 -35.347662 24.835444 -55.273444" transform="matrix(1,0,0,-1,664.0044,559.5039)"/><path id="path190-3" fill="#fff" fill-opacity="1" fill-rule="nonzero" stroke="none" stroke-width="1.118" d="m 400.87827,720.38569 c 0,9.26157 -7.50619,16.76776 -16.76776,16.76776 -9.26158,0 -16.76777,-7.50618 -16.76777,-16.76776 0,-9.26156 7.50619,-16.76776 16.76777,-16.76776 9.26157,0 16.76776,7.5062 16.76776,16.76776"/><path id="path172" fill="none" stroke="#000" stroke-linecap="butt" stroke-linejoin="miter" stroke-miterlimit="10" stroke-opacity="1" stroke-width="6" d="M 0 0 C 0 -10.769531 -8.730469 -19.5 -19.5 -19.5 C -30.269531 -19.5 -39 -10.769531 -39 0 C -39 10.769531 -30.269531 19.5 -19.5 19.5 C -8.730469 19.5 0 10.769531 0 0 Z M 0 0" transform="matrix(1,0,0,-1,404,720.5)"/><path id="path190" fill="#fff" fill-opacity="1" fill-rule="nonzero" stroke="none" stroke-width="1.118" d="m 655.26019,720.3363 c 0,9.26158 -7.50619,16.76777 -16.76776,16.76777 -9.26158,0 -16.76777,-7.50619 -16.76777,-16.76777 0,-9.26156 7.50619,-16.76776 16.76777,-16.76776 9.26157,0 16.76776,7.5062 16.76776,16.76776"/><path id="path174" fill="none" stroke="#000" stroke-linecap="butt" stroke-linejoin="miter" stroke-miterlimit="10" stroke-opacity="1" stroke-width="6" d="M 0 0 C 0 -10.769531 -8.730469 -19.5 -19.5 -19.5 C -30.269531 -19.5 -39 -10.769531 -39 0 C -39 10.769531 -30.269531 19.5 -19.5 19.5 C -8.730469 19.5 0 10.769531 0 0 Z M 0 0" transform="matrix(1,0,0,-1,658,720.5)"/><path id="path176" fill="none" stroke="#000" stroke-linecap="butt" stroke-linejoin="miter" stroke-miterlimit="10" stroke-opacity="1" stroke-width="6" d="M 0 0 L -16 -14 L -16 16 L 0 16 Z M 0 0" transform="matrix(1,0,0,-1,449,631)"/><path id="path178" fill="none" stroke="#000" stroke-linecap="butt" stroke-linejoin="round" stroke-miterlimit="10" stroke-opacity="1" stroke-width="6" d="M 0 0 L 288 0" transform="matrix(1,0,0,-1,366,759)"/><path id="path180" fill="none" stroke="#000" stroke-linecap="butt" stroke-linejoin="round" stroke-miterlimit="10" stroke-opacity="1" stroke-width="6" d="M 0 0 L 0 -37" transform="matrix(1,0,0,-1,385,720)"/><path id="path182" fill="none" stroke="#000" stroke-linecap="butt" stroke-linejoin="miter" stroke-miterlimit="10" stroke-opacity="1" stroke-width="6" d="M 508 321 L 472 321 L 472 385 L 508 385 Z M 508 321" transform="matrix(1,0,0,-1,0,1080)"/><path id="path184" fill="none" stroke="#000" stroke-linecap="butt" stroke-linejoin="miter" stroke-miterlimit="10" stroke-opacity="1" stroke-width="6" d="M 0 0 L 0 -31 L 132 -31 L 132 56" transform="matrix(1,0,0,-1,425,728)"/><path id="path186" fill="none" stroke="#000" stroke-linecap="butt" stroke-linejoin="miter" stroke-miterlimit="10" stroke-opacity="1" stroke-width="6" d="M 0 0 L 0 -44" transform="matrix(1,0,0,-1,425,672)"/><path id="path188" fill="none" stroke="#000" stroke-linecap="butt" stroke-linejoin="miter" stroke-miterlimit="10" stroke-opacity="1" stroke-width="6" d="M -0.0014625 -0.00190625 L -85.497556 73.740281 L -170.997556 -0.00190625 L -161.653806 -11.548781 L -85.497556 54.4395 L -8.880369 -11.548781 Z M -0.0014625 -0.00190625" transform="matrix(1,0,0,-1,576.0249,668.877)"/><path id="path192" fill="none" stroke="#000" stroke-linecap="butt" stroke-linejoin="miter" stroke-miterlimit="10" stroke-opacity="1" stroke-width="6" d="M 0 0 C 0 -8.285156 -6.714844 -15 -15 -15 C -23.285156 -15 -30 -8.285156 -30 0 C -30 8.285156 -23.285156 15 -15 15 C -6.714844 15 0 8.285156 0 0 Z M 0 0" transform="matrix(1,0,0,-1,505,662)"/><path id="path194" fill="none" stroke="#000" stroke-linecap="butt" stroke-linejoin="round" stroke-miterlimit="10" stroke-opacity="1" stroke-width="6" d="M 0 0 L 0 -37" transform="matrix(1,0,0,-1,639,720)"/><path id="path196" fill="none" stroke="#000" stroke-linecap="butt" stroke-linejoin="miter" stroke-miterlimit="10" stroke-opacity="1" stroke-width="6" d="M 0 0 L 47.492188 0 L 89.496094 -69 L 36 -69" transform="matrix(1,0,0,-1,521,621)"/><path id="path198" fill="none" stroke="#000" stroke-linecap="butt" stroke-linejoin="miter" stroke-miterlimit="10" stroke-opacity="1" stroke-width="6" d="M 0 0 L 0 69" transform="matrix(1,0,0,-1,600,759)"/><path id="path200" fill="none" stroke="#000" stroke-linecap="butt" stroke-linejoin="miter" stroke-miterlimit="10" stroke-opacity="1" stroke-width="6" d="M 0 0 L 0 99" transform="matrix(1,0,0,-1,966,502)"/><path id="path202" fill="none" stroke="#000" stroke-linecap="butt" stroke-linejoin="miter" stroke-miterlimit="10" stroke-opacity="1" stroke-width="6" d="M 0 0 C 0 -115.152344 -93.347656 -208.5 -208.5 -208.5 C -323.652344 -208.5 -417 -115.152344 -417 0 C -417 115.152344 -323.652344 208.5 -208.5 208.5 C -93.347656 208.5 0 115.152344 0 0 Z M 0 0" transform="matrix(1,0,0,-1,1175,737.5)"/><rect id="rect4675" width="33.082" height="61.872" x="1111.673" y="715.587" fill="#fff" fill-opacity="1" fill-rule="evenodd" stroke="none" stroke-dasharray="none" stroke-miterlimit="4" stroke-width="2.318" opacity="1" paint-order="fill markers stroke"/><path id="path204" fill="none" stroke="#000" stroke-linecap="butt" stroke-linejoin="miter" stroke-miterlimit="10" stroke-opacity="1" stroke-width="6" d="M -0.0009375 0 L -25.329062 0 C -28.000937 0 -30.165 2.164062 -30.165 4.835938 L -30.165 58.164062 C -30.165 60.835938 -28.000937 63 -25.329062 63 L -0.0009375 63 C 2.670938 63 4.835 60.835938 4.835 58.164062 L 4.835 4.835938 C 4.835 2.164062 2.670938 0 -0.0009375 0 Z M -0.0009375 0" transform="matrix(1,0,0,-1,1141.165,778)"/><path id="path206" fill="none" stroke="#000" stroke-linecap="butt" stroke-linejoin="miter" stroke-miterlimit="10" stroke-opacity="1" stroke-width="6" d="M 0 0 L 0 -59" transform="matrix(1,0,0,-1,803,751)"/><path id="path208" fill="none" stroke="#000" stroke-linecap="butt" stroke-linejoin="miter" stroke-miterlimit="10" stroke-opacity="1" stroke-width="6" d="M -0.001475 0.001925 L 90.9829 31.9238" transform="matrix(1,0,0,-1,787.5171,754.4238)"/><path id="path210" fill="none" stroke="#000" stroke-linecap="butt" stroke-linejoin="miter" stroke-miterlimit="10" stroke-opacity="1" stroke-width="6" d="M 1080 267 L 1018 267 L 1018 339 L 1080 339 Z M 1080 267" transform="matrix(1,0,0,-1,0,1080)"/><path id="path212" fill="none" stroke="#000" stroke-linecap="butt" stroke-linejoin="miter" stroke-miterlimit="10" stroke-opacity="1" stroke-width="6" d="M 0 0 L 0 -73" transform="matrix(1,0,0,-1,1049,740)"/><path id="path214" fill="none" stroke="#000" stroke-linecap="butt" stroke-linejoin="miter" stroke-miterlimit="10" stroke-opacity="1" stroke-width="6" d="M 0 0 L 0 30" transform="matrix(1,0,0,-1,880,664)"/><path id="path216" fill="none" stroke="#000" stroke-linecap="butt" stroke-linejoin="miter" stroke-miterlimit="10" stroke-opacity="1" stroke-width="6" d="M 0 0 L 0 -131 L -200 -131 L -200 0" transform="matrix(1,0,0,-1,1080,682)"/><path id="path218" fill="none" stroke="#000" stroke-linecap="butt" stroke-linejoin="round" stroke-miterlimit="10" stroke-opacity="1" stroke-width="6" d="M 0 0 L 358 0" transform="matrix(1,0,0,-1,788,813)"/><path id="path220" fill="none" stroke="#000" stroke-linecap="butt" stroke-linejoin="round" stroke-miterlimit="10" stroke-opacity="1" stroke-width="6" d="M 0 0 L 0 -72" transform="matrix(1,0,0,-1,1129,740)"/><path id="path222" fill="none" stroke="#000" stroke-linecap="butt" stroke-linejoin="miter" stroke-miterlimit="10" stroke-opacity="1" stroke-width="6" d="M 0 0 L 0 -169" transform="matrix(1,0,0,-1,918,643)"/><path id="path224" fill="none" stroke="#000" stroke-linecap="butt" stroke-linejoin="miter" stroke-miterlimit="10" stroke-opacity="1" stroke-width="6" d="M 0 0 L 162 0" transform="matrix(1,0,0,-1,918,710)"/><path id="path226" fill="none" stroke="#000" stroke-linecap="butt" stroke-linejoin="miter" stroke-miterlimit="10" stroke-opacity="1" stroke-width="6" d="M 0 0 L 0 -60" transform="matrix(1,0,0,-1,950,650)"/><path id="path228" fill="none" stroke="#000" stroke-linecap="butt" stroke-linejoin="miter" stroke-miterlimit="10" stroke-opacity="1" stroke-width="6" d="M 0 0 L 0 -52" transform="matrix(1,0,0,-1,983,658)"/><path id="path230" fill="none" stroke="#000" stroke-linecap="butt" stroke-linejoin="miter" stroke-miterlimit="10" stroke-opacity="1" stroke-width="6" d="M 0 0 L 0 -45" transform="matrix(1,0,0,-1,1015,665)"/><path id="path232" fill="none" stroke="#000" stroke-linecap="butt" stroke-linejoin="miter" stroke-miterlimit="10" stroke-opacity="1" stroke-width="6" d="M 0 0 L 0 -37" transform="matrix(1,0,0,-1,1047,673)"/><path id="path234" fill="none" stroke="#000" stroke-linecap="butt" stroke-linejoin="miter" stroke-miterlimit="10" stroke-opacity="1" stroke-width="6" d="M 0 0 L 0 -102" transform="matrix(1,0,0,-1,999,710)"/><path id="path236" fill="none" stroke="#000" stroke-linecap="butt" stroke-linejoin="miter" stroke-miterlimit="10" stroke-opacity="1" stroke-width="6" d="M -0.00045625 -0.001 L 231.823763 -54.180687" transform="matrix(1,0,0,-1,863.9028,630.1865)"/></g><g id="g4746" transform="matrix(3.0830369,0,0,3.0830369,763.60297,91.184463)"><path id="XMLID_107_" fill="#0082c9" fill-opacity="1" fill-rule="nonzero" stroke="none" stroke-dasharray="none" stroke-dashoffset="0" stroke-linecap="butt" stroke-linejoin="miter" stroke-miterlimit="10" stroke-opacity="1" stroke-width="5.566" d="m 67.032801,9.9999701 c -11.80525,0 -21.81118,8.0031799 -24.91235,18.8465899 -2.69524,-5.75151 -8.53592,-9.78093 -15.26337,-9.78093 -9.25183,0 -16.85708,7.60525 -16.85708,16.85708 0,9.25182 7.60525,16.86054 16.85708,16.86054 6.72745,0 12.56813,-4.03188 15.26337,-9.78439 3.10117,10.84422 13.1071,18.85006 24.91235,18.85006 11.71795,0 21.67286,-7.8851 24.85334,-18.60701 2.74505,5.62192 8.513439,9.54134 15.145329,9.54134 9.25183,0 16.86055,-7.60872 16.86055,-16.86054 0,-9.25183 -7.60872,-16.85708 -16.86055,-16.85708 -6.63189,0 -12.400279,3.91696 -15.145329,9.53788 C 88.705661,17.88243 78.750751,9.9999701 67.032801,9.9999701 Z m 0,9.8954999 c 8.91163,0 16.03073,7.11564 16.03073,16.02724 0,8.9116 -7.1191,16.03071 -16.03073,16.03071 -8.91158,0 -16.02722,-7.11911 -16.02722,-16.03071 0,-8.9116 7.11564,-16.02724 16.02722,-16.02724 z m -40.17572,9.06567 c 3.90437,0 6.96504,3.05718 6.96504,6.96157 0,3.90438 -3.06067,6.96504 -6.96504,6.96504 -3.90439,0 -6.96158,-3.06066 -6.96158,-6.96504 0,-3.90439 3.05719,-6.96157 6.96158,-6.96157 z m 80.174389,0 c 3.9044,0 6.96504,3.05718 6.96504,6.96157 0,3.90438 -3.06066,6.96504 -6.96504,6.96504 -3.90437,0 -6.96156,-3.06066 -6.96156,-6.96504 0,-3.90439 3.05721,-6.96157 6.96156,-6.96157 z" baseline-shift="baseline" clip-rule="nonzero" color="#000" color-interpolation="sRGB" color-interpolation-filters="linearRGB" color-rendering="auto" direction="ltr" display="inline" enable-background="accumulate" font-family="sans-serif" font-size="medium" font-stretch="normal" font-style="normal" font-variant="normal" font-weight="normal" image-rendering="auto" letter-spacing="normal" opacity="1" overflow="visible" shape-rendering="auto" text-anchor="start" text-decoration="none" text-rendering="auto" visibility="visible" word-spacing="normal" writing-mode="lr-tb" style="line-height:normal;text-indent:0;text-align:start;text-decoration-line:none;text-decoration-style:solid;text-decoration-color:#000;text-transform:none;white-space:normal;isolation:auto;mix-blend-mode:normal;solid-color:#000;solid-opacity:1"/><g id="g4571" fill="#0082c9" fill-opacity="1" opacity="1" transform="matrix(0.47038519,0,0,0.47038519,21.389201,50.75959)"><path id="XMLID_121_" fill="#0082c9" fill-opacity="1" d="m 37.669669,48.9 c 5.9,0 9.2,4.2 9.2,10.5 0,0.6 -0.5,1.1 -1.1,1.1 h -15.9 c 0.1,5.6 4,8.8 8.5,8.8 2.8,0 4.8,-1.2 5.8,-2 0.6,-0.4 1.1,-0.3 1.4,0.3 l 0.3,0.5 c 0.3,0.5 0.2,1 -0.3,1.4 -1.2,0.9 -3.8,2.4 -7.3,2.4 -6.5,0 -11.5,-4.7 -11.5,-11.5 0.1,-7.2 4.9,-11.5 10.9,-11.5 z m 6.1,9.4 c -0.2,-4.6 -3,-6.9 -6.2,-6.9 -3.7,0 -6.9,2.4 -7.6,6.9 z"/><path id="XMLID_119_" fill="#0082c9" fill-opacity="1" d="m 76.9,52.1 v -2.5 -5.2 c 0,-0.7 0.4,-1.1 1.1,-1.1 h 0.8 c 0.7,0 1,0.4 1,1.1 v 5.2 h 4.5 c 0.7,0 1.1,0.4 1.1,1.1 V 51 c 0,0.7 -0.4,1 -1.1,1 h -4.5 v 11 c 0,5.1 3.1,5.7 4.8,5.8 0.9,0.1 1.2,0.3 1.2,1.1 v 0.6 c 0,0.7 -0.3,1 -1.2,1 -4.8,0 -7.7,-2.9 -7.7,-8.1 z"/><path id="XMLID_117_" fill="#0082c9" fill-opacity="1" d="m 99.8,48.9 c 3.8,0 6.2,1.6 7.3,2.5 0.5,0.4 0.6,0.9 0.1,1.5 l -0.3,0.5 c -0.4,0.6 -0.9,0.6 -1.5,0.2 -1,-0.7 -2.9,-2 -5.5,-2 -4.8,0 -8.6,3.6 -8.6,8.9 0,5.2 3.8,8.8 8.6,8.8 3.1,0 5.2,-1.4 6.2,-2.3 0.6,-0.4 1,-0.3 1.4,0.3 l 0.3,0.4 c 0.3,0.6 0.2,1 -0.3,1.5 -1.1,0.9 -3.8,2.8 -7.8,2.8 -6.5,0 -11.5,-4.7 -11.5,-11.5 0.1,-6.8 5.1,-11.6 11.6,-11.6 z"/><path id="XMLID_115_" fill="#0082c9" fill-opacity="1" d="m 113.1,41.8 c 0,-0.7 -0.4,-1.1 0.3,-1.1 h 0.8 c 0.7,0 1.8,0.4 1.8,1.1 v 23.9 c 0,2.8 1.3,3.1 2.3,3.2 0.5,0 0.9,0.3 0.9,1 v 0.7 c 0,0.7 -0.3,1.1 -1.1,1.1 -1.8,0 -5,-0.6 -5,-5.4 z"/><path id="XMLID_112_" fill="#0082c9" fill-opacity="1" d="m 133.6,48.9 c 6.4,0 11.6,4.9 11.6,11.4 0,6.6 -5.2,11.6 -11.6,11.6 -6.4,0 -11.6,-5 -11.6,-11.6 0,-6.5 5.2,-11.4 11.6,-11.4 z m 0,20.4 c 4.7,0 8.5,-3.8 8.5,-9 0,-5 -3.8,-8.7 -8.5,-8.7 -4.7,0 -8.6,3.8 -8.6,8.7 0.1,5.1 3.9,9 8.6,9 z"/><path id="XMLID_109_" fill="#0082c9" fill-opacity="1" d="m 183.5,48.9 c 5.3,0 7.2,4.4 7.2,4.4 h 0.1 c 0,0 -0.1,-0.7 -0.1,-1.7 v -9.9 c 0,-0.7 -0.3,-1.1 0.4,-1.1 h 0.8 c 0.7,0 1.8,0.4 1.8,1.1 v 28.5 c 0,0.7 -0.3,1.1 -1,1.1 H 192 c -0.7,0 -1.1,-0.3 -1.1,-1 v -1.7 c 0,-0.8 0.2,-1.4 0.2,-1.4 H 191 c 0,0 -1.9,4.6 -7.6,4.6 -5.9,0 -9.6,-4.7 -9.6,-11.5 -0.2,-6.8 3.9,-11.4 9.7,-11.4 z m 0.1,20.4 c 3.7,0 7.1,-2.6 7.1,-8.9 0,-4.5 -2.3,-8.8 -7,-8.8 -3.9,0 -7.1,3.2 -7.1,8.8 0.1,5.4 2.9,8.9 7,8.9 z"/><path id="XMLID_103_" fill="#0082c9" fill-opacity="1" d="m 1,71.4 h 0.8 c 0.7,0 1.1,-0.4 1.1,-1.1 V 48.827665 C 2.9,45.427665 6.6,43 10.8,43 c 4.2,0 7.9,2.427665 7.9,5.827665 L 18.7,70.3 c 0,0.7 0.4,1.1 1.1,1.1 h 0.8 c 0.7,0 1,-0.4 1,-1.1 V 48.7 c 0,-5.7 -5.7,-8.5 -10.9,-8.5 v 0 0 0 0 C 5.7,40.2 0,43 0,48.7 v 21.6 c 0,0.7 0.3,1.1 1,1.1 z"/><path id="XMLID_102_" fill="#0082c9" fill-opacity="1" d="m 167.9,49.4 h -0.8 c -0.7,0 -1.1,0.4 -1.1,1.1 v 12.1 c 0,3.4 -2.2,6.5 -6.5,6.5 -4.2,0 -6.5,-3.1 -6.5,-6.5 V 50.5 c 0,-0.7 -0.4,-1.1 -1.1,-1.1 h -0.8 c -0.7,0 -1,0.4 -1,1.1 v 12.9 c 0,5.7 4.2,8.5 9.4,8.5 v 0 c 0,0 0,0 0,0 0,0 0,0 0,0 v 0 c 5.2,0 9.4,-2.8 9.4,-8.5 V 50.5 c 0.1,-0.7 -0.3,-1.1 -1,-1.1 z"/><path id="path4165-9" fill="#0082c9" fill-opacity="1" d="m 68.908203,49.235938 c -0.244942,0.0391 -0.480102,0.202589 -0.705078,0.470703 l -4.046875,4.824218 -3.029297,3.609375 -4.585937,-5.466796 -2.488282,-2.966797 c -0.224975,-0.268116 -0.479748,-0.414718 -0.74414,-0.4375 -0.264393,-0.02278 -0.538524,0.07775 -0.806641,0.302734 l -0.613281,0.513672 c -0.536232,0.449952 -0.508545,0.948144 -0.05859,1.484375 l 4.048828,4.824219 3.357422,4 -4.916016,5.857421 c -0.0037,0.0044 -0.0061,0.0093 -0.0098,0.01367 l -2.480469,2.955078 c -0.449952,0.536232 -0.399531,1.100832 0.136719,1.550782 l 0.613281,0.511718 c 0.536231,0.449951 1.022704,0.33701 1.472656,-0.199218 l 4.046875,-4.824219 3.029297,-3.609375 4.585938,5.466797 c 0.003,0.0036 0.0067,0.0062 0.0098,0.0098 l 2.480469,2.957032 c 0.44995,0.536231 1.012595,0.584735 1.548828,0.134765 l 0.613282,-0.513671 c 0.536231,-0.449952 0.508544,-0.948144 0.05859,-1.484376 l -4.048828,-4.824218 -3.357422,-4 4.916016,-5.857422 c 0.0037,-0.0044 0.0061,-0.0093 0.0098,-0.01367 l 2.480469,-2.955078 c 0.449952,-0.53623 0.399532,-1.10083 -0.136719,-1.550781 l -0.613281,-0.513672 c -0.268115,-0.224976 -0.522636,-0.308636 -0.767578,-0.269531 z"/></g></g></svg>