<svg xmlns="http://www.w3.org/2000/svg" width="16" height="16" viewBox="0 0 16 16"><g style="line-height:125%;-inkscape-font-specification:'DejaVu Sans, Normal';text-align:start" fill="#fff" font-family="DejaVu Sans" font-size="2474.955" font-weight="400" letter-spacing="0" transform="matrix(.00532 0 0 .00532 3.072 24.366)" word-spacing="0"><circle cx="925.714" cy="-3074.495" r="1502.857" fill="#0082c9" fill-rule="evenodd"/><path style="-inkscape-font-specification:FontAwesome" d="M1996.077-3574.458c0-34.528-13.811-69.055-38.671-93.915l-27.832-27.832c-24.86-24.86-59.388-38.671-93.915-38.671-34.528 0-69.056 13.811-93.916 38.671L675.733-2628.814l-566.047-567.428c-24.86-24.86-59.388-38.671-93.916-38.671s-69.056 13.811-93.916 38.671l-27.831 27.832c-24.86 24.86-38.671 59.387-38.671 93.915 0 34.528 13.81 69.056 38.67 93.916l499.964 499.963 187.831 187.831c24.86 24.86 59.388 38.671 93.916 38.671s69.055-13.81 93.915-38.67l187.832-187.832 999.926-999.926c24.86-24.86 38.67-59.388 38.67-93.916z" font-family="FontAwesome"/></g></svg>