<svg xmlns="http://www.w3.org/2000/svg" viewBox="0 0 195.69999 73.878937" width="195.7" height="73.879"><circle stroke-miterlimit="10" cx="100.016" cy="15.583" r="11.8" fill="none" stroke="#0082c9" stroke-width="5.566"/><circle stroke-miterlimit="10" cx="122.516" cy="15.583" r="6.7" fill="none" stroke="#0082c9" stroke-width="5.566"/><circle stroke-miterlimit="10" cx="77.416" cy="15.583" r="6.7" fill="none" stroke="#0082c9" stroke-width="5.566"/><g fill="#231f20"><path d="M38.67 49.779c5.9 0 9.2 4.2 9.2 10.5 0 .6-.5 1.1-1.1 1.1h-15.9c.1 5.6 4 8.8 8.5 8.8 2.8 0 4.8-1.2 5.8-2 .6-.4 1.1-.3 1.4.3l.3.5c.3.5.2 1-.3 1.4-1.2.9-3.8 2.4-7.3 2.4-6.5 0-11.5-4.7-11.5-11.5.1-7.2 4.9-11.5 10.9-11.5zm6.1 9.4c-.2-4.6-3-6.9-6.2-6.9-3.7 0-6.9 2.4-7.6 6.9h13.8zM77.9 52.979v-7.7c0-.7.4-1.1 1.1-1.1h.8c.7 0 1 .4 1 1.1v5.2h4.5c.7 0 1.1.4 1.1 1.1v.3c0 .7-.4 1-1.1 1h-4.5v11c0 5.1 3.1 5.7 4.8 5.8.9.1 1.2.3 1.2 1.1v.6c0 .7-.3 1-1.2 1-4.8 0-7.7-2.9-7.7-8.1v-11.3zM100.8 49.779c3.8 0 6.2 1.6 7.3 2.5.5.4.6.9.1 1.5l-.3.5c-.4.6-.9.6-1.5.2-1-.7-2.9-2-5.5-2-4.8 0-8.6 3.6-8.6 8.9 0 5.2 3.8 8.8 8.6 8.8 3.1 0 5.2-1.4 6.2-2.3.6-.4 1-.3 1.4.3l.3.4c.3.6.2 1-.3 1.5-1.1.9-3.8 2.8-7.8 2.8-6.5 0-11.5-4.7-11.5-11.5.1-6.8 5.1-11.6 11.6-11.6zM114.1 42.679c0-.7-.4-1.1.3-1.1h.8c.7 0 1.8.4 1.8 1.1v23.9c0 2.8 1.3 3.1 2.3 3.2.5 0 .9.3.9 1v.7c0 .7-.3 1.1-1.1 1.1-1.8 0-5-.6-5-5.4v-24.5zM134.6 49.779c6.4 0 11.6 4.9 11.6 11.4 0 6.6-5.2 11.6-11.6 11.6-6.4 0-11.6-5-11.6-11.6 0-6.5 5.2-11.4 11.6-11.4zm0 20.4c4.7 0 8.5-3.8 8.5-9 0-5-3.8-8.7-8.5-8.7s-8.6 3.8-8.6 8.7c.1 5.1 3.9 9 8.6 9zM184.5 49.779c5.3 0 7.2 4.4 7.2 4.4h.1s-.1-.7-.1-1.7v-9.9c0-.7-.3-1.1.4-1.1h.8c.7 0 1.8.4 1.8 1.1v28.5c0 .7-.3 1.1-1 1.1h-.7c-.7 0-1.1-.3-1.1-1v-1.7c0-.8.2-1.4.2-1.4h-.1s-1.9 4.6-7.6 4.6c-5.9 0-9.6-4.7-9.6-11.5-.2-6.8 3.9-11.4 9.7-11.4zm.1 20.4c3.7 0 7.1-2.6 7.1-8.9 0-4.5-2.3-8.8-7-8.8-3.9 0-7.1 3.2-7.1 8.8.1 5.4 2.9 8.9 7 8.9zM2 72.279h.8c.7 0 1.1-.4 1.1-1.1V49.707c0-3.4 3.7-5.828 7.9-5.828s7.9 2.428 7.9 5.828v21.472c0 .7.4 1.1 1.1 1.1h.8c.7 0 1-.4 1-1.1v-21.6c0-5.7-5.7-8.5-10.9-8.5-5 0-10.7 2.8-10.7 8.5v21.6c0 .7.3 1.1 1 1.1zM168.9 50.279h-.8c-.7 0-1.1.4-1.1 1.1v12.1c0 3.4-2.2 6.5-6.5 6.5-4.2 0-6.5-3.1-6.5-6.5v-12.1c0-.7-.4-1.1-1.1-1.1h-.8c-.7 0-1 .4-1 1.1v12.9c0 5.7 4.2 8.5 9.4 8.5s9.4-2.8 9.4-8.5v-12.9c.1-.7-.3-1.1-1-1.1zM69.908 50.115c-.245.039-.48.202-.705.47l-4.047 4.825-3.03 3.61-4.585-5.468-2.488-2.966c-.225-.269-.48-.415-.744-.438-.265-.023-.539.078-.807.303l-.613.513c-.537.45-.509.949-.059 1.485l4.049 4.824 3.357 4-4.916 5.857-.01.014-2.48 2.955c-.45.536-.4 1.101.137 1.551l.613.512c.536.45 1.023.337 1.473-.2l4.047-4.824 3.029-3.61 4.586 5.468.01.01 2.48 2.957c.45.536 1.013.584 1.549.134l.613-.513c.536-.45.509-.948.059-1.485l-4.05-4.824-3.356-4 4.916-5.857.01-.014 2.48-2.955c.45-.536.4-1.1-.137-1.55l-.613-.515c-.268-.225-.523-.308-.768-.27z"/></g></svg>