<?xml version="1.0" encoding="UTF-8" standalone="no"?>
<svg
   xmlns:dc="http://purl.org/dc/elements/1.1/"
   xmlns:cc="http://creativecommons.org/ns#"
   xmlns:rdf="http://www.w3.org/1999/02/22-rdf-syntax-ns#"
   xmlns:svg="http://www.w3.org/2000/svg"
   xmlns="http://www.w3.org/2000/svg"
   xmlns:sodipodi="http://sodipodi.sourceforge.net/DTD/sodipodi-0.dtd"
   xmlns:inkscape="http://www.inkscape.org/namespaces/inkscape"
   width="26"
   height="26"
   viewBox="0 0 26 26"
   id="svg2"
   version="1.1"
   inkscape:version="0.91 r13725"
   sodipodi:docname="pdf-icon.svg">
  <metadata
     id="metadata10">
    <rdf:RDF>
      <cc:Work
         rdf:about="">
        <dc:format>image/svg+xml</dc:format>
        <dc:type
           rdf:resource="http://purl.org/dc/dcmitype/StillImage" />
      </cc:Work>
    </rdf:RDF>
  </metadata>
  <defs
     id="defs8" />
  <sodipodi:namedview
     pagecolor="#ffffff"
     bordercolor="#666666"
     borderopacity="1"
     objecttolerance="10"
     gridtolerance="10"
     guidetolerance="10"
     inkscape:pageopacity="0"
     inkscape:pageshadow="2"
     inkscape:window-width="640"
     inkscape:window-height="480"
     id="namedview6"
     showgrid="false"
     inkscape:zoom="9.0769231"
     inkscape:cx="13"
     inkscape:cy="13"
     inkscape:window-x="0"
     inkscape:window-y="0"
     inkscape:window-maximized="0"
     inkscape:current-layer="svg2" />
  <path
     d="M 7 0 C 4.795 0 3 1.795 3 4 L 3 22 C 3 24.205 4.795 26 7 26 L 19 26 C 21.205 26 23 24.205 23 22 L 23 8 C 23 6.938 22.02725 5.92975 20.28125 4.21875 C 20.03725 3.97875 19.77725 3.71675 19.53125 3.46875 C 19.28325 3.22275 19.02125 2.994 18.78125 2.75 C 17.06925 1.003 16.063 0 15 0 L 7 0 z M 7 2 L 14.28125 2 C 15.00225 2.184 15 3.0505 15 3.9375 L 15 7 C 15 7.551 15.449 8 16 8 L 19 8 C 19.998 8 21 8.005 21 9 L 21 22 C 21 23.104 20.104 24 19 24 L 7 24 C 5.896 24 5 23.104 5 22 L 5 4 C 5 2.896 5.896 2 7 2 z M 12.25 9 C 11.815476 9 11.377131 9.2356404 11.1875 9.59375 C 10.997869 9.9518596 10.980478 10.355803 11.03125 10.78125 C 11.10983 11.439715 11.490044 12.249343 11.875 13.03125 C 11.672481 13.755883 11.564595 14.411449 11.25 15.1875 C 10.863872 16.140009 10.395765 16.893995 9.9375 17.6875 C 9.3357486 17.975472 8.5923976 18.234666 8.15625 18.53125 C 7.6814529 18.854116 7.2924594 19.139147 7.09375 19.5625 C 6.994395 19.774177 6.9641242 20.057908 7.0625 20.3125 C 7.160876 20.567092 7.3689635 20.755298 7.59375 20.875 C 8.0537048 21.119294 8.5680317 20.96798 8.96875 20.6875 C 9.3694683 20.407019 9.7546705 19.982287 10.125 19.46875 C 10.321943 19.195648 10.494457 18.759947 10.6875 18.4375 C 11.285774 18.163333 11.695665 17.867185 12.375 17.625 C 13.321722 17.287491 14.180347 17.164149 15.0625 16.96875 C 15.778659 17.470017 16.524603 17.84375 17.34375 17.84375 C 17.813106 17.84375 18.171092 17.84075 18.5 17.65625 C 18.828908 17.471707 19 17.050417 19 16.71875 C 19 16.453924 18.899882 16.183297 18.71875 16 C 18.537618 15.816703 18.296312 15.688985 18.0625 15.625 C 17.594877 15.49703 17.06988 15.524765 16.4375 15.59375 C 16.114449 15.62899 15.671543 15.805256 15.3125 15.875 C 15.2179 15.80045 15.124901 15.83277 15.03125 15.75 C 14.252645 15.061876 13.539436 14.126992 13 13.1875 C 12.960701 13.119055 12.974771 13.068401 12.9375 13 C 13.071987 12.483329 13.317978 11.884792 13.375 11.4375 C 13.450426 10.845836 13.448615 10.323719 13.3125 9.875 C 13.244442 9.6506405 13.158432 9.417407 12.96875 9.25 C 12.779068 9.082593 12.505584 9 12.25 9 z M 12.125 10 C 12.139462 9.9932461 12.170387 10 12.25 10 C 12.30279 10 12.27224 9.99205 12.28125 10 C 12.29025 10.008 12.3441 10.05439 12.375 10.15625 C 12.4368 10.359965 12.44093 10.764055 12.375 11.28125 C 12.3698 11.32166 12.3498 11.395865 12.34375 11.4375 C 12.26996 11.191907 12.054227 10.848784 12.03125 10.65625 C 11.99424 10.346135 12.05617 10.133469 12.09375 10.0625 C 12.11254 10.027016 12.110538 10.006754 12.125 10 z M 12.5625 14.25 C 13.012793 14.942013 13.537479 15.584777 14.125 16.15625 C 13.412356 16.342541 12.754347 16.429714 12.03125 16.6875 C 11.798571 16.77045 11.664701 16.881047 11.4375 16.96875 C 11.681125 16.468057 11.973645 16.090044 12.1875 15.5625 C 12.37599 15.097529 12.407575 14.709694 12.5625 14.25 z M 17.40625 16.5625 C 17.582088 16.558734 17.717082 16.56764 17.8125 16.59375 C 17.934755 16.62721 17.988975 16.67634 18 16.6875 C 18.01103 16.69866 18 16.6817 18 16.71875 C 18 16.867083 18.02309 16.76829 18 16.78125 C 17.97691 16.79421 17.754394 16.84375 17.34375 16.84375 C 17.18018 16.84375 16.985617 16.635552 16.8125 16.59375 C 17.01373 16.582705 17.230412 16.566266 17.40625 16.5625 z M 9 19.21875 C 8.7909966 19.464119 8.5658853 19.763264 8.40625 19.875 C 8.162816 20.04539 8.1085452 20.024456 8.0625 20 C 8.008222 19.9711 8.033454 19.97046 8.03125 19.96875 C 8.087975 19.87006 8.3290337 19.60876 8.71875 19.34375 C 8.780935 19.30146 8.9313349 19.26201 9 19.21875 z"
     id="path4"
     style="fill:#ffffff" />
</svg>
