<?xml version="1.0" encoding="UTF-8" standalone="no"?>
<svg
   xmlns:dc="http://purl.org/dc/elements/1.1/"
   xmlns:cc="http://creativecommons.org/ns#"
   xmlns:rdf="http://www.w3.org/1999/02/22-rdf-syntax-ns#"
   xmlns:svg="http://www.w3.org/2000/svg"
   xmlns="http://www.w3.org/2000/svg"
   xmlns:sodipodi="http://sodipodi.sourceforge.net/DTD/sodipodi-0.dtd"
   xmlns:inkscape="http://www.inkscape.org/namespaces/inkscape"
   width="16"
   height="16"
   viewBox="0 0 15.999999 15.999999"
   version="1.1"
   id="svg8"
   sodipodi:docname="white-check.svg"
   inkscape:version="0.92.2 5c3e80d, 2017-08-06">
  <metadata
     id="metadata14">
    <rdf:RDF>
      <cc:Work
         rdf:about="">
        <dc:format>image/svg+xml</dc:format>
        <dc:type
           rdf:resource="http://purl.org/dc/dcmitype/StillImage" />
        <dc:title></dc:title>
      </cc:Work>
    </rdf:RDF>
  </metadata>
  <defs
     id="defs12" />
  <sodipodi:namedview
     pagecolor="#ffffff"
     bordercolor="#666666"
     borderopacity="1"
     objecttolerance="10"
     gridtolerance="10"
     guidetolerance="10"
     inkscape:pageopacity="0"
     inkscape:pageshadow="2"
     inkscape:window-width="2560"
     inkscape:window-height="1353"
     id="namedview10"
     showgrid="false"
     inkscape:zoom="7.375"
     inkscape:cx="-4.8099102"
     inkscape:cy="8.6925624"
     inkscape:window-x="0"
     inkscape:window-y="240"
     inkscape:window-maximized="1"
     inkscape:current-layer="svg8" />
  <path
     inkscape:connector-curvature="0"
     id="path4"
     d="m 13.69113,5.3498834 c 0,-0.1836889 -0.07348,-0.3673726 -0.20573,-0.4996278 L 13.337334,4.7021894 C 13.205078,4.5699342 13.02139,4.4964597 12.837706,4.4964597 c -0.183689,0 -0.367378,0.073474 -0.499633,0.2057297 L 6.6668996,10.38071 3.6555295,7.3619926 C 3.5232743,7.2297374 3.3395854,7.1562628 3.1558964,7.1562628 c -0.183689,0 -0.3673779,0.073475 -0.4996331,0.2057298 L 2.5082024,7.5100588 C 2.3759472,7.642314 2.3024726,7.8259976 2.3024726,8.0096866 c 0,0.183689 0.073469,0.3673779 0.2057244,0.4996331 l 2.6598085,2.6598033 0.9992609,0.999261 c 0.1322552,0.132255 0.3159442,0.20573 0.4996332,0.20573 0.1836889,0 0.3673726,-0.07347 0.4996278,-0.205725 L 8.1657936,11.169123 13.4854,5.8495166 c 0.132255,-0.1322552 0.205724,-0.3159442 0.205724,-0.4996332 z"
     style="font-weight:400;font-size:medium;line-height:125%;font-family:FontAwesome;-inkscape-font-specification:FontAwesome;text-align:start;letter-spacing:0;word-spacing:0;fill:#ffffff;stroke-width:0.00532" />
</svg>
