<svg xmlns="http://www.w3.org/2000/svg" xmlns:svg="http://www.w3.org/2000/svg" id="svg8" width="16" height="16" version="1.1" viewBox="0 0 16 16"><metadata id="metadata14"/><path style="line-height:125%;-inkscape-font-specification:FontAwesome;text-align:start" id="path4" fill="#fff" stroke-width=".005" d="m 13.69113,5.3498834 c 0,-0.1836889 -0.07348,-0.3673726 -0.20573,-0.4996278 L 13.337334,4.7021894 C 13.205078,4.5699342 13.02139,4.4964597 12.837706,4.4964597 c -0.183689,0 -0.367378,0.073474 -0.499633,0.2057297 L 6.6668996,10.38071 3.6555295,7.3619926 C 3.5232743,7.2297374 3.3395854,7.1562628 3.1558964,7.1562628 c -0.183689,0 -0.3673779,0.073475 -0.4996331,0.2057298 L 2.5082024,7.5100588 C 2.3759472,7.642314 2.3024726,7.8259976 2.3024726,8.0096866 c 0,0.183689 0.073469,0.3673779 0.2057244,0.4996331 l 2.6598085,2.6598033 0.9992609,0.999261 c 0.1322552,0.132255 0.3159442,0.20573 0.4996332,0.20573 0.1836889,0 0.3673726,-0.07347 0.4996278,-0.205725 L 8.1657936,11.169123 13.4854,5.8495166 c 0.132255,-0.1322552 0.205724,-0.3159442 0.205724,-0.4996332 z" font-family="FontAwesome" font-size="medium" font-weight="400" letter-spacing="0" word-spacing="0"/></svg>