<?xml version="1.0" encoding="UTF-8" standalone="no"?>
<!-- Created with Inkscape (http://www.inkscape.org/) -->

<svg
   xmlns:dc="http://purl.org/dc/elements/1.1/"
   xmlns:cc="http://creativecommons.org/ns#"
   xmlns:rdf="http://www.w3.org/1999/02/22-rdf-syntax-ns#"
   xmlns:svg="http://www.w3.org/2000/svg"
   xmlns="http://www.w3.org/2000/svg"
   xmlns:sodipodi="http://sodipodi.sourceforge.net/DTD/sodipodi-0.dtd"
   xmlns:inkscape="http://www.inkscape.org/namespaces/inkscape"
   width="679.36542mm"
   height="485.2612mm"
   viewBox="0 0 2407.2003 1719.4294"
   id="svg2"
   version="1.1"
   inkscape:version="0.91 r13725"
   sodipodi:docname="YTplay.svg">
  <defs
     id="defs4" />
  <sodipodi:namedview
     id="base"
     pagecolor="#ffffff"
     bordercolor="#666666"
     borderopacity="1.0"
     inkscape:pageopacity="0.0"
     inkscape:pageshadow="2"
     inkscape:zoom="0.1767767"
     inkscape:cx="385.21608"
     inkscape:cy="804.83714"
     inkscape:document-units="px"
     inkscape:current-layer="g4184"
     showgrid="false"
     fit-margin-top="0"
     fit-margin-left="0"
     fit-margin-right="0"
     fit-margin-bottom="0"
     inkscape:window-width="2560"
     inkscape:window-height="1359"
     inkscape:window-x="0"
     inkscape:window-y="332"
     inkscape:window-maximized="1" />
  <metadata
     id="metadata7">
    <rdf:RDF>
      <cc:Work
         rdf:about="">
        <dc:format>image/svg+xml</dc:format>
        <dc:type
           rdf:resource="http://purl.org/dc/dcmitype/StillImage" />
        <dc:title />
      </cc:Work>
    </rdf:RDF>
  </metadata>
  <g
     inkscape:label="Layer 1"
     inkscape:groupmode="layer"
     id="layer1"
     transform="translate(2909.5885,-1235.2286)">
    <g
       id="g4178">
      <g
         id="g4184"
         transform="translate(-2998.1327,1046.518)">
        <g
           style="font-style:normal;font-variant:normal;font-weight:normal;font-stretch:normal;font-size:9.6902504px;line-height:125%;font-family:'DejaVu Sans';-inkscape-font-specification:'DejaVu Sans, Normal';text-align:start;letter-spacing:0px;word-spacing:0px;writing-mode:lr-tb;text-anchor:start;fill:#000000;fill-opacity:0.796875;stroke:none;stroke-width:1px;stroke-linecap:butt;stroke-linejoin:miter;stroke-opacity:1"
           id="flowRoot4136"
           transform="matrix(248.41467,0,0,248.41467,-21914.106,-58392.966)">
          <path
             d="m 95.493873,239.28294 c 0,0.11896 -0.05948,0.23252 -0.162225,0.292 l -2.768643,1.7304 c -0.05407,0.0379 -0.118965,0.0541 -0.183855,0.0541 -0.05948,0 -0.113558,-0.0162 -0.167633,-0.0433 -0.10815,-0.0595 -0.178448,-0.17845 -0.178448,-0.30282 l 0,-3.46081 c 0,-0.12437 0.0703,-0.24333 0.178448,-0.30282 0.10815,-0.0595 0.243338,-0.0595 0.351488,0.0108 l 2.768643,1.7304 c 0.102742,0.0595 0.162225,0.17304 0.162225,0.29201 z m 2.768643,0 c 0,-0.77328 0,-1.59522 -0.167633,-2.34686 -0.118965,-0.52994 -0.54075,-0.91928 -1.049056,-0.97876 -1.200466,-0.13519 -2.417155,-0.13519 -3.628436,-0.13519 -1.211281,0 -2.42797,0 -3.628437,0.13519 -0.508305,0.0595 -0.924683,0.44882 -1.043648,0.97876 -0.17304,0.75164 -0.17304,1.57358 -0.17304,2.34686 0,0.77327 0,1.59521 0.167632,2.34685 0.118965,0.52994 0.540751,0.91928 1.049056,0.97876 1.200467,0.13519 2.417156,0.13519 3.628437,0.13519 1.211281,0 2.42797,0 3.628436,-0.13519 0.508306,-0.0595 0.930091,-0.44882 1.043649,-0.97876 0.17304,-0.75164 0.17304,-1.57358 0.17304,-2.34685 z"
             id="path4145"
             inkscape:connector-curvature="0"
             style="fill:#000000;fill-opacity:0.796875" />
        </g>
        <g
           transform="matrix(248.41467,0,0,248.41467,-18537.203,-58526.051)"
           style="font-style:normal;font-variant:normal;font-weight:normal;font-stretch:normal;font-size:9.6902504px;line-height:125%;font-family:'DejaVu Sans';-inkscape-font-specification:'DejaVu Sans, Normal';text-align:start;letter-spacing:0px;word-spacing:0px;writing-mode:lr-tb;text-anchor:start;fill:#ffffff;fill-opacity:1;stroke:none;stroke-width:1px;stroke-linecap:butt;stroke-linejoin:miter;stroke-opacity:1"
           id="flowRoot4136-0">
          <path
             inkscape:connector-curvature="0"
             d="m 81.900123,239.81861 c 0,-0.11897 -0.05948,-0.23251 -0.162225,-0.29201 l -2.768643,-1.7304 c -0.10815,-0.0703 -0.243338,-0.0703 -0.351488,-0.0108 -0.108148,0.0595 -0.178448,0.17845 -0.178448,0.30282 l 0,3.46081 c 0,0.12437 0.0703,0.24332 0.178448,0.30282 0.05407,0.0271 0.108153,0.0433 0.167633,0.0433 0.06489,0 0.129785,-0.0162 0.183855,-0.0541 l 2.768643,-1.7304 c 0.102745,-0.0595 0.162225,-0.17304 0.162225,-0.292 z"
             id="path4145-0"
             sodipodi:nodetypes="scccsscsccss"
             style="fill:#ffffff" />
        </g>
      </g>
    </g>
  </g>
</svg>
