<svg xmlns="http://www.w3.org/2000/svg" width="2567.68" height="1834.058" viewBox="0 0 2407.2 1719.429"><g font-family="DejaVu Sans" font-size="9.69" font-weight="400" letter-spacing="0" word-spacing="0"><path style="line-height:125%;-inkscape-font-specification:'DejaVu Sans, Normal';text-align:start" fill-opacity=".797" d="M1719.429 859.716c0 29.551-14.776 57.761-40.3 72.537L991.36 1362.11c-13.433 9.415-29.554 13.439-45.673 13.439-14.776 0-28.21-4.024-41.643-10.756-26.866-14.781-44.329-44.33-44.329-75.225V429.852c0-30.896 17.464-60.447 44.33-75.225 26.865-14.78 60.448-14.78 87.314 2.683l687.772 429.856c25.522 14.781 40.299 42.986 40.299 72.54zm687.771 0c0-192.094 0-396.276-41.642-582.994-29.553-131.645-134.33-228.363-260.601-243.139C1806.744 0 1504.5 0 1203.6 0S600.457 0 302.243 33.583C175.973 48.363 72.538 145.077 42.986 276.722 0 463.44 0 667.622 0 859.716c0 192.092 0 396.274 41.642 582.992 29.553 131.645 134.33 228.363 260.601 243.138 298.214 33.583 600.457 33.583 901.357 33.583s603.144 0 901.357-33.583c126.27-14.78 231.048-111.493 259.258-243.138 42.985-186.718 42.985-390.9 42.985-582.992z"/><path style="line-height:125%;-inkscape-font-specification:'DejaVu Sans, Normal';text-align:start" fill="#fff" d="M1719.445 859.7c0-29.555-14.776-57.76-40.3-72.54l-687.77-429.857c-26.867-17.464-60.45-17.464-87.316-2.683-26.865 14.78-44.329 44.33-44.329 75.225v859.716c0 30.895 17.464 60.444 44.33 75.225 13.431 6.732 26.866 10.756 41.642 10.756 16.12 0 32.24-4.024 45.672-13.439l687.772-429.857c25.523-14.78 40.299-42.985 40.299-72.537z"/></g></svg>