<?xml version="1.0" encoding="UTF-8" standalone="no"?>
<svg
   xmlns:dc="http://purl.org/dc/elements/1.1/"
   xmlns:cc="http://creativecommons.org/ns#"
   xmlns:rdf="http://www.w3.org/1999/02/22-rdf-syntax-ns#"
   xmlns:svg="http://www.w3.org/2000/svg"
   xmlns="http://www.w3.org/2000/svg"
   xmlns:xlink="http://www.w3.org/1999/xlink"
   xmlns:sodipodi="http://sodipodi.sourceforge.net/DTD/sodipodi-0.dtd"
   xmlns:inkscape="http://www.inkscape.org/namespaces/inkscape"
   enable-background="new 0 0 595.275 311.111"
   xml:space="preserve"
   height="209"
   width="255"
   version="1.1"
   y="0px"
   x="0px"
   viewBox="0 0 255.00001 208.99649"
   id="svg2982"
   inkscape:version="0.48.5 r10040"
   sodipodi:docname="5years.svg"
   inkscape:export-filename="ownCloud Contributor Conference logo.png"
   inkscape:export-xdpi="90"
   inkscape:export-ydpi="90"><metadata
     id="metadata2990"><rdf:RDF><cc:Work
         rdf:about=""><dc:format>image/svg+xml</dc:format><dc:type
           rdf:resource="http://purl.org/dc/dcmitype/StillImage" /><dc:title /></cc:Work></rdf:RDF></metadata><defs
     id="defs2988"><linearGradient
       inkscape:collect="always"
       xlink:href="#linearGradient3763"
       id="linearGradient3822"
       gradientUnits="userSpaceOnUse"
       gradientTransform="translate(8,7)"
       x1="59.882252"
       y1="-7.5668597"
       x2="59.882252"
       y2="133.9725" /><linearGradient
       id="linearGradient3763"><stop
         style="stop-color:#35537a;stop-opacity:1;"
         offset="0"
         id="stop3765" /><stop
         style="stop-color:#1d2d44;stop-opacity:1;"
         offset="1"
         id="stop3767" /></linearGradient><clipPath
       clipPathUnits="userSpaceOnUse"
       id="clipPath3846"><rect
         style="fill:url(#linearGradient3850);fill-opacity:1;stroke:none"
         id="rect3848"
         width="144"
         height="144"
         x="0"
         y="0"
         rx="20"
         ry="20" /></clipPath><linearGradient
       id="linearGradient3807"><stop
         style="stop-color:#ffffff;stop-opacity:1;"
         offset="0"
         id="stop3809" /><stop
         style="stop-color:#e6e6e6;stop-opacity:1;"
         offset="1"
         id="stop3811" /></linearGradient><linearGradient
       id="linearGradient3807-6"><stop
         style="stop-color:#ffffff;stop-opacity:1;"
         offset="0"
         id="stop3809-5" /><stop
         style="stop-color:#e6e6e6;stop-opacity:1;"
         offset="1"
         id="stop3811-1" /></linearGradient></defs><sodipodi:namedview
     pagecolor="#ffffff"
     bordercolor="#666666"
     borderopacity="1"
     objecttolerance="10"
     gridtolerance="10"
     guidetolerance="10"
     inkscape:pageopacity="0"
     inkscape:pageshadow="2"
     inkscape:window-width="1920"
     inkscape:window-height="1022"
     id="namedview2986"
     showgrid="false"
     inkscape:zoom="1.836"
     inkscape:cx="22.58935"
     inkscape:cy="127.68731"
     inkscape:window-x="-2"
     inkscape:window-y="398"
     inkscape:window-maximized="1"
     inkscape:current-layer="svg2982"
     fit-margin-top="0"
     fit-margin-left="0"
     fit-margin-right="0"
     fit-margin-bottom="0"
     inkscape:snap-bbox="true"
     inkscape:snap-page="true"
     showguides="true"
     inkscape:guide-bbox="true" /><rect
     style="opacity:0.4;fill:#000000;fill-opacity:1;fill-rule:evenodd;stroke:#1d2d44;stroke-width:20;stroke-linecap:square;stroke-linejoin:miter;stroke-miterlimit:4;stroke-opacity:1;stroke-dasharray:none;stroke-dashoffset:0"
     id="rect3004"
     width="541.49896"
     height="316.96564"
     x="393.09753"
     y="-60.033195" /><flowRoot
     xml:space="preserve"
     id="flowRoot3824"
     style="font-size:40px;font-style:normal;font-weight:normal;line-height:125%;letter-spacing:0px;word-spacing:0px;fill:#000000;fill-opacity:1;stroke:none;font-family:Sans"
     transform="translate(-1078.7334,623.42414)"><flowRegion
       id="flowRegion3826"><rect
         id="rect3828"
         width="286.49237"
         height="147.05882"
         x="8.7145967"
         y="148.73109" /></flowRegion><flowPara
       id="flowPara3830" /></flowRoot><flowRoot
     style="font-size:40px;font-style:normal;font-weight:normal;line-height:125%;letter-spacing:0px;word-spacing:0px;fill:#000000;fill-opacity:1;stroke:none;font-family:Sans"
     id="flowRoot3879"
     xml:space="preserve"
     transform="translate(-538.73337,623.42514)"><flowRegion
       id="flowRegion3881"><rect
         y="148.73109"
         x="8.7145967"
         height="147.05882"
         width="286.49237"
         id="rect3883" /></flowRegion><flowPara
       id="flowPara3885" /></flowRoot><path
     inkscape:connector-curvature="0"
     style="text-indent:0;text-transform:none;block-progression:tb;color:#000000;fill:#ffffff;enable-background:accumulate"
     d="m 153.16548,2.7116767 c -11.241,0 -20.322,9.0815003 -20.322,20.3220003 0,4.6335 1.5429,8.898 4.1442,12.313 5.6431,-6.5315 13.972,-10.679 23.271,-10.679 4.5496,0 8.8639,1.0131 12.751,2.7893 0.3147,-1.4234 0.4782,-2.9037 0.4782,-4.4231 0.01,-11.24 -9.08,-20.3220003 -20.32,-20.3220003 z m -26.539,9.4040003 c -5.8539,0 -10.56,4.7456 -10.56,10.599 0,1.8953 0.489,3.6862 1.3548,5.22 3.5325,-1.9927 7.6164,-3.148 11.954,-3.148 0.4186,0 0.8219,0.017 1.2353,0.0398 -0.047,-0.59343 -0.08,-1.1878 -0.08,-1.7931 0,-3.2605 0.7082,-6.3627 1.9525,-9.165 -1.6754,-1.1235 -3.6828,-1.7533 -5.8576,-1.7533 z m 50.128,7.2921 c -0.4325,0 -0.8493,0.0531 -1.2751,0.0797 0.1842,1.1613 0.3188,2.3339 0.3188,3.5464 0,1.8871 -0.24,3.708 -0.6774,5.4591 5.1284,2.8381 9.3873,7.0847 12.193,12.233 2.9105,-1.5152 6.1573,-2.4787 9.6033,-2.7096 -0.8881,-10.415 -9.5166,-18.609 -20.163,-18.609 z m -16.497,7.5711 c -15.729,0 -28.451,12.721 -28.451,28.451 0,15.729 12.721,28.451 28.451,28.451 15.73,0 28.451,-12.723 28.451,-28.451 0,-15.73 -12.722,-28.451 -28.451,-28.451 z m -30.882,0.11954 c -12.203,0 -22.076,9.8727 -22.076,22.076 0,7.1836 3.4227,13.543 8.7266,17.573 2.236,-4.3127 6.727,-7.2523 11.914,-7.2523 0.627,0 1.2287,0.076 1.833,0.15939 -0.1897,-1.3801 -0.2789,-2.792 -0.2789,-4.2239 0,-6.846 2.2284,-13.177 6.017,-18.29 -2.2678,-2.8377 -3.8907,-6.2474 -4.5825,-9.9619 -0.5127,-0.0355 -1.0323,-0.0797 -1.5541,-0.0797 z m 69.18,13.149 c -3.7054,0 -7.1763,0.94599 -10.241,2.5503 1.7401,3.8545 2.7096,8.1312 2.7096,12.632 0,8.4268 -3.3881,16.079 -8.886,21.637 4.039,4.4841 9.8991,7.2921 16.417,7.2921 12.203,0 22.076,-9.8727 22.076,-22.076 0,-12.2033 -9.8727,-22.036 -22.076,-22.036 z m -93.403,2.9089 c -11.241001,0 -20.362001,9.0413 -20.362001,20.282 0,11.2407 9.121,20.362 20.362001,20.362 4.2785,0 8.2419,-1.333 11.516,-3.5863 -1.3529,-2.1023 -2.1518,-4.6156 -2.1518,-7.2921 0,-1.3892 0.205,-2.7238 0.5977,-3.9848 -6.1294,-4.4296 -10.121,-11.638 -10.121,-19.764 0,-2.0648 0.2721,-4.0613 0.7571,-5.9772 -0.2013,-0.006 -0.3949,-0.0399 -0.5977,-0.0399 z m 119.5,17.453 c -0.5997,0 -1.1799,0.0683 -1.7533,0.15939 0.032,0.50688 0.04,0.99939 0.04,1.5142 0,6.4816 -2.5574,12.364 -6.6944,16.736 2.0353,2.3668 5.0248,3.8652 8.4079,3.8652 6.1623,0 11.157,-4.9552 11.157,-11.117 0,-6.1623 -4.9951,-11.157 -11.157,-11.157 z m -96.71,1.1954 c -6.162,0 -11.118,4.9555 -11.118,11.117 0,6.162 4.9555,11.157 11.118,11.157 4.7232,0 8.7323,-2.9472 10.36,-7.0929 -3.9726,-4.046 -6.8276,-9.2077 -8.0891,-14.943 -0.7382,-0.15266 -1.4875,-0.23909 -2.2713,-0.23909 z m 122.21,9.3642 v 22.036 h -11.675 c -7.6322,0 -13.827,6.2347 -13.827,13.866993 0,7.6311 6.195,13.827 13.827,13.827 h 4.5426 c 2.239,0 4.4748,-1.0874 6.2561,-2.7495 1.7813,-1.6621 3.1409,-3.9644 3.1878,-6.535 0.08,-4.4122 0,-17.253993 0,-17.253993 v -23.191 h -2.3112 z m -106.75,9.9619 v 30.482993 c 0,5.1232 4.2011,9.2845 9.3244,9.2845 v -2.3112 c -3.8766,0 -7.0132,-3.0967 -7.0132,-6.9733 V 82.564817 c -0.8046,-0.4325 -1.5514,-0.93449 -2.3112,-1.4345 z m -23.112,2.8292 c -4.0935,3.9059 -6.6546,9.4053 -6.6546,15.501 0,11.826993 9.6118,21.437993 21.438,21.437993 v -2.3112 c -10.579,0 -19.127,-8.5469 -19.127,-19.126993 0,-5.6905 2.4839,-10.805 6.4155,-14.305 -0.7348,-0.33851 -1.4155,-0.73502 -2.0721,-1.1954 z m -27.216001,9.165 c -7.6322,0 -13.827,6.1949 -13.827,13.826993 v 12.791 h 2.3112 v -12.791 c 0,-6.38519 5.1309,-11.555993 11.516,-11.555993 6.3864,0 11.556001,5.170603 11.556001,11.555993 v 12.791 h 2.3112 v -12.791 c 0,-7.632193 -6.2338,-13.826993 -13.867001,-13.826993 z m 77.583001,0.0797 c -7.6326,0 -13.827,6.2344 -13.827,13.866993 0,7.6326 6.1945,13.867 13.827,13.867 7.6326,0 13.867,-6.2344 13.867,-13.867 0,-7.632593 -6.2344,-13.866993 -13.867,-13.866993 z m -154.290001,0.0398 c -7.6319999,0 -13.8669999,6.1952 -13.8669999,13.826993 0,7.632 6.235,13.827 13.8669999,13.827 7.632,0 13.827,-6.1952 13.827,-13.827 0,-7.631993 -6.1952,-13.826993 -13.827,-13.826993 z m 20.761,1.036 v 17.333993 c 0,5.1234 4.1622,9.2845 9.2845,9.2845 3.4912,0 6.5716,-1.9303 8.1688,-4.7817 1.5857,2.8514 4.6384,4.7817 8.1289,4.7817 5.1233,0 9.3243,-4.1611 9.3243,-9.2845 V 94.280517 h -2.3112 v 17.333993 c 0,3.8764 -3.1366,6.9733 -7.0132,6.9733 -3.8766,0 -6.9733,-3.0969 -6.9733,-6.9733 V 94.280517 h -2.3112 v 17.333993 c 0,3.8766 -3.1352,6.9733 -7.0132,6.9733 -3.8753,0 -6.9733,-3.0969 -6.9733,-6.9733 V 94.280517 h -2.3112 z m 153.450001,0 v 12.790993 c 0,7.6311 6.195,13.827 13.827,13.827 7.6322,0 13.867,-6.1959 13.867,-13.827 V 94.280517 h -2.3112 v 12.790993 c 0,6.3837 -5.1707,11.516 -11.556,11.516 -6.3851,0 -11.516,-5.1322 -11.516,-11.516 V 94.280517 h -2.3112 z m -19.924,1.2353 c 6.3856,0 11.556,5.170203 11.556,11.555993 0,6.3856 -5.1702,11.556 -11.556,11.556 -6.3856,0 -11.516,-5.1702 -11.516,-11.556 0,-6.38559 5.1304,-11.555993 11.516,-11.555993 z m 67.821,0 h 11.675 c 0.01,1.5271 0.073,12.045993 0,16.058993 -0.033,1.7858 -1.0121,3.5776 -2.4307,4.9013 -1.4186,1.3236 -3.2544,2.1119 -4.702,2.1119 h -4.5426 c -6.3851,0 -11.516,-5.1322 -11.516,-11.516 0,-6.38519 5.1309,-11.555993 11.516,-11.555993 z m -222.110001,0.0399 c 6.385,0 11.516,5.131003 11.516,11.515993 0,6.385 -5.131,11.516 -11.516,11.516 -6.3849999,0 -11.5559999,-5.131 -11.5559999,-11.516 0,-6.38499 5.1708,-11.515993 11.5559999,-11.515993 z"
     id="path4159"
     inkscape:export-filename="/home/jan/ownCloud Contributor Conference logo.png"
     inkscape:export-xdpi="179.59"
     inkscape:export-ydpi="179.59" /><g
     style="font-size:40px;font-style:normal;font-weight:normal;line-height:100%;letter-spacing:0px;word-spacing:0px;fill:#ffffff;fill-opacity:1;stroke:none;font-family:Sans"
     id="text4161"
     transform="matrix(1.55252,0,0,1.55252,53.216559,-62.774864)"><g
       style="font-size:8.13013935000000032px;font-variant:normal;font-stretch:normal;line-height:125%;fill:#ffffff;font-family:Awesome;-inkscape-font-specification:Awesome"
       id="text3006"><path
         d="m -0.95037756,133.90491 4.41639736,0 5.9546931,15.50701 c 1.3067131,3.53974 2.1172121,6.0953 2.4315001,7.66667 l 0.198489,0 c 0.215018,-0.84358 0.661619,-2.28263 1.339806,-4.31715 0.694699,-2.05105 2.944248,-8.33656 6.748653,-18.85653 l 4.416397,0 -11.686085,30.9644 c -1.15787,3.06005 -2.514215,5.22689 -4.0690406,6.50054 -1.538304,1.29017 -3.4322253,1.93527 -5.6817697,1.93528 -1.2571047,-1e-5 -2.49766453,-0.14061 -3.72168316,-0.42179 l 0,-3.2999 c 0.90974347,0.19849 1.92700256,0.29773 3.05178026,0.29774 2.8284729,-1e-5 4.8464502,-1.58793 6.053938,-4.76375 l 1.5134842,-3.87056 -10.96655956,-27.34196"
         style="font-size:50.81338120000000202px;font-family:Open Sans;-inkscape-font-specification:Open Sans;fill:#ffffff"
         id="path3033" /><path
         d="m 40.459551,161.59423 c -4.01943,0 -7.195263,-1.22402 -9.527509,-3.67206 -2.315718,-2.44803 -3.473574,-5.84717 -3.473571,-10.19741 -3e-6,-4.3833 1.075149,-7.86514 3.225459,-10.44553 2.166838,-2.58034 5.069748,-3.87052 8.708739,-3.87055 3.407389,3e-5 6.103539,1.12481 8.088458,3.37433 1.984873,2.23303 2.97732,5.18556 2.977346,8.85761 l 0,2.60517 -18.732472,0 c 0.0827,3.19239 0.884926,5.61562 2.406689,7.26969 1.538284,1.65409 3.696858,2.48113 6.475728,2.48112 2.927706,1e-5 5.822345,-0.612 8.683928,-1.83603 l 0,3.67206 c -1.455615,0.62856 -2.836772,1.07516 -4.143474,1.33981 -1.290203,0.28119 -2.853308,0.42179 -4.689321,0.42179 m -1.116505,-24.73679 c -2.1834,3e-5 -3.928454,0.71128 -5.235168,2.13377 -1.290191,1.42253 -2.051068,3.39088 -2.282632,5.90507 l 14.21683,0 c -2.2e-5,-2.59689 -0.578949,-4.58179 -1.736786,-5.95469 -1.157875,-1.38941 -2.811955,-2.08412 -4.962244,-2.08415"
         style="font-size:50.81338120000000202px;font-family:Open Sans;-inkscape-font-specification:Open Sans;fill:#ffffff"
         id="path3035" /><path
         d="m 74.178001,161.09801 -0.81877,-3.87055 -0.19849,0 c -1.356366,1.7037 -2.712711,2.86156 -4.06904,3.47357 -1.339821,0.59547 -3.018712,0.8932 -5.036678,0.8932 -2.696161,0 -4.813383,-0.69471 -6.351673,-2.08414 -1.521758,-1.38943 -2.282635,-3.36605 -2.282632,-5.92988 -3e-6,-5.49154 4.391579,-8.36964 13.174758,-8.63431 l 4.614887,-0.14887 0,-1.68716 c -2e-5,-2.13374 -0.463162,-3.70512 -1.389428,-4.71413 -0.909763,-1.02551 -2.373623,-1.53827 -4.391586,-1.5383 -2.266104,3e-5 -4.829928,0.69474 -7.691479,2.08415 l -1.265372,-3.15103 c 1.339799,-0.72777 2.80366,-1.29843 4.391586,-1.71197 1.604448,-0.4135 3.208905,-0.62026 4.813377,-0.62028 3.241982,2e-5 5.640397,0.71955 7.195254,2.15857 1.571354,1.43908 2.357042,3.74652 2.357066,6.92233 l 0,18.5588 -3.05178,0 m -9.304208,-2.90292 c 2.563812,1e-5 4.573519,-0.70298 6.029127,-2.10895 1.472113,-1.40596 2.208178,-3.37432 2.208198,-5.90507 l 0,-2.45631 -4.118662,0.17368 c -3.275094,0.1158 -5.640428,0.62856 -7.09601,1.53829 -1.439058,0.89322 -2.158583,2.29092 -2.158576,4.1931 -7e-6,1.48868 0.446595,2.62172 1.339806,3.39914 0.909736,0.77742 2.175107,1.16613 3.796117,1.16612"
         style="font-size:50.81338120000000202px;font-family:Open Sans;-inkscape-font-specification:Open Sans;fill:#ffffff"
         id="path3037" /><path
         d="m 98.145638,133.40868 c 1.207462,3e-5 2.290882,0.0993 3.250272,0.29774 l -0.57066,3.82093 c -1.124793,-0.24809 -2.117241,-0.37215 -2.977346,-0.37217 -2.199943,2e-5 -4.085594,0.89323 -5.656959,2.67961 -1.554845,1.78643 -2.332263,4.01117 -2.332254,6.67422 l 0,14.589 -4.118663,0 0,-27.1931 3.399137,0 0.471413,5.03668 0.19849,0 c 1.00898,-1.76985 2.224729,-3.13446 3.64725,-4.09385 1.422496,-0.95934 2.985602,-1.43903 4.68932,-1.43906"
         style="font-size:50.81338120000000202px;font-family:Open Sans;-inkscape-font-specification:Open Sans;fill:#ffffff"
         id="path3039" /><path
         d="m 124.02374,153.67945 c -2e-5,2.53075 -0.94285,4.48257 -2.82848,5.85545 -1.88567,1.37289 -4.5322,2.05933 -7.93959,2.05933 -3.6059,0 -6.41784,-0.57066 -8.43581,-1.71197 l 0,-3.82093 c 1.30672,0.66164 2.70441,1.18267 4.19309,1.56311 1.50521,0.38044 2.95253,0.57066 4.34197,0.57065 2.15029,1e-5 3.80437,-0.33908 4.96224,-1.01726 1.15784,-0.69471 1.73677,-1.74505 1.73679,-3.15102 -2e-5,-1.0586 -0.46316,-1.96008 -1.38943,-2.70442 -0.90976,-0.76087 -2.69617,-1.65407 -5.35923,-2.67962 -2.53075,-0.94281 -4.3337,-1.76158 -5.40884,-2.45631 -1.05862,-0.71124 -1.85258,-1.51346 -2.38188,-2.40669 -0.51277,-0.89318 -0.76915,-1.96006 -0.76915,-3.20064 0,-2.21645 0.90147,-3.9615 2.70443,-5.23517 1.80294,-1.29016 4.27579,-1.93525 7.41855,-1.93528 2.92771,3e-5 5.78927,0.5955 8.58468,1.78641 l -1.46386,3.34952 c -2.72925,-1.12475 -5.2021,-1.68714 -7.41855,-1.68717 -1.95183,3e-5 -3.42396,0.30603 -4.4164,0.91802 -0.99246,0.61203 -1.48868,1.45561 -1.48867,2.53074 -1e-5,0.72782 0.18194,1.3481 0.54584,1.86085 0.38043,0.51278 0.98417,1.00073 1.81122,1.46386 0.82703,0.46316 2.41495,1.13306 4.76376,2.00971 3.22544,1.17441 5.40055,2.35708 6.52535,3.548 1.14129,1.19095 1.71195,2.68789 1.71197,4.49083"
         style="font-size:50.81338120000000202px;font-family:Open Sans;-inkscape-font-specification:Open Sans;fill:#ffffff"
         id="path3041" /></g></g><g
     style="font-size:16.79847527000000085px;font-style:normal;font-variant:normal;font-weight:normal;font-stretch:normal;line-height:125%;letter-spacing:0px;word-spacing:0px;fill:#ffffff;fill-opacity:1;stroke:none;font-family:Awesome;-inkscape-font-specification:Awesome"
     id="text3006-5"><path
       d="m 29.408256,155.31782 c 7.894758,4e-5 14.097803,1.96519 18.609157,5.89546 4.545435,3.89617 6.818177,9.2448 6.818231,16.04591 -5.4e-5,7.7581 -2.477855,13.84153 -7.43341,18.2503 -4.921471,4.40878 -11.722607,6.61317 -20.403427,6.61317 -8.441637,0 -14.883919,-1.34997 -19.3268652,-4.04992 l 0,-8.20239 c 2.3923522,1.53796 5.3657132,2.75123 8.9200912,3.63981 3.554347,0.85442 7.057444,1.28163 10.509303,1.28162 6.015049,1e-5 10.680149,-1.41832 13.995316,-4.25498 3.349263,-2.83665 5.023914,-6.93783 5.02396,-12.30358 -4.6e-5,-10.458 -6.408151,-15.68701 -19.224335,-15.68705 -3.2468,4e-5 -7.587223,0.4956 -13.021283,1.48668 l -4.408781,-2.81957 2.819569,-35.06519 37.269578,0 0,7.84353 -29.989963,0 -1.896801,22.50529 c 3.930288,-0.78602 7.843504,-1.17905 11.73966,-1.17909"
       style="font-size:104.99050139999999942px;font-family:Open Sans;-inkscape-font-specification:Open Sans;fill:#ffffff"
       id="path3030" /></g></svg>