<svg xmlns="http://www.w3.org/2000/svg" height="209" width="255" viewBox="0 0 255.00001 208.99649"><defs><linearGradient id="a"><stop offset="0" stop-color="#35537a"/><stop offset="1" stop-color="#1d2d44"/></linearGradient></defs><path opacity=".4" fill-rule="evenodd" stroke="#1d2d44" stroke-width="20" stroke-linecap="square" d="M393.098-60.033h541.499v316.966H393.098z"/><flowRoot style="line-height:125%" xml:space="preserve" transform="translate(-538.733 623.425)" font-size="40" font-style="normal" font-weight="400" letter-spacing="0" word-spacing="0" fill="#000" fill-opacity="1" stroke="none" font-family="Sans"><flowRegion><path d="M8.715 148.731h286.492V295.79H8.715z"/></flowRegion><flowPara/></flowRoot><path style="text-indent:0;text-transform:none;block-progression:tb" d="M153.165 2.712c-11.24 0-20.322 9.081-20.322 20.322 0 4.633 1.543 8.898 4.145 12.313 5.643-6.532 13.972-10.68 23.27-10.68 4.55 0 8.865 1.014 12.752 2.79.314-1.423.478-2.904.478-4.423.01-11.24-9.08-20.322-20.32-20.322zm-26.539 9.404c-5.853 0-10.56 4.745-10.56 10.599 0 1.895.49 3.686 1.355 5.22a24.284 24.284 0 0 1 11.954-3.148c.419 0 .822.017 1.236.04a22.625 22.625 0 0 1-.08-1.794c0-3.26.708-6.362 1.952-9.165-1.675-1.123-3.683-1.753-5.858-1.753zm50.128 7.292c-.432 0-.849.053-1.275.08.185 1.16.32 2.333.32 3.546 0 1.887-.24 3.708-.678 5.459 5.128 2.838 9.387 7.085 12.193 12.233a24.28 24.28 0 0 1 9.603-2.71c-.888-10.415-9.517-18.609-20.163-18.609zm-16.497 7.57c-15.729 0-28.45 12.722-28.45 28.452 0 15.729 12.72 28.45 28.45 28.45 15.73 0 28.451-12.722 28.451-28.45 0-15.73-12.722-28.451-28.45-28.451zm-30.882.12c-12.203 0-22.076 9.873-22.076 22.076 0 7.184 3.423 13.543 8.727 17.573 2.236-4.312 6.727-7.252 11.914-7.252.627 0 1.229.076 1.833.16a31.031 31.031 0 0 1-.279-4.224 30.613 30.613 0 0 1 6.017-18.29 22.624 22.624 0 0 1-4.582-9.962c-.513-.036-1.033-.08-1.554-.08zm69.18 13.15c-3.705 0-7.176.945-10.24 2.55a30.625 30.625 0 0 1 2.71 12.632 30.68 30.68 0 0 1-8.887 21.637 22.024 22.024 0 0 0 16.417 7.292c12.203 0 22.076-9.873 22.076-22.076 0-12.203-9.873-22.036-22.076-22.036zm-93.403 2.908c-11.24 0-20.362 9.042-20.362 20.282 0 11.241 9.121 20.362 20.362 20.362 4.279 0 8.242-1.333 11.516-3.586a13.467 13.467 0 0 1-2.151-7.292c0-1.39.205-2.724.597-3.985-6.129-4.43-10.12-11.638-10.12-19.764 0-2.065.271-4.061.756-5.977-.2-.006-.394-.04-.597-.04zm119.5 17.453c-.6 0-1.18.069-1.753.16.032.507.04 1 .04 1.514 0 6.482-2.557 12.364-6.694 16.736 2.035 2.367 5.025 3.865 8.408 3.865 6.162 0 11.157-4.955 11.157-11.117 0-6.162-4.995-11.157-11.157-11.157zm-96.71 1.196a11.09 11.09 0 0 0-11.118 11.117c0 6.162 4.956 11.157 11.118 11.157 4.724 0 8.733-2.947 10.36-7.093a30.781 30.781 0 0 1-8.089-14.943 11.131 11.131 0 0 0-2.27-.24zm122.21 9.364v22.036h-11.675c-7.632 0-13.827 6.235-13.827 13.867 0 7.631 6.195 13.827 13.827 13.827h4.543c2.24 0 4.475-1.087 6.256-2.75 1.781-1.662 3.141-3.964 3.188-6.535.08-4.412 0-17.254 0-17.254V71.17h-2.311zm-106.75 9.962v30.483c0 5.123 4.202 9.284 9.325 9.284v-2.31c-3.877 0-7.013-3.098-7.013-6.974v-29.05c-.805-.432-1.552-.934-2.312-1.434zM120.29 83.96c-4.093 3.906-6.654 9.405-6.654 15.501 0 11.827 9.612 21.438 21.438 21.438v-2.311c-10.58 0-19.127-8.547-19.127-19.127 0-5.69 2.484-10.805 6.415-14.305a13.215 13.215 0 0 1-2.072-1.196zm-27.216 9.165c-7.632 0-13.827 6.195-13.827 13.827v12.791h2.312v-12.791c0-6.385 5.13-11.556 11.516-11.556s11.556 5.17 11.556 11.556v12.791h2.31v-12.791c0-7.632-6.233-13.827-13.866-13.827zm77.583.08c-7.632 0-13.827 6.234-13.827 13.867 0 7.632 6.195 13.867 13.827 13.867 7.633 0 13.867-6.235 13.867-13.867 0-7.633-6.234-13.867-13.867-13.867zm-154.29.04C8.735 93.245 2.5 99.44 2.5 107.072s6.235 13.827 13.867 13.827c7.632 0 13.827-6.196 13.827-13.827 0-7.632-6.195-13.827-13.827-13.827zm20.761 1.036v17.334c0 5.123 4.163 9.284 9.285 9.284a9.377 9.377 0 0 0 8.169-4.782 9.3 9.3 0 0 0 8.129 4.782c5.123 0 9.324-4.161 9.324-9.284V94.28h-2.311v17.334c0 3.876-3.137 6.973-7.013 6.973a6.941 6.941 0 0 1-6.974-6.973V94.28h-2.31v17.334c0 3.876-3.136 6.973-7.014 6.973a6.942 6.942 0 0 1-6.973-6.973V94.28h-2.312zm153.45 0v12.79c0 7.632 6.195 13.828 13.827 13.828 7.633 0 13.867-6.196 13.867-13.827V94.28h-2.31v12.79c0 6.384-5.171 11.517-11.557 11.517a11.485 11.485 0 0 1-11.516-11.516V94.28h-2.31zm-19.924 1.235c6.386 0 11.556 5.17 11.556 11.556 0 6.385-5.17 11.556-11.556 11.556-6.385 0-11.516-5.17-11.516-11.556 0-6.386 5.13-11.556 11.516-11.556zm67.821 0h11.675c.01 1.527.073 12.046 0 16.059-.033 1.786-1.012 3.577-2.43 4.901-1.419 1.324-3.255 2.112-4.702 2.112h-4.543a11.485 11.485 0 0 1-11.516-11.516c0-6.385 5.131-11.556 11.516-11.556zm-222.11.04a11.484 11.484 0 0 1 11.516 11.516 11.484 11.484 0 0 1-11.516 11.516c-6.385 0-11.556-5.131-11.556-11.516S9.98 95.556 16.365 95.556z" color="#000" fill="#fff"/><g style="line-height:125%;-inkscape-font-specification:Awesome" font-size="50.813" font-family="Open Sans" font-weight="400" letter-spacing="0" word-spacing="0" fill="#fff"><path d="M51.741 145.115h6.857l9.244 24.075c2.03 5.496 3.287 9.463 3.775 11.903h.309c.333-1.31 1.027-3.544 2.08-6.703 1.078-3.184 4.57-12.942 10.477-29.275h6.857l-18.143 48.073c-1.798 4.75-3.904 8.115-6.318 10.092-2.388 2.003-5.328 3.005-8.82 3.005-1.952 0-3.878-.218-5.779-.655v-5.123c1.413.308 2.992.462 4.738.462 4.392 0 7.525-2.465 9.4-7.396l2.349-6.009-17.026-42.449M116.03 188.103c-6.24 0-11.17-1.9-14.79-5.7-3.596-3.801-5.394-9.078-5.394-15.832 0-6.805 1.67-12.211 5.008-16.217 3.364-4.006 7.87-6.01 13.52-6.01 5.29 0 9.476 1.747 12.558 5.24 3.082 3.466 4.622 8.05 4.622 13.751v4.045h-29.082c.128 4.956 1.374 8.718 3.736 11.286 2.388 2.568 5.74 3.852 10.054 3.852 4.545 0 9.04-.95 13.482-2.85v5.7c-2.26.976-4.404 1.67-6.433 2.08-2.003.437-4.43.655-7.28.655m-1.734-38.404c-3.39 0-6.099 1.104-8.127 3.313-2.003 2.208-3.185 5.264-3.544 9.168h22.072c0-4.032-.899-7.114-2.697-9.245-1.797-2.157-4.365-3.236-7.704-3.236M168.38 187.333l-1.272-6.01h-.308c-2.106 2.646-4.211 4.444-6.317 5.394-2.08.924-4.687 1.386-7.82 1.386-4.186 0-7.473-1.078-9.86-3.235-2.363-2.157-3.545-5.226-3.545-9.207 0-8.525 6.818-12.994 20.454-13.404l7.165-.232v-2.619c0-3.313-.719-5.752-2.157-7.319-1.412-1.592-3.685-2.388-6.818-2.388-3.518 0-7.499 1.079-11.941 3.236l-1.965-4.892c2.08-1.13 4.353-2.016 6.818-2.658a29.84 29.84 0 0 1 7.473-.963c5.033 0 8.757 1.117 11.17 3.351 2.44 2.234 3.66 5.817 3.66 10.747v28.813h-4.738m-14.445-4.507c3.98 0 7.1-1.091 9.36-3.274 2.286-2.183 3.429-5.239 3.429-9.168v-3.813l-6.394.27c-5.085.18-8.757.975-11.017 2.388-2.234 1.386-3.351 3.556-3.351 6.51 0 2.31.693 4.07 2.08 5.277 1.412 1.207 3.377 1.81 5.893 1.81M205.59 144.345c1.874 0 3.556.154 5.046.462l-.886 5.932c-1.746-.385-3.287-.578-4.623-.578-3.415 0-6.343 1.387-8.782 4.16-2.414 2.774-3.621 6.228-3.621 10.362v22.65h-6.394v-42.218h5.277l.732 7.82h.308c1.566-2.748 3.454-4.867 5.662-6.356 2.209-1.49 4.636-2.234 7.28-2.234M245.766 175.816c0 3.929-1.464 6.959-4.391 9.09-2.928 2.132-7.037 3.197-12.327 3.197-5.598 0-9.964-.886-13.097-2.657v-5.933a31.778 31.778 0 0 0 6.51 2.427c2.337.59 4.584.886 6.741.886 3.339 0 5.907-.526 7.704-1.58 1.798-1.078 2.697-2.708 2.697-4.891 0-1.644-.72-3.043-2.157-4.199-1.413-1.181-4.186-2.568-8.32-4.16-3.93-1.464-6.729-2.735-8.398-3.813-1.644-1.105-2.876-2.35-3.698-3.737-.796-1.387-1.194-3.043-1.194-4.969 0-3.441 1.4-6.15 4.199-8.128 2.799-2.003 6.638-3.004 11.517-3.004 4.545 0 8.988.924 13.328 2.773l-2.273 5.2c-4.237-1.746-8.076-2.619-11.517-2.619-3.03 0-5.316.475-6.857 1.425-1.54.95-2.31 2.26-2.31 3.93 0 1.13.282 2.092.847 2.888.59.796 1.527 1.554 2.811 2.273 1.284.72 3.75 1.76 7.396 3.12 5.008 1.823 8.385 3.66 10.131 5.508 1.772 1.85 2.658 4.173 2.658 6.973" style="-inkscape-font-specification:Open Sans"/></g><path d="M29.408 155.318c7.895 0 14.098 1.965 18.61 5.895 4.545 3.896 6.818 9.245 6.818 16.046 0 7.758-2.478 13.842-7.434 18.25-4.921 4.41-11.722 6.614-20.403 6.614-8.442 0-14.884-1.35-19.327-4.05v-8.203c2.392 1.538 5.366 2.752 8.92 3.64 3.554.855 7.057 1.282 10.51 1.282 6.014 0 10.68-1.419 13.995-4.255 3.349-2.837 5.024-6.938 5.024-12.304 0-10.458-6.409-15.687-19.225-15.687-3.247 0-7.587.496-13.021 1.487l-4.409-2.82 2.82-35.065h37.27v7.844h-29.99l-1.897 22.505a59.739 59.739 0 0 1 11.74-1.18" style="-inkscape-font-specification:Open Sans" font-size="104.991" font-family="Open Sans" font-weight="400" letter-spacing="0" word-spacing="0" fill="#fff"/></svg>