<?xml version="1.0" encoding="UTF-8" standalone="no"?>
<svg
   xmlns:dc="http://purl.org/dc/elements/1.1/"
   xmlns:cc="http://creativecommons.org/ns#"
   xmlns:rdf="http://www.w3.org/1999/02/22-rdf-syntax-ns#"
   xmlns:svg="http://www.w3.org/2000/svg"
   xmlns="http://www.w3.org/2000/svg"
   xmlns:sodipodi="http://sodipodi.sourceforge.net/DTD/sodipodi-0.dtd"
   xmlns:inkscape="http://www.inkscape.org/namespaces/inkscape"
   viewBox="0 0 325.33334 140"
   height="140"
   width="325.33334"
   xml:space="preserve"
   id="svg2"
   version="1.1"
   sodipodi:docname="DEGES_Logo.svg"
   inkscape:version="0.92.4 (5da689c313, 2019-01-14)"><sodipodi:namedview
     pagecolor="#ffffff"
     bordercolor="#666666"
     borderopacity="1"
     objecttolerance="10"
     gridtolerance="10"
     guidetolerance="10"
     inkscape:pageopacity="0"
     inkscape:pageshadow="2"
     inkscape:window-width="1920"
     inkscape:window-height="1007"
     id="namedview14"
     showgrid="false"
     inkscape:zoom="1.8135245"
     inkscape:cx="67.573287"
     inkscape:cy="113.34206"
     inkscape:window-x="0"
     inkscape:window-y="0"
     inkscape:window-maximized="1"
     inkscape:current-layer="svg2" /><metadata
     id="metadata8"><rdf:RDF><cc:Work
         rdf:about=""><dc:format>image/svg+xml</dc:format><dc:type
           rdf:resource="http://purl.org/dc/dcmitype/StillImage" /><dc:title /></cc:Work></rdf:RDF></metadata><defs
     id="defs6" /><path
     id="path18"
     style="fill:#00adef;fill-opacity:1;fill-rule:nonzero;stroke:none;stroke-width:0.13333333"
     d="m 70.175998,85.682268 h -9.564 V 54.945335 h 7.650534 c 10.656266,0 14.072399,6.283867 14.072399,16.120267 0,10.792266 -5.9428,14.616666 -12.158933,14.616666 z M 70.926532,45.929736 H 49.887999 v 48.771332 h 21.038533 c 14.890666,0 22.132266,-10.5208 22.132266,-24.659866 0,-16.1896 -9.494267,-24.111466 -22.132266,-24.111466"
     inkscape:connector-curvature="0" /><path
     id="path20"
     style="fill:#00adef;fill-opacity:1;fill-rule:nonzero;stroke:none;stroke-width:0.13333333"
     d="M 110.6948,85.682268 V 73.729202 h 23.63453 v -8.3328 H 110.6948 V 54.945335 H 136.448 V 45.929736 H 99.970798 v 48.771332 h 37.023862 v -9.0188 H 110.6948"
     inkscape:connector-curvature="0" /><path
     id="path22"
     style="fill:#00adef;fill-opacity:1;fill-rule:nonzero;stroke:none;stroke-width:0.13333333"
     d="M 165.94133,76.326535 H 176.736 c -0.616,6.760933 -4.648,10.518266 -11.612,10.518266 -9.632,0 -13.25334,-8.195866 -13.25334,-16.325066 0,-8.539066 3.62134,-16.7348 13.25334,-16.7348 5.05466,0 9.08133,2.7984 10.312,8.195734 h 10.248 c -1.16267,-11.066667 -10.59067,-17.212933 -20.56,-17.212933 -15.096,0 -23.97734,11.270266 -23.97734,25.751999 0,14.071466 8.88134,25.341199 23.97734,25.341199 4.712,0 9.628,-1.843733 13.388,-6.693199 l 1.09066,5.533333 H 186.436 V 68.334402 h -20.49467 v 7.992133"
     inkscape:connector-curvature="0" /><path
     id="path24"
     style="fill:#00adef;fill-opacity:1;fill-rule:nonzero;stroke:none;stroke-width:0.13333333"
     d="M 205.53066,85.682268 V 73.729202 h 23.63867 v -8.3328 H 205.53066 V 54.945335 h 25.75333 v -9.015599 h -36.47466 v 48.771332 h 37.024 v -9.0188 h -26.30267"
     inkscape:connector-curvature="0" /><path
     id="path26"
     style="fill:#00adef;fill-opacity:1;fill-rule:nonzero;stroke:none;stroke-width:0.13333333"
     d="m 247.63066,58.633335 c 0,-4.097333 3.96267,-5.531733 7.376,-5.531733 5.124,0 9.28933,1.502533 9.632,7.375467 h 10.38133 c 0,-11.2688 -9.35866,-15.7088 -19.53466,-15.7088 -8.812,0 -18.23734,4.780667 -18.23734,14.753066 0,9.1532 7.30934,11.9536 14.548,13.866667 7.17334,1.912 14.48267,2.8 14.48267,8.060399 0,4.9876 -5.73867,6.079734 -9.49467,6.079734 -5.73866,0 -10.792,-2.528134 -10.792,-9.0172 h -10.38533 c -0.13333,12.024 9.97467,17.350533 20.76667,17.350533 13.25066,0 20.28666,-6.6948 20.28666,-15.642667 0,-11.065199 -10.92933,-13.320399 -14.48133,-14.207866 -12.22667,-3.142133 -14.548,-3.620266 -14.548,-7.3776"
     inkscape:connector-curvature="0" /></svg>