<svg xmlns="http://www.w3.org/2000/svg" xmlns:svg="http://www.w3.org/2000/svg" id="svg2" width="325.333" height="140" version="1.1" viewBox="0 0 325.333 140" xml:space="preserve"><metadata id="metadata8"/><path id="path18" fill="#00adef" fill-opacity="1" fill-rule="nonzero" stroke="none" stroke-width=".133" d="m 70.175998,85.682268 h -9.564 V 54.945335 h 7.650534 c 10.656266,0 14.072399,6.283867 14.072399,16.120267 0,10.792266 -5.9428,14.616666 -12.158933,14.616666 z M 70.926532,45.929736 H 49.887999 v 48.771332 h 21.038533 c 14.890666,0 22.132266,-10.5208 22.132266,-24.659866 0,-16.1896 -9.494267,-24.111466 -22.132266,-24.111466"/><path id="path20" fill="#00adef" fill-opacity="1" fill-rule="nonzero" stroke="none" stroke-width=".133" d="M 110.6948,85.682268 V 73.729202 h 23.63453 v -8.3328 H 110.6948 V 54.945335 H 136.448 V 45.929736 H 99.970798 v 48.771332 h 37.023862 v -9.0188 H 110.6948"/><path id="path22" fill="#00adef" fill-opacity="1" fill-rule="nonzero" stroke="none" stroke-width=".133" d="M 165.94133,76.326535 H 176.736 c -0.616,6.760933 -4.648,10.518266 -11.612,10.518266 -9.632,0 -13.25334,-8.195866 -13.25334,-16.325066 0,-8.539066 3.62134,-16.7348 13.25334,-16.7348 5.05466,0 9.08133,2.7984 10.312,8.195734 h 10.248 c -1.16267,-11.066667 -10.59067,-17.212933 -20.56,-17.212933 -15.096,0 -23.97734,11.270266 -23.97734,25.751999 0,14.071466 8.88134,25.341199 23.97734,25.341199 4.712,0 9.628,-1.843733 13.388,-6.693199 l 1.09066,5.533333 H 186.436 V 68.334402 h -20.49467 v 7.992133"/><path id="path24" fill="#00adef" fill-opacity="1" fill-rule="nonzero" stroke="none" stroke-width=".133" d="M 205.53066,85.682268 V 73.729202 h 23.63867 v -8.3328 H 205.53066 V 54.945335 h 25.75333 v -9.015599 h -36.47466 v 48.771332 h 37.024 v -9.0188 h -26.30267"/><path id="path26" fill="#00adef" fill-opacity="1" fill-rule="nonzero" stroke="none" stroke-width=".133" d="m 247.63066,58.633335 c 0,-4.097333 3.96267,-5.531733 7.376,-5.531733 5.124,0 9.28933,1.502533 9.632,7.375467 h 10.38133 c 0,-11.2688 -9.35866,-15.7088 -19.53466,-15.7088 -8.812,0 -18.23734,4.780667 -18.23734,14.753066 0,9.1532 7.30934,11.9536 14.548,13.866667 7.17334,1.912 14.48267,2.8 14.48267,8.060399 0,4.9876 -5.73867,6.079734 -9.49467,6.079734 -5.73866,0 -10.792,-2.528134 -10.792,-9.0172 h -10.38533 c -0.13333,12.024 9.97467,17.350533 20.76667,17.350533 13.25066,0 20.28666,-6.6948 20.28666,-15.642667 0,-11.065199 -10.92933,-13.320399 -14.48133,-14.207866 -12.22667,-3.142133 -14.548,-3.620266 -14.548,-7.3776"/></svg>