<?xml version="1.0" encoding="UTF-8" standalone="no"?>
<svg
   xmlns:dc="http://purl.org/dc/elements/1.1/"
   xmlns:cc="http://creativecommons.org/ns#"
   xmlns:rdf="http://www.w3.org/1999/02/22-rdf-syntax-ns#"
   xmlns:svg="http://www.w3.org/2000/svg"
   xmlns="http://www.w3.org/2000/svg"
   viewBox="0 0 325.33334 140"
   height="140"
   width="325.33334"
   xml:space="preserve"
   id="svg2"
   version="1.1"><metadata
     id="metadata8"><rdf:RDF><cc:Work
         rdf:about=""><dc:format>image/svg+xml</dc:format><dc:type
           rdf:resource="http://purl.org/dc/dcmitype/StillImage" /><dc:title></dc:title></cc:Work></rdf:RDF></metadata><defs
     id="defs6" /><g
     transform="matrix(1.3333333,0,0,-1.3333333,0,140)"
     id="g10"><g
       transform="scale(0.1)"
       id="g12"><path
         id="path14"
         style="fill:#ffffff;fill-opacity:1;fill-rule:evenodd;stroke:none"
         d="M 12.543,1041.99 H 2436.11 V 6.16016 H 12.543 V 1041.99" /><path
         id="path16"
         style="fill:none;stroke:#ffffff;stroke-width:5.66930008;stroke-linecap:butt;stroke-linejoin:miter;stroke-miterlimit:22.92560005;stroke-dasharray:none;stroke-opacity:1"
         d="M 12.543,1041.99 H 2436.11 V 6.16016 H 12.543 Z" /><path
         id="path18"
         style="fill:#00adef;fill-opacity:1;fill-rule:nonzero;stroke:none"
         d="M 526.32,407.383 H 454.59 V 637.91 h 57.379 c 79.922,0 105.543,-47.129 105.543,-120.902 0,-80.942 -44.571,-109.625 -91.192,-109.625 z m 5.629,298.144 H 374.16 V 339.742 h 157.789 c 111.68,0 165.992,78.906 165.992,184.949 0,121.422 -71.207,180.836 -165.992,180.836" /><path
         id="path20"
         style="fill:#00adef;fill-opacity:1;fill-rule:nonzero;stroke:none"
         d="m 830.211,407.383 v 89.648 h 177.259 v 62.496 H 830.211 v 78.383 h 193.149 v 67.617 H 749.781 V 339.742 h 277.679 v 67.641 H 830.211" /><path
         id="path22"
         style="fill:#00adef;fill-opacity:1;fill-rule:nonzero;stroke:none"
         d="m 1244.56,477.551 h 80.96 c -4.62,-50.707 -34.86,-78.887 -87.09,-78.887 -72.24,0 -99.4,61.469 -99.4,122.438 0,64.043 27.16,125.511 99.4,125.511 37.91,0 68.11,-20.988 77.34,-61.468 h 76.86 c -8.72,83 -79.43,129.097 -154.2,129.097 -113.22,0 -179.83,-84.527 -179.83,-193.14 0,-105.536 66.61,-190.059 179.83,-190.059 35.34,0 72.21,13.828 100.41,50.199 l 8.18,-41.5 h 51.25 v 197.75 h -153.71 v -59.941" /><path
         id="path24"
         style="fill:#00adef;fill-opacity:1;fill-rule:nonzero;stroke:none"
         d="m 1541.48,407.383 v 89.648 h 177.29 v 62.496 h -177.29 v 78.383 h 193.15 v 67.617 H 1461.07 V 339.742 h 277.68 v 67.641 h -197.27" /><path
         id="path26"
         style="fill:#00adef;fill-opacity:1;fill-rule:nonzero;stroke:none"
         d="m 1857.23,610.25 c 0,30.73 29.72,41.488 55.32,41.488 38.43,0 69.67,-11.269 72.24,-55.316 h 77.86 c 0,84.516 -70.19,117.816 -146.51,117.816 -66.09,0 -136.78,-35.855 -136.78,-110.648 0,-68.649 54.82,-89.652 109.11,-104 53.8,-14.34 108.62,-21 108.62,-60.453 0,-37.407 -43.04,-45.598 -71.21,-45.598 -43.04,0 -80.94,18.961 -80.94,67.629 h -77.89 c -1,-90.18 74.81,-130.129 155.75,-130.129 99.38,0 152.15,50.211 152.15,117.32 0,82.989 -81.97,99.903 -108.61,106.559 -91.7,23.566 -109.11,27.152 -109.11,55.332" /></g></g></svg>