<?xml version="1.0" encoding="UTF-8" standalone="no"?>
<svg
   xmlns:svg="http://www.w3.org/2000/svg"
   xmlns="http://www.w3.org/2000/svg"
   xmlns:xlink="http://www.w3.org/1999/xlink"
   version="1.1"
   width="903.38885"
   height="192.54092"
   id="svg5712">
  <defs
     id="defs5714">
    <linearGradient
       x1="0"
       y1="0"
       x2="1"
       y2="0"
       id="linearGradient5551-5"
       xlink:href="#linearGradient1090-5"
       gradientUnits="userSpaceOnUse"
       gradientTransform="matrix(158.07666,91.265695,-91.265695,158.07666,-76.514128,504.09835)"
       spreadMethod="pad" />
    <linearGradient
       x1="0"
       y1="0"
       x2="1"
       y2="0"
       id="linearGradient1090-5"
       gradientUnits="userSpaceOnUse"
       gradientTransform="matrix(30.711258,-17.731171,-17.731171,-30.711258,388.06805,43.670624)"
       spreadMethod="pad">
      <stop
         id="stop1092-1"
         style="stop-color:#4dbf5d;stop-opacity:1"
         offset="0" />
      <stop
         id="stop1094-7"
         style="stop-color:#37a961;stop-opacity:1"
         offset="0.75" />
      <stop
         id="stop1096-1"
         style="stop-color:#108565;stop-opacity:1"
         offset="1" />
    </linearGradient>
    <linearGradient
       x1="0"
       y1="0"
       x2="1"
       y2="0"
       id="linearGradient5556-8"
       xlink:href="#linearGradient1118-8"
       gradientUnits="userSpaceOnUse"
       gradientTransform="matrix(17.192457,47.236004,-35.480861,14.21776,-24.10493,504.29553)"
       spreadMethod="pad" />
    <linearGradient
       x1="0"
       y1="0"
       x2="1"
       y2="0"
       id="linearGradient1118-8"
       gradientUnits="userSpaceOnUse"
       gradientTransform="matrix(3.3401642,-9.1770477,-6.8932495,-2.7622375,398.25015,43.632309)"
       spreadMethod="pad">
      <stop
         id="stop1120-2"
         style="stop-color:#b8e5b1;stop-opacity:1"
         offset="0" />
      <stop
         id="stop1122-4"
         style="stop-color:#5ec569;stop-opacity:1"
         offset="1" />
    </linearGradient>
    <linearGradient
       x1="0"
       y1="0"
       x2="1"
       y2="0"
       id="linearGradient5561-4"
       xlink:href="#linearGradient1144-0"
       gradientUnits="userSpaceOnUse"
       gradientTransform="matrix(0,59.568335,-59.568335,0,-6.9669,445.49575)"
       spreadMethod="pad" />
    <linearGradient
       x1="0"
       y1="0"
       x2="1"
       y2="0"
       id="linearGradient1144-0"
       gradientUnits="userSpaceOnUse"
       gradientTransform="matrix(0,-11.572983,-11.572983,0,401.57974,55.055984)"
       spreadMethod="pad">
      <stop
         id="stop1146-9"
         style="stop-color:#ffffff;stop-opacity:1"
         offset="0" />
      <stop
         id="stop1148-4"
         style="stop-color:#3c9776;stop-opacity:1"
         offset="1" />
    </linearGradient>
    <radialGradient
       cx="0"
       cy="0"
       r="1"
       fx="0"
       fy="0"
       id="radialGradient5604"
       xlink:href="#radialGradient1060-5"
       gradientUnits="userSpaceOnUse"
       gradientTransform="matrix(75.836222,0,0,-75.836222,73.844849,139.81327)"
       spreadMethod="pad" />
    <radialGradient
       cx="0"
       cy="0"
       r="1"
       fx="0"
       fy="0"
       id="radialGradient1060-5"
       gradientUnits="userSpaceOnUse"
       gradientTransform="matrix(18.416901,0,0,-18.416901,401.58212,38.454727)"
       spreadMethod="pad">
      <stop
         id="stop1062-2"
         style="stop-color:#3c9776;stop-opacity:1"
         offset="0" />
      <stop
         id="stop1064-7"
         style="stop-color:#108565;stop-opacity:1"
         offset="0.89999402" />
      <stop
         id="stop1066-6"
         style="stop-color:#108565;stop-opacity:1"
         offset="0.89999402" />
      <stop
         id="stop1068-1"
         style="stop-color:#108565;stop-opacity:1"
         offset="1" />
    </radialGradient>
    <radialGradient
       cx="0"
       cy="0"
       r="1"
       fx="0"
       fy="0"
       id="radialGradient5710"
       xlink:href="#radialGradient1060-5"
       gradientUnits="userSpaceOnUse"
       gradientTransform="matrix(94.795278,0,0,94.795278,-6.954649,530.94552)"
       spreadMethod="pad" />
  </defs>
  <g
     transform="translate(101.69444,-436.09172)"
     id="layer1">
    <path
       d="m -101.69444,526.19842 c 6.027364,-9.04361 18.143848,-18.37546 36.4524,-24.2484 l 0,0 c 13.331221,-4.28246 33.219961,-7.3399 53.427826,-7.3399 l 0,0 c 41.496639,0 81.232939,11.6378 99.592969,31.70669 l 0,0 c -2.41403,-50.23656 -43.90553,-90.22509 -94.739169,-90.22509 l 0,0 c -50.787317,0 -92.258223,39.92675 -94.734026,90.1067 m 94.734026,99.59812 c 35.366339,0 71.334899,-22.63734 71.334899,-38.26421 l 0,0 c 0,-13.43416 -26.56465,-21.54099 -66.2958,-21.54099 l 0,0 c -20.89759,0 -38.300237,3.17067 -55.183019,3.17067 l 0,0 c -16.764395,0 -33.199371,-6.19207 -41.723117,-14.52022 l 0,0 c 10.520856,40.92016 47.662975,71.15475 91.867037,71.15475"
       id="path1070"
       style="fill:url(#radialGradient5710);stroke:none" />
    <path
       d="m -62.699327,512.85691 c -18.452676,6.2281 -33.050104,18.81297 -33.050104,27.06392 l 0,0 c 0,9.48627 19.188722,18.83872 39.051726,18.83872 l 0,0 c 12.92974,0 27.63526,-2.72802 51.708665,-2.72802 l 0,0 c 57.375715,0 78.443165,15.53421 78.443165,29.10221 l 0,0 c 0,17.65486 -24.14546,33.05525 -47.4365,39.5613 l 0,0 -0.175,3.9376 c 44.05479,-11.45764 66.27522,-35.93253 66.27522,-68.33408 l 0,0 c 0,-15.15333 -5.53324,-27.12569 -20.55274,-36.13327 l 0,0 c -18.83872,-11.30838 -50.56599,-18.66885 -82.205759,-18.66885 l 0,0 c -17.932808,0 -37.332565,2.39858 -52.058674,7.36047"
       id="path1098"
       style="fill:url(#linearGradient5551-5);stroke:none" />
    <path
       d="m -63.136839,519.94973 c -13.768732,5.18323 -25.246964,14.95774 -25.246964,20.11008 l 0,0 c 0,5.27071 15.158473,11.3444 22.235858,11.3444 l 0,0 c 18.282816,-14.70552 54.246229,-30.90373 97.68851,-30.90373 l 0,0 c 9.66643,0 17.98427,1.51328 29.16912,3.9376 l 0,0 C 46.194615,517.1754 19.882175,511.37452 -6.332456,511.37452 l 0,0 c -22.405716,0 -42.695937,3.27361 -56.804383,8.57522"
       id="path1124"
       style="fill:url(#linearGradient5556-8);stroke:none" />
    <path
       d="m -70.512761,490.20413 c 0,4.3957 0.911052,8.64213 2.583889,12.64664 l 0,0 c 0.880169,-0.30369 1.770633,-0.60222 2.686832,-0.90075 l 0,0 c 13.331221,-4.28246 33.219961,-7.3399 53.427826,-7.3399 l 0,0 c 23.311619,0 46.067339,3.6751 64.792819,10.45394 l 0,0 c 2.32138,-4.6479 3.59788,-9.65097 3.59788,-14.85993 l 0,0 c 0,-24.69107 -28.44851,-44.70848 -63.542046,-44.70848 l 0,0 c -35.093538,0 -63.5472,20.01741 -63.5472,44.70848"
       id="path1150"
       style="fill:url(#linearGradient5561-4);stroke:none" />
    <path
       d="m 757.79921,567.57977 c 10.23262,0 16.69232,-7.13401 18.44753,-16.56366 -2.02285,-0.40148 -4.98762,-0.40148 -6.46487,-0.40148 -11.58118,-0.40149 -20.06889,3.77289 -20.06889,10.23262 0,3.36626 2.70227,6.73252 8.08623,6.73252 m 16.29085,4.71482 -0.26765,0 c -5.25528,7.94212 -14.68494,11.44735 -24.23812,11.44735 -14.40184,0 -22.75572,-7.27298 -22.75572,-19.38946 0,-18.44752 17.2328,-26.66245 38.64509,-26.66245 4.84352,0 9.69216,0.40664 13.05842,0.67429 0.26765,-0.94194 0.26765,-1.88901 0.26765,-3.09861 0,-4.71482 -4.70967,-8.75021 -12.65693,-8.75021 -8.3436,0 -15.07612,1.75003 -23.02338,5.52292 l 2.42948,-17.64456 c 7.134,-2.41917 14.80331,-4.0354 25.71021,-4.0354 16.69747,0 30.43532,6.59355 30.43532,23.83149 0,9.96496 -4.84865,23.56383 -7.41195,41.47091 -0.53531,4.04054 -3.08831,6.46487 -7.39651,6.46487 l -13.87682,0 1.08091,-9.83113 z m -70.14848,-89.53999 18.0409,0 c 3.23244,0 5.38912,2.0177 5.38912,4.98248 0,0.40148 -0.13383,1.20959 -0.2728,1.88387 l -0.94194,4.44202 c -0.80296,3.90673 -3.62878,6.46488 -7.94211,6.46488 l -17.90707,0 3.63391,-17.77325 z m -6.05308,29.21545 15.88422,0 c 4.70968,0 7.134,3.23243 7.134,6.5987 0,0.54045 -0.13382,1.48239 -0.26765,2.15667 l -11.31352,53.86019 c -1.07062,5.38396 -4.31335,7.54063 -9.69217,7.54063 l -16.296,0 14.55112,-70.15619 z m -96.00075,18.31473 c 1.21473,-6.05824 2.28535,-11.98266 2.96478,-18.3137 l 15.7504,0 c 3.50009,0 5.79059,2.42433 5.79059,5.38911 0,0.26765 0,0.66913 -0.13897,1.34341 l -0.80297,4.71482 0.26765,0 c 7.00018,-7.67445 14.81362,-13.06356 26.66244,-13.06356 14.53566,0 22.21013,10.37159 22.21013,24.10429 0,4.70967 -0.40148,7.54063 -1.88388,14.94228 l -4.97732,25.1852 c -1.07577,5.38397 -4.31335,7.53549 -9.69217,7.53549 l -16.83131,0 6.72739,-32.84936 c 0.67427,-3.50524 1.62136,-7.00533 1.62136,-10.63924 0,-4.17437 -2.69712,-8.08109 -9.42965,-8.08109 -10.23261,0 -16.29086,8.88405 -18.0409,19.25564 l -5.25529,24.77856 c -1.20958,5.38397 -4.30818,7.53549 -9.69215,7.53549 l -16.15702,0 10.90689,-51.83734 z m -60.99265,37.29499 c 10.23261,0 16.69748,-7.13401 18.45267,-16.56366 -2.02285,-0.40148 -4.98762,-0.40148 -6.47001,-0.40148 -11.58119,-0.40149 -20.0586,3.77289 -20.0586,10.23262 0,3.36626 2.69197,6.73252 8.07594,6.73252 m 16.29085,4.71482 -0.26765,0 c -5.25014,7.94212 -14.67464,11.44735 -24.23297,11.44735 -14.40698,0 -22.76087,-7.27298 -22.76087,-19.38946 0,-18.44752 17.23279,-26.66245 38.6451,-26.66245 4.84865,0 9.6973,0.40664 13.06356,0.67429 0.26765,-0.94194 0.26765,-1.88901 0.26765,-3.09861 0,-4.71482 -4.71482,-8.75021 -12.65694,-8.75021 -8.34873,0 -15.08126,1.75003 -23.02337,5.52292 l 2.42432,-17.64456 c 7.13402,-2.41917 14.80847,-4.0354 25.71537,-4.0354 16.69747,0 30.43532,6.59355 30.43532,23.83149 0,9.96496 -4.8538,23.56383 -7.4068,41.47091 -0.54046,4.04054 -3.09861,6.46487 -7.40681,6.46487 l -13.87168,0 1.07578,-9.83113 z M 392.52478,530.28478 c 1.21475,-6.05824 2.28537,-11.98266 2.95964,-18.3137 l 14.6798,0 c 3.36626,0 5.65675,2.42433 5.65675,5.38911 0,0.53531 -0.13382,1.20958 -0.26766,1.75004 l -1.21474,5.51779 0.26767,0 c 5.92441,-8.88405 14.95258,-14.27316 24.77856,-14.27316 8.20977,0 16.55851,4.71483 18.44239,14.27316 5.92956,-8.88405 14.94744,-14.27316 25.04622,-14.27316 10.77306,0 21.81379,5.25014 21.81379,20.87185 0,4.581 -0.54046,10.77307 -1.61623,15.7504 l -5.79058,27.60952 c -1.08092,5.38396 -4.30819,7.53549 -9.69729,7.53549 l -16.01805,0 7.00017,-34.0641 c 0.80811,-3.63391 1.34341,-7.4068 1.34341,-10.23776 0,-4.57585 -2.15152,-7.26783 -7.80828,-7.26783 -10.09879,0 -12.79077,11.715 -14.40698,19.25564 l -5.25014,24.77856 c -1.21473,5.38396 -4.3082,7.53549 -9.69216,7.53549 l -16.16217,0 7.00018,-34.0641 c 0.81325,-3.63391 1.34857,-7.4068 1.34857,-10.23776 0,-4.57585 -2.15153,-7.26783 -7.80315,-7.26783 -10.10393,0 -12.79592,11.715 -14.41213,19.25564 l -5.25014,24.77856 c -1.20958,5.38396 -4.30818,7.53549 -9.69215,7.53549 l -16.16217,0 10.90689,-51.83734 z m -41.19243,-18.31267 c 3.63392,0 5.78544,2.42432 5.78544,5.38396 0,0.26765 0,0.67428 -0.13383,1.34857 l -1.48239,7.67446 0.26765,0 c 3.91186,-8.21493 11.72015,-16.0232 21.68512,-16.0232 3.90156,0 9.02302,1.07576 9.02302,5.65675 0,0.66914 -0.13898,1.34342 -0.2728,1.88387 l -2.2905,8.88405 c -0.80811,3.09862 -3.23244,5.25528 -7.40681,4.31335 -1.20959,-0.2728 -3.22729,-0.54046 -5.51779,-0.54046 -10.23261,0 -16.29085,8.88405 -18.04604,19.25564 l -5.25013,24.77342 c -1.07577,5.38396 -4.3082,7.54063 -9.69217,7.54063 l -16.15702,0 10.9069,-51.83734 c 1.20959,-6.06339 2.28535,-11.9878 2.95962,-18.3137 l 15.62173,0 z m -54.25653,28.41094 c 0,-7.54063 -3.23244,-13.86653 -12.66208,-13.86653 -9.95981,0 -15.34892,7.134 -17.23279,13.86653 l 29.89487,0 z m 4.57585,24.37194 c 2.55816,-0.80811 5.11632,0.8081 4.57586,4.04054 l -1.07577,6.05824 c -0.67426,3.36626 -2.15152,5.25014 -5.38395,6.05825 -7.00533,1.88387 -14.94745,2.83095 -21.41231,2.83095 -23.29104,0 -35.40751,-13.06356 -35.40751,-31.91773 0,-16.29084 10.76792,-41.47089 42.14004,-41.47089 18.44753,0 32.44788,10.37158 32.44788,30.56401 0,1.48238 -0.26766,3.90671 -0.40148,4.581 -0.93678,4.98247 -4.17438,8.61639 -10.6341,8.61639 l -40.66278,0 c 0.26765,7.54063 4.3082,13.46505 18.17472,13.46505 5.79059,0 12.12162,-1.07577 17.6394,-2.8258 m -69.2024,-59.91895 c -0.94194,3.36626 -4.0354,4.57585 -7.00018,3.77289 -5.79059,-1.61622 -12.65694,-3.50524 -21.67997,-3.50524 -25.18005,0 -35.27883,17.7784 -35.27883,35.55163 0,16.69234 10.63923,24.50063 22.6219,24.50063 8.75536,0 10.90688,-2.15153 11.98265,-7.00018 l 2.96478,-13.1974 -14.94743,0 3.63906,-17.76809 30.55886,0 c 5.12145,0 8.08109,3.49495 7.00533,8.6164 l -6.05825,29.34927 c -1.88387,9.29067 -9.15685,16.16217 -18.71518,17.50559 -2.96479,0.40663 -9.96496,1.08091 -19.66226,1.08091 -28.40734,0 -45.23865,-16.0232 -45.23865,-41.34223 0,-32.0464 20.59905,-55.87788 60.32506,-55.87788 10.63409,0 18.849,1.07576 26.38964,2.83095 3.36111,0.80811 6.59355,3.76775 4.97734,9.01787 l -1.88388,6.46488 z"
       id="path1190"
       style="fill:#108565;fill-opacity:1;fill-rule:nonzero;stroke:none" />
  </g>
</svg>
