<svg xmlns="http://www.w3.org/2000/svg" width="210" height="125" viewBox="0 0 713.8 424.1" enable-background="new 0 0 713.8 424.1"><path fill="#DA2128" d="M0 0h713.8v424.1h-713.8z"/><path fill="#fff" d="M264.3 269.9c-2.7-2.4-4.3-6.2-4.3-11.4 0-13 33.1-91.5 33-105-.1-3.4-1.5-5.2-4.4-5.3-4.4-.1-12.9 7.8-17.1 13.2l-.3.4-6.7-5.3.2-.4c5.1-10.4 27.3-30.8 38.9-31.2 4.8 0 8.6 1.2 11.1 3.8 2.5 2.6 3.8 6.5 3.8 11.7 0 10.8-33.1 94.4-33 103.7 0 3.2 2.6 5.9 6.7 5.9 8.6.2 22.6-21.8 29.2-28.9l.1-.2h.2c.9.1 2.1 1 3.3 2 1.2 1.1 2.2 2.2 2.3 3.2v.1l-.1.1c-9.8 17-32.1 46.7-52.1 46.8-4.3.2-8.1-.8-10.8-3.2zM317.3 90.2c8.6 0 15.5-6.9 15.5-15.5 0-8.5-6.9-15.5-15.5-15.5-8.5 0-15.5 6.9-15.5 15.5s6.9 15.5 15.5 15.5"/><path fill="#fff" d="M174.6 269.4v-15.8h20.5v-82.7h-89.7v82.7h22.3v15.8h-69v-15.8h21v-179.6h-21v-15.8h69v15.8h-22.3v79.2h89.7v-79.2h-20.5v-15.8h69.1v15.8h-21.4v179.5h21.4v15.8h-69.1v.1zM390.9 272.9l-37.5-134.4h-13.4v-13.7h51v13.7h-12.3l23.1 84.1 27.1-84.1h-13v-13.7h36.7v13.7h-10.6l-44 134.4h-7.1zM580.2 272.2v-31.5h7l.3.3s.5.4 1 .9c.4.5 6.4 8.7 6.4 8.8 3.2 4.7 13.3 8.6 22 8.5 11.8 0 20.9-8.9 20.9-20.5v-1.1c-.5-9.9-5.7-17.2-20.5-29-23.6-18.4-30.5-28-31.2-43.8 0-.8-.1-1.6-.1-2.3 0-11.2 4.2-21 11.4-28s17.3-11.1 29.1-11.1c7.3 0 12.4 1 21.3 4.9v-6.6h9.1v35.7h-7.4l-.3-.9c-5.2-14-13.8-21.4-24.6-21.4-11.1.1-18.5 7.7-18.5 18.9v1.3c.5 9.8 7.2 19.3 25.3 33.2 21.4 16.3 27.2 25 28 41.4l.1 2.7c0 11.7-4.1 21.4-11.4 28.1-7.3 6.7-17.8 10.3-30.5 10.3-8.7 0-15.6-1-25.8-4.4v5.8h-11.6v-.2z"/><g fill="#fff"><path d="M61.3 325.9h11.7v2.6c2.6-2.1 6-3.6 10-3.8 10.9 0 16.3 9.4 16.3 18.1 0 11.1-6.7 20.2-18.2 20.2-2.9 0-5.7-.7-8.1-1.9l-.1 18.5h-11.9l.3-53.7zm11.6 26.1c1.3 1.4 3.9 2 5.7 2 5.7 0 8.3-4.6 8.3-10.1 0-4.8-1.8-9.1-7.4-9.1-2.3 0-4.6 1-6.4 2.5l-.2 14.7zM140.2 357.6c-4.2 3.5-10.6 5.3-16.2 5.3-13 0-18.9-9.2-18.9-18.4 0-10.8 8.1-19.9 19.2-19.9 13.6 0 17.9 9.6 17.9 21.9h-24.8c0 2.8 1.8 7.4 8.6 7.4 4.3 0 6.7-1.3 10.1-3.5l4.1 7.2zm-9.1-18.3c0-3.7-1.8-7-5.9-7-3.9 0-6.9 3.5-7.7 7h13.6zM167.7 324.6c13.2 0 20 8.4 20 19.1 0 10.8-6.8 19.2-20 19.2s-20-8.4-20-19.2c0-10.7 6.8-19.1 20-19.1zm0 29c5.9 0 7.7-5.1 7.7-9.8 0-4.7-1.8-9.8-7.7-9.8s-7.7 5.1-7.7 9.8c0 4.7 1.8 9.8 7.7 9.8zM195.2 325.9h11.7v2.6c2.6-2.1 6-3.6 10-3.8 10.9 0 16.3 9.4 16.3 18.1 0 11.1-6.7 20.2-18.2 20.2-2.9 0-5.7-.7-8.1-1.9l-.1 18.5h-11.8l.2-53.7zm11.7 26.1c1.3 1.4 3.9 2 5.7 2 5.7 0 8.3-4.6 8.3-10.1 0-4.8-1.8-9.1-7.4-9.1-2.3 0-4.6 1-6.4 2.5l-.2 14.7zM241.1 308.5h12.3l-.3 53.2h-12.3l.3-53.2zM295.2 357.6c-4.2 3.5-10.6 5.3-16.2 5.3-13 0-18.9-9.2-18.9-18.4 0-10.8 8.1-19.9 19.2-19.9 13.6 0 17.9 9.6 17.9 21.9h-24.8c0 2.8 1.8 7.4 8.6 7.4 4.3 0 6.7-1.3 10.1-3.5l4.1 7.2zm-9.1-18.3c0-3.7-1.8-7-5.9-7-3.9 0-6.9 3.5-7.7 7h13.6zM350.7 325.9h12.3l-.3 35.7h-12.3v-3.9c-2.8 2.8-7.2 5.2-11.6 5.2-7.6 0-11.7-4.2-11.7-14 0-7.3.1-15.2.1-23.1h12.3c-.1 6.9-.1 13.8-.1 21.2 0 2.9.8 5.2 4.5 5.2 2 0 4.8-1.7 6.5-3.3l.3-23zM372 325.9h12.3v3.9c2.8-2.8 7.2-5.2 11.6-5.2 7.6 0 11.7 4.2 11.7 14 0 7.3-.1 15.2-.1 23.1h-12.3c.1-6.9.1-13.8.1-21.2 0-2.9-.8-5.2-4.5-5.2-2 0-4.8 1.7-6.5 3.3l-.3 23.1h-12.3l.3-35.8zM416.4 308.5h12.3l-.3 53.2h-12.3l.3-53.2zM437.4 325.9h12.3l-.3 35.7h-12.3l.3-35.7zm0-15.9h12.3v10.2h-12.3v-10.2zM458.3 361.6l.3-35.7h12.4v4.3c3.2-3.2 7.2-5.5 11.7-5.5 4.4 0 7.5 1.5 10.1 5.5 3.8-3.2 8.7-5.5 13.3-5.5 8.4 0 11.6 5.9 11.6 13.4l-.1 23.6h-12.3c.1-6.9.1-13.8.1-20.7 0-3-.9-5.7-4.5-5.7-2.2 0-5 1.7-6.5 3.3l-.3 23.1h-12.3c.1-6.9.1-13.8.1-20.7 0-3-.9-5.7-4.5-5.7-2.2 0-5 1.7-6.5 3.3l-.3 23.1h-12.3zM526.6 325.9h12.4l-.3 35.7h-12.3l.2-35.7zm0-15.9h12.4v10.2h-12.3v-10.2zM543.4 325.9h5.2l.3-12.1h11.9l-.3 12.1h10.1l-.2 8.9h-10.1c0 5-.4 10.2-.4 13.3 0 3.1.8 4.6 3.5 4.6 1.7 0 3.1-.8 4.5-1.7l2.7 8.4c-3.6 2.2-8 3.5-12.2 3.5-10 0-10.5-6.3-10.5-14.5 0-4.4.4-8.8.4-13.5h-5.3l.4-9zM609.6 357.6c-4.2 3.5-10.6 5.3-16.2 5.3-13 0-18.9-9.2-18.9-18.4 0-10.8 8.1-19.9 19.2-19.9 13.6 0 17.9 9.6 17.9 21.9h-24.8c0 2.8 1.8 7.4 8.6 7.4 4.3 0 6.7-1.3 10.1-3.5l4.1 7.2zm-9.1-18.3c0-3.7-1.8-7-5.9-7-3.9 0-6.9 3.5-7.7 7h13.6zM655.4 361.6h-11.7v-2.6c-2.6 2.1-6 3.6-10 3.8-10.9 0-16.3-9.4-16.3-18.1 0-11.1 6.7-20.2 18.2-20.2 2.9 0 5.7.7 8.1 1.9l.1-18.1h11.9l-.3 53.3zm-11.6-26.1c-1.3-1.4-3.9-2-5.7-2-5.7 0-8.3 4.6-8.3 10.1 0 4.8 1.8 9.1 7.4 9.1 2.3 0 4.6-1 6.4-2.5l.2-14.7z"/></g><path fill="#fff" d="M566.7 184.8c-1.8-36.3-23.4-63.5-51.5-63.6-31.2.1-53.3 36.1-53.4 83.3 0 2.6.1 5.2.2 7.9 1.8 34.6 23.6 61.8 50.7 61.8 30.5-.2 54.1-38.4 54.1-83 .1-2.1 0-4.2-.1-6.4zm-33.2 60.8c-4.9 9.7-11.7 14.9-19.9 14.9-7.4 0-13.2-4.8-17.8-15-4.5-10.2-7.4-25.7-8.4-46.1 0 0-.1-9.7-.1-12.2 0-16.9 2.5-30.4 7.1-39.5 4.6-9.1 11-13.8 19.2-13.8 8.9 0 16.7 8 20.8 22.4 3 12.1 5.9 28.1 6.5 39.8.1 2.9.2 5.8.2 8.6.1 17.1-2.7 31.2-7.6 40.9z"/></svg>