<svg xmlns="http://www.w3.org/2000/svg" xmlns:svg="http://www.w3.org/2000/svg" id="svg2" width="205.493" height="113.373" version="1.1" viewBox="0 0 205.493 113.373" xml:space="preserve"><metadata id="metadata8"/><g id="g10" transform="matrix(1.3333333,0,0,-1.3333333,0,113.37333)"><g id="g12" transform="scale(0.1)"><path id="path14" fill="#231f20" fill-opacity="1" fill-rule="nonzero" stroke="none" d="m 424.887,425.535 h 12.168 v -25.476 h 18.82 v 25.476 h 12.168 v -62.074 h -12.168 v 25.762 h -18.82 v -25.762 h -12.168 v 62.074"/><path id="path16" fill="#231f20" fill-opacity="1" fill-rule="nonzero" stroke="none" d="m 505.934,378.762 c 0.671,2.855 0.671,5.711 0.671,8.558 0,2.754 0,5.797 -0.671,8.649 -0.754,3.043 -3.133,5.703 -7.317,5.703 -4.09,0 -6.648,-2.563 -7.32,-5.984 -0.473,-2.571 -0.57,-5.614 -0.57,-8.368 0,-2.847 0.097,-5.703 0.57,-8.269 0.672,-3.422 3.23,-5.992 7.32,-5.992 4.184,0 6.563,2.664 7.317,5.703 z m -25.95,-2.469 c -0.761,3.141 -0.855,5.801 -0.855,11.027 0,5.133 0.094,7.793 0.855,10.934 1.907,8.078 9.121,13.785 18.821,13.785 9.699,0 16.64,-5.707 18.633,-13.785 0.761,-3.141 0.859,-5.801 0.859,-10.934 0,-5.226 -0.098,-7.886 -0.859,-11.027 -1.895,-7.984 -9.219,-13.785 -19.012,-13.785 -9.602,0 -16.449,5.801 -18.442,13.785"/><path id="path18" fill="#231f20" fill-opacity="1" fill-rule="nonzero" stroke="none" d="m 528.441,376.293 c -0.761,3.141 -0.957,5.801 -0.957,11.027 0,5.133 0.196,7.895 0.957,11.125 1.899,7.985 8.079,13.594 17.872,13.594 9.121,0 15.488,-3.902 17.394,-12.738 0.383,-1.906 0.574,-3.903 0.574,-6.184 v -1.426 h -11.504 v 0.762 c 0,1.332 0,2.188 -0.097,2.945 -0.567,4.184 -2.754,6.274 -6.649,6.274 -4.093,0 -5.898,-2.469 -6.562,-6.559 -0.285,-1.707 -0.285,-5.039 -0.285,-7.793 0,-2.847 0,-5.609 0.285,-7.316 0.761,-4.188 2.949,-6.945 7.414,-6.945 4.469,0 7.41,2.757 9.312,6.375 l 7.793,-7.512 c -3.515,-6.274 -10.359,-9.414 -17.293,-9.414 -10.273,0 -16.355,5.703 -18.254,13.785"/><path id="path20" fill="#231f20" fill-opacity="1" fill-rule="nonzero" stroke="none" d="m 585.633,363.461 h -11.692 v 65.496 h 11.692 v -21.012 c 2.086,2.285 5.418,4.094 9.793,4.094 9.597,0 15.586,-6.562 15.586,-16.262 v -32.316 h -11.789 v 30.801 c 0,4.465 -2.285,7.035 -6.746,7.035 -3.997,0 -6.844,-2.57 -6.844,-7.035 v -30.801"/><path id="path22" fill="#231f20" fill-opacity="1" fill-rule="nonzero" stroke="none" d="m 642.547,390.93 c 6.836,-2.563 11.875,-5.321 11.875,-14.258 0,-8.27 -6.75,-14.164 -16.633,-14.164 -8.84,0 -15.402,3.902 -18.152,10.078 l 8.355,6.937 c 2.387,-3.894 5.324,-6.464 9.981,-6.464 2.472,0 4.472,1.05 4.472,3.332 0,2.66 -1.621,3.324 -5.703,4.847 l -3.711,1.328 c -8.738,3.235 -11.59,7.508 -11.59,14.829 0,8.371 6.934,14.644 16.446,14.644 11.406,0 16.347,-5.898 16.347,-14.836 0,-0.754 0,-1.515 -0.097,-2.277 h -11.692 c 0.102,0.472 0.102,1.043 0.102,1.426 0,4.375 -2.473,5.32 -4.856,5.32 -3.039,0 -4.558,-2.09 -4.558,-4.18 0,-2.469 1.988,-3.804 5.887,-5.226 l 3.527,-1.336"/><path id="path24" fill="#231f20" fill-opacity="1" fill-rule="nonzero" stroke="none" d="m 664.477,376.293 c -0.758,3.141 -0.957,5.801 -0.957,11.027 0,5.133 0.199,7.895 0.957,11.125 1.894,7.985 8.078,13.594 17.871,13.594 9.121,0 15.492,-3.902 17.394,-12.738 0.379,-1.906 0.574,-3.903 0.574,-6.184 v -1.426 h -11.503 v 0.762 c 0,1.332 0,2.188 -0.094,2.945 -0.571,4.184 -2.754,6.274 -6.653,6.274 -4.093,0 -5.898,-2.469 -6.562,-6.559 -0.285,-1.707 -0.285,-5.039 -0.285,-7.793 0,-2.847 0,-5.609 0.285,-7.316 0.762,-4.188 2.949,-6.945 7.414,-6.945 4.469,0 7.41,2.757 9.312,6.375 l 7.793,-7.512 c -3.515,-6.274 -10.359,-9.414 -17.293,-9.414 -10.273,0 -16.359,5.703 -18.253,13.785"/><path id="path26" fill="#231f20" fill-opacity="1" fill-rule="nonzero" stroke="none" d="m 721.195,363.461 h -11.687 v 65.496 h 11.687 v -21.012 c 2.09,2.285 5.422,4.094 9.797,4.094 9.602,0 15.586,-6.562 15.586,-16.262 v -32.316 h -11.785 v 30.801 c 0,4.465 -2.285,7.035 -6.75,7.035 -3.992,0 -6.848,-2.57 -6.848,-7.035 v -30.801"/><path id="path28" fill="#231f20" fill-opacity="1" fill-rule="nonzero" stroke="none" d="m 784.469,368.023 c -2.571,-3.71 -6.66,-5.515 -11.028,-5.515 -9.605,0 -15.398,6.562 -15.398,16.351 v 32.129 h 11.687 v -30.89 c 0,-4.188 2.192,-6.942 6.653,-6.942 4.09,0 6.941,2.754 6.941,6.942 v 30.89 h 11.692 v -47.527 h -9.883 l -0.664,4.562"/><path id="path30" fill="#231f20" fill-opacity="1" fill-rule="nonzero" stroke="none" d="m 819.516,375.438 c 0.664,-1.141 2.004,-1.711 3.808,-1.711 1.43,0 2.375,0.285 3.039,0.476 v -10.555 c -1.328,-0.281 -3.515,-0.472 -5.226,-0.472 -6.367,0 -10.938,2.851 -12.832,7.32 -0.86,2.09 -1.239,4.656 -1.239,7.223 v 51.238 h 11.786 v -50.949 c 0,-0.953 0.199,-1.809 0.664,-2.57"/><path id="path32" fill="#231f20" fill-opacity="1" fill-rule="nonzero" stroke="none" d="m 844.496,395.398 c -0.195,-0.855 -0.281,-1.992 -0.281,-3.324 h 14.062 c 0,1.805 -0.089,2.758 -0.183,3.324 -0.571,3.903 -2.668,6.274 -6.75,6.274 -4.192,0 -6.184,-2.281 -6.848,-6.274 z m 24.719,2.856 c 0.566,-2.375 0.664,-4.566 0.664,-8.078 0,-2.098 0,-4.567 -0.098,-7.418 h -25.566 c 0,-1.238 0.086,-2.281 0.281,-3.235 0.762,-4.085 3.234,-6.464 7.609,-6.464 3.418,0 6.844,0.859 9.7,5.613 l 7.593,-7.32 c -4.277,-6.278 -10.64,-8.844 -17.488,-8.844 -10.168,0 -16.543,5.801 -18.535,13.785 -0.762,3.141 -0.859,5.801 -0.859,11.027 0,5.133 0.097,7.793 0.859,10.934 1.992,8.176 8.367,13.785 18.152,13.785 9.602,0 15.782,-5.707 17.688,-13.785"/><path id="path34" fill="#231f20" fill-opacity="1" fill-rule="nonzero" stroke="none" d="m 915.27,400.727 v -37.266 h -11.692 v 37.266 h -5.32 v 10.261 h 5.32 v 3.996 c 0,9.317 5.703,14.926 14.074,14.926 4.746,0 7.598,-1.047 10.266,-2.66 l -3.715,-9.414 c -1.426,0.852 -2.851,1.234 -4.844,1.234 -2.371,0 -4.089,-1.711 -4.089,-4.66 v -3.422 h 9.414 v -10.261 h -9.414"/><path id="path36" fill="#231f20" fill-opacity="1" fill-rule="nonzero" stroke="none" d="m 954.32,422.398 c 0,3.516 2.856,6.465 6.653,6.465 3.613,0 6.66,-2.949 6.66,-6.465 0,-3.519 -3.047,-6.652 -6.66,-6.652 -3.797,0 -6.653,3.133 -6.653,6.652 z m -18.152,0 c 0,3.516 2.852,6.465 6.648,6.465 3.614,0 6.653,-2.949 6.653,-6.465 0,-3.519 -3.039,-6.652 -6.653,-6.652 -3.796,0 -6.648,3.133 -6.648,6.652 z m 23.574,-54.375 c -2.566,-3.71 -6.66,-5.515 -11.023,-5.515 -9.614,0 -15.403,6.562 -15.403,16.351 v 32.129 h 11.692 v -30.89 c 0,-4.188 2.183,-6.942 6.648,-6.942 4.09,0 6.942,2.754 6.942,6.942 v 30.89 h 11.691 v -47.527 h -9.883 l -0.664,4.562"/><path id="path38" fill="#231f20" fill-opacity="1" fill-rule="nonzero" stroke="none" d="m 994.508,363.461 h -11.692 v 47.527 h 9.883 l 0.664,-4.656 c 2.473,4.09 6.086,5.516 9.987,5.516 0.85,0 2.38,0 4.18,-0.289 v -11.5 c -2.94,0.57 -4.95,0.57 -6.18,0.57 -3.991,0 -6.842,-2.375 -6.842,-7.129 v -30.039"/><path id="path40" fill="#231f20" fill-opacity="1" fill-rule="nonzero" stroke="none" d="m 1043.62,414.32 h -15.3 v 11.215 h 42.67 V 414.32 h -15.2 v -50.859 h -12.17 v 50.859"/><path id="path42" fill="#231f20" fill-opacity="1" fill-rule="nonzero" stroke="none" d="m 1083.24,395.398 c -0.2,-0.855 -0.29,-1.992 -0.29,-3.324 h 14.07 c 0,1.805 -0.09,2.758 -0.19,3.324 -0.56,3.903 -2.66,6.274 -6.75,6.274 -4.19,0 -6.18,-2.281 -6.84,-6.274 z m 24.71,2.856 c 0.57,-2.375 0.67,-4.566 0.67,-8.078 0,-2.098 0,-4.567 -0.1,-7.418 h -25.57 c 0,-1.238 0.09,-2.281 0.29,-3.235 0.76,-4.085 3.23,-6.464 7.61,-6.464 3.41,0 6.84,0.859 9.69,5.613 l 7.6,-7.32 c -4.28,-6.278 -10.64,-8.844 -17.49,-8.844 -10.17,0 -16.54,5.801 -18.53,13.785 -0.77,3.141 -0.86,5.801 -0.86,11.027 0,5.133 0.09,7.793 0.86,10.934 1.99,8.176 8.36,13.785 18.15,13.785 9.6,0 15.78,-5.707 17.68,-13.785"/><path id="path44" fill="#231f20" fill-opacity="1" fill-rule="nonzero" stroke="none" d="m 1118.67,376.293 c -0.76,3.141 -0.96,5.801 -0.96,11.027 0,5.133 0.2,7.895 0.96,11.125 1.89,7.985 8.07,13.594 17.87,13.594 9.12,0 15.49,-3.902 17.39,-12.738 0.38,-1.906 0.58,-3.903 0.58,-6.184 v -1.426 H 1143 v 0.762 c 0,1.332 0,2.188 -0.09,2.945 -0.57,4.184 -2.76,6.274 -6.65,6.274 -4.1,0 -5.9,-2.469 -6.57,-6.559 -0.28,-1.707 -0.28,-5.039 -0.28,-7.793 0,-2.847 0,-5.609 0.28,-7.316 0.76,-4.188 2.95,-6.945 7.42,-6.945 4.47,0 7.41,2.757 9.31,6.375 l 7.79,-7.512 c -3.51,-6.274 -10.36,-9.414 -17.29,-9.414 -10.27,0 -16.36,5.703 -18.25,13.785"/><path id="path46" fill="#231f20" fill-opacity="1" fill-rule="nonzero" stroke="none" d="m 1175.86,363.461 h -11.69 v 65.496 h 11.69 v -21.012 c 2.09,2.285 5.42,4.094 9.79,4.094 9.6,0 15.59,-6.562 15.59,-16.262 v -32.316 h -11.79 v 30.801 c 0,4.465 -2.29,7.035 -6.75,7.035 -3.99,0 -6.84,-2.57 -6.84,-7.035 v -30.801"/><path id="path48" fill="#231f20" fill-opacity="1" fill-rule="nonzero" stroke="none" d="m 1224.77,363.461 h -11.69 v 47.527 h 9.98 l 0.57,-4.277 c 2.47,3.519 6.46,5.328 10.94,5.328 9.6,0 15.58,-6.562 15.58,-16.262 v -32.316 h -11.78 v 30.801 c 0,4.465 -2.29,7.035 -6.75,7.035 -4,0 -6.85,-2.57 -6.85,-7.035 v -30.801"/><path id="path50" fill="#231f20" fill-opacity="1" fill-rule="nonzero" stroke="none" d="m 1262.49,363.461 v 47.527 h 11.78 v -47.527 z m -1.43,59.414 c 0,3.805 3.14,7.035 7.22,7.035 3.99,0 7.22,-3.23 7.22,-7.035 0,-3.805 -3.23,-7.227 -7.22,-7.227 -4.08,0 -7.22,3.422 -7.22,7.227"/><path id="path52" fill="#231f20" fill-opacity="1" fill-rule="nonzero" stroke="none" d="M 1298.87,381.902 V 363.461 H 1287 v 65.496 h 11.87 v -36.121 h 0.96 c 9.03,0 12.17,7.223 12.17,15.301 0,0.953 0,1.906 -0.1,2.851 h 11.98 c 0.09,-1.136 0.19,-2.277 0.19,-3.422 0,-9.121 -3.42,-17.39 -10.46,-21.957 l 13.97,-22.148 h -14.25 l -10.84,18.535 c -0.77,-0.094 -1.62,-0.094 -2.47,-0.094 h -1.15"/><path id="path54" fill="#231f20" fill-opacity="1" fill-rule="nonzero" stroke="none" d="m 450.367,270.016 c -2.566,-3.7 -6.66,-5.504 -11.023,-5.504 -9.614,0 -15.403,6.551 -15.403,16.343 v 32.129 h 11.692 v -30.886 c 0,-4.192 2.183,-6.946 6.648,-6.946 4.09,0 6.942,2.754 6.942,6.946 v 30.886 h 11.691 v -47.527 h -9.883 l -0.664,4.559"/><path id="path56" fill="#231f20" fill-opacity="1" fill-rule="nonzero" stroke="none" d="m 484.84,265.457 h -11.692 v 47.527 h 9.985 l 0.562,-4.273 c 2.473,3.512 6.465,5.32 10.942,5.32 9.597,0 15.582,-6.554 15.582,-16.25 v -32.324 h -11.785 v 30.801 c 0,4.465 -2.286,7.031 -6.75,7.031 -3.993,0 -6.844,-2.566 -6.844,-7.031 v -30.801"/><path id="path58" fill="#231f20" fill-opacity="1" fill-rule="nonzero" stroke="none" d="m 547.738,281.719 c 0.481,2.176 0.481,4.746 0.481,7.691 0,2.949 0,5.422 -0.481,7.707 -0.855,4.082 -3.515,6.649 -7.703,6.649 -4.18,0 -6.836,-2.567 -7.597,-6.649 -0.383,-1.902 -0.383,-4.758 -0.383,-7.707 0,-2.945 0,-5.801 0.383,-7.691 0.761,-4.094 3.417,-6.758 7.597,-6.758 4.188,0 6.848,2.664 7.703,6.758 z m 1.809,-12.551 c -2.57,-2.664 -6.281,-4.656 -11.785,-4.656 -8.559,0 -14.739,5.601 -16.543,13.875 -0.668,3.23 -0.864,5.703 -0.864,10.926 0,5.238 0.196,7.992 0.864,11.222 1.609,8.274 8.551,13.496 17.008,13.496 4.375,0 7.609,-1.23 9.992,-3.136 v 20.058 h 11.687 v -65.496 h -9.793 l -0.566,3.711"/><path id="path60" fill="#231f20" fill-opacity="1" fill-rule="nonzero" stroke="none" d="m 600.262,265.457 -9.035,38.977 c -1.141,4.937 -1.805,11.687 -1.805,16.257 v 6.844 h 12.168 v -6.844 c 0,-3.332 0.379,-9.132 1.14,-13.41 l 1.614,-8.738 c 1.336,-7.039 2.847,-13.594 2.949,-17.023 h 0.379 c 0.379,3.996 1.711,9.32 2.754,13.214 l 4.851,18.914 h 10.168 l 4.942,-17.488 c 1.523,-5.226 3.047,-11.504 3.426,-15.305 h 0.382 c 0.098,3.618 1.524,10.079 2.657,16.926 l 1.523,9.5 c 0.664,4.278 1.047,10.078 1.047,13.41 v 6.844 h 12.168 v -6.844 c 0,-4.57 -0.664,-11.218 -1.711,-16.257 l -8.457,-38.977 h -13.313 l -5.515,19.578 c -1.614,5.805 -2.09,9.414 -2.278,11.887 h -0.378 c -0.196,-2.57 -0.665,-6.082 -2.286,-11.973 l -5.226,-19.492 h -12.164"/><path id="path62" fill="#231f20" fill-opacity="1" fill-rule="nonzero" stroke="none" d="m 661.82,265.457 v 47.527 h 11.789 v -47.527 z m -1.425,59.414 c 0,3.801 3.136,7.031 7.218,7.031 3.992,0 7.227,-3.23 7.227,-7.031 0,-3.801 -3.235,-7.226 -7.227,-7.226 -4.082,0 -7.218,3.425 -7.218,7.226"/><path id="path64" fill="#231f20" fill-opacity="1" fill-rule="nonzero" stroke="none" d="m 697.547,265.457 h -11.692 v 47.527 h 9.883 l 0.664,-4.656 c 2.469,4.094 6.082,5.52 9.981,5.52 0.859,0 2.383,0 4.187,-0.285 v -11.504 c -2.949,0.566 -4.949,0.566 -6.179,0.566 -3.996,0 -6.844,-2.371 -6.844,-7.129 v -30.039"/><path id="path66" fill="#231f20" fill-opacity="1" fill-rule="nonzero" stroke="none" d="m 734.313,264.695 c -7.977,0 -13.782,5.52 -13.782,14.922 v 23.106 h -5.32 v 10.261 h 5.32 v 12.93 h 11.692 v -12.93 h 11.406 V 302.723 H 732.223 V 279.91 c 0,-2.949 1.718,-4.656 4.277,-4.656 1.805,0 3.426,0.562 4.852,1.891 l 3.418,-9.5 c -2.372,-1.907 -5.508,-2.95 -10.457,-2.95"/><path id="path68" fill="#231f20" fill-opacity="1" fill-rule="nonzero" stroke="none" d="m 772.406,292.93 c 6.836,-2.571 11.875,-5.325 11.875,-14.258 0,-8.274 -6.746,-14.16 -16.629,-14.16 -8.839,0 -15.398,3.894 -18.156,10.078 l 8.359,6.93 c 2.383,-3.895 5.325,-6.461 9.985,-6.461 2.469,0 4.469,1.043 4.469,3.328 0,2.656 -1.621,3.332 -5.704,4.843 l -3.71,1.336 c -8.739,3.235 -11.59,7.512 -11.59,14.825 0,8.371 6.933,14.64 16.445,14.64 11.406,0 16.348,-5.89 16.348,-14.824 0,-0.762 0,-1.523 -0.098,-2.285 h -11.691 c 0.097,0.476 0.097,1.047 0.097,1.426 0,4.375 -2.468,5.324 -4.851,5.324 -3.039,0 -4.563,-2.094 -4.563,-4.184 0,-2.468 1.992,-3.797 5.891,-5.222 l 3.523,-1.336"/><path id="path70" fill="#231f20" fill-opacity="1" fill-rule="nonzero" stroke="none" d="m 794.344,278.289 c -0.766,3.137 -0.961,5.801 -0.961,11.024 0,5.136 0.195,7.89 0.961,11.125 1.89,7.988 8.074,13.593 17.871,13.593 9.121,0 15.484,-3.894 17.39,-12.734 0.379,-1.906 0.575,-3.899 0.575,-6.184 v -1.425 h -11.504 v 0.761 c 0,1.328 0,2.192 -0.098,2.949 -0.566,4.18 -2.754,6.274 -6.648,6.274 -4.09,0 -5.899,-2.473 -6.563,-6.555 -0.281,-1.719 -0.281,-5.039 -0.281,-7.804 0,-2.848 0,-5.602 0.281,-7.313 0.762,-4.191 2.949,-6.941 7.41,-6.941 4.477,0 7.414,2.75 9.317,6.367 l 7.793,-7.512 c -3.516,-6.269 -10.36,-9.402 -17.293,-9.402 -10.274,0 -16.36,5.703 -18.25,13.777"/><path id="path72" fill="#231f20" fill-opacity="1" fill-rule="nonzero" stroke="none" d="m 851.059,265.457 h -11.688 v 65.496 h 11.688 v -21.004 c 2.089,2.274 5.421,4.082 9.796,4.082 9.598,0 15.586,-6.554 15.586,-16.25 v -32.324 h -11.789 v 30.801 c 0,4.465 -2.285,7.031 -6.746,7.031 -3.996,0 -6.847,-2.566 -6.847,-7.031 v -30.801"/><path id="path74" fill="#231f20" fill-opacity="1" fill-rule="nonzero" stroke="none" d="m 907.594,275.059 c 1.609,0.379 2.937,2 2.937,4.175 0,2.286 -1.226,3.907 -2.851,4.375 -1.043,0.286 -2.657,0.286 -4.082,0.286 -1.422,0 -2.95,0 -3.993,-0.286 -1.804,-0.468 -2.851,-2.089 -2.851,-4.375 0,-2.175 1.23,-3.796 2.851,-4.175 1.141,-0.286 2.665,-0.286 3.993,-0.286 1.523,0 2.953,0 3.996,0.286 z m -5.703,-9.985 c -3.235,0 -4.754,0.196 -6.758,0.766 -5.988,1.707 -9.5,6.648 -9.5,13.594 0,7.222 4.375,11.304 9.5,12.832 2.004,0.562 4.187,0.757 7.422,0.757 2.851,0 5.222,-0.476 7.031,-1.238 v 5.801 c 0,3.809 -2.371,6.086 -6.082,6.086 -3.234,0 -5.703,-1.527 -7.609,-5.988 l -9.122,5.988 c 3.614,7.129 8.36,10.359 17.305,10.359 11.024,0 17.293,-7.414 17.293,-15.968 v -32.606 h -9.316 l -0.465,3.328 c -0.578,-0.574 -1.145,-1.043 -1.621,-1.426 -1.614,-1.425 -4.66,-2.285 -8.078,-2.285"/><path id="path76" fill="#231f20" fill-opacity="1" fill-rule="nonzero" stroke="none" d="m 947.293,302.723 v -37.266 h -11.691 v 37.266 h -5.325 v 10.261 h 5.325 v 3.996 c 0,9.317 5.703,14.922 14.074,14.922 4.746,0 7.594,-1.047 10.262,-2.656 l -3.711,-9.414 c -1.426,0.859 -2.852,1.238 -4.844,1.238 -2.383,0 -4.09,-1.718 -4.09,-4.656 v -3.43 h 9.41 v -10.261 h -9.41"/><path id="path78" fill="#231f20" fill-opacity="1" fill-rule="nonzero" stroke="none" d="m 981.031,264.695 c -7.988,0 -13.789,5.52 -13.789,14.922 v 23.106 h -5.32 v 10.261 h 5.32 v 12.93 h 11.688 v -12.93 h 11.41 V 302.723 H 978.93 V 279.91 c 0,-2.949 1.718,-4.656 4.281,-4.656 1.805,0 3.426,0.562 4.852,1.891 l 3.417,-9.5 c -2.375,-1.907 -5.507,-2.95 -10.449,-2.95"/><path id="path80" fill="#231f20" fill-opacity="1" fill-rule="nonzero" stroke="none" d="m 1032.89,290.84 v -14.262 h 8.37 c 4.08,0 6.74,3.137 6.74,7.317 0,3.996 -2.66,6.945 -6.74,6.945 z m 0,25.758 v -15.496 h 6.94 c 4.37,0 7.6,3.332 7.6,7.8 0,4.465 -3.23,7.696 -7.6,7.696 z m -12.17,-51.141 v 62.078 h 19.86 c 11.22,0 18.93,-6.844 18.93,-18.062 0,-4.375 -1.91,-9.219 -6.95,-12.739 5.61,-3.523 7.71,-8.55 7.71,-13.406 0,-11.125 -7.32,-17.871 -18.26,-17.871 h -21.29"/><path id="path82" fill="#231f20" fill-opacity="1" fill-rule="nonzero" stroke="none" d="m 1080.76,297.398 c -0.2,-0.859 -0.29,-2 -0.29,-3.328 h 14.07 c 0,1.809 -0.09,2.754 -0.19,3.328 -0.57,3.899 -2.66,6.274 -6.75,6.274 -4.19,0 -6.18,-2.277 -6.84,-6.274 z m 24.71,2.856 c 0.57,-2.387 0.67,-4.563 0.67,-8.09 0,-2.09 0,-4.559 -0.1,-7.41 h -25.57 c 0,-1.231 0.09,-2.285 0.29,-3.234 0.76,-4.082 3.23,-6.461 7.61,-6.461 3.41,0 6.84,0.855 9.69,5.601 l 7.6,-7.312 c -4.28,-6.282 -10.64,-8.836 -17.49,-8.836 -10.17,0 -16.54,5.789 -18.54,13.777 -0.76,3.137 -0.85,5.801 -0.85,11.024 0,5.136 0.09,7.804 0.85,10.941 2,8.172 8.37,13.777 18.16,13.777 9.6,0 15.78,-5.703 17.68,-13.777"/><path id="path84" fill="#231f20" fill-opacity="1" fill-rule="nonzero" stroke="none" d="m 1128.07,265.457 h -11.69 v 47.527 h 9.89 l 0.66,-4.656 c 2.47,4.094 6.08,5.52 9.98,5.52 0.86,0 2.38,0 4.19,-0.285 v -11.504 c -2.95,0.566 -4.95,0.566 -6.18,0.566 -4,0 -6.85,-2.371 -6.85,-7.129 v -30.039"/><path id="path86" fill="#231f20" fill-opacity="1" fill-rule="nonzero" stroke="none" d="m 1161.31,277.438 c 0.67,-1.141 2.01,-1.715 3.81,-1.715 1.43,0 2.38,0.293 3.04,0.476 v -10.558 c -1.33,-0.282 -3.52,-0.465 -5.22,-0.465 -6.37,0 -10.94,2.847 -12.84,7.312 -0.86,2.102 -1.24,4.657 -1.24,7.227 v 51.238 h 11.79 v -50.957 c 0,-0.945 0.2,-1.805 0.66,-2.558"/><path id="path88" fill="#231f20" fill-opacity="1" fill-rule="nonzero" stroke="none" d="m 1176.42,265.457 v 47.527 h 11.79 v -47.527 z m -1.42,59.414 c 0,3.801 3.13,7.031 7.21,7.031 4,0 7.23,-3.23 7.23,-7.031 0,-3.801 -3.23,-7.226 -7.23,-7.226 -4.08,0 -7.21,3.425 -7.21,7.226"/><path id="path90" fill="#231f20" fill-opacity="1" fill-rule="nonzero" stroke="none" d="m 1212.14,265.457 h -11.69 v 47.527 h 9.99 l 0.56,-4.273 c 2.47,3.512 6.47,5.32 10.94,5.32 9.6,0 15.59,-6.554 15.59,-16.25 v -32.324 h -11.79 v 30.801 c 0,4.465 -2.29,7.031 -6.75,7.031 -3.99,0 -6.85,-2.566 -6.85,-7.031 v -30.801"/><path id="path92" fill="#73c82c" fill-opacity="1" fill-rule="nonzero" stroke="none" d="m 450.766,153.785 h 9.394 v -25.308 c 0,-8.071 -0.359,-11.332 -1.551,-14.289 -2.363,-5.997 -7.921,-9.473 -16.132,-9.473 -8.282,0 -13.84,3.476 -16.133,9.402 -1.184,3.028 -1.621,6.289 -1.621,14.36 v 25.308 h 9.394 v -25.762 c 0,-6.062 0.078,-7.324 0.438,-8.875 0.824,-3.253 3.183,-5.625 7.922,-5.625 4.738,0 7.031,2.293 7.773,5.547 0.371,1.563 0.516,2.891 0.516,8.953 v 25.762"/><path id="path94" fill="#73c82c" fill-opacity="1" fill-rule="nonzero" stroke="none" d="m 478.668,105.457 h -9.102 v 37 h 7.762 l 0.449,-3.328 c 1.926,2.734 5.032,4.141 8.508,4.141 7.481,0 12.141,-5.098 12.141,-12.649 v -25.164 h -9.184 v 23.977 c 0,3.472 -1.773,5.476 -5.254,5.476 -3.101,0 -5.32,-2.004 -5.32,-5.476 v -23.977"/><path id="path96" fill="#73c82c" fill-opacity="1" fill-rule="nonzero" stroke="none" d="m 507.23,105.457 v 37 h 9.172 v -37 z m -1.113,46.25 c 0,2.957 2.442,5.477 5.625,5.477 3.106,0 5.625,-2.52 5.625,-5.477 0,-2.961 -2.519,-5.625 -5.625,-5.625 -3.183,0 -5.625,2.664 -5.625,5.625"/><path id="path98" fill="#73c82c" fill-opacity="1" fill-rule="nonzero" stroke="none" d="m 534.535,105.457 c -2.812,5.703 -6.289,14.285 -8.437,19.758 -1.551,3.926 -2.442,8.582 -2.442,12.137 v 5.105 h 9.035 v -5.105 c 0,-2.586 0.664,-6.512 1.844,-10.059 1.113,-3.406 3.477,-8.438 4.516,-14.211 h 0.301 c 1.035,5.773 3.476,10.805 4.578,14.211 1.047,3.105 1.781,7.473 1.781,10.059 v 5.105 h 9.031 v -5.105 c 0,-3.555 -0.812,-8.36 -2.297,-12.137 -2.144,-5.473 -5.847,-14.055 -8.582,-19.758 h -9.328"/><path id="path100" fill="#73c82c" fill-opacity="1" fill-rule="nonzero" stroke="none" d="m 569.762,130.32 c -0.149,-0.664 -0.227,-1.554 -0.227,-2.59 h 10.957 c 0,1.411 -0.074,2.153 -0.144,2.59 -0.45,3.035 -2.082,4.883 -5.254,4.883 -3.262,0 -4.817,-1.769 -5.332,-4.883 z M 589,132.547 c 0.449,-1.856 0.516,-3.555 0.516,-6.301 0,-1.617 0,-3.543 -0.067,-5.769 h -19.914 c 0,-0.957 0.078,-1.778 0.227,-2.508 0.593,-3.188 2.519,-5.039 5.918,-5.039 2.664,0 5.332,0.672 7.547,4.375 l 5.918,-5.703 c -3.329,-4.883 -8.282,-6.887 -13.614,-6.887 -7.918,0 -12.879,4.512 -14.433,10.73 -0.586,2.446 -0.664,4.512 -0.664,8.586 0,3.992 0.078,6.074 0.664,8.516 1.554,6.355 6.515,10.723 14.14,10.723 7.473,0 12.285,-4.434 13.762,-10.723"/><path id="path102" fill="#73c82c" fill-opacity="1" fill-rule="nonzero" stroke="none" d="m 606.176,105.457 h -9.102 v 37 h 7.696 l 0.519,-3.621 c 1.926,3.184 4.734,4.285 7.762,4.285 0.676,0 1.855,0 3.262,-0.215 v -8.953 c -2.293,0.438 -3.844,0.438 -4.813,0.438 -3.105,0 -5.324,-1.844 -5.324,-5.543 v -23.391"/><path id="path104" fill="#73c82c" fill-opacity="1" fill-rule="nonzero" stroke="none" d="m 637.254,126.844 c 5.332,-2 9.246,-4.141 9.246,-11.106 0,-6.433 -5.254,-11.023 -12.949,-11.023 -6.875,0 -11.985,3.039 -14.129,7.844 l 6.512,5.41 c 1.843,-3.039 4.14,-5.039 7.761,-5.039 1.926,0 3.489,0.816 3.489,2.593 0,2.075 -1.258,2.59 -4.446,3.774 l -2.89,1.031 c -6.805,2.524 -9.024,5.852 -9.024,11.543 0,6.516 5.403,11.399 12.805,11.399 8.879,0 12.723,-4.582 12.723,-11.543 0,-0.586 0,-1.18 -0.067,-1.778 h -9.101 c 0.07,0.371 0.07,0.821 0.07,1.114 0,3.41 -1.926,4.14 -3.774,4.14 -2.371,0 -3.554,-1.621 -3.554,-3.254 0,-1.922 1.554,-2.957 4.59,-4.07 l 2.738,-1.035"/><path id="path106" fill="#73c82c" fill-opacity="1" fill-rule="nonzero" stroke="none" d="m 654.129,105.457 v 37 h 9.168 v -37 z m -1.117,46.25 c 0,2.957 2.441,5.477 5.625,5.477 3.105,0 5.625,-2.52 5.625,-5.477 0,-2.961 -2.52,-5.625 -5.625,-5.625 -3.184,0 -5.625,2.664 -5.625,5.625"/><path id="path108" fill="#73c82c" fill-opacity="1" fill-rule="nonzero" stroke="none" d="m 684.684,104.859 c -6.211,0 -10.723,4.297 -10.723,11.621 v 17.993 h -4.152 v 7.984 h 4.152 v 10.07 h 9.102 v -10.07 h 8.875 v -7.984 h -8.875 v -17.766 c 0,-2.297 1.328,-3.625 3.328,-3.625 1.41,0 2.668,0.441 3.769,1.477 l 2.668,-7.403 c -1.848,-1.472 -4.285,-2.297 -8.144,-2.297"/><path id="path110" fill="#73c82c" fill-opacity="1" fill-rule="nonzero" stroke="none" d="m 698.598,91.6875 v 8.3715 c 0.957,-0.1488 1.925,-0.1488 3.254,-0.1488 2.214,0 3.621,0.5858 5.109,3.8478 l 1.031,2.297 c -3.25,6.875 -6.949,14.722 -8.953,19.527 -1.777,4.223 -2.297,7.922 -2.297,11.621 v 5.254 h 9.406 v -5.254 c 0,-2.586 0.442,-5.625 1.622,-8.808 1.257,-3.473 3.781,-8.438 4.738,-14.129 h 0.301 c 1.101,6.14 3.621,11.394 4.66,14.129 1.258,3.261 1.629,6.222 1.629,8.808 v 5.254 h 9.328 v -5.254 c 0,-3.699 -0.598,-7.691 -2.231,-11.621 -2.359,-5.769 -7.468,-17.906 -11.023,-25.152 -2.734,-5.6253 -5.996,-9.1839 -12.363,-9.1839 -0.879,0 -1.926,0 -4.211,0.4414"/><path id="path112" fill="#73c82c" fill-opacity="1" fill-rule="nonzero" stroke="none" d="m 769.398,117.371 c 0.52,2.219 0.52,4.442 0.52,6.66 0,2.149 0,4.512 -0.52,6.739 -0.585,2.363 -2.437,4.433 -5.691,4.433 -3.184,0 -5.187,-1.992 -5.703,-4.656 -0.371,-2.004 -0.441,-4.367 -0.441,-6.516 0,-2.218 0.07,-4.441 0.441,-6.433 0.516,-2.668 2.519,-4.668 5.703,-4.668 3.254,0 5.106,2.078 5.691,4.441 z m -20.203,-1.926 c -0.586,2.446 -0.664,4.512 -0.664,8.586 0,3.992 0.078,6.074 0.664,8.516 1.485,6.289 7.11,10.723 14.657,10.723 7.55,0 12.949,-4.434 14.503,-10.723 0.594,-2.442 0.665,-4.524 0.665,-8.516 0,-4.074 -0.071,-6.14 -0.665,-8.586 -1.472,-6.218 -7.179,-10.73 -14.804,-10.73 -7.473,0 -12.805,4.512 -14.356,10.73"/><path id="path114" fill="#73c82c" fill-opacity="1" fill-rule="nonzero" stroke="none" d="m 797.738,134.473 v -29.016 h -9.101 v 29.016 h -4.141 v 7.984 h 4.141 v 3.106 c 0,7.257 4.445,11.621 10.957,11.621 3.691,0 5.918,-0.809 7.992,-2.071 l -2.895,-7.324 c -1.101,0.664 -2.214,0.957 -3.765,0.957 -1.848,0 -3.188,-1.324 -3.188,-3.621 v -2.668 h 7.325 v -7.984 h -7.325"/><path id="path116" fill="#73c82c" fill-opacity="1" fill-rule="nonzero" stroke="none" d="m 841.551,143.785 -6,-19.527 h 12.062 z m -8.735,-38.328 h -9.472 v 5.332 c 0,3.543 0.957,9.024 2.297,12.871 l 10.429,30.125 h 11.172 l 10.36,-30.191 c 1.339,-3.781 2.296,-9.262 2.296,-12.805 v -5.332 h -9.394 v 5.332 c 0,1.328 -0.149,3.25 -0.449,4.949 h -16.797 c -0.293,-1.699 -0.442,-3.621 -0.442,-4.949 v -5.332"/><path id="path118" fill="#73c82c" fill-opacity="1" fill-rule="nonzero" stroke="none" d="m 876.258,130.105 c -0.293,-1.484 -0.293,-3.859 -0.293,-6.074 0,-2.297 0,-4.441 0.293,-5.918 0.664,-3.183 2.73,-5.254 5.996,-5.254 3.25,0 5.398,2.071 5.992,5.254 0.297,1.477 0.363,3.621 0.363,5.918 0,2.215 -0.066,4.59 -0.363,6.074 -0.594,3.172 -2.742,5.176 -5.992,5.176 -3.266,0 -5.332,-2.004 -5.996,-5.176 z m -0.293,-22.871 V 91.4727 h -9.106 v 50.9843 h 7.618 l 0.453,-2.957 c 1.992,2.219 4.949,3.77 9.312,3.77 6.66,0 11.399,-4.368 12.735,-10.801 0.519,-2.586 0.664,-4.367 0.664,-8.438 0,-4.074 -0.145,-6.211 -0.664,-8.73 -1.336,-6.438 -6.59,-10.586 -13.321,-10.586 -3.328,0 -5.847,0.969 -7.691,2.519"/><path id="path120" fill="#73c82c" fill-opacity="1" fill-rule="nonzero" stroke="none" d="m 914.809,130.105 c -0.293,-1.484 -0.293,-3.859 -0.293,-6.074 0,-2.297 0,-4.441 0.293,-5.918 0.664,-3.183 2.738,-5.254 5.996,-5.254 3.254,0 5.402,2.071 6,5.254 0.289,1.477 0.359,3.621 0.359,5.918 0,2.215 -0.07,4.59 -0.359,6.074 -0.598,3.172 -2.746,5.176 -6,5.176 -3.258,0 -5.332,-2.004 -5.996,-5.176 z m -0.293,-22.871 V 91.4727 h -9.098 v 50.9843 h 7.613 l 0.449,-2.957 c 1.993,2.219 4.954,3.77 9.321,3.77 6.66,0 11.394,-4.368 12.73,-10.801 0.52,-2.586 0.664,-4.367 0.664,-8.438 0,-4.074 -0.144,-6.211 -0.664,-8.73 -1.336,-6.438 -6.59,-10.586 -13.316,-10.586 -3.332,0 -5.852,0.969 -7.699,2.519"/><path id="path122" fill="#73c82c" fill-opacity="1" fill-rule="nonzero" stroke="none" d="m 953.512,114.781 c 0.515,-0.886 1.551,-1.336 2.957,-1.336 1.117,0 1.855,0.227 2.375,0.371 v -8.214 c -1.035,-0.223 -2.746,-0.372 -4.074,-0.372 -4.961,0 -8.512,2.227 -9.989,5.704 -0.664,1.625 -0.968,3.625 -0.968,5.625 v 39.882 h 9.179 v -39.668 c 0,-0.73 0.149,-1.406 0.52,-1.992"/><path id="path124" fill="#73c82c" fill-opacity="1" fill-rule="nonzero" stroke="none" d="m 964.535,105.457 v 37 h 9.172 v -37 z m -1.109,46.25 c 0,2.957 2.437,5.477 5.625,5.477 3.101,0 5.625,-2.52 5.625,-5.477 0,-2.961 -2.524,-5.625 -5.625,-5.625 -3.188,0 -5.625,2.664 -5.625,5.625"/><path id="path126" fill="#73c82c" fill-opacity="1" fill-rule="nonzero" stroke="none" d="m 990.805,130.32 c -0.145,-0.664 -0.223,-1.554 -0.223,-2.59 h 10.958 c 0,1.411 -0.08,2.153 -0.15,2.59 -0.45,3.035 -2.077,4.883 -5.253,4.883 -3.258,0 -4.813,-1.769 -5.332,-4.883 z m 19.235,2.227 c 0.45,-1.856 0.52,-3.555 0.52,-6.301 0,-1.617 0,-3.543 -0.07,-5.769 h -19.908 c 0,-0.957 0.078,-1.778 0.223,-2.508 0.597,-3.188 2.519,-5.039 5.918,-5.039 2.668,0 5.337,0.672 7.547,4.375 l 5.92,-5.703 c -3.33,-4.883 -8.28,-6.887 -13.612,-6.887 -7.922,0 -12.883,4.512 -14.433,10.73 -0.586,2.446 -0.665,4.512 -0.665,8.586 0,3.992 0.079,6.074 0.665,8.516 1.55,6.355 6.511,10.723 14.14,10.723 7.475,0 12.285,-4.434 13.755,-10.723"/><path id="path128" fill="#73c82c" fill-opacity="1" fill-rule="nonzero" stroke="none" d="m 1038.09,118.113 c 0.37,1.7 0.37,3.7 0.37,5.996 0,2.293 0,4.219 -0.37,5.996 -0.67,3.172 -2.74,5.176 -5.99,5.176 -3.27,0 -5.34,-2.004 -5.92,-5.176 -0.31,-1.484 -0.31,-3.703 -0.31,-5.996 0,-2.296 0,-4.519 0.31,-5.996 0.58,-3.183 2.65,-5.254 5.92,-5.254 3.25,0 5.32,2.071 5.99,5.254 z m 1.41,-9.765 c -2,-2.082 -4.89,-3.633 -9.18,-3.633 -6.66,0 -11.48,4.363 -12.88,10.808 -0.52,2.512 -0.67,4.434 -0.67,8.508 0,4.071 0.15,6.223 0.67,8.731 1.26,6.445 6.66,10.508 13.25,10.508 3.4,0 5.92,-0.957 7.77,-2.442 v 15.613 h 9.1 v -50.984 h -7.62 l -0.44,2.891"/><path id="path130" fill="#73c82c" fill-opacity="1" fill-rule="nonzero" stroke="none" d="m 1069.17,114.41 7.32,5.996 c 2.29,-4.812 5.48,-6.883 9.25,-6.883 3.47,0 5.54,1.778 5.54,4.883 0,2.664 -2.13,4.512 -4.65,5.625 l -5.11,2.293 c -6.95,3.188 -10.14,7.324 -10.14,13.774 0,8.504 6,14.422 14.73,14.422 7.99,0 14.87,-4.368 14.87,-15.469 0,-0.664 0,-1.328 -0.07,-2.071 h -9.47 c 0.07,0.665 0.07,1.336 0.07,2 0,4.219 -1.55,6.887 -5.55,6.887 -3.33,0 -5.18,-2.004 -5.18,-5.105 0,-2.231 0.82,-4.297 4.29,-5.918 l 6.15,-2.895 c 6.95,-3.25 9.69,-7.469 9.69,-12.945 0,-8.957 -6.07,-14.289 -15.91,-14.289 -7.55,0 -12.88,3.992 -15.83,9.695"/><path id="path132" fill="#73c82c" fill-opacity="1" fill-rule="nonzero" stroke="none" d="m 1108.24,115.445 c -0.6,2.446 -0.74,4.512 -0.74,8.586 0,3.992 0.14,6.145 0.74,8.66 1.47,6.211 6.29,10.579 13.91,10.579 7.1,0 12.06,-3.028 13.54,-9.915 0.3,-1.484 0.45,-3.035 0.45,-4.812 v -1.105 h -8.96 v 0.585 c 0,1.036 0,1.711 -0.07,2.297 -0.44,3.262 -2.14,4.883 -5.18,4.883 -3.18,0 -4.59,-1.926 -5.11,-5.098 -0.22,-1.339 -0.22,-3.925 -0.22,-6.074 0,-2.218 0,-4.367 0.22,-5.691 0.6,-3.266 2.3,-5.41 5.77,-5.41 3.48,0 5.78,2.144 7.26,4.961 l 6.06,-5.852 c -2.73,-4.883 -8.06,-7.324 -13.46,-7.324 -8,0 -12.74,4.441 -14.21,10.73"/><path id="path134" fill="#73c82c" fill-opacity="1" fill-rule="nonzero" stroke="none" d="m 1142.87,105.457 v 37 h 9.17 v -37 z m -1.12,46.25 c 0,2.957 2.45,5.477 5.63,5.477 3.1,0 5.62,-2.52 5.62,-5.477 0,-2.961 -2.52,-5.625 -5.62,-5.625 -3.18,0 -5.63,2.664 -5.63,5.625"/><path id="path136" fill="#73c82c" fill-opacity="1" fill-rule="nonzero" stroke="none" d="m 1169.14,130.32 c -0.15,-0.664 -0.23,-1.554 -0.23,-2.59 h 10.96 c 0,1.411 -0.08,2.153 -0.15,2.59 -0.45,3.035 -2.08,4.883 -5.25,4.883 -3.26,0 -4.82,-1.769 -5.33,-4.883 z m 19.23,2.227 c 0.45,-1.856 0.52,-3.555 0.52,-6.301 0,-1.617 0,-3.543 -0.07,-5.769 h -19.91 c 0,-0.957 0.08,-1.778 0.23,-2.508 0.59,-3.188 2.52,-5.039 5.91,-5.039 2.67,0 5.34,0.672 7.55,4.375 l 5.92,-5.703 c -3.33,-4.883 -8.28,-6.887 -13.61,-6.887 -7.92,0 -12.88,4.512 -14.44,10.73 -0.58,2.446 -0.66,4.512 -0.66,8.586 0,3.992 0.08,6.074 0.66,8.516 1.56,6.355 6.52,10.723 14.15,10.723 7.47,0 12.28,-4.434 13.75,-10.723"/><path id="path138" fill="#73c82c" fill-opacity="1" fill-rule="nonzero" stroke="none" d="m 1205.54,105.457 h -9.1 v 37 h 7.76 l 0.45,-3.328 c 1.93,2.734 5.03,4.141 8.51,4.141 7.48,0 12.14,-5.098 12.14,-12.649 v -25.164 h -9.18 v 23.977 c 0,3.472 -1.78,5.476 -5.25,5.476 -3.11,0 -5.33,-2.004 -5.33,-5.476 v -23.977"/><path id="path140" fill="#73c82c" fill-opacity="1" fill-rule="nonzero" stroke="none" d="m 1233.52,115.445 c -0.59,2.446 -0.74,4.512 -0.74,8.586 0,3.992 0.15,6.145 0.74,8.66 1.48,6.211 6.29,10.579 13.92,10.579 7.1,0 12.06,-3.028 13.53,-9.915 0.31,-1.484 0.45,-3.035 0.45,-4.812 v -1.105 h -8.95 v 0.585 c 0,1.036 0,1.711 -0.08,2.297 -0.44,3.262 -2.14,4.883 -5.18,4.883 -3.18,0 -4.59,-1.926 -5.1,-5.098 -0.23,-1.339 -0.23,-3.925 -0.23,-6.074 0,-2.218 0,-4.367 0.23,-5.691 0.59,-3.266 2.29,-5.41 5.77,-5.41 3.47,0 5.77,2.144 7.25,4.961 l 6.07,-5.852 c -2.74,-4.883 -8.07,-7.324 -13.47,-7.324 -8,0 -12.73,4.441 -14.21,10.73"/><path id="path142" fill="#73c82c" fill-opacity="1" fill-rule="nonzero" stroke="none" d="m 1276.51,130.32 c -0.15,-0.664 -0.23,-1.554 -0.23,-2.59 h 10.96 c 0,1.411 -0.08,2.153 -0.14,2.59 -0.45,3.035 -2.08,4.883 -5.26,4.883 -3.26,0 -4.81,-1.769 -5.33,-4.883 z m 19.24,2.227 c 0.45,-1.856 0.52,-3.555 0.52,-6.301 0,-1.617 0,-3.543 -0.07,-5.769 h -19.92 c 0,-0.957 0.08,-1.778 0.23,-2.508 0.6,-3.188 2.52,-5.039 5.92,-5.039 2.66,0 5.33,0.672 7.55,4.375 l 5.91,-5.703 c -3.33,-4.883 -8.28,-6.887 -13.61,-6.887 -7.92,0 -12.88,4.512 -14.43,10.73 -0.59,2.446 -0.67,4.512 -0.67,8.586 0,3.992 0.08,6.074 0.67,8.516 1.55,6.355 6.51,10.723 14.14,10.723 7.47,0 12.28,-4.434 13.76,-10.723"/><path id="path144" fill="#73c82c" fill-opacity="1" fill-rule="nonzero" stroke="none" d="m 1319.13,126.844 c 5.33,-2 9.24,-4.141 9.24,-11.106 0,-6.433 -5.25,-11.023 -12.94,-11.023 -6.88,0 -11.99,3.039 -14.14,7.844 l 6.52,5.41 c 1.84,-3.039 4.14,-5.039 7.76,-5.039 1.93,0 3.49,0.816 3.49,2.593 0,2.075 -1.26,2.59 -4.44,3.774 l -2.9,1.031 c -6.8,2.524 -9.02,5.852 -9.02,11.543 0,6.516 5.4,11.399 12.8,11.399 8.88,0 12.73,-4.582 12.73,-11.543 0,-0.586 0,-1.18 -0.07,-1.778 h -9.1 c 0.07,0.371 0.07,0.821 0.07,1.114 0,3.41 -1.93,4.14 -3.77,4.14 -2.38,0 -3.56,-1.621 -3.56,-3.254 0,-1.922 1.56,-2.957 4.59,-4.07 l 2.74,-1.035"/><path id="path146" fill="#73c82c" fill-opacity="1" fill-rule="nonzero" stroke="none" d="m 796.902,690.816 h 53.149 v -106.3 h -53.149 v 106.3 0"/><path id="path148" fill="#73c82c" fill-opacity="1" fill-rule="nonzero" stroke="none" d="m 903.199,584.516 v -53.145 h -53.148 v 53.145 h 53.148 v 0"/><path id="path150" fill="#73c82c" fill-opacity="1" fill-rule="nonzero" stroke="none" d="m 424.855,743.969 h 53.149 v -53.153 h 53.148 v -53.148 h -53.148 v -53.152 h 53.148 v -53.145 h -53.148 c -29.356,0 -53.149,23.793 -53.149,53.145 0.208,-0.024 0,159.453 0,159.453 v 0"/><path id="path152" fill="#73c82c" fill-opacity="1" fill-rule="nonzero" stroke="none" d="m 584.301,690.816 h 53.152 v -106.3 h 53.149 v 106.3 h 53.148 v -106.3 h 53.152 V 531.371 H 637.453 c -29.355,0 -53.152,23.793 -53.152,53.145 v 106.3 0"/><path id="path154" fill="#73c82c" fill-opacity="1" fill-rule="nonzero" stroke="none" d="M 265.406,637.668 V 531.371 h -53.148 v 106.297 h 53.148 v 0"/><path id="path156" fill="#73c82c" fill-opacity="1" fill-rule="nonzero" stroke="none" d="m 265.406,743.969 v -53.153 h -53.148 v 53.153 h 53.148 v 0"/><path id="path158" fill="#73c82c" fill-opacity="1" fill-rule="nonzero" stroke="none" d="m 265.379,690.816 53.148,0.008 c 29.356,0 53.176,-23.808 53.176,-53.156 V 531.371 h -53.148 v 106.297 h -53.149 l -0.027,53.148 v 0"/></g></g></svg>