<svg id="logo" xmlns="http://www.w3.org/2000/svg" viewBox="0 0 1423 848"><style>.st0{fill:#007bc7}.st1{fill:#d52b1e}</style><path class="st0" d="M68.8 523.2v-56c0-15.9-9.3-22.9-18.5-22.9-12.6.4-22.5 10.9-22.2 23.5v55.5H0V421.6h24.6l2.4 14.1 3.5-4.3c7.3-9.4 20-11.3 29.4-11.3 24.3.3 36 15.7 35.7 47v56.2l-26.8-.1zm90.2 1.4c-12.4.3-24.4-4.4-33.2-13.1-10.3-11.1-15.7-25.9-15.2-41 .3-24.5 13.3-50.7 48.7-50.7 9.9-.3 19.5 4.1 25.6 11.9l3.5 4.5 2.4-14.6H215v101.6h-26.3v-14.6l-3.8 4.8c-6.4 7.6-16 11.8-25.9 11.2zm3.7-80.7c-17.4 0-25.6 14.2-25.6 27.4-.2 7.7 2.6 15.3 7.9 20.9 4.7 4.7 11.2 7.3 17.8 7.1 15.3 0 27.8-12.4 27.8-27.8s-12.4-27.8-27.8-27.8l-.1.2zm146.4-22.3h26.7v101.6h-26.7zm94.8 105.1c-26 0-54-17.1-54-54.3s27.9-54.5 53.9-54.5 54 17.1 54 54.5-28 54.3-53.9 54.3zm0-83.4c-13.3 0-27.6 9.1-27.6 29.1-1 14.9 10.2 27.8 25.1 28.8.8.1 1.7.1 2.5.1 7 0 13.7-2.6 18.8-7.4 5.8-5.7 8.9-13.5 8.5-21.6 0-19.8-14.1-28.9-27.3-29zm137.4 79.9v-56c0-15.9-9.3-22.9-18.5-22.9-12.6.4-22.5 10.9-22.2 23.5v55.5h-28.1V421.6h24.6l2.4 14.1 3.5-4.3c7.3-9.4 20-11.3 29.4-11.3 24.3.3 36 15.7 35.7 47v56.2l-26.8-.1zm90.2 1.4c-12.4.3-24.4-4.4-33.2-13.1-10.3-11.1-15.7-25.9-15.2-41 .3-24.5 13.3-50.7 48.7-50.7 9.9-.3 19.5 4.1 25.6 11.9l3.5 4.3 2.4-14.6h24.2V523h-26.2v-14.6l-3.8 4.8c-6.3 7.7-16 12-26 11.4zm3.7-80.7c-17.4 0-25.6 14.2-25.6 27.4-.2 7.7 2.6 15.3 7.9 20.9 4.7 4.7 11.2 7.3 17.8 7.1 15.3 0 27.8-12.4 27.8-27.8s-12.5-27.7-27.9-27.6zm116.5 80.7c-12.4.3-24.4-4.4-33.2-13.1-10.3-11.1-15.7-25.9-15.2-41 .3-24.5 13.3-50.7 48.7-50.7 9.9-.3 19.5 4.1 25.6 11.9l3.5 4.5 2.4-14.6h24.2v101.6h-26.2v-14.6l-3.8 4.8c-6.4 7.7-16.1 11.8-26 11.2zm3.7-80.7c-17.4 0-25.6 14.2-25.6 27.4-.2 7.7 2.6 15.3 7.9 20.9 4.7 4.7 11.2 7.3 17.8 7.1 15.3 0 27.8-12.4 27.8-27.8-.1-15.3-12.5-27.7-27.9-27.6zm71.5-53.5h26.8v132.8h-26.8z"/><circle class="st0" cx="322.4" cy="398.3" r="14.6"/><path class="st0" d="M290.9 421.6h-17.6v-21.9h-26.8v21.9h-17.6v21.7h17.6v79.9h26.8v-79.9h17.6zm-27.9 284c-12.4.3-24.4-4.4-33.2-13.1-10.2-11.1-15.7-25.9-15.2-41 .3-24.5 13.3-50.8 48.7-50.8 9.9-.3 19.5 4.1 25.6 11.9l3.5 4.5 2.4-14.6H319v101.6h-26.3v-14.6l-3.8 4.8c-6.3 7.7-15.9 11.9-25.9 11.3zm3.8-80.7c-17.4 0-25.6 14.2-25.6 27.4-.2 7.7 2.6 15.3 7.9 20.9 4.7 4.7 11.2 7.3 17.8 7.1 15.3 0 27.8-12.4 27.8-27.8 0-15.3-12.4-27.8-27.8-27.8l-.1.2zm74.4 79.3V602.6h23.6l1.5 9.3 2.9-2.8c5.7-5.6 13.4-8.7 21.4-8.5 3.2 0 6.5.4 9.7 1.1L400 626c-2.7-.6-5.4-.9-8.2-.9-11.3 0-24.5 6.2-24.5 22.5v56.6h-26.1zm114.9 1.1c-24.6 0-51.3-16.3-51.3-52 0-35.8 26.5-52 51.3-52 25-.7 46.5 17.4 50.2 42.2h-26.2c-3.4-10.3-13.1-17.3-24-17.4-12.8 0-25.6 9.4-25.6 27.4s12.8 27.5 25.6 27.5c10.9 0 20.6-7 24-17.3h26.2c-3.9 24.4-25.4 42.3-50.2 41.6zm271.8 0c-24.5-.6-50.9-17.1-50.9-52.3 0-35.2 27-52.1 52.2-52.1s52.1 16.6 52.1 52.1c0 3.3-.3 6.7-.8 10h-76.9l1.1 2.9c5.9 13.7 21.8 20 35.5 14.1 2.8-1.2 5.4-2.9 7.7-5h29.4c-8.5 18.9-27.5 30.9-48.2 30.3h-1.2zm.8-81.9c-10.6-.2-20 6.9-22.7 17.1l-.9 2.8h47.8l-.8-2.7c-2.7-10.6-12.5-17.7-23.4-17.2zm-93.3-20.8h26.7v101.6h-26.7z"/><circle class="st0" cx="648.8" cy="579.2" r="14.6"/><path class="st0" d="M839.7 590.1c1.3-.2 2.6-.3 3.9-.3 2.4 0 4.9.3 7.3.7l2.8-22.8c-4.6-.8-9.2-1.1-13.8-1.1-18.5-.6-33.9 13.8-34.6 32.3v3.6h-16.4v21.7h16.5v81.2h26.8v-81.2h17.1v-21.7h-17.1v-1.3c-.1-2.3.6-9.8 7.5-11.1zm-251 113.8v-56.2c0-15.9-9.3-22.9-18.5-22.9-12.6.4-22.5 10.9-22.2 23.5v55.5h-28.1V570.4h27v46l3.5-4.3c7.3-9.4 20-11.3 29.4-11.3 24.3.3 36 15.7 35.7 47V704l-26.8-.1zm545.4-77.2l50.9-92.1 50.9 92.1h65.8L1185 415.6l-116.7 211.1z"/><path class="st1" d="M1185 534.6l50.8 92.1h65.9L1185 415.6z"/><path class="st0" d="M1185 313.5c-131.4 0-238 106.6-238 238s106.6 238 238 238 238-106.6 238-238-106.6-238-238-238m0 427.6c-104.7 0-189.6-84.9-189.6-189.6s84.9-189.6 189.6-189.6c104.7 0 189.6 84.9 189.6 189.6 0 104.7-84.9 189.6-189.6 189.6m41-687.3v106.6L1086.6 50.5v214.6h56.3V160.7L1283.4 268V53.8zM68.8 523.2v-56c0-15.9-9.3-22.9-18.5-22.9-12.6.4-22.5 10.9-22.2 23.5v55.5H0V421.6h24.6l2.4 14.1 3.5-4.3c7.3-9.4 20-11.3 29.4-11.3 24.3.3 36 15.7 35.7 47v56.2l-26.8-.1zm90.2 1.4c-12.4.3-24.4-4.4-33.2-13.1-10.3-11.1-15.7-25.9-15.2-41 .3-24.5 13.3-50.7 48.7-50.7 9.9-.3 19.5 4.1 25.6 11.9l3.5 4.5 2.4-14.6H215v101.6h-26.3v-14.6l-3.8 4.8c-6.4 7.6-16 11.8-25.9 11.2zm3.7-80.7c-17.4 0-25.6 14.2-25.6 27.4-.2 7.7 2.6 15.3 7.9 20.9 4.7 4.7 11.2 7.3 17.8 7.1 15.3 0 27.8-12.4 27.8-27.8s-12.4-27.8-27.8-27.8l-.1.2zm146.4-22.3h26.7v101.6h-26.7zm94.8 105.1c-26 0-54-17.1-54-54.3s27.9-54.5 53.9-54.5 54 17.1 54 54.5-28 54.3-53.9 54.3zm0-83.4c-13.3 0-27.6 9.1-27.6 29.1-1 14.9 10.2 27.8 25.1 28.8.8.1 1.7.1 2.5.1 7 0 13.7-2.6 18.8-7.4 5.8-5.7 8.9-13.5 8.5-21.6 0-19.8-14.1-28.9-27.3-29zm137.4 79.9v-56c0-15.9-9.3-22.9-18.5-22.9-12.6.4-22.5 10.9-22.2 23.5v55.5h-28.1V421.6h24.6l2.4 14.1 3.5-4.3c7.3-9.4 20-11.3 29.4-11.3 24.3.3 36 15.7 35.7 47v56.2l-26.8-.1zm90.2 1.4c-12.4.3-24.4-4.4-33.2-13.1-10.3-11.1-15.7-25.9-15.2-41 .3-24.5 13.3-50.7 48.7-50.7 9.9-.3 19.5 4.1 25.6 11.9l3.5 4.3 2.4-14.6h24.2V523h-26.2v-14.6l-3.8 4.8c-6.3 7.7-16 12-26 11.4zm3.7-80.7c-17.4 0-25.6 14.2-25.6 27.4-.2 7.7 2.6 15.3 7.9 20.9 4.7 4.7 11.2 7.3 17.8 7.1 15.3 0 27.8-12.4 27.8-27.8s-12.5-27.7-27.9-27.6zm116.5 80.7c-12.4.3-24.4-4.4-33.2-13.1-10.3-11.1-15.7-25.9-15.2-41 .3-24.5 13.3-50.7 48.7-50.7 9.9-.3 19.5 4.1 25.6 11.9l3.5 4.5 2.4-14.6h24.2v101.6h-26.2v-14.6l-3.8 4.8c-6.4 7.7-16.1 11.8-26 11.2zm3.7-80.7c-17.4 0-25.6 14.2-25.6 27.4-.2 7.7 2.6 15.3 7.9 20.9 4.7 4.7 11.2 7.3 17.8 7.1 15.3 0 27.8-12.4 27.8-27.8-.1-15.3-12.5-27.7-27.9-27.6zm71.5-53.5h26.8v132.8h-26.8z"/><circle class="st0" cx="322.4" cy="398.3" r="14.6"/><path class="st0" d="M290.9 421.6h-17.6v-21.9h-26.8v21.9h-17.6v21.7h17.6v79.9h26.8v-79.9h17.6zm-27.9 284c-12.4.3-24.4-4.4-33.2-13.1-10.2-11.1-15.7-25.9-15.2-41 .3-24.5 13.3-50.8 48.7-50.8 9.9-.3 19.5 4.1 25.6 11.9l3.5 4.5 2.4-14.6H319v101.6h-26.3v-14.6l-3.8 4.8c-6.3 7.7-15.9 11.9-25.9 11.3zm3.8-80.7c-17.4 0-25.6 14.2-25.6 27.4-.2 7.7 2.6 15.3 7.9 20.9 4.7 4.7 11.2 7.3 17.8 7.1 15.3 0 27.8-12.4 27.8-27.8 0-15.3-12.4-27.8-27.8-27.8l-.1.2zm74.4 79.3V602.6h23.6l1.5 9.3 2.9-2.8c5.7-5.6 13.4-8.7 21.4-8.5 3.2 0 6.5.4 9.7 1.1L400 626c-2.7-.6-5.4-.9-8.2-.9-11.3 0-24.5 6.2-24.5 22.5v56.6h-26.1zm114.9 1.1c-24.6 0-51.3-16.3-51.3-52 0-35.8 26.5-52 51.3-52 25-.7 46.5 17.4 50.2 42.2h-26.2c-3.4-10.3-13.1-17.3-24-17.4-12.8 0-25.6 9.4-25.6 27.4s12.8 27.5 25.6 27.5c10.9 0 20.6-7 24-17.3h26.2c-3.9 24.4-25.4 42.3-50.2 41.6zm271.8 0c-24.5-.6-50.9-17.1-50.9-52.3 0-35.2 27-52.1 52.2-52.1s52.1 16.6 52.1 52.1c0 3.3-.3 6.7-.8 10h-76.9l1.1 2.9c5.9 13.7 21.8 20 35.5 14.1 2.8-1.2 5.4-2.9 7.7-5h29.4c-8.5 18.9-27.5 30.9-48.2 30.3h-1.2zm.8-81.9c-10.6-.2-20 6.9-22.7 17.1l-.9 2.8h47.8l-.8-2.7c-2.7-10.6-12.5-17.7-23.4-17.2zm-93.3-20.8h26.7v101.6h-26.7z"/><circle class="st0" cx="648.8" cy="579.2" r="14.6"/><path class="st0" d="M839.7 590.1c1.3-.2 2.6-.3 3.9-.3 2.4 0 4.9.3 7.3.7l2.8-22.8c-4.6-.8-9.2-1.1-13.8-1.1-18.5-.6-33.9 13.8-34.6 32.3v3.6h-16.4v21.7h16.5v81.2h26.8v-81.2h17.1v-21.7h-17.1v-1.3c-.1-2.3.6-9.8 7.5-11.1zm-251 113.8v-56.2c0-15.9-9.3-22.9-18.5-22.9-12.6.4-22.5 10.9-22.2 23.5v55.5h-28.1V570.4h27v46l3.5-4.3c7.3-9.4 20-11.3 29.4-11.3 24.3.3 36 15.7 35.7 47V704l-26.8-.1zm545.4-77.2l50.9-92.1 50.9 92.1h65.8L1185 415.6l-116.7 211.1z"/><path class="st1" d="M1185 534.6l50.8 92.1h65.9L1185 415.6z"/><path class="st0" d="M1185 313.5c-131.4 0-238 106.6-238 238s106.6 238 238 238 238-106.6 238-238-106.6-238-238-238m0 427.6c-104.7 0-189.6-84.9-189.6-189.6s84.9-189.6 189.6-189.6c104.7 0 189.6 84.9 189.6 189.6 0 104.7-84.9 189.6-189.6 189.6m41-687.3v106.6L1086.6 50.5v214.6h56.3V160.7L1283.4 268V53.8z"/></svg>