<svg xmlns="http://www.w3.org/2000/svg" xmlns:svg="http://www.w3.org/2000/svg" id="svg2" width="200.895" height="70.731" version="1.1" viewBox="0 0 200.895 70.731" xml:space="preserve"><metadata id="metadata8"/><g id="g10" transform="matrix(1.3333333,0,0,-1.3333333,-7.9145865,561.27599)"><g id="g12" transform="scale(0.1)"><g id="g60"><path id="path14" fill="#937b41" fill-opacity="1" fill-rule="evenodd" stroke="none" d="M 559.91,4059.63 H 59.3906 v -28.11 H 559.91 Z m 142.453,-103.75 c 0,-6.45 -2.027,-11.77 -6.086,-15.96 -6.16,-6.37 -16.523,-9.56 -31.089,-9.56 -4.708,0 -9.747,0.25 -15.11,0.76 -5.367,0.51 -10.801,1.45 -16.308,2.83 v 19.76 c 3.699,-1.45 7.753,-2.66 12.175,-3.64 4.422,-0.98 9.098,-1.47 14.024,-1.47 4.707,0 8.062,0.47 10.054,1.42 1.993,0.94 2.989,2.24 2.989,3.91 0,1.95 -1.34,3.39 -4.02,4.34 -0.871,0.28 -3.66,0.94 -8.371,1.95 -8.406,1.74 -14.387,3.69 -17.933,5.86 -6.524,3.99 -9.786,10.07 -9.786,18.25 0,6.66 2.504,12.09 7.504,16.29 6.664,5.57 17.246,8.35 31.739,8.35 4.277,0 8.402,-0.2 12.39,-0.59 3.988,-0.4 8.262,-1.07 12.828,-2.01 v -19.55 c -2.832,1.09 -5.871,1.96 -9.129,2.61 -4.281,0.87 -8.769,1.3 -13.484,1.3 -3.984,0 -6.773,-0.21 -8.367,-0.65 -2.754,-0.72 -4.133,-2.2 -4.133,-4.45 0,-1.88 1.414,-3.26 4.242,-4.13 1.379,-0.43 3.113,-0.83 5.219,-1.2 7.031,-1.37 11.664,-2.42 13.91,-3.14 5.149,-1.67 9.063,-3.98 11.742,-6.95 3.336,-3.62 5,-8.4 5,-14.33 z m 88.84,51.79 -28.59,-52.66 v -23.35 H 733.48 v 23.35 l -28.257,52.66 h 31.738 l 11.738,-31.81 h 0.438 l 11.851,31.81 z m 72.32,-51.79 c 0,-6.45 -2.027,-11.77 -6.085,-15.96 -6.161,-6.37 -16.524,-9.56 -31.09,-9.56 -4.711,0 -9.746,0.25 -15.11,0.76 -5.359,0.51 -10.797,1.45 -16.304,2.83 v 19.76 c 3.695,-1.45 7.75,-2.66 12.171,-3.64 4.422,-0.98 9.094,-1.47 14.024,-1.47 4.711,0 8.062,0.47 10.055,1.42 1.992,0.94 2.992,2.24 2.992,3.91 0,1.95 -1.344,3.39 -4.028,4.34 -0.867,0.28 -3.656,0.94 -8.371,1.95 -8.402,1.74 -14.382,3.69 -17.925,5.86 -6.528,3.99 -9.786,10.07 -9.786,18.25 0,6.66 2.5,12.09 7.497,16.29 6.671,5.57 17.25,8.35 31.742,8.35 4.277,0 8.406,-0.2 12.394,-0.59 3.985,-0.4 8.262,-1.07 12.824,-2.01 v -19.55 c -2.828,1.09 -5.871,1.96 -9.128,2.61 -4.278,0.87 -8.77,1.3 -13.481,1.3 -3.988,0 -6.777,-0.21 -8.367,-0.65 -2.754,-0.72 -4.137,-2.2 -4.137,-4.45 0,-1.88 1.418,-3.26 4.242,-4.13 1.379,-0.43 3.118,-0.83 5.215,-1.2 7.031,-1.37 11.672,-2.42 13.918,-3.14 5.145,-1.67 9.059,-3.98 11.738,-6.95 3.336,-3.62 5,-8.4 5,-14.33 z m 86.016,29.32 h -25.652 v -53.54 h -29.129 v 53.54 h -25.66 v 22.47 h 80.441 z m 75.471,-53.54 h -67.178 v 76.01 h 66.418 v -17.91 h -37.281 v -10.97 h 35.651 v -17.38 h -35.651 v -11.83 h 38.041 z m 116.78,0 h -26.09 v 59.72 h -0.65 l -15,-59.72 h -24.25 l -14.56,59.72 h -0.76 v -59.72 h -24.78 v 76.01 h 43.15 l 9.89,-41.59 h 0.55 l 9.45,41.59 h 43.05 z M 699.105,3807.77 c -3.914,-1.09 -7.687,-1.87 -11.304,-2.34 -3.629,-0.47 -6.965,-0.71 -10.004,-0.71 -14.422,0 -25.695,3.7 -33.809,11.08 -7.75,7.02 -11.633,16.43 -11.633,28.24 0,11 3.446,19.98 10.333,26.92 8.187,8.26 20.14,12.38 35.871,12.38 3.839,0 7.574,-0.25 11.195,-0.75 1.086,-0.15 3.551,-0.59 7.394,-1.31 l 1.735,-0.33 v -20.09 c -2.172,0.87 -4.586,1.58 -7.227,2.12 -2.644,0.55 -5.343,0.82 -8.101,0.82 -6.082,0 -11.035,-1.8 -14.832,-5.38 -3.805,-3.58 -5.711,-8.16 -5.711,-13.74 0,-4.99 1.23,-9.15 3.699,-12.48 3.551,-4.78 9.348,-7.17 17.387,-7.17 2.035,0 4.062,0.18 6.09,0.54 2.027,0.37 5.003,1.16 8.917,2.39 z m 95.25,-1.74 h -30.656 l -5.215,16.4 H 735.66 l -5.113,-16.4 h -29.129 l 26.633,76.01 h 39.238 z m -39.128,34.2 -7.938,23.79 h -0.434 l -7.832,-23.79 z m 122.207,14.56 c 0,-7.03 -2.426,-13 -7.278,-17.92 -5.867,-5.94 -14.246,-8.91 -25.113,-8.91 h -15.98 v -21.93 H 799.93 v 76.01 h 44.57 c 10.801,0 19.133,-2.79 25,-8.36 5.293,-5 7.934,-11.3 7.934,-18.89 z m -29.348,0.21 c 0,2.75 -0.832,4.89 -2.5,6.4 -2.25,2.03 -5.906,3.05 -10.977,3.05 h -6.308 v -18.9 h 6.414 c 3.336,0 5.976,0.4 7.933,1.2 3.629,1.52 5.438,4.27 5.438,8.25 z m 69.387,-48.97 H 888.34 v 76.01 h 29.133 z m 89.277,53.53 h -25.656 v -53.53 h -29.129 v 53.53 h -25.656 v 22.48 h 80.441 z m 94.16,-53.53 h -30.65 l -5.21,16.4 h -22.83 l -5.11,-16.4 h -29.13 l 26.63,76.01 h 39.24 z m -39.12,34.2 -7.94,23.79 h -0.44 l -7.82,-23.79 z m 111.34,-34.2 h -65.01 v 76.01 h 29.13 v -53.54 h 35.88 z M 741.711,3680.39 h -26.086 v 59.73 h -0.652 l -15,-59.73 h -24.239 l -14.57,59.73 h -0.758 v -59.73 h -24.785 v 76.01 h 43.152 l 9.891,-41.59 h 0.547 l 9.457,41.59 h 43.043 z m 98.516,0 h -30.649 l -5.219,16.4 h -22.828 l -5.109,-16.4 h -29.133 l 26.629,76.01 h 39.242 z m -39.129,34.21 -7.942,23.78 h -0.433 l -7.821,-23.78 z m 127.754,-34.21 h -42.938 l -14.566,53.97 h -0.434 v -53.97 h -25.109 v 76.01 h 43.375 l 14.133,-52.44 h 0.429 v 52.44 h 25.11 z m 98.518,0 h -30.655 l -5.219,16.4 h -22.824 l -5.109,-16.4 h -29.129 l 26.625,76.01 h 39.241 z m -39.132,34.21 -7.941,23.78 h -0.434 l -7.824,-23.78 z m 118.952,-31.38 c -4.21,-1.23 -8.93,-2.23 -14.19,-2.99 -5.25,-0.76 -11.03,-1.14 -17.34,-1.14 -17.03,0 -29.45,4.63 -37.28,13.9 -5.8,6.88 -8.7,15.53 -8.7,25.96 0,4.41 0.73,8.71 2.18,12.91 2.46,7.17 6.74,12.89 12.82,17.16 8.27,5.79 19.39,8.69 33.37,8.69 4.14,0 8.25,-0.2 12.34,-0.6 4.09,-0.4 8.68,-1.14 13.76,-2.23 v -20.52 c -2.1,1.02 -4.53,1.92 -7.29,2.72 -4.2,1.15 -8.48,1.73 -12.82,1.73 -7.4,0 -13.27,-1.95 -17.62,-5.86 -4.34,-3.91 -6.52,-9.45 -6.52,-16.61 0,-6.23 1.78,-10.97 5.33,-14.23 3.04,-2.75 6.92,-4.13 11.63,-4.13 1.16,0 2.09,0.06 2.77,0.16 0.69,0.12 1.51,0.28 2.45,0.5 v 18.13 h 25.11 z m 79.82,-2.83 h -67.18 v 76.01 h 66.42 v -17.91 h -37.29 v -10.97 h 35.66 v -17.37 h -35.66 v -11.84 h 38.05 z m 116.78,0 h -26.1 v 59.73 h -0.65 l -14.99,-59.73 h -24.25 l -14.57,59.73 h -0.75 v -59.73 h -24.79 v 76.01 h 43.16 l 9.89,-41.59 h 0.55 l 9.45,41.59 h 43.05 z m 79.81,0 h -67.17 v 76.01 h 66.42 v -17.91 h -37.29 v -10.97 h 35.65 v -17.37 h -35.65 v -11.84 h 38.04 z m 93.74,0 h -42.94 l -14.57,53.97 h -0.43 v -53.97 h -25.11 v 76.01 h 43.37 l 14.13,-52.44 h 0.43 v 52.44 h 25.12 z m 88.73,53.54 h -25.66 v -53.54 h -29.12 v 53.54 h -25.66 v 22.47 h 80.44 z M 559.91,4109.61 H 59.3906 V 4081.5 H 559.91 Z m 0,49.98 H 59.3906 v -28.11 H 559.91 Z M 309.652,3909.7 H 59.3906 v -28.12 H 309.652 Z m 0,49.98 H 59.3906 v -28.12 H 309.652 Z m 0,49.98 H 59.3906 v -28.12 H 309.652 Z M 559.91,4209.57 H 59.3906 v -28.12 H 559.91 v 28.12"/><path id="path16" fill="#231f20" fill-opacity="1" fill-rule="evenodd" stroke="none" d="M 559.879,3709.78 H 59.3594 v -28.11 H 559.879 Z m 0,299.88 H 309.621 v -28.12 h 250.258 z m 0,-49.98 H 309.621 v -28.12 h 250.258 z m 0,-49.98 H 309.621 v -28.12 h 250.258 z m 0,-49.98 H 59.3594 V 3831.6 H 559.879 Z m 0,-49.98 H 59.3594 v -28.11 H 559.879 Z m 0,-49.98 H 59.3594 v -28.12 H 559.879 v 28.12"/></g></g></g></svg>