<svg xmlns="http://www.w3.org/2000/svg" xmlns:svg="http://www.w3.org/2000/svg" id="svg4" width="962.3" height="556.1" version="1.1" viewBox="0 0 962.3 556.1"><metadata id="metadata10"/><path id="path2" d="m 531.89999,51.000004 a 51,51 0 0 1 -51,50.999996 51,51 0 0 1 -51,-50.999996 51,51 0 0 1 51,-50.9999995859375 51,51 0 0 1 51,50.9999995859375 z m 36.4,26 c 23.4,23.299996 36.2,54.399996 36.2,87.399996 0,33 -12.9,64.1 -36.2,87.4 -23.3,23.3 -54.4,36.2 -87.4,36.2 -33,0 -64.1,-12.9 -87.4,-36.2 -23.3,-23.3 -36.2,-54.4 -36.2,-87.4 0,-33 12.9,-64.1 36.2,-87.399996 2,-2 4.1,-3.9 6.2,-5.8 l -28.2,-28.2 c -2.1,1.9 -4.1,3.8 -6.1,5.8 -15,15 -26.8,32.5 -35,51.999996 -8.5,20.2 -12.9,41.6 -12.9,63.6 0,22.1 4.3,43.5 12.9,63.6 8.2,19.5 20,37 35,52 15,15 32.5,26.8 52,35 20.2,8.5 41.6,12.9 63.6,12.9 22.1,0 43.5,-4.3 63.6,-12.9 19.5,-8.2 37,-20 52,-35 15,-15 26.8,-32.5 35,-52 8.5,-20.2 12.9,-41.6 12.9,-63.6 0,-22.1 -4.3,-43.5 -12.9,-63.6 -8.2,-19.499996 -20,-36.999996 -35,-51.999996 -2,-2 -4,-3.9 -6.1,-5.8 l -28.2,28.2 c 2,1.9 4,3.8 6,5.8 z M 466.69999,264.1 V 138.3 l -50.7,-50.699996 c -21.8,18.499996 -35.7,45.999996 -35.7,76.899996 0,50.7 37.6,92.7 86.4,99.6 z m 28.4,0 c 48.8,-6.9 86.4,-48.9 86.4,-99.6 0,-30.8 -13.9,-58.4 -35.7,-76.899996 l -50.7,50.699996 z m 315.7,258.6 c 3.7,3.3 5.5,7.9 5.5,13.8 0,5.9 -1.8,10.6 -5.3,14 -3.6,3.4 -9,5.2 -16.3,5.2 h -12.6 v -38 h 13.1 c 6.7,0 12,1.7 15.6,5 z m -0.9,14 c 0,-8.7 -5,-13.1 -15,-13.1 h -6.4 v 26 h 7.1 c 4.6,0 8.1,-1.1 10.6,-3.3 2.4,-2.1 3.7,-5.3 3.7,-9.6 z m -69.6,-19 h 6.4 v 38 h -7 l -21.5,-27.7 v 27.7 h -6.4 v -38 h 6.4 l 22.1,28.4 z m -88.3,29.4 -3.8,8.6 h -6.9 l 16.7,-38 h 6.9 l 16.7,38 h -6.9 l -3.8,-8.6 z m 16.4,-5.9 -6.9,-15.7 -6.9,15.7 z m -77.5,14.5 v -38 h 6.4 v 31.9 h 17.3 v 6.1 z m -67.1,0 v -38 h 6.4 v 16.5 h 18.9 v -16.5 h 6.4 v 38 h -6.4 v -15.6 h -18.9 v 15.6 z m -47.5,-5.8 c 2.2,0 4.1,-0.4 5.7,-1.1 1.6,-0.7 3.3,-1.9 5,-3.6 l 4.1,4.2 c -4,4.5 -8.9,6.7 -14.7,6.7 -5.7,0 -10.5,-1.8 -14.3,-5.5 -3.8,-3.7 -5.7,-8.4 -5.7,-14 0,-5.6 1.9,-10.4 5.8,-14.1 3.9,-3.7 8.7,-5.7 14.6,-5.7 5.9,0 10.8,2.2 14.8,6.5 l -4.1,4.5 c -1.8,-1.7 -3.5,-3 -5.1,-3.6 -1.6,-0.6 -3.5,-1 -5.7,-1 -3.8,0 -7.1,1.2 -9.7,3.7 -2.6,2.5 -3.9,5.7 -3.9,9.5 0,3.9 1.3,7.1 3.9,9.7 2.7,2.5 5.8,3.8 9.3,3.8 z m -64.9,-27.2 c -1.9,0 -3.4,0.4 -4.6,1.1 -1.2,0.8 -1.8,1.9 -1.8,3.5 0,1.5 0.6,2.7 1.8,3.5 1.2,0.8 3.7,1.7 7.6,2.6 3.9,0.9 6.8,2.3 8.8,4 2,1.7 3,4.2 3,7.5 0,3.3 -1.3,6 -3.8,8.1 -2.5,2.1 -5.8,3.1 -9.8,3.1 -5.9,0 -11.2,-2 -15.8,-6.1 l 4,-4.8 c 3.8,3.3 7.8,5 12,5 2.1,0 3.7,-0.4 4.9,-1.3 1.2,-0.9 1.8,-2.1 1.8,-3.5 0,-1.5 -0.6,-2.6 -1.7,-3.4 -1.1,-0.8 -3.1,-1.6 -5.9,-2.2 -2.8,-0.7 -4.9,-1.3 -6.4,-1.8 -1.5,-0.6 -2.7,-1.3 -3.9,-2.2 -2.2,-1.7 -3.4,-4.3 -3.4,-7.8 0,-3.5 1.3,-6.2 3.8,-8.1 2.6,-1.9 5.7,-2.9 9.5,-2.9 2.4,0 4.8,0.4 7.2,1.2 2.4,0.8 4.5,1.9 6.2,3.4 l -3.4,4.8 c -1.1,-1 -2.6,-1.8 -4.6,-2.5 -1.8,-0.8 -3.7,-1.2 -5.5,-1.2 z m -54.9,0.9 v 32.1 h -6.4 v -32.1 h -11.5 v -5.9 h 29.5 v 5.9 z m -72.4,23.4 c 1.7,2 4.1,3 7.1,3 3,0 5.3,-1 7.1,-3 1.8,-2 2.6,-4.8 2.6,-8.3 v -21 h 6.4 V 539 c 0,5.5 -1.5,9.7 -4.5,12.6 -3,3 -6.9,4.4 -11.6,4.4 -4.7,0 -8.6,-1.5 -11.6,-4.4 -3,-3 -4.5,-7.2 -4.5,-12.6 v -21.3 h 6.4 v 21 c 0,3.6 0.8,6.3 2.6,8.3 z m -42.3,-29.3 v 6 h -20.3 v 10.1 h 18.2 v 5.7 h -18.2 v 10.2 h 20.9 v 6 h -27.4 v -38 z m -65.3,5 c 3.7,3.3 5.5,7.9 5.5,13.8 0,5.9 -1.8,10.6 -5.3,14 -3.6,3.4 -9,5.2 -16.3,5.2 h -12.6 v -38 h 13.1 c 6.7,0 12,1.7 15.6,5 z m -1,14 c 0,-8.7 -5,-13.1 -15,-13.1 h -6.3 v 26 h 7.1 c 4.6,0 8.1,-1.1 10.6,-3.3 2.4,-2.1 3.6,-5.3 3.6,-9.6 z m 665.2,-68 -8.5,-19.7 h -38.2 l -8.5,19.7 h -21.7 l 39.4,-91.2 h 19.7 l 39.4,91.2 z m -27.6,-64 -11.5,26.5 h 22.8 z m -80.2,-27.2 h 20.3 v 91.2 h -20.4 v -91.2 z m -30.7,12 c 8.7,8 13.1,19 13.1,33.2 0,14.2 -4.2,25.4 -12.7,33.7 -8.5,8.3 -21.4,12.4 -38.8,12.4 h -31.2 v -91.2 h 32.2 c 16.2,-0.1 28.7,3.9 37.4,11.9 z m -15,54.2 c 5,-4.7 7.5,-11.5 7.5,-20.5 0,-9 -2.5,-15.9 -7.5,-20.7 -5,-4.8 -12.7,-7.2 -23,-7.2 h -11.4 v 55.5 h 12.9 c 9.4,-0.1 16.5,-2.4 21.5,-7.1 z m -74.3,-66.2 v 18.1 h -45.4 v 18.8 h 40.8 v 17.4 h -40.8 v 18.9 h 46.9 v 18 h -67.2 v -91.2 z m -108.6,33.8 -24.7,49.9 h -12.1 l -24.5,-49.9 v 57.4 h -20.4 v -91.2 h 27.6 l 23.5,50.1 23.6,-50.1 h 27.4 v 91.2 h -20.4 z m -124.5,-33.8 h 20.4 v 91.2 h -20.4 z m -92.6,0 h 20.4 V 415 l 34.5,-37.5 h 25.1 l -36.3,40.3 c 3.1,4.4 8.9,12.5 17.4,24.3 8.4,11.9 14.7,20.7 18.9,26.6 h -23.8 l -26.8,-36 -9.1,10.2 v 25.8 h -20.3 z m -42.8,0 h 20.4 v 91.2 h -20.4 z m -104.6,52.5 16.2,-52.5 h 21.3 l 16.1,52.5 18.1,-52.5 h 22.1 l -31.8,91.2 h -15.1 l -20,-63.4 -19.8,63.4 h -15.1 L 99.999994,377.5 h 22.099996 z"/></svg>