<svg xmlns="http://www.w3.org/2000/svg" xmlns:xlink="http://www.w3.org/1999/xlink" id="Layer_1" x="0" y="0" enable-background="new 0 0 2792 1629" version="1.1" viewBox="0 0 2792 1629" xml:space="preserve"><style type="text/css">.st0,.st1{stroke:#fff;stroke-linecap:round;stroke-miterlimit:10}.st0{stroke-dasharray:0,3;fill:none}.st1{fill:#178cd0}.st2{opacity:.8}.st3{fill:url(#XMLID_100_)}.st4{fill:url(#XMLID_101_)}.st5{fill:#fff}.st6{fill:url(#XMLID_102_)}.st7{fill:url(#XMLID_103_)}.st8{fill:url(#XMLID_104_)}.st9{fill:url(#XMLID_105_)}.st10{fill:url(#XMLID_106_)}.st11{fill:url(#XMLID_107_)}.st12,.st13{fill:none;stroke:#fff;stroke-miterlimit:10}.st13{opacity:.5}.st14{fill:url(#XMLID_108_)}.st15{fill:url(#XMLID_109_)}.st16{fill:url(#XMLID_110_)}.st17{fill:url(#XMLID_111_)}.st18{fill:url(#XMLID_112_)}.st19{fill:url(#XMLID_116_)}.st20{fill:url(#XMLID_117_)}.st21{fill:url(#XMLID_118_)}</style><ellipse id="XMLID_17_" cx="493.1" cy="1185.4" class="st0" rx="508.6" ry="87.2" transform="matrix(-0.7575 -0.6528 0.6528 -0.7575 92.7844 2405.2317)"/><g id="XMLID_165_"><ellipse id="XMLID_135_" cx="811.1" cy="395.4" class="st0" rx="470.8" ry="62.6" transform="matrix(0.81 0.5865 -0.5865 0.81 385.9955 -400.5314)"/><g id="XMLID_86_"><circle id="XMLID_130_" cx="820" cy="391" r="136" class="st1"/><circle id="XMLID_128_" cx="820" cy="391" r="90" class="st1"/><g id="XMLID_131_" class="st2"><g id="XMLID_133_"><linearGradient id="XMLID_100_" x1="797.938" x2="842.062" y1="375.273" y2="375.273" gradientUnits="userSpaceOnUse"><stop offset="0" stop-color="#FFF"/><stop offset=".915" stop-color="#FFF" stop-opacity=".359"/><stop offset="1" stop-color="#FFF" stop-opacity=".3"/></linearGradient><circle id="XMLID_134_" cx="820" cy="375.3" r="22.1" class="st3"/></g><linearGradient id="XMLID_101_" x1="788.83" x2="859.946" y1="416.026" y2="420.704" gradientUnits="userSpaceOnUse"><stop offset="0" stop-color="#FFF"/><stop offset="1" stop-color="#FFF" stop-opacity=".3"/></linearGradient><path id="XMLID_132_" d="M820,397.1c-15.4,0-28.9,8.4-36.1,20.9c7.2,12.5,20.6,20.9,36.1,20.9s28.9-8.4,36.1-20.9 C848.9,405.6,835.4,397.1,820,397.1z" class="st4"/></g></g><circle id="XMLID_136_" cx="896.6" cy="438.5" r="4.6" class="st5"/><circle id="XMLID_137_" cx="536.6" cy="254.5" r="4.6" class="st5"/></g><g id="XMLID_166_"><ellipse id="XMLID_141_" cx="1049.1" cy="826.4" class="st0" rx="333.2" ry="65.2" transform="matrix(0.7354 -0.6776 0.6776 0.7354 -282.4028 929.5068)"/><g id="XMLID_142_"><circle id="XMLID_148_" cx="1058" cy="826" r="90" class="st1"/><circle id="XMLID_147_" cx="1058" cy="826" r="59.5" class="st1"/><g id="XMLID_143_" class="st2"><g id="XMLID_145_"><linearGradient id="XMLID_102_" x1="1043.404" x2="1072.596" y1="815.595" y2="815.595" gradientUnits="userSpaceOnUse"><stop offset="0" stop-color="#FFF"/><stop offset=".915" stop-color="#FFF" stop-opacity=".359"/><stop offset="1" stop-color="#FFF" stop-opacity=".3"/></linearGradient><circle id="XMLID_146_" cx="1058" cy="815.6" r="14.6" class="st6"/></g><linearGradient id="XMLID_103_" x1="1037.379" x2="1084.427" y1="842.557" y2="845.651" gradientUnits="userSpaceOnUse"><stop offset="0" stop-color="#FFF"/><stop offset="1" stop-color="#FFF" stop-opacity=".3"/></linearGradient><path id="XMLID_144_" d="M1058,830.1c-10.2,0-19.1,5.6-23.9,13.9c4.7,8.3,13.6,13.9,23.9,13.9s19.1-5.6,23.9-13.9 C1077.1,835.6,1068.2,830.1,1058,830.1z" class="st7"/></g></g></g><g id="XMLID_149_"><circle id="XMLID_155_" cx="819" cy="988" r="34.9" class="st1"/><circle id="XMLID_154_" cx="819" cy="988" r="19.6" class="st1"/><g id="XMLID_150_" class="st2"><g id="XMLID_152_"><linearGradient id="XMLID_104_" x1="814.186" x2="823.814" y1="984.568" y2="984.568" gradientUnits="userSpaceOnUse"><stop offset="0" stop-color="#FFF"/><stop offset=".915" stop-color="#FFF" stop-opacity=".359"/><stop offset="1" stop-color="#FFF" stop-opacity=".3"/></linearGradient><circle id="XMLID_153_" cx="819" cy="984.6" r="4.8" class="st8"/></g><linearGradient id="XMLID_105_" x1="812.199" x2="827.716" y1="993.461" y2="994.481" gradientUnits="userSpaceOnUse"><stop offset="0" stop-color="#FFF"/><stop offset="1" stop-color="#FFF" stop-opacity=".3"/></linearGradient><path id="XMLID_151_" d="M819,989.3c-3.4,0-6.3,1.8-7.9,4.6c1.6,2.7,4.5,4.6,7.9,4.6s6.3-1.8,7.9-4.6 C825.3,991.2,822.4,989.3,819,989.3z" class="st9"/></g></g><ellipse id="XMLID_164_" cx="1660.1" cy="1384.4" class="st0" rx="1113.3" ry="183.1" transform="matrix(0.9992 -3.945101e-02 3.945101e-02 0.9992 -53.323 66.5695)"/><g id="XMLID_157_"><circle id="XMLID_163_" cx="1592" cy="1354" r="254" class="st1"/><circle id="XMLID_162_" cx="1592" cy="1354" r="168" class="st1"/><g id="XMLID_158_" class="st2"><g id="XMLID_160_"><linearGradient id="XMLID_106_" x1="1550.788" x2="1633.212" y1="1324.621" y2="1324.621" gradientUnits="userSpaceOnUse"><stop offset="0" stop-color="#FFF"/><stop offset=".915" stop-color="#FFF" stop-opacity=".359"/><stop offset="1" stop-color="#FFF" stop-opacity=".3"/></linearGradient><circle id="XMLID_161_" cx="1592" cy="1324.6" r="41.2" class="st10"/></g><linearGradient id="XMLID_107_" x1="1533.773" x2="1666.62" y1="1400.75" y2="1409.488" gradientUnits="userSpaceOnUse"><stop offset="0" stop-color="#FFF"/><stop offset="1" stop-color="#FFF" stop-opacity=".3"/></linearGradient><path id="XMLID_159_" d="M1592,1365.5c-28.9,0-54,15.8-67.4,39.1c13.4,23.4,38.5,39.1,67.4,39.1s54-15.8,67.4-39.1 C1646,1381.2,1620.9,1365.5,1592,1365.5z" class="st11"/></g></g><g id="XMLID_6_"><circle id="XMLID_5_" cx="1000.6" cy="952.5" r="4.6" class="st5"/><circle id="XMLID_4_" cx="1000.6" cy="952.5" r="8.5" class="st12"/><circle id="XMLID_3_" cx="1000.6" cy="952.5" r="12.5" class="st13"/></g><circle id="XMLID_9_" cx="1050.6" cy="505.5" r="4.6" class="st5"/><circle id="XMLID_8_" cx="1050.6" cy="505.5" r="8.5" class="st12"/><circle id="XMLID_7_" cx="1050.6" cy="505.5" r="12.5" class="st13"/><g id="XMLID_10_"><circle id="XMLID_16_" cx="1183" cy="634" r="19.6" class="st1"/><circle id="XMLID_15_" cx="1183" cy="634" r="11" class="st1"/><g id="XMLID_11_" class="st2"><g id="XMLID_13_"><linearGradient id="XMLID_108_" x1="1180.292" x2="1185.708" y1="632.069" y2="632.069" gradientUnits="userSpaceOnUse"><stop offset="0" stop-color="#FFF"/><stop offset=".915" stop-color="#FFF" stop-opacity=".359"/><stop offset="1" stop-color="#FFF" stop-opacity=".3"/></linearGradient><circle id="XMLID_14_" cx="1183" cy="632.1" r="2.7" class="st14"/></g><linearGradient id="XMLID_109_" x1="1179.174" x2="1187.903" y1="637.072" y2="637.646" gradientUnits="userSpaceOnUse"><stop offset="0" stop-color="#FFF"/><stop offset="1" stop-color="#FFF" stop-opacity=".3"/></linearGradient><path id="XMLID_12_" d="M1183,634.8c-1.9,0-3.5,1-4.4,2.6c0.9,1.5,2.5,2.6,4.4,2.6s3.5-1,4.4-2.6 C1186.5,635.8,1184.9,634.8,1183,634.8z" class="st15"/></g></g><g id="XMLID_167_"><ellipse id="XMLID_115_" cx="493.1" cy="1185.4" class="st0" rx="508.6" ry="87.2" transform="matrix(0.926 -0.3776 0.3776 0.926 -411.0946 273.9387)"/><circle id="XMLID_138_" cx="703.6" cy="1018.5" r="4.6" class="st5"/><circle id="XMLID_139_" cx="581.6" cy="1243.5" r="4.6" class="st5"/><circle id="XMLID_140_" cx="509" cy="1291.2" r="4.6" class="st5"/><circle id="XMLID_168_" cx="581.6" cy="1243.5" r="8.5" class="st12"/><circle id="XMLID_169_" cx="581.6" cy="1243.5" r="12.5" class="st13"/><circle id="XMLID_170_" cx="509" cy="1291.2" r="8.5" class="st12"/><circle id="XMLID_18_" cx="509" cy="1291.2" r="12.5" class="st13"/><g id="XMLID_85_"><circle id="XMLID_113_" cx="497" cy="1195" r="147.5" class="st1"/><circle id="XMLID_114_" cx="497" cy="1195" r="97.6" class="st1"/><g id="XMLID_81_" class="st2"><g id="XMLID_83_"><linearGradient id="XMLID_110_" x1="473.063" x2="520.937" y1="1177.937" y2="1177.937" gradientUnits="userSpaceOnUse"><stop offset="0" stop-color="#FFF"/><stop offset=".915" stop-color="#FFF" stop-opacity=".359"/><stop offset="1" stop-color="#FFF" stop-opacity=".3"/></linearGradient><circle id="XMLID_84_" cx="497" cy="1177.9" r="23.9" class="st16"/></g><linearGradient id="XMLID_111_" x1="463.181" x2="540.34" y1="1222.153" y2="1227.228" gradientUnits="userSpaceOnUse"><stop offset="0" stop-color="#FFF"/><stop offset="1" stop-color="#FFF" stop-opacity=".3"/></linearGradient><path id="XMLID_82_" d="M497,1201.7c-16.8,0-31.4,9.2-39.1,22.7c7.8,13.6,22.4,22.7,39.1,22.7 c16.8,0,31.4-9.2,39.1-22.7C528.4,1210.8,513.8,1201.7,497,1201.7z" class="st17"/></g></g></g><g id="XMLID_2_"><circle id="XMLID_24_" cx="758" cy="1315" r="19.6" class="st1"/><circle id="XMLID_23_" cx="758" cy="1315" r="11" class="st1"/><g id="XMLID_19_" class="st2"><g id="XMLID_21_"><linearGradient id="XMLID_112_" x1="755.292" x2="760.708" y1="1313.07" y2="1313.07" gradientUnits="userSpaceOnUse"><stop offset="0" stop-color="#FFF"/><stop offset=".915" stop-color="#FFF" stop-opacity=".359"/><stop offset="1" stop-color="#FFF" stop-opacity=".3"/></linearGradient><circle id="XMLID_22_" cx="758" cy="1313.1" r="2.7" class="st18"/></g><linearGradient id="XMLID_116_" x1="754.174" x2="762.903" y1="1318.072" y2="1318.646" gradientUnits="userSpaceOnUse"><stop offset="0" stop-color="#FFF"/><stop offset="1" stop-color="#FFF" stop-opacity=".3"/></linearGradient><path id="XMLID_20_" d="M758,1315.8c-1.9,0-3.5,1-4.4,2.6c0.9,1.5,2.5,2.6,4.4,2.6s3.5-1,4.4-2.6 C761.5,1316.8,759.9,1315.8,758,1315.8z" class="st19"/></g></g><g id="XMLID_25_"><circle id="XMLID_31_" cx="590" cy="1374" r="19.6" class="st1"/><circle id="XMLID_30_" cx="590" cy="1374" r="11" class="st1"/><g id="XMLID_26_" class="st2"><g id="XMLID_28_"><linearGradient id="XMLID_117_" x1="587.292" x2="592.708" y1="1372.07" y2="1372.07" gradientUnits="userSpaceOnUse"><stop offset="0" stop-color="#FFF"/><stop offset=".915" stop-color="#FFF" stop-opacity=".359"/><stop offset="1" stop-color="#FFF" stop-opacity=".3"/></linearGradient><circle id="XMLID_29_" cx="590" cy="1372.1" r="2.7" class="st20"/></g><linearGradient id="XMLID_118_" x1="586.174" x2="594.903" y1="1377.072" y2="1377.646" gradientUnits="userSpaceOnUse"><stop offset="0" stop-color="#FFF"/><stop offset="1" stop-color="#FFF" stop-opacity=".3"/></linearGradient><path id="XMLID_27_" d="M590,1374.8c-1.9,0-3.5,1-4.4,2.6c0.9,1.5,2.5,2.6,4.4,2.6s3.5-1,4.4-2.6 C593.5,1375.8,591.9,1374.8,590,1374.8z" class="st21"/></g></g><g id="XMLID_32_"><circle id="XMLID_35_" cx="1005.6" cy="1260.5" r="4.6" class="st5"/><circle id="XMLID_34_" cx="1005.6" cy="1260.5" r="8.5" class="st12"/><circle id="XMLID_33_" cx="1005.6" cy="1260.5" r="12.5" class="st13"/></g><g id="XMLID_36_"><circle id="XMLID_39_" cx="349.6" cy="960.5" r="4.6" class="st5"/><circle id="XMLID_38_" cx="349.6" cy="960.5" r="8.5" class="st12"/><circle id="XMLID_37_" cx="349.6" cy="960.5" r="12.5" class="st13"/></g></svg>