<?xml version="1.0" encoding="utf-8"?>
<!-- Generator: Adobe Illustrator 19.0.0, SVG Export Plug-In . SVG Version: 6.00 Build 0)  -->
<svg version="1.1" id="Layer_1" xmlns="http://www.w3.org/2000/svg" xmlns:xlink="http://www.w3.org/1999/xlink" x="0px" y="0px"
	 viewBox="0 0 2792 1629" style="enable-background:new 0 0 2792 1629;" xml:space="preserve">
<style type="text/css">
	.st0{fill:none;stroke:#FFFFFF;stroke-linecap:round;stroke-miterlimit:10;stroke-dasharray:0,3;}
	.st1{fill:#178CD0;stroke:#FFFFFF;stroke-linecap:round;stroke-miterlimit:10;}
	.st2{opacity:0.8;}
	.st3{fill:url(#XMLID_100_);}
	.st4{fill:url(#XMLID_101_);}
	.st5{fill:#FFFFFF;}
	.st6{fill:url(#XMLID_102_);}
	.st7{fill:url(#XMLID_103_);}
	.st8{fill:url(#XMLID_104_);}
	.st9{fill:url(#XMLID_105_);}
	.st10{fill:url(#XMLID_106_);}
	.st11{fill:url(#XMLID_107_);}
	.st12{fill:none;stroke:#FFFFFF;stroke-miterlimit:10;}
	.st13{opacity:0.5;fill:none;stroke:#FFFFFF;stroke-miterlimit:10;}
	.st14{fill:url(#XMLID_108_);}
	.st15{fill:url(#XMLID_109_);}
	.st16{fill:url(#XMLID_110_);}
	.st17{fill:url(#XMLID_111_);}
	.st18{fill:url(#XMLID_112_);}
	.st19{fill:url(#XMLID_116_);}
	.st20{fill:url(#XMLID_117_);}
	.st21{fill:url(#XMLID_118_);}
</style>
<ellipse id="XMLID_17_" transform="matrix(-0.7575 -0.6528 0.6528 -0.7575 92.7844 2405.2317)" class="st0" cx="493.1" cy="1185.4" rx="508.6" ry="87.2"/>
<g id="XMLID_165_">
	
		<ellipse id="XMLID_135_" transform="matrix(0.81 0.5865 -0.5865 0.81 385.9955 -400.5314)" class="st0" cx="811.1" cy="395.4" rx="470.8" ry="62.6"/>
	<g id="XMLID_86_">
		<circle id="XMLID_130_" class="st1" cx="820" cy="391" r="136"/>
		<circle id="XMLID_128_" class="st1" cx="820" cy="391" r="90"/>
		<g id="XMLID_131_" class="st2">
			<g id="XMLID_133_">
				<linearGradient id="XMLID_100_" gradientUnits="userSpaceOnUse" x1="797.9381" y1="375.2729" x2="842.0619" y2="375.2729">
					<stop  offset="0" style="stop-color:#FFFFFF"/>
					<stop  offset="0.9154" style="stop-color:#FFFFFF;stop-opacity:0.3592"/>
					<stop  offset="1" style="stop-color:#FFFFFF;stop-opacity:0.3"/>
				</linearGradient>
				<circle id="XMLID_134_" class="st3" cx="820" cy="375.3" r="22.1"/>
			</g>
			<linearGradient id="XMLID_101_" gradientUnits="userSpaceOnUse" x1="788.8298" y1="416.0262" x2="859.946" y2="420.7039">
				<stop  offset="0" style="stop-color:#FFFFFF"/>
				<stop  offset="1" style="stop-color:#FFFFFF;stop-opacity:0.3"/>
			</linearGradient>
			<path id="XMLID_132_" class="st4" d="M820,397.1c-15.4,0-28.9,8.4-36.1,20.9c7.2,12.5,20.6,20.9,36.1,20.9s28.9-8.4,36.1-20.9
				C848.9,405.6,835.4,397.1,820,397.1z"/>
		</g>
	</g>
	<circle id="XMLID_136_" class="st5" cx="896.6" cy="438.5" r="4.6"/>
	<circle id="XMLID_137_" class="st5" cx="536.6" cy="254.5" r="4.6"/>
</g>
<g id="XMLID_166_">
	
		<ellipse id="XMLID_141_" transform="matrix(0.7354 -0.6776 0.6776 0.7354 -282.4028 929.5068)" class="st0" cx="1049.1" cy="826.4" rx="333.2" ry="65.2"/>
	<g id="XMLID_142_">
		<circle id="XMLID_148_" class="st1" cx="1058" cy="826" r="90"/>
		<circle id="XMLID_147_" class="st1" cx="1058" cy="826" r="59.5"/>
		<g id="XMLID_143_" class="st2">
			<g id="XMLID_145_">
				<linearGradient id="XMLID_102_" gradientUnits="userSpaceOnUse" x1="1043.4044" y1="815.5954" x2="1072.5956" y2="815.5954">
					<stop  offset="0" style="stop-color:#FFFFFF"/>
					<stop  offset="0.9154" style="stop-color:#FFFFFF;stop-opacity:0.3592"/>
					<stop  offset="1" style="stop-color:#FFFFFF;stop-opacity:0.3"/>
				</linearGradient>
				<circle id="XMLID_146_" class="st6" cx="1058" cy="815.6" r="14.6"/>
			</g>
			<linearGradient id="XMLID_103_" gradientUnits="userSpaceOnUse" x1="1037.3787" y1="842.5566" x2="1084.4271" y2="845.6513">
				<stop  offset="0" style="stop-color:#FFFFFF"/>
				<stop  offset="1" style="stop-color:#FFFFFF;stop-opacity:0.3"/>
			</linearGradient>
			<path id="XMLID_144_" class="st7" d="M1058,830.1c-10.2,0-19.1,5.6-23.9,13.9c4.7,8.3,13.6,13.9,23.9,13.9s19.1-5.6,23.9-13.9
				C1077.1,835.6,1068.2,830.1,1058,830.1z"/>
		</g>
	</g>
</g>
<g id="XMLID_149_">
	<circle id="XMLID_155_" class="st1" cx="819" cy="988" r="34.9"/>
	<circle id="XMLID_154_" class="st1" cx="819" cy="988" r="19.6"/>
	<g id="XMLID_150_" class="st2">
		<g id="XMLID_152_">
			<linearGradient id="XMLID_104_" gradientUnits="userSpaceOnUse" x1="814.1862" y1="984.5684" x2="823.8138" y2="984.5684">
				<stop  offset="0" style="stop-color:#FFFFFF"/>
				<stop  offset="0.9154" style="stop-color:#FFFFFF;stop-opacity:0.3592"/>
				<stop  offset="1" style="stop-color:#FFFFFF;stop-opacity:0.3"/>
			</linearGradient>
			<circle id="XMLID_153_" class="st8" cx="819" cy="984.6" r="4.8"/>
		</g>
		<linearGradient id="XMLID_105_" gradientUnits="userSpaceOnUse" x1="812.1987" y1="993.4606" x2="827.7161" y2="994.4813">
			<stop  offset="0" style="stop-color:#FFFFFF"/>
			<stop  offset="1" style="stop-color:#FFFFFF;stop-opacity:0.3"/>
		</linearGradient>
		<path id="XMLID_151_" class="st9" d="M819,989.3c-3.4,0-6.3,1.8-7.9,4.6c1.6,2.7,4.5,4.6,7.9,4.6s6.3-1.8,7.9-4.6
			C825.3,991.2,822.4,989.3,819,989.3z"/>
	</g>
</g>
<ellipse id="XMLID_164_" transform="matrix(0.9992 -3.945101e-02 3.945101e-02 0.9992 -53.323 66.5695)" class="st0" cx="1660.1" cy="1384.4" rx="1113.3" ry="183.1"/>
<g id="XMLID_157_">
	<circle id="XMLID_163_" class="st1" cx="1592" cy="1354" r="254"/>
	<circle id="XMLID_162_" class="st1" cx="1592" cy="1354" r="168"/>
	<g id="XMLID_158_" class="st2">
		<g id="XMLID_160_">
			<linearGradient id="XMLID_106_" gradientUnits="userSpaceOnUse" x1="1550.7877" y1="1324.6213" x2="1633.2123" y2="1324.6213">
				<stop  offset="0" style="stop-color:#FFFFFF"/>
				<stop  offset="0.9154" style="stop-color:#FFFFFF;stop-opacity:0.3592"/>
				<stop  offset="1" style="stop-color:#FFFFFF;stop-opacity:0.3"/>
			</linearGradient>
			<circle id="XMLID_161_" class="st10" cx="1592" cy="1324.6" r="41.2"/>
		</g>
		<linearGradient id="XMLID_107_" gradientUnits="userSpaceOnUse" x1="1533.7731" y1="1400.7496" x2="1666.6204" y2="1409.4879">
			<stop  offset="0" style="stop-color:#FFFFFF"/>
			<stop  offset="1" style="stop-color:#FFFFFF;stop-opacity:0.3"/>
		</linearGradient>
		<path id="XMLID_159_" class="st11" d="M1592,1365.5c-28.9,0-54,15.8-67.4,39.1c13.4,23.4,38.5,39.1,67.4,39.1s54-15.8,67.4-39.1
			C1646,1381.2,1620.9,1365.5,1592,1365.5z"/>
	</g>
</g>
<g id="XMLID_6_">
	<circle id="XMLID_5_" class="st5" cx="1000.6" cy="952.5" r="4.6"/>
	<circle id="XMLID_4_" class="st12" cx="1000.6" cy="952.5" r="8.5"/>
	<circle id="XMLID_3_" class="st13" cx="1000.6" cy="952.5" r="12.5"/>
</g>
<circle id="XMLID_9_" class="st5" cx="1050.6" cy="505.5" r="4.6"/>
<circle id="XMLID_8_" class="st12" cx="1050.6" cy="505.5" r="8.5"/>
<circle id="XMLID_7_" class="st13" cx="1050.6" cy="505.5" r="12.5"/>
<g id="XMLID_10_">
	<circle id="XMLID_16_" class="st1" cx="1183" cy="634" r="19.6"/>
	<circle id="XMLID_15_" class="st1" cx="1183" cy="634" r="11"/>
	<g id="XMLID_11_" class="st2">
		<g id="XMLID_13_">
			<linearGradient id="XMLID_108_" gradientUnits="userSpaceOnUse" x1="1180.2919" y1="632.0695" x2="1185.7081" y2="632.0695">
				<stop  offset="0" style="stop-color:#FFFFFF"/>
				<stop  offset="0.9154" style="stop-color:#FFFFFF;stop-opacity:0.3592"/>
				<stop  offset="1" style="stop-color:#FFFFFF;stop-opacity:0.3"/>
			</linearGradient>
			<circle id="XMLID_14_" class="st14" cx="1183" cy="632.1" r="2.7"/>
		</g>
		<linearGradient id="XMLID_109_" gradientUnits="userSpaceOnUse" x1="1179.1738" y1="637.072" x2="1187.9033" y2="637.6462">
			<stop  offset="0" style="stop-color:#FFFFFF"/>
			<stop  offset="1" style="stop-color:#FFFFFF;stop-opacity:0.3"/>
		</linearGradient>
		<path id="XMLID_12_" class="st15" d="M1183,634.8c-1.9,0-3.5,1-4.4,2.6c0.9,1.5,2.5,2.6,4.4,2.6s3.5-1,4.4-2.6
			C1186.5,635.8,1184.9,634.8,1183,634.8z"/>
	</g>
</g>
<g id="XMLID_167_">
	
		<ellipse id="XMLID_115_" transform="matrix(0.926 -0.3776 0.3776 0.926 -411.0946 273.9387)" class="st0" cx="493.1" cy="1185.4" rx="508.6" ry="87.2"/>
	<circle id="XMLID_138_" class="st5" cx="703.6" cy="1018.5" r="4.6"/>
	<circle id="XMLID_139_" class="st5" cx="581.6" cy="1243.5" r="4.6"/>
	<circle id="XMLID_140_" class="st5" cx="509" cy="1291.2" r="4.6"/>
	<circle id="XMLID_168_" class="st12" cx="581.6" cy="1243.5" r="8.5"/>
	<circle id="XMLID_169_" class="st13" cx="581.6" cy="1243.5" r="12.5"/>
	<circle id="XMLID_170_" class="st12" cx="509" cy="1291.2" r="8.5"/>
	<circle id="XMLID_18_" class="st13" cx="509" cy="1291.2" r="12.5"/>
	<g id="XMLID_85_">
		<circle id="XMLID_113_" class="st1" cx="497" cy="1195" r="147.5"/>
		<circle id="XMLID_114_" class="st1" cx="497" cy="1195" r="97.6"/>
		<g id="XMLID_81_" class="st2">
			<g id="XMLID_83_">
				<linearGradient id="XMLID_110_" gradientUnits="userSpaceOnUse" x1="473.0634" y1="1177.9365" x2="520.9366" y2="1177.9365">
					<stop  offset="0" style="stop-color:#FFFFFF"/>
					<stop  offset="0.9154" style="stop-color:#FFFFFF;stop-opacity:0.3592"/>
					<stop  offset="1" style="stop-color:#FFFFFF;stop-opacity:0.3"/>
				</linearGradient>
				<circle id="XMLID_84_" class="st16" cx="497" cy="1177.9" r="23.9"/>
			</g>
			<linearGradient id="XMLID_111_" gradientUnits="userSpaceOnUse" x1="463.1811" y1="1222.1527" x2="540.3403" y2="1227.228">
				<stop  offset="0" style="stop-color:#FFFFFF"/>
				<stop  offset="1" style="stop-color:#FFFFFF;stop-opacity:0.3"/>
			</linearGradient>
			<path id="XMLID_82_" class="st17" d="M497,1201.7c-16.8,0-31.4,9.2-39.1,22.7c7.8,13.6,22.4,22.7,39.1,22.7
				c16.8,0,31.4-9.2,39.1-22.7C528.4,1210.8,513.8,1201.7,497,1201.7z"/>
		</g>
	</g>
</g>
<g id="XMLID_2_">
	<circle id="XMLID_24_" class="st1" cx="758" cy="1315" r="19.6"/>
	<circle id="XMLID_23_" class="st1" cx="758" cy="1315" r="11"/>
	<g id="XMLID_19_" class="st2">
		<g id="XMLID_21_">
			<linearGradient id="XMLID_112_" gradientUnits="userSpaceOnUse" x1="755.2919" y1="1313.0695" x2="760.7081" y2="1313.0695">
				<stop  offset="0" style="stop-color:#FFFFFF"/>
				<stop  offset="0.9154" style="stop-color:#FFFFFF;stop-opacity:0.3592"/>
				<stop  offset="1" style="stop-color:#FFFFFF;stop-opacity:0.3"/>
			</linearGradient>
			<circle id="XMLID_22_" class="st18" cx="758" cy="1313.1" r="2.7"/>
		</g>
		<linearGradient id="XMLID_116_" gradientUnits="userSpaceOnUse" x1="754.1738" y1="1318.072" x2="762.9034" y2="1318.6461">
			<stop  offset="0" style="stop-color:#FFFFFF"/>
			<stop  offset="1" style="stop-color:#FFFFFF;stop-opacity:0.3"/>
		</linearGradient>
		<path id="XMLID_20_" class="st19" d="M758,1315.8c-1.9,0-3.5,1-4.4,2.6c0.9,1.5,2.5,2.6,4.4,2.6s3.5-1,4.4-2.6
			C761.5,1316.8,759.9,1315.8,758,1315.8z"/>
	</g>
</g>
<g id="XMLID_25_">
	<circle id="XMLID_31_" class="st1" cx="590" cy="1374" r="19.6"/>
	<circle id="XMLID_30_" class="st1" cx="590" cy="1374" r="11"/>
	<g id="XMLID_26_" class="st2">
		<g id="XMLID_28_">
			<linearGradient id="XMLID_117_" gradientUnits="userSpaceOnUse" x1="587.2919" y1="1372.0695" x2="592.7081" y2="1372.0695">
				<stop  offset="0" style="stop-color:#FFFFFF"/>
				<stop  offset="0.9154" style="stop-color:#FFFFFF;stop-opacity:0.3592"/>
				<stop  offset="1" style="stop-color:#FFFFFF;stop-opacity:0.3"/>
			</linearGradient>
			<circle id="XMLID_29_" class="st20" cx="590" cy="1372.1" r="2.7"/>
		</g>
		<linearGradient id="XMLID_118_" gradientUnits="userSpaceOnUse" x1="586.1738" y1="1377.072" x2="594.9034" y2="1377.6461">
			<stop  offset="0" style="stop-color:#FFFFFF"/>
			<stop  offset="1" style="stop-color:#FFFFFF;stop-opacity:0.3"/>
		</linearGradient>
		<path id="XMLID_27_" class="st21" d="M590,1374.8c-1.9,0-3.5,1-4.4,2.6c0.9,1.5,2.5,2.6,4.4,2.6s3.5-1,4.4-2.6
			C593.5,1375.8,591.9,1374.8,590,1374.8z"/>
	</g>
</g>
<g id="XMLID_32_">
	<circle id="XMLID_35_" class="st5" cx="1005.6" cy="1260.5" r="4.6"/>
	<circle id="XMLID_34_" class="st12" cx="1005.6" cy="1260.5" r="8.5"/>
	<circle id="XMLID_33_" class="st13" cx="1005.6" cy="1260.5" r="12.5"/>
</g>
<g id="XMLID_36_">
	<circle id="XMLID_39_" class="st5" cx="349.6" cy="960.5" r="4.6"/>
	<circle id="XMLID_38_" class="st12" cx="349.6" cy="960.5" r="8.5"/>
	<circle id="XMLID_37_" class="st13" cx="349.6" cy="960.5" r="12.5"/>
</g>
<g id="XMLID_78_">
</g>
<g id="XMLID_79_">
</g>
<g id="XMLID_80_">
</g>
<g id="XMLID_87_">
</g>
<g id="XMLID_88_">
</g>
<g id="XMLID_89_">
</g>
<g id="XMLID_90_">
</g>
<g id="XMLID_91_">
</g>
<g id="XMLID_92_">
</g>
<g id="XMLID_93_">
</g>
<g id="XMLID_94_">
</g>
<g id="XMLID_95_">
</g>
<g id="XMLID_96_">
</g>
<g id="XMLID_97_">
</g>
<g id="XMLID_98_">
</g>
</svg>
