<?xml version="1.0" encoding="UTF-8" standalone="no"?>
<svg
   xmlns:dc="http://purl.org/dc/elements/1.1/"
   xmlns:cc="http://creativecommons.org/ns#"
   xmlns:rdf="http://www.w3.org/1999/02/22-rdf-syntax-ns#"
   xmlns:svg="http://www.w3.org/2000/svg"
   xmlns="http://www.w3.org/2000/svg"
   xmlns:sodipodi="http://sodipodi.sourceforge.net/DTD/sodipodi-0.dtd"
   xmlns:inkscape="http://www.inkscape.org/namespaces/inkscape"
   viewBox="0 0 1249.6104 359.99999"
   height="384"
   width="1332.918"
   id="svg2"
   version="1.1"
   inkscape:version="0.91 r13725"
   sodipodi:docname="implementation.svg">
  <metadata
     id="metadata12">
    <rdf:RDF>
      <cc:Work
         rdf:about="">
        <dc:format>image/svg+xml</dc:format>
        <dc:type
           rdf:resource="http://purl.org/dc/dcmitype/StillImage" />
      </cc:Work>
    </rdf:RDF>
  </metadata>
  <defs
     id="defs10" />
  <sodipodi:namedview
     pagecolor="#ffffff"
     bordercolor="#666666"
     borderopacity="1"
     objecttolerance="10"
     gridtolerance="10"
     guidetolerance="10"
     inkscape:pageopacity="0"
     inkscape:pageshadow="2"
     inkscape:window-width="2560"
     inkscape:window-height="1362"
     id="namedview8"
     showgrid="false"
     inkscape:zoom="0.25507946"
     inkscape:cx="666.45898"
     inkscape:cy="192"
     inkscape:window-x="0"
     inkscape:window-y="348"
     inkscape:window-maximized="1"
     inkscape:current-layer="svg2" />
  <path
     d="M0 0h1063.485c64.07 62.533 140.535 137.524 186.125 182.827-41.787 40.783-127.45 126.689-178.434 177.173H0l183.848-176.728z"
     fill="#43bb8d"
     fill-rule="evenodd"
     id="path4" />
  <path
     d="m 214.38315,209.22399 0,-80.31 9.339,0 0,80.31 -9.339,0 z m 106.788,0 0,-39.167 q 0,-7.196 -3.077,-10.767 -3.076,-3.625 -9.558,-3.625 -8.514,0 -12.58,4.889 -4.064,4.888 -4.064,15.05 l 0,33.619 -9.119,0 0,-39.166 q 0,-7.196 -3.076,-10.767 -3.076,-3.625 -9.613,-3.625 -8.57,0 -12.58,5.163 -3.954,5.109 -3.954,16.81 l 0,31.585 -9.12,0 0,-60.205 7.417,0 1.483,8.24 0.44,0 q 2.581,-4.395 7.25,-6.867 4.724,-2.472 10.547,-2.472 14.118,0 18.457,10.218 l 0.44,0 q 2.691,-4.725 7.8,-7.471 5.109,-2.747 11.645,-2.747 10.218,0 15.271,5.274 5.109,5.218 5.109,16.754 l 0,39.276 -9.119,0 z m 55.865,1.099 q -5.878,0 -10.767,-2.143 -4.834,-2.197 -8.13,-6.701 l -0.659,0 q 0.66,5.273 0.66,9.997 l 0,24.774 -9.12,0 0,-87.231 7.416,0 1.264,8.24 0.44,0 q 3.515,-4.944 8.184,-7.142 4.67,-2.197 10.712,-2.197 11.975,0 18.457,8.185 6.537,8.185 6.537,22.961 0,14.832 -6.647,23.072 -6.592,8.185 -18.347,8.185 z m -1.319,-54.657 q -9.228,0 -13.348,5.108 -4.12,5.109 -4.23,16.26 l 0,2.032 q 0,12.69 4.23,18.183 4.23,5.438 13.568,5.438 7.8,0 12.195,-6.317 4.45,-6.317 4.45,-17.413 0,-11.261 -4.45,-17.249 -4.394,-6.042 -12.415,-6.042 z m 51.417,53.558 -9.12,0 0,-85.474 9.12,0 0,85.474 z m 44.879,1.099 q -13.349,0 -21.094,-8.13 -7.69,-8.13 -7.69,-22.577 0,-14.557 7.14,-23.126 7.197,-8.57 19.282,-8.57 11.316,0 17.907,7.47 6.592,7.417 6.592,19.612 l 0,5.767 -41.473,0 q 0.274,10.602 5.328,16.095 5.109,5.493 14.337,5.493 9.723,0 19.226,-4.064 l 0,8.13 q -4.834,2.087 -9.173,2.966 -4.285,0.934 -10.382,0.934 z m -2.472,-54.767 q -7.251,0 -11.59,4.724 -4.286,4.724 -5.055,13.074 l 31.476,0 q 0,-8.625 -3.845,-13.184 -3.845,-4.614 -10.986,-4.614 z m 116.84,53.668 0,-39.167 q 0,-7.196 -3.077,-10.767 -3.076,-3.625 -9.558,-3.625 -8.514,0 -12.58,4.889 -4.064,4.888 -4.064,15.05 l 0,33.619 -9.119,0 0,-39.166 q 0,-7.196 -3.076,-10.767 -3.076,-3.625 -9.613,-3.625 -8.57,0 -12.58,5.163 -3.955,5.109 -3.955,16.81 l 0,31.585 -9.118,0 0,-60.205 7.416,0 1.483,8.24 0.44,0 q 2.581,-4.395 7.25,-6.867 4.724,-2.472 10.547,-2.472 14.118,0 18.457,10.218 l 0.44,0 q 2.691,-4.725 7.8,-7.471 5.108,-2.747 11.645,-2.747 10.218,0 15.271,5.274 5.109,5.218 5.109,16.754 l 0,39.276 -9.119,0 z m 53.283,1.099 q -13.348,0 -21.094,-8.13 -7.69,-8.13 -7.69,-22.577 0,-14.557 7.141,-23.126 7.196,-8.57 19.281,-8.57 11.316,0 17.908,7.47 6.591,7.417 6.591,19.612 l 0,5.767 -41.473,0 q 0.275,10.602 5.328,16.095 5.11,5.493 14.338,5.493 9.723,0 19.226,-4.064 l 0,8.13 q -4.834,2.087 -9.174,2.966 -4.285,0.934 -10.382,0.934 z m -2.472,-54.767 q -7.25,0 -11.59,4.724 -4.285,4.724 -5.054,13.074 l 31.476,0 q 0,-8.625 -3.846,-13.184 -3.845,-4.614 -10.986,-4.614 z m 81.299,53.668 0,-38.947 q 0,-7.36 -3.35,-10.986 -3.352,-3.625 -10.493,-3.625 -9.448,0 -13.843,5.108 -4.394,5.109 -4.394,16.864 l 0,31.586 -9.119,0 0,-60.205 7.416,0 1.483,8.24 0.44,0 q 2.801,-4.45 7.855,-6.867 5.054,-2.472 11.26,-2.472 10.877,0 16.37,5.274 5.494,5.218 5.494,16.754 l 0,39.276 -9.12,0 z m 47.241,-6.427 q 2.417,0 4.67,-0.33 2.252,-0.384 3.57,-0.769 l 0,6.977 q -1.483,0.714 -4.395,1.153 -2.856,0.495 -5.163,0.495 -17.468,0 -17.468,-18.403 l 0,-35.815 -8.625,0 0,-4.394 8.625,-3.79 3.845,-12.855 5.273,0 0,13.953 17.468,0 0,7.086 -17.468,0 0,35.431 q 0,5.438 2.582,8.35 2.582,2.91 7.086,2.91 z m 57.349,6.427 -1.813,-8.57 -0.44,0 q -4.504,5.659 -9.008,7.691 -4.45,1.978 -11.151,1.978 -8.954,0 -14.063,-4.615 -5.054,-4.614 -5.054,-13.128 0,-18.238 29.17,-19.117 l 10.216,-0.33 0,-3.735 q 0,-7.086 -3.076,-10.437 -3.021,-3.405 -9.723,-3.405 -7.525,0 -17.028,4.614 l -2.802,-6.976 q 4.45,-2.417 9.723,-3.79 5.328,-1.374 10.657,-1.374 10.766,0 15.93,4.78 5.218,4.778 5.218,15.325 l 0,41.089 -6.756,0 z m -20.6,-6.427 q 8.515,0 13.349,-4.67 4.889,-4.668 4.889,-13.073 l 0,-5.438 -9.119,0.384 q -10.876,0.385 -15.71,3.406 -4.78,2.966 -4.78,9.284 0,4.943 2.967,7.525 3.021,2.582 8.404,2.582 z m 65.644,0 q 2.417,0 4.669,-0.33 2.252,-0.384 3.57,-0.769 l 0,6.977 q -1.483,0.714 -4.394,1.153 -2.857,0.495 -5.164,0.495 -17.468,0 -17.468,-18.403 l 0,-35.815 -8.624,0 0,-4.394 8.624,-3.79 3.845,-12.855 5.274,0 0,13.953 17.468,0 0,7.086 -17.468,0 0,35.431 q 0,5.438 2.582,8.35 2.581,2.91 7.086,2.91 z m 29.443,6.427 -9.119,0 0,-60.205 9.12,0 0,60.205 z m -9.888,-76.52 q 0,-3.13 1.538,-4.56 1.539,-1.482 3.846,-1.482 2.197,0 3.79,1.483 1.593,1.483 1.593,4.56 0,3.075 -1.593,4.613 -1.593,1.484 -3.79,1.484 -2.307,0 -3.846,-1.484 -1.538,-1.538 -1.538,-4.614 z m 81.299,46.363 q 0,14.721 -7.416,23.016 -7.415,8.24 -20.49,8.24 -8.074,0 -14.336,-3.79 -6.262,-3.791 -9.668,-10.877 -3.406,-7.086 -3.406,-16.59 0,-14.721 7.36,-22.906 7.362,-8.24 20.435,-8.24 12.635,0 20.05,8.405 7.471,8.404 7.471,22.741 z m -45.868,0 q 0,11.535 4.615,17.578 4.614,6.042 13.568,6.042 8.954,0 13.568,-5.987 4.669,-6.043 4.669,-17.634 0,-11.48 -4.67,-17.413 -4.613,-5.987 -13.677,-5.987 -8.954,0 -13.513,5.877 -4.56,5.878 -4.56,17.523 z m 102.99705,30.157 0,-38.947 q 0,-7.36 -3.35,-10.986 -3.352,-3.625 -10.493,-3.625 -9.448,0 -13.84205,5.108 -4.395,5.109 -4.395,16.864 l 0,31.586 -9.119,0 0,-60.205 7.416,0 1.483,8.24 0.44,0 q 2.801,-4.45 7.85505,-6.867 5.054,-2.472 11.261,-2.472 10.876,0 16.37,5.274 5.493,5.218 5.493,16.754 l 0,39.276 -9.119,0 z"
     style="font-weight:400;font-size:112.5px;font-family:'Open Sans';-inkscape-font-specification:'Open Sans';letter-spacing:0;word-spacing:0;fill:#ffffff"
     font-weight="400"
     font-size="112.5"
     letter-spacing="0"
     word-spacing="0"
     id="path6"
     inkscape:connector-curvature="0" />
</svg>
