<svg xmlns="http://www.w3.org/2000/svg" width="1332.918" height="384" viewBox="0 0 1249.61 360"><path fill="#43bb8d" fill-rule="evenodd" d="M0 0h1063.485c64.07 62.533 140.535 137.524 186.125 182.827-41.787 40.783-127.45 126.689-178.434 177.173H0l183.848-176.728z"/><path style="-inkscape-font-specification:'Open Sans'" fill="#fff" d="M214.383 209.224v-80.31h9.34v80.31h-9.34zm106.788 0v-39.167q0-7.196-3.077-10.767-3.076-3.625-9.558-3.625-8.514 0-12.58 4.889-4.064 4.888-4.064 15.05v33.619h-9.119v-39.166q0-7.196-3.076-10.767-3.076-3.625-9.613-3.625-8.57 0-12.58 5.163-3.954 5.109-3.954 16.81v31.585h-9.12v-60.205h7.417l1.483 8.24h.44q2.581-4.395 7.25-6.867 4.724-2.472 10.547-2.472 14.118 0 18.457 10.218h.44q2.691-4.725 7.8-7.471 5.11-2.747 11.645-2.747 10.218 0 15.271 5.274 5.11 5.218 5.11 16.754v39.276h-9.12zm55.865 1.099q-5.878 0-10.767-2.143-4.834-2.197-8.13-6.701h-.659q.66 5.273.66 9.997v24.774h-9.12v-87.231h7.416l1.264 8.24h.44q3.515-4.944 8.184-7.142 4.67-2.197 10.712-2.197 11.975 0 18.457 8.185 6.537 8.185 6.537 22.961 0 14.832-6.647 23.072-6.592 8.185-18.347 8.185zm-1.319-54.657q-9.228 0-13.348 5.108-4.12 5.109-4.23 16.26v2.032q0 12.69 4.23 18.183 4.23 5.438 13.568 5.438 7.8 0 12.195-6.317 4.45-6.317 4.45-17.413 0-11.261-4.45-17.249-4.394-6.042-12.415-6.042zm51.417 53.558h-9.12V123.75h9.12v85.474zm44.88 1.099q-13.35 0-21.095-8.13-7.69-8.13-7.69-22.577 0-14.557 7.14-23.126 7.197-8.57 19.282-8.57 11.316 0 17.907 7.47 6.592 7.417 6.592 19.612v5.767h-41.473q.274 10.602 5.328 16.095 5.11 5.493 14.337 5.493 9.723 0 19.226-4.064v8.13q-4.834 2.087-9.173 2.966-4.285.934-10.382.934zm-2.473-54.767q-7.25 0-11.59 4.724-4.286 4.724-5.055 13.074h31.476q0-8.625-3.845-13.184-3.845-4.614-10.986-4.614zm116.84 53.668v-39.167q0-7.196-3.077-10.767-3.076-3.625-9.558-3.625-8.514 0-12.58 4.889-4.064 4.888-4.064 15.05v33.619h-9.119v-39.166q0-7.196-3.076-10.767-3.076-3.625-9.613-3.625-8.57 0-12.58 5.163-3.955 5.109-3.955 16.81v31.585h-9.118v-60.205h7.416l1.483 8.24h.44q2.581-4.395 7.25-6.867 4.724-2.472 10.547-2.472 14.118 0 18.457 10.218h.44q2.691-4.725 7.8-7.471 5.108-2.747 11.645-2.747 10.218 0 15.271 5.274 5.11 5.218 5.11 16.754v39.276h-9.12zm53.283 1.099q-13.348 0-21.094-8.13-7.69-8.13-7.69-22.577 0-14.557 7.141-23.126 7.196-8.57 19.281-8.57 11.316 0 17.908 7.47 6.591 7.417 6.591 19.612v5.767h-41.473q.275 10.602 5.328 16.095 5.11 5.493 14.338 5.493 9.723 0 19.226-4.064v8.13q-4.834 2.087-9.174 2.966-4.285.934-10.382.934zm-2.472-54.767q-7.25 0-11.59 4.724-4.285 4.724-5.054 13.074h31.476q0-8.625-3.846-13.184-3.845-4.614-10.986-4.614zm81.3 53.668v-38.947q0-7.36-3.35-10.986-3.353-3.625-10.494-3.625-9.448 0-13.843 5.108-4.394 5.109-4.394 16.864v31.586h-9.119v-60.205h7.416l1.483 8.24h.44q2.801-4.45 7.855-6.867 5.054-2.472 11.26-2.472 10.877 0 16.37 5.274 5.494 5.218 5.494 16.754v39.276h-9.12zm47.24-6.427q2.417 0 4.67-.33 2.252-.384 3.57-.769v6.977q-1.483.714-4.395 1.153-2.856.495-5.163.495-17.468 0-17.468-18.403v-35.815h-8.625v-4.394l8.625-3.79 3.845-12.855h5.273v13.953h17.468v7.086h-17.468v35.431q0 5.438 2.582 8.35 2.582 2.91 7.086 2.91zm57.35 6.427l-1.814-8.57h-.44q-4.504 5.659-9.008 7.691-4.45 1.978-11.15 1.978-8.955 0-14.064-4.615-5.054-4.614-5.054-13.128 0-18.238 29.17-19.117l10.216-.33v-3.735q0-7.086-3.076-10.437-3.02-3.405-9.723-3.405-7.525 0-17.028 4.614l-2.802-6.976q4.45-2.417 9.723-3.79 5.328-1.374 10.657-1.374 10.766 0 15.93 4.78 5.218 4.778 5.218 15.325v41.089h-6.756zm-20.6-6.427q8.514 0 13.348-4.67 4.89-4.668 4.89-13.073v-5.438l-9.12.384q-10.876.385-15.71 3.406-4.78 2.966-4.78 9.284 0 4.943 2.967 7.525 3.021 2.582 8.404 2.582zm65.643 0q2.417 0 4.67-.33 2.251-.384 3.57-.769v6.977q-1.484.714-4.395 1.153-2.857.495-5.164.495-17.468 0-17.468-18.403v-35.815h-8.624v-4.394l8.624-3.79 3.845-12.855h5.274v13.953h17.468v7.086h-17.468v35.431q0 5.438 2.582 8.35 2.581 2.91 7.086 2.91zm29.443 6.427h-9.119v-60.205h9.12v60.205zm-9.888-76.52q0-3.13 1.538-4.56 1.54-1.482 3.846-1.482 2.197 0 3.79 1.483t1.593 4.56q0 3.075-1.593 4.613-1.593 1.484-3.79 1.484-2.307 0-3.846-1.484-1.538-1.538-1.538-4.614zm81.3 46.363q0 14.721-7.417 23.016-7.415 8.24-20.49 8.24-8.074 0-14.336-3.79-6.262-3.791-9.668-10.877-3.406-7.086-3.406-16.59 0-14.721 7.36-22.906 7.362-8.24 20.435-8.24 12.635 0 20.05 8.405 7.471 8.404 7.471 22.741zm-45.869 0q0 11.535 4.615 17.578 4.614 6.042 13.568 6.042t13.568-5.987q4.67-6.043 4.67-17.634 0-11.48-4.67-17.413-4.614-5.987-13.678-5.987-8.954 0-13.513 5.877-4.56 5.878-4.56 17.523zm102.997 30.157v-38.947q0-7.36-3.35-10.986-3.352-3.625-10.493-3.625-9.448 0-13.842 5.108-4.395 5.109-4.395 16.864v31.586h-9.119v-60.205h7.416l1.483 8.24h.44q2.801-4.45 7.855-6.867 5.054-2.472 11.261-2.472 10.876 0 16.37 5.274 5.493 5.218 5.493 16.754v39.276h-9.119z" font-family="Open Sans" font-size="112.5" font-weight="400" letter-spacing="0" word-spacing="0"/></svg>