<svg xmlns="http://www.w3.org/2000/svg" viewBox="0 0 1249.6104 359.99999" height="384" width="1332.918"><path d="M0 0h1063.485c64.07 62.533 140.535 137.524 186.125 182.827-41.787 40.783-127.45 126.689-178.434 177.173H0l183.848-176.728z" fill="#449bc1" fill-rule="evenodd"/><path d="M273.078 174.37v33.398h-9.338v-80.31h22.027q14.777 0 21.808 5.658 7.086 5.658 7.086 17.029 0 15.93-16.15 21.533l21.808 36.09h-11.041l-19.446-33.399h-16.754zm0-8.02h12.799q9.888 0 14.502-3.9 4.614-3.956 4.614-11.811 0-7.965-4.724-11.48-4.67-3.516-15.051-3.516h-12.14v30.706zm84.375 42.517q-13.348 0-21.094-8.13-7.69-8.13-7.69-22.577 0-14.557 7.14-23.126 7.197-8.57 19.282-8.57 11.316 0 17.908 7.47 6.59 7.417 6.59 19.612v5.767h-41.472q.275 10.602 5.328 16.095 5.109 5.493 14.337 5.493 9.723 0 19.227-4.064v8.13q-4.834 2.087-9.174 2.966-4.285.934-10.382.934zM354.98 154.1q-7.251 0-11.59 4.724-4.285 4.724-5.054 13.074h31.476q0-8.625-3.846-13.184-3.845-4.614-10.986-4.614zm62.843 47.131q9.118 0 13.293-4.889 4.175-4.889 4.45-16.48v-2.032q0-12.634-4.285-18.182-4.285-5.548-13.568-5.548-8.02 0-12.305 6.262-4.23 6.207-4.23 17.578 0 11.37 4.175 17.358 4.23 5.933 12.47 5.933zm-1.374 7.636q-11.645 0-18.182-8.185-6.537-8.185-6.537-22.852 0-14.776 6.592-23.071 6.592-8.295 18.347-8.295 12.36 0 19.007 9.339h.494l1.318-8.24h7.196v87.231h-9.118v-25.763q0-5.493.604-9.338h-.714q-6.317 9.174-19.007 9.174zm56.196-61.304v39.056q0 7.361 3.35 10.987 3.35 3.625 10.492 3.625 9.449 0 13.788-5.163 4.395-5.164 4.395-16.865v-31.64h9.118v60.205h-7.525l-1.32-8.075h-.493q-2.802 4.45-7.8 6.812-4.944 2.362-11.316 2.362-10.987 0-16.48-5.219-5.438-5.218-5.438-16.7v-39.385h9.229zm69.543 60.205h-9.12v-60.205h9.12v60.205zm-9.888-76.52q0-3.13 1.538-4.56 1.538-1.482 3.846-1.482 2.197 0 3.79 1.483t1.593 4.56q0 3.075-1.593 4.613-1.593 1.484-3.79 1.484-2.308 0-3.846-1.484-1.538-1.538-1.538-4.614zm56.8 15.216q4.01 0 7.196.66l-1.264 8.459q-3.735-.824-6.592-.824-7.305 0-12.524 5.933-5.164 5.932-5.164 14.776v32.3h-9.118v-60.205h7.525l1.044 11.151h.44q3.35-5.878 8.075-9.064 4.724-3.186 10.382-3.186zm43.89 62.403q-13.348 0-21.094-8.13-7.69-8.13-7.69-22.577 0-14.557 7.14-23.126 7.197-8.57 19.282-8.57 11.316 0 17.908 7.47 6.59 7.417 6.59 19.612v5.767h-41.472q.275 10.602 5.328 16.095 5.11 5.493 14.338 5.493 9.722 0 19.226-4.064v8.13q-4.834 2.087-9.174 2.966-4.285.934-10.382.934zm-2.472-54.767q-7.25 0-11.59 4.724-4.285 4.724-5.054 13.074h31.476q0-8.625-3.846-13.184-3.845-4.614-10.986-4.614zm116.84 53.668v-39.166q0-7.196-3.076-10.767-3.077-3.625-9.56-3.625-8.513 0-12.578 4.888-4.065 4.89-4.065 15.052v33.618h-9.12v-39.166q0-7.196-3.075-10.767-3.076-3.625-9.613-3.625-8.57 0-12.58 5.163-3.954 5.109-3.954 16.81v31.585h-9.12v-60.205h7.417l1.483 8.24h.44q2.58-4.395 7.25-6.867 4.725-2.472 10.547-2.472 14.118 0 18.457 10.218h.44q2.692-4.725 7.8-7.471 5.109-2.747 11.646-2.747 10.217 0 15.27 5.274 5.11 5.218 5.11 16.754v39.276h-9.12zm53.283 1.099q-13.348 0-21.093-8.13-7.69-8.13-7.69-22.577 0-14.557 7.14-23.126 7.196-8.57 19.28-8.57 11.317 0 17.909 7.47 6.592 7.417 6.592 19.612v5.767h-41.474q.275 10.602 5.329 16.095 5.108 5.493 14.337 5.493 9.723 0 19.226-4.064v8.13q-4.834 2.087-9.174 2.966-4.284.934-10.382.934zM798.17 154.1q-7.25 0-11.59 4.724-4.285 4.724-5.054 13.074h31.476q0-8.625-3.845-13.184-3.845-4.614-10.987-4.614zm81.298 53.668V168.82q0-7.36-3.35-10.986-3.351-3.625-10.492-3.625-9.45 0-13.843 5.108-4.395 5.109-4.395 16.864v31.586h-9.118v-60.205h7.415l1.483 8.24h.44q2.8-4.45 7.855-6.867 5.054-2.472 11.26-2.472 10.878 0 16.37 5.274 5.494 5.218 5.494 16.754v39.276h-9.12zm47.242-6.428q2.416 0 4.669-.329 2.252-.384 3.57-.769v6.977q-1.483.714-4.394 1.153-2.857.495-5.164.495-17.468 0-17.468-18.403V154.65h-8.624v-4.394l8.624-3.79 3.845-12.855h5.274v13.953h17.468v7.086h-17.468v35.431q0 5.438 2.58 8.35 2.583 2.91 7.087 2.91zm59.16-9.997q0 8.405-6.261 12.964-6.263 4.56-17.578 4.56-11.976 0-18.677-3.79v-8.46q4.34 2.197 9.283 3.46 4.999 1.264 9.613 1.264 7.14 0 10.987-2.252 3.845-2.307 3.845-6.977 0-3.515-3.076-5.987-3.022-2.527-11.866-5.933-8.404-3.13-11.975-5.438-3.515-2.362-5.273-5.328-1.703-2.967-1.703-7.087 0-7.36 5.988-11.59 5.987-4.285 16.424-4.285 9.723 0 19.006 3.955l-3.24 7.416q-9.064-3.735-16.425-3.735-6.482 0-9.778 2.032-3.296 2.033-3.296 5.603 0 2.417 1.209 4.12 1.263 1.703 4.01 3.241 2.746 1.538 10.547 4.45 10.71 3.9 14.447 7.855 3.79 3.955 3.79 9.942z" style="-inkscape-font-specification:'Open Sans'" font-weight="400" font-size="112.5" letter-spacing="0" word-spacing="0" font-family="Open Sans" fill="#fff"/></svg>