<?xml version="1.0" encoding="UTF-8" standalone="no"?>
<svg
   xmlns:dc="http://purl.org/dc/elements/1.1/"
   xmlns:cc="http://creativecommons.org/ns#"
   xmlns:rdf="http://www.w3.org/1999/02/22-rdf-syntax-ns#"
   xmlns:svg="http://www.w3.org/2000/svg"
   xmlns="http://www.w3.org/2000/svg"
   xmlns:sodipodi="http://sodipodi.sourceforge.net/DTD/sodipodi-0.dtd"
   xmlns:inkscape="http://www.inkscape.org/namespaces/inkscape"
   version="1.1"
   id="svg2"
   viewBox="0 0 1249.6104 359.99999"
   height="101.6mm"
   width="352.66782mm"
   inkscape:version="0.91 r13725"
   sodipodi:docname="requirements.svg">
  <sodipodi:namedview
     pagecolor="#ffffff"
     bordercolor="#666666"
     borderopacity="1"
     objecttolerance="10"
     gridtolerance="10"
     guidetolerance="10"
     inkscape:pageopacity="0"
     inkscape:pageshadow="2"
     inkscape:window-width="2560"
     inkscape:window-height="1362"
     id="namedview9"
     showgrid="false"
     inkscape:zoom="0.27208481"
     inkscape:cx="624.80519"
     inkscape:cy="180"
     inkscape:window-x="0"
     inkscape:window-y="348"
     inkscape:window-maximized="1"
     inkscape:current-layer="svg2" />
  <defs
     id="defs4" />
  <metadata
     id="metadata7">
    <rdf:RDF>
      <cc:Work
         rdf:about="">
        <dc:format>image/svg+xml</dc:format>
        <dc:type
           rdf:resource="http://purl.org/dc/dcmitype/StillImage" />
        <dc:title />
      </cc:Work>
    </rdf:RDF>
  </metadata>
  <g
     transform="translate(158.22904,379.45806)"
     id="layer1">
    <path
       id="rect4136"
       d="m -158.22903,-379.45805 1063.4848,-10e-6 c 64.06945,62.53263 140.53553,137.52385 186.12553,182.82738 -41.7875,40.78275 -127.44997,126.688407 -178.43427,177.172615 l -1071.17606,1.1e-5 183.847764,-176.728286 z"
       style="opacity:1;fill:#449bc1;fill-opacity:1;fill-rule:evenodd;stroke:#000000;stroke-width:0;stroke-miterlimit:4;stroke-dasharray:none;stroke-opacity:1" />
    <g
       style="font-style:normal;font-variant:normal;font-weight:normal;font-stretch:normal;font-size:25px;line-height:125%;font-family:'DejaVu Sans';-inkscape-font-specification:'DejaVu Sans, Normal';text-align:start;letter-spacing:0px;word-spacing:0px;writing-mode:lr-tb;text-anchor:start;fill:#000000;fill-opacity:1;stroke:none;stroke-width:1px;stroke-linecap:butt;stroke-linejoin:miter;stroke-opacity:1"
       id="text4177">
      <path
         d="m 114.84885,-205.08856 0,33.39844 -9.33837,0 0,-80.31006 22.02758,0 q 14.77661,0 21.80786,5.65796 7.08619,5.65795 7.08619,17.0288 0,15.93018 -16.14991,21.53321 l 21.80787,36.09009 -11.04126,0 -19.44581,-33.39844 -16.75415,0 z m 0,-8.02002 12.79908,0 q 9.88769,0 14.50195,-3.90015 4.61426,-3.95508 4.61426,-11.8103 0,-7.96509 -4.72412,-11.48071 -4.66919,-3.51563 -15.05127,-3.51563 l -12.1399,0 0,30.70679 z"
         style="font-style:normal;font-variant:normal;font-weight:normal;font-stretch:normal;font-size:112.5px;font-family:'Open Sans';-inkscape-font-specification:'Open Sans';fill:#ffffff"
         id="path4138" />
      <path
         d="m 199.22385,-170.59149 q -13.34838,0 -21.09375,-8.12988 -7.69043,-8.12989 -7.69043,-22.57691 0,-14.55688 7.14112,-23.12622 7.19604,-8.56934 19.281,-8.56934 11.31592,0 17.90772,7.47071 6.5918,7.41577 6.5918,19.61059 l 0,5.76783 -41.47339,0 q 0.27465,10.6018 5.32837,16.09497 5.10864,5.49316 14.33715,5.49316 9.7229,0 19.22608,-4.06494 l 0,8.12988 q -4.83399,2.0874 -9.17359,2.96631 -4.28466,0.93384 -10.38208,0.93384 z m -2.47192,-54.76685 q -7.25098,0 -11.59058,4.72412 -4.28466,4.72412 -5.05371,13.07373 l 31.47583,0 q 0,-8.62426 -3.84521,-13.18359 -3.84522,-4.61426 -10.98633,-4.61426 z"
         style="font-style:normal;font-variant:normal;font-weight:normal;font-stretch:normal;font-size:112.5px;font-family:'Open Sans';-inkscape-font-specification:'Open Sans';fill:#ffffff"
         id="path4140" />
      <path
         d="m 259.59373,-178.22699 q 9.11865,0 13.29345,-4.88892 4.17481,-4.88891 4.44947,-16.47949 l 0,-2.03247 q 0,-12.63428 -4.28467,-18.18237 -4.28467,-5.5481 -13.56812,-5.5481 -8.02002,0 -12.30468,6.26221 -4.22974,6.20728 -4.22974,17.57812 0,11.37085 4.1748,17.3584 4.22974,5.93262 12.46949,5.93262 z m -1.37329,7.6355 q -11.64551,0 -18.18238,-8.18482 -6.53686,-8.18481 -6.53686,-22.85156 0,-14.77661 6.59179,-23.07129 6.5918,-8.29468 18.34717,-8.29468 12.35962,0 19.00635,9.33838 l 0.49439,0 1.31835,-8.23974 7.19605,0 0,87.23144 -9.11865,0 0,-25.76294 q 0,-5.49316 0.60425,-9.33838 l -0.71412,0 q -6.31713,9.17359 -19.00634,9.17359 z"
         style="font-style:normal;font-variant:normal;font-weight:normal;font-stretch:normal;font-size:112.5px;font-family:'Open Sans';-inkscape-font-specification:'Open Sans';fill:#ffffff"
         id="path4142" />
      <path
         d="m 314.4155,-231.8952 0,39.05639 q 0,7.36084 3.35083,10.98633 3.35083,3.62549 10.49195,3.62549 9.44824,0 13.78784,-5.16357 4.39453,-5.16358 4.39453,-16.86402 l 0,-31.64062 9.11865,0 0,60.20508 -7.52563,0 -1.31836,-8.07496 -0.49439,0 q -2.80151,4.44947 -7.80029,6.81153 -4.94385,2.36206 -11.31592,2.36206 -10.98632,0 -16.47949,-5.21851 -5.43823,-5.2185 -5.43823,-16.69922 l 0,-39.38598 9.22851,0 z"
         style="font-style:normal;font-variant:normal;font-weight:normal;font-stretch:normal;font-size:112.5px;font-family:'Open Sans';-inkscape-font-specification:'Open Sans';fill:#ffffff"
         id="path4144" />
      <path
         d="m 383.95896,-171.69012 -9.11865,0 0,-60.20508 9.11865,0 0,60.20508 z m -9.88769,-76.51978 q 0,-3.1311 1.53808,-4.55933 1.53809,-1.48315 3.84522,-1.48315 2.19726,0 3.79028,1.48315 1.59302,1.48316 1.59302,4.55933 0,3.07617 -1.59302,4.61426 -1.59302,1.48315 -3.79028,1.48315 -2.30713,0 -3.84522,-1.48315 -1.53808,-1.53809 -1.53808,-4.61426 z"
         style="font-style:normal;font-variant:normal;font-weight:normal;font-stretch:normal;font-size:112.5px;font-family:'Open Sans';-inkscape-font-specification:'Open Sans';fill:#ffffff"
         id="path4146" />
      <path
         d="m 430.87058,-232.99384 q 4.01001,0 7.19605,0.65918 l -1.26343,8.45948 q -3.73535,-0.82398 -6.5918,-0.82398 -7.30591,0 -12.52441,5.93262 -5.16358,5.93262 -5.16358,14.77661 l 0,32.29981 -9.11865,0 0,-60.20508 7.52564,0 1.0437,11.15112 0.43945,0 q 3.35083,-5.87769 8.07495,-9.06372 4.72412,-3.18604 10.38208,-3.18604 z"
         style="font-style:normal;font-variant:normal;font-weight:normal;font-stretch:normal;font-size:112.5px;font-family:'Open Sans';-inkscape-font-specification:'Open Sans';fill:#ffffff"
         id="path4148" />
      <path
         d="m 474.76096,-170.59149 q -13.34839,0 -21.09375,-8.12988 -7.69043,-8.12989 -7.69043,-22.57691 0,-14.55688 7.14112,-23.12622 7.19604,-8.56934 19.281,-8.56934 11.31592,0 17.90772,7.47071 6.59179,7.41577 6.59179,19.61059 l 0,5.76783 -41.47338,0 q 0.27465,10.6018 5.32837,16.09497 5.10864,5.49316 14.33715,5.49316 9.7229,0 19.22608,-4.06494 l 0,8.12988 q -4.83399,2.0874 -9.17359,2.96631 -4.28466,0.93384 -10.38208,0.93384 z m -2.47192,-54.76685 q -7.25098,0 -11.59058,4.72412 -4.28466,4.72412 -5.05371,13.07373 l 31.47583,0 q 0,-8.62426 -3.84521,-13.18359 -3.84522,-4.61426 -10.98633,-4.61426 z"
         style="font-style:normal;font-variant:normal;font-weight:normal;font-stretch:normal;font-size:112.5px;font-family:'Open Sans';-inkscape-font-specification:'Open Sans';fill:#ffffff"
         id="path4150" />
      <path
         d="m 589.12864,-171.69012 0,-39.16626 q 0,-7.19605 -3.07617,-10.76661 -3.07617,-3.62548 -9.55811,-3.62548 -8.5144,0 -12.57934,4.88891 -4.06495,4.88892 -4.06495,15.05127 l 0,33.61817 -9.11865,0 0,-39.16626 q 0,-7.19605 -3.07617,-10.76661 -3.07617,-3.62548 -9.61304,-3.62548 -8.56933,0 -12.57934,5.16357 -3.95508,5.10864 -3.95508,16.80908 l 0,31.5857 -9.11865,0 0,-60.20508 7.41577,0 1.48315,8.23974 0.43946,0 q 2.58178,-4.39453 7.25097,-6.86645 4.72412,-2.47193 10.54688,-2.47193 14.11743,0 18.45703,10.21729 l 0.43945,0 q 2.69165,-4.72412 7.8003,-7.4707 5.10864,-2.74659 11.6455,-2.74659 10.21729,0 15.271,5.27344 5.10864,5.21851 5.10864,16.75415 l 0,39.27613 -9.11865,0 z"
         style="font-style:normal;font-variant:normal;font-weight:normal;font-stretch:normal;font-size:112.5px;font-family:'Open Sans';-inkscape-font-specification:'Open Sans';fill:#ffffff"
         id="path4152" />
      <path
         d="m 642.41233,-170.59149 q -13.34839,0 -21.09375,-8.12988 -7.69043,-8.12989 -7.69043,-22.57691 0,-14.55688 7.14111,-23.12622 7.19605,-8.56934 19.28101,-8.56934 11.31592,0 17.90771,7.47071 6.5918,7.41577 6.5918,19.61059 l 0,5.76783 -41.47339,0 q 0.27466,10.6018 5.32837,16.09497 5.10864,5.49316 14.33716,5.49316 9.7229,0 19.22607,-4.06494 l 0,8.12988 q -4.83398,2.0874 -9.17358,2.96631 -4.28467,0.93384 -10.38208,0.93384 z m -2.47192,-54.76685 q -7.25098,0 -11.59058,4.72412 -4.28467,4.72412 -5.05371,13.07373 l 31.47583,0 q 0,-8.62426 -3.84522,-13.18359 -3.84521,-4.61426 -10.98632,-4.61426 z"
         style="font-style:normal;font-variant:normal;font-weight:normal;font-stretch:normal;font-size:112.5px;font-family:'Open Sans';-inkscape-font-specification:'Open Sans';fill:#ffffff"
         id="path4154" />
      <path
         d="m 721.23923,-171.69012 0,-38.94654 q 0,-7.36084 -3.35083,-10.98633 -3.35083,-3.62548 -10.49194,-3.62548 -9.44824,0 -13.84277,5.10864 -4.39453,5.10864 -4.39453,16.86401 l 0,31.5857 -9.11866,0 0,-60.20508 7.41578,0 1.48315,8.23974 0.43945,0 q 2.80152,-4.44946 7.85523,-6.86645 5.05371,-2.47193 11.26098,-2.47193 10.87647,0 16.36963,5.27344 5.49317,5.21851 5.49317,16.75415 l 0,39.27613 -9.11866,0 z"
         style="font-style:normal;font-variant:normal;font-weight:normal;font-stretch:normal;font-size:112.5px;font-family:'Open Sans';-inkscape-font-specification:'Open Sans';fill:#ffffff"
         id="path4156" />
      <path
         d="m 768.48045,-178.11713 q 2.41699,0 4.66919,-0.32959 2.25219,-0.38452 3.57055,-0.76904 l 0,6.97632 q -1.48315,0.71411 -4.39453,1.15356 -2.85644,0.49439 -5.16357,0.49439 -17.46827,0 -17.46827,-18.4021 l 0,-35.81543 -8.62426,0 0,-4.39453 8.62426,-3.79029 3.84522,-12.854 5.27344,0 0,13.95264 17.46826,0 0,7.08618 -17.46826,0 0,35.43091 q 0,5.43823 2.58178,8.34961 2.58179,2.91137 7.08619,2.91137 z"
         style="font-style:normal;font-variant:normal;font-weight:normal;font-stretch:normal;font-size:112.5px;font-family:'Open Sans';-inkscape-font-specification:'Open Sans';fill:#ffffff"
         id="path4158" />
      <path
         d="m 827.64182,-188.11469 q 0,8.40455 -6.2622,12.96387 -6.26221,4.55933 -17.57813,4.55933 -11.9751,0 -18.67676,-3.79028 l 0,-8.45948 q 4.3396,2.19727 9.28345,3.4607 4.99878,1.26342 9.61304,1.26342 7.14111,0 10.98633,-2.25219 3.84521,-2.30713 3.84521,-6.97632 0,-3.51563 -3.07617,-5.98755 -3.02124,-2.52686 -11.86524,-5.93262 -8.40454,-3.1311 -11.97509,-5.43823 -3.51563,-2.36206 -5.27344,-5.32837 -1.70288,-2.96631 -1.70288,-7.08618 0,-7.36084 5.98755,-11.59058 5.98755,-4.28467 16.42456,-4.28467 9.7229,0 19.00635,3.95508 l -3.24097,7.41577 q -9.06372,-3.73535 -16.42456,-3.73535 -6.48194,0 -9.77783,2.03247 -3.2959,2.03247 -3.2959,5.60303 0,2.41699 1.20849,4.11987 1.26343,1.70288 4.01001,3.24097 2.74659,1.53809 10.54688,4.44946 10.71167,3.90015 14.44702,7.85523 3.79028,3.95508 3.79028,9.94262 z"
         style="font-style:normal;font-variant:normal;font-weight:normal;font-stretch:normal;font-size:112.5px;font-family:'Open Sans';-inkscape-font-specification:'Open Sans';fill:#ffffff"
         id="path4160" />
    </g>
  </g>
</svg>
