<?xml version="1.0" encoding="UTF-8" standalone="no"?>
<svg
   xmlns:dc="http://purl.org/dc/elements/1.1/"
   xmlns:cc="http://creativecommons.org/ns#"
   xmlns:rdf="http://www.w3.org/1999/02/22-rdf-syntax-ns#"
   xmlns:svg="http://www.w3.org/2000/svg"
   xmlns="http://www.w3.org/2000/svg"
   xmlns:sodipodi="http://sodipodi.sourceforge.net/DTD/sodipodi-0.dtd"
   xmlns:inkscape="http://www.inkscape.org/namespaces/inkscape"
   viewBox="0 0 1249.6104 359.99999"
   height="384"
   width="1332.918"
   id="svg2"
   version="1.1"
   inkscape:version="0.91 r13725"
   sodipodi:docname="requirements.svg">
  <metadata
     id="metadata12">
    <rdf:RDF>
      <cc:Work
         rdf:about="">
        <dc:format>image/svg+xml</dc:format>
        <dc:type
           rdf:resource="http://purl.org/dc/dcmitype/StillImage" />
      </cc:Work>
    </rdf:RDF>
  </metadata>
  <defs
     id="defs10" />
  <sodipodi:namedview
     pagecolor="#ffffff"
     bordercolor="#666666"
     borderopacity="1"
     objecttolerance="10"
     gridtolerance="10"
     guidetolerance="10"
     inkscape:pageopacity="0"
     inkscape:pageshadow="2"
     inkscape:window-width="2560"
     inkscape:window-height="1362"
     id="namedview8"
     showgrid="false"
     inkscape:zoom="0.25507946"
     inkscape:cx="666.45898"
     inkscape:cy="192"
     inkscape:window-x="0"
     inkscape:window-y="348"
     inkscape:window-maximized="1"
     inkscape:current-layer="svg2" />
  <path
     d="M0 0h1063.485c64.07 62.533 140.535 137.524 186.125 182.827-41.787 40.783-127.45 126.689-178.434 177.173H0l183.848-176.728z"
     fill="#449bc1"
     fill-rule="evenodd"
     id="path4" />
  <path
     d="m 273.07765,174.36999 0,33.398 -9.338,0 0,-80.31 22.027,0 q 14.777,0 21.808,5.658 7.086,5.658 7.086,17.029 0,15.93 -16.15,21.533 l 21.808,36.09 -11.041,0 -19.446,-33.399 -16.754,0 z m 0,-8.02 12.799,0 q 9.888,0 14.502,-3.9 4.614,-3.956 4.614,-11.811 0,-7.965 -4.724,-11.48 -4.67,-3.516 -15.051,-3.516 l -12.14,0 0,30.706 z m 84.375,42.517 q -13.348,0 -21.094,-8.13 -7.69,-8.13 -7.69,-22.577 0,-14.557 7.14,-23.126 7.197,-8.57 19.282,-8.57 11.316,0 17.908,7.47 6.591,7.417 6.591,19.612 l 0,5.767 -41.473,0 q 0.275,10.602 5.328,16.095 5.109,5.493 14.337,5.493 9.723,0 19.227,-4.064 l 0,8.13 q -4.834,2.087 -9.174,2.966 -4.285,0.934 -10.382,0.934 z m -2.473,-54.767 q -7.251,0 -11.59,4.724 -4.285,4.724 -5.054,13.074 l 31.476,0 q 0,-8.625 -3.846,-13.184 -3.845,-4.614 -10.986,-4.614 z m 62.843,47.131 q 9.118,0 13.293,-4.889 4.175,-4.889 4.45,-16.48 l 0,-2.032 q 0,-12.634 -4.285,-18.182 -4.285,-5.548 -13.568,-5.548 -8.02,0 -12.305,6.262 -4.23,6.207 -4.23,17.578 0,11.37 4.175,17.358 4.23,5.933 12.47,5.933 z m -1.374,7.636 q -11.645,0 -18.182,-8.185 -6.537,-8.185 -6.537,-22.852 0,-14.776 6.592,-23.071 6.592,-8.295 18.347,-8.295 12.36,0 19.007,9.339 l 0.494,0 1.318,-8.24 7.196,0 0,87.231 -9.118,0 0,-25.763 q 0,-5.493 0.604,-9.338 l -0.714,0 q -6.317,9.174 -19.007,9.174 z m 56.196,-61.304 0,39.056 q 0,7.361 3.35,10.987 3.351,3.625 10.492,3.625 9.449,0 13.788,-5.163 4.395,-5.164 4.395,-16.865 l 0,-31.64 9.118,0 0,60.205 -7.525,0 -1.319,-8.075 -0.494,0 q -2.802,4.45 -7.8,6.812 -4.944,2.362 -11.316,2.362 -10.987,0 -16.48,-5.219 -5.438,-5.218 -5.438,-16.7 l 0,-39.385 9.229,0 z m 69.543,60.205 -9.119,0 0,-60.205 9.119,0 0,60.205 z m -9.888,-76.52 q 0,-3.13 1.538,-4.56 1.538,-1.482 3.846,-1.482 2.197,0 3.79,1.483 1.593,1.483 1.593,4.56 0,3.075 -1.593,4.613 -1.593,1.484 -3.79,1.484 -2.308,0 -3.846,-1.484 -1.538,-1.538 -1.538,-4.614 z m 56.8,15.216 q 4.01,0 7.196,0.66 l -1.264,8.459 q -3.735,-0.824 -6.592,-0.824 -7.305,0 -12.524,5.933 -5.164,5.932 -5.164,14.776 l 0,32.3 -9.118,0 0,-60.205 7.525,0 1.044,11.151 0.44,0 q 3.35,-5.878 8.075,-9.064 4.724,-3.186 10.382,-3.186 z m 43.89,62.403 q -13.348,0 -21.094,-8.13 -7.69,-8.13 -7.69,-22.577 0,-14.557 7.14,-23.126 7.197,-8.57 19.282,-8.57 11.316,0 17.908,7.47 6.591,7.417 6.591,19.612 l 0,5.767 -41.473,0 q 0.275,10.602 5.328,16.095 5.11,5.493 14.338,5.493 9.722,0 19.226,-4.064 l 0,8.13 q -4.834,2.087 -9.174,2.966 -4.285,0.934 -10.382,0.934 z m -2.472,-54.767 q -7.25,0 -11.59,4.724 -4.285,4.724 -5.054,13.074 l 31.476,0 q 0,-8.625 -3.846,-13.184 -3.845,-4.614 -10.986,-4.614 z m 116.84,53.668 0,-39.166 q 0,-7.196 -3.076,-10.767 -3.077,-3.625 -9.559,-3.625 -8.514,0 -12.579,4.888 -4.065,4.89 -4.065,15.052 l 0,33.618 -9.119,0 0,-39.166 q 0,-7.196 -3.076,-10.767 -3.076,-3.625 -9.613,-3.625 -8.57,0 -12.58,5.163 -3.954,5.109 -3.954,16.81 l 0,31.585 -9.119,0 0,-60.205 7.416,0 1.483,8.24 0.44,0 q 2.581,-4.395 7.25,-6.867 4.725,-2.472 10.547,-2.472 14.118,0 18.457,10.218 l 0.44,0 q 2.692,-4.725 7.8,-7.471 5.109,-2.747 11.646,-2.747 10.217,0 15.27,5.274 5.11,5.218 5.11,16.754 l 0,39.276 -9.12,0 z m 53.283,1.099 q -13.348,0 -21.093,-8.13 -7.69,-8.13 -7.69,-22.577 0,-14.557 7.14,-23.126 7.196,-8.57 19.281,-8.57 11.316,0 17.908,7.47 6.592,7.417 6.592,19.612 l 0,5.767 -41.474,0 q 0.275,10.602 5.329,16.095 5.108,5.493 14.337,5.493 9.723,0 19.226,-4.064 l 0,8.13 q -4.834,2.087 -9.174,2.966 -4.284,0.934 -10.382,0.934 z m -2.471,-54.767 q -7.25,0 -11.59,4.724 -4.285,4.724 -5.054,13.074 l 31.476,0 q 0,-8.625 -3.845,-13.184 -3.845,-4.614 -10.987,-4.614 z m 81.298,53.668 0,-38.948 q 0,-7.36 -3.35,-10.986 -3.351,-3.625 -10.492,-3.625 -9.449,0 -13.843,5.108 -4.395,5.109 -4.395,16.864 l 0,31.586 -9.118,0 0,-60.205 7.415,0 1.483,8.24 0.44,0 q 2.801,-4.45 7.855,-6.867 5.054,-2.472 11.261,-2.472 10.877,0 16.37,5.274 5.493,5.218 5.493,16.754 l 0,39.276 -9.119,0 z m 47.242,-6.428 q 2.416,0 4.669,-0.329 2.252,-0.384 3.57,-0.769 l 0,6.977 q -1.483,0.714 -4.394,1.153 -2.857,0.495 -5.164,0.495 -17.468,0 -17.468,-18.403 l 0,-35.814 -8.624,0 0,-4.394 8.624,-3.79 3.845,-12.855 5.274,0 0,13.953 17.468,0 0,7.086 -17.468,0 0,35.431 q 0,5.438 2.581,8.35 2.582,2.91 7.086,2.91 z m 59.16,-9.997 q 0,8.405 -6.261,12.964 -6.263,4.56 -17.578,4.56 -11.976,0 -18.677,-3.79 l 0,-8.46 q 4.34,2.197 9.283,3.46 4.999,1.264 9.613,1.264 7.141,0 10.987,-2.252 3.845,-2.307 3.845,-6.977 0,-3.515 -3.076,-5.987 -3.022,-2.527 -11.866,-5.933 -8.404,-3.13 -11.975,-5.438 -3.515,-2.362 -5.273,-5.328 -1.703,-2.967 -1.703,-7.087 0,-7.36 5.988,-11.59 5.987,-4.285 16.424,-4.285 9.723,0 19.006,3.955 l -3.24,7.416 q -9.064,-3.735 -16.425,-3.735 -6.482,0 -9.778,2.032 -3.296,2.033 -3.296,5.603 0,2.417 1.209,4.12 1.263,1.703 4.01,3.241 2.746,1.538 10.547,4.45 10.711,3.9 14.447,7.855 3.79,3.955 3.79,9.942 z"
     style="font-weight:400;font-size:112.5px;font-family:'Open Sans';-inkscape-font-specification:'Open Sans';letter-spacing:0;word-spacing:0;fill:#ffffff"
     font-weight="400"
     font-size="112.5"
     letter-spacing="0"
     word-spacing="0"
     id="path6"
     inkscape:connector-curvature="0" />
</svg>
