<?xml version="1.0" encoding="UTF-8" standalone="no"?>
<svg
   xmlns:dc="http://purl.org/dc/elements/1.1/"
   xmlns:cc="http://creativecommons.org/ns#"
   xmlns:rdf="http://www.w3.org/1999/02/22-rdf-syntax-ns#"
   xmlns:svg="http://www.w3.org/2000/svg"
   xmlns="http://www.w3.org/2000/svg"
   xmlns:sodipodi="http://sodipodi.sourceforge.net/DTD/sodipodi-0.dtd"
   xmlns:inkscape="http://www.inkscape.org/namespaces/inkscape"
   viewBox="0 0 1249.6104 359.99999"
   height="384"
   width="1332.918"
   id="svg2"
   version="1.1"
   inkscape:version="0.91 r13725"
   sodipodi:docname="response.svg">
  <metadata
     id="metadata12">
    <rdf:RDF>
      <cc:Work
         rdf:about="">
        <dc:format>image/svg+xml</dc:format>
        <dc:type
           rdf:resource="http://purl.org/dc/dcmitype/StillImage" />
      </cc:Work>
    </rdf:RDF>
  </metadata>
  <defs
     id="defs10" />
  <sodipodi:namedview
     pagecolor="#ffffff"
     bordercolor="#666666"
     borderopacity="1"
     objecttolerance="10"
     gridtolerance="10"
     guidetolerance="10"
     inkscape:pageopacity="0"
     inkscape:pageshadow="2"
     inkscape:window-width="2560"
     inkscape:window-height="1362"
     id="namedview8"
     showgrid="false"
     inkscape:zoom="0.25507946"
     inkscape:cx="666.45898"
     inkscape:cy="192"
     inkscape:window-x="0"
     inkscape:window-y="348"
     inkscape:window-maximized="1"
     inkscape:current-layer="svg2" />
  <path
     d="M0 0h1063.485c64.07 62.533 140.535 137.524 186.125 182.827-41.787 40.783-127.45 126.689-178.434 177.173H0l183.848-176.728z"
     fill="#70ad47"
     fill-rule="evenodd"
     id="path4" />
  <path
     d="m 388.13165,173.24299 0,33.399 -9.338,0 0,-80.31 22.027,0 q 14.777,0 21.808,5.658 7.086,5.658 7.086,17.029 0,15.93 -16.15,21.533 l 21.808,36.09 -11.04,0 -19.447,-33.399 -16.754,0 z m 0,-8.02 12.8,0 q 9.887,0 14.501,-3.9 4.614,-3.955 4.614,-11.81 0,-7.965 -4.724,-11.48 -4.669,-3.516 -15.05,-3.516 l -12.14,0 0,30.706 z m 84.375,42.517 q -13.348,0 -21.094,-8.13 -7.69,-8.13 -7.69,-22.576 0,-14.557 7.141,-23.127 7.196,-8.569 19.281,-8.569 11.316,0 17.908,7.47 6.592,7.417 6.592,19.611 l 0,5.768 -41.475,0 q 0.275,10.602 5.329,16.095 5.108,5.493 14.337,5.493 9.723,0 19.226,-4.065 l 0,8.13 q -4.834,2.088 -9.174,2.967 -4.284,0.933 -10.382,0.933 z m -2.472,-54.766 q -7.25,0 -11.59,4.724 -4.285,4.724 -5.054,13.073 l 31.476,0 q 0,-8.624 -3.845,-13.183 -3.846,-4.614 -10.987,-4.614 z m 78.937,37.243 q 0,8.405 -6.262,12.964 -6.262,4.56 -17.578,4.56 -11.975,0 -18.677,-3.79 l 0,-8.46 q 4.34,2.197 9.283,3.46 5,1.264 9.613,1.264 7.142,0 10.987,-2.252 3.845,-2.307 3.845,-6.977 0,-3.515 -3.076,-5.987 -3.021,-2.527 -11.865,-5.933 -8.405,-3.131 -11.976,-5.438 -3.515,-2.362 -5.273,-5.328 -1.703,-2.967 -1.703,-7.087 0,-7.36 5.988,-11.59 5.987,-4.285 16.424,-4.285 9.723,0 19.007,3.955 l -3.241,7.416 q -9.064,-3.735 -16.425,-3.735 -6.482,0 -9.778,2.032 -3.296,2.033 -3.296,5.603 0,2.417 1.209,4.12 1.263,1.703 4.01,3.241 2.746,1.538 10.547,4.45 10.711,3.9 14.447,7.855 3.79,3.955 3.79,9.942 z m 42.792,17.523 q -5.878,0 -10.767,-2.142 -4.834,-2.197 -8.13,-6.702 l -0.659,0 q 0.66,5.274 0.66,9.998 l 0,24.774 -9.12,0 0,-87.231 7.416,0 1.264,8.24 0.44,0 q 3.515,-4.944 8.184,-7.142 4.67,-2.197 10.712,-2.197 11.975,0 18.457,8.185 6.537,8.185 6.537,22.961 0,14.832 -6.647,23.072 -6.592,8.184 -18.347,8.184 z m -1.319,-54.657 q -9.228,0 -13.348,5.11 -4.12,5.108 -4.23,16.259 l 0,2.032 q 0,12.69 4.23,18.183 4.23,5.438 13.568,5.438 7.8,0 12.195,-6.317 4.45,-6.317 4.45,-17.414 0,-11.26 -4.45,-17.248 -4.395,-6.043 -12.415,-6.043 z m 94.263,23.401 q 0,14.722 -7.416,23.017 -7.415,8.24 -20.49,8.24 -8.074,0 -14.336,-3.79 -6.263,-3.791 -9.668,-10.877 -3.406,-7.086 -3.406,-16.59 0,-14.721 7.36,-22.906 7.362,-8.24 20.435,-8.24 12.635,0 20.05,8.405 7.471,8.404 7.471,22.741 z m -45.868,0 q 0,11.536 4.614,17.578 4.615,6.043 13.569,6.043 8.953,0 13.568,-5.988 4.669,-6.042 4.669,-17.633 0,-11.48 -4.67,-17.413 -4.614,-5.988 -13.677,-5.988 -8.954,0 -13.513,5.878 -4.56,5.878 -4.56,17.523 z m 102.997,30.158 0,-38.947 q 0,-7.36 -3.35,-10.986 -3.352,-3.626 -10.493,-3.626 -9.448,0 -13.843,5.11 -4.394,5.108 -4.394,16.863 l 0,31.586 -9.119,0 0,-60.205 7.416,0 1.483,8.24 0.44,0 q 2.801,-4.45 7.855,-6.867 5.054,-2.472 11.26,-2.472 10.877,0 16.37,5.274 5.494,5.218 5.494,16.754 l 0,39.276 -9.119,0 z m 66.633,-16.425 q 0,8.405 -6.263,12.964 -6.262,4.56 -17.578,4.56 -11.975,0 -18.677,-3.79 l 0,-8.46 q 4.34,2.197 9.283,3.46 5,1.264 9.614,1.264 7.14,0 10.986,-2.252 3.845,-2.307 3.845,-6.977 0,-3.515 -3.076,-5.987 -3.021,-2.527 -11.865,-5.933 -8.405,-3.131 -11.975,-5.438 -3.516,-2.362 -5.274,-5.328 -1.703,-2.967 -1.703,-7.087 0,-7.36 5.988,-11.59 5.987,-4.285 16.424,-4.285 9.723,0 19.007,3.955 l -3.241,7.416 q -9.064,-3.735 -16.425,-3.735 -6.482,0 -9.778,2.032 -3.296,2.033 -3.296,5.603 0,2.417 1.209,4.12 1.263,1.703 4.01,3.241 2.747,1.538 10.547,4.45 10.711,3.9 14.447,7.855 3.79,3.955 3.79,9.942 z m 40.21,17.523 q -13.35,0 -21.095,-8.13 -7.69,-8.13 -7.69,-22.576 0,-14.557 7.141,-23.127 7.196,-8.569 19.281,-8.569 11.316,0 17.908,7.47 6.592,7.417 6.592,19.611 l 0,5.768 -41.474,0 q 0.275,10.602 5.329,16.095 5.108,5.493 14.337,5.493 9.723,0 19.226,-4.065 l 0,8.13 q -4.834,2.088 -9.174,2.967 -4.285,0.933 -10.382,0.933 z m -2.473,-54.766 q -7.25,0 -11.59,4.724 -4.285,4.724 -5.054,13.073 l 31.476,0 q 0,-8.624 -3.846,-13.183 -3.845,-4.614 -10.986,-4.614 z"
     style="font-weight:400;font-size:112.5px;font-family:'Open Sans';-inkscape-font-specification:'Open Sans';letter-spacing:0;word-spacing:0;fill:#ffffff"
     font-weight="400"
     font-size="112.5"
     letter-spacing="0"
     word-spacing="0"
     id="path6"
     inkscape:connector-curvature="0" />
</svg>
