<?xml version="1.0" encoding="UTF-8" standalone="no"?>
<svg
   xmlns:dc="http://purl.org/dc/elements/1.1/"
   xmlns:cc="http://creativecommons.org/ns#"
   xmlns:rdf="http://www.w3.org/1999/02/22-rdf-syntax-ns#"
   xmlns:svg="http://www.w3.org/2000/svg"
   xmlns="http://www.w3.org/2000/svg"
   xmlns:sodipodi="http://sodipodi.sourceforge.net/DTD/sodipodi-0.dtd"
   xmlns:inkscape="http://www.inkscape.org/namespaces/inkscape"
   version="1.1"
   id="svg2"
   viewBox="0 0 1249.6104 359.99999"
   height="101.6mm"
   width="352.66782mm"
   inkscape:version="0.91 r13725"
   sodipodi:docname="response.svg">
  <sodipodi:namedview
     pagecolor="#ffffff"
     bordercolor="#666666"
     borderopacity="1"
     objecttolerance="10"
     gridtolerance="10"
     guidetolerance="10"
     inkscape:pageopacity="0"
     inkscape:pageshadow="2"
     inkscape:window-width="2560"
     inkscape:window-height="1362"
     id="namedview9"
     showgrid="false"
     inkscape:zoom="0.27208481"
     inkscape:cx="624.80519"
     inkscape:cy="180"
     inkscape:window-x="0"
     inkscape:window-y="348"
     inkscape:window-maximized="1"
     inkscape:current-layer="svg2" />
  <defs
     id="defs4" />
  <metadata
     id="metadata7">
    <rdf:RDF>
      <cc:Work
         rdf:about="">
        <dc:format>image/svg+xml</dc:format>
        <dc:type
           rdf:resource="http://purl.org/dc/dcmitype/StillImage" />
        <dc:title />
      </cc:Work>
    </rdf:RDF>
  </metadata>
  <g
     transform="translate(158.22904,379.45806)"
     id="layer1">
    <path
       id="rect4136"
       d="m -158.22903,-379.45805 1063.4848,-10e-6 c 64.06945,62.53263 140.53553,137.52385 186.12553,182.82738 -41.7875,40.78275 -127.44997,126.688407 -178.43427,177.172615 l -1071.17606,1.1e-5 183.847764,-176.728286 z"
       style="opacity:1;fill:#70ad47;fill-opacity:1;fill-rule:evenodd;stroke:#000000;stroke-width:0;stroke-miterlimit:4;stroke-dasharray:none;stroke-opacity:1" />
    <g
       style="font-style:normal;font-variant:normal;font-weight:normal;font-stretch:normal;font-size:25px;line-height:125%;font-family:'DejaVu Sans';-inkscape-font-specification:'DejaVu Sans, Normal';text-align:start;letter-spacing:0px;word-spacing:0px;writing-mode:lr-tb;text-anchor:start;fill:#000000;fill-opacity:1;stroke:none;stroke-width:1px;stroke-linecap:butt;stroke-linejoin:miter;stroke-opacity:1"
       id="text4177">
      <path
         d="m 229.90317,-206.21466 0,33.39844 -9.33838,0 0,-80.31006 22.02759,0 q 14.77661,0 21.80786,5.65796 7.08618,5.65796 7.08618,17.02881 0,15.93017 -16.1499,21.5332 l 21.80786,36.09009 -11.04126,0 -19.4458,-33.39844 -16.75415,0 z m 0,-8.02002 12.79907,0 q 9.8877,0 14.50195,-3.90015 4.61426,-3.95507 4.61426,-11.8103 0,-7.96509 -4.72412,-11.48071 -4.66919,-3.51563 -15.05127,-3.51563 l -12.13989,0 0,30.70679 z"
         style="font-style:normal;font-variant:normal;font-weight:normal;font-stretch:normal;font-size:112.5px;font-family:'Open Sans';-inkscape-font-specification:'Open Sans';fill:#ffffff"
         id="path4138" />
      <path
         d="m 314.27817,-171.71759 q -13.34839,0 -21.09375,-8.12988 -7.69043,-8.12989 -7.69043,-22.57691 0,-14.55688 7.14111,-23.12622 7.19605,-8.56933 19.28101,-8.56933 11.31592,0 17.90771,7.4707 6.5918,7.41577 6.5918,19.61059 l 0,5.76783 -41.47339,0 q 0.27466,10.6018 5.32837,16.09497 5.10864,5.49316 14.33716,5.49316 9.7229,0 19.22607,-4.06494 l 0,8.12988 q -4.83398,2.08741 -9.17358,2.96631 -4.28467,0.93384 -10.38208,0.93384 z m -2.47193,-54.76685 q -7.25097,0 -11.59057,4.72413 -4.28467,4.72412 -5.05371,13.07373 l 31.47583,0 q 0,-8.62427 -3.84522,-13.1836 -3.84521,-4.61426 -10.98633,-4.61426 z"
         style="font-style:normal;font-variant:normal;font-weight:normal;font-stretch:normal;font-size:112.5px;font-family:'Open Sans';-inkscape-font-specification:'Open Sans';fill:#ffffff"
         id="path4140" />
      <path
         d="m 390.74301,-189.24078 q 0,8.40454 -6.26221,12.96386 -6.2622,4.55933 -17.57812,4.55933 -11.9751,0 -18.67676,-3.79028 l 0,-8.45948 q 4.3396,2.19727 9.28345,3.4607 4.99878,1.26342 9.61304,1.26342 7.14111,0 10.98632,-2.25219 3.84522,-2.30713 3.84522,-6.97632 0,-3.51563 -3.07617,-5.98755 -3.02124,-2.52686 -11.86524,-5.93262 -8.40454,-3.1311 -11.97509,-5.43823 -3.51563,-2.36206 -5.27344,-5.32837 -1.70288,-2.96631 -1.70288,-7.08618 0,-7.36084 5.98755,-11.59058 5.98754,-4.28466 16.42456,-4.28466 9.7229,0 19.00634,3.95507 l -3.24096,7.41578 q -9.06372,-3.73536 -16.42456,-3.73536 -6.48194,0 -9.77784,2.03247 -3.29589,2.03248 -3.29589,5.60303 0,2.41699 1.20849,4.11988 1.26343,1.70288 4.01001,3.24096 2.74658,1.53809 10.54688,4.44946 10.71167,3.90015 14.44702,7.85523 3.79028,3.95508 3.79028,9.94263 z"
         style="font-style:normal;font-variant:normal;font-weight:normal;font-stretch:normal;font-size:112.5px;font-family:'Open Sans';-inkscape-font-specification:'Open Sans';fill:#ffffff"
         id="path4142" />
      <path
         d="m 433.53476,-171.71759 q -5.87769,0 -10.7666,-2.14233 -4.83399,-2.19727 -8.12988,-6.70166 l -0.65918,0 q 0.65918,5.27343 0.65918,9.99755 l 0,24.77417 -9.11866,0 0,-87.23144 7.41577,0 1.26343,8.23974 0.43946,0 q 3.51562,-4.94384 8.18481,-7.14111 4.66919,-2.19726 10.71167,-2.19726 11.9751,0 18.45703,8.18481 6.53687,8.18481 6.53687,22.96143 0,14.83154 -6.64673,23.07129 -6.5918,8.18481 -18.34717,8.18481 z m -1.31836,-54.65698 q -9.22852,0 -13.34839,5.10864 -4.11987,5.10864 -4.22973,16.25977 l 0,2.03247 q 0,12.68921 4.22973,18.18237 4.22974,5.43823 13.56812,5.43823 7.80029,0 12.19482,-6.31714 4.44946,-6.31714 4.44946,-17.41333 0,-11.26098 -4.44946,-17.24853 -4.39453,-6.04248 -12.41455,-6.04248 z"
         style="font-style:normal;font-variant:normal;font-weight:normal;font-stretch:normal;font-size:112.5px;font-family:'Open Sans';-inkscape-font-specification:'Open Sans';fill:#ffffff"
         id="path4144" />
      <path
         d="m 526.4791,-202.97369 q 0,14.72168 -7.41578,23.01635 -7.41577,8.23975 -20.4895,8.23975 -8.07495,0 -14.33716,-3.79028 -6.2622,-3.79029 -9.66796,-10.87647 -3.40577,-7.08618 -3.40577,-16.58935 0,-14.72168 7.36084,-22.9065 7.36084,-8.23974 20.43457,-8.23974 12.63428,0 20.05005,8.40454 7.47071,8.40454 7.47071,22.7417 z m -45.86792,0 q 0,11.53564 4.61425,17.57812 4.61426,6.04248 13.56812,6.04248 8.95386,0 13.56811,-5.98755 4.66919,-6.04248 4.66919,-17.63305 0,-11.48072 -4.66919,-17.41333 -4.61425,-5.98755 -13.67797,-5.98755 -8.95386,0 -13.51319,5.87768 -4.55932,5.87769 -4.55932,17.5232 z"
         style="font-style:normal;font-variant:normal;font-weight:normal;font-stretch:normal;font-size:112.5px;font-family:'Open Sans';-inkscape-font-specification:'Open Sans';fill:#ffffff"
         id="path4146" />
      <path
         d="m 583.608,-172.81622 0,-38.94654 q 0,-7.36084 -3.35083,-10.98632 -3.35083,-3.62549 -10.49194,-3.62549 -9.44824,0 -13.84278,5.10864 -4.39453,5.10864 -4.39453,16.86401 l 0,31.5857 -9.11865,0 0,-60.20508 7.41577,0 1.48316,8.23974 0.43945,0 q 2.80151,-4.44946 7.85522,-6.86645 5.05372,-2.47192 11.26099,-2.47192 10.87647,0 16.36963,5.27343 5.49316,5.21851 5.49316,16.75415 l 0,39.27613 -9.11865,0 z"
         style="font-style:normal;font-variant:normal;font-weight:normal;font-stretch:normal;font-size:112.5px;font-family:'Open Sans';-inkscape-font-specification:'Open Sans';fill:#ffffff"
         id="path4148" />
      <path
         d="m 650.24008,-189.24078 q 0,8.40454 -6.26221,12.96386 -6.2622,4.55933 -17.57812,4.55933 -11.9751,0 -18.67676,-3.79028 l 0,-8.45948 q 4.3396,2.19727 9.28345,3.4607 4.99878,1.26342 9.61304,1.26342 7.14111,0 10.98632,-2.25219 3.84522,-2.30713 3.84522,-6.97632 0,-3.51563 -3.07617,-5.98755 -3.02124,-2.52686 -11.86524,-5.93262 -8.40454,-3.1311 -11.97509,-5.43823 -3.51563,-2.36206 -5.27344,-5.32837 -1.70288,-2.96631 -1.70288,-7.08618 0,-7.36084 5.98755,-11.59058 5.98754,-4.28466 16.42456,-4.28466 9.7229,0 19.00634,3.95507 l -3.24096,7.41578 q -9.06372,-3.73536 -16.42456,-3.73536 -6.48194,0 -9.77784,2.03247 -3.29589,2.03248 -3.29589,5.60303 0,2.41699 1.20849,4.11988 1.26343,1.70288 4.01001,3.24096 2.74658,1.53809 10.54688,4.44946 10.71167,3.90015 14.44702,7.85523 3.79028,3.95508 3.79028,9.94263 z"
         style="font-style:normal;font-variant:normal;font-weight:normal;font-stretch:normal;font-size:112.5px;font-family:'Open Sans';-inkscape-font-specification:'Open Sans';fill:#ffffff"
         id="path4150" />
      <path
         d="m 690.45004,-171.71759 q -13.34839,0 -21.09375,-8.12988 -7.69043,-8.12989 -7.69043,-22.57691 0,-14.55688 7.14112,-23.12622 7.19604,-8.56933 19.281,-8.56933 11.31592,0 17.90772,7.4707 6.59179,7.41577 6.59179,19.61059 l 0,5.76783 -41.47338,0 q 0.27465,10.6018 5.32836,16.09497 5.10865,5.49316 14.33716,5.49316 9.7229,0 19.22608,-4.06494 l 0,8.12988 q -4.83399,2.08741 -9.17359,2.96631 -4.28467,0.93384 -10.38208,0.93384 z m -2.47192,-54.76685 q -7.25098,0 -11.59058,4.72413 -4.28467,4.72412 -5.05371,13.07373 l 31.47583,0 q 0,-8.62427 -3.84521,-13.1836 -3.84522,-4.61426 -10.98633,-4.61426 z"
         style="font-style:normal;font-variant:normal;font-weight:normal;font-stretch:normal;font-size:112.5px;font-family:'Open Sans';-inkscape-font-specification:'Open Sans';fill:#ffffff"
         id="path4152" />
    </g>
  </g>
</svg>
