<svg xmlns="http://www.w3.org/2000/svg" viewBox="0 0 1249.6104 359.99999" height="384" width="1332.918"><path d="M0 0h1063.485c64.07 62.533 140.535 137.524 186.125 182.827-41.787 40.783-127.45 126.689-178.434 177.173H0l183.848-176.728z" fill="#70ad47" fill-rule="evenodd"/><path d="M388.132 173.243v33.399h-9.338v-80.31h22.027q14.777 0 21.808 5.658 7.086 5.658 7.086 17.029 0 15.93-16.15 21.533l21.808 36.09h-11.04l-19.447-33.399h-16.754zm0-8.02h12.8q9.887 0 14.501-3.9 4.614-3.955 4.614-11.81 0-7.965-4.724-11.48-4.669-3.516-15.05-3.516h-12.14v30.706zm84.375 42.517q-13.348 0-21.094-8.13-7.69-8.13-7.69-22.576 0-14.557 7.141-23.127 7.196-8.569 19.281-8.569 11.316 0 17.908 7.47 6.592 7.417 6.592 19.611v5.768H453.17q.275 10.602 5.329 16.095 5.108 5.493 14.337 5.493 9.723 0 19.226-4.065v8.13q-4.834 2.088-9.174 2.967-4.284.933-10.382.933zm-2.472-54.766q-7.25 0-11.59 4.724-4.285 4.724-5.054 13.073h31.476q0-8.624-3.845-13.183-3.846-4.614-10.987-4.614zm78.937 37.243q0 8.405-6.262 12.964-6.262 4.56-17.578 4.56-11.975 0-18.677-3.79v-8.46q4.34 2.197 9.283 3.46 5 1.264 9.613 1.264 7.142 0 10.987-2.252 3.845-2.307 3.845-6.977 0-3.515-3.076-5.987-3.021-2.527-11.865-5.933-8.405-3.131-11.976-5.438-3.515-2.362-5.273-5.328-1.703-2.967-1.703-7.087 0-7.36 5.988-11.59 5.987-4.285 16.424-4.285 9.723 0 19.007 3.955l-3.241 7.416q-9.064-3.735-16.425-3.735-6.482 0-9.778 2.032-3.296 2.033-3.296 5.603 0 2.417 1.209 4.12 1.263 1.703 4.01 3.241 2.746 1.538 10.547 4.45 10.711 3.9 14.447 7.855 3.79 3.955 3.79 9.942zm42.792 17.523q-5.878 0-10.767-2.142-4.834-2.197-8.13-6.702h-.659q.66 5.274.66 9.998v24.774h-9.12v-87.231h7.416l1.264 8.24h.44q3.515-4.944 8.184-7.142 4.67-2.197 10.712-2.197 11.975 0 18.457 8.185 6.537 8.185 6.537 22.961 0 14.832-6.647 23.072-6.592 8.184-18.347 8.184zm-1.319-54.657q-9.228 0-13.348 5.11-4.12 5.108-4.23 16.259v2.032q0 12.69 4.23 18.183 4.23 5.438 13.568 5.438 7.8 0 12.195-6.317 4.45-6.317 4.45-17.414 0-11.26-4.45-17.248-4.395-6.043-12.415-6.043zm94.263 23.401q0 14.722-7.416 23.017-7.415 8.24-20.49 8.24-8.074 0-14.336-3.79-6.263-3.791-9.668-10.877-3.406-7.086-3.406-16.59 0-14.721 7.36-22.906 7.362-8.24 20.435-8.24 12.635 0 20.05 8.405 7.471 8.404 7.471 22.741zm-45.868 0q0 11.536 4.614 17.578 4.615 6.043 13.569 6.043 8.953 0 13.568-5.988 4.669-6.042 4.669-17.633 0-11.48-4.67-17.413-4.614-5.988-13.677-5.988-8.954 0-13.513 5.878-4.56 5.878-4.56 17.523zm102.997 30.158v-38.947q0-7.36-3.35-10.986-3.352-3.626-10.493-3.626-9.448 0-13.843 5.11-4.394 5.108-4.394 16.863v31.586h-9.119v-60.205h7.416l1.483 8.24h.44q2.801-4.45 7.855-6.867 5.054-2.472 11.26-2.472 10.877 0 16.37 5.274 5.494 5.218 5.494 16.754v39.276h-9.119zm66.633-16.425q0 8.405-6.263 12.964-6.262 4.56-17.578 4.56-11.975 0-18.677-3.79v-8.46q4.34 2.197 9.283 3.46 5 1.264 9.614 1.264 7.14 0 10.986-2.252 3.845-2.307 3.845-6.977 0-3.515-3.076-5.987-3.021-2.527-11.865-5.933-8.405-3.131-11.975-5.438-3.516-2.362-5.274-5.328-1.703-2.967-1.703-7.087 0-7.36 5.988-11.59 5.987-4.285 16.424-4.285 9.723 0 19.007 3.955l-3.241 7.416q-9.064-3.735-16.425-3.735-6.482 0-9.778 2.032-3.296 2.033-3.296 5.603 0 2.417 1.209 4.12 1.263 1.703 4.01 3.241t10.547 4.45q10.711 3.9 14.447 7.855 3.79 3.955 3.79 9.942zm40.21 17.523q-13.35 0-21.095-8.13-7.69-8.13-7.69-22.576 0-14.557 7.141-23.127 7.196-8.569 19.281-8.569 11.316 0 17.908 7.47 6.592 7.417 6.592 19.611v5.768h-41.474q.275 10.602 5.329 16.095 5.108 5.493 14.337 5.493 9.723 0 19.226-4.065v8.13q-4.834 2.088-9.174 2.967-4.285.933-10.382.933zm-2.473-54.766q-7.25 0-11.59 4.724-4.285 4.724-5.054 13.073h31.476q0-8.624-3.846-13.183-3.845-4.614-10.986-4.614z" style="-inkscape-font-specification:'Open Sans'" font-weight="400" font-size="112.5" font-family="Open Sans" letter-spacing="0" word-spacing="0" fill="#fff"/></svg>