<?xml version="1.0" encoding="UTF-8" standalone="no"?>
<svg
   xmlns:dc="http://purl.org/dc/elements/1.1/"
   xmlns:cc="http://creativecommons.org/ns#"
   xmlns:rdf="http://www.w3.org/1999/02/22-rdf-syntax-ns#"
   xmlns:svg="http://www.w3.org/2000/svg"
   xmlns="http://www.w3.org/2000/svg"
   xmlns:sodipodi="http://sodipodi.sourceforge.net/DTD/sodipodi-0.dtd"
   xmlns:inkscape="http://www.inkscape.org/namespaces/inkscape"
   viewBox="0 0 1249.6104 359.99999"
   height="384"
   width="1332.918"
   id="svg2"
   version="1.1"
   inkscape:version="0.91 r13725"
   sodipodi:docname="training.svg">
  <metadata
     id="metadata12">
    <rdf:RDF>
      <cc:Work
         rdf:about="">
        <dc:format>image/svg+xml</dc:format>
        <dc:type
           rdf:resource="http://purl.org/dc/dcmitype/StillImage" />
      </cc:Work>
    </rdf:RDF>
  </metadata>
  <defs
     id="defs10" />
  <sodipodi:namedview
     pagecolor="#ffffff"
     bordercolor="#666666"
     borderopacity="1"
     objecttolerance="10"
     gridtolerance="10"
     guidetolerance="10"
     inkscape:pageopacity="0"
     inkscape:pageshadow="2"
     inkscape:window-width="2560"
     inkscape:window-height="1362"
     id="namedview8"
     showgrid="false"
     inkscape:zoom="0.25507946"
     inkscape:cx="666.45898"
     inkscape:cy="192"
     inkscape:window-x="0"
     inkscape:window-y="348"
     inkscape:window-maximized="1"
     inkscape:current-layer="svg2" />
  <path
     d="M0 0h1063.485c64.07 62.533 140.535 137.524 186.125 182.827-41.787 40.783-127.45 126.689-178.434 177.173H0l183.848-176.728z"
     fill="#4472c4"
     fill-rule="evenodd"
     id="path4" />
  <path
     d="m 447.67815,207.76799 -9.338,0 0,-72.015 -25.434,0 0,-8.295 60.205,0 0,8.295 -25.433,0 0,72.015 z m 63.556,-61.304 q 4.01,0 7.196,0.66 l -1.263,8.459 q -3.736,-0.824 -6.592,-0.824 -7.306,0 -12.525,5.933 -5.163,5.932 -5.163,14.776 l 0,32.3 -9.119,0 0,-60.205 7.526,0 1.044,11.151 0.439,0 q 3.35,-5.878 8.075,-9.064 4.724,-3.186 10.382,-3.186 z m 55.481,61.304 -1.813,-8.57 -0.44,0 q -4.504,5.659 -9.008,7.691 -4.45,1.978 -11.151,1.978 -8.954,0 -14.063,-4.615 -5.053,-4.614 -5.053,-13.128 0,-18.238 29.168,-19.117 l 10.218,-0.33 0,-3.735 q 0,-7.086 -3.077,-10.437 -3.02,-3.405 -9.722,-3.405 -7.526,0 -17.03,4.614 l -2.8,-6.976 q 4.449,-2.417 9.722,-3.79 5.329,-1.374 10.657,-1.374 10.766,0 15.93,4.78 5.219,4.778 5.219,15.325 l 0,41.089 -6.757,0 z m -20.6,-6.427 q 8.515,0 13.349,-4.67 4.889,-4.668 4.889,-13.073 l 0,-5.438 -9.119,0.384 q -10.876,0.385 -15.71,3.406 -4.78,2.966 -4.78,9.284 0,4.943 2.967,7.525 3.021,2.582 8.405,2.582 z m 55.317,6.427 -9.119,0 0,-60.205 9.119,0 0,60.205 z m -9.888,-76.52 q 0,-3.13 1.538,-4.56 1.538,-1.482 3.845,-1.482 2.198,0 3.79,1.483 1.594,1.483 1.594,4.56 0,3.075 -1.593,4.613 -1.593,1.484 -3.79,1.484 -2.308,0 -3.846,-1.484 -1.538,-1.538 -1.538,-4.614 z m 70.532,76.52 0,-38.948 q 0,-7.36 -3.35,-10.986 -3.351,-3.625 -10.492,-3.625 -9.449,0 -13.843,5.108 -4.395,5.109 -4.395,16.864 l 0,31.586 -9.118,0 0,-60.205 7.415,0 1.483,8.24 0.44,0 q 2.801,-4.45 7.855,-6.867 5.054,-2.472 11.261,-2.472 10.877,0 16.37,5.274 5.493,5.218 5.493,16.754 l 0,39.276 -9.119,0 z m 36.914,0 -9.118,0 0,-60.205 9.118,0 0,60.205 z m -9.887,-76.52 q 0,-3.13 1.538,-4.56 1.538,-1.482 3.845,-1.482 2.197,0 3.79,1.483 1.593,1.483 1.593,4.56 0,3.075 -1.593,4.613 -1.593,1.484 -3.79,1.484 -2.307,0 -3.845,-1.484 -1.538,-1.538 -1.538,-4.614 z m 70.532,76.52 0,-38.948 q 0,-7.36 -3.35,-10.986 -3.352,-3.625 -10.493,-3.625 -9.448,0 -13.843,5.108 -4.394,5.109 -4.394,16.864 l 0,31.586 -9.119,0 0,-60.205 7.416,0 1.483,8.24 0.44,0 q 2.801,-4.45 7.855,-6.867 5.053,-2.472 11.26,-2.472 10.877,0 16.37,5.274 5.494,5.218 5.494,16.754 l 0,39.276 -9.12,0 z m 77.069,-60.205 0,5.768 -11.151,1.318 q 1.538,1.923 2.746,5.054 1.209,3.076 1.209,6.976 0,8.844 -6.043,14.117 -6.042,5.274 -16.589,5.274 -2.692,0 -5.054,-0.44 -5.822,3.077 -5.822,7.746 0,2.472 2.032,3.68 2.033,1.154 6.976,1.154 l 10.657,0 q 9.778,0 14.996,4.12 5.274,4.12 5.274,11.975 0,9.997 -8.02,15.216 -8.02,5.273 -23.401,5.273 -11.81,0 -18.237,-4.394 -6.372,-4.395 -6.372,-12.415 0,-5.493 3.515,-9.503 3.516,-4.01 9.888,-5.438 -2.307,-1.044 -3.9,-3.241 -1.538,-2.197 -1.538,-5.109 0,-3.296 1.758,-5.768 1.757,-2.472 5.548,-4.779 -4.67,-1.922 -7.636,-6.537 -2.911,-4.614 -2.911,-10.546 0,-9.888 5.932,-15.216 5.933,-5.384 16.81,-5.384 4.724,0 8.514,1.099 l 20.819,0 z m -48.01,70.312 q 0,4.89 4.12,7.416 4.12,2.527 11.81,2.527 11.48,0 16.974,-3.46 5.548,-3.406 5.548,-9.284 0,-4.89 -3.021,-6.812 -3.022,-1.867 -11.371,-1.867 l -10.932,0 q -6.207,0 -9.668,2.966 -3.46,2.966 -3.46,8.514 z m 4.944,-51.031 q 0,6.317 3.57,9.558 3.57,3.24 9.943,3.24 13.348,0 13.348,-12.963 0,-13.568 -13.513,-13.568 -6.427,0 -9.888,3.46 -3.46,3.461 -3.46,10.273 z"
     style="font-weight:400;font-size:112.5px;font-family:'Open Sans';-inkscape-font-specification:'Open Sans';letter-spacing:0;word-spacing:0;fill:#ffffff"
     font-weight="400"
     font-size="112.5"
     letter-spacing="0"
     word-spacing="0"
     id="path6"
     inkscape:connector-curvature="0" />
</svg>
