<svg xmlns="http://www.w3.org/2000/svg" viewBox="0 0 1249.6104 359.99999" height="384" width="1332.918"><path d="M0 0h1063.485c64.07 62.533 140.535 137.524 186.125 182.827-41.787 40.783-127.45 126.689-178.434 177.173H0l183.848-176.728z" fill="#4472c4" fill-rule="evenodd"/><path d="M447.678 207.768h-9.338v-72.015h-25.434v-8.295h60.205v8.295h-25.433v72.015zm63.556-61.304q4.01 0 7.196.66l-1.263 8.459q-3.736-.824-6.592-.824-7.306 0-12.525 5.933-5.163 5.932-5.163 14.776v32.3h-9.119v-60.205h7.526l1.044 11.151h.44q3.35-5.878 8.074-9.064t10.382-3.186zm55.481 61.304l-1.813-8.57h-.44q-4.504 5.659-9.008 7.691-4.45 1.978-11.15 1.978-8.955 0-14.064-4.615-5.053-4.614-5.053-13.128 0-18.238 29.168-19.117l10.218-.33v-3.735q0-7.086-3.077-10.437-3.02-3.405-9.722-3.405-7.526 0-17.03 4.614l-2.8-6.976q4.45-2.417 9.722-3.79 5.33-1.374 10.657-1.374 10.766 0 15.93 4.78 5.22 4.778 5.22 15.325v41.089h-6.758zm-20.6-6.427q8.515 0 13.35-4.67 4.888-4.668 4.888-13.073v-5.438l-9.119.384q-10.876.385-15.71 3.406-4.78 2.966-4.78 9.284 0 4.943 2.967 7.525 3.021 2.582 8.405 2.582zm55.317 6.427h-9.119v-60.205h9.12v60.205zm-9.888-76.52q0-3.13 1.538-4.56 1.538-1.482 3.845-1.482 2.198 0 3.79 1.483 1.594 1.483 1.594 4.56 0 3.075-1.593 4.613-1.593 1.484-3.79 1.484-2.308 0-3.846-1.484-1.538-1.538-1.538-4.614zm70.532 76.52V168.82q0-7.36-3.35-10.986-3.35-3.625-10.492-3.625-9.449 0-13.843 5.108-4.395 5.109-4.395 16.864v31.586h-9.118v-60.205h7.415l1.483 8.24h.44q2.801-4.45 7.855-6.867 5.054-2.472 11.261-2.472 10.877 0 16.37 5.274 5.493 5.218 5.493 16.754v39.276h-9.119zm36.914 0h-9.118v-60.205h9.118v60.205zm-9.887-76.52q0-3.13 1.538-4.56 1.538-1.482 3.845-1.482 2.197 0 3.79 1.483t1.593 4.56q0 3.075-1.593 4.613-1.593 1.484-3.79 1.484-2.307 0-3.845-1.484-1.538-1.538-1.538-4.614zm70.532 76.52V168.82q0-7.36-3.35-10.986-3.352-3.625-10.493-3.625-9.448 0-13.843 5.108-4.394 5.109-4.394 16.864v31.586h-9.119v-60.205h7.416l1.483 8.24h.44q2.801-4.45 7.855-6.867 5.053-2.472 11.26-2.472 10.877 0 16.37 5.274 5.494 5.218 5.494 16.754v39.276h-9.12zm77.07-60.205v5.768l-11.152 1.318q1.538 1.923 2.746 5.054 1.21 3.076 1.21 6.976 0 8.844-6.044 14.117-6.042 5.274-16.589 5.274-2.692 0-5.054-.44-5.822 3.077-5.822 7.746 0 2.472 2.032 3.68 2.033 1.154 6.976 1.154h10.657q9.778 0 14.996 4.12 5.274 4.12 5.274 11.975 0 9.997-8.02 15.216-8.02 5.273-23.4 5.273-11.81 0-18.238-4.394-6.372-4.395-6.372-12.415 0-5.493 3.515-9.503 3.516-4.01 9.888-5.438-2.307-1.044-3.9-3.241-1.538-2.197-1.538-5.109 0-3.296 1.758-5.768 1.757-2.472 5.548-4.779-4.67-1.922-7.636-6.537-2.91-4.614-2.91-10.546 0-9.888 5.931-15.216 5.933-5.384 16.81-5.384 4.724 0 8.514 1.099h20.82zm-48.01 70.312q0 4.89 4.12 7.416 4.12 2.527 11.81 2.527 11.48 0 16.973-3.46 5.548-3.406 5.548-9.284 0-4.89-3.02-6.812-3.023-1.867-11.372-1.867h-10.932q-6.207 0-9.668 2.966-3.46 2.966-3.46 8.514zm4.943-51.031q0 6.317 3.57 9.558 3.57 3.24 9.943 3.24 13.348 0 13.348-12.963 0-13.568-13.513-13.568-6.427 0-9.888 3.46-3.46 3.461-3.46 10.273z" style="-inkscape-font-specification:'Open Sans'" font-weight="400" font-size="112.5" letter-spacing="0" word-spacing="0" font-family="Open Sans" fill="#fff"/></svg>