<?xml version="1.0" encoding="UTF-8" standalone="no"?>
<svg
   xmlns:dc="http://purl.org/dc/elements/1.1/"
   xmlns:cc="http://creativecommons.org/ns#"
   xmlns:rdf="http://www.w3.org/1999/02/22-rdf-syntax-ns#"
   xmlns:svg="http://www.w3.org/2000/svg"
   xmlns="http://www.w3.org/2000/svg"
   xmlns:sodipodi="http://sodipodi.sourceforge.net/DTD/sodipodi-0.dtd"
   xmlns:inkscape="http://www.inkscape.org/namespaces/inkscape"
   version="1.1"
   id="svg2"
   viewBox="0 0 1249.6104 359.99999"
   height="101.6mm"
   width="352.66782mm"
   inkscape:version="0.91 r13725"
   sodipodi:docname="verification.svg">
  <sodipodi:namedview
     pagecolor="#ffffff"
     bordercolor="#666666"
     borderopacity="1"
     objecttolerance="10"
     gridtolerance="10"
     guidetolerance="10"
     inkscape:pageopacity="0"
     inkscape:pageshadow="2"
     inkscape:window-width="2560"
     inkscape:window-height="1362"
     id="namedview9"
     showgrid="false"
     inkscape:zoom="0.27208481"
     inkscape:cx="624.80519"
     inkscape:cy="180"
     inkscape:window-x="0"
     inkscape:window-y="348"
     inkscape:window-maximized="1"
     inkscape:current-layer="svg2" />
  <defs
     id="defs4" />
  <metadata
     id="metadata7">
    <rdf:RDF>
      <cc:Work
         rdf:about="">
        <dc:format>image/svg+xml</dc:format>
        <dc:type
           rdf:resource="http://purl.org/dc/dcmitype/StillImage" />
        <dc:title />
      </cc:Work>
    </rdf:RDF>
  </metadata>
  <g
     transform="translate(158.22904,379.45806)"
     id="layer1">
    <path
       id="rect4136"
       d="m -158.22903,-379.45805 1063.4848,-10e-6 c 64.06945,62.53263 140.53553,137.52385 186.12553,182.82738 -41.7875,40.78275 -127.44997,126.688407 -178.43427,177.172615 l -1071.17606,1.1e-5 183.847764,-176.728286 z"
       style="opacity:1;fill:#45b664;fill-opacity:1;fill-rule:evenodd;stroke:#000000;stroke-width:0;stroke-miterlimit:4;stroke-dasharray:none;stroke-opacity:1" />
    <g
       style="font-style:normal;font-variant:normal;font-weight:normal;font-stretch:normal;font-size:25px;line-height:125%;font-family:'DejaVu Sans';-inkscape-font-specification:'DejaVu Sans, Normal';text-align:start;letter-spacing:0px;word-spacing:0px;writing-mode:lr-tb;text-anchor:start;fill:#000000;fill-opacity:1;stroke:none;stroke-width:1px;stroke-linecap:butt;stroke-linejoin:miter;stroke-opacity:1"
       id="text4177">
      <path
         d="m 231.68845,-237.2785 10.05249,0 -28.94898,80.31006 -9.22851,0 -28.78418,-80.31006 9.88769,0 18.45703,51.96533 q 3.18604,8.95386 5.05371,17.41333 1.97754,-8.89893 5.16358,-17.74292 l 18.34717,-51.63574 z"
         style="font-style:normal;font-variant:normal;font-weight:normal;font-stretch:normal;font-size:112.5px;font-family:'Open Sans';-inkscape-font-specification:'Open Sans';fill:#ffffff"
         id="path4138" />
      <path
         d="m 276.89719,-155.86981 q -13.34839,0 -21.09375,-8.12988 -7.69043,-8.12989 -7.69043,-22.57691 0,-14.55688 7.14111,-23.12622 7.19604,-8.56934 19.28101,-8.56934 11.31591,0 17.90771,7.47071 6.5918,7.41577 6.5918,19.61059 l 0,5.76783 -41.47339,0 q 0.27466,10.6018 5.32837,16.09497 5.10864,5.49316 14.33716,5.49316 9.7229,0 19.22607,-4.06494 l 0,8.12988 q -4.83398,2.0874 -9.17358,2.96631 -4.28467,0.93384 -10.38208,0.93384 z m -2.47193,-54.76685 q -7.25097,0 -11.59057,4.72412 -4.28467,4.72412 -5.05371,13.07373 l 31.47583,0 q 0,-8.62426 -3.84522,-13.18359 -3.84521,-4.61426 -10.98633,-4.61426 z"
         style="font-style:normal;font-variant:normal;font-weight:normal;font-stretch:normal;font-size:112.5px;font-family:'Open Sans';-inkscape-font-specification:'Open Sans';fill:#ffffff"
         id="path4140" />
      <path
         d="m 341.99118,-218.27216 q 4.01001,0 7.19605,0.65918 l -1.26343,8.45948 q -3.73535,-0.82398 -6.5918,-0.82398 -7.30591,0 -12.52441,5.93262 -5.16358,5.93262 -5.16358,14.77661 l 0,32.29981 -9.11865,0 0,-60.20508 7.52563,0 1.04371,11.15112 0.43945,0 q 3.35083,-5.87769 8.07495,-9.06372 4.72412,-3.18604 10.38208,-3.18604 z"
         style="font-style:normal;font-variant:normal;font-weight:normal;font-stretch:normal;font-size:112.5px;font-family:'Open Sans';-inkscape-font-specification:'Open Sans';fill:#ffffff"
         id="path4142" />
      <path
         d="m 369.56686,-156.96844 -9.11865,0 0,-60.20508 9.11865,0 0,60.20508 z m -9.88769,-76.51978 q 0,-3.1311 1.53808,-4.55933 1.53809,-1.48315 3.84522,-1.48315 2.19727,0 3.79028,1.48315 1.59302,1.48316 1.59302,4.55933 0,3.07617 -1.59302,4.61426 -1.59301,1.48315 -3.79028,1.48315 -2.30713,0 -3.84522,-1.48315 -1.53808,-1.53809 -1.53808,-4.61426 z"
         style="font-style:normal;font-variant:normal;font-weight:normal;font-stretch:normal;font-size:112.5px;font-family:'Open Sans';-inkscape-font-specification:'Open Sans';fill:#ffffff"
         id="path4144" />
      <path
         d="m 416.1489,-210.08734 -15.32593,0 0,53.1189 -9.11865,0 0,-53.1189 -10.76661,0 0,-4.11987 10.76661,-3.2959 0,-3.35083 q 0,-22.19239 19.39086,-22.19239 4.77906,0 11.20606,1.92261 l -2.36206,7.30591 q -5.27344,-1.70288 -9.00879,-1.70288 -5.16357,0 -7.6355,3.46069 -2.47192,3.40576 -2.47192,10.98633 l 0,3.90015 15.32593,0 0,7.08618 z m 20.10498,53.1189 -9.11866,0 0,-60.20508 9.11866,0 0,60.20508 z m -9.8877,-76.51978 q 0,-3.1311 1.53809,-4.55933 1.53808,-1.48315 3.84521,-1.48315 2.19727,0 3.79028,1.48315 1.59302,1.48316 1.59302,4.55933 0,3.07617 -1.59302,4.61426 -1.59301,1.48315 -3.79028,1.48315 -2.30713,0 -3.84521,-1.48315 -1.53809,-1.53809 -1.53809,-4.61426 z"
         style="font-style:normal;font-variant:normal;font-weight:normal;font-stretch:normal;font-size:112.5px;font-family:'Open Sans';-inkscape-font-specification:'Open Sans';fill:#ffffff"
         id="path4146" />
      <path
         d="m 479.64987,-155.86981 q -13.07373,0 -20.26977,-8.02002 -7.14112,-8.07495 -7.14112,-22.79663 0,-15.1062 7.25098,-23.34595 7.30591,-8.23975 20.76416,-8.23975 4.3396,0 8.6792,0.93384 4.3396,0.93384 6.81152,2.19727 l -2.80151,7.74536 q -3.02124,-1.2085 -6.5918,-1.97754 -3.57055,-0.82397 -6.31714,-0.82397 -18.34716,0 -18.34716,23.40087 0,11.0962 4.44946,17.02881 4.50439,5.93262 13.29346,5.93262 7.52563,0 15.43579,-3.24097 l 0,8.07495 q -6.04248,3.13111 -15.21607,3.13111 z"
         style="font-style:normal;font-variant:normal;font-weight:normal;font-stretch:normal;font-size:112.5px;font-family:'Open Sans';-inkscape-font-specification:'Open Sans';fill:#ffffff"
         id="path4148" />
      <path
         d="m 546.22702,-156.96844 -1.81274,-8.56934 -0.43946,0 q -4.50439,5.65796 -9.00879,7.69043 -4.44946,1.97754 -11.15112,1.97754 -8.95386,0 -14.0625,-4.61426 -5.05371,-4.61426 -5.05371,-13.12866 0,-18.23731 29.1687,-19.11621 l 10.21729,-0.32959 0,-3.73535 q 0,-7.08619 -3.07618,-10.43702 -3.02124,-3.40576 -9.7229,-3.40576 -7.52563,0 -17.0288,4.61426 l -2.80152,-6.97632 q 4.44946,-2.41699 9.7229,-3.79028 5.32837,-1.37329 10.65674,-1.37329 10.7666,0 15.93018,4.77905 5.2185,4.77905 5.2185,15.32593 l 0,41.08887 -6.75659,0 z m -20.59936,-6.42701 q 8.5144,0 13.34838,-4.66919 4.88892,-4.66919 4.88892,-13.07373 l 0,-5.43823 -9.11865,0.38452 q -10.87647,0.38452 -15.71045,3.40576 -4.77905,2.96631 -4.77905,9.28345 0,4.94385 2.9663,7.52564 3.02124,2.58178 8.40455,2.58178 z"
         style="font-style:normal;font-variant:normal;font-weight:normal;font-stretch:normal;font-size:112.5px;font-family:'Open Sans';-inkscape-font-specification:'Open Sans';fill:#ffffff"
         id="path4150" />
      <path
         d="m 591.27097,-163.39545 q 2.41699,0 4.66919,-0.32959 2.25219,-0.38452 3.57055,-0.76904 l 0,6.97632 q -1.48315,0.71411 -4.39453,1.15356 -2.85644,0.49439 -5.16357,0.49439 -17.46827,0 -17.46827,-18.4021 l 0,-35.81543 -8.62426,0 0,-4.39453 8.62426,-3.79029 3.84522,-12.854 5.27344,0 0,13.95264 17.46826,0 0,7.08618 -17.46826,0 0,35.43091 q 0,5.43823 2.58178,8.34961 2.58179,2.91137 7.08619,2.91137 z"
         style="font-style:normal;font-variant:normal;font-weight:normal;font-stretch:normal;font-size:112.5px;font-family:'Open Sans';-inkscape-font-specification:'Open Sans';fill:#ffffff"
         id="path4152" />
      <path
         d="m 620.71432,-156.96844 -9.11865,0 0,-60.20508 9.11865,0 0,60.20508 z m -9.88769,-76.51978 q 0,-3.1311 1.53809,-4.55933 1.53808,-1.48315 3.84521,-1.48315 2.19727,0 3.79028,1.48315 1.59302,1.48316 1.59302,4.55933 0,3.07617 -1.59302,4.61426 -1.59301,1.48315 -3.79028,1.48315 -2.30713,0 -3.84521,-1.48315 -1.53809,-1.53809 -1.53809,-4.61426 z"
         style="font-style:normal;font-variant:normal;font-weight:normal;font-stretch:normal;font-size:112.5px;font-family:'Open Sans';-inkscape-font-specification:'Open Sans';fill:#ffffff"
         id="path4154" />
      <path
         d="m 692.12546,-187.12592 q 0,14.72168 -7.41577,23.01636 -7.41578,8.23975 -20.48951,8.23975 -8.07495,0 -14.33715,-3.79029 -6.26221,-3.79028 -9.66797,-10.87646 -3.40576,-7.08618 -3.40576,-16.58936 0,-14.72168 7.36084,-22.90649 7.36084,-8.23975 20.43457,-8.23975 12.63427,0 20.05004,8.40455 7.47071,8.40454 7.47071,22.74169 z m -45.86792,0 q 0,11.53565 4.61426,17.57813 4.61425,6.04248 13.56811,6.04248 8.95386,0 13.56812,-5.98755 4.66919,-6.04248 4.66919,-17.63306 0,-11.48071 -4.66919,-17.41333 -4.61426,-5.98754 -13.67798,-5.98754 -8.95386,0 -13.51319,5.87768 -4.55932,5.87769 -4.55932,17.52319 z"
         style="font-style:normal;font-variant:normal;font-weight:normal;font-stretch:normal;font-size:112.5px;font-family:'Open Sans';-inkscape-font-specification:'Open Sans';fill:#ffffff"
         id="path4156" />
      <path
         d="m 749.25436,-156.96844 0,-38.94654 q 0,-7.36084 -3.35083,-10.98633 -3.35083,-3.62548 -10.49194,-3.62548 -9.44824,0 -13.84277,5.10864 -4.39453,5.10864 -4.39453,16.86401 l 0,31.5857 -9.11866,0 0,-60.20508 7.41578,0 1.48315,8.23974 0.43945,0 q 2.80152,-4.44946 7.85523,-6.86645 5.05371,-2.47193 11.26098,-2.47193 10.87647,0 16.36963,5.27344 5.49317,5.21851 5.49317,16.75415 l 0,39.27613 -9.11866,0 z"
         style="font-style:normal;font-variant:normal;font-weight:normal;font-stretch:normal;font-size:112.5px;font-family:'Open Sans';-inkscape-font-specification:'Open Sans';fill:#ffffff"
         id="path4158" />
    </g>
  </g>
</svg>
