<svg xmlns="http://www.w3.org/2000/svg" width="1332.918" height="384" viewBox="0 0 1249.61 360"><path fill="#45b664" fill-rule="evenodd" d="M0 0h1063.485c64.07 62.533 140.535 137.524 186.125 182.827-41.787 40.783-127.45 126.689-178.434 177.173H0l183.848-176.728z"/><path style="-inkscape-font-specification:'Open Sans'" fill="#fff" d="M389.917 142.18h10.053l-28.949 80.31h-9.229l-28.784-80.31h9.888l18.457 51.965q3.186 8.954 5.054 17.413 1.977-8.899 5.163-17.743l18.347-51.635zm45.21 81.408q-13.349 0-21.095-8.13-7.69-8.13-7.69-22.577 0-14.556 7.141-23.126 7.196-8.57 19.281-8.57 11.316 0 17.908 7.472 6.592 7.415 6.592 19.61v5.768H415.79q.275 10.602 5.33 16.095 5.107 5.493 14.336 5.493 9.723 0 19.226-4.065v8.13q-4.834 2.087-9.174 2.966-4.284.934-10.382.934zm-2.473-54.767q-7.25 0-11.59 4.725-4.285 4.724-5.054 13.073h31.476q0-8.624-3.845-13.183-3.846-4.615-10.987-4.615zm67.566-7.635q4.01 0 7.196.66l-1.263 8.459q-3.736-.824-6.592-.824-7.306 0-12.524 5.932-5.164 5.933-5.164 14.777v32.3h-9.119v-60.205h7.526l1.044 11.15h.44q3.35-5.877 8.074-9.063 4.724-3.186 10.382-3.186zm27.576 61.304h-9.119v-60.205h9.12v60.205zm-9.888-76.52q0-3.131 1.538-4.56 1.538-1.483 3.846-1.483 2.197 0 3.79 1.484 1.593 1.483 1.593 4.559t-1.593 4.614q-1.593 1.483-3.79 1.483-2.308 0-3.846-1.483-1.538-1.538-1.538-4.614zm56.47 23.4h-15.326v53.12h-9.119v-53.12h-10.766v-4.12l10.766-3.295v-3.35q0-22.193 19.391-22.193 4.78 0 11.206 1.922l-2.362 7.306q-5.273-1.703-9.009-1.703-5.163 0-7.635 3.461-2.472 3.406-2.472 10.986v3.9h15.326v7.087zm20.105 53.12h-9.119v-60.205h9.12v60.205zm-9.888-76.52q0-3.131 1.538-4.56 1.538-1.483 3.846-1.483 2.197 0 3.79 1.484 1.593 1.483 1.593 4.559t-1.593 4.614q-1.593 1.483-3.79 1.483-2.308 0-3.846-1.483-1.538-1.538-1.538-4.614zm53.284 77.618q-13.074 0-20.27-8.02-7.14-8.075-7.14-22.796 0-15.107 7.25-23.346 7.306-8.24 20.764-8.24 4.34 0 8.68.934t6.81 2.197l-2.8 7.745q-3.022-1.208-6.592-1.977-3.57-.824-6.318-.824-18.347 0-18.347 23.4 0 11.097 4.45 17.03 4.504 5.932 13.293 5.932 7.526 0 15.436-3.24v8.074q-6.043 3.131-15.216 3.131zm66.577-1.098l-1.813-8.57h-.44q-4.504 5.658-9.008 7.69-4.45 1.978-11.15 1.978-8.955 0-14.064-4.614-5.053-4.614-5.053-13.129 0-18.237 29.168-19.116l10.218-.33v-3.735q0-7.086-3.076-10.437-3.022-3.406-9.723-3.406-7.526 0-17.03 4.615l-2.8-6.977q4.45-2.417 9.722-3.79 5.33-1.373 10.657-1.373 10.767 0 15.93 4.779 5.22 4.779 5.22 15.326v41.089h-6.758zm-20.6-6.427q8.515 0 13.35-4.67 4.888-4.669 4.888-13.073v-5.439l-9.119.385q-10.876.384-15.71 3.406-4.78 2.966-4.78 9.283 0 4.944 2.967 7.526 3.021 2.582 8.405 2.582zm65.644 0q2.417 0 4.67-.33 2.251-.385 3.57-.769v6.976q-1.483.714-4.395 1.154-2.856.494-5.163.494-17.469 0-17.469-18.402v-35.815h-8.624v-4.395l8.624-3.79 3.846-12.854h5.273v13.953H757.3v7.086h-17.468v35.43q0 5.439 2.582 8.35 2.582 2.912 7.086 2.912zm29.443 6.427h-9.118v-60.205h9.118v60.205zm-9.887-76.52q0-3.131 1.538-4.56 1.538-1.483 3.845-1.483 2.197 0 3.79 1.484 1.593 1.483 1.593 4.559t-1.593 4.614q-1.593 1.483-3.79 1.483-2.307 0-3.845-1.483-1.538-1.538-1.538-4.614zm81.298 46.362q0 14.722-7.415 23.016-7.416 8.24-20.49 8.24-8.075 0-14.337-3.79-6.262-3.79-9.668-10.877-3.406-7.086-3.406-16.589 0-14.722 7.361-22.906 7.361-8.24 20.435-8.24 12.634 0 20.05 8.404 7.47 8.405 7.47 22.742zm-45.867 0q0 11.536 4.614 17.578 4.614 6.043 13.568 6.043t13.568-5.988q4.67-6.042 4.67-17.633 0-11.48-4.67-17.413-4.614-5.988-13.678-5.988-8.954 0-13.513 5.878-4.56 5.878-4.56 17.523zm102.996 30.158v-38.947q0-7.36-3.35-10.986-3.35-3.626-10.492-3.626-9.449 0-13.843 5.109-4.395 5.109-4.395 16.864v31.586h-9.118v-60.205h7.415l1.484 8.24h.44q2.8-4.45 7.854-6.867 5.054-2.472 11.261-2.472 10.877 0 16.37 5.273 5.493 5.219 5.493 16.754v39.277h-9.119z" font-family="Open Sans" font-size="112.5" font-weight="400" letter-spacing="0" word-spacing="0"/></svg>