<?xml version="1.0" encoding="UTF-8" standalone="no"?>
<svg
   xmlns:dc="http://purl.org/dc/elements/1.1/"
   xmlns:cc="http://creativecommons.org/ns#"
   xmlns:rdf="http://www.w3.org/1999/02/22-rdf-syntax-ns#"
   xmlns:svg="http://www.w3.org/2000/svg"
   xmlns="http://www.w3.org/2000/svg"
   xmlns:sodipodi="http://sodipodi.sourceforge.net/DTD/sodipodi-0.dtd"
   xmlns:inkscape="http://www.inkscape.org/namespaces/inkscape"
   viewBox="0 0 1249.6104 359.99999"
   height="384"
   width="1332.918"
   id="svg2"
   version="1.1"
   inkscape:version="0.91 r13725"
   sodipodi:docname="verification.svg">
  <metadata
     id="metadata12">
    <rdf:RDF>
      <cc:Work
         rdf:about="">
        <dc:format>image/svg+xml</dc:format>
        <dc:type
           rdf:resource="http://purl.org/dc/dcmitype/StillImage" />
      </cc:Work>
    </rdf:RDF>
  </metadata>
  <defs
     id="defs10" />
  <sodipodi:namedview
     pagecolor="#ffffff"
     bordercolor="#666666"
     borderopacity="1"
     objecttolerance="10"
     gridtolerance="10"
     guidetolerance="10"
     inkscape:pageopacity="0"
     inkscape:pageshadow="2"
     inkscape:window-width="2560"
     inkscape:window-height="1362"
     id="namedview8"
     showgrid="false"
     inkscape:zoom="0.25507946"
     inkscape:cx="666.45898"
     inkscape:cy="192"
     inkscape:window-x="0"
     inkscape:window-y="348"
     inkscape:window-maximized="1"
     inkscape:current-layer="svg2" />
  <path
     d="M0 0h1063.485c64.07 62.533 140.535 137.524 186.125 182.827-41.787 40.783-127.45 126.689-178.434 177.173H0l183.848-176.728z"
     fill="#45b664"
     fill-rule="evenodd"
     id="path4" />
  <path
     d="m 389.91715,142.17999 10.053,0 -28.949,80.31 -9.229,0 -28.784,-80.31 9.888,0 18.457,51.965 q 3.186,8.954 5.054,17.413 1.977,-8.899 5.163,-17.743 l 18.347,-51.635 z m 45.209,81.408 q -13.348,0 -21.094,-8.13 -7.69,-8.13 -7.69,-22.577 0,-14.556 7.141,-23.126 7.196,-8.57 19.281,-8.57 11.316,0 17.908,7.472 6.592,7.415 6.592,19.61 l 0,5.768 -41.474,0 q 0.275,10.602 5.329,16.095 5.108,5.493 14.337,5.493 9.723,0 19.226,-4.065 l 0,8.13 q -4.834,2.087 -9.174,2.966 -4.284,0.934 -10.382,0.934 z m -2.472,-54.767 q -7.25,0 -11.59,4.725 -4.285,4.724 -5.054,13.073 l 31.476,0 q 0,-8.624 -3.845,-13.183 -3.846,-4.615 -10.987,-4.615 z m 67.566,-7.635 q 4.01,0 7.196,0.66 l -1.263,8.459 q -3.736,-0.824 -6.592,-0.824 -7.306,0 -12.524,5.932 -5.164,5.933 -5.164,14.777 l 0,32.3 -9.119,0 0,-60.205 7.526,0 1.044,11.15 0.44,0 q 3.35,-5.877 8.074,-9.063 4.724,-3.186 10.382,-3.186 z m 27.576,61.304 -9.119,0 0,-60.205 9.119,0 0,60.205 z m -9.888,-76.52 q 0,-3.131 1.538,-4.56 1.538,-1.483 3.846,-1.483 2.197,0 3.79,1.484 1.593,1.483 1.593,4.559 0,3.076 -1.593,4.614 -1.593,1.483 -3.79,1.483 -2.308,0 -3.846,-1.483 -1.538,-1.538 -1.538,-4.614 z m 56.47,23.4 -15.326,0 0,53.12 -9.119,0 0,-53.12 -10.766,0 0,-4.12 10.766,-3.295 0,-3.35 q 0,-22.193 19.391,-22.193 4.78,0 11.206,1.922 l -2.362,7.306 q -5.273,-1.703 -9.009,-1.703 -5.163,0 -7.635,3.461 -2.472,3.406 -2.472,10.986 l 0,3.9 15.326,0 0,7.087 z m 20.105,53.12 -9.119,0 0,-60.205 9.119,0 0,60.205 z m -9.888,-76.52 q 0,-3.131 1.538,-4.56 1.538,-1.483 3.846,-1.483 2.197,0 3.79,1.484 1.593,1.483 1.593,4.559 0,3.076 -1.593,4.614 -1.593,1.483 -3.79,1.483 -2.308,0 -3.846,-1.483 -1.538,-1.538 -1.538,-4.614 z m 53.284,77.618 q -13.074,0 -20.27,-8.02 -7.141,-8.075 -7.141,-22.796 0,-15.107 7.251,-23.346 7.306,-8.24 20.764,-8.24 4.34,0 8.68,0.934 4.339,0.934 6.81,2.197 l -2.8,7.745 q -3.022,-1.208 -6.592,-1.977 -3.571,-0.824 -6.318,-0.824 -18.347,0 -18.347,23.4 0,11.097 4.45,17.03 4.504,5.932 13.293,5.932 7.526,0 15.436,-3.24 l 0,8.074 q -6.043,3.131 -15.216,3.131 z m 66.577,-1.098 -1.813,-8.57 -0.44,0 q -4.504,5.658 -9.008,7.69 -4.45,1.978 -11.151,1.978 -8.954,0 -14.063,-4.614 -5.053,-4.614 -5.053,-13.129 0,-18.237 29.168,-19.116 l 10.218,-0.33 0,-3.735 q 0,-7.086 -3.076,-10.437 -3.022,-3.406 -9.723,-3.406 -7.526,0 -17.03,4.615 l -2.8,-6.977 q 4.449,-2.417 9.722,-3.79 5.329,-1.373 10.657,-1.373 10.767,0 15.93,4.779 5.219,4.779 5.219,15.326 l 0,41.089 -6.757,0 z m -20.6,-6.427 q 8.515,0 13.35,-4.67 4.888,-4.669 4.888,-13.073 l 0,-5.439 -9.119,0.385 q -10.876,0.384 -15.71,3.406 -4.78,2.966 -4.78,9.283 0,4.944 2.967,7.526 3.021,2.582 8.405,2.582 z m 65.644,0 q 2.417,0 4.67,-0.33 2.251,-0.385 3.57,-0.769 l 0,6.976 q -1.483,0.714 -4.395,1.154 -2.856,0.494 -5.163,0.494 -17.469,0 -17.469,-18.402 l 0,-35.815 -8.624,0 0,-4.395 8.624,-3.79 3.846,-12.854 5.273,0 0,13.953 17.468,0 0,7.086 -17.468,0 0,35.43 q 0,5.439 2.582,8.35 2.582,2.912 7.086,2.912 z m 29.443,6.427 -9.118,0 0,-60.205 9.118,0 0,60.205 z m -9.887,-76.52 q 0,-3.131 1.538,-4.56 1.538,-1.483 3.845,-1.483 2.197,0 3.79,1.484 1.593,1.483 1.593,4.559 0,3.076 -1.593,4.614 -1.593,1.483 -3.79,1.483 -2.307,0 -3.845,-1.483 -1.538,-1.538 -1.538,-4.614 z m 81.298,46.362 q 0,14.722 -7.415,23.016 -7.416,8.24 -20.49,8.24 -8.075,0 -14.337,-3.79 -6.262,-3.79 -9.668,-10.877 -3.406,-7.086 -3.406,-16.589 0,-14.722 7.361,-22.906 7.361,-8.24 20.435,-8.24 12.634,0 20.05,8.404 7.47,8.405 7.47,22.742 z m -45.867,0 q 0,11.536 4.614,17.578 4.614,6.043 13.568,6.043 8.954,0 13.568,-5.988 4.67,-6.042 4.67,-17.633 0,-11.48 -4.67,-17.413 -4.614,-5.988 -13.678,-5.988 -8.954,0 -13.513,5.878 -4.56,5.878 -4.56,17.523 z m 102.996,30.158 0,-38.947 q 0,-7.36 -3.35,-10.986 -3.351,-3.626 -10.492,-3.626 -9.449,0 -13.843,5.109 -4.395,5.109 -4.395,16.864 l 0,31.586 -9.118,0 0,-60.205 7.415,0 1.484,8.24 0.44,0 q 2.8,-4.45 7.854,-6.867 5.054,-2.472 11.261,-2.472 10.877,0 16.37,5.273 5.493,5.219 5.493,16.754 l 0,39.277 -9.119,0 z"
     style="font-weight:400;font-size:112.5px;font-family:'Open Sans';-inkscape-font-specification:'Open Sans';letter-spacing:0;word-spacing:0;fill:#ffffff"
     font-weight="400"
     font-size="112.5"
     letter-spacing="0"
     word-spacing="0"
     id="path6"
     inkscape:connector-curvature="0" />
</svg>
