<svg xmlns="http://www.w3.org/2000/svg" width="88.804" height="39.775" viewBox="0 0 83.254072 37.288975"><g transform="translate(-2193.09 -8029.006) scale(17.642)" style="line-height:125%;-inkscape-font-specification:'DejaVu Sans, Normal';text-align:start" font-weight="400" font-size="9.69" font-family="DejaVu Sans" letter-spacing="0" word-spacing="0"><rect style="line-height:125%;-inkscape-font-specification:'DejaVu Sans, Normal';text-align:start" width="4.719" height="2.114" x="138.651" y="456.033" ry=".628" fill="#82abc9" fill-rule="evenodd"/><text style="line-height:125%;-inkscape-font-specification:'open sans';text-align:start" x="139.355" y="457.601" font-size="4.986" font-family="open sans" fill="#fff"><tspan x="139.355" y="457.601" font-size="1.429">2012</tspan></text><rect style="line-height:125%;-inkscape-font-specification:'DejaVu Sans, Normal';text-align:start" width="4.719" height="2.114" x="124.311" y="455.107" ry=".628" fill="#82abc9" fill-rule="evenodd"/><path d="M125.755 456.675h-.67v-.1l.268-.27q.123-.124.162-.177.04-.053.059-.103.02-.05.02-.108 0-.082-.05-.129-.05-.048-.138-.048-.063 0-.12.02-.057.022-.127.077l-.061-.079q.14-.117.307-.117.144 0 .225.074.082.073.082.197 0 .097-.055.192-.054.095-.203.24l-.224.218v.006h.525v.108zm.823-.511q0 .264-.084.395-.083.13-.254.13-.165 0-.25-.133-.086-.134-.086-.392 0-.267.083-.396t.253-.129q.166 0 .252.135t.086.39zm-.557 0q0 .222.052.324.052.101.167.101.116 0 .167-.102.053-.103.053-.323 0-.22-.053-.322-.051-.102-.167-.102-.115 0-.167.1-.052.101-.052.324zm1.128.511h-.113v-.727q0-.09.006-.171l-.033.03q-.018.017-.166.136l-.061-.079.27-.209h.097v1.02zm1.059 0h-.67v-.1l.268-.27q.123-.124.162-.177.039-.053.058-.103.02-.05.02-.108 0-.082-.05-.129-.05-.048-.137-.048-.064 0-.12.02-.057.022-.127.077l-.061-.079q.14-.117.306-.117.144 0 .226.074.081.073.081.197 0 .097-.054.192t-.204.24l-.223.218v.006h.525v.108z" style="line-height:125%;-inkscape-font-specification:'open sans';text-align:start" font-size="1.429" font-family="open sans" fill="#fff"/></g></svg>