<svg xmlns="http://www.w3.org/2000/svg" width="88.804" height="39.775" viewBox="0 0 83.254 37.289"><g style="line-height:125%;-inkscape-font-specification:'DejaVu Sans, Normal';text-align:start" font-family="DejaVu Sans" font-size="9.69" font-weight="400" letter-spacing="0" transform="translate(-2193.09 -8029.006) scale(17.642)" word-spacing="0"><rect style="line-height:125%;-inkscape-font-specification:'DejaVu Sans, Normal';text-align:start" width="4.719" height="2.114" x="138.651" y="456.033" fill="#82abc9" fill-rule="evenodd" ry=".628"/><text style="line-height:125%;-inkscape-font-specification:'open sans';text-align:start" x="139.383" y="457.601" fill="#fff" font-family="open sans" font-size="4.986"><tspan x="139.383" y="457.601" font-size="1.429">2013</tspan></text><rect style="line-height:125%;-inkscape-font-specification:'DejaVu Sans, Normal';text-align:start" width="4.719" height="2.114" x="124.311" y="455.107" fill="#82abc9" fill-rule="evenodd" ry=".628"/><path style="line-height:125%;-inkscape-font-specification:'open sans';text-align:start" fill="#fff" d="M125.783 456.675h-.67v-.1l.268-.27q.123-.124.162-.177.039-.053.058-.103.02-.05.02-.108 0-.082-.05-.13-.05-.047-.137-.047-.064 0-.12.02-.057.022-.127.077l-.061-.08q.14-.116.306-.116.144 0 .226.074.081.073.081.197 0 .097-.054.192t-.204.24l-.223.218v.006h.525v.108zm.823-.511q0 .264-.084.395-.083.13-.255.13-.164 0-.25-.133-.086-.134-.086-.392 0-.267.083-.396t.253-.129q.166 0 .252.135.087.135.087.39zm-.558 0q0 .222.053.324.052.101.166.101.116 0 .168-.102.052-.103.052-.323 0-.22-.052-.322-.052-.102-.168-.102-.114 0-.166.1-.053.101-.053.324zm1.128.511h-.113v-.727q0-.09.006-.171l-.033.03q-.018.017-.166.136l-.06-.079.269-.209h.098v1.02zm1.021-.78q0 .098-.055.16t-.155.083v.006q.123.015.182.078.06.063.06.165 0 .146-.102.224-.101.079-.287.079-.081 0-.149-.013-.067-.012-.13-.043v-.11q.066.033.14.05.076.017.143.017.264 0 .264-.207 0-.186-.291-.186h-.1v-.1h.101q.12 0 .19-.052.069-.053.069-.146 0-.075-.052-.117-.05-.043-.139-.043-.067 0-.126.018-.06.018-.135.067l-.059-.078q.063-.05.145-.077.082-.029.173-.029.148 0 .23.069.083.067.083.186z" font-family="open sans" font-size="1.429"/></g></svg>