<svg xmlns="http://www.w3.org/2000/svg" width="88.804" height="39.775" viewBox="0 0 83.254 37.289"><g style="line-height:125%;-inkscape-font-specification:'DejaVu Sans, Normal';text-align:start" font-family="DejaVu Sans" font-size="9.69" font-weight="400" letter-spacing="0" transform="translate(-2193.09 -8029.006) scale(17.642)" word-spacing="0"><path style="line-height:125%;-inkscape-font-specification:'DejaVu Sans, Normal';text-align:start" fill="#82abc9" fill-rule="evenodd" d="M124.938 455.107h3.464c.348 0 .628.28.628.628v.858c0 .348-.28.628-.628.628h-3.464a.626.626 0 0 1-.627-.628v-.858c0-.348.28-.628.627-.628z"/><path style="line-height:125%;-inkscape-font-specification:'open sans';text-align:start" fill="#fff" d="M125.755 456.675h-.67v-.1l.268-.27q.123-.124.162-.177.04-.053.059-.103.02-.05.02-.108 0-.082-.05-.129-.05-.048-.138-.048-.063 0-.12.02-.057.022-.127.077l-.061-.079q.14-.117.307-.117.144 0 .225.074.082.073.082.197 0 .097-.055.192-.054.095-.203.24l-.224.218v.006h.525v.108zm.823-.511q0 .264-.084.395-.083.13-.254.13-.165 0-.25-.133-.086-.134-.086-.392 0-.267.083-.396t.253-.129q.166 0 .252.135t.086.39zm-.557 0q0 .222.052.324.052.101.167.101.116 0 .167-.102.053-.103.053-.323 0-.22-.053-.322-.051-.102-.167-.102-.115 0-.167.1-.052.101-.052.324zm1.128.511h-.113v-.727q0-.09.006-.171l-.033.03q-.018.017-.166.136l-.061-.079.27-.209h.097v1.02zm1.107-.235h-.152v.235h-.11v-.234h-.496v-.101l.484-.69h.122v.685h.152v.106zm-.263-.105v-.339q0-.1.007-.225h-.006q-.033.067-.062.111l-.32.453h.381z" font-family="open sans" font-size="1.429"/><rect style="line-height:125%;-inkscape-font-specification:'DejaVu Sans, Normal';text-align:start" width="4.719" height="2.114" x="138.651" y="456.033" fill="#82abc9" fill-rule="evenodd" ry=".628"/><text style="line-height:125%;-inkscape-font-specification:'open sans';text-align:start" x="139.355" y="457.601" fill="#fff" font-family="open sans" font-size="4.986"><tspan x="139.355" y="457.601" font-size="1.429">2014</tspan></text></g></svg>