<?xml version="1.0" encoding="UTF-8" standalone="no"?>
<!-- Created with Inkscape (http://www.inkscape.org/) -->

<svg
   xmlns:dc="http://purl.org/dc/elements/1.1/"
   xmlns:cc="http://creativecommons.org/ns#"
   xmlns:rdf="http://www.w3.org/1999/02/22-rdf-syntax-ns#"
   xmlns:svg="http://www.w3.org/2000/svg"
   xmlns="http://www.w3.org/2000/svg"
   xmlns:sodipodi="http://sodipodi.sourceforge.net/DTD/sodipodi-0.dtd"
   xmlns:inkscape="http://www.inkscape.org/namespaces/inkscape"
   width="23.496151mm"
   height="10.523777mm"
   viewBox="0 0 83.254072 37.288975"
   id="svg2"
   version="1.1"
   inkscape:version="0.91 r13725"
   sodipodi:docname="2016.svg"
   inkscape:export-filename="/home/jospoortvliet/source code/www/assets/img/history/2014.png"
   inkscape:export-xdpi="119.99435"
   inkscape:export-ydpi="119.99435">
  <defs
     id="defs4" />
  <sodipodi:namedview
     id="base"
     pagecolor="#ffffff"
     bordercolor="#666666"
     borderopacity="1.0"
     inkscape:pageopacity="0.0"
     inkscape:pageshadow="2"
     inkscape:zoom="2.1655129"
     inkscape:cx="-76.336658"
     inkscape:cy="-10.632313"
     inkscape:document-units="px"
     inkscape:current-layer="flowRoot4136"
     showgrid="false"
     fit-margin-top="0"
     fit-margin-left="0"
     fit-margin-right="0"
     fit-margin-bottom="0"
     inkscape:window-width="2560"
     inkscape:window-height="1359"
     inkscape:window-x="0"
     inkscape:window-y="240"
     inkscape:window-maximized="1"
     inkscape:snap-bbox="true"
     inkscape:bbox-paths="true"
     inkscape:bbox-nodes="true"
     inkscape:snap-page="true" />
  <metadata
     id="metadata7">
    <rdf:RDF>
      <cc:Work
         rdf:about="">
        <dc:format>image/svg+xml</dc:format>
        <dc:type
           rdf:resource="http://purl.org/dc/dcmitype/StillImage" />
        <dc:title />
      </cc:Work>
    </rdf:RDF>
  </metadata>
  <g
     inkscape:label="Layer 1"
     inkscape:groupmode="layer"
     id="layer1"
     transform="translate(-152.81558,-394.39609)">
    <g
       transform="matrix(17.642001,0,0,17.642001,-2040.2735,-7634.6095)"
       style="font-style:normal;font-variant:normal;font-weight:normal;font-stretch:normal;font-size:9.6902504px;line-height:125%;font-family:'DejaVu Sans';-inkscape-font-specification:'DejaVu Sans, Normal';text-align:start;letter-spacing:0px;word-spacing:0px;writing-mode:lr-tb;text-anchor:start;fill:#000000;fill-opacity:1;stroke:none;stroke-width:1px;stroke-linecap:butt;stroke-linejoin:miter;stroke-opacity:1"
       id="flowRoot4136">
      <rect
         style="font-style:normal;font-variant:normal;font-weight:normal;font-stretch:normal;font-size:9.6902504px;line-height:125%;font-family:'DejaVu Sans';-inkscape-font-specification:'DejaVu Sans, Normal';text-align:start;letter-spacing:0px;word-spacing:0px;writing-mode:lr-tb;text-anchor:start;opacity:1;fill:#82abc9;fill-opacity:1;fill-rule:evenodd;stroke:none;stroke-width:2;stroke-linecap:round;stroke-linejoin:round;stroke-miterlimit:4;stroke-dasharray:none;stroke-dashoffset:0;stroke-opacity:1"
         id="rect4139-4-8-8"
         width="4.7190838"
         height="2.1136477"
         x="138.65097"
         y="456.03336"
         ry="0.62781602" />
      <text
         xml:space="preserve"
         style="font-style:normal;font-variant:normal;font-weight:normal;font-stretch:normal;font-size:4.98589611px;line-height:125%;font-family:'open sans';-inkscape-font-specification:'open sans';text-align:start;letter-spacing:0px;word-spacing:0px;writing-mode:lr-tb;text-anchor:start;fill:#ffffff;fill-opacity:1;stroke:none;stroke-width:1px;stroke-linecap:butt;stroke-linejoin:miter;stroke-opacity:1"
         x="139.35526"
         y="457.6011"
         id="text4141-6-7-3"
         sodipodi:linespacing="125%"><tspan
           sodipodi:role="line"
           id="tspan4143-2-2-5"
           x="139.35526"
           y="457.6011"
           style="font-size:1.42855716px">2016</tspan></text>
      <path
         style="font-style:normal;font-variant:normal;font-weight:normal;font-stretch:normal;font-size:9.6902504px;line-height:125%;font-family:'DejaVu Sans';-inkscape-font-specification:'DejaVu Sans, Normal';text-align:start;letter-spacing:0px;word-spacing:0px;writing-mode:lr-tb;text-anchor:start;opacity:1;fill:#82abc9;fill-opacity:1;fill-rule:evenodd;stroke:none;stroke-width:2;stroke-linecap:round;stroke-linejoin:round;stroke-miterlimit:4;stroke-dasharray:none;stroke-dashoffset:0;stroke-opacity:1"
         d="m 124.93849,455.10742 3.46345,0 c 0.34781,0 0.62782,0.28001 0.62782,0.62782 l 0,0.85801 c 0,0.34781 -0.28001,0.62782 -0.62782,0.62782 l -3.46345,0 c -0.34781,0 -0.62781,-0.28001 -0.62781,-0.62782 l 0,-0.85801 c 0,-0.34781 0.28,-0.62782 0.62781,-0.62782 z"
         id="rect4139-4-8-8-1" />
      <g
         style="font-style:normal;font-variant:normal;font-weight:normal;font-stretch:normal;font-size:4.98589611px;line-height:125%;font-family:'open sans';-inkscape-font-specification:'open sans';text-align:start;letter-spacing:0px;word-spacing:0px;writing-mode:lr-tb;text-anchor:start;fill:#ffffff;fill-opacity:1;stroke:none;stroke-width:1px;stroke-linecap:butt;stroke-linejoin:miter;stroke-opacity:1"
         id="text4141-6-7-3-4">
        <path
           d="m 125.77563,456.6752 -0.67034,0 0,-0.0998 0.26855,-0.26994 q 0.12277,-0.12417 0.16183,-0.17718 0.0391,-0.053 0.0586,-0.10323 0.0195,-0.0502 0.0195,-0.10812 0,-0.0816 -0.0495,-0.12905 -0.0495,-0.0481 -0.13741,-0.0481 -0.0635,0 -0.12068,0.0209 -0.0565,0.0209 -0.12625,0.076 l -0.0614,-0.0788 q 0.14091,-0.11719 0.30692,-0.11719 0.14369,0 0.22531,0.0739 0.0816,0.0732 0.0816,0.19741 0,0.0969 -0.0544,0.19182 -0.0544,0.0949 -0.20368,0.23995 l -0.22321,0.21833 0,0.006 0.52455,0 0,0.10742 z"
           style="font-size:1.42855716px"
           id="path4162" />
        <path
           d="m 126.59872,456.16391 q 0,0.26436 -0.0837,0.3948 -0.083,0.13044 -0.25461,0.13044 -0.16461,0 -0.25041,-0.13323 -0.0858,-0.13392 -0.0858,-0.39201 0,-0.26646 0.083,-0.39551 0.083,-0.12904 0.2532,-0.12904 0.16602,0 0.25182,0.13462 0.0865,0.13463 0.0865,0.38993 z m -0.55733,0 q 0,0.22251 0.0523,0.32435 0.0523,0.10114 0.16671,0.10114 0.1158,0 0.16741,-0.10253 0.0523,-0.10324 0.0523,-0.32296 0,-0.21973 -0.0523,-0.32157 -0.0516,-0.10254 -0.16741,-0.10254 -0.11439,0 -0.16671,0.10115 -0.0523,0.10044 -0.0523,0.32296 z"
           style="font-size:1.42855716px"
           id="path4164" />
        <path
           d="m 127.16931,456.6752 -0.11301,0 0,-0.72683 q 0,-0.0907 0.006,-0.1716 -0.0146,0.0147 -0.0328,0.0307 -0.0181,0.0161 -0.16601,0.13602 l -0.0614,-0.0795 0.26995,-0.20857 0.0977,0 0,1.0198 z"
           style="font-size:1.42855716px"
           id="path4166" />
        <path
           d="m 127.56969,456.23924 q 0,-0.30064 0.11649,-0.44921 0.11719,-0.14928 0.34598,-0.14928 0.0788,0 0.12416,0.0133 l 0,0.0997 q -0.0537,-0.0174 -0.12277,-0.0174 -0.16392,0 -0.25041,0.10253 -0.0865,0.10184 -0.0949,0.32087 l 0.008,0 q 0.0767,-0.11998 0.24275,-0.11998 0.13741,0 0.21623,0.083 0.0795,0.083 0.0795,0.22531 0,0.15903 -0.0872,0.25041 -0.0865,0.0907 -0.23437,0.0907 -0.15834,0 -0.25112,-0.11858 -0.0928,-0.11928 -0.0928,-0.33133 z m 0.34249,0.35156 q 0.0991,0 0.15346,-0.0621 0.0551,-0.0628 0.0551,-0.18066 0,-0.10115 -0.0509,-0.15904 -0.0509,-0.0579 -0.15207,-0.0579 -0.0628,0 -0.11509,0.0258 -0.0523,0.0258 -0.0837,0.0711 -0.0307,0.0453 -0.0307,0.0942 0,0.0718 0.0279,0.13392 0.0279,0.0621 0.0788,0.0984 0.0516,0.0363 0.11718,0.0363 z"
           style="font-size:1.42855716px"
           id="path4168" />
      </g>
    </g>
  </g>
</svg>
