<svg xmlns="http://www.w3.org/2000/svg" width="10mm" height="10mm" viewBox="0 0 35.433 35.433"><defs><filter id="a" width="1.158" height="1.158" x="-.079" y="-.079" color-interpolation-filters="sRGB"><feGaussianBlur stdDeviation=".056"/></filter></defs><g fill="#fff" font-family="DejaVu Sans" font-size="9.69" font-weight="400" letter-spacing="0" word-spacing="0"><ellipse cx="125.375" cy="457.252" fill-rule="evenodd" stroke="#000" stroke-linecap="round" stroke-linejoin="round" stroke-width=".102" style="line-height:125%;-inkscape-font-specification:'DejaVu Sans, Normal';text-align:start" filter="url(#a)" rx=".853" ry=".853" transform="translate(-2193.864 -8048.837) scale(17.642)"/><g style="line-height:125%;-inkscape-font-specification:'DejaVu Sans, Normal';text-align:start" stroke="#fff" transform="translate(-2194.156 -8049.13) scale(17.642)"><ellipse cx="125.375" cy="457.252" fill="#fc0" fill-rule="evenodd" stroke-linecap="round" stroke-linejoin="round" stroke-width=".102" rx=".853" ry=".853"/><path style="line-height:125%;-inkscape-font-specification:FontAwesome;text-align:start" stroke="none" d="M125.163 457.524a.02.02 0 0 0 0-.029l-.243-.243.243-.243a.02.02 0 0 0 0-.029l-.03-.03a.02.02 0 0 0-.03 0l-.288.288a.02.02 0 0 0 0 .028l.289.289a.02.02 0 0 0 .028 0l.031-.031zm.366-.66c.004-.011-.004-.022-.014-.026l-.039-.01c-.01-.004-.02.004-.024.014l-.23.8c-.005.01.003.021.013.024l.039.01c.01.005.02-.003.024-.014l.23-.799zm.407.402a.02.02 0 0 0 0-.028l-.289-.289a.02.02 0 0 0-.028 0l-.031.031a.02.02 0 0 0 0 .029l.243.243-.243.243a.02.02 0 0 0 0 .029l.03.03a.02.02 0 0 0 .03 0l.288-.288z" font-family="FontAwesome" font-size="medium"/></g></g></svg>