<svg xmlns="http://www.w3.org/2000/svg" width="10mm" height="10mm" viewBox="0 0 35.433071 35.43307"><defs><filter id="a" x="-.079" width="1.158" y="-.079" height="1.158" color-interpolation-filters="sRGB"><feGaussianBlur stdDeviation=".056"/></filter></defs><g font-weight="400" font-size="9.69" font-family="DejaVu Sans" letter-spacing="0" word-spacing="0" fill="#fff"><path d="M126.228 457.252a.853.853 0 0 1-.853.853.853.853 0 0 1-.852-.853.853.853 0 0 1 .852-.852.853.853 0 0 1 .853.852z" fill-rule="evenodd" stroke="#000" stroke-width=".102" stroke-linecap="round" stroke-linejoin="round" style="line-height:125%;-inkscape-font-specification:'DejaVu Sans, Normal';text-align:start" transform="translate(-2193.864 -8048.837) scale(17.642)" filter="url(#a)"/><g style="line-height:125%;-inkscape-font-specification:'DejaVu Sans, Normal';text-align:start" stroke="#fff"><path d="M32.759 17.717a15.042 15.042 0 0 1-15.042 15.042A15.042 15.042 0 0 1 2.675 17.717 15.042 15.042 0 0 1 17.717 2.675a15.042 15.042 0 0 1 15.042 15.042z" fill="#aad400" fill-rule="evenodd" stroke-width="1.799" stroke-linecap="round" stroke-linejoin="round"/><path style="line-height:125%;-inkscape-font-specification:FontAwesome;text-align:start" d="M26.005 19.31c0 .158-.16.324-.325.324H9.743c-.16 0-.325-.158-.325-.324v-8.288c0-.159.159-.324.325-.324H25.68c.159 0 .325.158.325.324v8.288zm1.273-8.288c0-.877-.718-1.593-1.593-1.593H9.748c-.877 0-1.593.718-1.593 1.593V21.86c0 .877.718 1.593 1.593 1.593h5.418c0 .868-.636 1.544-.636 1.914 0 .348.292.637.636.637h5.1a.645.645 0 0 0 .638-.637c0-.347-.637-1.065-.637-1.914h5.418c.877 0 1.593-.718 1.593-1.593V11.022z" font-size="medium" font-family="FontAwesome" stroke="none"/></g></g></svg>