<svg xmlns="http://www.w3.org/2000/svg" width="10mm" height="10mm" viewBox="0 0 35.433 35.433"><defs><filter id="a" width="1.158" height="1.158" x="-.079" y="-.079" color-interpolation-filters="sRGB"><feGaussianBlur stdDeviation=".056"/></filter></defs><g fill="#fff" font-family="DejaVu Sans" font-size="9.69" font-weight="400" letter-spacing="0" word-spacing="0"><ellipse cx="125.375" cy="457.252" fill-rule="evenodd" stroke="#000" stroke-linecap="round" stroke-linejoin="round" stroke-width=".102" style="line-height:125%;-inkscape-font-specification:'DejaVu Sans, Normal';text-align:start" filter="url(#a)" rx=".853" ry=".853" transform="translate(-2193.864 -8048.837) scale(17.642)"/><g style="line-height:125%;-inkscape-font-specification:'DejaVu Sans, Normal';text-align:start" stroke="#fff" transform="translate(-2194.156 -8049.13) scale(17.642)"><ellipse cx="125.375" cy="457.252" fill="#ff2a2a" fill-rule="evenodd" stroke-linecap="round" stroke-linejoin="round" stroke-width=".102" rx=".853" ry=".853"/><path style="line-height:125%;-inkscape-font-specification:FontAwesome;text-align:start" stroke="none" d="M125.926 457.266a.551.551 0 1 0-.725.523c.028.005.038-.012.038-.027l-.001-.102s-.154.033-.186-.065c0 0-.025-.064-.06-.08 0 0-.051-.035.004-.034 0 0 .055.005.085.056.048.085.128.06.16.046a.117.117 0 0 1 .035-.074c-.123-.014-.251-.06-.251-.272 0-.06.021-.11.056-.148a.206.206 0 0 1 .005-.146c.047-.014.153.057.153.057a.54.54 0 0 1 .275 0s.106-.071.152-.057c.03.076.011.132.005.146a.213.213 0 0 1 .056.148c0 .212-.129.259-.252.272.022.017.038.05.038.102v.151c0 .014.009.032.037.027a.552.552 0 0 0 .376-.523z" font-family="FontAwesome" font-size="medium"/></g></g></svg>