<svg xmlns="http://www.w3.org/2000/svg" width="10mm" height="10mm" viewBox="0 0 35.433071 35.43307"><defs><filter id="j" x="-.079" width="1.158" y="-.079" height="1.158" color-interpolation-filters="sRGB"><feGaussianBlur stdDeviation=".056"/></filter><linearGradient id="a" gradientUnits="userSpaceOnUse" x1="288.494" y1="55.888" x2="288.494" y2="339.222"><stop offset="0" stop-color="#bed5e1"/><stop offset="1" stop-color="#567b8f"/></linearGradient><linearGradient id="b" gradientUnits="userSpaceOnUse" x1="251.211" y1="55.888" x2="251.211" y2="339.222"><stop offset="0" stop-color="#bed5e1"/><stop offset="1" stop-color="#567b8f"/></linearGradient><linearGradient id="c" gradientUnits="userSpaceOnUse" x1="293.225" y1="55.888" x2="293.225" y2="339.222"><stop offset="0" stop-color="#bed5e1"/><stop offset="1" stop-color="#567b8f"/></linearGradient><linearGradient id="d" gradientUnits="userSpaceOnUse" x1="375.334" y1="55.888" x2="375.334" y2="339.222"><stop offset="0" stop-color="#bed5e1"/><stop offset="1" stop-color="#567b8f"/></linearGradient><linearGradient id="e" gradientUnits="userSpaceOnUse" x1="334.494" y1="55.888" x2="334.494" y2="339.222"><stop offset="0" stop-color="#bed5e1"/><stop offset="1" stop-color="#567b8f"/></linearGradient><linearGradient id="f" gradientUnits="userSpaceOnUse" x1="458.427" y1="55.887" x2="458.427" y2="339.224"><stop offset="0" stop-color="#bed5e1"/><stop offset="1" stop-color="#567b8f"/></linearGradient><linearGradient id="g" gradientUnits="userSpaceOnUse" x1="413.163" y1="55.888" x2="413.163" y2="339.221"><stop offset="0" stop-color="#bed5e1"/><stop offset="1" stop-color="#567b8f"/></linearGradient><linearGradient id="h" gradientUnits="userSpaceOnUse" x1="290.762" y1="55.887" x2="290.762" y2="339.224"><stop offset="0" stop-color="#bed5e1"/><stop offset="1" stop-color="#567b8f"/></linearGradient><linearGradient id="i" gradientUnits="userSpaceOnUse" x1="346.773" y1="55.888" x2="346.773" y2="339.221"><stop offset="0" stop-color="#bed5e1"/><stop offset="1" stop-color="#567b8f"/></linearGradient></defs><g font-weight="400" font-size="9.69" font-family="DejaVu Sans" letter-spacing="0" word-spacing="0"><ellipse ry=".853" rx=".853" cy="457.252" cx="125.375" fill="#fff" fill-rule="evenodd" stroke="#000" stroke-width=".102" stroke-linecap="round" stroke-linejoin="round" style="line-height:125%;-inkscape-font-specification:'DejaVu Sans, Normal';text-align:start" transform="translate(-2193.864 -8048.837) scale(17.642)" filter="url(#j)"/><g style="line-height:125%;-inkscape-font-specification:'DejaVu Sans, Normal';text-align:start" transform="translate(-2194.156 -8049.13) scale(17.642)" fill="#fff" stroke="#fff"><ellipse ry=".853" rx=".853" cy="457.252" cx="125.375" fill="#ff2a2a" fill-rule="evenodd" stroke-width=".102" stroke-linecap="round" stroke-linejoin="round"/><path style="line-height:125%;-inkscape-font-specification:FontAwesome;text-align:start" d="M125.926 457.266a.551.551 0 1 0-.725.523c.028.005.038-.012.038-.027l-.001-.102s-.154.033-.186-.065c0 0-.025-.064-.06-.08 0 0-.051-.035.004-.034 0 0 .055.005.085.056.048.085.128.06.16.046a.117.117 0 0 1 .035-.074c-.123-.014-.251-.06-.251-.272 0-.06.021-.11.056-.148a.206.206 0 0 1 .005-.146c.047-.014.153.057.153.057a.54.54 0 0 1 .275 0s.106-.071.152-.057c.03.076.011.132.005.146a.213.213 0 0 1 .056.148c0 .212-.129.259-.252.272.022.017.038.05.038.102v.151c0 .014.009.032.037.027a.552.552 0 0 0 .376-.523z" font-size="medium" font-family="FontAwesome" stroke="none"/></g></g></svg>