<svg xmlns="http://www.w3.org/2000/svg" xmlns:xlink="http://www.w3.org/1999/xlink" width="10mm" height="10mm" viewBox="0 0 35.433071 35.43307"><defs><filter id="l" x="-.079" width="1.158" y="-.079" height="1.158" color-interpolation-filters="sRGB"><feGaussianBlur stdDeviation=".056"/></filter><filter id="m" x="-.079" width="1.158" y="-.079" height="1.158" color-interpolation-filters="sRGB"><feGaussianBlur stdDeviation=".056"/></filter><linearGradient id="a" gradientUnits="userSpaceOnUse" x1="288.494" y1="55.888" x2="288.494" y2="339.222"><stop offset="0" stop-color="#bed5e1"/><stop offset="1" stop-color="#567b8f"/></linearGradient><linearGradient id="b" gradientUnits="userSpaceOnUse" x1="251.211" y1="55.888" x2="251.211" y2="339.222"><stop offset="0" stop-color="#bed5e1"/><stop offset="1" stop-color="#567b8f"/></linearGradient><linearGradient id="c" gradientUnits="userSpaceOnUse" x1="293.225" y1="55.888" x2="293.225" y2="339.222"><stop offset="0" stop-color="#bed5e1"/><stop offset="1" stop-color="#567b8f"/></linearGradient><linearGradient id="d" gradientUnits="userSpaceOnUse" x1="375.334" y1="55.888" x2="375.334" y2="339.222"><stop offset="0" stop-color="#bed5e1"/><stop offset="1" stop-color="#567b8f"/></linearGradient><linearGradient id="e" gradientUnits="userSpaceOnUse" x1="334.494" y1="55.888" x2="334.494" y2="339.222"><stop offset="0" stop-color="#bed5e1"/><stop offset="1" stop-color="#567b8f"/></linearGradient><linearGradient id="f" gradientUnits="userSpaceOnUse" x1="458.427" y1="55.887" x2="458.427" y2="339.224"><stop offset="0" stop-color="#bed5e1"/><stop offset="1" stop-color="#567b8f"/></linearGradient><linearGradient id="g" gradientUnits="userSpaceOnUse" x1="413.163" y1="55.888" x2="413.163" y2="339.221"><stop offset="0" stop-color="#bed5e1"/><stop offset="1" stop-color="#567b8f"/></linearGradient><linearGradient id="h" gradientUnits="userSpaceOnUse" x1="290.762" y1="55.887" x2="290.762" y2="339.224"><stop offset="0" stop-color="#bed5e1"/><stop offset="1" stop-color="#567b8f"/></linearGradient><linearGradient id="i" gradientUnits="userSpaceOnUse" x1="346.773" y1="55.888" x2="346.773" y2="339.221"><stop offset="0" stop-color="#bed5e1"/><stop offset="1" stop-color="#567b8f"/></linearGradient><linearGradient gradientTransform="matrix(1 0 0 -1 -191.2 -3.189)" y2="-342.412" x2="479.694" y1="-59.078" x1="479.694" gradientUnits="userSpaceOnUse" id="n"><stop offset="0" stop-color="#bed5e1"/><stop offset="1" stop-color="#567b8f"/></linearGradient><linearGradient gradientTransform="matrix(1 0 0 -1 -191.2 -3.189)" y2="-342.414" x2="442.411" y1="-59.077" x1="442.411" gradientUnits="userSpaceOnUse" id="o"><stop offset="0" stop-color="#bed5e1"/><stop offset="1" stop-color="#567b8f"/></linearGradient><linearGradient gradientTransform="matrix(1 0 0 -1 -191.2 -3.189)" y2="-342.415" x2="484.425" y1="-59.077" x1="484.425" gradientUnits="userSpaceOnUse" id="p"><stop offset="0" stop-color="#bed5e1"/><stop offset="1" stop-color="#567b8f"/></linearGradient><linearGradient gradientTransform="matrix(1 0 0 -1 -191.2 -3.189)" y2="-342.41" x2="566.533" y1="-59.078" x1="566.533" gradientUnits="userSpaceOnUse" id="q"><stop offset="0" stop-color="#bed5e1"/><stop offset="1" stop-color="#567b8f"/></linearGradient><linearGradient gradientTransform="matrix(1 0 0 -1 -191.2 -3.189)" y2="-342.409" x2="525.692" y1="-59.078" x1="525.692" gradientUnits="userSpaceOnUse" id="r"><stop offset="0" stop-color="#bed5e1"/><stop offset="1" stop-color="#567b8f"/></linearGradient><linearGradient gradientTransform="matrix(1 0 0 -1 -191.2 -3.189)" y2="-342.415" x2="649.626" y1="-59.075" x1="649.626" gradientUnits="userSpaceOnUse" id="s"><stop offset="0" stop-color="#bed5e1"/><stop offset="1" stop-color="#567b8f"/></linearGradient><linearGradient gradientTransform="matrix(1 0 0 -1 -191.2 -3.189)" y2="-342.412" x2="604.362" y1="-59.077" x1="604.362" gradientUnits="userSpaceOnUse" id="t"><stop offset="0" stop-color="#bed5e1"/><stop offset="1" stop-color="#567b8f"/></linearGradient><linearGradient gradientTransform="matrix(1 0 0 -1 -191.2 -3.189)" y2="-342.417" x2="481.962" y1="-59.074" x1="481.962" gradientUnits="userSpaceOnUse" id="j"><stop offset="0" stop-color="#bed5e1"/><stop offset="1" stop-color="#567b8f"/></linearGradient><linearGradient gradientTransform="matrix(1 0 0 -1 -191.2 -3.189)" y2="-342.413" x2="537.974" y1="-59.077" x1="537.974" gradientUnits="userSpaceOnUse" id="k"><stop offset="0" stop-color="#bed5e1"/><stop offset="1" stop-color="#567b8f"/></linearGradient><linearGradient y2="-342.417" x2="481.962" y1="-59.074" x1="481.962" gradientTransform="matrix(1 0 0 -1 -191.2 -3.189)" gradientUnits="userSpaceOnUse" id="u" xlink:href="#j"/><linearGradient y2="-342.413" x2="537.974" y1="-59.077" x1="537.974" gradientTransform="matrix(1 0 0 -1 -191.2 -3.189)" gradientUnits="userSpaceOnUse" id="v" xlink:href="#k"/></defs><g font-weight="400" font-size="9.69" font-family="DejaVu Sans" letter-spacing="0" word-spacing="0"><ellipse ry=".853" rx=".853" cy="457.252" cx="125.375" fill="#fff" fill-rule="evenodd" stroke="#000" stroke-width=".102" stroke-linecap="round" stroke-linejoin="round" style="line-height:125%;-inkscape-font-specification:'DejaVu Sans, Normal';text-align:start" transform="translate(-2193.864 -8048.837) scale(17.642)" filter="url(#l)"/><ellipse ry=".853" rx=".853" cy="457.252" cx="125.375" fill-rule="evenodd" stroke-width=".102" stroke-linecap="round" stroke-linejoin="round" style="line-height:125%;-inkscape-font-specification:'DejaVu Sans, Normal';text-align:start" transform="translate(-2194.156 -8049.13) scale(17.642)" fill="#fff" stroke="#fff"/></g><g font-weight="400" font-size="9.69" font-family="DejaVu Sans" letter-spacing="0" word-spacing="0"><ellipse ry=".853" rx=".853" cy="457.252" cx="125.375" fill="#fff" fill-rule="evenodd" stroke="#000" stroke-width=".102" stroke-linecap="round" stroke-linejoin="round" style="line-height:125%;-inkscape-font-specification:'DejaVu Sans, Normal';text-align:start" transform="translate(-2276.962 -8049.716) scale(17.642)" filter="url(#m)"/><ellipse ry=".853" rx=".853" cy="457.252" cx="125.375" fill-rule="evenodd" stroke-width=".102" stroke-linecap="round" stroke-linejoin="round" style="line-height:125%;-inkscape-font-specification:'DejaVu Sans, Normal';text-align:start" transform="translate(-2277.254 -8050.008) scale(17.642)" fill="#fff" stroke="#fff"/></g><g fill="#e76e34"><path d="M6.362 22.838a1.464 1.464 0 0 1-1.463-1.462c0-.806.656-1.462 1.463-1.462.806 0 1.462.656 1.462 1.462 0 .806-.656 1.462-1.462 1.462zm0-2.613a1.152 1.152 0 0 0 0 2.301c.634 0 1.15-.516 1.15-1.15 0-.634-.516-1.15-1.15-1.15z"/><path d="M6.362 19.95c.786 0 1.425.64 1.425 1.426 0 .786-.64 1.425-1.425 1.425-.786 0-1.425-.64-1.425-1.425 0-.786.639-1.425 1.425-1.425m0 2.613a1.19 1.19 0 0 0 1.188-1.188 1.19 1.19 0 0 0-1.188-1.188 1.19 1.19 0 0 0-1.188 1.188 1.19 1.19 0 0 0 1.188 1.188m0-2.688c-.827 0-1.5.673-1.5 1.5s.673 1.5 1.5 1.5 1.5-.673 1.5-1.5-.673-1.5-1.5-1.5zm0 2.613c-.614 0-1.114-.499-1.114-1.113s.5-1.113 1.114-1.113c.614 0 1.113.499 1.113 1.113s-.5 1.113-1.113 1.113z"/></g><g fill="#567b8f"><path d="M22.25 22.839a1.464 1.464 0 0 1-1.463-1.463c0-.806.656-1.463 1.462-1.463.807 0 1.463.657 1.463 1.463s-.656 1.463-1.463 1.463zm0-2.614a1.152 1.152 0 0 0 0 2.301c.634 0 1.15-.515 1.15-1.15 0-.635-.516-1.15-1.15-1.15z"/><path d="M22.25 19.95c.785 0 1.425.64 1.425 1.426 0 .786-.64 1.425-1.426 1.425-.786 0-1.425-.639-1.425-1.425s.64-1.425 1.425-1.425m0 2.613a1.19 1.19 0 0 0 1.188-1.188 1.19 1.19 0 0 0-1.188-1.188 1.19 1.19 0 0 0-1.188 1.188 1.19 1.19 0 0 0 1.188 1.188m0-2.688c-.827 0-1.5.673-1.5 1.5s.673 1.5 1.5 1.5 1.5-.673 1.5-1.5-.673-1.5-1.5-1.5zm0 2.614a1.115 1.115 0 0 1 0-2.227c.614 0 1.114.499 1.114 1.113s-.5 1.114-1.114 1.114z"/></g><g fill="#e76e34"><path d="M9.457 22.838a.996.996 0 0 1-.994-.995V20.02h.312v1.823a.684.684 0 0 0 1.365 0V20.02h.312v1.823a.996.996 0 0 1-.995.995z"/><path d="M10.415 20.057v1.786a.959.959 0 0 1-1.915 0v-1.786h.237v1.786a.72.72 0 0 0 1.44 0v-1.786h.238m.074-.074h-.386v1.86a.647.647 0 0 1-1.291 0v-1.86h-.386v1.86a1.033 1.033 0 0 0 2.063 0v-1.86z"/></g><g fill="#e76e34"><path d="M11.135 22.838a.996.996 0 0 1-.995-.995V20.02h.312v1.823a.684.684 0 0 0 1.366 0V20.02h.312v1.823a.996.996 0 0 1-.995.995z"/><path d="M12.093 20.057v1.786a.959.959 0 0 1-1.915 0v-1.786h.237v1.786a.72.72 0 0 0 1.44 0v-1.786h.238m.074-.074h-.386v1.86a.647.647 0 0 1-1.292 0v-1.86h-.386v1.86a1.033 1.033 0 0 0 2.064 0v-1.86z"/></g><g fill="#567b8f"><path d="M20.4 22.838a.996.996 0 0 1-.994-.995v-4.199h.312v4.2c0 .376.306.682.683.682h.037v.312h-.037z"/><path d="M19.68 17.681v4.162c0 .397.324.72.72.72v.238a.959.959 0 0 1-.957-.958v-4.162h.238m.074-.074h-.386v4.236c0 .57.463 1.032 1.032 1.032h.074v-.386h-.074a.647.647 0 0 1-.646-.646v-4.236z"/></g><g fill="#e76e34"><path d="M15.412 22.72v-1.356a1.152 1.152 0 0 0-2.301 0v1.356h-.313v-1.356c0-.806.657-1.463 1.463-1.463s1.463.657 1.463 1.463v1.356h-.312z"/><path d="M14.26 19.939c.787 0 1.426.64 1.426 1.425v1.318h-.237v-1.318a1.19 1.19 0 0 0-1.188-1.188 1.19 1.19 0 0 0-1.188 1.188v1.318h-.237v-1.318c0-.786.639-1.425 1.425-1.425m0-.075c-.827 0-1.5.673-1.5 1.5v1.393h.386v-1.393a1.115 1.115 0 0 1 2.228 0v1.393h.386v-1.393c0-.827-.673-1.5-1.5-1.5z"/></g><g fill="#567b8f"><path d="M25.723 22.838a1.464 1.464 0 0 1-1.462-1.462V20.02h.312v1.356a1.152 1.152 0 0 0 2.301 0V20.02h.312v1.356c0 .806-.656 1.462-1.463 1.462z"/><path d="M27.149 20.057v1.319c0 .786-.64 1.425-1.426 1.425-.786 0-1.425-.64-1.425-1.425v-1.319h.238v1.319a1.19 1.19 0 0 0 2.375 0v-1.319h.238m.074-.074h-.386v1.393a1.115 1.115 0 0 1-2.227 0v-1.393h-.386v1.393c0 .827.673 1.5 1.5 1.5.826 0 1.5-.673 1.5-1.5v-1.393z"/></g><g fill="#567b8f"><path d="M18.586 22.838a2.247 2.247 0 0 1-2.244-2.244 2.247 2.247 0 0 1 2.244-2.244h.037v.311h-.037a1.935 1.935 0 0 0-1.932 1.933c0 1.066.867 1.933 1.932 1.933h.037v.311h-.037z"/><path d="M18.586 18.387v.237c-1.086 0-1.97.884-1.97 1.97 0 1.086.884 1.97 1.97 1.97v.237a2.21 2.21 0 0 1-2.207-2.207 2.21 2.21 0 0 1 2.207-2.207m.074-.074h-.074a2.284 2.284 0 0 0-2.281 2.281 2.284 2.284 0 0 0 2.281 2.281h.074v-.386h-.074a1.898 1.898 0 0 1-1.895-1.895c0-1.045.85-1.895 1.895-1.895h.074v-.386z"/></g><g fill="#567b8f"><path d="M30.394 17.644h.312v2.46h-.312z"/><path d="M30.669 17.681v2.386h-.238v-2.386h.238m.074-.074h-.386v2.534h.386v-2.534z"/></g><g fill="#567b8f"><path d="M29.231 22.838a1.464 1.464 0 0 1-1.462-1.463c0-.806.656-1.462 1.462-1.462l1.474-.002.001.163c.001.224.007 1.365 0 1.772-.01.55-.56.992-1.009.992h-.466zm0-2.613c-.634 0-1.15.516-1.15 1.15 0 .635.516 1.15 1.15 1.15h.466c.302 0 .69-.322.697-.685.007-.358.003-1.285.001-1.617l-1.164.002z"/><path d="M30.668 19.948v.118c.001.014.009 1.334 0 1.779-.009.53-.538.956-.97.956h-.467c-.786 0-1.425-.64-1.425-1.426 0-.786.64-1.425 1.425-1.425l1.437-.002m-1.437 2.615h.466c.318 0 .727-.34.734-.722.007-.364.003-1.32.001-1.655l-1.2.002a1.19 1.19 0 0 0-1.189 1.187c0 .655.533 1.188 1.188 1.188m1.51-2.689h-.073l-1.437.002c-.827 0-1.5.672-1.5 1.5 0 .826.673 1.499 1.5 1.499h.466c.466 0 1.036-.46 1.046-1.029.008-.407.001-1.548 0-1.772v-.126l-.001-.074zm-1.51 2.615a1.115 1.115 0 0 1 0-2.227l1.127-.002c.002.36.005 1.235 0 1.58-.007.334-.378.649-.66.649h-.467z"/></g><g transform="matrix(.05939 0 0 .05939 .583 8.003)"><circle r="20.332" cy="78.911" cx="288.494" fill="url(#n)"/><path d="M288.494 101.243c-12.314 0-22.332-10.018-22.332-22.332s10.018-22.332 22.332-22.332c12.313 0 22.332 10.018 22.332 22.332s-10.018 22.332-22.332 22.332zm0-40.664c-10.108 0-18.332 8.224-18.332 18.332s8.224 18.332 18.332 18.332 18.332-8.224 18.332-18.332-8.223-18.332-18.332-18.332z" fill="#fff"/></g><g transform="matrix(.05939 0 0 .05939 .583 8.003)"><circle r="37.242" cy="149.577" cx="251.211" fill="url(#o)"/><path d="M251.211 188.819c-21.638 0-39.242-17.604-39.242-39.242 0-21.638 17.604-39.242 39.242-39.242 21.638 0 39.242 17.604 39.242 39.242 0 21.639-17.604 39.242-39.242 39.242zm0-74.484c-19.433 0-35.242 15.81-35.242 35.242 0 19.432 15.81 35.242 35.242 35.242 19.432 0 35.242-15.81 35.242-35.242 0-19.432-15.809-35.242-35.242-35.242z" fill="#fff"/></g><g transform="matrix(.05939 0 0 .05939 .583 8.003)"><circle r="40.261" cy="124.796" cx="293.225" fill="url(#p)"/><path d="M293.225 167.057c-23.303 0-42.261-18.958-42.261-42.262 0-23.303 18.958-42.261 42.261-42.261 23.303 0 42.261 18.958 42.261 42.261 0 23.304-18.958 42.262-42.261 42.262zm0-80.522c-21.097 0-38.261 17.164-38.261 38.261 0 21.098 17.164 38.262 38.261 38.262s38.261-17.164 38.261-38.262-17.164-38.261-38.261-38.261z" fill="#fff"/></g><g transform="matrix(.05939 0 0 .05939 .583 8.003)"><circle r="37.242" cy="108.472" cx="375.334" fill="url(#q)"/><path d="M375.334 147.714c-21.639 0-39.242-17.604-39.242-39.241 0-21.638 17.604-39.242 39.242-39.242 21.638 0 39.242 17.604 39.242 39.242 0 21.637-17.603 39.241-39.242 39.241zm0-74.484c-19.433 0-35.242 15.81-35.242 35.242 0 19.432 15.81 35.241 35.242 35.241 19.432 0 35.242-15.809 35.242-35.241 0-19.432-15.809-35.242-35.242-35.242z" fill="#fff"/></g><g transform="matrix(.05939 0 0 .05939 .583 8.003)"><circle r="37.241" cy="79.504" cx="334.493" fill="url(#r)"/><path d="M334.493 118.745c-21.638 0-39.241-17.604-39.241-39.241s17.604-39.24 39.241-39.24 39.241 17.603 39.241 39.24-17.603 39.241-39.241 39.241zm0-74.482c-19.432 0-35.241 15.809-35.241 35.24 0 19.432 15.81 35.241 35.241 35.241 19.431 0 35.241-15.809 35.241-35.241 0-19.431-15.809-35.24-35.241-35.24z" fill="#fff"/></g><g transform="matrix(.05939 0 0 .05939 .583 8.003)"><circle r="21.3" cy="163.958" cx="458.427" fill="url(#s)"/><path d="M458.427 187.258c-12.848 0-23.3-10.452-23.3-23.3s10.452-23.3 23.3-23.3 23.3 10.452 23.3 23.3-10.453 23.3-23.3 23.3zm0-42.6c-10.642 0-19.3 8.658-19.3 19.3 0 10.642 8.658 19.3 19.3 19.3 10.642 0 19.3-8.658 19.3-19.3 0-10.642-8.659-19.3-19.3-19.3z" fill="#fff"/></g><g transform="matrix(.05939 0 0 .05939 .583 8.003)"><circle r="40.261" cy="147.563" cx="413.163" fill="url(#t)"/><path d="M413.163 189.824c-23.303 0-42.261-18.958-42.261-42.261 0-23.303 18.958-42.262 42.261-42.262 23.303 0 42.261 18.958 42.261 42.262 0 23.303-18.958 42.261-42.261 42.261zm0-80.522c-21.097 0-38.261 17.164-38.261 38.262 0 21.097 17.164 38.261 38.261 38.261s38.261-17.164 38.261-38.261c0-21.098-17.164-38.262-38.261-38.262z" fill="#fff"/></g><g transform="matrix(.05939 0 0 .05939 .583 8.003)"><circle r="21.299" cy="166.011" cx="290.762" fill="url(#u)"/><path d="M290.762 189.31c-12.847 0-23.299-10.452-23.299-23.3 0-12.847 10.452-23.299 23.299-23.299s23.298 10.452 23.298 23.299c.001 12.848-10.451 23.3-23.298 23.3zm0-42.598c-10.642 0-19.299 8.657-19.299 19.299s8.658 19.3 19.299 19.3 19.298-8.658 19.298-19.3c0-10.642-8.657-19.299-19.298-19.299z" fill="#fff"/></g><path d="M398.107 135.669c0 28.349-22.984 51.328-51.334 51.328-28.351 0-51.333-22.979-51.333-51.328 0-28.351 22.984-51.333 51.333-51.333 28.349 0 51.334 22.982 51.334 51.333z" fill="url(#v)" transform="matrix(.05939 0 0 .05939 .583 8.003)"/><path d="M21.177 19.228a3.17 3.17 0 0 1-3.167-3.167 3.171 3.171 0 0 1 3.167-3.168 3.171 3.171 0 0 1 3.168 3.168 3.17 3.17 0 0 1-3.168 3.167zm0-6.097a2.933 2.933 0 0 0-2.93 2.93 2.933 2.933 0 0 0 2.93 2.93 2.933 2.933 0 0 0 2.93-2.93 2.933 2.933 0 0 0-2.93-2.93z" fill="#fff"/></svg>