<svg xmlns="http://www.w3.org/2000/svg" width="10mm" height="10mm" viewBox="0 0 35.433071 35.43307"><defs><filter id="a" x="-.079" width="1.158" y="-.079" height="1.158" color-interpolation-filters="sRGB"><feGaussianBlur stdDeviation=".056"/></filter></defs><g font-weight="400" font-size="9.69" font-family="DejaVu Sans" letter-spacing="0" word-spacing="0" fill="#fff"><ellipse ry=".853" rx=".853" cy="457.252" cx="125.375" fill-rule="evenodd" stroke="#000" stroke-width=".102" stroke-linecap="round" stroke-linejoin="round" style="line-height:125%;-inkscape-font-specification:'DejaVu Sans, Normal';text-align:start" transform="translate(-2193.864 -8048.837) scale(17.642)" filter="url(#a)"/><g style="line-height:125%;-inkscape-font-specification:'DejaVu Sans, Normal';text-align:start" transform="translate(-2194.156 -8049.13) scale(17.642)" stroke="#fff"><ellipse ry=".853" rx=".853" cy="457.252" cx="125.375" fill="#2a7fff" fill-rule="evenodd" stroke-width=".102" stroke-linecap="round" stroke-linejoin="round"/><path style="line-height:125%;-inkscape-font-specification:FontAwesome;text-align:start" d="M125.168 457.252a.254.254 0 0 1-.046-.144c0-.012.001-.024.004-.037a.212.212 0 0 1-.074.013c-.076 0-.135-.048-.147-.048-.07 0-.07.153-.07.199 0 .062.053.09.11.09h.075a.2.2 0 0 1 .15-.073zm.602.358c0-.127-.03-.322-.195-.322-.019 0-.088.078-.2.078-.113 0-.183-.078-.202-.078-.165 0-.195.195-.195.322 0 .091.06.146.15.146h.492c.09 0 .15-.054.15-.146zm-.576-.717a.144.144 0 0 0-.288 0 .144.144 0 0 0 .288 0zm.396.215a.216.216 0 1 0-.432 0 .216.216 0 0 0 .432 0zm.324.127c0-.046.002-.198-.07-.198-.01 0-.07.047-.146.047a.216.216 0 0 1-.075-.013c.002.013.004.025.004.037a.256.256 0 0 1-.045.144.2.2 0 0 1 .149.072h.075c.056 0 .109-.027.109-.089zm-.072-.342a.144.144 0 0 0-.288 0 .144.144 0 0 0 .288 0z" font-size="medium" font-family="FontAwesome" stroke="none"/></g></g></svg>