<svg xmlns="http://www.w3.org/2000/svg" width="10mm" height="10mm" viewBox="0 0 35.433071 35.43307"><defs><filter id="a" x="-.079" width="1.158" y="-.079" height="1.158" color-interpolation-filters="sRGB"><feGaussianBlur stdDeviation=".056"/></filter></defs><g font-weight="400" font-size="9.69" font-family="DejaVu Sans" letter-spacing="0" word-spacing="0" fill="#fff"><ellipse ry=".853" rx=".853" cy="457.252" cx="125.375" fill-rule="evenodd" stroke="#000" stroke-width=".102" stroke-linecap="round" stroke-linejoin="round" style="line-height:125%;-inkscape-font-specification:'DejaVu Sans, Normal';text-align:start" transform="translate(-2193.864 -8048.837) scale(17.642)" filter="url(#a)"/><g style="line-height:125%;-inkscape-font-specification:'DejaVu Sans, Normal';text-align:start" transform="translate(-2194.156 -8049.13) scale(17.642)" stroke="#fff"><ellipse ry=".853" rx=".853" cy="457.252" cx="125.375" fill="#f60" fill-rule="evenodd" stroke-width=".102" stroke-linecap="round" stroke-linejoin="round"/><path style="line-height:125%;-inkscape-font-specification:FontAwesome;text-align:start" d="M125.455 457.702a.073.073 0 0 1-.145 0 .073.073 0 0 1 .145 0zm.19-.146c0 .015-.015.03-.03.03h-.466a.032.032 0 0 1-.03-.03v-.641c0-.015.015-.03.03-.03h.466c.015 0 .03.015.03.03v.64zm-.175-.772c0 .009-.006.015-.014.015h-.146c-.009 0-.015-.006-.015-.015 0-.01.006-.015.015-.015h.146c.009 0 .014.006.014.015zm.263-.015a.117.117 0 0 0-.117-.116h-.466a.117.117 0 0 0-.116.116v.932c0 .064.052.117.116.117h.466a.117.117 0 0 0 .117-.117v-.932z" font-size="medium" font-family="FontAwesome" stroke="none"/></g></g></svg>