<svg xmlns="http://www.w3.org/2000/svg" width="10mm" height="10mm" viewBox="0 0 35.433 35.433"><defs><filter id="a" width="1.158" height="1.158" x="-.079" y="-.079" color-interpolation-filters="sRGB"><feGaussianBlur stdDeviation=".056"/></filter></defs><g fill="#fff" font-family="DejaVu Sans" font-size="9.69" font-weight="400" letter-spacing="0" word-spacing="0"><ellipse cx="125.375" cy="457.252" fill-rule="evenodd" stroke="#000" stroke-linecap="round" stroke-linejoin="round" stroke-width=".102" style="line-height:125%;-inkscape-font-specification:'DejaVu Sans, Normal';text-align:start" filter="url(#a)" rx=".853" ry=".853" transform="translate(-2193.864 -8048.837) scale(17.642)"/><g style="line-height:125%;-inkscape-font-specification:'DejaVu Sans, Normal';text-align:start" stroke="#fff" transform="translate(-2194.156 -8049.13) scale(17.642)"><ellipse cx="125.375" cy="457.252" fill="#00d400" fill-rule="evenodd" stroke-linecap="round" stroke-linejoin="round" stroke-width=".102" rx=".853" ry=".853"/><path style="line-height:125%;-inkscape-font-specification:FontAwesome;text-align:start" stroke="none" d="M125.647 457.42c0-.14-.12-.187-.228-.228-.082-.033-.153-.06-.153-.122 0-.053.051-.09.125-.09a.26.26 0 0 1 .158.064c.004.004.01.006.015.004.006-.001.012-.004.014-.01l.047-.084c.004-.008.004-.016-.004-.022-.002-.002-.065-.067-.183-.08v-.103a.018.018 0 0 0-.02-.019h-.078a.019.019 0 0 0-.019.02v.104c-.122.024-.205.112-.205.219 0 .146.13.198.235.24.078.031.147.058.147.114 0 .066-.062.096-.119.096-.103 0-.184-.078-.185-.078a.02.02 0 0 0-.014-.006.015.015 0 0 0-.013.008l-.06.078c-.006.008-.004.017.001.024.004.004.078.085.214.104v.102c0 .012.009.02.019.02h.078a.018.018 0 0 0 .02-.02v-.102c.123-.02.207-.114.207-.232z" font-family="FontAwesome" font-size="medium"/></g></g></svg>