<?xml version="1.0" encoding="UTF-8" standalone="no"?>
<!-- Created with Inkscape (http://www.inkscape.org/) -->

<svg
   xmlns:dc="http://purl.org/dc/elements/1.1/"
   xmlns:cc="http://creativecommons.org/ns#"
   xmlns:rdf="http://www.w3.org/1999/02/22-rdf-syntax-ns#"
   xmlns:svg="http://www.w3.org/2000/svg"
   xmlns="http://www.w3.org/2000/svg"
   xmlns:xlink="http://www.w3.org/1999/xlink"
   xmlns:sodipodi="http://sodipodi.sourceforge.net/DTD/sodipodi-0.dtd"
   xmlns:inkscape="http://www.inkscape.org/namespaces/inkscape"
   width="10mm"
   height="10mm"
   viewBox="0 0 35.433071 35.43307"
   id="svg2"
   version="1.1"
   inkscape:version="0.91 r13725"
   sodipodi:docname="neutral.svg"
   inkscape:export-filename="/home/jospoortvliet/source code/www/assets/img/history/inc.png"
   inkscape:export-xdpi="91.440002"
   inkscape:export-ydpi="91.440002">
  <defs
     id="defs4">
    <filter
       inkscape:collect="always"
       style="color-interpolation-filters:sRGB"
       id="filter4250"
       x="-0.079199715"
       width="1.1583994"
       y="-0.079200285"
       height="1.1584006">
      <feGaussianBlur
         inkscape:collect="always"
         stdDeviation="0.056273076"
         id="feGaussianBlur4252" />
    </filter>
    <filter
       inkscape:collect="always"
       style="color-interpolation-filters:sRGB"
       id="filter4250-6"
       x="-0.079199716"
       width="1.1583993"
       y="-0.079200283"
       height="1.1584007">
      <feGaussianBlur
         inkscape:collect="always"
         stdDeviation="0.056273076"
         id="feGaussianBlur4252-6" />
    </filter>
    <linearGradient
       y2="339.22189"
       x2="288.49411"
       y1="55.888199"
       x1="288.49411"
       gradientUnits="userSpaceOnUse"
       id="linearGradient3353"
       xlink:href="#SVGID_1_"
       inkscape:collect="always" />
    <linearGradient
       y2="339.22159"
       x2="251.2114"
       y1="55.888199"
       x1="251.2114"
       gradientUnits="userSpaceOnUse"
       id="linearGradient3355"
       xlink:href="#SVGID_2_"
       inkscape:collect="always" />
    <linearGradient
       y2="339.22171"
       x2="293.22461"
       y1="55.888199"
       x1="293.22461"
       gradientUnits="userSpaceOnUse"
       id="linearGradient3357"
       xlink:href="#SVGID_3_"
       inkscape:collect="always" />
    <linearGradient
       y2="339.22159"
       x2="375.33401"
       y1="55.888199"
       x1="375.33401"
       gradientUnits="userSpaceOnUse"
       id="linearGradient3359"
       xlink:href="#SVGID_4_"
       inkscape:collect="always" />
    <linearGradient
       y2="339.22159"
       x2="334.49411"
       y1="55.888199"
       x1="334.49411"
       gradientUnits="userSpaceOnUse"
       id="linearGradient3361"
       xlink:href="#SVGID_5_"
       inkscape:collect="always" />
    <linearGradient
       y2="339.2236"
       x2="458.42679"
       y1="55.8867"
       x1="458.42679"
       gradientUnits="userSpaceOnUse"
       id="linearGradient3363"
       xlink:href="#SVGID_6_"
       inkscape:collect="always" />
    <linearGradient
       y2="339.22131"
       x2="413.16309"
       y1="55.888199"
       x1="413.16309"
       gradientUnits="userSpaceOnUse"
       id="linearGradient3365"
       xlink:href="#SVGID_7_"
       inkscape:collect="always" />
    <linearGradient
       y2="339.2236"
       x2="290.76169"
       y1="55.8867"
       x1="290.76169"
       gradientUnits="userSpaceOnUse"
       id="linearGradient3367"
       xlink:href="#SVGID_8_"
       inkscape:collect="always" />
    <linearGradient
       y2="339.22119"
       x2="346.77341"
       y1="55.888199"
       x1="346.77341"
       gradientUnits="userSpaceOnUse"
       id="linearGradient3369"
       xlink:href="#SVGID_9_"
       inkscape:collect="always" />
    <linearGradient
       id="SVGID_1_"
       gradientUnits="userSpaceOnUse"
       x1="288.49411"
       y1="55.888199"
       x2="288.49411"
       y2="339.22189">
      <stop
         offset="0"
         style="stop-color:#BED5E1"
         id="stop261" />
      <stop
         offset="1"
         style="stop-color:#567B8F"
         id="stop263" />
    </linearGradient>
    <linearGradient
       id="SVGID_2_"
       gradientUnits="userSpaceOnUse"
       x1="251.2114"
       y1="55.888199"
       x2="251.2114"
       y2="339.22159">
      <stop
         offset="0"
         style="stop-color:#BED5E1"
         id="stop268" />
      <stop
         offset="1"
         style="stop-color:#567B8F"
         id="stop270" />
    </linearGradient>
    <linearGradient
       id="SVGID_3_"
       gradientUnits="userSpaceOnUse"
       x1="293.22461"
       y1="55.888199"
       x2="293.22461"
       y2="339.22171">
      <stop
         offset="0"
         style="stop-color:#BED5E1"
         id="stop275" />
      <stop
         offset="1"
         style="stop-color:#567B8F"
         id="stop277" />
    </linearGradient>
    <linearGradient
       id="SVGID_4_"
       gradientUnits="userSpaceOnUse"
       x1="375.33401"
       y1="55.888199"
       x2="375.33401"
       y2="339.22159">
      <stop
         offset="0"
         style="stop-color:#BED5E1"
         id="stop282" />
      <stop
         offset="1"
         style="stop-color:#567B8F"
         id="stop284" />
    </linearGradient>
    <linearGradient
       id="SVGID_5_"
       gradientUnits="userSpaceOnUse"
       x1="334.49411"
       y1="55.888199"
       x2="334.49411"
       y2="339.22159">
      <stop
         offset="0"
         style="stop-color:#BED5E1"
         id="stop289" />
      <stop
         offset="1"
         style="stop-color:#567B8F"
         id="stop291" />
    </linearGradient>
    <linearGradient
       id="SVGID_6_"
       gradientUnits="userSpaceOnUse"
       x1="458.42679"
       y1="55.8867"
       x2="458.42679"
       y2="339.2236">
      <stop
         offset="0"
         style="stop-color:#BED5E1"
         id="stop296" />
      <stop
         offset="1"
         style="stop-color:#567B8F"
         id="stop298" />
    </linearGradient>
    <linearGradient
       id="SVGID_7_"
       gradientUnits="userSpaceOnUse"
       x1="413.16309"
       y1="55.888199"
       x2="413.16309"
       y2="339.22131">
      <stop
         offset="0"
         style="stop-color:#BED5E1"
         id="stop303" />
      <stop
         offset="1"
         style="stop-color:#567B8F"
         id="stop305" />
    </linearGradient>
    <linearGradient
       id="SVGID_8_"
       gradientUnits="userSpaceOnUse"
       x1="290.76169"
       y1="55.8867"
       x2="290.76169"
       y2="339.2236">
      <stop
         offset="0"
         style="stop-color:#BED5E1"
         id="stop310" />
      <stop
         offset="1"
         style="stop-color:#567B8F"
         id="stop312" />
    </linearGradient>
    <linearGradient
       id="SVGID_9_"
       gradientUnits="userSpaceOnUse"
       x1="346.77341"
       y1="55.888199"
       x2="346.77341"
       y2="339.22119">
      <stop
         offset="0"
         style="stop-color:#BED5E1"
         id="stop317" />
      <stop
         offset="1"
         style="stop-color:#567B8F"
         id="stop319" />
    </linearGradient>
    <linearGradient
       gradientTransform="matrix(1,0,0,-1,-191.2002,-3.189)"
       y2="-342.41211"
       x2="479.69431"
       y1="-59.0784"
       x1="479.69431"
       gradientUnits="userSpaceOnUse"
       id="SVGID_1_-4">
      <stop
         id="stop68"
         style="stop-color:#BED5E1"
         offset="0" />
      <stop
         id="stop70"
         style="stop-color:#567B8F"
         offset="1" />
    </linearGradient>
    <linearGradient
       gradientTransform="matrix(1,0,0,-1,-191.2002,-3.189)"
       y2="-342.41431"
       x2="442.4111"
       y1="-59.0769"
       x1="442.4111"
       gradientUnits="userSpaceOnUse"
       id="SVGID_2_-2">
      <stop
         id="stop79"
         style="stop-color:#BED5E1"
         offset="0" />
      <stop
         id="stop81"
         style="stop-color:#567B8F"
         offset="1" />
    </linearGradient>
    <linearGradient
       gradientTransform="matrix(1,0,0,-1,-191.2002,-3.189)"
       y2="-342.41541"
       x2="484.4248"
       y1="-59.0769"
       x1="484.4248"
       gradientUnits="userSpaceOnUse"
       id="SVGID_3_-6">
      <stop
         id="stop90"
         style="stop-color:#BED5E1"
         offset="0" />
      <stop
         id="stop92"
         style="stop-color:#567B8F"
         offset="1" />
    </linearGradient>
    <linearGradient
       gradientTransform="matrix(1,0,0,-1,-191.2002,-3.189)"
       y2="-342.41019"
       x2="566.5332"
       y1="-59.0784"
       x1="566.5332"
       gradientUnits="userSpaceOnUse"
       id="SVGID_4_-9">
      <stop
         id="stop101"
         style="stop-color:#BED5E1"
         offset="0" />
      <stop
         id="stop103"
         style="stop-color:#567B8F"
         offset="1" />
    </linearGradient>
    <linearGradient
       gradientTransform="matrix(1,0,0,-1,-191.2002,-3.189)"
       y2="-342.40948"
       x2="525.69238"
       y1="-59.0784"
       x1="525.69238"
       gradientUnits="userSpaceOnUse"
       id="SVGID_5_-1">
      <stop
         id="stop112"
         style="stop-color:#BED5E1"
         offset="0" />
      <stop
         id="stop114"
         style="stop-color:#567B8F"
         offset="1" />
    </linearGradient>
    <linearGradient
       gradientTransform="matrix(1,0,0,-1,-191.2002,-3.189)"
       y2="-342.41501"
       x2="649.62598"
       y1="-59.075001"
       x1="649.62598"
       gradientUnits="userSpaceOnUse"
       id="SVGID_6_-8">
      <stop
         id="stop123"
         style="stop-color:#BED5E1"
         offset="0" />
      <stop
         id="stop125"
         style="stop-color:#567B8F"
         offset="1" />
    </linearGradient>
    <linearGradient
       gradientTransform="matrix(1,0,0,-1,-191.2002,-3.189)"
       y2="-342.4119"
       x2="604.3623"
       y1="-59.0774"
       x1="604.3623"
       gradientUnits="userSpaceOnUse"
       id="SVGID_7_-8">
      <stop
         id="stop134"
         style="stop-color:#BED5E1"
         offset="0" />
      <stop
         id="stop136"
         style="stop-color:#567B8F"
         offset="1" />
    </linearGradient>
    <linearGradient
       gradientTransform="matrix(1,0,0,-1,-191.2002,-3.189)"
       y2="-342.4173"
       x2="481.96191"
       y1="-59.074001"
       x1="481.96191"
       gradientUnits="userSpaceOnUse"
       id="SVGID_8_-5">
      <stop
         id="stop145"
         style="stop-color:#BED5E1"
         offset="0" />
      <stop
         id="stop147"
         style="stop-color:#567B8F"
         offset="1" />
    </linearGradient>
    <linearGradient
       gradientTransform="matrix(1,0,0,-1,-191.2002,-3.189)"
       y2="-342.41269"
       x2="537.97357"
       y1="-59.0769"
       x1="537.97357"
       gradientUnits="userSpaceOnUse"
       id="SVGID_9_-8">
      <stop
         id="stop156"
         style="stop-color:#BED5E1"
         offset="0" />
      <stop
         id="stop158"
         style="stop-color:#567B8F"
         offset="1" />
    </linearGradient>
  </defs>
  <sodipodi:namedview
     id="base"
     pagecolor="#ffffff"
     bordercolor="#666666"
     borderopacity="1.0"
     inkscape:pageopacity="0.0"
     inkscape:pageshadow="2"
     inkscape:zoom="7.919596"
     inkscape:cx="30.683226"
     inkscape:cy="49.10195"
     inkscape:document-units="px"
     inkscape:current-layer="flowRoot4136"
     showgrid="false"
     fit-margin-top="0"
     fit-margin-left="0"
     fit-margin-right="0"
     fit-margin-bottom="0"
     inkscape:window-width="2560"
     inkscape:window-height="1363"
     inkscape:window-x="0"
     inkscape:window-y="240"
     inkscape:window-maximized="1"
     inkscape:snap-bbox="true"
     inkscape:bbox-paths="true"
     inkscape:snap-page="true"
     inkscape:bbox-nodes="true" />
  <metadata
     id="metadata7">
    <rdf:RDF>
      <cc:Work
         rdf:about="">
        <dc:format>image/svg+xml</dc:format>
        <dc:type
           rdf:resource="http://purl.org/dc/dcmitype/StillImage" />
        <dc:title />
      </cc:Work>
    </rdf:RDF>
  </metadata>
  <g
     inkscape:label="Layer 1"
     inkscape:groupmode="layer"
     id="layer1"
     transform="translate(-153.88228,-414.51976)">
    <g
       id="g4290">
      <g
         id="flowRoot4136-0"
         style="font-style:normal;font-variant:normal;font-weight:normal;font-stretch:normal;font-size:9.6902504px;line-height:125%;font-family:'DejaVu Sans';-inkscape-font-specification:'DejaVu Sans, Normal';text-align:start;letter-spacing:0px;word-spacing:0px;writing-mode:lr-tb;text-anchor:start;fill:#000000;fill-opacity:1;stroke:none;stroke-width:1px;stroke-linecap:butt;stroke-linejoin:miter;stroke-opacity:1;filter:url(#filter4250)"
         transform="matrix(17.642001,0,0,17.642001,-2039.9816,-7634.3176)">
        <ellipse
           ry="0.85261929"
           rx="0.85262543"
           cy="457.25232"
           cx="125.37537"
           id="path4154-1"
           style="opacity:1;fill:#ffffff;fill-opacity:1;fill-rule:evenodd;stroke:#000000;stroke-width:0.1023527;stroke-linecap:round;stroke-linejoin:round;stroke-miterlimit:4;stroke-dasharray:none;stroke-dashoffset:0;stroke-opacity:1" />
      </g>
      <g
         id="flowRoot4136"
         style="font-style:normal;font-variant:normal;font-weight:normal;font-stretch:normal;font-size:9.6902504px;line-height:125%;font-family:'DejaVu Sans';-inkscape-font-specification:'DejaVu Sans, Normal';text-align:start;letter-spacing:0px;word-spacing:0px;writing-mode:lr-tb;text-anchor:start;fill:#ffffff;fill-opacity:1;stroke:#ffffff;stroke-width:1px;stroke-linecap:butt;stroke-linejoin:miter;stroke-opacity:1"
         transform="matrix(17.642001,0,0,17.642001,-2040.2735,-7634.6095)">
        <rect
           style="opacity:1;fill:#999999;fill-opacity:1;fill-rule:evenodd;stroke:none;stroke-width:2;stroke-linecap:round;stroke-linejoin:round;stroke-miterlimit:4;stroke-dasharray:none;stroke-dashoffset:0;stroke-opacity:1"
           id="rect4270"
           width="11.873958"
           height="1.8823693"
           x="118.67393"
           y="452.81699"
           ry="0.035586439" />
        <ellipse
           ry="0.85261929"
           rx="0.85262543"
           cy="457.25232"
           cx="125.37537"
           id="path4154"
           style="opacity:1;fill:#b3b3b3;fill-opacity:1;fill-rule:evenodd;stroke:#ffffff;stroke-width:0.1023527;stroke-linecap:round;stroke-linejoin:round;stroke-miterlimit:4;stroke-dasharray:none;stroke-dashoffset:0;stroke-opacity:1" />
        <path
           style="font-style:normal;font-variant:normal;font-weight:normal;font-stretch:normal;font-size:medium;line-height:125%;font-family:FontAwesome;-inkscape-font-specification:FontAwesome;text-align:start;letter-spacing:0px;word-spacing:0px;writing-mode:lr-tb;text-anchor:start;fill:#ffffff;fill-opacity:1;stroke:none;stroke-width:1px;stroke-linecap:butt;stroke-linejoin:miter;stroke-opacity:1"
           inkscape:connector-curvature="0"
           id="path4238"
           d="m 120.99475,453.36709 0,-0.1177 c 0,-0.0215 -0.0178,-0.0392 -0.0392,-0.0392 -0.0589,0.0491 -0.15693,0.11771 -0.27463,0.11771 l -0.14713,0 c -0.027,0 -0.049,0.0221 -0.049,0.049 l 0,0.0589 c 0,0.027 0.0221,0.049 0.049,0.049 l 0.0374,0 c -0.0215,0.069 0.005,0.12353 0.0227,0.17808 0.0282,0.0261 0.10728,0.0254 0.12628,-0.012 -0.0325,-0.0254 -0.0601,-0.0503 -0.0386,-0.0855 -0.0239,-0.0245 -0.0113,-0.0671 0.0251,-0.0794 0.10636,0.009 0.19432,0.0711 0.24888,0.11647 0.0215,0 0.0392,-0.0178 0.0392,-0.0392 l 0,-0.1177 c 0.0218,0 0.0392,-0.0175 0.0392,-0.0392 0,-0.0218 -0.0175,-0.0392 -0.0392,-0.0392 z m -0.0392,0.18513 c -0.08,-0.0613 -0.15754,-0.0959 -0.2354,-0.10452 l 0,-0.0828 c 0.0779,-0.009 0.1554,-0.0438 0.2354,-0.10513 l 0,0.29241 z" />
        <path
           style="font-style:normal;font-variant:normal;font-weight:normal;font-stretch:normal;font-size:medium;line-height:125%;font-family:FontAwesome;-inkscape-font-specification:FontAwesome;text-align:start;letter-spacing:0px;word-spacing:0px;writing-mode:lr-tb;text-anchor:start;fill:#ffffff;fill-opacity:1;stroke:none;stroke-width:1px;stroke-linecap:butt;stroke-linejoin:miter;stroke-opacity:1"
           inkscape:connector-curvature="0"
           id="path4240"
           d="m 121.48517,453.32786 0,0.1177 -0.1177,0 0,-0.1177 0.1177,0 z m 0.0392,0.19616 -0.19617,0 0,0.0392 0.19617,0 0,-0.0392 z m 0,-0.2354 -0.19617,0 0,0.19617 0.19617,0 0,-0.19617 z m 0.19617,0.2354 -0.15693,0 0,0.0392 0.15693,0 0,-0.0392 z m 0,-0.0785 -0.15693,0 0,0.0392 0.15693,0 0,-0.0392 z m 0,-0.0785 -0.15693,0 0,0.0392 0.15693,0 0,-0.0392 z m 0,-0.0785 -0.15693,0 0,0.0392 0.15693,0 0,-0.0392 z m -0.4708,0.29425 c 0,0.0107 -0.009,0.0196 -0.0196,0.0196 -0.0107,0 -0.0196,-0.009 -0.0196,-0.0196 l 0,-0.29425 0.0392,0 0,0.29425 z m 0.51003,0 c 0,0.0107 -0.009,0.0196 -0.0196,0.0196 l -0.45456,0 c 0.002,-0.006 0.003,-0.0129 0.003,-0.0196 l 0,-0.33348 0.4708,0 0,0.33348 z m 0.0392,-0.37272 -0.54927,0 0,0.0392 -0.0785,0 0,0.33348 c 0,0.0325 0.0264,0.0589 0.0588,0.0589 l 0.51004,0 c 0.0325,0 0.0589,-0.0264 0.0589,-0.0589 l 0,-0.37272 z" />
        <path
           style="font-style:normal;font-variant:normal;font-weight:normal;font-stretch:normal;font-size:medium;line-height:125%;font-family:FontAwesome;-inkscape-font-specification:FontAwesome;text-align:start;letter-spacing:0px;word-spacing:0px;writing-mode:lr-tb;text-anchor:start;fill:#ffffff;fill-opacity:1;stroke:none;stroke-width:1px;stroke-linecap:butt;stroke-linejoin:miter;stroke-opacity:1"
           inkscape:connector-curvature="0"
           id="path4242"
           d="m 122.13942,453.2969 c -0.01,-6.2e-4 -0.0104,0.006 -0.007,0.006 0.003,0 0.001,-0.006 0.007,-0.006 z m 0.0267,0.004 c 0.003,-0.001 0,-0.007 -0.009,-0.003 0.006,-0.002 0.006,0.004 0.009,0.003 z m -0.10759,0.13088 c 0.002,9.2e-4 9.2e-4,0.004 -6.1e-4,0.009 -0.002,0.004 -0.006,0.008 -0.008,0.008 -0.004,-6.1e-4 0.001,-0.004 0.003,-0.008 0.003,-0.004 0.002,-0.01 0.005,-0.009 z m 0.26207,0.11004 c -0.0126,-0.0101 -0.0503,-0.012 -0.0512,0.0126 -0.007,0 -0.0116,6.1e-4 -0.0156,0.006 -0.0153,0.0181 -0.001,0.0543 -0.003,0.0739 -0.001,0.0172 -0.006,0.034 -0.009,0.0512 -0.009,-3.1e-4 -0.008,-0.007 -0.006,-0.0162 0.003,-0.008 0.007,-0.0184 0.007,-0.0282 3.1e-4,-0.009 -6.1e-4,-0.0147 -0.003,-0.0159 -0.002,-0.002 -0.006,0.001 -0.0104,0.009 -0.0104,0.0169 -0.0331,0.0242 -0.0543,0.0267 -0.0208,0.003 -0.0405,6.1e-4 -0.0509,-0.011 -0.003,-0.004 -0.01,0.001 -0.0101,0.002 -9.2e-4,0.002 0.003,0.004 0.007,0.0104 0.005,0.009 0.01,0.0221 -0.002,0.0282 3.1e-4,-0.031 -0.01,-0.0328 -0.0196,-0.0518 0.0196,-0.002 0.0224,-0.023 0.0129,-0.0319 -0.007,-0.008 -0.0496,-0.0389 -0.0604,-0.0512 -0.005,-0.006 -0.0123,-0.008 -0.015,-0.0147 -0.007,-0.0147 -0.0113,-0.0359 -0.003,-0.0509 0.002,-0.003 0.003,-0.002 0.002,0.004 -0.007,0.0322 0.0141,0.0585 0.0187,0.0451 0.003,-0.009 3.1e-4,-0.0257 0.002,-0.0392 0.003,-0.0233 0.0242,-0.0684 0.0337,-0.0708 -0.0144,-0.027 0.0169,-0.0478 0.0166,-0.0714 -3.1e-4,-0.0153 0.0135,0.0187 0.0273,0.026 0.0153,0.008 0.0322,-0.0153 0.0561,-0.027 0.007,-0.003 0.0153,-0.007 0.0147,-0.0101 -0.003,-0.0138 -0.0313,0.0172 -0.057,0.0181 -0.0116,3e-4 -0.0159,-0.002 -0.0205,-0.007 -0.0135,-0.0132 0.002,-0.002 0.0218,-0.006 0.009,-0.002 0.0119,-0.003 0.0215,-0.007 0.01,-0.004 0.0205,-0.01 0.0313,-0.0126 0.008,-0.002 0.007,-0.008 0.004,-0.009 -0.002,-9.2e-4 -0.004,-9.2e-4 -0.006,0.002 -0.005,0.008 -0.0264,0.0126 -0.0331,0.0147 -0.009,0.003 -0.0184,0.005 -0.0313,0.005 -0.0196,-6.1e-4 -0.015,-0.01 -0.0291,-0.0178 -0.004,-0.002 -0.003,-0.008 0.002,-0.0138 0.003,-0.003 0.0107,-0.005 0.0147,-0.011 6.1e-4,-9.2e-4 0.006,-0.006 0.01,-0.009 0.001,-9.2e-4 0.001,-0.0248 -0.0107,-0.0251 -0.0104,-3e-4 -0.0135,0.008 -0.0132,0.0156 6.2e-4,0.008 0.005,0.0147 0.008,0.0147 0.006,-3.1e-4 3e-4,0.006 -0.003,0.007 -0.005,0.002 -0.0107,-0.0178 -0.01,-0.027 6.1e-4,-0.01 0.006,-0.027 0.0178,-0.0267 0.011,3.1e-4 0.019,0.0141 0.0187,0.038 0,0.004 0.0178,-0.002 0.0239,0.005 0.004,0.004 -0.0147,-0.0423 0.0276,-0.0457 0.011,0.002 0.0218,0.006 0.0261,0.0316 -0.002,0.002 0.003,0.0202 -0.004,0.0224 -0.008,0.003 -0.0135,-3e-4 -0.009,-0.008 0.003,-0.008 0,-0.0282 -0.0168,-0.027 -0.0172,9.2e-4 -0.0147,0.0313 -0.0101,0.0319 0.005,6.1e-4 0.0162,0.009 0.0245,0.0104 0.0267,0.005 0.007,0.0205 0.0104,0.0392 0.004,0.0208 0.0178,0.0153 0.0303,0.0711 0.002,0.003 0.0129,0.006 0.023,0.0493 0.009,0.0383 -0.004,0.0665 0.0178,0.0641 0.005,-3.1e-4 0.0123,-0.002 0.0153,-0.0129 0.008,-0.0282 -0.004,-0.0622 -0.0166,-0.0852 -0.007,-0.0135 -0.0138,-0.0224 -0.0175,-0.0254 0.0141,0.008 0.0322,0.0349 0.0365,0.0546 0.006,0.026 0.009,0.0371 9.2e-4,0.0647 0.005,0.002 0.0169,0.007 0.0169,0.0129 z m -0.19249,-0.25349 c 0,9.2e-4 -6.1e-4,9.2e-4 -9.2e-4,9.2e-4 -0.003,0 -0.003,-0.002 -0.002,-0.006 6.1e-4,-0.003 -9.2e-4,-0.005 -0.002,-0.005 -0.002,6.2e-4 -0.002,-0.005 0.001,-0.004 0.002,6.1e-4 0.006,0.006 0.004,0.0138 z m 0.12843,0.0604 c 9.2e-4,0.004 -0.002,0.009 -0.006,0.009 -0.006,-0.001 -0.0205,-0.0159 -0.0141,-0.023 0.002,-0.002 0.003,0.004 0.009,0.008 0.005,0.003 0.009,9.2e-4 0.0104,0.007 z m -0.0546,-0.0653 c 0,9.2e-4 -0.003,0.002 -0.003,0.002 -6.1e-4,-0.005 -0.003,-0.009 -0.006,-0.01 -0.002,-6.1e-4 -0.003,-0.002 9.2e-4,-0.003 0.002,-3.1e-4 0.008,0.003 0.008,0.0107 z m 0.0166,-0.0714 c -0.002,0.003 -0.009,0.002 -0.0101,0.003 -0.006,0.002 -0.008,0.008 -0.0104,0.006 -0.003,-0.002 0.002,-0.005 0.003,-0.009 9.2e-4,-0.003 -0.002,-0.01 0.004,-0.0101 0.002,0 0.005,0.002 0.007,0.005 0.003,0.002 0.007,0.004 0.006,0.006 z m 0.17318,0.41103 c -0.009,-0.006 -0.0294,-0.0113 -0.0313,-0.0512 -0.008,0.007 -0.007,0.0441 0.015,0.0515 0.0245,0.008 0.0398,0.0221 -0.006,0.0377 -0.03,0.0104 -0.0352,0.0135 -0.0591,0.0334 -0.0242,0.0202 -0.0604,0.0123 -0.054,-0.03 0.003,-0.0224 0.005,-0.0405 -3.1e-4,-0.0598 -0.003,-0.009 -0.004,-0.0215 -0.002,-0.0297 0.003,-0.0166 0.0123,-0.0215 0.0212,-0.006 0.006,0.0101 0.007,0.0218 0.027,0.0227 0.0306,0.001 0.0368,-0.0297 0.0466,-0.0313 0.006,-9.2e-4 0.0132,-0.0196 0.008,-0.0497 -0.006,-0.0322 -0.0245,-0.0828 -0.0487,-0.10851 -0.0202,-0.0215 -0.0328,-0.0402 -0.0408,-0.0668 -0.007,-0.0227 -0.0104,-0.0444 -0.009,-0.0656 0.002,-0.027 -0.0132,-0.0647 -0.0371,-0.0825 -0.015,-0.011 -0.0386,-0.0172 -0.0598,-0.0169 -0.0119,0 -0.0233,0.002 -0.0319,0.006 -0.0356,0.0193 -0.0405,0.0469 -0.0398,0.0785 6.1e-4,0.0294 0.002,0.0631 0.005,0.095 -0.004,0.0147 -0.0248,0.0426 -0.038,0.0598 -0.0178,0.0175 -0.0267,0.0515 -0.0383,0.0812 -0.006,0.0156 -0.0162,0.023 -0.0172,0.0432 -3e-4,0.006 0,0.0205 0.005,0.0162 0.0209,-0.0159 0.0469,0.0245 0.0864,0.0864 0.007,0.012 0.034,0.0619 -0.0126,0.0684 -0.0156,0.002 -0.0408,-0.009 -0.065,-0.015 -0.0218,-0.005 -0.0441,-0.009 -0.0564,-0.012 -0.008,-0.002 -0.0107,-0.005 -0.0113,-0.008 -0.002,-0.008 0.009,-0.0199 0.01,-0.0297 6.1e-4,-0.01 -0.003,-0.015 -0.007,-0.023 -0.003,-0.008 -0.004,-0.0141 -0.002,-0.0175 0.002,-0.003 0.006,-0.004 0.0132,-0.003 0.009,9.2e-4 0.0196,-9.2e-4 0.0254,-0.005 0.009,-0.006 0.0141,-0.0178 0.01,-0.0325 0,0.0144 -0.005,0.0196 -0.0166,0.0264 -0.011,0.006 -0.0279,9.2e-4 -0.0359,0.008 -0.009,0.008 0.003,0.0291 0.002,0.0447 -9.2e-4,0.0116 -0.0132,0.0251 -0.008,0.0371 0.006,0.012 0.0316,0.0135 0.0585,0.019 0.0386,0.008 0.061,0.0221 0.0788,0.0227 0.0261,9.2e-4 0.03,-0.0251 0.0705,-0.026 0.0119,-3.1e-4 0.0236,-9.2e-4 0.0353,-0.001 0.0132,0 0.0264,0 0.0398,3.1e-4 0.027,9.2e-4 0.0178,0.015 0.0353,0.0239 0.015,0.008 0.0417,0.005 0.0481,-0.002 0.009,-0.008 0.0319,-0.0279 0.0494,-0.0368 0.0224,-0.0113 0.0742,-0.0306 0.0365,-0.0539 z" />
        <path
           style="font-style:normal;font-variant:normal;font-weight:normal;font-stretch:normal;font-size:medium;line-height:125%;font-family:FontAwesome;-inkscape-font-specification:FontAwesome;text-align:start;letter-spacing:0px;word-spacing:0px;writing-mode:lr-tb;text-anchor:start;fill:#ffffff;fill-opacity:1;stroke:none;stroke-width:1px;stroke-linecap:butt;stroke-linejoin:miter;stroke-opacity:1"
           inkscape:connector-curvature="0"
           id="path4244"
           d="m 122.89758,453.38671 c 0,-0.0107 -0.009,-0.0196 -0.0196,-0.0196 -0.0107,0 -0.0196,0.009 -0.0196,0.0196 l 0,0.0392 c 0,0.0757 -0.0616,0.13732 -0.13732,0.13732 -0.0757,0 -0.13732,-0.0616 -0.13732,-0.13732 l 0,-0.0392 c 0,-0.0107 -0.009,-0.0196 -0.0196,-0.0196 -0.0107,0 -0.0196,0.009 -0.0196,0.0196 l 0,0.0392 c 0,0.0907 0.0687,0.16552 0.15693,0.17533 l 0,0.0405 -0.0785,0 c -0.0107,0 -0.0196,0.009 -0.0196,0.0196 0,0.0107 0.009,0.0196 0.0196,0.0196 l 0.19616,0 c 0.0107,0 0.0196,-0.009 0.0196,-0.0196 0,-0.0107 -0.009,-0.0196 -0.0196,-0.0196 l -0.0785,0 0,-0.0405 c 0.0883,-0.01 0.15693,-0.0846 0.15693,-0.17533 l 0,-0.0392 z m -0.0785,-0.1177 c 0,-0.0539 -0.0441,-0.0981 -0.0981,-0.0981 -0.054,0 -0.0981,0.0441 -0.0981,0.0981 l 0,0.15693 c 0,0.0539 0.0441,0.0981 0.0981,0.0981 0.054,0 0.0981,-0.0441 0.0981,-0.0981 l 0,-0.15693 z" />
        <path
           style="font-style:normal;font-variant:normal;font-weight:normal;font-stretch:normal;font-size:medium;line-height:125%;font-family:FontAwesome;-inkscape-font-specification:FontAwesome;text-align:start;letter-spacing:0px;word-spacing:0px;writing-mode:lr-tb;text-anchor:start;fill:#ffffff;fill-opacity:1;stroke:none;stroke-width:1px;stroke-linecap:butt;stroke-linejoin:miter;stroke-opacity:1"
           inkscape:connector-curvature="0"
           id="path4246"
           d="m 123.18586,453.31897 c -0.006,0 -0.0117,-0.006 -0.0117,-0.012 0,-0.006 0.005,-0.012 0.0117,-0.012 0.007,0 0.0119,0.006 0.0119,0.012 0,0.006 -0.005,0.012 -0.0119,0.012 z m 0.12935,0 c -0.007,0 -0.012,-0.006 -0.012,-0.012 0,-0.006 0.005,-0.012 0.012,-0.012 0.006,0 0.0116,0.006 0.0116,0.012 0,0.006 -0.005,0.012 -0.0116,0.012 z m -0.24889,0.0564 c -0.0175,0 -0.0316,0.0141 -0.0316,0.0313 l 0,0.1318 c 0,0.0175 0.0141,0.0316 0.0316,0.0316 0.0175,0 0.0313,-0.0141 0.0313,-0.0316 l 0,-0.1318 c 0,-0.0172 -0.0141,-0.0313 -0.0313,-0.0313 z m 0.3249,0.006 -0.28138,0 0,0.20414 c 0,0.0187 0.015,0.0337 0.0337,0.0337 l 0.0227,0 3.1e-4,0.0696 c 0,0.0175 0.0141,0.0316 0.0313,0.0316 0.0175,0 0.0316,-0.0141 0.0316,-0.0316 l 0,-0.0696 0.0423,0 0,0.0696 c 0,0.0175 0.0141,0.0316 0.0316,0.0316 0.0175,0 0.0316,-0.0141 0.0316,-0.0316 l 0,-0.0696 0.023,0 c 0.0184,0 0.0334,-0.015 0.0334,-0.0337 l 0,-0.20414 z m -0.0711,-0.12414 0.0218,-0.0401 c 0.001,-0.002 6.2e-4,-0.005 -0.002,-0.006 -0.002,-9.2e-4 -0.005,-3.1e-4 -0.006,0.002 l -0.0221,0.0405 c -0.0187,-0.008 -0.0395,-0.0129 -0.0616,-0.0129 -0.0221,0 -0.0429,0.005 -0.0616,0.0129 l -0.0221,-0.0405 c -0.001,-0.002 -0.004,-0.003 -0.006,-0.002 -0.002,0.001 -0.003,0.004 -0.002,0.006 l 0.0218,0.0401 c -0.0432,0.0221 -0.0723,0.0644 -0.0723,0.1131 l 0.28352,0 c 0,-0.0487 -0.0291,-0.091 -0.072,-0.1131 z m 0.14621,0.14958 c 0,-0.0175 -0.0141,-0.0313 -0.0316,-0.0313 -0.0172,0 -0.0313,0.0138 -0.0313,0.0313 l 0,0.1318 c 0,0.0175 0.0141,0.0316 0.0313,0.0316 0.0175,0 0.0316,-0.0141 0.0316,-0.0316 l 0,-0.1318 z" />
        <path
           style="font-style:normal;font-variant:normal;font-weight:normal;font-stretch:normal;font-size:medium;line-height:125%;font-family:FontAwesome;-inkscape-font-specification:FontAwesome;text-align:start;letter-spacing:0px;word-spacing:0px;writing-mode:lr-tb;text-anchor:start;fill:#ffffff;fill-opacity:1;stroke:none;stroke-width:1px;stroke-linecap:butt;stroke-linejoin:miter;stroke-opacity:1"
           inkscape:connector-curvature="0"
           id="path4248"
           d="m 124.0303,453.54333 c -0.0181,-0.006 -0.0343,-0.0184 -0.0484,-0.0386 -0.0141,-0.0202 -0.0212,-0.0432 -0.0212,-0.0684 0,-0.0233 0.007,-0.0444 0.0199,-0.0634 0.007,-0.0107 0.019,-0.0227 0.0349,-0.0362 -0.0104,-0.0129 -0.0212,-0.0233 -0.0319,-0.0307 -0.019,-0.0132 -0.0408,-0.0199 -0.0653,-0.0199 -0.015,0 -0.0328,0.004 -0.053,0.0104 -0.0202,0.007 -0.0349,0.0104 -0.0438,0.0104 -0.007,0 -0.0211,-0.003 -0.0423,-0.009 -0.0215,-0.006 -0.0392,-0.009 -0.0543,-0.009 -0.0352,0 -0.0641,0.0147 -0.087,0.0441 -0.023,0.0297 -0.0346,0.0677 -0.0346,0.11464 0,0.0503 0.0153,0.10145 0.0451,0.15417 0.0303,0.0527 0.0607,0.0794 0.0923,0.0794 0.0101,0 0.0236,-0.003 0.0405,-0.0104 0.0165,-0.007 0.0313,-0.0101 0.0435,-0.0101 0.0126,0 0.0282,0.003 0.0463,0.01 0.0184,0.006 0.0325,0.01 0.0429,0.01 0.026,0 0.0524,-0.0199 0.0788,-0.0601 0.0178,-0.0267 0.03,-0.0524 0.0377,-0.0766 z m -0.11525,-0.35954 c 0,-0.002 -3e-4,-0.004 -3e-4,-0.006 -3.1e-4,-0.002 -9.2e-4,-0.004 -0.002,-0.007 -0.0356,0.008 -0.0613,0.0233 -0.0766,0.0454 -0.0153,0.0221 -0.0233,0.0484 -0.0239,0.0788 0.0144,-0.001 0.0248,-0.003 0.0319,-0.005 0.011,-0.004 0.0221,-0.011 0.0331,-0.0221 0.0129,-0.0129 0.0224,-0.027 0.0285,-0.0423 0.006,-0.015 0.009,-0.0291 0.009,-0.0417 z" />
        <path
           style="font-style:normal;font-variant:normal;font-weight:normal;font-stretch:normal;font-size:medium;line-height:125%;font-family:FontAwesome;-inkscape-font-specification:FontAwesome;text-align:start;letter-spacing:0px;word-spacing:0px;writing-mode:lr-tb;text-anchor:start;fill:#ffffff;fill-opacity:1;stroke:none;stroke-width:1px;stroke-linecap:butt;stroke-linejoin:miter;stroke-opacity:1"
           inkscape:connector-curvature="0"
           id="path4250"
           d="m 124.38095,453.47927 -0.20904,0 0,0.17073 0.20904,0.0288 0,-0.19954 z m 0,-0.22774 -0.20904,0.0288 0,0.17318 0.20904,0 0,-0.202 z m 0.301,0.22774 -0.27801,0 0,0.20261 0.27801,0.0383 0,-0.24092 z m 0,-0.26912 -0.27801,0.0383 0,0.20506 0.27801,0 0,-0.24338 z" />
        <path
           style="font-style:normal;font-variant:normal;font-weight:normal;font-stretch:normal;font-size:medium;line-height:125%;font-family:FontAwesome;-inkscape-font-specification:FontAwesome;text-align:start;letter-spacing:0px;word-spacing:0px;writing-mode:lr-tb;text-anchor:start;fill:#ffffff;fill-opacity:1;stroke:none;stroke-width:1px;stroke-linecap:butt;stroke-linejoin:miter;stroke-opacity:1"
           inkscape:connector-curvature="0"
           id="path4252"
           d="m 125.36808,453.47498 c 0,0.005 -0.005,0.01 -0.01,0.01 l -0.49042,0 c -0.005,0 -0.01,-0.005 -0.01,-0.01 l 0,-0.25502 c 0,-0.005 0.005,-0.01 0.01,-0.01 l 0.49042,0 c 0.005,0 0.01,0.005 0.01,0.01 l 0,0.25502 z m 0.0392,-0.25502 c 0,-0.027 -0.0221,-0.049 -0.049,-0.049 l -0.49042,0 c -0.027,0 -0.049,0.0221 -0.049,0.049 l 0,0.33349 c 0,0.027 0.0221,0.049 0.049,0.049 l 0.16674,0 c 0,0.0267 -0.0196,0.0475 -0.0196,0.0589 0,0.0107 0.009,0.0196 0.0196,0.0196 l 0.15694,0 c 0.0107,0 0.0196,-0.009 0.0196,-0.0196 0,-0.0107 -0.0196,-0.0328 -0.0196,-0.0589 l 0.16674,0 c 0.027,0 0.049,-0.0221 0.049,-0.049 l 0,-0.33349 z" />
        <path
           style="font-style:normal;font-variant:normal;font-weight:normal;font-stretch:normal;font-size:medium;line-height:125%;font-family:FontAwesome;-inkscape-font-specification:FontAwesome;text-align:start;letter-spacing:0px;word-spacing:0px;writing-mode:lr-tb;text-anchor:start;fill:#ffffff;fill-opacity:1;stroke:none;stroke-width:1px;stroke-linecap:butt;stroke-linejoin:miter;stroke-opacity:1"
           inkscape:connector-curvature="0"
           id="path4254"
           d="m 125.68731,453.60249 c 0,0.0135 -0.011,0.0245 -0.0245,0.0245 -0.0135,0 -0.0245,-0.011 -0.0245,-0.0245 0,-0.0135 0.011,-0.0245 0.0245,-0.0245 0.0135,0 0.0245,0.011 0.0245,0.0245 z m 0.0638,-0.049 c 0,0.005 -0.005,0.01 -0.01,0.01 l -0.15694,0 c -0.005,0 -0.01,-0.005 -0.01,-0.01 l 0,-0.21579 c 0,-0.005 0.005,-0.01 0.01,-0.01 l 0.15694,0 c 0.005,0 0.01,0.005 0.01,0.01 l 0,0.21579 z m -0.0588,-0.25992 c 0,0.003 -0.002,0.005 -0.005,0.005 l -0.049,0 c -0.003,0 -0.005,-0.002 -0.005,-0.005 0,-0.003 0.002,-0.005 0.005,-0.005 l 0.049,0 c 0.003,0 0.005,0.002 0.005,0.005 z m 0.0883,-0.005 c 0,-0.0214 -0.0178,-0.0392 -0.0392,-0.0392 l -0.15694,0 c -0.0215,0 -0.0392,0.0178 -0.0392,0.0392 l 0,0.31387 c 0,0.0215 0.0178,0.0392 0.0392,0.0392 l 0.15694,0 c 0.0215,0 0.0392,-0.0178 0.0392,-0.0392 l 0,-0.31387 z" />
        <path
           style="font-style:normal;font-variant:normal;font-weight:normal;font-stretch:normal;font-size:medium;line-height:125%;font-family:FontAwesome;-inkscape-font-specification:FontAwesome;text-align:start;letter-spacing:0px;word-spacing:0px;writing-mode:lr-tb;text-anchor:start;fill:#ffffff;fill-opacity:1;stroke:none;stroke-width:1px;stroke-linecap:butt;stroke-linejoin:miter;stroke-opacity:1"
           inkscape:connector-curvature="0"
           id="path4256"
           d="m 126.36731,453.2874 -0.0956,-0.0956 c -0.0113,-0.0113 -0.034,-0.0208 -0.0503,-0.0208 l -0.27464,0 c -0.0162,0 -0.0294,0.0132 -0.0294,0.0294 l 0,0.49042 c 0,0.0162 0.0132,0.0294 0.0294,0.0294 l 0.41196,0 c 0.0162,0 0.0294,-0.0132 0.0294,-0.0294 l 0,-0.35311 c 0,-0.0162 -0.01,-0.0389 -0.0208,-0.0503 z m -0.13609,-0.0748 c 0.005,0.002 0.0104,0.005 0.0126,0.007 l 0.0959,0.0959 c 0.002,0.002 0.005,0.007 0.007,0.0126 l -0.11525,0 0,-0.11525 z m 0.1177,0.46835 -0.39234,0 0,-0.47081 0.23541,0 0,0.12751 c 0,0.0162 0.0132,0.0294 0.0294,0.0294 l 0.12751,0 0,0.31387 z m -0.31387,-0.26483 0,0.0196 c 0,0.006 0.004,0.01 0.01,0.01 l 0.21578,0 c 0.006,0 0.01,-0.004 0.01,-0.01 l 0,-0.0196 c 0,-0.006 -0.004,-0.01 -0.01,-0.01 l -0.21578,0 c -0.006,0 -0.01,0.004 -0.01,0.01 z m 0.22559,0.0687 -0.21578,0 c -0.006,0 -0.01,0.004 -0.01,0.01 l 0,0.0196 c 0,0.006 0.004,0.01 0.01,0.01 l 0.21578,0 c 0.006,0 0.01,-0.004 0.01,-0.01 l 0,-0.0196 c 0,-0.006 -0.004,-0.01 -0.01,-0.01 z m 0,0.0785 -0.21578,0 c -0.006,0 -0.01,0.004 -0.01,0.01 l 0,0.0196 c 0,0.006 0.004,0.01 0.01,0.01 l 0.21578,0 c 0.006,0 0.01,-0.004 0.01,-0.01 l 0,-0.0196 c 0,-0.006 -0.004,-0.01 -0.01,-0.01 z" />
        <path
           style="font-style:normal;font-variant:normal;font-weight:normal;font-stretch:normal;font-size:medium;line-height:125%;font-family:FontAwesome;-inkscape-font-specification:FontAwesome;text-align:start;letter-spacing:0px;word-spacing:0px;writing-mode:lr-tb;text-anchor:start;fill:#ffffff;fill-opacity:1;stroke:none;stroke-width:1px;stroke-linecap:butt;stroke-linejoin:miter;stroke-opacity:1"
           inkscape:connector-curvature="0"
           id="path4258"
           d="m 126.71474,453.59973 c 0.004,-0.004 0.004,-0.0101 0,-0.0141 l -0.12046,-0.12046 0.12046,-0.12046 c 0.004,-0.004 0.004,-0.0101 0,-0.0141 l -0.0153,-0.0153 c -0.004,-0.004 -0.0101,-0.004 -0.0141,0 l -0.14284,0.14283 c -0.004,0.004 -0.004,0.0101 0,0.0141 l 0.14284,0.14284 c 0.004,0.004 0.0101,0.004 0.0141,0 l 0.0153,-0.0153 z m 0.18115,-0.32705 c 0.002,-0.005 -0.002,-0.0107 -0.007,-0.0123 l -0.019,-0.005 c -0.005,-0.002 -0.0104,0.002 -0.012,0.007 l -0.11433,0.3957 c -0.002,0.005 0.002,0.0107 0.007,0.0123 l 0.019,0.005 c 0.005,0.002 0.0104,-0.002 0.0119,-0.007 l 0.11433,-0.39571 z m 0.20138,0.19954 c 0.004,-0.004 0.004,-0.0101 0,-0.0141 l -0.14283,-0.14283 c -0.004,-0.004 -0.0101,-0.004 -0.0141,0 l -0.0153,0.0153 c -0.004,0.004 -0.004,0.0101 0,0.0141 l 0.12046,0.12046 -0.12046,0.12046 c -0.004,0.004 -0.004,0.0101 0,0.0141 l 0.0153,0.0153 c 0.004,0.004 0.0101,0.004 0.0141,0 l 0.14283,-0.14284 z" />
        <path
           style="font-style:normal;font-variant:normal;font-weight:normal;font-stretch:normal;font-size:medium;line-height:125%;font-family:FontAwesome;-inkscape-font-specification:FontAwesome;text-align:start;letter-spacing:0px;word-spacing:0px;writing-mode:lr-tb;text-anchor:start;fill:#ffffff;fill-opacity:1;stroke:none;stroke-width:1px;stroke-linecap:butt;stroke-linejoin:miter;stroke-opacity:1"
           inkscape:connector-curvature="0"
           id="path4260"
           d="m 127.55168,453.53414 c 0,-0.0739 -0.0638,-0.0987 -0.12016,-0.12046 -0.0435,-0.0169 -0.0809,-0.0313 -0.0809,-0.0638 0,-0.0279 0.027,-0.0472 0.0659,-0.0472 0.046,0 0.0831,0.0328 0.0834,0.0331 0.002,0.002 0.005,0.003 0.008,0.002 0.003,-3.1e-4 0.006,-0.002 0.007,-0.005 l 0.0248,-0.0448 c 0.002,-0.004 0.002,-0.008 -0.002,-0.0116 -0.001,-0.001 -0.0343,-0.0349 -0.0965,-0.042 l 0,-0.054 c 0,-0.006 -0.004,-0.01 -0.01,-0.01 l -0.0414,0 c -0.005,0 -0.01,0.004 -0.01,0.01 l 0,0.0552 c -0.0641,0.0123 -0.1082,0.0589 -0.1082,0.11525 0,0.0769 0.0687,0.10452 0.12383,0.12628 0.0414,0.0166 0.0776,0.031 0.0776,0.0604 0,0.0346 -0.0325,0.0506 -0.0625,0.0506 -0.0543,0 -0.0972,-0.0411 -0.0978,-0.0414 -0.002,-0.002 -0.005,-0.003 -0.007,-0.003 -0.003,3.1e-4 -0.006,0.002 -0.007,0.004 l -0.0316,0.0414 c -0.003,0.004 -0.002,0.009 6.1e-4,0.0126 0.002,0.002 0.0408,0.0448 0.11249,0.0549 l 0,0.0536 c 0,0.006 0.005,0.01 0.01,0.01 l 0.0414,0 c 0.006,0 0.01,-0.004 0.01,-0.01 l 0,-0.0536 c 0.065,-0.0107 0.10973,-0.0601 0.10973,-0.1226 z" />
        <path
           style="font-style:normal;font-variant:normal;font-weight:normal;font-stretch:normal;font-size:medium;line-height:125%;font-family:FontAwesome;-inkscape-font-specification:FontAwesome;text-align:start;letter-spacing:0px;word-spacing:0px;writing-mode:lr-tb;text-anchor:start;fill:#ffffff;fill-opacity:1;stroke:none;stroke-width:1px;stroke-linecap:butt;stroke-linejoin:miter;stroke-opacity:1"
           inkscape:connector-curvature="0"
           id="path4262"
           d="m 120.66647,454.13215 c -0.0159,-0.023 -0.0248,-0.0506 -0.0248,-0.0785 0,-0.007 6.2e-4,-0.0135 0.002,-0.0202 -0.0132,0.005 -0.0267,0.007 -0.0408,0.007 -0.0414,0 -0.0733,-0.026 -0.0797,-0.026 -0.0389,0 -0.038,0.0834 -0.038,0.10819 0,0.034 0.0288,0.0487 0.0595,0.0487 l 0.0411,0 c 0.0205,-0.0245 0.0494,-0.0383 0.0812,-0.0392 z m 0.32828,0.19525 c 0,-0.0693 -0.0162,-0.17564 -0.10606,-0.17564 -0.0104,0 -0.0484,0.0426 -0.10973,0.0426 -0.0613,0 -0.0993,-0.0426 -0.10973,-0.0426 -0.0898,0 -0.10605,0.10636 -0.10605,0.17564 0,0.0496 0.0328,0.0794 0.0818,0.0794 l 0.26789,0 c 0.049,0 0.0818,-0.0297 0.0818,-0.0794 z m -0.31387,-0.39142 c 0,-0.0432 -0.0353,-0.0785 -0.0785,-0.0785 -0.0432,0 -0.0785,0.0353 -0.0785,0.0785 0,0.0432 0.0353,0.0785 0.0785,0.0785 0.0432,0 0.0785,-0.0353 0.0785,-0.0785 z m 0.21578,0.1177 c 0,-0.065 -0.0527,-0.1177 -0.1177,-0.1177 -0.065,0 -0.1177,0.0527 -0.1177,0.1177 0,0.065 0.0527,0.1177 0.1177,0.1177 0.065,0 0.1177,-0.0527 0.1177,-0.1177 z m 0.17656,0.069 c 0,-0.0248 9.1e-4,-0.10819 -0.038,-0.10819 -0.006,0 -0.0383,0.026 -0.0797,0.026 -0.0141,0 -0.0276,-0.002 -0.0408,-0.007 9.2e-4,0.007 0.002,0.0135 0.002,0.0202 0,0.0279 -0.009,0.0555 -0.0248,0.0785 0.0319,9.2e-4 0.0607,0.0147 0.0812,0.0392 l 0.0411,0 c 0.0306,0 0.0595,-0.0147 0.0595,-0.0487 z m -0.0392,-0.18666 c 0,-0.0432 -0.0353,-0.0785 -0.0785,-0.0785 -0.0432,0 -0.0785,0.0353 -0.0785,0.0785 0,0.0432 0.0353,0.0785 0.0785,0.0785 0.0432,0 0.0785,-0.0353 0.0785,-0.0785 z" />
        <path
           style="font-style:normal;font-variant:normal;font-weight:normal;font-stretch:normal;font-size:medium;line-height:125%;font-family:FontAwesome;-inkscape-font-specification:FontAwesome;text-align:start;letter-spacing:0px;word-spacing:0px;writing-mode:lr-tb;text-anchor:start;fill:#ffffff;fill-opacity:1;stroke:none;stroke-width:1px;stroke-linecap:butt;stroke-linejoin:miter;stroke-opacity:1"
           inkscape:connector-curvature="0"
           id="path4264"
           d="m 121.6818,454.13215 c 0,-0.12997 -0.10544,-0.23541 -0.2354,-0.23541 -0.12997,0 -0.23541,0.10544 -0.23541,0.23541 0,0.1039 0.0674,0.19218 0.16092,0.22344 0.012,0.002 0.0162,-0.005 0.0162,-0.0113 0,-0.006 -3.1e-4,-0.0242 -3.1e-4,-0.0438 0,0 -0.0656,0.0141 -0.0794,-0.0279 0,0 -0.0107,-0.0273 -0.026,-0.0343 0,0 -0.0215,-0.0147 0.002,-0.0144 0,0 0.0233,0.002 0.0362,0.0242 0.0205,0.0362 0.0549,0.0257 0.0683,0.0196 0.002,-0.0153 0.008,-0.0254 0.015,-0.0316 -0.0524,-0.006 -0.10728,-0.026 -0.10728,-0.11616 0,-0.0258 0.009,-0.0469 0.0242,-0.0632 -0.002,-0.006 -0.0104,-0.03 0.002,-0.0625 0.0199,-0.006 0.065,0.0242 0.065,0.0242 0.0187,-0.005 0.0389,-0.008 0.0589,-0.008 0.0199,0 0.0401,0.003 0.0589,0.008 0,0 0.045,-0.0303 0.0647,-0.0242 0.0129,0.0325 0.005,0.0564 0.002,0.0625 0.015,0.0163 0.0242,0.0374 0.0242,0.0632 0,0.0904 -0.0552,0.11034 -0.10759,0.11616 0.009,0.007 0.0159,0.0215 0.0159,0.0435 0,0.0316 0,0.057 0,0.0647 0,0.006 0.004,0.0135 0.0159,0.0113 0.0935,-0.0313 0.16092,-0.11954 0.16092,-0.22344 z" />
        <path
           style="font-style:normal;font-variant:normal;font-weight:normal;font-stretch:normal;font-size:medium;line-height:125%;font-family:FontAwesome;-inkscape-font-specification:FontAwesome;text-align:start;letter-spacing:0px;word-spacing:0px;writing-mode:lr-tb;text-anchor:start;fill:#ffffff;fill-opacity:1;stroke:none;stroke-width:1px;stroke-linecap:butt;stroke-linejoin:miter;stroke-opacity:1"
           inkscape:connector-curvature="0"
           id="path4266"
           d="m 121.89774,454.29889 c 0,-0.006 -0.004,-0.01 -0.01,-0.01 l -0.0588,0 c -0.006,0 -0.01,0.004 -0.01,0.01 l 0,0.0589 c 0,0.006 0.004,0.01 0.01,0.01 l 0.0588,0 c 0.006,0 0.01,-0.004 0.01,-0.01 l 0,-0.0589 z m 0.1177,-0.0392 c 0,-0.006 -0.004,-0.01 -0.01,-0.01 l -0.0588,0 c -0.006,0 -0.01,0.004 -0.01,0.01 l 0,0.0981 c 0,0.006 0.004,0.01 0.01,0.01 l 0.0588,0 c 0.006,0 0.01,-0.004 0.01,-0.01 l 0,-0.0981 z m 0.1177,-0.0785 c 0,-0.006 -0.004,-0.01 -0.01,-0.01 l -0.0588,0 c -0.006,0 -0.01,0.004 -0.01,0.01 l 0,0.17655 c 0,0.006 0.004,0.01 0.01,0.01 l 0.0588,0 c 0.006,0 0.01,-0.004 0.01,-0.01 l 0,-0.17655 z m 0.1177,-0.1177 c 0,-0.006 -0.004,-0.01 -0.01,-0.01 l -0.0588,0 c -0.006,0 -0.01,0.004 -0.01,0.01 l 0,0.29425 c 0,0.006 0.004,0.01 0.01,0.01 l 0.0588,0 c 0.006,0 0.01,-0.004 0.01,-0.01 l 0,-0.29425 z m 0.1177,-0.15694 c 0,-0.006 -0.004,-0.01 -0.01,-0.01 l -0.0588,0 c -0.006,0 -0.01,0.004 -0.01,0.01 l 0,0.45119 c 0,0.006 0.004,0.01 0.01,0.01 l 0.0588,0 c 0.006,0 0.01,-0.004 0.01,-0.01 l 0,-0.45119 z" />
        <path
           style="font-style:normal;font-variant:normal;font-weight:normal;font-stretch:normal;font-size:medium;line-height:125%;font-family:FontAwesome;-inkscape-font-specification:FontAwesome;text-align:start;letter-spacing:0px;word-spacing:0px;writing-mode:lr-tb;text-anchor:start;fill:#ffffff;fill-opacity:1;stroke:none;stroke-width:1px;stroke-linecap:butt;stroke-linejoin:miter;stroke-opacity:1"
           inkscape:connector-curvature="0"
           id="path4268"
           d="m 123.1336,454.32831 -0.58851,0 0,-0.43157 -0.0392,0 0,0.47081 0.62774,0 0,-0.0392 z m -0.0392,-0.38252 c 0,-0.006 -0.004,-0.01 -0.01,-0.01 l -0.13333,0 c -0.009,0 -0.0132,0.0104 -0.007,0.0169 l 0.0371,0.0371 -0.14223,0.14223 -0.0714,-0.0714 c -0.004,-0.004 -0.0101,-0.004 -0.0141,0 l -0.17931,0.17931 0.0588,0.0588 0.12751,-0.12751 0.0714,0.0714 c 0.004,0.004 0.0101,0.004 0.0141,0 l 0.19403,-0.19403 0.0371,0.0371 c 0.006,0.006 0.0169,0.002 0.0169,-0.007 l 0,-0.13333 z" />
        <text
           xml:space="preserve"
           style="font-style:normal;font-variant:normal;font-weight:normal;font-stretch:normal;font-size:0.54927158px;line-height:125%;font-family:'DejaVu Sans';-inkscape-font-specification:'DejaVu Sans, Normal';text-align:start;letter-spacing:0px;word-spacing:0px;writing-mode:lr-tb;text-anchor:start;fill:#000000;fill-opacity:1;stroke:none;stroke-width:1px;stroke-linecap:butt;stroke-linejoin:miter;stroke-opacity:1"
           x="118.95306"
           y="453.18201"
           id="text4227"
           sodipodi:linespacing="125%"><tspan
             sodipodi:role="line"
             id="tspan4229"
             x="118.95306"
             y="453.18201"></tspan></text>
        <g
           style="font-style:normal;font-variant:normal;font-weight:normal;font-stretch:normal;font-size:0.54927158px;line-height:125%;font-family:'DejaVu Sans';-inkscape-font-specification:'DejaVu Sans, Normal';text-align:start;letter-spacing:0px;word-spacing:0px;writing-mode:lr-tb;text-anchor:start;fill:#ffffff;fill-opacity:1;stroke:none;stroke-width:1px;stroke-linecap:butt;stroke-linejoin:miter;stroke-opacity:1"
           id="text4231"
           transform="translate(-0.08772583,-0.07267417)">
          <path
             d="m 123.73494,453.90645 -0.29425,0.11771 0,0.0392 0.0392,0 c 0,0.0107 0.009,0.0196 0.0211,0.0196 l 0.46774,0 c 0.0116,0 0.0211,-0.009 0.0211,-0.0196 l 0.0392,0 0,-0.0392 -0.29425,-0.11771 z m -0.21578,0.19617 0,0.2354 -0.0181,0 c -0.0117,0 -0.0211,0.009 -0.0211,0.0196 l 0,0.0196 0.51004,0 0,-0.0196 c 0,-0.0107 -0.01,-0.0196 -0.0211,-0.0196 l -0.0181,0 0,-0.2354 -0.0785,0 0,0.2354 -0.0392,0 0,-0.2354 -0.0785,0 0,0.2354 -0.0392,0 0,-0.2354 -0.0785,0 0,0.2354 -0.0392,0 0,-0.2354 -0.0785,0 z m 0.48888,0.29426 -0.5462,0 c -0.0116,0 -0.0211,0.009 -0.0211,0.0196 l 0,0.0392 0.5885,0 0,-0.0392 c 0,-0.0107 -0.01,-0.0196 -0.0212,-0.0196 z"
             style="fill:#ffffff"
             id="path4236"
             inkscape:connector-curvature="0" />
        </g>
      </g>
    </g>
    <g
       id="g4284">
      <g
         id="flowRoot4136-0-4"
         style="font-style:normal;font-variant:normal;font-weight:normal;font-stretch:normal;font-size:9.6902504px;line-height:125%;font-family:'DejaVu Sans';-inkscape-font-specification:'DejaVu Sans, Normal';text-align:start;letter-spacing:0px;word-spacing:0px;writing-mode:lr-tb;text-anchor:start;fill:#000000;fill-opacity:1;stroke:none;stroke-width:1px;stroke-linecap:butt;stroke-linejoin:miter;stroke-opacity:1;filter:url(#filter4250-6)"
         transform="matrix(17.642001,0,0,17.642001,-2123.0794,-7635.1966)">
        <ellipse
           ry="0.85261929"
           rx="0.85262543"
           cy="457.25232"
           cx="125.37537"
           id="path4154-1-4"
           style="opacity:1;fill:#ffffff;fill-opacity:1;fill-rule:evenodd;stroke:#000000;stroke-width:0.1023527;stroke-linecap:round;stroke-linejoin:round;stroke-miterlimit:4;stroke-dasharray:none;stroke-dashoffset:0;stroke-opacity:1" />
      </g>
      <g
         id="flowRoot4136-4"
         style="font-style:normal;font-variant:normal;font-weight:normal;font-stretch:normal;font-size:9.6902504px;line-height:125%;font-family:'DejaVu Sans';-inkscape-font-specification:'DejaVu Sans, Normal';text-align:start;letter-spacing:0px;word-spacing:0px;writing-mode:lr-tb;text-anchor:start;fill:#ffffff;fill-opacity:1;stroke:#ffffff;stroke-width:1px;stroke-linecap:butt;stroke-linejoin:miter;stroke-opacity:1"
         transform="matrix(17.642001,0,0,17.642001,-2123.3713,-7635.4885)">
        <ellipse
           ry="0.85261929"
           rx="0.85262543"
           cy="457.25232"
           cx="125.37537"
           id="path4154-4"
           style="opacity:1;fill:#ffffff;fill-opacity:1;fill-rule:evenodd;stroke:#ffffff;stroke-width:0.1023527;stroke-linecap:round;stroke-linejoin:round;stroke-miterlimit:4;stroke-dasharray:none;stroke-dashoffset:0;stroke-opacity:1" />
      </g>
    </g>
  </g>
</svg>
