<svg xmlns="http://www.w3.org/2000/svg" width="10mm" height="10mm" viewBox="0 0 35.433071 35.43307"><defs><filter id="a" x="-.079" width="1.158" y="-.079" height="1.158" color-interpolation-filters="sRGB"><feGaussianBlur stdDeviation=".056"/></filter><filter id="b" x="-.079" width="1.158" y="-.079" height="1.158" color-interpolation-filters="sRGB"><feGaussianBlur stdDeviation=".056"/></filter></defs><g font-weight="400" font-size="9.69" font-family="DejaVu Sans" letter-spacing="0" word-spacing="0" fill="#fff"><ellipse ry=".853" rx=".853" cy="457.252" cx="125.375" fill-rule="evenodd" stroke="#000" stroke-width=".102" stroke-linecap="round" stroke-linejoin="round" style="line-height:125%;-inkscape-font-specification:'DejaVu Sans, Normal';text-align:start" transform="translate(-2193.864 -8048.837) scale(17.642)" filter="url(#a)"/><g style="line-height:125%;-inkscape-font-specification:'DejaVu Sans, Normal';text-align:start" transform="translate(-2194.156 -8049.13) scale(17.642)" stroke="#fff"><rect width="11.874" height="1.882" x="118.674" y="452.817" ry=".036" fill="#999" fill-rule="evenodd" stroke="none"/><ellipse ry=".853" rx=".853" cy="457.252" cx="125.375" fill="#b3b3b3" fill-rule="evenodd" stroke-width=".102" stroke-linecap="round" stroke-linejoin="round"/><path style="line-height:125%;-inkscape-font-specification:FontAwesome;text-align:start" d="M120.995 453.367v-.118a.04.04 0 0 0-.04-.039.445.445 0 0 1-.274.118h-.147a.05.05 0 0 0-.05.049v.059a.05.05 0 0 0 .05.049h.037c-.021.069.005.123.023.178.028.026.107.025.126-.012-.032-.026-.06-.05-.038-.086-.024-.024-.012-.067.025-.079a.466.466 0 0 1 .249.116.04.04 0 0 0 .039-.039v-.117a.04.04 0 0 0 .039-.04.04.04 0 0 0-.04-.039zm-.04.185a.474.474 0 0 0-.235-.104v-.083a.479.479 0 0 0 .236-.105v.292zm.53-.224v.118h-.118v-.118h.118zm.04.196h-.197v.04h.196v-.04zm0-.235h-.197v.196h.196v-.196zm.196.235h-.157v.04h.157v-.04zm0-.078h-.157v.039h.157v-.04zm0-.079h-.157v.04h.157v-.04zm0-.078h-.157v.039h.157v-.04zm-.471.294a.02.02 0 0 1-.02.02.02.02 0 0 1-.02-.02v-.294h.04v.294zm.51 0a.02.02 0 0 1-.02.02h-.454a.063.063 0 0 0 .003-.02v-.334h.47v.334zm.039-.373h-.55v.04h-.078v.333a.06.06 0 0 0 .059.059h.51a.059.059 0 0 0 .059-.06v-.372zm.341.087c-.01 0-.011.006-.008.006.003 0 .001-.006.007-.006zm.026.004c.003-.001 0-.007-.009-.003.006-.002.006.004.01.003zm-.107.13c.002.002 0 .005-.001.01-.002.004-.006.008-.008.008-.004 0 0-.004.003-.008s.002-.01.005-.01zm.262.11c-.013-.01-.05-.011-.052.013-.007 0-.011.001-.015.006-.016.019-.001.055-.003.074-.001.018-.006.034-.01.052-.008 0-.007-.007-.005-.017.003-.008.007-.018.007-.028 0-.009 0-.015-.003-.016-.002-.002-.006.001-.01.01-.011.016-.034.023-.055.026-.02.003-.04 0-.05-.011-.004-.004-.01 0-.01.002-.002.002.002.004.006.01.005.01.01.022-.002.029 0-.031-.01-.033-.02-.052a.019.019 0 0 0 .013-.032c-.007-.008-.05-.04-.06-.051-.005-.006-.012-.008-.015-.015-.007-.015-.011-.036-.003-.051.002-.003.003-.002.002.004-.007.032.014.059.019.045.003-.009 0-.026.002-.04.003-.022.024-.067.033-.07-.014-.027.017-.048.017-.071 0-.016.013.018.027.026.016.008.032-.016.056-.027.007-.003.016-.007.015-.01-.003-.014-.031.017-.057.018-.011 0-.016-.002-.02-.007-.014-.013.002-.002.021-.006a.1.1 0 0 0 .022-.007c.01-.004.02-.01.031-.013.008-.002.007-.008.004-.009-.002 0-.004 0-.006.002-.005.008-.026.013-.033.015a.094.094 0 0 1-.031.005c-.02 0-.015-.01-.03-.018-.003-.002-.002-.008.003-.014.003-.003.01-.005.014-.01l.01-.01c.001 0 .001-.025-.01-.025-.01 0-.014.008-.013.016 0 .008.005.014.008.014.006 0 0 .006-.003.007-.005.002-.011-.017-.01-.027 0-.01.005-.027.017-.026.011 0 .02.014.019.038 0 .004.018-.002.024.005.004.004-.015-.043.027-.046.012.002.022.006.027.032-.002.002.003.02-.004.022-.008.003-.014 0-.01-.008s0-.028-.016-.027c-.017 0-.015.031-.01.032.005 0 .016.009.024.01.027.005.007.02.01.04.005.02.018.015.03.07.003.004.014.007.024.05.009.038-.004.066.018.064.005 0 .012-.002.015-.013.008-.028-.004-.062-.017-.085a.092.092 0 0 0-.017-.025.1.1 0 0 1 .036.054c.006.026.01.037.001.065.005.002.017.007.017.013zm-.193-.253v.001c-.004 0-.004-.002-.003-.006 0-.003 0-.005-.002-.005s-.002-.005.001-.004c.002 0 .006.006.004.014zm.129.06c0 .005-.002.01-.006.01-.006-.001-.021-.016-.015-.023.002-.002.003.004.01.008.004.003.008 0 .01.007zm-.055-.065l-.003.002c0-.005-.003-.009-.006-.01-.002 0-.003-.002 0-.003.003 0 .009.003.009.011zm.017-.071c-.002.003-.01.002-.01.003-.007.002-.009.008-.011.006-.003-.002.002-.005.003-.009.001-.003-.002-.01.004-.01.002 0 .005.002.007.005.003.002.007.004.006.006zm.173.411c-.01-.006-.03-.011-.032-.051-.008.007-.007.044.015.051.025.008.04.022-.006.038a.138.138 0 0 0-.059.033c-.024.02-.06.013-.054-.03a.145.145 0 0 0 0-.06.06.06 0 0 1-.002-.029c.003-.017.012-.022.021-.006.006.01.007.022.027.023.03 0 .037-.03.047-.032.006 0 .013-.02.008-.05a.248.248 0 0 0-.049-.108.181.181 0 0 1-.05-.132.105.105 0 0 0-.037-.083.105.105 0 0 0-.091-.01c-.036.019-.041.046-.04.078 0 .03.002.063.005.095a.26.26 0 0 1-.038.06c-.018.017-.027.051-.039.08-.006.016-.016.024-.017.044 0 .006 0 .02.005.016.021-.016.047.025.087.087.007.012.034.062-.013.068-.016.002-.04-.009-.065-.015l-.056-.012c-.008-.002-.011-.005-.012-.008-.002-.008.01-.02.01-.03 0-.01-.003-.015-.007-.023-.003-.008-.004-.014-.002-.017.002-.003.006-.004.014-.003.009 0 .02-.001.025-.005.009-.006.014-.018.01-.033 0 .015-.005.02-.017.027-.01.006-.028 0-.036.008-.009.008.003.029.002.044 0 .012-.013.026-.008.038.006.012.032.013.059.019.039.008.06.022.079.022.026.001.03-.025.07-.026h.076c.026 0 .017.015.035.023.015.008.041.005.048-.002a.289.289 0 0 1 .05-.036c.022-.012.073-.03.036-.054zm.506-.236a.02.02 0 0 0-.02-.02.02.02 0 0 0-.02.02v.039a.137.137 0 0 1-.274 0v-.04a.02.02 0 0 0-.02-.019.02.02 0 0 0-.02.02v.039c0 .09.07.165.157.175v.04h-.078a.02.02 0 0 0-.02.02c0 .011.01.02.02.02h.196a.02.02 0 0 0 .02-.02.02.02 0 0 0-.02-.02h-.078v-.04a.177.177 0 0 0 .157-.175v-.04zm-.079-.118a.098.098 0 0 0-.196 0v.157c0 .054.044.098.098.098a.098.098 0 0 0 .098-.098v-.157zm.367.05c-.006 0-.012-.006-.012-.012s.005-.012.012-.012.012.006.012.012a.012.012 0 0 1-.012.012zm.13 0a.012.012 0 0 1-.013-.012c0-.006.005-.012.012-.012.006 0 .012.006.012.012s-.005.012-.012.012zm-.25.056a.031.031 0 0 0-.031.032v.131c0 .018.014.032.031.032a.031.031 0 0 0 .032-.032v-.131a.031.031 0 0 0-.032-.032zm.325.006h-.281v.205c0 .018.015.033.034.033h.022v.07a.031.031 0 1 0 .063 0v-.07h.043v.07a.032.032 0 1 0 .063 0v-.07h.023a.034.034 0 0 0 .033-.033v-.205zm-.07-.124l.02-.04c.002-.002.002-.005-.001-.006-.002 0-.005 0-.006.002l-.022.04a.156.156 0 0 0-.123 0l-.022-.04a.005.005 0 0 0-.006-.002.005.005 0 0 0-.002.006l.021.04a.128.128 0 0 0-.072.113h.284a.128.128 0 0 0-.072-.113zm.145.15a.031.031 0 0 0-.031-.031.031.031 0 0 0-.032.03v.133a.031.031 0 1 0 .063 0v-.132zm.564.136a.096.096 0 0 1-.048-.038.117.117 0 0 1-.001-.132.187.187 0 0 1 .035-.036.157.157 0 0 0-.032-.031.112.112 0 0 0-.066-.02.184.184 0 0 0-.053.01.155.155 0 0 1-.043.01.2.2 0 0 1-.043-.008.206.206 0 0 0-.054-.01.106.106 0 0 0-.087.045.181.181 0 0 0-.035.115c0 .05.016.101.045.154.03.053.061.08.093.08.01 0 .023-.004.04-.011a.114.114 0 0 1 .044-.01c.012 0 .028.003.046.01.018.006.033.01.043.01.026 0 .052-.02.079-.06a.306.306 0 0 0 .037-.077zm-.115-.36v-.005l-.002-.007a.121.121 0 0 0-.077.045.14.14 0 0 0-.024.079.16.16 0 0 0 .032-.005.09.09 0 0 0 .033-.022.125.125 0 0 0 .038-.084zm.466.297h-.21v.17l.21.029v-.2zm0-.228l-.21.028v.174h.21v-.202zm.3.227h-.277v.203l.278.038v-.24zm.001-.269l-.278.038v.206h.278v-.244zm.686.265a.01.01 0 0 1-.01.01h-.49a.01.01 0 0 1-.01-.01v-.255a.01.01 0 0 1 .01-.01h.49a.01.01 0 0 1 .01.01v.255zm.04-.255a.05.05 0 0 0-.05-.049h-.49a.05.05 0 0 0-.05.049v.333a.05.05 0 0 0 .05.05h.167c0 .026-.02.047-.02.058 0 .011.009.02.02.02h.157a.02.02 0 0 0 .02-.02c0-.01-.02-.032-.02-.059h.166a.05.05 0 0 0 .05-.049v-.333zm.279.382a.025.025 0 1 1-.049 0 .025.025 0 0 1 .05 0zm.064-.049a.01.01 0 0 1-.01.01h-.157a.01.01 0 0 1-.01-.01v-.215a.01.01 0 0 1 .01-.01h.157a.01.01 0 0 1 .01.01v.215zm-.059-.26c0 .004-.002.006-.005.006h-.049c-.003 0-.005-.002-.005-.005s.002-.005.005-.005h.05c.002 0 .004.002.004.005zm.089-.004a.04.04 0 0 0-.04-.04h-.157a.04.04 0 0 0-.039.04v.313c0 .022.018.04.04.04h.156a.04.04 0 0 0 .04-.04v-.313zm.586-.002l-.095-.095a.082.082 0 0 0-.05-.021h-.275a.03.03 0 0 0-.03.03v.49c0 .016.014.03.03.03h.412a.03.03 0 0 0 .03-.03v-.353a.086.086 0 0 0-.022-.05zm-.136-.074a.05.05 0 0 1 .013.007l.096.095a.039.039 0 0 1 .007.013h-.116v-.115zm.118.468h-.392v-.47h.235v.127a.03.03 0 0 0 .03.029h.127v.314zm-.314-.265v.02c0 .006.004.01.01.01h.216c.006 0 .01-.004.01-.01v-.02c0-.006-.004-.01-.01-.01h-.216c-.006 0-.01.004-.01.01zm.226.069h-.216c-.006 0-.01.004-.01.01v.02c0 .005.004.01.01.01h.216a.01.01 0 0 0 .01-.01v-.02c0-.006-.004-.01-.01-.01zm0 .078h-.216c-.006 0-.01.004-.01.01v.02c0 .006.004.01.01.01h.216c.006 0 .01-.004.01-.01v-.02c0-.006-.004-.01-.01-.01zm.454.037a.01.01 0 0 0 0-.014l-.12-.12.12-.121a.01.01 0 0 0 0-.014l-.016-.016a.01.01 0 0 0-.014 0l-.142.143a.01.01 0 0 0 0 .014l.142.143a.01.01 0 0 0 .014 0l.016-.015zm.18-.327c.003-.005-.001-.011-.006-.013l-.02-.005c-.004-.002-.01.002-.011.007l-.114.396c-.002.005.002.01.007.012l.019.005c.005.002.01-.002.011-.007l.115-.395zm.202.2a.01.01 0 0 0 0-.015l-.143-.143a.01.01 0 0 0-.014 0l-.015.016a.01.01 0 0 0 0 .014l.12.12-.12.12a.01.01 0 0 0 0 .015l.015.015a.01.01 0 0 0 .014 0l.143-.143zm.455.061c0-.074-.064-.099-.12-.12-.044-.017-.081-.032-.081-.064 0-.028.027-.047.066-.047.046 0 .083.032.083.033a.008.008 0 0 0 .008.002.008.008 0 0 0 .007-.005l.025-.045c.002-.004.002-.008-.002-.012-.001 0-.035-.035-.097-.042v-.054c0-.006-.004-.01-.01-.01h-.041a.01.01 0 0 0-.01.01v.056c-.064.012-.108.058-.108.115 0 .077.068.104.123.126.042.017.078.031.078.06 0 .035-.032.051-.062.051a.16.16 0 0 1-.098-.041.01.01 0 0 0-.007-.003.008.008 0 0 0-.007.004l-.032.041c-.003.004-.002.01 0 .013.003.002.042.045.113.055v.053c0 .006.005.01.01.01h.042c.006 0 .01-.004.01-.01v-.053c.065-.011.11-.06.11-.123zm-6.886.598a.139.139 0 0 1-.022-.099.113.113 0 0 1-.041.007c-.042 0-.073-.026-.08-.026-.039 0-.038.084-.038.109 0 .034.029.048.06.048h.04a.108.108 0 0 1 .082-.039zm.329.195c0-.069-.016-.175-.106-.175-.01 0-.049.042-.11.042s-.1-.042-.11-.042c-.09 0-.106.106-.106.175 0 .05.033.08.082.08h.268c.049 0 .082-.03.082-.08zm-.314-.391a.079.079 0 0 0-.079-.079.079.079 0 0 0-.078.079c0 .043.035.078.078.078a.079.079 0 0 0 .079-.078zm.216.118a.118.118 0 1 0-.236 0 .118.118 0 0 0 .236 0zm.176.069c0-.025.001-.109-.038-.109-.006 0-.038.026-.08.026a.113.113 0 0 1-.04-.007l.002.02a.14.14 0 0 1-.025.08c.032 0 .06.014.081.038h.041c.03 0 .06-.014.06-.048zm-.039-.187a.079.079 0 0 0-.078-.078.079.079 0 0 0-.079.078.079.079 0 1 0 .157 0zm.648.196a.235.235 0 1 0-.31.224c.012.002.016-.005.016-.012v-.044s-.066.015-.08-.027c0 0-.01-.028-.026-.035 0 0-.021-.014.002-.014 0 0 .024.002.037.024.02.036.054.026.068.02a.05.05 0 0 1 .015-.032c-.053-.006-.107-.026-.107-.116a.09.09 0 0 1 .024-.063c-.002-.006-.01-.03.002-.063.02-.006.065.024.065.024a.23.23 0 0 1 .118 0s.045-.03.064-.024a.081.081 0 0 1 .002.063.09.09 0 0 1 .025.063c0 .09-.056.11-.108.116.009.007.016.022.016.044v.064c0 .006.004.014.016.012a.236.236 0 0 0 .16-.224zm.216.167c0-.006-.004-.01-.01-.01h-.06a.01.01 0 0 0-.01.01v.059c0 .006.005.01.01.01h.06c.006 0 .01-.004.01-.01v-.06zm.117-.04a.01.01 0 0 0-.01-.01h-.058a.01.01 0 0 0-.01.01v.099c0 .006.004.01.01.01h.058c.006 0 .01-.004.01-.01v-.098zm.118-.078c0-.006-.004-.01-.01-.01h-.059c-.006 0-.01.004-.01.01v.177c0 .006.004.01.01.01h.06a.01.01 0 0 0 .01-.01v-.177zm.118-.118c0-.006-.004-.01-.01-.01h-.059c-.006 0-.01.004-.01.01v.295c0 .006.004.01.01.01h.059c.006 0 .01-.004.01-.01v-.295zm.118-.156c0-.006-.004-.01-.01-.01h-.06a.01.01 0 0 0-.01.01v.45c0 .007.005.01.01.01h.06c.006 0 .01-.003.01-.01v-.45zm.765.421h-.589v-.431h-.04v.47h.629v-.039zm-.04-.382c0-.006-.004-.01-.01-.01h-.133a.01.01 0 0 0-.007.017l.037.037-.142.142-.071-.071a.01.01 0 0 0-.015 0l-.179.179.059.059.127-.128.072.072a.01.01 0 0 0 .014 0l.194-.194.037.037c.006.006.017.002.017-.007v-.134z" font-size="medium" font-family="FontAwesome" stroke="none"/><path d="M123.647 453.834l-.294.117v.04h.04c0 .01.008.02.02.02h.468a.02.02 0 0 0 .021-.02h.04v-.04l-.295-.117zm-.216.196v.235h-.018a.02.02 0 0 0-.02.02v.02h.51v-.02c0-.01-.01-.02-.022-.02h-.018v-.235h-.078v.235h-.04v-.235h-.078v.235h-.04v-.235h-.078v.235h-.039v-.235h-.079zm.49.294h-.547c-.011 0-.021.01-.021.02v.039h.589v-.04c0-.01-.01-.019-.022-.019z" style="line-height:125%;-inkscape-font-specification:'DejaVu Sans, Normal';text-align:start" font-size=".549" stroke="none"/></g><g fill-rule="evenodd" stroke-width=".102" stroke-linecap="round" stroke-linejoin="round"><ellipse ry=".853" rx=".853" cy="457.252" cx="125.375" stroke="#000" style="line-height:125%;-inkscape-font-specification:'DejaVu Sans, Normal';text-align:start" transform="translate(-2276.962 -8049.716) scale(17.642)" filter="url(#b)"/><ellipse ry=".853" rx=".853" cy="457.252" cx="125.375" style="line-height:125%;-inkscape-font-specification:'DejaVu Sans, Normal';text-align:start" transform="translate(-2277.254 -8050.008) scale(17.642)" stroke="#fff"/></g></g></svg>