<svg xmlns="http://www.w3.org/2000/svg" width="10mm" height="10mm" viewBox="0 0 35.433 35.433"><defs><filter id="a" width="1.158" height="1.158" x="-.079" y="-.079" color-interpolation-filters="sRGB"><feGaussianBlur stdDeviation=".056"/></filter></defs><g fill="#fff" font-family="DejaVu Sans" font-size="9.69" font-weight="400" letter-spacing="0" word-spacing="0"><ellipse cx="125.375" cy="457.252" fill-rule="evenodd" stroke="#000" stroke-linecap="round" stroke-linejoin="round" stroke-width=".102" style="line-height:125%;-inkscape-font-specification:'DejaVu Sans, Normal';text-align:start" filter="url(#a)" rx=".853" ry=".853" transform="translate(-2193.864 -8048.837) scale(17.642)"/><g style="line-height:125%;-inkscape-font-specification:'DejaVu Sans, Normal';text-align:start" stroke="#fff" transform="translate(-2194.156 -8049.13) scale(17.642)"><ellipse cx="125.375" cy="457.252" fill="#b3b3b3" fill-rule="evenodd" stroke-linecap="round" stroke-linejoin="round" stroke-width=".102" rx=".853" ry=".853"/><path style="line-height:125%;-inkscape-font-specification:'DejaVu Sans, Normal';text-align:start" stroke="none" d="M125.375 456.71l-.512.204v.069h.068c0 .018.016.034.037.034h.815c.02 0 .037-.016.037-.034h.068v-.069l-.513-.205zm-.376.341v.41h-.031c-.02 0-.037.016-.037.035v.034h.889v-.034c0-.019-.018-.035-.037-.035h-.031v-.41h-.137v.41h-.069v-.41h-.136v.41h-.069v-.41h-.137v.41h-.068v-.41H125zm.852.513h-.952c-.02 0-.036.016-.036.034v.068h1.025v-.068c0-.018-.017-.034-.037-.034z" font-size=".549"/></g></g></svg>