<svg xmlns="http://www.w3.org/2000/svg" width="10mm" height="10mm" viewBox="0 0 35.433071 35.43307"><defs><filter id="a" x="-.079" width="1.158" y="-.079" height="1.158" color-interpolation-filters="sRGB"><feGaussianBlur stdDeviation=".056"/></filter></defs><g font-weight="400" font-size="9.69" font-family="DejaVu Sans" letter-spacing="0" word-spacing="0" fill="#fff"><ellipse ry=".853" rx=".853" cy="457.252" cx="125.375" fill-rule="evenodd" stroke="#000" stroke-width=".102" stroke-linecap="round" stroke-linejoin="round" style="line-height:125%;-inkscape-font-specification:'DejaVu Sans, Normal';text-align:start" transform="translate(-2193.864 -8048.837) scale(17.642)" filter="url(#a)"/><g style="line-height:125%;-inkscape-font-specification:'DejaVu Sans, Normal';text-align:start" transform="translate(-2194.156 -8049.13) scale(17.642)" stroke="#fff"><ellipse ry=".853" rx=".853" cy="457.252" cx="125.375" fill="#b3b3b3" fill-rule="evenodd" stroke-width=".102" stroke-linecap="round" stroke-linejoin="round"/><path d="M125.375 456.71l-.512.204v.069h.068c0 .018.016.034.037.034h.815c.02 0 .037-.016.037-.034h.068v-.069l-.513-.205zm-.376.341v.41h-.031c-.02 0-.037.016-.037.035v.034h.889v-.034c0-.019-.018-.035-.037-.035h-.031v-.41h-.137v.41h-.069v-.41h-.136v.41h-.069v-.41h-.137v.41h-.068v-.41H125zm.852.513h-.952c-.02 0-.036.016-.036.034v.068h1.025v-.068c0-.018-.017-.034-.037-.034z" style="line-height:125%;-inkscape-font-specification:'DejaVu Sans, Normal';text-align:start" font-size=".549" stroke="none"/></g></g></svg>