<?xml version="1.0" encoding="UTF-8" standalone="no"?>
<!-- Created with Inkscape (http://www.inkscape.org/) -->

<svg
   xmlns:dc="http://purl.org/dc/elements/1.1/"
   xmlns:cc="http://creativecommons.org/ns#"
   xmlns:rdf="http://www.w3.org/1999/02/22-rdf-syntax-ns#"
   xmlns:svg="http://www.w3.org/2000/svg"
   xmlns="http://www.w3.org/2000/svg"
   xmlns:xlink="http://www.w3.org/1999/xlink"
   xmlns:sodipodi="http://sodipodi.sourceforge.net/DTD/sodipodi-0.dtd"
   xmlns:inkscape="http://www.inkscape.org/namespaces/inkscape"
   width="10mm"
   height="10mm"
   viewBox="0 0 35.433071 35.43307"
   id="svg2"
   version="1.1"
   inkscape:version="0.91 r13725"
   sodipodi:docname="org.svg"
   inkscape:export-filename="/home/jospoortvliet/source code/www/assets/img/history/inc.png"
   inkscape:export-xdpi="91.440002"
   inkscape:export-ydpi="91.440002">
  <defs
     id="defs4">
    <filter
       inkscape:collect="always"
       style="color-interpolation-filters:sRGB"
       id="filter4250"
       x="-0.079199715"
       width="1.1583994"
       y="-0.079200285"
       height="1.1584006">
      <feGaussianBlur
         inkscape:collect="always"
         stdDeviation="0.056273076"
         id="feGaussianBlur4252" />
    </filter>
    <filter
       inkscape:collect="always"
       style="color-interpolation-filters:sRGB"
       id="filter4250-6"
       x="-0.079199716"
       width="1.1583993"
       y="-0.079200283"
       height="1.1584007">
      <feGaussianBlur
         inkscape:collect="always"
         stdDeviation="0.056273076"
         id="feGaussianBlur4252-6" />
    </filter>
    <linearGradient
       y2="339.22189"
       x2="288.49411"
       y1="55.888199"
       x1="288.49411"
       gradientUnits="userSpaceOnUse"
       id="linearGradient3353"
       xlink:href="#SVGID_1_"
       inkscape:collect="always" />
    <linearGradient
       y2="339.22159"
       x2="251.2114"
       y1="55.888199"
       x1="251.2114"
       gradientUnits="userSpaceOnUse"
       id="linearGradient3355"
       xlink:href="#SVGID_2_"
       inkscape:collect="always" />
    <linearGradient
       y2="339.22171"
       x2="293.22461"
       y1="55.888199"
       x1="293.22461"
       gradientUnits="userSpaceOnUse"
       id="linearGradient3357"
       xlink:href="#SVGID_3_"
       inkscape:collect="always" />
    <linearGradient
       y2="339.22159"
       x2="375.33401"
       y1="55.888199"
       x1="375.33401"
       gradientUnits="userSpaceOnUse"
       id="linearGradient3359"
       xlink:href="#SVGID_4_"
       inkscape:collect="always" />
    <linearGradient
       y2="339.22159"
       x2="334.49411"
       y1="55.888199"
       x1="334.49411"
       gradientUnits="userSpaceOnUse"
       id="linearGradient3361"
       xlink:href="#SVGID_5_"
       inkscape:collect="always" />
    <linearGradient
       y2="339.2236"
       x2="458.42679"
       y1="55.8867"
       x1="458.42679"
       gradientUnits="userSpaceOnUse"
       id="linearGradient3363"
       xlink:href="#SVGID_6_"
       inkscape:collect="always" />
    <linearGradient
       y2="339.22131"
       x2="413.16309"
       y1="55.888199"
       x1="413.16309"
       gradientUnits="userSpaceOnUse"
       id="linearGradient3365"
       xlink:href="#SVGID_7_"
       inkscape:collect="always" />
    <linearGradient
       y2="339.2236"
       x2="290.76169"
       y1="55.8867"
       x1="290.76169"
       gradientUnits="userSpaceOnUse"
       id="linearGradient3367"
       xlink:href="#SVGID_8_"
       inkscape:collect="always" />
    <linearGradient
       y2="339.22119"
       x2="346.77341"
       y1="55.888199"
       x1="346.77341"
       gradientUnits="userSpaceOnUse"
       id="linearGradient3369"
       xlink:href="#SVGID_9_"
       inkscape:collect="always" />
    <linearGradient
       id="SVGID_1_"
       gradientUnits="userSpaceOnUse"
       x1="288.49411"
       y1="55.888199"
       x2="288.49411"
       y2="339.22189">
      <stop
         offset="0"
         style="stop-color:#BED5E1"
         id="stop261" />
      <stop
         offset="1"
         style="stop-color:#567B8F"
         id="stop263" />
    </linearGradient>
    <linearGradient
       id="SVGID_2_"
       gradientUnits="userSpaceOnUse"
       x1="251.2114"
       y1="55.888199"
       x2="251.2114"
       y2="339.22159">
      <stop
         offset="0"
         style="stop-color:#BED5E1"
         id="stop268" />
      <stop
         offset="1"
         style="stop-color:#567B8F"
         id="stop270" />
    </linearGradient>
    <linearGradient
       id="SVGID_3_"
       gradientUnits="userSpaceOnUse"
       x1="293.22461"
       y1="55.888199"
       x2="293.22461"
       y2="339.22171">
      <stop
         offset="0"
         style="stop-color:#BED5E1"
         id="stop275" />
      <stop
         offset="1"
         style="stop-color:#567B8F"
         id="stop277" />
    </linearGradient>
    <linearGradient
       id="SVGID_4_"
       gradientUnits="userSpaceOnUse"
       x1="375.33401"
       y1="55.888199"
       x2="375.33401"
       y2="339.22159">
      <stop
         offset="0"
         style="stop-color:#BED5E1"
         id="stop282" />
      <stop
         offset="1"
         style="stop-color:#567B8F"
         id="stop284" />
    </linearGradient>
    <linearGradient
       id="SVGID_5_"
       gradientUnits="userSpaceOnUse"
       x1="334.49411"
       y1="55.888199"
       x2="334.49411"
       y2="339.22159">
      <stop
         offset="0"
         style="stop-color:#BED5E1"
         id="stop289" />
      <stop
         offset="1"
         style="stop-color:#567B8F"
         id="stop291" />
    </linearGradient>
    <linearGradient
       id="SVGID_6_"
       gradientUnits="userSpaceOnUse"
       x1="458.42679"
       y1="55.8867"
       x2="458.42679"
       y2="339.2236">
      <stop
         offset="0"
         style="stop-color:#BED5E1"
         id="stop296" />
      <stop
         offset="1"
         style="stop-color:#567B8F"
         id="stop298" />
    </linearGradient>
    <linearGradient
       id="SVGID_7_"
       gradientUnits="userSpaceOnUse"
       x1="413.16309"
       y1="55.888199"
       x2="413.16309"
       y2="339.22131">
      <stop
         offset="0"
         style="stop-color:#BED5E1"
         id="stop303" />
      <stop
         offset="1"
         style="stop-color:#567B8F"
         id="stop305" />
    </linearGradient>
    <linearGradient
       id="SVGID_8_"
       gradientUnits="userSpaceOnUse"
       x1="290.76169"
       y1="55.8867"
       x2="290.76169"
       y2="339.2236">
      <stop
         offset="0"
         style="stop-color:#BED5E1"
         id="stop310" />
      <stop
         offset="1"
         style="stop-color:#567B8F"
         id="stop312" />
    </linearGradient>
    <linearGradient
       id="SVGID_9_"
       gradientUnits="userSpaceOnUse"
       x1="346.77341"
       y1="55.888199"
       x2="346.77341"
       y2="339.22119">
      <stop
         offset="0"
         style="stop-color:#BED5E1"
         id="stop317" />
      <stop
         offset="1"
         style="stop-color:#567B8F"
         id="stop319" />
    </linearGradient>
    <linearGradient
       gradientTransform="matrix(1,0,0,-1,-191.2002,-3.189)"
       y2="-342.41211"
       x2="479.69431"
       y1="-59.0784"
       x1="479.69431"
       gradientUnits="userSpaceOnUse"
       id="SVGID_1_-4">
      <stop
         id="stop68"
         style="stop-color:#BED5E1"
         offset="0" />
      <stop
         id="stop70"
         style="stop-color:#567B8F"
         offset="1" />
    </linearGradient>
    <linearGradient
       gradientTransform="matrix(1,0,0,-1,-191.2002,-3.189)"
       y2="-342.41431"
       x2="442.4111"
       y1="-59.0769"
       x1="442.4111"
       gradientUnits="userSpaceOnUse"
       id="SVGID_2_-2">
      <stop
         id="stop79"
         style="stop-color:#BED5E1"
         offset="0" />
      <stop
         id="stop81"
         style="stop-color:#567B8F"
         offset="1" />
    </linearGradient>
    <linearGradient
       gradientTransform="matrix(1,0,0,-1,-191.2002,-3.189)"
       y2="-342.41541"
       x2="484.4248"
       y1="-59.0769"
       x1="484.4248"
       gradientUnits="userSpaceOnUse"
       id="SVGID_3_-6">
      <stop
         id="stop90"
         style="stop-color:#BED5E1"
         offset="0" />
      <stop
         id="stop92"
         style="stop-color:#567B8F"
         offset="1" />
    </linearGradient>
    <linearGradient
       gradientTransform="matrix(1,0,0,-1,-191.2002,-3.189)"
       y2="-342.41019"
       x2="566.5332"
       y1="-59.0784"
       x1="566.5332"
       gradientUnits="userSpaceOnUse"
       id="SVGID_4_-9">
      <stop
         id="stop101"
         style="stop-color:#BED5E1"
         offset="0" />
      <stop
         id="stop103"
         style="stop-color:#567B8F"
         offset="1" />
    </linearGradient>
    <linearGradient
       gradientTransform="matrix(1,0,0,-1,-191.2002,-3.189)"
       y2="-342.40948"
       x2="525.69238"
       y1="-59.0784"
       x1="525.69238"
       gradientUnits="userSpaceOnUse"
       id="SVGID_5_-1">
      <stop
         id="stop112"
         style="stop-color:#BED5E1"
         offset="0" />
      <stop
         id="stop114"
         style="stop-color:#567B8F"
         offset="1" />
    </linearGradient>
    <linearGradient
       gradientTransform="matrix(1,0,0,-1,-191.2002,-3.189)"
       y2="-342.41501"
       x2="649.62598"
       y1="-59.075001"
       x1="649.62598"
       gradientUnits="userSpaceOnUse"
       id="SVGID_6_-8">
      <stop
         id="stop123"
         style="stop-color:#BED5E1"
         offset="0" />
      <stop
         id="stop125"
         style="stop-color:#567B8F"
         offset="1" />
    </linearGradient>
    <linearGradient
       gradientTransform="matrix(1,0,0,-1,-191.2002,-3.189)"
       y2="-342.4119"
       x2="604.3623"
       y1="-59.0774"
       x1="604.3623"
       gradientUnits="userSpaceOnUse"
       id="SVGID_7_-8">
      <stop
         id="stop134"
         style="stop-color:#BED5E1"
         offset="0" />
      <stop
         id="stop136"
         style="stop-color:#567B8F"
         offset="1" />
    </linearGradient>
    <linearGradient
       gradientTransform="matrix(1,0,0,-1,-191.2002,-3.189)"
       y2="-342.4173"
       x2="481.96191"
       y1="-59.074001"
       x1="481.96191"
       gradientUnits="userSpaceOnUse"
       id="SVGID_8_-5">
      <stop
         id="stop145"
         style="stop-color:#BED5E1"
         offset="0" />
      <stop
         id="stop147"
         style="stop-color:#567B8F"
         offset="1" />
    </linearGradient>
    <linearGradient
       gradientTransform="matrix(1,0,0,-1,-191.2002,-3.189)"
       y2="-342.41269"
       x2="537.97357"
       y1="-59.0769"
       x1="537.97357"
       gradientUnits="userSpaceOnUse"
       id="SVGID_9_-8">
      <stop
         id="stop156"
         style="stop-color:#BED5E1"
         offset="0" />
      <stop
         id="stop158"
         style="stop-color:#567B8F"
         offset="1" />
    </linearGradient>
  </defs>
  <sodipodi:namedview
     id="base"
     pagecolor="#ffffff"
     bordercolor="#666666"
     borderopacity="1.0"
     inkscape:pageopacity="0.0"
     inkscape:pageshadow="2"
     inkscape:zoom="11.2"
     inkscape:cx="19.522073"
     inkscape:cy="-5.6023336"
     inkscape:document-units="px"
     inkscape:current-layer="g4670"
     showgrid="false"
     fit-margin-top="0"
     fit-margin-left="0"
     fit-margin-right="0"
     fit-margin-bottom="0"
     inkscape:window-width="2560"
     inkscape:window-height="1363"
     inkscape:window-x="0"
     inkscape:window-y="240"
     inkscape:window-maximized="1"
     inkscape:snap-bbox="true"
     inkscape:bbox-paths="true"
     inkscape:snap-page="true"
     inkscape:bbox-nodes="true" />
  <metadata
     id="metadata7">
    <rdf:RDF>
      <cc:Work
         rdf:about="">
        <dc:format>image/svg+xml</dc:format>
        <dc:type
           rdf:resource="http://purl.org/dc/dcmitype/StillImage" />
        <dc:title></dc:title>
      </cc:Work>
    </rdf:RDF>
  </metadata>
  <g
     inkscape:label="Layer 1"
     inkscape:groupmode="layer"
     id="layer1"
     transform="translate(-153.88228,-414.51976)">
    <g
       id="g4290">
      <g
         id="flowRoot4136-0"
         style="font-style:normal;font-variant:normal;font-weight:normal;font-stretch:normal;font-size:9.6902504px;line-height:125%;font-family:'DejaVu Sans';-inkscape-font-specification:'DejaVu Sans, Normal';text-align:start;letter-spacing:0px;word-spacing:0px;writing-mode:lr-tb;text-anchor:start;fill:#000000;fill-opacity:1;stroke:none;stroke-width:1px;stroke-linecap:butt;stroke-linejoin:miter;stroke-opacity:1;filter:url(#filter4250)"
         transform="matrix(17.642001,0,0,17.642001,-2039.9816,-7634.3176)">
        <ellipse
           ry="0.85261929"
           rx="0.85262543"
           cy="457.25232"
           cx="125.37537"
           id="path4154-1"
           style="opacity:1;fill:#ffffff;fill-opacity:1;fill-rule:evenodd;stroke:#000000;stroke-width:0.1023527;stroke-linecap:round;stroke-linejoin:round;stroke-miterlimit:4;stroke-dasharray:none;stroke-dashoffset:0;stroke-opacity:1" />
      </g>
      <g
         id="flowRoot4136"
         style="font-style:normal;font-variant:normal;font-weight:normal;font-stretch:normal;font-size:9.6902504px;line-height:125%;font-family:'DejaVu Sans';-inkscape-font-specification:'DejaVu Sans, Normal';text-align:start;letter-spacing:0px;word-spacing:0px;writing-mode:lr-tb;text-anchor:start;fill:#1d2d44;fill-opacity:1;stroke:#ffffff;stroke-width:1px;stroke-linecap:butt;stroke-linejoin:miter;stroke-opacity:1"
         transform="matrix(17.642001,0,0,17.642001,-2040.2735,-7634.6095)">
        <ellipse
           ry="0.85261929"
           rx="0.85262543"
           cy="457.25232"
           cx="125.37537"
           id="path4154"
           style="opacity:1;fill:#1d2d44;fill-opacity:1;fill-rule:evenodd;stroke:#ffffff;stroke-width:0.1023527;stroke-linecap:round;stroke-linejoin:round;stroke-miterlimit:4;stroke-dasharray:none;stroke-dashoffset:0;stroke-opacity:1" />
      </g>
    </g>
    <g
       id="g4284">
      <g
         id="flowRoot4136-0-4"
         style="font-style:normal;font-variant:normal;font-weight:normal;font-stretch:normal;font-size:9.6902504px;line-height:125%;font-family:'DejaVu Sans';-inkscape-font-specification:'DejaVu Sans, Normal';text-align:start;letter-spacing:0px;word-spacing:0px;writing-mode:lr-tb;text-anchor:start;fill:#000000;fill-opacity:1;stroke:none;stroke-width:1px;stroke-linecap:butt;stroke-linejoin:miter;stroke-opacity:1;filter:url(#filter4250-6)"
         transform="matrix(17.642001,0,0,17.642001,-2123.0794,-7635.1966)">
        <ellipse
           ry="0.85261929"
           rx="0.85262543"
           cy="457.25232"
           cx="125.37537"
           id="path4154-1-4"
           style="opacity:1;fill:#ffffff;fill-opacity:1;fill-rule:evenodd;stroke:#000000;stroke-width:0.1023527;stroke-linecap:round;stroke-linejoin:round;stroke-miterlimit:4;stroke-dasharray:none;stroke-dashoffset:0;stroke-opacity:1" />
      </g>
      <g
         id="flowRoot4136-4"
         style="font-style:normal;font-variant:normal;font-weight:normal;font-stretch:normal;font-size:9.6902504px;line-height:125%;font-family:'DejaVu Sans';-inkscape-font-specification:'DejaVu Sans, Normal';text-align:start;letter-spacing:0px;word-spacing:0px;writing-mode:lr-tb;text-anchor:start;fill:#ffffff;fill-opacity:1;stroke:#ffffff;stroke-width:1px;stroke-linecap:butt;stroke-linejoin:miter;stroke-opacity:1"
         transform="matrix(17.642001,0,0,17.642001,-2123.3713,-7635.4885)">
        <ellipse
           ry="0.85261929"
           rx="0.85262543"
           cy="457.25232"
           cx="125.37537"
           id="path4154-4"
           style="opacity:1;fill:#ffffff;fill-opacity:1;fill-rule:evenodd;stroke:#ffffff;stroke-width:0.1023527;stroke-linecap:round;stroke-linejoin:round;stroke-miterlimit:4;stroke-dasharray:none;stroke-dashoffset:0;stroke-opacity:1" />
      </g>
    </g>
    <g
       id="g4670"
       transform="matrix(0.02579393,0,0,0.02579393,193.40988,417.86948)">
      <path
         inkscape:export-ydpi="90"
         inkscape:export-xdpi="90"
         inkscape:export-filename="/home/jospoortvliet/presentation data/ownCloud artwork/ownCloud just cloud background.png"
         sodipodi:nodetypes="sscscsscscscscccccscccccssssssscscsccsscscssscsscscscccccscssccsssccs"
         inkscape:connector-curvature="0"
         id="circle238"
         d="m 833.17475,244.69346 c -54.53663,0 -98.59718,44.06051 -98.59718,98.59718 0,22.48018 7.48554,43.17033 20.1061,59.7383 27.37842,-31.68865 67.78654,-51.81188 112.90341,-51.81188 22.07321,0 43.00459,4.91528 61.86493,13.53297 1.52701,-6.90573 2.31992,-14.0879 2.31992,-21.45939 0,-54.53667 -44.06051,-98.59718 -98.59718,-98.59718 z m -128.75629,45.62537 c -28.4012,0 -51.23191,23.02399 -51.23191,51.4252 0,9.19547 2.37242,17.88418 6.57314,25.32592 17.13839,-9.66798 36.95228,-15.27287 57.99834,-15.27287 2.03111,0 3.9874,0.0825 5.99318,0.19358 -0.22706,-2.87913 -0.38668,-5.76291 -0.38668,-8.69977 0,-15.81883 3.43576,-30.86969 9.47303,-44.46538 -8.12868,-5.45086 -17.86769,-8.50644 -28.41915,-8.50644 z m 243.20636,35.37897 c -2.0982,0 -4.12072,0.25763 -6.18651,0.38668 0.89358,5.6341 1.54661,11.32312 1.54661,17.20616 0,9.15559 -1.1644,17.99025 -3.28657,26.48591 24.88132,13.76968 45.5443,34.3725 59.15833,59.35167 14.12092,-7.3514 29.87312,-12.02579 46.59202,-13.14629 -4.3088,-50.53118 -46.17167,-90.28408 -97.82388,-90.28408 z m -80.03774,36.7323 c -76.31312,0 -138.03604,61.71778 -138.03604,138.03604 0,76.30986 61.71977,138.03574 138.03604,138.03574 76.31631,0 138.03612,-61.72588 138.03612,-138.03574 0,-76.31811 -61.72296,-138.03604 -138.03612,-138.03604 z m -149.82905,0.57997 c -59.20451,0 -107.10357,47.89905 -107.10357,107.10362 0,34.85247 16.60582,65.70595 42.3388,85.25722 10.84848,-20.92332 32.6372,-35.1853 57.805,-35.1853 3.04176,0 5.9614,0.36873 8.89307,0.77336 -0.92032,-6.69579 -1.35328,-13.54587 -1.35328,-20.49283 0,-33.21469 10.81166,-63.92966 29.19246,-88.73747 -11.00257,-13.76779 -18.87649,-30.31034 -22.23269,-48.33192 -2.4874,-0.17224 -5.00818,-0.38668 -7.53979,-0.38668 z m 335.61707,63.79818 c -17.9772,0 -34.8172,4.58963 -49.6852,12.37297 8.4425,18.70077 13.1463,39.44992 13.1463,61.28492 0,40.88441 -16.4378,78.00746 -43.11215,104.97693 19.5959,21.75539 48.02725,35.37888 79.65105,35.37888 59.2045,0 107.1036,-47.8991 107.1036,-107.10357 0,-59.20442 -47.8991,-106.91013 -107.1036,-106.91013 z m -453.16037,14.11293 c -54.53823,0 -98.79047,43.86561 -98.79047,98.40379 0,54.53813 44.25224,98.79072 98.79047,98.79072 20.75803,0 39.98714,-6.46776 55.87176,-17.39955 -6.56383,-10.19967 -10.43968,-22.39386 -10.43968,-35.37936 0,-6.73946 0.99444,-13.21499 2.89989,-19.33246 -29.7376,-21.49097 -49.10528,-56.46342 -49.10528,-95.89063 0,-10.01759 1.3201,-19.70414 3.67325,-28.99917 -0.97674,-0.0291 -1.91616,-0.19358 -2.89994,-0.19358 z m 579.79007,84.67744 c -2.9095,0 -5.7247,0.32992 -8.5065,0.77336 0.1534,2.45931 0.1931,4.84876 0.1931,7.3464 0,31.4466 -12.4076,59.98801 -32.479,81.19758 9.8744,11.48294 24.3786,18.75317 40.7921,18.75317 29.8974,0 54.1318,-24.04149 54.1318,-53.93846 0,-29.89746 -24.2344,-54.13205 -54.1318,-54.13205 z m -469.20654,5.79969 c -29.89586,0 -53.93846,24.04295 -53.93846,53.93847 0,29.896 24.0426,54.13204 53.93846,54.13204 22.91556,0 42.36635,-14.29885 50.26522,-34.41242 -19.27351,-19.62987 -33.12513,-44.67274 -39.24552,-72.49805 -3.58155,-0.74037 -7.21681,-1.16004 -11.0197,-1.16004 z"
         style="color:#000000;font-style:normal;font-variant:normal;font-weight:normal;font-stretch:normal;font-size:medium;line-height:normal;font-family:Sans;-inkscape-font-specification:Sans;text-indent:0;text-align:start;text-decoration:none;text-decoration-line:none;letter-spacing:normal;word-spacing:normal;text-transform:none;direction:ltr;block-progression:tb;writing-mode:lr-tb;baseline-shift:baseline;text-anchor:start;display:inline;overflow:visible;visibility:visible;fill:#ffffff;fill-opacity:1;stroke:none;stroke-width:4;marker:none;enable-background:accumulate" />
      <path
         inkscape:export-ydpi="90"
         inkscape:export-xdpi="90"
         inkscape:export-filename="/home/jospoortvliet/presentation data/ownCloud artwork/ownCloud just cloud background.png"
         sodipodi:nodetypes="sscscsscscscscccccscccccssssssscscsccsscscssscsscscscccccscssccsssccs"
         inkscape:connector-curvature="0"
         id="circle238-0"
         d="m -836.32261,301.54641 c -65.97401,0 -119.27487,53.30087 -119.27487,119.27496 0,27.19471 9.0554,52.22401 24.32275,72.26661 33.1202,-38.33439 82.00268,-62.67786 136.58149,-62.67786 26.70239,0 52.02352,5.94611 74.8392,16.37111 1.84736,-8.35402 2.80643,-17.04242 2.80643,-25.95986 0,-65.97409 -53.30087,-119.27496 -119.275,-119.27496 z m -155.75907,55.19391 c -34.35752,0 -61.97622,27.85258 -61.97622,62.21009 0,11.12394 2.87,21.63485 7.9517,30.63727 20.7327,-11.69555 44.7019,-18.4759 70.16172,-18.4759 2.4571,0 4.8236,0.0999 7.2501,0.23402 -0.2749,-3.48292 -0.4676,-6.9715 -0.4676,-10.52428 0,-19.13635 4.1563,-37.34368 11.4597,-53.79065 -9.8336,-6.59386 -21.615,-10.29026 -34.3794,-10.29026 z m 294.21163,42.79865 c -2.53823,0 -4.98489,0.31187 -7.48393,0.46758 1.08101,6.81568 1.87083,13.6978 1.87083,20.81463 0,11.0757 -1.40835,21.76316 -3.97562,32.04053 30.0994,16.65746 55.09584,41.5811 71.56497,71.7989 17.08233,-8.89294 36.13808,-14.54765 56.36323,-15.90314 -5.21245,-61.12857 -55.85478,-109.21844 -118.33948,-109.21844 z m -96.82319,44.43579 c -92.3176,0 -166.98504,74.66121 -166.98504,166.98494 0,92.31356 74.66369,166.98459 166.98504,166.98459 92.32134,0 166.98501,-74.67103 166.98501,-166.98459 0,-92.32353 -74.66754,-166.98494 -166.98501,-166.98494 z m -181.25124,0.70161 c -71.62092,0 -129.56542,57.94444 -129.56542,129.56538 0,42.16173 20.0885,79.48579 51.2181,103.13735 13.1237,-25.31135 39.4819,-42.56435 69.92792,-42.56435 3.6797,0 7.2116,0.44601 10.7581,0.93555 -1.1133,-8.10003 -1.6371,-16.38671 -1.6371,-24.79059 0,-40.18047 13.0792,-77.33698 35.31478,-107.34748 -13.31008,-16.65518 -22.83528,-36.66703 -26.89538,-58.46809 -3.009,-0.20825 -6.0585,-0.4676 -9.121,-0.4676 z m 406.00264,77.17793 c -21.74736,0 -42.11903,5.55217 -60.10514,14.96783 10.21306,22.62269 15.90334,47.72335 15.90334,74.13758 0,49.45869 -19.88513,94.36718 -52.15369,126.99268 23.70555,26.31793 58.09958,42.79856 96.35549,42.79856 71.62087,0 129.56536,-57.94452 129.56536,-129.56534 0,-71.62076 -57.94449,-129.33131 -129.56536,-129.33131 z m -548.19716,17.07268 c -65.9759,0 -119.5088,53.0651 -119.5088,119.04102 0,65.97586 53.5329,119.50907 119.5088,119.50907 25.1114,0 48.3733,-7.82415 67.5893,-21.04855 -7.9405,-12.33875 -12.6292,-27.0903 -12.6292,-42.79912 0,-8.15286 1.2031,-15.98644 3.5081,-23.38686 -35.9742,-25.99805 -59.4036,-68.30492 -59.4036,-116.0008 0,-12.11848 1.5969,-23.83649 4.4435,-35.08087 -1.1815,-0.0352 -2.3179,-0.23404 -3.5081,-0.23404 z m 701.38363,102.43598 c -3.5198,0 -6.9253,0.39911 -10.29047,0.93555 0.18759,2.97506 0.2345,5.86564 0.2345,8.88709 0,38.04157 -15.00974,72.56868 -39.2905,98.22632 11.94524,13.89114 29.49129,22.68607 49.34699,22.68607 36.16751,0 65.48433,-29.08345 65.48433,-65.25041 0,-36.16755 -29.31682,-65.48462 -65.48433,-65.48462 z m -567.60851,7.016 c -36.16562,0 -65.25042,29.08524 -65.25042,65.25044 0,36.16579 29.0848,65.48461 65.25042,65.48461 27.7214,0 51.25146,-17.29761 60.80692,-41.62939 -23.31552,-23.74665 -40.07222,-54.0415 -47.47622,-87.70233 -4.3326,-0.89565 -8.7303,-1.40333 -13.3307,-1.40333 z"
         style="color:#000000;font-style:normal;font-variant:normal;font-weight:normal;font-stretch:normal;font-size:medium;line-height:normal;font-family:Sans;-inkscape-font-specification:Sans;text-indent:0;text-align:start;text-decoration:none;text-decoration-line:none;letter-spacing:normal;word-spacing:normal;text-transform:none;direction:ltr;block-progression:tb;writing-mode:lr-tb;baseline-shift:baseline;text-anchor:start;display:inline;overflow:visible;visibility:visible;fill:#ffffff;fill-opacity:1;stroke:none;stroke-width:4;marker:none;enable-background:accumulate" />
    </g>
  </g>
</svg>
