<svg xmlns="http://www.w3.org/2000/svg" width="10mm" height="10mm" viewBox="0 0 35.433071 35.43307"><defs><filter id="j" x="-.079" width="1.158" y="-.079" height="1.158" color-interpolation-filters="sRGB"><feGaussianBlur stdDeviation=".056"/></filter><linearGradient id="a" gradientUnits="userSpaceOnUse" x1="288.494" y1="55.888" x2="288.494" y2="339.222"><stop offset="0" stop-color="#bed5e1"/><stop offset="1" stop-color="#567b8f"/></linearGradient><linearGradient id="b" gradientUnits="userSpaceOnUse" x1="251.211" y1="55.888" x2="251.211" y2="339.222"><stop offset="0" stop-color="#bed5e1"/><stop offset="1" stop-color="#567b8f"/></linearGradient><linearGradient id="c" gradientUnits="userSpaceOnUse" x1="293.225" y1="55.888" x2="293.225" y2="339.222"><stop offset="0" stop-color="#bed5e1"/><stop offset="1" stop-color="#567b8f"/></linearGradient><linearGradient id="d" gradientUnits="userSpaceOnUse" x1="375.334" y1="55.888" x2="375.334" y2="339.222"><stop offset="0" stop-color="#bed5e1"/><stop offset="1" stop-color="#567b8f"/></linearGradient><linearGradient id="e" gradientUnits="userSpaceOnUse" x1="334.494" y1="55.888" x2="334.494" y2="339.222"><stop offset="0" stop-color="#bed5e1"/><stop offset="1" stop-color="#567b8f"/></linearGradient><linearGradient id="f" gradientUnits="userSpaceOnUse" x1="458.427" y1="55.887" x2="458.427" y2="339.224"><stop offset="0" stop-color="#bed5e1"/><stop offset="1" stop-color="#567b8f"/></linearGradient><linearGradient id="g" gradientUnits="userSpaceOnUse" x1="413.163" y1="55.888" x2="413.163" y2="339.221"><stop offset="0" stop-color="#bed5e1"/><stop offset="1" stop-color="#567b8f"/></linearGradient><linearGradient id="h" gradientUnits="userSpaceOnUse" x1="290.762" y1="55.887" x2="290.762" y2="339.224"><stop offset="0" stop-color="#bed5e1"/><stop offset="1" stop-color="#567b8f"/></linearGradient><linearGradient id="i" gradientUnits="userSpaceOnUse" x1="346.773" y1="55.888" x2="346.773" y2="339.221"><stop offset="0" stop-color="#bed5e1"/><stop offset="1" stop-color="#567b8f"/></linearGradient></defs><g font-weight="400" font-size="9.69" font-family="DejaVu Sans" letter-spacing="0" word-spacing="0"><ellipse ry=".853" rx=".853" cy="457.252" cx="125.375" fill="#fff" fill-rule="evenodd" stroke="#000" stroke-width=".102" stroke-linecap="round" stroke-linejoin="round" style="line-height:125%;-inkscape-font-specification:'DejaVu Sans, Normal';text-align:start" transform="translate(-2193.864 -8048.837) scale(17.642)" filter="url(#j)"/><g style="line-height:125%;-inkscape-font-specification:'DejaVu Sans, Normal';text-align:start" transform="translate(-2194.156 -8049.13) scale(17.642)" fill="#fff" stroke="#fff"><ellipse ry=".853" rx=".853" cy="457.252" cx="125.375" fill="#7f2aff" fill-rule="evenodd" stroke-width=".102" stroke-linecap="round" stroke-linejoin="round"/><path style="line-height:125%;-inkscape-font-specification:FontAwesome;text-align:start" d="M125.886 457.082v-.256a.086.086 0 0 0-.085-.085c-.128.107-.34.256-.596.256h-.32a.107.107 0 0 0-.106.106v.128c0 .059.048.107.107.107h.08c-.046.15.012.268.05.386.061.057.233.055.274-.026-.07-.055-.13-.11-.084-.186-.051-.053-.024-.145.055-.172.23.02.422.154.54.253a.086.086 0 0 0 .085-.085v-.256a.085.085 0 0 0 .085-.085.085.085 0 0 0-.085-.085zm-.085.402a1.03 1.03 0 0 0-.51-.227v-.18c.168-.02.337-.095.51-.228v.635z" font-size="medium" font-family="FontAwesome" stroke="none"/></g></g></svg>