<svg xmlns="http://www.w3.org/2000/svg" width="10mm" height="10mm" viewBox="0 0 35.433071 35.43307"><defs><filter id="a" x="-.079" width="1.158" y="-.079" height="1.158" color-interpolation-filters="sRGB"><feGaussianBlur stdDeviation=".056"/></filter><filter id="b" x="-.079" width="1.158" y="-.079" height="1.158" color-interpolation-filters="sRGB"><feGaussianBlur stdDeviation=".056"/></filter></defs><g font-weight="400"><g font-size="9.69" font-family="DejaVu Sans" letter-spacing="0" word-spacing="0" fill-rule="evenodd" stroke-width=".102" stroke-linecap="round" stroke-linejoin="round"><ellipse ry=".853" rx=".853" cy="457.252" cx="125.375" fill="#fff" stroke="#000" style="line-height:125%;-inkscape-font-specification:'DejaVu Sans, Normal';text-align:start" transform="translate(-2193.864 -8048.837) scale(17.642)" filter="url(#a)"/><ellipse ry=".853" rx=".853" cy="457.252" cx="125.375" style="line-height:125%;-inkscape-font-specification:'DejaVu Sans, Normal';text-align:start" transform="translate(-2194.156 -8049.13) scale(17.642)" fill="#1d2d44" stroke="#fff"/></g><g font-size="9.69" font-family="DejaVu Sans" letter-spacing="0" word-spacing="0" fill="#fff" fill-rule="evenodd" stroke-width=".102" stroke-linecap="round" stroke-linejoin="round"><ellipse ry=".853" rx=".853" cy="457.252" cx="125.375" stroke="#000" style="line-height:125%;-inkscape-font-specification:'DejaVu Sans, Normal';text-align:start" transform="translate(-2276.962 -8049.716) scale(17.642)" filter="url(#b)"/><ellipse ry=".853" rx=".853" cy="457.252" cx="125.375" style="line-height:125%;-inkscape-font-specification:'DejaVu Sans, Normal';text-align:start" transform="translate(-2277.254 -8050.008) scale(17.642)" stroke="#fff"/></g><path d="M61.018 9.661a2.54 2.54 0 0 0-2.543 2.544c0 .58.193 1.113.519 1.54a3.84 3.84 0 0 1 4.508-.987 2.54 2.54 0 0 0-2.483-3.097zm-3.32 1.177c-.733 0-1.322.594-1.322 1.327 0 .237.061.46.17.653a3.039 3.039 0 0 1 1.65-.39 2.82 2.82 0 0 1 .234-1.371 1.31 1.31 0 0 0-.733-.219zm6.273.913c-.055 0-.107.006-.16.01.023.145.04.292.04.444 0 .236-.03.464-.085.683a3.876 3.876 0 0 1 1.526 1.53 3.03 3.03 0 0 1 1.202-.338 2.535 2.535 0 0 0-2.523-2.33zm-2.065.947a3.558 3.558 0 0 0-3.56 3.56 3.558 3.558 0 0 0 3.56 3.561 3.558 3.558 0 0 0 3.56-3.56 3.558 3.558 0 0 0-3.56-3.56zm-3.865.015a2.76 2.76 0 0 0-1.67 4.962c.28-.54.842-.908 1.49-.908.08 0 .155.01.23.02a3.884 3.884 0 0 1-.035-.528c0-.857.28-1.65.753-2.29a2.831 2.831 0 0 1-.573-1.246c-.064-.004-.13-.01-.195-.01zm8.657 1.646a2.75 2.75 0 0 0-1.281.319 3.84 3.84 0 0 1 .339 1.58 3.84 3.84 0 0 1-1.112 2.708 2.756 2.756 0 0 0 2.054.913 2.76 2.76 0 1 0 0-5.52zm-11.689.364a2.54 2.54 0 0 0-2.548 2.538 2.549 2.549 0 0 0 3.99 2.1 1.685 1.685 0 0 1-.195-1.412 3.047 3.047 0 0 1-1.172-3.221c-.025-.001-.05-.005-.075-.005zm14.956 2.184c-.075 0-.148.008-.22.02a3.038 3.038 0 0 1-.833 2.284 1.392 1.392 0 0 0 2.448-.908c0-.77-.624-1.396-1.395-1.396zm-12.103.15c-.771 0-1.391.62-1.391 1.39a1.392 1.392 0 0 0 2.687.51 3.852 3.852 0 0 1-1.012-1.87 1.394 1.394 0 0 0-.284-.03zm-39.906-5.929a3.073 3.073 0 0 0-3.077 3.076c0 .702.234 1.347.627 1.864a4.645 4.645 0 0 1 5.454-1.194c.047-.216.072-.44.072-.67a3.073 3.073 0 0 0-3.076-3.076zm-4.018 1.423a1.6 1.6 0 0 0-1.599 1.605c0 .287.074.558.205.79a3.676 3.676 0 0 1 1.997-.47 3.412 3.412 0 0 1 .284-1.659 1.581 1.581 0 0 0-.887-.266zm7.589 1.104c-.066 0-.129.008-.193.012.028.176.048.354.048.537a3.4 3.4 0 0 1-.103.827 4.689 4.689 0 0 1 1.846 1.852c.441-.23.933-.375 1.454-.41a3.067 3.067 0 0 0-3.052-2.818zm-2.498 1.147a4.304 4.304 0 0 0-4.307 4.307 4.304 4.304 0 0 0 4.307 4.307 4.304 4.304 0 0 0 4.308-4.307 4.304 4.304 0 0 0-4.308-4.307zm-4.675.018a3.34 3.34 0 0 0-2.02 6.002 2.03 2.03 0 0 1 1.803-1.098c.095 0 .186.012.277.024a4.698 4.698 0 0 1-.042-.64c0-1.036.338-1.994.911-2.768a3.425 3.425 0 0 1-.694-1.508 3.03 3.03 0 0 0-.235-.012zm10.473 1.99c-.561 0-1.087.144-1.55.386.263.584.41 1.231.41 1.913a4.645 4.645 0 0 1-1.346 3.275 3.334 3.334 0 0 0 2.486 1.104 3.34 3.34 0 1 0 0-6.678zm-14.14.44a3.073 3.073 0 0 0-3.083 3.071 3.083 3.083 0 0 0 3.082 3.083c.648 0 1.248-.202 1.744-.543a2.039 2.039 0 0 1-.235-1.707 3.686 3.686 0 0 1-1.418-3.897c-.03-.001-.06-.006-.09-.006zm18.09 2.643c-.09 0-.178.01-.265.024a3.675 3.675 0 0 1-1.007 2.763 1.684 1.684 0 0 0 2.962-1.098 1.69 1.69 0 0 0-1.69-1.689zm-14.64.181c-.933 0-1.683.75-1.683 1.683s.75 1.69 1.683 1.69c.715 0 1.322-.447 1.568-1.075a4.66 4.66 0 0 1-1.224-2.262 1.686 1.686 0 0 0-.344-.036z" style="line-height:normal;-inkscape-font-specification:Sans;text-indent:0;text-align:start;text-decoration-line:none;text-transform:none;block-progression:tb;marker:none" overflow="visible" enable-background="accumulate" color="#000" font-family="Sans" fill="#fff"/></g></svg>