<svg xmlns="http://www.w3.org/2000/svg" width="10mm" height="10mm" viewBox="0 0 35.433071 35.43307"><defs><filter id="a" x="-.079" width="1.158" y="-.079" height="1.158" color-interpolation-filters="sRGB"><feGaussianBlur stdDeviation=".056"/></filter></defs><g font-weight="400" font-size="9.69" font-family="DejaVu Sans" letter-spacing="0" word-spacing="0" fill="#fff"><ellipse ry=".853" rx=".853" cy="457.252" cx="125.375" fill-rule="evenodd" stroke="#000" stroke-width=".102" stroke-linecap="round" stroke-linejoin="round" style="line-height:125%;-inkscape-font-specification:'DejaVu Sans, Normal';text-align:start" transform="translate(-2193.864 -8048.837) scale(17.642)" filter="url(#a)"/><g style="line-height:125%;-inkscape-font-specification:'DejaVu Sans, Normal';text-align:start" transform="translate(-2194.156 -8049.13) scale(17.642)" stroke="#fff"><ellipse ry=".853" rx=".853" cy="457.252" cx="125.375" fill="#0cf" fill-rule="evenodd" stroke-width=".102" stroke-linecap="round" stroke-linejoin="round"/><path style="line-height:125%;-inkscape-font-specification:FontAwesome;text-align:start" d="M125.966 457.621h-1.107v-.812h-.074v.886h1.181v-.074zm-.074-.72a.018.018 0 0 0-.019-.018h-.25a.019.019 0 0 0-.014.032l.07.07-.268.267-.134-.134c-.008-.008-.019-.008-.026 0l-.338.337.11.11.24-.24.135.135c.008.008.02.008.027 0l.365-.365.07.07c.01.011.031.004.031-.013v-.251z" font-size="medium" font-family="FontAwesome" stroke="none"/></g></g></svg>