<svg xmlns="http://www.w3.org/2000/svg" width="10mm" height="10mm" viewBox="0 0 35.433 35.433"><defs><filter id="a" width="1.158" height="1.158" x="-.079" y="-.079" color-interpolation-filters="sRGB"><feGaussianBlur stdDeviation=".056"/></filter></defs><g fill="#fff" font-family="DejaVu Sans" font-size="9.69" font-weight="400" letter-spacing="0" word-spacing="0"><ellipse cx="125.375" cy="457.252" fill-rule="evenodd" stroke="#000" stroke-linecap="round" stroke-linejoin="round" stroke-width=".102" style="line-height:125%;-inkscape-font-specification:'DejaVu Sans, Normal';text-align:start" filter="url(#a)" rx=".853" ry=".853" transform="translate(-2193.864 -8048.837) scale(17.642)"/><g style="line-height:125%;-inkscape-font-specification:'DejaVu Sans, Normal';text-align:start" stroke="#fff" transform="translate(-2194.156 -8049.13) scale(17.642)"><ellipse cx="125.375" cy="457.252" fill="#0cf" fill-rule="evenodd" stroke-linecap="round" stroke-linejoin="round" stroke-width=".102" rx=".853" ry=".853"/><path style="line-height:125%;-inkscape-font-specification:FontAwesome;text-align:start" stroke="none" d="M125.966 457.621h-1.107v-.812h-.074v.886h1.181v-.074zm-.074-.72a.018.018 0 0 0-.019-.018h-.25a.019.019 0 0 0-.014.032l.07.07-.268.267-.134-.134c-.008-.008-.019-.008-.026 0l-.338.337.11.11.24-.24.135.135c.008.008.02.008.027 0l.365-.365.07.07c.01.011.031.004.031-.013v-.251z" font-family="FontAwesome" font-size="medium"/></g></g></svg>