<svg xmlns="http://www.w3.org/2000/svg" width="367.308" height="44" viewBox="0 0 367.308 44"><path fill="#00AFF4" d="M0 .962v7.584h10.796v34.567h9.354V8.546h10.569V.962zm240.737 0v7.584h10.798v34.567h9.351V8.546h10.568V.962zM34.156 43.113h9.471V24.828h11.76v18.285h9.354V.885h-9.527v16.359H43.568V.885h-9.412zM179.114.885h-9.412v42.228l9.441-20.288z"/><path fill="#FF3287" d="M179.143 22.825l.03 20.288 10.185-21.945V.885z"/><path fill="#C87296" d="M169.702 43.113h9.471l-.03-20.288z"/><path fill="#00AFF4" d="M198.769.885l-9.411 20.283v21.945l9.44-20.288z"/><path fill="#C87296" d="M189.358.885v20.283L198.769.885z"/><path fill="#FF3287" d="M209.013.885l-10.215 21.94.03 20.288L218.424.885z"/><path fill="#C87296" d="M189.358 43.113h9.47l-.03-20.288z"/><path fill="#FF3287" d="M138.471 43.035h26.542v-7.583h-17.188V24.828h13.106v-7.584H147.71V8.546h17.303V.962h-26.542z"/><path fill="#00AFF4" d="M70.463 43.035h26.541v-7.583H79.818V24.828h13.106v-7.584H79.703V8.546h17.301V.962H70.463z"/><path fill="#FF3287" d="M102.786 43.113h8.225v-19.69c0-1.098-.211-6.476-.257-7.689h.257c2.358 5.14 2.426 5.324 3.417 6.997l10.669 20.383h7.407V.885h-8.225V16.66c0 1.616 0 1.961.153 4.86l.204 4.271h-.249c-.166-.288-.79-1.846-.974-2.193a60.93 60.93 0 0 0-1.56-2.888L111.388.886h-8.601l-.001 42.227z"/><path fill="#00AFF4" d="M277.222.972l-11.955 42.14h9.068l2.194-8.661h12.993l2.135 8.661h9.065L288.481.972h-11.259zm10.452 26.858h-9.525l4.618-19.293h.231l4.676 19.293zm12.941-.017c0 8.662 2.194 10.979 3.888 12.587 2.589 2.492 5.919 3.6 10.722 3.6 1.809 0 6.138-.386 9.142-2.712 3.523-2.715 4.101-5.68 4.448-7.354.288-1.79.348-2.138.404-5.197h-9.355c0 4.561-1.125 7.679-4.86 7.679-5.031 0-5.031-4.444-5.031-6.754V13.541c0-1.165.059-3.246 1.527-4.627.955-.868 2.406-1.33 3.563-1.33 4.629 0 4.743 4.619 4.801 6.706h9.355c-.116-3.416-.577-8.575-4.417-11.518C321.835.509 318.014 0 315.462 0c-9.777 0-14.848 5.378-14.848 15.042v12.771zm31.699 15.3h9.471V.885h-9.471v42.228zM354.949.885l-12.814 20.374 14.03 21.855h11.144l-15.07-22.547L365.174.886 354.949.885zM231.091.962c-8.844 0-13.316 4.889-13.316 11.827 0 8.296 4.889 10.134 11.278 12.597 7.014 2.454 8.931 3.137 8.931 6.285 0 3.829-4.013 4.744-6.247 4.744-4.022 0-6.995-2.174-8.361-5.716l-6.468 4.745c3.464 6.775 7.333 8.555 15.273 8.555 2.357 0 6.197-.635 8.576-2.126 5.772-3.62 5.772-9.231 5.772-11.117 0-3.944-1.779-6.688-2.282-7.373-1.606-2.292-4.484-4.003-7.024-4.917l-5.939-1.945c-2.867-.924-5.928-1.154-5.928-4.126 0-.444.117-3.552 4.792-3.851h7.382V.962h-6.439z"/></svg>