<svg width="15" height="15" viewBox="0 0 15 15" fill="none" xmlns="http://www.w3.org/2000/svg">
<path d="M2.97906 3.92533C3.04846 3.76536 3.14123 3.63022 3.32531 3.59005C3.36621 3.58128 3.40858 3.57544 3.45022 3.57544C4.95278 3.57471 6.45535 3.57471 7.95792 3.57471C8.15953 3.57471 8.31073 3.66455 8.39036 3.85009C8.46413 4.02175 8.43784 4.1883 8.31366 4.33147C8.20993 4.45054 8.07187 4.48779 7.9192 4.48779C7.10912 4.48706 6.29976 4.48779 5.48968 4.48779C4.98565 4.48779 4.48163 4.48779 3.97761 4.48779C3.95205 4.48779 3.92721 4.48998 3.89653 4.49144C3.89653 6.60687 3.89653 8.71646 3.89653 10.8319C6.00831 10.8319 8.11789 10.8319 10.2428 10.8319C10.2428 10.7924 10.2428 10.7515 10.2428 10.7106C10.2428 9.41259 10.2428 8.11528 10.2428 6.81724C10.2428 6.55793 10.3568 6.38627 10.5693 6.32053C10.8484 6.23433 11.1369 6.43375 11.1544 6.72448C11.1559 6.74712 11.1559 6.76976 11.1559 6.79241C11.1559 8.28183 11.1559 9.77198 11.1559 11.2614C11.1559 11.5076 11.0281 11.6814 10.8053 11.7369C10.7622 11.7479 10.7154 11.7493 10.6701 11.7493C8.26983 11.7501 5.86952 11.7494 3.46921 11.7508C3.21501 11.7508 3.06818 11.6201 2.97906 11.3987C2.97906 8.9093 2.97906 6.41695 2.97906 3.92533Z" fill="white"/>
<path d="M12.6205 1.75879C12.782 1.82599 12.9171 1.92022 12.9565 2.1043C12.9675 2.1547 12.9704 2.2073 12.9704 2.25843C12.9712 3.43886 12.9668 4.62002 12.9741 5.80046C12.9755 6.07146 12.7922 6.2979 12.5168 6.30229C12.2546 6.30667 12.0603 6.09337 12.0588 5.80046C12.0566 5.41039 12.0581 5.01959 12.0581 4.62952C12.0581 4.2358 12.0581 3.84208 12.0581 3.44909C12.0581 3.41476 12.0581 3.38115 12.0581 3.34682C12.0471 3.33952 12.0362 3.33294 12.0252 3.32564C12.0004 3.35851 11.9792 3.39503 11.9507 3.42352C10.4467 4.92828 8.94191 6.43231 7.43861 7.93707C7.29836 8.07732 7.14277 8.1584 6.9397 8.10069C6.63071 8.01231 6.50945 7.63977 6.70814 7.3863C6.74028 7.34539 6.77681 7.30814 6.81333 7.27161C8.31005 5.77416 9.80751 4.2767 11.3057 2.77998C11.3342 2.75149 11.3751 2.73469 11.4102 2.71205C11.4007 2.6989 11.3919 2.68502 11.3824 2.67187C11.3451 2.67187 11.3079 2.67187 11.2706 2.67187C10.4963 2.67187 9.72204 2.67187 8.94775 2.67187C8.81481 2.67187 8.6899 2.64923 8.58544 2.55719C8.33635 2.33805 8.3904 1.9436 8.6899 1.80116C8.71838 1.78801 8.74541 1.7734 8.77317 1.75952C10.0573 1.75879 11.3393 1.75879 12.6205 1.75879Z" fill="white"/>
</svg>
