<svg width="18" height="19" viewBox="0 0 18 19" fill="none" xmlns="http://www.w3.org/2000/svg">
<path fill-rule="evenodd" clip-rule="evenodd" d="M17.6324 9.5C17.6324 7.94679 16.7099 6.62573 15.4232 6.13825C15.4266 6.0718 15.4283 6.00487 15.4283 5.9375C15.4283 3.96999 13.9482 2.375 12.1223 2.375C12.0597 2.375 11.9976 2.37687 11.936 2.38057C11.4836 0.993993 10.2576 0 8.8162 0C7.37478 0 6.14882 0.993991 5.69643 2.38056C5.63476 2.37687 5.57264 2.375 5.51012 2.375C3.68423 2.375 2.20405 3.96999 2.20405 5.9375C2.20405 6.00487 2.20578 6.0718 2.20921 6.13825C0.922444 6.62573 0 7.94679 0 9.5C0 11.0532 0.922446 12.3743 2.20921 12.8617C2.20579 12.9282 2.20405 12.9951 2.20405 13.0625C2.20405 15.03 3.68423 16.625 5.51012 16.625C5.57265 16.625 5.63476 16.6231 5.69643 16.6194C6.14882 18.006 7.37478 19 8.8162 19C10.2576 19 11.4836 18.006 11.936 16.6194C11.9976 16.6231 12.0597 16.625 12.1223 16.625C13.9482 16.625 15.4283 15.03 15.4283 13.0625C15.4283 12.9951 15.4266 12.9282 15.4232 12.8617C16.71 12.3743 17.6324 11.0532 17.6324 9.5ZM12.8936 7.76134C13.2451 7.3353 13.1846 6.70503 12.7585 6.35359C12.3325 6.00215 11.7022 6.06262 11.3508 6.48866L7.66982 10.9509L6.24305 9.41352C5.86737 9.00869 5.23464 8.98507 4.82982 9.36075C4.425 9.73644 4.40138 10.3692 4.77706 10.774L6.59247 12.7302C7.20974 13.3953 8.27164 13.3644 8.84907 12.6644L12.8936 7.76134Z" fill="white"/>
</svg>
