<svg id="artwork" xmlns="http://www.w3.org/2000/svg" height="575.8" viewBox="563.7 148.6 657.2 575.8" width="657.2"><style>.st0{fill:#000020}.st1{fill:#e95420}.st2{fill:#fff}</style><path class="st0" d="M598.4 669.4c8.2 0 14.3-1.1 18.2-3.2 4-2.2 5.9-5.6 5.9-10.4 0-4.9-1.9-8.8-5.8-11.7s-10.3-6.1-19.2-9.7c-4.3-1.7-8.5-3.5-12.4-5.3-4-1.8-7.4-3.9-10.3-6.4-2.9-2.4-5.2-5.4-6.9-8.8-1.7-3.5-2.6-7.7-2.6-12.7 0-9.9 3.7-17.8 11-23.6s17.3-8.7 30-8.7c3.2 0 6.3.2 9.5.5 3.2.4 6.1.8 8.9 1.3 2.7.5 5.1 1 7.2 1.6s3.7 1.1 4.9 1.5l-3.7 17.3c-2.2-1.2-5.5-2.3-10.1-3.6-4.6-1.2-10.1-1.8-16.6-1.8-5.6 0-10.5 1.1-14.7 3.3s-6.3 5.7-6.3 10.5c0 2.4.5 4.6 1.4 6.5s2.4 3.6 4.3 5.1 4.3 2.9 7.2 4.2 6.3 2.7 10.4 4.1c5.3 2 10.1 4 14.2 5.9 4.2 1.9 7.7 4.2 10.7 6.8 2.9 2.6 5.2 5.7 6.8 9.4s2.4 8.2 2.4 13.5c0 10.4-3.9 18.2-11.5 23.5-7.7 5.3-18.7 8-32.9 8-9.9 0-17.7-.8-23.3-2.5s-9.4-2.9-11.4-3.8l3.7-17.3c2.3.9 6 2.2 11 3.9 5 1.8 11.7 2.6 20 2.6zM664.2 574.9c4.6-1.1 10.7-2.4 18.3-3.7s16.4-1.9 26.3-1.9c8.9 0 16.3 1.3 22.2 3.8s10.6 6 14.1 10.6c3.5 4.5 6 10 7.4 16.3s2.2 13.3 2.2 20.9v63h-20.1v-58.7c0-6.9-.5-12.8-1.4-17.7s-2.5-8.8-4.6-11.9c-2.2-3-5-5.2-8.6-6.6s-8.1-2.1-13.4-2.1c-2.2 0-4.4.1-6.7.2s-4.5.3-6.6.5-4 .5-5.6.8c-1.7.3-2.8.5-3.6.6v94.8H664l.2-108.9zM820.1 568.8c8.1 0 14.9 1 20.4 3.1s10 5 13.4 8.8 5.8 8.3 7.2 13.6 2.2 11 2.2 17.4v70.1c-1.7.3-4.1.7-7.2 1.2s-6.6 1-10.5 1.4-8.1.8-12.6 1.2-9 .5-13.5.5c-6.3 0-12.2-.6-17.5-1.9s-9.9-3.3-13.8-6.2c-3.9-2.8-6.9-6.5-9.1-11.1s-3.2-10.1-3.2-16.6c0-6.2 1.3-11.5 3.8-16s5.9-8.1 10.3-10.8c4.3-2.7 9.4-4.7 15.1-6 5.8-1.3 11.8-1.9 18.1-1.9 2 0 4.1.1 6.3.3s4.2.5 6.2.9c1.9.4 3.6.7 5.1 1 1.4.3 2.4.5 3 .6v-5.6c0-3.3-.4-6.6-1.1-9.8s-2-6.1-3.9-8.6-4.4-4.5-7.7-6c-3.2-1.5-7.4-2.3-12.6-2.3-6.6 0-12.4.5-17.4 1.4s-8.7 1.9-11.1 2.9l-2.4-16.6c2.6-1.2 6.9-2.3 13-3.3 5.9-1.1 12.4-1.7 19.5-1.7zm1.7 100.6c4.7 0 9-.1 12.6-.3 3.7-.2 6.7-.6 9.2-1.2v-33.5c-1.4-.7-3.8-1.3-7-1.8s-7.2-.8-11.8-.8c-3 0-6.2.2-9.6.6s-6.5 1.3-9.3 2.7-5.1 3.2-7 5.6-2.8 5.5-2.8 9.4c0 7.2 2.3 12.2 6.9 15 4.6 2.9 10.9 4.3 18.8 4.3zM991 628c0 8.5-1.1 16.3-3.3 23.5s-5.5 13.4-9.8 18.6-9.6 9.2-15.9 12.1-13.4 4.3-21.5 4.3c-6.5 0-12.2-.9-17.2-2.6s-8.7-3.4-11.1-5v44.9h-20.1V575.1c4.7-1.2 10.7-2.4 17.8-3.8s15.4-2.1 24.7-2.1c8.6 0 16.4 1.4 23.3 4.1s12.8 6.6 17.7 11.7c4.9 5 8.7 11.2 11.3 18.5 2.8 7.3 4.1 15.4 4.1 24.5zm-20.9 0c0-13.1-3.2-23.2-9.7-30.2s-15.1-10.6-25.9-10.6c-6 0-10.8.2-14.1.6s-6.1.9-8.1 1.5v70.8c2.4 2 6 4 10.6 5.8 4.6 1.9 9.6 2.8 15.1 2.8 5.8 0 10.7-1 14.8-3.1s7.4-5 10-8.6c2.6-3.7 4.5-8 5.6-13 1.1-4.9 1.7-10.3 1.7-16zM1113.8 628c0 8.5-1.1 16.3-3.3 23.5s-5.5 13.4-9.8 18.6-9.6 9.2-15.9 12.1-13.4 4.3-21.5 4.3c-6.5 0-12.2-.9-17.2-2.6s-8.7-3.4-11.1-5v44.9h-20V575.1c4.7-1.2 10.7-2.4 17.8-3.8s15.4-2.1 24.7-2.1c8.6 0 16.4 1.4 23.3 4.1s12.8 6.6 17.7 11.7c4.9 5 8.7 11.2 11.3 18.5 2.7 7.3 4 15.4 4 24.5zm-20.9 0c0-13.1-3.2-23.2-9.7-30.2s-15.1-10.6-25.9-10.6c-6 0-10.8.2-14.1.6-3.4.4-6.1.9-8.1 1.5v70.8c2.4 2 6 4 10.6 5.8 4.6 1.9 9.6 2.8 15.1 2.8 5.8 0 10.7-1 14.8-3.1s7.4-5 10-8.6c2.6-3.7 4.5-8 5.6-13 1.1-4.9 1.7-10.3 1.7-16zM1121.6 704.8c1.6.7 3.6 1.4 6.2 2.1 2.5.6 5 1 7.4 1 7.9 0 14.1-1.8 18.6-5.3s8.5-9.2 12.1-17.2c-9.1-17.3-17.5-35.6-25.4-54.9-7.8-19.4-14.4-39-19.5-58.8h21.6c1.6 6.5 3.5 13.5 5.7 20.9 2.2 7.5 4.7 15.2 7.4 23.1s5.7 15.8 8.8 23.7c3.2 7.9 6.5 15.5 9.9 22.9 5.5-15.1 10.2-30.1 14.2-44.9s7.8-30.1 11.4-45.8h20.7c-5.2 21.2-10.9 41.5-17.3 61-6.3 19.5-13.2 37.7-20.5 54.7-2.9 6.5-5.9 12-9 16.7s-6.5 8.5-10.3 11.5c-3.7 3-8 5.3-12.6 6.7-4.7 1.4-10 2.2-15.9 2.2-1.6 0-3.2-.1-5-.3-1.7-.2-3.4-.5-5.1-.9s-3.2-.8-4.5-1.2c-1.4-.4-2.3-.8-2.9-1.1l4-16.1z"/><circle cy="318.7" cx="892.3" r="170.1" class="st1"/><path class="st2" d="M914.4 264.8l-18.3 9.1 18.3 9.2zM914.4 260.9V250c0-.2 0-.3.1-.4 0 0 0-.1.1-.1 0-.1.1-.2.1-.3s.1-.1.1-.1l.2-.2.1-.1.1-.1h.2l8.9-4.4-31.9-16-43.8 21.9 43.8 21.9 22-11.2zM798.7 368.1l44.3 22.1v-43.8l-44.3-22.1zM840.8 297.7l-42.1-21V320.5l.2.1 1.9.9 42.2 21.1V298.8l-.2-.1zM888.5 273.9l-20.8-10.4-7.9-3.9-15.1-7.6-1.7.8-42.2 21.1 41.7 20.9.5.2 1.7.8 1.7-.8zM941.6 390.2l44.2-22.1v-43.8l-44.2 22.1zM963.7 323.2c-.1 0-.3 0-.4-.1h-.1c-.1 0-.1 0-.2-.1l-21.3-10.7v30.2l42.1-21.1-8.1-4.1-11.1 5.6c-.1 0-.1 0-.2.1h-.1c-.3.2-.5.2-.6.2zM894.2 370.1l-.2.1V414l42.1-21 1.9-1 .2-.1V348.1l-42.1 21zM888.5 369.1l-42.1-21V391.9l.2.1 1.9 1 42.1 21V370.2l-.2-.1z"/><path class="st2" d="M965.4 275v43.8l6.4-3.2 1.9-1 1.9-.9 34-17v-43.9zM941.6 298.6v10l20.4 10.2V275l-20.4-10.2-1.7-.9-1.7-.9-10.2-5.1-1.9-1-1.9-1-6.4-3.2v31.9l20.4 10.2 1.7.9.8.4h.2c.1 0 .1.1.1.1.1 0 .1.1.1.1l.2.2.1.1c.1.1.1.2.1.3 0 0 0 .1.1.1 0 .1.1.3.1.5l-.1 1.1zM928 254.1l1.9 1 1.9.9 6.4 3.2 1.7.9 1.7.8 22.1 11.1 43.8-21.9-43.8-21.9-31.9 15.9-1.9 1-1.9.9-8.1 4.1z"/><path class="st2" d="M929.9 304.6l-1.9 1-31.9 15.9-1.9 1-.2.1v43.8l42.1-21.1 1.9-.9.2-.1v-43.8l-6.4 3.2zM890.4 322.5l-1.9-1-20.8-10.4-21.3-10.6V344.3l.2.1 1.9.9 20 10 22.1 11.1V322.6zM924.2 303.7l1.9-1 1.9-.9 8.1-4.1-18.3-9.1-1.7-.9-1.7-.8-20.4-10.2-1.7-.9-1.7.9-42.1 21 20 10 22.1 11.1 1.7.8 1.7-.8z"/></svg>