<svg xmlns="http://www.w3.org/2000/svg" xmlns:svg="http://www.w3.org/2000/svg" id="livetype" width="170" height="60" version="1.1" viewBox="0 0 170 60"><metadata id="metadata71"/><title id="title2">Download_on_the_App_Store_Badge_US-UK_RGB_blk_4SVG_092917</title><g id="g64" transform="matrix(1.4206401,0,0,1.4206401,0,1.5872903)"><g id="g33"><g id="g8"><path id="path4" d="M 110.13477,0 H 9.53468 C 9.16798,0 8.80568,0 8.43995,0.002 8.1338,0.004 7.83009,0.00981 7.521,0.0147 a 13.21476,13.21476 0 0 0 -2.0039,0.17671 6.66509,6.66509 0 0 0 -1.90088,0.627 6.43779,6.43779 0 0 0 -1.61865,1.17866 6.25844,6.25844 0 0 0 -1.17822,1.62109 6.60119,6.60119 0 0 0 -0.625,1.90332 12.993,12.993 0 0 0 -0.1792,2.002 C 0.00587,7.83008 0.00489,8.1377 0,8.44434 V 31.5586 c 0.00489,0.3105 0.00587,0.6113 0.01515,0.9219 a 12.99232,12.99232 0 0 0 0.1792,2.0019 6.58756,6.58756 0 0 0 0.625,1.9043 6.20778,6.20778 0 0 0 1.17822,1.6143 6.27445,6.27445 0 0 0 1.61865,1.1787 6.70082,6.70082 0 0 0 1.90088,0.6308 13.45514,13.45514 0 0 0 2.0039,0.1768 C 7.83009,39.9941 8.1338,39.998 8.43995,39.998 8.80567,40 9.168,40 9.53468,40 h 100.60009 c 0.3594,0 0.7246,0 1.084,-0.002 0.3047,0 0.6172,-0.0039 0.9219,-0.0107 a 13.279,13.279 0 0 0 2,-0.1768 6.80432,6.80432 0 0 0 1.9082,-0.6308 6.27742,6.27742 0 0 0 1.6172,-1.1787 6.39482,6.39482 0 0 0 1.1816,-1.6143 6.60413,6.60413 0 0 0 0.6191,-1.9043 13.50643,13.50643 0 0 0 0.1856,-2.0019 c 0.004,-0.3106 0.004,-0.6114 0.004,-0.9219 0.008,-0.3633 0.008,-0.7246 0.008,-1.0938 V 9.53613 c 0,-0.36621 0,-0.72949 -0.008,-1.09179 0,-0.30664 0,-0.61426 -0.004,-0.9209 a 13.5071,13.5071 0 0 0 -0.1856,-2.002 6.6177,6.6177 0 0 0 -0.6191,-1.90332 6.46619,6.46619 0 0 0 -2.7988,-2.7998 6.76754,6.76754 0 0 0 -1.9082,-0.627 13.04394,13.04394 0 0 0 -2,-0.17676 c -0.3047,-0.00488 -0.6172,-0.01074 -0.9219,-0.01269 -0.3594,-0.002 -0.7246,-0.002 -1.084,-0.002 z" style="fill:#a6a6a6"/><path id="path6" d="m 8.44483,39.125 c -0.30468,0 -0.602,-0.0039 -0.90429,-0.0107 A 12.68714,12.68714 0 0 1 5.6714,38.9512 5.88381,5.88381 0 0 1 4.01466,38.4033 5.40573,5.40573 0 0 1 2.61766,37.3867 5.32082,5.32082 0 0 1 1.59715,35.9902 5.72186,5.72186 0 0 1 1.05415,34.333 12.41351,12.41351 0 0 1 0.88765,32.458 C 0.88131,32.2471 0.87301,31.5449 0.87301,31.5449 V 8.44434 c 0,0 0.00884,-0.69141 0.01469,-0.89454 A 12.37039,12.37039 0 0 1 1.05323,5.67773 5.7555,5.7555 0 0 1 1.59669,4.01563 5.37349,5.37349 0 0 1 2.61183,2.61768 5.56543,5.56543 0 0 1 4.01417,1.59521 5.82309,5.82309 0 0 1 5.66749,1.05127 12.58589,12.58589 0 0 1 7.543,0.88721 L 8.44532,0.875 h 102.76855 l 0.9131,0.0127 a 12.38493,12.38493 0 0 1 1.8584,0.16259 5.93833,5.93833 0 0 1 1.6709,0.54785 5.59374,5.59374 0 0 1 2.415,2.41993 5.76267,5.76267 0 0 1 0.5352,1.64892 12.995,12.995 0 0 1 0.1738,1.88721 c 0.003,0.2832 0.003,0.5874 0.003,0.89014 0.008,0.375 0.008,0.73193 0.008,1.09179 V 30.4648 c 0,0.3633 0,0.7178 -0.008,1.0752 0,0.3252 0,0.6231 -0.004,0.9297 a 12.73126,12.73126 0 0 1 -0.1709,1.8535 5.739,5.739 0 0 1 -0.54,1.67 5.48029,5.48029 0 0 1 -1.0156,1.3857 5.4129,5.4129 0 0 1 -1.3994,1.0225 5.86168,5.86168 0 0 1 -1.668,0.5498 12.54218,12.54218 0 0 1 -1.8692,0.1631 c -0.2929,0.0068 -0.5996,0.0107 -0.8974,0.0107 l -1.084,0.002 z"/></g><g id="_Group_" data-name="&lt;Group&gt;"><g id="_Group_2" data-name="&lt;Group&gt;"><g id="_Group_3" data-name="&lt;Group&gt;"><path style="fill:#fff" id="_Path_" d="m 24.76888,20.30068 a 4.94881,4.94881 0 0 1 2.35656,-4.15206 5.06566,5.06566 0 0 0 -3.99116,-2.15768 c -1.67924,-0.17626 -3.30719,1.00483 -4.1629,1.00483 -0.87227,0 -2.18977,-0.98733 -3.6085,-0.95814 a 5.31529,5.31529 0 0 0 -4.47292,2.72787 c -1.934,3.34842 -0.49141,8.26947 1.3612,10.97608 0.9269,1.32535 2.01018,2.8058 3.42763,2.7533 1.38706,-0.05753 1.9051,-0.88448 3.5794,-0.88448 1.65876,0 2.14479,0.88448 3.591,0.8511 1.48838,-0.02416 2.42613,-1.33124 3.32051,-2.66914 a 10.962,10.962 0 0 0 1.51842,-3.09251 4.78205,4.78205 0 0 1 -2.91924,-4.39917 z" data-name="&lt;Path&gt;"/><path style="fill:#fff" id="_Path_2" d="m 22.03725,12.21089 a 4.87248,4.87248 0 0 0 1.11452,-3.49062 4.95746,4.95746 0 0 0 -3.20758,1.65961 4.63634,4.63634 0 0 0 -1.14371,3.36139 4.09905,4.09905 0 0 0 3.23677,-1.53038 z" data-name="&lt;Path&gt;"/></g></g><g id="g30"><path id="path14" d="m 42.30227,27.13965 h -4.7334 l -1.13672,3.35645 h -2.00488 l 4.4834,-12.418 h 2.083 l 4.4834,12.418 H 43.438 Z M 38.0591,25.59082 h 3.752 l -1.84961,-5.44727 h -0.05176 z" style="fill:#fff"/><path id="path16" d="m 55.15969,25.96973 c 0,2.81348 -1.50586,4.62109 -3.77832,4.62109 a 3.0693,3.0693 0 0 1 -2.84863,-1.584 h -0.043 v 4.48438 h -1.8584 V 21.44238 h 1.79886 v 1.50586 h 0.03418 a 3.21162,3.21162 0 0 1 2.88281,-1.60059 c 2.29781,10e-6 3.8125,1.81641 3.8125,4.62208 z m -1.91016,0 c 0,-1.833 -0.94727,-3.03809 -2.39258,-3.03809 -1.41992,0 -2.375,1.23047 -2.375,3.03809 0,1.82422 0.95508,3.0459 2.375,3.0459 1.44532,0 2.39258,-1.19629 2.39258,-3.0459 z" style="fill:#fff"/><path id="path18" d="m 65.12453,25.96973 c 0,2.81348 -1.50586,4.62109 -3.77832,4.62109 a 3.0693,3.0693 0 0 1 -2.84863,-1.584 h -0.043 v 4.48438 h -1.8584 V 21.44238 H 58.395 v 1.50586 h 0.03418 A 3.21162,3.21162 0 0 1 61.312,21.34766 c 2.29788,0 3.81253,1.8164 3.81253,4.62207 z m -1.91016,0 c 0,-1.833 -0.94727,-3.03809 -2.39258,-3.03809 -1.41992,0 -2.375,1.23047 -2.375,3.03809 0,1.82422 0.95508,3.0459 2.375,3.0459 1.44532,0 2.39259,-1.19629 2.39259,-3.0459 z" style="fill:#fff"/><path id="path20" d="m 71.71047,27.03613 c 0.1377,1.23145 1.334,2.04 2.96875,2.04 1.56641,0 2.69336,-0.80859 2.69336,-1.91895 0,-0.96387 -0.67969,-1.541 -2.28906,-1.93652 l -1.60937,-0.3877 c -2.28027,-0.55078 -3.33887,-1.61719 -3.33887,-3.34766 0,-2.14258 1.86719,-3.61426 4.51855,-3.61426 2.624,0 4.42285,1.47168 4.4834,3.61426 h -1.876 c -0.1123,-1.23926 -1.13672,-1.9873 -2.63379,-1.9873 -1.49707,0 -2.52148,0.75684 -2.52148,1.8584 0,0.87793 0.6543,1.39453 2.25488,1.79 l 1.36816,0.33594 c 2.54785,0.60254 3.60645,1.626 3.60645,3.44238 0,2.32324 -1.85059,3.77832 -4.79395,3.77832 -2.75391,0 -4.61328,-1.4209 -4.7334,-3.667 z" style="fill:#fff"/><path id="path22" d="m 83.34621,19.2998 v 2.14258 h 1.72168 v 1.47168 h -1.72168 v 4.99121 c 0,0.77539 0.34473,1.13672 1.10156,1.13672 a 5.80752,5.80752 0 0 0 0.61133,-0.043 v 1.46289 a 5.10351,5.10351 0 0 1 -1.03223,0.08594 c -1.833,0 -2.54785,-0.68848 -2.54785,-2.44434 v -5.18942 h -1.3164 V 21.44238 H 81.479 V 19.2998 Z" style="fill:#fff"/><path id="path24" d="m 86.065,25.96973 c 0,-2.84863 1.67773,-4.63867 4.29395,-4.63867 2.625,0 4.29492,1.79 4.29492,4.63867 0,2.85645 -1.66113,4.63867 -4.29492,4.63867 -2.63286,0 -4.29395,-1.78223 -4.29395,-4.63867 z m 6.69531,0 c 0,-1.9541 -0.89551,-3.10742 -2.40137,-3.10742 -1.50586,0 -2.40039,1.16211 -2.40039,3.10742 0,1.96191 0.89453,3.10645 2.40039,3.10645 1.50586,0 2.40133,-1.14454 2.40133,-3.10645 z" style="fill:#fff"/><path id="path26" d="m 96.18606,21.44238 h 1.77246 v 1.541 h 0.043 a 2.1594,2.1594 0 0 1 2.17773,-1.63574 2.86616,2.86616 0 0 1 0.63672,0.06934 v 1.73828 a 2.59794,2.59794 0 0 0 -0.835,-0.1123 1.87264,1.87264 0 0 0 -1.93652,2.083 v 5.37012 h -1.8584 z" style="fill:#fff"/><path id="path28" d="m 109.3843,27.83691 c -0.25,1.64355 -1.85059,2.77148 -3.89844,2.77148 -2.63379,0 -4.26855,-1.76465 -4.26855,-4.5957 0,-2.83984 1.64355,-4.68164 4.19043,-4.68164 2.50488,0 4.08008,1.7207 4.08008,4.46582 v 0.63672 h -6.39453 v 0.1123 a 2.358,2.358 0 0 0 2.43555,2.56445 2.04834,2.04834 0 0 0 2.09082,-1.27344 z m -6.28223,-2.70215 h 4.52637 a 2.1773,2.1773 0 0 0 -2.2207,-2.29785 2.292,2.292 0 0 0 -2.30567,2.29786 z" style="fill:#fff"/></g></g></g><g id="_Group_4" data-name="&lt;Group&gt;"><g id="g61"><path id="path35" d="m 37.82619,8.731 a 2.63964,2.63964 0 0 1 2.80762,2.96484 c 0,1.90625 -1.03027,3.002 -2.80762,3.002 H 35.67092 V 8.731 Z m -1.22852,5.123 h 1.125 a 1.87588,1.87588 0 0 0 1.96777,-2.146 1.881,1.881 0 0 0 -1.96777,-2.13379 h -1.125 z" style="fill:#fff"/><path id="path37" d="m 41.68068,12.44434 a 2.13323,2.13323 0 1 1 4.24707,0 2.13358,2.13358 0 1 1 -4.24707,0 z m 3.333,0 c 0,-0.97607 -0.43848,-1.54687 -1.208,-1.54687 -0.77246,0 -1.207,0.5708 -1.207,1.54688 0,0.98389 0.43457,1.55029 1.207,1.55029 0.76954,-10e-6 1.20801,-0.57032 1.20801,-1.5503 z" style="fill:#fff"/><path id="path39" d="m 51.57326,14.69775 h -0.92187 l -0.93066,-3.31641 h -0.07031 l -0.92676,3.31641 h -0.91309 l -1.24121,-4.50293 h 0.90137 l 0.80664,3.436 h 0.06641 l 0.92578,-3.436 h 0.85254 l 0.92578,3.436 h 0.07031 l 0.80273,-3.436 h 0.88867 z" style="fill:#fff"/><path id="path41" d="M 53.85354,10.19482 H 54.709 v 0.71533 h 0.06641 a 1.348,1.348 0 0 1 1.34375,-0.80225 1.46456,1.46456 0 0 1 1.55859,1.6748 v 2.915 h -0.88867 v -2.69184 c 0,-0.72363 -0.31445,-1.0835 -0.97168,-1.0835 a 1.03294,1.03294 0 0 0 -1.0752,1.14111 v 2.63428 h -0.88867 z" style="fill:#fff"/><path id="path43" d="m 59.09377,8.437 h 0.88867 v 6.26074 h -0.88867 z" style="fill:#fff"/><path id="path45" d="m 61.21779,12.44434 a 2.13346,2.13346 0 1 1 4.24756,0 2.1338,2.1338 0 1 1 -4.24756,0 z m 3.333,0 c 0,-0.97607 -0.43848,-1.54687 -1.208,-1.54687 -0.77246,0 -1.207,0.5708 -1.207,1.54688 0,0.98389 0.43457,1.55029 1.207,1.55029 0.76953,-10e-6 1.20801,-0.57032 1.20801,-1.5503 z" style="fill:#fff"/><path id="path47" d="m 66.4009,13.42432 c 0,-0.81055 0.60352,-1.27783 1.6748,-1.34424 l 1.21973,-0.07031 V 11.6211 c 0,-0.47559 -0.31445,-0.74414 -0.92187,-0.74414 -0.49609,0 -0.83984,0.18213 -0.93848,0.50049 h -0.86035 c 0.09082,-0.77344 0.81836,-1.26953 1.83984,-1.26953 1.12891,0 1.76563,0.562 1.76563,1.51318 v 3.07666 h -0.85547 v -0.63281 h -0.07031 a 1.515,1.515 0 0 1 -1.35254,0.707 1.36026,1.36026 0 0 1 -1.50098,-1.34763 z m 2.89453,-0.38477 v -0.37646 l -1.09961,0.07031 c -0.62012,0.0415 -0.90137,0.25244 -0.90137,0.64941 0,0.40527 0.35156,0.64111 0.835,0.64111 a 1.0615,1.0615 0 0 0 1.16598,-0.98437 z" style="fill:#fff"/><path id="path49" d="m 71.34816,12.44434 c 0,-1.42285 0.73145,-2.32422 1.86914,-2.32422 a 1.484,1.484 0 0 1 1.38086,0.79 h 0.06641 V 8.437 h 0.88867 v 6.26074 h -0.85156 v -0.71143 h -0.07031 a 1.56284,1.56284 0 0 1 -1.41406,0.78564 c -1.14551,5e-5 -1.86915,-0.90134 -1.86915,-2.32761 z m 0.918,0 c 0,0.95508 0.4502,1.52979 1.20313,1.52979 0.749,0 1.21191,-0.583 1.21191,-1.52588 0,-0.93848 -0.46777,-1.52979 -1.21191,-1.52979 -0.74808,0 -1.20316,0.57861 -1.20316,1.52588 z" style="fill:#fff"/><path id="path51" d="m 79.23,12.44434 a 2.13323,2.13323 0 1 1 4.24707,0 2.13358,2.13358 0 1 1 -4.24707,0 z m 3.333,0 c 0,-0.97607 -0.43848,-1.54687 -1.208,-1.54687 -0.77246,0 -1.207,0.5708 -1.207,1.54688 0,0.98389 0.43457,1.55029 1.207,1.55029 0.76953,-10e-6 1.208,-0.57032 1.208,-1.5503 z" style="fill:#fff"/><path id="path53" d="m 84.66945,10.19482 h 0.85547 v 0.71533 h 0.06641 a 1.348,1.348 0 0 1 1.34375,-0.80225 1.46456,1.46456 0 0 1 1.55859,1.6748 v 2.915 H 87.605 v -2.69184 c 0,-0.72363 -0.31445,-1.0835 -0.97168,-1.0835 a 1.03294,1.03294 0 0 0 -1.0752,1.14111 v 2.63428 h -0.88867 z" style="fill:#fff"/><path id="path55" d="m 93.51516,9.07373 v 1.1416 h 0.97559 v 0.74854 h -0.97559 v 2.31543 c 0,0.47168 0.19434,0.67822 0.63672,0.67822 a 2.96657,2.96657 0 0 0 0.33887,-0.02051 v 0.74023 a 2.9155,2.9155 0 0 1 -0.4834,0.04541 c -0.98828,0 -1.38184,-0.34766 -1.38184,-1.21582 v -2.543 h -0.71484 v -0.74854 h 0.71484 V 9.07373 Z" style="fill:#fff"/><path id="path57" d="m 95.70461,8.437 h 0.88086 v 2.48145 h 0.07031 a 1.3856,1.3856 0 0 1 1.373,-0.80664 1.48339,1.48339 0 0 1 1.55078,1.67871 v 2.90723 H 98.69 v -2.688 c 0,-0.71924 -0.335,-1.0835 -0.96289,-1.0835 a 1.05194,1.05194 0 0 0 -1.13379,1.1416 v 2.62988 h -0.88867 z" style="fill:#fff"/><path id="path59" d="m 104.76125,13.48193 a 1.828,1.828 0 0 1 -1.95117,1.30273 2.04531,2.04531 0 0 1 -2.08008,-2.32421 2.07685,2.07685 0 0 1 2.07617,-2.35254 c 1.25293,0 2.00879,0.856 2.00879,2.27 V 12.688 h -3.17969 v 0.0498 a 1.1902,1.1902 0 0 0 1.19922,1.29 1.07934,1.07934 0 0 0 1.07129,-0.5459 z m -3.126,-1.45117 h 2.27441 a 1.08647,1.08647 0 0 0 -1.1084,-1.1665 1.15162,1.15162 0 0 0 -1.16599,1.1665 z" style="fill:#fff"/></g></g></g></svg>