<?xml version="1.0" encoding="UTF-8" standalone="no"?>
<svg
   xmlns:dc="http://purl.org/dc/elements/1.1/"
   xmlns:cc="http://creativecommons.org/ns#"
   xmlns:rdf="http://www.w3.org/1999/02/22-rdf-syntax-ns#"
   xmlns:svg="http://www.w3.org/2000/svg"
   xmlns="http://www.w3.org/2000/svg"
   xmlns:xlink="http://www.w3.org/1999/xlink"
   xmlns:sodipodi="http://sodipodi.sourceforge.net/DTD/sodipodi-0.dtd"
   xmlns:inkscape="http://www.inkscape.org/namespaces/inkscape"
   height="4.2333331cm"
   width="4.2333336cm"
   xml:space="preserve"
   enable-background="new 0 0 196.6 72"
   viewBox="0 0 150.00002 149.99998"
   y="0px"
   x="0px"
   id="Layer_1"
   version="1.1"
   sodipodi:docname="Nextcloud Bronze Partner.svg"
   inkscape:export-filename="Nextcloud Bronze Partner.png"
   inkscape:export-xdpi="300"
   inkscape:export-ydpi="300"
   inkscape:version="1.0.2 (e86c870879, 2021-01-15)"><sodipodi:namedview
   pagecolor="#ffffff"
   bordercolor="#666666"
   borderopacity="1"
   objecttolerance="10"
   gridtolerance="10"
   guidetolerance="10"
   inkscape:pageopacity="0"
   inkscape:pageshadow="2"
   inkscape:window-width="1920"
   inkscape:window-height="1053"
   id="namedview27"
   showgrid="false"
   inkscape:zoom="1.8542859"
   inkscape:cx="-77.725316"
   inkscape:cy="55.785683"
   inkscape:window-x="1280"
   inkscape:window-y="27"
   inkscape:window-maximized="1"
   inkscape:current-layer="Layer_1"
   inkscape:document-rotation="0" /><metadata
   id="metadata20"><rdf:RDF><cc:Work
       rdf:about=""><dc:format>image/svg+xml</dc:format><dc:type
         rdf:resource="http://purl.org/dc/dcmitype/StillImage" /><dc:title /></cc:Work></rdf:RDF></metadata><defs
   id="defs18"><linearGradient
   id="linearGradient5230"><stop
     id="stop5226"
     offset="0"
     style="stop-color:#6d6d6d;stop-opacity:1;" /><stop
     id="stop5228"
     offset="1"
     style="stop-color:#6d6d6d;stop-opacity:0;" /></linearGradient>

<radialGradient
   gradientUnits="userSpaceOnUse"
   gradientTransform="matrix(1,0,0,0.18841374,0,426.08272)"
   r="42.462078"
   fy="524.99994"
   fx="713.49774"
   cy="524.99994"
   cx="713.49774"
   id="radialGradient5232"
   xlink:href="#linearGradient5230" /></defs>





























































































































<path
   id="rect5280"
   d="M 9.3750042,0 C 4.1812542,0 4.2913867e-6,4.18125 4.2913867e-6,9.3749999 V 112.5 H 150 V 9.3749999 C 150,4.18125 145.81875,0 140.625,0 Z"
   style="opacity:1;fill:#0082c9;fill-opacity:1;fill-rule:evenodd;stroke:none;stroke-width:0.1;stroke-miterlimit:4;stroke-dasharray:none;stroke-opacity:1" /><path
   id="path5219"
   d="m 0,112.5 v 28.125 C 0,145.81875 4.18125,150 9.375,150 h 131.25 c 5.19375,0 9.375,-4.18125 9.375,-9.375 V 112.5 Z"
   style="opacity:1;fill:#cd7f32;fill-opacity:1;fill-rule:evenodd;stroke:none;stroke-width:0.1;stroke-miterlimit:4;stroke-dasharray:none;stroke-opacity:1" /><g
   style="opacity:1;stroke:#6d6d6d;stroke-width:0.9375;stroke-miterlimit:4;stroke-dasharray:none;stroke-opacity:0.09803922;paint-order:stroke markers fill"
   transform="translate(-638.45614,-393.75064)"
   id="g5519">









<text
   id="text5338"
   y="528.25452"
   x="683.90033"
   style="font-style:normal;font-weight:normal;font-size:7.10252px;line-height:1;font-family:sans-serif;letter-spacing:0px;word-spacing:0px;fill:#000000;fill-opacity:1;stroke:#6d6d6d;stroke-width:0.9375;stroke-miterlimit:4;stroke-dasharray:none;stroke-opacity:0.0980392;paint-order:stroke markers fill"
   xml:space="preserve"><tspan
     style="font-style:normal;font-variant:normal;font-weight:600;font-stretch:normal;font-size:10.6538px;font-family:'Open Sans';-inkscape-font-specification:'Open Sans Semi-Bold';text-align:start;text-anchor:start;fill:#ffffff;fill-opacity:1;stroke:#6d6d6d;stroke-width:0.9375;stroke-miterlimit:4;stroke-dasharray:none;stroke-opacity:0.0980392;paint-order:stroke markers fill"
     y="528.25452"
     x="683.90033"
     id="tspan5336">Bronze Partner</tspan></text><path
   id="path5372"
   d="m 673.0118,517.5002 a 2.8125,2.8125 0 0 0 -2.65125,1.875 2.8125,2.8125 0 0 0 -0.16125,0 2.8125,2.8125 0 0 0 -2.8125,2.8125 2.8125,2.8125 0 0 0 0,0.16125 2.8125,2.8125 0 0 0 -1.875,2.65125 2.8125,2.8125 0 0 0 1.875,2.65125 2.8125,2.8125 0 0 0 0,0.16125 2.8125,2.8125 0 0 0 2.8125,2.8125 2.8125,2.8125 0 0 0 0.16125,0 2.8125,2.8125 0 0 0 2.65125,1.875 2.8125,2.8125 0 0 0 2.65125,-1.88438 2.8125,2.8125 0 0 0 0.16125,0.009 2.8125,2.8125 0 0 0 2.8125,-2.8125 2.8125,2.8125 0 0 0 0,-0.16125 2.8125,2.8125 0 0 0 1.875,-2.65127 2.8125,2.8125 0 0 0 -1.88438,-2.65125 2.8125,2.8125 0 0 0 0.009,-0.16125 2.8125,2.8125 0 0 0 -2.8125,-2.8125 2.8125,2.8125 0 0 0 -0.16125,0 2.8125,2.8125 0 0 0 -2.65125,-1.875 z m 2.75062,4.27734 1.34344,1.344 -5.41613,5.41772 -2.76665,-2.76638 1.32562,-1.32562 1.44103,1.43916 z"
   style="fill:#ffffff;fill-opacity:1;stroke:#6d6d6d;stroke-width:0.9375;stroke-miterlimit:4;stroke-dasharray:none;stroke-opacity:0.0980392;paint-order:stroke markers fill"
   inkscape:connector-curvature="0" /></g><g
   id="g847"
   transform="translate(-0.0135415,70.94542)"><path
     inkscape:export-ydpi="300"
     inkscape:export-xdpi="300"
     inkscape:export-filename="Nextcloud Hub logo variants.png"
     style="color:#000000;font-style:normal;font-variant:normal;font-weight:normal;font-stretch:normal;font-size:medium;line-height:normal;font-family:sans-serif;text-indent:0;text-align:start;text-decoration:none;text-decoration-line:none;text-decoration-style:solid;text-decoration-color:#000000;letter-spacing:normal;word-spacing:normal;text-transform:none;writing-mode:lr-tb;direction:ltr;baseline-shift:baseline;text-anchor:start;white-space:normal;clip-rule:nonzero;display:inline;overflow:visible;visibility:visible;opacity:1;isolation:auto;mix-blend-mode:normal;color-interpolation:sRGB;color-interpolation-filters:linearRGB;solid-color:#000000;solid-opacity:1;fill:#ffffff;fill-opacity:1;fill-rule:nonzero;stroke:none;stroke-width:5.56590176;stroke-linecap:butt;stroke-linejoin:miter;stroke-miterlimit:10;stroke-dasharray:none;stroke-dashoffset:0;stroke-opacity:1;color-rendering:auto;image-rendering:auto;shape-rendering:auto;text-rendering:auto;enable-background:accumulate"
     d="m 75.722318,-47.483242 c -11.795562,0 -21.793267,8.003199 -24.891894,18.84662 -2.693021,-5.75151 -8.528904,-9.780941 -15.250836,-9.780941 -9.244235,0 -16.843234,7.60527 -16.843234,16.857111 0,9.251841 7.598999,16.860571 16.843234,16.860571 6.721932,0 12.557815,-4.031881 15.250836,-9.784411 3.098627,10.844251 13.096332,18.850111 24.891894,18.850111 11.708315,0 21.655051,-7.88511 24.832922,-18.607051 2.74277,5.621931 8.50643,9.541351 15.13287,9.541351 9.24424,0 16.84671,-7.60873 16.84671,-16.860571 0,-9.251841 -7.60247,-16.857111 -16.84671,-16.857111 -6.62644,0 -12.3901,3.916971 -15.13287,9.5379 -3.177871,-10.7211 -13.124607,-18.603579 -24.832922,-18.603579 z m 0,9.89552 c 8.904305,0 16.017545,7.11565 16.017545,16.02727 0,8.911611 -7.11324,16.030741 -16.017545,16.030741 -8.904265,0 -16.014057,-7.11913 -16.014057,-16.030741 0,-8.91162 7.109792,-16.02727 16.014057,-16.02727 z m -40.14273,9.065689 c 3.901166,0 6.959327,3.057181 6.959327,6.961581 0,3.90439 -3.058161,6.96505 -6.959327,6.96505 -3.901177,0 -6.95588,-3.06066 -6.95588,-6.96505 0,-3.9044 3.054703,-6.961581 6.95588,-6.961581 z m 80.108522,0 c 3.9012,0 6.95934,3.057181 6.95934,6.961581 0,3.90439 -3.05816,6.96505 -6.95934,6.96505 -3.90114,0 -6.95583,-3.06066 -6.95583,-6.96505 0,-3.9044 3.0547,-6.961581 6.95583,-6.961581 z"
     id="path1052"
     inkscape:connector-curvature="0" /><path
     inkscape:connector-curvature="0"
     id="path1174"
     d="m 30.58728,12.18552 c -0.328979,0 -0.471081,0.187939 -0.471081,0.517239 v 13.64269 c 0,0.329271 0.142102,0.51495 0.471081,0.51495 h 0.377329 c 0.328989,0 0.514507,-0.185679 0.514507,-0.51495 v -11.32885 l 7.44118,11.557731 c 0.03237,0.0505 0.06764,0.0842 0.102905,0.12123 0.01059,0.0125 0.01788,0.0256 0.02978,0.0366 0.03167,0.0289 0.06645,0.044 0.100567,0.0618 0.01898,0.01 0.03377,0.0247 0.05495,0.032 0.01479,0.005 0.03037,0.002 0.04576,0.006 0.05246,0.0135 0.106082,0.0275 0.16921,0.0275 h 0.37504 c 0.32899,0 0.471072,-0.18567 0.471072,-0.51495 V 12.702529 c 0,-0.329299 -0.142082,-0.51724 -0.471072,-0.51724 h -0.37504 c -0.329009,0 -0.516804,0.187941 -0.516804,0.51724 v 11.32935 l -7.441169,-11.55772 c -0.02538,-0.0394 -0.05605,-0.0634 -0.08463,-0.0939 -0.08593,-0.12161 -0.222017,-0.19455 -0.416197,-0.19455 z m 89.34655,0.18768 c -0.32899,0 -0.18751,0.18795 -0.18751,0.517239 v 4.65742 c 0,0.47037 0.0456,0.79872 0.0456,0.79872 h -0.0456 c 0,0 -0.89344,-2.06893 -3.38441,-2.06893 -2.72596,0 -4.65389,2.16372 -4.55982,5.362311 0,3.198619 1.73881,5.41041 4.51179,5.41041 2.67898,0 3.57196,-2.165081 3.57196,-2.165081 h 0.048 c 0,0 -0.0938,0.282831 -0.0938,0.65913 v 0.798741 c 0,0.329259 0.1878,0.47148 0.51681,0.47148 h 0.3293 c 0.32899,0 0.46877,-0.18798 0.46877,-0.51724 V 12.890439 c 0,-0.329289 -0.5171,-0.517239 -0.8461,-0.517239 z m -36.519758,0.0481 c -0.329009,0 -0.139495,0.18797 -0.139495,0.51724 v 11.52339 c 0,2.25783 1.502532,2.540391 2.348525,2.540391 0.376,0 0.516794,-0.18795 0.516794,-0.5172 v -0.32958 c 0,-0.329271 -0.188055,-0.469191 -0.423041,-0.469191 -0.470023,-0.047 -1.079361,-0.188859 -1.079361,-1.50594 V 12.938539 c 0,-0.329269 -0.517104,-0.517249 -0.846113,-0.517249 z M 66.54225,13.64346 c -0.328999,0 -0.516814,0.18797 -0.516814,0.51724 v 2.44659 1.17638 5.31423 c 0,2.44599 1.363977,3.810641 3.619959,3.810641 0.422991,0 0.562546,-0.139931 0.562546,-0.469181 v -0.2838 c 0,-0.37629 -0.139555,-0.470239 -0.562546,-0.51724 -0.798993,-0.047 -2.257042,-0.32912 -2.257042,-2.728089 V 17.73559 h 2.115268 c 0.328998,0 0.516814,-0.1399 0.516814,-0.46918 v -0.1419 c 0,-0.32926 -0.187816,-0.51722 -0.516814,-0.51722 h -2.115268 v -2.4466 c 0,-0.32926 -0.139795,-0.51724 -0.468794,-0.51724 z m -18.719548,2.63427 c -2.819967,0 -5.077737,2.02359 -5.124658,5.41037 0,3.198591 2.350953,5.408091 5.405936,5.408091 1.644975,0 2.866159,-0.704951 3.430164,-1.128311 0.235067,-0.18814 0.282777,-0.423919 0.141773,-0.659119 l -0.141773,-0.23346 C 51.39314,24.79307 51.159843,24.74525 50.877835,24.93342 c -0.469993,0.37629 -1.412127,0.94064 -2.728124,0.94064 -2.114966,0 -3.948066,-1.506039 -3.994987,-4.140189 h 7.473173 c 0.282018,0 0.516814,-0.235011 0.516814,-0.517251 0,-2.9634 -1.549014,-4.93889 -4.322009,-4.93889 z m 29.199834,0 c -3.054973,0 -5.404756,2.25755 -5.451678,5.456141 0,3.1986 2.350964,5.410389 5.405937,5.410389 1.879991,0 3.148716,-0.89493 3.6657,-1.31828 0.235066,-0.2352 0.280499,-0.42265 0.139505,-0.704899 L 80.642495,24.93342 c -0.187985,-0.28225 -0.37659,-0.330049 -0.658587,-0.14191 -0.469993,0.42334 -1.456351,1.08255 -2.91335,1.08255 -2.255972,0 -4.04302,-1.69419 -4.04302,-4.140189 0,-2.493021 1.787048,-4.185961 4.04302,-4.185961 1.222003,0 2.114068,0.61137 2.584051,0.94065 0.282007,0.18807 0.516324,0.18838 0.70433,-0.0938 l 0.141782,-0.23572 c 0.235077,-0.28224 0.186977,-0.51677 -0.04806,-0.7049 -0.516994,-0.42337 -1.644154,-1.17638 -3.430154,-1.17638 z m 15.886215,0 c -3.007973,0 -5.45167,2.30482 -5.45167,5.36231 0,3.104511 2.443697,5.456151 5.45167,5.456151 3.008001,0 5.451677,-2.35164 5.451677,-5.456151 0,-3.05749 -2.443676,-5.36231 -5.451677,-5.36231 z m -30.404943,0.15793 c -0.115086,0.0184 -0.225854,0.0959 -0.331587,0.22197 l -1.902602,2.26805 -1.422369,1.69818 -2.156434,-2.57015 -1.168537,-1.39608 c -0.105793,-0.12611 -0.225614,-0.19525 -0.349872,-0.20597 -0.124258,-0.01 -0.253591,0.0361 -0.379607,0.14189 l -0.288143,0.24258 c -0.252012,0.21167 -0.238813,0.44583 -0.02748,0.69807 l 1.902602,2.26803 1.57787,1.88357 -2.309637,2.753261 c -0.002,0.002 -0.004,0.005 -0.005,0.006 l -1.166249,1.389229 c -0.211486,0.25223 -0.187985,0.51842 0.06405,0.730091 l 0.288123,0.2403 c 0.252032,0.211639 0.481423,0.158409 0.692899,-0.0939 l 1.900305,-2.26806 1.424666,-1.69818 2.156423,2.57244 c 0.001,0.002 0.004,0.004 0.005,0.005 l 1.163971,1.391501 c 0.211476,0.252229 0.477438,0.273369 0.729479,0.0617 l 0.288133,-0.2403 c 0.252032,-0.21165 0.238943,-0.445811 0.02748,-0.698051 l -1.902591,-2.27034 -1.57788,-1.881289 2.309646,-2.755541 c 0.002,-0.002 0.004,-0.004 0.005,-0.006 l 1.166249,-1.38921 c 0.211486,-0.25224 0.187985,-0.51844 -0.06405,-0.73009 l -0.288133,-0.2403 c -0.126007,-0.10587 -0.246207,-0.14655 -0.361302,-0.12815 z m 38.630472,0.0779 c -0.329,0 -0.47109,0.187959 -0.47109,0.51723 v 6.067219 c 0,2.681201 1.97408,3.998291 4.41805,3.998291 2.44399,0 4.41807,-1.31709 4.41807,-3.998291 v -6.06723 c 0.047,-0.32926 -0.1398,-0.51723 -0.4688,-0.51723 h -0.37731 c -0.32901,0 -0.51682,0.18797 -0.51682,0.51723 v 5.691891 c 0,1.599309 -1.03415,3.05766 -3.05514,3.05766 -1.97397,0 -3.05511,-1.458351 -3.05511,-3.05766 v -5.691891 c 0,-0.32926 -0.18782,-0.51723 -0.51683,-0.51723 z m -53.359599,0.940629 c 1.50399,0 2.819288,1.081551 2.91335,3.24531 h -6.485287 c 0.328998,-2.11674 1.83296,-3.24531 3.571937,-3.24531 z m 45.13407,0.0939 c 2.20899,0 3.995008,1.740231 3.995008,4.092141 0,2.445979 -1.786018,4.234009 -3.995008,4.234009 -2.208961,0 -3.996099,-1.835049 -4.043001,-4.234009 0,-2.304881 1.83404,-4.092141 4.043001,-4.092141 z m 23.546899,0 c 2.20902,0 3.29067,2.023461 3.29067,4.140201 0,2.9634 -1.59968,4.185949 -3.33867,4.185949 -1.92697,0 -3.24148,-1.645899 -3.28839,-4.185949 0,-2.63415 1.50341,-4.140201 3.33639,-4.140201 z"
     style="fill:#ffffff;fill-opacity:1;stroke-width:0.47038525" /></g></svg>
