<svg height="128" viewBox="0 0 128 128" width="128" xmlns="http://www.w3.org/2000/svg"><circle cx="64" cy="64" fill="#D95032" r="64"/><path d="M49.424 97.875c-19.018 0-34.491-15.193-34.491-33.874 0-18.68 15.473-33.875 34.491-33.875 8.318 0 16.354 2.952 22.624 8.309l-8.771 9.899c-3.838-3.279-8.758-5.086-13.853-5.086-11.652 0-21.13 9.31-21.13 20.752 0 11.441 9.479 20.75 21.13 20.75 9.858 0 16.311-4.723 18.407-13.197H49.587V58.432h32.347v6.562c0 19.665-13.065 32.881-32.51 32.881zM117.934 58.438h-10v-10h-8v10h-10v8h10v10h8v-10h10z" fill="#FFF"/></svg>