<svg xmlns="http://www.w3.org/2000/svg" width="567.84" height="567.84" viewBox="0 0 532.35 532.35"><g transform="translate(-101.015 -213.936)"><rect width="532.35" height="532.35" x="101.015" y="213.936" fill="#5cb85c" fill-rule="evenodd" ry="266.175"/><path fill="#fff" d="M530.17 434.636c-5.457 6.003-11.641 11.278-18.19 15.826-30.376 20.554-60.935 41.29-90.584 62.754-15.28 11.278-34.197 25.102-54.024 25.102h-.363c-19.827 0-38.745-13.824-54.024-25.102-29.65-21.646-60.208-42.2-90.403-62.754-6.73-4.548-12.915-9.823-18.371-15.826v144.427c0 16.007 13.096 29.103 29.103 29.103h267.753c16.007 0 29.103-13.096 29.103-29.103V434.636zm0-53.477c0-16.007-13.278-29.104-29.103-29.104H233.314c-19.463 0-29.103 15.28-29.103 33.105 0 16.553 18.371 37.107 31.286 45.839 28.194 19.644 56.752 39.29 84.946 59.116 11.823 8.186 31.832 24.92 46.566 24.92h.363c14.734 0 34.743-16.734 46.566-24.92 28.194-19.827 56.752-39.472 85.128-59.116 16.007-11.096 31.104-29.468 31.104-49.84z" font-family="DejaVu Sans" font-size="325.96" font-weight="400" letter-spacing="0" word-spacing="0"/></g></svg>