<svg height="128" viewBox="0 0 128 128" width="128" xmlns="http://www.w3.org/2000/svg"><circle cx="64" cy="64" fill="#2b90d9" r="64"/><g stroke-width=".215253" transform="matrix(1.5506137 0 0 1.5506137 331.43549 -136.40554)"><path d="m-150.1705 134.21134c-.68477 3.52288-6.1331 7.37834-12.39051 8.12554-3.26297.38934-6.47563.74719-9.90138.59006-5.60251-.25669-10.02327-1.33726-10.02327-1.33726 0 .5454.0336 1.06469.1009 1.55036.72836 5.52905 5.4825 5.86027 9.98587 6.01471 4.54534.15552 8.59264-1.12066 8.59264-1.12066l.18673 4.10918s-3.17929 1.70723-8.84287 2.02123c-3.12306.17167-7.00085-.0786-11.5174-1.27403-9.79563-2.59272-11.48026-13.03439-11.73802-23.62915-.0786-3.14566-.0301-6.11185-.0301-8.59264 0-10.8337 7.09824-14.00922 7.09824-14.00922 3.57913-1.64373 9.72057-2.33496 16.10525-2.38716h.15687c6.38468.0522 12.53016.74343 16.10901 2.38716 0 0 7.09798 3.17552 7.09798 14.00922 0 0 .0891 7.99316-.9899 13.54266" fill="#fff"/><path d="m-157.55315 121.50913v13.11781h-5.19702v-12.73223c0-2.68394-1.12927-4.04623-3.38808-4.04623-2.49748 0-3.74918 1.61602-3.74918 4.81145v6.96909h-5.16634v-6.96909c0-3.19543-1.25197-4.81145-3.74945-4.81145-2.25881 0-3.38808 1.36229-3.38808 4.04623v12.73223h-5.19702v-13.11781c0-2.68098.68262-4.81144 2.05378-6.38764 1.41395-1.57619 3.26566-2.38419 5.5643-2.38419 2.65945 0 4.67342 1.02218 6.00503 3.06682l1.29448 2.17002 1.29474-2.17002c1.33135-2.04464 3.34531-3.06682 6.00503-3.06682 2.29837 0 4.15008.808 5.5643 2.38419 1.37089 1.5762 2.05351 3.70666 2.05351 6.38764" fill="#2b90d9"/></g></svg>