<?xml version="1.0" encoding="UTF-8" standalone="no"?>
<svg
   xmlns:dc="http://purl.org/dc/elements/1.1/"
   xmlns:cc="http://creativecommons.org/ns#"
   xmlns:rdf="http://www.w3.org/1999/02/22-rdf-syntax-ns#"
   xmlns:svg="http://www.w3.org/2000/svg"
   xmlns="http://www.w3.org/2000/svg"
   xmlns:sodipodi="http://sodipodi.sourceforge.net/DTD/sodipodi-0.dtd"
   xmlns:inkscape="http://www.inkscape.org/namespaces/inkscape"
   width="16"
   height="16"
   viewBox="0 0 15.999999 15.999999"
   id="svg2"
   version="1.1"
   inkscape:version="0.91 r13725"
   sodipodi:docname="price.svg">
  <metadata
     id="metadata14">
    <rdf:RDF>
      <cc:Work
         rdf:about="">
        <dc:format>image/svg+xml</dc:format>
        <dc:type
           rdf:resource="http://purl.org/dc/dcmitype/StillImage" />
      </cc:Work>
    </rdf:RDF>
  </metadata>
  <defs
     id="defs12" />
  <sodipodi:namedview
     pagecolor="#ffffff"
     bordercolor="#666666"
     borderopacity="1"
     objecttolerance="10"
     gridtolerance="10"
     guidetolerance="10"
     inkscape:pageopacity="0"
     inkscape:pageshadow="2"
     inkscape:window-width="2560"
     inkscape:window-height="1362"
     id="namedview10"
     showgrid="false"
     inkscape:zoom="14.75"
     inkscape:cx="8"
     inkscape:cy="8"
     inkscape:window-x="0"
     inkscape:window-y="348"
     inkscape:window-maximized="1"
     inkscape:current-layer="g4" />
  <g
     transform="translate(3.072 24.366) scale(.00532)"
     style="line-height:125%;-inkscape-font-specification:'DejaVu Sans, Normal';text-align:start"
     font-weight="400"
     font-size="2474.955"
     font-family="DejaVu Sans"
     letter-spacing="0"
     word-spacing="0"
     fill="#fff"
     id="g4">
    <path
       d="M1104.088-3953.845q-465.389 0-580.642 587.937h744.04v188.198H503.02l-2.917 83.158v93.37l2.917 65.65h675.471v188.198H526.364q53.98 262.602 201.328 407.033 148.808 142.973 396.821 142.973 227.589 0 450.8-96.288v218.835q-213 94.829-462.471 94.829-345.76 0-557.3-195.493-210.082-196.952-277.191-571.889H36.173v-188.198h221.753l-2.918-61.274v-64.192l2.918-116.712H36.173v-188.198h239.26q56.897-380.773 269.896-593.772 213-213 558.76-213 293.238 0 533.957 141.514l-103.582 202.787q-242.178-125.466-430.376-125.466z"
       style="-inkscape-font-specification:'Open Sans'"
       font-family="Open Sans"
       font-size="2987.828"
       id="path8" />
    <circle
       r="1502.857"
       cy="-3074.495"
       cx="925.714"
       fill="#0082c9"
       fill-rule="evenodd"
       id="circle6" />
  </g>
</svg>
