<svg xmlns="http://www.w3.org/2000/svg" xmlns:svg="http://www.w3.org/2000/svg" id="svg8" width="16" height="16" version="1.1" viewBox="0 0 16 16"><metadata id="metadata14"/><g id="g6" fill="#fff" font-family="DejaVu Sans" font-size="2474.955" font-weight="400" letter-spacing="0" transform="matrix(0.00301121,0,0,0.00301122,5.2124808,19.376634)" word-spacing="0" style="line-height:125%;-inkscape-font-specification:'DejaVu Sans, Normal';text-align:start"><circle id="circle2" cx="925.714" cy="-3074.495" r="1502.857" fill="#0082c9" fill-rule="evenodd"/><path id="path4" d="m 1996.077,-3574.458 c 0,-34.528 -13.811,-69.055 -38.671,-93.915 l -27.832,-27.832 c -24.86,-24.86 -59.388,-38.671 -93.915,-38.671 -34.528,0 -69.056,13.811 -93.916,38.671 l -1066.01,1067.391 -566.047,-567.428 c -24.86,-24.86 -59.388,-38.671 -93.916,-38.671 -34.528,0 -69.056,13.811 -93.916,38.671 l -27.831,27.832 c -24.86,24.86 -38.671,59.387 -38.671,93.915 0,34.528 13.81,69.056 38.67,93.916 l 499.964,499.963 187.831,187.831 c 24.86,24.86 59.388,38.671 93.916,38.671 34.528,0 69.055,-13.81 93.915,-38.67 l 187.832,-187.832 999.926,-999.926 c 24.86,-24.86 38.67,-59.388 38.67,-93.916 z" font-family="FontAwesome" style="-inkscape-font-specification:FontAwesome"/></g></svg>