<?xml version="1.0" encoding="UTF-8" standalone="no"?>
<svg
   xmlns:dc="http://purl.org/dc/elements/1.1/"
   xmlns:cc="http://creativecommons.org/ns#"
   xmlns:rdf="http://www.w3.org/1999/02/22-rdf-syntax-ns#"
   xmlns:svg="http://www.w3.org/2000/svg"
   xmlns="http://www.w3.org/2000/svg"
   xmlns:sodipodi="http://sodipodi.sourceforge.net/DTD/sodipodi-0.dtd"
   xmlns:inkscape="http://www.inkscape.org/namespaces/inkscape"
   width="16"
   height="16"
   viewBox="0 0 15.999999 15.999999"
   version="1.1"
   id="svg8"
   sodipodi:docname="check-tiny.svg"
   inkscape:version="0.92.3 (2405546, 2018-03-11)">
  <metadata
     id="metadata14">
    <rdf:RDF>
      <cc:Work
         rdf:about="">
        <dc:format>image/svg+xml</dc:format>
        <dc:type
           rdf:resource="http://purl.org/dc/dcmitype/StillImage" />
        <dc:title />
      </cc:Work>
    </rdf:RDF>
  </metadata>
  <defs
     id="defs12" />
  <sodipodi:namedview
     pagecolor="#ffffff"
     bordercolor="#666666"
     borderopacity="1"
     objecttolerance="10"
     gridtolerance="10"
     guidetolerance="10"
     inkscape:pageopacity="0"
     inkscape:pageshadow="2"
     inkscape:window-width="2560"
     inkscape:window-height="1353"
     id="namedview10"
     showgrid="false"
     inkscape:zoom="14.75"
     inkscape:cx="-35.966102"
     inkscape:cy="8"
     inkscape:window-x="0"
     inkscape:window-y="240"
     inkscape:window-maximized="1"
     inkscape:current-layer="svg8"
     inkscape:snap-bbox="true"
     inkscape:bbox-paths="true"
     inkscape:bbox-nodes="true"
     inkscape:snap-bbox-edge-midpoints="true"
     inkscape:snap-bbox-midpoints="true"
     inkscape:snap-page="true" />
  <g
     transform="matrix(0.00170297,0,0,0.00170297,6.4235368,17.117157)"
     style="font-weight:400;font-size:2474.95507812px;line-height:125%;font-family:'DejaVu Sans';-inkscape-font-specification:'DejaVu Sans, Normal';text-align:start;letter-spacing:0;word-spacing:0;fill:#ffffff"
     font-weight="400"
     font-size="2474.955"
     letter-spacing="0"
     word-spacing="0"
     id="g6">
    <circle
       r="1502.8571"
       cy="-3074.4951"
       cx="925.71399"
       id="circle2"
       style="fill:#0082c9;fill-rule:evenodd" />
    <path
       style="font-family:FontAwesome;-inkscape-font-specification:FontAwesome"
       d="m 1996.077,-3574.458 c 0,-34.528 -13.811,-69.055 -38.671,-93.915 l -27.832,-27.832 c -24.86,-24.86 -59.388,-38.671 -93.915,-38.671 -34.528,0 -69.056,13.811 -93.916,38.671 l -1066.01,1067.391 -566.047,-567.428 c -24.86,-24.86 -59.388,-38.671 -93.916,-38.671 -34.528,0 -69.056,13.811 -93.916,38.671 l -27.831,27.832 c -24.86,24.86 -38.671,59.387 -38.671,93.915 0,34.528 13.81,69.056 38.67,93.916 l 499.964,499.963 187.831,187.831 c 24.86,24.86 59.388,38.671 93.916,38.671 34.528,0 69.055,-13.81 93.915,-38.67 l 187.832,-187.832 999.926,-999.926 c 24.86,-24.86 38.67,-59.388 38.67,-93.916 z"
       id="path4"
       inkscape:connector-curvature="0" />
  </g>
</svg>
