<?xml version="1.0" encoding="UTF-8" standalone="no"?>
<svg
   xmlns:dc="http://purl.org/dc/elements/1.1/"
   xmlns:cc="http://creativecommons.org/ns#"
   xmlns:rdf="http://www.w3.org/1999/02/22-rdf-syntax-ns#"
   xmlns:svg="http://www.w3.org/2000/svg"
   xmlns="http://www.w3.org/2000/svg"
   xmlns:sodipodi="http://sodipodi.sourceforge.net/DTD/sodipodi-0.dtd"
   xmlns:inkscape="http://www.inkscape.org/namespaces/inkscape"
   width="16"
   height="16"
   viewBox="0 0 15.999999 15.999999"
   version="1.1"
   id="svg8"
   sodipodi:docname="check-blue.svg"
   inkscape:version="0.92.4 (5da689c313, 2019-01-14)">
  <metadata
     id="metadata14">
    <rdf:RDF>
      <cc:Work
         rdf:about="">
        <dc:format>image/svg+xml</dc:format>
        <dc:type
           rdf:resource="http://purl.org/dc/dcmitype/StillImage" />
        <dc:title />
      </cc:Work>
    </rdf:RDF>
  </metadata>
  <defs
     id="defs12" />
  <sodipodi:namedview
     pagecolor="#ffffff"
     bordercolor="#666666"
     borderopacity="1"
     objecttolerance="10"
     gridtolerance="10"
     guidetolerance="10"
     inkscape:pageopacity="0"
     inkscape:pageshadow="2"
     inkscape:window-width="1920"
     inkscape:window-height="1007"
     id="namedview10"
     showgrid="false"
     inkscape:zoom="14.75"
     inkscape:cx="-24.508475"
     inkscape:cy="8"
     inkscape:window-x="0"
     inkscape:window-y="0"
     inkscape:window-maximized="1"
     inkscape:current-layer="svg8"
     inkscape:snap-bbox="true"
     inkscape:bbox-paths="true"
     inkscape:bbox-nodes="true"
     inkscape:snap-bbox-edge-midpoints="true"
     inkscape:snap-bbox-midpoints="true"
     inkscape:snap-page="true" />
  <path
     inkscape:connector-curvature="0"
     id="path4"
     d="m 13.082105,6.4905682 c 0,-0.16394 -0.06558,-0.3278752 -0.183611,-0.4459113 L 12.766347,5.9125098 c -0.118035,-0.1180361 -0.281975,-0.1836111 -0.44591,-0.1836111 -0.163939,0 -0.327879,0.065575 -0.445915,0.1836111 L 6.8130853,10.980514 4.1254828,8.2863491 C 4.007447,8.1683131 3.8435074,8.102738 3.6795678,8.102738 c -0.1639397,0 -0.3278793,0.065575 -0.4459151,0.1836111 L 3.1015106,8.4184963 c -0.1180358,0.118036 -0.1836107,0.2819712 -0.1836107,0.4459112 0,0.16394 0.06557,0.32788 0.1836059,0.445916 l 2.3738391,2.3738395 0.8918254,0.891827 c 0.1180357,0.118036 0.2819754,0.183611 0.445915,0.183611 0.1639396,0 0.3278745,-0.06557 0.4459103,-0.183606 L 8.1508257,11.684163 12.898494,6.9364842 C 13.01653,6.8184481 13.0821,6.6545082 13.0821,6.4905682 Z"
     style="font-weight:400;font-size:2474.95507812px;line-height:125%;font-family:FontAwesome;-inkscape-font-specification:FontAwesome;text-align:start;letter-spacing:0;word-spacing:0;fill:#0082c9;stroke-width:0.00474802" />
</svg>
