<svg xmlns="http://www.w3.org/2000/svg" xmlns:svg="http://www.w3.org/2000/svg" id="svg8" width="16" height="16" version="1.1" viewBox="0 0 16 16"><metadata id="metadata14"/><path style="line-height:125%;-inkscape-font-specification:FontAwesome;text-align:start" id="path4" fill="#0082c9" stroke-width=".005" d="m 13.082105,6.4905682 c 0,-0.16394 -0.06558,-0.3278752 -0.183611,-0.4459113 L 12.766347,5.9125098 c -0.118035,-0.1180361 -0.281975,-0.1836111 -0.44591,-0.1836111 -0.163939,0 -0.327879,0.065575 -0.445915,0.1836111 L 6.8130853,10.980514 4.1254828,8.2863491 C 4.007447,8.1683131 3.8435074,8.102738 3.6795678,8.102738 c -0.1639397,0 -0.3278793,0.065575 -0.4459151,0.1836111 L 3.1015106,8.4184963 c -0.1180358,0.118036 -0.1836107,0.2819712 -0.1836107,0.4459112 0,0.16394 0.06557,0.32788 0.1836059,0.445916 l 2.3738391,2.3738395 0.8918254,0.891827 c 0.1180357,0.118036 0.2819754,0.183611 0.445915,0.183611 0.1639396,0 0.3278745,-0.06557 0.4459103,-0.183606 L 8.1508257,11.684163 12.898494,6.9364842 C 13.01653,6.8184481 13.0821,6.6545082 13.0821,6.4905682 Z" font-family="FontAwesome" font-size="2474.955" font-weight="400" letter-spacing="0" word-spacing="0"/></svg>