<svg xmlns="http://www.w3.org/2000/svg" viewBox="0 0 905.15399 613.52503">
<title>
</title>
<g fill="none" fill-rule="evenodd">
<path d="M870.917 277.008h24.067v-2.712h-24.067" fill="#000"/>
<path d="M899.732 277.008h5.422v-2.712h-5.422" fill="#0c8fd7"/>
<path d="M888.883 269.551h11.863v-2.71h-11.864m-26.708 2.71h11.795v-2.71h-11.795" fill="#000"/>
<path d="M868.882 261.752h10.17v-2.712h-10.17M862.3863 277.39157h5.422v-2.712h-5.422" fill="#0c8fd7"/>
<path d="M600.7 584.752h22.372v-2.71H600.7m28.474 2.71h6.1v-2.71h-6.1m-22.374-6.1h13.56v-2.712H606.8m40.338 2.712h5.084v-2.712h-5.084m-21.354 2.712h15.592v-2.712h-15.592m-16.268 19.318h9.49v-2.712h-9.49m22.034 2.712h16.267v-2.712H631.55" fill="#000"/>
<path d="M278.985 234.884h9.49v-2.712h-9.49m50.168 2.712h4.744v-2.712h-4.744m-34.911 2.712h26.098v-2.712h-26.098" fill="#0c8fd7"/>
<path d="M361.752 242.344h17.604v-2.712h-17.604m-12.902 2.712h5.764v-2.712h-5.765" fill="#000"/>
<path d="M303.733 227.766h7.116v-2.71h-7.117" fill="#0c8fd7"/>
<path d="M515.5705 55.614h10.373v-2.713h-10.373" fill="#000"/>
<path d="M546.9585 55.614h16.61v-2.713h-16.61" fill="#0c8fd7"/>
<path d="M532.0455 55.614h6.1v-2.713h-6.1" fill="#000"/>
<path d="M515.6715 46.801h7.56v-2.713h-7.56" fill="#0c8fd7"/>
<path d="M550.0095 46.801h5.086v-2.713h-5.086m-21.354 2.713h15.592v-2.713h-15.592" fill="#000"/>
<path d="M516.3835 63.413h5.49v-2.71h-5.49m18.032 2.71h16.272v-2.71h-16.27" fill="#0c8fd7"/>
<path d="M653.072 103.346h13.557v-2.713H653.07m-14.915 2.713h8.137v-2.713h-8.137" fill="#000"/>
<path d="M616.125 95.888h24.745v-2.71h-24.745m43.727 2.71h11.864v-2.71h-11.864m-11.527 2.71h6.1v-2.71h-6.1m2.715-5.089h13.217v-2.712H651.04" fill="#0c8fd7"/>
<path d="M403.083 193.186h-2.71v-34.564c0-4.553-3.705-8.254-8.254-8.254H255.982c-6.044 0-10.965-4.922-10.965-10.966v-14.826h2.715v14.826c0 4.55 3.7 8.254 8.25 8.254h136.136c6.046 0 10.963 4.918 10.963 10.966v34.564zm186.431 5.31h-2.712v-50.283c0-6.045 4.918-10.966 10.965-10.966h96.543c4.55 0 8.253-3.7 8.253-8.25v-5.108h2.71v5.108c0 6.045-4.92 10.966-10.963 10.966h-96.543c-4.553 0-8.253 3.7-8.253 8.25v50.285z" fill="#000"/>
<path d="M493.512 266.191c0-.06.028-.12.08-.155l53.97-38.167c.03-.025.078 0 .078.04v56.47c0 .06-.03.12-.08.155l-53.97 38.167c-.032.025-.078 0-.078-.04v-56.47z" fill="#fff"/>
<path d="M494.868 266.794v53.343l51.417-36.36V230.43l-51.417 36.365zm-1.304 57.27c-.776 0-1.408-.627-1.408-1.407v-56.465c0-.502.246-.975.654-1.264l54.32-38.415.458-.01c.776 0 1.408.632 1.408 1.408v56.47c0 .498-.242.97-.65 1.26l-54.323 38.42-.46.006z" fill="#000"/>
<path d="M493.49 266.191c0-.06-.03-.12-.08-.155l-53.97-38.167c-.032-.025-.08 0-.08.04v56.47c0 .06.03.12.08.155l53.97 38.167c.033.025.08 0 .08-.04v-56.47z" fill="#fff"/>
<path d="M440.717 283.776l51.417 36.364v-53.346l-51.417-36.365v53.346zm52.72 40.293H493l-.382-.268-53.96-38.16c-.407-.288-.653-.76-.653-1.263v-56.47c0-.776.632-1.404 1.408-1.404h.426l.378.253 53.974 38.17c.408.29.653.763.653 1.265v57.044l-.827.818-.58.015z" fill="#000"/>
<path d="M547.56 227.856l-53.966-38.166h-.184l-53.97 38.167v.012l53.97 38.166h.184l53.966-38.166" fill="#fff"/>
<path d="M441.782 227.863l51.72 36.578 51.717-36.578-51.719-36.577-51.72 36.577zm52.24 39.528h-1.043l-54.895-38.82v-1.405l.574-.415 54.32-38.416h1.042l54.894 38.82v1.404l-.574.415-54.32 38.415z" fill="#000"/>
<path d="M493.512 191.513c0-.062.028-.12.08-.156l53.97-38.165c.03-.025.078 0 .078.04v56.47c0 .06-.03.12-.08.155l-53.97 38.166c-.032.026-.078 0-.078-.043v-56.466z" fill="#f2f2f2"/>
<path d="M494.868 192.116v53.343l51.417-36.362v-53.345l-51.417 36.365zm-1.304 57.27c-.776 0-1.408-.627-1.408-1.407v-56.466c0-.502.246-.975.654-1.264l54.32-38.416.458-.01c.776 0 1.408.63 1.408 1.408v56.47c0 .498-.242.97-.65 1.26l-54.323 38.42-.46.006z" fill="#000"/>
<path d="M493.49 191.513c0-.062-.03-.12-.08-.156l-53.97-38.165c-.032-.025-.08 0-.08.04v56.47c0 .06.03.12.08.155l53.97 38.166c.033.026.08 0 .08-.043v-56.466z" fill="#f2f2f2"/>
<path d="M440.717 209.096l51.417 36.366v-53.346l-51.417-36.365v53.346zm52.72 40.29h-.426l-.378-.252-53.973-38.17c-.41-.29-.655-.762-.655-1.264v-56.47c0-.776.632-1.404 1.408-1.404h.426l.378.252 53.974 38.17c.408.29.653.762.653 1.264v57.052l-.83.812-.578.01z" fill="#000"/>
<path d="M547.56 153.179l-53.966-38.167h-.184l-53.97 38.167v.01l53.97 38.167h.184l53.966-38.167" fill="#fff"/>
<path d="M441.782 153.186l51.72 36.577 51.717-36.578-51.719-36.579-51.72 36.58zm52.24 39.527h-1.043l-54.895-38.82v-1.405l.574-.415 54.32-38.416h1.042l54.894 38.82v1.406l-.574.415-54.32 38.417z" fill="#000"/>
<path d="M429.922 313.01c0-.06.028-.12.08-.155l53.97-38.168c.03-.025.078 0 .078.04v56.47c0 .06-.03.12-.08.155L430 369.52c-.032.025-.078 0-.078-.04v-56.47z" fill="#fff"/>
<path d="M431.278 313.613v53.346l51.417-36.364v-53.344l-51.417 36.36zm-1.304 57.27c-.776 0-1.408-.627-1.408-1.403v-56.47c0-.502.246-.975.654-1.264l54.32-38.416.458-.01c.776 0 1.408.63 1.408 1.408v56.47c0 .5-.245.974-.653 1.263l-54.32 38.416-.46.008z" fill="#000"/>
<path d="M429.9 313.01c0-.06-.03-.12-.08-.155l-53.97-38.168c-.032-.025-.08 0-.08.04v56.47c0 .06.03.12.08.155l53.97 38.167c.033.025.08 0 .08-.04v-56.47z" fill="#fff"/>
<path d="M377.127 330.594l51.417 36.365v-53.347l-51.417-36.36v53.342zm52.72 40.294h-.426l-.378-.257-53.973-38.17c-.413-.292-.655-.765-.655-1.264v-56.465c0-.776.632-1.408 1.408-1.408h.437l.386.267 53.956 38.156c.408.288.653.762.653 1.263v57.055l-.83.81-.578.014z" fill="#000"/>
<path d="M483.97 274.676l-53.966-38.166h-.184l-53.97 38.166v.01l53.97 38.168h.184l53.966-38.167" fill="#f2f2f2"/>
<path d="M378.19 274.682l51.722 36.578 51.717-36.578-51.718-36.578-51.72 36.578zm52.242 39.528h-1.044l-54.894-38.82v-1.405l.574-.416 54.32-38.416h1.044l54.894 38.82v1.405l-.574.415-54.32 38.416z" fill="#000"/>
<path d="M559.668 313.01c0-.06.03-.12.08-.155l53.97-38.168c.03-.025.078 0 .078.04v56.47c0 .06-.03.12-.08.155l-53.97 38.167c-.03.025-.078 0-.078-.04v-56.47z" fill="#fff"/>
<path d="M561.024 313.613v53.346l51.417-36.364v-53.344l-51.416 36.36zm-1.304 57.27c-.776 0-1.408-.627-1.408-1.403v-56.47c0-.502.246-.975.654-1.264l54.32-38.416.458-.01c.776 0 1.408.63 1.408 1.408v56.47c0 .5-.245.974-.653 1.263l-54.32 38.416-.46.008z" fill="#000"/>
<path d="M559.646 313.01c0-.06-.03-.12-.08-.155l-53.97-38.168c-.032-.025-.08 0-.08.04v56.47c0 .06.03.12.08.155l53.97 38.167c.033.025.08 0 .08-.04v-56.47z" fill="#fff"/>
<path d="M506.872 330.594l51.418 36.365v-53.347l-51.418-36.36v53.342zm52.72 40.294h-.43l-.378-.26-53.97-38.167c-.41-.292-.653-.765-.653-1.264v-56.465c0-.776.633-1.408 1.41-1.408h.44l.382.267 53.955 38.156c.412.288.654.762.654 1.263v57.055l-.833.81-.574.014z" fill="#000"/>
<path d="M613.716 274.676l-53.97-38.166h-.18l-53.97 38.166v.01l53.97 38.168h.18l53.97-38.167" fill="#f2f2f2"/>
<path d="M507.937 274.682l51.72 36.578 51.717-36.578-51.716-36.578-51.72 36.578zm52.244 39.528h-1.046l-54.894-38.82v-1.405l.574-.416 54.32-38.416h1.047l54.89 38.82v1.405l-.573.415-54.316 38.416z" fill="#000"/>
<path d="M429.922 238.332c0-.06.028-.12.08-.155l53.97-38.166c.03-.025.078 0 .078.04v56.47c0 .06-.03.12-.08.155L430 294.84c-.032.026-.078 0-.078-.04v-56.47z" fill="#f2f2f2"/>
<path d="M431.278 238.936v53.34l51.417-36.36V202.57l-51.417 36.365zm-1.304 57.27c-.776 0-1.408-.632-1.408-1.405v-56.47c0-.5.246-.974.654-1.263l54.32-38.416.458-.007c.776 0 1.408.627 1.408 1.403v56.47c0 .502-.245.975-.653 1.264l-54.32 38.416-.46.007z" fill="#000"/>
<path d="M429.9 238.332c0-.06-.03-.12-.08-.155l-53.97-38.166c-.032-.025-.08 0-.08.04v56.47c0 .06.03.12.08.155l53.97 38.165c.033.026.08 0 .08-.04v-56.47z" fill="#fff"/>
<path d="M377.127 255.916l51.417 36.365v-53.347l-51.417-36.36v53.342zm52.72 40.293h-.437l-.382-.267-53.96-38.16c-.41-.292-.653-.76-.653-1.263v-56.466c0-.777.632-1.41 1.408-1.41h.43l.38.258 53.97 38.166c.407.29.652.763.652 1.265v57.048l-.827.816-.58.013z" fill="#000"/>
<path d="M483.97 199.998l-53.966-38.167h-.184l-53.97 38.167v.01l53.97 38.167h.184l53.966-38.167" fill="#fff"/>
<path d="M378.19 200.004l51.722 36.577 51.717-36.577-51.718-36.578-51.72 36.578zm52.242 39.527h-1.044l-54.894-38.82v-1.405l.574-.415 54.32-38.415h1.044l54.894 38.82v1.404l-.574.416-54.32 38.415z" fill="#000"/>
<path d="M559.668 238.332c0-.06.03-.12.08-.155l53.97-38.166c.03-.025.078 0 .078.04v56.47c0 .06-.03.12-.08.155l-53.97 38.165c-.03.026-.078 0-.078-.04v-56.47z" fill="#fff"/>
<path d="M561.024 238.936v53.34l51.417-36.36V202.57l-51.416 36.365zm-1.304 57.27c-.776 0-1.408-.632-1.408-1.405v-56.47c0-.5.246-.974.654-1.263l54.32-38.416.458-.007c.776 0 1.408.627 1.408 1.403v56.47c0 .502-.245.975-.653 1.264l-54.32 38.416-.46.007z" fill="#000"/>
<path d="M559.646 238.332c0-.06-.03-.12-.08-.155l-53.97-38.166c-.032-.025-.08 0-.08.04v56.47c0 .06.03.12.08.155l53.97 38.165c.033.026.08 0 .08-.04v-56.47z" fill="#f2f2f2"/>
<path d="M506.872 255.916l51.418 36.365v-53.347l-51.418-36.365v53.347zm52.72 40.293h-.436l-.386-.27-53.955-38.156c-.412-.293-.654-.766-.654-1.264v-56.466c0-.777.633-1.41 1.41-1.41h.43l.38.258 53.967 38.166c.412.29.654.763.654 1.265v57.048l-.826.816-.58.013z" fill="#000"/>
<path d="M613.716 199.998l-53.97-38.167h-.18l-53.97 38.167v.01l53.97 38.167h.18l53.97-38.167" fill="#fff"/>
<path d="M507.937 200.004l51.72 36.577 51.717-36.577-51.716-36.578-51.72 36.578zm52.244 39.527h-1.046l-54.894-38.82v-1.405l.574-.415 54.32-38.415h1.047l54.89 38.82v1.404l-.573.416-54.316 38.415z" fill="#000"/>
<path d="M493.512 362.15c0-.062.028-.12.08-.156l53.97-38.166c.03-.025.078 0 .078.04v56.47c0 .06-.03.12-.08.155l-53.97 38.166c-.032.026-.078 0-.078-.04v-56.47z" fill="#fff"/>
<path d="M494.868 362.752v53.346l51.417-36.364v-53.343l-51.417 36.36zm-1.304 57.275c-.776 0-1.408-.63-1.408-1.407v-56.47c0-.502.246-.975.654-1.264l54.32-38.417.462-.007c.772 0 1.404.632 1.404 1.405v56.47c0 .5-.242.972-.65 1.26l-54.323 38.42-.46.01z" fill="#000"/>
<path d="M493.49 362.15c0-.062-.03-.12-.08-.156l-53.97-38.166c-.032-.025-.08 0-.08.04v56.47c0 .06.03.12.08.155l53.97 38.166c.033.026.08 0 .08-.04v-56.47z" fill="#fff"/>
<path d="M440.717 379.734l51.417 36.364v-53.346l-51.417-36.36v53.342zm52.72 40.293h-.426l-.378-.255-53.973-38.17c-.41-.29-.655-.762-.655-1.264v-56.47c0-.772.632-1.404 1.408-1.404h.426l.378.253 53.974 38.17c.408.288.653.76.653 1.263v57.05l-.83.814-.578.014z" fill="#000"/>
<path d="M547.56 323.816l-53.966-38.167h-.184l-53.97 38.167v.01l53.97 38.167h.184l53.966-38.167" fill="#f2f2f2"/>
<path d="M441.782 323.822l51.72 36.577 51.717-36.577-51.718-36.578-51.72 36.578zm52.24 39.528h-1.043l-54.895-38.82v-1.405l.574-.416 54.32-38.416h1.042l54.894 38.82v1.405l-.574.415-54.32 38.416z" fill="#000"/>
<path d="M493.512 287.471c0-.06.028-.12.08-.155l53.97-38.167c.03-.025.078 0 .078.04v56.47c0 .06-.03.12-.08.155l-53.97 38.167c-.032.025-.078 0-.078-.04v-56.47z" fill="#fff"/>
<path d="M494.868 288.074v53.347l51.417-36.365v-53.347l-51.417 36.365zm-1.304 57.272c-.776 0-1.408-.632-1.408-1.41v-56.465c0-.502.246-.975.654-1.264l54.32-38.414.462-.01c.772 0 1.404.63 1.404 1.407v56.47c0 .498-.242.97-.65 1.26l-54.323 38.42-.46.007z" fill="#000"/>
<path d="M493.49 287.471c0-.06-.03-.12-.08-.155l-53.97-38.167c-.032-.025-.08 0-.08.04v56.47c0 .06.03.12.08.155l53.97 38.167c.033.025.08 0 .08-.04v-56.47z" fill="#fff"/>
<path d="M440.717 305.056l51.417 36.364v-53.346l-51.417-36.36v53.34zm52.72 40.293h-.426l-.378-.257-53.973-38.17c-.41-.29-.655-.762-.655-1.264v-56.47c0-.772.632-1.404 1.408-1.404h.437l.383.264 53.96 38.16c.407.288.652.76.652 1.263v57.047l-.827.813-.58.018z" fill="#000"/>
<path d="M547.56 249.136l-53.966-38.165h-.184l-53.97 38.166v.012l53.97 38.167h.184l53.966-38.168" fill="#fff"/>
<path d="M441.782 249.143l51.72 36.578 51.717-36.578-51.719-36.577-51.72 36.577zm52.24 39.528h-1.043l-54.895-38.82v-1.405l.574-.415 54.32-38.416h1.042l54.894 38.82v1.404l-.574.415-54.32 38.415zM811.51 421.936h-2.713v-16.97c0-4.553-3.704-8.254-8.253-8.254h-202.78c-6.043 0-10.963-4.922-10.963-10.967v-58.42h2.715v58.42c0 4.55 3.7 8.254 8.25 8.254h202.78c6.047 0 10.48113 4.93731 10.964 10.966v16.97zM390.763 382.02h-186.91c-6.048 0-10.965-4.918-10.965-10.966v-27.518h2.71v27.518c0 4.55 3.702 8.254 8.254 8.254h186.91c4.55 0 8.254-3.704 8.254-8.254V326.42h2.71v44.634c0 6.048-4.916 10.966-10.963 10.966m-30.507 78.652h-61.814v-2.71h61.814c4.55 0 8.253-3.706 8.253-8.256v-18.75c0-6.045 4.916-10.967 10.964-10.967h76.71c4.55 0 8.253-3.7 8.253-8.25v-34.466h2.712v34.465c0 6.045-4.922 10.963-10.966 10.963h-76.71c-4.553 0-8.253 3.705-8.253 8.254v18.75c0 6.048-4.917 10.966-10.964 10.966m162.905 38.85l-2.71-.004.025-16.58c.01-6.044 4.936-10.962 10.983-10.962h11.816c2.85 0 5.17-2.32 5.17-5.17s-2.32-5.172-5.17-5.172h-42.88c-4.346 0-7.88-3.535-7.88-7.882 0-4.344 3.534-7.883 7.88-7.883h11.846c2.206 0 4.28-.854 5.835-2.414 1.556-1.557 2.41-3.63 2.41-5.835l-.035-62.15 2.71-.003.038 62.15c.003 2.932-1.138 5.687-3.206 7.756-2.07 2.073-4.824 3.214-7.752 3.214h-11.845c-2.852 0-5.17 2.318-5.17 5.167 0 2.852 2.318 5.17 5.17 5.17h42.88c4.342 0 7.88 3.535 7.88 7.883 0 4.347-3.538 7.882-7.88 7.882h-11.817c-4.553 0-8.264 3.704-8.27 8.254l-.027 16.58z" fill="#000"/>
<path d="M310.618 180.966l-1.132-1.793c-.727-1.157-1.575-2.222-2.525-3.17-.946-.95-2.01-1.8-3.164-2.526L302 172.346l1.796-1.134c1.15-.727 2.218-1.576 3.165-2.526.95-.948 1.8-2.013 2.526-3.167l1.132-1.797 1.132 1.797c.726 1.152 1.575 2.22 2.524 3.167.95.95 2.015 1.8 3.166 2.526l1.795 1.133-1.795 1.13c-1.15.728-2.216 1.577-3.166 2.527-.95.95-1.798 2.016-2.524 3.17l-1.132 1.794zm269-52l-1.132-1.793c-.727-1.157-1.575-2.222-2.525-3.17-.946-.95-2.01-1.8-3.164-2.526L571 120.346l1.796-1.134c1.15-.727 2.218-1.576 3.165-2.526.95-.948 1.8-2.013 2.526-3.167l1.132-1.797 1.132 1.797c.726 1.152 1.575 2.22 2.524 3.167.95.95 2.015 1.8 3.166 2.526l1.795 1.133-1.795 1.13c-1.15.728-2.216 1.577-3.166 2.527-.95.95-1.798 2.016-2.524 3.17l-1.132 1.794zm-186.941 474l-1.46-2.313c-.937-1.492-2.032-2.866-3.256-4.09-1.22-1.224-2.594-2.32-4.082-3.258l-2.317-1.46 2.318-1.462c1.484-.938 2.86-2.033 4.083-3.26 1.225-1.22 2.32-2.595 3.258-4.084l1.46-2.318 1.46 2.318c.936 1.485 2.03 2.863 3.256 4.085 1.225 1.225 2.598 2.32 4.083 3.258l2.317 1.46-2.317 1.46c-1.485.94-2.858 2.035-4.083 3.26-1.225 1.226-2.32 2.6-3.257 4.09l-1.46 2.313z" stroke="#1393d9" stroke-width="3"/>
<g fill="#000">
 <path d="M472.0205 67.414h43.027v-28.28h-43.027v28.28zm-2.71 2.712h48.448V36.421h-48.45v33.705z"/>
 <path d="M479.3275 36.423h10.535v-6.24c0-.177-.145-.318-.322-.318h-9.892c-.177 0-.32.14-.32.318v6.24zm13.246 2.71h-15.958v-8.95c0-1.672 1.362-3.033 3.033-3.033h9.892c1.672 0 3.033 1.36 3.033 3.032v8.95z"/>
</g>
<path d="M552.533 191.381c2.924-2.925 7.66-2.925 10.585 0 2.925 2.924 2.925 7.662 0 10.587-2.924 2.924-7.66 2.924-10.585 0-2.924-2.925-2.924-7.663 0-10.587" fill="#fff"/>
<path d="M557.826 190.544c-1.636 0-3.177.64-4.333 1.794-1.158 1.16-1.798 2.697-1.798 4.337 0 1.634.64 3.176 1.798 4.332 1.156 1.16 2.697 1.798 4.333 1.798 1.635 0 3.177-.64 4.336-1.798 1.155-1.156 1.794-2.698 1.794-4.333 0-1.64-.64-3.18-1.794-4.338-1.16-1.155-2.7-1.794-4.336-1.794m0 14.974c-2.36 0-4.582-.92-6.253-2.593-1.668-1.67-2.59-3.89-2.59-6.25 0-2.363.922-4.583 2.59-6.255 1.67-1.668 3.892-2.59 6.253-2.59 2.36 0 4.58.922 6.253 2.59 1.667 1.672 2.587 3.892 2.587 6.254 0 2.36-.92 4.58-2.588 6.25-1.673 1.67-3.893 2.592-6.254 2.592" fill="#000"/>
<path d="M424.7 191.149c2.924-2.925 7.66-2.925 10.585 0 2.924 2.924 2.924 7.662 0 10.587-2.924 2.924-7.66 2.924-10.585 0-2.925-2.925-2.925-7.663 0-10.587" fill="#fff"/>
<path d="M429.993 190.312c-1.636 0-3.177.64-4.336 1.795-2.39 2.39-2.39 6.28 0 8.67 1.16 1.16 2.7 1.795 4.336 1.795 1.635 0 3.177-.635 4.336-1.794 2.385-2.39 2.39-6.28 0-8.67-1.16-1.154-2.702-1.794-4.337-1.794m0 14.975c-2.36 0-4.582-.92-6.253-2.592-3.444-3.445-3.444-9.056 0-12.504 1.67-1.67 3.892-2.59 6.253-2.59 2.36 0 4.58.92 6.253 2.59 3.444 3.448 3.444 9.06 0 12.504-1.672 1.672-3.892 2.593-6.253 2.593" fill="#000"/>
<path d="M394.87 318.62c2.925-2.925 7.662-2.925 10.586 0 2.924 2.925 2.924 7.662 0 10.587-2.924 2.926-7.66 2.926-10.585 0-2.924-2.924-2.924-7.66 0-10.586" fill="#fff"/>
<path d="M400.164 317.784c-1.636 0-3.177.64-4.336 1.794-2.39 2.39-2.39 6.28 0 8.67 1.16 1.16 2.7 1.794 4.336 1.794 1.64 0 3.177-.635 4.336-1.794 2.39-2.39 2.39-6.28 0-8.67-1.16-1.155-2.697-1.794-4.336-1.794m0 14.974c-2.36 0-4.582-.92-6.253-2.593-3.444-3.45-3.444-9.057 0-12.505 1.672-1.668 3.893-2.59 6.254-2.59 2.36 0 4.58.922 6.253 2.59 3.447 3.448 3.447 9.056 0 12.504-1.672 1.67-3.892 2.592-6.253 2.592" fill="#000"/>
<path d="M460.63 367.946c2.924-2.924 7.66-2.924 10.585 0 2.925 2.926 2.925 7.667 0 10.588-2.924 2.925-7.66 2.925-10.585 0-2.924-2.92-2.924-7.662 0-10.587" fill="#fff"/>
<path d="M465.923 367.111c-1.64 0-3.177.64-4.336 1.795-2.387 2.39-2.387 6.28 0 8.67 1.16 1.158 2.697 1.794 4.336 1.794 1.635 0 3.177-.636 4.336-1.795 2.385-2.39 2.39-6.28 0-8.67-1.16-1.156-2.702-1.795-4.337-1.795m0 14.974c-2.36 0-4.582-.922-6.253-2.593-3.444-3.445-3.444-9.056 0-12.505 1.67-1.668 3.892-2.59 6.253-2.59 2.36 0 4.58.922 6.253 2.59 3.444 3.45 3.444 9.06 0 12.505-1.672 1.67-3.892 2.592-6.253 2.592" fill="#000"/>
<path d="M516.39 367.946c2.924-2.924 7.66-2.924 10.585 0 2.924 2.926 2.924 7.667 0 10.588-2.924 2.925-7.66 2.925-10.585 0-2.925-2.92-2.925-7.662 0-10.587" fill="#fff"/>
<path d="M521.682 367.111c-1.64 0-3.177.64-4.336 1.795-2.386 2.39-2.386 6.28 0 8.67 1.16 1.158 2.697 1.794 4.336 1.794 1.64 0 3.177-.636 4.336-1.795 2.39-2.39 2.39-6.28 0-8.67-1.16-1.156-2.697-1.795-4.336-1.795m0 14.974c-2.36 0-4.58-.922-6.253-2.593-3.445-3.445-3.445-9.056 0-12.505 1.67-1.668 3.89-2.59 6.252-2.59 2.36 0 4.582.922 6.253 2.59 3.444 3.45 3.444 9.06 0 12.505-1.67 1.67-3.892 2.592-6.253 2.592" fill="#000"/>
<path d="M582.827 319.466c2.924-2.923 7.66-2.923 10.585 0 2.924 2.926 2.924 7.664 0 10.588-2.924 2.925-7.66 2.925-10.585 0-2.925-2.924-2.925-7.662 0-10.587" fill="#fff"/>
<path d="M588.12 318.631c-1.64 0-3.178.64-4.337 1.795-2.386 2.39-2.386 6.28.004 8.67 1.155 1.158 2.693 1.794 4.332 1.794 1.635 0 3.176-.636 4.335-1.795 2.39-2.39 2.39-6.28 0-8.67-1.16-1.156-2.7-1.795-4.336-1.795m0 14.974c-2.362 0-4.582-.92-6.254-2.593-3.444-3.445-3.444-9.056 0-12.505 1.672-1.668 3.892-2.59 6.253-2.59 2.36 0 4.58.922 6.252 2.59 3.445 3.45 3.445 9.06 0 12.505-1.67 1.672-3.892 2.592-6.253 2.592M291.357 462.196h5.762v-5.932h-5.763v5.933zm-2.708 2.713h11.184v-11.356H288.65v11.356zM519.008 497.016h5.76v-5.934h-5.76v5.933zm-2.708 2.71h11.184v-11.355H516.3v11.356zM807.1 430.532h5.763v-5.933H807.1v5.933zm-2.71 2.712h11.184v-11.356H804.39v11.356zM700.8625 121.397h5.762v-5.932h-5.762v5.933zm-2.708 2.712h11.185v-11.356h-11.185v11.356zM191.362 342.118h5.762v-5.933h-5.762v5.932zm-2.71 2.71h11.183v-11.355H188.65v11.356zm493.115-95.872h-95.984v-2.713h95.984c4.55 0 8.253-3.704 8.253-8.254v-4.51c0-6.048 4.917-10.966 10.964-10.966h50.047v2.712h-50.046c-4.552 0-8.253 3.7-8.253 8.253v4.51c0 6.048-4.916 10.966-10.963 10.966" fill="#000"/>
<path d="M5.84 174.459c-1.726 0-3.127 1.404-3.127 3.127V329.97c0 1.726 1.4 3.127 3.126 3.127h236.58c1.725 0 3.126-1.4 3.126-3.126V177.586c0-1.723-1.4-3.127-3.127-3.127H5.84zm236.58 161.35H5.84c-3.22 0-5.84-2.618-5.84-5.84V177.586c0-3.218 2.62-5.84 5.84-5.84h236.58c3.22 0 5.837 2.622 5.837 5.84V329.97c0 3.22-2.617 5.84-5.838 5.84z" fill="#000"/>
<path d="M11.156 321.851h225.95V182.054H11.157v139.797zm-2.715 2.712h231.375v-145.22H8.44v145.22z" fill="#000"/>
<path d="M124.13 176.639c-.167 0-.304.137-.304.304 0 .166.137.3.303.3.165 0 .303-.134.303-.3 0-.167-.138-.304-.304-.304m0 2.712c-1.33 0-2.41-1.08-2.41-2.408 0-1.33 1.08-2.412 2.41-2.412 1.328 0 2.407 1.083 2.407 2.412 0 1.328-1.08 2.408-2.408 2.408" fill="#000"/>
<path d="M125.645 328.8c0 .838-.68 1.517-1.517 1.517-.834 0-1.513-.678-1.513-1.516s.68-1.517 1.513-1.517c.838 0 1.517.68 1.517 1.517" fill="#fff"/>
<path d="M124.13 328.641c-.087 0-.16.072-.16.16 0 .172.318.172.318 0 0-.088-.072-.16-.16-.16m0 3.03c-1.58 0-2.87-1.29-2.87-2.87 0-1.586 1.29-2.872 2.87-2.872 1.586 0 2.87 1.286 2.87 2.87 0 1.583-1.284 2.872-2.87 2.872M82.1 359.223h84.055v-2.903H82.1v2.903zm-2.71 2.712h89.48v-8.329H79.39v8.327z" fill="#000"/>
<path d="M96.13 353.608h56l-3.474-17.798H99.604l-3.473 17.798zm59.292 2.712H92.838l4.53-23.222h53.523l4.532 23.222zm-66.506-69.651l-25.243-27.663-25.243 27.663-2.004-1.83 27.247-29.855 27.246 29.854" fill="#000"/>
<path d="M53.75 256.282H73.6v-19.853H53.75v19.853zm-2.715 2.71H76.31v-25.274H51.035v25.275zM28.445 307.043h19.85V287.19h-19.85v19.853zm-2.71 2.712h25.274v-25.28H25.733v25.28zM79.05 307.043H98.9V287.19H79.05v19.853zm-2.71 2.712h25.27v-25.28H76.34v25.28z" fill="#000"/>
<path d="M88.962 295.033c-1.148 0-2.083.935-2.083 2.084 0 1.15.934 2.08 2.082 2.08 1.148 0 2.083-.93 2.083-2.08 0-1.148-.935-2.083-2.083-2.083m0 6.88c-2.643 0-4.794-2.153-4.794-4.796 0-2.646 2.15-4.795 4.794-4.795 2.643 0 4.795 2.15 4.795 4.796 0 2.644-2.152 4.796-4.795 4.796M38.384 295.033c-1.15 0-2.084.935-2.084 2.084 0 1.15.935 2.08 2.084 2.08 1.148 0 2.083-.93 2.083-2.08 0-1.148-.935-2.083-2.083-2.083m0 6.88c-2.643 0-4.795-2.153-4.795-4.796 0-2.646 2.15-4.795 4.794-4.795 2.642 0 4.794 2.15 4.794 4.796 0 2.644-2.152 4.796-4.794 4.796" fill="#000"/>
<path d="M85.896 297.116H41.45" fill="#fff"/>
<path d="M41.45 298.471h44.445v-2.712H41.45m20.867-5.398h2.71v-19.33h-2.71" fill="#000"/>
<path d="M66.963 278.404l-3.29-5.756-3.29 5.756-2.355-1.347 5.646-9.87 5.643 9.87M143.237 252.854c-2.766.12-5.2.617-7.914 1.606-6.802 2.477-12.232 7.453-15.293 14.014-3.058 6.565-3.38 13.923-.903 20.726 3.885 10.67 14.12 17.84 25.467 17.84 2.708 0 5.387-.403 7.982-1.208l-9.34-25.662v-27.316zm1.357 56.9c-12.484 0-23.745-7.887-28.016-19.626-2.722-7.485-2.368-15.58.997-22.8 3.365-7.217 9.34-12.694 16.82-15.417 3.42-1.242 6.563-1.798 10.2-1.798h1.353v29.58l10.116 27.793-1.275.462c-3.293 1.2-6.723 1.805-10.196 1.805z" fill="#000"/>
<path d="M150.037 280.202l8.99 24.71c4.1-1.694 7.296-4.063 10.228-7.558 9.314-11.103 8.188-27.544-2.322-37.29l-16.896 20.138zm7.38 28.212l-10.463-28.757 19.665-23.437 1.04.87c12.59 10.57 14.238 29.41 3.67 42.005-3.5 4.178-7.516 6.99-12.64 8.854l-1.273.466zM153.754 236.376v23.346l15.007-17.884c-4.46-3.423-9.392-5.218-15.006-5.463zm-2.712 30.8v-33.542h1.358c7.3 0 13.567 2.28 19.16 6.976l1.04.87-21.558 25.695zm-9.809-59.406h14.903v-2.712h-14.903m29.047 2.712h8.843v-2.712h-8.842m-8.588 2.712h4.548v-2.712h-4.547m2.02-3.098h9.853v-2.71h-9.853m-22.481 2.71h16.72v-2.71h-16.72M107.562 204.702c-3.155.202-5.957 1.12-8.72 2.85-4.306 2.69-7.306 6.895-8.45 11.846-1.14 4.95-.29 10.045 2.404 14.353 3.495 5.6 9.53 8.94 16.142 8.94 3.1 0 6.144-.762 8.88-2.213l-1.97-3.152c-2.138 1.086-4.506 1.657-6.925 1.657-8.44 0-15.304-6.868-15.304-15.306 0-7.98 6.14-14.555 13.942-15.248v-3.726zm1.376 40.705c-7.553 0-14.445-3.82-18.445-10.218-3.072-4.922-4.047-10.746-2.744-16.4 1.306-5.655 4.736-10.465 9.657-13.538 3.552-2.224 7.318-3.303 11.513-3.303h1.353v9.136h-1.353c-6.943.004-12.59 5.65-12.59 12.595 0 6.944 5.65 12.595 12.593 12.595 2.365 0 4.668-.66 6.668-1.914l1.153-.717 4.838 7.745-1.15.72c-3.46 2.158-7.434 3.303-11.492 3.303z" fill="#000"/>
<path d="M113.76 202.789c4.787.418 9.06 3.04 11.614 7.117l3.314-1.694c-3.246-5.474-8.578-8.742-14.928-9.15v3.727zm10.484 10.735l-.618-1.206c-2.166-4.24-6.466-6.875-11.217-6.875h-1.358l-.004-9.136h1.354c8.463 0 15.517 4.327 19.358 11.866l.614 1.206-8.13 4.146zM118.148 235.888l1.97 3.156c7.19-5.218 9.792-14.6 6.315-22.774l-3.31 1.69c.733 1.813 1.104 3.73 1.104 5.716 0 4.853-2.25 9.327-6.08 12.212zm1.133 6.933l-4.836-7.745 1.148-.72c3.707-2.32 5.924-6.314 5.924-10.68 0-2.01-.462-3.932-1.375-5.72l-.617-1.21 8.138-4.144.615 1.21c5.15 10.113 1.78 22.275-7.846 28.29l-1.15.72z" fill="#000"/>
<path d="M94.368 262.026v7.294" fill="#fff"/>
<path d="M93.01 269.32h2.712v-7.293h-2.71" fill="#000"/>
<path d="M98.015 265.674h-7.293" fill="#fff"/>
<path d="M90.722 267.028h7.293v-2.712h-7.293" fill="#000"/>
<path d="M179.588 250.993v5.272" fill="#fff"/>
<path d="M178.23 256.266h2.712v-5.27h-2.71" fill="#000"/>
<path d="M182.224 253.63h-5.27" fill="#fff"/>
<path d="M176.953 254.986h5.27v-2.712h-5.27" fill="#000"/>
<path d="M72.81 204.671v5.27" fill="#fff"/>
<path d="M71.454 209.944h2.71v-5.272h-2.71" fill="#000"/>
<path d="M75.447 207.306h-5.27" fill="#fff"/>
<path d="M70.176 208.662h5.27v-2.712h-5.27M33.405 257.016c-2.054 0-3.722 1.672-3.722 3.723 0 2.055 1.668 3.723 3.722 3.723 2.05 0 3.722-1.668 3.722-3.723 0-2.05-1.67-3.723-3.722-3.723m0 2.712c.56 0 1.01.45 1.01 1.01s-.45 1.012-1.01 1.012-1.01-.45-1.01-1.01.45-1.012 1.01-1.012m76.838-1.558h1.938v-1.94h-1.937m-25.262-3.364h1.94v-1.94h-1.94m25.221 50.155h1.94v-1.94h-1.94m45.262-80.639h1.94v-1.94h-1.94m27.748 59.76h1.94v-1.94h-1.94m-146.23.969h1.94v-1.94h-1.94m157.094-75.08h1.938v-1.94h-1.938m-172.459 3.222h14.286v-2.712H21.618m27.705 2.712H59.93v-2.712H49.323m-9.523 2.712h3.895v-2.712H39.8m-18.182-2.52h7.174v-2.712h-7.174m25.698 2.712h7.202v-2.712h-7.202m-15.062 2.712h12.513v-2.712H32.254m-10.636 13.177H46.8v-2.712H21.618m28.427 2.712h7.062v-2.712h-7.062m-28.427 13.179h14.286v-2.712H21.618m27.705 2.712H59.93v-2.712H49.323m-9.523 2.712h3.895v-2.712H39.8m-18.185-2.525H34.17v-2.71H21.616m26.267 2.71h6.635v-2.71h-6.635m-10.246 2.71h7.697v-2.71h-7.697m-16.022 13.18h7.17v-2.712h-7.17m9.935 2.712h20.156v-2.712H31.55M95.079 556.33h190.882V432.554H95.079V556.33zm-2.71 2.712h196.302v-129.2H92.369v129.2z" fill="#000"/>
<path d="M77.208 565.411h226.623v-6.044H77.208v6.043zm-2.71 2.712h232.043v-11.468H74.497v11.468zm30.957-27.038h170.126v-99.45H105.455v99.45zm-2.715 2.712h175.55V438.918H102.741v104.88zM190.519 549.924c-.347 0-.625.282-.625.625 0 .348.278.63.625.63.346 0 .624-.282.624-.63 0-.342-.278-.624-.624-.624m0 2.712c-1.152 0-2.087-.935-2.087-2.087 0-1.147.936-2.082 2.088-2.082 1.148 0 2.086.935 2.086 2.083 0 1.153-.938 2.088-2.086 2.088" fill="#000"/>
<path d="M115.788 471.804h20.636v-18.18h-20.636v18.18zm-2.712 2.712h26.06v-23.608h-26.06v23.608zM244.407 471.804h20.842v-18.18h-20.842v18.18zm-2.712 2.712h26.266v-23.608h-26.266v23.608zM148.411 471.804h84.125v-18.18h-84.125v18.18zm-2.712 2.712h89.548v-23.608h-89.548v23.608zM115.788 504.168h55.045v-18.18h-55.045v18.18zm-2.712 2.712h60.468v-23.608h-60.468v23.608zM219.011 504.168h46.238v-18.18h-46.238v18.18zm-2.714 2.712h51.664v-23.608h-51.664v23.608zM186.241 504.168h18.178v-18.18h-18.178v18.18zm-2.71 2.712h23.603v-23.608h-23.603v23.608z" fill="#000"/>
<path d="M114.431 519.044h87.66" fill="#fff"/>
<path d="M114.434 520.398h87.657v-2.71h-87.657" fill="#000"/>
<path d="M158.671 529.286h15.155" fill="#fff"/>
<path d="M158.671 530.643h15.155v-2.712h-15.155" fill="#000"/>
<path d="M114.431 529.286h34.817" fill="#fff"/>
<path d="M114.434 530.643h34.817v-2.712h-34.817" fill="#000"/>
<path d="M185.296 529.286h70.454" fill="#fff"/>
<path d="M185.296 530.643h70.454v-2.712h-70.455" fill="#000"/>
<path d="M213.561 519.044h17.613" fill="#fff"/>
<path d="M213.561 520.398h17.614v-2.71h-17.614" fill="#000"/>
<path d="M237.728 519.044h28.878" fill="#fff"/>
<path d="M237.728 520.398h28.878v-2.71h-28.878M668.474 6.292c-.25 0-.452.202-.452.45v104.907c0 .25.203.45.452.45h70.512c.245 0 .447-.2.447-.45V6.743c0-.25-.202-.45-.447-.45h-70.512zm70.512 108.52h-70.512c-1.744 0-3.163-1.42-3.163-3.163V6.743c0-1.744 1.42-3.163 3.164-3.163h70.512c1.743 0 3.162 1.42 3.162 3.163v104.906c0 1.744-1.42 3.163-3.162 3.163z" fill="#000"/>
<path d="M673.387 94.806h60.685V17.504h-60.685v77.3zm-2.71 2.71h66.106V14.789h-66.107v82.728zM703.73 102.633c-.987 0-1.785.802-1.785 1.784 0 .987.798 1.788 1.784 1.788.985 0 1.786-.8 1.786-1.787 0-.98-.8-1.783-1.787-1.783m0 6.283c-2.48 0-4.5-2.02-4.5-4.5 0-2.476 2.02-4.495 4.5-4.495s4.497 2.02 4.497 4.496c0 2.48-2.018 4.5-4.498 4.5" fill="#000"/>
<path d="M704.343 10.384c0 .34-.274.614-.613.614-.34 0-.614-.275-.614-.614 0-.34.274-.614.614-.614.34 0 .613.274.613.614" fill="#fff"/>
<path d="M703.73 9.642c-.41 0-.74.333-.74.74 0 .41.33.744.74.744.407 0 .74-.335.74-.743s-.333-.74-.74-.74m0 2.71c-1.088 0-1.972-.884-1.972-1.97 0-1.087.884-1.968 1.97-1.968 1.088 0 1.972.88 1.972 1.967 0 1.086-.884 1.97-1.97 1.97M505.8757 502.234c-5.61 0-10.174 4.564-10.174 10.175v88.224c0 5.612 4.564 10.18 10.174 10.18h33.89c5.606 0 10.173-4.568 10.173-10.18V512.41c0-5.61-4.566-10.175-10.172-10.175h-33.89zm33.89 111.29h-33.89c-7.105 0-12.885-5.785-12.885-12.89v-88.225c0-7.106 5.78-12.887 12.885-12.887h33.89c7.105 0 12.885 5.78 12.885 12.887v88.224c0 7.107-5.78 12.892-12.885 12.892z" fill="#000"/>
<path d="M500.2607 600.302h45.114v-88.92h-45.114v88.92zm-2.71 2.71h50.54v-94.343h-50.54v94.344z" fill="#000"/>
<path d="M522.8197 605.112c-.996 0-1.805.81-1.805 1.805 0 .997.81 1.806 1.805 1.806.997 0 1.805-.808 1.805-1.805 0-.996-.808-1.805-1.805-1.805m0 6.326c-2.49 0-4.516-2.03-4.516-4.52 0-2.492 2.025-4.518 4.516-4.518 2.49 0 4.517 2.026 4.517 4.517 0 2.492-2.027 4.52-4.518 4.52m-5.207-104.498h10.416v-2.712h-10.416m25.853 1.356c0 .364-.296.664-.664.664-.365 0-.66-.3-.66-.664 0-.365.295-.665.66-.665.368 0 .664.3.664.665M507.6977 579.359h30.243c1.867-3.55 3.184-9.58 3.184-14.747 0-13.718-11.47-15.765-18.304-15.765-6.838 0-18.304 2.047-18.304 15.765 0 5.17 1.313 11.197 3.18 14.747zm31.803 2.71h-33.363l-.397-.656c-2.704-4.498-3.935-11.864-3.935-16.8 0-11.742 7.657-18.477 21.015-18.477 13.355 0 21.016 6.735 21.016 18.477 0 4.936-1.236 12.302-3.94 16.8l-.397.658z" fill="#000"/>
<path d="M516.2357 549.932l6.585 6.587 6.585-6.586c-.975-.346-2.007-.613-3.083-.793l-1.13-.192v-7.106h-4.744v7.105l-1.13.192c-1.08.18-2.107.447-3.082.794zm6.585 10.422l-11.253-11.255 1.686-.842c1.382-.69 2.884-1.216 4.48-1.574v-7.553h10.17v7.554c1.596.36 3.1.886 4.484 1.575l1.686.842-11.253 11.255z" fill="#000"/>
<path d="M522.8197 521.272c-4.79 0-8.134 4.092-8.134 9.946 0 6.506 3.953 12.656 8.134 12.656 4.18 0 8.134-6.15 8.134-12.656 0-5.854-3.343-9.945-8.134-9.945m0 25.317c-6.394 0-10.85-8.103-10.85-15.37 0-7.335 4.565-12.657 10.85-12.657 6.286 0 10.85 5.322 10.85 12.656 0 7.268-4.456 15.37-10.85 15.37" fill="#000"/>
<path d="M518.9627 522.544l1.333 1.238c2.95 2.74 6.267 4.29 10.108 4.716-.79-4.557-3.415-7.225-7.22-7.225-1.517 0-3 .45-4.22 1.272zm-.28.2c-.016.01-.034.024-.052.038-.906.69-1.657 1.578-2.227 2.636-.578 1.073-.972 2.235-1.17 3.456-.043.27-.08.55-.108.827 1.28-1.345 2.148-3.172 2.978-5.4l.578-1.56zm-5.536 11.676l-.087-1.838c-.3-.253-.726-.686-.726-1.365 0-.942.076-1.877.224-2.78.246-1.517.737-2.965 1.46-4.304.754-1.4 1.754-2.585 2.974-3.51 1.747-1.328 3.946-2.06 6.192-2.06 5.708 0 9.585 4.33 10.116 11.3l.115 1.507-1.51-.047c-4.548-.14-8.487-1.546-11.974-4.286-1.043 2.4-2.448 4.66-4.82 6.15l-1.964 1.234zm8.318 46.972h2.71v-22.828h-2.71m-16.16 31.533h35.027v-2.71h-35.027m0 8.813h35.027v-2.712h-35.027M229.34218 2.712c-5.61 0-10.172 4.564-10.172 10.175v88.224c0 5.612 4.563 10.18 10.173 10.18h33.89c5.608 0 10.175-4.568 10.175-10.18V12.888c0-5.61-4.567-10.175-10.174-10.175h-33.89zm33.89 111.29h-33.89c-7.104 0-12.884-5.785-12.884-12.89V12.887c0-7.106 5.78-12.887 12.885-12.887h33.89c7.106 0 12.886 5.78 12.886 12.887v88.224c0 7.107-5.78 12.892-12.885 12.892z" fill="#000"/>
<path d="M223.73018 100.78h45.114V11.86h-45.114v88.92zm-2.715 2.71h50.54V9.147h-50.54v94.344z" fill="#000"/>
<path d="M246.28718 105.59c-.996 0-1.805.81-1.805 1.805 0 .997.81 1.806 1.805 1.806.997 0 1.806-.808 1.806-1.805 0-.996-.808-1.805-1.805-1.805m0 6.326c-2.49 0-4.516-2.03-4.516-4.52 0-2.492 2.024-4.518 4.515-4.518 2.49 0 4.517 2.026 4.517 4.517 0 2.492-2.026 4.52-4.517 4.52m-5.21-104.498h10.416V4.706h-10.415m25.854 1.356c0 .364-.295.664-.664.664-.364 0-.66-.3-.66-.664 0-.365.296-.665.66-.665.37 0 .665.3.665.665M231.16518 80.515h30.243c1.867-3.55 3.184-9.576 3.184-14.747 0-13.717-11.47-15.765-18.304-15.765-6.837 0-18.304 2.048-18.304 15.765 0 5.17 1.318 11.197 3.18 14.747zm31.803 2.712h-33.363l-.397-.658c-2.704-4.5-3.938-11.866-3.938-16.802 0-11.742 7.66-18.477 21.018-18.477 13.355 0 21.016 6.736 21.016 18.478 0 4.936-1.23 12.302-3.94 16.8l-.396.66z" fill="#000"/>
<path d="M239.77218 51.065c1.31 1 3.523 2.214 6.516 2.214 2.715 0 4.993-1.236 6.408-2.255-.924-.314-1.895-.56-2.906-.733l-1.13-.19v-7.103h-4.744v7.1l-1.13.192c-1.054.18-2.062.437-3.015.773m6.516 4.93c-6.315 0-9.87-4.334-10.02-4.515l-1.057-1.314 1.51-.75c1.38-.69 2.883-1.218 4.48-1.575v-7.553h10.17v7.554c1.595.358 3.1.885 4.483 1.575l1.614.805-1.22 1.325c-.167.18-4.156 4.45-9.96 4.45" fill="#000"/>
<path d="M246.28718 22.43c-4.79 0-8.134 4.09-8.134 9.944 0 6.506 3.955 12.656 8.135 12.656s8.134-6.15 8.134-12.656c0-5.853-3.344-9.945-8.135-9.945m0 25.31c-6.393 0-10.848-8.098-10.848-15.366 0-7.334 4.563-12.656 10.848-12.656 6.286 0 10.846 5.322 10.846 12.656 0 7.268-4.45 15.367-10.845 15.367" fill="#000"/>
<path d="M244.35218 20.565c-5.84 0-9.918 4.96-9.918 12.067 0 .798.05 1.61.15 2.42 3.077-5.68 8.933-9.645 15.656-10.295.595-.054 1.198-.087 1.797-.09-1.794-2.604-4.545-4.102-7.686-4.102zm-9.962 23.723l-1.44-4.268c-.805-2.38-1.227-4.932-1.227-7.388 0-8.565 5.31-14.78 12.63-14.78 5.003 0 9.22 2.904 11.285 7.768l.91 2.148-2.318-.27c-1.242-.145-2.502-.156-3.73-.04-7.15.69-13.16 5.705-14.953 12.475l-1.156 4.355zm-5.616 46.287h35.026v-2.71h-35.026m0 8.813h35.026v-2.712h-35.026M753.136 226.579h5.762v-5.933h-5.762v5.933zm-2.71 2.712h11.184v-11.355h-11.185v11.355z" fill="#000"/>
<path d="M771.212 169.589c-4.74 0-8.6 3.856-8.6 8.6v177.3c0 4.745 3.86 8.6 8.6 8.6h81.007c4.74 0 8.6-3.855 8.6-8.6v-177.3c0-4.744-3.86-8.6-8.6-8.6H771.21zm81.007 197.213H771.21c-6.24 0-11.31-5.073-11.31-11.313v-177.3c0-6.24 5.07-11.312 11.31-11.312h81.007c6.237 0 11.31 5.074 11.31 11.314v177.3c0 6.24-5.073 11.312-11.31 11.312z" fill="#000"/>
<path d="M767.552 345.466h88.325V185.798h-88.325v159.668zm-2.71 2.712h93.746V183.086H764.84v165.092z" fill="#000"/>
<path d="M811.715 351.9c-2.343 0-4.245 1.906-4.245 4.246 0 2.343 1.902 4.25 4.245 4.25 2.344 0 4.246-1.907 4.246-4.25 0-2.34-1.9-4.246-4.245-4.246m0 11.208c-3.837 0-6.957-3.124-6.957-6.962 0-3.838 3.12-6.958 6.957-6.958 3.838 0 6.957 3.12 6.957 6.958s-3.12 6.962-6.957 6.962m-9.228-185.182h18.456v-2.71h-18.456m45.812 1.355c0 .65-.526 1.174-1.172 1.174-.65 0-1.177-.525-1.177-1.175s.528-1.173 1.178-1.173c.646 0 1.173.523 1.173 1.173m-3.142 164.284l-1.232-2.415 2.332-1.188-2.332-1.188 1.23-2.42 7.08 3.608M778.61 335.908h3.36V297.2h-3.36v38.708zm-2.71 2.712h8.786v-44.136H775.9v44.136z" fill="#000"/>
<path d="M778.61 335.908h3.36v-22.416h-3.36v22.416zm-2.71 2.712h8.786v-27.844H775.9v27.844zM833.002 335.908h3.36v-74.332h-3.36v74.33zm-2.71 2.712h8.786v-79.757h-8.787v79.757z" fill="#000"/>
<path d="M833.002 335.908h3.36v-14.685h-3.36v14.685zm-2.71 2.712h8.786v-20.11h-8.787v20.11zM789.488 335.908h3.36v-50.86h-3.36v50.86zm-2.71 2.712h8.786v-56.286h-8.787v56.286z" fill="#000"/>
<path d="M789.488 335.908h3.36v-11.65h-3.36v11.65zm-2.71 2.712h8.786v-17.072h-8.787v17.072zM811.247 335.908h3.36V309.35h-3.36v26.558zm-2.715 2.712h8.787v-31.984h-8.788v31.984z" fill="#000"/>
<path d="M811.247 306.638h3.36v-36.05h-3.36v36.05zm-2.715 2.712h8.787v-41.477h-8.788v41.477zM822.125 335.908h3.36v-32.082h-3.36v32.082zm-2.712 2.712h8.788v-37.506h-8.787v37.506z" fill="#000"/>
<path d="M822.125 301.114h3.36v-22.416h-3.36v22.416zm-2.712 2.712h8.788v-27.844h-8.787v27.844zM800.37 335.908h3.36v-43.406h-3.36v43.406zm-2.716 2.712h8.788v-48.83h-8.788v48.83z" fill="#000"/>
<path d="M800.37 335.908h3.36v-34.292h-3.36v34.292zm-2.716 2.712h8.788v-39.716h-8.788v39.716z" fill="#000"/>
<path d="M848.198 338.621h-72.3v-86.79h2.712v84.08h69.588" fill="#000"/>
<path d="M776.04 256.262l-2.415-1.23 3.603-7.082 3.603 7.08-2.414 1.232-1.188-2.333m-1.944 16.655h3.942v-2.71h-3.942m30.272 2.71h4.07v-2.71h-4.07m-12.982 2.71h6.49v-2.71h-6.49m-10.557 2.71h4.07v-2.71h-4.07" fill="#000"/>
<path d="M836.277 251.899c0 .895-1.62 4.733-1.62 4.733s-1.626-3.838-1.626-4.733c0-.896.73-1.622 1.626-1.622.895 0 1.62.727 1.62 1.623" fill="#fff"/>
<path d="M834.655 251.632c-.148 0-.267.12-.267.267.014.156.115.502.263.95.157-.46.258-.813.272-.982 0-.115-.12-.234-.267-.234zm0 8.478l-1.25-2.95c-.645-1.527-1.728-4.242-1.728-5.26 0-1.644 1.335-2.98 2.978-2.98 1.643 0 2.978 1.336 2.978 2.98 0 1.018-1.083 3.733-1.73 5.26l-1.248 2.95zm-55.758-28.156l-2.166-1.632 12.655-16.816 11.653 8.832 12.033-22.488 12.323 14.714 12.095-8.536 12.545 24.492-2.41 1.235-11.125-21.713-11.58 8.175-11.348-13.548-11.64 21.748-12.015-9.106" fill="#000"/>
<path d="M779.23 231.103c0 .806-.655 1.46-1.46 1.46-.808 0-1.462-.654-1.462-1.46 0-.805.654-1.462 1.462-1.462.805 0 1.46.657 1.46 1.462" fill="#000"/>
<path d="M791.11 215.371c0 .806-.655 1.46-1.46 1.46-.808 0-1.462-.654-1.462-1.46 0-.805.654-1.458 1.462-1.458.805 0 1.46.653 1.46 1.458" fill="#fff"/>
<path d="M789.65 215.266c-.06 0-.106.048-.106.106 0 .115.21.115.21 0 0-.058-.047-.105-.105-.105m0 2.922c-1.554 0-2.817-1.264-2.817-2.816 0-1.553 1.263-2.817 2.816-2.817 1.55 0 2.815 1.263 2.815 2.816 0 1.552-1.264 2.816-2.816 2.816" fill="#000"/>
<path d="M802.856 224.266c0 .805-.653 1.46-1.458 1.46-.81 0-1.462-.655-1.462-1.46 0-.805.653-1.46 1.462-1.46.805 0 1.458.655 1.458 1.46" fill="#fff"/>
<path d="M801.396 224.162c-.058 0-.105.047-.105.105 0 .116.21.116.21 0 0-.057-.046-.104-.104-.104m0 2.92c-1.553 0-2.816-1.262-2.816-2.815 0-1.552 1.263-2.816 2.816-2.816 1.552 0 2.816 1.264 2.816 2.817 0 1.554-1.264 2.817-2.816 2.817" fill="#000"/>
<path d="M814.737 202.162c0 .805-.654 1.46-1.463 1.46-.805 0-1.458-.655-1.458-1.46 0-.805.653-1.46 1.458-1.46.81 0 1.463.655 1.463 1.46" fill="#fff"/>
<path d="M813.277 202.058c-.058 0-.105.047-.105.104 0 .116.21.116.21 0 0-.057-.048-.104-.105-.104m0 2.92c-1.553 0-2.816-1.263-2.816-2.816 0-1.552 1.264-2.816 2.817-2.816 1.552 0 2.816 1.264 2.816 2.816 0 1.553-1.264 2.817-2.816 2.817" fill="#000"/>
<path d="M826.55 216.168c0 .805-.653 1.46-1.46 1.46-.807 0-1.46-.655-1.46-1.46 0-.805.653-1.46 1.46-1.46.807 0 1.46.655 1.46 1.46" fill="#fff"/>
<path d="M825.09 216.063c-.058 0-.105.047-.105.105 0 .116.21.116.21 0 0-.058-.048-.105-.105-.105m0 2.922c-1.553 0-2.816-1.265-2.816-2.818 0-1.552 1.263-2.816 2.816-2.816 1.552 0 2.816 1.264 2.816 2.816 0 1.553-1.264 2.817-2.816 2.817" fill="#000"/>
<path d="M838.43 208.202c0 .806-.653 1.46-1.458 1.46-.81 0-1.462-.654-1.462-1.46 0-.805.653-1.462 1.462-1.462.805 0 1.458.657 1.458 1.462" fill="#fff"/>
<path d="M836.97 208.098c-.057 0-.104.047-.104.104 0 .116.21.116.21 0 0-.057-.048-.104-.106-.104m0 2.92c-1.552 0-2.816-1.263-2.816-2.816 0-1.552 1.264-2.816 2.816-2.816 1.553 0 2.816 1.264 2.816 2.816 0 1.553-1.263 2.817-2.816 2.817m13.163 19.753c0 .805-.653 1.458-1.458 1.458-.81 0-1.462-.653-1.462-1.458 0-.806.653-1.463 1.462-1.463.805 0 1.458.657 1.458 1.463" fill="#000"/>
<path d="M830.12 193.291v4.817" fill="#fff"/>
<path d="M828.764 198.108h2.71v-4.817h-2.71" fill="#000"/>
<path d="M832.527 195.699h-4.816" fill="#fff"/>
<path d="M827.71 197.056h4.816v-2.71h-4.816m-27.612 20.13h1.278v-1.28h-1.278m14.94 10.003h1.278v-1.278h-1.278m6.509-17.393h1.278v-1.28h-1.278m-10.307 47.975h8.162v-2.712h-8.162m-22.25 2.712h18.166v-2.712H788.99m.003-1.775h14.9v-2.713h-14.9m26.327 2.713h7.144v-2.713h-7.145m-6.939 2.713h3.676v-2.713h-3.676m-19.39-1.987h28.983v-2.71H788.99m-3.773-37.124h8.81v-2.712h-8.81m-8.557 2.712h4.53v-2.712h-4.53m0-3.076h11.828v-2.712H776.66" fill="#000"/>
<path d="M581.98 242.341c2.924-2.925 7.66-2.925 10.585 0 2.924 2.924 2.924 7.662 0 10.587-2.925 2.924-7.66 2.924-10.586 0-2.925-2.925-2.925-7.663 0-10.587" fill="#fff"/>
<path d="M587.272 241.504c-1.64 0-3.177.64-4.336 1.795-2.39 2.39-2.39 6.28 0 8.67 1.16 1.16 2.697 1.794 4.336 1.794 1.635 0 3.177-.635 4.336-1.794 2.386-2.39 2.39-6.28 0-8.67-1.16-1.156-2.7-1.795-4.336-1.795m0 14.975c-2.36 0-4.58-.92-6.253-2.593-3.445-3.445-3.445-9.056 0-12.504 1.67-1.67 3.89-2.59 6.252-2.59 2.36 0 4.58.92 6.253 2.59 3.444 3.448 3.444 9.06 0 12.504-1.672 1.672-3.892 2.593-6.253 2.593M703.734 23.796c-9.777 0-17.726 7.955-17.726 17.73 0 6.376 3.45 12.29 9.01 15.436l.687.39v13.432c0 1.474 1.198 2.67 2.668 2.67h10.722c1.47 0 2.668-1.196 2.668-2.67V57.352l.686-.39c5.56-3.145 9.01-9.06 9.01-15.436 0-9.775-7.95-17.73-17.726-17.73m5.36 52.368h-10.72c-2.965 0-5.38-2.412-5.38-5.38V58.916c-6-3.716-9.698-10.306-9.698-17.39 0-11.27 9.167-20.44 20.438-20.44 11.27 0 20.438 9.17 20.438 20.44 0 7.084-3.697 13.674-9.698 17.39v11.868c0 2.968-2.415 5.38-5.38 5.38" fill="#000"/>
<path d="M697.436 76.084v6.878c0 1.062.863 1.928 1.925 1.928h8.745c1.065 0 1.927-.866 1.927-1.928v-6.878c-.306.054-.62.083-.938.083h-10.72c-.317 0-.63-.028-.938-.082m10.67 11.518h-8.745c-2.556 0-4.635-2.08-4.635-4.64V71.495l2.13 1.48c.448.315.975.477 1.52.477h10.72c.544 0 1.07-.162 1.52-.476l2.13-1.482v11.468c0 2.56-2.08 4.64-4.64 4.64" fill="#000"/>
<path d="M702.319 89.55h2.827c.152-.15.333-.49.463-.84h-3.752c.13.35.315.69.463.84m2.99 2.712h-3.152c-2.05 0-3.17-2.827-3.17-4.28 0-.374.065-.746.2-1.104l.327-.88h8.438l.328.88c.135.358.2.73.2 1.105 0 1.45-1.12 4.278-3.17 4.278" fill="#000"/>
<path d="M696.164 78.436h15.14" fill="#fff"/>
<path d="M696.164 79.791h15.142v-2.712h-15.142" fill="#000"/>
<path d="M696.164 81.749h15.14" fill="#fff"/>
<path d="M696.164 83.106h15.142v-2.712h-15.142M695.7 37.94l-1.85-1.983c2.37-2.208 5.972-3.476 9.885-3.476 3.88 0 7.466 1.253 9.838 3.434l-1.837 1.993c-1.85-1.7-4.838-2.714-8-2.714-3.188 0-6.192 1.03-8.037 2.748M701.72 73.454h4.03v-18.86h-4.03v18.86zm-2.71 2.712h9.45V51.883h-9.45v24.283z" fill="#000"/>
<path d="M706.197 54.596H701.2l-6.556-17.95 2.546-.932 5.906 16.17h1.206l5.978-16.31 2.546.934" fill="#000"/>
<path d="M631.23 440.781c-4.274 0-7.75 3.477-7.75 7.752s3.476 7.756 7.75 7.756c4.275 0 7.752-3.48 7.752-7.756 0-4.275-3.477-7.752-7.752-7.752m0 18.22c-5.77 0-10.462-4.698-10.462-10.468s4.693-10.464 10.462-10.464c5.77 0 10.463 4.694 10.463 10.464 0 5.77-4.693 10.468-10.463 10.468" fill="#0c8fd7"/>
<path d="M631.23 443.64v9.79" fill="#fff"/>
<path d="M629.874 453.43h2.71v-9.79h-2.71" fill="#0c8fd7"/>
<path d="M636.123 448.534h-9.787" fill="#fff"/>
<path d="M626.336 449.891h9.787v-2.712h-9.787" fill="#0c8fd7"/>
<path d="M641.567 180.496v9.788" fill="#fff"/>
<path d="M640.21 190.283h2.712v-9.79h-2.71" fill="#0c8fd7"/>
<path d="M646.46 185.389h-9.788" fill="#fff"/>
<path d="M636.673 186.744h9.787v-2.712h-9.787" fill="#0c8fd7"/>
<path d="M587.332 40.141v7.077" fill="#fff"/>
<path d="M585.978 47.218h2.71v-7.077h-2.71" fill="#0c8fd7"/>
<path d="M590.87 43.679h-7.076" fill="#fff"/>
<path d="M583.794 45.033h7.076v-2.71h-7.076" fill="#0c8fd7"/>
<path d="M198.99 394.903c-2.24 0-4.068 1.823-4.068 4.07 0 2.242 1.827 4.065 4.07 4.065 2.24 0 4.067-1.823 4.067-4.066 0-2.246-1.828-4.07-4.07-4.07m0 2.713c.748 0 1.358.605 1.358 1.356 0 .748-.61 1.354-1.357 1.354s-1.357-.606-1.357-1.354c0-.75.61-1.357 1.358-1.357m178.294 10.85h24.066v-2.712h-24.065m-14.916 2.712h8.135v-2.712h-8.134" fill="#000"/>
<path d="M347.796 401.004h17.286v-2.712h-17.286m-17.964 2.712h11.863v-2.712h-11.863m42.708 2.712h6.102v-2.712h-6.1m2.71-5.084h13.22v-2.71h-13.22" fill="#0c8fd7"/>
<path d="M656.29 386.088h24.067v-2.712H656.29" fill="#000"/>
<path d="M685.105 386.088h5.422v-2.712h-5.422" fill="#0c8fd7"/>
<path d="M641.377 386.088h8.134v-2.712h-8.133" fill="#000"/>
<path d="M613.92 378.631h30.168v-2.71H613.92" fill="#0c8fd7"/>
<path d="M674.256 378.631h11.863v-2.71h-11.864m-22.708 2.71h7.795v-2.71h-7.795" fill="#000"/>
<path d="M654.255 370.832h10.17v-2.712h-10.17m-20.675 2.712h15.93v-2.712h-15.93" fill="#0c8fd7"/>
<path d="M700.358 158.944h19.997v-2.71h-19.997m38.98 2.71H751.2v-2.71h-11.86m-11.53 2.71h6.102v-2.71h-6.102m2.712-5.085h13.22v-2.712h-13.22m-11.597 2.712h3.863v-2.712h-3.863m-302.85 2.259h2.6v-2.6h-2.6" fill="#000"/>
<path d="M379.38 21.753c-4.276 0-7.753 3.477-7.753 7.753 0 4.275 3.477 7.752 7.752 7.752 4.273 0 7.75-3.477 7.75-7.752 0-4.276-3.477-7.753-7.75-7.753m0 18.22c-5.77 0-10.464-4.697-10.464-10.467 0-5.77 4.693-10.465 10.463-10.465 5.768 0 10.46 4.694 10.46 10.465 0 5.77-4.692 10.467-10.46 10.467" fill="#0c8fd7"/>
<path d="M379.38 24.613v9.79" fill="#fff"/>
<path d="M378.023 34.399h2.712v-9.79h-2.712m6.249 4.897h-9.788" fill="#0c8fd7"/>
<path d="M374.485 30.864h9.788v-2.71h-9.788" fill="#0c8fd7"/>
<path d="M346.668 347.97v9.79" fill="#fff"/>
<path d="M345.31 357.756h2.712v-9.788h-2.71" fill="#0c8fd7"/>
<path d="M351.56 352.864h-9.787" fill="#fff"/>
<path d="M341.773 354.218h9.787v-2.71h-9.787" fill="#0c8fd7"/>
<path d="M633.873 535.109v9.79" fill="#fff"/>
<path d="M632.517 544.896h2.71v-9.79h-2.71" fill="#000"/>
<path d="M638.766 540.003h-9.787" fill="#fff"/>
<path d="M628.98 541.356h9.786v-2.71h-9.787M737.575 410.156c-2.242 0-4.07 1.824-4.07 4.07 0 2.242 1.828 4.066 4.07 4.066s4.068-1.824 4.068-4.066c0-2.246-1.826-4.07-4.068-4.07m0 2.712c.75 0 1.357.607 1.357 1.358 0 .747-.606 1.354-1.357 1.354-.748 0-1.358-.607-1.358-1.354 0-.75.61-1.358 1.358-1.358" fill="#000"/>
<path d="M674.9 271.5c-2.24 0-4.067 1.823-4.067 4.07 0 2.24 1.826 4.065 4.068 4.065 2.243 0 4.07-1.825 4.07-4.067 0-2.246-1.827-4.07-4.07-4.07m0 2.712c.75 0 1.36.607 1.36 1.358 0 .747-.61 1.354-1.36 1.354-.746 0-1.356-.607-1.356-1.354 0-.75.61-1.358 1.357-1.358M454.606 107.414c-2.242 0-4.07 1.824-4.07 4.07 0 2.242 1.828 4.066 4.07 4.066s4.07-1.824 4.07-4.066c0-2.246-1.828-4.07-4.07-4.07m0 2.712c.747 0 1.357.607 1.357 1.358 0 .747-.61 1.354-1.357 1.354s-1.358-.607-1.358-1.354c0-.75.61-1.358 1.358-1.358" fill="#0c8fd7"/>
<path d="M464.775 447.112c-1.495 0-2.712-1.217-2.712-2.712s1.217-2.712 2.712-2.712c1.494 0 2.71 1.217 2.71 2.712s-1.216 2.712-2.71 2.712" fill="#fff"/>
<path d="M464.775 440.331c-2.242 0-4.07 1.824-4.07 4.07 0 2.242 1.828 4.065 4.07 4.065s4.068-1.823 4.068-4.065c0-2.246-1.826-4.07-4.068-4.07m0 2.712c.747 0 1.357.607 1.357 1.358 0 .747-.61 1.354-1.357 1.354-.748 0-1.358-.608-1.358-1.355 0-.75.61-1.358 1.358-1.358" fill="#0c8fd7"/>
<path d="M379.886 158.798v9.79" fill="#fff"/>
<path d="M378.53 168.586h2.71v-9.79h-2.71" fill="#000"/>
<path d="M384.78 163.692h-9.788" fill="#fff"/>
<path d="M374.99 165.046h9.788v-2.71h-9.787" fill="#000"/>
<path d="M561.57 402.213v9.79" fill="#fff"/>
<path d="M560.215 412.003h2.71v-9.79h-2.71" fill="#0c8fd7"/>
<path d="M566.464 407.106h-9.787" fill="#fff"/>
<path d="M556.677 408.464h9.787v-2.712h-9.787" fill="#0c8fd7"/>
<path d="M559.537 131.676v9.79" fill="#fff"/>
<path d="M558.182 141.464h2.712v-9.79h-2.712" fill="#000"/>
<path d="M564.43 136.57h-9.787" fill="#fff"/>
<path d="M554.644 137.926h9.788v-2.712h-9.788" fill="#000"/>
<path d="M428.02 467.983v7.078" fill="#fff"/>
<path d="M426.664 475.059h2.712v-7.077h-2.712" fill="#000"/>
<path d="M431.556 471.521h-7.076" fill="#fff"/>
<path d="M424.48 472.878h7.076v-2.712h-7.076" fill="#000"/>
<path d="M293.79 360.176v7.077" fill="#fff"/>
<path d="M208.435 367.25h2.71v-7.077h-2.71" fill="#000"/>
<path d="M225.326 363.713h-7.072" fill="#fff"/>
<path d="M218.25 365.069h7.077v-2.712h-7.076" fill="#000"/>
<path d="M652.414 337.122v7.077" fill="#fff"/>
<path d="M651.056 344.198h2.712v-7.077h-2.712" fill="#000"/>
<path d="M655.95 340.66h-7.075" fill="#fff"/>
<path d="M648.876 342.014h7.076v-2.712h-7.076" fill="#000"/>
<path d="M662.97 489.15v7.077" fill="#fff"/>
<path d="M661.612 496.226h2.71v-7.078h-2.71" fill="#0c8fd7"/>
<path d="M666.506 492.688h-7.076" fill="#fff"/>
<path d="M659.43 494.046h7.077v-2.713h-7.076" fill="#0c8fd7"/>
<path d="M336.794 124.896v7.074" fill="#fff"/>
<path d="M335.437 131.971h2.71v-7.077h-2.71" fill="#0c8fd7"/>
<path d="M340.33 128.434h-7.075" fill="#fff"/>
<path d="M333.256 129.79h7.076v-2.71h-7.076" fill="#0c8fd7"/>
<path d="M354.125 510.7v7.077" fill="#fff"/>
<path d="M352.77 517.776h2.71v-7.078h-2.71" fill="#0c8fd7"/>
<path d="M357.662 514.236h-7.076" fill="#fff"/>
<path d="M350.585 515.594h7.077v-2.712h-7.077" fill="#0c8fd7"/>
<path d="M471.554 95.209h2.6v-2.6h-2.6M695.58 321.674h2.598v-2.6h-2.6M645.16 258.56h2.6v-2.6h-2.6M254.672 369.081h2.6v-2.6h-2.6" fill="#000"/>
<path d="M373.933 366.99h2.6v-2.6h-2.6m157.281-240.814h2.6v-2.6h-2.6" fill="#0c8fd7"/>
<path d="M407.15 445.646h2.6v-2.6h-2.6m-81.69-139.79h2.598v-2.6h-2.6m286.427-137.075h2.6v-2.6h-2.6m-263.603 35.145h2.6v-2.6h-2.6m199.312 243.98h2.6v-2.6h-2.6m73.216-18.307h2.6v-2.6h-2.6m-46.154 55.43h2.6v-2.6h-2.6m164.004-78.141h2.6v-2.6h-2.6m-594.488 17.516h2.6v-2.6h-2.6M677.08 144.028h2.598v-2.6h-2.6M474.323 476.211h2.6v-2.6h-2.6m-137.34-202.9h2.6v-2.6h-2.6m-26.438-8.251h2.6v-2.6h-2.6m412.761 23.25h2.6v-2.6h-2.6M580.7 441.686h2.6v-2.598h-2.6m-34.572-339.13h2.6v-2.6h-2.6" fill="#000"/>
<path d="M412.685 106.056h2.6v-2.6h-2.6" fill="#0c8fd7"/>
<path d="M370.597 488.416h2.6v-2.6h-2.6" fill="#000"/>
<path d="M623.174 510.059h2.6v-2.6h-2.6" fill="#0c8fd7"/>
<path d="M693.08 463.952h2.6v-2.6h-2.6m5.99-27.912h2.6v-2.6h-2.6M355.63 554.129h2.598v-2.6h-2.6m57.887-14.295h2.6v-2.6h-2.6" fill="#000"/>
<path d="M150.312 141.419h2.6v-2.6h-2.6" fill="#0c8fd7"/>
<path d="M593.693 82.009h2.6v-2.6h-2.6M569.91 7.482h2.598v-2.6h-2.6m65.028 13.094h2.6v-2.6h-2.6m-268.404 59.23h2.6v-2.6h-2.6" fill="#000"/>
<path d="M205.97 127.649h2.6v-2.6h-2.6" fill="#0c8fd7"/>
<path d="M386.814 129.112h2.6v-2.6h-2.6m281.364 108.997h2.6v-2.6h-2.6m-52.791 124.587h2.6v-2.6h-2.6M508.84 433.44h2.6v-2.6h-2.6M209.933 208.98h12.34v-12.342h-12.34v12.342zm-2.712 2.71h17.764v-17.764H207.22v17.765zM209.933 233.501h12.34v-12.342h-12.34v12.342zm-2.712 2.712h17.764v-17.767H207.22v17.767zM209.933 258.022h12.34V245.68h-12.34v12.342zm-2.712 2.715h17.764v-17.764H207.22v17.765zM209.933 282.546h12.34v-12.34h-12.34v12.34zm-2.712 2.713h17.764v-17.766H207.22v17.766zM209.933 307.068h12.34v-12.342h-12.34v12.342zm-2.712 2.712h17.764v-17.764H207.22v17.764z" fill="#000"/>
<path d="M513.36 148.548c0 6.99-8.802 12.656-19.662 12.656-10.856 0-19.658-5.665-19.658-12.656 0-6.99 8.802-12.656 19.658-12.656 10.86 0 19.662 5.666 19.662 12.656" fill="#fff"/>
<path d="M493.7 137.248c-10.095 0-18.304 5.07-18.304 11.302 0 6.23 8.21 11.298 18.304 11.298 10.094 0 18.304-5.07 18.304-11.298 0-6.232-8.21-11.302-18.304-11.302m0 25.312c-11.59 0-21.016-6.287-21.016-14.01 0-7.727 9.427-14.014 21.016-14.014 11.59 0 21.015 6.287 21.015 14.014 0 7.723-9.426 14.01-21.015 14.01" fill="#000"/>
<path d="M511.078 152.052c0 5.055-7.78 9.153-17.38 9.153-9.596 0-17.376-4.1-17.376-9.154 0-5.056 7.78-9.154 17.376-9.154 9.6 0 17.38 4.098 17.38 9.154" fill="#0c8fd7"/>
<path d="M493.7 144.254c-8.687 0-16.023 3.572-16.023 7.796 0 4.228 7.336 7.8 16.023 7.8 8.686 0 16.022-3.572 16.022-7.8 0-4.224-7.336-7.796-16.022-7.796m0 18.307c-10.506 0-18.734-4.614-18.734-10.51 0-5.894 8.228-10.508 18.734-10.508 10.505 0 18.733 4.614 18.733 10.507 0 5.897-8.228 10.51-18.733 10.51" fill="#000"/>
<path d="M513.36 246.186c0 6.99-8.802 12.656-19.662 12.656-10.856 0-19.658-5.665-19.658-12.656 0-6.99 8.802-12.656 19.658-12.656 10.86 0 19.662 5.666 19.662 12.656" fill="#fff"/>
<path d="M493.7 234.886c-10.095 0-18.304 5.07-18.304 11.298 0 6.232 8.21 11.302 18.304 11.302 10.094 0 18.304-5.07 18.304-11.302 0-6.23-8.21-11.298-18.304-11.298m0 25.312c-11.59 0-21.016-6.287-21.016-14.014 0-7.724 9.427-14.01 21.016-14.01 11.59 0 21.015 6.286 21.015 14.01 0 7.727-9.426 14.014-21.015 14.014" fill="#000"/>
<path d="M511.078 249.689c0 5.056-7.78 9.154-17.38 9.154-9.596 0-17.376-4.098-17.376-9.154 0-5.055 7.78-7.65133 17.376-7.65133 9.6 0 17.38 2.59633 17.38 7.65133" fill="#0c8fd7"/>
<path d="M493.7 244.12353c-8.687 0-16.023 3.13484-16.023 6.84571 0 3.71263 7.336 6.84922 16.023 6.84922 8.686 0 16.022-3.13659 16.022-6.84922 0-3.70999-7.336-6.84571-16.022-6.84571m0 16.07547c-10.506 0-18.734-4.05245-18.734-9.22888 0-5.17555 8.228-9.22888 18.734-9.22888 10.505 0 18.733 4.05333 18.733 9.22888 0 5.17643-8.228 9.22888-18.733 9.22888m-1.52-99.1238h2.71V79.39899h-2.71M759.44056 434.63114c-5.636 0-10.22 4.586-10.22 10.223v151.413c0 5.633 4.584 10.22 10.22 10.22h100.21c5.635 0 10.216-4.587 10.216-10.22v-151.413c0-5.637-4.58-10.223-10.217-10.223h-100.209zm100.21 174.566h-100.21c-7.13 0-12.933-5.8-12.933-12.93v-151.413c0-7.132 5.802-12.934 12.932-12.934h100.21c7.13 0 12.93 5.802 12.93 12.934v151.413c0 7.13-5.8 12.93-12.93 12.93z" fill="#000"/>
<path d="M755.15556 590.00014h108.777v-141.02h-108.777v141.02zm-2.71 2.712h114.198v-146.445h-114.2v146.445zM809.54456 596.00714c-1.986 0-3.603 1.617-3.603 3.602 0 1.986 1.618 3.604 3.604 3.604s3.603-1.618 3.603-3.604c0-1.985-1.617-3.603-3.603-3.603m0 9.918c-3.484 0-6.314-2.83-6.314-6.316 0-3.48 2.83-6.315 6.314-6.315 3.48 0 6.314 2.835 6.314 6.315 0 3.485-2.834 6.316-6.314 6.316m-8.168-163.91h16.337v-2.712h-16.337m51.453 1.355c0 .573-.464 1.04-1.04 1.04-.573 0-1.038-.467-1.038-1.04 0-.575.465-1.04 1.04-1.04.574 0 1.04.465 1.04 1.04" fill="#000"/>
<path d="M770.57856 580.28714h77.935v-7.247h-77.935v7.247zm-2.71 2.712h83.356v-12.67h-83.357v12.67zm.096-20.3h2.712v-48.826h-2.712m10.056 48.826h2.71v-36.325h-2.71m10.057 36.325h2.71v-60.542h-2.71m10.055 60.542h2.71v-76.557h-2.71m10.058 76.557h2.71v-70.7h-2.71m10.054 70.7h2.712v-92.18h-2.712m10.058 92.18h2.712v-76.557h-2.712m10.055 76.557h2.71v-83.98h-2.71m10.058 83.98h2.71v-102.73h-2.71" fill="#000"/>
<path d="M769.31856 564.05714h80.45v-2.712h-80.45M799.45056 461.71714c-2.243 0-4.07 1.825-4.07 4.07 0 1.478 2.12 5.265 4.07 8.244 1.95-2.98 4.068-6.766 4.068-8.243 0-2.245-1.827-4.07-4.07-4.07zm0 17.073l-1.11-1.563c-.945-1.34-5.67-8.18-5.67-11.44 0-3.74 3.043-6.78 6.78-6.78 3.736 0 6.78 3.04 6.78 6.78 0 3.26-4.727 10.1-5.672 11.44l-1.11 1.563z" fill="#000"/>
<path d="M644.57 296.726c-1.252-.812-2.437-1.58-3.183-1.265-.614.26-1.225.722-1.872 1.21-.758.577-1.542 1.17-2.477 1.56-1.648.682-3.655.246-5.654-1.232l-.058-.04c-1.192-.882-2.417-1.788-3.3-1.66-.716.107-1.522.71-2.376 1.347-.462.346-.942.703-1.46 1.027-1.774 1.106-3.983 1.1-5.764-.015-.51-.32-.978-.67-1.432-1.01-.86-.64-1.673-1.247-2.395-1.353-.93-.13-2.164.664-3.353 1.434-1.695 1.104-3.62 2.35-5.67 1.49-.927-.39-1.703-.98-2.454-1.548-.652-.494-1.268-.962-1.887-1.218-1.04-.432-2.475.494-3.04.91l-.056.042c-1.556 1.15-3.325 2.438-5.284 2.155-1.386-.21-2.504-1.044-3.585-1.853-.436-.326-.848-.635-1.27-.897l1.415-2.272c.518.324.995.68 1.458 1.027.853.636 1.66 1.24 2.38 1.348.89.14 2.108-.782 3.298-1.66l.056-.043c2-1.476 4.006-1.912 5.654-1.23.937.39 1.72.983 2.48 1.56.647.488 1.258.95 1.874 1.213.74.307 1.926-.456 3.177-1.267 1.53-.99 3.253-2.108 5.185-1.84 1.4.202 2.528 1.044 3.62 1.858.428.32.836.626 1.253.887.918.576 2.01.58 2.927.01.422-.264.837-.57 1.274-.9 1.078-.806 2.195-1.64 3.58-1.85 1.313-.2 2.543.32 3.68 1.032.557.348 1.092.743 1.603 1.12l.058.044c.567.418 1.996 1.344 3.04.912.622-.256 1.236-.724 1.888-1.218.75-.57 1.528-1.157 2.453-1.548 2.056-.864 3.98.39 5.675 1.488 1.187.772 2.42 1.564 3.352 1.434.722-.103 1.532-.71 2.393-1.353.453-.338.923-.688 1.43-1.008 1.783-1.115 3.99-1.12 5.766-.014l-1.415 2.272c-.913-.57-2.008-.566-2.927.01-.415.26-.822.564-1.254.885-1.09.816-2.22 1.658-3.614 1.86-.202.028-.4.04-.597.04-1.694 0-3.224-.993-4.59-1.88zm-378 20c-1.252-.812-2.437-1.58-3.183-1.265-.614.26-1.225.722-1.872 1.21-.758.577-1.542 1.17-2.477 1.56-1.648.682-3.655.246-5.654-1.232l-.058-.04c-1.192-.882-2.417-1.788-3.3-1.66-.716.107-1.522.71-2.376 1.347-.462.346-.942.703-1.46 1.027-1.774 1.106-3.983 1.1-5.764-.015-.51-.32-.978-.67-1.432-1.01-.86-.64-1.673-1.247-2.395-1.353-.93-.13-2.164.664-3.353 1.434-1.695 1.104-3.62 2.35-5.67 1.49-.927-.39-1.703-.98-2.454-1.548-.652-.494-1.268-.962-1.887-1.218-1.04-.432-2.475.494-3.04.91l-.056.042c-1.556 1.15-3.325 2.438-5.284 2.155-1.386-.21-2.504-1.044-3.585-1.853-.436-.326-.848-.635-1.27-.897l1.415-2.272c.518.324.995.68 1.458 1.027.853.636 1.66 1.24 2.38 1.348.89.14 2.108-.782 3.298-1.66l.056-.043c2-1.476 4.006-1.912 5.654-1.23.937.39 1.72.983 2.48 1.56.647.488 1.258.95 1.874 1.213.74.307 1.926-.456 3.177-1.267 1.53-.99 3.253-2.108 5.185-1.84 1.4.202 2.528 1.044 3.62 1.858.428.32.836.626 1.253.887.918.576 2.01.58 2.927.01.422-.264.837-.57 1.274-.9 1.078-.806 2.195-1.64 3.58-1.85 1.313-.2 2.543.32 3.68 1.032.557.348 1.092.743 1.603 1.12l.058.044c.567.418 1.996 1.344 3.04.912.622-.256 1.236-.724 1.888-1.218.75-.57 1.528-1.157 2.453-1.548 2.056-.864 3.98.39 5.675 1.488 1.187.772 2.42 1.564 3.352 1.434.722-.103 1.532-.71 2.393-1.353.453-.338.923-.688 1.43-1.008 1.783-1.115 3.99-1.12 5.766-.014l-1.415 2.272c-.913-.57-2.008-.566-2.927.01-.415.26-.822.564-1.254.885-1.09.816-2.22 1.658-3.614 1.86-.202.028-.4.04-.597.04-1.694 0-3.224-.993-4.59-1.88z" fill="#0c8fd7"/>
<path d="M327.24174 242.344h17.604v-2.712h-17.604m-12.902 2.712h5.764v-2.712h-5.765M550.788 191.392c-16.766-16.77-33.06-20.005-56.77-20.005-23.714 0-40.003 3.237-56.77 20.006l-1.92-1.917c17.28-17.283 34.254-20.8 58.69-20.8s41.408 3.517 58.687 20.8zM243.40818 122.643h5.762v-5.933h-5.762v5.933zm-2.712 2.715h11.186v-11.355h-11.187v11.355zM708.22157 529.26695h22.372v-2.71h-22.372m28.474 2.71h6.1v-2.71h-6.1m-22.374-6.1h13.56v-2.712h-13.56m18.984 2.712h15.592v-2.712h-15.592m-16.268 19.318h9.49v-2.712h-9.49m22.034 2.712h10.267v-2.712h-10.267M167.111326 56.77201c-1.252-.812-2.437-1.58-3.183-1.265-.614.26-1.225.722-1.872 1.21-.758.577-1.542 1.17-2.477 1.56-1.648.682-3.655.246-5.654-1.232l-.058-.04c-1.192-.882-2.417-1.788-3.3-1.66-.716.107-1.522.71-2.376 1.347-.462.346-.942.703-1.46 1.027-1.774 1.106-3.983 1.1-5.764-.015-.51-.32-.978-.67-1.432-1.01-.86-.64-1.673-1.247-2.395-1.353-.929999-.13-2.163999.664-3.352999 1.434-1.695 1.104-3.62 2.35-5.67 1.49-.927-.39-1.703-.98-2.454-1.548-.652-.494-1.268-.962-1.887-1.218-1.04-.432-2.475.494-3.04.91l-.056.042c-1.556 1.15-3.325 2.438-5.284 2.155-1.386-.21-2.504-1.044-3.585-1.853-.436-.326-.848-.635-1.27-.897l1.415-2.272c.518.324.995.68 1.458 1.027.853.636 1.66 1.24 2.38 1.348.89.14 2.108-.782 3.298-1.66l.056-.043c2-1.476 4.006-1.912 5.654-1.23.937.39 1.72.983 2.48 1.56.647.488 1.258.95 1.874 1.213.74.307 1.926-.456 3.177-1.267 1.53-.99 3.253-2.108 5.184999-1.84 1.4.202 2.528 1.044 3.62 1.858.428.32.836.626 1.253.887.918.576 2.01.58 2.927.01.422-.264.837-.57 1.274-.9 1.078-.806 2.195-1.64 3.58-1.85 1.313-.2 2.543.32 3.68 1.032.557.348 1.092.743 1.603 1.12l.058.044c.567.418 1.996 1.344 3.04.912.622-.256 1.236-.724 1.888-1.218.75-.57 1.528-1.157 2.453-1.548 2.056-.864 3.98.39 5.675 1.488 1.187.772 2.42 1.564 3.352 1.434.722004-.103 1.532004-.71 2.393004-1.353.453-.338.923-.688 1.43-1.008 1.783-1.115 3.99-1.12 5.766-.014l-1.415 2.272c-.913-.57-2.008-.566-2.927.01-.415.26-.822.564-1.254.885-1.09.816-2.22 1.658-3.614 1.86-.202.028-.400004.04-.597004.04-1.694 0-3.224-.993-4.59-1.88z" fill="#000"/>
<path d="M127.887272 33.69199l-1.132-1.793c-.727-1.157-1.575-2.222-2.525-3.17-.946-.95-2.01-1.8-3.164-2.526l-1.797-1.131 1.796-1.134c1.15-.727 2.218-1.576 3.165-2.526.95-.948 1.8-2.013 2.526-3.167l1.132-1.797 1.132 1.797c.726 1.152 1.575 2.22 2.524 3.167.95.95 2.015 1.8 3.166 2.526l1.795 1.133-1.795 1.13c-1.15.728-2.216 1.577-3.166 2.527-.95.95-1.798 2.016-2.524 3.17l-1.132 1.794z" stroke="#1393d9" stroke-width="3"/>
<g fill="#000">
 <path d="M115.14026 97.66645v7.077M113.78526 104.74245h2.71v-7.078h-2.71M118.67726 101.20245h-7.076"/>
 <path d="M111.60026 102.56045h7.077v-2.712h-7.077"/>
</g>
<path d="M277.11076 585.76724h2.6v-2.6h-2.6M888.15214 532.25334h2.6v-2.6h-2.6" fill="#0c8fd7"/>
<path d="M65.51335 134.24159h-7.077M58.43585 132.88509v2.71h7.078v-2.71M70.43485 135.59709h19.077v-2.712h-19.077M490.651 77.415h5.762v-5.932h-5.762v5.933zm-2.708 2.712h11.185V68.771h-11.185v11.356z" fill="#000"/>
</g>
</svg>
