<svg xmlns="http://www.w3.org/2000/svg" viewBox="0 0 885.2 600"><g fill="none" fill-rule="evenodd"><path fill="#000" d="M851.718 270.901h23.536v-2.652h-23.536"/><path fill="#0c8fd7" d="M879.898 270.901h5.302v-2.652h-5.302"/><path fill="#000" d="M869.288 263.609h11.601v-2.65h-11.602m-26.12 2.65h11.536v-2.65h-11.535"/><path fill="#0c8fd7" d="M849.728 255.982h9.945v-2.652h-9.945m-6.353 17.947h5.303v-2.653h-5.303"/><path fill="#000" d="M587.458 571.861h21.879v-2.65h-21.88m27.847 2.65h5.966v-2.65h-5.966m-21.88-5.966h13.26v-2.652h-13.26m39.448 2.652h4.972v-2.652h-4.972m-20.883 2.652h15.248v-2.652h-15.248m-15.91 18.892h9.281v-2.652h-9.28m21.548 2.652h15.908v-2.652h-15.908"/><path fill="#0c8fd7" d="M272.835 229.706h9.28v-2.652h-9.28m49.062 2.652h4.64v-2.652h-4.64m-34.142 2.652h25.523v-2.652h-25.523"/><path fill="#000" d="M353.777 237.002h17.216v-2.653h-17.216m-12.617 2.653h5.637v-2.653h-5.638"/><path fill="#0c8fd7" d="M297.037 222.745h6.96v-2.65h-6.96"/><path fill="#000" d="M504.205 54.388h10.144v-2.653h-10.144"/><path fill="#0c8fd7" d="M534.9 54.388h16.245v-2.653H534.9"/><path fill="#000" d="M520.317 54.388h5.965v-2.653h-5.965"/><path fill="#0c8fd7" d="M504.304 45.77h7.393v-2.654h-7.393"/><path fill="#000" d="M537.885 45.77h4.974v-2.654h-4.974M517 45.77h15.249v-2.653H517"/><path fill="#0c8fd7" d="M505 62.015h5.369v-2.65h-5.37m17.635 2.65h15.914v-2.65h-15.912"/><path fill="#000" d="M638.675 101.068h13.258v-2.653h-13.26m-14.586 2.653h7.958v-2.653h-7.958"/><path fill="#0c8fd7" d="M602.543 93.774h24.2v-2.65h-24.2m42.763 2.65h11.602v-2.65h-11.602m-11.273 2.65h5.965v-2.65h-5.965m2.655-4.977h12.926v-2.652h-12.926"/><path fill="#000" d="M394.197 188.927h-2.65v-33.802c0-4.452-3.623-8.072-8.072-8.072H250.339c-5.91 0-10.723-4.813-10.723-10.724v-14.5h2.655v14.5c0 4.45 3.618 8.072 8.068 8.072h133.135c5.913 0 10.721 4.81 10.721 10.724v33.802zm182.321 5.193h-2.652v-49.174c0-5.912 4.81-10.725 10.723-10.725h94.415c4.45 0 8.071-3.618 8.071-8.068v-4.995h2.65v4.995c0 5.912-4.811 10.725-10.72 10.725h-94.416c-4.452 0-8.07 3.618-8.07 8.068v49.176z"/><path fill="#fff" d="M482.633 260.323c0-.059.027-.117.078-.152l52.78-37.325c.03-.025.076 0 .076.039v55.225c0 .059-.029.117-.078.152l-52.78 37.325c-.031.025-.076 0-.076-.039z"/><path fill="#000" d="M483.959 260.913v52.167l50.283-35.559v-52.17l-50.283 35.563zm-1.276 56.007a1.376 1.376 0 0 1-1.376-1.376v-55.22c0-.491.24-.954.64-1.236l53.122-37.568.448-.01c.758 0 1.377.618 1.377 1.377v55.225c0 .487-.237.948-.636 1.232l-53.126 37.573-.45.006z"/><path fill="#fff" d="M482.611 260.323a.188.188 0 0 0-.078-.152l-52.78-37.325c-.032-.025-.079 0-.079.039v55.225c0 .059.03.117.079.152l52.78 37.325c.032.025.078 0 .078-.039z"/><path fill="#000" d="M431.001 277.52l50.284 35.563v-52.17l-50.284-35.564v52.17zm51.558 39.405h-.427l-.374-.262-52.77-37.319a1.516 1.516 0 0 1-.639-1.235v-55.225c0-.76.618-1.373 1.377-1.373h.417l.37.247 52.784 37.329c.399.283.638.746.638 1.237v55.786l-.808.8z"/><path fill="#fff" d="M535.49 222.833l-52.777-37.325h-.18l-52.78 37.326v.012l52.78 37.324h.18l52.776-37.324"/><path fill="#000" d="M432.043 222.84l50.58 35.771L533.2 222.84l-50.58-35.77-50.579 35.77zm51.088 38.656h-1.02l-53.684-37.964v-1.374l.56-.406 53.123-37.569h1.02l53.683 37.964v1.373l-.561.406-53.123 37.568z"/><path fill="#f2f2f2" d="M482.633 187.291c0-.06.027-.117.078-.152l52.78-37.324c.03-.025.076 0 .076.039v55.225c0 .059-.029.118-.078.152l-52.78 37.324c-.031.026-.076 0-.076-.042v-55.22z"/><path fill="#000" d="M483.959 187.88v52.168l50.283-35.56v-52.17l-50.283 35.564zm-1.276 56.008a1.376 1.376 0 0 1-1.376-1.376v-55.22c0-.492.24-.954.64-1.237l53.122-37.57.448-.009c.758 0 1.377.616 1.377 1.377v55.225c0 .487-.237.949-.636 1.232l-53.126 37.573-.45.006z"/><path fill="#f2f2f2" d="M482.611 187.291c0-.06-.03-.117-.078-.152l-52.78-37.324c-.032-.025-.079 0-.079.039v55.225c0 .059.03.118.079.152l52.78 37.324c.032.026.078 0 .078-.042v-55.22z"/><path fill="#000" d="M431.001 204.487l50.284 35.564v-52.17l-50.284-35.563v52.17zm51.558 39.401h-.416l-.37-.246-52.783-37.329a1.516 1.516 0 0 1-.64-1.236v-55.225c0-.759.617-1.373 1.376-1.373h.417l.37.246 52.784 37.329c.399.284.638.745.638 1.236v55.794l-.811.795-.566.01z"/><path fill="#fff" d="M535.49 149.802l-52.777-37.325h-.18l-52.78 37.325v.01l52.78 37.326h.18l52.776-37.326"/><path fill="#000" d="M432.043 149.809l50.58 35.77 50.577-35.77-50.58-35.774-50.579 35.774zm51.088 38.656h-1.02L428.427 150.5v-1.374l.56-.405 53.123-37.57h1.02l53.683 37.965v1.375l-.561.406-53.123 37.57z"/><path fill="#fff" d="M420.444 306.11c0-.059.028-.118.079-.152l52.78-37.326c.03-.025.076 0 .076.039v55.225c0 .059-.03.117-.078.151l-52.78 37.327c-.032.024-.077 0-.077-.04z"/><path fill="#000" d="M421.77 306.7v52.17l50.284-35.563V271.14l-50.283 35.559zm-1.275 56.007a1.375 1.375 0 0 1-1.377-1.372V306.11c0-.491.24-.954.64-1.236l53.122-37.57.448-.01c.76 0 1.377.617 1.377 1.378v55.225c0 .489-.24.952-.638 1.235l-53.123 37.57-.45.007z"/><path fill="#fff" d="M420.423 306.11a.188.188 0 0 0-.078-.152l-52.78-37.326c-.032-.025-.079 0-.079.039v55.225c0 .059.03.117.078.151l52.78 37.326c.033.024.079 0 .079-.04V306.11z"/><path fill="#000" d="M368.813 323.306l50.284 35.563V306.7l-50.284-35.559zm51.558 39.406h-.416l-.37-.251-52.783-37.329a1.515 1.515 0 0 1-.64-1.236v-55.22c0-.76.617-1.377 1.376-1.377h.427l.378.26 52.766 37.316c.4.281.64.745.64 1.235v55.797l-.813.792-.565.014z"/><path fill="#f2f2f2" d="M473.301 268.62l-52.776-37.324h-.18l-52.78 37.325v.01l52.78 37.326h.18l52.776-37.325"/><path fill="#000" d="M369.853 268.627l50.582 35.771 50.577-35.771-50.578-35.772-50.58 35.772zm51.09 38.656h-1.02l-53.685-37.964v-1.374l.562-.407 53.122-37.569h1.021l53.684 37.964v1.374l-.561.406-53.123 37.57z"/><path fill="#fff" d="M547.33 306.11c0-.059.03-.118.078-.152l52.78-37.326c.03-.025.077 0 .077.039v55.225c0 .059-.03.117-.078.151l-52.78 37.326c-.03.024-.077 0-.077-.04V306.11z"/><path fill="#000" d="M548.656 306.7v52.17l50.284-35.563V271.14l-50.283 35.559zm-1.275 56.007a1.375 1.375 0 0 1-1.377-1.372V306.11c0-.491.24-.954.64-1.236l53.122-37.57.448-.01c.759 0 1.377.617 1.377 1.378v55.225c0 .489-.24.952-.638 1.235l-53.123 37.57-.45.007z"/><path fill="#fff" d="M547.309 306.11a.188.188 0 0 0-.079-.152l-52.78-37.326c-.031-.025-.078 0-.078.039v55.225c0 .059.03.117.078.151l52.78 37.326c.033.024.079 0 .079-.04V306.11z"/><path fill="#000" d="M495.698 323.306l50.285 35.563V306.7l-50.285-35.559zm51.558 39.406h-.42l-.37-.254-52.78-37.326a1.52 1.52 0 0 1-.64-1.236v-55.22a1.38 1.38 0 0 1 1.38-1.377h.43l.374.26 52.765 37.316c.403.281.64.745.64 1.235v55.797l-.815.792-.561.014z"/><path fill="#f2f2f2" d="M600.187 268.62l-52.78-37.324h-.177l-52.78 37.325v.01l52.78 37.326h.177l52.78-37.325"/><path fill="#000" d="M496.74 268.627l50.58 35.771 50.576-35.771-50.576-35.772-50.58 35.772zm51.092 38.656h-1.023l-53.684-37.964v-1.374l.561-.407 53.123-37.569h1.024l53.68 37.964v1.374l-.56.406-53.12 37.57z"/><path fill="#f2f2f2" d="M420.444 233.078c0-.059.028-.117.079-.152l52.78-37.324c.03-.025.076 0 .076.039v55.225c0 .059-.03.117-.078.152l-52.78 37.322c-.032.026-.077 0-.077-.039v-55.225z"/><path fill="#000" d="M421.77 233.669v52.164l50.284-35.559v-52.17l-50.283 35.564zm-1.275 56.007a1.378 1.378 0 0 1-1.377-1.374v-55.225c0-.489.24-.952.64-1.235l53.122-37.57.448-.006c.76 0 1.377.613 1.377 1.372v55.225c0 .491-.24.954-.638 1.236l-53.123 37.57-.45.006z"/><path fill="#fff" d="M420.423 233.078a.188.188 0 0 0-.078-.152l-52.78-37.324c-.032-.025-.079 0-.079.039v55.225c0 .059.03.117.078.152l52.78 37.323c.033.026.079 0 .079-.039v-55.225z"/><path fill="#000" d="M368.813 250.274l50.284 35.564v-52.171l-50.284-35.559zm51.558 39.405h-.427l-.374-.261-52.77-37.319a1.514 1.514 0 0 1-.639-1.235v-55.221c0-.76.618-1.379 1.377-1.379h.42l.372.252 52.78 37.325c.398.284.638.746.638 1.237v55.79l-.809.798-.567.013z"/><path fill="#fff" d="M473.301 195.59l-52.776-37.327h-.18l-52.78 37.326v.01l52.78 37.325h.18L473.3 195.6"/><path fill="#000" d="M369.853 195.595l50.582 35.77 50.577-35.77-50.578-35.772-50.58 35.772zm51.09 38.656h-1.02l-53.685-37.965v-1.374l.562-.406 53.122-37.568h1.021l53.684 37.965v1.373l-.561.406z"/><path fill="#fff" d="M547.33 233.078c0-.059.03-.117.078-.152l52.78-37.324c.03-.025.077 0 .077.039v55.225c0 .059-.03.117-.078.152l-52.78 37.323c-.03.026-.077 0-.077-.039v-55.225z"/><path fill="#000" d="M548.656 233.669v52.164l50.284-35.559v-52.17l-50.283 35.564zm-1.275 56.007a1.378 1.378 0 0 1-1.377-1.374v-55.225c0-.489.24-.952.64-1.235l53.122-37.57.448-.006c.759 0 1.377.613 1.377 1.372v55.225c0 .491-.24.954-.638 1.236l-53.123 37.57-.45.006z"/><path fill="#f2f2f2" d="M547.309 233.078a.188.188 0 0 0-.079-.152l-52.78-37.324c-.031-.025-.078 0-.078.039v55.225c0 .059.03.117.078.152l52.78 37.323c.033.026.079 0 .079-.039v-55.225z"/><path fill="#000" d="M495.698 250.274l50.285 35.564v-52.171l-50.285-35.564zm51.558 39.405h-.426l-.378-.264-52.766-37.315a1.52 1.52 0 0 1-.64-1.236v-55.221c0-.76.62-1.379 1.38-1.379h.42l.372.252 52.777 37.325c.403.284.64.746.64 1.237v55.79l-.808.798-.567.013z"/><path fill="#fff" d="M600.187 195.59l-52.78-37.327h-.177l-52.78 37.326v.01l52.78 37.325h.177l52.78-37.325"/><path fill="#000" d="M496.74 195.595l50.58 35.77 50.576-35.77-50.576-35.772-50.58 35.772zm51.092 38.656h-1.023l-53.684-37.965v-1.374l.561-.406 53.123-37.568h1.024l53.68 37.965v1.373l-.56.406-53.12 37.569z"/><path fill="#fff" d="M482.633 354.166c0-.06.027-.117.078-.152l52.78-37.325c.03-.024.076 0 .076.04v55.225c0 .058-.029.117-.078.151l-52.78 37.325c-.031.025-.076 0-.076-.04v-55.224z"/><path fill="#000" d="M483.959 354.755v52.17l50.283-35.562v-52.167l-50.283 35.558zm-1.276 56.013a1.378 1.378 0 0 1-1.376-1.376v-55.226c0-.49.24-.953.64-1.236l53.122-37.57.451-.007c.755 0 1.374.618 1.374 1.374v55.226c0 .489-.237.95-.636 1.232l-53.126 37.573-.45.01z"/><path fill="#fff" d="M482.611 354.166c0-.06-.03-.117-.078-.152l-52.78-37.325c-.032-.024-.079 0-.079.04v55.225c0 .058.03.117.079.151l52.78 37.325c.032.025.078 0 .078-.04v-55.224z"/><path fill="#000" d="M431.001 371.363l50.284 35.562v-52.17l-50.284-35.558zm51.558 39.405h-.416l-.37-.25-52.783-37.328a1.516 1.516 0 0 1-.64-1.236v-55.226c0-.755.617-1.373 1.376-1.373h.417l.37.248 52.784 37.328c.399.282.638.744.638 1.235v55.793l-.811.796-.566.014z"/><path fill="#f2f2f2" d="M535.49 316.678l-52.777-37.326h-.18l-52.78 37.326v.01l52.78 37.325h.18l52.776-37.326"/><path fill="#000" d="M432.043 316.683l50.58 35.771 50.577-35.77-50.578-35.772-50.58 35.771zm51.088 38.657h-1.02l-53.684-37.964v-1.374l.56-.407 53.123-37.57h1.02l53.683 37.965v1.374l-.561.406-53.123 37.57z"/><path fill="#fff" d="M482.633 281.134c0-.059.027-.118.078-.152l52.78-37.325c.03-.025.076 0 .076.039v55.225c0 .058-.029.117-.078.151l-52.78 37.326c-.031.024-.076 0-.076-.04z"/><path fill="#000" d="M483.959 281.723v52.171l50.283-35.563v-52.17zm-1.276 56.01a1.38 1.38 0 0 1-1.376-1.379v-55.22c0-.491.24-.954.64-1.236l53.122-37.568.451-.01c.755 0 1.374.617 1.374 1.377v55.225c0 .487-.237.948-.636 1.232l-53.126 37.573-.45.007z"/><path fill="#fff" d="M482.611 281.134a.188.188 0 0 0-.078-.152l-52.78-37.325c-.032-.025-.079 0-.079.039v55.225c0 .058.03.117.079.151l52.78 37.326c.032.024.078 0 .078-.04z"/><path fill="#000" d="M431.001 298.331l50.284 35.562v-52.17l-50.284-35.558v52.164zm51.558 39.405h-.416l-.37-.251-52.783-37.329a1.516 1.516 0 0 1-.64-1.236v-55.225c0-.755.617-1.373 1.376-1.373h.428l.374.258 52.77 37.319c.399.281.638.743.638 1.235v55.79l-.809.794-.567.018z"/><path fill="#fff" d="M535.49 243.644l-52.777-37.324h-.18l-52.78 37.325v.012l52.78 37.325h.18l52.776-37.326"/><path fill="#000" d="M432.043 243.65l50.58 35.772 50.577-35.771-50.58-35.771-50.579 35.77zm51.088 38.657h-1.02l-53.684-37.964v-1.374l.56-.406 53.123-37.569h1.02l53.683 37.964v1.373l-.561.406-53.123 37.568zm310.49 130.328h-2.654v-16.596c0-4.453-3.622-8.072-8.07-8.072h-198.31c-5.91 0-10.722-4.814-10.722-10.726V320.11h2.655v57.132c0 4.45 3.619 8.072 8.068 8.072h198.31c5.914 0 10.25 4.829 10.722 10.725v16.596zm-411.472-39.037h-182.79c-5.915 0-10.723-4.81-10.723-10.724v-26.911h2.65v26.911c0 4.45 3.62 8.072 8.072 8.072h182.79c4.45 0 8.072-3.622 8.072-8.072v-43.65h2.65v43.65c0 5.915-4.808 10.724-10.721 10.724m-29.835 76.919h-60.451v-2.65h60.451c4.45 0 8.071-3.625 8.071-8.075v-18.336c0-5.912 4.808-10.726 10.723-10.726h75.019c4.45 0 8.07-3.618 8.07-8.068v-33.706h2.653v33.705c0 5.912-4.814 10.722-10.724 10.722h-75.02c-4.452 0-8.07 3.623-8.07 8.072v18.336c0 5.915-4.809 10.725-10.723 10.725m159.314 37.993l-2.65-.004.024-16.214c.01-5.911 4.827-10.72 10.741-10.72h11.556a5.063 5.063 0 0 0 5.056-5.057 5.064 5.064 0 0 0-5.056-5.058h-41.935c-4.25 0-7.706-3.457-7.706-7.708 0-4.248 3.456-7.71 7.706-7.71h11.585a8 8 0 0 0 5.706-2.36 8.017 8.017 0 0 0 2.357-5.706l-.034-60.78 2.65-.003.037 60.78a10.645 10.645 0 0 1-3.135 7.585 10.644 10.644 0 0 1-7.581 3.143h-11.584a5.06 5.06 0 0 0-5.056 5.053 5.06 5.06 0 0 0 5.056 5.056h41.935c4.246 0 7.706 3.457 7.706 7.71 0 4.25-3.46 7.708-7.706 7.708h-11.557c-4.453 0-8.082 3.622-8.088 8.072l-.026 16.214z"/><path stroke="#1393d9" stroke-width="2.934" d="M303.77 176.977l-1.107-1.754a17.63 17.63 0 0 0-2.469-3.1 17.585 17.585 0 0 0-3.094-2.47l-1.758-1.106 1.757-1.11a17.678 17.678 0 0 0 5.566-5.567l1.106-1.757 1.108 1.757a17.749 17.749 0 0 0 2.468 3.097c.929.93 1.97 1.76 3.096 2.47l1.756 1.109-1.756 1.105a17.988 17.988 0 0 0-3.096 2.471 17.76 17.76 0 0 0-2.468 3.1l-1.108 1.755zm263.07-50.854l-1.107-1.754a17.63 17.63 0 0 0-2.469-3.1 17.585 17.585 0 0 0-3.094-2.47l-1.758-1.106 1.757-1.109a17.678 17.678 0 0 0 5.566-5.567l1.106-1.758 1.107 1.757a17.749 17.749 0 0 0 2.469 3.098c.929.929 1.97 1.76 3.096 2.47l1.755 1.108-1.755 1.105a17.988 17.988 0 0 0-3.096 2.471 17.76 17.76 0 0 0-2.469 3.1l-1.107 1.755zm-182.82 463.55l-1.427-2.261a22.83 22.83 0 0 0-3.185-4 22.83 22.83 0 0 0-3.992-3.186l-2.265-1.428 2.266-1.43a22.965 22.965 0 0 0 3.993-3.188 22.762 22.762 0 0 0 3.187-3.994l1.427-2.267 1.428 2.267a22.84 22.84 0 0 0 7.177 7.181l2.266 1.428-2.266 1.428a23.188 23.188 0 0 0-3.993 3.188 22.935 22.935 0 0 0-3.185 4l-1.428 2.262z"/><g fill="#000"><path d="M461.615 65.928h42.078V38.27h-42.078zm-2.65 2.652h47.38V35.618h-47.382V68.58z"/><path d="M468.76 35.62h10.304v-6.102a.313.313 0 0 0-.315-.311h-9.674a.31.31 0 0 0-.313.31v6.103zm12.955 2.65h-15.606v-8.752a2.97 2.97 0 0 1 2.966-2.967h9.674a2.97 2.97 0 0 1 2.966 2.966v8.752z"/></g><path fill="#fff" d="M540.353 187.162a7.316 7.316 0 0 1 10.351 0 7.318 7.318 0 0 1 0 10.354 7.318 7.318 0 0 1-10.351 0 7.32 7.32 0 0 1 0-10.354"/><path fill="#000" d="M545.529 186.343c-1.6 0-3.107.626-4.238 1.755a5.962 5.962 0 0 0-1.758 4.241c0 1.598.626 3.106 1.758 4.237a5.945 5.945 0 0 0 4.238 1.758 5.966 5.966 0 0 0 4.24-1.758 5.963 5.963 0 0 0 1.755-4.238c0-1.603-.626-3.11-1.755-4.242a5.975 5.975 0 0 0-4.24-1.754m0 14.643c-2.308 0-4.481-.9-6.115-2.535a8.597 8.597 0 0 1-2.533-6.113c0-2.31.901-4.482 2.533-6.117a8.602 8.602 0 0 1 6.115-2.533c2.308 0 4.479.902 6.115 2.533a8.607 8.607 0 0 1 2.53 6.116c0 2.308-.9 4.48-2.531 6.113a8.603 8.603 0 0 1-6.116 2.534"/><path fill="#fff" d="M415.338 186.935a7.316 7.316 0 0 1 10.351 0 7.32 7.32 0 0 1 0 10.354 7.318 7.318 0 0 1-10.351 0 7.318 7.318 0 0 1 0-10.354"/><path fill="#000" d="M420.514 186.117c-1.6 0-3.107.626-4.24 1.755a6.003 6.003 0 0 0 0 8.479 5.956 5.956 0 0 0 4.24 1.755 5.959 5.959 0 0 0 4.24-1.754c2.333-2.337 2.338-6.142 0-8.479a5.983 5.983 0 0 0-4.241-1.754m0 14.644a8.59 8.59 0 0 1-6.115-2.534c-3.368-3.37-3.368-8.857 0-12.229a8.594 8.594 0 0 1 6.115-2.533 8.6 8.6 0 0 1 6.115 2.533c3.368 3.372 3.368 8.86 0 12.229a8.592 8.592 0 0 1-6.115 2.535"/><path fill="#fff" d="M386.165 311.596a7.317 7.317 0 0 1 10.353 0 7.32 7.32 0 0 1 0 10.354 7.314 7.314 0 0 1-10.352 0 7.32 7.32 0 0 1 0-10.353"/><path fill="#000" d="M391.342 310.779c-1.6 0-3.106.625-4.24 1.754a6.003 6.003 0 0 0 0 8.479 5.955 5.955 0 0 0 4.24 1.754 5.95 5.95 0 0 0 4.24-1.754 6.003 6.003 0 0 0 0-8.479 5.97 5.97 0 0 0-4.24-1.754m0 14.643c-2.308 0-4.48-.9-6.115-2.535-3.368-3.374-3.368-8.858 0-12.23a8.608 8.608 0 0 1 6.116-2.533c2.308 0 4.48.902 6.116 2.533 3.37 3.372 3.37 8.857 0 12.229a8.599 8.599 0 0 1-6.116 2.534"/><path fill="#fff" d="M450.476 359.835a7.318 7.318 0 0 1 10.351 0 7.32 7.32 0 0 1 0 10.354 7.316 7.316 0 0 1-10.351 0 7.32 7.32 0 0 1 0-10.353"/><path fill="#000" d="M455.652 359.018a5.967 5.967 0 0 0-4.24 1.756 6.008 6.008 0 0 0 0 8.478 5.958 5.958 0 0 0 4.24 1.755 5.96 5.96 0 0 0 4.24-1.756c2.333-2.337 2.338-6.141 0-8.478a5.976 5.976 0 0 0-4.241-1.756m0 14.644a8.596 8.596 0 0 1-6.115-2.536c-3.368-3.369-3.368-8.856 0-12.23a8.602 8.602 0 0 1 6.115-2.532c2.308 0 4.479.902 6.115 2.533 3.368 3.374 3.368 8.86 0 12.23a8.599 8.599 0 0 1-6.115 2.534"/><path fill="#fff" d="M505.006 359.835a7.321 7.321 0 0 1 10.352 10.355 7.316 7.316 0 0 1-10.352 0 7.318 7.318 0 0 1 0-10.354"/><path fill="#000" d="M510.182 359.018a5.967 5.967 0 0 0-4.24 1.756 6.01 6.01 0 0 0 0 8.478 5.958 5.958 0 0 0 4.24 1.755 5.951 5.951 0 0 0 4.24-1.756 6.003 6.003 0 0 0 0-8.478 5.967 5.967 0 0 0-4.24-1.756m0 14.644a8.6 8.6 0 0 1-6.116-2.536c-3.369-3.369-3.369-8.856 0-12.23a8.598 8.598 0 0 1 6.115-2.532c2.308 0 4.48.902 6.115 2.533 3.368 3.374 3.368 8.86 0 12.23a8.596 8.596 0 0 1-6.115 2.534"/><path fill="#fff" d="M569.979 312.423a7.321 7.321 0 0 1 10.352 10.355 7.316 7.316 0 0 1-10.352 0 7.318 7.318 0 0 1 0-10.354"/><path fill="#000" d="M575.155 311.607a5.97 5.97 0 0 0-4.241 1.755 6.006 6.006 0 0 0 .004 8.48 5.94 5.94 0 0 0 4.236 1.754 5.957 5.957 0 0 0 4.24-1.756 6.003 6.003 0 0 0 0-8.479 5.972 5.972 0 0 0-4.24-1.755m0 14.644c-2.31 0-4.482-.9-6.117-2.536-3.368-3.37-3.368-8.856 0-12.23a8.605 8.605 0 0 1 6.115-2.532c2.308 0 4.48.901 6.114 2.533 3.37 3.374 3.37 8.86 0 12.229a8.588 8.588 0 0 1-6.115 2.535M284.934 452.007h5.635v-5.801h-5.636v5.802zm-2.648 2.653h10.937v-11.105h-10.936v11.105zm225.28 31.4h5.634v-5.804h-5.633v5.802zm-2.648 2.65h10.938v-11.105h-10.938v11.106zm284.39-67.669h5.636v-5.802h-5.636zm-2.65 2.652h10.937v-11.105h-10.938zM685.411 118.721h5.635v-5.801h-5.635v5.802zm-2.648 2.652h10.938v-11.106h-10.938zm-495.62 213.203h5.634v-5.802h-5.635v5.801zm-2.65 2.65h10.936v-11.104H184.49v11.105zm482.244-93.758H572.87v-2.653h93.868c4.45 0 8.07-3.623 8.07-8.072v-4.411c0-5.915 4.81-10.724 10.723-10.724h48.944v2.652h-48.943c-4.452 0-8.071 3.618-8.071 8.071v4.41c0 5.915-4.808 10.725-10.721 10.725"/><path fill="#000" d="M5.711 170.613a3.061 3.061 0 0 0-3.058 3.058v149.025a3.058 3.058 0 0 0 3.057 3.058h231.365a3.058 3.058 0 0 0 3.057-3.057V173.67a3.06 3.06 0 0 0-3.058-3.058zm231.365 157.793H5.71A5.717 5.717 0 0 1 0 322.695V173.67a5.72 5.72 0 0 1 5.711-5.711h231.365a5.717 5.717 0 0 1 5.708 5.711v149.025a5.716 5.716 0 0 1-5.71 5.711z"/><path fill="#000" d="M10.91 314.756h220.97V178.04H10.91v136.715zm-2.655 2.652h226.274V175.39H8.254v142.02z"/><path fill="#000" d="M121.394 172.745a.296.296 0 0 0-.001.59.296.296 0 0 0 .296-.293.3.3 0 0 0-.297-.297m0 2.652a2.358 2.358 0 0 1 0-4.713 2.357 2.357 0 0 1-.001 4.714"/><path fill="#fff" d="M122.875 321.552a1.482 1.482 0 0 1-2.963.001c0-.82.665-1.484 1.48-1.484.82 0 1.483.665 1.483 1.484"/><path fill="#000" d="M121.394 321.396a.158.158 0 0 0-.157.157c0 .168.311.168.311 0a.157.157 0 0 0-.156-.157m0 2.963a2.813 2.813 0 0 1-2.807-2.806 2.807 2.807 0 1 1 2.807 2.807M80.29 351.303h82.202v-2.839H80.29zm-2.65 2.652h87.507v-8.145H77.64v8.143z"/><path fill="#000" d="M94.01 345.813h54.766l-3.397-17.406h-47.97l-3.397 17.406zm57.986 2.652H90.79l4.43-22.71h52.344l4.432 22.71zm-65.04-68.116l-24.687-27.053-24.686 27.053-1.96-1.79 26.646-29.196 26.646 29.196"/><path fill="#000" d="M52.565 250.632h19.413v-19.415H52.565zm-2.655 2.65h24.718v-24.716H49.91v24.718zm-22.092 46.992H47.23V280.86H27.818zm-2.65 2.653h24.717v-24.723h-24.72v24.723zm52.14-2.653H96.72V280.86H77.307zm-2.65 2.653H99.37v-24.723H74.657z"/><path fill="#000" d="M87 288.53a2.036 2.036 0 1 0-.001 4.072c1.124 0 2.038-.91 2.038-2.035A2.04 2.04 0 0 0 87 288.53m0 6.728a4.696 4.696 0 0 1-4.688-4.69 4.692 4.692 0 0 1 4.688-4.69 4.695 4.695 0 0 1 4.69 4.691 4.696 4.696 0 0 1-4.69 4.69m-49.462-6.73a2.037 2.037 0 0 0 0 4.072c1.123 0 2.037-.91 2.037-2.034a2.04 2.04 0 0 0-2.037-2.037m0 6.728a4.697 4.697 0 0 1-4.69-4.69 4.692 4.692 0 0 1 4.689-4.69 4.695 4.695 0 0 1 4.688 4.691 4.696 4.696 0 0 1-4.688 4.69"/><path fill="#fff" d="M84.002 290.566H40.536"/><path fill="#000" d="M40.536 291.891h43.465v-2.652H40.536m20.407-5.279h2.65v-18.904h-2.65"/><path fill="#000" d="M65.487 272.267l-3.218-5.63-3.217 5.63-2.303-1.318 5.521-9.652 5.519 9.652m72.29-23.67c-2.705.118-5.085.604-7.74 1.571-6.651 2.423-11.962 7.29-14.955 13.706-2.99 6.42-3.306 13.616-.883 20.269 3.8 10.434 13.809 17.446 24.905 17.446 2.649 0 5.269-.394 7.806-1.181l-9.134-25.096V247.28zm1.327 55.647c-12.208 0-23.221-7.714-27.398-19.194-2.662-7.32-2.316-15.236.975-22.297 3.29-7.058 9.134-12.414 16.45-15.077 3.344-1.215 6.418-1.759 9.974-1.759h1.324v28.928l9.893 27.18-1.247.452a29.036 29.036 0 0 1-9.972 1.766z"/><path fill="#000" d="M146.73 274.025l8.791 24.165c4.01-1.656 7.135-3.973 10.003-7.391 9.108-10.858 8.007-26.937-2.271-36.468zm7.217 27.59l-10.233-28.123 19.232-22.92 1.017.85c12.312 10.337 13.924 28.762 3.59 41.08-3.424 4.085-7.351 6.835-12.362 8.658l-1.245.456zm-3.582-70.45v22.831l14.676-17.49c-4.362-3.347-9.185-5.102-14.675-5.342zm-2.653 30.121v-32.802h1.328c7.14 0 13.268 2.23 18.738 6.822l1.017.85-21.083 25.13zm-9.592-58.096h14.574v-2.652H138.12m28.406 2.652h8.648v-2.652h-8.647m-8.398 2.652h4.447v-2.652h-4.447m1.976-3.03h9.636v-2.65h-9.636m-21.985 2.65h16.351v-2.65H138.12m-32.93 5.331c-3.085.198-5.825 1.096-8.527 2.788a18.469 18.469 0 0 0-8.264 11.584 18.473 18.473 0 0 0 2.351 14.037c3.418 5.477 9.32 8.743 15.786 8.743 3.032 0 6.009-.745 8.685-2.164l-1.927-3.083a14.942 14.942 0 0 1-6.772 1.62c-8.254 0-14.967-6.716-14.967-14.968 0-7.804 6.005-14.234 13.635-14.912v-3.644zm1.346 39.808c-7.386 0-14.126-3.736-18.038-9.993a21.132 21.132 0 0 1-2.683-16.038 21.107 21.107 0 0 1 9.444-13.24c3.473-2.175 7.156-3.23 11.259-3.23h1.323v8.935h-1.323c-6.79.004-12.313 5.525-12.313 12.317 0 6.791 5.526 12.317 12.316 12.317 2.313 0 4.565-.645 6.52-1.871l1.128-.702 4.732 7.575-1.125.704a21.225 21.225 0 0 1-11.239 3.23z"/><path fill="#000" d="M111.252 198.319a14.896 14.896 0 0 1 11.358 6.96l3.241-1.657c-3.174-5.353-8.389-8.55-14.599-8.948zm10.253 10.498l-.604-1.18a12.273 12.273 0 0 0-10.97-6.723h-1.328l-.004-8.935h1.324c8.277 0 15.175 4.232 18.931 11.605l.6 1.18-7.95 4.054zm-5.962 21.87l1.927 3.087a18.479 18.479 0 0 0 6.176-22.272l-3.237 1.653a14.82 14.82 0 0 1 1.08 5.59c0 4.746-2.201 9.122-5.947 11.943zm1.108 6.781l-4.729-7.574 1.123-.704a12.26 12.26 0 0 0 5.793-10.445 12.18 12.18 0 0 0-1.345-5.594l-.603-1.183 7.959-4.053.601 1.184c5.037 9.89 1.74 21.784-7.673 27.666l-1.125.704z"/><path fill="#fff" d="M92.288 256.25v7.133"/><path fill="#000" d="M90.96 263.383h2.652v-7.132h-2.65"/><path fill="#fff" d="M95.854 259.817h-7.132"/><path fill="#000" d="M88.722 261.141h7.132v-2.652h-7.132"/><path fill="#fff" d="M175.629 245.46v5.156"/><path fill="#000" d="M174.301 250.617h2.652v-5.154h-2.65"/><path fill="#fff" d="M178.207 248.039h-5.154"/><path fill="#000" d="M173.052 249.365h5.154v-2.652h-5.154"/><path fill="#fff" d="M71.205 200.16v5.153"/><path fill="#000" d="M69.879 205.316h2.65v-5.156h-2.65"/><path fill="#fff" d="M73.784 202.736H68.63"/><path fill="#000" d="M68.629 204.062h5.154v-2.652h-5.154m-35.96 49.94a3.645 3.645 0 0 0-3.64 3.641c0 2.01 1.63 3.641 3.64 3.641a3.645 3.645 0 0 0 3.64-3.64 3.647 3.647 0 0 0-3.64-3.642m0 2.652c.547 0 .987.44.987.988s-.44.99-.987.99a.985.985 0 0 1-.988-.988c0-.548.44-.99.988-.99m75.144-1.523h1.895v-1.898h-1.894m-24.705-3.29h1.897v-1.897h-1.897m24.665 49.05h1.897v-1.897h-1.897m44.264-78.862h1.897v-1.897h-1.897m27.136 58.443h1.897v-1.898h-1.897m-143.006.948h1.897v-1.897h-1.897m153.63-73.425h1.896v-1.897h-1.895m-168.658 3.15h13.972v-2.652H21.14m27.095 2.653h10.373v-2.653H48.236m-9.313 2.653h3.809v-2.653h-3.81m-17.78-2.464h7.015v-2.652h-7.016m25.132 2.652h7.043v-2.652h-7.043m-14.73 2.652H43.78v-2.652H31.543M21.141 200.33h24.627v-2.652H21.141m27.8 2.652h6.907v-2.652h-6.906m-27.8 12.888h13.97v-2.652h-13.97m27.094 2.652h10.373v-2.652H48.236m-9.313 2.652h3.809v-2.652h-3.81m-17.783-2.47h12.278v-2.65H21.139m25.688 2.65h6.49v-2.65h-6.49m-10.02 2.65h7.528v-2.65h-7.528m-15.668 12.89h7.011v-2.652H21.14m9.715 2.652h19.712v-2.652H30.854m62.129 331.034h186.674V423.018H92.983zm-2.65 2.652h191.974V420.366H90.333z"/><path fill="#000" d="M75.506 552.947h221.627v-5.911H75.506v5.91zm-2.65 2.652h226.927v-11.215H72.855v11.215zm30.274-26.442h166.376v-97.258H103.13zm-2.655 2.652h171.68V429.242H100.476V531.81zm85.844 5.992a.611.611 0 0 0-.611.611c0 .34.272.616.611.616a.612.612 0 0 0 0-1.226m0 2.652a2.042 2.042 0 0 1-2.04-2.04 2.042 2.042 0 0 1 4.081 0 2.044 2.044 0 0 1-2.04 2.042"/><path fill="#000" d="M113.235 461.403h20.182v-17.779h-20.182zm-2.652 2.652h25.486v-23.087h-25.486zm128.436-2.652h20.383v-17.779h-20.383zm-2.652 2.652h25.687v-23.087h-25.687zm-91.228-2.652h82.27v-17.779h-82.27zm-2.652 2.652h87.574v-23.087h-87.574zm-29.252 28.999h53.832v-17.78h-53.832zm-2.652 2.652h59.135v-23.088h-59.135zm103.6-2.652h45.219v-17.78h-45.219zm-2.654 2.652h50.525v-23.088h-50.525zm-29.394-2.652h17.778v-17.78h-17.778zm-2.65 2.652h23.083v-23.088h-23.083z"/><path fill="#fff" d="M111.908 507.602h85.728"/><path fill="#000" d="M111.911 508.926h85.725v-2.65H111.91"/><path fill="#fff" d="M155.173 517.618h14.821"/><path fill="#000" d="M155.173 518.945h14.821v-2.652h-14.82"/><path fill="#fff" d="M111.908 517.618h34.05"/><path fill="#000" d="M111.911 518.945h34.05v-2.652h-34.05"/><path fill="#fff" d="M181.211 517.618h68.901"/><path fill="#000" d="M181.211 518.945h68.901v-2.652H181.21"/><path fill="#fff" d="M208.853 507.602h17.225"/><path fill="#000" d="M208.853 508.926h17.226v-2.65h-17.226"/><path fill="#fff" d="M232.487 507.602h28.242"/><path fill="#000" d="M232.487 508.926h28.242v-2.65h-28.242M653.737 6.153a.441.441 0 0 0-.441.44v102.595c0 .244.198.44.442.44h68.957c.24 0 .437-.196.437-.44V6.594a.439.439 0 0 0-.437-.44h-68.957zm68.958 106.128h-68.957a3.098 3.098 0 0 1-3.094-3.093V6.594a3.098 3.098 0 0 1 3.095-3.093h68.957a3.097 3.097 0 0 1 3.092 3.093v102.594a3.097 3.097 0 0 1-3.092 3.093z"/><path fill="#000" d="M658.542 92.716h59.348V17.118h-59.348v75.596zm-2.65 2.65h64.649V14.463h-64.65v80.904zm32.324 5.004a1.746 1.746 0 1 0 1.746 1.746c0-.958-.782-1.744-1.748-1.744m0 6.145a4.407 4.407 0 0 1-4.4-4.4 4.406 4.406 0 0 1 4.4-4.397 4.404 4.404 0 0 1 4.398 4.397c0 2.425-1.973 4.4-4.399 4.4"/><path fill="#fff" d="M688.816 10.155a.6.6 0 1 1-1.2 0 .6.6 0 1 1 1.2 0"/><path fill="#000" d="M688.216 9.43a.725.725 0 1 0 0 1.451.725.725 0 0 0 0-1.45m0 2.65a1.93 1.93 0 0 1-1.928-1.927 1.927 1.927 0 0 1 3.855 0 1.93 1.93 0 0 1-1.927 1.926M494.724 491.162c-5.487 0-9.95 4.464-9.95 9.951v86.28c0 5.487 4.463 9.955 9.95 9.955h33.143c5.482 0 9.948-4.468 9.948-9.956v-86.278c0-5.486-4.465-9.95-9.947-9.95h-33.143zM527.867 600h-33.143c-6.949 0-12.601-5.657-12.601-12.606v-86.28c0-6.95 5.652-12.603 12.6-12.603h33.144c6.948 0 12.6 5.653 12.6 12.603v86.28c0 6.95-5.652 12.607-12.6 12.607z"/><path fill="#000" d="M489.233 587.068h44.119v-86.96h-44.12zm-2.65 2.65h49.425v-92.262h-49.426v92.264z"/><path fill="#000" d="M511.294 591.772a1.767 1.767 0 0 0 0 3.532 1.765 1.765 0 1 0 0-3.53m0 6.186a4.425 4.425 0 0 1-4.416-4.42 4.421 4.421 0 0 1 4.416-4.419 4.423 4.423 0 0 1 4.418 4.418 4.425 4.425 0 0 1-4.419 4.42m-5.092-102.194h10.186v-2.653h-10.186m25.283 1.327a.65.65 0 0 1-.65.649.649.649 0 1 1 0-1.3c.36 0 .65.294.65.65m-34.978 72.15h29.576c1.826-3.473 3.114-9.37 3.114-14.423 0-13.415-11.217-15.417-17.9-15.417-6.688 0-17.901 2.002-17.901 15.417 0 5.056 1.284 10.95 3.11 14.422zm31.102 2.65H494.98l-.388-.642c-2.645-4.399-3.848-11.603-3.848-16.43 0-11.483 7.488-18.07 20.551-18.07 13.06 0 20.553 6.587 20.553 18.07 0 4.827-1.209 12.031-3.853 16.43l-.388.643z"/><path fill="#000" d="M504.855 537.809l6.44 6.442 6.44-6.441c-.953-.339-1.963-.6-3.015-.776l-1.105-.187v-6.95h-4.64v6.949l-1.105.187c-1.056.176-2.06.437-3.014.777zm6.44 10.192l-11.005-11.007 1.65-.823a19.2 19.2 0 0 1 4.38-1.54v-7.386h9.946v7.387c1.561.353 3.032.867 4.385 1.54l1.65.824-11.006 11.007z"/><path fill="#000" d="M511.294 509.78c-4.684 0-7.954 4.002-7.954 9.727 0 6.363 3.865 12.377 7.954 12.377 4.088 0 7.955-6.014 7.955-12.377 0-5.725-3.27-9.725-7.955-9.725m0 24.759c-6.253 0-10.61-7.925-10.61-15.032 0-7.173 4.464-12.378 10.61-12.378 6.148 0 10.611 5.205 10.611 12.377 0 7.108-4.358 15.032-10.61 15.032"/><path fill="#000" d="M507.522 511.025l1.304 1.21c2.885 2.68 6.129 4.196 9.885 4.612-.773-4.456-3.34-7.065-7.06-7.065-1.484 0-2.935.44-4.128 1.244zm-.274.195l-.05.037a7.945 7.945 0 0 0-2.178 2.578 10.727 10.727 0 0 0-1.145 3.38c-.042.264-.078.538-.105.809 1.252-1.315 2.1-3.102 2.912-5.281l.565-1.526zm-5.414 11.419l-.085-1.798c-.293-.247-.71-.67-.71-1.335 0-.92.075-1.835.22-2.718.24-1.484.72-2.9 1.427-4.21.738-1.369 1.716-2.527 2.909-3.432 1.708-1.299 3.859-2.015 6.055-2.015 5.582 0 9.374 4.235 9.893 11.051l.113 1.474-1.477-.046c-4.448-.137-8.3-1.512-11.71-4.191-1.02 2.347-2.394 4.557-4.714 6.014l-1.92 1.207zm8.135 45.936h2.65v-22.324h-2.65m-15.804 30.837h34.255v-2.65h-34.255m0 8.619h34.255v-2.652h-34.255M224.286 2.652c-5.486 0-9.947 4.464-9.947 9.95v86.28c0 5.488 4.462 9.956 9.948 9.956h33.143c5.485 0 9.951-4.468 9.951-9.956V12.604c0-5.486-4.466-9.95-9.95-9.95h-33.143zM257.43 111.49h-33.143c-6.947 0-12.6-5.658-12.6-12.606v-86.28C211.686 5.653 217.34 0 224.287 0h33.143c6.95 0 12.602 5.653 12.602 12.603v86.279c0 6.95-5.652 12.608-12.6 12.608z"/><path fill="#000" d="M218.798 98.558h44.12v-86.96h-44.12zm-2.655 2.65h49.426V8.946h-49.426v92.265z"/><path fill="#000" d="M240.858 103.262a1.767 1.767 0 0 0 0 3.532 1.766 1.766 0 0 0 0-3.53m0 6.186a4.425 4.425 0 0 1-4.416-4.42 4.42 4.42 0 0 1 4.416-4.419 4.423 4.423 0 0 1 4.417 4.417 4.424 4.424 0 0 1-4.417 4.42M235.763 7.255h10.186V4.602h-10.185m25.284 1.326a.65.65 0 0 1-.65.65.65.65 0 0 1 0-1.3.65.65 0 0 1 .65.65M226.07 78.74h29.576c1.826-3.472 3.114-9.365 3.114-14.422 0-13.414-11.217-15.417-17.9-15.417-6.686 0-17.9 2.003-17.9 15.417 0 5.056 1.288 10.95 3.11 14.422zm31.102 2.652h-32.627l-.389-.643c-2.644-4.401-3.85-11.605-3.85-16.432 0-11.483 7.49-18.07 20.554-18.07 13.06 0 20.553 6.588 20.553 18.071 0 4.827-1.203 12.031-3.854 16.43l-.387.645z"/><path fill="#000" d="M234.486 49.94a10.457 10.457 0 0 0 6.373 2.164c2.655 0 4.883-1.208 6.267-2.205a18.558 18.558 0 0 0-2.842-.717l-1.105-.185V42.05h-4.64v6.944l-1.105.187c-1.03.176-2.017.428-2.949.756m6.373 4.822c-6.176 0-9.653-4.239-9.8-4.416l-1.033-1.285 1.477-.733a19.105 19.105 0 0 1 4.381-1.54v-7.387h9.946v7.387c1.56.35 3.031.866 4.384 1.54l1.578.788-1.193 1.296c-.163.176-4.064 4.352-9.74 4.352"/><path fill="#000" d="M240.858 21.936c-4.685 0-7.955 4-7.955 9.724 0 6.363 3.868 12.377 7.956 12.377 4.088 0 7.954-6.014 7.954-12.377 0-5.724-3.27-9.725-7.955-9.725m0 24.752c-6.252 0-10.609-7.92-10.609-15.028 0-7.172 4.462-12.377 10.609-12.377s10.607 5.205 10.607 12.377c0 7.108-4.352 15.029-10.606 15.029"/><path fill="#000" d="M238.965 20.112c-5.71 0-9.699 4.85-9.699 11.8 0 .781.049 1.575.147 2.367 3.009-5.554 8.736-9.432 15.31-10.068a20.647 20.647 0 0 1 1.758-.088c-1.754-2.546-4.445-4.011-7.516-4.011zm-9.742 23.2l-1.408-4.174a22.816 22.816 0 0 1-1.2-7.225c0-8.377 5.193-14.455 12.351-14.455 4.893 0 9.017 2.84 11.037 7.597l.89 2.1-2.267-.263a17.438 17.438 0 0 0-3.648-.04c-6.992.675-12.87 5.58-14.623 12.2l-1.13 4.26zm-5.492 45.266h34.254v-2.65H223.73m0 8.619h34.254v-2.652H223.73m512.802 129.69h5.635v-5.803h-5.635zm-2.65 2.651h10.937v-11.104h-10.938v11.104z"/><path fill="#000" d="M754.21 165.85c-4.635 0-8.41 3.771-8.41 8.41v173.392c0 4.64 3.775 8.41 8.41 8.41h79.222c4.636 0 8.41-3.77 8.41-8.41V174.261c0-4.64-3.774-8.41-8.41-8.41h-79.223zm79.222 192.866h-79.223c-6.103 0-11.06-4.961-11.06-11.064V174.261c0-6.103 4.957-11.063 11.06-11.063h79.221c6.1 0 11.06 4.962 11.06 11.065v173.391c0 6.103-4.96 11.063-11.06 11.063z"/><path fill="#000" d="M750.631 337.85h86.378V181.702h-86.378zm-2.65 2.652h91.68V179.05h-91.682v161.452z"/><path fill="#000" d="M793.82 344.142a4.156 4.156 0 0 0-4.15 4.153 4.157 4.157 0 0 0 4.15 4.156 4.155 4.155 0 0 0 .001-8.309m0 10.961c-3.752 0-6.803-3.055-6.803-6.808a6.81 6.81 0 0 1 6.804-6.805 6.81 6.81 0 0 1 6.804 6.805c0 3.753-3.052 6.808-6.804 6.808m-9.025-181.1h18.05v-2.65h-18.05m44.802 1.326a1.15 1.15 0 0 1-2.297-.001c0-.636.517-1.148 1.152-1.148.632 0 1.147.512 1.147 1.148M826.53 333.34l-1.205-2.362 2.28-1.162-2.28-1.161 1.203-2.367 6.924 3.528m-72.005-1.313h3.286v-37.855h-3.286zm-2.65 2.652h8.592v-43.163h-8.593z"/><path fill="#000" d="M761.446 328.503h3.286v-21.922h-3.286zm-2.65 2.652h8.592v-27.23h-8.593zm55.843-2.652h3.286V255.81h-3.286V328.5zm-2.65 2.652h8.592v-77.999h-8.594v78z"/><path fill="#000" d="M814.639 328.503h3.286v-14.361h-3.286zm-2.65 2.652h8.592V311.49h-8.594v19.666zm-39.905-2.652h3.286v-49.739h-3.286zm-2.65 2.652h8.592V276.11h-8.593v55.045z"/><path fill="#000" d="M772.084 328.503h3.286V317.11h-3.286zm-2.65 2.652h8.592V314.46h-8.593v16.695zm23.93-2.652h3.285V302.53h-3.286zm-2.656 2.652h8.593v-31.279h-8.594v31.28z"/><path fill="#000" d="M793.363 299.878h3.286v-35.255h-3.286zm-2.655 2.652h8.593v-40.562h-8.594v40.562zm13.293 25.973h3.286v-31.375h-3.286zm-2.652 2.652h8.594v-36.679h-8.593v36.68z"/><path fill="#000" d="M804.001 294.476h3.286v-21.922h-3.286zm-2.652 2.652h8.594v-27.23h-8.593v27.23zm-18.623 31.375h3.286v-42.45h-3.286zm-2.656 2.652h8.594v-47.753h-8.594z"/><path fill="#000" d="M782.726 328.503h3.286v-33.536h-3.286zm-2.656 2.652h8.594v-38.84h-8.594z"/><path fill="#000" d="M829.5 331.156h-70.707V246.28h2.653v82.227H829.5"/><path fill="#000" d="M758.932 250.613l-2.361-1.203 3.523-6.926 3.524 6.924-2.361 1.205-1.162-2.282m-1.901 16.288h3.855v-2.65h-3.855m29.605 2.65h3.98v-2.65h-3.98m-12.696 2.65h6.347v-2.65h-6.347m-10.324 2.65h3.98v-2.65h-3.98"/><path fill="#fff" d="M817.841 246.346c0 .875-1.584 4.629-1.584 4.629s-1.59-3.754-1.59-4.63a1.59 1.59 0 0 1 1.59-1.585c.875 0 1.584.71 1.584 1.587"/><path fill="#000" d="M816.255 246.085a.261.261 0 0 0-.26.26c.013.154.112.492.256.93.154-.45.253-.795.266-.96 0-.113-.117-.23-.26-.23zm0 8.29l-1.222-2.884c-.631-1.493-1.69-4.149-1.69-5.144a2.916 2.916 0 0 1 2.912-2.914 2.916 2.916 0 0 1 2.913 2.914c0 .995-1.06 3.65-1.692 5.144zm-54.529-27.534l-2.118-1.596 12.376-16.446 11.396 8.638 11.768-21.993 12.051 14.39 11.829-8.348 12.268 23.952-2.357 1.208-10.88-21.234-11.324 7.994-11.098-13.249-11.383 21.269-11.75-8.906"/><path fill="#000" d="M762.052 226.008a1.429 1.429 0 1 1-2.858-.002 1.429 1.429 0 0 1 2.858.002"/><path fill="#fff" d="M773.67 210.623a1.429 1.429 0 0 1-2.857 0c0-.787.64-1.426 1.43-1.426.787 0 1.427.639 1.427 1.426"/><path fill="#000" d="M772.242 210.52a.103.103 0 0 0-.103.104c0 .113.205.113.205 0a.103.103 0 0 0-.103-.103m0 2.858a2.758 2.758 0 0 1-2.755-2.754 2.758 2.758 0 0 1 2.754-2.755 2.758 2.758 0 0 1 2.753 2.754 2.758 2.758 0 0 1-2.754 2.754"/><path fill="#fff" d="M785.157 219.322a1.428 1.428 0 1 1-2.855 0 1.428 1.428 0 0 1 2.855 0"/><path fill="#000" d="M783.73 219.22a.103.103 0 0 0-.103.103c0 .114.205.114.205 0a.102.102 0 0 0-.102-.102m0 2.856a2.756 2.756 0 0 1-2.754-2.753 2.757 2.757 0 0 1 2.754-2.754 2.758 2.758 0 0 1 2.754 2.755 2.758 2.758 0 0 1-2.754 2.755"/><path fill="#fff" d="M796.776 197.705a1.43 1.43 0 0 1-2.856 0 1.428 1.428 0 0 1 2.856 0"/><path fill="#000" d="M795.348 197.604a.102.102 0 0 0-.102.101c0 .114.205.114.205 0a.103.103 0 0 0-.103-.101m0 2.855a2.757 2.757 0 0 1-2.753-2.754 2.758 2.758 0 0 1 2.754-2.754 2.758 2.758 0 0 1 2.754 2.754 2.758 2.758 0 0 1-2.754 2.755"/><path fill="#fff" d="M808.329 211.403a1.428 1.428 0 1 1-2.857-.001 1.428 1.428 0 0 1 2.857 0"/><path fill="#000" d="M806.901 211.3a.103.103 0 0 0-.103.103c0 .113.206.113.206 0a.103.103 0 0 0-.103-.103m0 2.858a2.758 2.758 0 0 1-2.754-2.756 2.757 2.757 0 0 1 2.754-2.754 2.758 2.758 0 0 1 2.754 2.754 2.758 2.758 0 0 1-2.754 2.755"/><path fill="#fff" d="M819.947 203.612a1.427 1.427 0 1 1-2.856 0c0-.787.639-1.43 1.43-1.43a1.43 1.43 0 0 1 1.426 1.43"/><path fill="#000" d="M818.52 203.51a.102.102 0 0 0-.103.102c0 .114.206.114.206 0a.103.103 0 0 0-.104-.101m0 2.855a2.757 2.757 0 0 1-2.754-2.754 2.758 2.758 0 0 1 2.754-2.754 2.757 2.757 0 0 1 2.754 2.754 2.758 2.758 0 0 1-2.754 2.755m12.873 19.318c0 .787-.639 1.426-1.426 1.426-.792 0-1.43-.64-1.43-1.426 0-.789.639-1.431 1.43-1.431a1.43 1.43 0 0 1 1.426 1.43"/><path fill="#fff" d="M811.82 189.03v4.71"/><path fill="#000" d="M810.494 193.74h2.65v-4.71h-2.65"/><path fill="#fff" d="M814.174 191.385h-4.71"/><path fill="#000" d="M809.463 192.712h4.71v-2.65h-4.71m-27.003 19.686h1.25v-1.252h-1.25m14.61 9.783h1.25v-1.25h-1.25m6.366-17.01h1.25v-1.252h-1.25m-10.08 46.918h7.982v-2.652h-7.982m-21.76 2.652h17.766v-2.652h-17.765m.003-1.736h14.571v-2.653H771.6m25.746 2.653h6.987v-2.653h-6.988m-6.786 2.653h3.595v-2.653h-3.595m-18.962-1.944h28.344v-2.65h-28.344m-3.69-36.305h8.616v-2.653h-8.616m-8.368 2.653h4.43v-2.653h-4.43m0-3.008h11.567v-2.652h-11.567"/><path fill="#fff" d="M569.15 236.999a7.316 7.316 0 0 1 10.352 0 7.32 7.32 0 0 1 0 10.353 7.32 7.32 0 0 1-10.353 0 7.318 7.318 0 0 1 0-10.353"/><path fill="#000" d="M574.326 236.18a5.967 5.967 0 0 0-4.24 1.756 6.003 6.003 0 0 0 0 8.478 5.95 5.95 0 0 0 4.24 1.755 5.959 5.959 0 0 0 4.24-1.755c2.334-2.337 2.337-6.141 0-8.478a5.972 5.972 0 0 0-4.24-1.756m0 14.645c-2.308 0-4.48-.9-6.115-2.536-3.37-3.369-3.37-8.856 0-12.228a8.59 8.59 0 0 1 6.114-2.533 8.6 8.6 0 0 1 6.115 2.533c3.368 3.372 3.368 8.86 0 12.228a8.592 8.592 0 0 1-6.115 2.536M688.22 23.271c-9.561 0-17.335 7.78-17.335 17.34 0 6.235 3.374 12.019 8.811 15.095l.672.382v13.136a2.613 2.613 0 0 0 2.61 2.61h10.485c1.438 0 2.61-1.169 2.61-2.61V56.088l.67-.382a17.373 17.373 0 0 0 8.812-15.095c0-9.56-7.775-17.34-17.336-17.34m5.242 51.214h-10.483a5.267 5.267 0 0 1-5.262-5.261V57.617c-5.868-3.634-9.484-10.079-9.484-17.006 0-11.022 8.965-19.99 19.987-19.99 11.022 0 19.988 8.968 19.988 19.99 0 6.927-3.616 13.372-9.484 17.006v11.607a5.267 5.267 0 0 1-5.262 5.261"/><path fill="#000" d="M682.061 74.407v6.726c0 1.039.844 1.886 1.883 1.886h8.552a1.886 1.886 0 0 0 1.884-1.886v-6.726a5.28 5.28 0 0 1-.917.08H682.98c-.31 0-.616-.026-.917-.08m10.435 11.265h-8.552a4.54 4.54 0 0 1-4.533-4.538V69.92l2.083 1.447a2.57 2.57 0 0 0 1.486.467h10.484c.532 0 1.047-.159 1.487-.466l2.083-1.45v11.216a4.541 4.541 0 0 1-4.538 4.538"/><path fill="#000" d="M686.837 87.576h2.764c.149-.147.326-.48.453-.822h-3.67c.128.343.309.675.454.822m2.924 2.652h-3.083c-2.005 0-3.1-2.765-3.1-4.186 0-.365.064-.73.196-1.08l.32-.86h8.251l.321.86c.132.35.196.715.196 1.081 0 1.418-1.096 4.184-3.1 4.184"/><path fill="#fff" d="M680.817 76.707h14.806"/><path fill="#000" d="M680.817 78.032h14.808V75.38h-14.808"/><path fill="#fff" d="M680.817 79.947h14.806"/><path fill="#000" d="M680.817 81.274h14.808v-2.652h-14.808m-.454-41.518l-1.809-1.94c2.318-2.159 5.84-3.399 9.667-3.399 3.795 0 7.302 1.225 9.621 3.358l-1.796 1.95c-1.81-1.663-4.731-2.655-7.824-2.655-3.117 0-6.055 1.007-7.86 2.688m5.889 34.729h3.94V53.39h-3.94zm-2.65 2.652h9.241V50.739H683.6z"/><path fill="#000" d="M690.629 53.392h-4.887l-6.411-17.554 2.49-.911 5.775 15.813h1.18l5.846-15.95 2.49.913"/><path fill="#0c8fd7" d="M617.315 431.064c-4.18 0-7.58 3.4-7.58 7.581 0 4.18 3.4 7.585 7.58 7.585s7.58-3.403 7.58-7.585c0-4.18-3.4-7.58-7.58-7.58m0 17.817c-5.643 0-10.232-4.594-10.232-10.237s4.59-10.233 10.232-10.233c5.642 0 10.232 4.59 10.232 10.233 0 5.643-4.59 10.237-10.232 10.237"/><path fill="#fff" d="M617.315 433.86v9.574"/><path fill="#0c8fd7" d="M615.989 443.434h2.65v-9.574h-2.65"/><path fill="#fff" d="M622.1 438.646h-9.571"/><path fill="#0c8fd7" d="M612.529 439.973h9.57v-2.652h-9.57"/><path fill="#fff" d="M627.424 176.517v9.572"/><path fill="#0c8fd7" d="M626.097 186.088h2.652v-9.574h-2.65"/><path fill="#fff" d="M632.209 181.302h-9.572"/><path fill="#0c8fd7" d="M622.638 182.627h9.57v-2.652h-9.57"/><path fill="#fff" d="M574.384 39.256v6.921"/><path fill="#0c8fd7" d="M573.06 46.177h2.65v-6.92h-2.65"/><path fill="#fff" d="M577.844 42.716h-6.92"/><path fill="#0c8fd7" d="M570.924 44.04h6.92v-2.65h-6.92"/><path fill="#000" d="M194.603 386.197a3.984 3.984 0 0 0-3.978 3.98 3.983 3.983 0 0 0 3.98 3.976 3.982 3.982 0 0 0 3.978-3.976 3.985 3.985 0 0 0-3.98-3.98m0 2.653c.73 0 1.327.591 1.327 1.326a1.327 1.327 0 0 1-2.654 0c0-.734.597-1.327 1.328-1.327m174.364 10.61h23.535v-2.652H368.97m-14.587 2.653h7.955v-2.653h-7.954"/><path fill="#0c8fd7" d="M340.129 392.164h16.905v-2.652h-16.905m-17.568 2.652h11.601v-2.652h-11.601m41.766 2.652h5.968v-2.652h-5.966m2.65-4.972h12.93v-2.65h-12.93"/><path fill="#000" d="M641.822 377.577h23.537v-2.652h-23.537"/><path fill="#0c8fd7" d="M670.002 377.577h5.302v-2.652h-5.302"/><path fill="#000" d="M627.238 377.577h7.955v-2.652h-7.954"/><path fill="#0c8fd7" d="M600.386 370.284h29.503v-2.65h-29.503"/><path fill="#000" d="M659.392 370.284h11.602v-2.65H659.39m-22.207 2.65h7.623v-2.65h-7.623"/><path fill="#0c8fd7" d="M639.832 362.657h9.946v-2.652h-9.946m-20.22 2.652h15.58v-2.652h-15.58"/><path fill="#000" d="M684.919 155.44h19.556v-2.65h-19.556m38.12 2.65h11.601v-2.65h-11.599m-11.275 2.65h5.967v-2.65h-5.967m2.652-4.973h12.928v-2.652h-12.928m-11.342 2.652h3.778v-2.652h-3.778m-296.173 2.209h2.542v-2.543h-2.542"/><path fill="#0c8fd7" d="M371.017 21.273c-4.182 0-7.582 3.4-7.582 7.583 0 4.18 3.4 7.58 7.58 7.58s7.58-3.4 7.58-7.58c0-4.182-3.4-7.583-7.58-7.583m0 17.819c-5.642 0-10.233-4.594-10.233-10.236 0-5.643 4.59-10.235 10.233-10.235 5.64 0 10.23 4.59 10.23 10.235 0 5.642-4.59 10.236-10.23 10.236"/><path fill="#fff" d="M371.017 24.07v9.575"/><path fill="#0c8fd7" d="M369.69 33.64h2.652v-9.573h-2.652m6.11 4.789h-9.571"/><path fill="#0c8fd7" d="M366.23 30.184h9.572v-2.65h-9.572"/><path fill="#fff" d="M339.026 340.3v9.573"/><path fill="#0c8fd7" d="M337.698 349.87h2.652v-9.573h-2.65"/><path fill="#fff" d="M343.81 345.085h-9.571"/><path fill="#0c8fd7" d="M334.239 346.41h9.57v-2.65h-9.57"/><path fill="#fff" d="M619.9 523.313v9.574"/><path fill="#000" d="M618.573 532.884h2.65v-9.574h-2.65"/><path fill="#fff" d="M624.685 528.099h-9.572"/><path fill="#000" d="M615.114 529.422h9.57v-2.65h-9.57m106.201-125.658a3.985 3.985 0 0 0-3.98 3.98 3.984 3.984 0 0 0 3.98 3.977 3.983 3.983 0 0 0 3.979-3.977 3.983 3.983 0 0 0-3.979-3.98m0 2.652a1.327 1.327 0 1 1 .001 2.654 1.327 1.327 0 0 1 0-2.654"/><path fill="#0c8fd7" d="M660.022 265.515a3.983 3.983 0 0 0-3.977 3.98 3.983 3.983 0 0 0 3.978 3.976 3.984 3.984 0 0 0 3.98-3.978 3.984 3.984 0 0 0-3.98-3.98m0 2.652c.733 0 1.33.594 1.33 1.328a1.328 1.328 0 0 1-2.656 0 1.33 1.33 0 0 1 1.327-1.328m-215.44-163.119a3.985 3.985 0 0 0-3.98 3.98 3.984 3.984 0 0 0 3.98 3.977 3.984 3.984 0 0 0 3.98-3.977 3.985 3.985 0 0 0-3.98-3.98m0 2.652c.73 0 1.327.594 1.327 1.328a1.328 1.328 0 0 1-2.655 0 1.33 1.33 0 0 1 1.328-1.328"/><path fill="#fff" d="M454.53 437.256a2.656 2.656 0 0 1-2.653-2.653 2.656 2.656 0 0 1 2.652-2.652c1.461 0 2.65 1.19 2.65 2.652a2.655 2.655 0 0 1-2.65 2.653"/><path fill="#0c8fd7" d="M454.53 430.624a3.985 3.985 0 0 0-3.981 3.98 3.983 3.983 0 0 0 3.98 3.976 3.982 3.982 0 0 0 3.978-3.976 3.983 3.983 0 0 0-3.978-3.98m0 2.652c.73 0 1.327.594 1.327 1.328a1.328 1.328 0 1 1-1.327-1.329"/><path fill="#fff" d="M371.511 155.297v9.575"/><path fill="#000" d="M370.185 164.87h2.65v-9.575h-2.65"/><path fill="#fff" d="M376.298 160.083h-9.573"/><path fill="#000" d="M366.723 161.408h9.573v-2.65h-9.572"/><path fill="#fff" d="M549.19 393.346v9.574"/><path fill="#0c8fd7" d="M547.865 402.92h2.65v-9.574h-2.65"/><path fill="#fff" d="M553.976 398.131h-9.57"/><path fill="#0c8fd7" d="M544.405 399.46h9.571v-2.653h-9.57"/><path fill="#fff" d="M547.202 128.773v9.574"/><path fill="#000" d="M545.877 138.345h2.652v-9.574h-2.652"/><path fill="#fff" d="M551.987 133.56h-9.571"/><path fill="#000" d="M542.417 134.885h9.572v-2.652h-9.572"/><path fill="#fff" d="M418.584 457.666v6.922"/><path fill="#000" d="M417.258 464.586h2.653v-6.92h-2.653"/><path fill="#fff" d="M422.042 461.126h-6.92"/><path fill="#000" d="M415.122 462.454h6.92V459.8h-6.92"/><path fill="#fff" d="M287.313 352.236v6.921"/><path fill="#000" d="M203.84 359.154h2.65v-6.92h-2.65"/><path fill="#fff" d="M220.359 355.695h-6.916"/><path fill="#000" d="M213.439 357.021h6.92v-2.652h-6.92"/><path fill="#fff" d="M638.032 329.69v6.921"/><path fill="#000" d="M636.704 336.61h2.652v-6.92h-2.652"/><path fill="#fff" d="M641.49 333.15h-6.92"/><path fill="#000" d="M634.572 334.474h6.92v-2.652h-6.92"/><path fill="#fff" d="M648.355 478.367v6.92"/><path fill="#0c8fd7" d="M647.027 485.287h2.65v-6.922h-2.65"/><path fill="#fff" d="M651.813 481.827h-6.92"/><path fill="#0c8fd7" d="M644.893 483.155h6.921v-2.653h-6.92"/><path fill="#fff" d="M329.37 122.143v6.918"/><path fill="#0c8fd7" d="M328.042 129.062h2.65v-6.921h-2.65"/><path fill="#fff" d="M332.828 125.603h-6.92"/><path fill="#0c8fd7" d="M325.91 126.929h6.92v-2.65h-6.92"/><path fill="#fff" d="M346.318 499.442v6.92"/><path fill="#0c8fd7" d="M344.993 506.362h2.65v-6.922h-2.65"/><path fill="#fff" d="M349.777 502.9h-6.92"/><path fill="#0c8fd7" d="M342.856 504.228h6.921v-2.652h-6.92"/><path fill="#000" d="M461.159 93.11h2.542v-2.543h-2.542m219.087 224.016h2.54v-2.543h-2.542m-49.306-59.18h2.542v-2.543h-2.542m-381.88 110.628h2.542v-2.543h-2.542"/><path fill="#0c8fd7" d="M365.69 358.9h2.542v-2.543h-2.542m153.814-235.505h2.542v-2.543h-2.542"/><path fill="#000" d="M398.174 435.822h2.543v-2.543h-2.543m-79.889-136.708h2.541v-2.543h-2.543m280.113-134.053h2.543v-2.543h-2.543m-257.792 34.37h2.543v-2.542h-2.543M535.522 427.86h2.543v-2.542h-2.543m71.602-17.904h2.543v-2.543h-2.543m-45.136 54.209h2.543v-2.543h-2.543m160.388-76.419h2.543v-2.542h-2.543m-581.382 17.13h2.542v-2.543h-2.542m521.16-251.311h2.54v-2.543h-2.542M463.867 465.713h2.542v-2.543h-2.542M329.554 264.743h2.543v-2.542h-2.543m-25.855-8.07h2.543v-2.542h-2.543m403.662 22.737h2.543v-2.542h-2.543M567.899 431.949h2.542v-2.54H567.9m-33.81-331.655h2.542v-2.542h-2.542"/><path fill="#0c8fd7" d="M403.587 103.718h2.543v-2.543h-2.543"/><path fill="#000" d="M362.427 477.649h2.543v-2.543h-2.543"/><path fill="#0c8fd7" d="M609.436 498.815h2.543v-2.543h-2.543"/><path fill="#000" d="M677.801 453.724h2.543v-2.542H677.8m5.858-27.297h2.543v-2.543h-2.543M347.79 541.913h2.54v-2.542h-2.542m56.611-13.98h2.543v-2.543h-2.543"/><path fill="#0c8fd7" d="M146.998 138.301h2.543v-2.542h-2.543"/><path fill="#000" d="M580.605 80.201h2.543v-2.543h-2.543m-23.259-70.34h2.541V4.773h-2.542m63.594 12.806h2.543v-2.543h-2.543M358.452 72.961h2.543V70.42h-2.543"/><path fill="#0c8fd7" d="M201.43 124.835h2.542v-2.543h-2.543"/><path fill="#000" d="M378.287 126.266h2.542v-2.543h-2.542m275.161 106.594h2.543v-2.542h-2.543m-51.627 121.84h2.543v-2.543h-2.543m-104.198 76.813h2.542v-2.543h-2.542M205.305 204.373h12.068v-12.07h-12.068zm-2.652 2.65h17.372v-17.372h-17.373v17.373zm2.652 21.33h12.068v-12.07h-12.068zm-2.652 2.653h17.372V213.63h-17.373v17.376zm2.652 21.328h12.068v-12.07h-12.068zm-2.652 2.655h17.372v-17.372h-17.373v17.373zm2.652 21.328h12.068V264.25h-12.068zm-2.652 2.654h17.372v-17.375h-17.373v17.375zm2.652 21.328h12.068v-12.07h-12.068zm-2.652 2.652h17.372v-17.372h-17.373v17.372z"/><path fill="#fff" d="M502.043 145.273c0 6.836-8.608 12.377-19.228 12.377-10.617 0-19.225-5.54-19.225-12.377 0-6.836 8.608-12.377 19.225-12.377 10.62 0 19.228 5.541 19.228 12.377"/><path fill="#000" d="M482.816 134.222c-9.872 0-17.9 4.959-17.9 11.053 0 6.093 8.029 11.05 17.9 11.05 9.872 0 17.901-4.959 17.901-11.05 0-6.094-8.029-11.053-17.9-11.053m0 24.754c-11.335 0-20.553-6.148-20.553-13.7 0-7.557 9.219-13.706 20.552-13.706 11.335 0 20.552 6.149 20.552 13.705 0 7.553-9.218 13.701-20.552 13.701"/><path fill="#0c8fd7" d="M499.811 148.7c0 4.944-7.608 8.951-16.996 8.951-9.385 0-16.993-4.01-16.993-8.952 0-4.944 7.608-8.952 16.993-8.952 9.388 0 16.996 4.008 16.996 8.952"/><path fill="#000" d="M482.816 141.074c-8.495 0-15.67 3.493-15.67 7.624 0 4.135 7.175 7.628 15.67 7.628 8.495 0 15.67-3.493 15.67-7.628 0-4.13-7.175-7.624-15.67-7.624m0 17.903c-10.274 0-18.32-4.512-18.32-10.278 0-5.764 8.046-10.276 18.32-10.276 10.274 0 18.32 4.512 18.32 10.275 0 5.767-8.046 10.278-18.32 10.278"/><path fill="#fff" d="M502.043 240.759c0 6.836-8.608 12.377-19.228 12.377-10.617 0-19.225-5.54-19.225-12.377 0-6.836 8.608-12.377 19.225-12.377 10.62 0 19.228 5.541 19.228 12.377"/><path fill="#000" d="M482.816 229.708c-9.872 0-17.9 4.958-17.9 11.049 0 6.095 8.029 11.053 17.9 11.053 9.872 0 17.901-4.958 17.901-11.053 0-6.093-8.029-11.049-17.9-11.049m0 24.754c-11.335 0-20.553-6.148-20.553-13.705 0-7.554 9.219-13.701 20.552-13.701 11.335 0 20.552 6.147 20.552 13.7 0 7.558-9.218 13.706-20.552 13.706"/><path fill="#0c8fd7" d="M499.811 244.185c0 4.944-7.608 8.952-16.996 8.952-9.385 0-16.993-4.008-16.993-8.952s7.608-7.483 16.993-7.483c9.388 0 16.996 2.54 16.996 7.483"/><path fill="#000" d="M482.816 238.742c-8.495 0-15.67 3.066-15.67 6.695 0 3.63 7.175 6.698 15.67 6.698 8.495 0 15.67-3.068 15.67-6.698 0-3.629-7.175-6.695-15.67-6.695m0 15.721c-10.274 0-18.32-3.963-18.32-9.025s8.046-9.026 18.32-9.026c10.274 0 18.32 3.964 18.32 9.026 0 5.062-8.046 9.025-18.32 9.025m-1.486-96.939h2.65V77.65h-2.65m261.369 347.4c-5.512 0-9.995 4.486-9.995 9.998v148.076c0 5.508 4.483 9.994 9.995 9.994h98c5.512 0 9.992-4.486 9.992-9.994V435.047c0-5.512-4.48-9.997-9.992-9.997zm98 170.719h-98c-6.973 0-12.648-5.673-12.648-12.645V435.047c0-6.974 5.674-12.648 12.647-12.648h98c6.974 0 12.646 5.674 12.646 12.648v148.076c0 6.972-5.672 12.645-12.645 12.645z"/><path fill="#000" d="M738.508 576.994h106.38V439.082h-106.38zm-2.65 2.652h111.68V436.429H735.857v143.217zm55.84 3.222a3.528 3.528 0 0 0-3.523 3.523 3.53 3.53 0 0 0 3.524 3.524 3.53 3.53 0 0 0 3.524-3.524 3.53 3.53 0 0 0-3.524-3.524m0 9.7a6.18 6.18 0 0 1-6.175-6.177 6.182 6.182 0 0 1 6.175-6.176 6.185 6.185 0 0 1 6.175 6.176 6.182 6.182 0 0 1-6.175 6.177m-7.988-160.297h15.977v-2.652h-15.977m50.32 1.325a1.017 1.017 0 1 1-2.039 0 1.017 1.017 0 0 1 2.04 0"/><path fill="#000" d="M753.591 567.495h76.217v-7.087h-76.217zm-2.65 2.652h81.519v-12.39h-81.52v12.39zm.094-19.852h2.652v-47.75h-2.652m9.834 47.75h2.65V514.77h-2.65m9.836 35.525h2.65v-59.208h-2.65m9.833 59.208h2.65v-74.87h-2.65m9.836 74.87h2.65v-69.142h-2.65m9.833 69.142h2.652v-90.148h-2.652m9.836 90.148h2.652v-74.87h-2.652m9.833 74.87h2.65v-82.13h-2.65m9.836 82.13h2.65V449.829h-2.65"/><path fill="#000" d="M752.36 551.623h78.676v-2.653h-78.677m29.468-97.431a3.985 3.985 0 0 0-3.98 3.98c0 1.445 2.073 5.149 3.98 8.062 1.907-2.914 3.978-6.617 3.978-8.061a3.985 3.985 0 0 0-3.98-3.98zm0 16.696l-1.086-1.528c-.924-1.31-5.545-8-5.545-11.188a6.638 6.638 0 0 1 6.63-6.63 6.639 6.639 0 0 1 6.631 6.63c0 3.188-4.622 9.877-5.547 11.188l-1.085 1.528z"/><path fill="#0c8fd7" d="M630.36 290.185c-1.224-.794-2.383-1.545-3.112-1.237-.6.254-1.198.706-1.831 1.183-.741.564-1.508 1.144-2.422 1.526-1.612.667-3.575.24-5.53-1.205l-.056-.04c-1.166-.862-2.364-1.748-3.228-1.623-.7.105-1.488.695-2.323 1.318a20.69 20.69 0 0 1-1.428 1.004 5.284 5.284 0 0 1-5.637-.015 20.593 20.593 0 0 1-1.4-.988c-.842-.625-1.637-1.22-2.343-1.323-.91-.127-2.116.65-3.279 1.403-1.657 1.08-3.54 2.298-5.545 1.457-.906-.382-1.665-.959-2.4-1.514-.637-.483-1.24-.94-1.845-1.191-1.017-.423-2.42.483-2.973.89l-.055.04c-1.522 1.125-3.252 2.385-5.167 2.108-1.356-.205-2.45-1.02-3.506-1.812-.427-.319-.83-.62-1.242-.877l1.383-2.222c.507.317.974.665 1.426 1.004.835.622 1.624 1.213 2.328 1.319.87.137 2.061-.765 3.225-1.624l.055-.042c1.956-1.443 3.918-1.87 5.53-1.203.916.382 1.681.962 2.425 1.526.632.477 1.23.929 1.832 1.186.724.3 1.884-.446 3.107-1.239 1.497-.968 3.182-2.061 5.071-1.8 1.37.198 2.472 1.022 3.54 1.818.419.313.818.612 1.226.867a2.647 2.647 0 0 0 2.862.01c.413-.258.819-.557 1.246-.88 1.054-.788 2.147-1.604 3.501-1.81 1.284-.195 2.487.314 3.599 1.01.545.34 1.068.726 1.568 1.095l.056.043c.555.409 1.952 1.315 2.973.892.609-.25 1.209-.708 1.847-1.191.733-.558 1.494-1.132 2.399-1.514 2.01-.845 3.892.381 5.55 1.455 1.16.755 2.366 1.53 3.278 1.403.706-.101 1.498-.695 2.34-1.324.443-.33.902-.672 1.398-.985a5.287 5.287 0 0 1 5.64-.014l-1.385 2.222c-.893-.558-1.963-.554-2.862.01-.406.254-.804.551-1.226.865-1.066.798-2.172 1.622-3.535 1.82-.197.027-.391.038-.584.038-1.656 0-3.153-.97-4.488-1.838zm-369.666 19.559c-1.225-.794-2.384-1.545-3.113-1.237-.6.254-1.198.706-1.831 1.183-.741.564-1.508 1.144-2.422 1.526-1.612.667-3.575.24-5.53-1.205l-.057-.04c-1.165-.862-2.363-1.748-3.227-1.623-.7.105-1.488.695-2.323 1.318a20.69 20.69 0 0 1-1.428 1.004 5.284 5.284 0 0 1-5.637-.015 20.593 20.593 0 0 1-1.4-.987c-.842-.626-1.637-1.22-2.343-1.324-.91-.127-2.116.65-3.279 1.403-1.657 1.08-3.54 2.298-5.545 1.457-.906-.381-1.665-.958-2.4-1.514-.637-.483-1.24-.94-1.845-1.191-1.017-.423-2.42.483-2.973.89l-.055.04c-1.522 1.126-3.252 2.385-5.167 2.108-1.356-.205-2.45-1.02-3.506-1.812-.427-.319-.83-.62-1.242-.877l1.383-2.222c.507.317.973.665 1.426 1.004.834.622 1.624 1.213 2.328 1.319.87.137 2.061-.765 3.225-1.624l.055-.042c1.956-1.443 3.918-1.87 5.53-1.203.916.382 1.681.962 2.425 1.526.632.477 1.23.93 1.832 1.186.724.3 1.884-.446 3.107-1.239 1.496-.968 3.181-2.061 5.07-1.8 1.37.198 2.473 1.022 3.541 1.818.419.313.818.612 1.225.867a2.647 2.647 0 0 0 2.863.01c.413-.258.818-.557 1.246-.88 1.054-.788 2.146-1.604 3.5-1.81 1.285-.195 2.488.314 3.6 1.01.545.34 1.068.727 1.567 1.095l.057.043c.555.41 1.952 1.315 2.973.892.608-.25 1.209-.708 1.847-1.191.733-.557 1.494-1.131 2.398-1.514 2.011-.845 3.893.382 5.55 1.455 1.161.755 2.367 1.53 3.278 1.403.707-.101 1.499-.695 2.34-1.323.444-.331.903-.673 1.4-.986a5.287 5.287 0 0 1 5.638-.014l-1.384 2.222c-.893-.557-1.963-.554-2.862.01-.406.254-.804.551-1.227.865-1.066.798-2.17 1.622-3.534 1.82-.197.027-.391.038-.584.038-1.656 0-3.153-.97-4.489-1.838z"/><path fill="#000" d="M320.028 237.002h17.216v-2.653h-17.216m-12.618 2.653h5.637v-2.653h-5.638m231.237-47.176c-16.396-16.4-32.331-19.564-55.519-19.564-23.19 0-39.12 3.165-55.518 19.565l-1.878-1.875c16.9-16.902 33.5-20.341 57.396-20.341 23.898 0 40.496 3.439 57.394 20.341zm-300.604-67.234h5.635v-5.802h-5.635zm-2.652 2.656h10.94V111.49h-10.94v11.105zM692.61 517.599h21.879v-2.65h-21.879m27.846 2.65h5.966v-2.65h-5.966m-21.88-5.965h13.26v-2.653h-13.26m18.565 2.653h15.248v-2.653H717.14m-15.91 18.893h9.281v-2.653h-9.28m21.548 2.653h10.04v-2.653h-10.04M163.427 55.521c-1.224-.795-2.383-1.546-3.112-1.238-.6.255-1.198.706-1.831 1.184-.741.564-1.508 1.144-2.423 1.525-1.611.667-3.574.24-5.529-1.205l-.057-.039c-1.165-.862-2.363-1.748-3.227-1.623-.7.105-1.488.694-2.324 1.317a20.69 20.69 0 0 1-1.427 1.005 5.284 5.284 0 0 1-5.637-.015 20.593 20.593 0 0 1-1.4-.988c-.842-.626-1.637-1.22-2.343-1.323-.91-.127-2.116.65-3.279 1.402-1.658 1.08-3.54 2.299-5.545 1.458-.907-.382-1.665-.959-2.4-1.514-.638-.483-1.24-.941-1.845-1.191-1.017-.423-2.42.483-2.973.89l-.055.04c-1.522 1.125-3.252 2.385-5.168 2.108-1.355-.205-2.448-1.02-3.506-1.812-.426-.319-.829-.621-1.242-.877l1.384-2.222c.507.317.973.665 1.426 1.004.834.622 1.624 1.213 2.328 1.318.87.137 2.061-.764 3.225-1.623l.055-.042c1.956-1.444 3.917-1.87 5.53-1.203.915.381 1.681.961 2.424 1.526.633.477 1.23.929 1.833 1.186.724.3 1.884-.446 3.107-1.24 1.496-.967 3.181-2.06 5.07-1.799 1.37.198 2.473 1.021 3.541 1.817.419.313.818.613 1.225.868a2.647 2.647 0 0 0 2.863.01c.413-.258.818-.558 1.246-.88 1.054-.789 2.146-1.604 3.5-1.81 1.285-.195 2.488.313 3.6 1.01.544.34 1.068.726 1.567 1.095l.057.043c.555.409 1.952 1.314 2.973.892.608-.25 1.209-.708 1.846-1.191.734-.558 1.495-1.132 2.4-1.514 2.01-.845 3.892.381 5.55 1.455 1.16.755 2.366 1.53 3.277 1.402.706-.1 1.499-.694 2.34-1.323.444-.33.903-.673 1.4-.986a5.287 5.287 0 0 1 5.638-.013l-1.384 2.222c-.893-.558-1.964-.554-2.862.01-.406.254-.804.551-1.227.865-1.066.798-2.17 1.621-3.534 1.819-.198.027-.391.039-.584.039-1.656 0-3.153-.971-4.489-1.839z"/><path stroke="#1393d9" stroke-width="2.934" d="M125.068 32.95l-1.107-1.754a17.63 17.63 0 0 0-2.47-3.1 17.585 17.585 0 0 0-3.094-2.47l-1.757-1.107 1.756-1.109a17.678 17.678 0 0 0 5.566-5.567l1.107-1.758 1.107 1.758a17.749 17.749 0 0 0 2.468 3.097c.93.929 1.971 1.76 3.097 2.47l1.755 1.108-1.755 1.105a17.988 17.988 0 0 0-3.097 2.472 17.76 17.76 0 0 0-2.468 3.1l-1.107 1.754z"/><g fill="#000"><path d="M112.602 95.513v6.921m-1.325 0h2.65V95.51h-2.65m4.784 3.46h-6.92"/><path d="M109.14 100.3h6.921v-2.653h-6.92"/></g><path fill="#0c8fd7" d="M271.002 572.854h2.543v-2.543h-2.543m597.571-49.791h2.543v-2.543h-2.543"/><path fill="#000" d="M64.07 131.282h-6.922m0-1.326v2.65h6.922v-2.65m4.812 2.652H87.54v-2.652H68.882m410.953-54.248h5.635v-5.8h-5.635v5.801zm-2.649 2.653h10.939V67.255h-10.939z"/></g></svg>