<svg width="702" height="729" viewBox="0 0 702 729" xmlns="http://www.w3.org/2000/svg"><title>Group 2</title><g fill="none" fill-rule="evenodd"><path fill="#000" d="M508.7 686.146h22.372v-2.71H508.7M537.174 686.146h6.1v-2.71h-6.1M514.8 677.336h13.56v-2.712H514.8M555.138 677.336h5.084v-2.712h-5.084M533.784 677.336h15.592v-2.712h-15.592M517.516 693.942h9.49v-2.712h-9.49M539.55 693.942h16.267v-2.712H539.55"/><path fill="#0C8FD7" d="M244.985 336.278h9.49v-2.712h-9.49M295.153 336.278h4.744v-2.712h-4.744M260.242 336.278h26.098v-2.712h-26.098"/><path fill="#000" d="M289.752 343.738h17.604v-2.712h-17.604M276.85 343.738h5.764v-2.712h-5.765"/><path fill="#0C8FD7" d="M269.733 329.16h7.116v-2.71h-7.117"/><path fill="#000" d="M258.545 193.213h22.373V190.5h-22.373"/><path fill="#0C8FD7" d="M301.933 193.213h16.61V190.5h-16.61"/><path fill="#000" d="M287.02 193.213h6.1V190.5h-6.1"/><path fill="#0C8FD7" d="M264.646 184.4h13.56v-2.713h-13.56"/><path fill="#000" d="M304.984 184.4h5.086v-2.713h-5.086M283.63 184.4h15.592v-2.713H283.63"/><path fill="#0C8FD7" d="M267.358 201.012h9.49v-2.71h-9.49M289.39 201.012h16.272v-2.71h-16.27"/><path fill="#000" d="M531.072 204.74h13.557v-2.713H531.07M516.155 204.74h8.137v-2.713h-8.137"/><path fill="#0C8FD7" d="M494.125 197.282h24.745v-2.71h-24.745M537.852 197.282h11.864v-2.71h-11.864M526.325 197.282h6.1v-2.71h-6.1M529.04 189.483h13.217v-2.712H529.04"/><path d="M331.083 294.58h-2.71v-40.564c0-4.553-3.705-8.254-8.254-8.254h-62.137c-6.044 0-10.965-4.922-10.965-10.966V191.97h2.715v42.826c0 4.55 3.7 8.254 8.25 8.254h62.136c6.046 0 10.963 4.918 10.963 10.966v40.564zM517.514 299.89h-2.712v-50.283c0-6.045 4.918-10.966 10.965-10.966h46.543c4.55 0 8.253-3.7 8.253-8.25v-33.108h2.71v33.108c0 6.045-4.92 10.966-10.963 10.966h-46.543c-4.553 0-8.253 3.7-8.253 8.25v50.285z" fill="#000"/><path d="M421.512 367.585c0-.06.028-.12.08-.155l53.97-38.167c.03-.025.078 0 .078.04v56.47c0 .06-.03.12-.08.155l-53.97 38.167c-.032.025-.078 0-.078-.04v-56.47z" fill="#FFF"/><path d="M422.868 368.188v53.343l51.417-36.36v-53.347l-51.417 36.365zm-1.304 57.27c-.776 0-1.408-.627-1.408-1.407v-56.465c0-.502.246-.975.654-1.264l54.32-38.415.458-.01c.776 0 1.408.632 1.408 1.408v56.47c0 .498-.242.97-.65 1.26l-54.323 38.42-.46.006z" fill="#000"/><path d="M421.49 367.585c0-.06-.03-.12-.08-.155l-53.97-38.167c-.032-.025-.08 0-.08.04v56.47c0 .06.03.12.08.155l53.97 38.167c.033.025.08 0 .08-.04v-56.47z" fill="#FFF"/><path d="M368.717 385.17l51.417 36.364v-53.346l-51.417-36.365v53.346zm52.72 40.293H421l-.382-.268-53.96-38.16c-.407-.288-.653-.76-.653-1.263v-56.47c0-.776.632-1.404 1.408-1.404h.426l.378.253 53.974 38.17c.408.29.653.763.653 1.265v57.044l-.827.818-.58.015z" fill="#000"/><path fill="#FFF" d="M475.56 329.25l-53.966-38.166h-.184l-53.97 38.167v.012l53.97 38.166h.184l53.966-38.166"/><path d="M369.782 329.257l51.72 36.578 51.717-36.578L421.5 292.68l-51.72 36.577zm52.24 39.528h-1.043l-54.895-38.82v-1.405l.574-.415 54.32-38.416h1.042l54.894 38.82v1.404l-.574.415-54.32 38.415z" fill="#000"/><path d="M421.512 292.907c0-.062.028-.12.08-.156l53.97-38.165c.03-.025.078 0 .078.04v56.47c0 .06-.03.12-.08.155l-53.97 38.166c-.032.026-.078 0-.078-.043v-56.466z" fill="#F2F2F2"/><path d="M422.868 293.51v53.343l51.417-36.362v-53.345l-51.417 36.365zm-1.304 57.27c-.776 0-1.408-.627-1.408-1.407v-56.466c0-.502.246-.975.654-1.264l54.32-38.416.458-.01c.776 0 1.408.63 1.408 1.408v56.47c0 .498-.242.97-.65 1.26l-54.323 38.42-.46.006z" fill="#000"/><path d="M421.49 292.907c0-.062-.03-.12-.08-.156l-53.97-38.165c-.032-.025-.08 0-.08.04v56.47c0 .06.03.12.08.155l53.97 38.166c.033.026.08 0 .08-.043v-56.466z" fill="#F2F2F2"/><path d="M368.717 310.49l51.417 36.366V293.51l-51.417-36.365v53.346zm52.72 40.29h-.426l-.378-.252-53.973-38.17c-.41-.29-.655-.762-.655-1.264v-56.47c0-.776.632-1.404 1.408-1.404h.426l.378.252 53.974 38.17c.408.29.653.762.653 1.264v57.052l-.83.812-.578.01z" fill="#000"/><path fill="#FFF" d="M475.56 254.573l-53.966-38.167h-.184l-53.97 38.167v.01l53.97 38.167h.184l53.966-38.167"/><path d="M369.782 254.58l51.72 36.577 51.717-36.578L421.5 218l-51.72 36.58zm52.24 39.527h-1.043l-54.895-38.82v-1.405l.574-.415 54.32-38.416h1.042l54.894 38.82v1.406l-.574.415-54.32 38.417z" fill="#000"/><path d="M357.922 414.404c0-.06.028-.12.08-.155l53.97-38.168c.03-.025.078 0 .078.04v56.47c0 .06-.03.12-.08.155L358 470.914c-.032.025-.078 0-.078-.04v-56.47z" fill="#FFF"/><path d="M359.278 415.007v53.346l51.417-36.364v-53.344l-51.417 36.36zm-1.304 57.27c-.776 0-1.408-.627-1.408-1.403v-56.47c0-.502.246-.975.654-1.264l54.32-38.416.458-.01c.776 0 1.408.63 1.408 1.408v56.47c0 .5-.245.974-.653 1.263l-54.32 38.416-.46.008z" fill="#000"/><path d="M357.9 414.404c0-.06-.03-.12-.08-.155l-53.97-38.168c-.032-.025-.08 0-.08.04v56.47c0 .06.03.12.08.155l53.97 38.167c.033.025.08 0 .08-.04v-56.47z" fill="#FFF"/><path d="M305.127 431.988l51.417 36.365v-53.347l-51.417-36.36v53.342zm52.72 40.294h-.426l-.378-.257-53.973-38.17c-.413-.292-.655-.765-.655-1.264v-56.465c0-.776.632-1.408 1.408-1.408h.437l.386.267 53.956 38.156c.408.288.653.762.653 1.263v57.055l-.83.81-.578.014z" fill="#000"/><path fill="#F2F2F2" d="M411.97 376.07l-53.966-38.166h-.184l-53.97 38.166v.01l53.97 38.168h.184l53.966-38.167"/><path d="M306.19 376.076l51.722 36.578 51.717-36.578-51.718-36.578-51.72 36.578zm52.242 39.528h-1.044l-54.894-38.82v-1.405l.574-.416 54.32-38.416h1.044l54.894 38.82v1.405l-.574.415-54.32 38.416z" fill="#000"/><path d="M487.668 414.404c0-.06.03-.12.08-.155l53.97-38.168c.03-.025.078 0 .078.04v56.47c0 .06-.03.12-.08.155l-53.97 38.167c-.03.025-.078 0-.078-.04v-56.47z" fill="#FFF"/><path d="M489.024 415.007v53.346l51.417-36.364v-53.344l-51.416 36.36zm-1.304 57.27c-.776 0-1.408-.627-1.408-1.403v-56.47c0-.502.246-.975.654-1.264l54.32-38.416.458-.01c.776 0 1.408.63 1.408 1.408v56.47c0 .5-.245.974-.653 1.263l-54.32 38.416-.46.008z" fill="#000"/><path d="M487.646 414.404c0-.06-.03-.12-.08-.155l-53.97-38.168c-.032-.025-.08 0-.08.04v56.47c0 .06.03.12.08.155l53.97 38.167c.033.025.08 0 .08-.04v-56.47z" fill="#FFF"/><path d="M434.872 431.988l51.418 36.365v-53.347l-51.418-36.36v53.342zm52.72 40.294h-.43l-.378-.26-53.97-38.167c-.41-.292-.653-.765-.653-1.264v-56.465c0-.776.633-1.408 1.41-1.408h.44l.382.267 53.955 38.156c.412.288.654.762.654 1.263v57.055l-.833.81-.574.014z" fill="#000"/><path fill="#F2F2F2" d="M541.716 376.07l-53.97-38.166h-.18l-53.97 38.166v.01l53.97 38.168h.18l53.97-38.167"/><path d="M435.937 376.076l51.72 36.578 51.717-36.578-51.716-36.578-51.72 36.578zm52.244 39.528h-1.046l-54.894-38.82v-1.405l.574-.416 54.32-38.416h1.047l54.89 38.82v1.405l-.573.415-54.316 38.416z" fill="#000"/><path d="M357.922 339.726c0-.06.028-.12.08-.155l53.97-38.166c.03-.025.078 0 .078.04v56.47c0 .06-.03.12-.08.155L358 396.234c-.032.026-.078 0-.078-.04v-56.47z" fill="#F2F2F2"/><path d="M359.278 340.33v53.34l51.417-36.36v-53.346l-51.417 36.365zm-1.304 57.27c-.776 0-1.408-.632-1.408-1.405v-56.47c0-.5.246-.974.654-1.263l54.32-38.416.458-.007c.776 0 1.408.627 1.408 1.403v56.47c0 .502-.245.975-.653 1.264l-54.32 38.416-.46.007z" fill="#000"/><path d="M357.9 339.726c0-.06-.03-.12-.08-.155l-53.97-38.166c-.032-.025-.08 0-.08.04v56.47c0 .06.03.12.08.155l53.97 38.165c.033.026.08 0 .08-.04v-56.47z" fill="#FFF"/><path d="M305.127 357.31l51.417 36.365v-53.347l-51.417-36.36v53.342zm52.72 40.293h-.437l-.382-.267-53.96-38.16c-.41-.292-.653-.76-.653-1.263v-56.466c0-.777.632-1.41 1.408-1.41h.43l.38.258 53.97 38.166c.407.29.652.763.652 1.265v57.048l-.827.816-.58.013z" fill="#000"/><path fill="#FFF" d="M411.97 301.392l-53.966-38.167h-.184l-53.97 38.167v.01l53.97 38.167h.184l53.966-38.167"/><path d="M306.19 301.398l51.722 36.577 51.717-36.577-51.718-36.578-51.72 36.578zm52.242 39.527h-1.044l-54.894-38.82V300.7l.574-.415 54.32-38.415h1.044l54.894 38.82v1.404l-.574.416-54.32 38.415z" fill="#000"/><path d="M487.668 339.726c0-.06.03-.12.08-.155l53.97-38.166c.03-.025.078 0 .078.04v56.47c0 .06-.03.12-.08.155l-53.97 38.165c-.03.026-.078 0-.078-.04v-56.47z" fill="#FFF"/><path d="M489.024 340.33v53.34l51.417-36.36v-53.346l-51.416 36.365zm-1.304 57.27c-.776 0-1.408-.632-1.408-1.405v-56.47c0-.5.246-.974.654-1.263l54.32-38.416.458-.007c.776 0 1.408.627 1.408 1.403v56.47c0 .502-.245.975-.653 1.264l-54.32 38.416-.46.007z" fill="#000"/><path d="M487.646 339.726c0-.06-.03-.12-.08-.155l-53.97-38.166c-.032-.025-.08 0-.08.04v56.47c0 .06.03.12.08.155l53.97 38.165c.033.026.08 0 .08-.04v-56.47z" fill="#F2F2F2"/><path d="M434.872 357.31l51.418 36.365v-53.347l-51.418-36.365v53.347zm52.72 40.293h-.436l-.386-.27-53.955-38.156c-.412-.293-.654-.766-.654-1.264v-56.466c0-.777.633-1.41 1.41-1.41h.43l.38.258 53.967 38.166c.412.29.654.763.654 1.265v57.048l-.826.816-.58.013z" fill="#000"/><path fill="#FFF" d="M541.716 301.392l-53.97-38.167h-.18l-53.97 38.167v.01l53.97 38.167h.18l53.97-38.167"/><path d="M435.937 301.398l51.72 36.577 51.717-36.577-51.716-36.578-51.72 36.578zm52.244 39.527h-1.046l-54.894-38.82V300.7l.574-.415 54.32-38.415h1.047l54.89 38.82v1.404l-.573.416-54.316 38.415z" fill="#000"/><path d="M421.512 463.544c0-.062.028-.12.08-.156l53.97-38.166c.03-.025.078 0 .078.04v56.47c0 .06-.03.12-.08.155l-53.97 38.166c-.032.026-.078 0-.078-.04v-56.47z" fill="#FFF"/><path d="M422.868 464.146v53.346l51.417-36.364v-53.343l-51.417 36.36zm-1.304 57.275c-.776 0-1.408-.63-1.408-1.407v-56.47c0-.502.246-.975.654-1.264l54.32-38.417.462-.007c.772 0 1.404.632 1.404 1.405v56.47c0 .5-.242.972-.65 1.26l-54.323 38.42-.46.01z" fill="#000"/><path d="M421.49 463.544c0-.062-.03-.12-.08-.156l-53.97-38.166c-.032-.025-.08 0-.08.04v56.47c0 .06.03.12.08.155l53.97 38.166c.033.026.08 0 .08-.04v-56.47z" fill="#FFF"/><path d="M368.717 481.128l51.417 36.364v-53.346l-51.417-36.36v53.342zm52.72 40.293h-.426l-.378-.255-53.973-38.17c-.41-.29-.655-.762-.655-1.264v-56.47c0-.772.632-1.404 1.408-1.404h.426l.378.253 53.974 38.17c.408.288.653.76.653 1.263v57.05l-.83.814-.578.014z" fill="#000"/><path fill="#F2F2F2" d="M475.56 425.21l-53.966-38.167h-.184l-53.97 38.167v.01l53.97 38.167h.184l53.966-38.167"/><path d="M369.782 425.216l51.72 36.577 51.717-36.577-51.718-36.578-51.72 36.578zm52.24 39.528h-1.043l-54.895-38.82v-1.405l.574-.416 54.32-38.416h1.042l54.894 38.82v1.405l-.574.415-54.32 38.416z" fill="#000"/><path d="M421.512 388.865c0-.06.028-.12.08-.155l53.97-38.167c.03-.025.078 0 .078.04v56.47c0 .06-.03.12-.08.155l-53.97 38.167c-.032.025-.078 0-.078-.04v-56.47z" fill="#FFF"/><path d="M422.868 389.468v53.347l51.417-36.365v-53.347l-51.417 36.365zm-1.304 57.272c-.776 0-1.408-.632-1.408-1.41v-56.465c0-.502.246-.975.654-1.264l54.32-38.414.462-.01c.772 0 1.404.63 1.404 1.407v56.47c0 .498-.242.97-.65 1.26l-54.323 38.42-.46.007z" fill="#000"/><path d="M421.49 388.865c0-.06-.03-.12-.08-.155l-53.97-38.167c-.032-.025-.08 0-.08.04v56.47c0 .06.03.12.08.155l53.97 38.167c.033.025.08 0 .08-.04v-56.47z" fill="#FFF"/><path d="M368.717 406.45l51.417 36.364v-53.346l-51.417-36.36v53.34zm52.72 40.293h-.426l-.378-.257-53.973-38.17c-.41-.29-.655-.762-.655-1.264v-56.47c0-.772.632-1.404 1.408-1.404h.437l.383.264 53.96 38.16c.407.288.652.76.652 1.263v57.047l-.827.813-.58.018z" fill="#000"/><path fill="#FFF" d="M475.56 350.53l-53.966-38.165h-.184l-53.97 38.166v.012l53.97 38.167h.184l53.966-38.168"/><path d="M369.782 350.537l51.72 36.578 51.717-36.578L421.5 313.96l-51.72 36.577zm52.24 39.528h-1.043l-54.895-38.82v-1.405l.574-.415 54.32-38.416h1.042l54.894 38.82v1.404l-.574.415-54.32 38.415zM617.51 531.33h-2.713v-24.97c0-4.553-3.704-8.254-8.253-8.254h-80.78c-6.043 0-10.963-4.922-10.963-10.967v-58.42h2.715v58.42c0 4.55 3.7 8.254 8.25 8.254h80.78c6.047 0 10.964 4.918 10.964 10.966v24.97zM318.763 483.414h-108.91c-6.048 0-10.965-4.918-10.965-10.966V414.93h2.71v57.518c0 4.55 3.702 8.254 8.254 8.254h108.91c4.55 0 8.254-3.704 8.254-8.254v-44.634h2.71v44.634c0 6.048-4.916 10.966-10.963 10.966M288.256 562.066h-35.814v-2.71h35.814c4.55 0 8.253-3.706 8.253-8.256v-18.75c0-6.045 4.916-10.967 10.964-10.967h76.71c4.55 0 8.253-3.7 8.253-8.25v-34.466h2.712v34.465c0 6.045-4.922 10.963-10.966 10.963h-76.71c-4.553 0-8.253 3.705-8.253 8.254v18.75c0 6.048-4.917 10.966-10.964 10.966M451.16 600.915l-2.71-.004.025-16.58c.01-6.044 4.936-10.962 10.983-10.962h11.816c2.85 0 5.17-2.32 5.17-5.17s-2.32-5.172-5.17-5.172h-42.88c-4.346 0-7.88-3.535-7.88-7.882 0-4.344 3.534-7.883 7.88-7.883h11.846c2.206 0 4.28-.854 5.835-2.414 1.556-1.557 2.41-3.63 2.41-5.835l-.035-62.15 2.71-.003.038 62.15c.003 2.932-1.138 5.687-3.206 7.756-2.07 2.073-4.824 3.214-7.752 3.214h-11.845c-2.852 0-5.17 2.318-5.17 5.167 0 2.852 2.318 5.17 5.17 5.17h42.88c4.342 0 7.88 3.535 7.88 7.883 0 4.347-3.538 7.882-7.88 7.882h-11.817c-4.553 0-8.264 3.704-8.27 8.254l-.027 16.58z" fill="#000"/><path d="M274.618 282.36l-1.132-1.793c-.727-1.157-1.575-2.222-2.525-3.17-.946-.95-2.01-1.8-3.164-2.526L266 273.74l1.796-1.134c1.15-.727 2.218-1.576 3.165-2.526.95-.948 1.8-2.013 2.526-3.167l1.132-1.797 1.132 1.797c.726 1.152 1.575 2.22 2.524 3.167.95.95 2.015 1.8 3.166 2.526l1.795 1.133-1.795 1.13c-1.15.728-2.216 1.577-3.166 2.527-.95.95-1.798 2.016-2.524 3.17l-1.132 1.794zM507.618 230.36l-1.132-1.793c-.727-1.157-1.575-2.222-2.525-3.17-.946-.95-2.01-1.8-3.164-2.526L499 221.74l1.796-1.134c1.15-.727 2.218-1.576 3.165-2.526.95-.948 1.8-2.013 2.526-3.167l1.132-1.797 1.132 1.797c.726 1.152 1.575 2.22 2.524 3.167.95.95 2.015 1.8 3.166 2.526l1.795 1.133-1.795 1.13c-1.15.728-2.216 1.577-3.166 2.527-.95.95-1.798 2.016-2.524 3.17l-1.132 1.794zM320.677 578.36l-1.46-2.313c-.937-1.492-2.032-2.866-3.256-4.09-1.22-1.224-2.594-2.32-4.082-3.258l-2.317-1.46 2.318-1.462c1.484-.938 2.86-2.033 4.083-3.26 1.225-1.22 2.32-2.595 3.258-4.084l1.46-2.318 1.46 2.318c.936 1.485 2.03 2.863 3.256 4.085 1.225 1.225 2.598 2.32 4.083 3.258l2.317 1.46-2.317 1.46c-1.485.94-2.858 2.035-4.083 3.26-1.225 1.226-2.32 2.6-3.257 4.09l-1.46 2.313z" stroke="#1393D9" stroke-width="3"/><path fill="#FFF" d="M225.64 206.37h45.74v-30.99h-45.74"/><path d="M226.995 205.013h43.027v-28.28h-43.027v28.28zm-2.71 2.712h48.448V174.02h-48.45v33.705z" fill="#000"/><path d="M246.192 175.378v-7.594c0-.928-.75-1.68-1.675-1.68h-9.893c-.927 0-1.678.752-1.678 1.68v7.594h13.246z" fill="#FFF"/><path d="M234.302 174.022h10.535v-6.24c0-.177-.145-.318-.322-.318h-9.892c-.177 0-.32.14-.32.318v6.24zm13.246 2.71H231.59v-8.95c0-1.672 1.362-3.033 3.033-3.033h9.892c1.672 0 3.033 1.36 3.033 3.032v8.95zM484.788 298.786c-16.766-16.77-39.06-26.005-62.77-26.005-23.714 0-46.003 9.237-62.77 26.006l-1.92-1.917c17.28-17.283 40.254-26.8 64.69-26.8s47.408 9.517 64.687 26.8l-1.917 1.916z" fill="#000"/><path d="M480.533 292.775c2.924-2.925 7.66-2.925 10.585 0 2.925 2.924 2.925 7.662 0 10.587-2.924 2.924-7.66 2.924-10.585 0-2.924-2.925-2.924-7.663 0-10.587" fill="#FFF"/><path d="M485.826 291.938c-1.636 0-3.177.64-4.333 1.794-1.158 1.16-1.798 2.697-1.798 4.337 0 1.634.64 3.176 1.798 4.332 1.156 1.16 2.697 1.798 4.333 1.798 1.635 0 3.177-.64 4.336-1.798 1.155-1.156 1.794-2.698 1.794-4.333 0-1.64-.64-3.18-1.794-4.338-1.16-1.155-2.7-1.794-4.336-1.794m0 14.974c-2.36 0-4.582-.92-6.253-2.593-1.668-1.67-2.59-3.89-2.59-6.25 0-2.363.922-4.583 2.59-6.255 1.67-1.668 3.892-2.59 6.253-2.59 2.36 0 4.58.922 6.253 2.59 1.667 1.672 2.587 3.892 2.587 6.254 0 2.36-.92 4.58-2.588 6.25-1.673 1.67-3.893 2.592-6.254 2.592" fill="#000"/><path d="M352.7 292.543c2.924-2.925 7.66-2.925 10.585 0 2.924 2.924 2.924 7.662 0 10.587-2.924 2.924-7.66 2.924-10.585 0-2.925-2.925-2.925-7.663 0-10.587" fill="#FFF"/><path d="M357.993 291.706c-1.636 0-3.177.64-4.336 1.795-2.39 2.39-2.39 6.28 0 8.67 1.16 1.16 2.7 1.795 4.336 1.795 1.635 0 3.177-.635 4.336-1.794 2.385-2.39 2.39-6.28 0-8.67-1.16-1.154-2.702-1.794-4.337-1.794m0 14.975c-2.36 0-4.582-.92-6.253-2.592-3.444-3.445-3.444-9.056 0-12.504 1.67-1.67 3.892-2.59 6.253-2.59 2.36 0 4.58.92 6.253 2.59 3.444 3.448 3.444 9.06 0 12.504-1.672 1.672-3.892 2.593-6.253 2.593" fill="#000"/><path d="M322.87 420.014c2.925-2.925 7.662-2.925 10.586 0 2.924 2.925 2.924 7.662 0 10.587-2.924 2.926-7.66 2.926-10.585 0-2.924-2.924-2.924-7.66 0-10.586" fill="#FFF"/><path d="M328.164 419.178c-1.636 0-3.177.64-4.336 1.794-2.39 2.39-2.39 6.28 0 8.67 1.16 1.16 2.7 1.794 4.336 1.794 1.64 0 3.177-.635 4.336-1.794 2.39-2.39 2.39-6.28 0-8.67-1.16-1.155-2.697-1.794-4.336-1.794m0 14.974c-2.36 0-4.582-.92-6.253-2.593-3.444-3.45-3.444-9.057 0-12.505 1.672-1.668 3.893-2.59 6.254-2.59 2.36 0 4.58.922 6.253 2.59 3.447 3.448 3.447 9.056 0 12.504-1.672 1.67-3.892 2.592-6.253 2.592" fill="#000"/><path d="M388.63 469.34c2.924-2.924 7.66-2.924 10.585 0 2.925 2.926 2.925 7.667 0 10.588-2.924 2.925-7.66 2.925-10.585 0-2.924-2.92-2.924-7.662 0-10.587" fill="#FFF"/><path d="M393.923 468.505c-1.64 0-3.177.64-4.336 1.795-2.387 2.39-2.387 6.28 0 8.67 1.16 1.158 2.697 1.794 4.336 1.794 1.635 0 3.177-.636 4.336-1.795 2.385-2.39 2.39-6.28 0-8.67-1.16-1.156-2.702-1.795-4.337-1.795m0 14.974c-2.36 0-4.582-.922-6.253-2.593-3.444-3.445-3.444-9.056 0-12.505 1.67-1.668 3.892-2.59 6.253-2.59 2.36 0 4.58.922 6.253 2.59 3.444 3.45 3.444 9.06 0 12.505-1.672 1.67-3.892 2.592-6.253 2.592" fill="#000"/><path d="M444.39 469.34c2.924-2.924 7.66-2.924 10.585 0 2.924 2.926 2.924 7.667 0 10.588-2.924 2.925-7.66 2.925-10.585 0-2.925-2.92-2.925-7.662 0-10.587" fill="#FFF"/><path d="M449.682 468.505c-1.64 0-3.177.64-4.336 1.795-2.386 2.39-2.386 6.28 0 8.67 1.16 1.158 2.697 1.794 4.336 1.794 1.64 0 3.177-.636 4.336-1.795 2.39-2.39 2.39-6.28 0-8.67-1.16-1.156-2.697-1.795-4.336-1.795m0 14.974c-2.36 0-4.58-.922-6.253-2.593-3.445-3.445-3.445-9.056 0-12.505 1.67-1.668 3.89-2.59 6.252-2.59 2.36 0 4.582.922 6.253 2.59 3.444 3.45 3.444 9.06 0 12.505-1.67 1.67-3.892 2.592-6.253 2.592" fill="#000"/><path d="M510.827 420.86c2.924-2.923 7.66-2.923 10.585 0 2.924 2.926 2.924 7.664 0 10.588-2.924 2.925-7.66 2.925-10.585 0-2.925-2.924-2.925-7.662 0-10.587" fill="#FFF"/><path d="M516.12 420.025c-1.64 0-3.178.64-4.337 1.795-2.386 2.39-2.386 6.28.004 8.67 1.155 1.158 2.693 1.794 4.332 1.794 1.635 0 3.176-.636 4.335-1.795 2.39-2.39 2.39-6.28 0-8.67-1.16-1.156-2.7-1.795-4.336-1.795m0 14.974c-2.362 0-4.582-.92-6.254-2.593-3.444-3.445-3.444-9.056 0-12.505 1.672-1.668 3.892-2.59 6.253-2.59 2.36 0 4.58.922 6.252 2.59 3.445 3.45 3.445 9.06 0 12.505-1.67 1.672-3.892 2.592-6.253 2.592" fill="#000"/><path fill="#FFF" d="M256.003 564.95h8.474v-8.646h-8.474"/><path d="M257.357 563.59h5.762v-5.932h-5.763v5.933zm-2.708 2.713h11.184v-11.356H254.65v11.356z" fill="#000"/><path fill="#FFF" d="M445.654 593.763h8.473v-8.644h-8.473"/><path d="M447.008 592.41h5.76v-5.934h-5.76v5.933zm-2.708 2.71h11.184v-11.355H444.3v11.356z" fill="#000"/><path fill="#FFF" d="M611.747 525.284h8.473v-8.645h-8.473"/><path d="M613.1 523.926h5.763v-5.933H613.1v5.933zm-2.71 2.712h11.184v-11.356H610.39v11.356z" fill="#000"/><path fill="#FFF" d="M577.51 219.825h8.474v-8.645h-8.473"/><path d="M578.865 218.47h5.762v-5.932h-5.762v5.933zm-2.708 2.712h11.185v-11.356h-11.185v11.356z" fill="#000"/><path fill="#FFF" d="M196.008 440.866h8.473v-8.645h-8.472"/><path d="M197.362 439.512h5.762v-5.933h-5.762v5.932zm-2.71 2.71h11.183v-11.355H194.65v11.356zM559.767 350.35h-45.984v-2.713h45.984c4.55 0 8.253-3.704 8.253-8.254v-4.51c0-6.048 4.917-10.966 10.964-10.966h70.047v2.712h-70.046c-4.552 0-8.253 3.7-8.253 8.253v4.51c0 6.048-4.916 10.966-10.963 10.966" fill="#000"/><path d="M246.903 431.364c0 2.477-2.007 4.485-4.484 4.485H5.84c-2.478 0-4.485-2.01-4.485-4.486V278.98c0-2.474 2.007-4.482 4.484-4.482h236.58c2.476 0 4.483 2.008 4.483 4.48v152.386z" fill="#FFF"/><path d="M5.84 275.853c-1.726 0-3.127 1.404-3.127 3.127v152.384c0 1.726 1.4 3.127 3.126 3.127h236.58c1.725 0 3.126-1.4 3.126-3.126V278.98c0-1.723-1.4-3.127-3.127-3.127H5.84zm236.58 161.35H5.84c-3.22 0-5.84-2.618-5.84-5.84V278.98c0-3.218 2.62-5.84 5.84-5.84h236.58c3.22 0 5.837 2.622 5.837 5.84v152.384c0 3.22-2.617 5.84-5.838 5.84z" fill="#000"/><path d="M11.156 423.245h225.95V283.448H11.157v139.797zm-2.715 2.712h231.375v-145.22H8.44v145.22z" fill="#000"/><path d="M125.183 278.336c0 .58-.472 1.054-1.054 1.054-.582 0-1.055-.473-1.055-1.054 0-.582.473-1.055 1.054-1.055.58 0 1.053.474 1.053 1.056" fill="#FFF"/><path d="M124.13 278.033c-.167 0-.304.137-.304.304 0 .166.137.3.303.3.165 0 .303-.134.303-.3 0-.167-.138-.304-.304-.304m0 2.712c-1.33 0-2.41-1.08-2.41-2.408 0-1.33 1.08-2.412 2.41-2.412 1.328 0 2.407 1.083 2.407 2.412 0 1.328-1.08 2.408-2.408 2.408" fill="#000"/><path d="M125.645 430.194c0 .838-.68 1.517-1.517 1.517-.834 0-1.513-.678-1.513-1.516s.68-1.517 1.513-1.517c.838 0 1.517.68 1.517 1.517" fill="#FFF"/><path d="M124.13 430.035c-.087 0-.16.072-.16.16 0 .172.318.172.318 0 0-.088-.072-.16-.16-.16m0 3.03c-1.58 0-2.87-1.29-2.87-2.87 0-1.586 1.29-2.872 2.87-2.872 1.586 0 2.87 1.286 2.87 2.87 0 1.583-1.284 2.872-2.87 2.872" fill="#000"/><path fill="#FFF" d="M80.747 461.97h86.765v-5.614H80.747"/><path d="M82.1 460.617h84.055v-2.903H82.1v2.903zm-2.71 2.712h89.48V455H79.39v8.327z" fill="#000"/><path fill="#FFF" d="M153.774 456.358l-4-20.51H98.487l-4.004 20.51"/><path d="M96.13 455.002h56l-3.474-17.798H99.604l-3.473 17.798zm59.292 2.712H92.838l4.53-23.222h53.523l4.532 23.222zM88.916 388.063L63.673 360.4 38.43 388.063l-2.004-1.83 27.247-29.855 27.246 29.854" fill="#000"/><path fill="#FFF" d="M52.392 359.033h22.56V336.47h-22.56"/><path d="M53.75 357.676H73.6v-19.853H53.75v19.853zm-2.715 2.71H76.31v-25.274H51.035v25.275z" fill="#000"/><path fill="#FFF" d="M27.09 409.79h22.562v-22.563h-22.56"/><path d="M28.445 408.437h19.85v-19.853h-19.85v19.853zm-2.71 2.712h25.274v-25.28H25.733v25.28z" fill="#000"/><path fill="#FFF" d="M77.696 409.79h22.56v-22.563h-22.56"/><path d="M79.05 408.437H98.9v-19.853H79.05v19.853zm-2.71 2.712h25.27v-25.28H76.34v25.28z" fill="#000"/><path d="M85.524 398.51c0-1.9 1.538-3.438 3.437-3.438 1.9 0 3.438 1.538 3.438 3.438 0 1.9-1.538 3.437-3.437 3.437-1.898 0-3.436-1.538-3.436-3.437" fill="#FFF"/><path d="M88.962 396.427c-1.148 0-2.083.935-2.083 2.084 0 1.15.934 2.08 2.082 2.08 1.148 0 2.083-.93 2.083-2.08 0-1.148-.935-2.083-2.083-2.083m0 6.88c-2.643 0-4.794-2.153-4.794-4.796 0-2.646 2.15-4.795 4.794-4.795 2.643 0 4.795 2.15 4.795 4.796 0 2.644-2.152 4.796-4.795 4.796" fill="#000"/><path d="M34.946 398.51c0-1.9 1.538-3.438 3.437-3.438 1.9 0 3.437 1.538 3.437 3.438 0 1.9-1.538 3.437-3.437 3.437-1.9 0-3.437-1.538-3.437-3.437" fill="#FFF"/><path d="M38.384 396.427c-1.15 0-2.084.935-2.084 2.084 0 1.15.935 2.08 2.084 2.08 1.148 0 2.083-.93 2.083-2.08 0-1.148-.935-2.083-2.083-2.083m0 6.88c-2.643 0-4.795-2.153-4.795-4.796 0-2.646 2.15-4.795 4.794-4.795 2.642 0 4.794 2.15 4.794 4.796 0 2.644-2.152 4.796-4.794 4.796" fill="#000"/><path d="M85.896 398.51H41.45" fill="#FFF"/><path fill="#000" d="M41.45 399.865h44.445v-2.712H41.45M62.317 391.755h2.71v-19.33h-2.71"/><path fill="#000" d="M66.963 379.798l-3.29-5.756-3.29 5.756-2.355-1.347 5.646-9.87 5.643 9.87"/><path d="M144.593 381.324l9.733 26.745c-14.77 5.376-31.1-2.243-36.475-17.01-5.374-14.773 2.243-31.105 17.01-36.482 3.277-1.19 6.245-1.715 9.733-1.715v28.46z" fill="#FFF"/><path d="M143.237 354.248c-2.766.12-5.2.617-7.914 1.606-6.802 2.477-12.232 7.453-15.293 14.014-3.058 6.565-3.38 13.923-.903 20.726 3.885 10.67 14.12 17.84 25.467 17.84 2.708 0 5.387-.403 7.982-1.208l-9.34-25.662v-27.316zm1.357 56.9c-12.484 0-23.745-7.887-28.016-19.626-2.722-7.485-2.368-15.58.997-22.8 3.365-7.217 9.34-12.694 16.82-15.417 3.42-1.242 6.563-1.798 10.2-1.798h1.353v29.58l10.116 27.793-1.275.462c-3.293 1.2-6.723 1.805-10.196 1.805z" fill="#000"/><path d="M148.495 381.324l18.29-21.802c12.04 10.103 13.61 28.056 3.51 40.098-3.366 4.008-7.15 6.658-12.067 8.45l-9.733-26.746z" fill="#FFF"/><path d="M150.037 381.596l8.99 24.71c4.1-1.694 7.296-4.063 10.228-7.558 9.314-11.103 8.188-27.544-2.322-37.29l-16.896 20.138zm7.38 28.212l-10.463-28.757 19.665-23.437 1.04.87c12.59 10.57 14.238 29.41 3.67 42.005-3.5 4.178-7.516 6.99-12.64 8.854l-1.273.466z" fill="#000"/><path d="M152.398 364.844v-28.46c6.978 0 12.946 2.173 18.29 6.658l-18.29 21.802z" fill="#FFF"/><path d="M153.754 337.77v23.346l15.007-17.884c-4.46-3.423-9.392-5.218-15.006-5.463zm-2.712 30.8v-33.542h1.358c7.3 0 13.567 2.28 19.16 6.976l1.04.87-21.558 25.695zM141.233 309.164h14.903v-2.712h-14.903M170.28 309.164h8.843v-2.712h-8.842M161.693 309.164h4.548v-2.712h-4.547M163.714 303.354h9.853v-2.71h-9.853M141.233 303.354h16.72v-2.71h-16.72" fill="#000"/><path d="M108.923 339.02c-7.705 0-13.95-6.246-13.95-13.952 0-7.702 6.242-13.948 13.946-13.948v-6.424c-3.962 0-7.438.997-10.796 3.098-9.538 5.962-12.44 18.527-6.48 28.07 5.96 9.54 18.528 12.444 28.066 6.482l-3.4-5.445c-2.142 1.344-4.673 2.12-7.387 2.12" fill="#FFF"/><path d="M107.562 306.096c-3.155.202-5.957 1.12-8.72 2.85-4.306 2.69-7.306 6.895-8.45 11.846-1.14 4.95-.29 10.045 2.404 14.353 3.495 5.6 9.53 8.94 16.142 8.94 3.1 0 6.144-.762 8.88-2.213l-1.97-3.152c-2.138 1.086-4.506 1.657-6.925 1.657-8.44 0-15.304-6.868-15.304-15.306 0-7.98 6.14-14.555 13.942-15.248v-3.726zm1.376 40.705c-7.553 0-14.445-3.82-18.445-10.218-3.072-4.922-4.047-10.746-2.744-16.4 1.306-5.655 4.736-10.465 9.657-13.538 3.552-2.224 7.318-3.303 11.513-3.303h1.353v9.136h-1.353c-6.943.004-12.59 5.65-12.59 12.595 0 6.944 5.65 12.595 12.593 12.595 2.365 0 4.668-.66 6.668-1.914l1.153-.717 4.838 7.745-1.15.72c-3.46 2.158-7.434 3.303-11.492 3.303z" fill="#000"/><path d="M112.408 305.48c5.423 0 10.116 3.094 12.427 7.615l5.718-2.914c-3.603-7.065-10.22-11.124-18.148-11.124v6.424h.003" fill="#FFF"/><path d="M113.76 304.183c4.787.418 9.06 3.04 11.614 7.117l3.314-1.694c-3.246-5.474-8.578-8.742-14.928-9.15v3.727zm10.484 10.735l-.618-1.206c-2.166-4.24-6.466-6.875-11.217-6.875h-1.358l-.004-9.136h1.354c8.463 0 15.517 4.327 19.358 11.866l.614 1.206-8.13 4.146z" fill="#000"/><path d="M127.066 315.82l-5.718 2.914c.97 1.903 1.523 4.055 1.523 6.337 0 4.99-2.62 9.367-6.56 11.83l3.402 5.445c8.975-5.61 12.16-17.09 7.354-26.525" fill="#FFF"/><path d="M118.148 337.282l1.97 3.156c7.19-5.218 9.792-14.6 6.315-22.774l-3.31 1.69c.733 1.813 1.104 3.73 1.104 5.716 0 4.853-2.25 9.327-6.08 12.212zm1.133 6.933l-4.836-7.745 1.148-.72c3.707-2.32 5.924-6.314 5.924-10.68 0-2.01-.462-3.932-1.375-5.72l-.617-1.21 8.138-4.144.615 1.21c5.15 10.113 1.78 22.275-7.846 28.29l-1.15.72z" fill="#000"/><path d="M94.368 363.42v7.294" fill="#FFF"/><path fill="#000" d="M93.01 370.714h2.712v-7.293h-2.71"/><path d="M98.015 367.068h-7.293" fill="#FFF"/><path fill="#000" d="M90.722 368.422h7.293v-2.712h-7.293"/><path d="M179.588 352.387v5.272" fill="#FFF"/><path fill="#000" d="M178.23 357.66h2.712v-5.27h-2.71"/><path d="M182.224 355.024h-5.27" fill="#FFF"/><path fill="#000" d="M176.953 356.38h5.27v-2.712h-5.27"/><path d="M72.81 306.065v5.27" fill="#FFF"/><path fill="#000" d="M71.454 311.338h2.71v-5.272h-2.71"/><path d="M75.447 308.7h-5.27" fill="#FFF"/><path fill="#000" d="M70.176 310.056h5.27v-2.712h-5.27"/><path d="M33.405 364.5c-1.303 0-2.365-1.062-2.365-2.366 0-1.307 1.062-2.368 2.365-2.368 1.303 0 2.365 1.06 2.365 2.368 0 1.304-1.062 2.365-2.365 2.365" fill="#FFF"/><path d="M33.405 358.41c-2.054 0-3.722 1.672-3.722 3.723 0 2.055 1.668 3.723 3.722 3.723 2.05 0 3.722-1.668 3.722-3.723 0-2.05-1.67-3.723-3.722-3.723m0 2.712c.56 0 1.01.45 1.01 1.01s-.45 1.012-1.01 1.012-1.01-.45-1.01-1.01.45-1.012 1.01-1.012M110.243 359.564h1.938v-1.94h-1.937M84.982 354.26h1.94v-1.94h-1.94M110.203 402.475h1.94v-1.94h-1.94M155.465 319.896h1.94v-1.94h-1.94M183.213 377.716h1.94v-1.94h-1.94M36.983 376.745h1.94v-1.94h-1.94M194.077 299.725h1.938v-1.94h-1.938M21.618 301.007h14.286v-2.712H21.618M49.323 301.007H59.93v-2.712H49.323M39.8 301.007h3.895v-2.712H39.8M21.618 295.775h7.174v-2.712h-7.174M47.316 295.775h7.202v-2.712h-7.202M32.254 295.775h12.513v-2.712H32.254M21.618 306.24H46.8v-2.712H21.618M50.045 306.24h7.062v-2.712h-7.062M21.618 316.707h14.286v-2.712H21.618M49.323 316.707H59.93v-2.712H49.323M39.8 316.707h3.895v-2.712H39.8M21.615 311.47H34.17v-2.71H21.616M47.883 311.47h6.635v-2.71h-6.635M37.637 311.47h7.697v-2.71h-7.697M21.615 321.94h7.17v-2.712h-7.17M31.55 321.94h20.156v-2.712H31.55" fill="#000"/><path fill="#FFF" d="M325.76 718.066h193.593V591.58H325.76"/><path d="M327.118 716.712H518V592.936H327.118v123.776zm-2.71 2.712H520.71v-129.2H324.408v129.2z" fill="#000"/><path fill="#FFF" d="M307.89 727.147h229.334v-8.756H307.89"/><path d="M309.247 725.793H535.87v-6.044H309.247v6.043zm-2.71 2.712H538.58v-11.468H306.536v11.468zM337.494 701.467H507.62v-99.45H337.494v99.45zm-2.715 2.712h175.55V599.3H334.78V704.18z" fill="#000"/><path d="M423.287 710.933c0 .404-.325.73-.73.73-.403 0-.728-.326-.728-.73 0-.405.324-.73.728-.73.404 0 .73.325.73.73" fill="#FFF"/><path d="M422.558 710.306c-.347 0-.625.282-.625.625 0 .348.278.63.625.63.346 0 .624-.282.624-.63 0-.342-.278-.624-.624-.624m0 2.712c-1.152 0-2.087-.935-2.087-2.087 0-1.147.936-2.082 2.088-2.082 1.148 0 2.086.935 2.086 2.083 0 1.153-.938 2.088-2.086 2.088" fill="#000"/><path fill="#FFF" d="M346.473 633.54h23.347v-20.892h-23.347"/><path d="M347.827 632.186h20.636v-18.18h-20.636v18.18zm-2.712 2.712h26.06V611.29h-26.06v23.608z" fill="#000"/><path fill="#FFF" d="M475.092 633.54h23.553v-20.892h-23.553"/><path d="M476.446 632.186h20.842v-18.18h-20.842v18.18zm-2.712 2.712H500V611.29h-26.266v23.608z" fill="#000"/><path fill="#FFF" d="M379.09 633.54h86.84v-20.892h-86.84"/><path d="M380.45 632.186h84.125v-18.18H380.45v18.18zm-2.712 2.712h89.548V611.29h-89.548v23.608z" fill="#000"/><path fill="#FFF" d="M346.47 665.904h57.756v-20.892H346.47"/><path d="M347.827 664.55h55.045v-18.18h-55.045v18.18zm-2.712 2.712h60.468v-23.608h-60.468v23.608z" fill="#000"/><path fill="#FFF" d="M449.694 665.904h48.95v-20.892h-48.95"/><path d="M451.05 664.55h46.238v-18.18H451.05v18.18zm-2.714 2.712H500v-23.608h-51.664v23.608z" fill="#000"/><path fill="#FFF" d="M416.927 665.904h20.89v-20.892h-20.89"/><path d="M418.28 664.55h18.178v-18.18H418.28v18.18zm-2.71 2.712h23.603v-23.608H415.57v23.608z" fill="#000"/><path d="M346.47 679.426h87.66" fill="#FFF"/><path fill="#000" d="M346.473 680.78h87.657v-2.71h-87.657"/><path d="M390.71 689.668h15.155" fill="#FFF"/><path fill="#000" d="M390.71 691.025h15.155v-2.712H390.71"/><path d="M346.47 689.668h34.817" fill="#FFF"/><path fill="#000" d="M346.473 691.025h34.817v-2.712h-34.817"/><path d="M417.335 689.668h70.454" fill="#FFF"/><path fill="#000" d="M417.335 691.025h70.454v-2.712h-70.455"/><path d="M445.6 679.426h17.613" fill="#FFF"/><path fill="#000" d="M445.6 680.78h17.614v-2.71H445.6"/><path d="M469.767 679.426h28.878" fill="#FFF"/><path fill="#000" d="M469.767 680.78h28.878v-2.71h-28.878"/><path d="M618.79 213.044c0 .997-.808 1.805-1.805 1.805h-70.512c-.996 0-1.805-.81-1.805-1.806v-104.91c0-.996.81-1.805 1.805-1.805h70.512c.997 0 1.805.808 1.805 1.805v104.91z" fill="#FFF"/><path d="M546.474 107.686c-.25 0-.452.202-.452.45v104.907c0 .25.203.45.452.45h70.512c.245 0 .447-.2.447-.45V108.137c0-.25-.202-.45-.447-.45h-70.512zm70.512 108.52h-70.512c-1.744 0-3.163-1.42-3.163-3.163V108.137c0-1.744 1.42-3.163 3.164-3.163h70.512c1.743 0 3.162 1.42 3.162 3.163v104.906c0 1.744-1.42 3.163-3.162 3.163z" fill="#000"/><path d="M551.387 196.2h60.685v-77.302h-60.685v77.3zm-2.71 2.71h66.106v-82.727h-66.107v82.728z" fill="#000"/><path d="M584.87 205.813c0 1.736-1.405 3.14-3.14 3.14-1.734 0-3.142-1.404-3.142-3.14 0-1.734 1.408-3.142 3.14-3.142 1.737 0 3.142 1.41 3.142 3.143" fill="#FFF"/><path d="M581.73 204.027c-.987 0-1.785.802-1.785 1.784 0 .987.798 1.788 1.784 1.788.985 0 1.786-.8 1.786-1.787 0-.98-.8-1.783-1.787-1.783m0 6.283c-2.48 0-4.5-2.02-4.5-4.5 0-2.476 2.02-4.495 4.5-4.495s4.497 2.02 4.497 4.496c0 2.48-2.018 4.5-4.498 4.5" fill="#000"/><path d="M582.343 111.778c0 .34-.274.614-.613.614-.34 0-.614-.275-.614-.614 0-.34.274-.614.614-.614.34 0 .613.274.613.614" fill="#FFF"/><path d="M581.73 111.036c-.41 0-.74.333-.74.74 0 .41.33.744.74.744.407 0 .74-.335.74-.743s-.333-.74-.74-.74m0 2.71c-1.088 0-1.972-.884-1.972-1.97 0-1.087.884-1.968 1.97-1.968 1.088 0 1.972.88 1.972 1.967 0 1.086-.884 1.97-1.97 1.97" fill="#000"/><path d="M258.106 622.632c0 6.37-5.163 11.533-11.53 11.533h-33.887c-6.37 0-11.532-5.163-11.532-11.533V534.41c0-6.37 5.162-11.534 11.53-11.534h33.887c6.368 0 11.53 5.163 11.53 11.533v88.222z" fill="#FFF"/><path d="M212.688 524.232c-5.61 0-10.174 4.564-10.174 10.175v88.224c0 5.612 4.564 10.18 10.174 10.18h33.89c5.606 0 10.173-4.568 10.173-10.18v-88.223c0-5.61-4.566-10.175-10.172-10.175h-33.89zm33.89 111.29h-33.89c-7.105 0-12.885-5.785-12.885-12.89v-88.225c0-7.106 5.78-12.887 12.885-12.887h33.89c7.105 0 12.885 5.78 12.885 12.887v88.224c0 7.107-5.78 12.892-12.885 12.892z" fill="#000"/><path d="M207.073 622.3h45.114v-88.92h-45.114v88.92zm-2.71 2.71h50.54v-94.343h-50.54v94.344z" fill="#000"/><path d="M232.794 628.916c0 1.748-1.416 3.163-3.163 3.163-1.743 0-3.158-1.416-3.158-3.164 0-1.748 1.415-3.163 3.16-3.163 1.746 0 3.162 1.415 3.162 3.163" fill="#FFF"/><path d="M229.632 627.11c-.996 0-1.805.81-1.805 1.805 0 .997.81 1.806 1.805 1.806.997 0 1.805-.808 1.805-1.805 0-.996-.808-1.805-1.805-1.805m0 6.326c-2.49 0-4.516-2.03-4.516-4.52 0-2.492 2.025-4.518 4.516-4.518 2.49 0 4.517 2.026 4.517 4.517 0 2.492-2.027 4.52-4.518 4.52M224.424 528.938h10.416v-2.712h-10.416M250.277 527.582c0 .364-.296.664-.664.664-.365 0-.66-.3-.66-.664 0-.365.295-.665.66-.665.368 0 .664.3.664.665" fill="#000"/><path d="M245.548 602.713c2.346-3.903 3.743-10.815 3.743-16.104 0-12.827-9.548-17.12-19.656-17.12-10.11 0-19.662 4.293-19.662 17.12 0 5.288 1.397 12.2 3.744 16.103h31.832z" fill="#FFF"/><path d="M214.51 601.357h30.243c1.867-3.55 3.184-9.58 3.184-14.747 0-13.718-11.47-15.765-18.304-15.765-6.838 0-18.304 2.047-18.304 15.765 0 5.17 1.313 11.197 3.18 14.747zm31.803 2.71H212.95l-.397-.656c-2.704-4.498-3.935-11.864-3.935-16.8 0-11.742 7.657-18.477 21.015-18.477 13.355 0 21.016 6.735 21.016 18.477 0 4.936-1.236 12.302-3.94 16.8l-.397.658z" fill="#000"/><path d="M233.36 569.798v-7.315h-7.458v7.315c-1.863.314-3.625.87-5.23 1.672l8.96 8.962 8.964-8.962c-1.61-.8-3.372-1.358-5.235-1.672" fill="#FFF"/><path d="M223.048 571.93l6.585 6.587 6.585-6.586c-.975-.346-2.007-.613-3.083-.793l-1.13-.192v-7.106h-4.744v7.105l-1.13.192c-1.08.18-2.107.447-3.082.794zm6.585 10.422l-11.253-11.255 1.686-.842c1.382-.69 2.884-1.216 4.48-1.574v-7.553h10.17v7.554c1.596.36 3.1.886 4.484 1.575l1.686.842-11.253 11.255z" fill="#000"/><path d="M239.123 553.216c0 6.99-4.25 14.014-9.49 14.014-5.243 0-9.493-7.023-9.493-14.014 0-6.99 4.25-11.302 9.492-11.302 5.242 0 9.49 4.31 9.49 11.302" fill="#FFF"/><path d="M229.632 543.27c-4.79 0-8.134 4.092-8.134 9.946 0 6.506 3.953 12.656 8.134 12.656 4.18 0 8.134-6.15 8.134-12.656 0-5.854-3.343-9.945-8.134-9.945m0 25.317c-6.394 0-10.85-8.103-10.85-15.37 0-7.335 4.565-12.657 10.85-12.657 6.286 0 10.85 5.322 10.85 12.656 0 7.268-4.456 15.37-10.85 15.37" fill="#000"/><path d="M238.76 551.964c-.476-6.25-3.845-10.05-8.765-10.05-1.917 0-3.842.623-5.372 1.785-1.087.826-1.957 1.877-2.6 3.076-.657 1.216-1.094 2.513-1.314 3.878-.142.845-.207 1.708-.207 2.563 0 .27.686.546.7.82 2.492-1.563 3.817-4.13 4.983-7.26 3.36 3.122 7.404 5.03 12.574 5.187" fill="#FFF"/><path d="M225.775 544.542l1.333 1.238c2.95 2.74 6.267 4.29 10.108 4.716-.79-4.557-3.415-7.225-7.22-7.225-1.517 0-3 .45-4.22 1.272zm-.28.2c-.016.01-.034.024-.052.038-.906.69-1.657 1.578-2.227 2.636-.578 1.073-.972 2.235-1.17 3.456-.043.27-.08.55-.108.827 1.28-1.345 2.148-3.172 2.978-5.4l.578-1.56zm-5.536 11.676l-.087-1.838c-.3-.253-.726-.686-.726-1.365 0-.942.076-1.877.224-2.78.246-1.517.737-2.965 1.46-4.304.754-1.4 1.754-2.585 2.974-3.51 1.747-1.328 3.946-2.06 6.192-2.06 5.708 0 9.585 4.33 10.116 11.3l.115 1.507-1.51-.047c-4.548-.14-8.487-1.546-11.974-4.286-1.043 2.4-2.448 4.66-4.82 6.15l-1.964 1.234zM228.277 603.39h2.71v-22.828h-2.71M212.117 612.095h35.027v-2.71h-35.027M212.117 618.198h35.027v-2.712h-35.027" fill="#000"/><path d="M644.41 622.632c0 6.37-5.164 11.533-11.532 11.533h-33.886c-6.368 0-11.53-5.163-11.53-11.533V534.41c0-6.37 5.162-11.534 11.53-11.534h33.886c6.368 0 11.53 5.163 11.53 11.533v88.222z" fill="#FFF"/><path d="M598.99 524.232c-5.61 0-10.172 4.564-10.172 10.175v88.224c0 5.612 4.563 10.18 10.173 10.18h33.89c5.608 0 10.175-4.568 10.175-10.18v-88.223c0-5.61-4.567-10.175-10.174-10.175h-33.89zm33.89 111.29h-33.89c-7.104 0-12.884-5.785-12.884-12.89v-88.225c0-7.106 5.78-12.887 12.885-12.887h33.89c7.106 0 12.886 5.78 12.886 12.887v88.224c0 7.107-5.78 12.892-12.885 12.892z" fill="#000"/><path d="M593.378 622.3h45.114v-88.92h-45.114v88.92zm-2.715 2.71h50.54v-94.343h-50.54v94.344z" fill="#000"/><path d="M619.097 628.916c0 1.748-1.415 3.163-3.163 3.163-1.743 0-3.16-1.416-3.16-3.164 0-1.748 1.417-3.163 3.16-3.163 1.748 0 3.163 1.415 3.163 3.163" fill="#FFF"/><path d="M615.935 627.11c-.996 0-1.805.81-1.805 1.805 0 .997.81 1.806 1.805 1.806.997 0 1.806-.808 1.806-1.805 0-.996-.808-1.805-1.805-1.805m0 6.326c-2.49 0-4.516-2.03-4.516-4.52 0-2.492 2.024-4.518 4.515-4.518 2.49 0 4.517 2.026 4.517 4.517 0 2.492-2.026 4.52-4.517 4.52M610.725 528.938h10.416v-2.712h-10.415M636.58 527.582c0 .364-.295.664-.664.664-.364 0-.66-.3-.66-.664 0-.365.296-.665.66-.665.37 0 .665.3.665.665" fill="#000"/><path d="M631.85 603.39c2.347-3.902 3.745-10.813 3.745-16.103 0-12.826-9.55-17.12-19.658-17.12-10.11 0-19.662 4.294-19.662 17.12 0 5.29 1.398 12.2 3.744 16.104h31.83z" fill="#FFF"/><path d="M600.813 602.035h30.243c1.867-3.55 3.184-9.576 3.184-14.747 0-13.717-11.47-15.765-18.304-15.765-6.837 0-18.304 2.048-18.304 15.765 0 5.17 1.318 11.197 3.18 14.747zm31.803 2.712h-33.363l-.397-.658c-2.704-4.5-3.938-11.866-3.938-16.802 0-11.742 7.66-18.477 21.018-18.477 13.355 0 21.016 6.736 21.016 18.478 0 4.936-1.23 12.302-3.94 16.8l-.396.66z" fill="#000"/><path d="M619.664 570.476v-7.315h-7.46v7.316c-1.862.315-3.623.87-5.23 1.672 0 0 3.224 4.008 8.96 4.008 5.28 0 8.965-4.008 8.965-4.008-1.61-.8-3.373-1.357-5.236-1.672" fill="#FFF"/><path d="M609.42 572.585c1.31 1 3.523 2.214 6.516 2.214 2.715 0 4.993-1.236 6.408-2.255-.924-.314-1.895-.56-2.906-.733l-1.13-.19v-7.103h-4.744v7.1l-1.13.192c-1.054.18-2.062.437-3.015.773m6.516 4.93c-6.315 0-9.87-4.334-10.02-4.515l-1.057-1.314 1.51-.75c1.38-.69 2.883-1.218 4.48-1.575v-7.553h10.17v7.554c1.595.358 3.1.885 4.483 1.575l1.614.805-1.22 1.325c-.167.18-4.156 4.45-9.96 4.45" fill="#000"/><path d="M625.426 553.894c0 6.99-4.25 14.014-9.49 14.014-5.243 0-9.492-7.023-9.492-14.014 0-6.99 4.25-11.302 9.49-11.302 5.243 0 9.492 4.31 9.492 11.302" fill="#FFF"/><path d="M615.935 543.95c-4.79 0-8.134 4.09-8.134 9.944 0 6.506 3.955 12.656 8.135 12.656s8.134-6.15 8.134-12.656c0-5.853-3.344-9.945-8.135-9.945m0 25.31c-6.393 0-10.848-8.098-10.848-15.366 0-7.334 4.563-12.656 10.848-12.656 6.286 0 10.846 5.322 10.846 12.656 0 7.268-4.45 15.367-10.845 15.367" fill="#000"/><path d="M620.017 547.63c1.364-.13 2.71-.113 4.018.043-1.867-4.398-5.654-6.944-10.037-6.944-6.224 0-11.27 5.12-11.27 13.42 0 2.384.414 4.767 1.155 6.955 1.89-7.132 8.184-12.71 16.134-13.476" fill="#FFF"/><path d="M614 542.085c-5.84 0-9.918 4.96-9.918 12.067 0 .798.05 1.61.15 2.42 3.077-5.68 8.933-9.645 15.656-10.295.595-.054 1.198-.087 1.797-.09-1.794-2.604-4.545-4.102-7.686-4.102zm-9.962 23.723l-1.44-4.268c-.805-2.38-1.227-4.932-1.227-7.388 0-8.565 5.31-14.78 12.63-14.78 5.003 0 9.22 2.904 11.285 7.768l.91 2.148-2.318-.27c-1.242-.145-2.502-.156-3.73-.04-7.15.69-13.16 5.705-14.953 12.475l-1.156 4.355zM598.422 612.095h35.026v-2.71h-35.026M598.422 618.198h35.026v-2.712h-35.026" fill="#000"/><path fill="#FFF" d="M593.782 329.33h8.474v-8.644h-8.474"/><path d="M595.136 327.973h5.762v-5.933h-5.762v5.933zm-2.71 2.712h11.184V319.33h-11.185v11.355z" fill="#000"/><path d="M700.174 456.885c0 5.5-4.458 9.958-9.957 9.958h-81.003c-5.5 0-9.957-4.46-9.957-9.958v-177.3c0-5.5 4.458-9.958 9.957-9.958h81.003c5.5 0 9.957 4.46 9.957 9.958v177.3z" fill="#FFF"/><path d="M609.212 270.983c-4.74 0-8.6 3.856-8.6 8.6v177.3c0 4.745 3.86 8.6 8.6 8.6h81.007c4.74 0 8.6-3.855 8.6-8.6v-177.3c0-4.744-3.86-8.6-8.6-8.6H609.21zm81.007 197.213H609.21c-6.24 0-11.31-5.073-11.31-11.313v-177.3c0-6.24 5.07-11.312 11.31-11.312h81.007c6.237 0 11.31 5.074 11.31 11.314v177.3c0 6.24-5.073 11.312-11.31 11.312z" fill="#000"/><path d="M605.552 446.86h88.325V287.192h-88.325V446.86zm-2.71 2.712h93.746V284.48H602.84v165.092z" fill="#000"/><path d="M655.318 457.54c0 3.096-2.51 5.605-5.603 5.605-3.094 0-5.603-2.51-5.603-5.604 0-3.093 2.51-5.603 5.603-5.603 3.094 0 5.603 2.51 5.603 5.604" fill="#FFF"/><path d="M649.715 453.294c-2.343 0-4.245 1.906-4.245 4.246 0 2.343 1.902 4.25 4.245 4.25 2.344 0 4.246-1.907 4.246-4.25 0-2.34-1.9-4.246-4.245-4.246m0 11.208c-3.837 0-6.957-3.124-6.957-6.962 0-3.838 3.12-6.958 6.957-6.958 3.838 0 6.957 3.12 6.957 6.958s-3.12 6.962-6.957 6.962M640.488 279.32h18.456v-2.71h-18.456M686.3 277.965c0 .65-.526 1.174-1.172 1.174-.65 0-1.177-.525-1.177-1.175s.528-1.173 1.178-1.173c.646 0 1.173.523 1.173 1.173M683.16 442.248l-1.232-2.415 2.332-1.188-2.332-1.188 1.23-2.42 7.08 3.608" fill="#000"/><path fill="#FFF" d="M615.256 438.66h6.073v-41.424h-6.074"/><path d="M616.61 437.302h3.36v-38.708h-3.36v38.708zm-2.71 2.712h8.786v-44.136H613.9v44.136z" fill="#000"/><path fill="#FFF" d="M615.256 438.66h6.073v-25.128h-6.074"/><path d="M616.61 437.302h3.36v-22.416h-3.36v22.416zm-2.71 2.712h8.786V412.17H613.9v27.844z" fill="#000"/><path fill="#FFF" d="M669.648 438.66h6.073v-77.045h-6.072"/><path d="M671.002 437.302h3.36V362.97h-3.36V437.3zm-2.71 2.712h8.786v-79.757h-8.787v79.757z" fill="#000"/><path fill="#FFF" d="M669.648 438.66h6.073v-17.397h-6.072"/><path d="M671.002 437.302h3.36v-14.685h-3.36v14.685zm-2.71 2.712h8.786v-20.11h-8.787v20.11z" fill="#000"/><path fill="#FFF" d="M626.134 438.66h6.072v-53.574h-6.072"/><path d="M627.488 437.302h3.36v-50.86h-3.36v50.86zm-2.71 2.712h8.786v-56.286h-8.787v56.286z" fill="#000"/><path fill="#FFF" d="M626.134 438.66h6.072V424.3h-6.072"/><path d="M627.488 437.302h3.36v-11.65h-3.36v11.65zm-2.71 2.712h8.786v-17.072h-8.787v17.072z" fill="#000"/><path fill="#FFF" d="M647.89 438.66h6.075v-29.273h-6.076"/><path d="M649.247 437.302h3.36v-26.558h-3.36v26.558zm-2.715 2.712h8.787V408.03h-8.788v31.984z" fill="#000"/><path fill="#FFF" d="M647.89 409.387h6.075v-38.763h-6.076"/><path d="M649.247 408.032h3.36v-36.05h-3.36v36.05zm-2.715 2.712h8.787v-41.477h-8.788v41.477z" fill="#000"/><path fill="#FFF" d="M658.767 438.66h6.076v-34.794h-6.076"/><path d="M660.125 437.302h3.36V405.22h-3.36v32.082zm-2.712 2.712h8.788v-37.506h-8.787v37.506z" fill="#000"/><path fill="#FFF" d="M658.767 403.866h6.076v-25.132h-6.076"/><path d="M660.125 402.508h3.36v-22.416h-3.36v22.416zm-2.712 2.712h8.788v-27.844h-8.787v27.844z" fill="#000"/><path fill="#FFF" d="M637.012 438.66h6.076v-46.118h-6.076"/><path d="M638.37 437.302h3.36v-43.406h-3.36v43.406zm-2.716 2.712h8.788v-48.83h-8.788v48.83z" fill="#000"/><path fill="#FFF" d="M637.012 438.66h6.076v-37.004h-6.076"/><path d="M638.37 437.302h3.36V403.01h-3.36v34.292zm-2.716 2.712h8.788v-39.716h-8.788v39.716z" fill="#000"/><path fill="#000" d="M686.198 440.015h-72.3v-86.79h2.712v84.08h69.588"/><path fill="#000" d="M614.04 357.656l-2.415-1.23 3.603-7.082 3.603 7.08-2.414 1.232-1.188-2.333M613.285 371.978h3.942v-2.71h-3.942M643.557 371.978h4.07v-2.71h-4.07M630.575 371.978h6.49v-2.71h-6.49M620.018 371.978h4.07v-2.71h-4.07"/><path d="M674.277 353.293c0 .895-1.62 4.733-1.62 4.733s-1.626-3.838-1.626-4.733c0-.896.73-1.622 1.626-1.622.895 0 1.62.727 1.62 1.623" fill="#FFF"/><path d="M672.655 353.026c-.148 0-.267.12-.267.267.014.156.115.502.263.95.157-.46.258-.813.272-.982 0-.115-.12-.234-.267-.234zm0 8.478l-1.25-2.95c-.645-1.527-1.728-4.242-1.728-5.26 0-1.644 1.335-2.98 2.978-2.98 1.643 0 2.978 1.336 2.978 2.98 0 1.018-1.083 3.733-1.73 5.26l-1.248 2.95zM616.897 333.348l-2.166-1.632 12.655-16.816 11.653 8.832 12.033-22.488 12.323 14.714 12.095-8.536 12.545 24.492-2.41 1.235-11.125-21.713-11.58 8.175-11.348-13.548-11.64 21.748-12.015-9.106" fill="#000"/><path d="M617.23 332.497c0 .806-.655 1.46-1.46 1.46-.808 0-1.462-.654-1.462-1.46 0-.805.654-1.462 1.462-1.462.805 0 1.46.657 1.46 1.462" fill="#000"/><path d="M629.11 316.765c0 .806-.655 1.46-1.46 1.46-.808 0-1.462-.654-1.462-1.46 0-.805.654-1.458 1.462-1.458.805 0 1.46.653 1.46 1.458" fill="#FFF"/><path d="M627.65 316.66c-.06 0-.106.048-.106.106 0 .115.21.115.21 0 0-.058-.047-.105-.105-.105m0 2.922c-1.554 0-2.817-1.264-2.817-2.816 0-1.553 1.263-2.817 2.816-2.817 1.55 0 2.815 1.263 2.815 2.816 0 1.552-1.264 2.816-2.816 2.816" fill="#000"/><path d="M640.856 325.66c0 .805-.653 1.46-1.458 1.46-.81 0-1.462-.655-1.462-1.46 0-.805.653-1.46 1.462-1.46.805 0 1.458.655 1.458 1.46" fill="#FFF"/><path d="M639.396 325.556c-.058 0-.105.047-.105.105 0 .116.21.116.21 0 0-.057-.046-.104-.104-.104m0 2.92c-1.553 0-2.816-1.262-2.816-2.815 0-1.552 1.263-2.816 2.816-2.816 1.552 0 2.816 1.264 2.816 2.817 0 1.554-1.264 2.817-2.816 2.817" fill="#000"/><path d="M652.737 303.556c0 .805-.654 1.46-1.463 1.46-.805 0-1.458-.655-1.458-1.46 0-.805.653-1.46 1.458-1.46.81 0 1.463.655 1.463 1.46" fill="#FFF"/><path d="M651.277 303.452c-.058 0-.105.047-.105.104 0 .116.21.116.21 0 0-.057-.048-.104-.105-.104m0 2.92c-1.553 0-2.816-1.263-2.816-2.816 0-1.552 1.264-2.816 2.817-2.816 1.552 0 2.816 1.264 2.816 2.816 0 1.553-1.264 2.817-2.816 2.817" fill="#000"/><path d="M664.55 317.562c0 .805-.653 1.46-1.46 1.46-.807 0-1.46-.655-1.46-1.46 0-.805.653-1.46 1.46-1.46.807 0 1.46.655 1.46 1.46" fill="#FFF"/><path d="M663.09 317.457c-.058 0-.105.047-.105.105 0 .116.21.116.21 0 0-.058-.048-.105-.105-.105m0 2.922c-1.553 0-2.816-1.265-2.816-2.818 0-1.552 1.263-2.816 2.816-2.816 1.552 0 2.816 1.264 2.816 2.816 0 1.553-1.264 2.817-2.816 2.817" fill="#000"/><path d="M676.43 309.596c0 .806-.653 1.46-1.458 1.46-.81 0-1.462-.654-1.462-1.46 0-.805.653-1.462 1.462-1.462.805 0 1.458.657 1.458 1.462" fill="#FFF"/><path d="M674.97 309.492c-.057 0-.104.047-.104.104 0 .116.21.116.21 0 0-.057-.048-.104-.106-.104m0 2.92c-1.552 0-2.816-1.263-2.816-2.816 0-1.552 1.264-2.816 2.816-2.816 1.553 0 2.816 1.264 2.816 2.816 0 1.553-1.263 2.817-2.816 2.817M688.133 332.166c0 .805-.653 1.458-1.458 1.458-.81 0-1.462-.653-1.462-1.458 0-.806.653-1.463 1.462-1.463.805 0 1.458.657 1.458 1.463" fill="#000"/><path d="M668.12 294.685v4.817" fill="#FFF"/><path fill="#000" d="M666.764 299.502h2.71v-4.817h-2.71"/><path d="M670.527 297.093h-4.816" fill="#FFF"/><path fill="#000" d="M665.71 298.45h4.816v-2.71h-4.816M638.098 315.87h1.278v-1.28h-1.278M653.038 324.593h1.278v-1.278h-1.278M659.547 305.922h1.278v-1.28h-1.278M649.24 352.617h8.162v-2.712h-8.162M626.99 352.617h18.166v-2.712H626.99M626.993 348.13h14.9v-2.713h-14.9M653.32 348.13h7.144v-2.713h-7.145M646.38 348.13h3.676v-2.713h-3.676M626.99 343.43h28.983v-2.71H626.99M623.217 303.596h8.81v-2.712h-8.81M614.66 303.596h4.53v-2.712h-4.53M614.66 297.808h11.828v-2.712H614.66"/><path d="M509.98 343.735c2.924-2.925 7.66-2.925 10.585 0 2.924 2.924 2.924 7.662 0 10.587-2.925 2.924-7.66 2.924-10.586 0-2.925-2.925-2.925-7.663 0-10.587" fill="#FFF"/><path d="M515.272 342.898c-1.64 0-3.177.64-4.336 1.795-2.39 2.39-2.39 6.28 0 8.67 1.16 1.16 2.697 1.794 4.336 1.794 1.635 0 3.177-.635 4.336-1.794 2.386-2.39 2.39-6.28 0-8.67-1.16-1.156-2.7-1.795-4.336-1.795m0 14.975c-2.36 0-4.58-.92-6.253-2.593-3.445-3.445-3.445-9.056 0-12.504 1.67-1.67 3.89-2.59 6.252-2.59 2.36 0 4.58.92 6.253 2.59 3.444 3.448 3.444 9.06 0 12.504-1.672 1.672-3.892 2.593-6.253 2.593" fill="#000"/><path d="M600.817 142.92c0-10.54-8.545-19.086-19.083-19.086-10.54 0-19.084 8.546-19.084 19.086 0 7.128 3.91 13.34 9.7 16.618v12.64c0 2.222 1.802 4.024 4.022 4.024h10.723c2.22 0 4.022-1.802 4.022-4.023v-12.642c5.79-3.28 9.7-9.49 9.7-16.618" fill="#FFF"/><path d="M581.734 125.19c-9.777 0-17.726 7.955-17.726 17.73 0 6.376 3.45 12.29 9.01 15.436l.687.39v13.432c0 1.474 1.198 2.67 2.668 2.67h10.722c1.47 0 2.668-1.196 2.668-2.67v-13.432l.686-.39c5.56-3.145 9.01-9.06 9.01-15.436 0-9.775-7.95-17.73-17.726-17.73m5.36 52.368h-10.72c-2.965 0-5.38-2.412-5.38-5.38V160.31c-6-3.716-9.698-10.306-9.698-17.39 0-11.27 9.167-20.44 20.438-20.44 11.27 0 20.438 9.17 20.438 20.44 0 7.084-3.697 13.674-9.698 17.39v11.868c0 2.968-2.415 5.38-5.38 5.38" fill="#000"/><path d="M587.094 176.203h-10.718c-.856 0-1.643-.267-2.296-.72v8.873c0 1.813 1.47 3.282 3.28 3.282h8.745c1.813 0 3.282-1.47 3.282-3.282v-8.872c-.65.452-1.44.72-2.293.72" fill="#FFF"/><path d="M575.436 177.478v6.878c0 1.062.863 1.928 1.925 1.928h8.745c1.065 0 1.927-.866 1.927-1.928v-6.878c-.306.054-.62.083-.938.083h-10.72c-.317 0-.63-.028-.938-.082m10.67 11.518h-8.745c-2.556 0-4.635-2.08-4.635-4.64v-11.468l2.13 1.48c.448.315.975.477 1.52.477h10.72c.544 0 1.07-.162 1.52-.476l2.13-1.482v11.468c0 2.56-2.08 4.64-4.64 4.64" fill="#000"/><path d="M578.458 188.748c-.072.198-.115.408-.115.632 0 1 .812 2.92 1.816 2.92h3.15c1.004 0 1.817-1.92 1.817-2.92 0-.224-.044-.434-.116-.632h-6.552z" fill="#FFF"/><path d="M580.32 190.946h2.827c.152-.15.333-.49.463-.84h-3.752c.13.35.315.69.463.84m2.99 2.712h-3.152c-2.05 0-3.17-2.827-3.17-4.28 0-.374.065-.746.2-1.104l.327-.88h8.438l.328.88c.135.358.2.73.2 1.105 0 1.45-1.12 4.278-3.17 4.278" fill="#000"/><path d="M574.164 179.83h15.14" fill="#FFF"/><path fill="#000" d="M574.164 181.185h15.142v-2.712h-15.142"/><path d="M574.164 183.143h15.14" fill="#FFF"/><path fill="#000" d="M574.164 184.5h15.142v-2.712h-15.142"/><path d="M572.774 138.342c2.026-1.89 5.286-3.113 8.96-3.113 3.65 0 6.893 1.21 8.918 3.076" fill="#FFF"/><path d="M573.7 139.334l-1.85-1.983c2.37-2.208 5.972-3.476 9.885-3.476 3.88 0 7.466 1.253 9.838 3.434l-1.837 1.993c-1.85-1.7-4.838-2.714-8-2.714-3.188 0-6.192 1.03-8.037 2.748" fill="#000"/><path fill="#FFF" d="M578.363 176.202h6.74v-21.57h-6.74"/><path d="M579.72 174.848h4.03v-18.86h-4.03v18.86zm-2.71 2.712h9.45v-24.283h-9.45v24.283z" fill="#000"/><path fill="#FFF" d="M573.917 137.573l6.23 17.06h3.102l6.303-17.197"/><path fill="#000" d="M584.197 155.99H579.2l-6.556-17.95 2.546-.932 5.906 16.17h1.206l5.978-16.31 2.546.934"/><path d="M548.338 549.928c0 5.03-4.08 9.11-9.108 9.11-5.03 0-9.11-4.08-9.11-9.11 0-5.03 4.08-9.11 9.11-9.11 5.03 0 9.108 4.08 9.108 9.11" fill="#FFF"/><path d="M539.23 542.175c-4.274 0-7.75 3.477-7.75 7.752s3.476 7.756 7.75 7.756c4.275 0 7.752-3.48 7.752-7.756 0-4.275-3.477-7.752-7.752-7.752m0 18.22c-5.77 0-10.462-4.698-10.462-10.468s4.693-10.464 10.462-10.464c5.77 0 10.463 4.694 10.463 10.464 0 5.77-4.693 10.468-10.463 10.468" fill="#0C8FD7"/><path d="M539.23 545.034v9.79" fill="#FFF"/><path fill="#0C8FD7" d="M537.874 554.824h2.71v-9.79h-2.71"/><path d="M544.123 549.928h-9.787" fill="#FFF"/><path fill="#0C8FD7" d="M534.336 551.285h9.787v-2.712h-9.787"/><path d="M569.567 281.89v9.788" fill="#FFF"/><path fill="#0C8FD7" d="M568.21 291.677h2.712v-9.79h-2.71"/><path d="M574.46 286.783h-9.788" fill="#FFF"/><path fill="#0C8FD7" d="M564.673 288.138h9.787v-2.712h-9.787"/><path d="M515.332 141.535v7.077" fill="#FFF"/><path fill="#0C8FD7" d="M513.978 148.612h2.71v-7.077h-2.71"/><path d="M518.87 145.073h-7.076" fill="#FFF"/><path fill="#0C8FD7" d="M511.794 146.427h7.076v-2.71h-7.076"/><path d="M164.99 503.077c-1.494 0-2.71-1.217-2.71-2.712s1.216-2.712 2.71-2.712c1.495 0 2.712 1.217 2.712 2.712s-1.217 2.712-2.71 2.712" fill="#FFF"/><path d="M164.99 496.297c-2.24 0-4.068 1.823-4.068 4.07 0 2.242 1.827 4.065 4.07 4.065 2.24 0 4.067-1.823 4.067-4.066 0-2.246-1.828-4.07-4.07-4.07m0 2.713c.748 0 1.358.605 1.358 1.356 0 .748-.61 1.354-1.357 1.354s-1.357-.606-1.357-1.354c0-.75.61-1.357 1.358-1.357M343.285 509.858h24.066v-2.712h-24.065M328.37 509.858h8.135v-2.712h-8.134" fill="#000"/><path fill="#0C8FD7" d="M313.796 502.398h17.286v-2.712h-17.286M295.832 502.398h11.863v-2.712h-11.863M338.54 502.398h6.102v-2.712h-6.1M341.252 494.602h13.22v-2.71h-13.22"/><path fill="#000" d="M584.29 487.482h24.067v-2.712H584.29"/><path fill="#0C8FD7" d="M613.105 487.482h5.422v-2.712h-5.422"/><path fill="#000" d="M569.377 487.482h8.134v-2.712h-8.133"/><path fill="#0C8FD7" d="M541.92 480.025h30.168v-2.71H541.92"/><path fill="#000" d="M602.256 480.025h11.863v-2.71h-11.864M579.547 480.025h7.795v-2.71h-7.795"/><path fill="#0C8FD7" d="M582.255 472.226h10.17v-2.712h-10.17M561.58 472.226h15.93v-2.712h-15.93"/><path fill="#000" d="M628.358 260.338h19.997v-2.71h-19.997M667.338 260.338H679.2v-2.71H667.34M655.81 260.338h6.102v-2.71h-6.102M658.522 252.543h13.22v-2.712h-13.22M646.925 252.543h3.863v-2.712h-3.863M344.075 252.09h2.6v-2.6h-2.6"/><path d="M316.487 130.9c0 5.03-4.08 9.11-9.11 9.11-5.028 0-9.108-4.08-9.108-9.11 0-5.03 4.08-9.11 9.108-9.11 5.03 0 9.11 4.08 9.11 9.11" fill="#FFF"/><path d="M307.38 123.147c-4.276 0-7.753 3.477-7.753 7.753 0 4.275 3.477 7.752 7.752 7.752 4.273 0 7.75-3.477 7.75-7.752 0-4.276-3.477-7.753-7.75-7.753m0 18.22c-5.77 0-10.464-4.697-10.464-10.467 0-5.77 4.693-10.465 10.463-10.465 5.768 0 10.46 4.694 10.46 10.465 0 5.77-4.692 10.467-10.46 10.467" fill="#0C8FD7"/><path d="M307.38 126.007v9.79" fill="#FFF"/><path fill="#0C8FD7" d="M306.023 135.793h2.712v-9.79h-2.712M312.272 130.9h-9.788"/><path fill="#0C8FD7" d="M302.485 132.258h9.788v-2.71h-9.788"/><path d="M274.668 449.364v9.79" fill="#FFF"/><path fill="#0C8FD7" d="M273.31 459.15h2.712v-9.788h-2.71"/><path d="M279.56 454.258h-9.787" fill="#FFF"/><path fill="#0C8FD7" d="M269.773 455.612h9.787v-2.71h-9.787"/><path d="M547.873 636.503v9.79" fill="#FFF"/><path fill="#000" d="M546.517 646.29h2.71v-9.79h-2.71"/><path d="M552.766 641.397h-9.787" fill="#FFF"/><path fill="#000" d="M542.98 642.75h9.786v-2.71h-9.787"/><path d="M641.575 498.33c-1.495 0-2.712-1.216-2.712-2.71 0-1.496 1.217-2.713 2.712-2.713 1.494 0 2.71 1.217 2.71 2.712 0 1.494-1.216 2.71-2.71 2.71" fill="#FFF"/><path d="M641.575 491.55c-2.242 0-4.07 1.824-4.07 4.07 0 2.242 1.828 4.066 4.07 4.066s4.068-1.824 4.068-4.066c0-2.246-1.826-4.07-4.068-4.07m0 2.712c.75 0 1.357.607 1.357 1.358 0 .747-.606 1.354-1.357 1.354-.748 0-1.358-.607-1.358-1.354 0-.75.61-1.358 1.358-1.358" fill="#000"/><path d="M560.9 379.674c-1.493 0-2.71-1.217-2.71-2.712s1.217-2.71 2.71-2.71c1.496 0 2.713 1.215 2.713 2.71 0 1.495-1.217 2.712-2.712 2.712" fill="#FFF"/><path d="M560.9 372.894c-2.24 0-4.067 1.823-4.067 4.07 0 2.24 1.826 4.065 4.068 4.065 2.243 0 4.07-1.825 4.07-4.067 0-2.246-1.827-4.07-4.07-4.07m0 2.712c.75 0 1.36.607 1.36 1.358 0 .747-.61 1.354-1.36 1.354-.746 0-1.356-.607-1.356-1.354 0-.75.61-1.358 1.357-1.358" fill="#0C8FD7"/><path d="M382.606 215.59c-1.495 0-2.71-1.218-2.71-2.713s1.215-2.712 2.71-2.712c1.495 0 2.71 1.217 2.71 2.712s-1.215 2.712-2.71 2.712" fill="#FFF"/><path d="M382.606 208.808c-2.242 0-4.07 1.824-4.07 4.07 0 2.242 1.828 4.066 4.07 4.066s4.07-1.824 4.07-4.066c0-2.246-1.828-4.07-4.07-4.07m0 2.712c.747 0 1.357.607 1.357 1.358 0 .747-.61 1.354-1.357 1.354s-1.358-.607-1.358-1.354c0-.75.61-1.358 1.358-1.358" fill="#0C8FD7"/><path d="M392.775 548.506c-1.495 0-2.712-1.217-2.712-2.712s1.217-2.712 2.712-2.712c1.494 0 2.71 1.217 2.71 2.712s-1.216 2.712-2.71 2.712" fill="#FFF"/><path d="M392.775 541.725c-2.242 0-4.07 1.824-4.07 4.07 0 2.242 1.828 4.065 4.07 4.065s4.068-1.823 4.068-4.065c0-2.246-1.826-4.07-4.068-4.07m0 2.712c.747 0 1.357.607 1.357 1.358 0 .747-.61 1.354-1.357 1.354-.748 0-1.358-.608-1.358-1.355 0-.75.61-1.358 1.358-1.358" fill="#0C8FD7"/><path d="M307.886 260.192v9.79" fill="#FFF"/><path fill="#000" d="M306.53 269.98h2.71v-9.79h-2.71"/><path d="M312.78 265.086h-9.788" fill="#FFF"/><path fill="#000" d="M302.99 266.44h9.788v-2.71h-9.787"/><path d="M489.57 503.607v9.79" fill="#FFF"/><path fill="#0C8FD7" d="M488.215 513.397h2.71v-9.79h-2.71"/><path d="M494.464 508.5h-9.787" fill="#FFF"/><path fill="#0C8FD7" d="M484.677 509.858h9.787v-2.712h-9.787"/><path d="M487.537 233.07v9.79" fill="#FFF"/><path fill="#000" d="M486.182 242.858h2.712v-9.79h-2.712"/><path d="M492.43 237.964h-9.787" fill="#FFF"/><path fill="#000" d="M482.644 239.32h9.788v-2.712h-9.788"/><path d="M356.02 569.377v7.078" fill="#FFF"/><path fill="#000" d="M354.664 576.453h2.712v-7.077h-2.712"/><path d="M359.556 572.915h-7.076" fill="#FFF"/><path fill="#000" d="M352.48 574.272h7.076v-2.712h-7.076"/><path d="M221.79 461.57v7.077" fill="#FFF"/><path fill="#000" d="M220.435 468.644h2.71v-7.077h-2.71"/><path d="M225.326 465.107h-7.072" fill="#FFF"/><path fill="#000" d="M218.25 466.463h7.077v-2.712h-7.076"/><path d="M580.414 438.516v7.077" fill="#FFF"/><path fill="#000" d="M579.056 445.592h2.712v-7.077h-2.712"/><path d="M583.95 442.054h-7.075" fill="#FFF"/><path fill="#000" d="M576.876 443.408h7.076v-2.712h-7.076"/><path d="M564.97 590.544v7.077" fill="#FFF"/><path fill="#0C8FD7" d="M563.612 597.62h2.71v-7.078h-2.71"/><path d="M568.506 594.082h-7.076" fill="#FFF"/><path fill="#0C8FD7" d="M561.43 595.44h7.077v-2.713h-7.076"/><path d="M264.794 226.29v7.074" fill="#FFF"/><path fill="#0C8FD7" d="M263.437 233.365h2.71v-7.077h-2.71"/><path d="M268.33 229.828h-7.075" fill="#FFF"/><path fill="#0C8FD7" d="M261.256 231.184h7.076v-2.71H261.256"/><path d="M282.125 612.094v7.077" fill="#FFF"/><path fill="#0C8FD7" d="M280.77 619.17h2.71v-7.078h-2.71"/><path d="M285.662 615.63h-7.076" fill="#FFF"/><path fill="#0C8FD7" d="M278.585 616.988h7.077v-2.712h-7.077"/><path fill="#000" d="M399.554 196.603h2.6v-2.6h-2.6M561.58 423.068h2.598v-2.6h-2.6M573.16 359.954h2.6v-2.6h-2.6M182.672 470.475h2.6v-2.6h-2.6"/><path fill="#0C8FD7" d="M301.933 468.384h2.6v-2.6h-2.6M459.214 224.97h2.6v-2.6h-2.6"/><path fill="#000" d="M335.15 547.04h2.6v-2.6h-2.6M273.46 404.65h2.598v-2.6h-2.6M539.885 264.975h2.6v-2.6h-2.6M276.282 297.52h2.6v-2.6h-2.6M475.594 538.9h2.6v-2.6h-2.6M548.81 517.993h2.6v-2.6h-2.6M502.656 570.823h2.6v-2.6h-2.6M666.66 490.082h2.6v-2.6h-2.6M236.172 504.998h2.6v-2.6h-2.6M605.08 245.422h2.598v-2.6h-2.6M402.323 577.605h2.6v-2.6h-2.6M284.983 372.105h2.6v-2.6h-2.6M258.545 361.254h2.6v-2.6h-2.6M585.306 399.904h2.6v-2.6h-2.6M508.7 543.08h2.6v-2.598h-2.6M474.128 201.352h2.6v-2.6h-2.6"/><path fill="#0C8FD7" d="M340.685 207.45h2.6v-2.6h-2.6"/><path fill="#000" d="M298.597 589.81h2.6v-2.6h-2.6"/><path fill="#0C8FD7" d="M537.174 611.453h2.6v-2.6h-2.6"/><path fill="#000" d="M565.08 565.346h2.6v-2.6h-2.6M571.07 534.834h2.6v-2.6h-2.6M283.63 655.523h2.598v-2.6h-2.6M313.515 638.628h2.6v-2.6h-2.6"/><path fill="#0C8FD7" d="M204.312 248.813h2.6v-2.6h-2.6"/><path fill="#000" d="M521.693 171.403h2.6v-2.6h-2.6M497.91 96.876h2.598v-2.6h-2.6M562.936 83.37h2.6v-2.6h-2.6M294.532 164h2.6v-2.6h-2.6"/><path fill="#0C8FD7" d="M133.97 229.043h2.6v-2.6h-2.6"/><path fill="#000" d="M314.814 230.506h2.6v-2.6h-2.6M554.178 336.903h2.6v-2.6h-2.6M543.387 458.89h2.6v-2.6h-2.6M436.84 534.834h2.6v-2.6h-2.6"/><path fill="#FFF" d="M208.575 311.728h15.052v-15.054h-15.052"/><path d="M209.933 310.374h12.34v-12.342h-12.34v12.342zm-2.712 2.71h17.764V295.32H207.22v17.765z" fill="#000"/><path fill="#FFF" d="M208.575 336.253h15.052V321.2h-15.052"/><path d="M209.933 334.895h12.34v-12.342h-12.34v12.342zm-2.712 2.712h17.764V319.84H207.22v17.767z" fill="#000"/><path fill="#FFF" d="M208.575 360.774h15.052V345.72h-15.052"/><path d="M209.933 359.416h12.34v-12.342h-12.34v12.342zm-2.712 2.715h17.764v-17.764H207.22v17.765z" fill="#000"/><path fill="#FFF" d="M208.575 385.295h15.052V370.24h-15.052"/><path d="M209.933 383.94h12.34V371.6h-12.34v12.34zm-2.712 2.713h17.764v-17.766H207.22v17.766z" fill="#000"/><path fill="#FFF" d="M208.575 409.82h15.052v-15.054h-15.052"/><path d="M209.933 408.462h12.34V396.12h-12.34v12.342zm-2.712 2.712h17.764V393.41H207.22v17.764z" fill="#000"/><path d="M441.36 249.942c0 6.99-8.802 12.656-19.662 12.656-10.856 0-19.658-5.665-19.658-12.656 0-6.99 8.802-12.656 19.658-12.656 10.86 0 19.662 5.666 19.662 12.656" fill="#FFF"/><path d="M421.7 238.642c-10.095 0-18.304 5.07-18.304 11.302 0 6.23 8.21 11.298 18.304 11.298 10.094 0 18.304-5.07 18.304-11.298 0-6.232-8.21-11.302-18.304-11.302m0 25.312c-11.59 0-21.016-6.287-21.016-14.01 0-7.727 9.427-14.014 21.016-14.014 11.59 0 21.015 6.287 21.015 14.014 0 7.723-9.426 14.01-21.015 14.01" fill="#000"/><path d="M439.078 253.446c0 5.055-7.78 9.153-17.38 9.153-9.596 0-17.376-4.1-17.376-9.154 0-5.056 7.78-9.154 17.376-9.154 9.6 0 17.38 4.098 17.38 9.154" fill="#0C8FD7"/><path d="M421.7 245.648c-8.687 0-16.023 3.572-16.023 7.796 0 4.228 7.336 7.8 16.023 7.8 8.686 0 16.022-3.572 16.022-7.8 0-4.224-7.336-7.796-16.022-7.796m0 18.307c-10.506 0-18.734-4.614-18.734-10.51 0-5.894 8.228-10.508 18.734-10.508 10.505 0 18.733 4.614 18.733 10.507 0 5.897-8.228 10.51-18.733 10.51" fill="#000"/><path d="M441.36 347.58c0 6.99-8.802 12.656-19.662 12.656-10.856 0-19.658-5.665-19.658-12.656 0-6.99 8.802-12.656 19.658-12.656 10.86 0 19.662 5.666 19.662 12.656" fill="#FFF"/><path d="M421.7 336.28c-10.095 0-18.304 5.07-18.304 11.298 0 6.232 8.21 11.302 18.304 11.302 10.094 0 18.304-5.07 18.304-11.302 0-6.23-8.21-11.298-18.304-11.298m0 25.312c-11.59 0-21.016-6.287-21.016-14.014 0-7.724 9.427-14.01 21.016-14.01 11.59 0 21.015 6.286 21.015 14.01 0 7.727-9.426 14.014-21.015 14.014" fill="#000"/><path d="M439.078 351.083c0 5.056-7.78 9.154-17.38 9.154-9.596 0-17.376-4.098-17.376-9.154 0-5.055 7.78-9.153 17.376-9.153 9.6 0 17.38 4.098 17.38 9.153" fill="#0C8FD7"/><path d="M421.7 343.286c-8.687 0-16.023 3.57-16.023 7.796 0 4.228 7.336 7.8 16.023 7.8 8.686 0 16.022-3.572 16.022-7.8 0-4.225-7.336-7.796-16.022-7.796m0 18.307c-10.506 0-18.734-4.615-18.734-10.51 0-5.894 8.228-10.51 18.734-10.51 10.505 0 18.733 4.616 18.733 10.51 0 5.895-8.228 10.51-18.733 10.51M420.18 262.375h2.71v-106.68h-2.71" fill="#000"/><path fill="#FFF" d="M417.3 181.517h8.472v-8.644H417.3"/><path d="M418.653 180.16h5.762v-5.933h-5.762v5.933zm-2.712 2.715h11.186V171.52H415.94v11.355z" fill="#000"/><path d="M483.214 164.958c0 6.395-5.185 11.576-11.575 11.576H371.43c-6.394 0-11.575-5.18-11.575-11.576V13.545c0-6.395 5.18-11.576 11.574-11.576h100.21c6.39 0 11.574 5.18 11.574 11.575v151.413z" fill="#FFF"/><path d="M371.43 3.324c-5.636 0-10.22 4.586-10.22 10.223V164.96c0 5.633 4.584 10.22 10.22 10.22h100.21c5.635 0 10.216-4.587 10.216-10.22V13.547c0-5.637-4.58-10.223-10.217-10.223H371.43zM471.64 177.89H371.43c-7.13 0-12.933-5.8-12.933-12.93V13.547c0-7.132 5.802-12.934 12.932-12.934h100.21c7.13 0 12.93 5.802 12.93 12.934V164.96c0 7.13-5.8 12.93-12.93 12.93z" fill="#000"/><path d="M367.145 158.693h108.777V17.673H367.145v141.02zm-2.71 2.712h114.198V14.96h-114.2v146.445z" fill="#000"/><path d="M426.493 168.303c0 2.74-2.22 4.96-4.96 4.96-2.737 0-4.957-2.22-4.957-4.96 0-2.74 2.22-4.96 4.957-4.96 2.74 0 4.96 2.22 4.96 4.96" fill="#FFF"/><path d="M421.534 164.7c-1.986 0-3.603 1.617-3.603 3.602 0 1.986 1.618 3.604 3.604 3.604s3.603-1.618 3.603-3.604c0-1.985-1.617-3.603-3.603-3.603m0 9.918c-3.484 0-6.314-2.83-6.314-6.316 0-3.48 2.83-6.315 6.314-6.315 3.48 0 6.314 2.835 6.314 6.315 0 3.485-2.834 6.316-6.314 6.316M413.367 10.707h16.337V7.995h-16.337M464.82 9.35c0 .573-.464 1.04-1.04 1.04-.573 0-1.038-.467-1.038-1.04 0-.575.465-1.04 1.04-1.04.574 0 1.04.465 1.04 1.04" fill="#000"/><path fill="#FFF" d="M381.21 150.338h80.646v-9.96H381.21"/><path d="M382.568 148.98h77.935v-7.247h-77.935v7.247zm-2.71 2.712h83.356v-12.67h-83.357v12.67zM379.954 131.392h2.712V82.566h-2.712M390.01 131.392h2.71V95.067h-2.71M400.067 131.392h2.71V70.85h-2.71M410.122 131.392h2.71V54.835h-2.71M420.18 131.392h2.71v-70.7h-2.71M430.234 131.392h2.712v-92.18h-2.712M440.292 131.392h2.712V54.835h-2.712M450.347 131.392h2.71v-83.98h-2.71M460.405 131.392h2.71V28.662h-2.71" fill="#000"/><path fill="#000" d="M381.308 132.75h80.45v-2.712h-80.45"/><path d="M416.862 34.48c0 2.996-5.422 10.655-5.422 10.655s-5.423-7.66-5.423-10.656c0-2.998 2.426-5.424 5.423-5.424 2.993 0 5.422 2.426 5.422 5.423" fill="#FFF"/><path d="M411.44 30.41c-2.243 0-4.07 1.825-4.07 4.07 0 1.478 2.12 5.265 4.07 8.244 1.95-2.98 4.068-6.766 4.068-8.243 0-2.245-1.827-4.07-4.07-4.07zm0 17.073l-1.11-1.563c-.945-1.34-5.67-8.18-5.67-11.44 0-3.74 3.043-6.78 6.78-6.78 3.736 0 6.78 3.04 6.78 6.78 0 3.26-4.727 10.1-5.672 11.44l-1.11 1.563z" fill="#000"/><path d="M572.57 398.12c-1.252-.812-2.437-1.58-3.183-1.265-.614.26-1.225.722-1.872 1.21-.758.577-1.542 1.17-2.477 1.56-1.648.682-3.655.246-5.654-1.232l-.058-.04c-1.192-.882-2.417-1.788-3.3-1.66-.716.107-1.522.71-2.376 1.347-.462.346-.942.703-1.46 1.027-1.774 1.106-3.983 1.1-5.764-.015-.51-.32-.978-.67-1.432-1.01-.86-.64-1.673-1.247-2.395-1.353-.93-.13-2.164.664-3.353 1.434-1.695 1.104-3.62 2.35-5.67 1.49-.927-.39-1.703-.98-2.454-1.548-.652-.494-1.268-.962-1.887-1.218-1.04-.432-2.475.494-3.04.91l-.056.042c-1.556 1.15-3.325 2.438-5.284 2.155-1.386-.21-2.504-1.044-3.585-1.853-.436-.326-.848-.635-1.27-.897l1.415-2.272c.518.324.995.68 1.458 1.027.853.636 1.66 1.24 2.38 1.348.89.14 2.108-.782 3.298-1.66l.056-.043c2-1.476 4.006-1.912 5.654-1.23.937.39 1.72.983 2.48 1.56.647.488 1.258.95 1.874 1.213.74.307 1.926-.456 3.177-1.267 1.53-.99 3.253-2.108 5.185-1.84 1.4.202 2.528 1.044 3.62 1.858.428.32.836.626 1.253.887.918.576 2.01.58 2.927.01.422-.264.837-.57 1.274-.9 1.078-.806 2.195-1.64 3.58-1.85 1.313-.2 2.543.32 3.68 1.032.557.348 1.092.743 1.603 1.12l.058.044c.567.418 1.996 1.344 3.04.912.622-.256 1.236-.724 1.888-1.218.75-.57 1.528-1.157 2.453-1.548 2.056-.864 3.98.39 5.675 1.488 1.187.772 2.42 1.564 3.352 1.434.722-.103 1.532-.71 2.393-1.353.453-.338.923-.688 1.43-1.008 1.783-1.115 3.99-1.12 5.766-.014l-1.415 2.272c-.913-.57-2.008-.566-2.927.01-.415.26-.822.564-1.254.885-1.09.816-2.22 1.658-3.614 1.86-.202.028-.4.04-.597.04-1.694 0-3.224-.993-4.59-1.88zM270.57 418.12c-1.252-.812-2.437-1.58-3.183-1.265-.614.26-1.225.722-1.872 1.21-.758.577-1.542 1.17-2.477 1.56-1.648.682-3.655.246-5.654-1.232l-.058-.04c-1.192-.882-2.417-1.788-3.3-1.66-.716.107-1.522.71-2.376 1.347-.462.346-.942.703-1.46 1.027-1.774 1.106-3.983 1.1-5.764-.015-.51-.32-.978-.67-1.432-1.01-.86-.64-1.673-1.247-2.395-1.353-.93-.13-2.164.664-3.353 1.434-1.695 1.104-3.62 2.35-5.67 1.49-.927-.39-1.703-.98-2.454-1.548-.652-.494-1.268-.962-1.887-1.218-1.04-.432-2.475.494-3.04.91l-.056.042c-1.556 1.15-3.325 2.438-5.284 2.155-1.386-.21-2.504-1.044-3.585-1.853-.436-.326-.848-.635-1.27-.897l1.415-2.272c.518.324.995.68 1.458 1.027.853.636 1.66 1.24 2.38 1.348.89.14 2.108-.782 3.298-1.66l.056-.043c2-1.476 4.006-1.912 5.654-1.23.937.39 1.72.983 2.48 1.56.647.488 1.258.95 1.874 1.213.74.307 1.926-.456 3.177-1.267 1.53-.99 3.253-2.108 5.185-1.84 1.4.202 2.528 1.044 3.62 1.858.428.32.836.626 1.253.887.918.576 2.01.58 2.927.01.422-.264.837-.57 1.274-.9 1.078-.806 2.195-1.64 3.58-1.85 1.313-.2 2.543.32 3.68 1.032.557.348 1.092.743 1.603 1.12l.058.044c.567.418 1.996 1.344 3.04.912.622-.256 1.236-.724 1.888-1.218.75-.57 1.528-1.157 2.453-1.548 2.056-.864 3.98.39 5.675 1.488 1.187.772 2.42 1.564 3.352 1.434.722-.103 1.532-.71 2.393-1.353.453-.338.923-.688 1.43-1.008 1.783-1.115 3.99-1.12 5.766-.014l-1.415 2.272c-.913-.57-2.008-.566-2.927.01-.415.26-.822.564-1.254.885-1.09.816-2.22 1.658-3.614 1.86-.202.028-.4.04-.597.04-1.694 0-3.224-.993-4.59-1.88z" fill="#0C8FD7"/></g></svg>