<?xml version="1.0" encoding="UTF-8"?>
<svg width="175px" height="175px" viewBox="0 0 175 175" version="1.1" xmlns="http://www.w3.org/2000/svg" xmlns:xlink="http://www.w3.org/1999/xlink">
    <!-- Generator: sketchtool 40 (33762) - http://www.bohemiancoding.com/sketch -->
    <title>DB293389-B3E7-4464-91E2-5A32EAC11ED1</title>
    <desc>Created with sketchtool.</desc>
    <defs></defs>
    <g id="ENTERPRISE" stroke="none" stroke-width="1" fill="none" fill-rule="evenodd">
        <g transform="translate(-910.000000, -2116.000000)" id="DISCOUNTS">
            <g transform="translate(245.000000, 1985.000000)">
                <g id="Group" transform="translate(0.000000, 95.000000)">
                    <g id="EDUCATION" transform="translate(590.000000, 37.000000)">
                        <g id="ICON" transform="translate(76.000000, 0.000000)">
                            <path d="M84.0875,82.8007 C84.0875,87.7167 80.1025,91.7017 75.1865,91.7017 C70.2715,91.7017 66.2865,87.7167 66.2865,82.8007 C66.2865,77.8847 70.2715,73.8997 75.1865,73.8997 C80.1025,73.8997 84.0875,77.8847 84.0875,82.8007" id="Fill-1" fill="#FFFFFF"></path>
                            <path d="M84.0875,82.8007 C84.0875,87.7167 80.1025,91.7017 75.1865,91.7017 C70.2715,91.7017 66.2865,87.7167 66.2865,82.8007 C66.2865,77.8847 70.2715,73.8997 75.1865,73.8997 C80.1025,73.8997 84.0875,77.8847 84.0875,82.8007 L84.0875,82.8007 Z" id="Stroke-3" stroke="#1385E0" stroke-width="2"></path>
                            <path d="M172.9262,86.4629 C172.9262,134.2149 134.2152,172.9259 86.4632,172.9259 C38.7112,172.9259 0.0002,134.2149 0.0002,86.4629 C0.0002,38.7109 38.7112,-0.0001 86.4632,-0.0001 C134.2152,-0.0001 172.9262,38.7109 172.9262,86.4629 L172.9262,86.4629 Z" id="Stroke-5" stroke="#1385E0" stroke-width="2"></path>
                            <polygon id="Fill-7" fill="#FFFFFF" points="38.8112 53.7675 86.9162 92.1865 135.0202 53.7675 86.9162 15.3485"></polygon>
                            <polygon id="Stroke-9" stroke="#1385E0" stroke-width="2" points="38.8112 53.7675 86.9162 92.1865 135.0202 53.7675 86.9162 15.3485"></polygon>
                            <g id="Group-14" transform="translate(58.000000, 53.926000)">
                                <path d="M50.3024,0.2268 C54.7624,5.2648 57.4704,11.8898 57.4704,19.1468 C57.4704,34.9168 44.6854,47.7008 28.9154,47.7008 C13.1454,47.7008 0.3614,34.9168 0.3614,19.1468 C0.3614,12.4468 2.6694,6.2848 6.5344,1.4138" id="Fill-11" fill="#FFFFFF"></path>
                                <path d="M50.3024,0.2268 C54.7624,5.2648 57.4704,11.8898 57.4704,19.1468 C57.4704,34.9168 44.6854,47.7008 28.9154,47.7008 C13.1454,47.7008 0.3614,34.9168 0.3614,19.1468 C0.3614,12.4468 2.6694,6.2848 6.5344,1.4138" id="Stroke-13" stroke="#1385E0" stroke-width="2"></path>
                            </g>
                            <path d="M86.9158,101.3636 C66.9228,101.3636 49.5138,112.2896 40.2328,128.4726 C49.5138,144.6556 66.9228,155.5816 86.9158,155.5816 C106.9088,155.5816 124.3178,144.6556 133.5988,128.4726 C124.3178,112.2896 106.9088,101.3636 86.9158,101.3636" id="Fill-15" fill="#C4E1F8"></path>
                            <path d="M86.9158,101.3636 C66.9228,101.3636 49.5138,112.2896 40.2328,128.4726 C49.5138,144.6556 66.9228,155.5816 86.9158,155.5816 C106.9088,155.5816 124.3178,144.6556 133.5988,128.4726 C124.3178,112.2896 106.9088,101.3636 86.9158,101.3636 L86.9158,101.3636 Z" id="Stroke-17" stroke="#1385E0" stroke-width="2"></path>
                            <path d="M112.1484,61.3992 C96.1564,57.0242 76.8264,57.0242 60.8344,61.3992 L60.8344,52.4182 C78.4344,47.6032 94.5484,47.6032 112.1484,52.4182 L112.1484,61.3992 Z" id="Fill-19" fill="#C4E1F8"></path>
                            <path d="M112.1484,61.3992 C96.1564,57.0242 76.8264,57.0242 60.8344,61.3992 L60.8344,52.4182 C78.4344,47.6032 94.5484,47.6032 112.1484,52.4182 L112.1484,61.3992 L112.1484,61.3992 Z" id="Stroke-21" stroke="#1385E0" stroke-width="2"></path>
                        </g>
                    </g>
                </g>
            </g>
        </g>
    </g>
</svg>