<svg width="175" height="175" viewBox="0 0 175 175" xmlns="http://www.w3.org/2000/svg"><title>DB293389-B3E7-4464-91E2-5A32EAC11ED1</title><g fill="none" fill-rule="evenodd"><path d="M85.088 83.8a8.9 8.9 0 1 1-8.901-8.9 8.9 8.9 0 0 1 8.9 8.9" fill="#FFF"/><path d="M85.088 83.8a8.9 8.9 0 1 1-8.901-8.9 8.9 8.9 0 0 1 8.9 8.9z" stroke="#1385E0" stroke-width="2"/><path d="M173.926 87.463c0 47.752-38.71 86.463-86.463 86.463C39.711 173.926 1 135.215 1 87.463 1 39.71 39.711 1 87.463 1c47.752 0 86.463 38.71 86.463 86.463z" stroke="#1385E0" stroke-width="2"/><path fill="#FFF" d="M39.811 54.767l48.105 38.42 48.104-38.42-48.104-38.419z"/><path stroke="#1385E0" stroke-width="2" d="M39.811 54.767l48.105 38.42 48.104-38.42-48.104-38.419z"/><path d="M109.302 55.153a28.448 28.448 0 0 1 7.168 18.92c0 15.77-12.785 28.554-28.555 28.554S59.361 89.843 59.361 74.073c0-6.7 2.308-12.862 6.173-17.733" fill="#FFF"/><path d="M109.302 55.153a28.448 28.448 0 0 1 7.168 18.92c0 15.77-12.785 28.554-28.555 28.554S59.361 89.843 59.361 74.073c0-6.7 2.308-12.862 6.173-17.733" stroke="#1385E0" stroke-width="2"/><path d="M87.916 102.364c-19.993 0-37.402 10.926-46.683 27.109 9.28 16.183 26.69 27.109 46.683 27.109s37.402-10.926 46.683-27.11c-9.281-16.182-26.69-27.108-46.683-27.108" fill="#C4E1F8"/><path d="M87.916 102.364c-19.993 0-37.402 10.926-46.683 27.109 9.28 16.183 26.69 27.109 46.683 27.109s37.402-10.926 46.683-27.11c-9.281-16.182-26.69-27.108-46.683-27.108z" stroke="#1385E0" stroke-width="2"/><path d="M113.148 62.4c-15.992-4.376-35.322-4.376-51.314 0v-8.982c17.6-4.815 33.714-4.815 51.314 0V62.4z" fill="#C4E1F8"/><path d="M113.148 62.4c-15.992-4.376-35.322-4.376-51.314 0v-8.982c17.6-4.815 33.714-4.815 51.314 0V62.4z" stroke="#1385E0" stroke-width="2"/></g></svg>