<?xml version="1.0" encoding="UTF-8"?>
<svg enable-background="new 0 0 1920 1080" version="1.1" viewBox="0 0 1920 1080" xml:space="preserve" xmlns="http://www.w3.org/2000/svg" xmlns:cc="http://creativecommons.org/ns#" xmlns:dc="http://purl.org/dc/elements/1.1/" xmlns:rdf="http://www.w3.org/1999/02/22-rdf-syntax-ns#" xmlns:xlink="http://www.w3.org/1999/xlink"><metadata><rdf:RDF><cc:Work rdf:about=""><dc:format>image/svg+xml</dc:format><dc:type rdf:resource="http://purl.org/dc/dcmitype/StillImage"/><dc:title/></cc:Work></rdf:RDF></metadata><defs><defs><rect id="SVGID_13_" width="1920" height="1080"/></defs><clipPath id="SVGID_14_"><use width="100%" height="100%" overflow="visible" xlink:href="#SVGID_13_"/></clipPath><defs><rect id="SVGID_11_" width="1920" height="1080"/></defs><clipPath id="SVGID_12_"><use width="100%" height="100%" overflow="visible" xlink:href="#SVGID_11_"/></clipPath><defs><rect id="SVGID_9_" width="1920" height="1080"/></defs><clipPath id="SVGID_10_"><use width="100%" height="100%" overflow="visible" xlink:href="#SVGID_9_"/></clipPath><defs><rect id="SVGID_7_" width="1920" height="1080"/></defs><clipPath id="SVGID_8_"><use width="100%" height="100%" overflow="visible" xlink:href="#SVGID_7_"/></clipPath><defs><rect id="SVGID_5_" width="1920" height="1080"/></defs><clipPath id="SVGID_6_"><use width="100%" height="100%" overflow="visible" xlink:href="#SVGID_5_"/></clipPath><defs><rect id="SVGID_3_" width="1920" height="1080"/></defs><clipPath id="SVGID_4_"><use width="100%" height="100%" overflow="visible" xlink:href="#SVGID_3_"/></clipPath><defs><rect id="SVGID_1_" width="1920" height="1080"/></defs><clipPath id="SVGID_2_"><use width="100%" height="100%" overflow="visible" xlink:href="#SVGID_1_"/></clipPath><defs><rect id="SVGID_1_-6" x="-262" y="-277" width="1920" height="1080"/></defs><clipPath id="SVGID_2_-7"><use width="100%" height="100%" overflow="visible" xlink:href="#SVGID_1_-6"/></clipPath><rect x="-262" y="-277" width="1920" height="1080"/></defs><path transform="matrix(.92497 0 0 .92497 111.28 72.739)" d="m632.11 708.48h8.923c8.876 0 16.072 7.195 16.072 16.071v55.836" clip-path="url(#SVGID_2_)" fill="none" stroke="#000" stroke-miterlimit="10" stroke-width="6"/><polyline transform="matrix(.92497 0 0 .92497 111.28 72.739)" points="639.43 744.31 639.43 780.38 422.4 780.38 422.4 607.93 639.43 607.93 639.43 727.97" clip-path="url(#SVGID_2_)" fill="#fff"/><g fill="none" stroke-miterlimit="10" stroke-width="6"><polyline transform="matrix(.92497 0 0 .92497 111.28 72.739)" points="639.43 744.31 639.43 780.38 422.4 780.38 422.4 607.93 639.43 607.93 639.43 727.97" clip-path="url(#SVGID_2_)" stroke="#000"/><path transform="matrix(.92497 0 0 .92497 111.28 72.739)" d="m555.46 716.81c0 11.147-6.639 20.745-16.167 25.045-0.419 0.199-0.849 0.38-1.289 0.55-3.11 1.229-6.489 1.899-10.028 1.899-14.267 0-25.995-10.878-27.354-24.795-0.09-0.889-0.13-1.789-0.13-2.699 0-1.739 0.16-3.43 0.48-5.079 2.37-12.747 13.567-22.403 27.004-22.403 15.177 0 27.484 12.306 27.484 27.482z" clip-path="url(#SVGID_2_)" stroke="#000"/><circle transform="matrix(.92497 0 0 .92497 111.28 72.739)" cx="471.34" cy="646.07" r="7.187" clip-path="url(#SVGID_2_)" stroke="#1183c5"/><g stroke="#000"><circle transform="matrix(.92497 0 0 .92497 111.28 72.739)" cx="507.68" cy="646.07" r="7.187" clip-path="url(#SVGID_2_)"/><circle transform="matrix(.92497 0 0 .92497 111.28 72.739)" cx="544.02" cy="646.07" r="7.187" clip-path="url(#SVGID_2_)"/><line transform="matrix(.92497 0 0 .92497 111.28 72.739)" x1="387" x2="666" y1="780.38" y2="780.38" clip-path="url(#SVGID_2_)"/><path transform="matrix(.92497 0 0 .92497 111.28 72.739)" d="m405.16 780.38v-95.235c0-8.65 7.013-15.663 15.664-15.663h1.569" clip-path="url(#SVGID_2_)"/><polyline transform="matrix(.92497 0 0 .92497 111.28 72.739)" points="471.34 670.69 447.38 670.69 447.38 621.7 612.91 621.7 612.91 670.69 487.65 670.69" clip-path="url(#SVGID_2_)"/><line transform="matrix(.92497 0 0 .92497 111.28 72.739)" x1="464.15" x2="464.15" y1="607.93" y2="596.22" clip-path="url(#SVGID_2_)"/><line transform="matrix(.92497 0 0 .92497 111.28 72.739)" x1="481.15" x2="481.15" y1="607.93" y2="589.5" clip-path="url(#SVGID_2_)"/><line transform="matrix(.92497 0 0 .92497 111.28 72.739)" x1="573.13" x2="573.13" y1="607.93" y2="589.5" clip-path="url(#SVGID_2_)"/><line transform="matrix(.92497 0 0 .92497 111.28 72.739)" x1="589.12" x2="589.12" y1="607.93" y2="596.22" clip-path="url(#SVGID_2_)"/><circle transform="matrix(.92497 0 0 .92497 111.28 72.739)" cx="588.48" cy="647.13" r="12.997" clip-path="url(#SVGID_2_)"/></g></g><path transform="matrix(.92497 0 0 .92497 111.28 72.739)" d="m585.63 647.13c0 1.578 1.279 2.857 2.857 2.857 1.579 0 2.858-1.279 2.858-2.857s-1.279-2.857-2.858-2.857c-1.578-1e-3 -2.857 1.279-2.857 2.857" clip-path="url(#SVGID_2_)"/><path transform="matrix(.92497 0 0 .92497 111.28 72.739)" d="m523.95 725.54c0 2.239-1.815 4.055-4.055 4.055-2.239 0-4.054-1.815-4.054-4.055s1.815-4.055 4.054-4.055c2.24 0 4.055 1.816 4.055 4.055" clip-path="url(#SVGID_2_)" fill="#fff"/><circle transform="matrix(.92497 0 0 .92497 111.28 72.739)" cx="527.98" cy="716.82" r="16.038" clip-path="url(#SVGID_2_)" fill="none" stroke="#000" stroke-miterlimit="10" stroke-width="6"/><path transform="matrix(.92497 0 0 .92497 111.28 72.739)" d="m536 716.82c0 4.431-3.592 8.022-8.022 8.022-4.431 0-8.023-3.592-8.023-8.022s3.592-8.022 8.023-8.022c4.43 0 8.022 3.592 8.022 8.022" clip-path="url(#SVGID_2_)"/><path transform="matrix(.92497 0 0 .92497 111.28 72.739)" d="m546 708.33c0 4.984-4.041 9.025-9.026 9.025s-9.026-4.041-9.026-9.025c0-4.985 4.041-9.026 9.026-9.026s9.026 4.041 9.026 9.026" clip-path="url(#SVGID_2_)" fill="#fff"/><path transform="matrix(.92497 0 0 .92497 111.28 72.739)" d="m1184.6 624.5c-5.642 0-5.642 4-11.283 4s-5.641-4-11.28-4c-5.642 0-5.642 4-11.283 4-5.644 0-5.644-4-11.287-4-5.642 0-5.642 4-11.283 4-5.646 0-5.646-4-11.291-4-5.646 0-5.646 4-11.292 4" clip-path="url(#SVGID_4_)" fill="#fff"/><g fill="none" stroke-miterlimit="10" stroke-width="6"><path transform="matrix(.92497 0 0 .92497 111.28 72.739)" d="m1184.6 624.5c-5.642 0-5.642 4-11.283 4s-5.641-4-11.28-4c-5.642 0-5.642 4-11.283 4-5.644 0-5.644-4-11.287-4-5.642 0-5.642 4-11.283 4-5.646 0-5.646-4-11.291-4-5.646 0-5.646 4-11.292 4" clip-path="url(#SVGID_4_)" stroke="#1183c5"/><line transform="matrix(.92497 0 0 .92497 111.28 72.739)" x1="1396.6" x2="1390.6" y1="560.5" y2="560.5" clip-path="url(#SVGID_4_)" stroke="#000"/><line transform="matrix(.92497 0 0 .92497 111.28 72.739)" x1="1375.6" x2="1369.6" y1="560.5" y2="560.5" clip-path="url(#SVGID_4_)" stroke="#000"/></g><path transform="matrix(.92497 0 0 .92497 111.28 72.739)" d="m347.63 829.5c-5.642 0-5.642 4-11.284 4-5.64 0-5.64-4-11.28-4-5.642 0-5.642 4-11.283 4-5.644 0-5.644-4-11.287-4" clip-path="url(#SVGID_4_)" fill="#fff"/><g fill="none" stroke-miterlimit="10" stroke-width="6"><path transform="matrix(.92497 0 0 .92497 111.28 72.739)" d="m347.63 829.5c-5.642 0-5.642 4-11.284 4-5.64 0-5.64-4-11.28-4-5.642 0-5.642 4-11.283 4-5.644 0-5.644-4-11.287-4" clip-path="url(#SVGID_4_)" stroke="#1183c5"/><g stroke="#000"><line transform="matrix(.92497 0 0 .92497 111.28 72.739)" x1="803" x2="795" y1="535" y2="543" clip-path="url(#SVGID_4_)"/><line transform="matrix(.92497 0 0 .92497 111.28 72.739)" x1="768" x2="776" y1="535" y2="543" clip-path="url(#SVGID_4_)"/><line transform="matrix(.92497 0 0 .92497 111.28 72.739)" x1="785" x2="785" y1="556" y2="566" clip-path="url(#SVGID_4_)"/></g></g><line transform="matrix(.92497 0 0 .92497 511.28 72.739)" x1="1224.6" x2="1215.6" y1="905.5" y2="905.5" clip-path="url(#SVGID_4_)" fill="#fff"/><line transform="matrix(.92497 0 0 .92497 511.28 72.739)" x1="1224.6" x2="1215.6" y1="905.5" y2="905.5" clip-path="url(#SVGID_4_)" fill="none" stroke="#1183c5" stroke-miterlimit="10" stroke-width="6"/><line transform="matrix(.92497 0 0 .92497 511.28 72.739)" x1="1189.6" x2="1180.6" y1="905.5" y2="905.5" clip-path="url(#SVGID_4_)" fill="#fff"/><line transform="matrix(.92497 0 0 .92497 511.28 72.739)" x1="1189.6" x2="1180.6" y1="905.5" y2="905.5" clip-path="url(#SVGID_4_)" fill="none" stroke="#1183c5" stroke-miterlimit="10" stroke-width="6"/><path transform="matrix(.92497 0 0 .92497 111.28 72.739)" d="m1523.6 542.5c-13-10-26-16-45-23" clip-path="url(#SVGID_4_)" fill="none" stroke="#000" stroke-miterlimit="10" stroke-width="6"/><path transform="matrix(.92497 0 0 .92497 511.28 72.739)" d="m1314.6 882.5c-1.008 7.273-6.728 12.991-14 14 7.272 1.009 12.992 6.727 14 14 1.009-7.273 6.727-12.991 14-14-7.274-1.009-12.991-6.727-14-14" clip-path="url(#SVGID_4_)" fill="#fff"/><path transform="matrix(.92497 0 0 .92497 511.28 72.739)" d="m1314.6 882.5v0c-1.008 7.273-6.728 12.991-14 14 7.272 1.009 12.992 6.727 14 14 1.009-7.273 6.727-12.991 14-14-7.274-1.009-12.991-6.727-14-14z" clip-path="url(#SVGID_4_)" fill="none" stroke="#1183c5" stroke-linecap="square" stroke-linejoin="bevel" stroke-miterlimit="10" stroke-width="6"/><path transform="matrix(.92497 0 0 .92497 111.28 72.739)" d="m770.63 910.5c-1.009 7.273-6.727 12.991-14 14 7.273 1.009 12.991 6.727 14 14 1.008-7.273 6.727-12.991 14-14-7.273-1.009-12.992-6.727-14-14" clip-path="url(#SVGID_4_)" fill="#fff"/><path transform="matrix(.92497 0 0 .92497 111.28 72.739)" d="m770.63 910.5v0c-1.009 7.273-6.727 12.991-14 14 7.273 1.009 12.991 6.727 14 14 1.008-7.273 6.727-12.991 14-14-7.273-1.009-12.992-6.727-14-14z" clip-path="url(#SVGID_4_)" fill="none" stroke="#1183c5" stroke-linecap="square" stroke-linejoin="bevel" stroke-miterlimit="10" stroke-width="6"/><line transform="matrix(.92497 0 0 .92497 111.28 72.739)" x1="1314.6" x2="1262.6" y1="303.5" y2="303.5" clip-path="url(#SVGID_4_)" fill="none" stroke="#000" stroke-miterlimit="10" stroke-width="6"/><line transform="matrix(.92497 0 0 .92497 111.28 72.739)" x1="631.63" x2="598.63" y1="303.5" y2="303.5" clip-path="url(#SVGID_4_)" fill="#fff"/><line transform="matrix(.92497 0 0 .92497 111.28 72.739)" x1="631.63" x2="598.63" y1="303.5" y2="303.5" clip-path="url(#SVGID_4_)" fill="none" stroke="#1183c5" stroke-linecap="square" stroke-linejoin="bevel" stroke-miterlimit="10" stroke-width="6"/><line transform="matrix(.92497 0 0 .92497 111.28 72.739)" x1="511.63" x2="511.63" y1="377.5" y2="410.5" clip-path="url(#SVGID_4_)" fill="none" stroke="#000" stroke-miterlimit="10" stroke-width="6"/><line transform="matrix(.92497 0 0 .92497 111.28 72.739)" x1="983.63" x2="983.63" y1="444.5" y2="472.5" clip-path="url(#SVGID_4_)" fill="#fff"/><g fill="none" stroke-miterlimit="10" stroke-width="6"><line transform="matrix(.92497 0 0 .92497 111.28 72.739)" x1="983.63" x2="983.63" y1="444.5" y2="472.5" clip-path="url(#SVGID_4_)" stroke="#1183c5" stroke-linecap="square" stroke-linejoin="bevel"/><line transform="matrix(.92497 0 0 .92497 111.28 72.739)" x1="1423.6" x2="1423.6" y1="405.5" y2="433.5" clip-path="url(#SVGID_4_)" stroke="#000"/><line transform="matrix(.92497 0 0 .92497 111.28 72.739)" x1="983.63" x2="983.63" y1="491.5" y2="504.5" clip-path="url(#SVGID_4_)" stroke="#000"/></g><line transform="matrix(.92497 0 0 .92497 111.28 72.739)" x1="1338.6" x2="1362.6" y1="303.5" y2="303.5" clip-path="url(#SVGID_4_)" fill="#fff"/><g fill="none" stroke-miterlimit="10" stroke-width="6"><line transform="matrix(.92497 0 0 .92497 111.28 72.739)" x1="1338.6" x2="1362.6" y1="303.5" y2="303.5" clip-path="url(#SVGID_4_)" stroke="#1183c5" stroke-linecap="square" stroke-linejoin="bevel"/><g stroke="#000"><line transform="matrix(.92497 0 0 .92497 111.28 72.739)" x1="1327" x2="1450" y1="758" y2="758" clip-path="url(#SVGID_4_)" stroke-linejoin="round"/><line transform="matrix(.92497 0 0 .92497 111.28 72.739)" x1="1480" x2="1551" y1="758" y2="758" clip-path="url(#SVGID_4_)" stroke-linejoin="round"/><line transform="matrix(.92497 0 0 .92497 111.28 72.739)" x1="610.48" x2="567.25" y1="767.3" y2="767.3" clip-path="url(#SVGID_4_)"/><line transform="matrix(.92497 0 0 .92497 111.28 72.739)" x1="627.04" x2="621.04" y1="767.3" y2="767.3" clip-path="url(#SVGID_4_)"/><line transform="matrix(.92497 0 0 .92497 111.28 72.739)" x1="639.13" x2="625.09" y1="554" y2="569.61" clip-path="url(#SVGID_4_)"/><line transform="matrix(.92497 0 0 .92497 111.28 72.739)" x1="639.92" x2="624.31" y1="568.83" y2="554.79" clip-path="url(#SVGID_4_)"/></g></g><path transform="matrix(.92497 0 0 .92497 111.28 72.739)" d="m325.93 517.15c-1.337 7.219-7.307 12.67-14.617 13.349 7.219 1.337 12.671 7.306 13.348 14.616 1.337-7.219 7.307-12.67 14.617-13.348-7.219-1.336-12.67-7.307-13.348-14.617" clip-path="url(#SVGID_4_)" fill="#fff"/><path transform="matrix(.92497 0 0 .92497 111.28 72.739)" d="m325.93 517.15v0c-1.337 7.219-7.307 12.67-14.617 13.349 7.219 1.337 12.671 7.306 13.348 14.616 1.337-7.219 7.307-12.67 14.617-13.348-7.219-1.336-12.67-7.307-13.348-14.617z" clip-path="url(#SVGID_4_)" fill="none" stroke="#1183c5" stroke-linecap="round" stroke-linejoin="round" stroke-miterlimit="10" stroke-width="6"/><path transform="matrix(.92497 0 0 .92497 111.28 72.739)" d="m608.12 541.48c-13.434-9.41-26.688-14.823-45.982-20.969" clip-path="url(#SVGID_4_)" fill="none" stroke="#000" stroke-miterlimit="10" stroke-width="6"/><path transform="matrix(.92497 0 0 .92497 111.28 72.739)" d="m1583.8 674.11c0.428 2.547 2.838 4.265 5.385 3.837 2.547-0.427 4.264-2.838 3.837-5.385-0.427-2.546-2.838-4.264-5.385-3.837-2.546 0.428-4.264 2.838-3.837 5.385" clip-path="url(#SVGID_4_)"/><g fill="none" stroke-miterlimit="10"><g stroke-width="6"><line transform="matrix(.92497 0 0 .92497 111.28 72.739)" x1="1520.9" x2="1516" y1="731.66" y2="731.66" clip-path="url(#SVGID_4_)" stroke="#000"/><line transform="matrix(.92497 0 0 .92497 111.28 72.739)" x1="1537.4" x2="1532.5" y1="731.66" y2="731.66" clip-path="url(#SVGID_4_)" stroke="#000"/><line transform="matrix(.92497 0 0 .92497 111.28 72.739)" x1="1357.9" x2="1390.9" y1="736.82" y2="736.82" clip-path="url(#SVGID_4_)" stroke="#1183c5"/></g><g stroke="#000" stroke-linejoin="round"><line x1="1315.4" x2="1315.4" y1="692.38" y2="675.99" stroke-width="5.5498"/><polyline transform="matrix(.92497 0 0 .92497 111.28 72.739)" points="1301.8 646.51 1301.8 633.77 1400.4 633.77 1400.4 747.06 1301.8 747.06 1301.8 675.79" stroke-width="6"/><polyline transform="matrix(.92497 0 0 .92497 111.28 72.739)" points="1454.4 706.14 1454.4 633.77 1553 633.77 1553 747.06 1454.4 747.06 1454.4 720.39" stroke-width="6"/><line x1="1284.1" x2="1580.1" y1="763.75" y2="763.75" stroke-width="5.5498"/><g stroke-width="6"><path transform="matrix(.92497 0 0 .92497 111.28 72.739)" d="m1286.4 747.06v-25.487c0-8.526 6.912-15.438 15.438-15.438" clip-path="url(#SVGID_6_)"/><path transform="matrix(.92497 0 0 .92497 111.28 72.739)" d="m1553 693.72c10.797 0 19.549 8.752 19.549 19.549v33.799" clip-path="url(#SVGID_6_)"/><line transform="matrix(.92497 0 0 .92497 111.28 72.739)" x1="1400.4" x2="1454.4" y1="654.72" y2="654.72" clip-path="url(#SVGID_6_)"/><circle transform="matrix(.92497 0 0 .92497 111.28 72.739)" cx="1319.8" cy="664.77" r="6.773" clip-path="url(#SVGID_6_)"/></g></g><g stroke-width="6"><circle transform="matrix(.92497 0 0 .92497 111.28 72.739)" cx="1351.1" cy="664.77" r="6.773" clip-path="url(#SVGID_6_)" stroke="#1183c5"/><circle transform="matrix(.92497 0 0 .92497 111.28 72.739)" cx="1382.4" cy="664.77" r="6.773" clip-path="url(#SVGID_6_)" stroke="#000" stroke-linejoin="round"/><circle transform="matrix(.92497 0 0 .92497 111.28 72.739)" cx="1319.8" cy="690.41" r="6.773" clip-path="url(#SVGID_6_)" stroke="#000" stroke-linejoin="round"/><circle transform="matrix(.92497 0 0 .92497 111.28 72.739)" cx="1351.1" cy="690.41" r="6.773" clip-path="url(#SVGID_6_)" stroke="#1183c5"/><circle transform="matrix(.92497 0 0 .92497 111.28 72.739)" cx="1382.4" cy="690.41" r="6.773" clip-path="url(#SVGID_6_)" stroke="#1183c5"/><circle transform="matrix(.92497 0 0 .92497 111.28 72.739)" cx="1472.4" cy="664.77" r="6.773" clip-path="url(#SVGID_6_)" stroke="#000" stroke-linejoin="round"/><circle transform="matrix(.92497 0 0 .92497 111.28 72.739)" cx="1503.7" cy="664.77" r="6.773" clip-path="url(#SVGID_6_)" stroke="#1183c5"/><circle transform="matrix(.92497 0 0 .92497 111.28 72.739)" cx="1535" cy="664.77" r="6.773" clip-path="url(#SVGID_6_)" stroke="#000" stroke-linejoin="round"/><circle transform="matrix(.92497 0 0 .92497 111.28 72.739)" cx="1472.4" cy="690.41" r="6.773" clip-path="url(#SVGID_6_)" stroke="#1183c5"/><circle transform="matrix(.92497 0 0 .92497 111.28 72.739)" cx="1503.7" cy="690.41" r="6.773" clip-path="url(#SVGID_6_)" stroke="#1183c5"/></g><g stroke="#000" stroke-width="6"><g stroke-linejoin="round"><circle transform="matrix(.92497 0 0 .92497 111.28 72.739)" cx="1535" cy="690.41" r="6.773" clip-path="url(#SVGID_6_)"/><line transform="matrix(.92497 0 0 .92497 111.28 72.739)" x1="1324.6" x2="1324.6" y1="633.77" y2="619" clip-path="url(#SVGID_6_)"/><line transform="matrix(.92497 0 0 .92497 111.28 72.739)" x1="1338.1" x2="1338.1" y1="633.77" y2="626.38" clip-path="url(#SVGID_6_)"/><line transform="matrix(.92497 0 0 .92497 111.28 72.739)" x1="1493.7" x2="1493.7" y1="633.77" y2="621.05" clip-path="url(#SVGID_6_)"/><path transform="matrix(.92497 0 0 .92497 111.28 72.739)" d="m1400.4 717.79c7.072 0 12.806 5.733 12.806 12.806v16.467" clip-path="url(#SVGID_6_)"/></g><polygon transform="matrix(.92497 0 0 .92497 111.28 72.739)" points="875 897 1070 897 1070 597 952.88 597 911.31 597 875 597"/></g></g><rect x="1004.8" y="685.07" width="11.1" height="88.797" fill="#fff" stroke-width=".92497"/><rect x="1004.8" y="685.07" width="11.1" height="88.797" fill="none" stroke="#000" stroke-miterlimit="10" stroke-width="5.5498"/><polyline transform="matrix(.92497 0 0 .92497 111.28 72.739)" points="1025 643 1049 643 1049 682 896 682 896 643 1025 642.95" fill="#fff"/><polyline transform="matrix(.92497 0 0 .92497 111.28 72.739)" points="1025 643 1049 643 1049 682 896 682 896 643 1025 642.95" fill="none" stroke="#000" stroke-miterlimit="10" stroke-width="6"/><circle transform="matrix(.92497 0 0 .92497 111.28 72.739)" cx="922" cy="663" r="10" clip-path="url(#SVGID_8_)" fill="none" stroke="#1183c5" stroke-miterlimit="10" stroke-width="6"/><path transform="matrix(.92497 0 0 .92497 111.28 72.739)" d="m994 662c0 2.762-2.238 5-5 5s-5-2.238-5-5 2.238-5 5-5 5 2.238 5 5" clip-path="url(#SVGID_8_)" fill="#fff"/><circle transform="matrix(.92497 0 0 .92497 111.28 72.739)" cx="989" cy="662" r="5" clip-path="url(#SVGID_8_)" fill="none" stroke="#000" stroke-miterlimit="10" stroke-width="6"/><path transform="matrix(.92497 0 0 .92497 111.28 72.739)" d="m1014 662c0 2.762-2.238 5-5 5s-5-2.238-5-5 2.238-5 5-5 5 2.238 5 5" clip-path="url(#SVGID_8_)" fill="#fff"/><circle transform="matrix(.92497 0 0 .92497 111.28 72.739)" cx="1009" cy="662" r="5" clip-path="url(#SVGID_8_)" fill="none" stroke="#000" stroke-miterlimit="10" stroke-width="6"/><path transform="matrix(.92497 0 0 .92497 111.28 72.739)" d="m1035 662c0 2.762-2.238 5-5 5s-5-2.238-5-5 2.238-5 5-5 5 2.238 5 5" clip-path="url(#SVGID_8_)" fill="#fff"/><circle transform="matrix(.92497 0 0 .92497 111.28 72.739)" cx="1030" cy="662" r="5" clip-path="url(#SVGID_8_)" fill="none" stroke="#000" stroke-miterlimit="10" stroke-width="6"/><rect transform="matrix(.92497 0 0 .92497 111.28 72.739)" x="896" y="691" width="153" height="39" clip-path="url(#SVGID_8_)" fill="#fff"/><rect transform="matrix(.92497 0 0 .92497 111.28 72.739)" x="896" y="691" width="153" height="39" clip-path="url(#SVGID_8_)" fill="none" stroke="#000" stroke-miterlimit="10" stroke-width="6"/><path transform="matrix(.92497 0 0 .92497 111.28 72.739)" d="m932 710c0 5.522-4.477 10-10 10s-10-4.478-10-10c0-5.521 4.477-10 10-10s10 4.479 10 10" clip-path="url(#SVGID_8_)" fill="#fff"/><circle transform="matrix(.92497 0 0 .92497 111.28 72.739)" cx="922" cy="710" r="10" clip-path="url(#SVGID_8_)" fill="none" stroke="#000" stroke-miterlimit="10" stroke-width="6"/><path transform="matrix(.92497 0 0 .92497 111.28 72.739)" d="m994 710c0 2.762-2.238 5-5 5s-5-2.238-5-5 2.238-5 5-5 5 2.238 5 5" clip-path="url(#SVGID_8_)" fill="#fff"/><circle transform="matrix(.92497 0 0 .92497 111.28 72.739)" cx="989" cy="710" r="5" clip-path="url(#SVGID_8_)" fill="none" stroke="#000" stroke-miterlimit="10" stroke-width="6"/><path transform="matrix(.92497 0 0 .92497 111.28 72.739)" d="m1014 710c0 2.762-2.238 5-5 5s-5-2.238-5-5 2.238-5 5-5 5 2.238 5 5" clip-path="url(#SVGID_8_)" fill="#fff"/><circle transform="matrix(.92497 0 0 .92497 111.28 72.739)" cx="1009" cy="710" r="5" clip-path="url(#SVGID_8_)" fill="none" stroke="#000" stroke-miterlimit="10" stroke-width="6"/><path transform="matrix(.92497 0 0 .92497 111.28 72.739)" d="m1035 710c0 2.762-2.238 5-5 5s-5-2.238-5-5 2.238-5 5-5 5 2.238 5 5" clip-path="url(#SVGID_8_)" fill="#fff"/><circle transform="matrix(.92497 0 0 .92497 111.28 72.739)" cx="1030" cy="710" r="5" clip-path="url(#SVGID_8_)" fill="none" stroke="#000" stroke-miterlimit="10" stroke-width="6"/><rect transform="matrix(.92497 0 0 .92497 111.28 72.739)" x="966" y="758" width="12" height="67" clip-path="url(#SVGID_8_)" fill="#fff"/><rect transform="matrix(.92497 0 0 .92497 111.28 72.739)" x="966" y="758" width="12" height="67" clip-path="url(#SVGID_8_)" fill="none" stroke="#000" stroke-miterlimit="10" stroke-width="6"/><polyline transform="matrix(.92497 0 0 .92497 111.28 72.739)" points="1049 763 1049 777 896 777 896 738 1049 738 1049 751" clip-path="url(#SVGID_8_)" fill="#fff"/><polyline transform="matrix(.92497 0 0 .92497 111.28 72.739)" points="1049 763 1049 777 896 777 896 738 1049 738 1049 751" clip-path="url(#SVGID_8_)" fill="none" stroke="#000" stroke-miterlimit="10" stroke-width="6"/><path transform="matrix(.92497 0 0 .92497 111.28 72.739)" d="m932 757c0 5.522-4.477 10-10 10s-10-4.478-10-10c0-5.521 4.477-10 10-10s10 4.479 10 10" clip-path="url(#SVGID_8_)" fill="#fff"/><circle transform="matrix(.92497 0 0 .92497 111.28 72.739)" cx="922" cy="757" r="10" clip-path="url(#SVGID_8_)" fill="none" stroke="#000" stroke-miterlimit="10" stroke-width="6"/><path transform="matrix(.92497 0 0 .92497 111.28 72.739)" d="m994 758c0 2.762-2.238 5-5 5s-5-2.238-5-5 2.238-5 5-5 5 2.238 5 5" clip-path="url(#SVGID_8_)" fill="#fff"/><circle transform="matrix(.92497 0 0 .92497 111.28 72.739)" cx="989" cy="758" r="5" clip-path="url(#SVGID_8_)" fill="none" stroke="#000" stroke-miterlimit="10" stroke-width="6"/><path transform="matrix(.92497 0 0 .92497 111.28 72.739)" d="m1014 758c0 2.762-2.238 5-5 5s-5-2.238-5-5 2.238-5 5-5 5 2.238 5 5" clip-path="url(#SVGID_8_)" fill="#fff"/><circle transform="matrix(.92497 0 0 .92497 111.28 72.739)" cx="1009" cy="758" r="5" clip-path="url(#SVGID_8_)" fill="none" stroke="#000" stroke-miterlimit="10" stroke-width="6"/><path transform="matrix(.92497 0 0 .92497 111.28 72.739)" d="m1035 758c0 2.762-2.238 5-5 5s-5-2.238-5-5 2.238-5 5-5 5 2.238 5 5" clip-path="url(#SVGID_8_)" fill="#fff"/><circle transform="matrix(.92497 0 0 .92497 111.28 72.739)" cx="1030" cy="758" r="5" clip-path="url(#SVGID_8_)" fill="none" stroke="#000" stroke-miterlimit="10" stroke-width="6"/><path transform="matrix(.92497 0 0 .92497 111.28 72.739)" d="m924 663c0 1.104-0.896 2-2 2s-2-0.896-2-2 0.896-2 2-2 2 0.896 2 2" clip-path="url(#SVGID_8_)"/><path transform="matrix(.92497 0 0 .92497 111.28 72.739)" d="m924 710c0 1.104-0.896 2-2 2s-2-0.896-2-2 0.896-2 2-2 2 0.896 2 2" clip-path="url(#SVGID_8_)"/><path transform="matrix(.92497 0 0 .92497 111.28 72.739)" d="m924 757c0 1.104-0.896 2-2 2s-2-0.896-2-2 0.896-2 2-2 2 0.896 2 2" clip-path="url(#SVGID_8_)"/><rect transform="matrix(.92497 0 0 .92497 111.28 72.739)" x="896" y="786" width="153" height="39" clip-path="url(#SVGID_8_)" fill="#fff"/><rect transform="matrix(.92497 0 0 .92497 111.28 72.739)" x="896" y="786" width="153" height="39" clip-path="url(#SVGID_8_)" fill="none" stroke="#000" stroke-miterlimit="10" stroke-width="6"/><path transform="matrix(.92497 0 0 .92497 111.28 72.739)" d="m932 805c0 5.522-4.477 10-10 10s-10-4.478-10-10c0-5.521 4.477-10 10-10s10 4.479 10 10" clip-path="url(#SVGID_8_)" fill="#fff"/><circle transform="matrix(.92497 0 0 .92497 111.28 72.739)" cx="922" cy="805" r="10" clip-path="url(#SVGID_8_)" fill="none" stroke="#000" stroke-miterlimit="10" stroke-width="6"/><path transform="matrix(.92497 0 0 .92497 111.28 72.739)" d="m994 806c0 2.762-2.238 5-5 5s-5-2.238-5-5 2.238-5 5-5 5 2.238 5 5" clip-path="url(#SVGID_8_)" fill="#fff"/><circle transform="matrix(.92497 0 0 .92497 111.28 72.739)" cx="989" cy="806" r="5" clip-path="url(#SVGID_8_)" fill="none" stroke="#000" stroke-miterlimit="10" stroke-width="6"/><path transform="matrix(.92497 0 0 .92497 111.28 72.739)" d="m1014 806c0 2.762-2.238 5-5 5s-5-2.238-5-5 2.238-5 5-5 5 2.238 5 5" clip-path="url(#SVGID_8_)" fill="#fff"/><circle transform="matrix(.92497 0 0 .92497 111.28 72.739)" cx="1009" cy="806" r="5" clip-path="url(#SVGID_8_)" fill="none" stroke="#000" stroke-miterlimit="10" stroke-width="6"/><path transform="matrix(.92497 0 0 .92497 111.28 72.739)" d="m1035 806c0 2.762-2.238 5-5 5s-5-2.238-5-5 2.238-5 5-5 5 2.238 5 5" clip-path="url(#SVGID_8_)" fill="#fff"/><circle transform="matrix(.92497 0 0 .92497 111.28 72.739)" cx="1030" cy="806" r="5" clip-path="url(#SVGID_8_)" fill="none" stroke="#000" stroke-miterlimit="10" stroke-width="6"/><path transform="matrix(.92497 0 0 .92497 111.28 72.739)" d="m924 805c0 1.104-0.896 2-2 2s-2-0.896-2-2 0.896-2 2-2 2 0.896 2 2" clip-path="url(#SVGID_8_)"/><g fill="none" stroke="#000" stroke-miterlimit="10" stroke-width="6"><line transform="matrix(.92497 0 0 .92497 111.28 72.739)" x1="846" x2="1106" y1="897" y2="897" clip-path="url(#SVGID_8_)"/><line transform="matrix(.92497 0 0 .92497 111.28 72.739)" x1="1084" x2="1084" y1="868" y2="896.5" clip-path="url(#SVGID_8_)"/><line transform="matrix(.92497 0 0 .92497 111.28 72.739)" x1="859" x2="859" y1="886" y2="896.5" clip-path="url(#SVGID_8_)"/><path transform="matrix(.92497 0 0 .92497 111.28 72.739)" d="m1203.6 293.5h187.71c23.907 0 43.288 19.381 43.288 43.289v122.71" clip-path="url(#SVGID_10_)"/><path transform="matrix(.92497 0 0 .92497 111.28 72.739)" d="m1580.3 572.32c-33.965-45.991-88.56-75.818-150.12-75.818-33.611 0-65.147 8.891-92.381 24.451" clip-path="url(#SVGID_10_)"/><path transform="matrix(.92497 0 0 .92497 111.28 72.739)" d="m1430.1 869.5c103 0 186.5-83.499 186.5-186.5 0-23.755-4.44-46.472-12.538-67.366" clip-path="url(#SVGID_10_)"/><path transform="matrix(.92497 0 0 .92497 111.28 72.739)" d="m1243.6 683c0 69.742 38.282 130.54 94.979 162.54" clip-path="url(#SVGID_10_)"/><path transform="matrix(.92497 0 0 .92497 111.28 72.739)" d="m1274.6 580c-11.101 16.727-19.575 35.348-24.834 55.274" clip-path="url(#SVGID_10_)"/><circle transform="matrix(.92497 0 0 .92497 111.28 72.739)" cx="972.14" cy="758" r="208.5" clip-path="url(#SVGID_12_)"/><line transform="matrix(.92497 0 0 .92497 111.28 72.739)" x1="972.63" x2="972.63" y1="522.5" y2="423.5" clip-path="url(#SVGID_12_)"/><path transform="matrix(.92497 0 0 .92497 111.28 72.739)" d="m741.63 293.5h-175.71c-23.908 0-43.289 19.381-43.289 43.289v122.71" clip-path="url(#SVGID_14_)"/><path transform="matrix(.92497 0 0 .92497 111.28 72.739)" d="m441.46 513.43c-51.96 23.853-92.312 71.202-104.89 131.46-6.867 32.903-4.606 65.589 5.061 95.428" clip-path="url(#SVGID_14_)"/><path transform="matrix(.92497 0 0 .92497 111.28 72.739)" d="m701.7 721.1c21.043-100.83-43.635-199.62-144.46-220.67-23.253-4.852-46.399-5.146-68.507-1.489" clip-path="url(#SVGID_14_)"/><path transform="matrix(.92497 0 0 .92497 111.28 72.739)" d="m481.03 865.57c68.271 14.248 135.61-10.804 178.51-59.769" clip-path="url(#SVGID_14_)"/><path transform="matrix(.92497 0 0 .92497 111.28 72.739)" d="m386.54 814.18c14.106 14.284 30.603 26.385 49.035 35.604" clip-path="url(#SVGID_14_)"/></g><g transform="matrix(.92497 0 0 .92497 117.77 -206.87)"><path transform="translate(304.01 288.02)" d="m495.11 441.07h343.21c55.604 0 100.68-45.076 100.68-100.68s-45.076-100.68-100.68-100.68h-1.228c0-40.71-13.759-78.206-36.881-108.09" clip-path="url(#SVGID_2_-7)" fill="#fff"/><path transform="translate(304.01 288.02)" d="m495.11 441.07h343.21c55.604 0 100.68-45.076 100.68-100.68s-45.076-100.68-100.68-100.68h-1.228c0-40.71-13.759-78.206-36.881-108.09" clip-path="url(#SVGID_2_-7)" fill="none" stroke="#000" stroke-miterlimit="10" stroke-width="6"/><path transform="translate(304.01 288.02)" d="m860.6 291.08c1.293 9.324 8.622 16.654 17.946 17.947-9.324 1.293-16.653 8.623-17.946 17.946-1.293-9.323-8.623-16.653-17.947-17.946 9.323-1.293 16.654-8.623 17.947-17.947" clip-path="url(#SVGID_2_-7)" fill="#fff"/><path transform="translate(304.01 288.02)" d="m860.6 291.08v0c1.293 9.324 8.622 16.654 17.946 17.947-9.324 1.293-16.653 8.623-17.946 17.946-1.293-9.323-8.623-16.653-17.947-17.946 9.323-1.293 16.654-8.623 17.947-17.947z" clip-path="url(#SVGID_2_-7)" fill="none" stroke="#1183c5" stroke-linecap="square" stroke-linejoin="bevel" stroke-miterlimit="10" stroke-width="6"/><path transform="translate(304.01 288.02)" d="m391.55 282.1c-11.697 16.448-18.575 36.562-18.575 58.282 0 55.604 45.076 100.68 100.68 100.68" clip-path="url(#SVGID_2_-7)" fill="#fff"/><path transform="translate(304.01 288.02)" d="m391.55 282.1c-11.697 16.448-18.575 36.562-18.575 58.282 0 55.604 45.076 100.68 100.68 100.68" clip-path="url(#SVGID_2_-7)" fill="none" stroke="#000" stroke-miterlimit="10" stroke-width="6"/><path transform="translate(304.01 288.02)" d="m425.73 401.01c9.502 0 9.502 7.051 19.005 7.051 9.499 0 9.499-7.051 18.998-7.051 9.502 0 9.502 7.051 19.004 7.051 9.505 0 9.505-7.051 19.01-7.051" clip-path="url(#SVGID_2_-7)" fill="none" stroke="#1183c5" stroke-miterlimit="10" stroke-width="6"/><path transform="translate(304.01 288.02)" d="m753.95 89.722c-27.158-16.996-59.264-26.82-93.665-26.82-97.647 0-176.8 79.158-176.8 176.8h-9.822c-20.852 0-40.223 6.339-56.291 17.196" clip-path="url(#SVGID_2_-7)" fill="#fff"/><path transform="translate(304.01 288.02)" d="m753.95 89.722c-27.158-16.996-59.264-26.82-93.665-26.82-97.647 0-176.8 79.158-176.8 176.8h-9.822c-20.852 0-40.223 6.339-56.291 17.196" clip-path="url(#SVGID_2_-7)" fill="none" stroke="#000" stroke-miterlimit="10" stroke-width="6"/><rect transform="translate(304.01 288.02)" x="648.94" y="230.83" width="23.075" height="174.34" clip-path="url(#SVGID_2_-7)" fill="#fff"/><rect transform="translate(304.01 288.02)" x="648.94" y="230.83" width="23.075" height="174.34" clip-path="url(#SVGID_2_-7)" fill="none" stroke="#000" stroke-miterlimit="10" stroke-width="6"/><polyline transform="translate(304.01 288.02)" points="756.62 194.94 800.2 194.94 800.2 266.73 520.75 266.73 520.75 194.94 737.39 194.94" clip-path="url(#SVGID_2_-7)" fill="#fff"/><polyline transform="translate(304.01 288.02)" points="756.62 194.94 800.2 194.94 800.2 266.73 520.75 266.73 520.75 194.94 737.39 194.94" clip-path="url(#SVGID_2_-7)" fill="none" stroke="#000" stroke-miterlimit="10" stroke-width="6"/><path transform="translate(304.01 288.02)" d="m586.12 230.83c0 9.912-8.035 17.946-17.947 17.946-9.911 0-17.947-8.034-17.947-17.946s8.036-17.947 17.947-17.947 17.947 8.035 17.947 17.947" clip-path="url(#SVGID_2_-7)" fill="#fff"/><circle transform="translate(304.01 288.02)" cx="568.18" cy="230.83" r="17.947" clip-path="url(#SVGID_2_-7)" fill="none" stroke="#000" stroke-miterlimit="10" stroke-width="6"/><path transform="translate(304.01 288.02)" d="m700.22 230.83c0 4.956-4.018 8.974-8.974 8.974s-8.973-4.018-8.973-8.974 4.017-8.974 8.973-8.974 8.974 4.018 8.974 8.974" clip-path="url(#SVGID_2_-7)" fill="#fff"/><circle transform="translate(304.01 288.02)" cx="691.24" cy="230.83" r="8.974" clip-path="url(#SVGID_2_-7)" fill="none" stroke="#000" stroke-miterlimit="10" stroke-width="6"/><circle transform="translate(304.01 288.02)" cx="728.42" cy="230.83" r="8.974" clip-path="url(#SVGID_2_-7)" fill="none" stroke="#1183c5" stroke-miterlimit="10" stroke-width="6"/><path transform="translate(304.01 288.02)" d="m774.57 230.83c0 4.956-4.018 8.974-8.973 8.974-4.956 0-8.974-4.018-8.974-8.974s4.018-8.974 8.974-8.974 8.973 4.018 8.973 8.974" clip-path="url(#SVGID_2_-7)" fill="#fff"/><circle transform="translate(304.01 288.02)" cx="765.59" cy="230.83" r="8.973" clip-path="url(#SVGID_2_-7)" fill="none" stroke="#000" stroke-miterlimit="10" stroke-width="6"/><rect transform="translate(876.02 266.59)" x="52.268" y="135.76" width="107.68" height="53.84" clip-path="url(#SVGID_2_-7)" fill="#fff"/><rect transform="translate(876.02 266.59)" x="52.268" y="135.76" width="107.68" height="53.84" clip-path="url(#SVGID_2_-7)" fill="none" stroke="#000" stroke-miterlimit="10" stroke-width="6"/><path transform="translate(876.02 266.59)" d="m121.46 162.68c0 8.477-6.872 15.349-15.348 15.349-8.477 0-15.349-6.872-15.349-15.349s6.872-15.349 15.349-15.349c8.475 0 15.348 6.872 15.348 15.349" clip-path="url(#SVGID_2_-7)" fill="#fff"/><circle transform="translate(876.02 266.59)" cx="106.11" cy="162.68" r="15.349" clip-path="url(#SVGID_2_-7)" fill="none" stroke="#1183c5" stroke-linecap="square" stroke-linejoin="bevel" stroke-miterlimit="10" stroke-width="6"/><rect transform="translate(304.01 288.02)" x="520.75" y="282.11" width="279.46" height="71.788" clip-path="url(#SVGID_2_-7)" fill="#fff"/><rect transform="translate(304.01 288.02)" x="520.75" y="282.11" width="279.46" height="71.788" clip-path="url(#SVGID_2_-7)" fill="none" stroke="#000" stroke-miterlimit="10" stroke-width="6"/><path transform="translate(304.01 288.02)" d="m586.12 318c0 9.912-8.035 17.947-17.947 17.947-9.911 0-17.947-8.035-17.947-17.947 0-9.911 8.036-17.946 17.947-17.946s17.947 8.035 17.947 17.946" clip-path="url(#SVGID_2_-7)" fill="#fff"/><circle transform="translate(304.01 288.02)" cx="568.18" cy="318" r="17.947" clip-path="url(#SVGID_2_-7)" fill="none" stroke="#000" stroke-miterlimit="10" stroke-width="6"/><circle transform="translate(304.01 288.02)" cx="691.24" cy="318" r="8.974" clip-path="url(#SVGID_2_-7)" fill="none" stroke="#1183c5" stroke-miterlimit="10" stroke-width="6"/><path transform="translate(304.01 288.02)" d="m737.39 318c0 4.956-4.018 8.974-8.974 8.974s-8.974-4.018-8.974-8.974c0-4.955 4.018-8.973 8.974-8.973s8.974 4.018 8.974 8.973" clip-path="url(#SVGID_2_-7)" fill="#fff"/><circle transform="translate(304.01 288.02)" cx="728.42" cy="318" r="8.974" clip-path="url(#SVGID_2_-7)" fill="none" stroke="#000" stroke-miterlimit="10" stroke-width="6"/><path transform="translate(304.01 288.02)" d="m774.57 318c0 4.956-4.018 8.974-8.973 8.974-4.956 0-8.974-4.018-8.974-8.974 0-4.955 4.018-8.973 8.974-8.973s8.973 4.018 8.973 8.973" clip-path="url(#SVGID_2_-7)" fill="#fff"/><circle transform="translate(304.01 288.02)" cx="765.59" cy="318" r="8.973" clip-path="url(#SVGID_2_-7)" fill="none" stroke="#000" stroke-miterlimit="10" stroke-width="6"/><polyline transform="translate(304.01 288.02)" points="800.2 414.15 800.2 441.07 520.75 441.07 520.75 369.28 800.2 369.28 800.2 393.02" clip-path="url(#SVGID_2_-7)" fill="#fff"/><polyline transform="translate(304.01 288.02)" points="800.2 414.15 800.2 441.07 520.75 441.07 520.75 369.28 800.2 369.28 800.2 393.02" clip-path="url(#SVGID_2_-7)" fill="none" stroke="#000" stroke-miterlimit="10" stroke-width="6"/><path transform="translate(304.01 288.02)" d="m586.12 405.17c0 9.912-8.035 17.947-17.947 17.947-9.911 0-17.947-8.035-17.947-17.947s8.036-17.946 17.947-17.946 17.947 8.034 17.947 17.946" clip-path="url(#SVGID_2_-7)" fill="#fff"/><circle transform="translate(304.01 288.02)" cx="568.18" cy="405.17" r="17.947" clip-path="url(#SVGID_2_-7)" fill="none" stroke="#000" stroke-miterlimit="10" stroke-width="6"/><path transform="translate(304.01 288.02)" d="m700.22 405.17c0 4.956-4.018 8.974-8.974 8.974s-8.973-4.018-8.973-8.974 4.017-8.974 8.973-8.974 8.974 4.018 8.974 8.974" clip-path="url(#SVGID_2_-7)" fill="#fff"/><circle transform="translate(304.01 288.02)" cx="691.24" cy="405.17" r="8.974" clip-path="url(#SVGID_2_-7)" fill="none" stroke="#000" stroke-miterlimit="10" stroke-width="6"/><path transform="translate(304.01 288.02)" d="m737.39 405.17c0 4.956-4.018 8.974-8.974 8.974s-8.974-4.018-8.974-8.974 4.018-8.974 8.974-8.974 8.974 4.018 8.974 8.974" clip-path="url(#SVGID_2_-7)" fill="#fff"/><circle transform="translate(304.01 288.02)" cx="728.42" cy="405.17" r="8.974" clip-path="url(#SVGID_2_-7)" fill="none" stroke="#1183c5" stroke-linecap="square" stroke-linejoin="bevel" stroke-miterlimit="10" stroke-width="6"/><circle transform="translate(304.01 288.02)" cx="765.59" cy="405.17" r="8.973" clip-path="url(#SVGID_2_-7)" fill="none" stroke="#1183c5" stroke-miterlimit="10" stroke-width="6"/><path transform="translate(304.01 288.02)" d="m572.02 230.83c0 2.124-1.722 3.846-3.846 3.846s-3.845-1.722-3.845-3.846 1.721-3.846 3.845-3.846 3.846 1.722 3.846 3.846" clip-path="url(#SVGID_2_-7)"/><path transform="translate(304.01 288.02)" d="m572.02 318c0 2.124-1.722 3.847-3.846 3.847s-3.845-1.723-3.845-3.847c0-2.123 1.721-3.846 3.845-3.846s3.846 1.723 3.846 3.846" clip-path="url(#SVGID_2_-7)"/><path transform="translate(304.01 288.02)" d="m572.02 405.17c0 2.124-1.722 3.846-3.846 3.846s-3.845-1.722-3.845-3.846 1.721-3.846 3.845-3.846 3.846 1.722 3.846 3.846" clip-path="url(#SVGID_2_-7)"/><path transform="translate(650 234.46)" d="m106.28 384.1c0 14.159-11.479 25.638-25.639 25.638-14.159-1e-3 -25.638-11.479-25.638-25.638 0-14.16 11.479-25.639 25.638-25.639 14.16 0 25.639 11.478 25.639 25.639" clip-path="url(#SVGID_2_-7)" fill="#fff"/><circle transform="translate(650 234.46)" cx="80.638" cy="384.1" r="25.638" clip-path="url(#SVGID_2_-7)" fill="none" stroke="#000" stroke-miterlimit="10" stroke-width="6"/><path transform="translate(650 234.46)" d="m94.12 384.1c0 7.445-6.036 13.48-13.481 13.48-7.446 0-13.481-6.035-13.481-13.48 0-7.446 6.035-13.48 13.481-13.48 7.444-1e-3 13.481 6.033 13.481 13.48" clip-path="url(#SVGID_2_-7)" fill="#fff"/><circle transform="translate(650 234.46)" cx="80.639" cy="384.1" r="13.481" clip-path="url(#SVGID_2_-7)" fill="none" stroke="#1183c5" stroke-linecap="square" stroke-linejoin="bevel" stroke-miterlimit="10" stroke-width="6"/><path transform="translate(304.01 288.02)" d="m560.65 131.61s23.502-23.845 44.44-28.118" clip-path="url(#SVGID_2_-7)" fill="none" stroke="#000" stroke-miterlimit="10" stroke-width="6"/><rect transform="translate(650 234.46)" x="128" y="358.46" width="15" height="51.276" clip-path="url(#SVGID_2_-7)" fill="#fff"/><rect transform="translate(650 234.46)" x="128" y="358.46" width="15" height="51.276" clip-path="url(#SVGID_2_-7)" fill="none" stroke="#000" stroke-miterlimit="10" stroke-width="6"/></g><g fill-rule="evenodd"><g stroke-width="6.4433"><path d="m1617.6 583.99h20.178v-58.518h-20.178zm22.629 4.7777h-25.068c-1.3518 0-2.451-1.0618-2.451-2.3827v-63.308c0-1.321 1.0992-2.395 2.451-2.395h25.068c1.3518 0 2.451 1.0741 2.451 2.395v63.308c0 1.3209-1.0992 2.3827-2.451 2.3827z"/><path d="m1627.8 577.7c-1.3518 0-2.451-1.0741-2.451-2.395v-41.086c0-1.321 1.0992-2.395 2.451-2.395s2.451 1.0741 2.451 2.395v41.086c0 1.3209-1.0992 2.395-2.451 2.395" fill="#1183c5"/><path d="m1656.9 583.99h20.178v-97.246h-20.178zm22.629 4.7777h-25.068c-1.3518 0-2.451-1.0618-2.451-2.3827v-102.05c0-1.321 1.0992-2.3827 2.451-2.3827h25.068c1.3517 0 2.451 1.0617 2.451 2.3827v102.05c0 1.3209-1.0993 2.3827-2.451 2.3827z"/><path d="m1667 577.66c-1.3518 0-2.451-1.0741-2.451-2.395v-79.826c0-1.321 1.0992-2.395 2.451-2.395 1.3517 0 2.451 1.074 2.451 2.395v79.826c0 1.3209-1.0993 2.395-2.451 2.395" fill="#1183c5"/><path d="m1696.2 583.98h20.178v-130.86h-20.178zm22.629 4.7777h-25.068c-1.3518 0-2.451-1.0612-2.451-2.3821v-135.65c0-1.321 1.0992-2.395 2.451-2.395h25.068c1.3518 0 2.451 1.0741 2.451 2.395v135.65c0 1.3209-1.0992 2.3821-2.451 2.3821z"/><path d="m1706.2 577.69c-1.3519 0-2.4511-1.0741-2.4511-2.395v-113.43c0-1.321 1.0992-2.395 2.4511-2.395 1.3518 0 2.451 1.0741 2.451 2.395v113.43c0 1.3209-1.0992 2.395-2.451 2.395" fill="#1183c5"/><path d="m1735.4 583.98h20.178v-159.34h-20.178zm22.63 4.7777h-25.068c-1.3518 0-2.451-1.0612-2.451-2.3827v-164.13c0-1.321 1.0992-2.395 2.451-2.395h25.068c1.3518 0 2.451 1.0741 2.451 2.395v164.13c0 1.3215-1.0992 2.3827-2.451 2.3827z"/><path d="m1745.5 577.69c-1.3517 0-2.451-1.0741-2.451-2.395v-141.91c0-1.321 1.0993-2.395 2.451-2.395 1.3518 0 2.451 1.0741 2.451 2.395v141.91c0 1.3209-1.0992 2.395-2.451 2.395" fill="#1183c5"/><path d="m1720.5 424.63h-115.32c-1.3518 0-2.451-1.0741-2.451-2.395 0-1.321 1.0992-2.395 2.451-2.395h115.32c1.3518 0 2.451 1.0741 2.451 2.395 0 1.321-1.0992 2.395-2.451 2.395"/><path d="m1615.2 512.88c-1.3518 0-2.451-1.0741-2.451-2.395v-97.603c0-1.321 1.0992-2.3827 2.451-2.3827s2.4387 1.0617 2.4387 2.3827v97.603c0 1.3209-1.0869 2.395-2.4387 2.395"/><path d="m1667.4 432.86c-0.7834 0-1.516 0.35805-1.9708 0.97532l-8.1122 10.778c-0.7958 1.0617-0.567 2.5679 0.5155 3.3456 1.0992 0.77777 2.6282 0.55554 3.4246-0.50617l6.1405-8.1604 6.1403 8.1604c0.7957 1.0617 2.3247 1.2839 3.4239 0.50617 1.0864-0.77775 1.3139-2.2839 0.5155-3.3456l-8.1113-10.778c-0.4575-0.61727-1.1876-0.97532-1.971-0.97532"/><path d="m1667.4 450.18c-0.6442 0-1.2763 0.2469-1.7313 0.69134-0.4574 0.45676-0.7074 1.0741-0.7074 1.7037 0 0.61726 0.2513 1.2469 0.7074 1.6913 0.9099 0.88888 2.5523 0.88888 3.4621 0 0.4574-0.44445 0.7204-1.0741 0.7204-1.6913 0-0.62963-0.2643-1.2469-0.7204-1.7037-0.4575-0.44446-1.0864-0.69134-1.7308-0.69134"/><path d="m1665 459.88c0 1.321 1.0992 2.395 2.451 2.395s2.451-1.0741 2.451-2.395c0-1.3333-1.0992-2.395-2.451-2.395s-2.451 1.0617-2.451 2.395"/><path d="m1667.4 464.81c-0.6442 0-1.2763 0.25928-1.7313 0.69135-0.4574 0.44446-0.7074 1.0741-0.7074 1.7037 0 0.61726 0.2513 1.2469 0.7074 1.6913 0.9099 0.87653 2.5523 0.88887 3.4621 0 0.4574-0.44445 0.7204-1.0741 0.7204-1.6913 0-0.62964-0.2643-1.2469-0.7204-1.7037-0.4575-0.43208-1.0864-0.69135-1.7308-0.69135"/><path d="m1667.5 433.45c-1.3518 0-2.451 1.074-2.451 2.395v16.703c0 1.321 1.0992 2.3827 2.451 2.3827s2.451-1.0617 2.451-2.3827v-16.703c0-1.321-1.0992-2.395-2.451-2.395"/><path d="m1668.7 617.93c-2.9819 0-5.4206 2.3704-5.4206 5.2962 0 2.9135 2.4387 5.2962 5.4206 5.2962h35.567c2.9948 0 5.4206-2.3827 5.4206-5.2962 0-2.9259-2.4258-5.2962-5.4206-5.2962zm35.568 15.383h-35.567c-5.6856 0-10.323-4.5308-10.323-10.086 0-5.5678 4.6371-10.086 10.323-10.086h35.567c5.6863 0 10.323 4.5184 10.323 10.086 0 5.5554-4.6364 10.086-10.323 10.086z"/><path d="m1703.7 357.88h-34.404c-1.3524 0-2.4388-1.0741-2.4388-2.395 0-1.321 1.0864-2.395 2.4388-2.395h34.404c1.3518 0 2.451 1.074 2.451 2.395 0 1.321-1.0992 2.395-2.451 2.395"/><path d="m1780.3 646.96h-187.74c-1.3525 0-2.4389-1.0617-2.4389-2.395v-42.431c0-1.321 1.0864-2.395 2.4389-2.395 1.3517 0 2.451 1.0741 2.451 2.395v40.049h182.84v-40.049c0-1.321 1.0992-2.395 2.4511-2.395 1.3523 0 2.4516 1.0741 2.4516 2.395v42.431c0 1.3333-1.0993 2.395-2.4516 2.395"/><path d="m1780.3 378.93c-1.3519 0-2.4511-1.074-2.4511-2.395v-40.049h-182.84v40.049c0 1.321-1.0993 2.395-2.451 2.395-1.3525 0-2.4389-1.074-2.4389-2.395v-42.444c0-1.3209 1.0864-2.395 2.4389-2.395h187.74c1.3523 0 2.4516 1.0741 2.4516 2.395v42.444c0 1.321-1.0993 2.395-2.4516 2.395"/><path d="m1780.3 378.95h-187.74c-1.3525 0-2.4389-1.0741-2.4389-2.395 0-1.321 1.0864-2.395 2.4389-2.395h187.74c1.3523 0 2.4516 1.0741 2.4516 2.395 0 1.321-1.0993 2.395-2.4516 2.395"/><path d="m1780.3 604.53h-187.74c-1.3525 0-2.4389-1.0741-2.4389-2.395 0-1.321 1.0864-2.395 2.4389-2.395h187.74c1.3523 0 2.4516 1.0741 2.4516 2.395 0 1.321-1.0993 2.395-2.4516 2.395"/><path d="m1780.3 604.56c-0.6565 0-1.2758-0.25928-1.7436-0.70369-0.4575-0.44446-0.7074-1.0741-0.7074-1.6913 0-0.62963 0.2513-1.2469 0.7074-1.7037 0.9227-0.87654 2.5651-0.87654 3.462 0 0.4575 0.45676 0.7326 1.074 0.7326 1.7037 0 0.61727-0.277 1.2469-0.7326 1.6913-0.4446 0.44445-1.0863 0.70369-1.7184 0.70369"/><path d="m1592.6 604.54c-1.3525 0-2.4389-1.0734-2.4389-2.395v-225.59c0-1.321 1.0864-2.395 2.4389-2.395 1.3517 0 2.451 1.0741 2.451 2.395v225.59c0 1.3215-1.0993 2.395-2.451 2.395"/><path d="m1702.7 625.6h-32.649c-1.3646 0-2.451-1.0741-2.451-2.395 0-1.321 1.0864-2.395 2.451-2.395h32.649c1.3518 0 2.4387 1.0741 2.4387 2.395 0 1.321-1.0869 2.395-2.4387 2.395" fill="#1183c5"/></g><g stroke-width="5.9598"><path d="m269.59 933.8c-8.1108 0-14.714 6.4518-14.714 14.388s6.6034 14.388 14.714 14.388c8.122 0 14.725-6.4519 14.725-14.388s-6.6029-14.388-14.725-14.388zm6.5e-4 33.207c-10.612 0-19.249-8.4502-19.249-18.819 0-10.369 8.6365-18.807 19.249-18.807 10.623 0 19.26 8.4388 19.26 18.807 0 10.369-8.6365 18.819-19.26 18.819z" fill="#1183c5"/><path d="m324.89 934.48c-1.192-0.37684-1.8464-1.633-1.4607-2.7977 0.38738-1.1533 1.6478-1.8042 2.8398-1.4274 1.1925 0.37683 1.8469 1.6215 1.4614 2.7977-0.31598 0.92495-1.204 1.5188-2.1623 1.5188-0.23245 0-0.4648-0.034-0.68957-0.0914zm-11.956-1.4046c-0.39922-1.1534 0.25622-2.4095 1.4375-2.7863 1.192-0.37684 2.4775 0.25121 2.875 1.416 0.38738 1.1648-0.26805 2.4209-1.4487 2.7863-0.24438 0.0799-0.46498 0.11419-0.71343 0.11419-0.94643 0-1.8464-0.5824-2.1504-1.5302zm19.343 6.6c-0.74793-0.98206-0.53639-2.3638 0.47682-3.0946 1.0049-0.71942 2.431-0.51386 3.167 0.46821 0.73674 0.99344 0.51262 2.3752-0.48866 3.106-0.41125 0.28548-0.87669 0.4225-1.3321 0.4225-0.7014 0-1.391-0.31976-1.8231-0.90215zm-26.997 0.56018c-1.0048-0.71942-1.2271-2.1012-0.48867-3.0832 0.73656-0.99352 2.1503-1.2219 3.1676-0.50248 1.0049 0.71941 1.2385 2.1126 0.51253 3.0946-0.44093 0.59383-1.134 0.91358-1.835 0.91358-0.45296 0-0.92322-0.12564-1.3326-0.42254zm29.825 7.9362v-0.0339-0.0346c0-1.2104 1.0048-2.2039 2.2671-2.2039 1.239-0.0114 2.2557 0.97063 2.2557 2.1925v0.0458 0.034c0 1.2219-1.0054 2.2153-2.2557 2.2153s-2.2671-0.99344-2.2671-2.2153zm-33.985 0.034c0-1.2104 1.0167-2.2153 2.2671-2.2153 1.2504 0 2.2671 0.99351 2.2671 2.2039 0 1.2333-1.0049 2.2153-2.2553 2.2267-1.2504 0-2.2789-0.98206-2.2789-2.2153zm31.683 11.511c-1.0167-0.71941-1.239-2.1011-0.5005-3.0946 0.73591-0.99346 2.1621-1.2105 3.167-0.49104 1.0048 0.71941 1.2272 2.1012 0.48867 3.0946-0.42901 0.59385-1.1223 0.91358-1.835 0.91358-0.45897 0-0.92322-0.13707-1.3209-0.42255zm-27.978-0.46856c-0.74803-0.98206-0.51253-2.3638 0.48876-3.0832 1.0047-0.71941 2.419-0.51386 3.167 0.47959 0.73609 0.98206 0.51253 2.3752-0.48866 3.0946-0.41125 0.28548-0.87669 0.4225-1.3441 0.4225-0.68948 0-1.379-0.30831-1.823-0.91352zm18.663 5.3898c-0.37535-1.1533 0.26825-2.4094 1.4609-2.7863 1.1805-0.37684 2.4661 0.25127 2.8517 1.4275 0.38747 1.1533-0.26815 2.398-1.4494 2.7863-0.24437 0.0684-0.4648 0.10279-0.70085 0.10279-0.95836 0-1.847-0.58234-2.1623-1.5302zm-9.0344 1.4273c-1.192-0.37684-1.8464-1.6101-1.4607-2.7748 0.3872-1.1648 1.6711-1.8043 2.8517-1.4274 1.1919 0.37685 1.8463 1.6329 1.4607 2.7863-0.31578 0.93641-1.192 1.5302-2.1621 1.5302-0.22061 0-0.45907-0.034-0.68957-0.11415z"/><path d="m1213.7 552.14c-8.1226 0-14.726 6.4518-14.726 14.388 0 7.9364 6.6029 14.388 14.726 14.388 8.122 0 14.726-6.4519 14.726-14.388 0-7.9364-6.6036-14.388-14.726-14.388zm7e-4 33.207c-10.612 0-19.249-8.4502-19.249-18.819 0-10.369 8.6365-18.807 19.249-18.807 10.623 0 19.26 8.4388 19.26 18.807 0 10.369-8.6365 18.819-19.26 18.819z" fill="#1183c5"/><path d="m1264.5 552.14c-8.1226 0-14.726 6.4518-14.726 14.388 0 7.9364 6.603 14.388 14.726 14.388 8.1222 0 14.726-6.4519 14.726-14.388 0-7.9364-6.6035-14.388-14.726-14.388zm6e-4 33.207c-10.612 0-19.248-8.4502-19.248-18.819 0-10.369 8.6363-18.807 19.248-18.807 10.612 0 19.26 8.4388 19.26 18.807 0 10.369-8.6483 18.819-19.26 18.819z"/><path d="m269.59 888.45c-8.1108 0-14.714 6.4519-14.714 14.388 0 7.9249 6.6034 14.388 14.714 14.388 8.122 0 14.725-6.4633 14.725-14.388 0-7.9364-6.6029-14.388-14.725-14.388zm6.5e-4 33.196c-10.612 0-19.249-8.4388-19.249-18.807 0-10.38 8.6365-18.819 19.249-18.819 10.623 0 19.26 8.4388 19.26 18.819 0 10.369-8.6365 18.807-19.26 18.807z"/><path d="m445.35 475.27c0-1.2104 0.99287-2.2153 2.2553-2.2153 1.2389-0.0114 2.2557 0.99348 2.267 2.2039 0 1.2333-1.0048 2.2153-2.2552 2.2268-1.2504 0-2.2671-0.98206-2.2671-2.2153zm8.6251 5.7778c-0.6311-1.0505-0.26824-2.4094 0.81824-3.0375 1.0752-0.61664 2.4543-0.2512 3.0967 0.79934 0.6312 1.0506 0.26824 2.4209-0.81758 3.0375-0.35168 0.19412-0.74793 0.29693-1.1336 0.29693-0.78317 0-1.5431-0.39967-1.9638-1.0963zm-15.801 0.85661c-1.0866-0.62805-1.4609-1.9755-0.81776-3.0375 0.61927-1.0506 1.9982-1.416 3.0853-0.81077 1.0752 0.61664 1.4489 1.9641 0.82961 3.0261-0.42317 0.70798-1.1806 1.1077-1.9632 1.1077-0.38738 0-0.78299-0.0914-1.134-0.28553zm16.677 9.3294c-1.0865-0.61666-1.4607-1.9756-0.84098-3.0261 0.61927-1.062 2.0096-1.4274 3.0967-0.82223 1.0871 0.60523 1.4609 1.9528 0.82961 3.0147-0.41115 0.71942-1.18 1.1191-1.9632 1.1191-0.38738 0-0.77115-0.10281-1.1222-0.28549zm-17.496-0.765c-0.61927-1.062-0.25622-2.4208 0.83025-3.0375 1.0751-0.60522 2.4656-0.25121 3.0967 0.81077 0.61927 1.0506 0.25631 2.4094-0.81823 3.0147-0.36361 0.217-0.75931 0.3083-1.1449 0.3083-0.78318 0-1.543-0.38822-1.9638-1.0962zm10.297 5.7895c-1.239 0-2.2557-1.0049-2.2557-2.2153 0-1.2333 1.0167-2.2153 2.2557-2.2153h0.0592c1.2503-0.0114 2.2671 0.97062 2.279 2.2039 0 1.2104-1.0054 2.2153-2.2558 2.2268h-0.0592z"/><path d="m507.67 470.28c-8.1106 0-14.714 6.4519-14.714 14.388 0 7.9249 6.6036 14.388 14.714 14.388 8.1222 0 14.725-6.4633 14.725-14.388 0-7.9364-6.6029-14.388-14.725-14.388zm6.5e-4 33.196c-10.612 0-19.248-8.4388-19.248-18.807 0-10.38 8.6363-18.819 19.248-18.819 10.623 0 19.26 8.4388 19.26 18.819 0 10.369-8.6363 18.807-19.26 18.807z"/><path d="m1218.2 507.46c-1.204-0.37684-1.8465-1.6215-1.4728-2.7863 0.3874-1.1648 1.6713-1.8042 2.8517-1.4274 1.1921 0.37684 1.8465 1.6101 1.4609 2.7749-0.3039 0.9478-1.192 1.5416-2.1503 1.5416-0.2206 0-0.4529-0.0339-0.6895-0.10281zm-11.956-1.3928c-0.3992-1.1648 0.2562-2.4095 1.4489-2.7863 1.1919-0.37684 2.4661 0.25121 2.8517 1.416 0.3874 1.1648-0.2563 2.4095-1.4495 2.7863-0.2204 0.0799-0.4648 0.11419-0.7007 0.11419-0.9471 0-1.8351-0.59378-2.1504-1.5302zm19.331 6.6002c-0.748-0.9935-0.5246-2.3752 0.4887-3.106 1.0053-0.71943 2.4191-0.50248 3.1556 0.47959 0.7481 0.98206 0.5245 2.3638-0.4887 3.0946-0.3873 0.29691-0.8646 0.43393-1.3325 0.43393-0.6896 0-1.3791-0.31974-1.8231-0.90208zm-26.974 0.55963c-1.0281-0.71942-1.2504-2.1011-0.5126-3.0832 0.7367-1.0049 2.151-1.2218 3.1559-0.50242 1.0285 0.71941 1.2502 2.1011 0.5125 3.0832-0.4411 0.60523-1.1336 0.92491-1.8352 0.92491-0.4648 0-0.9232-0.13702-1.3206-0.42249zm29.814 7.9364v-0.034-0.0339c0-1.2104 1.0048-2.2153 2.2551-2.2153 1.2505-0.0114 2.2673 0.98206 2.2792 2.204v0.0459 0.034c0 1.2218-1.0168 2.2153-2.2671 2.2153-1.2504 0-2.2672-0.9935-2.2672-2.2153zm-33.974 0.034c0-1.2219 1.0054-2.2153 2.2559-2.2153 1.2503 0 2.2671 0.98206 2.279 2.2039 0 1.2219-1.0287 2.2268-2.2678 2.2268-1.2504 0-2.2671-0.9935-2.2671-2.2153zm31.671 11.51c-1.0167-0.71942-1.2383-2.1011-0.5005-3.106 0.7366-0.98201 2.1503-1.199 3.1557-0.47959 1.0282 0.7194 1.2385 2.1011 0.5007 3.0832-0.4411 0.59378-1.1336 0.92497-1.8351 0.92497-0.4529 0-0.9112-0.14847-1.3208-0.42255zm-27.978-0.46785c-0.7367-0.98207-0.5245-2.3638 0.4887-3.0832 1.0167-0.71941 2.4303-0.51386 3.167 0.46821 0.7361 1.0049 0.5244 2.3866-0.5007 3.106-0.3992 0.28547-0.8533 0.4225-1.3207 0.4225-0.7014 0-1.391-0.31969-1.8349-0.91353zm18.663 5.39c-0.3873-1.1647 0.2682-2.4094 1.4614-2.7863 1.192-0.37684 2.4544 0.25121 2.8513 1.416 0.3874 1.1647-0.2683 2.4094-1.4608 2.7977-0.2206 0.0684-0.459 0.10275-0.701 0.10275-0.947 0-1.8349-0.59378-2.1509-1.5302zm-9.0338 1.4386c-1.1921-0.37685-1.847-1.6216-1.4609-2.7863 0.3874-1.1648 1.6593-1.8042 2.8513-1.4274s1.847 1.6215 1.4607 2.7863c-0.304 0.92496-1.2032 1.5302-2.1503 1.5302-0.2443 0-0.4648-0.034-0.7008-0.10281z"/></g><path d="m1686.3 708.63h-53.875c-1.3518 0-2.451-1.0741-2.451-2.3953 0-1.3209 1.0992-2.395 2.451-2.395h51.424v-59.258c0-1.321 1.0992-2.3827 2.4517-2.3827 1.3518 0 2.451 1.0617 2.451 2.3827v61.653c0 1.3212-1.0992 2.3953-2.451 2.3953" stroke-width="6.4433"/><path d="m1281.5 568.74c-0.6073 0-1.1801-0.23982-1.6127-0.65089-0.4231-0.41112-0.6544-0.98206-0.6544-1.5644 0-0.5824 0.2324-1.1419 0.6544-1.5644 0.8647-0.8222 2.3725-0.8222 3.2021 0 0.4292 0.42248 0.6778 0.98205 0.6778 1.5644s-0.2444 1.1533-0.6778 1.5644c-0.4231 0.41111-0.9935 0.65089-1.5894 0.65089" stroke-width="5.9598"/><g stroke-width="6.4433"><path d="m1609.9 706.26c0-1.321 1.0862-2.395 2.4387-2.395 1.3518 0 2.451 1.074 2.451 2.395 0 1.321-1.0992 2.395-2.451 2.395-1.3525 0-2.4387-1.074-2.4387-2.395zm9.9812 0c0-1.321 1.1115-2.395 2.451-2.395 1.3647 0 2.451 1.074 2.451 2.395 0 1.321-1.0863 2.395-2.451 2.395-1.3395 0-2.451-1.074-2.451-2.395z"/><path d="m1632.4 708.62c-0.6443 0-1.2759-0.25927-1.7307-0.70368-0.4575-0.44447-0.7203-1.0617-0.7203-1.6913 0-0.62964 0.2642-1.2346 0.7074-1.6913 0.9349-0.88889 2.5522-0.88889 3.4749 0 0.4703 0.45675 0.7197 1.0617 0.7197 1.6913s-0.2513 1.2469-0.7197 1.6913c-0.4575 0.44445-1.0871 0.70368-1.7313 0.70368"/><path d="m1676.7 680.87h18.838l-9.4128-14.642zm23.299 4.7904h-27.709c-0.8841 0-1.7055-0.4815-2.1353-1.2346-0.4446-0.7654-0.406-1.7037 0.064-2.432l13.861-21.543c0.4446-0.69135 1.2255-1.1111 2.0721-1.1111 0.8337 0 1.6173 0.41978 2.0722 1.1111l13.684 21.284c0.3544 0.41971 0.5671 0.95057 0.5671 1.5309 0 1.3209-1.0993 2.395-2.4517 2.395z"/><path d="m1738.3 708.62c-1.3518 0-2.451-1.0741-2.451-2.395v-44.308c0-1.321 1.0992-2.3827 2.451-2.3827 1.3517 0 2.451 1.0617 2.451 2.3827v44.308c0 1.3209-1.0993 2.395-2.451 2.395"/><path d="m1728.8 680.87h18.852l-9.4258-14.642zm23.299 4.7904h-27.708c-0.8846 0-1.7062-0.4815-2.1353-1.2346-0.4316-0.7654-0.406-1.7037 0.064-2.432l13.86-21.543c0.4445-0.69135 1.2255-1.1111 2.0722-1.1111 0.8337 0 1.6171 0.41978 2.072 1.1111l13.696 21.284c0.3414 0.41971 0.5541 0.95057 0.5541 1.5309 0 1.3209-1.0992 2.395-2.451 2.395z"/></g><path d="m320.37 941.02c-4.0436 0-7.3395 3.2202-7.3395 7.1713 0 3.951 3.2959 7.1712 7.3395 7.1712 4.0552 0 7.339-3.2202 7.339-7.1712 0-3.9511-3.2838-7.1713-7.339-7.1713zm6.4e-4 18.773c-6.5451 0-11.862-5.2072-11.862-11.602 0-6.3948 5.3174-11.602 11.862-11.602 6.5445 0 11.874 5.2072 11.874 11.602 0 6.3947-5.3294 11.602-11.874 11.602z" stroke-width="5.9598"/><path d="m1780.3 604.53c-1.3519 0-2.4388-1.0734-2.4388-2.395v-225.59c0-1.321 1.0869-2.395 2.4388-2.395 1.3518 0 2.451 1.074 2.451 2.395v225.59c0 1.3215-1.0992 2.395-2.451 2.395" stroke-width="6.4433"/><g stroke-width="5.4756"><path d="m509.66 178.95c-9.7602 0-17.695 7.7532-17.695 17.29v122.66c0 9.5259 7.9348 17.279 17.695 17.279 9.7499 0 17.685-7.7535 17.685-17.279v-122.66c0-9.5367-7.9348-17.29-17.685-17.29zm5.5e-4 161.3c-12.058 0-21.861-9.579-21.861-21.351v-122.66c0-11.771 9.803-21.35 21.861-21.35 12.047 0 21.85 9.5787 21.85 21.35v122.66c0 11.771-9.803 21.351-21.85 21.351z"/><path d="m509.65 309.28c-4.5952 0-8.3317 3.651-8.3317 8.1308 0 4.4799 3.7365 8.1309 8.3317 8.1309 4.5853 0 8.3218-3.651 8.3218-8.1309 0-4.4798-3.7365-8.1308-8.3218-8.1308zm5.5e-4 20.332c-6.8933 0-12.487-5.4765-12.487-12.202 0-6.725 5.5939-12.202 12.487-12.202 6.8828 0 12.477 5.4765 12.477 12.202 0 6.725-5.5939 12.202-12.477 12.202z"/><path d="m509.65 349.18c-4.5952 0-8.3317 3.651-8.3317 8.1414 0 4.4799 3.7365 8.1309 8.3317 8.1309 4.5853 0 8.3218-3.651 8.3218-8.1309 0-4.4903-3.7365-8.1414-8.3218-8.1414zm5.5e-4 20.343c-6.8933 0-12.487-5.4766-12.487-12.202 0-6.725 5.5939-12.202 12.487-12.202 6.8828 0 12.477 5.4765 12.477 12.202 0 6.725-5.5939 12.202-12.477 12.202z"/><path d="m509.65 389.1c-4.5952 0-8.3317 3.651-8.3317 8.1413 0 4.4799 3.7365 8.1309 8.3317 8.1309 4.5853 0 8.3218-3.651 8.3218-8.1309 0-4.4903-3.7365-8.1413-8.3218-8.1413zm5.5e-4 20.333c-6.8933 0-12.487-5.466-12.487-12.191 0-6.7355 5.5939-12.202 12.487-12.202 6.8828 0 12.477 5.466 12.477 12.202 0 6.725-5.5939 12.191-12.477 12.191z"/><path d="m505.24 427.66c-0.25732-1.0911 0.43807-2.1822 1.5677-2.434 1.1054-0.25188 2.2329 0.43038 2.4908 1.5318 0.25742 1.0911-0.43798 2.1717-1.5566 2.434-0.16982 0.0328-0.32309 0.0439-0.48191 0.0439-0.94504 0-1.7932-0.62948-2.0188-1.5738zm9.5456 3.0743v0.0109c-0.90185-0.70295-1.0519-1.9829-0.34492-2.8642 0.71944-0.88125 2.0188-1.0282 2.9207-0.33565 0.91276 0.7029 1.0524 1.9724 0.33401 2.8641-0.39968 0.50376-1.0092 0.76593-1.6213 0.76593-0.44908 0-0.91286-0.13634-1.2885-0.44078zm-15.462 3.8188c-1.0305-0.47199-1.4707-1.6996-0.97686-2.7173 0.49282-1.0072 1.75-1.4268 2.7811-0.94427 1.0414 0.4824 1.4707 1.6996 0.97677 2.7068-0.35583 0.73439-1.106 1.1646-1.8786 1.1646-0.30118 0-0.61215-0.063-0.90241-0.20972zm18.619 2.6544v-0.11554-0.0109c0-1.1226 0.92321-2.0353 2.0616-2.0353 1.1597-0.0109 2.0939 0.89175 2.0939 2.0248v0.0219 0.0219c0 1.1226-0.93413 2.0353-2.0835 2.0353-1.1055 0-2.0183-0.86027-2.0719-1.9409zm-19.564 5.2242c-0.50374-1.0176-0.0768-2.2242 0.95549-2.7173 1.0414-0.49281 2.2762-0.063 2.7914 0.94422 0.49282 1.0072 0.0657 2.2242-0.97677 2.7068-0.29026 0.14675-0.60124 0.20971-0.90185 0.20971-0.77319 0-1.514-0.41943-1.8683-1.1436zm16.107 3.8923c-0.71898-0.87079-0.56895-2.1508 0.323-2.8537 0.89139-0.70296 2.2012-0.55605 2.9207 0.31485 0.71954 0.88124 0.57987 2.1717-0.323 2.8641-0.38877 0.30445-0.83728 0.44079-1.2989 0.44079-0.61215 0-1.2133-0.25188-1.6213-0.76587zm-7.6232 2.6863c-1.1274-0.24147-1.8361-1.3324-1.5786-2.4235 0.24642-1.1016 1.364-1.7836 2.4914-1.5423 1.1164 0.26229 1.8146 1.3429 1.5676 2.434-0.21358 0.94422-1.0847 1.5842-2.0298 1.5842-0.1479 0-0.31218-0.0109-0.44898-0.0548z"/><path d="m520.06 197.7c0 5.6129-4.6598 10.166-10.404 10.166-5.7555 0-10.415-4.5533-10.415-10.166 0-5.6234 4.6598-10.166 10.415-10.166 5.7444 0 10.404 4.5428 10.404 10.166"/><path d="m509.65 229.49c-4.5952 0-8.3317 3.651-8.3317 8.1309 0 4.4903 3.7365 8.1414 8.3317 8.1414 4.5853 0 8.3218-3.651 8.3218-8.1414 0-4.4799-3.7365-8.1309-8.3218-8.1309zm5.5e-4 20.333c-6.8933 0-12.487-5.466-12.487-12.202 0-6.725 5.5939-12.191 12.487-12.191 6.8828 0 12.477 5.4661 12.477 12.191 0 6.7355-5.5939 12.202-12.477 12.202z"/><path d="m509.65 269.36c-4.5952 0-8.3317 3.651-8.3317 8.1309 0 4.4903 3.7365 8.1414 8.3317 8.1414 4.5853 0 8.3218-3.651 8.3218-8.1414 0-4.4798-3.7365-8.1309-8.3218-8.1309zm5.5e-4 20.332c-6.8933 0-12.487-5.4765-12.487-12.202 0-6.725 5.5939-12.202 12.487-12.202 6.8828 0 12.477 5.4765 12.477 12.202 0 6.725-5.5939 12.202-12.477 12.202z"/><path d="m388.59 258.45c-9.7602 0-17.695 7.7532-17.695 17.29v42.805c0 9.5259 7.9348 17.279 17.695 17.279 9.7499 0 17.685-7.7535 17.685-17.279v-42.805c0-9.5367-7.9348-17.29-17.685-17.29zm5.5e-4 81.445c-12.058 0-21.861-9.5785-21.861-21.35v-42.805c0-11.771 9.803-21.35 21.861-21.35 12.047 0 21.85 9.5787 21.85 21.35v42.805c0 11.771-9.803 21.35-21.85 21.35z" fill="#1183c5"/><path d="m388.58 309.28c-4.5952 0-8.3317 3.651-8.3317 8.1308 0 4.4799 3.7365 8.1309 8.3317 8.1309 4.5853 0 8.3218-3.651 8.3218-8.1309 0-4.4798-3.7365-8.1308-8.3218-8.1308zm4.6e-4 20.332c-6.8933 0-12.487-5.4765-12.487-12.202 0-6.725 5.5938-12.202 12.487-12.202 6.8829 0 12.477 5.4765 12.477 12.202 0 6.725-5.5939 12.202-12.477 12.202z" fill="#1183c5"/><path d="m388.58 349.18c-4.5952 0-8.3317 3.651-8.3317 8.1414 0 4.4799 3.7365 8.1309 8.3317 8.1309 4.5853 0 8.3218-3.651 8.3218-8.1309 0-4.4903-3.7365-8.1414-8.3218-8.1414zm4.6e-4 20.343c-6.8933 0-12.487-5.4766-12.487-12.202 0-6.725 5.5938-12.202 12.487-12.202 6.8829 0 12.477 5.4765 12.477 12.202 0 6.725-5.5939 12.202-12.477 12.202z"/><path d="m347.31 389.1c-4.5956 0-8.3322 3.651-8.3322 8.1413 0 4.4799 3.7366 8.1309 8.3322 8.1309 4.5847 0 8.3212-3.651 8.3212-8.1309 0-4.4903-3.7365-8.1413-8.3212-8.1413zm5.6e-4 20.333c-6.8933 0-12.488-5.466-12.488-12.191 0-6.7355 5.5944-12.202 12.488-12.202 6.8829 0 12.477 5.466 12.477 12.202 0 6.725-5.5939 12.191-12.477 12.191z"/><path d="m388.58 429.03c-4.5952 0-8.3317 3.651-8.3317 8.1308 0 4.4903 3.7365 8.1414 8.3317 8.1414 4.5853 0 8.3218-3.651 8.3218-8.1414 0-4.4798-3.7365-8.1308-8.3218-8.1308zm4.6e-4 20.332c-6.8933 0-12.487-5.466-12.487-12.202 0-6.725 5.5938-12.202 12.487-12.202 6.8829 0 12.477 5.4766 12.477 12.202 0 6.7356-5.5939 12.202-12.477 12.202z"/><path d="m388.58 189.57c-4.5952 0-8.3317 3.651-8.3317 8.1413 0 4.4799 3.7365 8.1309 8.3317 8.1309 4.5853 0 8.3218-3.651 8.3218-8.1309 0-4.4903-3.7365-8.1413-8.3218-8.1413zm4.6e-4 20.343c-6.8933 0-12.487-5.4765-12.487-12.202 0-6.7355 5.5938-12.202 12.487-12.202 6.8829 0 12.477 5.466 12.477 12.202 0 6.725-5.5939 12.202-12.477 12.202z"/><path d="m388.58 229.49c-4.5952 0-8.3317 3.651-8.3317 8.1309 0 4.4903 3.7365 8.1414 8.3317 8.1414 4.5853 0 8.3218-3.651 8.3218-8.1414 0-4.4799-3.7365-8.1309-8.3218-8.1309zm4.6e-4 20.333c-6.8933 0-12.487-5.466-12.487-12.202 0-6.725 5.5938-12.191 12.487-12.191 6.8829 0 12.477 5.4661 12.477 12.191 0 6.7355-5.5939 12.202-12.477 12.202z"/><path d="m399 277.54c0 5.6129-4.6597 10.166-10.404 10.166-5.7556 0-10.415-4.5533-10.415-10.166 0-5.6129 4.6597-10.166 10.415-10.166 5.7444 0 10.404 4.5533 10.404 10.166" fill="#1183c5"/><path d="m449.1 298.38c-9.7603 0-17.695 7.7531-17.695 17.279v83.207c0 9.5265 7.9347 17.28 17.695 17.28 9.7499 0 17.685-7.7535 17.685-17.28v-83.207c0-9.5262-7.9347-17.279-17.685-17.279zm5.6e-4 121.84c-12.058 0-21.861-9.579-21.861-21.35v-83.208c0-11.771 9.803-21.35 21.861-21.35 12.047 0 21.85 9.5787 21.85 21.35v83.208c0 11.771-9.803 21.35-21.85 21.35z"/><path d="m449.09 309.28c-4.5952 0-8.3317 3.651-8.3317 8.1308 0 4.4799 3.7365 8.1309 8.3317 8.1309 4.5852 0 8.3218-3.651 8.3218-8.1309 0-4.4798-3.7366-8.1308-8.3218-8.1308zm5.6e-4 20.332c-6.8933 0-12.487-5.4765-12.487-12.202 0-6.725 5.594-12.202 12.487-12.202 6.8828 0 12.477 5.4765 12.477 12.202 0 6.725-5.5939 12.202-12.477 12.202z"/><path d="m449.09 349.18c-4.5952 0-8.3317 3.651-8.3317 8.1414 0 4.4799 3.7365 8.1309 8.3317 8.1309 4.5852 0 8.3218-3.651 8.3218-8.1309 0-4.4903-3.7366-8.1414-8.3218-8.1414zm5.6e-4 20.343c-6.8933 0-12.487-5.4766-12.487-12.202 0-6.725 5.594-12.202 12.487-12.202 6.8828 0 12.477 5.4765 12.477 12.202 0 6.725-5.5939 12.202-12.477 12.202z"/><path d="m449.09 389.1c-4.5952 0-8.3317 3.651-8.3317 8.1413 0 4.4799 3.7365 8.1309 8.3317 8.1309 4.5852 0 8.3218-3.651 8.3218-8.1309 0-4.4903-3.7366-8.1413-8.3218-8.1413zm5.6e-4 20.333c-6.8933 0-12.487-5.466-12.487-12.191 0-6.7355 5.594-12.202 12.487-12.202 6.8828 0 12.477 5.466 12.477 12.202 0 6.725-5.5939 12.191-12.477 12.191z"/><path d="m449.09 429.03c-4.5952 0-8.3317 3.651-8.3317 8.1308 0 4.4903 3.7365 8.1414 8.3317 8.1414 4.5852 0 8.3218-3.651 8.3218-8.1414 0-4.4798-3.7366-8.1308-8.3218-8.1308zm5.6e-4 20.332c-6.8933 0-12.487-5.466-12.487-12.202 0-6.725 5.594-12.202 12.487-12.202 6.8828 0 12.477 5.4766 12.477 12.202 0 6.7356-5.5939 12.202-12.477 12.202z"/><path d="m449.09 189.57c-4.5952 0-8.3317 3.651-8.3317 8.1413 0 4.4799 3.7365 8.1309 8.3317 8.1309 4.5852 0 8.3218-3.651 8.3218-8.1309 0-4.4903-3.7366-8.1413-8.3218-8.1413zm5.6e-4 20.343c-6.8933 0-12.487-5.4765-12.487-12.202 0-6.7355 5.594-12.202 12.487-12.202 6.8828 0 12.477 5.466 12.477 12.202 0 6.725-5.5939 12.202-12.477 12.202z" fill="#1183c5"/><path d="m444.74 228.13c-0.25733-1.0806 0.43807-2.1822 1.5567-2.4235 1.1274-0.26228 2.2439 0.41965 2.5019 1.5108 0.25732 1.1016-0.44908 2.1822-1.5567 2.4445-0.15882 0.0422-0.31218 0.0525-0.471 0.0525-0.94504 0-1.8146-0.63997-2.0292-1.5842zm9.5451 3.0743c-0.91276-0.69245-1.0518-1.9724-0.34492-2.8432 0.71953-0.89177 2.0292-1.0282 2.9207-0.3357 0.90176 0.70293 1.0524 1.9724 0.34492 2.8537-0.41614 0.5036-1.0201 0.77634-1.6323 0.77634-0.4599 0-0.91221-0.14685-1.2884-0.45108zm-15.45 3.8184c-1.042-0.4721-1.4823-1.6891-0.98833-2.6962 0.50374-1.0177 1.7396-1.4478 2.781-0.96523 1.0311 0.49307 1.4714 1.6996 0.97742 2.7068-0.36693 0.73438-1.0952 1.1646-1.8793 1.1646-0.30117 0-0.60124-0.063-0.89085-0.20989zm18.608 2.6547v-0.11542-0.0104c0-1.1226 0.93413-2.0354 2.083-2.0354 1.1487-0.0104 2.0828 0.90227 2.0828 2.0249v0.0313 0.0208c0 1.1121-0.92321 2.0248-2.0828 2.0248-1.1165 0-2.0293-0.86027-2.072-1.9409zm-19.575 5.2244c-0.49292-1.0072-0.0657-2.2346 0.96641-2.7068 1.0305-0.50354 2.2866-0.0735 2.7805 0.93375 0.50383 1.0177 0.0768 2.2242-0.96586 2.7173-0.29026 0.1364-0.60123 0.19937-0.9024 0.19937-0.77254 0-1.5135-0.41965-1.8786-1.1436zm16.117 3.9034c-0.71944-0.8813-0.57977-2.1613 0.3231-2.8642 0.90185-0.70296 2.2122-0.55605 2.9207 0.31474 0.71945 0.89176 0.57987 2.1717-0.32309 2.8746-0.38877 0.29377-0.84811 0.43016-1.2993 0.43016-0.60123 0-1.2135-0.25182-1.6214-0.75535zm-7.6341 2.6751c-1.1164-0.24132-1.8146-1.3219-1.5676-2.4235 0.24642-1.1016 1.3634-1.7836 2.4805-1.5423 1.1274 0.25182 1.825 1.3429 1.578 2.4445-0.22449 0.9337-1.0732 1.5737-2.0293 1.5737-0.15873 0-0.30108-0.0104-0.4599-0.0525z"/><path d="m449.09 269.36c-4.5952 0-8.3317 3.651-8.3317 8.1309 0 4.4903 3.7365 8.1414 8.3317 8.1414 4.5852 0 8.3218-3.651 8.3218-8.1414 0-4.4798-3.7366-8.1309-8.3218-8.1309zm5.6e-4 20.332c-6.8933 0-12.487-5.4765-12.487-12.202 0-6.725 5.594-12.202 12.487-12.202 6.8828 0 12.477 5.4765 12.477 12.202 0 6.725-5.5939 12.202-12.477 12.202z"/><path d="m391.33 390.92c-0.9987-0.55605-1.342-1.8045-0.7731-2.7802 0.56886-0.97569 1.8574-1.3115 2.8451-0.7449 0.99869 0.55604 1.3426 1.794 0.76273 2.7697-0.38877 0.65045-1.0737 1.0177-1.7932 1.0177-0.35593 0-0.70863-0.0838-1.0415-0.26229zm-9.8035-0.71347c-0.57987-0.9757-0.23541-2.2137 0.75182-2.7802 0.99823-0.56656 2.2652-0.24148 2.8451 0.73439 0.57987 0.96524 0.2355 2.2137-0.75126 2.7802-0.33401 0.17851-0.69817 0.27269-1.042 0.27269-0.71899 0-1.4172-0.35702-1.8037-1.0072zm13.315 6.7354v-0.14675c0-1.1121 0.93413-2.0353 2.0725-2.0458 1.1592 0 2.0933 0.91279 2.0933 2.0249v0.0328 0.0219c0 1.1226-0.92313 2.0353-2.0829 2.0353-1.1061 0-2.0183-0.86033-2.072-1.92zm-18.103-0.0947c0-1.1226 0.92367-2.0353 2.0835-2.0353 1.1378 0 2.0829 0.90228 2.0933 2.0248 0 1.1331-0.93413 2.0458-2.0829 2.0458-1.1597 0-2.083-0.91278-2.0939-2.0353zm13.862 8.6554c-0.56895-0.96519-0.2355-2.2242 0.76218-2.7802 0.98833-0.56651 2.2658-0.23107 2.8347 0.73439 0.59087 0.97576 0.2465 2.2137-0.75117 2.7802-0.33401 0.18891-0.68726 0.28309-1.0415 0.28309-0.71945 0-1.4176-0.36742-1.8042-1.0177zm-8.2792 0.74523c-0.99824-0.55605-1.342-1.8046-0.76218-2.7697 0.56886-0.9757 1.8359-1.3115 2.8347-0.75542 0.99823 0.56657 1.3311 1.8151 0.76218 2.7908-0.38877 0.65045-1.0842 1.0176-1.8036 1.0176-0.35593 0-0.69817-0.0942-1.0311-0.28308z"/></g></g><g transform="matrix(8.812 0 0 8.812 -3702.4 -1444)" fill-rule="evenodd"><path d="m559.03 193.62c-0.10001 0-0.19805-0.0422-0.26669-0.11113-0.0725-0.069-0.11373-0.16478-0.11373-0.26058 0-0.0996 0.0412-0.19352 0.11373-0.26441 0.13923-0.13796 0.39415-0.13796 0.53534 0 0.0725 0.0709 0.11177 0.16477 0.11177 0.26441 0 0.0958-0.0392 0.1916-0.11177 0.26058-0.0706 0.069-0.16668 0.11113-0.26865 0.11113"/><path d="m557.11 193.25c0-0.20693 0.1706-0.37171 0.38042-0.37171s0.38042 0.16478 0.38042 0.37171c0 0.2031-0.1706 0.37171-0.38042 0.37171s-0.38042-0.16861-0.38042-0.37171"/><path d="m555.95 193.62c-0.098 0-0.19609-0.0421-0.26669-0.11113-0.0706-0.069-0.11177-0.16478-0.11177-0.26058 0-0.0996 0.0412-0.19352 0.11177-0.2625 0.13923-0.13987 0.39611-0.13987 0.5373-2e-3 0.0706 0.0709 0.10981 0.16478 0.10981 0.26441 0 0.0958-0.0392 0.1916-0.10981 0.26058-0.0706 0.069-0.16864 0.11113-0.27061 0.11113"/><path d="m572.81 193.62h-13.778c-0.20982 0-0.37846-0.16478-0.37846-0.36979 0-0.20502 0.16864-0.37171 0.37846-0.37171h13.397v-3.0216h-9.2635c-0.20982 0-0.38042-0.16478-0.38042-0.3698v-3.7114c0-0.20502 0.1706-0.37171 0.38042-0.37171h3.0865c0.21178 0 0.38042 0.16669 0.38042 0.37171s-0.16864 0.37171-0.38042 0.37171h-2.7061v2.9679h9.2635c0.2098 0 0.3804 0.1667 0.3804 0.37171v3.7631c0 0.20501-0.1706 0.36979-0.3804 0.36979"/><path d="m572.95 186.15c-0.098 0-0.19805-0.0402-0.26865-0.10921-0.0706-0.069-0.11177-0.1667-0.11177-0.2625 0-0.0977 0.0412-0.19352 0.11177-0.26441 0.14315-0.13604 0.39611-0.13604 0.53926 0 0.0686 0.0709 0.10981 0.16669 0.10981 0.26441 0 0.0958-0.0412 0.19352-0.10981 0.2625-0.0726 0.069-0.1706 0.10921-0.27061 0.10921"/><path d="m567.54 185.77c0-0.20693 0.16864-0.37171 0.38042-0.37171 0.20786 0 0.37846 0.16478 0.37846 0.37171 0 0.20502-0.1706 0.37171-0.37846 0.37171-0.21178 0-0.38042-0.16669-0.38042-0.37171zm1.6746 0c0-0.20693 0.1706-0.37171 0.37846-0.37171 0.21178 0 0.38042 0.16478 0.38042 0.37171 0 0.20502-0.16864 0.37171-0.38042 0.37171-0.20786 0-0.37846-0.16669-0.37846-0.37171zm1.6748 0c0-0.20693 0.1706-0.37171 0.38042-0.37171s0.38042 0.16478 0.38042 0.37171c0 0.20502-0.1706 0.37171-0.38042 0.37171s-0.38042-0.16669-0.38042-0.37171z" fill="#1183c5"/><path d="m566.25 186.15c-0.10197 0-0.20001-0.0402-0.27061-0.10921-0.0706-0.069-0.10981-0.1667-0.10981-0.2625 0-0.0977 0.0392-0.19352 0.10981-0.26441 0.14315-0.13604 0.39611-0.13604 0.53926 0 0.0686 0.0709 0.11177 0.16669 0.11177 0.26441 0 0.0958-0.0431 0.19352-0.11177 0.2625-0.0706 0.069-0.1706 0.10921-0.26865 0.10921"/><path d="m578.78 186.15h-5.8279c-0.20982 0-0.38042-0.1667-0.38042-0.3717 0-0.2051 0.1706-0.37175 0.38042-0.37175h5.4475v-9.1606h-1.9002c-0.20982 0-0.38042-0.16478-0.38042-0.36979 0-0.20502 0.1706-0.37171 0.38042-0.37171h2.2806c0.20982 0 0.38042 0.16669 0.38042 0.37171v9.9021c0 0.205-0.1706 0.3717-0.38042 0.3717"/></g><g fill-rule="evenodd" stroke-width="7.3648"><path d="m1288.7 159.05h20.551l1.4442-10.103c0.1473-1.0443 0.8956-1.9053 1.9215-2.2301 2.4547-0.74754 4.8814-1.7352 7.2205-2.9209 0.9537-0.49344 2.1233-0.39475 2.9754 0.2401l8.3473 6.1526 14.528-14.196-6.2962-8.1558c-0.6481-0.83296-0.7511-1.976-0.2578-2.9069 1.227-2.286 2.2383-4.6568 3.0034-7.0557 0.3314-1.0019 1.2138-1.7357 2.2824-1.8768l10.34-1.4111v-20.08l-10.34-1.4111c-1.0686-0.1414-1.9502-0.87494-2.2824-1.8768-0.7651-2.3989-1.7764-4.7696-3.0034-7.0556-0.4933-0.93136-0.3903-2.0744 0.2578-2.9069l6.2962-8.1563-14.528-14.196-8.3473 6.1524c-0.8521 0.63485-2.0217 0.73354-2.9754 0.2401-2.3391-1.1854-4.7658-2.1731-7.2205-2.921-1.0259-0.32478-1.7772-1.1854-1.9215-2.2296l-1.4442-10.104h-20.551l-1.4441 10.104c-0.1474 1.0442-0.8949 1.905-1.9348 2.2296-2.4407 0.7479-4.8674 1.7357-7.2065 2.921-0.9537 0.49418-2.1232 0.39549-2.9754-0.2401l-8.3472-6.1524-14.529 14.196 6.297 8.1563c0.6481 0.83252 0.7505 1.9755 0.243 2.9069-1.213 2.286-2.2242 4.6567-2.9894 7.0556-0.3314 1.0018-1.2277 1.7357-2.2824 1.8768l-10.354 1.4111v20.08l10.354 1.4111c1.0547 0.14141 1.9503 0.87495 2.2824 1.8768 0.7652 2.3989 1.7764 4.7697 2.9894 7.0557 0.5082 0.93091 0.4051 2.0739-0.243 2.9069l-6.297 8.1558 14.529 14.196 8.3472-6.1526c0.8522-0.63485 2.0217-0.73354 2.9754-0.2401 2.3391 1.1857 4.7658 2.1734 7.2205 2.9209 1.0259 0.32478 1.7764 1.1857 1.9208 2.2301zm22.978 5.4758h-25.418c-1.386 0-2.5703-1.0024-2.7729-2.3568l-1.5303-10.781c-1.6321-0.57888-3.2495-1.2277-4.838-1.962l-8.8968 6.5621c-1.112 0.81823-2.6719 0.71955-3.6683-0.25409l-17.98-17.555c-0.9824-0.97363-1.0833-2.4974-0.243-3.5837l6.716-8.6927c-0.7512-1.5525-1.4303-3.133-2.0077-4.7275l-11.034-1.4958c-1.3861-0.19738-2.4112-1.3544-2.4112-2.7092v-24.85c0-1.3547 1.0251-2.5118 2.4112-2.7093l11.034-1.4958c0.5745-1.5946 1.2565-3.175 2.0077-4.7273l-6.716-8.6926c-0.8374-1.0865-0.7366-2.6105 0.243-3.5842l17.98-17.554c0.9964-0.9737 2.5563-1.0725 3.6683-0.25409l8.8968 6.5758c1.5885-0.7479 3.2059-1.397 4.838-1.9756l1.5303-10.781c0.2062-1.3547 1.3869-2.3566 2.7729-2.3566h25.418c1.4008 0 2.5851 1.0019 2.7729 2.3566l1.5451 10.781c1.6321 0.57888 3.2494 1.2277 4.824 1.9756l8.9107-6.5758c1.1121-0.81845 2.6719-0.71954 3.6684 0.25409l17.966 17.554c0.9964 0.9737 1.0974 2.4977 0.2578 3.5842l-6.7301 8.6926c0.7653 1.5522 1.4296 3.1326 2.007 4.7273l11.049 1.4958c1.386 0.19738 2.4112 1.3546 2.4112 2.7093v24.85c0 1.3548-1.0252 2.5118-2.4112 2.7092l-11.049 1.4958c-0.5745 1.5945-1.2417 3.175-2.007 4.7275l6.7301 8.6927c0.8373 1.0863 0.7364 2.6101-0.2578 3.5837l-17.966 17.555c-0.9965 0.97364-2.5563 1.0723-3.6684 0.25409l-8.9107-6.5621c-1.5746 0.73427-3.1919 1.3831-4.824 1.962l-1.5451 10.781c-0.1841 1.3544-1.3721 2.3568-2.7729 2.3568z"/><path d="m1301.7 73.597c-1.5459-0.12668-2.672-1.4534-2.5276-2.9634 0.1179-1.4958 1.4877-2.6247 3.0328-2.4836 1.5452 0.1414 2.672 1.4676 2.5269 2.9634-0.1179 1.4252-1.3426 2.4976-2.7869 2.4976-0.074 0-0.1619 0-0.243-0.01471zm-15.121-0.80394c-0.4198-1.4393 0.4345-2.9633 1.9354-3.3726 1.487-0.42348 3.0182 0.42347 3.4512 1.8768 0.4198 1.4534-0.4345 2.9634-1.906 3.3726-0.2725 0.08473-0.5229 0.11268-0.78 0.11268-1.213 0-2.3398-0.77611-2.7006-1.9897zm26.384 3.8939c-1.3861-0.67756-1.9642-2.3142-1.2712-3.6689 0.6775-1.3547 2.3686-1.9051 3.7553-1.2277 1.3861 0.64884 1.9495 2.3002 1.2712 3.6549-0.4935 0.95949-1.4878 1.5239-2.5276 1.5239-0.4199 0-0.8374-0.09869-1.2277-0.28207zm-37.289 2.597c-0.9383-1.1994-0.6923-2.921 0.5377-3.8382 1.2417-0.90308 3.0034-0.67756 3.9276 0.52216 0.9243 1.2136 0.6923 2.9352-0.5303 3.8382-0.5082 0.38076-1.0973 0.55016-1.6895 0.55016-0.852 0-1.6902-0.36677-2.2388-1.0725zm46.633 4.262c-1.0259-1.1007-0.953-2.8364 0.1768-3.8524 1.1556-1.0301 2.9173-0.95957 3.9571 0.16939 1.0547 1.1007 0.9678 2.8223-0.162 3.8524-0.5302 0.47945-1.227 0.71955-1.8912 0.71955-0.7513 0-1.5165-0.29606-2.0799-0.88901zm-54.418 5.6163c-1.3286-0.79024-1.7329-2.4836-0.9102-3.7677 0.8086-1.2841 2.5275-1.6793 3.8414-0.88901 1.3146 0.79017 1.7189 2.4836 0.9103 3.7818-0.5229 0.8326-1.4442 1.2983-2.3833 1.2983-0.4934 0-0.9964-0.1414-1.4582-0.42348zm60.627 4.0778c-0.5598-1.4111 0.1472-2.9916 1.5885-3.556 1.4303-0.53615 3.0616 0.1554 3.625 1.5664 0.5671 1.4111-0.1473 2.9774-1.5739 3.542-0.3314 0.11268-0.6923 0.18338-1.0251 0.18338-1.1121 0-2.1808-0.64884-2.6145-1.7357zm-64.238 7.8885c-1.5164-0.26808-2.5276-1.6933-2.2382-3.175 0.2725-1.4958 1.7329-2.4694 3.2493-2.2013 1.5164 0.26808 2.5269 1.7075 2.2382 3.175-0.243 1.3265-1.4295 2.2437-2.7441 2.2437-0.1621 0-0.3314-0.0147-0.5082-0.0442zm66.434 3.4708v-0.0147-0.11268c0-1.524 1.2424-2.7517 2.8016-2.7517 1.5312-0.0147 2.8015 1.1994 2.8163 2.7234v0.0847 0.0736c0 1.4958-1.2704 2.7235-2.8016 2.7235-1.5598 0-2.8016-1.2277-2.8016-2.7235zm-68.642 6.774c-0.3019-1.4676 0.7071-2.9069 2.2242-3.1891 1.5164-0.28208 2.9894 0.70555 3.2634 2.1872 0.2872 1.4817-0.707 2.9069-2.2382 3.1892-0.162 0.0295-0.3462 0.0442-0.5229 0.0442-1.3139 0-2.4841-0.91722-2.7293-2.2296zm68.092 7.9866c-1.4443-0.53615-2.1513-2.1167-1.5886-3.5278 0.5523-1.4111 2.1668-2.1166 3.6109-1.5664 1.4443 0.55015 2.166 2.1308 1.6026 3.5419-0.4344 1.0725-1.5017 1.7498-2.6138 1.7498-0.3314 0-0.6775-0.0589-1.0111-0.19738zm-63.111 4.544c-0.8234-1.2841-0.4198-2.9634 0.8956-3.7536 1.3138-0.81845 3.0468-0.42348 3.8555 0.87494 0.8086 1.2841 0.4197 2.9633-0.8956 3.7536-0.464 0.28207-0.967 0.42347-1.4729 0.42347-0.9383 0-1.8626-0.46546-2.3826-1.2982zm55.544 5.5176c-1.1548-1.0301-1.2277-2.7516-0.1989-3.8806 1.0539-1.1147 2.8163-1.1853 3.9711-0.1694 1.1268 1.0019 1.2138 2.7517 0.1768 3.8665-0.5597 0.59287-1.3147 0.88901-2.0651 0.88901-0.6776 0-1.3433-0.2401-1.8781-0.70555zm-46.258 4.4026c-1.2278-0.90315-1.4877-2.6247-0.5597-3.8382 0.939-1.1994 2.6866-1.4393 3.9283-0.53616 1.2418 0.90314 1.473 2.6388 0.5524 3.8382-0.5524 0.70555-1.4008 1.0866-2.2381 1.0866-0.5818 0-1.1703-0.18338-1.6755-0.55015zm35.485 2.2858c-0.6923-1.3405-0.1326-2.9916 1.2564-3.6548 1.372-0.69156 3.0616-0.14141 3.7546 1.2136 0.6775 1.3546 0.1178 2.9915-1.2564 3.6689-0.4051 0.19738-0.8374 0.29607-1.2565 0.29607-1.0251 0-2.0076-0.56414-2.4981-1.524zm-23.166 3.6973c-1.4877-0.40948-2.3545-1.9333-1.9355-3.3726 0.4199-1.4676 1.9643-2.3002 3.4512-1.8909 1.4877 0.40948 2.3546 1.9191 1.9355 3.3726-0.3461 1.2136-1.4729 1.9897-2.7007 1.9897-0.243 0-0.5081-0.0295-0.7505-0.0987zm10.644-1.2559c-0.1473-1.5099 0.9818-2.8363 2.5269-2.9633v-0.0147c1.5312-0.1414 2.9032 0.95957 3.0476 2.4694 0.1472 1.5099-0.9965 2.8505-2.5276 2.9775-0.089 0-0.1768 0.0147-0.2578 0.0147-1.4443 0-2.6573-1.0583-2.7869-2.4836z"/><path d="m1298.9 83.04c-12.131 0-22.009 9.638-22.009 21.491 0 11.868 9.8778 21.506 22.009 21.506 12.146 0 22.01-9.638 22.01-21.506 0-11.853-9.8637-21.491-22.01-21.491zm7e-4 48.472c-15.222 0-27.598-12.093-27.598-26.981 0-14.873 12.377-26.967 27.598-26.967 15.222 0 27.613 12.093 27.613 26.967 0 14.887-12.391 26.981-27.613 26.981z" fill="#1183c5"/><path d="m1284.6 153.41c-0.7365 0-1.4582-0.29606-1.9782-0.80432-0.5229-0.50817-0.8087-1.2136-0.8087-1.9333 0-0.71953 0.2872-1.4252 0.8087-1.9332 1.0399-1.016 2.9172-1.016 3.9571 0 0.5229 0.52218 0.8234 1.2136 0.8234 1.9332 0 0.71955-0.3019 1.4252-0.8234 1.9333-0.5229 0.50818-1.2424 0.80432-1.9789 0.80432"/></g></svg>
