<svg xmlns="http://www.w3.org/2000/svg" viewBox="0 0 913.937 600"><title>Page 1</title><g fill="none" fill-rule="evenodd"><path fill="#0c8fd7" d="M390.284 203.46c-1.567-1.014-3.048-1.977-3.982-1.583-.767.325-1.531.904-2.342 1.516-.947.72-1.927 1.462-3.099 1.948-2.06.856-4.57.31-7.073-1.539l-.071-.05c-1.491-1.103-3.024-2.24-4.129-2.08-.896.136-1.904.89-2.973 1.69-.579.43-1.178.878-1.826 1.284-2.22 1.383-4.984 1.376-7.212-.02-.638-.4-1.226-.837-1.792-1.263-1.076-.8-2.094-1.561-2.996-1.693-1.161-.162-2.706.832-4.194 1.796-2.12 1.38-4.53 2.937-7.092 1.864-1.16-.49-2.133-1.226-3.071-1.937-.816-.618-1.59-1.203-2.361-1.526-1.301-.538-3.097.62-3.804 1.142l-.07.05c-1.946 1.439-4.161 3.05-6.612 2.696-1.735-.26-3.133-1.305-4.485-2.317-.547-.408-1.064-.796-1.59-1.122l1.77-2.843c.645.406 1.243.851 1.821 1.285 1.069.796 2.077 1.552 2.978 1.69 1.114.172 2.64-.98 4.126-2.078l.07-.056c2.503-1.845 5.013-2.392 7.075-1.539 1.172.488 2.152 1.23 3.102 1.952.809.613 1.574 1.191 2.345 1.518.926.384 2.409-.571 3.975-1.586 1.912-1.238 4.069-2.637 6.486-2.302 1.752.254 3.16 1.308 4.525 2.325.538.403 1.048.783 1.57 1.11 1.15.722 2.515.727 3.663.013.525-.33 1.046-.715 1.591-1.126 1.351-1.008 2.749-2.052 4.483-2.314 2.447-.373 4.664 1.257 6.609 2.692l.072.054c.708.525 2.496 1.683 3.804 1.142.776-.321 1.545-.907 2.36-1.526.94-.71 1.913-1.445 3.07-1.934 2.571-1.081 4.977.485 7.098 1.86 1.485.967 3.03 1.957 4.195 1.795.903-.13 1.918-.888 2.995-1.694a26.011 26.011 0 0 1 1.79-1.26c2.23-1.397 4.991-1.402 7.212-.018l-1.77 2.842c-1.144-.713-2.515-.708-3.664.013-.519.325-1.028.704-1.569 1.107-1.363 1.021-2.775 2.077-4.521 2.327-.253.038-.5.05-.748.05-2.117 0-4.032-1.24-5.743-2.352zm117.73 276.73c-1.432-.215-2.599-1.088-3.625-1.854l1.968-2.71.038.028c.778.584 1.516 1.138 2.117 1.226.683.1 1.901-.803 2.882-1.53 2.085-1.535 4.15-1.97 5.862-1.264.948.394 1.755 1.007 2.47 1.548.6.455 1.17.888 1.72 1.116.518.221 1.677-.526 2.69-1.186 1.524-.989 3.247-2.111 5.251-1.827 1.443.208 2.615 1.088 3.651 1.86.408.302.792.591 1.179.834a2.232 2.232 0 0 0 2.406.012c.392-.246.78-.538 1.193-.847 1.029-.766 2.192-1.636 3.621-1.852 2.046-.309 3.812.994 5.368 2.14 1.076.796 2.026 1.108 2.593.87.55-.227 1.122-.662 1.732-1.122.705-.534 1.504-1.14 2.44-1.533 2.164-.906 4.185.406 5.811 1.463l-1.814 2.812c-1.021-.663-2.173-1.405-2.703-1.189-.541.232-1.11.66-1.714 1.12-.713.54-1.521 1.151-2.464 1.543-1.714.713-3.779.275-5.816-1.227-1.036-.763-2.26-1.661-2.937-1.563-.596.087-1.333.64-2.115 1.223-.45.338-.917.685-1.426 1.001a5.574 5.574 0 0 1-5.952-.012 20.821 20.821 0 0 1-1.405-.989c-.786-.585-1.526-1.14-2.123-1.226-.747-.104-1.873.62-2.956 1.322-1.626 1.054-3.65 2.365-5.81 1.462-.936-.393-1.736-1.001-2.442-1.537-.606-.459-1.179-.894-1.727-1.123-.568-.23-1.521.079-2.545.832-1.442 1.066-3.015 2.227-4.81 2.227-.2 0-.4-.015-.607-.045zM251.3 197.003c-13.685 0-24.823-11.141-24.823-24.835s11.138-24.835 24.823-24.835v3.349c-11.84 0-21.476 9.639-21.476 21.486 0 11.848 9.634 21.487 21.477 21.487v3.35z"/><path fill="#0c8fd7" d="M253.244 150.768a21.924 21.924 0 0 0-1.943-.087v-3.347c.743 0 1.497.034 2.24.1l-.297 3.335zm7.18 1.942a21.529 21.529 0 0 0-3.503-1.289l.874-3.231c1.389.375 2.75.875 4.053 1.488zm6.085 4.286a21.683 21.683 0 0 0-2.855-2.41l1.927-2.734a25.054 25.054 0 0 1 3.299 2.78zm4.264 6.1a21.287 21.287 0 0 0-1.867-3.234l2.744-1.92a24.698 24.698 0 0 1 2.16 3.74zm1.923 7.188a21.536 21.536 0 0 0-.646-3.679l3.235-.865c.367 1.388.619 2.815.745 4.254l-3.335.29zm2.597 8.279l-3.234-.861c.32-1.201.536-2.437.64-3.681l3.336.285a24.754 24.754 0 0 1-.74 4.257zm-3.624 7.804l-2.746-1.918a21.374 21.374 0 0 0 1.864-3.235l3.035 1.414a24.578 24.578 0 0 1-2.152 3.74zm-6.063 6.101l-1.93-2.737a21.627 21.627 0 0 0 2.853-2.411l2.373 2.36a25.2 25.2 0 0 1-3.298 2.79zm-7.78 3.666l-.876-3.228a21.435 21.435 0 0 0 3.5-1.294l1.427 3.028a24.583 24.583 0 0 1-4.051 1.495zm-6.525.87v-3.349c.65 0 1.306-.027 1.942-.087l.3 3.338c-.735.066-1.491.1-2.24.1"/><path fill="#000" d="M242.852 345.247h-3.348v-39.668h-25.312v-3.348h28.664M239.503 390.998h3.348v-29.01h-3.348m33.96 29.01h3.348v-87.093h-3.35m86.458 16.45h-3.348v-18.127h50.76V285.05h3.349v20.529h-50.76m38.134 87.09h10.95v-3.349h-10.95m157.98 1.678h3.348V276.542h-3.349m93.8 96.26l-3.224-.91 14.407-51.093 3.216.906"/><path fill="#000" d="M698.436 392.672h-21.044v-3.35h17.696V278.215h-46.94v-3.347h50.29m-99.582 112.307l-20.913-77.078 3.23-.88 20.911 77.08m-32.213-238.94a8.86 8.86 0 0 0-3.203.598 8.907 8.907 0 0 0-4.99 4.724 8.916 8.916 0 0 0-.187 6.869c1.32 3.453 4.691 5.775 8.382 5.775 1.096 0 2.174-.2 3.208-.594 4.62-1.772 6.942-6.974 5.175-11.596-1.32-3.456-4.69-5.775-8.385-5.775zm.003 21.316c-5.07 0-9.696-3.185-11.51-7.928a12.257 12.257 0 0 1 .256-9.43 12.251 12.251 0 0 1 6.85-6.49 12.295 12.295 0 0 1 4.4-.817c5.074 0 9.7 3.188 11.511 7.928 2.427 6.348-.76 13.492-7.106 15.92-1.417.541-2.896.817-4.4.817zm4.263 7.154l2.58 6.75 5.559-2.127-2.58-6.75 1.126-.741a19.754 19.754 0 0 0 5.036-4.776l.798-1.083 6.597 2.953 2.428-5.443-6.599-2.946.273-1.318a19.73 19.73 0 0 0 .192-6.94l-.2-1.333 6.746-2.582-2.127-5.561-6.743 2.582-.742-1.122a19.69 19.69 0 0 0-4.773-5.042l-1.08-.801 2.944-6.6-5.435-2.427-2.948 6.6-1.317-.273a19.86 19.86 0 0 0-6.938-.194l-1.329.198-2.58-6.744-5.557 2.124 2.58 6.753-1.126.738a19.778 19.778 0 0 0-5.036 4.776l-.799 1.08-6.597-2.947-2.427 5.439 6.597 2.946-.273 1.321a19.745 19.745 0 0 0-.194 6.938l.2 1.334-6.743 2.582 2.124 5.563 6.748-2.583.738 1.127a19.744 19.744 0 0 0 4.773 5.04l1.081.8-2.942 6.599 5.432 2.427 2.947-6.596 1.316.27a19.85 19.85 0 0 0 6.935.191l1.332-.2zm.65 11.072l-2.827-7.399a22.885 22.885 0 0 1-5.434-.15l-3.228 7.24-11.548-5.16 3.232-7.239a22.755 22.755 0 0 1-3.739-3.947l-7.394 2.831-4.517-11.816 7.395-2.827a22.925 22.925 0 0 1 .15-5.438l-7.232-3.23 5.155-11.553 7.231 3.233a23.27 23.27 0 0 1 3.947-3.741l-2.828-7.4 11.81-4.52 2.826 7.4a23.21 23.21 0 0 1 5.433.15l3.228-7.236 11.548 5.16-3.228 7.235a23.244 23.244 0 0 1 3.734 3.948l7.395-2.834 4.519 11.82-7.394 2.833a23.1 23.1 0 0 1-.15 5.434l7.231 3.228-5.155 11.556-7.234-3.23a23.034 23.034 0 0 1-3.941 3.738l2.828 7.399-11.811 4.52z"/><path fill="#000" d="M516.346 209.847l17.21 7.69a12.606 12.606 0 0 1 4.191-1.603l7.69-17.224a30.42 30.42 0 0 0-4.577-.488c-9.636-.28-18.68 4.081-24.514 11.623zm17.564 11.518l-22.62-10.112 1.108-1.652c6.38-9.49 17.09-15.035 28.554-14.723 2.433.069 4.875.413 7.263 1.017l1.93.488-10.11 22.638-.958.1a9.152 9.152 0 0 0-4.382 1.68l-.784.564zm6.106 4.204a2.587 2.587 0 0 0-2.412 3.508c.491 1.291 2.034 1.993 3.335 1.493a2.585 2.585 0 0 0-.923-5.003zm.002 8.52a5.967 5.967 0 0 1-5.54-3.816c-1.171-3.053.365-6.491 3.42-7.662a5.908 5.908 0 0 1 2.117-.393 5.972 5.972 0 0 1 5.543 3.816c1.164 3.058-.368 6.494-3.422 7.663-.68.26-1.395.393-2.118.393zm12.211-8.203l17.214 7.695a30.59 30.59 0 0 0 .488-4.582c.267-9.651-4.042-18.677-11.619-24.53l-7.685 17.221a12.587 12.587 0 0 1 1.601 4.196zm19.543 12.4l-22.63-10.112-.1-.961a9.134 9.134 0 0 0-1.677-4.386l-.563-.782 10.104-22.64 1.652 1.112c9.537 6.42 15.039 17.1 14.716 28.574a33.695 33.695 0 0 1-1.014 7.269l-.488 1.927zm-61.181-15.555a29.535 29.535 0 0 0-.486 4.58c-.272 9.65 4.038 18.68 11.614 24.528l7.688-17.22a12.42 12.42 0 0 1-1.602-4.195l-17.215-7.692zm12.534 34.17l-1.652-1.11c-9.533-6.42-15.039-17.099-14.713-28.572.066-2.436.408-4.88 1.013-7.27l.49-1.929 22.627 10.114.1.963a9.124 9.124 0 0 0 1.676 4.384l.567.78-10.11 22.64zm11.47.696c1.52.282 3.052.443 4.581.485 9.63.276 18.68-4.076 24.513-11.62l-17.213-7.695a12.446 12.446 0 0 1-4.193 1.604l-7.689 17.225zm5.438 3.847a33.485 33.485 0 0 1-8.216-1.028l-1.927-.49L540 237.286l.958-.103a9.11 9.11 0 0 0 4.384-1.674l.78-.568 22.626 10.113-1.11 1.652c-6.205 9.23-16.525 14.739-27.604 14.739zm-6.771 15.39l10.76.304.225-7.949 1.405-.193a41.182 41.182 0 0 0 17.353-6.63l1.177-.792 5.462 5.78 7.82-7.397-5.464-5.78.858-1.13a41.262 41.262 0 0 0 7.595-16.966l.27-1.394 7.941.225.303-10.763-7.941-.226-.192-1.407a41.221 41.221 0 0 0-6.63-17.362l-.791-1.177 5.777-5.467-7.39-7.822-5.778 5.463-1.131-.858a41.232 41.232 0 0 0-16.953-7.6l-1.391-.27.221-7.944-10.757-.305-.223 7.945-1.408.194a41.173 41.173 0 0 0-17.353 6.634l-1.176.792-5.462-5.78-7.822 7.394 5.46 5.783-.857 1.13a41.245 41.245 0 0 0-7.594 16.963l-.272 1.395-7.939-.223-.302 10.765 7.94.223.192 1.407a41.3 41.3 0 0 0 6.628 17.366l.792 1.176-5.778 5.464 7.394 7.826 5.78-5.464 1.126.859a41.29 41.29 0 0 0 16.954 7.598l1.395.27-.226 7.949zm14.01 3.743l-17.447-.488.238-8.48a44.706 44.706 0 0 1-15.8-7.082l-6.162 5.828-11.991-12.692 6.162-5.83a44.803 44.803 0 0 1-6.176-16.181l-8.47-.238.49-17.46 8.47.24a44.726 44.726 0 0 1 7.08-15.807l-5.827-6.168 12.684-11.999 5.83 6.169a44.613 44.613 0 0 1 16.17-6.181l.237-8.48 17.451.493-.24 8.479a44.59 44.59 0 0 1 15.798 7.081l6.166-5.833 11.991 12.695-6.164 5.83a44.666 44.666 0 0 1 6.177 16.182l8.475.238-.493 17.459-8.474-.238a44.692 44.692 0 0 1-7.08 15.807l5.831 6.168-12.686 11.996-5.828-6.165a44.699 44.699 0 0 1-16.17 6.18l-.24 8.477zm116.185-40.389c2.352 0 4.51 1.18 5.78 3.153a1.363 1.363 0 0 0 2.012.324c2.062-1.676 5.118-1.995 7.48-.775.72.368 1.623.01 1.902-.731a6.876 6.876 0 0 1 6.093-4.417c.393-.017.747-.197.996-.504.25-.303.35-.688.287-1.076a6.876 6.876 0 0 1 3.066-6.872 1.363 1.363 0 0 0 .323-2.014 6.868 6.868 0 0 1-.776-7.483c.177-.355.202-.748.062-1.117a1.362 1.362 0 0 0-.793-.788 6.871 6.871 0 0 1-4.413-6.093 1.362 1.362 0 0 0-1.582-1.283c-.36.057-.724.084-1.086.084a6.85 6.85 0 0 1-5.785-3.155 1.354 1.354 0 0 0-1.148-.626c-.223 0-.55.05-.86.305-2.063 1.677-5.118 1.996-7.483.776-.72-.368-1.624-.008-1.902.73a6.872 6.872 0 0 1-6.09 4.417 1.35 1.35 0 0 0-.996.503c-.25.307-.35.688-.288 1.079a6.878 6.878 0 0 1-3.065 6.874c-.334.212-.55.543-.613.933-.063.388.041.772.29 1.076a6.88 6.88 0 0 1 .776 7.488c-.18.35-.203.747-.063 1.114.143.369.426.648.793.788a6.874 6.874 0 0 1 4.413 6.096 1.365 1.365 0 0 0 1.582 1.282 7.045 7.045 0 0 1 1.088-.088m6.932 7.132a4.694 4.694 0 0 1-3.967-2.162 3.576 3.576 0 0 0-3.522-1.577 4.707 4.707 0 0 1-5.455-4.432 3.521 3.521 0 0 0-2.262-3.123 4.72 4.72 0 0 1-2.725-2.72 4.738 4.738 0 0 1 .213-3.845 3.522 3.522 0 0 0-.395-3.839 4.714 4.714 0 0 1 1.107-6.942 3.524 3.524 0 0 0 1.571-3.525 4.712 4.712 0 0 1 4.43-5.457 3.517 3.517 0 0 0 3.122-2.262 4.735 4.735 0 0 1 4.404-3.038c.742 0 1.49.18 2.156.521 1.214.629 2.784.46 3.836-.396a4.705 4.705 0 0 1 2.973-1.059c1.61 0 3.093.81 3.966 2.167a3.583 3.583 0 0 0 3.522 1.573 4.706 4.706 0 0 1 5.455 4.433 3.526 3.526 0 0 0 2.265 3.124 4.72 4.72 0 0 1 2.511 6.564 3.532 3.532 0 0 0 .396 3.84 4.732 4.732 0 0 1 1.001 3.722 4.727 4.727 0 0 1-2.108 3.221 3.527 3.527 0 0 0-1.574 3.524 4.712 4.712 0 0 1-.992 3.72 4.724 4.724 0 0 1-3.437 1.742 3.518 3.518 0 0 0-3.123 2.265 4.74 4.74 0 0 1-4.404 3.036 4.745 4.745 0 0 1-2.157-.525c-1.214-.626-2.781-.463-3.837.4a4.735 4.735 0 0 1-2.973 1.055"/><path fill="#000" d="M673.131 220.516a4.79 4.79 0 0 0-1.739.326 4.835 4.835 0 0 0-2.707 2.562 4.864 4.864 0 0 0-.1 3.729 4.903 4.903 0 0 0 4.549 3.135 4.88 4.88 0 0 0 4.548-6.616 4.908 4.908 0 0 0-4.552-3.134m.002 13.097a8.26 8.26 0 0 1-7.673-5.283 8.174 8.174 0 0 1 .171-6.29 8.16 8.16 0 0 1 4.567-4.327 8.152 8.152 0 0 1 2.934-.545c3.38 0 6.469 2.124 7.677 5.286 1.617 4.232-.51 8.996-4.742 10.618-.94.363-1.93.543-2.932.543M585.33 156.52l-10.722-7.67 1.946-2.722 10.723 7.667"/><path fill="#000" d="M674.326 220.155l-72.313-51.707 1.947-2.725 72.313 51.704m-16.481-26.301l-43.546-31.138 1.947-2.723 43.547 31.133m-63.225 45.34l-.002-3.349 55.801-.066.003 3.353m8.46-.014l-.007-3.349 11.327-.012.007 3.348m-47.656 13.094l-.056-3.35 4.185-.073.058 3.35m-19.188.332l-.056-3.35 4.185-.073.056 3.35m-22.522-60.758c-.67 0-1.329.125-1.962.367-2.832 1.08-4.254 4.269-3.17 7.102a5.533 5.533 0 0 0 5.136 3.536 5.57 5.57 0 0 0 1.962-.363 5.464 5.464 0 0 0 3.056-2.897 5.47 5.47 0 0 0 .113-4.208 5.532 5.532 0 0 0-5.135-3.538m.003 14.354c-3.64 0-6.96-2.287-8.262-5.687-1.74-4.562.545-9.688 5.1-11.432a8.815 8.815 0 0 1 3.157-.583c3.641 0 6.96 2.284 8.263 5.689.843 2.21.78 4.61-.184 6.77a8.786 8.786 0 0 1-4.917 4.655 8.809 8.809 0 0 1-3.157.588M718.936 381.5h34.198l4.374-36.719-12.524-7.332-26.047 30.691v13.359zm98.316 0h69.664V276.472l-14.138 15.62c2.295 6.32 4.011 12.265 3.473 16.437-.747 5.82-10.304 5.95-15.444 6.018-.155 0-.318.004-.475.007.52 26.368.653 39.702-6.106 44.829-5.812 4.409-15.556 2.32-34.544-3.372l-2.431 25.488zm73.014 3.35H813.57l3.165-33.225 1.957.592c17.037 5.147 28.569 8.245 33.51 4.497 5.536-4.198 5.256-18.211 4.75-43.65l-.016-.698.5-.525c.589-.61 1.167-.613 3.329-.645 7.824-.105 11.92-1.144 12.168-3.095.63-4.92-2.927-14.063-6.065-22.13-1.885-4.839-3.664-9.41-4.63-13.154-.554-2.152-.384-5.301-.185-8.946.225-4.078.476-8.701-.363-12.12-7.947-32.4-29.347-48.145-65.425-48.145-18.767 0-34.525 6.314-44.366 17.791-10.741 12.53-14.567 31.224-11.057 54.07 2.755 17.948 13.435 30.138 22.859 40.894l.492.56-8.085 67.925H715.59V366.91l28.664-33.775 13.685 8.02 2.757-23.15c-9.603-10.962-20.304-23.433-23.16-42.03-3.66-23.84.429-43.465 11.83-56.758 10.484-12.229 27.142-18.961 46.903-18.961 19.58 0 35.352 4.641 46.872 13.8 10.513 8.355 17.849 20.769 21.802 36.896.961 3.904.694 8.79.457 13.103-.173 3.228-.341 6.274.085 7.924.914 3.554 2.661 8.033 4.504 12.775.495 1.268.993 2.54 1.477 3.808l18.805-20.775v117.06z"/><path fill="#000" d="M724.933 383.172h3.348v-26.658h-3.347m13.874 26.658h3.349v-43.011h-3.347m83.257 43.011h3.347v-27.707h-3.349m13.877 27.707h3.35v-24.101h-3.349m13.874 24.101h3.35v-24.114h-3.348m13.874 24.114h3.349v-70.47h-3.35m13.884 70.47h3.344V282.454h-3.346M734.148 306.29l-7.36-4.308 1.692-2.89 4.692 2.746 8.82-12.634 2.74 1.918m4.748-6.795l-2.743-1.92 40.45-57.946 2.745 1.918m54.33 26.322l-45.257-28.31 1.775-2.842 42.884 26.827 12.803-14.144 2.481 2.248m5.377-5.94l-2.482-2.249 8.352-9.227 2.481 2.248"/><path fill="#000" d="M793.09 212.703c-3.436 0-6.23 2.798-6.23 6.235 0 3.44 2.794 6.237 6.23 6.237a6.238 6.238 0 0 0 6.23-6.236 6.24 6.24 0 0 0-6.23-6.233m0 15.82c-5.28 0-9.58-4.3-9.58-9.585 0-5.287 4.299-9.584 9.579-9.584 5.282 0 9.577 4.297 9.577 9.584 0 5.285-4.295 9.584-9.579 9.584m83.46-20.604c-3.434 0-6.23 2.798-6.23 6.235 0 3.435 2.796 6.233 6.23 6.233 3.436 0 6.23-2.798 6.23-6.235 0-3.438-2.794-6.235-6.23-6.235m0 15.82c-5.28 0-9.579-4.3-9.579-9.585 0-5.287 4.3-9.584 9.58-9.584 5.283 0 9.578 4.297 9.578 9.584 0 5.285-4.295 9.584-9.579 9.584m-155.519 66.219c-3.435 0-6.23 2.798-6.23 6.234 0 3.437 2.795 6.235 6.23 6.235a6.239 6.239 0 0 0 6.231-6.235 6.239 6.239 0 0 0-6.23-6.234m0 15.82c-5.284 0-9.58-4.302-9.58-9.584 0-5.288 4.296-9.587 9.58-9.587 5.28 0 9.578 4.3 9.578 9.584 0 5.285-4.299 9.587-9.579 9.587m31.658 77.395h3.348v-42.177h-3.348m18.69 34.967h3.348v-3.437h-3.347m0-8.88h3.347v-3.437h-3.347M350.753 285.21l-2.607-27.323c-18.984 5.693-28.727 7.783-34.545 3.372-6.76-5.127-6.624-18.458-6.105-44.829a23.335 23.335 0 0 0-.48-.006c-5.137-.07-14.694-.198-15.44-6.018-.738-5.768 2.821-14.92 6.266-23.775 1.848-4.742 3.59-9.221 4.504-12.774.428-1.65.263-4.697.085-7.924-.234-4.313-.5-9.2.457-13.102 3.953-16.127 11.29-28.541 21.803-36.897 11.519-9.158 27.294-13.8 46.875-13.8 26.82 0 46.984 12.081 55.452 33.18 17.976 7.132 30.002 24.793 30.002 44.194 0 16.756-8.895 32.326-23.281 40.872v18.204c0 6.256-5.085 11.34-11.336 11.34h-25.736c-6.25 0-11.33-5.085-11.33-11.339v-18.204c-14.389-8.545-23.287-24.117-23.287-40.873 0-24.776 19.323-45.592 43.99-47.39l.245 3.34c-22.928 1.671-40.886 21.016-40.886 44.05 0 15.877 8.596 30.612 22.434 38.448l.85.482v20.147c0 4.407 3.581 7.992 7.985 7.992h25.737c4.404 0 7.987-3.585 7.987-7.992v-20.147l.848-.48c13.84-7.838 22.434-22.571 22.434-38.449 0-18.266-11.465-34.873-28.536-41.33l-.7-.263-.27-.7c-7.775-20.167-26.95-31.735-52.602-31.735-36.08 0-57.48 15.75-65.428 48.148-.838 3.42-.585 8.041-.362 12.121.197 3.646.371 6.794-.184 8.944-.968 3.746-2.747 8.317-4.63 13.154-3.14 8.07-6.697 17.213-6.064 22.133.25 1.947 4.344 2.99 12.165 3.095 2.164.03 2.745.035 3.333.644l.483.5-.002.726c-.504 25.436-.783 39.449 4.75 43.645 4.941 3.749 16.477.651 33.509-4.496l1.957-.595 2.996 31.392-3.333.319zm62.568 1.514h-7.572c-3.45 0-6.027-3.603-6.027-6.828 0-.34.03-2.374.084-4.228l3.345.097a252.303 252.303 0 0 0-.084 4.133c0 1.519 1.301 3.478 2.682 3.478h7.572c1.38 0 2.683-1.96 2.683-3.478 0-.24-.03-2.219-.088-4.132l3.348-.097c.054 1.851.084 3.91.084 4.229 0 3.224-2.577 6.831-6.027 6.831"/><path fill="#000" d="M392.835 267.689v.145a6.212 6.212 0 0 0 6.203 6.206h20.994a6.213 6.213 0 0 0 6.206-6.206v-.145h-33.406zm27.197 9.703h-20.994c-5.265 0-9.551-4.29-9.551-9.557v-24.519l2.63 1.83a7.907 7.907 0 0 0 4.549 1.433h25.736a7.918 7.918 0 0 0 4.552-1.432l2.627-1.83v3.205l-1.67.003.953 1.371a11.28 11.28 0 0 1-6.463 2.03h-25.737a11.23 11.23 0 0 1-3.83-.667v15.081h36.746v3.494c0 5.267-4.284 9.558-9.549 9.558z"/><path fill="#000" d="M400.023 258.733h27.885v-3.35h-27.885m43.038-89.675a35.84 35.84 0 0 0-12.597-15.618l1.915-2.747a39.177 39.177 0 0 1 13.77 17.078l-3.088 1.289zm6.092 13.784h-3.347c0-3.473-.495-6.904-1.47-10.2l3.21-.951a39.222 39.222 0 0 1 1.607 11.153m-75.804 13.8a39.06 39.06 0 0 1-2.5-13.803h3.348c0 4.347.769 8.592 2.284 12.624l-3.13 1.179zm94.538-12.305h17.118v-3.35h-17.118m-133.822 3.35h17.12v-3.35h-17.12m117.421-37.932l-2.368-2.369 4.627-4.625 2.367 2.368m-90.787 90.837l-2.367-2.367 4.626-4.627 2.367 2.364m-2.367-81.581l-4.627-4.626 2.367-2.368 4.627 4.625m83.794 88.58l-4.626-4.63 2.367-2.364 4.626 4.627m-82.87 38.7h3.348v-3.061h-3.348m0 14.29h3.348v-3.065h-3.348m0-19.394h3.348v-3.062h-3.348m-253.2 31.042h3.35v-27.847h-3.348M149.148 279h3.344v-27.847h-3.344m-12.878-5.638l-16.633-16.64 2.365-2.37 14.268 14.275 14.268-14.275 2.365 2.368"/><path fill="#000" d="M134.593 279h3.35v-35.854h-3.348m1.675-50.928c-7.87 0-14.272 6.406-14.272 14.28 0 7.869 6.402 14.275 14.272 14.275s14.27-6.406 14.27-14.276c0-7.873-6.402-14.28-14.27-14.28m0 31.905c-9.715 0-17.616-7.904-17.616-17.625 0-9.719 7.9-17.629 17.616-17.629 9.714 0 17.616 7.91 17.616 17.63 0 9.72-7.902 17.626-17.616 17.626"/><path fill="#000" d="M123.258 214.955l-2.365-2.368 18.984-18.995 13.429 13.437-2.368 2.367-11.06-11.068m27.32 82.348h-61.857v-47.394l7.262-7.265H127.8v-5.084h3.35v8.43h-17.164l-5.303 5.307v42.654h55.169V234.67l-5.301-5.308H141.39v-8.429h3.345v5.085h15.198l7.265 7.265"/><path fill="#000" d="M127.233 272.711h3.348v-3.073h-3.348m0-7.937h3.348v-3.073h-3.348m32.108 111.173h3.348v-21.603h-3.348m33.265 21.603h3.345v-21.603h-3.344m-14.959-8.14l-16.309-9.721 1.714-2.878 14.595 8.7 14.595-8.699 1.714 2.874"/><path fill="#000" d="M175.974 369.8h3.348V338.11h-3.348m1.674-44.683c-7.87 0-14.272 6.406-14.272 14.276 0 7.875 6.402 14.28 14.272 14.28s14.27-6.405 14.27-14.277c0-7.87-6.401-14.276-14.27-14.276m0 31.904c-9.715 0-17.616-7.907-17.616-17.628 0-9.718 7.9-17.63 17.616-17.63 9.714 0 17.616 7.912 17.616 17.63 0 9.721-7.902 17.628-17.616 17.628"/><path fill="#000" d="M162.857 312.448l-1.632-2.923 21.016-11.73 11.856 5.727-1.456 3.015-10.291-4.97m26.23 69.91h-61.863v-36.986l7.264-7.267h15.198v-5.082h3.348v8.429h-17.16l-5.306 5.307v32.249h55.169v-32.249l-5.301-5.307h-17.16v-8.43h3.346v5.083h15.196l7.267 7.267M78.67 369.8h3.346v-21.603H78.67m29.098 21.603h3.349v-21.603h-3.349m-12.876-9.806l-16.19-7.995 1.48-3 14.71 7.26 14.71-7.26 1.482 3.004"/><path fill="#000" d="M93.217 369.8h3.349v-33.276h-3.349m1.675-43.098c-7.87 0-14.272 6.406-14.272 14.276 0 7.875 6.403 14.28 14.273 14.28s14.27-6.405 14.27-14.277c0-7.87-6.402-14.276-14.27-14.276m0 31.904c-9.714 0-17.617-7.907-17.617-17.628 0-9.718 7.903-17.63 17.617-17.63 9.714 0 17.616 7.912 17.616 17.63 0 9.721-7.902 17.628-17.616 17.628"/><path fill="#000" d="M79.645 311.31l-1.139-3.15 25.814-9.354 7.725 9.564-2.603 2.106-6.223-7.707m22.604 68.708H63.962v-36.986l7.263-7.267h15.197v-5.082h3.347v8.429H72.611l-5.305 5.307v32.249h55.167v-32.249l-5.3-5.307h-17.162v-8.43h3.347v5.083h15.198l7.265 7.267M71.41 289.9h-3.348c0-21.792 10.542-42.45 28.197-55.263l1.964 2.71c-16.79 12.185-26.812 31.829-26.812 52.555m64.839 68.227c-1.906 0-3.825-.078-5.71-.238l.279-3.334c3.233.268 6.568.294 9.804.078l.221 3.34c-1.514.1-3.06.153-4.592.153m64.206-77.328c-1.973-14.06-8.673-27.3-18.87-37.282l2.34-2.392c10.722 10.495 17.771 24.42 19.847 39.211l-3.316.463zm-77.82 39.395l-1.674-2.899 14.47-8.36 1.67 2.903"/><path fill="#000" d="M149.9 320.196l-15.302-8.84v-17.683h3.343v15.752l13.633 7.872m-16.918 25.444h3.35v-3.911h-3.349m-.001-10.105h3.35v-3.91h-3.349M468.81 420.08c-33.91 0-61.498 27.604-61.498 61.532 0 33.931 27.588 61.534 61.498 61.534 33.909 0 61.497-27.605 61.497-61.534s-27.588-61.532-61.497-61.532m0 126.412c-35.754 0-64.844-29.104-64.844-64.88 0-35.776 29.09-64.885 64.843-64.885 35.754 0 64.845 29.11 64.845 64.885 0 35.776-29.09 64.88-64.845 64.88"/><path fill="#000" d="M513.809 524.72l-1.92-6.976c-1.284-4.664-5.56-7.927-10.396-7.936l-65.466-.09h-.015c-4.827 0-9.083 3.25-10.36 7.907l-1.916 7.012-3.225-.884 1.915-7.009c1.67-6.112 7.256-10.377 13.587-10.377h.02l65.466.093c6.333.01 11.933 4.284 13.617 10.397l1.917 6.975-3.225.888zm-46.039-23.802c-10.19 0-19.726-9.696-23.724-24.128l3.225-.895c3.535 12.762 11.965 21.673 20.5 21.673 11.581 0 22.128-15.959 22.128-33.484 0-15.704-9.095-26.674-22.126-26.674-13.03 0-22.128 10.97-22.128 26.674 0 .779.022 1.577.065 2.369l-3.34.187a46.284 46.284 0 0 1-.072-2.554c0-17.677 10.472-30.023 25.473-30.023 15.002 0 25.477 12.346 25.477 30.023 0 17.422-10.464 36.834-25.477 36.834"/><path fill="#000" d="M490.563 467.451c-6.67-4.704-10.414-11.878-13.297-19.203-9.648 8.348-20.472 12.92-33.009 13.963l-.275-3.34c12.562-1.039 23.303-5.856 32.84-14.72l1.833-1.704.874 2.347c2.82 7.587 6.343 15.252 12.962 19.918l-1.927 2.738zm-22.679 55.051c-6.537 0-12.315-5.64-14.38-14.034l3.254-.797c1.685 6.869 6.158 11.485 11.126 11.485 4.955 0 9.426-4.604 11.12-11.451l3.25.804c-2.069 8.37-7.845 13.994-14.369 13.994"/><path fill="#000" d="M471.81 544.735l-1.233-24.835 3.34-.167 1.235 24.833m-10.754.05l-3.34-.166 1.217-24.523 3.34.163"/><path fill="#000" d="M473.985 532.167l-2.367-2.368 22.846-22.856 2.364 2.364m-34.65 23.69l-23.754-23.765 2.369-2.368 23.752 23.763m-21.156-55.96h10.817v-6.444H443.39zm-3.348 3.349h17.511v-13.14h-17.511zm26.955-3.35h10.817v-6.443h-10.817zm-3.346 3.35h17.511v-13.14h-17.51z"/><path fill="#000" d="M455.878 472.154h9.444v-3.35h-9.444m24.265 2.875l-1.309-3.082 7.716-3.282 5.38 2.228-1.281 3.096-4.079-1.689m6.526 30.553h3.906v-3.35h-3.907m14.008 3.35h3.906v-3.35h-3.906m25.696-61.557h-3.348v-13.66h-13.65v-3.348h16.998m-110.978 128.05h-16.999v-17.006h3.344v13.658h13.654M637.843 372.93c-26.375 0-47.827 21.47-47.827 47.856 0 26.387 21.453 47.857 47.828 47.857 26.374 0 47.825-21.47 47.825-47.857 0-26.386-21.452-47.856-47.825-47.856m0 99.06c-28.219 0-51.175-22.971-51.175-51.205 0-28.232 22.956-51.206 51.175-51.206 28.217 0 51.172 22.974 51.172 51.205 0 28.234-22.955 51.204-51.172 51.204"/><path fill="#000" d="M672.337 455.142l-1.662-6.034a8.121 8.121 0 0 0-7.798-5.953l-50.096-.07h-.013a8.07 8.07 0 0 0-7.765 5.93l-1.655 6.062-3.228-.884 1.657-6.06c1.353-4.95 5.874-8.401 10.995-8.401h.019l50.096.069c5.125.012 9.655 3.47 11.018 8.412l1.657 6.037-3.225.889zm-35.266-67.445c-9.797 0-16.638 8.28-16.638 20.137 0 13.28 7.928 25.373 16.638 25.373 8.705 0 16.637-12.094 16.637-25.373 0-11.858-6.843-20.137-16.637-20.137m0 48.858c-11.779 0-19.986-15.135-19.986-28.721 0-13.608 8.405-23.485 19.986-23.485 11.58 0 19.983 9.877 19.983 23.485 0 13.587-8.205 28.721-19.983 28.721"/><path fill="#000" d="M640.311 470.256l-1.301-19.923 3.34-.22 1.302 19.926m-9.309.117l-3.337-.218 1.293-19.823 3.34.22m-15.51-39.486l-2.627-2.072 10.042-12.762 27.994 6.465-.754 3.262-25.924-5.986"/><path fill="#000" d="M642.68 451.898h-11.197l-1.652-10.197 3.303-.538 1.198 7.386h5.502l1.195-7.363 3.306.538m-8.387-16.797h3.346v-9.63h-3.346m14.566-1.758c-2.648-.636-6.702-1.06-11.123-1.161l.08-3.347c4.715.107 8.911.55 11.824 1.251l-.782 3.257zm-25.836-.152l-.685-3.278c2.908-.609 6.904-.993 11.248-1.083l.072 3.348c-4.147.088-7.923.447-10.635 1.013"/><path fill="#000" d="M649.457 453.382l-6.966-11.035 2.827-1.79 4.076 6.457 3.87-6.413 2.865 1.727m-29.903 11.056l-6.69-11.095 2.865-1.731 3.89 6.453 4.085-6.468 2.827 1.789m-28.61-26.092h3.348v-3.065h-3.348m0-7.916h3.348v-3.066h-3.348m83.752-18.25H685V373.6h-10.335v-3.35h13.681M601.02 471.32h-13.683v-13.692h3.348v10.341h10.335M488.662 25.17c-27.63 0-50.109 22.493-50.109 50.134 0 27.648 22.478 50.138 50.109 50.138 27.63 0 50.106-22.49 50.106-50.136 0-27.642-22.474-50.134-50.105-50.134m0 103.62c-29.477 0-53.454-23.993-53.454-53.486 0-29.49 23.977-53.485 53.453-53.485 29.475 0 53.454 23.994 53.454 53.487 0 29.49-23.98 53.485-53.454 53.485"/><path fill="#000" d="M488.4 121.165l-17.566-9.987V97.334h3.348v11.892l14.245 8.103 14.772-8.12V97.378h3.346v13.812"/><path fill="#000" d="M524.5 111.56l-1.709-6.214c-1.016-3.69-4.421-6.277-8.276-6.283l-9.117-.013h-.007c-3.153 0-5.81 2.306-8.712 5.093-2.346 2.252-5.364 3.49-8.495 3.49-3.14 0-6.16-1.242-8.508-3.505-2.912-2.803-5.572-5.118-8.686-5.125l-8.247-.013h-.013a8.525 8.525 0 0 0-8.199 6.262l-1.706 6.244-3.228-.882 1.705-6.244a11.873 11.873 0 0 1 11.428-8.727h.018l8.247.013c4.71.006 8.346 3.503 10.998 6.058 1.723 1.658 3.922 2.571 6.19 2.571 2.265 0 4.459-.91 6.181-2.56 2.645-2.543 6.272-6.023 11.027-6.023h.012l9.118.013c5.355.006 10.084 3.603 11.495 8.742l1.71 6.213-3.225.888zm-7.53-27.858h-12.994v-3.349h10.369a45.077 45.077 0 0 0 1.063-9.786c0-19.476-12.155-35.32-27.095-35.32-14.939 0-27.096 15.844-27.096 35.32 0 3.315.357 6.606 1.066 9.786h11.122v3.35h-13.75l-.32-1.264a48.423 48.423 0 0 1-1.468-11.874c0-21.32 13.663-38.664 30.446-38.664 16.785 0 30.44 17.345 30.44 38.666 0 4.037-.49 8.03-1.466 11.873l-.318 1.264z"/><path fill="#000" d="M486.988 119.111h3.348v-7.778h-3.347m9.954-36.41c-2.614 0-5.088-1.294-6.612-3.457l2.736-1.927a4.752 4.752 0 0 0 3.876 2.035c1.53 0 2.978-.761 3.877-2.037l2.736 1.927c-1.524 2.164-3.996 3.458-6.613 3.458m-16.288.001c-2.615 0-5.089-1.294-6.613-3.457l2.737-1.927a4.752 4.752 0 0 0 3.876 2.035c1.53 0 2.977-.761 3.876-2.037l2.737 1.927c-1.524 2.164-3.996 3.458-6.612 3.458"/><path fill="#000" d="M471.56 62.63a30.8 30.8 0 0 0-.188 3.399c0 13.8 8.255 26.374 17.316 26.374 9.065 0 17.319-12.574 17.319-26.374 0-1.174-.063-2.324-.188-3.437a76.593 76.593 0 0 1-5.753 1.04l-1.292.185-1.7-4.19-1.84 4.542-1.048.07a84.171 84.171 0 0 1-5.583.187c-5.913 0-11.636-.606-17.043-1.8m17.128 33.124c-12.173 0-20.659-15.667-20.659-29.724 0-1.982.163-3.911.488-5.739l.313-1.764 1.737.43c5.667 1.41 11.735 2.12 18.036 2.12 1.443 0 2.89-.038 4.32-.113l4.15-10.24 3.812 9.398a68.642 68.642 0 0 0 5.918-1.203l1.739-.438.312 1.764a32.9 32.9 0 0 1 .5 5.785c0 14.057-8.488 29.724-20.666 29.724m-36.701-3.674h3.203v-3.349h-3.203m11.48 3.35h3.203v-3.35h-3.203m77.949-51.962h-3.348V25.868h-10.885v-3.346h14.234M450.144 128.09h-14.235v-14.245h3.347v10.894h10.888m4.89 66.594c-.542-.429-1.088-.853-1.638-1.276l2.043-2.652c.557.428 1.113.863 1.668 1.298l-2.074 2.63zm6.408 5.295a184.171 184.171 0 0 0-3.172-2.682l2.13-2.583a191.99 191.99 0 0 1 3.231 2.733l-2.19 2.533zm6.156 5.58c-1.001-.953-2.02-1.893-3.046-2.824l2.247-2.482c1.044.947 2.077 1.906 3.103 2.878l-2.306 2.427zm5.897 5.86c-.958-1-1.93-1.986-2.915-2.962l2.359-2.377c1 .993 1.992 2 2.97 3.015l-2.415 2.325zm5.627 6.119a175.504 175.504 0 0 0-2.778-3.093l2.463-2.265c.954 1.039 1.899 2.086 2.83 3.148zm5.337 6.368a180.704 180.704 0 0 0-2.633-3.215l2.565-2.152a187.57 187.57 0 0 1 2.68 3.278l-2.61 2.09zm3.804 4.931c-.413-.555-.83-1.108-1.251-1.658l2.661-2.034c.43.56.853 1.126 1.274 1.689l-2.683 2.002zm38.718 120.326l-3.34-.22c.262-3.985.394-8.032.394-12.038 0-10.753-.951-21.523-2.824-32.018l3.298-.588a186.358 186.358 0 0 1 2.87 32.606c0 4.076-.131 8.2-.4 12.26m-8.965-58.74a180.4 180.4 0 0 0-7.45-22.183l3.095-1.268a183.764 183.764 0 0 1 7.59 22.592l-3.236.858zm-16.381 140.527l-2.878-1.712a180.354 180.354 0 0 0 16.153-35.42l3.178 1.05a184.008 184.008 0 0 1-16.453 36.08m-332.756-34.156a183.68 183.68 0 0 1-6.314-23.312l3.282-.66a180.04 180.04 0 0 0 6.198 22.883zm35.268 61.069c-14.045-16.148-25.076-34.407-32.783-54.27l3.12-1.214c7.569 19.505 18.398 37.43 32.19 53.283l-2.528 2.202zm153.077 62.84l-.253-3.338c6.3-.475 12.64-1.288 18.842-2.422l.6 3.297a185.297 185.297 0 0 1-19.19 2.465m-28.61-.04a184.21 184.21 0 0 1-14.63-1.73l.529-3.309c4.733.753 9.564 1.326 14.36 1.702l-.262 3.338zm52.913-3.435l-.695-3.278a179.747 179.747 0 0 0 28.176-8.433l1.218 3.116a182.797 182.797 0 0 1-28.699 8.595M275.791 165.54l-1.248-3.106a183.299 183.299 0 0 1 29.264-8.999l.713 3.273a179.77 179.77 0 0 0-28.729 8.831m-70.47 50.82l-2.55-2.171c17.014-20.01 38.521-36.469 62.204-47.59l1.418 3.032c-23.25 10.923-44.369 27.08-61.073 46.731m255.325 32.56c-.803-1.113-1.63-2.23-2.465-3.323l2.655-2.035c.855 1.116 1.704 2.26 2.527 3.4l-2.715 1.958zm4.645 6.848a134.306 134.306 0 0 0-2.274-3.458l2.769-1.88c.783 1.151 1.564 2.34 2.327 3.536zm4.248 7.099a147.113 147.113 0 0 0-2.073-3.578l2.873-1.72a136.077 136.077 0 0 1 2.12 3.661l-2.917 1.637zm3.831 7.332a143.487 143.487 0 0 0-1.864-3.694l2.968-1.551a142.068 142.068 0 0 1 1.905 3.778l-3.009 1.468zm3.18 6.994a159.54 159.54 0 0 0-1.422-3.25l3.048-1.376c.5 1.101.986 2.208 1.456 3.322l-3.08 1.305z"/><path fill="#000" d="M458.18 245.598a145.832 145.832 0 0 0-25.483-25.861l2.073-2.631a149.165 149.165 0 0 1 26.066 26.458l-2.658 2.034zm26.695 131.132l-3.2-.976a144.46 144.46 0 0 0 1.145-3.979l3.228.885a133.229 133.229 0 0 1-1.173 4.07m-2.694 8.03l-3.14-1.161c.475-1.29.935-2.603 1.373-3.904l3.172 1.066a142.815 142.815 0 0 1-1.404 3.999m-3.15 7.857l-3.068-1.339c.543-1.247 1.08-2.532 1.593-3.816l3.108 1.245a139.313 139.313 0 0 1-1.633 3.91m-3.596 7.663l-2.988-1.51c.626-1.239 1.234-2.49 1.814-3.718l3.026 1.424a145.046 145.046 0 0 1-1.852 3.806m-4.031 7.446l-2.895-1.68c.678-1.172 1.358-2.39 2.022-3.61l2.942 1.594a156.51 156.51 0 0 1-2.07 3.694m-4.45 7.202l-2.795-1.843c.751-1.139 1.498-2.311 2.224-3.489l2.846 1.762a152.186 152.186 0 0 1-2.277 3.57m-3.278 4.779l-2.728-1.94c.296-.42.596-.838.889-1.258l2.74 1.922-.901 1.276m25.07-107.16a147.512 147.512 0 0 1 .47 34.75l-3.328-.35a144.11 144.11 0 0 0-.46-33.96l3.317-.438zM221.055 417.446a153.715 153.715 0 0 1-2.349-3.522l2.81-1.82c.747 1.16 1.52 2.32 2.295 3.445zm4.992 6.834a153.91 153.91 0 0 1-2.544-3.378l2.7-1.981a152.144 152.144 0 0 0 2.49 3.303l-2.645 2.054zm5.371 6.538a150.507 150.507 0 0 1-2.731-3.228l2.582-2.13a164.043 164.043 0 0 0 2.674 3.16l-2.525 2.2zm5.734 6.226a154.482 154.482 0 0 1-2.913-3.072l2.463-2.273c.922 1.001 1.879 2.01 2.845 3.005zm6.078 5.89a158.245 158.245 0 0 1-3.078-2.903l2.328-2.403c.988.96 2.001 1.915 3.011 2.835l-2.26 2.471zm6.406 5.532a153.387 153.387 0 0 1-3.243-2.719l2.19-2.54c1.038.901 2.104 1.794 3.169 2.665l-2.115 2.593zm82.469 32.869c-20.334-1.501-39.77-7.063-57.771-16.53l1.556-2.966c17.592 9.254 36.59 14.69 56.461 16.158l-.245 3.338zm14.396.37l-.075-3.346c21.28-.476 41.692-5.46 60.665-14.823l1.48 3.003c-19.413 9.58-40.296 14.683-62.069 15.166M289.597 198.95l-1.239-3.113c1.289-.513 2.619-1.02 3.949-1.507l1.15 3.142c-1.3.478-2.602.976-3.86 1.477m-7.582 3.282l-1.414-3.036a161.234 161.234 0 0 1 3.853-1.733l1.33 3.073a146.885 146.885 0 0 0-3.77 1.698m-7.386 3.71l-1.587-2.95c1.23-.661 2.493-1.318 3.754-1.952l1.499 2.992c-1.23.62-2.463 1.262-3.666 1.91m-7.16 4.129l-1.752-2.853c1.178-.73 2.402-1.456 3.632-2.167l1.671 2.903a144.013 144.013 0 0 0-3.553 2.114m-6.919 4.532l-1.91-2.748c1.148-.8 2.327-1.599 3.503-2.37l1.834 2.804c-1.15.754-2.302 1.53-3.428 2.315m-6.647 4.92l-2.065-2.637c1.107-.87 2.24-1.734 3.366-2.564l1.99 2.69a142.987 142.987 0 0 0-3.291 2.51m-6.361 5.287l-2.211-2.515a171.252 171.252 0 0 1 3.215-2.753l2.14 2.578a161.898 161.898 0 0 0-3.144 2.69m-6.048 5.642l-2.35-2.384c.988-.976 2.014-1.965 3.053-2.928l2.28 2.449c-1.01.945-2.014 1.91-2.985 2.865m-5.717 5.975l-2.485-2.244c.93-1.026 1.899-2.069 2.882-3.098l2.419 2.314a140.63 140.63 0 0 0-2.815 3.028m-5.374 6.294l-2.607-2.1a154.236 154.236 0 0 1 2.702-3.257l2.546 2.174a151.734 151.734 0 0 0-2.64 3.184m-5.007 6.586l-2.721-1.947a139.542 139.542 0 0 1 2.515-3.407l2.665 2.027a147.879 147.879 0 0 0-2.459 3.328m-4.623 6.866l-2.827-1.791a140.657 140.657 0 0 1 2.314-3.541l2.775 1.87a156.143 156.143 0 0 0-2.262 3.462m-4.224 7.12l-2.925-1.627a148.738 148.738 0 0 1 2.108-3.67l2.878 1.708a133.074 133.074 0 0 0-2.062 3.591m6.413 263.548l-14.363-14.374 2.365-2.368 11.998 12.007 11.997-12.007 2.367 2.368"/><path fill="#000" d="M193.964 538.492a51.947 51.947 0 0 1-.287-5.34c0-14.1 7.928-22.984 22.37-25.155v-3.8h3.348v6.756l-1.482.172c-9.531 1.101-20.89 5.814-20.89 22.027 0 1.576.088 3.257.268 4.998l-3.328.342zm57.985-.001l-3.328-.342a49.4 49.4 0 0 0 .27-4.998c0-16.215-11.359-20.927-20.89-22.026l-1.483-.17v-6.757h3.348v3.796c14.442 2.17 22.371 11.055 22.371 25.154 0 1.68-.095 3.479-.288 5.339"/><path fill="#000" d="M222.957 472.038c-6.86 0-11.655 5.84-11.655 14.2 0 9.26 5.664 18.012 11.655 18.012s11.655-8.753 11.655-18.01c0-8.363-4.792-14.2-11.653-14.2m0 35.56c-8.842 0-15.002-11.26-15.002-21.36 0-10.17 6.31-17.551 15.002-17.551 8.69 0 15.001 7.381 15.001 17.55 0 10.101-6.16 21.362-15.001 21.362"/><path fill="#000" d="M210.816 490.075l-2.112-2.597c3.297-2.686 5.149-6.818 6.66-10.88l.874-2.35 1.836 1.705c5.364 4.988 11.376 7.757 18.38 8.464l-.338 3.332c-6.967-.703-13.035-3.24-18.49-7.737-1.545 3.756-3.54 7.403-6.81 10.065m10.467 57.51h3.349v-22.93h-3.349"/><path fill="#000" d="M222.957 459.315c-23.86 0-43.273 19.424-43.273 43.297 0 23.878 19.413 43.3 43.272 43.3 23.862 0 43.273-19.422 43.273-43.298 0-23.872-19.41-43.297-43.273-43.297m0 89.946c-25.707 0-46.62-20.926-46.62-46.648 0-25.721 20.913-46.647 46.62-46.647 25.707 0 46.618 20.926 46.618 46.648 0 25.724-20.911 46.65-46.618 46.65"/><path fill="#000" d="M258.74 502.611h-3.349c0-6.074-1.689-11.996-4.883-17.128l2.845-1.77a35.735 35.735 0 0 1 5.386 18.9m-69.956 10.646a35.884 35.884 0 0 1 6.445-33.275l2.59 2.118a32.535 32.535 0 0 0-5.838 30.163l-3.195.994zm90.903 44.563c-.369 0-.87.063-1.18.373-.362.363-.468 1.104-.281 1.99.225 1.088.866 2.245 1.711 3.09 1.398 1.401 3.157 1.639 4.217.572.49-.488.726-1.11.68-1.795-.05-.82-.482-1.659-1.252-2.427-1.076-1.076-2.644-1.804-3.895-1.804m2.835 10.06c-1.749 0-3.507-.796-4.95-2.24-1.305-1.306-2.259-3.044-2.622-4.77-.423-2.027.01-3.863 1.191-5.046.886-.885 2.115-1.353 3.547-1.353 2.145 0 4.548 1.07 6.264 2.786 1.351 1.354 2.122 2.935 2.227 4.58a5.62 5.62 0 0 1-1.654 4.378 5.622 5.622 0 0 1-4 1.664"/><path fill="#000" d="M270.832 562.037c-2.272 0-4.76-.938-7.407-3.583-.295-.298-3.719-3.797-4.373-4.687l-.854-1.158 14.723-14.734 1.161.85c.885.656 4.383 4.085 4.683 4.38 5.593 5.6 3.554 10.493 1.148 14.132l-2.79-1.848c2.37-3.591 2.957-6.231-.724-9.916-.628-.625-2.16-2.107-3.235-3.103l-10.472 10.476a150.256 150.256 0 0 0 3.103 3.24c3.678 3.683 6.322 3.095 9.904.724l1.849 2.79c-1.918 1.271-4.183 2.44-6.719 2.44M163.395 440.694c-.622 0-1.189.238-1.637.684a2.278 2.278 0 0 0-.68 1.797c.054.817.485 1.654 1.253 2.422 1.076 1.079 2.647 1.804 3.898 1.804.369 0 .87-.062 1.178-.371.805-.805.288-3.357-1.431-5.08-.813-.81-1.727-1.257-2.582-1.257m2.834 10.059c-2.149 0-4.548-1.069-6.265-2.786-1.351-1.354-2.12-2.936-2.227-4.58a5.622 5.622 0 0 1 1.654-4.379 5.633 5.633 0 0 1 4.004-1.664c1.748 0 3.505.795 4.945 2.24 2.715 2.715 3.94 7.307 1.434 9.815-.886.885-2.114 1.354-3.547 1.354"/><path fill="#000" d="M172.991 467.354l-1.158-.855c-.882-.65-4.338-4.034-4.683-4.379-5.593-5.599-3.551-10.491-1.148-14.13l2.793 1.846c-2.37 3.59-2.958 6.23.723 9.914.626.626 2.16 2.107 3.234 3.103l10.472-10.475a157.482 157.482 0 0 0-3.102-3.24c-3.683-3.682-6.322-3.094-9.91-.722l-1.843-2.793c3.636-2.407 8.526-4.447 14.119 1.152.344.341 3.724 3.8 4.375 4.681l.856 1.161-14.726 14.734zm-6.763 90.468c-1.252 0-2.82.726-3.897 1.804-.768.769-1.2 1.607-1.25 2.428a2.257 2.257 0 0 0 .677 1.793c1.064 1.066 2.815.828 4.217-.573.847-.844 1.486-2 1.714-3.09.188-.885.081-1.627-.282-1.99-.309-.31-.81-.372-1.18-.372m-2.835 10.06a5.625 5.625 0 0 1-4-1.667 5.603 5.603 0 0 1-1.652-4.377c.102-1.645.875-3.228 2.224-4.579 1.714-1.718 4.119-2.786 6.264-2.786 1.433 0 2.66.47 3.547 1.355 1.18 1.182 1.614 3.019 1.188 5.046-.363 1.726-1.316 3.463-2.621 4.77-1.444 1.443-3.203 2.239-4.95 2.239"/><path fill="#000" d="M175.083 562.037c-2.535 0-4.8-1.168-6.719-2.434l1.85-2.794c3.584 2.37 6.225 2.963 9.906-.723a173.58 173.58 0 0 0 3.103-3.237l-10.472-10.48c-1.076 1.001-2.609 2.48-3.237 3.103-3.678 3.685-3.09 6.328-.72 9.916l-2.79 1.846c-2.408-3.636-4.447-8.533 1.148-14.125.297-.3 3.795-3.729 4.683-4.38l1.158-.856 14.726 14.736-.854 1.16c-.654.884-4.032 4.341-4.376 4.685-2.644 2.645-5.134 3.585-7.405 3.585M282.52 440.694c-.854 0-1.773.447-2.582 1.257-1.72 1.723-2.232 4.276-1.432 5.08.31.31.81.372 1.179.372 1.254 0 2.82-.726 3.897-1.805.77-.768 1.201-1.605 1.255-2.422a2.276 2.276 0 0 0-.68-1.798 2.267 2.267 0 0 0-1.637-.685m-2.835 10.059c-1.434 0-2.661-.47-3.546-1.354-2.505-2.507-1.281-7.1 1.432-9.816 1.442-1.444 3.2-2.24 4.95-2.24 1.505 0 2.927.592 4.003 1.667a5.613 5.613 0 0 1 1.651 4.376c-.105 1.645-.873 3.228-2.227 4.58-1.714 1.718-4.116 2.787-6.263 2.787"/><path fill="#000" d="M272.921 467.354L258.2 452.619l.85-1.161c.656-.886 4.08-4.386 4.38-4.683 5.592-5.598 10.48-3.558 14.116-1.152l-1.844 2.794c-3.586-2.372-6.225-2.96-9.909.723-.625.626-2.102 2.161-3.103 3.241l10.472 10.475a162.962 162.962 0 0 0 3.238-3.103c3.679-3.685 3.09-6.326.721-9.917l2.793-1.847c2.402 3.639 4.446 8.53-1.149 14.13-.345.345-3.8 3.728-4.683 4.379l-1.159.853zm-49.964-37.94a4.164 4.164 0 0 0-4.158 4.16 4.165 4.165 0 0 0 4.158 4.16 4.166 4.166 0 0 0 4.158-4.16 4.164 4.164 0 0 0-4.159-4.16m0 11.669c-4.137 0-7.503-3.368-7.503-7.507 0-4.141 3.366-7.512 7.502-7.512 4.136 0 7.502 3.37 7.502 7.51s-3.366 7.507-7.502 7.507m.002 126.41a4.166 4.166 0 0 0-4.159 4.162 4.165 4.165 0 0 0 4.16 4.16 4.166 4.166 0 0 0 4.157-4.16 4.167 4.167 0 0 0-4.16-4.162m0 11.669c-4.137 0-7.502-3.369-7.502-7.507 0-4.142 3.365-7.511 7.502-7.511 4.136 0 7.502 3.37 7.502 7.51 0 4.138-3.366 7.506-7.502 7.506m69-80.704a4.164 4.164 0 0 0-4.158 4.16 4.161 4.161 0 0 0 4.158 4.157 4.163 4.163 0 0 0 4.159-4.157 4.165 4.165 0 0 0-4.16-4.16m0 11.667c-4.136 0-7.502-3.366-7.502-7.507 0-4.14 3.365-7.511 7.503-7.511 4.137 0 7.503 3.37 7.503 7.51s-3.366 7.506-7.503 7.506m-137.996-11.665a4.164 4.164 0 0 0-4.158 4.16 4.161 4.161 0 0 0 4.158 4.157 4.162 4.162 0 0 0 4.157-4.157 4.163 4.163 0 0 0-4.156-4.16m0 11.667c-4.138 0-7.503-3.366-7.503-7.507 0-4.14 3.365-7.511 7.504-7.511 4.138 0 7.503 3.37 7.503 7.51s-3.365 7.506-7.503 7.506m36.031-38.124l-12.006-12.008 2.367-2.369 12.006 12.009m73.2 77.98l-12.002-12.01 2.365-2.367 12.005 12.01"/><path fill="#000" d="M255.922 471.995l-2.367-2.368 12.007-12.011 2.365 2.37m-87.573 87.622l-2.367-2.367 12.006-12.011 2.362 2.368m28.928-84.367h3.349v-11.823h-3.349m0 126.408h3.349v-11.824h-3.349m53.023-49.704h11.817v-3.35h-11.817m-114.517 3.35h11.817v-3.35H159.79m170.685 57.337l-3.343-.162.585-11.99 3.343.162m25.177 11.99l-.583-11.99 3.345-.162.582 11.99m-16.627-13.847l-9.5-5.403v-7.321h3.344v5.373l6.183 3.516 6.43-3.53v-5.336h3.348v7.316"/><path fill="#000" d="M322.565 556.52h41.075v-4.304l-5.217-18.968-9.161-.012c-1.209 2.577-3.656 4.234-6.406 4.234-2.765 0-5.212-1.662-6.422-4.25l-8.683-.014-5.186 18.967v4.348zm44.424 3.35h-47.772v-8.146l5.98-21.87 13.653.019.348 1.208c.525 1.82 1.991 3.04 3.657 3.04 1.659 0 3.125-1.218 3.65-3.027l.35-1.211 14.12.019 6.014 21.861v8.105zm-9.28-37.558h-7.068v-3.35h4.422a21.37 21.37 0 0 0 .37-3.98c0-9.133-5.613-16.565-12.512-16.565-6.906 0-12.518 7.432-12.518 16.566 0 1.346.123 2.677.37 3.978h4.794v3.35h-7.441l-.32-1.263a24.666 24.666 0 0 1-.747-6.064c0-10.982 7.113-19.919 15.86-19.919 8.746 0 15.86 8.937 15.86 19.919 0 2.06-.254 4.104-.752 6.063l-.317 1.264z"/><path fill="#000" d="M335.427 512.095c-.01.216-.016.433-.016.65 0 6.251 3.738 12.16 7.693 12.16 3.953 0 7.692-5.909 7.692-12.158 0-.225-.007-.446-.015-.668-4.905.96-10.444.967-15.355.018m7.678 16.16c-6.506 0-11.038-8.173-11.038-15.508 0-1.022.084-2.024.255-2.977l.313-1.765 1.736.43c2.728.679 5.65 1.024 8.691 1.024 3.07 0 6.018-.35 8.77-1.042l1.736-.438.318 1.767c.172.954.259 1.967.259 3.003 0 7.331-4.533 15.506-11.04 15.506m11.513-82.248l-3.345-.163.776-15.95 3.343.163m34.598 15.95l-.773-15.952 3.34-.16.777 15.952"/><path fill="#000" d="M344.092 444.255h55.752v-6.35l-7.076-25.711-41.648-.063-7.03 25.718v6.406zm59.101 3.35h-62.447v-10.207l.06-.216 7.765-28.401 46.75.065 7.874 28.606v10.153zm-31.768-75.302c-6.352 0-10.785 5.418-10.785 13.167 0 8.596 5.24 16.726 10.785 16.726 5.542 0 10.785-8.129 10.785-16.726 0-7.75-4.436-13.166-10.785-13.166m0 33.244c-8.33 0-14.132-10.581-14.132-20.076 0-9.572 5.943-16.516 14.13-16.516 8.19 0 14.132 6.944 14.132 16.516 0 9.496-5.805 20.076-14.133 20.076"/><path fill="#000" d="M374.135 446.046l-1.923-27.005 3.338-.237 1.923 27.003m-8.413.24l-3.34-.238 1.924-27.005 3.34.237m-10.663-31.19l-2.628-2.07 7.04-8.95 19.377 4.472-.754 3.263-17.307-3.995"/><path fill="#000" d="M376.995 420.598h-11.123l-1.14-9.926 3.327-.384.793 6.962h5.158l.798-6.947 3.328.384m348.788 24.466h-27.35v-3.35h24.002v-24.017h3.348"/><path fill="#000" d="M728.202 415.123l-2.892-5.243-2.89 5.243-2.933-1.618 5.823-10.556 5.824 10.557M267.228 261.688h-3.346v-27.371h27.355v3.35h-24.01"/><path fill="#000" d="M265.497 266.524l-5.823-10.557 2.931-1.618 2.89 5.245 2.895-5.245 2.93 1.618M32.634 325.84c-8.508 0-15.432-6.927-15.432-15.44h3.345c0 6.666 5.423 12.093 12.086 12.093s12.086-5.43 12.086-12.095h3.347c0 8.513-6.924 15.44-15.432 15.44M20.548 310.4H17.2c0-.781.06-1.568.177-2.34l3.31.5c-.092.608-.14 1.227-.14 1.84m17.582-10.774a11.961 11.961 0 0 0-3.603-1.174l.52-3.305c1.608.253 3.16.757 4.608 1.499l-1.526 2.98zm-11.003.007L25.6 296.65a15.41 15.41 0 0 1 4.607-1.504l.525 3.308c-1.26.2-2.472.594-3.606 1.176zm16.293 5.307a12.06 12.06 0 0 0-2.223-3.075l2.372-2.365a15.391 15.391 0 0 1 2.837 3.924l-2.985 1.514zm-21.579.01l-2.984-1.514a15.498 15.498 0 0 1 2.835-3.925l2.375 2.361c-.9.906-1.648 1.942-2.223 3.078z"/><path fill="#000" d="M48.066 310.4h-3.348c0-.62-.045-1.239-.138-1.835l3.31-.504c.117.763.177 1.552.177 2.34M395.279 51.648c-6.512 0-11.808 5.3-11.808 11.814 0 6.519 5.296 11.815 11.808 11.815 6.511 0 11.809-5.299 11.809-11.816 0-6.513-5.298-11.814-11.809-11.814m0 26.98c-8.355 0-15.155-6.803-15.155-15.165 0-8.361 6.8-15.166 15.155-15.166 8.356 0 15.157 6.806 15.157 15.164 0 8.364-6.801 15.166-15.157 15.166"/><path fill="#000" d="M393.605 70.712h3.348V56.215h-3.348"/><path fill="#000" d="M388.035 65.139h14.489v-3.35h-14.489M132.96 414.771h3.348V398.37h-3.348"/><path fill="#000" d="M126.436 408.243h16.394v-3.35h-16.394m-51.281-9.501h5.123v-3.35h-5.123m-18.784 3.35h5.125v-3.35H56.37m37.563 3.35h5.125v-3.35h-5.126m90.747-207.478h3.348v-16.402h-3.348"/><path fill="#000" d="M178.159 178.036h16.39v-3.35h-16.39M313 410.6c-4.273 0-7.745 3.478-7.745 7.751 0 4.275 3.472 7.753 7.745 7.753 4.271 0 7.748-3.478 7.748-7.753 0-4.274-3.478-7.75-7.748-7.75m0 18.85c-6.118 0-11.094-4.98-11.094-11.1 0-6.12 4.977-11.1 11.094-11.1 6.118 0 11.094 4.98 11.094 11.1 0 6.12-4.976 11.1-11.093 11.1m375.725 46.663l-1.674-2.9 3.182-1.836 1.67 2.898m10.68 1.838l-3.18-1.839 1.676-2.897 3.178 1.836m-10.277-8.473h3.348v-3.673h-3.348m23.245-270.404a25.708 25.708 0 0 1 4.722 4.724 25.984 25.984 0 0 1 4.723-4.724 25.996 25.996 0 0 1-4.723-4.724 26.11 26.11 0 0 1-2.208 2.515 25.535 25.535 0 0 1-2.515 2.21zm4.722 10.788l-1.416-2.249a22.712 22.712 0 0 0-3.16-3.963 22.715 22.715 0 0 0-3.96-3.16l-2.246-1.417 2.247-1.418a22.546 22.546 0 0 0 7.119-7.125l1.416-2.245 1.416 2.247a22.729 22.729 0 0 0 3.16 3.967 22.884 22.884 0 0 0 3.96 3.159l2.247 1.419-2.248 1.416a22.69 22.69 0 0 0-7.12 7.123l-1.415 2.247zM609.83 84.234c-2.517 9.762-5.934 13.179-15.687 15.7 9.75 2.52 13.175 5.938 15.687 15.7 2.524-9.762 5.937-13.18 15.694-15.7-9.752-2.521-13.173-5.938-15.692-15.7m0 9.281c1.611 2.757 3.663 4.81 6.418 6.419-2.752 1.611-4.804 3.662-6.415 6.418-1.607-2.756-3.66-4.81-6.416-6.418 2.753-1.612 4.805-3.662 6.414-6.419m166.962 319.456h5.123v-3.35h-5.122m-18.781 3.35h5.123v-3.35h-5.122m-194.488 92.615a1.986 1.986 0 0 0-1.984 1.985 1.983 1.983 0 1 0 1.983-1.984m0 7.317a5.338 5.338 0 0 1-5.33-5.33 5.34 5.34 0 0 1 5.33-5.336c2.937 0 5.328 2.393 5.328 5.335 0 2.94-2.39 5.33-5.327 5.33m20.04-7.317a1.986 1.986 0 0 0-1.984 1.985 1.983 1.983 0 1 0 1.983-1.984m0 7.317a5.338 5.338 0 0 1-5.33-5.33 5.34 5.34 0 0 1 5.33-5.336c2.937 0 5.328 2.393 5.328 5.335 0 2.94-2.39 5.33-5.328 5.33m20.04-7.317a1.983 1.983 0 1 0 1.982 1.986 1.987 1.987 0 0 0-1.984-1.985m0 7.317a5.336 5.336 0 0 1-5.328-5.33c0-2.943 2.39-5.336 5.328-5.336a5.34 5.34 0 0 1 5.33 5.335c0 2.94-2.393 5.33-5.33 5.33M77.44 421.048c-1.689 0-3.165-.96-4.484-1.814-.913-.594-2.06-1.339-2.54-1.138-.519.22-1.063.634-1.641 1.07-.69.525-1.473 1.115-2.39 1.5-1.673.689-3.686.27-5.663-1.192-.988-.733-2.17-1.585-2.786-1.499-.557.085-1.264.613-2.007 1.169-.438.325-.888.663-1.382.97a5.426 5.426 0 0 1-5.798-.013c-.488-.306-.93-.638-1.359-.955-.75-.563-1.458-1.088-2.02-1.17-.712-.11-1.82.621-2.804 1.263-1.58 1.026-3.546 2.297-5.658 1.414-.91-.384-1.683-.969-2.37-1.489-.58-.44-1.128-.855-1.654-1.074-.525-.216-1.419.078-2.387.795-1.558 1.151-3.266 2.425-5.271 2.114-1.393-.209-2.52-1.053-3.516-1.797a16.06 16.06 0 0 0-1.151-.81l1.774-2.844c.496.31.946.646 1.38.97.747.559 1.449 1.088 2.01 1.17.619.09 1.797-.767 2.733-1.458 2.032-1.501 4.042-1.92 5.713-1.231.921.381 1.702.976 2.39 1.499.58.438 1.123.85 1.645 1.068.476.204 1.623-.54 2.54-1.135 1.476-.963 3.157-2.048 5.1-1.772 1.405.203 2.545 1.053 3.547 1.801.391.294.763.57 1.133.805a2.082 2.082 0 0 0 2.252.009c.376-.234.754-.517 1.151-.814.995-.742 2.122-1.585 3.512-1.795 1.995-.307 3.711.963 5.218 2.074 1.022.753 1.916 1.051 2.444.832.526-.215 1.074-.633 1.656-1.073.68-.517 1.455-1.105 2.364-1.487 2.115-.885 4.08.39 5.658 1.414.984.638 2.095 1.369 2.812 1.264.553-.081 1.26-.61 2.014-1.171.429-.32.87-.65 1.356-.955a5.433 5.433 0 0 1 5.8-.015l-1.772 2.844a2.082 2.082 0 0 0-2.252.009c-.37.23-.739.507-1.133.8-1.006.751-2.143 1.602-3.544 1.802-.213.03-.42.045-.623.045m695.714 20.457c-.167 0-.337-.013-.51-.038-1.167-.175-2.077-.854-2.878-1.455l1.975-2.705.027.021c.51.382 1.039.776 1.371.826.346.054 1.29-.667 1.81-1.047 1.676-1.239 3.356-1.58 4.769-.995.753.316 1.374.785 1.92 1.201.426.322.829.626 1.183.776h.015c.275 0 1.118-.548 1.574-.842 1.13-.738 2.547-1.652 4.182-1.419 1.18.17 2.095.855 2.903 1.46.275.202.553.412.845.595.419.262.903.267 1.322.006.292-.182.573-.395.851-.6.8-.6 1.712-1.28 2.875-1.455 1.698-.26 3.138.81 4.297 1.666.738.542 1.288.676 1.501.59.353-.147.754-.454 1.181-.775.544-.413 1.164-.878 1.906-1.191 1.814-.76 3.415.283 4.706 1.12l-1.82 2.81c-.465-.303-1.335-.839-1.605-.839-.338.146-.74.45-1.168.77-.545.415-1.166.886-1.916 1.198-1.42.586-3.096.246-4.73-.96-.559-.413-1.522-1.129-1.855-1.076-.332.05-.856.443-1.366.823-.355.265-.714.53-1.089.763a4.562 4.562 0 0 1-4.867-.009c-.369-.231-.723-.495-1.07-.754-.514-.384-1.042-.776-1.375-.828-.371-.05-1.257.505-1.886.913-1.294.838-2.896 1.883-4.707 1.123-.745-.315-1.364-.783-1.906-1.194-.425-.322-.826-.626-1.183-.776-.21-.088-.764.052-1.458.565-1.076.792-2.347 1.732-3.824 1.732M654.133 153.038h47.691v-3.35h-47.691"/><path fill="#000" d="M684.352 162.061l-1.508-2.99 15.267-7.707-15.267-7.71 1.51-2.988 21.186 10.698m-438.732 263l-1.674-2.9 4.722-2.73 1.674 2.9m-20.012 2.73l-4.722-2.728 1.673-2.903 4.721 2.73m4.298 18.909h3.348v-5.455h-3.347m310.393 26.105l-1.677-2.9 4.723-2.73 1.674 2.9m-20.012 2.73l-4.722-2.727 1.674-2.903 4.722 2.73m4.296 18.911h3.349v-5.455h-3.349m140.236-199.856l-1.674-2.9 4.725-2.73 1.671 2.903m16.667 2.727l-4.723-2.727 1.674-2.903 4.722 2.73m-14.043-13.286h3.348v-5.453h-3.35m-480.78 92.466l-1.972-3.418 2.9-1.677 1.972 3.42m-1.973-11.602l-2.898-1.674 1.97-3.42 2.903 1.677m-16.05 9.184h3.945v-3.35h-3.945M641.02 126.632l-1.674-2.9 4.724-2.728 1.671 2.9m16.666 2.728l-4.721-2.727 1.674-2.903 4.722 2.73m-14.042-13.284h3.348v-5.455h-3.348"/><path fill="#0c8fd7" d="M511.992 139.834c-6.508 0-11.807 5.302-11.807 11.815 0 6.519 5.299 11.818 11.809 11.818 6.51 0 11.81-5.3 11.81-11.818 0-6.513-5.3-11.815-11.81-11.815m0 26.98c-8.358 0-15.156-6.801-15.156-15.164 0-8.36 6.8-15.164 15.157-15.164 8.358 0 15.158 6.804 15.158 15.164 0 8.363-6.802 15.164-15.157 15.164"/><path fill="#0c8fd7" d="M510.32 158.897h3.348v-14.496h-3.35"/><path fill="#0c8fd7" d="M504.748 153.326h14.489v-3.351h-14.489m-79.681 164.237h3.348v-16.403h-3.348"/><path fill="#0c8fd7" d="M418.543 307.686h16.394v-3.35h-16.394m-399.76 48.362h5.125v-3.35h-5.124M0 352.698h5.125v-3.35H0m37.562 3.35h5.125v-3.35h-5.125m590.058-66.724h3.348V266.22h-3.348"/><path fill="#0c8fd7" d="M621.098 276.098h16.393v-3.35h-16.393M123.193 439.384c-4.273 0-7.75 3.475-7.75 7.75s3.478 7.754 7.75 7.754c4.271 0 7.744-3.478 7.744-7.755 0-4.274-3.473-7.75-7.744-7.75m0 18.852c-6.118 0-11.094-4.98-11.094-11.1 0-6.121 4.98-11.1 11.095-11.1 6.118 0 11.094 4.979 11.094 11.1 0 6.12-4.977 11.101-11.094 11.101M294.66 343.01l-1.674-2.9 3.183-1.837 1.673 2.9m10.677 1.837l-3.18-1.837 1.671-2.9 3.183 1.836m-10.278-8.474h3.348v-3.674h-3.347m497.143-62.327a26.46 26.46 0 0 1 2.517 2.21 25.87 25.87 0 0 1 2.204 2.517 25.57 25.57 0 0 1 4.727-4.73 25.857 25.857 0 0 1-4.724-4.724 25.524 25.524 0 0 1-2.208 2.515 25.325 25.325 0 0 1-2.513 2.21zm4.721 10.789l-1.416-2.246a22.672 22.672 0 0 0-7.12-7.125l-2.247-1.417 2.247-1.416a22.603 22.603 0 0 0 7.118-7.123l1.416-2.248 1.416 2.248a22.657 22.657 0 0 0 7.12 7.124l2.246 1.418-2.247 1.416a22.625 22.625 0 0 0-7.12 7.128l-1.415 2.245zM428.808 0c-2.517 9.762-5.934 13.178-15.687 15.7 9.749 2.522 13.172 5.939 15.687 15.702 2.522-9.763 5.937-13.18 15.693-15.702-9.754-2.52-13.175-5.937-15.693-15.699m0 9.284c1.61 2.752 3.662 4.807 6.418 6.416-2.752 1.614-4.804 3.663-6.416 6.418-1.607-2.755-3.66-4.808-6.418-6.418 2.755-1.61 4.808-3.661 6.416-6.416M653.703 495.85h5.124v-3.35h-5.125m-18.783 3.35h5.126v-3.35h-5.125m273.69-178.582a1.986 1.986 0 0 0-.002 3.97 1.988 1.988 0 0 0 1.982-1.985c0-1.094-.891-1.983-1.983-1.983m0 7.316a5.338 5.338 0 0 1-5.33-5.33 5.34 5.34 0 0 1 5.33-5.336c2.94 0 5.33 2.393 5.33 5.335 0 2.94-2.39 5.332-5.33 5.332m.002 12.73c-1.094 0-1.984.892-1.984 1.986 0 1.094.89 1.985 1.983 1.985 1.09 0 1.982-.891 1.982-1.985s-.891-1.984-1.984-1.984m0 7.317a5.338 5.338 0 0 1-5.33-5.33 5.339 5.339 0 0 1 5.33-5.335c2.94 0 5.33 2.392 5.33 5.334 0 2.94-2.39 5.33-5.33 5.33m.003 12.736a1.986 1.986 0 0 0-1.985 1.985c0 1.092.891 1.984 1.983 1.984a1.988 1.988 0 0 0 1.982-1.984c0-1.096-.89-1.985-1.983-1.985m0 7.316a5.338 5.338 0 0 1-5.33-5.33 5.34 5.34 0 0 1 5.33-5.336c2.94 0 5.33 2.393 5.33 5.335 0 2.94-2.39 5.33-5.33 5.33m-74.504-31.66h3.35v-47.719h-3.349"/><path fill="#0c8fd7" d="M843.483 300.95l-7.705-15.277-7.707 15.277-2.983-1.512 10.689-21.198 10.691 21.197M388.66 566.774c-2.665 10.33-6.281 13.944-16.603 16.613C382.379 586.057 386 589.67 388.66 600c2.67-10.33 6.28-13.943 16.605-16.612-10.322-2.665-13.942-6.28-16.605-16.611m0 9.424c1.769 3.132 4.056 5.42 7.187 7.189-3.127 1.771-5.415 4.056-7.185 7.19-1.767-3.134-4.054-5.417-7.188-7.19 3.132-1.77 5.418-4.053 7.186-7.187m278.367-277.547a25.539 25.539 0 0 1 2.515 2.21 26.284 26.284 0 0 1 2.208 2.515 25.816 25.816 0 0 1 4.724-4.724 25.655 25.655 0 0 1-4.724-4.724 25.703 25.703 0 0 1-4.723 4.726zm4.723 10.789l-1.414-2.248a23.107 23.107 0 0 0-3.161-3.963 22.613 22.613 0 0 0-3.959-3.16l-2.247-1.418 2.247-1.416a22.951 22.951 0 0 0 3.962-3.162 23.154 23.154 0 0 0 3.16-3.962l1.413-2.247 1.414 2.248a22.847 22.847 0 0 0 3.16 3.964 22.783 22.783 0 0 0 3.964 3.161l2.244 1.417-2.244 1.417a22.776 22.776 0 0 0-3.963 3.16 22.76 22.76 0 0 0-3.16 3.963l-1.416 2.249zm-226.27-46.94a1.986 1.986 0 0 0-1.984 1.982c0 1.094.891 1.982 1.984 1.982a1.986 1.986 0 0 0 1.981-1.98 1.986 1.986 0 0 0-1.983-1.984m0 7.315a5.338 5.338 0 0 1-5.332-5.33 5.337 5.337 0 0 1 5.33-5.335 5.338 5.338 0 0 1 5.33 5.333c0 2.94-2.392 5.33-5.33 5.33m115.57 144.518a1.984 1.984 0 1 0 1.984 1.985c0-1.093-.891-1.983-1.984-1.983m0 7.316a5.334 5.334 0 0 1-5.327-5.33 5.334 5.334 0 0 1 5.326-5.335 5.338 5.338 0 0 1 5.33 5.334 5.338 5.338 0 0 1-5.33 5.332M319.98 452.117a1.984 1.984 0 1 0 .001 3.968 1.984 1.984 0 0 0-.001-3.968m0 7.315a5.338 5.338 0 0 1-5.328-5.332c0-2.94 2.39-5.335 5.328-5.335 2.94 0 5.33 2.394 5.33 5.335 0 2.94-2.39 5.33-5.33 5.33m89.105-297.384a1.986 1.986 0 0 0-1.983 1.984c0 1.093.89 1.985 1.983 1.985a1.988 1.988 0 0 0 1.983-1.985c0-1.096-.891-1.984-1.983-1.984m0 7.316a5.338 5.338 0 0 1-5.33-5.33 5.34 5.34 0 0 1 5.33-5.336c2.936 0 5.327 2.393 5.327 5.334 0 2.94-2.39 5.33-5.327 5.33M30.078 381.687a1.986 1.986 0 0 0-1.983 1.985c0 1.093.89 1.984 1.983 1.984a1.984 1.984 0 1 0 0-3.967m0 7.316a5.338 5.338 0 0 1-5.33-5.33 5.339 5.339 0 0 1 5.33-5.336 5.337 5.337 0 0 1 5.327 5.335c0 2.937-2.39 5.33-5.327 5.33m311.236-17.251a1.985 1.985 0 0 0-1.983 1.981c0 1.094.889 1.985 1.982 1.985a1.984 1.984 0 1 0-.001-3.967m-5.327 1.981c0-2.94 2.39-5.333 5.327-5.333 2.94 0 5.33 2.393 5.33 5.334 0 2.94-2.39 5.33-5.33 5.33a5.335 5.335 0 0 1-5.327-5.33z"/><path fill="#fff" d="M256.525 324.177h3.348v-4.186h-3.347v4.185zm0 8.373h3.348v-4.187h-3.347v4.187zm0 8.37h3.348v-4.186h-3.347v4.189zm0 8.374h3.348v-4.187h-3.347v4.187zm0 8.37h3.348v-4.186h-3.347v4.188zm0 8.373h3.348v-4.186h-3.347v4.186zm0 8.373h3.348v-4.185h-3.347v4.184zm0 8.37h3.348v-4.186h-3.347v4.188zm0 8.374h3.348v-4.187h-3.347v4.187zm0 8.37h3.348v-4.186h-3.347v4.187zm167.744-37.673h4.185v-3.35h-4.184v3.35zm8.367 0h4.186v-3.35h-4.187v3.35zm8.37 0h4.182v-3.35h-4.181zm8.365 0h4.184v-3.35h-4.186v3.35zm8.365 0h4.185v-3.35h-4.184v3.35zm8.368 0h4.185v-3.35h-4.187v3.35zm8.366 0h4.187v-3.35h-4.186v3.35zm8.37 0h3.904v-3.35h-3.904zm90.363 3.628h3.35v-4.187h-3.35v4.186zm0 8.373h3.35v-4.188h-3.35v4.19zm0 8.37h3.35v-4.186h-3.35v4.188zm0 8.373h3.35v-4.188h-3.35zm0 8.37h3.35v-4.189h-3.35v4.188zm0 5.305h3.35v-1.118h-3.35v1.117zm105.509-73.395h3.348v-4.184h-3.348zm0 8.37h3.348v-4.185h-3.348v4.186zm0 8.374h3.348v-4.186h-3.348v4.187zm0 6.419h3.348v-2.234h-3.348z"/><path fill="#000" d="M434.42 350.065c-4.27 0-7.744 3.476-7.744 7.751s3.474 7.755 7.745 7.755c4.272 0 7.75-3.479 7.75-7.754 0-4.274-3.478-7.75-7.75-7.75m0 18.852c-6.115 0-11.092-4.98-11.092-11.1 0-6.119 4.977-11.1 11.094-11.1 6.118 0 11.095 4.979 11.095 11.1 0 6.123-4.977 11.102-11.094 11.102"/></g></svg>