<svg width="880" height="480" viewBox="0 0 880 480" xmlns="http://www.w3.org/2000/svg" xmlns:xlink="http://www.w3.org/1999/xlink"><title>Page 1</title><defs><path id="a" d="M.72 612.316h878.813V0H.72z"/></defs><g transform="translate(0 -67)" fill="none" fill-rule="evenodd"><path d="M383.123 229.97c-1.252-.81-2.436-1.58-3.182-1.265-.613.26-1.224.723-1.872 1.212-.757.576-1.54 1.168-2.477 1.557-1.646.684-3.653.247-5.653-1.23l-.057-.04c-1.192-.882-2.417-1.79-3.3-1.662-.716.108-1.522.71-2.376 1.35-.463.344-.942.702-1.46 1.026-1.774 1.106-3.983 1.1-5.764-.015-.51-.32-.98-.67-1.432-1.01-.86-.64-1.674-1.248-2.395-1.353-.928-.13-2.163.665-3.352 1.435-1.695 1.103-3.62 2.348-5.668 1.49-.928-.392-1.705-.98-2.455-1.548-.652-.494-1.27-.962-1.887-1.22-1.04-.43-2.475.496-3.04.913l-.056.04c-1.556 1.15-3.326 2.438-5.285 2.155-1.387-.208-2.504-1.043-3.585-1.852-.437-.326-.85-.636-1.27-.897l1.414-2.272c.516.324.994.68 1.456 1.027.854.636 1.66 1.24 2.38 1.35.89.138 2.11-.783 3.298-1.66l.056-.045c2-1.475 4.006-1.912 5.654-1.23.937.39 1.72.983 2.48 1.56.646.49 1.258.952 1.874 1.213.74.307 1.925-.456 3.177-1.267 1.528-.99 3.252-2.108 5.184-1.84 1.4.203 2.526 1.045 3.617 1.858.43.322.837.626 1.255.888.918.576 2.01.58 2.927.01.42-.264.836-.572 1.272-.9 1.08-.806 2.197-1.64 3.583-1.85 1.956-.298 3.728 1.005 5.282 2.152l.058.043c.566.42 1.995 1.345 3.04.913.62-.257 1.235-.725 1.887-1.22.75-.567 1.528-1.155 2.453-1.546 2.055-.864 3.978.388 5.673 1.487 1.187.773 2.422 1.564 3.353 1.435.722-.104 1.533-.71 2.394-1.354.453-.34.923-.69 1.43-1.008 1.783-1.116 3.99-1.12 5.765-.014l-1.415 2.272c-.914-.57-2.01-.566-2.928.01-.415.26-.822.563-1.254.885-1.09.816-2.218 1.66-3.614 1.86-.202.03-.4.04-.598.04-1.692 0-3.222-.992-4.59-1.88zM477.22 451.15c-1.144-.172-2.077-.87-2.897-1.482l1.573-2.166.03.022c.622.467 1.212.91 1.692.98.546.08 1.52-.642 2.304-1.223 1.666-1.227 3.316-1.575 4.685-1.01.758.315 1.403.805 1.974 1.237.48.364.936.71 1.375.892.414.177 1.34-.42 2.15-.948 1.218-.79 2.595-1.687 4.197-1.46 1.153.166 2.09.87 2.918 1.486.326.242.633.473.942.667.604.38 1.324.38 1.923.01.314-.197.624-.43.954-.677.822-.612 1.752-1.308 2.894-1.48 1.635-.247 3.047.794 4.29 1.71.86.636 1.62.886 2.073.696.44-.182.897-.53 1.384-.897.564-.427 1.202-.912 1.95-1.226 1.73-.724 3.345.325 4.645 1.17l-1.45 2.247c-.816-.53-1.737-1.123-2.16-.95-.433.185-.888.528-1.37.895-.57.432-1.216.92-1.97 1.233-1.37.57-3.02.22-4.648-.98-.828-.61-1.806-1.328-2.348-1.25-.476.07-1.065.512-1.69.978-.36.27-.733.547-1.14.8-1.468.915-3.292.91-4.757-.01-.403-.253-.77-.526-1.123-.79-.628-.468-1.22-.912-1.697-.98-.597-.083-1.497.495-2.362 1.057-1.3.842-2.917 1.89-4.644 1.168-.748-.314-1.388-.8-1.952-1.228-.484-.367-.942-.715-1.38-.898-.454-.184-1.216.063-2.034.665-1.153.852-2.41 1.78-3.844 1.78-.16 0-.32-.012-.486-.036zM272.04 224.81c-10.938 0-19.84-8.905-19.84-19.85 0-10.945 8.902-19.85 19.84-19.85v2.677c-9.464 0-17.165 7.704-17.165 17.173 0 9.47 7.7 17.174 17.166 17.174v2.677z" fill="#0C8FD7"/><path d="M273.593 187.856c-.515-.046-1.038-.07-1.553-.07v-2.675c.594 0 1.196.027 1.79.08l-.237 2.666zM279.332 189.408c-.9-.422-1.84-.77-2.8-1.03l.698-2.583c1.11.3 2.198.7 3.24 1.19l-1.138 2.423zm4.863 3.426c-.702-.705-1.47-1.353-2.282-1.926l1.54-2.186c.936.66 1.826 1.408 2.637 2.222l-1.895 1.89zm3.408 4.875c-.418-.898-.92-1.77-1.492-2.585l2.193-1.535c.662.945 1.242 1.95 1.726 2.99l-2.427 1.13zm1.537 5.745c-.087-.993-.26-1.984-.516-2.94l2.585-.692c.294 1.11.495 2.25.596 3.4l-2.666.232zm2.076 6.617l-2.585-.688c.255-.96.428-1.948.512-2.942l2.666.228c-.098 1.15-.297 2.294-.592 3.402zm-2.897 6.238l-2.195-1.533c.57-.815 1.072-1.686 1.49-2.586l2.426 1.13c-.483 1.04-1.06 2.048-1.72 2.99zm-4.846 4.876l-1.542-2.188c.81-.57 1.577-1.222 2.28-1.927l1.897 1.887c-.812.818-1.7 1.566-2.636 2.23zm-6.218 2.93l-.7-2.58c.96-.262 1.9-.61 2.798-1.034l1.14 2.42c-1.04.492-2.128.893-3.238 1.195zM272.04 224.81v-2.676c.52 0 1.044-.022 1.552-.07l.24 2.668c-.588.053-1.192.08-1.79.08" fill="#0C8FD7"/><path fill="#000" d="M265.287 343.295h-2.676V311.59H242.38v-2.676h22.91"/><mask id="b" fill="#fff"><use xlink:href="#a"/></mask><path fill="#000" mask="url(#b)" d="M262.61 379.862h2.676v-23.186h-2.676M289.753 379.862h2.676v-69.61h-2.677M358.854 323.4h-2.676v-14.488h40.57v-13.73h2.677v16.408h-40.57M389.334 381.198h8.752v-2.677h-8.752M515.6 379.862h2.677v-91.48H515.6M590.57 365.318l-2.576-.727 11.515-40.836 2.57.724"/><path fill="#000" mask="url(#b)" d="M629.417 381.2h-16.82v-2.678h14.144V289.72h-37.518v-2.675h40.195M549.827 376.807l-16.715-61.605 2.582-.703 16.713 61.606M526.66 185.13c-.875 0-1.736.16-2.56.478-1.792.684-3.206 2.025-3.988 3.776-.782 1.752-.835 3.7-.15 5.49 1.056 2.76 3.75 4.616 6.7 4.616.876 0 1.737-.16 2.564-.475 3.693-1.416 5.548-5.574 4.136-9.268-1.055-2.762-3.748-4.616-6.702-4.616zm.003 17.037c-4.053 0-7.75-2.545-9.2-6.336-.94-2.456-.866-5.136.205-7.537 1.075-2.404 3.017-4.247 5.475-5.187 1.13-.432 2.316-.653 3.517-.653 4.055 0 7.752 2.548 9.2 6.336 1.94 5.074-.608 10.784-5.68 12.725-1.132.432-2.314.652-3.517.652zm3.407 5.718l2.062 5.395 4.443-1.7-2.062-5.394.9-.593c1.555-1.024 2.91-2.308 4.025-3.817l.638-.866 5.273 2.36 1.94-4.35-5.274-2.355.218-1.053c.38-1.835.43-3.702.154-5.547l-.16-1.065 5.392-2.064-1.7-4.445-5.39 2.064-.593-.897c-1.024-1.56-2.307-2.915-3.815-4.03l-.863-.64 2.353-5.275-4.344-1.94-2.356 5.275-1.053-.218c-1.82-.376-3.708-.43-5.545-.155l-1.062.158-2.062-5.39-4.442 1.698 2.062 5.397-.9.59c-1.556 1.024-2.91 2.31-4.025 3.817l-.638.864-5.273-2.356-1.94 4.347 5.273 2.355-.218 1.056c-.38 1.834-.43 3.7-.155 5.545l.16 1.066-5.39 2.064 1.698 4.446 5.393-2.064.59.9c1.024 1.56 2.31 2.913 3.815 4.028l.864.64-2.352 5.274 4.342 1.94 2.355-5.272 1.052.216c1.822.377 3.71.427 5.543.153l1.065-.16zm.52 8.85l-2.26-5.914c-1.45.133-2.905.092-4.343-.12l-2.58 5.786-9.23-4.124 2.583-5.785c-1.12-.93-2.12-1.986-2.988-3.155l-5.91 2.263-3.61-9.444 5.91-2.26c-.133-1.45-.092-2.904.12-4.346l-5.78-2.582 4.12-9.234 5.78 2.584c.934-1.12 1.99-2.12 3.154-2.99l-2.26-5.914 9.44-3.613 2.258 5.914c1.448-.13 2.906-.09 4.342.12l2.58-5.783 9.23 4.124-2.58 5.783c1.117.934 2.117 1.99 2.985 3.155l5.91-2.265 3.612 9.448-5.91 2.264c.132 1.447.09 2.9-.12 4.343l5.78 2.58-4.12 9.236-5.782-2.582c-.93 1.12-1.988 2.12-3.15 2.988l2.26 5.914-9.44 3.613z"/><path d="M483.88 235.075l13.755 6.147c1.032-.624 2.168-1.06 3.35-1.282l6.146-13.766c-1.212-.223-2.438-.353-3.658-.39-7.702-.224-14.93 3.262-19.593 9.29zm14.038 9.206l-18.08-8.082.886-1.32c5.1-7.586 13.66-12.017 22.822-11.768 1.945.055 3.897.33 5.805.813l1.543.39-8.08 18.094-.766.08c-1.26.133-2.474.6-3.503 1.343l-.626.45zm4.88 3.36c-.252 0-.5.045-.736.136-1.065.408-1.6 1.605-1.192 2.668.393 1.032 1.626 1.593 2.666 1.193 1.065-.406 1.6-1.603 1.192-2.668-.304-.798-1.08-1.33-1.93-1.33zm.002 6.81c-1.95 0-3.73-1.225-4.428-3.05-.936-2.44.292-5.188 2.733-6.124.544-.208 1.113-.314 1.693-.314 1.952 0 3.73 1.226 4.43 3.05.93 2.444-.294 5.19-2.735 6.125-.544.208-1.115.314-1.693.314zm9.76-6.556l13.758 6.15c.223-1.217.353-2.443.39-3.662.214-7.714-3.23-14.928-9.286-19.606l-6.143 13.764c.622 1.03 1.06 2.17 1.28 3.354zm15.62 9.91l-18.088-8.082-.08-.768c-.133-1.262-.596-2.476-1.34-3.505l-.45-.625 8.076-18.095 1.32.888c7.623 5.132 12.02 13.668 11.762 22.838-.055 1.944-.328 3.897-.81 5.81l-.39 1.54zm-48.9-12.432c-.225 1.214-.355 2.44-.388 3.66-.218 7.713 3.227 14.93 9.282 19.605l6.145-13.764c-.627-1.03-1.06-2.166-1.28-3.352l-13.76-6.148zm10.018 27.31l-1.32-.887c-7.62-5.13-12.02-13.666-11.76-22.836.053-1.947.326-3.9.81-5.81l.392-1.542 18.084 8.083.08.77c.133 1.263.596 2.475 1.34 3.504l.453.624-8.08 18.094zm9.167.557c1.216.225 2.44.354 3.662.388 7.697.22 14.93-3.258 19.592-9.288l-13.757-6.15c-1.03.627-2.168 1.062-3.352 1.282l-6.145 13.767zm4.347 3.075c-.254 0-.506-.005-.762-.012-1.942-.055-3.894-.326-5.805-.81l-1.54-.392 8.08-18.094.766-.082c1.262-.13 2.473-.595 3.504-1.338l.624-.454 18.084 8.083-.887 1.32c-4.96 7.377-13.208 11.78-22.063 11.78zm-5.412 12.3l8.6.243.18-6.353 1.123-.154c4.93-.673 9.726-2.506 13.87-5.3l.94-.632 4.366 4.62 6.25-5.913-4.367-4.62.686-.903c3.02-3.983 5.12-8.67 6.07-13.56l.216-1.114 6.347.18.242-8.603-6.347-.18-.153-1.125c-.674-4.933-2.506-9.732-5.3-13.877l-.632-.94 4.618-4.37-5.907-6.252-4.618 4.367-.904-.686c-3.977-3.022-8.663-5.12-13.55-6.074l-1.112-.216.177-6.35-8.598-.243-.178 6.35-1.125.155c-4.93.674-9.728 2.507-13.87 5.302l-.94.633-4.365-4.62-6.252 5.91 4.364 4.622-.685.903c-3.02 3.98-5.12 8.67-6.07 13.558l-.217 1.115-6.345-.178-.242 8.604 6.347.178.153 1.125c.674 4.933 2.506 9.732 5.297 13.88l.633.94-4.618 4.367 5.91 6.255 4.62-4.367.9.686c3.98 3.02 8.666 5.12 13.55 6.073l1.115.216-.18 6.353zm11.198 2.992l-13.945-.39.19-6.778c-4.514-1.035-8.84-2.974-12.628-5.66l-4.925 4.658-9.584-10.144 4.925-4.66c-2.466-3.936-4.157-8.367-4.936-12.933l-6.77-.19.392-13.955 6.77.192c1.035-4.518 2.972-8.843 5.658-12.634l-4.657-4.93 10.138-9.59 4.66 4.93c3.93-2.47 8.36-4.162 12.923-4.94l.19-6.778 13.948.394-.192 6.777c4.515 1.034 8.838 2.97 12.627 5.66l4.928-4.662 9.584 10.146-4.927 4.66c2.47 3.937 4.16 8.366 4.937 12.934l6.774.19-.394 13.954-6.773-.19c-1.035 4.516-2.97 8.844-5.658 12.634l4.66 4.93-10.14 9.588-4.658-4.928c-3.935 2.47-8.36 4.16-12.924 4.94l-.192 6.775zM601.46 259.326c1.88 0 3.605.943 4.62 2.52.203.316.546.505.92.505.178 0 .44-.042.688-.246 1.648-1.34 4.09-1.595 5.978-.62.576.294 1.297.008 1.52-.584.78-2.04 2.69-3.426 4.87-3.53.314-.014.597-.158.796-.403.2-.242.28-.55.23-.86-.347-2.158.617-4.312 2.45-5.493.267-.17.44-.436.49-.746.048-.312-.033-.62-.232-.864-1.377-1.693-1.62-4.04-.62-5.98.142-.284.162-.598.05-.893-.114-.294-.34-.518-.634-.63-2.038-.778-3.424-2.69-3.527-4.87-.032-.64-.606-1.133-1.265-1.025-.288.045-.578.067-.868.067-1.88 0-3.606-.943-4.623-2.522-.2-.314-.544-.5-.918-.5-.178 0-.44.04-.688.244-1.648 1.34-4.09 1.595-5.98.62-.576-.294-1.298-.006-1.52.584-.778 2.04-2.69 3.426-4.868 3.53-.314.014-.597.158-.796.402-.2.245-.28.55-.23.862.347 2.157-.617 4.314-2.45 5.494-.267.17-.44.434-.49.746-.05.31.033.617.232.86 1.377 1.695 1.62 4.044.62 5.985-.143.28-.162.597-.05.89.114.295.34.518.634.63 2.038.78 3.424 2.69 3.527 4.872.03.642.614 1.13 1.264 1.025.286-.045.58-.07.87-.07m5.54 5.7c-1.288 0-2.472-.644-3.17-1.728-.592-.924-1.726-1.433-2.815-1.26-.2.034-.403.048-.604.048-2.008 0-3.658-1.576-3.756-3.59-.053-1.117-.763-2.1-1.808-2.497-1-.38-1.794-1.173-2.178-2.174-.38-1-.32-2.12.17-3.073.514-.995.39-2.2-.316-3.068-.676-.83-.97-1.914-.8-2.972.17-1.058.783-1.996 1.685-2.577.94-.604 1.434-1.71 1.256-2.817-.17-1.058.118-2.14.794-2.972.674-.833 1.674-1.34 2.746-1.39 1.117-.052 2.098-.762 2.496-1.808.553-1.454 1.967-2.428 3.52-2.428.593 0 1.19.144 1.723.417.97.502 2.225.367 3.066-.317.668-.547 1.513-.846 2.376-.846 1.287 0 2.472.647 3.17 1.732.592.92 1.726 1.43 2.815 1.257.2-.03.4-.047.603-.047 2.01 0 3.66 1.576 3.757 3.59.053 1.117.765 2.098 1.81 2.497 1 .38 1.794 1.175 2.175 2.176.384.998.32 2.118-.168 3.07-.513.996-.388 2.2.317 3.07.676.832.968 1.916.8 2.974-.17 1.056-.784 1.997-1.685 2.575-.94.604-1.435 1.71-1.258 2.816.17 1.06-.117 2.144-.793 2.974-.675.833-1.677 1.34-2.747 1.392-1.117.052-2.098.763-2.496 1.81-.55 1.45-1.968 2.427-3.52 2.427-.597 0-1.192-.147-1.724-.42-.97-.5-2.223-.37-3.067.32-.67.543-1.513.843-2.376.843" fill="#000" mask="url(#b)"/><path d="M609.192 243.603c-.475 0-.94.086-1.39.26-.97.37-1.74 1.098-2.164 2.048-.422.95-.45 2.01-.08 2.98.574 1.498 2.034 2.506 3.636 2.506.475 0 .942-.087 1.388-.26 2.005-.767 3.012-3.022 2.247-5.028-.574-1.497-2.037-2.505-3.638-2.505m.002 10.468c-2.702 0-5.167-1.695-6.133-4.222-.628-1.64-.577-3.426.137-5.028.715-1.603 2.012-2.832 3.65-3.458.755-.29 1.544-.436 2.345-.436 2.702 0 5.17 1.698 6.136 4.225 1.292 3.383-.408 7.19-3.79 8.487-.752.29-1.543.434-2.344.434M539.016 192.453l-8.57-6.13 1.556-2.176 8.57 6.128" fill="#000" mask="url(#b)"/><path fill="#000" mask="url(#b)" d="M610.147 243.314l-57.797-41.327 1.556-2.178 57.797 41.325M598.53 220.112l-34.804-24.887 1.556-2.176 34.805 24.883M549.554 254.17l-.002-2.676 44.6-.053.002 2.68M600.916 254.11l-.005-2.677 9.053-.01.005 2.676M571.88 264.565l-.045-2.678 3.345-.058.046 2.677M559.89 264.772l-.045-2.678 3.345-.058.045 2.678M545.234 216.152c-.535 0-1.062.1-1.568.293-2.264.864-3.4 3.412-2.534 5.677.647 1.69 2.297 2.826 4.105 2.826.534 0 1.062-.1 1.568-.29 1.098-.42 1.964-1.243 2.443-2.316.477-1.072.51-2.265.09-3.363-.646-1.69-2.296-2.828-4.104-2.828m.003 11.473c-2.91 0-5.563-1.828-6.604-4.546-1.39-3.646.436-7.743 4.076-9.137.812-.31 1.66-.466 2.524-.466 2.91 0 5.563 1.826 6.604 4.547.674 1.766.623 3.685-.147 5.412-.77 1.725-2.166 3.045-3.93 3.72-.81.31-1.66.47-2.523.47M645.802 372.27h27.333l3.496-29.348-10.01-5.86-20.818 24.53v10.677zm78.58 0h55.68v-83.944l-11.3 12.485c1.834 5.05 3.206 9.802 2.776 13.137-.597 4.652-8.236 4.755-12.344 4.81-.124 0-.254.003-.38.005.416 21.075.522 31.732-4.88 35.83-4.645 3.524-12.433 1.854-27.61-2.695l-1.943 20.372zm58.357 2.677h-61.3l2.53-26.555 1.564.473c13.617 4.114 22.834 6.59 26.784 3.594 4.424-3.355 4.2-14.555 3.795-34.888l-.012-.557.4-.42c.47-.487.932-.49 2.66-.515 6.254-.084 9.527-.915 9.726-2.474.504-3.932-2.34-11.24-4.848-17.687-1.506-3.868-2.928-7.522-3.7-10.514-.443-1.72-.307-4.237-.148-7.15.18-3.26.38-6.955-.29-9.688-6.352-25.895-23.456-38.48-52.292-38.48-15 0-27.594 5.047-35.46 14.22-8.585 10.014-11.643 24.956-8.837 43.216 2.202 14.345 10.738 24.088 18.27 32.685l.393.447-6.462 54.29h-32.384V360.61l22.91-26.995 10.938 6.41 2.203-18.502c-7.675-8.762-16.228-18.73-18.51-33.593-2.926-19.055.342-34.74 9.454-45.365 8.38-9.774 21.694-15.155 37.488-15.155 15.65 0 28.256 3.71 37.463 11.03 8.403 6.678 14.266 16.6 17.426 29.49.768 3.12.554 7.025.365 10.472-.138 2.58-.273 5.015.068 6.334.73 2.84 2.127 6.42 3.6 10.21.395 1.014.793 2.03 1.18 3.044l15.03-16.605v93.562z"/><path fill="#000" mask="url(#b)" d="M650.595 373.607h2.676V352.3h-2.675M661.685 373.607h2.676V339.23h-2.675M728.23 373.607h2.675v-22.145h-2.676M739.32 373.607h2.677v-19.263h-2.676M750.41 373.607h2.677v-19.273h-2.676M761.5 373.607h2.677v-56.324H761.5M772.596 373.607h2.673v-80.5h-2.674M657.96 312.158l-5.882-3.443 1.352-2.31 3.75 2.195 7.05-10.098 2.19 1.533M670.214 294.604l-2.192-1.534 32.33-46.314 2.194 1.533M745.97 269.327L709.798 246.7l1.418-2.272 34.276 21.442 10.233-11.305 1.983 1.797M762.005 251.614l-1.983-1.797 6.675-7.375 1.983 1.797"/><path d="M705.07 237.358c-2.746 0-4.98 2.236-4.98 4.983 0 2.75 2.234 4.985 4.98 4.985 2.747 0 4.98-2.234 4.98-4.984 0-2.746-2.233-4.982-4.98-4.982m0 12.644c-4.22 0-7.657-3.436-7.657-7.66 0-4.226 3.436-7.66 7.656-7.66 4.222 0 7.655 3.434 7.655 7.66 0 4.224-3.433 7.66-7.656 7.66M771.774 233.536c-2.745 0-4.98 2.236-4.98 4.983 0 2.746 2.235 4.982 4.98 4.982 2.746 0 4.98-2.236 4.98-4.983 0-2.748-2.234-4.984-4.98-4.984m0 12.644c-4.22 0-7.656-3.436-7.656-7.66 0-4.226 3.436-7.66 7.656-7.66 4.223 0 7.656 3.434 7.656 7.66 0 4.224-3.433 7.66-7.656 7.66M647.474 299.104c-2.746 0-4.98 2.236-4.98 4.983 0 2.747 2.234 4.983 4.98 4.983 2.748 0 4.98-2.236 4.98-4.983 0-2.747-2.232-4.983-4.98-4.983m0 12.644c-4.223 0-7.656-3.438-7.656-7.66 0-4.226 3.433-7.662 7.656-7.662 4.22 0 7.656 3.436 7.656 7.66s-3.436 7.662-7.656 7.662M672.777 373.607h2.676v-33.71h-2.676M687.715 367.844h2.676v-2.747h-2.675M687.715 358h2.676v-2.747h-2.675M351.528 295.31l-2.084-21.838c-15.173 4.55-22.96 6.22-27.61 2.695-5.403-4.098-5.295-14.753-4.88-35.83-.127-.003-.257-.005-.384-.005-4.105-.055-11.744-.158-12.34-4.81-.59-4.61 2.255-11.924 5.008-19.002 1.477-3.79 2.87-7.37 3.6-10.21.342-1.318.21-3.754.068-6.333-.187-3.447-.4-7.353.365-10.472 3.16-12.89 9.024-22.812 17.426-29.49 9.207-7.32 21.815-11.03 37.466-11.03 21.436 0 37.552 9.656 44.32 26.52 14.368 5.7 23.98 19.815 23.98 35.322 0 13.392-7.11 25.837-18.608 32.667v14.55c0 5-4.064 9.063-9.06 9.063h-20.57c-4.995 0-9.056-4.064-9.056-9.062v-14.55c-11.5-6.83-18.612-19.276-18.612-32.668 0-19.803 15.444-36.44 35.16-37.877l.195 2.67c-18.325 1.335-32.678 16.797-32.678 35.207 0 12.69 6.87 24.467 17.93 30.73l.68.385v16.103c0 3.522 2.862 6.387 6.382 6.387h20.57c3.52 0 6.384-2.865 6.384-6.387v-16.103l.678-.384c11.062-6.264 17.93-18.04 17.93-30.73 0-14.6-9.163-27.873-22.807-33.034l-.56-.21-.215-.56c-6.215-16.118-21.54-25.364-42.043-25.364-28.837 0-45.942 12.588-52.294 38.483-.67 2.733-.468 6.427-.29 9.688.158 2.914.297 5.43-.147 7.148-.773 2.994-2.195 6.648-3.7 10.514-2.51 6.45-5.353 13.757-4.847 17.69.2 1.556 3.472 2.39 9.723 2.473 1.73.024 2.194.028 2.664.515l.386.4-.002.58c-.403 20.33-.626 31.53 3.796 34.884 3.95 2.996 13.17.52 26.783-3.594l1.564-.475 2.395 25.09-2.664.255zM401.536 296.52h-6.052c-2.758 0-4.817-2.88-4.817-5.457 0-.272.024-1.898.067-3.38l2.673.078c-.043 1.508-.067 3.103-.067 3.303 0 1.214 1.04 2.78 2.144 2.78h6.052c1.103 0 2.144-1.566 2.144-2.78 0-.192-.024-1.773-.07-3.302l2.676-.078c.043 1.48.067 3.126.067 3.38 0 2.577-2.06 5.46-4.817 5.46" fill="#000" mask="url(#b)"/><path d="M385.162 281.306v.116c0 2.735 2.225 4.96 4.958 4.96h16.78c2.734 0 4.96-2.225 4.96-4.96v-.116H385.16zm21.738 7.755h-16.78c-4.208 0-7.634-3.428-7.634-7.638v-19.597l2.102 1.463c1.075.75 2.33 1.145 3.636 1.145h20.57c1.307 0 2.564-.396 3.638-1.145l2.1-1.463v2.562l-1.335.003.762 1.096c-1.526 1.06-3.312 1.622-5.166 1.622h-20.57c-1.055 0-2.087-.18-3.062-.533v12.054h29.37v2.792c0 4.21-3.424 7.64-7.632 7.64z" fill="#000" mask="url(#b)"/><path fill="#000" mask="url(#b)" d="M390.907 274.148h22.288v-2.678h-22.288M425.306 199.797c-2.098-5.034-5.58-9.35-10.068-12.483l1.53-2.196c4.906 3.424 8.713 8.146 11.006 13.65l-2.468 1.03zM430.175 210.814H427.5c0-2.776-.396-5.518-1.175-8.153l2.565-.76c.854 2.882 1.285 5.88 1.285 8.914M369.588 221.845c-1.326-3.525-1.998-7.236-1.998-11.032h2.676c0 3.474.614 6.867 1.825 10.09l-2.502.942zM445.148 212.01h13.682v-2.677h-13.682M338.19 212.01h13.683v-2.677H338.19M432.04 179.015l-1.893-1.893 3.698-3.697 1.892 1.893M363.175 247.92l-1.892-1.892 3.697-3.698 1.892 1.89M364.98 179.015l-3.698-3.697 1.892-1.893 3.698 3.697M433.845 247.92l-3.697-3.7 1.892-1.89 3.697 3.698M369.502 276.96h2.676v-2.447h-2.676M369.502 285.935h2.676v-2.45h-2.676M369.502 267.984h2.676v-2.447h-2.676M167.13 290.347h2.677V268.09h-2.676M190.393 290.347h2.673V268.09h-2.673M180.1 263.584l-13.294-13.3 1.89-1.894L180.1 259.8l11.404-11.41 1.89 1.893"/><path fill="#000" mask="url(#b)" d="M178.76 290.347h2.677V261.69h-2.676M180.1 220.985c-6.29 0-11.407 5.12-11.407 11.413 0 6.29 5.117 11.41 11.407 11.41s11.406-5.12 11.406-11.41c0-6.293-5.117-11.413-11.406-11.413m0 25.5c-7.765 0-14.08-6.318-14.08-14.087 0-7.768 6.315-14.09 14.08-14.09 7.764 0 14.08 6.322 14.08 14.09 0 7.77-6.316 14.088-14.08 14.088"/><path fill="#000" mask="url(#b)" d="M169.7 239.158l-1.89-1.893 15.173-15.182 10.733 10.74-1.892 1.892-8.84-8.846M204.82 291.686h-49.44v-37.88l5.804-5.807h12.147v-4.063h2.677v6.737H162.29l-4.238 4.242v34.092h44.094v-34.092l-4.237-4.242h-13.717v-6.737h2.674V248h12.147l5.807 5.807"/><path fill="#000" mask="url(#b)" d="M172.877 285.32h2.676v-2.456h-2.676M172.877 276.52h2.676v-2.456h-2.676M198.54 362.92h2.676v-17.266h-2.676M225.127 362.92h2.674v-17.266h-2.673M213.172 339.148l-13.035-7.77 1.37-2.3 11.665 6.954 11.665-6.953 1.37 2.297"/><path fill="#000" mask="url(#b)" d="M211.834 362.92h2.676v-25.33h-2.676M213.172 301.877c-6.29 0-11.407 5.12-11.407 11.41 0 6.294 5.117 11.414 11.407 11.414s11.406-5.12 11.406-11.412c0-6.29-5.117-11.41-11.406-11.41m0 25.5c-7.765 0-14.08-6.32-14.08-14.09 0-7.767 6.315-14.09 14.08-14.09 7.764 0 14.08 6.323 14.08 14.09 0 7.77-6.316 14.09-14.08 14.09"/><path fill="#000" mask="url(#b)" d="M201.35 317.08l-1.304-2.336 16.797-9.376 9.476 4.578-1.164 2.41-8.225-3.972M237.894 364.26H188.45v-29.562l5.806-5.808h12.147v-4.062h2.676v6.737h-13.716l-4.24 4.242v25.775h44.094v-25.775l-4.237-4.242h-13.715v-6.737h2.674v4.062h12.146l5.808 5.808M134.063 362.92h2.674v-17.266h-2.674M157.32 362.92h2.676v-17.266h-2.676M147.028 337.816l-12.94-6.39 1.183-2.398 11.758 5.803 11.756-5.802 1.185 2.4"/><path fill="#000" mask="url(#b)" d="M145.69 362.92h2.676v-26.597h-2.676M147.028 301.877c-6.29 0-11.407 5.12-11.407 11.41 0 6.294 5.118 11.414 11.408 11.414 6.29 0 11.406-5.12 11.406-11.412 0-6.29-5.117-11.41-11.406-11.41m0 25.5c-7.764 0-14.08-6.32-14.08-14.09 0-7.767 6.316-14.09 14.08-14.09s14.08 6.323 14.08 14.09c0 7.77-6.316 14.09-14.08 14.09"/><path fill="#000" mask="url(#b)" d="M134.842 316.17l-.91-2.517 20.632-7.476 6.174 7.644-2.08 1.683-4.974-6.16M171.75 364.26h-49.443v-29.562l5.805-5.808h12.147v-4.062h2.675v6.737H129.22l-4.24 4.242v25.775h44.093v-25.775l-4.236-4.242H151.12v-6.737h2.675v4.062h12.147l5.807 5.808M128.26 299.06h-2.676c0-17.418 8.426-33.93 22.537-44.17l1.57 2.165c-13.42 9.74-21.43 25.44-21.43 42.006M180.084 353.592c-1.523 0-3.057-.062-4.563-.19l.222-2.665c2.584.214 5.25.235 7.836.062l.177 2.67c-1.21.08-2.446.122-3.67.122M231.403 291.786c-1.577-11.237-6.932-21.82-15.082-29.798l1.87-1.912c8.57 8.388 14.204 19.518 15.863 31.34l-2.65.37zM169.205 323.273l-1.338-2.317 11.565-6.682 1.335 2.32"/><path fill="#000" mask="url(#b)" d="M190.994 323.273l-12.23-7.065v-14.134h2.672v12.59l10.896 6.292M178.81 341.292h2.677v-3.126h-2.676M178.81 330.09h2.677v-3.126h-2.676M445.886 403.107c-27.103 0-49.153 22.063-49.153 49.18 0 27.12 22.05 49.182 49.153 49.182 27.102 0 49.152-22.064 49.152-49.182 0-27.118-22.05-49.18-49.152-49.18m0 101.036c-28.577 0-51.827-23.262-51.827-51.856s23.25-51.86 51.826-51.86c28.577 0 51.828 23.266 51.828 51.86s-23.25 51.856-51.828 51.856"/><path d="M481.852 486.74l-1.534-5.575c-1.027-3.728-4.444-6.336-8.31-6.343l-52.324-.072h-.012c-3.858 0-7.26 2.598-8.28 6.32l-1.532 5.604-2.577-.706 1.53-5.602c1.335-4.885 5.8-8.294 10.86-8.294h.016l52.324.074c5.062.008 9.538 3.424 10.884 8.31l1.532 5.575-2.578.71zM445.055 467.717c-8.145 0-15.766-7.75-18.962-19.285l2.578-.715c2.825 10.2 9.563 17.322 16.385 17.322 9.256 0 17.686-12.755 17.686-26.762 0-12.552-7.27-21.32-17.685-21.32-10.414 0-17.686 8.768-17.686 21.32 0 .622.018 1.26.052 1.893l-2.67.15c-.038-.684-.057-1.37-.057-2.042 0-14.128 8.37-23.996 20.36-23.996s20.362 9.868 20.362 23.996c0 13.925-8.363 29.44-20.362 29.44" fill="#000" mask="url(#b)"/><path d="M463.272 440.968c-5.33-3.76-8.323-9.494-10.627-15.348-7.712 6.672-16.363 10.326-26.383 11.16l-.22-2.67c10.04-.83 18.625-4.68 26.248-11.765l1.465-1.362.698 1.876c2.254 6.064 5.07 12.19 10.36 15.92l-1.54 2.188zM445.146 484.968c-5.225 0-9.843-4.508-11.493-11.217l2.6-.637c1.347 5.49 4.922 9.18 8.893 9.18 3.96 0 7.534-3.68 8.888-9.153l2.597.643c-1.653 6.69-6.27 11.185-11.484 11.185" fill="#000" mask="url(#b)"/><path fill="#000" mask="url(#b)" d="M448.284 502.738l-.986-19.85 2.67-.133.987 19.848M442.36 502.642l-2.67-.132.973-19.6 2.67.13"/><path fill="#000" mask="url(#b)" d="M450.022 492.693l-1.892-1.893 18.26-18.268 1.89 1.89M440.585 493.356L421.6 474.362l1.893-1.893 18.984 18.993M425.568 446.735h8.646v-5.15h-8.646v5.15zm-2.676 2.677h13.996V438.91h-13.996v10.502zM444.436 446.735h8.646v-5.15h-8.646v5.15zm-2.674 2.677h13.996V438.91h-13.996v10.502z"/><path fill="#000" mask="url(#b)" d="M435.55 444.727h7.548v-2.678h-7.548M454.944 444.347l-1.046-2.463 6.167-2.623 4.3 1.78-1.024 2.475-3.26-1.35M465.297 466.586h3.122v-2.678h-3.123M476.492 466.586h3.122v-2.678h-3.122M497.03 414.708h-2.676V403.79h-10.91v-2.676h13.586M408.33 503.46h-13.587v-13.593h2.673v10.917h10.913M580.987 365.42c-21.08 0-38.226 17.16-38.226 38.25s17.147 38.25 38.227 38.25 38.225-17.16 38.225-38.25-17.146-38.25-38.225-38.25m0 79.175c-22.554 0-40.902-18.36-40.902-40.926 0-22.565 18.348-40.927 40.902-40.927 22.553 0 40.9 18.362 40.9 40.926 0 22.566-18.347 40.925-40.9 40.925"/><path d="M608.557 431.13l-1.328-4.823c-.77-2.798-3.334-4.756-6.233-4.758l-40.04-.056h-.01c-2.89 0-5.442 1.948-6.206 4.74l-1.323 4.845-2.58-.707 1.324-4.844c1.082-3.955 4.695-6.714 8.788-6.714h.015l40.04.055c4.096.01 7.717 2.773 8.806 6.724l1.325 4.825-2.578.71zM580.37 377.224c-7.83 0-13.298 6.617-13.298 16.094 0 10.614 6.337 20.28 13.298 20.28 6.958 0 13.298-9.666 13.298-20.28 0-9.477-5.47-16.094-13.298-16.094m0 39.05c-9.414 0-15.974-12.097-15.974-22.956 0-10.876 6.718-18.77 15.974-18.77s15.972 7.894 15.972 18.77c0 10.86-6.558 22.956-15.972 22.956" fill="#000" mask="url(#b)"/><path fill="#000" mask="url(#b)" d="M582.96 443.21l-1.04-15.924 2.67-.175 1.04 15.925M578.19 443.13l-2.667-.174 1.033-15.844 2.67.175M566.83 395.728l-2.1-1.656 8.026-10.2 22.374 5.167-.602 2.607-20.72-4.784"/><path fill="#000" mask="url(#b)" d="M584.854 428.537h-8.95l-1.32-8.15 2.64-.43.957 5.903h4.398l.955-5.885 2.642.43M579.473 406.98h2.674v-7.697h-2.674M591.115 397.878c-2.117-.508-5.357-.847-8.89-.928l.064-2.675c3.768.086 7.122.44 9.45 1l-.625 2.603zM570.465 397.757l-.547-2.62c2.324-.487 5.518-.794 8.99-.866l.057 2.676c-3.314.07-6.332.357-8.5.81"/><path fill="#000" mask="url(#b)" d="M590.27 429.723l-5.568-8.82 2.26-1.43 3.258 5.16 3.093-5.125 2.29 1.38M571.702 429.725l-5.347-8.868 2.29-1.384 3.11 5.158 3.264-5.17 2.26 1.43M554.412 400.037h2.676v-2.45h-2.676M554.412 391.26h2.676v-2.45h-2.676M621.352 374.223h-2.675v-8.266h-8.26v-2.677h10.935M551.556 444.06H540.62v-10.943h2.676v8.265h8.26M461.753 87.47c-22.084 0-40.05 17.977-40.05 40.07 0 22.098 17.966 40.073 40.05 40.073 22.084 0 40.048-17.975 40.048-40.072 0-22.093-17.963-40.07-40.047-40.07m0 82.82c-23.56 0-42.724-19.177-42.724-42.75 0-23.57 19.164-42.748 42.723-42.748 23.558 0 42.724 19.177 42.724 42.75 0 23.57-19.166 42.748-42.724 42.748"/><path fill="#000" mask="url(#b)" d="M461.544 164.195l-14.04-7.982v-11.065h2.676v9.505l11.385 6.476 11.807-6.49v-9.456h2.674v11.04"/><path d="M490.397 156.518l-1.366-4.966c-.812-2.95-3.534-5.017-6.615-5.022l-7.287-.01h-.005c-2.52 0-4.644 1.843-6.963 4.07-1.875 1.8-4.287 2.79-6.79 2.79-2.51 0-4.923-.993-6.8-2.802-2.327-2.24-4.453-4.09-6.942-4.096l-6.592-.01h-.01c-3.052 0-5.747 2.06-6.553 5.005l-1.364 4.99-2.58-.705 1.363-4.99c1.122-4.107 4.877-6.975 9.134-6.975h.014l6.592.01c3.765.005 6.67 2.8 8.79 4.842 1.377 1.325 3.135 2.055 4.948 2.055 1.81 0 3.563-.727 4.94-2.047 2.114-2.032 5.013-4.813 8.813-4.813h.01l7.287.01c4.28.005 8.06 2.88 9.188 6.987l1.367 4.966-2.578.71zM484.378 134.253h-10.385v-2.677h8.287c.566-2.543.85-5.17.85-7.822 0-15.566-9.715-28.23-21.656-28.23-11.94 0-21.657 12.664-21.657 28.23 0 2.65.286 5.28.852 7.822h8.89v2.677h-10.99l-.256-1.01c-.777-3.07-1.173-6.262-1.173-9.49 0-17.04 10.92-30.903 24.334-30.903 13.416 0 24.33 13.863 24.33 30.904 0 3.227-.392 6.418-1.172 9.49l-.254 1.01z" fill="#000" mask="url(#b)"/><path fill="#000" mask="url(#b)" d="M460.415 162.554h2.676v-6.217h-2.675M468.372 127.236c-2.09 0-4.067-1.034-5.285-2.763l2.187-1.54c.717 1.02 1.875 1.626 3.098 1.626 1.223 0 2.38-.608 3.098-1.628l2.187 1.54c-1.218 1.73-3.194 2.764-5.285 2.764M455.353 127.236c-2.09 0-4.067-1.034-5.285-2.763l2.187-1.54c.717 1.02 1.875 1.626 3.098 1.626 1.223 0 2.38-.608 3.098-1.628l2.188 1.54c-1.218 1.73-3.194 2.764-5.285 2.764"/><path d="M448.084 117.41c-.098.882-.15 1.79-.15 2.717 0 11.03 6.598 21.08 13.84 21.08 7.245 0 13.842-10.05 13.842-21.08 0-.938-.05-1.857-.15-2.747-1.498.33-3.04.612-4.598.832l-1.033.147-1.358-3.348-1.472 3.63-.837.055c-1.467.098-2.97.15-4.462.15-4.726 0-9.3-.484-13.622-1.438m13.69 26.474c-9.73 0-16.512-12.522-16.512-23.757 0-1.584.13-3.126.39-4.587l.25-1.41 1.388.344c4.53 1.126 9.38 1.694 14.416 1.694 1.153 0 2.31-.03 3.453-.09l3.317-8.185 3.046 7.512c1.618-.256 3.203-.58 4.73-.962l1.39-.35.25 1.41c.264 1.474.4 3.028.4 4.624 0 11.235-6.785 23.757-16.518 23.757M432.44 140.946H435v-2.677h-2.56M441.616 140.946h2.56v-2.677h-2.56M503.917 96.738h-2.676v-8.71h-8.7v-2.674h11.377M430.967 169.73H419.59v-11.385h2.675v8.707h8.702M434.876 220.278c-.434-.343-.87-.682-1.31-1.02l1.633-2.12c.445.342.89.69 1.333 1.038l-1.657 2.102zM439.997 224.51c-.837-.724-1.683-1.44-2.535-2.144l1.703-2.064c.868.718 1.73 1.447 2.582 2.184l-1.75 2.025zm4.92 4.46c-.8-.762-1.614-1.513-2.434-2.257l1.796-1.984c.834.757 1.66 1.523 2.48 2.3l-1.843 1.94zm4.714 4.684c-.766-.8-1.543-1.588-2.33-2.368l1.885-1.9c.8.794 1.592 1.598 2.374 2.41l-1.93 1.858zm4.497 4.89c-.73-.833-1.47-1.656-2.22-2.472l1.968-1.81c.763.83 1.518 1.667 2.262 2.516l-2.01 1.766zm4.266 5.09c-.693-.865-1.393-1.722-2.105-2.57l2.05-1.72c.724.865 1.438 1.738 2.143 2.62l-2.087 1.67zM461.434 247.575c-.33-.444-.664-.886-1-1.325l2.127-1.626c.344.448.682.9 1.018 1.35l-2.144 1.6zM492.38 343.747l-2.67-.176c.21-3.185.315-6.42.315-9.622 0-8.594-.76-17.202-2.257-25.59l2.636-.47c1.522 8.54 2.294 17.31 2.294 26.06 0 3.258-.105 6.555-.32 9.8M485.213 296.8c-1.59-6.01-3.595-11.973-5.954-17.73l2.473-1.014c2.405 5.862 4.446 11.94 6.067 18.057l-2.587.686zM472.12 409.117l-2.3-1.368c5.31-8.94 9.655-18.465 12.91-28.31l2.54.84c-3.318 10.027-7.742 19.73-13.15 28.837M206.162 381.816c-2.083-6.068-3.78-12.337-5.047-18.632l2.623-.528c1.242 6.18 2.91 12.334 4.954 18.29l-2.53.87zM234.35 430.626c-11.226-12.906-20.042-27.5-26.202-43.376l2.493-.97c6.05 15.59 14.705 29.917 25.728 42.587l-2.02 1.76zM356.698 480.852l-.202-2.668c5.036-.38 10.102-1.03 15.06-1.936l.48 2.635c-5.05.92-10.21 1.583-15.338 1.97M333.83 480.822c-3.904-.304-7.84-.77-11.692-1.384l.422-2.644c3.783.602 7.644 1.06 11.478 1.36l-.21 2.668zM376.122 478.076l-.556-2.62c7.66-1.622 15.236-3.89 22.52-6.74l.974 2.49c-7.42 2.907-15.138 5.217-22.938 6.87M291.614 199.662l-.998-2.483c7.565-3.04 15.435-5.46 23.39-7.192l.57 2.616c-7.81 1.7-15.536 4.073-22.962 7.058M235.29 240.28l-2.038-1.736c13.598-15.993 30.788-29.148 49.717-38.037l1.133 2.424c-18.583 8.73-35.462 21.644-48.813 37.35M439.36 266.305c-.642-.89-1.303-1.782-1.97-2.656l2.122-1.627c.683.892 1.362 1.806 2.02 2.718l-2.17 1.565zm3.713 5.473c-.595-.936-1.206-1.864-1.818-2.764l2.213-1.502c.626.92 1.25 1.87 1.86 2.826l-2.255 1.44zm3.395 5.674c-.54-.962-1.098-1.927-1.657-2.86l2.296-1.375c.573.955 1.144 1.94 1.695 2.927l-2.332 1.308zm3.062 5.86c-.482-.99-.983-1.983-1.49-2.952l2.372-1.24c.518.99 1.03 2.005 1.523 3.02l-2.405 1.173zm2.542 5.59c-.37-.87-.748-1.736-1.137-2.597l2.436-1.1c.4.88.788 1.765 1.164 2.655l-2.462 1.043z" fill="#000" mask="url(#b)"/><path d="M437.39 263.65c-5.897-7.706-12.748-14.66-20.368-20.67l1.657-2.103c7.792 6.147 14.803 13.263 20.834 21.147l-2.125 1.626zM458.726 368.458l-2.558-.78c.316-1.043.626-2.113.916-3.18l2.58.707c-.297 1.09-.61 2.185-.938 3.253m-2.153 6.418l-2.51-.928c.38-1.03.748-2.08 1.098-3.12l2.535.852c-.357 1.066-.733 2.14-1.122 3.196m-2.518 6.28l-2.452-1.07c.434-.997.863-2.024 1.273-3.05l2.484.995c-.422 1.054-.86 2.105-1.305 3.125m-2.874 6.125l-2.388-1.207c.5-.99.986-1.99 1.45-2.972l2.418 1.138c-.47 1.005-.97 2.03-1.48 3.042m-3.222 5.952l-2.314-1.343c.542-.937 1.086-1.91 1.616-2.885l2.352 1.274c-.542 1-1.1 1.993-1.654 2.952m-3.558 5.756l-2.233-1.473c.6-.91 1.197-1.847 1.777-2.788l2.275 1.408c-.593.96-1.207 1.92-1.82 2.853m-2.62 3.82l-2.18-1.55c.236-.336.476-.67.71-1.006l2.19 1.536-.72 1.02M461.818 317.16c1.22 9.21 1.345 18.554.376 27.774l-2.66-.28c.948-9.012.824-18.144-.368-27.143l2.652-.35zM247.866 401c-.633-.922-1.266-1.87-1.877-2.815l2.246-1.454c.597.927 1.215 1.853 1.834 2.753L247.866 401zm3.99 5.462c-.693-.895-1.378-1.804-2.033-2.7l2.158-1.583c.644.878 1.313 1.768 1.99 2.64l-2.114 1.642zm4.293 5.226c-.73-.838-1.464-1.706-2.183-2.58l2.064-1.703c.706.856 1.425 1.706 2.137 2.526l-2.018 1.758zm4.583 4.976c-.79-.81-1.573-1.637-2.328-2.455l1.968-1.817c.737.8 1.502 1.607 2.274 2.402l-1.914 1.87zm4.858 4.707c-.82-.753-1.65-1.535-2.46-2.32l1.86-1.92c.79.767 1.6 1.53 2.407 2.266l-1.806 1.975zm5.12 4.422c-.87-.71-1.743-1.44-2.592-2.173l1.75-2.03c.83.72 1.682 1.434 2.533 2.13l-1.69 2.072zM336.624 452.064c-16.252-1.2-31.787-5.645-46.174-13.212l1.244-2.37c14.06 7.396 29.244 11.74 45.127 12.914l-.196 2.668zM348.13 452.36l-.06-2.675c17.008-.38 33.323-4.364 48.487-11.847l1.184 2.4c-15.517 7.657-32.208 11.736-49.61 12.122M302.648 226.365l-.99-2.488c1.03-.41 2.093-.816 3.156-1.205l.92 2.512c-1.04.382-2.08.78-3.086 1.18m-6.06 2.623l-1.13-2.426c1.01-.47 2.047-.937 3.08-1.385l1.063 2.456c-1.01.438-2.023.894-3.013 1.357m-5.904 2.965l-1.268-2.358c.983-.528 1.992-1.053 3-1.56l1.198 2.392c-.983.495-1.968 1.008-2.93 1.526m-5.723 3.3l-1.4-2.28c.942-.583 1.92-1.164 2.903-1.732l1.336 2.32c-.963.554-1.917 1.123-2.84 1.69m-5.53 3.622l-1.527-2.196c.918-.64 1.86-1.278 2.8-1.895l1.466 2.242c-.92.602-1.84 1.223-2.74 1.85m-5.313 3.932l-1.65-2.107c.885-.695 1.79-1.386 2.69-2.05l1.59 2.15c-.88.65-1.762 1.326-2.63 2.007m-5.084 4.225l-1.767-2.01c.835-.733 1.698-1.472 2.57-2.2l1.71 2.06c-.85.71-1.697 1.432-2.513 2.15m-4.834 4.51l-1.878-1.906c.79-.78 1.61-1.57 2.44-2.34l1.823 1.957c-.808.756-1.61 1.527-2.386 2.29m-4.57 4.776l-1.986-1.794c.743-.82 1.518-1.653 2.304-2.476l1.933 1.85c-.77.803-1.527 1.62-2.25 2.42m-4.295 5.03l-2.084-1.678c.713-.883 1.44-1.76 2.16-2.603l2.035 1.737c-.705.828-1.415 1.682-2.11 2.545m-4.002 5.264l-2.175-1.556c.652-.912 1.328-1.828 2.01-2.723l2.13 1.62c-.666.876-1.327 1.77-1.965 2.66m-3.695 5.488l-2.26-1.432c.598-.945 1.22-1.898 1.85-2.83l2.218 1.494c-.614.914-1.223 1.845-1.808 2.768m-3.376 5.69l-2.338-1.3c.54-.973 1.108-1.96 1.685-2.933l2.3 1.365c-.567.952-1.12 1.917-1.648 2.87M249.386 488.438l-11.48-11.488 1.89-1.893 9.59 9.597 9.588-9.597 1.892 1.893" fill="#000" mask="url(#b)"/><path d="M226.213 497.748c-.154-1.483-.23-2.917-.23-4.268 0-11.27 6.337-18.37 17.88-20.105v-3.038h2.676v5.4l-1.185.138c-7.618.88-16.696 4.647-16.696 17.605 0 1.26.07 2.603.214 3.995l-2.66.273zM272.558 497.747l-2.66-.273c.143-1.396.215-2.742.215-3.995 0-12.96-9.078-16.726-16.696-17.604l-1.185-.137v-5.4h2.676v3.034c11.543 1.734 17.88 8.836 17.88 20.105 0 1.343-.076 2.78-.23 4.267" fill="#000" mask="url(#b)"/><path d="M249.386 444.634c-5.484 0-9.316 4.667-9.316 11.35 0 7.4 4.527 14.396 9.316 14.396 4.788 0 9.315-6.996 9.315-14.395 0-6.684-3.83-11.35-9.314-11.35m0 28.423c-7.067 0-11.99-9-11.99-17.073 0-8.128 5.043-14.028 11.99-14.028 6.946 0 11.99 5.9 11.99 14.028 0 8.073-4.924 17.073-11.99 17.073" fill="#000" mask="url(#b)"/><path d="M239.682 459.05l-1.688-2.075c2.635-2.147 4.115-5.45 5.323-8.697l.698-1.878 1.468 1.363c4.287 3.987 9.092 6.2 14.69 6.765l-.27 2.663c-5.568-.562-10.418-2.59-14.778-6.184-1.235 3.002-2.83 5.917-5.443 8.045M248.048 505.017h2.676V486.69h-2.676" fill="#000" mask="url(#b)"/><path d="M249.386 434.465c-19.07 0-34.587 15.525-34.587 34.606 0 19.084 15.516 34.607 34.586 34.607 19.072 0 34.586-15.523 34.586-34.606 0-19.08-15.514-34.605-34.586-34.605m0 71.89c-20.547 0-37.262-16.725-37.262-37.284 0-20.558 16.715-37.283 37.262-37.283 20.546 0 37.26 16.725 37.26 37.284 0 20.56-16.714 37.285-37.26 37.285" fill="#000" mask="url(#b)"/><path d="M277.985 469.07h-2.676c0-4.855-1.35-9.588-3.903-13.69l2.274-1.414c2.816 4.525 4.305 9.75 4.305 15.105M222.072 477.58c-.853-2.745-1.285-5.607-1.285-8.508 0-6.578 2.285-13 6.436-18.087l2.07 1.693c-3.76 4.61-5.832 10.43-5.832 16.394 0 2.63.394 5.226 1.166 7.714l-2.554.794zM294.727 513.198c-.295 0-.696.05-.943.298-.29.29-.374.882-.225 1.59.18.87.692 1.795 1.368 2.47 1.117 1.12 2.523 1.31 3.37.457.392-.39.58-.887.543-1.434-.04-.656-.385-1.326-1-1.94-.86-.86-2.113-1.442-3.113-1.442m2.266 8.04c-1.398 0-2.803-.636-3.957-1.79-1.043-1.044-1.805-2.433-2.095-3.812-.338-1.62.008-3.088.952-4.033.708-.708 1.69-1.082 2.835-1.082 1.714 0 3.635.855 5.006 2.227 1.08 1.082 1.696 2.346 1.78 3.66.083 1.32-.387 2.564-1.322 3.5-.857.858-1.994 1.33-3.197 1.33" fill="#000" mask="url(#b)"/><path d="M287.65 516.567c-1.816 0-3.804-.75-5.92-2.864-.236-.238-2.972-3.035-3.495-3.746l-.683-.926 11.768-11.776.928.68c.707.524 3.503 3.264 3.743 3.5 4.47 4.476 2.84 8.387.917 11.295l-2.23-1.477c1.894-2.87 2.364-4.98-.578-7.925-.502-.5-1.727-1.684-2.586-2.48l-8.37 8.373c.815.88 2.028 2.14 2.48 2.59 2.94 2.943 5.053 2.473 7.916.578l1.478 2.23c-1.533 1.016-3.343 1.95-5.37 1.95M201.78 419.582c-.497 0-.95.19-1.308.547-.39.39-.578.887-.544 1.436.043.653.388 1.322 1.002 1.936.86.862 2.115 1.442 3.115 1.442.295 0 .695-.05.942-.297.643-.643.23-2.683-1.144-4.06-.65-.648-1.38-1.005-2.064-1.005m2.265 8.04c-1.717 0-3.635-.854-5.007-2.227-1.08-1.082-1.695-2.346-1.78-3.66-.083-1.32.387-2.563 1.322-3.5.86-.858 1.995-1.33 3.2-1.33 1.397 0 2.802.635 3.953 1.79 2.17 2.17 3.148 5.84 1.146 7.845-.708.707-1.69 1.082-2.835 1.082" fill="#000" mask="url(#b)"/><path d="M209.45 440.89l-.926-.683c-.705-.52-3.467-3.224-3.743-3.5-4.47-4.475-2.838-8.385-.917-11.293l2.232 1.475c-1.894 2.87-2.364 4.98.578 7.924.5.5 1.726 1.684 2.585 2.48l8.37-8.372c-.798-.862-1.98-2.088-2.48-2.59-2.943-2.943-5.053-2.473-7.92-.577l-1.473-2.232c2.906-1.924 6.814-3.555 11.284.92.275.273 2.977 3.037 3.497 3.742l.684.928-11.77 11.776zM204.044 513.198c-1 0-2.254.58-3.114 1.442-.614.614-.96 1.284-1 1.94-.036.546.15 1.042.542 1.433.85.852 2.25.662 3.37-.458.677-.674 1.188-1.598 1.37-2.47.15-.707.065-1.3-.225-1.59-.247-.247-.648-.297-.943-.297m-2.266 8.04c-1.203 0-2.34-.473-3.198-1.332-.935-.935-1.405-2.178-1.32-3.498.082-1.315.7-2.58 1.778-3.66 1.37-1.373 3.292-2.227 5.006-2.227 1.146 0 2.127.375 2.835 1.083.943.945 1.29 2.413.95 4.033-.29 1.38-1.052 2.768-2.095 3.812-1.154 1.154-2.56 1.79-3.957 1.79" fill="#000" mask="url(#b)"/><path d="M211.122 516.567c-2.026 0-3.837-.934-5.37-1.946l1.478-2.233c2.865 1.895 4.976 2.368 7.918-.578.5-.503 1.683-1.73 2.48-2.587l-8.37-8.376c-.86.8-2.085 1.982-2.587 2.48-2.94 2.945-2.47 5.058-.576 7.925l-2.23 1.476c-1.924-2.906-3.554-6.82.918-11.29.237-.24 3.033-2.98 3.743-3.5l.925-.685 11.77 11.778-.682.927c-.523.707-3.223 3.47-3.498 3.745-2.113 2.114-4.103 2.865-5.918 2.865M296.992 419.582c-.683 0-1.417.357-2.064 1.005-1.374 1.377-1.784 3.417-1.144 4.06.247.247.647.297.942.297 1.002 0 2.254-.58 3.115-1.442.615-.614.96-1.283 1.003-1.936.034-.55-.153-1.046-.544-1.437-.358-.36-.812-.548-1.308-.548m-2.266 8.04c-1.146 0-2.127-.375-2.834-1.082-2.002-2.004-1.024-5.675 1.144-7.846 1.153-1.154 2.558-1.79 3.956-1.79 1.204 0 2.34.473 3.2 1.332.934.936 1.404 2.178 1.32 3.498-.084 1.315-.698 2.58-1.78 3.66-1.37 1.374-3.29 2.228-5.006 2.228" fill="#000" mask="url(#b)"/><path d="M289.32 440.89l-11.767-11.777.68-.928c.524-.708 3.26-3.505 3.5-3.743 4.47-4.474 8.377-2.843 11.283-.92l-1.474 2.233c-2.866-1.896-4.976-2.366-7.92.578-.5.5-1.68 1.727-2.48 2.59l8.37 8.372c.86-.797 2.085-1.98 2.588-2.48 2.94-2.945 2.47-5.056.576-7.926l2.232-1.476c1.92 2.908 3.554 6.818-.918 11.293-.276.276-3.038 2.98-3.743 3.5l-.926.682zM249.386 410.567c-1.832 0-3.324 1.49-3.324 3.325 0 1.833 1.492 3.325 3.324 3.325 1.83 0 3.323-1.492 3.323-3.325 0-1.835-1.493-3.325-3.324-3.325m0 9.326c-3.307 0-5.997-2.692-5.997-6 0-3.31 2.69-6.004 5.996-6.004 3.306 0 5.996 2.694 5.996 6.002 0 3.31-2.69 6-5.996 6M249.386 520.926c-1.832 0-3.324 1.493-3.324 3.326s1.492 3.325 3.324 3.325c1.83 0 3.323-1.492 3.323-3.325 0-1.833-1.493-3.326-3.324-3.326m0 9.326c-3.307 0-5.997-2.692-5.997-6 0-3.31 2.69-6.003 5.996-6.003 3.306 0 5.996 2.693 5.996 6.002 0 3.308-2.69 6-5.996 6M304.533 465.747c-1.832 0-3.323 1.492-3.323 3.325 0 1.833 1.49 3.323 3.323 3.323 1.832 0 3.324-1.49 3.324-3.323s-1.492-3.325-3.324-3.325m0 9.325c-3.306 0-5.997-2.69-5.997-6 0-3.308 2.69-6.003 5.997-6.003s5.997 2.694 5.997 6.002c0 3.31-2.69 6-5.997 6M194.238 465.747c-1.832 0-3.323 1.492-3.323 3.325 0 1.833 1.49 3.323 3.323 3.323 1.832 0 3.323-1.49 3.323-3.323s-1.49-3.325-3.322-3.325m0 9.325c-3.307 0-5.997-2.69-5.997-6 0-3.308 2.69-6.003 5.998-6.003 3.307 0 5.997 2.694 5.997 6.002 0 3.31-2.69 6-5.997 6M223.038 444.6l-9.596-9.598 1.892-1.893 9.596 9.598M283.436 505.034l-9.593-9.6 1.89-1.892 9.595 9.6" fill="#000" mask="url(#b)"/><path fill="#000" mask="url(#b)" d="M275.733 444.6l-1.892-1.893 9.597-9.6 1.89 1.894M215.335 505.034l-1.892-1.892 9.596-9.6 1.888 1.893M248.048 428.004h2.676v-9.45h-2.676M248.048 519.587h2.676v-9.45h-2.676M290.427 470.41h9.445v-2.677h-9.445M198.898 470.41h9.445v-2.677h-9.445M335.32 513.56l-2.672-.13.467-9.583 2.672.13M355.91 513.56l-.466-9.583 2.674-.13.465 9.583M345.294 502.363l-7.594-4.318v-5.852h2.673v4.295l4.942 2.81 5.14-2.822v-4.264h2.675v5.847"/><path d="M328.998 512.157h32.83v-3.44l-4.17-15.16-7.322-.01c-.966 2.06-2.922 3.384-5.12 3.384-2.21 0-4.166-1.328-5.133-3.396l-6.94-.012-4.145 15.16v3.475zm35.507 2.677h-38.183v-6.51l4.78-17.48 10.912.015.278.966c.42 1.454 1.592 2.43 2.923 2.43 1.326 0 2.498-.974 2.918-2.42l.28-.968 11.285.015 4.807 17.473v6.478zM357.088 484.816h-5.65v-2.678h3.535c.197-1.04.295-2.104.295-3.18 0-7.3-4.486-13.24-10-13.24-5.52 0-10.005 5.94-10.005 13.24 0 1.076.098 2.14.295 3.18h3.832v2.678h-5.947l-.256-1.01c-.398-1.567-.597-3.2-.597-4.847 0-8.777 5.685-15.92 12.677-15.92 6.99 0 12.675 7.143 12.675 15.92 0 1.647-.202 3.28-.6 4.846l-.254 1.01z" fill="#000" mask="url(#b)"/><path d="M339.278 476.65c-.008.173-.012.346-.012.52 0 4.996 2.987 9.718 6.148 9.718 3.16 0 6.148-4.722 6.148-9.717 0-.18-.005-.356-.012-.534-3.92.768-8.347.773-12.272.015m6.136 12.916c-5.2 0-8.822-6.533-8.822-12.395 0-.817.067-1.618.204-2.38l.25-1.41 1.388.344c2.18.542 4.515.818 6.946.818 2.453 0 4.81-.28 7.01-.833l1.387-.35.254 1.412c.138.763.207 1.572.207 2.4 0 5.86-3.623 12.394-8.823 12.394M354.616 423.83l-2.673-.13.62-12.748 2.672.13M382.888 423.83l-.618-12.75 2.67-.128.62 12.75" fill="#000" mask="url(#b)"/><path d="M346.204 422.428h44.56v-5.075l-5.655-20.55-33.288-.05-5.618 20.555v5.12zm47.237 2.677H343.53v-8.157l.048-.173 6.206-22.7 37.365.052 6.294 22.864v8.115zM368.05 364.92c-5.077 0-8.62 4.33-8.62 10.524 0 6.87 4.188 13.368 8.62 13.368 4.43 0 8.62-6.497 8.62-13.368 0-6.195-3.545-10.523-8.62-10.523m0 26.57c-6.657 0-11.295-8.457-11.295-16.046 0-7.65 4.75-13.2 11.294-13.2 6.545 0 11.295 5.55 11.295 13.2 0 7.59-4.64 16.046-11.296 16.046" fill="#000" mask="url(#b)"/><path fill="#000" mask="url(#b)" d="M370.216 423.86l-1.537-21.584 2.668-.19 1.537 21.583M366.16 423.86l-2.67-.19 1.538-21.584 2.67.19M359.175 377.347l-2.1-1.655 5.627-7.153 15.487 3.574-.603 2.608-13.833-3.193"/><path fill="#000" mask="url(#b)" d="M372.502 403.52h-8.89l-.912-7.933 2.66-.307.634 5.564h4.122l.638-5.552 2.66.307M652.186 415.153h-21.86v-2.677h19.184V393.28h2.676"/><path fill="#000" mask="url(#b)" d="M653.208 399.144l-2.312-4.19-2.31 4.19-2.344-1.293 4.654-8.437 4.655 8.438M284.77 276.51h-2.675v-21.877h21.864v2.678h-19.19"/><path fill="#000" mask="url(#b)" d="M283.386 280.375l-4.654-8.438 2.343-1.293 2.31 4.192 2.313-4.192 2.342 1.293M97.268 327.784c-6.8 0-12.334-5.537-12.334-12.34h2.673c0 5.327 4.335 9.665 9.66 9.665 5.326 0 9.66-4.34 9.66-9.667h2.675c0 6.804-5.534 12.34-12.334 12.34M87.608 315.443h-2.676c0-.624.048-1.253.142-1.87l2.645.4c-.073.486-.112.98-.112 1.47M101.66 306.832c-.903-.463-1.874-.78-2.88-.938l.416-2.642c1.285.202 2.525.605 3.683 1.198l-1.22 2.382zm-8.794.005l-1.22-2.383c1.157-.592 2.397-.998 3.682-1.202l.42 2.644c-1.007.16-1.976.475-2.882.94zm13.022 4.242c-.458-.908-1.057-1.734-1.777-2.458l1.896-1.89c.92.923 1.683 1.98 2.268 3.137l-2.386 1.21zm-17.247.008l-2.385-1.21c.587-1.158 1.35-2.216 2.266-3.137l1.898 1.887c-.72.724-1.317 1.552-1.777 2.46z"/><path d="M109.602 315.443h-2.676c0-.495-.036-.99-.11-1.466l2.645-.403c.094.61.142 1.24.142 1.87M387.116 108.633c-5.205 0-9.438 4.237-9.438 9.443 0 5.21 4.233 9.443 9.438 9.443 5.204 0 9.438-4.235 9.438-9.444 0-5.206-4.234-9.443-9.438-9.443m0 21.564c-6.678 0-12.113-5.437-12.113-12.12 0-6.683 5.435-12.122 12.113-12.122s12.114 5.44 12.114 12.12c0 6.685-5.436 12.122-12.114 12.122" fill="#000" mask="url(#b)"/><path fill="#000" mask="url(#b)" d="M385.778 123.87h2.676v-11.587h-2.676"/><path fill="#000" mask="url(#b)" d="M381.326 119.416h11.58v-2.678h-11.58M177.454 398.864h2.676v-13.11h-2.676"/><path fill="#000" mask="url(#b)" d="M172.24 393.645h13.103v-2.677H172.24M131.253 383.374h4.095v-2.677h-4.095M116.24 383.374h4.096v-2.677h-4.096M146.263 383.374h4.096v-2.677h-4.097M218.792 214.868h2.676v-13.11h-2.676"/><path fill="#000" mask="url(#b)" d="M213.58 209.65h13.1v-2.678h-13.1M321.354 395.53c-3.415 0-6.19 2.78-6.19 6.195 0 3.417 2.775 6.197 6.19 6.197 3.414 0 6.193-2.78 6.193-6.197 0-3.416-2.78-6.195-6.193-6.195m0 15.067c-4.89 0-8.867-3.98-8.867-8.872 0-4.892 3.978-8.872 8.867-8.872 4.89 0 8.867 3.98 8.867 8.872 0 4.892-3.977 8.872-8.866 8.872M621.657 447.893l-1.338-2.318 2.543-1.468 1.335 2.317M632.733 447.893l-2.542-1.47 1.34-2.316 2.54 1.468M625.857 438.803h2.676v-2.936h-2.676M644.436 219.744c.712.547 1.383 1.137 2.012 1.766.626.628 1.215 1.3 1.762 2.01.547-.71 1.137-1.382 1.765-2.01.628-.63 1.3-1.22 2.01-1.766-.71-.547-1.382-1.138-2.01-1.766-.628-.63-1.218-1.3-1.765-2.01-.547.71-1.136 1.38-1.765 2.01-.626.628-1.3 1.22-2.01 1.766zm3.774 8.622l-1.132-1.797c-.726-1.152-1.575-2.22-2.525-3.168-.944-.947-2.01-1.797-3.165-2.526l-1.796-1.132 1.796-1.133c1.154-.726 2.218-1.575 3.165-2.525.95-.95 1.8-2.015 2.525-3.17l1.132-1.794 1.132 1.796c.726 1.154 1.575 2.22 2.525 3.17.95.95 2.014 1.798 3.165 2.525l1.796 1.134-1.796 1.132c-1.153.727-2.218 1.58-3.165 2.526-.95.948-1.8 2.016-2.525 3.167l-1.132 1.796zM558.598 134.678c-2.012 7.802-4.743 10.533-12.538 12.548 7.793 2.015 10.53 4.746 12.538 12.548 2.017-7.802 4.745-10.533 12.543-12.548-7.794-2.015-10.528-4.746-12.542-12.548m0 7.418c1.288 2.203 2.928 3.844 5.13 5.13-2.2 1.288-3.84 2.927-5.127 5.13-1.285-2.203-2.925-3.844-5.128-5.13 2.2-1.288 3.84-2.927 5.126-5.13M692.046 397.424h4.095v-2.677h-4.094M677.036 397.424h4.095v-2.677h-4.094M521.59 468.77c-.873 0-1.585.71-1.585 1.587 0 .873.712 1.583 1.585 1.583.875 0 1.585-.71 1.585-1.583 0-.876-.71-1.586-1.585-1.586m0 5.848c-2.348 0-4.26-1.912-4.26-4.26 0-2.352 1.912-4.265 4.26-4.265 2.347 0 4.258 1.913 4.258 4.264 0 2.35-1.91 4.26-4.258 4.26M537.607 468.77c-.873 0-1.585.71-1.585 1.587 0 .873.712 1.583 1.585 1.583.875 0 1.585-.71 1.585-1.583 0-.876-.71-1.586-1.585-1.586m0 5.848c-2.347 0-4.26-1.912-4.26-4.26 0-2.352 1.913-4.265 4.26-4.265 2.347 0 4.258 1.913 4.258 4.264 0 2.35-1.91 4.26-4.258 4.26M553.624 468.77c-.873 0-1.585.71-1.585 1.587 0 .873.71 1.583 1.584 1.583.873 0 1.585-.71 1.585-1.583 0-.876-.713-1.586-1.586-1.586m0 5.848c-2.347 0-4.258-1.912-4.258-4.26 0-2.352 1.91-4.265 4.258-4.265s4.26 1.913 4.26 4.264c0 2.35-1.912 4.26-4.26 4.26M133.08 403.88c-1.35 0-2.53-.767-3.584-1.45-.73-.475-1.647-1.07-2.03-.91-.415.176-.85.507-1.312.855-.552.42-1.177.892-1.91 1.2-1.337.55-2.946.215-4.526-.953-.79-.586-1.734-1.267-2.227-1.198-.445.068-1.01.49-1.604.934-.35.26-.71.53-1.105.775-1.428.892-3.205.887-4.634-.01-.39-.245-.743-.51-1.086-.763-.6-.45-1.165-.87-1.614-.936-.57-.088-1.455.497-2.242 1.01-1.263.82-2.834 1.836-4.522 1.13-.727-.307-1.345-.774-1.894-1.19-.463-.352-.902-.683-1.322-.858-.42-.173-1.134.062-1.908.635-1.245.92-2.61 1.938-4.213 1.69-1.113-.167-2.014-.842-2.81-1.437-.317-.237-.617-.46-.92-.647l1.418-2.273c.396.248.756.516 1.103.775.597.447 1.158.87 1.607.936.494.072 1.436-.614 2.184-1.166 1.624-1.2 3.23-1.535 4.566-.984.736.305 1.36.78 1.91 1.198.464.35.898.68 1.315.854.38.163 1.297-.432 2.03-.907 1.18-.77 2.523-1.637 4.077-1.417 1.122.163 2.033.842 2.834 1.44.313.235.61.456.906.643.565.355 1.24.357 1.8.007.3-.187.602-.413.92-.65.795-.593 1.696-1.267 2.807-1.435 1.594-.245 2.966.77 4.17 1.658.817.602 1.532.84 1.954.665.42-.172.858-.506 1.323-.858.544-.413 1.163-.883 1.89-1.188 1.69-.708 3.26.312 4.522 1.13.786.51 1.674 1.094 2.247 1.01.442-.065 1.008-.487 1.61-.936.343-.256.695-.52 1.084-.763 1.43-.897 3.208-.902 4.635-.012l-1.416 2.273c-.56-.35-1.235-.348-1.8.007-.296.184-.59.405-.905.64-.804.6-1.713 1.28-2.833 1.44-.17.024-.335.036-.498.036M689.134 420.23c-.134 0-.27-.01-.408-.03-.933-.14-1.66-.683-2.3-1.163l1.578-2.162.022.017c.408.305.83.62 1.096.66.276.043 1.03-.533 1.446-.837 1.34-.99 2.683-1.262 3.812-.795.602.252 1.098.627 1.535.96.34.257.662.5.945.62h.012c.22 0 .894-.438 1.258-.673.904-.59 2.036-1.32 3.343-1.134.942.136 1.674.683 2.32 1.166.22.162.442.33.675.476.335.21.722.214 1.057.005.233-.146.458-.316.68-.48.64-.48 1.368-1.023 2.298-1.163 1.357-.208 2.508.648 3.434 1.332.59.433 1.03.54 1.2.472.282-.118.603-.363.944-.62.435-.33.93-.702 1.523-.952 1.45-.607 2.73.226 3.762.895l-1.455 2.246c-.372-.242-1.067-.67-1.283-.67-.27.116-.592.36-.933.615-.436.332-.932.708-1.532.958-1.134.468-2.474.196-3.78-.768-.447-.33-1.217-.902-1.483-.86-.265.04-.684.354-1.092.658-.283.212-.57.423-.87.61-1.202.748-2.69.744-3.89-.007-.295-.185-.578-.396-.856-.603-.41-.307-.832-.62-1.098-.662-.297-.04-1.005.404-1.508.73-1.034.67-2.314 1.505-3.762.898-.595-.252-1.09-.626-1.523-.955-.34-.257-.66-.5-.946-.62-.168-.07-.61.042-1.165.452-.86.633-1.876 1.384-3.056 1.384M594.007 189.67h38.118v-2.678h-38.118"/><path fill="#000" mask="url(#b)" d="M618.16 196.882l-1.205-2.39 12.202-6.16-12.202-6.162 1.206-2.388 16.934 8.55M284.434 398.537l-1.338-2.318 3.774-2.182 1.338 2.318M272.213 398.537l-3.774-2.18 1.337-2.32 3.774 2.182M276.985 411.332h2.676v-4.36h-2.675M525.07 427.837l-1.34-2.318 3.775-2.182 1.338 2.318M512.848 427.837l-3.774-2.18 1.338-2.32 3.774 2.182M517.62 440.634h2.676v-4.36h-2.676M629.705 276.537l-1.338-2.318 3.776-2.182 1.336 2.32M646.8 276.537l-3.775-2.18 1.338-2.32 3.774 2.182M636.913 263.6h2.676v-4.358h-2.677M252.644 333.146l-1.577-2.732 2.318-1.34 1.576 2.734M253.384 322.534l-2.316-1.338 1.575-2.733 2.32 1.34M242.135 327.144h3.153v-2.678h-3.153M583.527 168.565l-1.338-2.318 3.775-2.18 1.336 2.317M600.62 168.565l-3.773-2.18 1.338-2.32 3.774 2.182M590.736 155.63h2.676v-4.36h-2.676"/><path d="M480.4 179.117c-5.202 0-9.437 4.237-9.437 9.443 0 5.21 4.235 9.446 9.438 9.446 5.204 0 9.44-4.237 9.44-9.446 0-5.206-4.236-9.443-9.44-9.443m0 21.564c-6.68 0-12.113-5.436-12.113-12.12 0-6.682 5.434-12.12 12.114-12.12 6.68 0 12.115 5.438 12.115 12.12 0 6.684-5.436 12.12-12.114 12.12" fill="#0C8FD7" mask="url(#b)"/><path fill="#0C8FD7" mask="url(#b)" d="M479.063 194.353h2.676v-11.586h-2.677"/><path fill="#0C8FD7" mask="url(#b)" d="M474.61 189.9h11.58v-2.678h-11.58M410.924 318.49h2.676v-13.11h-2.676"/><path fill="#0C8FD7" mask="url(#b)" d="M405.71 313.274h13.103v-2.677H405.71M86.198 349.25h4.096v-2.677h-4.096M71.185 349.25h4.096v-2.677h-4.095M101.208 349.25h4.096v-2.677h-4.096M572.817 293.243h2.676v-13.11h-2.676"/><path fill="#0C8FD7" mask="url(#b)" d="M567.604 288.027h13.102v-2.677h-13.102M169.648 418.534c-3.415 0-6.194 2.778-6.194 6.194 0 3.417 2.78 6.198 6.194 6.198s6.19-2.78 6.19-6.198c0-3.416-2.776-6.194-6.19-6.194m0 15.067c-4.89 0-8.867-3.98-8.867-8.872 0-4.892 3.98-8.872 8.868-8.872 4.89 0 8.867 3.98 8.867 8.872 0 4.892-3.978 8.873-8.867 8.873M306.695 341.506l-1.338-2.318 2.544-1.468 1.337 2.318M317.772 341.506l-2.542-1.468 1.336-2.318 2.544 1.468M310.895 332.415h2.676v-2.937h-2.675M708.242 279.663c.71.547 1.38 1.137 2.012 1.766.626.627 1.215 1.3 1.762 2.012.547-.71 1.137-1.385 1.765-2.013.63-.63 1.3-1.22 2.013-1.767-.71-.547-1.384-1.137-2.012-1.766-.627-.628-1.217-1.3-1.764-2.01-.547.71-1.136 1.384-1.765 2.01-.627.63-1.298 1.22-2.008 1.766zm3.774 8.623l-1.132-1.795c-.726-1.155-1.575-2.22-2.525-3.168-.948-.95-2.012-1.8-3.166-2.527l-1.796-1.132 1.796-1.132c1.15-.726 2.218-1.576 3.165-2.526.95-.948 1.798-2.013 2.524-3.167l1.132-1.797 1.132 1.797c.726 1.152 1.575 2.22 2.525 3.167.95.95 2.014 1.8 3.165 2.527l1.796 1.133-1.796 1.132c-1.15.727-2.216 1.577-3.165 2.527-.95.95-1.8 2.015-2.525 3.17l-1.132 1.794zM413.914 67.353c-2.012 7.802-4.743 10.533-12.538 12.548 7.792 2.016 10.528 4.747 12.538 12.55 2.016-7.803 4.745-10.534 12.543-12.55-7.796-2.014-10.53-4.745-12.543-12.547m0 7.42c1.287 2.2 2.927 3.842 5.13 5.128-2.2 1.29-3.84 2.928-5.128 5.13-1.285-2.202-2.925-3.843-5.13-5.13 2.202-1.287 3.843-2.926 5.128-5.128M593.664 463.666h4.095v-2.677h-4.096M578.65 463.666h4.097v-2.677h-4.096M797.4 318.255c-.874 0-1.586.71-1.586 1.586 0 .874.712 1.587 1.585 1.587.872 0 1.584-.713 1.584-1.586 0-.875-.712-1.585-1.585-1.585m0 5.847c-2.348 0-4.26-1.912-4.26-4.26 0-2.352 1.912-4.265 4.26-4.265 2.35 0 4.26 1.913 4.26 4.264 0 2.35-1.91 4.262-4.26 4.262M797.4 334.28c-.874 0-1.586.712-1.586 1.587 0 .874.712 1.586 1.585 1.586.872 0 1.584-.712 1.584-1.586 0-.875-.712-1.586-1.585-1.586m0 5.848c-2.348 0-4.26-1.912-4.26-4.26 0-2.352 1.912-4.264 4.26-4.264 2.35 0 4.26 1.912 4.26 4.263 0 2.35-1.91 4.26-4.26 4.26M797.4 350.308c-.874 0-1.586.71-1.586 1.586 0 .873.712 1.586 1.585 1.586.872 0 1.584-.713 1.584-1.586 0-.876-.712-1.586-1.585-1.586m0 5.847c-2.348 0-4.26-1.912-4.26-4.26 0-2.352 1.912-4.265 4.26-4.265 2.35 0 4.26 1.913 4.26 4.264 0 2.35-1.91 4.26-4.26 4.26M737.85 330.85h2.677v-38.14h-2.676"/><path fill="#0C8FD7" mask="url(#b)" d="M745.347 307.89l-6.158-12.21-6.16 12.21-2.384-1.208 8.543-16.943 8.545 16.942M381.825 520.353c-2.13 8.256-5.02 11.145-13.27 13.278 8.25 2.134 11.145 5.022 13.27 13.278 2.134-8.256 5.02-11.144 13.272-13.277-8.25-2.13-11.143-5.02-13.272-13.277m0 7.532c1.414 2.504 3.242 4.333 5.745 5.746-2.5 1.416-4.328 3.242-5.743 5.747-1.412-2.505-3.24-4.33-5.745-5.746 2.503-1.415 4.33-3.24 5.743-5.745M604.313 306.057c.71.547 1.384 1.137 2.01 1.766.628.63 1.218 1.3 1.765 2.01.546-.71 1.136-1.38 1.764-2.01.63-.63 1.302-1.22 2.012-1.766-.71-.547-1.383-1.137-2.012-1.766-.628-.627-1.218-1.3-1.764-2.01-.547.71-1.137 1.383-1.763 2.01-.628.63-1.302 1.22-2.012 1.767zm3.775 8.623l-1.13-1.797c-.73-1.152-1.578-2.217-2.527-3.167-.946-.948-2.01-1.8-3.164-2.526l-1.796-1.133 1.796-1.132c1.153-.727 2.218-1.58 3.167-2.527.947-.95 1.796-2.015 2.525-3.167l1.13-1.796 1.13 1.797c.728 1.153 1.577 2.22 2.526 3.168.95.95 2.014 1.8 3.168 2.527l1.793 1.132-1.793 1.133c-1.154.727-2.218 1.576-3.168 2.526-.95.948-1.798 2.015-2.525 3.167l-1.132 1.797zM427.24 277.162c-.874 0-1.586.71-1.586 1.585 0 .874.712 1.584 1.585 1.584.87 0 1.584-.71 1.584-1.583 0-.875-.713-1.585-1.585-1.585m0 5.846c-2.35 0-4.262-1.912-4.262-4.26 0-2.352 1.91-4.264 4.26-4.264 2.348 0 4.26 1.912 4.26 4.263 0 2.35-1.912 4.26-4.26 4.26M519.607 398.515c-.875 0-1.585.71-1.585 1.586 0 .875.71 1.587 1.585 1.587.873 0 1.585-.712 1.585-1.586 0-.874-.712-1.585-1.585-1.585m0 5.847c-2.35 0-4.258-1.912-4.258-4.26 0-2.352 1.907-4.264 4.257-4.264 2.348 0 4.26 1.912 4.26 4.263 0 2.35-1.912 4.262-4.26 4.262M326.932 428.712c-.875 0-1.585.71-1.585 1.586 0 .873.71 1.586 1.585 1.586.873 0 1.585-.713 1.585-1.586 0-.876-.712-1.586-1.585-1.586m0 5.847c-2.347 0-4.258-1.913-4.258-4.262 0-2.35 1.91-4.264 4.258-4.264 2.35 0 4.26 1.913 4.26 4.264 0 2.35-1.91 4.26-4.26 4.26M398.15 196.87c-.873 0-1.585.71-1.585 1.586 0 .873.712 1.586 1.585 1.586s1.585-.713 1.585-1.586c0-.876-.712-1.586-1.585-1.586m0 5.847c-2.348 0-4.26-1.912-4.26-4.26 0-2.352 1.912-4.265 4.26-4.265 2.347 0 4.258 1.913 4.258 4.264 0 2.35-1.91 4.26-4.258 4.26M95.225 372.42c-.873 0-1.585.71-1.585 1.587 0 .873.712 1.585 1.585 1.585.875 0 1.585-.712 1.585-1.585 0-.876-.71-1.586-1.585-1.586m0 5.848c-2.348 0-4.26-1.913-4.26-4.26 0-2.353 1.912-4.265 4.26-4.265 2.347 0 4.258 1.912 4.258 4.264 0 2.348-1.91 4.26-4.258 4.26M343.984 364.48c-.873 0-1.585.71-1.585 1.584 0 .874.71 1.586 1.584 1.586.875 0 1.585-.712 1.585-1.586 0-.875-.71-1.585-1.586-1.585m-4.258 1.584c0-2.35 1.91-4.263 4.258-4.263 2.35 0 4.26 1.913 4.26 4.264 0 2.35-1.91 4.26-4.26 4.26-2.347 0-4.258-1.91-4.258-4.26z"/><path d="M276.215 326.455h2.676v-3.346h-2.675v3.345zm0 6.692h2.676V329.8h-2.675v3.347zm0 6.69h2.676v-3.346h-2.675v3.348zm0 6.693h2.676v-3.347h-2.675v3.347zm0 6.69h2.676v-3.346h-2.675v3.347zm0 6.692h2.676v-3.346h-2.675v3.346zm0 6.692h2.676v-3.345h-2.675v3.344zm0 6.69h2.676v-3.346h-2.675v3.347zm0 6.693h2.676v-3.347h-2.675v3.347zm0 6.69h2.676v-3.346h-2.675v3.346zM410.286 356.566h3.345v-2.678h-3.344v2.678zm6.688 0h3.345v-2.678h-3.346v2.678zm6.69 0h3.342v-2.678h-3.342v2.678zm6.685 0h3.344v-2.678h-3.345v2.678zm6.686 0h3.345v-2.678h-3.344v2.678zm6.688 0h3.345v-2.678h-3.346v2.678zm6.687 0h3.346v-2.678h-3.345v2.678zm6.69 0h3.12v-2.678h-3.12v2.678zM529.323 359.466H532v-3.347h-2.677v3.346zm0 6.692H532v-3.347h-2.677v3.348zm0 6.69H532v-3.346h-2.677v3.347zm0 6.692H532v-3.347h-2.677v3.347zm0 6.69H532v-3.348h-2.677v3.347zm0 4.24H532v-.894h-2.677v.893zM613.652 331.808h2.676v-3.344h-2.676v3.344zm0 6.69h2.676v-3.345h-2.676v3.346zm0 6.693h2.676v-3.346h-2.676v3.347zm0 5.13h2.676v-1.785h-2.676v1.785z" fill="#FFF" mask="url(#b)"/><path d="M418.4 347.146c-3.413 0-6.19 2.778-6.19 6.195 0 3.417 2.777 6.198 6.19 6.198 3.415 0 6.195-2.78 6.195-6.197 0-3.416-2.78-6.194-6.194-6.194m0 15.067c-4.888 0-8.866-3.98-8.866-8.872 0-4.89 3.978-8.872 8.867-8.872 4.89 0 8.868 3.98 8.868 8.873 0 4.893-3.978 8.873-8.867 8.873" fill="#000" mask="url(#b)"/><path fill="#0C8FD7" mask="url(#b)" d="M-61.723 320.323h80.898v-2.677h-80.898M19.177 320.323h3.342v-2.677h-3.343v2.677zm6.685 0h3.345v-2.677h-3.345v2.677zm6.688 0h3.344v-2.677H32.55v2.677zm6.687 0h3.343v-2.677h-3.343v2.677zm6.685 0h3.345v-2.677h-3.345v2.677zm6.688 0h3.345v-2.677H52.61v2.677zm6.687 0h3.345v-2.677h-3.345v2.677zm6.688 0h3.345v-2.677h-3.345v2.677zM12.33 345.68h5.883v-2.677H12.33M33.65 345.68h8.34v-2.677h-8.34M23.747 297.634H48.25v-2.678H23.747M-40.003 297.634h3.344v-2.678h-3.343v2.678zm6.687 0h3.345v-2.678h-3.346v2.678zm6.688 0h3.344v-2.678h-3.344v2.678zm6.69 0h3.342v-2.678h-3.343v2.678zm6.687 0h3.34v-2.678h-3.34v2.678zm6.686 0h3.343v-2.678h-3.344v2.678zm6.688 0h3.342v-2.678H.124v2.678zm6.687 0h3.344v-2.678H6.81v2.678zM73.902 297.634h8.34v-2.678h-8.34M840.336 316.355h4.254v-2.678h-4.254M816.59 316.355h7.623v-2.678h-7.622M854.136 316.355h22.54v-2.678h-22.54M835.282 295.15h22.585v-2.677h-22.585M838.893 348.166h3.345v-2.678h-3.345v2.678zm6.687 0h3.345v-2.678h-3.345v2.678zm6.69 0h3.343v-2.678h-3.343v2.678zm6.685 0h3.345v-2.678h-3.345v2.678zm6.688 0h3.345v-2.678h-3.345v2.678zm6.687 0h3.345v-2.678h-3.345v2.678zm6.688 0h3.345v-2.678h-3.345v2.678zm6.687 0h3.345v-2.678h-3.345v2.678zm6.685 0h3.345v-2.678h-3.345v2.678zm6.688 0h3.345v-2.678h-3.345v2.678zm6.687 0h3.345v-2.678h-3.345v2.678zm6.688 0h3.345v-2.678h-3.345v2.678zm6.687 0h3.345v-2.678h-3.345v2.678zm6.69 0h3.343v-2.678h-3.343v2.678zm6.688 0h.736v-2.678h-.736v2.678z"/></g></svg>