<?xml version="1.0" encoding="UTF-8" standalone="no"?>
<svg
   xmlns:dc="http://purl.org/dc/elements/1.1/"
   xmlns:cc="http://creativecommons.org/ns#"
   xmlns:rdf="http://www.w3.org/1999/02/22-rdf-syntax-ns#"
   xmlns:svg="http://www.w3.org/2000/svg"
   xmlns="http://www.w3.org/2000/svg"
   xmlns:sodipodi="http://sodipodi.sourceforge.net/DTD/sodipodi-0.dtd"
   xmlns:inkscape="http://www.inkscape.org/namespaces/inkscape"
   width="730.47302"
   height="479.556"
   viewBox="0 0 730.47302 479.556"
   id="svg2"
   version="1.1"
   inkscape:version="0.91 r13725"
   sodipodi:docname="ilustration_matterexperts-new.svg">
  <metadata
     id="metadata148">
    <rdf:RDF>
      <cc:Work
         rdf:about="">
        <dc:format>image/svg+xml</dc:format>
        <dc:type
           rdf:resource="http://purl.org/dc/dcmitype/StillImage" />
        <dc:title>Page 1</dc:title>
      </cc:Work>
    </rdf:RDF>
  </metadata>
  <sodipodi:namedview
     pagecolor="#ffffff"
     bordercolor="#666666"
     borderopacity="1"
     objecttolerance="10"
     gridtolerance="10"
     guidetolerance="10"
     inkscape:pageopacity="0"
     inkscape:pageshadow="2"
     inkscape:window-width="2560"
     inkscape:window-height="1353"
     id="namedview146"
     showgrid="false"
     fit-margin-top="0"
     fit-margin-left="0"
     fit-margin-right="0"
     fit-margin-bottom="0"
     inkscape:zoom="0.80035486"
     inkscape:cx="239.12505"
     inkscape:cy="46.936127"
     inkscape:window-x="0"
     inkscape:window-y="348"
     inkscape:window-maximized="1"
     inkscape:current-layer="g9" />
  <title
     id="title4">Page 1</title>
  <defs
     id="defs6">
    <path
       id="a"
       d="m 0.72,612.316 878.813,0 L 879.533,0 0.72,0 Z"
       inkscape:connector-curvature="0" />
  </defs>
  <g
     transform="translate(-72.789523,-71.421546)"
     id="g9"
     style="fill:none;fill-rule:evenodd">
    <path
       d="m 384.72752,234.03855 c -1.252,-0.81 -2.436,-1.58 -3.182,-1.265 -0.613,0.26 -1.224,0.723 -1.872,1.212 -0.757,0.576 -1.54,1.168 -2.477,1.557 -1.646,0.684 -3.653,0.247 -5.653,-1.23 l -0.057,-0.04 c -1.192,-0.882 -2.417,-1.79 -3.3,-1.662 -0.716,0.108 -1.522,0.71 -2.376,1.35 -0.463,0.344 -0.942,0.702 -1.46,1.026 -1.774,1.106 -3.983,1.1 -5.764,-0.015 -0.51,-0.32 -0.98,-0.67 -1.432,-1.01 -0.86,-0.64 -1.674,-1.248 -2.395,-1.353 -0.928,-0.13 -2.163,0.665 -3.352,1.435 -1.695,1.103 -3.62,2.348 -5.668,1.49 -0.928,-0.392 -1.705,-0.98 -2.455,-1.548 -0.652,-0.494 -1.27,-0.962 -1.887,-1.22 -1.04,-0.43 -2.475,0.496 -3.04,0.913 l -0.056,0.04 c -1.556,1.15 -3.326,2.438 -5.285,2.155 -1.387,-0.208 -2.504,-1.043 -3.585,-1.852 -0.437,-0.326 -0.85,-0.636 -1.27,-0.897 l 1.414,-2.272 c 0.516,0.324 0.994,0.68 1.456,1.027 0.854,0.636 1.66,1.24 2.38,1.35 0.89,0.138 2.11,-0.783 3.298,-1.66 l 0.056,-0.045 c 2,-1.475 4.006,-1.912 5.654,-1.23 0.937,0.39 1.72,0.983 2.48,1.56 0.646,0.49 1.258,0.952 1.874,1.213 0.74,0.307 1.925,-0.456 3.177,-1.267 1.528,-0.99 3.252,-2.108 5.184,-1.84 1.4,0.203 2.526,1.045 3.617,1.858 0.43,0.322 0.837,0.626 1.255,0.888 0.918,0.576 2.01,0.58 2.927,0.01 0.42,-0.264 0.836,-0.572 1.272,-0.9 1.08,-0.806 2.197,-1.64 3.583,-1.85 1.956,-0.298 3.728,1.005 5.282,2.152 l 0.058,0.043 c 0.566,0.42 1.995,1.345 3.04,0.913 0.62,-0.257 1.235,-0.725 1.887,-1.22 0.75,-0.567 1.528,-1.155 2.453,-1.546 2.055,-0.864 3.978,0.388 5.673,1.487 1.187,0.773 2.422,1.564 3.353,1.435 0.722,-0.104 1.533,-0.71 2.394,-1.354 0.453,-0.34 0.923,-0.69 1.43,-1.008 1.783,-1.116 3.99,-1.12 5.765,-0.014 l -1.415,2.272 c -0.914,-0.57 -2.01,-0.566 -2.928,0.01 -0.415,0.26 -0.822,0.563 -1.254,0.885 -1.09,0.816 -2.218,1.66 -3.614,1.86 -0.202,0.03 -0.4,0.04 -0.598,0.04 -1.692,0 -3.222,-0.992 -4.59,-1.88 z m 94.097,221.18 c -1.144,-0.172 -2.077,-0.87 -2.897,-1.482 l 1.573,-2.166 0.03,0.022 c 0.622,0.467 1.212,0.91 1.692,0.98 0.546,0.08 1.52,-0.642 2.304,-1.223 1.666,-1.227 3.316,-1.575 4.685,-1.01 0.758,0.315 1.403,0.805 1.974,1.237 0.48,0.364 0.936,0.71 1.375,0.892 0.414,0.177 1.34,-0.42 2.15,-0.948 1.218,-0.79 2.595,-1.687 4.197,-1.46 1.153,0.166 2.09,0.87 2.918,1.486 0.326,0.242 0.633,0.473 0.942,0.667 0.604,0.38 1.324,0.38 1.923,0.01 0.314,-0.197 0.624,-0.43 0.954,-0.677 0.822,-0.612 1.752,-1.308 2.894,-1.48 1.635,-0.247 3.047,0.794 4.29,1.71 0.86,0.636 1.62,0.886 2.073,0.696 0.44,-0.182 0.897,-0.53 1.384,-0.897 0.564,-0.427 1.202,-0.912 1.95,-1.226 1.73,-0.724 3.345,0.325 4.645,1.17 l -1.45,2.247 c -0.816,-0.53 -1.737,-1.123 -2.16,-0.95 -0.433,0.185 -0.888,0.528 -1.37,0.895 -0.57,0.432 -1.216,0.92 -1.97,1.233 -1.37,0.57 -3.02,0.22 -4.648,-0.98 -0.828,-0.61 -1.806,-1.328 -2.348,-1.25 -0.476,0.07 -1.065,0.512 -1.69,0.978 -0.36,0.27 -0.733,0.547 -1.14,0.8 -1.468,0.915 -3.292,0.91 -4.757,-0.01 -0.403,-0.253 -0.77,-0.526 -1.123,-0.79 -0.628,-0.468 -1.22,-0.912 -1.697,-0.98 -0.597,-0.083 -1.497,0.495 -2.362,1.057 -1.3,0.842 -2.917,1.89 -4.644,1.168 -0.748,-0.314 -1.388,-0.8 -1.952,-1.228 -0.484,-0.367 -0.942,-0.715 -1.38,-0.898 -0.454,-0.184 -1.216,0.063 -2.034,0.665 -1.153,0.852 -2.41,1.78 -3.844,1.78 -0.16,0 -0.32,-0.012 -0.486,-0.036 z m -205.18,-226.34 c -10.938,0 -19.84,-8.905 -19.84,-19.85 0,-10.945 8.902,-19.85 19.84,-19.85 l 0,2.677 c -9.464,0 -17.165,7.704 -17.165,17.173 0,9.47 7.7,17.174 17.166,17.174 l 0,2.677 z"
       id="path11"
       mask="none"
       inkscape:connector-curvature="0"
       style="fill:#0c8fd7;fill-rule:evenodd" />
    <path
       d="m 275.19752,191.92455 c -0.515,-0.046 -1.038,-0.07 -1.553,-0.07 l 0,-2.675 c 0.594,0 1.196,0.027 1.79,0.08 l -0.237,2.666 z m 5.739,1.552 c -0.9,-0.422 -1.84,-0.77 -2.8,-1.03 l 0.698,-2.583 c 1.11,0.3 2.198,0.7 3.24,1.19 l -1.138,2.423 z m 4.863,3.426 c -0.702,-0.705 -1.47,-1.353 -2.282,-1.926 l 1.54,-2.186 c 0.936,0.66 1.826,1.408 2.637,2.222 l -1.895,1.89 z m 3.408,4.875 c -0.418,-0.898 -0.92,-1.77 -1.492,-2.585 l 2.193,-1.535 c 0.662,0.945 1.242,1.95 1.726,2.99 l -2.427,1.13 z m 1.537,5.745 c -0.087,-0.993 -0.26,-1.984 -0.516,-2.94 l 2.585,-0.692 c 0.294,1.11 0.495,2.25 0.596,3.4 l -2.666,0.232 z m 2.076,6.617 -2.585,-0.688 c 0.255,-0.96 0.428,-1.948 0.512,-2.942 l 2.666,0.228 c -0.098,1.15 -0.297,2.294 -0.592,3.402 z m -2.897,6.238 -2.195,-1.533 c 0.57,-0.815 1.072,-1.686 1.49,-2.586 l 2.426,1.13 c -0.483,1.04 -1.06,2.048 -1.72,2.99 z m -4.846,4.876 -1.542,-2.188 c 0.81,-0.57 1.577,-1.222 2.28,-1.927 l 1.897,1.887 c -0.812,0.818 -1.7,1.566 -2.636,2.23 z m -6.218,2.93 -0.7,-2.58 c 0.96,-0.262 1.9,-0.61 2.798,-1.034 l 1.14,2.42 c -1.04,0.492 -2.128,0.893 -3.238,1.195 z m -5.215,0.695 0,-2.676 c 0.52,0 1.044,-0.022 1.552,-0.07 l 0.24,2.668 c -0.588,0.053 -1.192,0.08 -1.79,0.08"
       id="path13"
       mask="none"
       inkscape:connector-curvature="0"
       style="fill:#0c8fd7;fill-rule:evenodd" />
    <path
       d="m 266.89152,347.36355 -2.676,0 0,-31.705 -20.231,0 0,-2.676 22.91,0"
       id="path15"
       mask="none"
       inkscape:connector-curvature="0"
       style="fill:#000000;fill-rule:evenodd" />
    <path
       mask="none"
       d="m 264.21452,383.93055 2.676,0 0,-23.186 -2.676,0 m 27.143,23.186 2.676,0 0,-69.61 -2.677,0 m 69.102,13.148 -2.676,0 0,-14.488 40.57,0 0,-13.73 2.677,0 0,16.408 -40.57,0 m 30.479,69.608 8.752,0 0,-2.677 -8.752,0 m 126.266,1.341 2.677,0 0,-91.48 -2.677,0 m 74.97,76.936 -2.576,-0.727 11.515,-40.836 2.57,0.724"
       id="path20"
       inkscape:connector-curvature="0"
       style="fill:#000000;fill-rule:evenodd" />
    <path
       mask="none"
       d="m 631.02152,385.26855 -16.82,0 0,-2.678 14.144,0 0,-88.802 -37.518,0 0,-2.675 40.195,0 m -79.591,89.762 -16.715,-61.605 2.582,-0.703 16.713,61.606 m -25.747,-190.975 c -0.875,0 -1.736,0.16 -2.56,0.478 -1.792,0.684 -3.206,2.025 -3.988,3.776 -0.782,1.752 -0.835,3.7 -0.15,5.49 1.056,2.76 3.75,4.616 6.7,4.616 0.876,0 1.737,-0.16 2.564,-0.475 3.693,-1.416 5.548,-5.574 4.136,-9.268 -1.055,-2.762 -3.748,-4.616 -6.702,-4.616 z m 0.003,17.037 c -4.053,0 -7.75,-2.545 -9.2,-6.336 -0.94,-2.456 -0.866,-5.136 0.205,-7.537 1.075,-2.404 3.017,-4.247 5.475,-5.187 1.13,-0.432 2.316,-0.653 3.517,-0.653 4.055,0 7.752,2.548 9.2,6.336 1.94,5.074 -0.608,10.784 -5.68,12.725 -1.132,0.432 -2.314,0.652 -3.517,0.652 z m 3.407,5.718 2.062,5.395 4.443,-1.7 -2.062,-5.394 0.9,-0.593 c 1.555,-1.024 2.91,-2.308 4.025,-3.817 l 0.638,-0.866 5.273,2.36 1.94,-4.35 -5.274,-2.355 0.218,-1.053 c 0.38,-1.835 0.43,-3.702 0.154,-5.547 l -0.16,-1.065 5.392,-2.064 -1.7,-4.445 -5.39,2.064 -0.593,-0.897 c -1.024,-1.56 -2.307,-2.915 -3.815,-4.03 l -0.863,-0.64 2.353,-5.275 -4.344,-1.94 -2.356,5.275 -1.053,-0.218 c -1.82,-0.376 -3.708,-0.43 -5.545,-0.155 l -1.062,0.158 -2.062,-5.39 -4.442,1.698 2.062,5.397 -0.9,0.59 c -1.556,1.024 -2.91,2.31 -4.025,3.817 l -0.638,0.864 -5.273,-2.356 -1.94,4.347 5.273,2.355 -0.218,1.056 c -0.38,1.834 -0.43,3.7 -0.155,5.545 l 0.16,1.066 -5.39,2.064 1.698,4.446 5.393,-2.064 0.59,0.9 c 1.024,1.56 2.31,2.913 3.815,4.028 l 0.864,0.64 -2.352,5.274 4.342,1.94 2.355,-5.272 1.052,0.216 c 1.822,0.377 3.71,0.427 5.543,0.153 l 1.065,-0.16 z m 0.52,8.85 -2.26,-5.914 c -1.45,0.133 -2.905,0.092 -4.343,-0.12 l -2.58,5.786 -9.23,-4.124 2.583,-5.785 c -1.12,-0.93 -2.12,-1.986 -2.988,-3.155 l -5.91,2.263 -3.61,-9.444 5.91,-2.26 c -0.133,-1.45 -0.092,-2.904 0.12,-4.346 l -5.78,-2.582 4.12,-9.234 5.78,2.584 c 0.934,-1.12 1.99,-2.12 3.154,-2.99 l -2.26,-5.914 9.44,-3.613 2.258,5.914 c 1.448,-0.13 2.906,-0.09 4.342,0.12 l 2.58,-5.783 9.23,4.124 -2.58,5.783 c 1.117,0.934 2.117,1.99 2.985,3.155 l 5.91,-2.265 3.612,9.448 -5.91,2.264 c 0.132,1.447 0.09,2.9 -0.12,4.343 l 5.78,2.58 -4.12,9.236 -5.782,-2.582 c -0.93,1.12 -1.988,2.12 -3.15,2.988 l 2.26,5.914 -9.44,3.613 z"
       id="path22"
       inkscape:connector-curvature="0"
       style="fill:#000000;fill-rule:evenodd" />
    <path
       d="m 485.48452,239.14355 13.755,6.147 c 1.032,-0.624 2.168,-1.06 3.35,-1.282 l 6.146,-13.766 c -1.212,-0.223 -2.438,-0.353 -3.658,-0.39 -7.702,-0.224 -14.93,3.262 -19.593,9.29 z m 14.038,9.206 -18.08,-8.082 0.886,-1.32 c 5.1,-7.586 13.66,-12.017 22.822,-11.768 1.945,0.055 3.897,0.33 5.805,0.813 l 1.543,0.39 -8.08,18.094 -0.766,0.08 c -1.26,0.133 -2.474,0.6 -3.503,1.343 l -0.626,0.45 z m 4.88,3.36 c -0.252,0 -0.5,0.045 -0.736,0.136 -1.065,0.408 -1.6,1.605 -1.192,2.668 0.393,1.032 1.626,1.593 2.666,1.193 1.065,-0.406 1.6,-1.603 1.192,-2.668 -0.304,-0.798 -1.08,-1.33 -1.93,-1.33 z m 0.002,6.81 c -1.95,0 -3.73,-1.225 -4.428,-3.05 -0.936,-2.44 0.292,-5.188 2.733,-6.124 0.544,-0.208 1.113,-0.314 1.693,-0.314 1.952,0 3.73,1.226 4.43,3.05 0.93,2.444 -0.294,5.19 -2.735,6.125 -0.544,0.208 -1.115,0.314 -1.693,0.314 z m 9.76,-6.556 13.758,6.15 c 0.223,-1.217 0.353,-2.443 0.39,-3.662 0.214,-7.714 -3.23,-14.928 -9.286,-19.606 l -6.143,13.764 c 0.622,1.03 1.06,2.17 1.28,3.354 z m 15.62,9.91 -18.088,-8.082 -0.08,-0.768 c -0.133,-1.262 -0.596,-2.476 -1.34,-3.505 l -0.45,-0.625 8.076,-18.095 1.32,0.888 c 7.623,5.132 12.02,13.668 11.762,22.838 -0.055,1.944 -0.328,3.897 -0.81,5.81 l -0.39,1.54 z m -48.9,-12.432 c -0.225,1.214 -0.355,2.44 -0.388,3.66 -0.218,7.713 3.227,14.93 9.282,19.605 l 6.145,-13.764 c -0.627,-1.03 -1.06,-2.166 -1.28,-3.352 l -13.76,-6.148 z m 10.018,27.31 -1.32,-0.887 c -7.62,-5.13 -12.02,-13.666 -11.76,-22.836 0.053,-1.947 0.326,-3.9 0.81,-5.81 l 0.392,-1.542 18.084,8.083 0.08,0.77 c 0.133,1.263 0.596,2.475 1.34,3.504 l 0.453,0.624 -8.08,18.094 z m 9.167,0.557 c 1.216,0.225 2.44,0.354 3.662,0.388 7.697,0.22 14.93,-3.258 19.592,-9.288 l -13.757,-6.15 c -1.03,0.627 -2.168,1.062 -3.352,1.282 l -6.145,13.767 z m 4.347,3.075 c -0.254,0 -0.506,-0.005 -0.762,-0.012 -1.942,-0.055 -3.894,-0.326 -5.805,-0.81 l -1.54,-0.392 8.08,-18.094 0.766,-0.082 c 1.262,-0.13 2.473,-0.595 3.504,-1.338 l 0.624,-0.454 18.084,8.083 -0.887,1.32 c -4.96,7.377 -13.208,11.78 -22.063,11.78 z m -5.412,12.3 8.6,0.243 0.18,-6.353 1.123,-0.154 c 4.93,-0.673 9.726,-2.506 13.87,-5.3 l 0.94,-0.632 4.366,4.62 6.25,-5.913 -4.367,-4.62 0.686,-0.903 c 3.02,-3.983 5.12,-8.67 6.07,-13.56 l 0.216,-1.114 6.347,0.18 0.242,-8.603 -6.347,-0.18 -0.153,-1.125 c -0.674,-4.933 -2.506,-9.732 -5.3,-13.877 l -0.632,-0.94 4.618,-4.37 -5.907,-6.252 -4.618,4.367 -0.904,-0.686 c -3.977,-3.022 -8.663,-5.12 -13.55,-6.074 l -1.112,-0.216 0.177,-6.35 -8.598,-0.243 -0.178,6.35 -1.125,0.155 c -4.93,0.674 -9.728,2.507 -13.87,5.302 l -0.94,0.633 -4.365,-4.62 -6.252,5.91 4.364,4.622 -0.685,0.903 c -3.02,3.98 -5.12,8.67 -6.07,13.558 l -0.217,1.115 -6.345,-0.178 -0.242,8.604 6.347,0.178 0.153,1.125 c 0.674,4.933 2.506,9.732 5.297,13.88 l 0.633,0.94 -4.618,4.367 5.91,6.255 4.62,-4.367 0.9,0.686 c 3.98,3.02 8.666,5.12 13.55,6.073 l 1.115,0.216 -0.18,6.353 z m 11.198,2.992 -13.945,-0.39 0.19,-6.778 c -4.514,-1.035 -8.84,-2.974 -12.628,-5.66 l -4.925,4.658 -9.584,-10.144 4.925,-4.66 c -2.466,-3.936 -4.157,-8.367 -4.936,-12.933 l -6.77,-0.19 0.392,-13.955 6.77,0.192 c 1.035,-4.518 2.972,-8.843 5.658,-12.634 l -4.657,-4.93 10.138,-9.59 4.66,4.93 c 3.93,-2.47 8.36,-4.162 12.923,-4.94 l 0.19,-6.778 13.948,0.394 -0.192,6.777 c 4.515,1.034 8.838,2.97 12.627,5.66 l 4.928,-4.662 9.584,10.146 -4.927,4.66 c 2.47,3.937 4.16,8.366 4.937,12.934 l 6.774,0.19 -0.394,13.954 -6.773,-0.19 c -1.035,4.516 -2.97,8.844 -5.658,12.634 l 4.66,4.93 -10.14,9.588 -4.658,-4.928 c -3.935,2.47 -8.36,4.16 -12.924,4.94 l -0.192,6.775 z m 92.862,-32.281 c 1.88,0 3.605,0.943 4.62,2.52 0.203,0.316 0.546,0.505 0.92,0.505 0.178,0 0.44,-0.042 0.688,-0.246 1.648,-1.34 4.09,-1.595 5.978,-0.62 0.576,0.294 1.297,0.008 1.52,-0.584 0.78,-2.04 2.69,-3.426 4.87,-3.53 0.314,-0.014 0.597,-0.158 0.796,-0.403 0.2,-0.242 0.28,-0.55 0.23,-0.86 -0.347,-2.158 0.617,-4.312 2.45,-5.493 0.267,-0.17 0.44,-0.436 0.49,-0.746 0.048,-0.312 -0.033,-0.62 -0.232,-0.864 -1.377,-1.693 -1.62,-4.04 -0.62,-5.98 0.142,-0.284 0.162,-0.598 0.05,-0.893 -0.114,-0.294 -0.34,-0.518 -0.634,-0.63 -2.038,-0.778 -3.424,-2.69 -3.527,-4.87 -0.032,-0.64 -0.606,-1.133 -1.265,-1.025 -0.288,0.045 -0.578,0.067 -0.868,0.067 -1.88,0 -3.606,-0.943 -4.623,-2.522 -0.2,-0.314 -0.544,-0.5 -0.918,-0.5 -0.178,0 -0.44,0.04 -0.688,0.244 -1.648,1.34 -4.09,1.595 -5.98,0.62 -0.576,-0.294 -1.298,-0.006 -1.52,0.584 -0.778,2.04 -2.69,3.426 -4.868,3.53 -0.314,0.014 -0.597,0.158 -0.796,0.402 -0.2,0.245 -0.28,0.55 -0.23,0.862 0.347,2.157 -0.617,4.314 -2.45,5.494 -0.267,0.17 -0.44,0.434 -0.49,0.746 -0.05,0.31 0.033,0.617 0.232,0.86 1.377,1.695 1.62,4.044 0.62,5.985 -0.143,0.28 -0.162,0.597 -0.05,0.89 0.114,0.295 0.34,0.518 0.634,0.63 2.038,0.78 3.424,2.69 3.527,4.872 0.03,0.642 0.614,1.13 1.264,1.025 0.286,-0.045 0.58,-0.07 0.87,-0.07 m 5.54,5.7 c -1.288,0 -2.472,-0.644 -3.17,-1.728 -0.592,-0.924 -1.726,-1.433 -2.815,-1.26 -0.2,0.034 -0.403,0.048 -0.604,0.048 -2.008,0 -3.658,-1.576 -3.756,-3.59 -0.053,-1.117 -0.763,-2.1 -1.808,-2.497 -1,-0.38 -1.794,-1.173 -2.178,-2.174 -0.38,-1 -0.32,-2.12 0.17,-3.073 0.514,-0.995 0.39,-2.2 -0.316,-3.068 -0.676,-0.83 -0.97,-1.914 -0.8,-2.972 0.17,-1.058 0.783,-1.996 1.685,-2.577 0.94,-0.604 1.434,-1.71 1.256,-2.817 -0.17,-1.058 0.118,-2.14 0.794,-2.972 0.674,-0.833 1.674,-1.34 2.746,-1.39 1.117,-0.052 2.098,-0.762 2.496,-1.808 0.553,-1.454 1.967,-2.428 3.52,-2.428 0.593,0 1.19,0.144 1.723,0.417 0.97,0.502 2.225,0.367 3.066,-0.317 0.668,-0.547 1.513,-0.846 2.376,-0.846 1.287,0 2.472,0.647 3.17,1.732 0.592,0.92 1.726,1.43 2.815,1.257 0.2,-0.03 0.4,-0.047 0.603,-0.047 2.01,0 3.66,1.576 3.757,3.59 0.053,1.117 0.765,2.098 1.81,2.497 1,0.38 1.794,1.175 2.175,2.176 0.384,0.998 0.32,2.118 -0.168,3.07 -0.513,0.996 -0.388,2.2 0.317,3.07 0.676,0.832 0.968,1.916 0.8,2.974 -0.17,1.056 -0.784,1.997 -1.685,2.575 -0.94,0.604 -1.435,1.71 -1.258,2.816 0.17,1.06 -0.117,2.144 -0.793,2.974 -0.675,0.833 -1.677,1.34 -2.747,1.392 -1.117,0.052 -2.098,0.763 -2.496,1.81 -0.55,1.45 -1.968,2.427 -3.52,2.427 -0.597,0 -1.192,-0.147 -1.724,-0.42 -0.97,-0.5 -2.223,-0.37 -3.067,0.32 -0.67,0.543 -1.513,0.843 -2.376,0.843"
       mask="none"
       id="path24"
       inkscape:connector-curvature="0"
       style="fill:#000000;fill-rule:evenodd" />
    <path
       d="m 610.79652,247.67155 c -0.475,0 -0.94,0.086 -1.39,0.26 -0.97,0.37 -1.74,1.098 -2.164,2.048 -0.422,0.95 -0.45,2.01 -0.08,2.98 0.574,1.498 2.034,2.506 3.636,2.506 0.475,0 0.942,-0.087 1.388,-0.26 2.005,-0.767 3.012,-3.022 2.247,-5.028 -0.574,-1.497 -2.037,-2.505 -3.638,-2.505 m 0.002,10.468 c -2.702,0 -5.167,-1.695 -6.133,-4.222 -0.628,-1.64 -0.577,-3.426 0.137,-5.028 0.715,-1.603 2.012,-2.832 3.65,-3.458 0.755,-0.29 1.544,-0.436 2.345,-0.436 2.702,0 5.17,1.698 6.136,4.225 1.292,3.383 -0.408,7.19 -3.79,8.487 -0.752,0.29 -1.543,0.434 -2.344,0.434 m -70.178,-61.621 -8.57,-6.13 1.556,-2.176 8.57,6.128"
       mask="none"
       id="path26"
       inkscape:connector-curvature="0"
       style="fill:#000000;fill-rule:evenodd" />
    <path
       mask="none"
       d="m 611.75152,247.38255 -57.797,-41.327 1.556,-2.178 57.797,41.325 m -13.173,-21.022 -34.804,-24.887 1.556,-2.176 34.805,24.883 m -50.533,36.238 -0.002,-2.676 44.6,-0.053 0.002,2.68 m 6.762,-0.011 -0.005,-2.677 9.053,-0.01 0.005,2.676 m -38.089,10.466 -0.045,-2.678 3.345,-0.058 0.046,2.677 m -15.336,0.266 -0.045,-2.678 3.345,-0.058 0.045,2.678 m -18.001,-48.562 c -0.535,0 -1.062,0.1 -1.568,0.293 -2.264,0.864 -3.4,3.412 -2.534,5.677 0.647,1.69 2.297,2.826 4.105,2.826 0.534,0 1.062,-0.1 1.568,-0.29 1.098,-0.42 1.964,-1.243 2.443,-2.316 0.477,-1.072 0.51,-2.265 0.09,-3.363 -0.646,-1.69 -2.296,-2.828 -4.104,-2.828 m 0.003,11.473 c -2.91,0 -5.563,-1.828 -6.604,-4.546 -1.39,-3.646 0.436,-7.743 4.076,-9.137 0.812,-0.31 1.66,-0.466 2.524,-0.466 2.91,0 5.563,1.826 6.604,4.547 0.674,1.766 0.623,3.685 -0.147,5.412 -0.77,1.725 -2.166,3.045 -3.93,3.72 -0.81,0.31 -1.66,0.47 -2.523,0.47 m 100.565,144.646 27.333,0 3.496,-29.348 -10.01,-5.86 -20.818,24.53 0,10.677 z m 78.58,0 55.68,0 0,-83.944 -11.3,12.485 c 1.834,5.05 3.206,9.802 2.776,13.137 -0.597,4.652 -8.236,4.755 -12.344,4.81 -0.124,0 -0.254,0.003 -0.38,0.005 0.416,21.075 0.522,31.732 -4.88,35.83 -4.645,3.524 -12.433,1.854 -27.61,-2.695 l -1.943,20.372 z m 58.357,2.677 -61.3,0 2.53,-26.555 1.564,0.473 c 13.617,4.114 22.834,6.59 26.784,3.594 4.424,-3.355 4.2,-14.555 3.795,-34.888 l -0.012,-0.557 0.4,-0.42 c 0.47,-0.487 0.932,-0.49 2.66,-0.515 6.254,-0.084 9.527,-0.915 9.726,-2.474 0.504,-3.932 -2.34,-11.24 -4.848,-17.687 -1.506,-3.868 -2.928,-7.522 -3.7,-10.514 -0.443,-1.72 -0.307,-4.237 -0.148,-7.15 0.18,-3.26 0.38,-6.955 -0.29,-9.688 -6.352,-25.895 -23.456,-38.48 -52.292,-38.48 -15,0 -27.594,5.047 -35.46,14.22 -8.585,10.014 -11.643,24.956 -8.837,43.216 2.202,14.345 10.738,24.088 18.27,32.685 l 0.393,0.447 -6.462,54.29 -32.384,0 0,-14.334 22.91,-26.995 10.938,6.41 2.203,-18.502 c -7.675,-8.762 -16.228,-18.73 -18.51,-33.593 -2.926,-19.055 0.342,-34.74 9.454,-45.365 8.38,-9.774 21.694,-15.155 37.488,-15.155 15.65,0 28.256,3.71 37.463,11.03 8.403,6.678 14.266,16.6 17.426,29.49 0.768,3.12 0.554,7.025 0.365,10.472 -0.138,2.58 -0.273,5.015 0.068,6.334 0.73,2.84 2.127,6.42 3.6,10.21 0.395,1.014 0.793,2.03 1.18,3.044 l 15.03,-16.605 0,93.562 z"
       id="path28"
       inkscape:connector-curvature="0"
       style="fill:#000000;fill-rule:evenodd" />
    <path
       mask="none"
       d="m 652.19952,377.67555 2.676,0 0,-21.307 -2.675,0 m 11.089,21.307 2.676,0 0,-34.377 -2.675,0 m 66.544,34.377 2.675,0 0,-22.145 -2.676,0 m 11.091,22.145 2.677,0 0,-19.263 -2.676,0 m 11.089,19.263 2.677,0 0,-19.273 -2.676,0 m 11.089,19.273 2.677,0 0,-56.324 -2.677,0 m 11.096,56.324 2.673,0 0,-80.5 -2.674,0 m -114.635,19.051 -5.882,-3.443 1.352,-2.31 3.75,2.195 7.05,-10.098 2.19,1.533 m 3.794,-5.431 -2.192,-1.534 32.33,-46.314 2.194,1.533 m 43.424,21.038 -36.172,-22.627 1.418,-2.272 34.276,21.442 10.233,-11.305 1.983,1.797 m 4.297,-4.748 -1.983,-1.797 6.675,-7.375 1.983,1.797"
       id="path30"
       inkscape:connector-curvature="0"
       style="fill:#000000;fill-rule:evenodd" />
    <path
       d="m 706.67452,241.42655 c -2.746,0 -4.98,2.236 -4.98,4.983 0,2.75 2.234,4.985 4.98,4.985 2.747,0 4.98,-2.234 4.98,-4.984 0,-2.746 -2.233,-4.982 -4.98,-4.982 m 0,12.644 c -4.22,0 -7.657,-3.436 -7.657,-7.66 0,-4.226 3.436,-7.66 7.656,-7.66 4.222,0 7.655,3.434 7.655,7.66 0,4.224 -3.433,7.66 -7.656,7.66 m 66.706,-16.468 c -2.745,0 -4.98,2.236 -4.98,4.983 0,2.746 2.235,4.982 4.98,4.982 2.746,0 4.98,-2.236 4.98,-4.983 0,-2.748 -2.234,-4.984 -4.98,-4.984 m 0,12.644 c -4.22,0 -7.656,-3.436 -7.656,-7.66 0,-4.226 3.436,-7.66 7.656,-7.66 4.223,0 7.656,3.434 7.656,7.66 0,4.224 -3.433,7.66 -7.656,7.66 m -124.3,52.926 c -2.746,0 -4.98,2.236 -4.98,4.983 0,2.747 2.234,4.983 4.98,4.983 2.748,0 4.98,-2.236 4.98,-4.983 0,-2.747 -2.232,-4.983 -4.98,-4.983 m 0,12.644 c -4.223,0 -7.656,-3.438 -7.656,-7.66 0,-4.226 3.433,-7.662 7.656,-7.662 4.22,0 7.656,3.436 7.656,7.66 0,4.224 -3.436,7.662 -7.656,7.662 m 25.303,61.859 2.676,0 0,-33.71 -2.676,0 m 14.938,27.947 2.676,0 0,-2.747 -2.675,0 m -10e-4,-7.097 2.676,0 0,-2.747 -2.675,0 m -336.188,-59.943 -2.084,-21.838 c -15.173,4.55 -22.96,6.22 -27.61,2.695 -5.403,-4.098 -5.295,-14.753 -4.88,-35.83 -0.127,-0.003 -0.257,-0.005 -0.384,-0.005 -4.105,-0.055 -11.744,-0.158 -12.34,-4.81 -0.59,-4.61 2.255,-11.924 5.008,-19.002 1.477,-3.79 2.87,-7.37 3.6,-10.21 0.342,-1.318 0.21,-3.754 0.068,-6.333 -0.187,-3.447 -0.4,-7.353 0.365,-10.472 3.16,-12.89 9.024,-22.812 17.426,-29.49 9.207,-7.32 21.815,-11.03 37.466,-11.03 21.436,0 37.552,9.656 44.32,26.52 14.368,5.7 23.98,19.815 23.98,35.322 0,13.392 -7.11,25.837 -18.608,32.667 l 0,14.55 c 0,5 -4.064,9.063 -9.06,9.063 l -20.57,0 c -4.995,0 -9.056,-4.064 -9.056,-9.062 l 0,-14.55 c -11.5,-6.83 -18.612,-19.276 -18.612,-32.668 0,-19.803 15.444,-36.44 35.16,-37.877 l 0.195,2.67 c -18.325,1.335 -32.678,16.797 -32.678,35.207 0,12.69 6.87,24.467 17.93,30.73 l 0.68,0.385 0,16.103 c 0,3.522 2.862,6.387 6.382,6.387 l 20.57,0 c 3.52,0 6.384,-2.865 6.384,-6.387 l 0,-16.103 0.678,-0.384 c 11.062,-6.264 17.93,-18.04 17.93,-30.73 0,-14.6 -9.163,-27.873 -22.807,-33.034 l -0.56,-0.21 -0.215,-0.56 c -6.215,-16.118 -21.54,-25.364 -42.043,-25.364 -28.837,0 -45.942,12.588 -52.294,38.483 -0.67,2.733 -0.468,6.427 -0.29,9.688 0.158,2.914 0.297,5.43 -0.147,7.148 -0.773,2.994 -2.195,6.648 -3.7,10.514 -2.51,6.45 -5.353,13.757 -4.847,17.69 0.2,1.556 3.472,2.39 9.723,2.473 1.73,0.024 2.194,0.028 2.664,0.515 l 0.386,0.4 -0.002,0.58 c -0.403,20.33 -0.626,31.53 3.796,34.884 3.95,2.996 13.17,0.52 26.783,-3.594 l 1.564,-0.475 2.395,25.09 -2.664,0.255 z m 50.008,1.21 -6.052,0 c -2.758,0 -4.817,-2.88 -4.817,-5.457 0,-0.272 0.024,-1.898 0.067,-3.38 l 2.673,0.078 c -0.043,1.508 -0.067,3.103 -0.067,3.303 0,1.214 1.04,2.78 2.144,2.78 l 6.052,0 c 1.103,0 2.144,-1.566 2.144,-2.78 0,-0.192 -0.024,-1.773 -0.07,-3.302 l 2.676,-0.078 c 0.043,1.48 0.067,3.126 0.067,3.38 0,2.577 -2.06,5.46 -4.817,5.46"
       mask="none"
       id="path32"
       inkscape:connector-curvature="0"
       style="fill:#000000;fill-rule:evenodd" />
    <path
       d="m 386.76652,285.37455 0,0.116 c 0,2.735 2.225,4.96 4.958,4.96 l 16.78,0 c 2.734,0 4.96,-2.225 4.96,-4.96 l 0,-0.116 -26.7,0 z m 21.738,7.755 -16.78,0 c -4.208,0 -7.634,-3.428 -7.634,-7.638 l 0,-19.597 2.102,1.463 c 1.075,0.75 2.33,1.145 3.636,1.145 l 20.57,0 c 1.307,0 2.564,-0.396 3.638,-1.145 l 2.1,-1.463 0,2.562 -1.335,0.003 0.762,1.096 c -1.526,1.06 -3.312,1.622 -5.166,1.622 l -20.57,0 c -1.055,0 -2.087,-0.18 -3.062,-0.533 l 0,12.054 29.37,0 0,2.792 c 0,4.21 -3.424,7.64 -7.632,7.64 z"
       mask="none"
       id="path34"
       inkscape:connector-curvature="0"
       style="fill:#000000;fill-rule:evenodd" />
    <path
       mask="none"
       d="m 392.51152,278.21655 22.288,0 0,-2.678 -22.288,0 m 34.399,-71.673 c -2.098,-5.034 -5.58,-9.35 -10.068,-12.483 l 1.53,-2.196 c 4.906,3.424 8.713,8.146 11.006,13.65 l -2.468,1.03 z m 4.869,11.017 -2.675,0 c 0,-2.776 -0.396,-5.518 -1.175,-8.153 l 2.565,-0.76 c 0.854,2.882 1.285,5.88 1.285,8.914 m -60.587,11.03 c -1.326,-3.525 -1.998,-7.236 -1.998,-11.032 l 2.676,0 c 0,3.474 0.614,6.867 1.825,10.09 l -2.502,0.942 z m 75.56,-9.835 13.682,0 0,-2.677 -13.682,0 m -106.958,2.677 13.683,0 0,-2.677 -13.683,0 m 93.85,-30.318 -1.893,-1.893 3.698,-3.697 1.892,1.893 m -72.562,72.602 -1.892,-1.892 3.697,-3.698 1.892,1.89 m -1.892,-65.205 -3.698,-3.697 1.892,-1.893 3.698,3.697 m 66.973,70.798 -3.697,-3.7 1.892,-1.89 3.697,3.698 m -66.235,30.932 2.676,0 0,-2.447 -2.676,0 m 0,11.422 2.676,0 0,-2.45 -2.676,0 m 0,-15.501 2.676,0 0,-2.447 -2.676,0 m -202.372,24.81 2.677,0 0,-22.257 -2.676,0 m 23.262,22.257 2.673,0 0,-22.257 -2.673,0 m -10.293,-4.506 -13.294,-13.3 1.89,-1.894 11.404,11.41 11.404,-11.41 1.89,1.893"
       id="path36"
       inkscape:connector-curvature="0"
       style="fill:#000000;fill-rule:evenodd" />
    <path
       mask="none"
       d="m 180.36452,294.41555 2.677,0 0,-28.657 -2.676,0 m 1.339,-40.705 c -6.29,0 -11.407,5.12 -11.407,11.413 0,6.29 5.117,11.41 11.407,11.41 6.29,0 11.406,-5.12 11.406,-11.41 0,-6.293 -5.117,-11.413 -11.406,-11.413 m 0,25.5 c -7.765,0 -14.08,-6.318 -14.08,-14.087 0,-7.768 6.315,-14.09 14.08,-14.09 7.764,0 14.08,6.322 14.08,14.09 0,7.77 -6.316,14.088 -14.08,14.088"
       id="path38"
       inkscape:connector-curvature="0"
       style="fill:#000000;fill-rule:evenodd" />
    <path
       mask="none"
       d="m 171.30452,243.22655 -1.89,-1.893 15.173,-15.182 10.733,10.74 -1.892,1.892 -8.84,-8.846 m 21.836,65.817 -49.44,0 0,-37.88 5.804,-5.807 12.147,0 0,-4.063 2.677,0 0,6.737 -13.718,0 -4.238,4.242 0,34.092 44.094,0 0,-34.092 -4.237,-4.242 -13.717,0 0,-6.737 2.674,0 0,4.064 12.147,0 5.807,5.807"
       id="path40"
       inkscape:connector-curvature="0"
       style="fill:#000000;fill-rule:evenodd" />
    <path
       mask="none"
       d="m 174.48152,289.38855 2.676,0 0,-2.456 -2.676,0 m 0,-6.344 2.676,0 0,-2.456 -2.676,0 m 25.663,88.856 2.676,0 0,-17.266 -2.676,0 m 26.587,17.266 2.674,0 0,-17.266 -2.673,0 m -11.956,-6.506 -13.035,-7.77 1.37,-2.3 11.665,6.954 11.665,-6.953 1.37,2.297"
       id="path42"
       inkscape:connector-curvature="0"
       style="fill:#000000;fill-rule:evenodd" />
    <path
       mask="none"
       d="m 213.43852,366.98855 2.676,0 0,-25.33 -2.676,0 m 1.338,-35.713 c -6.29,0 -11.407,5.12 -11.407,11.41 0,6.294 5.117,11.414 11.407,11.414 6.29,0 11.406,-5.12 11.406,-11.412 0,-6.29 -5.117,-11.41 -11.406,-11.41 m 0,25.5 c -7.765,0 -14.08,-6.32 -14.08,-14.09 0,-7.767 6.315,-14.09 14.08,-14.09 7.764,0 14.08,6.323 14.08,14.09 0,7.77 -6.316,14.09 -14.08,14.09"
       id="path44"
       inkscape:connector-curvature="0"
       style="fill:#000000;fill-rule:evenodd" />
    <path
       mask="none"
       d="m 202.95452,321.14855 -1.304,-2.336 16.797,-9.376 9.476,4.578 -1.164,2.41 -8.225,-3.972 m 20.964,55.876 -49.444,0 0,-29.562 5.806,-5.808 12.147,0 0,-4.062 2.676,0 0,6.737 -13.716,0 -4.24,4.242 0,25.775 44.094,0 0,-25.775 -4.237,-4.242 -13.715,0 0,-6.737 2.674,0 0,4.062 12.146,0 5.808,5.808 m -103.83,28.222 2.674,0 0,-17.266 -2.674,0 m 23.257,17.266 2.676,0 0,-17.266 -2.676,0 m -10.292,-7.838 -12.94,-6.39 1.183,-2.398 11.758,5.803 11.756,-5.802 1.185,2.4"
       id="path46"
       inkscape:connector-curvature="0"
       style="fill:#000000;fill-rule:evenodd" />
    <path
       mask="none"
       d="m 147.29452,366.98855 2.676,0 0,-26.597 -2.676,0 m 1.338,-34.446 c -6.29,0 -11.407,5.12 -11.407,11.41 0,6.294 5.118,11.414 11.408,11.414 6.29,0 11.406,-5.12 11.406,-11.412 0,-6.29 -5.117,-11.41 -11.406,-11.41 m 0,25.5 c -7.764,0 -14.08,-6.32 -14.08,-14.09 0,-7.767 6.316,-14.09 14.08,-14.09 7.764,0 14.08,6.323 14.08,14.09 0,7.77 -6.316,14.09 -14.08,14.09"
       id="path48"
       inkscape:connector-curvature="0"
       style="fill:#000000;fill-rule:evenodd" />
    <path
       mask="none"
       d="m 136.44652,320.23855 -0.91,-2.517 20.632,-7.476 6.174,7.644 -2.08,1.683 -4.974,-6.16 m 18.066,54.916 -49.443,0 0,-29.562 5.805,-5.808 12.147,0 0,-4.062 2.675,0 0,6.737 -13.714,0 -4.24,4.242 0,25.775 44.093,0 0,-25.775 -4.236,-4.242 -13.717,0 0,-6.737 2.675,0 0,4.062 12.147,0 5.807,5.808 m -43.489,-35.638 -2.676,0 c 0,-17.418 8.426,-33.93 22.537,-44.17 l 1.57,2.165 c -13.42,9.74 -21.43,25.44 -21.43,42.006 m 51.823,54.531 c -1.523,0 -3.057,-0.062 -4.563,-0.19 l 0.222,-2.665 c 2.584,0.214 5.25,0.235 7.836,0.062 l 0.177,2.67 c -1.21,0.08 -2.446,0.122 -3.67,0.122 m 51.317,-61.805 c -1.577,-11.237 -6.932,-21.82 -15.082,-29.798 l 1.87,-1.912 c 8.57,8.388 14.204,19.518 15.863,31.34 l -2.65,0.37 z m -62.198,31.487 -1.338,-2.317 11.565,-6.682 1.335,2.32"
       id="path50"
       inkscape:connector-curvature="0"
       style="fill:#000000;fill-rule:evenodd" />
    <path
       mask="none"
       d="m 192.59852,327.34155 -12.23,-7.065 0,-14.134 2.672,0 0,12.59 10.896,6.292 m -13.522,20.336 2.677,0 0,-3.126 -2.676,0 m -10e-4,-8.076 2.677,0 0,-3.126 -2.676,0 m 267.075,76.143 c -27.103,0 -49.153,22.063 -49.153,49.18 0,27.12 22.05,49.182 49.153,49.182 27.102,0 49.152,-22.064 49.152,-49.182 0,-27.118 -22.05,-49.18 -49.152,-49.18 m 0,101.036 c -28.577,0 -51.827,-23.262 -51.827,-51.856 0,-28.594 23.25,-51.86 51.826,-51.86 28.577,0 51.828,23.266 51.828,51.86 0,28.594 -23.25,51.856 -51.828,51.856"
       id="path52"
       inkscape:connector-curvature="0"
       style="fill:#000000;fill-rule:evenodd" />
    <path
       d="m 483.45652,490.80855 -1.534,-5.575 c -1.027,-3.728 -4.444,-6.336 -8.31,-6.343 l -52.324,-0.072 -0.012,0 c -3.858,0 -7.26,2.598 -8.28,6.32 l -1.532,5.604 -2.577,-0.706 1.53,-5.602 c 1.335,-4.885 5.8,-8.294 10.86,-8.294 l 0.016,0 52.324,0.074 c 5.062,0.008 9.538,3.424 10.884,8.31 l 1.532,5.575 -2.578,0.71 z m -36.797,-19.023 c -8.145,0 -15.766,-7.75 -18.962,-19.285 l 2.578,-0.715 c 2.825,10.2 9.563,17.322 16.385,17.322 9.256,0 17.686,-12.755 17.686,-26.762 0,-12.552 -7.27,-21.32 -17.685,-21.32 -10.414,0 -17.686,8.768 -17.686,21.32 0,0.622 0.018,1.26 0.052,1.893 l -2.67,0.15 c -0.038,-0.684 -0.057,-1.37 -0.057,-2.042 0,-14.128 8.37,-23.996 20.36,-23.996 11.99,0 20.362,9.868 20.362,23.996 0,13.925 -8.363,29.44 -20.362,29.44"
       mask="none"
       id="path54"
       inkscape:connector-curvature="0"
       style="fill:#000000;fill-rule:evenodd" />
    <path
       d="m 464.87652,445.03655 c -5.33,-3.76 -8.323,-9.494 -10.627,-15.348 -7.712,6.672 -16.363,10.326 -26.383,11.16 l -0.22,-2.67 c 10.04,-0.83 18.625,-4.68 26.248,-11.765 l 1.465,-1.362 0.698,1.876 c 2.254,6.064 5.07,12.19 10.36,15.92 l -1.54,2.188 z m -18.126,44 c -5.225,0 -9.843,-4.508 -11.493,-11.217 l 2.6,-0.637 c 1.347,5.49 4.922,9.18 8.893,9.18 3.96,0 7.534,-3.68 8.888,-9.153 l 2.597,0.643 c -1.653,6.69 -6.27,11.185 -11.484,11.185"
       mask="none"
       id="path56"
       inkscape:connector-curvature="0"
       style="fill:#000000;fill-rule:evenodd" />
    <path
       mask="none"
       d="m 449.88852,506.80655 -0.986,-19.85 2.67,-0.133 0.987,19.848 m -8.595,0.039 -2.67,-0.132 0.973,-19.6 2.67,0.13"
       id="path58"
       inkscape:connector-curvature="0"
       style="fill:#000000;fill-rule:evenodd" />
    <path
       mask="none"
       d="m 451.62652,496.76155 -1.892,-1.893 18.26,-18.268 1.89,1.89 m -27.695,18.934 -18.985,-18.994 1.893,-1.893 18.984,18.993 m -16.909,-44.727 8.646,0 0,-5.15 -8.646,0 0,5.15 z m -2.676,2.677 13.996,0 0,-10.502 -13.996,0 0,10.502 z m 21.544,-2.677 8.646,0 0,-5.15 -8.646,0 0,5.15 z m -2.674,2.677 13.996,0 0,-10.502 -13.996,0 0,10.502 z"
       id="path60"
       inkscape:connector-curvature="0"
       style="fill:#000000;fill-rule:evenodd" />
    <path
       mask="none"
       d="m 437.15452,448.79555 7.548,0 0,-2.678 -7.548,0 m 19.394,2.298 -1.046,-2.463 6.167,-2.623 4.3,1.78 -1.024,2.475 -3.26,-1.35 m 5.216,24.42 3.122,0 0,-2.678 -3.123,0 m 11.196,2.678 3.122,0 0,-2.678 -3.122,0 m 20.538,-49.2 -2.676,0 0,-10.918 -10.91,0 0,-2.676 13.586,0 m -88.7,102.346 -13.587,0 0,-13.593 2.673,0 0,10.917 10.913,0 m 172.658,-135.364 c -21.08,0 -38.226,17.16 -38.226,38.25 0,21.09 17.147,38.25 38.227,38.25 21.08,0 38.225,-17.16 38.225,-38.25 0,-21.09 -17.146,-38.25 -38.225,-38.25 m 0,79.175 c -22.554,0 -40.902,-18.36 -40.902,-40.926 0,-22.565 18.348,-40.927 40.902,-40.927 22.553,0 40.9,18.362 40.9,40.926 0,22.566 -18.347,40.925 -40.9,40.925"
       id="path62"
       inkscape:connector-curvature="0"
       style="fill:#000000;fill-rule:evenodd" />
    <path
       d="m 610.16152,435.19855 -1.328,-4.823 c -0.77,-2.798 -3.334,-4.756 -6.233,-4.758 l -40.04,-0.056 -0.01,0 c -2.89,0 -5.442,1.948 -6.206,4.74 l -1.323,4.845 -2.58,-0.707 1.324,-4.844 c 1.082,-3.955 4.695,-6.714 8.788,-6.714 l 0.015,0 40.04,0.055 c 4.096,0.01 7.717,2.773 8.806,6.724 l 1.325,4.825 -2.578,0.71 z m -28.187,-53.906 c -7.83,0 -13.298,6.617 -13.298,16.094 0,10.614 6.337,20.28 13.298,20.28 6.958,0 13.298,-9.666 13.298,-20.28 0,-9.477 -5.47,-16.094 -13.298,-16.094 m 0,39.05 c -9.414,0 -15.974,-12.097 -15.974,-22.956 0,-10.876 6.718,-18.77 15.974,-18.77 9.256,0 15.972,7.894 15.972,18.77 0,10.86 -6.558,22.956 -15.972,22.956"
       mask="none"
       id="path64"
       inkscape:connector-curvature="0"
       style="fill:#000000;fill-rule:evenodd" />
    <path
       mask="none"
       d="m 584.56452,447.27855 -1.04,-15.924 2.67,-0.175 1.04,15.925 m -7.44,0.094 -2.667,-0.174 1.033,-15.844 2.67,0.175 m -12.396,-31.559 -2.1,-1.656 8.026,-10.2 22.374,5.167 -0.602,2.607 -20.72,-4.784"
       id="path66"
       inkscape:connector-curvature="0"
       style="fill:#000000;fill-rule:evenodd" />
    <path
       mask="none"
       d="m 586.45852,432.60555 -8.95,0 -1.32,-8.15 2.64,-0.43 0.957,5.903 4.398,0 0.955,-5.885 2.642,0.43 m -6.703,-13.425 2.674,0 0,-7.697 -2.674,0 m 11.642,-1.405 c -2.117,-0.508 -5.357,-0.847 -8.89,-0.928 l 0.064,-2.675 c 3.768,0.086 7.122,0.44 9.45,1 l -0.625,2.603 z m -20.65,-0.121 -0.547,-2.62 c 2.324,-0.487 5.518,-0.794 8.99,-0.866 l 0.057,2.676 c -3.314,0.07 -6.332,0.357 -8.5,0.81"
       id="path68"
       inkscape:connector-curvature="0"
       style="fill:#000000;fill-rule:evenodd" />
    <path
       mask="none"
       d="m 591.87452,433.79155 -5.568,-8.82 2.26,-1.43 3.258,5.16 3.093,-5.125 2.29,1.38 m -23.901,8.837 -5.347,-8.868 2.29,-1.384 3.11,5.158 3.264,-5.17 2.26,1.43 m -22.867,-20.854 2.676,0 0,-2.45 -2.676,0 m 0,-6.327 2.676,0 0,-2.45 -2.676,0 m 66.94,-14.587 -2.675,0 0,-8.266 -8.26,0 0,-2.677 10.935,0 m -69.796,80.78 -10.936,0 0,-10.943 2.676,0 0,8.265 8.26,0 m -89.803,-353.912004 c -22.084,0 -40.05,17.977004 -40.05,40.070004 0,22.098 17.966,40.073 40.05,40.073 22.084,0 40.048,-17.975 40.048,-40.072 0,-22.093 -17.963,-40.070004 -40.047,-40.070004 m 0,82.820004 c -23.56,0 -42.724,-19.177 -42.724,-42.75 0,-23.57 19.164,-42.748004 42.723,-42.748004 23.558,0 42.724,19.177004 42.724,42.750004 0,23.57 -19.166,42.748 -42.724,42.748"
       id="path70"
       inkscape:connector-curvature="0"
       style="fill:#000000;fill-rule:evenodd" />
    <path
       mask="none"
       d="m 463.14852,168.26355 -14.04,-7.982 0,-11.065 2.676,0 0,9.505 11.385,6.476 11.807,-6.49 0,-9.456 2.674,0 0,11.04"
       id="path72"
       inkscape:connector-curvature="0"
       style="fill:#000000;fill-rule:evenodd" />
    <path
       d="m 492.00152,160.58655 -1.366,-4.966 c -0.812,-2.95 -3.534,-5.017 -6.615,-5.022 l -7.287,-0.01 -0.005,0 c -2.52,0 -4.644,1.843 -6.963,4.07 -1.875,1.8 -4.287,2.79 -6.79,2.79 -2.51,0 -4.923,-0.993 -6.8,-2.802 -2.327,-2.24 -4.453,-4.09 -6.942,-4.096 l -6.592,-0.01 -0.01,0 c -3.052,0 -5.747,2.06 -6.553,5.005 l -1.364,4.99 -2.58,-0.705 1.363,-4.99 c 1.122,-4.107 4.877,-6.975 9.134,-6.975 l 0.014,0 6.592,0.01 c 3.765,0.005 6.67,2.8 8.79,4.842 1.377,1.325 3.135,2.055 4.948,2.055 1.81,0 3.563,-0.727 4.94,-2.047 2.114,-2.032 5.013,-4.813 8.813,-4.813 l 0.01,0 7.287,0.01 c 4.28,0.005 8.06,2.88 9.188,6.987 l 1.367,4.966 -2.578,0.71 z m -6.019,-22.265 -10.385,0 0,-2.677 8.287,0 c 0.566,-2.543 0.85,-5.17 0.85,-7.822 0,-15.566 -9.715,-28.230004 -21.656,-28.230004 -11.94,0 -21.657,12.664004 -21.657,28.230004 0,2.65 0.286,5.28 0.852,7.822 l 8.89,0 0,2.677 -10.99,0 -0.256,-1.01 c -0.777,-3.07 -1.173,-6.262 -1.173,-9.49 0,-17.04 10.92,-30.903004 24.334,-30.903004 13.416,0 24.33,13.863004 24.33,30.904004 0,3.227 -0.392,6.418 -1.172,9.49 l -0.254,1.01 z"
       mask="none"
       id="path74"
       inkscape:connector-curvature="0"
       style="fill:#000000;fill-rule:evenodd" />
    <path
       mask="none"
       d="m 462.01952,166.62255 2.676,0 0,-6.217 -2.675,0 m 7.956,-29.101 c -2.09,0 -4.067,-1.034 -5.285,-2.763 l 2.187,-1.54 c 0.717,1.02 1.875,1.626 3.098,1.626 1.223,0 2.38,-0.608 3.098,-1.628 l 2.187,1.54 c -1.218,1.73 -3.194,2.764 -5.285,2.764 m -13.019,0.001 c -2.09,0 -4.067,-1.034 -5.285,-2.763 l 2.187,-1.54 c 0.717,1.02 1.875,1.626 3.098,1.626 1.223,0 2.38,-0.608 3.098,-1.628 l 2.188,1.54 c -1.218,1.73 -3.194,2.764 -5.285,2.764"
       id="path76"
       inkscape:connector-curvature="0"
       style="fill:#000000;fill-rule:evenodd" />
    <path
       d="m 449.68852,121.47855 c -0.098,0.882 -0.15,1.79 -0.15,2.717 0,11.03 6.598,21.08 13.84,21.08 7.245,0 13.842,-10.05 13.842,-21.08 0,-0.938 -0.05,-1.857 -0.15,-2.747 -1.498,0.33 -3.04,0.612 -4.598,0.832 l -1.033,0.147 -1.358,-3.348 -1.472,3.63 -0.837,0.055 c -1.467,0.098 -2.97,0.15 -4.462,0.15 -4.726,0 -9.3,-0.484 -13.622,-1.438 m 13.69,26.474 c -9.73,0 -16.512,-12.522 -16.512,-23.757 0,-1.584 0.13,-3.126 0.39,-4.587 l 0.25,-1.41 1.388,0.344 c 4.53,1.126 9.38,1.694 14.416,1.694 1.153,0 2.31,-0.03 3.453,-0.09 l 3.317,-8.185 3.046,7.512 c 1.618,-0.256 3.203,-0.58 4.73,-0.962 l 1.39,-0.35 0.25,1.41 c 0.264,1.474 0.4,3.028 0.4,4.624 0,11.235 -6.785,23.757 -16.518,23.757 m -29.334,-2.936 2.56,0 0,-2.677 -2.56,0 m 9.176,2.677 2.56,0 0,-2.677 -2.56,0 m 62.301,-41.531 -2.676,0 0,-8.710004 -8.7,0 0,-2.674 11.377,0 m -72.951,84.376004 -11.377,0 0,-11.385 2.675,0 0,8.707 8.702,0 m 3.909,53.226 c -0.434,-0.343 -0.87,-0.682 -1.31,-1.02 l 1.633,-2.12 c 0.445,0.342 0.89,0.69 1.333,1.038 l -1.657,2.102 z m 5.121,4.232 c -0.837,-0.724 -1.683,-1.44 -2.535,-2.144 l 1.703,-2.064 c 0.868,0.718 1.73,1.447 2.582,2.184 l -1.75,2.025 z m 4.92,4.46 c -0.8,-0.762 -1.614,-1.513 -2.434,-2.257 l 1.796,-1.984 c 0.834,0.757 1.66,1.523 2.48,2.3 l -1.843,1.94 z m 4.714,4.684 c -0.766,-0.8 -1.543,-1.588 -2.33,-2.368 l 1.885,-1.9 c 0.8,0.794 1.592,1.598 2.374,2.41 l -1.93,1.858 z m 4.497,4.89 c -0.73,-0.833 -1.47,-1.656 -2.22,-2.472 l 1.968,-1.81 c 0.763,0.83 1.518,1.667 2.262,2.516 l -2.01,1.766 z m 4.266,5.09 c -0.693,-0.865 -1.393,-1.722 -2.105,-2.57 l 2.05,-1.72 c 0.724,0.865 1.438,1.738 2.143,2.62 l -2.087,1.67 z m 3.04,3.941 c -0.33,-0.444 -0.664,-0.886 -1,-1.325 l 2.127,-1.626 c 0.344,0.448 0.682,0.9 1.018,1.35 l -2.144,1.6 z m 30.946,96.172 -2.67,-0.176 c 0.21,-3.185 0.315,-6.42 0.315,-9.622 0,-8.594 -0.76,-17.202 -2.257,-25.59 l 2.636,-0.47 c 1.522,8.54 2.294,17.31 2.294,26.06 0,3.258 -0.105,6.555 -0.32,9.8 m -7.165,-46.949 c -1.59,-6.01 -3.595,-11.973 -5.954,-17.73 l 2.473,-1.014 c 2.405,5.862 4.446,11.94 6.067,18.057 l -2.587,0.686 z m -13.093,112.317 -2.3,-1.368 c 5.31,-8.94 9.655,-18.465 12.91,-28.31 l 2.54,0.84 c -3.318,10.027 -7.742,19.73 -13.15,28.837 m -265.958,-27.3 c -2.083,-6.068 -3.78,-12.337 -5.047,-18.632 l 2.623,-0.528 c 1.242,6.18 2.91,12.334 4.954,18.29 l -2.53,0.87 z m 28.188,48.81 c -11.226,-12.906 -20.042,-27.5 -26.202,-43.376 l 2.493,-0.97 c 6.05,15.59 14.705,29.917 25.728,42.587 l -2.02,1.76 z m 122.348,50.226 -0.202,-2.668 c 5.036,-0.38 10.102,-1.03 15.06,-1.936 l 0.48,2.635 c -5.05,0.92 -10.21,1.583 -15.338,1.97 m -22.868,-0.031 c -3.904,-0.304 -7.84,-0.77 -11.692,-1.384 l 0.422,-2.644 c 3.783,0.602 7.644,1.06 11.478,1.36 l -0.21,2.668 z m 42.292,-2.746 -0.556,-2.62 c 7.66,-1.622 15.236,-3.89 22.52,-6.74 l 0.974,2.49 c -7.42,2.907 -15.138,5.217 -22.938,6.87 m -84.508,-278.414 -0.998,-2.483 c 7.565,-3.04 15.435,-5.46 23.39,-7.192 l 0.57,2.616 c -7.81,1.7 -15.536,4.073 -22.962,7.058 m -56.324,40.619 -2.038,-1.736 c 13.598,-15.993 30.788,-29.148 49.717,-38.037 l 1.133,2.424 c -18.583,8.73 -35.462,21.644 -48.813,37.35 m 204.071,26.024 c -0.642,-0.89 -1.303,-1.782 -1.97,-2.656 l 2.122,-1.627 c 0.683,0.892 1.362,1.806 2.02,2.718 l -2.17,1.565 z m 3.713,5.473 c -0.595,-0.936 -1.206,-1.864 -1.818,-2.764 l 2.213,-1.502 c 0.626,0.92 1.25,1.87 1.86,2.826 l -2.255,1.44 z m 3.395,5.674 c -0.54,-0.962 -1.098,-1.927 -1.657,-2.86 l 2.296,-1.375 c 0.573,0.955 1.144,1.94 1.695,2.927 l -2.332,1.308 z m 3.062,5.86 c -0.482,-0.99 -0.983,-1.983 -1.49,-2.952 l 2.372,-1.24 c 0.518,0.99 1.03,2.005 1.523,3.02 l -2.405,1.173 z m 2.542,5.59 c -0.37,-0.87 -0.748,-1.736 -1.137,-2.597 l 2.436,-1.1 c 0.4,0.88 0.788,1.765 1.164,2.655 l -2.462,1.043 z"
       mask="none"
       id="path78"
       inkscape:connector-curvature="0"
       style="fill:#000000;fill-rule:evenodd" />
    <path
       d="m 438.99452,267.71855 c -5.897,-7.706 -12.748,-14.66 -20.368,-20.67 l 1.657,-2.103 c 7.792,6.147 14.803,13.263 20.834,21.147 l -2.125,1.626 z m 21.336,104.808 -2.558,-0.78 c 0.316,-1.043 0.626,-2.113 0.916,-3.18 l 2.58,0.707 c -0.297,1.09 -0.61,2.185 -0.938,3.253 m -2.153,6.418 -2.51,-0.928 c 0.38,-1.03 0.748,-2.08 1.098,-3.12 l 2.535,0.852 c -0.357,1.066 -0.733,2.14 -1.122,3.196 m -2.518,6.28 -2.452,-1.07 c 0.434,-0.997 0.863,-2.024 1.273,-3.05 l 2.484,0.995 c -0.422,1.054 -0.86,2.105 -1.305,3.125 m -2.874,6.125 -2.388,-1.207 c 0.5,-0.99 0.986,-1.99 1.45,-2.972 l 2.418,1.138 c -0.47,1.005 -0.97,2.03 -1.48,3.042 m -3.222,5.952 -2.314,-1.343 c 0.542,-0.937 1.086,-1.91 1.616,-2.885 l 2.352,1.274 c -0.542,1 -1.1,1.993 -1.654,2.952 m -3.558,5.756 -2.233,-1.473 c 0.6,-0.91 1.197,-1.847 1.777,-2.788 l 2.275,1.408 c -0.593,0.96 -1.207,1.92 -1.82,2.853 m -2.62,3.82 -2.18,-1.55 c 0.236,-0.336 0.476,-0.67 0.71,-1.006 l 2.19,1.536 -0.72,1.02 m 20.037,-85.648 c 1.22,9.21 1.345,18.554 0.376,27.774 l -2.66,-0.28 c 0.948,-9.012 0.824,-18.144 -0.368,-27.143 l 2.652,-0.35 z m -213.952,83.84 c -0.633,-0.922 -1.266,-1.87 -1.877,-2.815 l 2.246,-1.454 c 0.597,0.927 1.215,1.853 1.834,2.753 l -2.203,1.516 z m 3.99,5.462 c -0.693,-0.895 -1.378,-1.804 -2.033,-2.7 l 2.158,-1.583 c 0.644,0.878 1.313,1.768 1.99,2.64 l -2.114,1.642 z m 4.293,5.226 c -0.73,-0.838 -1.464,-1.706 -2.183,-2.58 l 2.064,-1.703 c 0.706,0.856 1.425,1.706 2.137,2.526 l -2.018,1.758 z m 4.583,4.976 c -0.79,-0.81 -1.573,-1.637 -2.328,-2.455 l 1.968,-1.817 c 0.737,0.8 1.502,1.607 2.274,2.402 l -1.914,1.87 z m 4.858,4.707 c -0.82,-0.753 -1.65,-1.535 -2.46,-2.32 l 1.86,-1.92 c 0.79,0.767 1.6,1.53 2.407,2.266 l -1.806,1.975 z m 5.12,4.422 c -0.87,-0.71 -1.743,-1.44 -2.592,-2.173 l 1.75,-2.03 c 0.83,0.72 1.682,1.434 2.533,2.13 l -1.69,2.072 z m 65.914,26.271 c -16.252,-1.2 -31.787,-5.645 -46.174,-13.212 l 1.244,-2.37 c 14.06,7.396 29.244,11.74 45.127,12.914 l -0.196,2.668 z m 11.506,0.296 -0.06,-2.675 c 17.008,-0.38 33.323,-4.364 48.487,-11.847 l 1.184,2.4 c -15.517,7.657 -32.208,11.736 -49.61,12.122 m -45.483,-225.995 -0.99,-2.488 c 1.03,-0.41 2.093,-0.816 3.156,-1.205 l 0.92,2.512 c -1.04,0.382 -2.08,0.78 -3.086,1.18 m -6.06,2.623 -1.13,-2.426 c 1.01,-0.47 2.047,-0.937 3.08,-1.385 l 1.063,2.456 c -1.01,0.438 -2.023,0.894 -3.013,1.357 m -5.904,2.965 -1.268,-2.358 c 0.983,-0.528 1.992,-1.053 3,-1.56 l 1.198,2.392 c -0.983,0.495 -1.968,1.008 -2.93,1.526 m -5.723,3.3 -1.4,-2.28 c 0.942,-0.583 1.92,-1.164 2.903,-1.732 l 1.336,2.32 c -0.963,0.554 -1.917,1.123 -2.84,1.69 m -5.53,3.622 -1.527,-2.196 c 0.918,-0.64 1.86,-1.278 2.8,-1.895 l 1.466,2.242 c -0.92,0.602 -1.84,1.223 -2.74,1.85 m -5.313,3.932 -1.65,-2.107 c 0.885,-0.695 1.79,-1.386 2.69,-2.05 l 1.59,2.15 c -0.88,0.65 -1.762,1.326 -2.63,2.007 m -5.084,4.225 -1.767,-2.01 c 0.835,-0.733 1.698,-1.472 2.57,-2.2 l 1.71,2.06 c -0.85,0.71 -1.697,1.432 -2.513,2.15 m -4.834,4.51 -1.878,-1.906 c 0.79,-0.78 1.61,-1.57 2.44,-2.34 l 1.823,1.957 c -0.808,0.756 -1.61,1.527 -2.386,2.29 m -4.57,4.776 -1.986,-1.794 c 0.743,-0.82 1.518,-1.653 2.304,-2.476 l 1.933,1.85 c -0.77,0.803 -1.527,1.62 -2.25,2.42 m -4.295,5.03 -2.084,-1.678 c 0.713,-0.883 1.44,-1.76 2.16,-2.603 l 2.035,1.737 c -0.705,0.828 -1.415,1.682 -2.11,2.545 m -4.002,5.264 -2.175,-1.556 c 0.652,-0.912 1.328,-1.828 2.01,-2.723 l 2.13,1.62 c -0.666,0.876 -1.327,1.77 -1.965,2.66 m -3.695,5.488 -2.26,-1.432 c 0.598,-0.945 1.22,-1.898 1.85,-2.83 l 2.218,1.494 c -0.614,0.914 -1.223,1.845 -1.808,2.768 m -3.376,5.69 -2.338,-1.3 c 0.54,-0.973 1.108,-1.96 1.685,-2.933 l 2.3,1.365 c -0.567,0.952 -1.12,1.917 -1.648,2.87 m 5.126,210.643 -11.48,-11.488 1.89,-1.893 9.59,9.597 9.588,-9.597 1.892,1.893"
       mask="none"
       id="path80"
       inkscape:connector-curvature="0"
       style="fill:#000000;fill-rule:evenodd" />
    <path
       d="m 227.81752,501.81655 c -0.154,-1.483 -0.23,-2.917 -0.23,-4.268 0,-11.27 6.337,-18.37 17.88,-20.105 l 0,-3.038 2.676,0 0,5.4 -1.185,0.138 c -7.618,0.88 -16.696,4.647 -16.696,17.605 0,1.26 0.07,2.603 0.214,3.995 l -2.66,0.273 z m 46.345,-0.001 -2.66,-0.273 c 0.143,-1.396 0.215,-2.742 0.215,-3.995 0,-12.96 -9.078,-16.726 -16.696,-17.604 l -1.185,-0.137 0,-5.4 2.676,0 0,3.034 c 11.543,1.734 17.88,8.836 17.88,20.105 0,1.343 -0.076,2.78 -0.23,4.267"
       mask="none"
       id="path82"
       inkscape:connector-curvature="0"
       style="fill:#000000;fill-rule:evenodd" />
    <path
       d="m 250.99052,448.70255 c -5.484,0 -9.316,4.667 -9.316,11.35 0,7.4 4.527,14.396 9.316,14.396 4.788,0 9.315,-6.996 9.315,-14.395 0,-6.684 -3.83,-11.35 -9.314,-11.35 m 0,28.423 c -7.067,0 -11.99,-9 -11.99,-17.073 0,-8.128 5.043,-14.028 11.99,-14.028 6.946,0 11.99,5.9 11.99,14.028 0,8.073 -4.924,17.073 -11.99,17.073"
       mask="none"
       id="path84"
       inkscape:connector-curvature="0"
       style="fill:#000000;fill-rule:evenodd" />
    <path
       d="m 241.28652,463.11855 -1.688,-2.075 c 2.635,-2.147 4.115,-5.45 5.323,-8.697 l 0.698,-1.878 1.468,1.363 c 4.287,3.987 9.092,6.2 14.69,6.765 l -0.27,2.663 c -5.568,-0.562 -10.418,-2.59 -14.778,-6.184 -1.235,3.002 -2.83,5.917 -5.443,8.045 m 8.366,45.965 2.676,0 0,-18.327 -2.676,0"
       mask="none"
       id="path86"
       inkscape:connector-curvature="0"
       style="fill:#000000;fill-rule:evenodd" />
    <path
       d="m 250.99052,438.53355 c -19.07,0 -34.587,15.525 -34.587,34.606 0,19.084 15.516,34.607 34.586,34.607 19.072,0 34.586,-15.523 34.586,-34.606 0,-19.08 -15.514,-34.605 -34.586,-34.605 m 0,71.89 c -20.547,0 -37.262,-16.725 -37.262,-37.284 0,-20.558 16.715,-37.283 37.262,-37.283 20.546,0 37.26,16.725 37.26,37.284 0,20.56 -16.714,37.285 -37.26,37.285"
       mask="none"
       id="path88"
       inkscape:connector-curvature="0"
       style="fill:#000000;fill-rule:evenodd" />
    <path
       d="m 279.58952,473.13855 -2.676,0 c 0,-4.855 -1.35,-9.588 -3.903,-13.69 l 2.274,-1.414 c 2.816,4.525 4.305,9.75 4.305,15.105 m -55.913,8.509 c -0.853,-2.745 -1.285,-5.607 -1.285,-8.508 0,-6.578 2.285,-13 6.436,-18.087 l 2.07,1.693 c -3.76,4.61 -5.832,10.43 -5.832,16.394 0,2.63 0.394,5.226 1.166,7.714 l -2.554,0.794 z m 72.655,35.618 c -0.295,0 -0.696,0.05 -0.943,0.298 -0.29,0.29 -0.374,0.882 -0.225,1.59 0.18,0.87 0.692,1.795 1.368,2.47 1.117,1.12 2.523,1.31 3.37,0.457 0.392,-0.39 0.58,-0.887 0.543,-1.434 -0.04,-0.656 -0.385,-1.326 -1,-1.94 -0.86,-0.86 -2.113,-1.442 -3.113,-1.442 m 2.266,8.04 c -1.398,0 -2.803,-0.636 -3.957,-1.79 -1.043,-1.044 -1.805,-2.433 -2.095,-3.812 -0.338,-1.62 0.008,-3.088 0.952,-4.033 0.708,-0.708 1.69,-1.082 2.835,-1.082 1.714,0 3.635,0.855 5.006,2.227 1.08,1.082 1.696,2.346 1.78,3.66 0.083,1.32 -0.387,2.564 -1.322,3.5 -0.857,0.858 -1.994,1.33 -3.197,1.33"
       mask="none"
       id="path90"
       inkscape:connector-curvature="0"
       style="fill:#000000;fill-rule:evenodd" />
    <path
       d="m 289.25452,520.63555 c -1.816,0 -3.804,-0.75 -5.92,-2.864 -0.236,-0.238 -2.972,-3.035 -3.495,-3.746 l -0.683,-0.926 11.768,-11.776 0.928,0.68 c 0.707,0.524 3.503,3.264 3.743,3.5 4.47,4.476 2.84,8.387 0.917,11.295 l -2.23,-1.477 c 1.894,-2.87 2.364,-4.98 -0.578,-7.925 -0.502,-0.5 -1.727,-1.684 -2.586,-2.48 l -8.37,8.373 c 0.815,0.88 2.028,2.14 2.48,2.59 2.94,2.943 5.053,2.473 7.916,0.578 l 1.478,2.23 c -1.533,1.016 -3.343,1.95 -5.37,1.95 m -85.868,-96.987 c -0.497,0 -0.95,0.19 -1.308,0.547 -0.39,0.39 -0.578,0.887 -0.544,1.436 0.043,0.653 0.388,1.322 1.002,1.936 0.86,0.862 2.115,1.442 3.115,1.442 0.295,0 0.695,-0.05 0.942,-0.297 0.643,-0.643 0.23,-2.683 -1.144,-4.06 -0.65,-0.648 -1.38,-1.005 -2.064,-1.005 m 2.265,8.04 c -1.717,0 -3.635,-0.854 -5.007,-2.227 -1.08,-1.082 -1.695,-2.346 -1.78,-3.66 -0.083,-1.32 0.387,-2.563 1.322,-3.5 0.86,-0.858 1.995,-1.33 3.2,-1.33 1.397,0 2.802,0.635 3.953,1.79 2.17,2.17 3.148,5.84 1.146,7.845 -0.708,0.707 -1.69,1.082 -2.835,1.082"
       mask="none"
       id="path92"
       inkscape:connector-curvature="0"
       style="fill:#000000;fill-rule:evenodd" />
    <path
       d="m 211.05452,444.95855 -0.926,-0.683 c -0.705,-0.52 -3.467,-3.224 -3.743,-3.5 -4.47,-4.475 -2.838,-8.385 -0.917,-11.293 l 2.232,1.475 c -1.894,2.87 -2.364,4.98 0.578,7.924 0.5,0.5 1.726,1.684 2.585,2.48 l 8.37,-8.372 c -0.798,-0.862 -1.98,-2.088 -2.48,-2.59 -2.943,-2.943 -5.053,-2.473 -7.92,-0.577 l -1.473,-2.232 c 2.906,-1.924 6.814,-3.555 11.284,0.92 0.275,0.273 2.977,3.037 3.497,3.742 l 0.684,0.928 -11.77,11.776 z m -5.406,72.308 c -1,0 -2.254,0.58 -3.114,1.442 -0.614,0.614 -0.96,1.284 -1,1.94 -0.036,0.546 0.15,1.042 0.542,1.433 0.85,0.852 2.25,0.662 3.37,-0.458 0.677,-0.674 1.188,-1.598 1.37,-2.47 0.15,-0.707 0.065,-1.3 -0.225,-1.59 -0.247,-0.247 -0.648,-0.297 -0.943,-0.297 m -2.266,8.04 c -1.203,0 -2.34,-0.473 -3.198,-1.332 -0.935,-0.935 -1.405,-2.178 -1.32,-3.498 0.082,-1.315 0.7,-2.58 1.778,-3.66 1.37,-1.373 3.292,-2.227 5.006,-2.227 1.146,0 2.127,0.375 2.835,1.083 0.943,0.945 1.29,2.413 0.95,4.033 -0.29,1.38 -1.052,2.768 -2.095,3.812 -1.154,1.154 -2.56,1.79 -3.957,1.79"
       mask="none"
       id="path94"
       inkscape:connector-curvature="0"
       style="fill:#000000;fill-rule:evenodd" />
    <path
       d="m 212.72652,520.63555 c -2.026,0 -3.837,-0.934 -5.37,-1.946 l 1.478,-2.233 c 2.865,1.895 4.976,2.368 7.918,-0.578 0.5,-0.503 1.683,-1.73 2.48,-2.587 l -8.37,-8.376 c -0.86,0.8 -2.085,1.982 -2.587,2.48 -2.94,2.945 -2.47,5.058 -0.576,7.925 l -2.23,1.476 c -1.924,-2.906 -3.554,-6.82 0.918,-11.29 0.237,-0.24 3.033,-2.98 3.743,-3.5 l 0.925,-0.685 11.77,11.778 -0.682,0.927 c -0.523,0.707 -3.223,3.47 -3.498,3.745 -2.113,2.114 -4.103,2.865 -5.918,2.865 m 85.869,-96.986 c -0.683,0 -1.417,0.357 -2.064,1.005 -1.374,1.377 -1.784,3.417 -1.144,4.06 0.247,0.247 0.647,0.297 0.942,0.297 1.002,0 2.254,-0.58 3.115,-1.442 0.615,-0.614 0.96,-1.283 1.003,-1.936 0.034,-0.55 -0.153,-1.046 -0.544,-1.437 -0.358,-0.36 -0.812,-0.548 -1.308,-0.548 m -2.266,8.04 c -1.146,0 -2.127,-0.375 -2.834,-1.082 -2.002,-2.004 -1.024,-5.675 1.144,-7.846 1.153,-1.154 2.558,-1.79 3.956,-1.79 1.204,0 2.34,0.473 3.2,1.332 0.934,0.936 1.404,2.178 1.32,3.498 -0.084,1.315 -0.698,2.58 -1.78,3.66 -1.37,1.374 -3.29,2.228 -5.006,2.228"
       mask="none"
       id="path96"
       inkscape:connector-curvature="0"
       style="fill:#000000;fill-rule:evenodd" />
    <path
       d="m 290.92452,444.95855 -11.767,-11.777 0.68,-0.928 c 0.524,-0.708 3.26,-3.505 3.5,-3.743 4.47,-4.474 8.377,-2.843 11.283,-0.92 l -1.474,2.233 c -2.866,-1.896 -4.976,-2.366 -7.92,0.578 -0.5,0.5 -1.68,1.727 -2.48,2.59 l 8.37,8.372 c 0.86,-0.797 2.085,-1.98 2.588,-2.48 2.94,-2.945 2.47,-5.056 0.576,-7.926 l 2.232,-1.476 c 1.92,2.908 3.554,6.818 -0.918,11.293 -0.276,0.276 -3.038,2.98 -3.743,3.5 l -0.926,0.682 z m -39.934,-30.323 c -1.832,0 -3.324,1.49 -3.324,3.325 0,1.833 1.492,3.325 3.324,3.325 1.83,0 3.323,-1.492 3.323,-3.325 0,-1.835 -1.493,-3.325 -3.324,-3.325 m 0,9.326 c -3.307,0 -5.997,-2.692 -5.997,-6 0,-3.31 2.69,-6.004 5.996,-6.004 3.306,0 5.996,2.694 5.996,6.002 0,3.31 -2.69,6 -5.996,6 m 0.002,101.035 c -1.832,0 -3.324,1.493 -3.324,3.326 0,1.833 1.492,3.325 3.324,3.325 1.83,0 3.323,-1.492 3.323,-3.325 0,-1.833 -1.493,-3.326 -3.324,-3.326 m 0,9.326 c -3.307,0 -5.997,-2.692 -5.997,-6 0,-3.31 2.69,-6.003 5.996,-6.003 3.306,0 5.996,2.693 5.996,6.002 0,3.308 -2.69,6 -5.996,6 m 55.149,-64.504 c -1.832,0 -3.323,1.492 -3.323,3.325 0,1.833 1.49,3.323 3.323,3.323 1.832,0 3.324,-1.49 3.324,-3.323 0,-1.833 -1.492,-3.325 -3.324,-3.325 m 0,9.325 c -3.306,0 -5.997,-2.69 -5.997,-6 0,-3.308 2.69,-6.003 5.997,-6.003 3.307,0 5.997,2.694 5.997,6.002 0,3.31 -2.69,6 -5.997,6 m -110.295,-9.324 c -1.832,0 -3.323,1.492 -3.323,3.325 0,1.833 1.49,3.323 3.323,3.323 1.832,0 3.323,-1.49 3.323,-3.323 0,-1.833 -1.49,-3.325 -3.322,-3.325 m 0,9.325 c -3.307,0 -5.997,-2.69 -5.997,-6 0,-3.308 2.69,-6.003 5.998,-6.003 3.307,0 5.997,2.694 5.997,6.002 0,3.31 -2.69,6 -5.997,6 m 28.798,-30.471 -9.596,-9.598 1.892,-1.893 9.596,9.598 m 58.506,62.327 -9.593,-9.6 1.89,-1.892 9.595,9.6"
       mask="none"
       id="path98"
       inkscape:connector-curvature="0"
       style="fill:#000000;fill-rule:evenodd" />
    <path
       mask="none"
       d="m 277.33752,448.66855 -1.892,-1.893 9.597,-9.6 1.89,1.894 m -69.993,70.033 -1.892,-1.892 9.596,-9.6 1.888,1.893 m 23.121,-67.431 2.676,0 0,-9.45 -2.676,0 m 0,101.033 2.676,0 0,-9.45 -2.676,0 m 42.379,-39.727 9.445,0 0,-2.677 -9.445,0 m -91.529,2.677 9.445,0 0,-2.677 -9.445,0 m 136.422,45.827 -2.672,-0.13 0.467,-9.583 2.672,0.13 m 20.123,9.583 -0.466,-9.583 2.674,-0.13 0.465,9.583 m -13.289,-11.067 -7.594,-4.318 0,-5.852 2.673,0 0,4.295 4.942,2.81 5.14,-2.822 0,-4.264 2.675,0 0,5.847"
       id="path100"
       inkscape:connector-curvature="0"
       style="fill:#000000;fill-rule:evenodd" />
    <path
       d="m 330.60252,516.22555 32.83,0 0,-3.44 -4.17,-15.16 -7.322,-0.01 c -0.966,2.06 -2.922,3.384 -5.12,3.384 -2.21,0 -4.166,-1.328 -5.133,-3.396 l -6.94,-0.012 -4.145,15.16 0,3.475 z m 35.507,2.677 -38.183,0 0,-6.51 4.78,-17.48 10.912,0.015 0.278,0.966 c 0.42,1.454 1.592,2.43 2.923,2.43 1.326,0 2.498,-0.974 2.918,-2.42 l 0.28,-0.968 11.285,0.015 4.807,17.473 0,6.478 z m -7.417,-30.018 -5.65,0 0,-2.678 3.535,0 c 0.197,-1.04 0.295,-2.104 0.295,-3.18 0,-7.3 -4.486,-13.24 -10,-13.24 -5.52,0 -10.005,5.94 -10.005,13.24 0,1.076 0.098,2.14 0.295,3.18 l 3.832,0 0,2.678 -5.947,0 -0.256,-1.01 c -0.398,-1.567 -0.597,-3.2 -0.597,-4.847 0,-8.777 5.685,-15.92 12.677,-15.92 6.99,0 12.675,7.143 12.675,15.92 0,1.647 -0.202,3.28 -0.6,4.846 l -0.254,1.01 z"
       mask="none"
       id="path102"
       inkscape:connector-curvature="0"
       style="fill:#000000;fill-rule:evenodd" />
    <path
       d="m 340.88252,480.71855 c -0.008,0.173 -0.012,0.346 -0.012,0.52 0,4.996 2.987,9.718 6.148,9.718 3.16,0 6.148,-4.722 6.148,-9.717 0,-0.18 -0.005,-0.356 -0.012,-0.534 -3.92,0.768 -8.347,0.773 -12.272,0.015 m 6.136,12.916 c -5.2,0 -8.822,-6.533 -8.822,-12.395 0,-0.817 0.067,-1.618 0.204,-2.38 l 0.25,-1.41 1.388,0.344 c 2.18,0.542 4.515,0.818 6.946,0.818 2.453,0 4.81,-0.28 7.01,-0.833 l 1.387,-0.35 0.254,1.412 c 0.138,0.763 0.207,1.572 0.207,2.4 0,5.86 -3.623,12.394 -8.823,12.394 m 9.201,-65.738 -2.673,-0.13 0.62,-12.748 2.672,0.13 m 27.653,12.748 -0.618,-12.75 2.67,-0.128 0.62,12.75"
       mask="none"
       id="path104"
       inkscape:connector-curvature="0"
       style="fill:#000000;fill-rule:evenodd" />
    <path
       d="m 347.80852,426.49655 44.56,0 0,-5.075 -5.655,-20.55 -33.288,-0.05 -5.618,20.555 0,5.12 z m 47.237,2.677 -49.911,0 0,-8.157 0.048,-0.173 6.206,-22.7 37.365,0.052 6.294,22.864 0,8.115 z m -25.391,-60.185 c -5.077,0 -8.62,4.33 -8.62,10.524 0,6.87 4.188,13.368 8.62,13.368 4.43,0 8.62,-6.497 8.62,-13.368 0,-6.195 -3.545,-10.523 -8.62,-10.523 m 0,26.57 c -6.657,0 -11.295,-8.457 -11.295,-16.046 0,-7.65 4.75,-13.2 11.294,-13.2 6.545,0 11.295,5.55 11.295,13.2 0,7.59 -4.64,16.046 -11.296,16.046"
       mask="none"
       id="path106"
       inkscape:connector-curvature="0"
       style="fill:#000000;fill-rule:evenodd" />
    <path
       mask="none"
       d="m 371.82052,427.92855 -1.537,-21.584 2.668,-0.19 1.537,21.583 m -6.724,0.191 -2.67,-0.19 1.538,-21.584 2.67,0.19 m -8.523,-24.929 -2.1,-1.655 5.627,-7.153 15.487,3.574 -0.603,2.608 -13.833,-3.193"
       id="path108"
       inkscape:connector-curvature="0"
       style="fill:#000000;fill-rule:evenodd" />
    <path
       mask="none"
       d="m 374.10652,407.58855 -8.89,0 -0.912,-7.933 2.66,-0.307 0.634,5.564 4.122,0 0.638,-5.552 2.66,0.307 m 278.772,19.554 -21.86,0 0,-2.677 19.184,0 0,-19.196 2.676,0"
       id="path110"
       inkscape:connector-curvature="0"
       style="fill:#000000;fill-rule:evenodd" />
    <path
       mask="none"
       d="m 654.81252,403.21255 -2.312,-4.19 -2.31,4.19 -2.344,-1.293 4.654,-8.437 4.655,8.438 m -370.781,-121.342 -2.675,0 0,-21.877 21.864,0 0,2.678 -19.19,0"
       id="path112"
       inkscape:connector-curvature="0"
       style="fill:#000000;fill-rule:evenodd" />
    <path
       mask="none"
       d="m 284.99052,284.44355 -4.654,-8.438 2.343,-1.293 2.31,4.192 2.313,-4.192 2.342,1.293 m -190.771997,55.847 c -6.8,0 -12.334,-5.537 -12.334,-12.34 l 2.673,0 c 0,5.327 4.335,9.665 9.66,9.665 5.325997,0 9.659997,-4.34 9.659997,-9.667 l 2.675,0 c 0,6.804 -5.534,12.34 -12.333997,12.34 m -9.66,-12.339 -2.676,0 c 0,-0.624 0.048,-1.253 0.142,-1.87 l 2.645,0.4 c -0.073,0.486 -0.112,0.98 -0.112,1.47 m 14.052997,-8.611 c -0.903,-0.463 -1.874,-0.78 -2.88,-0.938 l 0.416,-2.642 c 1.285,0.202 2.525,0.605 3.683,1.198 l -1.22,2.382 z m -8.793997,0.005 -1.22,-2.383 c 1.157,-0.592 2.397,-0.998 3.682,-1.202 l 0.42,2.644 c -1.007,0.16 -1.976,0.475 -2.882,0.94 z m 13.021997,4.242 c -0.458,-0.908 -1.057,-1.734 -1.777,-2.458 l 1.896,-1.89 c 0.92,0.923 1.683,1.98 2.268,3.137 l -2.386,1.21 z m -17.246997,0.008 -2.385,-1.21 c 0.587,-1.158 1.35,-2.216 2.266,-3.137 l 1.898,1.887 c -0.72,0.724 -1.317,1.552 -1.777,2.46 z"
       id="path114"
       inkscape:connector-curvature="0"
       style="fill:#000000;fill-rule:evenodd" />
    <path
       d="m 111.20652,319.51155 -2.676,0 c 0,-0.495 -0.036,-0.99 -0.11,-1.466 l 2.645,-0.403 c 0.094,0.61 0.142,1.24 0.142,1.87 m 277.513,-206.811 c -5.205,0 -9.438,4.237 -9.438,9.443 0,5.21 4.233,9.443 9.438,9.443 5.204,0 9.438,-4.235 9.438,-9.444 0,-5.206 -4.234,-9.443 -9.438,-9.443 m 0,21.564 c -6.678,0 -12.113,-5.437 -12.113,-12.12 0,-6.683 5.435,-12.122 12.113,-12.122 6.678,0 12.114,5.44 12.114,12.12 0,6.685 -5.436,12.122 -12.114,12.122"
       mask="none"
       id="path116"
       inkscape:connector-curvature="0"
       style="fill:#000000;fill-rule:evenodd" />
    <path
       mask="none"
       d="m 387.38252,127.93855 2.676,0 0,-11.587 -2.676,0"
       id="path118"
       inkscape:connector-curvature="0"
       style="fill:#000000;fill-rule:evenodd" />
    <path
       mask="none"
       d="m 382.93052,123.48455 11.58,0 0,-2.678 -11.58,0 m -203.872,282.126 2.676,0 0,-13.11 -2.676,0"
       id="path120"
       inkscape:connector-curvature="0"
       style="fill:#000000;fill-rule:evenodd" />
    <path
       mask="none"
       d="m 173.84452,397.71355 13.103,0 0,-2.677 -13.103,0 m -40.987,-7.594 4.095,0 0,-2.677 -4.095,0 m -15.013,2.677 4.096,0 0,-2.677 -4.096,0 m 30.023,2.677 4.096,0 0,-2.677 -4.097,0 m 72.53,-165.829 2.676,0 0,-13.11 -2.676,0"
       id="path122"
       inkscape:connector-curvature="0"
       style="fill:#000000;fill-rule:evenodd" />
    <path
       mask="none"
       d="m 215.18452,213.71855 13.1,0 0,-2.678 -13.1,0 m 107.774,188.558 c -3.415,0 -6.19,2.78 -6.19,6.195 0,3.417 2.775,6.197 6.19,6.197 3.414,0 6.193,-2.78 6.193,-6.197 0,-3.416 -2.78,-6.195 -6.193,-6.195 m 0,15.067 c -4.89,0 -8.867,-3.98 -8.867,-8.872 0,-4.892 3.978,-8.872 8.867,-8.872 4.89,0 8.867,3.98 8.867,8.872 0,4.892 -3.977,8.872 -8.866,8.872 m 300.302,37.296 -1.338,-2.318 2.543,-1.468 1.335,2.317 m 8.536,1.469 -2.542,-1.47 1.34,-2.316 2.54,1.468 m -8.214,-6.772 2.676,0 0,-2.936 -2.676,0 m 18.579,-216.123 c 0.712,0.547 1.383,1.137 2.012,1.766 0.626,0.628 1.215,1.3 1.762,2.01 0.547,-0.71 1.137,-1.382 1.765,-2.01 0.628,-0.63 1.3,-1.22 2.01,-1.766 -0.71,-0.547 -1.382,-1.138 -2.01,-1.766 -0.628,-0.63 -1.218,-1.3 -1.765,-2.01 -0.547,0.71 -1.136,1.38 -1.765,2.01 -0.626,0.628 -1.3,1.22 -2.01,1.766 z m 3.774,8.622 -1.132,-1.797 c -0.726,-1.152 -1.575,-2.22 -2.525,-3.168 -0.944,-0.947 -2.01,-1.797 -3.165,-2.526 l -1.796,-1.132 1.796,-1.133 c 1.154,-0.726 2.218,-1.575 3.165,-2.525 0.95,-0.95 1.8,-2.015 2.525,-3.17 l 1.132,-1.794 1.132,1.796 c 0.726,1.154 1.575,2.22 2.525,3.17 0.95,0.95 2.014,1.798 3.165,2.525 l 1.796,1.134 -1.796,1.132 c -1.153,0.727 -2.218,1.58 -3.165,2.526 -0.95,0.948 -1.8,2.016 -2.525,3.167 l -1.132,1.796 z m -89.612,-93.688 c -2.012,7.802 -4.743,10.533 -12.538,12.548 7.793,2.015 10.53,4.746 12.538,12.548 2.017,-7.802 4.745,-10.533 12.543,-12.548 -7.794,-2.015 -10.528,-4.746 -12.542,-12.548 m 0,7.418 c 1.288,2.203 2.928,3.844 5.13,5.13 -2.2,1.288 -3.84,2.927 -5.127,5.13 -1.285,-2.203 -2.925,-3.844 -5.128,-5.13 2.2,-1.288 3.84,-2.927 5.126,-5.13 m 133.446,255.328 4.095,0 0,-2.677 -4.094,0 m -15.011,2.677 4.095,0 0,-2.677 -4.094,0 m -155.447,74.023 c -0.873,0 -1.585,0.71 -1.585,1.587 0,0.873 0.712,1.583 1.585,1.583 0.875,0 1.585,-0.71 1.585,-1.583 0,-0.876 -0.71,-1.586 -1.585,-1.586 m 0,5.848 c -2.348,0 -4.26,-1.912 -4.26,-4.26 0,-2.352 1.912,-4.265 4.26,-4.265 2.347,0 4.258,1.913 4.258,4.264 0,2.35 -1.91,4.26 -4.258,4.26 m 16.017,-5.848 c -0.873,0 -1.585,0.71 -1.585,1.587 0,0.873 0.712,1.583 1.585,1.583 0.875,0 1.585,-0.71 1.585,-1.583 0,-0.876 -0.71,-1.586 -1.585,-1.586 m 0,5.848 c -2.347,0 -4.26,-1.912 -4.26,-4.26 0,-2.352 1.913,-4.265 4.26,-4.265 2.347,0 4.258,1.913 4.258,4.264 0,2.35 -1.91,4.26 -4.258,4.26 m 16.017,-5.848 c -0.873,0 -1.585,0.71 -1.585,1.587 0,0.873 0.71,1.583 1.584,1.583 0.873,0 1.585,-0.71 1.585,-1.583 0,-0.876 -0.713,-1.586 -1.586,-1.586 m 0,5.848 c -2.347,0 -4.258,-1.912 -4.258,-4.26 0,-2.352 1.91,-4.265 4.258,-4.265 2.348,0 4.26,1.913 4.26,4.264 0,2.35 -1.912,4.26 -4.26,4.26 m -420.542,-70.738 c -1.35,0 -2.53,-0.767 -3.584,-1.45 -0.73,-0.475 -1.647,-1.07 -2.03,-0.91 -0.415,0.176 -0.85,0.507 -1.312,0.855 -0.552,0.42 -1.177,0.892 -1.91,1.2 -1.337,0.55 -2.946,0.215 -4.526,-0.953 -0.79,-0.586 -1.734,-1.267 -2.227,-1.198 -0.445,0.068 -1.01,0.49 -1.604,0.934 -0.35,0.26 -0.71,0.53 -1.105,0.775 -1.428,0.892 -3.205,0.887 -4.634,-0.01 -0.39,-0.245 -0.743,-0.51 -1.086,-0.763 -0.6,-0.45 -1.165,-0.87 -1.614,-0.936 -0.57,-0.088 -1.455,0.497 -2.242,1.01 -1.263,0.82 -2.834,1.836 -4.522,1.13 -0.727,-0.307 -1.345,-0.774 -1.894,-1.19 -0.462997,-0.352 -0.901997,-0.683 -1.321997,-0.858 -0.42,-0.173 -1.134,0.062 -1.908,0.635 -1.245,0.92 -2.61,1.938 -4.213,1.69 -1.113,-0.167 -2.014,-0.842 -2.81,-1.437 -0.317,-0.237 -0.617,-0.46 -0.92,-0.647 l 1.418,-2.273 c 0.396,0.248 0.756,0.516 1.103,0.775 0.597,0.447 1.158,0.87 1.607,0.936 0.494,0.072 1.436,-0.614 2.184,-1.166 1.624,-1.2 3.23,-1.535 4.565997,-0.984 0.736,0.305 1.36,0.78 1.91,1.198 0.464,0.35 0.898,0.68 1.315,0.854 0.38,0.163 1.297,-0.432 2.03,-0.907 1.18,-0.77 2.523,-1.637 4.077,-1.417 1.122,0.163 2.033,0.842 2.834,1.44 0.313,0.235 0.61,0.456 0.906,0.643 0.565,0.355 1.24,0.357 1.8,0.007 0.3,-0.187 0.602,-0.413 0.92,-0.65 0.795,-0.593 1.696,-1.267 2.807,-1.435 1.594,-0.245 2.966,0.77 4.17,1.658 0.817,0.602 1.532,0.84 1.954,0.665 0.42,-0.172 0.858,-0.506 1.323,-0.858 0.544,-0.413 1.163,-0.883 1.89,-1.188 1.69,-0.708 3.26,0.312 4.522,1.13 0.786,0.51 1.674,1.094 2.247,1.01 0.442,-0.065 1.008,-0.487 1.61,-0.936 0.343,-0.256 0.695,-0.52 1.084,-0.763 1.43,-0.897 3.208,-0.902 4.635,-0.012 l -1.416,2.273 c -0.56,-0.35 -1.235,-0.348 -1.8,0.007 -0.296,0.184 -0.59,0.405 -0.905,0.64 -0.804,0.6 -1.713,1.28 -2.833,1.44 -0.17,0.024 -0.335,0.036 -0.498,0.036 m 556.057,16.35 c -0.134,0 -0.27,-0.01 -0.408,-0.03 -0.933,-0.14 -1.66,-0.683 -2.3,-1.163 l 1.578,-2.162 0.022,0.017 c 0.408,0.305 0.83,0.62 1.096,0.66 0.276,0.043 1.03,-0.533 1.446,-0.837 1.34,-0.99 2.683,-1.262 3.812,-0.795 0.602,0.252 1.098,0.627 1.535,0.96 0.34,0.257 0.662,0.5 0.945,0.62 l 0.012,0 c 0.22,0 0.894,-0.438 1.258,-0.673 0.904,-0.59 2.036,-1.32 3.343,-1.134 0.942,0.136 1.674,0.683 2.32,1.166 0.22,0.162 0.442,0.33 0.675,0.476 0.335,0.21 0.722,0.214 1.057,0.005 0.233,-0.146 0.458,-0.316 0.68,-0.48 0.64,-0.48 1.368,-1.023 2.298,-1.163 1.357,-0.208 2.508,0.648 3.434,1.332 0.59,0.433 1.03,0.54 1.2,0.472 0.282,-0.118 0.603,-0.363 0.944,-0.62 0.435,-0.33 0.93,-0.702 1.523,-0.952 1.45,-0.607 2.73,0.226 3.762,0.895 l -1.455,2.246 c -0.372,-0.242 -1.067,-0.67 -1.283,-0.67 -0.27,0.116 -0.592,0.36 -0.933,0.615 -0.436,0.332 -0.932,0.708 -1.532,0.958 -1.134,0.468 -2.474,0.196 -3.78,-0.768 -0.447,-0.33 -1.217,-0.902 -1.483,-0.86 -0.265,0.04 -0.684,0.354 -1.092,0.658 -0.283,0.212 -0.57,0.423 -0.87,0.61 -1.202,0.748 -2.69,0.744 -3.89,-0.007 -0.295,-0.185 -0.578,-0.396 -0.856,-0.603 -0.41,-0.307 -0.832,-0.62 -1.098,-0.662 -0.297,-0.04 -1.005,0.404 -1.508,0.73 -1.034,0.67 -2.314,1.505 -3.762,0.898 -0.595,-0.252 -1.09,-0.626 -1.523,-0.955 -0.34,-0.257 -0.66,-0.5 -0.946,-0.62 -0.168,-0.07 -0.61,0.042 -1.165,0.452 -0.86,0.633 -1.876,1.384 -3.056,1.384 m -95.127,-230.56 38.118,0 0,-2.678 -38.118,0"
       id="path124"
       inkscape:connector-curvature="0"
       style="fill:#000000;fill-rule:evenodd" />
    <path
       mask="none"
       d="m 619.76452,200.95055 -1.205,-2.39 12.202,-6.16 -12.202,-6.162 1.206,-2.388 16.934,8.55 m -350.661,210.205 -1.338,-2.318 3.774,-2.182 1.338,2.318 m -15.995,2.182 -3.774,-2.18 1.337,-2.32 3.774,2.182 m 3.435,15.113 2.676,0 0,-4.36 -2.675,0 m 248.084,20.865 -1.34,-2.318 3.775,-2.182 1.338,2.318 m -15.995,2.182 -3.774,-2.18 1.338,-2.32 3.774,2.182 m 3.434,15.115 2.676,0 0,-4.36 -2.676,0 m 112.085,-159.737 -1.338,-2.318 3.776,-2.182 1.336,2.32 m 13.321,2.18 -3.775,-2.18 1.338,-2.32 3.774,2.182 m -11.224,-10.619 2.676,0 0,-4.358 -2.677,0 m -384.268,73.904 -1.577,-2.732 2.318,-1.34 1.576,2.734 m -1.577,-9.274 -2.316,-1.338 1.575,-2.733 2.32,1.34 m -12.828,7.341 3.153,0 0,-2.678 -3.153,0 m 341.392,-155.901 -1.338,-2.318 3.775,-2.18 1.336,2.317 m 13.32,2.181 -3.773,-2.18 1.338,-2.32 3.774,2.182 m -11.223,-10.617 2.676,0 0,-4.36 -2.676,0"
       id="path126"
       inkscape:connector-curvature="0"
       style="fill:#000000;fill-rule:evenodd" />
    <path
       d="m 482.00452,183.18555 c -5.202,0 -9.437,4.237 -9.437,9.443 0,5.21 4.235,9.446 9.438,9.446 5.204,0 9.44,-4.237 9.44,-9.446 0,-5.206 -4.236,-9.443 -9.44,-9.443 m 0,21.564 c -6.68,0 -12.113,-5.436 -12.113,-12.12 0,-6.682 5.434,-12.12 12.114,-12.12 6.68,0 12.115,5.438 12.115,12.12 0,6.684 -5.436,12.12 -12.114,12.12"
       mask="none"
       id="path128"
       inkscape:connector-curvature="0"
       style="fill:#0c8fd7;fill-rule:evenodd" />
    <path
       mask="none"
       d="m 480.66752,198.42155 2.676,0 0,-11.586 -2.677,0"
       id="path130"
       inkscape:connector-curvature="0"
       style="fill:#0c8fd7;fill-rule:evenodd" />
    <path
       mask="none"
       d="m 476.21452,193.96855 11.58,0 0,-2.678 -11.58,0 m -63.686,131.268 2.676,0 0,-13.11 -2.676,0"
       id="path132"
       inkscape:connector-curvature="0"
       style="fill:#0c8fd7;fill-rule:evenodd" />
    <path
       mask="none"
       d="m 407.31452,317.34255 13.103,0 0,-2.677 -13.103,0 m -319.511997,38.653 4.096,0 0,-2.677 -4.096,0 m -15.013,2.677 4.096,0 0,-2.677 -4.095,0 m 30.021997,2.677 4.096,0 0,-2.677 -4.096,0 m 471.609,-53.33 2.676,0 0,-13.11 -2.676,0"
       id="path134"
       inkscape:connector-curvature="0"
       style="fill:#0c8fd7;fill-rule:evenodd" />
    <path
       mask="none"
       d="m 569.20852,292.09555 13.102,0 0,-2.677 -13.102,0 m -397.956,133.184 c -3.415,0 -6.194,2.778 -6.194,6.194 0,3.417 2.78,6.198 6.194,6.198 3.414,0 6.19,-2.78 6.19,-6.198 0,-3.416 -2.776,-6.194 -6.19,-6.194 m 0,15.067 c -4.89,0 -8.867,-3.98 -8.867,-8.872 0,-4.892 3.98,-8.872 8.868,-8.872 4.89,0 8.867,3.98 8.867,8.872 0,4.892 -3.978,8.873 -8.867,8.873 m 137.046,-92.096 -1.338,-2.318 2.544,-1.468 1.337,2.318 m 8.534,1.468 -2.542,-1.468 1.336,-2.318 2.544,1.468 m -8.215,-6.773 2.676,0 0,-2.937 -2.675,0 m 397.346,-49.815 c 0.71,0.547 1.38,1.137 2.012,1.766 0.626,0.627 1.215,1.3 1.762,2.012 0.547,-0.71 1.137,-1.385 1.765,-2.013 0.63,-0.63 1.3,-1.22 2.013,-1.767 -0.71,-0.547 -1.384,-1.137 -2.012,-1.766 -0.627,-0.628 -1.217,-1.3 -1.764,-2.01 -0.547,0.71 -1.136,1.384 -1.765,2.01 -0.627,0.63 -1.298,1.22 -2.008,1.766 z m 3.774,8.623 -1.132,-1.795 c -0.726,-1.155 -1.575,-2.22 -2.525,-3.168 -0.948,-0.95 -2.012,-1.8 -3.166,-2.527 l -1.796,-1.132 1.796,-1.132 c 1.15,-0.726 2.218,-1.576 3.165,-2.526 0.95,-0.948 1.798,-2.013 2.524,-3.167 l 1.132,-1.797 1.132,1.797 c 0.726,1.152 1.575,2.22 2.525,3.167 0.95,0.95 2.014,1.8 3.165,2.527 l 1.796,1.133 -1.796,1.132 c -1.15,0.727 -2.216,1.577 -3.165,2.527 -0.95,0.95 -1.8,2.015 -2.525,3.17 l -1.132,1.794 z M 415.51852,71.421546 c -2.012,7.802 -4.743,10.533 -12.538,12.548 7.792,2.016 10.528,4.747 12.538,12.55 2.016,-7.803 4.745,-10.534 12.543,-12.55 -7.796,-2.014 -10.53,-4.745 -12.543,-12.547 m 0,7.42 c 1.287,2.2 2.927,3.842 5.13,5.128 -2.2,1.29 -3.84,2.928 -5.128,5.13 -1.285,-2.202 -2.925,-3.843 -5.13,-5.13 2.202,-1.287 3.843,-2.926 5.128,-5.128 m 179.75,388.892004 4.095,0 0,-2.677 -4.096,0 m -15.013,2.677 4.097,0 0,-2.677 -4.096,0 m 218.749,-142.734 c -0.874,0 -1.586,0.71 -1.586,1.586 0,0.874 0.712,1.587 1.585,1.587 0.872,0 1.584,-0.713 1.584,-1.586 0,-0.875 -0.712,-1.585 -1.585,-1.585 m 0,5.847 c -2.348,0 -4.26,-1.912 -4.26,-4.26 0,-2.352 1.912,-4.265 4.26,-4.265 2.35,0 4.26,1.913 4.26,4.264 0,2.35 -1.91,4.262 -4.26,4.262 m 0.002,10.175 c -0.874,0 -1.586,0.712 -1.586,1.587 0,0.874 0.712,1.586 1.585,1.586 0.872,0 1.584,-0.712 1.584,-1.586 0,-0.875 -0.712,-1.586 -1.585,-1.586 m 0,5.848 c -2.348,0 -4.26,-1.912 -4.26,-4.26 0,-2.352 1.912,-4.264 4.26,-4.264 2.35,0 4.26,1.912 4.26,4.263 0,2.35 -1.91,4.26 -4.26,4.26 m 0.002,10.18 c -0.874,0 -1.586,0.71 -1.586,1.586 0,0.873 0.712,1.586 1.585,1.586 0.872,0 1.584,-0.713 1.584,-1.586 0,-0.876 -0.712,-1.586 -1.585,-1.586 m 0,5.847 c -2.348,0 -4.26,-1.912 -4.26,-4.26 0,-2.352 1.912,-4.265 4.26,-4.265 2.35,0 4.26,1.913 4.26,4.264 0,2.35 -1.91,4.26 -4.26,4.26 m -59.548,-25.304 2.677,0 0,-38.14 -2.676,0"
       id="path136"
       inkscape:connector-curvature="0"
       style="fill:#0c8fd7;fill-rule:evenodd" />
    <path
       mask="none"
       d="m 746.95152,311.95855 -6.158,-12.21 -6.16,12.21 -2.384,-1.208 8.543,-16.943 8.545,16.942 m -365.908,213.672 c -2.13,8.256 -5.02,11.145 -13.27,13.278 8.25,2.134 11.145,5.022 13.27,13.278 2.134,-8.256 5.02,-11.144 13.272,-13.277 -8.25,-2.13 -11.143,-5.02 -13.272,-13.277 m 0,7.532 c 1.414,2.504 3.242,4.333 5.745,5.746 -2.5,1.416 -4.328,3.242 -5.743,5.747 -1.412,-2.505 -3.24,-4.33 -5.745,-5.746 2.503,-1.415 4.33,-3.24 5.743,-5.745 m 222.488,-221.832 c 0.71,0.547 1.384,1.137 2.01,1.766 0.628,0.63 1.218,1.3 1.765,2.01 0.546,-0.71 1.136,-1.38 1.764,-2.01 0.63,-0.63 1.302,-1.22 2.012,-1.766 -0.71,-0.547 -1.383,-1.137 -2.012,-1.766 -0.628,-0.627 -1.218,-1.3 -1.764,-2.01 -0.547,0.71 -1.137,1.383 -1.763,2.01 -0.628,0.63 -1.302,1.22 -2.012,1.767 z m 3.775,8.623 -1.13,-1.797 c -0.73,-1.152 -1.578,-2.217 -2.527,-3.167 -0.946,-0.948 -2.01,-1.8 -3.164,-2.526 l -1.796,-1.133 1.796,-1.132 c 1.153,-0.727 2.218,-1.58 3.167,-2.527 0.947,-0.95 1.796,-2.015 2.525,-3.167 l 1.13,-1.796 1.13,1.797 c 0.728,1.153 1.577,2.22 2.526,3.168 0.95,0.95 2.014,1.8 3.168,2.527 l 1.793,1.132 -1.793,1.133 c -1.154,0.727 -2.218,1.576 -3.168,2.526 -0.95,0.948 -1.798,2.015 -2.525,3.167 l -1.132,1.797 z m -180.848,-37.518 c -0.874,0 -1.586,0.71 -1.586,1.585 0,0.874 0.712,1.584 1.585,1.584 0.87,0 1.584,-0.71 1.584,-1.583 0,-0.875 -0.713,-1.585 -1.585,-1.585 m 0,5.846 c -2.35,0 -4.262,-1.912 -4.262,-4.26 0,-2.352 1.91,-4.264 4.26,-4.264 2.348,0 4.26,1.912 4.26,4.263 0,2.35 -1.912,4.26 -4.26,4.26 m 92.371,115.507 c -0.875,0 -1.585,0.71 -1.585,1.586 0,0.875 0.71,1.587 1.585,1.587 0.873,0 1.585,-0.712 1.585,-1.586 0,-0.874 -0.712,-1.585 -1.585,-1.585 m 0,5.847 c -2.35,0 -4.258,-1.912 -4.258,-4.26 0,-2.352 1.907,-4.264 4.257,-4.264 2.348,0 4.26,1.912 4.26,4.263 0,2.35 -1.912,4.262 -4.26,4.262 m -192.674,24.347 c -0.875,0 -1.585,0.71 -1.585,1.586 0,0.873 0.71,1.586 1.585,1.586 0.873,0 1.585,-0.713 1.585,-1.586 0,-0.876 -0.712,-1.586 -1.585,-1.586 m 0,5.847 c -2.347,0 -4.258,-1.913 -4.258,-4.262 0,-2.35 1.91,-4.264 4.258,-4.264 2.35,0 4.26,1.913 4.26,4.264 0,2.35 -1.91,4.26 -4.26,4.26 m 71.218,-237.687 c -0.873,0 -1.585,0.71 -1.585,1.586 0,0.873 0.712,1.586 1.585,1.586 0.873,0 1.585,-0.713 1.585,-1.586 0,-0.876 -0.712,-1.586 -1.585,-1.586 m 0,5.847 c -2.348,0 -4.26,-1.912 -4.26,-4.26 0,-2.352 1.912,-4.265 4.26,-4.265 2.347,0 4.258,1.913 4.258,4.264 0,2.35 -1.91,4.26 -4.258,4.26 m -302.924997,169.704 c -0.873,0 -1.585,0.71 -1.585,1.587 0,0.873 0.712,1.585 1.585,1.585 0.875,0 1.585,-0.712 1.585,-1.585 0,-0.876 -0.71,-1.586 -1.585,-1.586 m 0,5.848 c -2.348,0 -4.26,-1.913 -4.26,-4.26 0,-2.353 1.912,-4.265 4.26,-4.265 2.347,0 4.257997,1.912 4.257997,4.264 0,2.348 -1.909997,4.26 -4.257997,4.26 m 248.758997,-13.788 c -0.873,0 -1.585,0.71 -1.585,1.584 0,0.874 0.71,1.586 1.584,1.586 0.875,0 1.585,-0.712 1.585,-1.586 0,-0.875 -0.71,-1.585 -1.586,-1.585 m -4.258,1.584 c 0,-2.35 1.91,-4.263 4.258,-4.263 2.35,0 4.26,1.913 4.26,4.264 0,2.35 -1.91,4.26 -4.26,4.26 -2.347,0 -4.258,-1.91 -4.258,-4.26 z"
       id="path138"
       inkscape:connector-curvature="0"
       style="fill:#0c8fd7;fill-rule:evenodd" />
    <path
       d="m 277.81952,330.52355 2.676,0 0,-3.346 -2.675,0 0,3.345 z m 0,6.692 2.676,0 0,-3.347 -2.675,0 0,3.347 z m 0,6.69 2.676,0 0,-3.346 -2.675,0 0,3.348 z m 0,6.693 2.676,0 0,-3.347 -2.675,0 0,3.347 z m 0,6.69 2.676,0 0,-3.346 -2.675,0 0,3.347 z m 0,6.692 2.676,0 0,-3.346 -2.675,0 0,3.346 z m 0,6.692 2.676,0 0,-3.345 -2.675,0 0,3.344 z m 0,6.69 2.676,0 0,-3.346 -2.675,0 0,3.347 z m 0,6.693 2.676,0 0,-3.347 -2.675,0 0,3.347 z m 0,6.69 2.676,0 0,-3.346 -2.675,0 0,3.346 z m 134.071,-30.111 3.345,0 0,-2.678 -3.344,0 0,2.678 z m 6.688,0 3.345,0 0,-2.678 -3.346,0 0,2.678 z m 6.69,0 3.342,0 0,-2.678 -3.342,0 0,2.678 z m 6.685,0 3.344,0 0,-2.678 -3.345,0 0,2.678 z m 6.686,0 3.345,0 0,-2.678 -3.344,0 0,2.678 z m 6.688,0 3.345,0 0,-2.678 -3.346,0 0,2.678 z m 6.687,0 3.346,0 0,-2.678 -3.345,0 0,2.678 z m 6.69,0 3.12,0 0,-2.678 -3.12,0 0,2.678 z m 72.223,2.9 2.677,0 0,-3.347 -2.677,0 0,3.346 z m 0,6.692 2.677,0 0,-3.347 -2.677,0 0,3.348 z m 0,6.69 2.677,0 0,-3.346 -2.677,0 0,3.347 z m 0,6.692 2.677,0 0,-3.347 -2.677,0 0,3.347 z m 0,6.69 2.677,0 0,-3.348 -2.677,0 0,3.347 z m 0,4.24 2.677,0 0,-0.894 -2.677,0 0,0.893 z m 84.329,-58.662 2.676,0 0,-3.344 -2.676,0 0,3.344 z m 0,6.69 2.676,0 0,-3.345 -2.676,0 0,3.346 z m 0,6.693 2.676,0 0,-3.346 -2.676,0 0,3.347 z m 0,5.13 2.676,0 0,-1.785 -2.676,0 0,1.785 z"
       mask="none"
       id="path140"
       inkscape:connector-curvature="0"
       style="fill:#ffffff;fill-rule:evenodd" />
    <path
       d="m 420.00452,351.21455 c -3.413,0 -6.19,2.778 -6.19,6.195 0,3.417 2.777,6.198 6.19,6.198 3.415,0 6.195,-2.78 6.195,-6.197 0,-3.416 -2.78,-6.194 -6.194,-6.194 m 0,15.067 c -4.888,0 -8.866,-3.98 -8.866,-8.872 0,-4.89 3.978,-8.872 8.867,-8.872 4.89,0 8.868,3.98 8.868,8.873 0,4.893 -3.978,8.873 -8.867,8.873"
       mask="none"
       id="path142"
       inkscape:connector-curvature="0"
       style="fill:#000000;fill-rule:evenodd" />
  </g>
</svg>
