<svg xmlns="http://www.w3.org/2000/svg" width="16" height="16" viewBox="0 0 16 16"><g style="line-height:125%;-inkscape-font-specification:'DejaVu Sans, Normal';text-align:start" fill="#fff" font-family="DejaVu Sans" font-size="2474.955" font-weight="400" letter-spacing="0" transform="matrix(.00532 0 0 .00532 3.072 24.366)" word-spacing="0"><circle cx="925.714" cy="-3074.495" r="1502.857" fill="#0082c9" fill-rule="evenodd"/><path d="M1862.652-3132.754c0-70.536-57.662-119.945-127.764-127.764h-623.15v-623.15c0-70.537-57.229-127.765-127.765-127.765H867.455c-70.536 0-127.764 57.228-127.764 127.764v623.151h-623.15c-70.537 0-127.765 57.228-127.765 127.764v116.518c0 70.536 57.228 127.764 127.764 127.764h623.151v623.15c0 70.537 57.228 127.765 127.764 127.765h116.518c70.536 0 119.945-57.662 127.764-127.764v-623.15h623.151c70.537 0 127.764-57.229 127.764-127.765z" font-family="Open Sans" font-size="2525.027" style="-inkscape-font-specification:'Open Sans'"/></g></svg>