<svg width="203" height="173" viewBox="0 0 203 173" xmlns="http://www.w3.org/2000/svg"><title>130D2315-2512-4288-844B-56D6978CB10E</title><g fill="none" fill-rule="evenodd"><path fill="#FFF" d="M1 171.659h200.131v-6.079H1z"/><path stroke="#1385E0" stroke-width="2" d="M1 171.659h200.131v-6.079H1z"/><path fill="#FFF" d="M12.852 165.58h176.427v-6.079H12.852z"/><path stroke="#1385E0" stroke-width="2" d="M12.852 165.58h176.427v-6.079H12.852z"/><path fill="#C4E1F8" d="M28.616 159.5h144.9v-6.079h-144.9z"/><path stroke="#1385E0" stroke-width="2" d="M28.616 159.5h144.9v-6.079h-144.9z"/><path fill="#FFF" d="M53.728 153.421h94.676v-6.079H53.728z"/><path stroke="#1385E0" stroke-width="2" d="M53.728 153.421h94.676v-6.079H53.728z"/><path fill="#FFF" d="M29.397 153.421h6.079v-95.81h-6.079z"/><path stroke="#1385E0" stroke-width="2" d="M29.397 153.421h6.079v-95.81h-6.079z"/><path fill="#C4E1F8" d="M43.561 153.421h6.079v-95.81h-6.079z"/><path stroke="#1385E0" stroke-width="2" d="M43.561 153.421h6.079v-95.81h-6.079z"/><path fill="#FFF" d="M55.213 147.342h6.079V75.391h-6.079z"/><path stroke="#1385E0" stroke-width="2" d="M55.213 147.342h6.079V75.391h-6.079z"/><path fill="#C4E1F8" d="M61.292 147.342h6.079V75.391h-6.079z"/><path stroke="#1385E0" stroke-width="2" d="M61.292 147.342h6.079V75.391h-6.079z"/><path fill="#FFF" d="M73.45 147.342h-6.078V75.39h6.079"/><path stroke="#1385E0" stroke-width="2" d="M73.45 147.342h-6.078V75.39h6.079"/><path fill="#FFF" d="M73.45 75.391h6.08v71.951h-6.08"/><path stroke="#1385E0" stroke-width="2" d="M73.45 75.391h6.08v71.951h-6.08"/><path fill="#FFF" d="M79.53 147.342h6.079V75.391H79.53z"/><path stroke="#1385E0" stroke-width="2" d="M79.53 147.342h6.079V75.391H79.53z"/><path fill="#FFF" d="M91.688 147.342H85.61V75.39h6.08"/><path stroke="#1385E0" stroke-width="2" d="M91.688 147.342H85.61V75.39h6.08"/><path fill="#FFF" d="M97.768 147.342h6.079V75.391h-6.079z"/><path stroke="#1385E0" stroke-width="2" d="M97.768 147.342h6.079V75.391h-6.079z"/><path fill="#FFF" d="M109.926 147.342h-6.079V75.39h6.08"/><path stroke="#1385E0" stroke-width="2" d="M109.926 147.342h-6.079V75.39h6.08"/><path fill="#FFF" d="M116.006 147.342h6.079V75.391h-6.079z"/><path stroke="#1385E0" stroke-width="2" d="M116.006 147.342h6.079V75.391h-6.079z"/><path fill="#FFF" d="M128.164 147.342h-6.079V75.39h6.08"/><path stroke="#1385E0" stroke-width="2" d="M128.164 147.342h-6.079V75.39h6.08"/><path fill="#C4E1F8" d="M139.911 75.391h-6.079v71.951h6.08"/><path stroke="#1385E0" stroke-width="2" d="M139.911 75.391h-6.079v71.951h6.08"/><path fill="#FFF" d="M140.323 147.342h6.079V75.391h-6.079z"/><path stroke="#1385E0" stroke-width="2" d="M140.323 147.342h6.079V75.391h-6.079z"/><path fill="#C4E1F8" d="M153.273 153.421h6.079v-95.81h-6.079z"/><path stroke="#1385E0" stroke-width="2" d="M153.273 153.421h6.079v-95.81h-6.079z"/><path fill="#FFF" d="M167.437 153.273h6.079V57.611h-6.079z"/><path stroke="#1385E0" stroke-width="2" d="M167.437 153.273h6.079V57.611h-6.079z"/><path fill="#C4E1F8" d="M29.397 57.316h144.119v-6.079H29.397z"/><path stroke="#1385E0" stroke-width="2" d="M29.397 57.316h144.119v-6.079H29.397z"/><path fill="#FFF" d="M43.561 51.237h115.791v-9.563H43.561z"/><path stroke="#1385E0" stroke-width="2" d="M43.561 51.237h115.791v-9.563H43.561z"/><path fill="#FFF" d="M52.28 75.391h97.054v-6.079H52.28z"/><path stroke="#1385E0" stroke-width="2" d="M52.28 75.391h97.054v-6.079H52.28z"/><g><path d="M43.56 41.24C43.56 19.018 69.483 1 101.458 1c31.974 0 57.895 18.017 57.895 40.24" fill="#C4E1F8"/><path d="M43.56 41.24C43.56 19.018 69.483 1 101.458 1c31.974 0 57.895 18.017 57.895 40.24" stroke="#1385E0" stroke-width="2"/><path fill="#FFF" d="M53.95 69.312l46.857-46.858 46.858 46.858z"/><path stroke="#1385E0" stroke-width="2" d="M53.95 69.312l46.857-46.858 46.858 46.858z"/></g></g></svg>