<?xml version="1.0" encoding="UTF-8"?>
<svg width="203px" height="173px" viewBox="0 0 203 173" version="1.1" xmlns="http://www.w3.org/2000/svg" xmlns:xlink="http://www.w3.org/1999/xlink">
    <!-- Generator: sketchtool 40 (33762) - http://www.bohemiancoding.com/sketch -->
    <title>130D2315-2512-4288-844B-56D6978CB10E</title>
    <desc>Created with sketchtool.</desc>
    <defs></defs>
    <g id="ENTERPRISE" stroke="none" stroke-width="1" fill="none" fill-rule="evenodd">
        <g transform="translate(-362.000000, -2116.000000)" id="DISCOUNTS">
            <g transform="translate(245.000000, 1985.000000)">
                <g id="Group" transform="translate(0.000000, 95.000000)">
                    <g id="PUBLIC-SECTOR" transform="translate(36.000000, 36.000000)">
                        <g id="Page-1" transform="translate(82.000000, 0.000000)">
                            <polygon id="Fill-1" fill="#FFFFFF" points="0 171.659 200.131 171.659 200.131 165.58 0 165.58"></polygon>
                            <polygon id="Stroke-2" stroke="#1385E0" stroke-width="2" points="0 171.659 200.131 171.659 200.131 165.58 0 165.58"></polygon>
                            <polygon id="Fill-4" fill="#FFFFFF" points="11.852 165.58 188.279 165.58 188.279 159.501 11.852 159.501"></polygon>
                            <polygon id="Stroke-5" stroke="#1385E0" stroke-width="2" points="11.852 165.58 188.279 165.58 188.279 159.501 11.852 159.501"></polygon>
                            <polygon id="Fill-6" fill="#C4E1F8" points="27.616 159.5 172.516 159.5 172.516 153.421 27.616 153.421"></polygon>
                            <polygon id="Stroke-7" stroke="#1385E0" stroke-width="2" points="27.616 159.5 172.516 159.5 172.516 153.421 27.616 153.421"></polygon>
                            <polygon id="Fill-8" fill="#FFFFFF" points="52.728 153.421 147.404 153.421 147.404 147.342 52.728 147.342"></polygon>
                            <polygon id="Stroke-9" stroke="#1385E0" stroke-width="2" points="52.728 153.421 147.404 153.421 147.404 147.342 52.728 147.342"></polygon>
                            <polygon id="Fill-10" fill="#FFFFFF" points="28.397 153.421 34.476 153.421 34.476 57.611 28.397 57.611"></polygon>
                            <polygon id="Stroke-11" stroke="#1385E0" stroke-width="2" points="28.397 153.421 34.476 153.421 34.476 57.611 28.397 57.611"></polygon>
                            <polygon id="Fill-12" fill="#C4E1F8" points="42.561 153.421 48.64 153.421 48.64 57.611 42.561 57.611"></polygon>
                            <polygon id="Stroke-13" stroke="#1385E0" stroke-width="2" points="42.561 153.421 48.64 153.421 48.64 57.611 42.561 57.611"></polygon>
                            <polygon id="Fill-14" fill="#FFFFFF" points="54.213 147.342 60.292 147.342 60.292 75.391 54.213 75.391"></polygon>
                            <polygon id="Stroke-15" stroke="#1385E0" stroke-width="2" points="54.213 147.342 60.292 147.342 60.292 75.391 54.213 75.391"></polygon>
                            <polygon id="Fill-16" fill="#C4E1F8" points="60.292 147.342 66.371 147.342 66.371 75.391 60.292 75.391"></polygon>
                            <polygon id="Stroke-17" stroke="#1385E0" stroke-width="2" points="60.292 147.342 66.371 147.342 66.371 75.391 60.292 75.391"></polygon>
                            <g id="Group-20" transform="translate(66.000000, 74.659000)">
                                <polyline id="Fill-18" fill="#FFFFFF" points="6.4505 72.6827 0.3715 72.6827 0.3715 0.7317 6.4505 0.7317"></polyline>
                                <polyline id="Stroke-19" stroke="#1385E0" stroke-width="2" points="6.4505 72.6827 0.3715 72.6827 0.3715 0.7317 6.4505 0.7317"></polyline>
                            </g>
                            <g id="Group-23" transform="translate(72.000000, 74.659000)">
                                <polyline id="Fill-21" fill="#FFFFFF" points="0.4505 0.7321 6.5295 0.7321 6.5295 72.6831 0.4505 72.6831"></polyline>
                                <polyline id="Stroke-22" stroke="#1385E0" stroke-width="2" points="0.4505 0.7321 6.5295 0.7321 6.5295 72.6831 0.4505 72.6831"></polyline>
                            </g>
                            <polygon id="Fill-24" fill="#FFFFFF" points="78.53 147.342 84.609 147.342 84.609 75.391 78.53 75.391"></polygon>
                            <polygon id="Stroke-25" stroke="#1385E0" stroke-width="2" points="78.53 147.342 84.609 147.342 84.609 75.391 78.53 75.391"></polygon>
                            <g id="Group-28" transform="translate(84.000000, 74.659000)">
                                <polyline id="Fill-26" fill="#FFFFFF" points="6.6884 72.6827 0.6094 72.6827 0.6094 0.7317 6.6884 0.7317"></polyline>
                                <polyline id="Stroke-27" stroke="#1385E0" stroke-width="2" points="6.6884 72.6827 0.6094 72.6827 0.6094 0.7317 6.6884 0.7317"></polyline>
                            </g>
                            <polygon id="Fill-29" fill="#FFFFFF" points="96.768 147.342 102.847 147.342 102.847 75.391 96.768 75.391"></polygon>
                            <polygon id="Stroke-30" stroke="#1385E0" stroke-width="2" points="96.768 147.342 102.847 147.342 102.847 75.391 96.768 75.391"></polygon>
                            <g id="Group-33" transform="translate(102.000000, 74.659000)">
                                <polyline id="Fill-31" fill="#FFFFFF" points="6.9264 72.6827 0.8474 72.6827 0.8474 0.7317 6.9264 0.7317"></polyline>
                                <polyline id="Stroke-32" stroke="#1385E0" stroke-width="2" points="6.9264 72.6827 0.8474 72.6827 0.8474 0.7317 6.9264 0.7317"></polyline>
                            </g>
                            <polygon id="Fill-34" fill="#FFFFFF" points="115.006 147.342 121.085 147.342 121.085 75.391 115.006 75.391"></polygon>
                            <polygon id="Stroke-35" stroke="#1385E0" stroke-width="2" points="115.006 147.342 121.085 147.342 121.085 75.391 115.006 75.391"></polygon>
                            <g id="Group-38" transform="translate(121.000000, 74.659000)">
                                <polyline id="Fill-36" fill="#FFFFFF" points="6.1643 72.6827 0.0853 72.6827 0.0853 0.7317 6.1643 0.7317"></polyline>
                                <polyline id="Stroke-37" stroke="#1385E0" stroke-width="2" points="6.1643 72.6827 0.0853 72.6827 0.0853 0.7317 6.1643 0.7317"></polyline>
                            </g>
                            <g id="Group-41" transform="translate(132.000000, 74.659000)">
                                <polyline id="Fill-39" fill="#C4E1F8" points="6.9114 0.7321 0.8324 0.7321 0.8324 72.6831 6.9114 72.6831"></polyline>
                                <polyline id="Stroke-40" stroke="#1385E0" stroke-width="2" points="6.9114 0.7321 0.8324 0.7321 0.8324 72.6831 6.9114 72.6831"></polyline>
                            </g>
                            <polygon id="Fill-42" fill="#FFFFFF" points="139.323 147.342 145.402 147.342 145.402 75.391 139.323 75.391"></polygon>
                            <polygon id="Stroke-43" stroke="#1385E0" stroke-width="2" points="139.323 147.342 145.402 147.342 145.402 75.391 139.323 75.391"></polygon>
                            <polygon id="Fill-44" fill="#C4E1F8" points="152.273 153.421 158.352 153.421 158.352 57.611 152.273 57.611"></polygon>
                            <polygon id="Stroke-45" stroke="#1385E0" stroke-width="2" points="152.273 153.421 158.352 153.421 158.352 57.611 152.273 57.611"></polygon>
                            <polygon id="Fill-46" fill="#FFFFFF" points="166.437 153.273 172.516 153.273 172.516 57.611 166.437 57.611"></polygon>
                            <polygon id="Stroke-47" stroke="#1385E0" stroke-width="2" points="166.437 153.273 172.516 153.273 172.516 57.611 166.437 57.611"></polygon>
                            <polygon id="Fill-48" fill="#C4E1F8" points="28.397 57.316 172.516 57.316 172.516 51.237 28.397 51.237"></polygon>
                            <polygon id="Stroke-49" stroke="#1385E0" stroke-width="2" points="28.397 57.316 172.516 57.316 172.516 51.237 28.397 51.237"></polygon>
                            <polygon id="Fill-50" fill="#FFFFFF" points="42.561 51.237 158.352 51.237 158.352 41.674 42.561 41.674"></polygon>
                            <polygon id="Stroke-51" stroke="#1385E0" stroke-width="2" points="42.561 51.237 158.352 51.237 158.352 41.674 42.561 41.674"></polygon>
                            <polygon id="Fill-52" fill="#FFFFFF" points="51.28 75.391 148.334 75.391 148.334 69.312 51.28 69.312"></polygon>
                            <polygon id="Stroke-53" stroke="#1385E0" stroke-width="2" points="51.28 75.391 148.334 75.391 148.334 69.312 51.28 69.312"></polygon>
                            <g id="Group-62" transform="translate(42.000000, 0.659000)">
                                <g id="Group-57">
                                    <path d="M0.5609,40.5819 C0.5609,18.3579 26.4819,0.3409 58.4569,0.3409 C90.4309,0.3409 116.3519,18.3579 116.3519,40.5819" id="Fill-54" fill="#C4E1F8"></path>
                                    <path d="M0.5609,40.5819 C0.5609,18.3579 26.4819,0.3409 58.4569,0.3409 C90.4309,0.3409 116.3519,18.3579 116.3519,40.5819" id="Stroke-56" stroke="#1385E0" stroke-width="2"></path>
                                </g>
                                <polygon id="Fill-58" fill="#FFFFFF" points="10.9493 68.6527 57.8073 21.7947 104.6653 68.6527"></polygon>
                                <polygon id="Stroke-60" stroke="#1385E0" stroke-width="2" points="10.9493 68.6527 57.8073 21.7947 104.6653 68.6527"></polygon>
                            </g>
                        </g>
                    </g>
                </g>
            </g>
        </g>
    </g>
</svg>