<?xml version="1.0" encoding="UTF-8" standalone="no"?>
<svg
   xmlns:dc="http://purl.org/dc/elements/1.1/"
   xmlns:cc="http://creativecommons.org/ns#"
   xmlns:rdf="http://www.w3.org/1999/02/22-rdf-syntax-ns#"
   xmlns:svg="http://www.w3.org/2000/svg"
   xmlns="http://www.w3.org/2000/svg"
   xmlns:sodipodi="http://sodipodi.sourceforge.net/DTD/sodipodi-0.dtd"
   xmlns:inkscape="http://www.inkscape.org/namespaces/inkscape"
   width="811"
   height="607"
   viewBox="0 0 811 607"
   id="svg2"
   version="1.1"
   inkscape:version="0.91 r13725"
   sodipodi:docname="security-new.svg">
  <metadata
     id="metadata248">
    <rdf:RDF>
      <cc:Work
         rdf:about="">
        <dc:format>image/svg+xml</dc:format>
        <dc:type
           rdf:resource="http://purl.org/dc/dcmitype/StillImage" />
      </cc:Work>
    </rdf:RDF>
  </metadata>
  <defs
     id="defs246" />
  <sodipodi:namedview
     pagecolor="#ffffff"
     bordercolor="#666666"
     borderopacity="1"
     objecttolerance="10"
     gridtolerance="10"
     guidetolerance="10"
     inkscape:pageopacity="0"
     inkscape:pageshadow="2"
     inkscape:window-width="2560"
     inkscape:window-height="1353"
     id="namedview244"
     showgrid="false"
     inkscape:snap-bbox="true"
     inkscape:bbox-paths="true"
     inkscape:bbox-nodes="true"
     inkscape:snap-bbox-edge-midpoints="true"
     inkscape:snap-bbox-midpoints="true"
     inkscape:object-nodes="true"
     inkscape:zoom="1.5551894"
     inkscape:cx="331.53588"
     inkscape:cy="544.92654"
     inkscape:window-x="0"
     inkscape:window-y="348"
     inkscape:window-maximized="1"
     inkscape:current-layer="svg2" />
  <title
     id="title4">Page 1</title>
  <g
     fill="none"
     fill-rule="evenodd"
     id="g6">
    <path
       inkscape:connector-curvature="0"
       style="fill:#0c8fd7"
       d="m 365.372,51.255 c -0.996,0 -1.804,-0.808 -1.804,-1.807 0,-0.996 0.808,-1.806 1.804,-1.806 l 20.21,0 c 0.997,0 1.805,0.81 1.805,1.805 0,0.998 -0.808,1.806 -1.804,1.806 l -20.21,0 z"
       id="path64-9"
       sodipodi:nodetypes="cssssscc" />
    <path
       inkscape:connector-curvature="0"
       style="fill:#0c8fd7"
       d="m 204.296,107.275 c -0.998,0 -1.81,-0.808 -1.81,-1.805 0,-1 0.812,-1.81 1.81,-1.81 l 23.466,0 c 1,0 1.805,0.81 1.805,1.81 0,0.996 -0.806,1.804 -1.805,1.804 l -23.466,0 z m 53.599,39.896 0,-7.17 c 0,-0.997 0.81,-1.805 1.807,-1.805 1,0 1.81,0.808 1.81,1.806 l 0,7.17 c 0,0.995 -0.81,1.807 -1.81,1.807 -0.996,0 -1.807,-0.812 -1.807,-1.807 m 18.755,28.519 c -0.998,0 -1.806,-0.808 -1.806,-1.805 0,-0.997 0.808,-1.807 1.806,-1.807 l 22.163,0 c 1,0 1.807,0.81 1.807,1.807 0,0.997 -0.808,1.805 -1.807,1.805 z"
       id="path70-9"
       sodipodi:nodetypes="cssssscccssssscsssssss" />
    <path
       inkscape:connector-curvature="0"
       style="fill:#0c8fd7"
       d="m 13.205003,455.164 c -1,0 -1.806,-0.806 -1.806,-1.802 0,-1 0.806,-1.808 1.805,-1.808 l 20.859997,0 c 0.998,0 1.806,0.808 1.806,1.808 0,0.996 -0.807,1.802 -1.804,1.802 l -20.859997,0 z M 43.843,224.329 c -1,0 -1.808,-0.808 -1.808,-1.805 0,-1 0.81,-1.807 1.808,-1.807 l 23.464,0 c 0.997,0 1.807,0.808 1.807,1.807 0,0.997 -0.81,1.804 -1.807,1.804 l -23.464,0 z"
       id="path88-5"
       sodipodi:nodetypes="sssssscscssssscc" />
    <g
       id="g4622"
       transform="translate(-920.5385,12.37497)">
      <path
         id="path186-0"
         d="m 1369.0715,238.19503 c -1.332,0 -2.41,-1.078 -2.41,-2.408 0,-1.33 1.078,-2.408 2.41,-2.408 l 48.78,0 c 1.33,0 2.41,1.08 2.41,2.408 0,1.33 -1.08,2.408 -2.41,2.408 l -48.78,0 z m 0,18.66 c -1.332,0 -2.41,-1.08 -2.41,-2.41 0,-1.33 1.078,-2.407 2.41,-2.407 l 38.33,0 c 1.332,0 2.41,1.078 2.41,2.406 0,1.33 -1.078,2.41 -2.41,2.41 l -38.33,0 z m 0,-27.99 c -1.332,0 -2.41,-1.08 -2.41,-2.408 0,-1.33 1.078,-2.407 2.41,-2.407 l 30.496,0 c 1.33,0 2.408,1.076 2.408,2.407 0,1.328 -1.077,2.408 -2.41,2.408 l -30.495,0 z m 0,18.66 c -1.332,0 -2.41,-1.08 -2.41,-2.408 0,-1.33 1.078,-2.41 2.41,-2.41 l 17.788,0 c 1.332,0 2.412,1.08 2.412,2.41 0,1.327 -1.08,2.408 -2.41,2.408 l -17.79,0 z m 99.967,9.328 c -1.33,0 -2.407,-1.078 -2.407,-2.41 0,-1.328 1.076,-2.405 2.408,-2.405 l 2.178,0 c 1.332,0 2.41,1.077 2.41,2.406 0,1.33 -1.078,2.408 -2.41,2.408 l -2.179,0 z m -11.35,0 c -1.332,0 -2.41,-1.077 -2.41,-2.408 0,-1.332 1.078,-2.407 2.41,-2.407 l 2.18,0 c 1.33,0 2.41,1.075 2.41,2.407 0,1.33 -1.08,2.408 -2.41,2.408 l -2.18,0 z m 22.697,0.002 c -1.33,0 -2.41,-1.08 -2.41,-2.408 0,-1.332 1.08,-2.408 2.41,-2.408 l 2.18,0 c 1.332,0 2.41,1.076 2.41,2.408 0,1.328 -1.078,2.407 -2.41,2.407 l -2.18,0 z m 11.351,0 c -1.33,0 -2.41,-1.08 -2.41,-2.41 0,-1.33 1.08,-2.407 2.41,-2.407 l 2.178,0 c 1.33,0 2.408,1.077 2.408,2.407 0,1.33 -1.077,2.41 -2.408,2.41 l -2.178,0 z m -43.464,-27.99 c -1.332,0 -2.41,-1.078 -2.41,-2.41 0,-1.33 1.078,-2.407 2.41,-2.407 l 2.18,0 c 1.328,0 2.406,1.078 2.406,2.408 0,1.332 -1.078,2.41 -2.406,2.41 l -2.18,0 z m 10.534,0 c -1.33,0 -2.407,-1.08 -2.407,-2.408 0,-1.33 1.078,-2.407 2.408,-2.407 l 2.18,0 c 1.328,0 2.408,1.076 2.408,2.407 0,1.328 -1.08,2.408 -2.41,2.408 l -2.178,0 z m 20.797,5.527 c 0,3.286 2.667,5.942 5.95,5.946 3.286,-0.004 5.944,-2.66 5.95,-5.946 l 0,0 c -0.01,-3.282 -2.667,-5.94 -5.953,-5.946 -3.283,0.008 -5.946,2.667 -5.95,5.947 m -4.82,0 c 0,-5.945 4.824,-10.76 10.77,-10.76 5.947,0 10.767,4.815 10.767,10.76 l 0,0 c 0,5.946 -4.822,10.764 -10.77,10.764 -5.947,0 -10.765,-4.817 -10.768,-10.763"
         style="fill:#212121"
         inkscape:connector-curvature="0" />
      <path
         id="path188-8"
         d="m 1483.1445,234.39303 0,-8.356 c 0,-1.328 1.08,-2.407 2.41,-2.407 1.33,0 2.406,1.08 2.406,2.407 l 0,8.356 c 0,1.33 -1.077,2.41 -2.406,2.41 -1.33,0 -2.41,-1.08 -2.41,-2.41"
         style="fill:#212121"
         inkscape:connector-curvature="0" />
      <path
         sodipodi:nodetypes="ccccccccccccccscscssssscscccsssssssssssssscssssscccsssssccssssssscssssscccssssscccsssssccssssssscsssssccccccccccccsc"
         id="path190-1"
         d="m 1365.8377,254.54066 0.5195,10.51437 139.6513,0 0,-49.622 -149.037,0 0,28.11062 8.8662,10.99501 z m 142.5798,12.91937 0,-2.406 0,2.405 z m -144.933,-13.95832 c -0.635,0 -1.253,-0.257 -1.703,-0.705 -0.448,-0.448 -0.3025,-1.21208 -0.706,-1.705 l -8.923,-10.90129 0,-27.16739 c 0,-0.634 0.258,-1.254 0.707,-1.704 0.45,-0.45 1.07,-0.705 1.704,-0.705 l 153.855,0 c 0.633,0 1.256,0.258 1.702,0.704 0.45,0.45 0.708,1.07 0.708,1.704 l 0,54.437 c 0,0.637 -0.258,1.257 -0.708,1.704 -0.45,0.448 -1.07,0.704 -1.703,0.704 l -142.1172,0 -2.8158,-16.36832 z m 3.587,39.12932 c -1.332,0 -2.41,-1.078 -2.41,-2.408 0,-1.33 1.078,-2.406 2.41,-2.406 l 50.78,0 c 1.33,0 2.41,1.077 2.41,2.406 0,1.33 -1.08,2.408 -2.41,2.408 z m 18,18.66 c -1.332,0 -2.41,-1.077 -2.41,-2.408 0,-1.33 1.078,-2.408 2.41,-2.408 l 22.33,0 c 1.332,0 2.41,1.077 2.41,2.408 0,1.33 -1.078,2.408 -2.41,2.408 z m -18,-27.991 c -1.332,0 -2.41,-1.077 -2.41,-2.406 0,-1.332 1.078,-2.41 2.41,-2.41 l 32.496,0 c 1.33,0 2.408,1.078 2.408,2.41 0,1.328 -1.077,2.405 -2.41,2.405 l -32.495,0 z m 14,18.661 c -0.4479,-1.04489 -2.41,-1.077 -2.41,-2.405 0,-1.33 1.078,-2.41 2.41,-2.41 l 5.788,0 c 1.332,0 2.412,1.08 2.412,2.41 0,1.33 -1.08,2.406 -2.41,2.406 l -5.79,-0.001 z m 87.967,9.33 c -1.33,0 -2.407,-1.077 -2.407,-2.408 0,-1.33 1.076,-2.408 2.408,-2.408 l 2.178,0 c 1.332,0 2.41,1.077 2.41,2.408 0,1.33 -1.078,2.408 -2.41,2.408 z m -11.35,0.002 c -1.332,0 -2.41,-1.08 -2.41,-2.407 0,-1.333 1.078,-2.408 2.41,-2.408 l 2.18,0 c 1.33,0 2.41,1.075 2.41,2.41 0,1.327 -1.08,2.406 -2.41,2.406 l -2.18,0 z m 22.697,0 c -1.33,0 -2.41,-1.082 -2.41,-2.407 0,-1.333 1.08,-2.408 2.41,-2.408 l 2.18,0 c 1.332,0 2.41,1.075 2.41,2.41 0,1.324 -1.078,2.406 -2.41,2.406 l -2.18,0 z m 11.351,0 c -1.33,0 -2.41,-1.08 -2.41,-2.407 0,-1.336 1.08,-2.408 2.41,-2.408 l 2.178,0 c 1.33,0 2.408,1.072 2.408,2.41 0,1.327 -1.077,2.406 -2.408,2.406 l -2.178,0 z m -43.464,-27.992 c -1.332,0 -2.41,-1.078 -2.41,-2.406 0,-1.332 1.078,-2.408 2.41,-2.408 l 2.18,0 c 1.328,0 2.406,1.076 2.406,2.408 0,1.328 -1.078,2.406 -2.406,2.406 z m 10.534,-0.001 c -1.33,0 -2.407,-1.077 -2.407,-2.406 0,-1.332 1.078,-2.41 2.408,-2.41 l 2.18,0 c 1.328,0 2.408,1.078 2.408,2.41 0,1.328 -1.08,2.405 -2.41,2.405 l -2.178,0 z m 20.797,5.532 c 0,3.282 2.667,5.938 5.95,5.944 3.286,-0.005 5.944,-2.66 5.953,-5.943 l 0,0 c -0.01,-3.286 -2.664,-5.942 -5.95,-5.947 -3.283,0.005 -5.946,2.66 -5.95,5.947 m -4.82,0 c 0,-5.945 4.822,-10.76 10.77,-10.764 5.947,0 10.767,4.82 10.77,10.764 l 0,0 c 0,5.944 -4.82,10.76 -10.767,10.76 -5.946,0 -10.766,-4.816 -10.77,-10.76"
         style="fill:#212121"
         inkscape:connector-curvature="0" />
      <path
         id="path192-9"
         d="m 1483.1445,288.83103 0,-8.355 c 0,-1.33 1.08,-2.407 2.41,-2.407 1.33,0 2.406,1.077 2.406,2.408 l 0,8.356 c 0,1.33 -1.077,2.408 -2.406,2.408 -1.33,0 -2.41,-1.077 -2.41,-2.408"
         style="fill:#212121"
         inkscape:connector-curvature="0" />
      <path
         sodipodi:nodetypes="cssssscccssssscccsssssccssssssscssssscccssssscccssssscccsssssccssssssssssssscsccccccccsc"
         id="path194-9"
         d="m 1385.0715,347.07103 c -1.332,0 -2.41,-1.08 -2.41,-2.41 0,-1.33 1.078,-2.406 2.41,-2.406 l 32.78,0 c 1.33,0 2.41,1.076 2.41,2.405 0,1.332 -1.08,2.41 -2.41,2.41 l -32.78,0 z m 0,18.657 c -1.332,0 -2.41,-1.08 -2.41,-2.41 0,-1.328 1.078,-2.406 2.41,-2.406 l 22.33,0 c 1.332,0 2.41,1.078 2.41,2.407 0,1.33 -1.078,2.41 -2.41,2.41 l -22.33,0 z m 0,-27.989 c -1.332,0 -2.41,-1.08 -2.41,-2.41 0,-1.33 1.078,-2.405 2.41,-2.405 l 14.496,0 c 1.33,0 2.408,1.073 2.408,2.405 0,1.328 -1.077,2.41 -2.41,2.41 l -14.495,0 z m 0,18.662 c -1.332,0 -2.41,-1.08 -2.41,-2.408 0,-1.333 1.078,-2.41 2.41,-2.41 l 1.788,0 c 1.332,0 2.412,1.077 2.412,2.41 0,1.33 -1.08,2.408 -2.41,2.408 z m 83.967,9.327 c -1.33,0 -2.407,-1.077 -2.407,-2.41 0,-1.33 1.076,-2.405 2.408,-2.405 l 2.178,0 c 1.332,0 2.41,1.074 2.41,2.406 0,1.332 -1.078,2.41 -2.41,2.41 l -2.179,0 z m -11.35,0 c -1.332,0 -2.41,-1.08 -2.41,-2.41 0,-1.328 1.078,-2.405 2.41,-2.405 l 2.18,0 c 1.33,0 2.41,1.077 2.41,2.406 0,1.33 -1.08,2.41 -2.41,2.41 l -2.18,0 z m 22.697,0 c -1.33,0 -2.41,-1.077 -2.41,-2.41 0,-1.33 1.08,-2.406 2.41,-2.406 l 2.18,0 c 1.332,0 2.41,1.075 2.41,2.407 0,1.332 -1.078,2.41 -2.41,2.41 l -2.18,0 z m 11.351,0 c -1.33,0 -2.41,-1.08 -2.41,-2.41 0,-1.33 1.08,-2.405 2.41,-2.405 l 2.178,0 c 1.33,0 2.408,1.074 2.408,2.406 0,1.33 -1.077,2.41 -2.408,2.41 l -2.178,0 z m -43.464,-27.989 c -1.332,0 -2.41,-1.08 -2.41,-2.406 0,-1.335 1.078,-2.41 2.41,-2.41 l 2.18,0 c 1.328,0 2.406,1.075 2.406,2.41 0,1.325 -1.078,2.406 -2.406,2.406 z m 10.534,0 c -1.33,0 -2.407,-1.08 -2.407,-2.406 0,-1.335 1.078,-2.41 2.408,-2.41 l 2.18,0 c 1.328,0 2.408,1.075 2.408,2.41 0,1.325 -1.08,2.406 -2.41,2.406 l -2.178,0 z m 20.795,5.531 c 0.01,3.28 2.67,5.938 5.953,5.944 3.286,-0.007 5.943,-2.665 5.95,-5.945 -0.01,-3.285 -2.664,-5.94 -5.95,-5.946 -3.284,0.005 -5.944,2.66 -5.953,5.945 m -4.816,0 c 0,-5.946 4.822,-10.762 10.77,-10.764 5.946,0.003 10.764,4.82 10.767,10.765 0,5.944 -4.82,10.762 -10.768,10.762 -5.947,0 -10.77,-4.818 -10.77,-10.762"
         style="fill:#212121"
         inkscape:connector-curvature="0" />
      <path
         id="path196-7"
         d="m 1483.1445,343.27003 0,-8.353 c 0,-1.332 1.08,-2.41 2.41,-2.41 1.33,0 2.406,1.078 2.406,2.41 l 0,8.353 c 0,1.328 -1.077,2.408 -2.406,2.408 -1.33,0 -2.41,-1.08 -2.41,-2.408"
         style="fill:#212121"
         inkscape:connector-curvature="0" />
      <path
         sodipodi:nodetypes="ccccccccccssssscsscscc"
         id="path198-8"
         d="m 1386.9725,373.92503 119.036,0 0,-49.62 -119.036,0 z m 121.445,2.412 0,-2.41 z m -123.856,2.406 c -0.635,0 -1.253,-0.257 -1.703,-0.702 -0.448,-0.45 -0.706,-1.072 -0.706,-1.704 l 0,-54.44 c 0,-0.634 0.258,-1.254 0.707,-1.703 0.45,-0.45 1.07,-0.706 1.704,-0.706 l 123.855,0 c 0.633,0 1.256,0.256 1.702,0.705 0.45,0.448 0.708,1.068 0.708,1.7 l 0,54.442 c 0,0.632 -0.258,1.255 -0.708,1.704 -0.45,0.445 -1.07,0.702 -1.703,0.702 l -123.856,0 z"
         style="fill:#212121"
         inkscape:connector-curvature="0" />
      <path
         id="path202-2"
         d="m 1155.2855,238.19303 c -1.332,0 -2.412,-1.078 -2.412,-2.406 0,-1.332 1.08,-2.408 2.412,-2.408 l 48.78,0 c 1.33,0 2.408,1.076 2.408,2.408 0,1.328 -1.078,2.406 -2.408,2.406 l -48.78,0 z m 0,18.66 c -1.33,0 -2.41,-1.078 -2.41,-2.408 0,-1.332 1.08,-2.407 2.41,-2.407 l 38.332,0 c 1.33,0 2.41,1.075 2.41,2.407 0,1.33 -1.08,2.408 -2.41,2.408 l -38.332,0 z m 0,-27.988 c -1.33,0 -2.412,-1.08 -2.412,-2.408 0,-1.332 1.083,-2.41 2.412,-2.41 l 30.496,0 c 1.33,0 2.407,1.078 2.407,2.41 0,1.328 -1.077,2.407 -2.407,2.407 l -30.496,0 z m 0,18.658 c -1.33,0 -2.41,-1.077 -2.41,-2.407 0,-1.33 1.08,-2.406 2.41,-2.406 l 17.79,0 c 1.33,0 2.407,1.076 2.407,2.407 0,1.33 -1.077,2.408 -2.408,2.408 l -17.79,0 z m 99.967,9.33 c -1.33,0 -2.408,-1.078 -2.408,-2.408 0,-1.332 1.077,-2.407 2.408,-2.407 l 2.175,0 c 1.333,0 2.412,1.075 2.412,2.407 0,1.33 -1.08,2.408 -2.413,2.408 l -2.176,0 z m -11.354,0 c -1.327,0 -2.405,-1.078 -2.405,-2.408 0,-1.332 1.078,-2.407 2.406,-2.407 l 2.183,0 c 1.33,0 2.41,1.075 2.41,2.407 0,1.33 -1.08,2.408 -2.41,2.408 l -2.182,0 z m 22.702,0 c -1.332,0 -2.41,-1.078 -2.41,-2.408 0,-1.332 1.078,-2.407 2.41,-2.407 l 2.178,0 c 1.33,0 2.41,1.075 2.41,2.407 0,1.33 -1.08,2.408 -2.41,2.408 l -2.178,0 z m 11.348,0 c -1.33,0 -2.407,-1.078 -2.407,-2.408 0,-1.332 1.077,-2.407 2.407,-2.407 l 2.178,0 c 1.33,0 2.408,1.075 2.408,2.407 0,1.33 -1.078,2.408 -2.408,2.408 l -2.178,0 z m -43.464,-27.988 c -1.33,0 -2.408,-1.08 -2.408,-2.408 0,-1.332 1.078,-2.41 2.408,-2.41 l 2.177,0 c 1.332,0 2.412,1.078 2.412,2.41 0,1.328 -1.08,2.407 -2.412,2.407 l -2.177,0 z m 10.536,0 c -1.33,0 -2.407,-1.08 -2.407,-2.408 0,-1.332 1.077,-2.41 2.407,-2.41 l 2.176,0 c 1.333,0 2.41,1.078 2.41,2.41 0,1.328 -1.077,2.407 -2.41,2.407 l -2.176,0 z m 20.798,5.528 c 0,3.282 2.666,5.94 5.947,5.945 3.29,-0.004 5.946,-2.66 5.953,-5.945 -0.01,-3.284 -2.664,-5.94 -5.953,-5.946 -3.28,0.006 -5.943,2.665 -5.947,5.946 m -4.82,0 c 0,-5.946 4.822,-10.76 10.767,-10.764 5.95,0.003 10.77,4.82 10.77,10.764 0,5.944 -4.82,10.762 -10.77,10.765 -5.945,-0.003 -10.765,-4.82 -10.766,-10.765"
         style="fill:#212121"
         inkscape:connector-curvature="0" />
      <path
         id="path204-5"
         d="m 1269.3585,234.39503 0,-8.357 c 0,-1.33 1.078,-2.41 2.408,-2.41 1.332,0 2.41,1.08 2.41,2.41 l 0,8.357 c 0,1.33 -1.078,2.406 -2.41,2.406 -1.33,0 -2.407,-1.077 -2.407,-2.406"
         style="fill:#212121"
         inkscape:connector-curvature="0" />
      <path
         sodipodi:nodetypes="cccccccccsscssssccccsssssssssssssscssssscccsssssccsssssscssssssssssssssssssssscsccccccccscc"
         id="path206-3"
         d="m 1143.1865,265.05503 140.0173,0 c 1.9912,-5.67148 -0.249,-11.82451 9.0197,-21.67632 l 0,-27.94668 -149.037,0 0,49.622 z m -2.41,4.813 c -0.633,0 -1.253,-0.255 -1.7,-0.704 -0.45,-0.45 -0.707,-1.07 -0.707,-1.705 l 0,-54.434 c 0,-0.637 0.257,-1.256 0.706,-1.706 0.45,-0.446 1.07,-0.705 1.702,-0.705 l 153.856,0 c 0.633,0 1.256,0.258 1.702,0.704 0.45,0.45 0.707,1.07 0.707,1.705 l 0,26.01537 c -14.6843,20.28002 -7.9131,18.55717 -13.8387,30.82663 l -142.4273,0 z m 14.507,22.763 c -1.33,0 -2.41,-1.078 -2.41,-2.406 0,-1.333 1.08,-2.408 2.41,-2.408 l 48.782,0 c 1.33,0 2.41,1.075 2.41,2.408 0,1.328 -1.08,2.406 -2.41,2.406 z m 0,18.66 c -1.33,0 -2.41,-1.077 -2.41,-2.408 0,-1.33 1.08,-2.408 2.41,-2.408 l 38.332,0 c 1.33,0 2.41,1.077 2.41,2.408 0,1.33 -1.08,2.408 -2.41,2.408 z m 0,-27.986 c -1.33,0 -2.41,-1.08 -2.41,-2.41 0,-1.33 1.08,-2.408 2.41,-2.408 l 30.496,0 c 1.33,0 2.406,1.077 2.406,2.408 0,1.33 -1.078,2.41 -2.407,2.41 l -30.496,0 z m 0,18.656 c -1.33,0 -2.41,-1.077 -2.41,-2.405 0,-1.33 1.08,-2.41 2.41,-2.41 l 17.79,0 c 1.33,0 2.407,1.08 2.407,2.41 0,1.33 -1.077,2.406 -2.407,2.406 l -17.79,0 z m 99.966,9.33 c -1.33,0 -2.407,-1.077 -2.407,-2.408 0,-1.33 1.078,-2.408 2.407,-2.408 l 2.178,0 c 1.332,0 2.41,1.077 2.41,2.408 0,1.33 -1.078,2.408 -2.41,2.408 l -2.177,0 z m -11.349,0 c -1.333,0 -2.41,-1.077 -2.41,-2.408 0,-1.33 1.077,-2.408 2.41,-2.408 l 2.18,0 c 1.33,0 2.407,1.077 2.407,2.408 0,1.33 -1.077,2.408 -2.407,2.408 z m -9.418,-27.986 c -1.33,0 -2.41,-1.08 -2.41,-2.41 0,-1.33 1.08,-2.408 2.41,-2.408 l 2.18,0 c 1.33,0 2.41,1.077 2.41,2.408 0,1.33 -1.08,2.41 -2.41,2.41 z m 10.534,0 c -1.33,0 -2.407,-1.08 -2.407,-2.41 0,-1.33 1.078,-2.408 2.408,-2.408 l 2.18,0 c 1.33,0 2.41,1.077 2.41,2.408 0,1.33 -1.08,2.41 -2.41,2.41 l -2.18,0 z m 20.798,5.527 c 0.01,3.28 2.668,5.938 5.952,5.944 3.286,-0.005 5.944,-2.662 5.948,-5.943 0,-3.284 -2.662,-5.94 -5.948,-5.947 -3.284,0.007 -5.946,2.663 -5.952,5.947 m -4.817,0 c 0,-5.946 4.82,-10.76 10.77,-10.764 5.947,0 10.764,4.818 10.767,10.764 0,4.63199 -3.2525,7.45767 -7.3632,8.97403 -1.1609,0.4282 -2.0943,1.78753 -3.4038,1.78797 -5.95,-0.004 -10.768,-4.822 -10.77,-10.763"
         style="fill:#212121"
         inkscape:connector-curvature="0" />
      <path
         id="path208-4"
         d="m 1269.3585,288.83103 0,-8.355 c 0,-1.33 1.078,-2.406 2.41,-2.406 1.33,0 2.408,1.076 2.408,2.407 l 0,8.356 c 0,1.33 -1.078,2.406 -2.408,2.406 -1.332,0 -2.41,-1.075 -2.41,-2.406"
         style="fill:#212121"
         inkscape:connector-curvature="0" />
      <path
         sodipodi:nodetypes="ccsscccccccccsscsccssccscccssssscccsssssccsssssscsssssssscssssscccsssssccssssssscssssscccccc"
         id="path210-9"
         d="m 1143.1885,319.48903 123.035,0 c -0.7885,-10.62649 -1.0348,-17.32774 4.7636,-21.72084 2.3056,-1.74679 10.845,2.08182 12.6372,-1.77188 1.224,-2.63188 -1.0232,-23.28484 -0.081,-25.96653 -41.0195,-0.30469 -95.0764,-0.16075 -140.3544,-0.16075 z m 123.443,2.407 0,-2.406 0,2.407 z m -125.855,2.41 c -0.633,0 -1.253,-0.256 -1.7,-0.705 -0.45,-0.448 -0.71,-1.07 -0.71,-1.704 l 0,-54.435 c 0,-0.632 0.26,-1.254 0.708,-1.704 0.45,-0.444 1.07,-0.702 1.702,-0.702 l 143.938,0 1.2364,0.16075 c -0.3118,1.05028 1.4689,23.83513 -1.8034,30.6375 -1.8457,3.83682 -9.8134,-0.59858 -12.1467,2.05344 -6.4152,7.29162 -7.946,18.52085 -3.7631,23.91193 0.1004,0.62802 0.5438,1.33738 0.098,1.78538 -0.45,0.45 -1.07,0.705 -1.704,0.705 l -125.855,0 z m 14.507,22.765 c -1.33,0 -2.41,-1.077 -2.41,-2.41 0,-1.33 1.08,-2.406 2.41,-2.406 l 48.783,0 c 1.33,0 2.407,1.076 2.407,2.405 0,1.334 -1.077,2.41 -2.407,2.41 l -48.783,0 z m 0,18.657 c -1.332,0 -2.41,-1.08 -2.41,-2.41 0,-1.33 1.078,-2.406 2.41,-2.406 l 38.33,0 c 1.33,0 2.41,1.075 2.41,2.407 0,1.33 -1.08,2.41 -2.41,2.41 l -38.33,0 z m 0,-27.989 c -1.33,0 -2.41,-1.078 -2.41,-2.41 0,-1.33 1.08,-2.405 2.41,-2.405 l 30.496,0 c 1.33,0 2.408,1.075 2.408,2.405 0,1.33 -1.077,2.41 -2.407,2.41 l -30.496,0 z m 0,18.662 c -1.33,0 -2.412,-1.08 -2.412,-2.408 0,-1.333 1.08,-2.41 2.412,-2.41 l 17.79,0 c 1.33,0 2.407,1.077 2.407,2.41 0,1.33 -1.078,2.408 -2.407,2.408 z m 99.967,9.327 c -1.33,0 -2.408,-1.08 -2.408,-2.41 0,-1.33 1.077,-2.406 2.408,-2.406 l 2.177,0 c 1.332,0 2.412,1.075 2.412,2.407 0,1.33 -1.08,2.41 -2.41,2.41 l -2.178,0 z m -11.35,0 c -1.333,0 -2.41,-1.08 -2.41,-2.41 0,-1.33 1.077,-2.406 2.41,-2.406 l 2.18,0 c 1.33,0 2.41,1.075 2.41,2.407 0,1.33 -1.08,2.41 -2.41,2.41 l -2.18,0 z m -9.418,-27.989 c -1.33,0 -2.408,-1.078 -2.408,-2.41 0,-1.33 1.078,-2.405 2.408,-2.405 l 2.18,0 c 1.33,0 2.41,1.075 2.41,2.405 0,1.33 -1.08,2.41 -2.41,2.41 z m 10.534,0 c -1.328,0 -2.408,-1.078 -2.408,-2.41 0,-1.33 1.08,-2.405 2.41,-2.405 l 2.177,0 c 1.33,0 2.407,1.075 2.407,2.405 0,1.33 -1.078,2.41 -2.408,2.41 l -2.18,0 z m 15.982,5.529 c 0,-4.52594 2.7926,-8.39718 6.7484,-9.98901 1.63,-3.16282 0.1142,18.29517 -0.1516,19.91613 -3.8757,-1.62943 -6.5968,-5.4598 -6.5968,-9.92712"
         style="fill:#212121"
         inkscape:connector-curvature="0" />
      <path
         sodipodi:nodetypes="ccccccccccsscsscsscscc"
         id="path214-2"
         d="m 1143.1865,373.92503 122.0015,0 0,-49.62 -122.0015,0 z m 122.4105,2.41 0,-2.41 z m -124.8195,2.408 c -0.635,0 -1.255,-0.257 -1.703,-0.705 -0.45,-0.446 -0.708,-1.07 -0.708,-1.704 l 0,-54.44 c 0,-0.635 0.257,-1.252 0.707,-1.7 0.448,-0.45 1.068,-0.706 1.702,-0.706 l 124.8185,0 c 0.635,0 1.254,0.256 1.703,0.705 0.446,0.448 0.706,1.065 0.706,1.7 l 0,54.44 c 0,0.634 -0.26,1.254 -0.706,1.703 -0.45,0.448 -1.072,0.705 -1.703,0.705 l -124.8155,0 z"
         style="fill:#212121"
         inkscape:connector-curvature="0" />
      <path
         id="path218-0"
         d="m 1277.7515,399.53003 c -6.052,0 -10.978,-4.922 -10.978,-10.973 l 0,-81.535 c 0,-6.05 4.926,-10.973 10.978,-10.973 l 95.163,0 c 6.054,0 10.978,4.922 10.978,10.973 l 0,81.535 c 0,6.05 -4.924,10.973 -10.978,10.973 l -95.163,0 z m 88.367,-105.098 0,-27.18 c 0,-18.73 -15.25,-33.972 -33.988,-33.972 l -13.596,0 c -18.74,0 -33.984,15.24 -33.984,33.973 l 0,27.18"
         style="stroke:#1a1a1a;stroke-width:4"
         inkscape:connector-curvature="0" />
      <path
         id="path220-1"
         d="m 1338.7635,334.20003 c 0,-7.494 -5.704,-13.59 -13.202,-13.59 -7.497,0 -13.658,6.096 -13.658,13.59 0,5.02 2.554,9.4 6.735,11.75 l 0,29.504 12.542,0 0,-29.504 c 4.18,-2.352 7.583,-6.73 7.583,-11.75 z"
         style="stroke:#1a1a1a;stroke-width:4"
         inkscape:connector-curvature="0" />
      <path
         sodipodi:nodetypes="sssssss"
         id="path190-1-9"
         d="m 1506.0145,268.63051 c 0,-1.51576 1.078,-2.74248 2.408,-2.74248 1.33,0 2.406,1.22672 2.406,2.74248 l 0,55.50964 c 0,1.51348 -1.077,2.74248 -2.406,2.74248 -1.33,0 -2.408,-1.229 -2.408,-2.74248 z"
         style="fill:#212121"
         inkscape:connector-curvature="0" />
    </g>
    <path
       inkscape:connector-curvature="0"
       style="fill:#212121"
       d="m 107.026,237.357 c -0.703,-0.705 -0.703,-1.85 0,-2.555 l 9.682,-9.677 c 0.707,-0.702 1.848,-0.702 2.555,0 0.704,0.705 0.704,1.85 0,2.554 l -9.678,9.677 c -0.355,0.352 -0.818,0.53 -1.282,0.53 -0.46,0 -0.923,-0.178 -1.277,-0.53"
       id="path104-9"
       sodipodi:nodetypes="ccccccsc" />
    <path
       d="M44.444 318.72c.005 2.6 2.11 4.698 4.712 4.708 2.605-.01 4.708-2.107 4.71-4.71h.003c-.006-2.602-2.113-4.703-4.714-4.708-2.602.005-4.707 2.106-4.712 4.71zm-3.612 0c0-4.596 3.724-8.324 8.324-8.326 4.598.002 8.322 3.73 8.326 8.325-.004 4.594-3.728 8.318-8.326 8.32-4.6-.002-8.324-3.726-8.324-8.32zM191.392 277.983c.004 2.6 2.11 4.7 4.71 4.707 2.602-.006 4.71-2.107 4.713-4.707-.004-2.603-2.11-4.705-4.712-4.712-2.602.008-4.707 2.11-4.71 4.713m-3.616 0c0-4.598 3.728-8.323 8.326-8.325 4.6.002 8.325 3.727 8.325 8.325 0 4.593-3.726 8.318-8.325 8.32-4.598-.002-8.326-3.727-8.326-8.32"
       fill="#212121"
       id="path8" />
    <path
       d="M55.674 320.524c-.996 0-1.805-.812-1.805-1.808 0-.997.808-1.805 1.804-1.805h67.795c.996 0 1.803.81 1.803 1.806s-.807 1.808-1.804 1.808H55.673zM123.468 279.786c-.998 0-1.806-.808-1.806-1.804 0-.998.808-1.807 1.806-1.807h66.116c.998 0 1.808.81 1.808 1.807 0 .996-.81 1.804-1.808 1.804h-66.116z"
       fill="#212121"
       id="path10" />
    <path
       d="m 80.445,312.705 c -0.997,0 -1.806,-0.808 -1.806,-1.808 0,-0.996 0.808,-1.805 1.805,-1.805 l 27.377,0 c 1,0 1.807,0.81 1.807,1.805 0,1 -0.808,1.808 -1.808,1.808 z m 61.275,-26.063 c -0.997,0 -1.807,-0.81 -1.807,-1.805 0,-1 0.81,-1.807 1.806,-1.807 l 12.384,0 c 1,0 1.808,0.808 1.808,1.807 0,0.994 -0.81,1.805 -1.808,1.805 z m 20.207,0 c -0.996,0 -1.806,-0.81 -1.806,-1.805 0,-1 0.81,-1.807 1.807,-1.807 l 5.867,0 c 0.998,0 1.81,0.808 1.81,1.807 0,0.994 -0.812,1.805 -1.81,1.805 l -5.867,0 z"
       id="path12"
       inkscape:connector-curvature="0"
       style="fill:#0c8fd7"
       sodipodi:nodetypes="sssssssssssssssssssscs" />
    <path
       d="M571.854 168.498V145.24c0-1 .808-1.807 1.807-1.807.997 0 1.807.808 1.807 1.807v23.258c0 .994-.81 1.806-1.806 1.806-.998 0-1.806-.812-1.806-1.806"
       fill="#212121"
       id="path14" />
    <path
       d="M573.66 170.303c-1 0-1.807-.81-1.807-1.807 0-.997.808-1.805 1.808-1.805h46.282c.998 0 1.807.81 1.807 1.806s-.81 1.807-1.808 1.807h-46.28z"
       fill="#212121"
       id="path16" />
    <path
       d="M618.134 193.257v-24.76c0-.998.808-1.805 1.81-1.805.995 0 1.806.807 1.806 1.805v24.76c0 .997-.81 1.807-1.807 1.807-1 0-1.81-.81-1.81-1.807"
       fill="#212121"
       id="path18" />
    <path
       inkscape:connector-curvature="0"
       style="fill:#0c8fd7"
       d="m 581.0713,177.88741 c -1,0 -1.807,-0.81 -1.807,-1.807 0,-0.998 0.808,-1.807 1.807,-1.807 l 21.184,0 c 0.998,0 1.808,0.81 1.808,1.806 0,0.996 -0.81,1.806 -1.807,1.806 l -21.183,0 z m 44.147,8.947 0,-8.473 c 0,-0.998 0.81,-1.805 1.807,-1.805 0.998,0 1.81,0.807 1.81,1.805 l 0,8.473 c 0,0.994 -0.812,1.806 -1.81,1.806 -0.996,0 -1.806,-0.813 -1.806,-1.807"
       id="path20-8"
       sodipodi:nodetypes="cssssscccsssssc" />
    <path
       d="m 619.94,196.32 c -0.996,0 -1.806,-0.808 -1.806,-1.806 0,-0.997 0.81,-1.806 1.807,-1.806 l 56.695,0 c 0.998,0 1.806,0.81 1.806,1.806 0,0.998 -0.807,1.806 -1.805,1.806 z m -7.824,110.837 c 0.006,2.603 2.11,4.704 4.712,4.712 2.6,-0.01 4.707,-2.112 4.71,-4.713 -0.003,-2.598 -2.11,-4.704 -4.71,-4.71 -2.602,0.006 -4.706,2.11 -4.712,4.71 m -3.614,0 c 0.004,-4.595 3.725,-8.32 8.326,-8.32 4.597,0 8.326,3.725 8.328,8.32 -0.002,4.6 -3.73,8.32 -8.328,8.323 -4.6,-0.003 -8.322,-3.727 -8.326,-8.323 m 110.565,73.968 c 0.004,2.603 2.11,4.703 4.71,4.708 2.602,-0.005 4.708,-2.105 4.715,-4.708 l -0.003,0 c -0.005,-2.603 -2.106,-4.704 -4.713,-4.71 -2.6,0.006 -4.706,2.107 -4.71,4.71 m -3.613,0 c 0,-4.598 3.726,-8.322 8.323,-8.322 4.6,0 8.324,3.724 8.33,8.322 l -0.006,0 c 0,4.595 -3.72,8.322 -8.323,8.325 -4.597,-0.004 -8.323,-3.73 -8.323,-8.326"
       id="path20"
       inkscape:connector-curvature="0"
       style="fill:#212121"
       sodipodi:nodetypes="sssssssccccccsccccccccccscccc" />
    <path
       d="M721.974 374.61V337.78c0-.998.808-1.805 1.804-1.805 1 0 1.81.807 1.81 1.805v36.827c0 .995-.81 1.805-1.81 1.805-.996 0-1.804-.81-1.804-1.806"
       fill="#212121"
       id="path22" />
    <path
       d="M698.962 339.587c-.997 0-1.806-.81-1.806-1.805 0-.998.81-1.805 1.806-1.805h24.815c1 0 1.81.807 1.81 1.805 0 .996-.81 1.805-1.81 1.805h-24.815z"
       fill="#212121"
       id="path24" />
    <path
       d="M697.156 337.782V308.46c0-.998.81-1.803 1.808-1.803.996 0 1.808.805 1.808 1.802v29.322c0 .996-.812 1.808-1.808 1.808-.997 0-1.808-.812-1.808-1.808"
       fill="#212121"
       id="path26" />
    <path
       d="M623.348 308.962c-1 0-1.806-.808-1.806-1.805 0-.996.807-1.805 1.806-1.805h75.615c.997 0 1.808.81 1.808 1.805 0 .997-.81 1.805-1.807 1.805h-75.615zM652.03 301.797c-1.002 0-1.807-.81-1.807-1.806 0-.998.805-1.804 1.806-1.804h24.77c.997 0 1.804.806 1.804 1.805 0 .996-.807 1.807-1.803 1.807h-24.77zM690.64 345.274v-19.872c0-.997.805-1.805 1.805-1.805.997 0 1.808.808 1.808 1.805v19.872c0 .996-.81 1.808-1.808 1.808-1 0-1.805-.812-1.805-1.808"
       fill="#212121"
       id="path28" />
    <path
       d="M692.445 347.082c-.998 0-1.805-.81-1.805-1.808 0-.996.807-1.805 1.805-1.805h17.6c.997 0 1.805.808 1.805 1.804 0 .998-.808 1.808-1.806 1.808h-17.6zM422.035 440.353c.006 2.604 2.11 4.706 4.712 4.712 2.602-.006 4.71-2.112 4.712-4.712-.003-2.6-2.11-4.703-4.713-4.708-2.602.005-4.706 2.11-4.712 4.708m-3.614 0c.004-4.595 3.73-8.318 8.327-8.318 4.6 0 8.324 3.723 8.327 8.318-.003 4.598-3.728 8.32-8.327 8.323-4.598 0-8.323-3.725-8.326-8.323M520.82 513.556c.007 2.6 2.11 4.705 4.714 4.71 2.602-.005 4.705-2.11 4.71-4.71-.005-2.602-2.108-4.703-4.71-4.71-2.603.007-4.707 2.11-4.713 4.71m-3.612 0c.002-4.598 3.728-8.32 8.326-8.32 4.6 0 8.324 3.722 8.326 8.32-.002 4.595-3.726 8.322-8.326 8.322-4.598-.003-8.324-3.724-8.326-8.322"
       fill="#212121"
       id="path30" />
    <path
       d="M424.94 465.005V446.87c0-1 .81-1.805 1.808-1.805.997 0 1.807.806 1.807 1.805v18.135c0 .995-.81 1.805-1.807 1.805-.998 0-1.807-.81-1.807-1.805"
       fill="#212121"
       id="path32" />
    <path
       d="M426.748 466.81c-.998 0-1.807-.81-1.807-1.806 0-.998.81-1.807 1.808-1.807h98.786c.998 0 1.806.81 1.806 1.807 0 .996-.808 1.806-1.806 1.806h-98.786z"
       fill="#212121"
       id="path34" />
    <path
       d="M523.726 507.042v-42.04c0-.997.81-1.805 1.808-1.805s1.806.808 1.806 1.805v42.04c0 .993-.808 1.805-1.806 1.805s-1.808-.812-1.808-1.805"
       fill="#212121"
       id="path36" />
    <path
       d="M452.497 459.968c-1 0-1.807-.812-1.807-1.808 0-.995.808-1.805 1.807-1.805H480.2c.997 0 1.806.81 1.806 1.805 0 .996-.81 1.808-1.805 1.808h-27.703zM488.023 459.968c-.997 0-1.808-.812-1.808-1.808 0-.995.81-1.805 1.808-1.805h4.563c.996 0 1.806.81 1.806 1.805 0 .996-.81 1.808-1.806 1.808h-4.563z"
       fill="#0C8FD7"
       id="path38" />
    <path
       d="M516.853 492.668v-15.636c0-1 .81-1.808 1.807-1.808.998 0 1.807.808 1.807 1.808v15.636c0 1-.81 1.805-1.807 1.805-.997 0-1.807-.806-1.807-1.805M318.703 441.016c.005 2.602 2.11 4.706 4.712 4.708 2.6-.002 4.706-2.106 4.712-4.708-.006-2.604-2.11-4.705-4.712-4.71-2.603.005-4.707 2.106-4.712 4.71m-3.614 0c0-4.6 3.727-8.323 8.325-8.323 4.598 0 8.325 3.724 8.326 8.323 0 4.598-3.727 8.32-8.325 8.324-4.6-.003-8.324-3.726-8.326-8.324M253.518 534.68c.004 2.603 2.11 4.704 4.71 4.712 2.6-.008 4.707-2.11 4.713-4.712-.005-2.6-2.11-4.703-4.71-4.705-2.603.002-4.708 2.105-4.712 4.705m-3.613 0c0-4.595 3.724-8.32 8.324-8.322 4.598.002 8.322 3.727 8.325 8.322-.003 4.596-3.727 8.322-8.326 8.322-4.6 0-8.325-3.726-8.325-8.322"
       fill="#212121"
       id="path40" />
    <path
       d="M321.607 494V447.53c0-1 .81-1.804 1.807-1.804.998 0 1.807.804 1.807 1.804V494c0 .995-.808 1.804-1.806 1.804-.996 0-1.807-.81-1.807-1.805"
       fill="#212121"
       id="path42" />
    <path
       d="M290.822 495.804c-1 0-1.807-.81-1.807-1.805 0-1 .808-1.81 1.807-1.81h32.592c.998 0 1.807.81 1.807 1.81 0 .995-.808 1.804-1.806 1.804h-32.592z"
       fill="#212121"
       id="path44" />
    <path
       d="M289.015 534.683V494c0-1 .808-1.808 1.806-1.808 1 0 1.808.808 1.808 1.808v40.683c0 .993-.808 1.808-1.807 1.808-.997 0-1.805-.814-1.805-1.807"
       fill="#212121"
       id="path46" />
    <path
       d="M264.746 536.49c-.995 0-1.803-.814-1.803-1.807 0-1.003.808-1.808 1.803-1.808h25.425c.998 0 1.806.805 1.806 1.808 0 .993-.808 1.808-1.805 1.808h-25.424z"
       fill="#212121"
       id="path48" />
    <path
       d="M281.196 517.794v-14.67c0-1.003.807-1.81 1.805-1.81.998 0 1.807.807 1.807 1.81v14.67c0 1-.81 1.81-1.806 1.81-.997 0-1.804-.81-1.804-1.81"
       fill="#0C8FD7"
       id="path50" />
    <path
       d="M315.09 473.557v-13.033c0-.998.81-1.803 1.807-1.803.998 0 1.806.806 1.806 1.804v13.033c0 .996-.808 1.808-1.806 1.808s-1.808-.812-1.808-1.808"
       fill="#212121"
       id="path52" />
    <path
       d="M304.512 502.972c-.998 0-1.806-.81-1.806-1.808 0-.996.808-1.805 1.806-1.805h13.037c.996 0 1.803.808 1.803 1.804 0 .997-.807 1.808-1.804 1.808H304.51z"
       fill="#0C8FD7"
       id="path54" />
    <path
       d="M479.916 25.96c.006 2.602 2.11 4.708 4.714 4.71 2.6-.002 4.705-2.108 4.712-4.71-.007-2.6-2.11-4.704-4.712-4.708-2.604.004-4.708 2.108-4.714 4.71m-3.613 0c0-4.598 3.726-8.32 8.327-8.32 4.597 0 8.324 3.722 8.325 8.32 0 4.595-3.728 8.32-8.325 8.32-4.6 0-8.327-3.725-8.327-8.32M345.666 99.623c.006 2.6 2.11 4.703 4.714 4.708 2.6-.004 4.707-2.108 4.71-4.707-.003-2.6-2.11-4.705-4.71-4.71-2.604.005-4.708 2.11-4.714 4.71m-3.61 0c0-4.597 3.724-8.32 8.324-8.323 4.6.003 8.324 3.726 8.324 8.323 0 4.595-3.725 8.32-8.324 8.322-4.6-.002-8.325-3.727-8.325-8.322"
       fill="#212121"
       id="path56" />
    <path
       d="M412.307 27.767c-1 0-1.806-.81-1.806-1.806 0-.997.807-1.806 1.807-1.806h65.803c.998 0 1.808.81 1.808 1.807 0 .998-.81 1.807-1.808 1.807h-65.803z"
       fill="#212121"
       id="path58" />
    <path
       d="M410.5 55.97V25.96c0-1 .808-1.808 1.807-1.808.996 0 1.807.81 1.807 1.808V55.97c0 .993-.81 1.805-1.807 1.805-1 0-1.807-.812-1.807-1.806"
       fill="#212121"
       id="path60" />
    <path
       d="M350.38 57.775c-.996 0-1.81-.81-1.81-1.806 0-1 .814-1.81 1.81-1.81h61.927c.997 0 1.807.81 1.807 1.81 0 .994-.81 1.805-1.807 1.805H350.38z"
       fill="#212121"
       id="path62" />
    <path
       d="m 348.573,93.107 0,-37.14 c 0,-0.998 0.808,-1.806 1.806,-1.806 0.996,0 1.805,0.81 1.805,1.806 l 0,37.14 c 0,0.998 -0.81,1.806 -1.806,1.806 -1,0 -1.807,-0.808 -1.807,-1.805 m -7.171,-13.683 0,-16.29 c 0,-0.998 0.814,-1.807 1.81,-1.807 0.997,0 1.808,0.81 1.808,1.806 l 0,16.29 c 0,0.996 -0.81,1.807 -1.808,1.807 -0.996,0 -1.81,-0.81 -1.81,-1.805 m 89.813,-45.762 c -1,0 -1.81,-0.81 -1.81,-1.806 0,-0.998 0.81,-1.807 1.81,-1.807 l 26.724,0 c 1,0 1.806,0.81 1.806,1.808 0,0.996 -0.807,1.806 -1.806,1.806 l -26.724,0 z M 316.207,165.827 c 0.005,2.6 2.11,4.705 4.712,4.71 2.6,-0.005 4.707,-2.11 4.71,-4.71 -0.003,-2.602 -2.11,-4.704 -4.71,-4.71 -2.602,0.006 -4.708,2.108 -4.713,4.71 m -3.614,0 c 0,-4.596 3.726,-8.32 8.326,-8.32 4.6,0 8.324,3.724 8.324,8.32 0,4.597 -3.725,8.32 -8.325,8.323 -4.6,-0.003 -8.326,-3.726 -8.327,-8.323 M 172.856,98.224 c 0.007,2.6 2.11,4.703 4.712,4.71 2.602,-0.007 4.707,-2.11 4.713,-4.71 -0.005,-2.602 -2.11,-4.705 -4.712,-4.71 -2.602,0.005 -4.705,2.108 -4.712,4.71 m -3.614,0 c 0,-4.598 3.726,-8.322 8.326,-8.323 4.6,0.002 8.324,3.726 8.324,8.324 0,4.596 -3.724,8.32 -8.324,8.32 -4.6,0 -8.326,-3.724 -8.326,-8.32"
       id="path64"
       inkscape:connector-curvature="0"
       style="fill:#212121"
       sodipodi:nodetypes="csssssccsssssccsssssccccccccsscccccccccssc" />
    <path
       d="M184.088 100.03c-1 0-1.807-.81-1.807-1.806 0-.997.81-1.805 1.808-1.805h67.793c.998 0 1.808.807 1.808 1.804 0 .996-.81 1.806-1.807 1.806H184.09z"
       fill="#212121"
       id="path66" />
    <path
       d="M250.074 165.414v-67.19c0-1 .808-1.806 1.807-1.806 1 0 1.807.807 1.807 1.805v67.19c0 .998-.808 1.806-1.806 1.806s-1.806-.81-1.806-1.806"
       fill="#212121"
       id="path68" />
    <path
       d="m 251.883,167.633 c -1,0 -1.808,-0.808 -1.808,-1.806 0,-0.996 0.807,-1.806 1.808,-1.806 l 62.52,0 c 0.994,0 1.805,0.81 1.805,1.807 0,0.998 -0.81,1.806 -1.805,1.806 l -62.52,0 z m 6.012,-35.449 0,-21.504 c 0,-0.996 0.81,-1.804 1.807,-1.804 1,0 1.81,0.808 1.81,1.805 l 0,21.504 c 0,0.994 -0.81,1.805 -1.81,1.805 -0.996,0 -1.807,-0.812 -1.807,-1.806 m -236.428,24.461 0,-13.902 c 0,-0.995 0.81,-1.803 1.807,-1.803 0.996,0 1.807,0.808 1.807,1.803 l 0,13.902 c 0,0.997 -0.81,1.804 -1.806,1.804 -0.997,0 -1.807,-0.808 -1.807,-1.805"
       id="path70"
       inkscape:connector-curvature="0"
       style="fill:#212121"
       sodipodi:nodetypes="cssssscccsssssccsssssc" />
    <path
       d="M16.32 151.5c-.997 0-1.806-.81-1.806-1.807 0-.996.81-1.805 1.806-1.805h13.906c.996 0 1.807.81 1.807 1.805 0 .998-.81 1.808-1.807 1.808H16.32zM198.83 207.795v-13.9c0-1 .808-1.806 1.807-1.806.996 0 1.807.806 1.807 1.806v13.9c0 .993-.81 1.802-1.807 1.802-1 0-1.807-.81-1.807-1.803"
       fill="#212121"
       id="path72" />
    <path
       d="M193.683 202.65c-.996 0-1.804-.81-1.804-1.806s.807-1.805 1.803-1.805h13.91c.995 0 1.804.808 1.804 1.804 0 .995-.81 1.807-1.805 1.807h-13.91zM644.436 362.794v-13.902c0-.996.806-1.805 1.806-1.805.998 0 1.807.81 1.807 1.805v13.902c0 .996-.81 1.805-1.808 1.805-1 0-1.806-.81-1.806-1.806"
       fill="#212121"
       id="path74" />
    <path
       d="M639.288 357.65c-1 0-1.807-.813-1.807-1.81 0-.998.807-1.804 1.808-1.804h13.906c.998 0 1.807.806 1.807 1.805 0 .997-.808 1.81-1.806 1.81h-13.906zM722.45 77.457v-13.9c0-.998.81-1.806 1.806-1.806.997 0 1.808.81 1.808 1.808v13.9c0 .995-.81 1.806-1.808 1.806-.996 0-1.805-.81-1.805-1.807"
       fill="#212121"
       id="path76"
       style="fill:#0c8fd7" />
    <path
       d="M717.306 72.313c-1 0-1.807-.81-1.807-1.807 0-.994.807-1.803 1.806-1.803h13.906c.995 0 1.806.81 1.806 1.803 0 .997-.81 1.807-1.806 1.807h-13.906zM327.12 16.057v-13.9c0-.997.81-1.805 1.808-1.805.997 0 1.807.808 1.807 1.806v13.9c0 .993-.81 1.805-1.807 1.805-1 0-1.808-.812-1.808-1.806"
       fill="#212121"
       id="path78"
       style="fill:#0c8fd7" />
    <path
       d="M321.973 10.914c-.995 0-1.806-.81-1.806-1.808 0-.996.81-1.805 1.806-1.805h13.908c1 0 1.81.81 1.81 1.806 0 1-.81 1.808-1.81 1.808h-13.907zM56.655 67.5c-.996 0-1.804-.81-1.804-1.808 0-.997.81-1.807 1.805-1.807h26.077c.997 0 1.804.81 1.804 1.807 0 .998-.807 1.807-1.804 1.807H56.655zM94.464 67.5c-.997 0-1.808-.81-1.808-1.808 0-.997.81-1.807 1.808-1.807h10.43c.997 0 1.808.81 1.808 1.807 0 .998-.81 1.807-1.81 1.807H94.465zM481.694 181.873c-.998 0-1.808-.81-1.808-1.807 0-.998.81-1.807 1.808-1.807h26.075c.995 0 1.806.808 1.806 1.806 0 .996-.81 1.807-1.807 1.807h-26.076zM519.502 181.873c-1 0-1.806-.81-1.806-1.805 0-.997.807-1.81 1.806-1.81h10.43c.996 0 1.807.813 1.807 1.81 0 .994-.812 1.805-1.807 1.805h-10.43zM757.39 266.23c-.997 0-1.806-.81-1.806-1.81 0-.996.81-1.804 1.807-1.804h26.075c.996 0 1.807.808 1.807 1.805 0 1-.81 1.81-1.807 1.81H757.39zM795.198 266.228c-.997 0-1.805-.808-1.805-1.807 0-.995.808-1.803 1.805-1.803h10.433c.997 0 1.808.808 1.808 1.804 0 1-.81 1.808-1.807 1.808H795.2zM95.514 524.996c-1 0-1.807-.81-1.807-1.805 0-.998.807-1.807 1.807-1.807h26.074c1 0 1.807.81 1.807 1.808 0 .996-.808 1.806-1.807 1.806H95.514zM133.32 524.996c-.995 0-1.806-.81-1.806-1.805 0-.998.81-1.807 1.807-1.807h10.432c.996 0 1.807.81 1.807 1.808 0 .996-.812 1.806-1.808 1.806h-10.43zM568.008 408.034c-1 0-1.81-.806-1.81-1.803 0-1 .81-1.807 1.81-1.807h26.072c.997 0 1.808.807 1.808 1.808 0 .998-.81 1.804-1.808 1.804h-26.072zM605.816 408.034c-1 0-1.807-.808-1.807-1.805 0-.997.806-1.807 1.806-1.807h10.43c.997 0 1.808.81 1.808 1.806s-.81 1.804-1.807 1.804h-10.43zM302.788 124.592c-1 0-1.81-.808-1.81-1.805 0-.997.81-1.807 1.81-1.807h23.466c.998 0 1.806.81 1.806 1.807 0 .997-.808 1.805-1.806 1.805h-23.466zM291.055 133.714c-.998 0-1.806-.808-1.806-1.805 0-.998.807-1.808 1.805-1.808h20.858c1 0 1.806.81 1.806 1.807 0 .996-.808 1.804-1.807 1.804h-20.858zM748.022 119.268c-.996 0-1.806-.81-1.806-1.805 0-1 .81-1.808 1.806-1.808h23.47c.995 0 1.804.81 1.804 1.808 0 .995-.81 1.805-1.805 1.805h-23.468zM736.29 128.39c-.997 0-1.807-.81-1.807-1.807 0-.997.81-1.807 1.806-1.807h20.86c.995 0 1.804.81 1.804 1.807 0 .997-.81 1.806-1.805 1.806h-20.86zM784.76 375.224c-1 0-1.808-.81-1.808-1.808 0-.997.81-1.802 1.807-1.802h23.466c.998 0 1.808.805 1.808 1.802 0 1-.81 1.808-1.808 1.808H784.76zM773.024 384.347c-.998 0-1.806-.81-1.806-1.807 0-.998.808-1.807 1.806-1.807h20.862c.997 0 1.807.81 1.807 1.807 0 .998-.81 1.807-1.807 1.807h-20.862z"
       fill="#212121"
       id="path80"
       style="fill:#0c8fd7" />
    <path
       fill="#0C8FD7"
       d="M575.92 594.025h30.168v-2.71H575.92"
       id="path82" />
    <path
       fill="#000"
       d="M636.256 594.025h11.863v-2.71h-11.864M613.547 594.025h7.795v-2.71h-7.795"
       id="path84" />
    <path
       fill="#0C8FD7"
       d="M616.255 586.226h10.17v-2.712h-10.17M595.58 586.226h15.93v-2.712h-15.93"
       id="path86" />
    <path
       d="m 24.94,446.045 c -0.998,0 -1.807,-0.81 -1.807,-1.807 0,-0.996 0.81,-1.805 1.806,-1.805 l 23.466,0 c 0.998,0 1.806,0.81 1.806,1.805 0,0.997 -0.808,1.807 -1.806,1.807 z M 32.11,233.45 c -1,0 -1.808,-0.808 -1.808,-1.804 0,-0.997 0.81,-1.806 1.807,-1.806 l 20.856,0 c 1,0 1.807,0.81 1.807,1.806 0,0.996 -0.808,1.805 -1.807,1.805 l -20.855,0 z m 105.397,175.993 c -0.704,-0.706 -0.704,-1.85 0,-2.555 l 9.682,-9.677 c 0.706,-0.7 1.848,-0.7 2.554,0 0.704,0.708 0.704,1.85 0,2.557 l -9.678,9.676 c -0.353,0.352 -0.817,0.53 -1.28,0.53 -0.463,0 -0.925,-0.178 -1.28,-0.53"
       id="path88"
       inkscape:connector-curvature="0"
       style="fill:#212121"
       sodipodi:nodetypes="ssssssscsssssccccccccsc" />
    <path
       d="M137.507 409.443l-9.678-9.676c-.708-.706-.708-1.85 0-2.556.705-.7 1.848-.7 2.554 0l9.682 9.678c.703.706.703 1.85 0 2.555-.353.352-.817.53-1.28.53-.463 0-.925-.178-1.28-.53M137.51 421.334c-.706-.703-.706-1.85 0-2.555l9.68-9.678c.705-.703 1.848-.703 2.556 0 .702.707.702 1.852 0 2.556l-9.68 9.676c-.353.352-.818.53-1.28.53-.463 0-.924-.178-1.275-.53"
       fill="#212121"
       id="path90" />
    <path
       d="M137.51 421.334l-9.68-9.676c-.708-.704-.708-1.85 0-2.556.706-.703 1.85-.703 2.556 0l9.68 9.677c.703.705.703 1.85 0 2.554-.353.352-.818.53-1.28.53-.463 0-.924-.178-1.275-.53M171.746 338.66c-.705-.706-.705-1.85 0-2.555l9.678-9.677c.707-.705 1.852-.705 2.56 0 .703.707.703 1.85 0 2.556l-9.683 9.676c-.353.352-.814.53-1.278.53-.46 0-.924-.178-1.276-.53"
       fill="#212121"
       id="path92" />
    <path
       d="M171.746 338.66l-9.68-9.676c-.706-.706-.706-1.85 0-2.556.705-.705 1.85-.705 2.554 0l9.68 9.677c.705.706.705 1.85 0 2.555-.353.352-.814.53-1.278.53-.46 0-.924-.178-1.276-.53M474.685 514.51l9.68-9.674c.707-.707 1.85-.707 2.556 0 .707.706.707 1.848 0 2.552l-9.678 9.677c-.353.35-.818.528-1.28.528-.462 0-.925-.177-1.277-.528-.705-.707-.705-1.85 0-2.554z"
       fill="#212121"
       id="path94" />
    <path
       d="M465.007 507.388c-.707-.704-.707-1.846 0-2.552.704-.707 1.85-.707 2.556 0l9.68 9.675c.702.705.702 1.848 0 2.555-.354.35-.82.528-1.28.528-.463 0-.926-.177-1.278-.528l-9.678-9.677zM648.255 265.7c-.703-.704-.703-1.85.003-2.555l9.683-9.676c.705-.706 1.847-.706 2.556 0 .704.703.702 1.85-.003 2.552l-9.68 9.678c-.355.352-.816.528-1.28.528-.462 0-.924-.176-1.278-.528"
       fill="#212121"
       id="path96" />
    <path
       d="m 648.256,265.7 -9.678,-9.676 c -0.707,-0.705 -0.704,-1.85 0,-2.556 0.706,-0.705 1.85,-0.702 2.555,0.003 l 9.68,9.675 c 0.705,0.706 0.705,1.85 0,2.555 -0.355,0.35 -0.816,0.528 -1.28,0.528 -0.46,0 -0.923,-0.177 -1.277,-0.528"
       id="path98"
       inkscape:connector-curvature="0"
       style="fill:#212121"
       sodipodi:nodetypes="ccccccsc" />
    <path
       inkscape:connector-curvature="0"
       style="fill:#0c8fd7;fill-opacity:1"
       d="m 492.51,78.369001 c -0.705,-0.702 -0.705,-1.848 0,-2.555 l 9.684,-9.674 c 0.705,-0.704 1.85,-0.704 2.555,0 0.703,0.708 0.702,1.852 -0.004,2.555 l -9.68,9.678 c -0.353,0.353 -0.814,0.528 -1.278,0.528 -0.46,0 -0.923,-0.176 -1.278,-0.53"
       id="path100-9"
       sodipodi:nodetypes="ccccccsc" />
    <g
       id="g4673">
      <path
         sodipodi:nodetypes="ccccccsc"
         style="fill:#0c8fd7"
         inkscape:connector-curvature="0"
         id="path100-6"
         d="m 355.813,156.105 9.68,-9.675 c 0.705,-0.708 0.705,-1.85 0,-2.555 -0.705,-0.704 -1.85,-0.704 -2.556,0 l -9.68,9.675 c -0.703,0.707 -0.703,1.85 0,2.554 0.355,0.353 0.816,0.528 1.28,0.528 0.46,0 0.922,-0.175 1.276,-0.528" />
      <path
         sodipodi:nodetypes="ccccccsc"
         style="fill:#0c8fd7"
         inkscape:connector-curvature="0"
         id="path100"
         d="m 353.26,156.104 -9.68,-9.675 c -0.705,-0.708 -0.705,-1.85 0,-2.555 0.705,-0.704 1.85,-0.704 2.556,0 l 9.68,9.675 c 0.703,0.707 0.703,1.85 0,2.554 -0.355,0.353 -0.816,0.528 -1.28,0.528 -0.46,0 -0.922,-0.175 -1.276,-0.528" />
    </g>
    <path
       d="M492.508 78.372l-9.675-9.676c-.71-.705-.706-1.848 0-2.553.704-.708 1.85-.704 2.555 0l9.676 9.675c.707.704.706 1.848 0 2.554-.353.352-.815.53-1.278.53-.46 0-.924-.178-1.278-.53M492.51 90.264c-.705-.706-.705-1.85 0-2.555l9.684-9.678c.705-.704 1.85-.704 2.555 0 .703.707.702 1.848-.004 2.555l-9.68 9.677c-.355.352-.817.53-1.28.53-.46 0-.922-.178-1.276-.53"
       id="path102"
       fill="#212121"
       style="fill:#0c8fd7" />
    <path
       d="m 492.508,90.264 -9.675,-9.678 c -0.71,-0.706 -0.706,-1.846 0,-2.554 0.704,-0.704 1.85,-0.704 2.555,0.003 l 9.676,9.674 c 0.707,0.704 0.706,1.847 0,2.554 -0.353,0.352 -0.815,0.528 -1.278,0.528 -0.46,0 -0.924,-0.176 -1.278,-0.528"
       id="path104"
       inkscape:connector-curvature="0"
       style="fill:#0c8fd7"
       sodipodi:nodetypes="ccccccsc" />
    <path
       d="M107.027 237.355l-9.678-9.675c-.708-.705-.708-1.848 0-2.555.704-.704 1.847-.704 2.554 0l9.68 9.676c.703.707.703 1.852 0 2.555-.355.353-.817.53-1.28.53-.463 0-.923-.177-1.277-.53M107.027 249.248c-.707-.706-.707-1.85 0-2.555l9.682-9.674c.703-.707 1.847-.707 2.555 0 .703.703.703 1.847 0 2.55l-9.683 9.678c-.353.352-.815.53-1.28.53-.46 0-.92-.178-1.275-.53"
       fill="#212121"
       id="path106" />
    <path
       d="M107.027 249.248l-9.678-9.677c-.708-.703-.708-1.847 0-2.55.704-.707 1.848-.707 2.553 0l9.68 9.673c.704.706.704 1.85 0 2.555-.354.352-.816.53-1.28.53-.462 0-.922-.178-1.276-.53"
       fill="#212121"
       id="path108" />
    <path
       d="M709.827 558.232l-9.68-9.68c-.705-.706-.705-1.85 0-2.555.705-.705 1.848-.705 2.557 0l9.682 9.68c.703.706.703 1.85 0 2.555-.354.352-.818.53-1.28.53-.463 0-.925-.178-1.28-.53"
       fill="#0C8FD7"
       id="path110" />
    <path
       d="M700.148 567.903c-.707-.704-.705-1.847 0-2.554l9.68-9.673c.706-.706 1.85-.703 2.556.002.706.703.704 1.845 0 2.553l-9.68 9.672c-.353.354-.816.53-1.278.53-.462 0-.926-.178-1.278-.532M721.725 558.232l-9.682-9.68c-.704-.706-.704-1.85 0-2.555.705-.705 1.852-.705 2.558 0l9.68 9.68c.706.706.706 1.85 0 2.555-.353.352-.815.53-1.277.53-.464 0-.925-.178-1.278-.53"
       fill="#0C8FD7"
       id="path112" />
    <path
       d="M712.043 567.903c-.704-.704-.704-1.847 0-2.554l9.682-9.673c.707-.706 1.85-.703 2.556.002.707.703.704 1.845 0 2.553l-9.68 9.672c-.354.352-.814.53-1.277.53-.46 0-.926-.178-1.28-.532"
       fill="#0C8FD7"
       id="path114" />
    <path
       d="M427.46 162.428c-.997 0-1.807-.81-1.807-1.805 0-.997.81-1.806 1.806-1.806h18.254c.996 0 1.805.81 1.805 1.806s-.81 1.805-1.806 1.805H427.46zM365.333 453.963c-.998 0-1.805-.81-1.805-1.805 0-.998.807-1.807 1.805-1.807h18.254c.996 0 1.807.81 1.807 1.808 0 .996-.81 1.805-1.807 1.805h-18.254zM197.312 408.214c-.996 0-1.806-.81-1.806-1.81 0-.995.81-1.804 1.806-1.804h18.253c.996 0 1.808.81 1.808 1.805 0 1-.812 1.81-1.808 1.81h-18.253zM1.81 335.764c-1 0-1.81-.808-1.81-1.808s.81-1.805 1.81-1.805h18.25c.995 0 1.806.807 1.806 1.806 0 1-.81 1.808-1.806 1.808H1.81zM556.085 22.952c-.998 0-1.807-.81-1.807-1.806 0-.997.81-1.805 1.807-1.805h18.255c.993 0 1.804.81 1.804 1.806 0 .997-.81 1.806-1.804 1.806h-18.255zM746.11 174.268c-.998 0-1.808-.808-1.808-1.804 0-1 .81-1.807 1.807-1.807h18.25c.996 0 1.807.808 1.807 1.807 0 .996-.81 1.804-1.807 1.804h-18.25zM750.754 514.94c-.997 0-1.807-.812-1.807-1.805 0-.998.81-1.805 1.807-1.805h18.253c.998 0 1.808.807 1.808 1.805 0 .993-.81 1.805-1.808 1.805h-18.253zM153.03 44.622c-.997 0-1.808-.808-1.808-1.805 0-.998.81-1.806 1.807-1.806h18.25c.998 0 1.81.81 1.81 1.807 0 .997-.812 1.805-1.81 1.805h-18.25zM171.453 237.352c-.997 0-1.804-.81-1.804-1.804 0-.997.806-1.807 1.803-1.807h2.61c.996 0 1.803.81 1.803 1.808 0 .994-.807 1.804-1.804 1.804h-2.61zM160.48 237.352c-.996 0-1.806-.81-1.806-1.804 0-.997.81-1.807 1.805-1.807h2.61c.994 0 1.803.81 1.803 1.808 0 .994-.81 1.804-1.804 1.804h-2.61zM149.507 237.352c-.997 0-1.807-.81-1.807-1.804 0-.997.81-1.807 1.807-1.807h2.61c.995 0 1.806.81 1.806 1.808 0 .994-.81 1.804-1.806 1.804h-2.61zM417.574 6.698c-.998 0-1.81-.808-1.81-1.805 0-.996.812-1.805 1.81-1.805h2.607c.997 0 1.808.81 1.808 1.805 0 .997-.81 1.805-1.807 1.805h-2.606zM406.6 6.698c-.997 0-1.805-.81-1.805-1.805 0-.998.808-1.806 1.806-1.806h2.61c.996 0 1.807.808 1.807 1.806 0 .996-.81 1.805-1.807 1.805h-2.61zM395.628 6.698c-.996 0-1.806-.808-1.806-1.805 0-.996.81-1.806 1.806-1.806h2.61c.997 0 1.806.81 1.806 1.806 0 .997-.81 1.805-1.805 1.805h-2.612zM508.834 134.41c-.998 0-1.807-.808-1.807-1.807 0-.995.81-1.803 1.807-1.803h2.61c.997 0 1.807.808 1.807 1.803 0 1-.81 1.808-1.807 1.808h-2.61zM497.862 134.41c-.997 0-1.807-.81-1.807-1.804 0-.997.81-1.808 1.807-1.808h2.606c.998 0 1.81.81 1.81 1.808 0 .995-.812 1.805-1.81 1.805h-2.606zM486.892 134.41c-1 0-1.807-.808-1.807-1.804 0-.998.808-1.805 1.807-1.805h2.606c.997 0 1.807.808 1.807 1.806 0 .996-.81 1.805-1.807 1.805h-2.606zM660.356 427.477c-.998 0-1.808-.812-1.808-1.805 0-1 .81-1.808 1.808-1.808h2.61c.995 0 1.806.81 1.806 1.808 0 .993-.81 1.805-1.807 1.805h-2.61zM649.384 427.477c-.997 0-1.806-.808-1.806-1.805 0-1 .81-1.808 1.806-1.808h2.606c.997 0 1.81.81 1.81 1.808 0 .997-.813 1.805-1.81 1.805h-2.606zM638.413 427.477c-1 0-1.807-.808-1.807-1.805 0-1 .807-1.808 1.807-1.808h2.605c1 0 1.808.81 1.808 1.808 0 .997-.808 1.805-1.808 1.805h-2.605zM653.128 63.885c-1 0-1.806-.81-1.806-1.805 0-.998.807-1.805 1.806-1.805h2.608c1 0 1.805.807 1.805 1.805 0 .995-.805 1.805-1.804 1.805h-2.608zM642.157 63.887c-1 0-1.808-.81-1.808-1.807 0-.998.806-1.806 1.807-1.806h2.608c.998 0 1.806.808 1.806 1.806s-.807 1.807-1.805 1.807h-2.608zM631.183 63.887c-.997 0-1.807-.81-1.807-1.808 0-.995.81-1.805 1.807-1.805h2.61c.995 0 1.806.81 1.806 1.804 0 .998-.812 1.807-1.806 1.807h-2.61zM96.256 351.627c-.996 0-1.806-.808-1.806-1.805 0-.998.81-1.805 1.806-1.805h2.61c.995 0 1.807.807 1.807 1.805 0 .997-.812 1.805-1.808 1.805h-2.61zM85.284 351.627c-.997 0-1.805-.808-1.805-1.805 0-.998.807-1.805 1.804-1.805h2.61c.998 0 1.805.807 1.805 1.805 0 .997-.808 1.805-1.807 1.805h-2.61zM74.314 351.627c-1 0-1.81-.808-1.81-1.805 0-.998.81-1.805 1.81-1.805h2.607c1 0 1.807.807 1.807 1.805 0 .997-.808 1.805-1.806 1.805h-2.606zM414.888 520.64c1.6-.002 2.9-1.304 2.903-2.895-.003-1.603-1.3-2.898-2.902-2.9-1.605.002-2.9 1.297-2.905 2.9.004 1.59 1.303 2.893 2.905 2.895m-6.517-2.895c0-3.6 2.92-6.514 6.518-6.514 3.597 0 6.515 2.915 6.515 6.515-.003 3.59-2.916 6.507-6.515 6.51-3.6-.003-6.517-2.92-6.517-6.51M381.917 494.833c-.79-.606-.942-1.74-.334-2.533 7.666-9.99 19.735-16.446 33.304-16.446 13.575 0 25.64 6.456 33.305 16.446.606.792.454 1.927-.335 2.533-.792.605-1.928.457-2.533-.335-7.017-9.137-18.026-15.03-30.437-15.03-12.406 0-23.423 5.893-30.438 15.03v.003c-.355.463-.89.703-1.434.703-.385 0-.772-.12-1.1-.37"
       fill="#212121"
       id="path116" />
    <path
       d="M390.448 503.337c-.824-.562-1.036-1.685-.476-2.508 5.423-7.946 14.563-13.17 24.916-13.17 10.345 0 19.49 5.224 24.91 13.17.562.822.348 1.95-.476 2.507-.822.56-1.95.35-2.51-.473-4.78-7-12.81-11.59-21.924-11.59-9.117 0-17.146 4.59-21.928 11.59-.35.512-.918.79-1.497.79-.35 0-.704-.103-1.015-.317"
       fill="#212121"
       id="path118" />
    <path
       d="M398.99 511.884c-.823-.562-1.037-1.686-.476-2.51 3.56-5.23 9.575-8.657 16.37-8.657 6.796 0 12.813 3.428 16.377 8.66.562.82.35 1.945-.478 2.507-.825.562-1.947.346-2.508-.477-2.92-4.28-7.824-7.075-13.39-7.075-5.562 0-10.463 2.795-13.385 7.075-.346.512-.914.79-1.494.79-.348 0-.704-.1-1.015-.313M706.974 233.012h62.633V186.86h-62.633v46.152zm64.44 1.807v-1.808 1.807zm-66.244 1.803c-.477 0-.94-.188-1.276-.526-.337-.336-.533-.804-.533-1.278v-49.765c0-.477.197-.942.534-1.278.335-.337.8-.53 1.276-.53h66.244c.476 0 .938.193 1.276.53.336.336.53.8.53 1.278v49.764c0 .48-.19.935-.53 1.274-.342.342-.794.53-1.276.53H705.17z"
       fill="#212121"
       id="path120" />
    <path
       d="M701.555 243.848h73.472l-.003-7.223h-73.47v7.223zm75.277 1.806v-1.806 1.806zm-77.082 1.806c-.476 0-.943-.195-1.28-.53-.334-.336-.527-.802-.527-1.276v-10.836c0-.475.193-.94.528-1.277.337-.336.804-.527 1.28-.527h77.082c.484 0 .94.186 1.28.528.342.343.527.795.527 1.278v10.836c0 .48-.186.933-.528 1.276-.34.342-.796.53-1.28.53H699.75zM737.69 193.283c-.998 0-1.808-.81-1.808-1.807 0-.996.81-1.805 1.81-1.805h1.202c.997 0 1.805.81 1.805 1.806 0 .998-.81 1.807-1.806 1.807h-1.203zM715.408 228.8c-.998 0-1.81-.812-1.81-1.808 0-.997.812-1.806 1.81-1.806h18.065c1 0 1.807.81 1.807 1.806s-.807 1.808-1.807 1.808h-18.065zM740.097 228.8c-.996 0-1.806-.81-1.806-1.806 0-1 .81-1.807 1.807-1.807h3.013c.997 0 1.806.808 1.806 1.807 0 .996-.81 1.806-1.806 1.806h-3.013zM750.336 228.8c-.997 0-1.807-.81-1.807-1.808 0-.997.81-1.806 1.806-1.806h10.842c.995 0 1.803.81 1.803 1.806 0 .998-.807 1.807-1.802 1.807h-10.842zM533.637 98.17h62.632l-.004-46.15h-62.63v46.15zm64.44 1.806V98.17v1.806zm-66.245 1.805c-.476 0-.94-.19-1.276-.527-.337-.335-.532-.802-.532-1.277V50.214c0-.48.196-.942.532-1.277.335-.337.8-.528 1.276-.528h66.244c.474 0 .94.19 1.277.527.335.335.53.802.53 1.277v49.762c0 .48-.19.937-.533 1.277-.34.342-.793.528-1.274.528h-66.244z"
       fill="#212121"
       id="path122" />
    <path
       d="M561.44 112.618h7.025v-10.836h-7.026v10.836zm8.832 1.806v-1.806 1.806zm-10.64 1.805c-.476 0-.94-.193-1.276-.53-.338-.336-.53-.8-.53-1.276V99.978c0-.477.192-.943.53-1.277.335-.337.8-.53 1.276-.53h10.64c.475 0 .94.193 1.28.53.334.335.527.8.527 1.278v14.446c0 .476-.194.94-.53 1.276-.337.337-.803.53-1.278.53h-10.64z"
       fill="#212121"
       id="path124" />
    <path
       d="M538.406 116.23c-1 0-1.808-.81-1.808-1.805 0-1 .81-1.807 1.808-1.807h53.096c.996 0 1.806.808 1.806 1.807 0 .996-.81 1.804-1.806 1.804h-53.096zM564.353 59.043c-1 0-1.81-.81-1.81-1.805 0-1 .81-1.808 1.81-1.808h1.203c.997 0 1.807.808 1.807 1.808 0 .996-.81 1.805-1.807 1.805h-1.203zM542.07 94.56c-.998 0-1.807-.81-1.807-1.805 0-1 .81-1.808 1.807-1.808h18.066c.996 0 1.806.81 1.806 1.808 0 .994-.81 1.804-1.806 1.804H542.07zM566.76 94.56c-1 0-1.806-.81-1.806-1.806 0-.998.807-1.807 1.806-1.807h3.012c.996 0 1.807.81 1.807 1.807 0 .995-.812 1.805-1.808 1.805h-3.012zM576.997 94.56c-.998 0-1.806-.81-1.806-1.808 0-.996.81-1.806 1.807-1.806h10.84c1 0 1.807.81 1.807 1.806 0 1-.808 1.807-1.806 1.807h-10.84zM33.092 412.198h62.63v-46.15H33.09v46.15zm64.438 1.808v-1.808 1.808zm-66.244 1.804c-.483 0-.936-.188-1.278-.53-.34-.34-.528-.793-.528-1.274v-49.764c0-.477.192-.942.528-1.277.338-.338.8-.528 1.278-.528H97.53c.475 0 .943.19 1.278.528.338.335.53.8.53 1.277v49.764c0 .48-.186.935-.53 1.275-.342.342-.795.53-1.278.53H31.286z"
       fill="#212121"
       id="path126" />
    <path
       d="M63.807 373.173c-1 0-1.807-.812-1.807-1.806 0-1 .807-1.807 1.807-1.807h1.206c.996 0 1.804.808 1.804 1.807 0 .994-.808 1.806-1.804 1.806h-1.206zM52.665 408.69c-1 0-1.806-.81-1.806-1.808 0-1 .806-1.806 1.805-1.806H65.31c1 0 1.807.807 1.807 1.806 0 .997-.806 1.807-1.806 1.807H52.666zM73.14 408.69c-.997 0-1.807-.81-1.807-1.808 0-1 .81-1.806 1.808-1.806h3.013c.995 0 1.805.807 1.805 1.806 0 .997-.81 1.807-1.805 1.807H73.14zM171.308 553.587c-.762-.643-.865-1.784-.222-2.548l12.645-15.05c.644-.762 1.784-.86 2.546-.22.768.64.865 1.782.222 2.542l-12.645 15.05c-.358.426-.87.645-1.383.645-.41 0-.82-.138-1.162-.42M240.217 553.363l-12.645-15.05c-.642-.76-.545-1.903.22-2.543.764-.64 1.905-.542 2.544.22l12.65 15.05c.64.763.538 1.904-.223 2.547-.338.282-.75.42-1.16.42-.517 0-1.027-.22-1.386-.644"
       fill="#212121"
       id="path128" />
    <path
       d="M185.116 538.96c-.997 0-1.807-.81-1.807-1.808 0-.996.81-1.805 1.806-1.805h43.84c.995 0 1.803.81 1.803 1.805 0 .997-.81 1.81-1.805 1.81h-43.84zM172.47 554.01c-.998 0-1.808-.81-1.808-1.808 0-1 .81-1.806 1.81-1.806h69.13c.995 0 1.804.807 1.804 1.806 0 .998-.81 1.808-1.805 1.808h-69.13z"
       fill="#212121"
       id="path130" />
    <path
       d="M173.72 565.627l-3.01-13.018c-.226-.975.383-1.94 1.352-2.168.974-.225 1.943.382 2.17 1.353l3.01 13.02c.224.972-.384 1.94-1.353 2.165-.14.033-.277.048-.41.048-.824 0-1.564-.565-1.76-1.4M238.182 566.98c-.97-.224-1.578-1.193-1.354-2.165l3.013-13.02c.225-.97 1.193-1.578 2.166-1.353.972.227 1.58 1.193 1.353 2.167l-3.01 13.017c-.194.836-.938 1.4-1.76 1.4-.135 0-.27-.014-.408-.047"
       fill="#212121"
       id="path132" />
    <path
       d="M175.483 567.028c-1 0-1.808-.81-1.808-1.805 0-.997.808-1.805 1.808-1.805h63.107c1 0 1.806.808 1.806 1.805 0 .996-.807 1.805-1.806 1.805h-63.107zM182.707 560.406c-1 0-1.805-.807-1.805-1.806 0-.997.806-1.805 1.805-1.805h15.658c1 0 1.806.808 1.806 1.805 0 1-.806 1.806-1.805 1.806h-15.658zM233.093 544.225V509.31c0-.997.81-1.804 1.805-1.804.997 0 1.81.807 1.81 1.805v34.915c0 .997-.813 1.81-1.81 1.81-.996 0-1.805-.813-1.805-1.81M510.24 579.975h32.93v-43.57h-32.93v43.57zm34.737 1.808v-1.808 1.808zm-36.54 1.805c-.477 0-.943-.19-1.28-.527-.335-.334-.53-.8-.53-1.277V534.6c0-.476.195-.945.53-1.28.337-.334.803-.527 1.28-.527h36.54c.477 0 .944.193 1.28.527.335.338.53.804.53 1.28v47.183c0 .477-.195.943-.53 1.278-.336.34-.803.528-1.28.528h-36.54z"
       fill="#212121"
       id="path134" />
    <path
       d="M525.948 543.506c-.998 0-1.806-.812-1.806-1.805 0-1 .808-1.804 1.806-1.804h1.523c.998 0 1.805.805 1.805 1.805 0 .994-.807 1.806-1.804 1.806h-1.522zM522.646 576.487c-.995 0-1.804-.81-1.804-1.808 0-1 .81-1.806 1.804-1.806h8.12c1 0 1.808.807 1.808 1.805 0 .996-.808 1.807-1.807 1.807h-8.12zM260.003 74.682h37.045v-41.03h-37.045v41.03zm38.853 1.806v-1.806 1.806zm-40.66 1.806c-.474 0-.94-.192-1.277-.53-.336-.336-.528-.8-.528-1.276v-44.64c0-.477.192-.94.527-1.275.335-.337.802-.53 1.277-.53h40.66c.474 0 .94.193 1.275.53.337.335.53.798.53 1.275v44.64c0 .482-.188.935-.53 1.276-.34.34-.795.53-1.276.53h-40.66z"
       fill="#212121"
       id="path136" />
    <path
       d="M265.698 40.316c-1 0-1.81-.81-1.81-1.803 0-.998.81-1.808 1.81-1.808h13.995c1 0 1.807.81 1.807 1.808 0 .994-.807 1.803-1.807 1.803h-13.995zM265.696 46.978c-1 0-1.807-.81-1.807-1.805 0-.997.807-1.806 1.806-1.806h8.164c.998 0 1.81.81 1.81 1.806s-.812 1.805-1.81 1.805h-8.164zM277.027 71.632c-.997 0-1.807-.81-1.807-1.806 0-.998.81-1.804 1.807-1.804h1c1 0 1.805.806 1.805 1.804 0 .997-.806 1.806-1.805 1.806h-1zM283.693 71.632c-.998 0-1.807-.81-1.807-1.805 0-1 .81-1.805 1.807-1.805h1c.998 0 1.807.806 1.807 1.805 0 .996-.81 1.805-1.808 1.805h-1zM290.358 71.633c-.998 0-1.805-.81-1.805-1.807 0-.996.807-1.807 1.805-1.807h1c1 0 1.806.81 1.806 1.806 0 .997-.807 1.807-1.806 1.807h-1zM231.455 40.984c-.998 0-1.81-.812-1.81-1.807 0-.997.812-1.807 1.81-1.807h26.742c.998 0 1.81.81 1.81 1.807 0 .995-.812 1.807-1.81 1.807h-26.742zM247.45 48.146c-.998 0-1.81-.81-1.81-1.808 0-.997.812-1.805 1.81-1.805h10.747c1 0 1.81.808 1.81 1.805 0 .997-.81 1.808-1.81 1.808H247.45zM240.45 55.306c-.997 0-1.806-.807-1.806-1.805 0-.996.81-1.805 1.806-1.805h17.748c.997 0 1.808.81 1.808 1.806 0 1-.81 1.806-1.808 1.806H240.45zM298.854 69.632c-.997 0-1.807-.808-1.807-1.805 0-.998.81-1.807 1.807-1.807H325.6c.996 0 1.807.81 1.807 1.807 0 .997-.81 1.805-1.806 1.805h-26.746zM298.856 62.47c-.998 0-1.81-.81-1.81-1.807 0-.996.812-1.805 1.81-1.805H309.6c1 0 1.81.81 1.81 1.805 0 .997-.81 1.808-1.81 1.808h-10.744zM298.856 55.308c-.997 0-1.808-.81-1.808-1.807 0-.994.81-1.805 1.808-1.805h17.747c.996 0 1.805.81 1.805 1.806 0 .997-.81 1.808-1.805 1.808h-17.747zM269.222 103.47V76.49c0-1 .81-1.808 1.806-1.808s1.806.807 1.806 1.807v26.98c0 .997-.81 1.807-1.806 1.807s-1.806-.81-1.806-1.807M276.72 90.146V76.488c0-.998.81-1.805 1.807-1.805.997 0 1.807.807 1.807 1.805v13.658c0 .997-.81 1.808-1.807 1.808-.997 0-1.808-.81-1.808-1.808M284.218 95.977V76.49c0-1 .81-1.808 1.806-1.808.998 0 1.807.808 1.807 1.807v19.487c0 .996-.808 1.805-1.806 1.805-.995 0-1.806-.81-1.806-1.805M284.218 31.848V4.865c0-.997.81-1.805 1.806-1.805.998 0 1.807.808 1.807 1.805v26.983c0 .996-.808 1.807-1.806 1.807-.995 0-1.806-.81-1.806-1.807M276.72 31.847V18.19c0-.997.81-1.805 1.807-1.805.997 0 1.807.808 1.807 1.806v13.657c0 .997-.81 1.808-1.807 1.808-.997 0-1.808-.81-1.808-1.808M269.222 31.848V12.36c0-1 .81-1.807 1.806-1.807s1.806.808 1.806 1.808V31.85c0 .997-.81 1.807-1.806 1.807s-1.806-.81-1.806-1.807M699.453 435.56c-.997 0-1.806-.808-1.806-1.807 0-.995.81-1.805 1.806-1.805h12.298c1 0 1.81.81 1.81 1.805 0 1-.81 1.808-1.81 1.808h-12.297zM699.453 441.414c-.997 0-1.806-.812-1.806-1.805 0-1 .81-1.81 1.806-1.81h7.176c.997 0 1.806.81 1.806 1.81 0 .992-.81 1.804-1.807 1.804h-7.177zM737.96 444.78c-.998 0-1.806-.808-1.806-1.805 0-.996.808-1.808 1.806-1.808h.878c.998 0 1.806.812 1.806 1.808 0 .997-.808 1.805-1.806 1.805h-.878zM743.818 444.78c-1 0-1.807-.808-1.807-1.805 0-.996.81-1.808 1.808-1.808h.877c1 0 1.807.812 1.807 1.808 0 .997-.807 1.805-1.807 1.805h-.877zM749.675 444.78c-.998 0-1.81-.808-1.81-1.805 0-.996.812-1.805 1.81-1.805h.876c1 0 1.81.81 1.81 1.805 0 .997-.81 1.805-1.81 1.805h-.875z"
       fill="#212121"
       id="path138" />
    <path
       d="M693.426 447.535h63.154l-.003-18.34h-63.15v18.34zm64.96 1.805v-1.805 1.805zm-66.764 1.805c-.478 0-.94-.194-1.278-.53-.336-.333-.53-.8-.53-1.275v-21.954c0-.474.194-.938.53-1.275.337-.335.8-.53 1.278-.53h66.765c.473 0 .94.195 1.276.53.337.338.53.802.53 1.276v21.954c0 .48-.188.935-.53 1.276-.34.344-.795.53-1.276.53h-66.765zM699.453 457.515c-.997 0-1.806-.812-1.806-1.807 0-1 .81-1.806 1.806-1.806h12.298c1 0 1.81.807 1.81 1.806 0 .995-.81 1.807-1.81 1.807h-12.297zM699.453 463.368c-.997 0-1.806-.812-1.806-1.807 0-1 .81-1.804 1.806-1.804h7.176c.997 0 1.806.805 1.806 1.805 0 .996-.81 1.808-1.807 1.808h-7.177zM737.96 466.734c-.998 0-1.806-.808-1.806-1.808 0-.995.808-1.805 1.806-1.805h.878c.998 0 1.806.81 1.806 1.806 0 1-.808 1.808-1.806 1.808h-.878zM743.818 466.734c-1 0-1.807-.808-1.807-1.805 0-1 .81-1.81 1.808-1.81h.877c1 0 1.807.81 1.807 1.81 0 .996-.807 1.804-1.807 1.804h-.877zM749.675 466.732c-.998 0-1.81-.806-1.81-1.803 0-1 .812-1.808 1.81-1.808h.876c1 0 1.81.81 1.81 1.807 0 .996-.81 1.802-1.81 1.802h-.875z"
       fill="#212121"
       id="path140" />
    <path
       d="M693.426 469.487h63.154l-.003-18.342h-63.15v18.342zm64.96 1.805v-1.805 1.805zm-66.764 1.808c-.478 0-.94-.195-1.278-.53-.336-.334-.53-.803-.53-1.278V449.34c0-.477.194-.937.53-1.275.337-.338.8-.53 1.278-.53h66.765c.473 0 .94.192 1.276.53.337.338.53.798.53 1.275v21.952c0 .484-.188.935-.53 1.28-.34.34-.795.528-1.276.528h-66.765zM699.453 479.467c-.997 0-1.806-.808-1.806-1.805 0-1 .81-1.808 1.806-1.808h12.298c1 0 1.81.81 1.81 1.808 0 .997-.81 1.805-1.81 1.805h-12.297zM699.453 485.32c-.997 0-1.806-.81-1.806-1.805 0-1 .81-1.808 1.806-1.808h7.176c.997 0 1.806.808 1.806 1.808 0 .996-.81 1.805-1.807 1.805h-7.177zM737.96 488.686c-.998 0-1.806-.808-1.806-1.805 0-.995.808-1.807 1.806-1.807h.878c.998 0 1.806.812 1.806 1.808 0 .998-.808 1.806-1.806 1.806h-.878zM743.818 488.686c-1 0-1.807-.808-1.807-1.805 0-.995.81-1.807 1.808-1.807h.877c1 0 1.807.812 1.807 1.808 0 .998-.807 1.806-1.807 1.806h-.877zM749.675 488.686c-.998 0-1.81-.808-1.81-1.805 0-.995.812-1.804 1.81-1.804h.876c1 0 1.81.81 1.81 1.805 0 .998-.81 1.806-1.81 1.806h-.875z"
       fill="#212121"
       id="path142" />
    <path
       d="M693.426 491.44h63.154l-.003-18.34h-63.15v18.34zm64.96 1.806v-1.805 1.806zm-66.764 1.805c-.478 0-.94-.19-1.278-.527-.336-.335-.53-.8-.53-1.277v-21.954c0-.474.194-.938.53-1.273.337-.34.8-.533 1.278-.533h66.765c.473 0 .94.192 1.276.532.337.334.53.798.53 1.272v21.954c0 .48-.188.935-.53 1.277-.34.34-.795.528-1.276.528h-66.765zM699.453 413.607c-.997 0-1.806-.81-1.806-1.805 0-.996.81-1.805 1.806-1.805h12.298c1 0 1.81.81 1.81 1.805 0 .996-.81 1.805-1.81 1.805h-12.297zM699.453 419.463c-.997 0-1.806-.812-1.806-1.808 0-.997.81-1.81 1.806-1.81h7.176c.997 0 1.806.813 1.806 1.81 0 .996-.81 1.808-1.807 1.808h-7.177zM737.96 422.828c-.998 0-1.806-.808-1.806-1.807 0-.995.808-1.804 1.806-1.804h.878c.998 0 1.806.81 1.806 1.805 0 1-.808 1.808-1.806 1.808h-.878zM743.818 422.828c-1 0-1.807-.808-1.807-1.805 0-.998.81-1.807 1.808-1.807h.877c1 0 1.807.81 1.807 1.807 0 .997-.807 1.805-1.807 1.805h-.877zM749.675 422.826c-.998 0-1.81-.81-1.81-1.803 0-.998.812-1.807 1.81-1.807h.876c1 0 1.81.81 1.81 1.807 0 .994-.81 1.803-1.81 1.803h-.875z"
       fill="#212121"
       id="path144" />
    <path
       d="M693.426 425.58h63.154l-.003-18.34h-63.15v18.34zm64.96 1.806v-1.805 1.806zm-66.764 1.808c-.478 0-.94-.195-1.278-.53-.336-.338-.53-.802-.53-1.278v-21.952c0-.474.194-.94.53-1.275.337-.34.8-.533 1.278-.533h66.765c.473 0 .94.194 1.276.532.337.334.53.8.53 1.274v21.952c0 .48-.188.935-.53 1.278-.34.34-.795.53-1.276.53h-66.765zM95.52 135.267c-1 0-1.808-.808-1.808-1.805 0-.997.807-1.806 1.81-1.806h12.296c.998 0 1.806.81 1.806 1.806 0 .997-.808 1.805-1.806 1.805H95.52zM95.52 141.123c-1 0-1.806-.812-1.806-1.806 0-.997.807-1.807 1.806-1.807h7.174c1 0 1.81.81 1.81 1.807 0 .994-.81 1.806-1.81 1.806H95.52zM134.026 144.488c-1 0-1.807-.808-1.807-1.804 0-.997.807-1.806 1.806-1.806h.88c.996 0 1.805.81 1.805 1.806s-.808 1.804-1.805 1.804h-.88zM139.882 144.488c-.996 0-1.805-.808-1.805-1.804 0-.997.81-1.806 1.805-1.806h.878c1 0 1.807.81 1.807 1.806s-.808 1.804-1.807 1.804h-.878zM145.738 144.488c-.994 0-1.804-.808-1.804-1.804 0-.997.81-1.806 1.804-1.806h.88c.997 0 1.805.81 1.805 1.806s-.808 1.804-1.805 1.804h-.88z"
       fill="#212121"
       id="path146" />
    <path
       d="M89.492 147.243h63.153V128.9H89.492v18.343zm64.958 1.805v-1.805 1.805zm-66.763 1.807c-.476 0-.94-.193-1.276-.532-.336-.335-.53-.8-.53-1.275v-21.952c0-.475.194-.94.53-1.277.337-.337.8-.532 1.277-.532h66.763c.475 0 .944.195 1.278.53.337.338.53.803.53 1.278v21.952c0 .483-.19.935-.53 1.275-.34.342-.795.532-1.278.532H87.687zM95.518 157.22c-.997 0-1.804-.808-1.804-1.803 0-1 .807-1.808 1.804-1.808h12.3c.998 0 1.806.807 1.806 1.807 0 .995-.808 1.803-1.806 1.803h-12.3zM95.52 163.075c-1 0-1.806-.81-1.806-1.805 0-1 .807-1.807 1.806-1.807h7.173c1 0 1.81.808 1.81 1.807 0 .995-.81 1.805-1.81 1.805H95.52zM134.026 166.443c-.996 0-1.806-.81-1.806-1.807 0-.996.81-1.807 1.806-1.807h.88c.995 0 1.805.81 1.805 1.806 0 .997-.81 1.807-1.805 1.807h-.88zM139.883 166.443c-1 0-1.806-.81-1.806-1.807 0-.996.807-1.807 1.806-1.807h.88c.995 0 1.804.81 1.804 1.806 0 .997-.81 1.807-1.805 1.807h-.88zM145.738 166.443c-.994 0-1.805-.81-1.805-1.807 0-.996.81-1.807 1.805-1.807h.88c.998 0 1.806.81 1.806 1.806 0 .997-.808 1.807-1.806 1.807h-.88z"
       fill="#212121"
       id="path148" />
    <path
       d="M89.494 169.194h63.15v-18.34h-63.15v18.34zm64.96 1.808v-1.808 1.808zm-66.767 1.806c-.476 0-.94-.193-1.278-.53-.337-.337-.53-.8-.53-1.276V149.05c0-.478.193-.94.53-1.278.336-.336.8-.53 1.277-.53h66.767c.47 0 .94.194 1.276.53.335.337.528.8.528 1.277V171c0 .48-.19.935-.528 1.277-.342.34-.797.528-1.276.528H87.687zM95.52 179.173c-1 0-1.806-.81-1.806-1.805 0-.997.807-1.805 1.807-1.805h12.297c.998 0 1.807.808 1.807 1.805 0 .996-.81 1.805-1.807 1.805H95.52zM95.52 185.026c-.997 0-1.806-.81-1.806-1.803 0-.997.81-1.808 1.807-1.808h7.173c1 0 1.81.81 1.81 1.808 0 .994-.81 1.803-1.81 1.803H95.52zM134.026 188.396c-.996 0-1.807-.81-1.807-1.808 0-.997.81-1.803 1.806-1.803h.877c1 0 1.808.806 1.808 1.803 0 .998-.808 1.808-1.807 1.808h-.877zM139.884 188.396c-.998 0-1.808-.81-1.808-1.808 0-.997.81-1.803 1.808-1.803h.878c.996 0 1.805.806 1.805 1.803 0 .998-.81 1.808-1.805 1.808h-.878zM145.74 188.396c-.998 0-1.807-.81-1.807-1.808 0-.997.81-1.803 1.807-1.803h.877c.998 0 1.807.806 1.807 1.803 0 .998-.81 1.808-1.807 1.808h-.877z"
       fill="#212121"
       id="path150" />
    <path
       d="M89.494 191.147h63.15v-18.34h-63.15v18.34zm64.957 1.806v-1.806 1.806zm-66.763 1.807c-.476 0-.94-.192-1.278-.53-.336-.335-.53-.798-.53-1.277v-21.95c0-.477.194-.942.53-1.277.337-.34.8-.532 1.277-.532h66.764c.475 0 .944.193 1.28.532.335.335.528.8.528 1.276v21.95c0 .485-.188.94-.528 1.278-.34.343-.797.53-1.28.53H87.688zM95.52 91.362c-.997 0-1.806-.81-1.806-1.808 0-.996.81-1.804 1.807-1.804h12.298c.998 0 1.806.808 1.806 1.804 0 .998-.808 1.808-1.806 1.808H95.52zM95.518 97.215c-.997 0-1.804-.808-1.804-1.805 0-1 .807-1.805 1.804-1.805h7.178c.996 0 1.805.806 1.805 1.805 0 .997-.808 1.805-1.804 1.805h-7.178zM134.027 100.582c-1 0-1.808-.807-1.808-1.805 0-1 .807-1.805 1.807-1.805h.876c.998 0 1.808.806 1.808 1.805 0 .998-.81 1.805-1.807 1.805h-.876zM139.883 100.582c-1 0-1.806-.807-1.806-1.805 0-1 .807-1.805 1.806-1.805h.877c1 0 1.81.806 1.81 1.805 0 .998-.81 1.805-1.81 1.805h-.877zM145.74 100.582c-1 0-1.807-.807-1.807-1.805 0-1 .808-1.805 1.807-1.805h.878c.997 0 1.806.806 1.806 1.805 0 .998-.81 1.805-1.806 1.805h-.878z"
       fill="#212121"
       id="path152" />
    <path
       d="M89.492 103.337h63.153v-18.34H89.492v18.34zm64.958 1.806v-1.806 1.806zm-66.763 1.804c-.476 0-.94-.192-1.278-.53-.337-.333-.53-.798-.53-1.274V83.19c0-.478.193-.94.53-1.276.337-.338.8-.53 1.277-.53h66.763c.477 0 .944.192 1.28.53.336.336.528.798.528 1.275v21.953c0 .48-.188.933-.528 1.274-.342.344-.797.53-1.28.53H87.687zM95.52 113.316c-.997 0-1.81-.812-1.81-1.808 0-.997.813-1.806 1.81-1.806h12.297c.998 0 1.807.81 1.807 1.806s-.81 1.808-1.807 1.808H95.52zM95.518 119.168c-.995 0-1.804-.808-1.804-1.807 0-.996.81-1.805 1.804-1.805h7.176c1 0 1.807.81 1.807 1.806 0 1-.807 1.808-1.806 1.808h-7.176zM134.027 122.535c-.997 0-1.808-.81-1.808-1.805 0-1 .81-1.805 1.807-1.805h.876c1 0 1.81.806 1.81 1.805 0 .995-.81 1.805-1.81 1.805h-.876zM139.884 122.535c-.998 0-1.808-.81-1.808-1.805 0-1 .81-1.805 1.808-1.805h.876c1 0 1.81.806 1.81 1.805 0 .995-.81 1.805-1.81 1.805h-.876zM145.74 122.535c-1 0-1.806-.81-1.806-1.805 0-1 .807-1.805 1.806-1.805h.877c1 0 1.81.806 1.81 1.805 0 .995-.81 1.805-1.81 1.805h-.877z"
       fill="#212121"
       id="path154" />
    <path
       d="M89.492 125.288h63.152v-18.34H89.492v18.34zm64.96 1.808v-1.808 1.808zm-66.764 1.807c-.477 0-.94-.195-1.28-.53-.334-.336-.527-.8-.527-1.277v-21.953c0-.477.194-.94.53-1.278.337-.336.8-.528 1.278-.528h66.763c.477 0 .943.192 1.278.528.338.338.53.8.53 1.278v21.953c0 .48-.188.934-.53 1.277-.34.34-.795.53-1.277.53H87.69zM359.426 588.768v-1.805 1.805zm-55.944-1.805h28.993c.437 0 .856.156 1.188.446l13.664 11.948-2.49-10.157c-.133-.542-.012-1.11.33-1.544.345-.437.87-.693 1.423-.693h11.03V556.58H303.48v30.383zm45.77 18.882l-17.456-15.272h-30.12c-.477 0-.94-.19-1.277-.528-.338-.335-.53-.8-.53-1.277v-33.994c0-.474.192-.94.53-1.276.335-.338.8-.53 1.276-.53h57.75c.476 0 .94.192 1.277.53.335.337.53.802.53 1.276v33.994c0 .477-.195.942-.53 1.277-.336.338-.8.528-1.277.528h-10.534l3.304 13.48c.188.765-.145 1.568-.817 1.974-.29.175-.612.26-.935.26-.428 0-.854-.15-1.192-.442zm101.767-29.632h6.1V573.5h-6.1v2.713z"
       fill="#212121"
       id="path156" />
    <path
       d="M310.015 564.92c-.995 0-1.806-.81-1.806-1.807 0-.997.81-1.805 1.805-1.805h41.067c.998 0 1.808.808 1.808 1.805 0 .997-.81 1.808-1.808 1.808h-41.067zM310.015 573.1c-.996 0-1.805-.813-1.805-1.81 0-.995.81-1.804 1.805-1.804h28.556c.998 0 1.81.81 1.81 1.805 0 .997-.812 1.81-1.81 1.81h-28.555zM310.017 581.277c-.997 0-1.807-.808-1.807-1.808 0-.997.81-1.806 1.807-1.806h33.366c.997 0 1.806.81 1.806 1.805 0 1-.81 1.807-1.807 1.807h-33.366zM64.027 480.06c.007 4.305 3.494 7.79 7.797 7.797 4.31-.006 7.793-3.494 7.8-7.798h.003c-.01-4.303-3.494-7.79-7.803-7.794-4.303.003-7.79 3.49-7.797 7.793m-3.613 0c0-6.298 5.108-11.405 11.41-11.405 6.307 0 11.412 5.107 11.416 11.404-.004 6.3-5.11 11.405-11.416 11.405-6.302 0-11.41-5.107-11.41-11.406M103.56 454.95c.004 2.26 1.836 4.097 4.105 4.1 2.264-.003 4.096-1.84 4.1-4.1-.004-2.268-1.836-4.1-4.1-4.107-2.27.007-4.1 1.84-4.105 4.106m-3.613 0c0-4.26 3.453-7.717 7.718-7.717 4.26.003 7.714 3.456 7.714 7.716h.003c-.004 4.256-3.455 7.71-7.718 7.713-4.265-.003-7.718-3.454-7.718-7.714M104.667 494.65c.008 4.402 3.575 7.97 7.984 7.978 4.41-.008 7.978-3.576 7.986-7.978h-.002c-.006-4.407-3.575-7.973-7.983-7.978-4.408.005-7.975 3.568-7.983 7.978m-3.613 0c0-6.406 5.192-11.59 11.597-11.59 6.406 0 11.596 5.184 11.6 11.59-.004 6.4-5.194 11.588-11.6 11.588-6.407 0-11.596-5.188-11.596-11.588"
       fill="#212121"
       id="path158" />
    <path
       d="M77.63 474.836c-.546-.837-.313-1.95.524-2.5l23.71-15.477c.836-.545 1.953-.31 2.5.523.545.835.31 1.954-.525 2.5l-23.708 15.48c-.307.198-.65.29-.99.29-.59 0-1.166-.285-1.512-.817M102.617 494.05l-23.193-7.172c-.954-.292-1.487-1.305-1.19-2.255.29-.954 1.303-1.49 2.258-1.193l23.193 7.166c.952.297 1.485 1.308 1.19 2.26-.238.776-.952 1.274-1.724 1.274-.176 0-.356-.025-.533-.08M766.738 347.815v-3.53c0-.828.567-1.55 1.373-1.75 1.628-.406 3.156-1.04 4.547-1.885.714-.43 1.625-.32 2.216.272l2.49 2.49 3.696-3.697-2.493-2.492c-.587-.584-.698-1.503-.268-2.212.84-1.387 1.476-2.915 1.878-4.54.2-.805.924-1.373 1.754-1.373h3.53v-5.225h-3.53c-.828 0-1.555-.57-1.754-1.37-.402-1.626-1.037-3.155-1.88-4.542-.43-.71-.318-1.625.27-2.212l2.49-2.494-3.696-3.693-2.49 2.49c-.59.592-1.5.703-2.215.272-1.39-.845-2.92-1.48-4.543-1.878-.81-.203-1.376-.93-1.376-1.755v-3.528l-5.225-.004v3.53c0 .827-.568 1.553-1.375 1.756-1.625.398-3.155 1.036-4.544 1.878-.714.43-1.625.32-2.216-.27l-2.49-2.49-3.695 3.692 2.494 2.494c.59.587.697 1.497.265 2.215-.84 1.384-1.478 2.913-1.88 4.538-.198.802-.925 1.372-1.752 1.372h-3.53v5.225h3.53c.828 0 1.553.568 1.753 1.374.4 1.625 1.038 3.153 1.88 4.538.43.715.323 1.626-.266 2.215l-2.493 2.495 3.693 3.695 2.49-2.49c.592-.594 1.5-.704 2.217-.273 1.39.845 2.92 1.48 4.545 1.884.806.2 1.373.923 1.373 1.752v3.527l5.225.002zm-5.903 3.608c-1.624 0-2.938-1.312-2.938-2.935v-2.84c-1.008-.33-1.988-.733-2.926-1.21l-2.01 2.01c-.56.562-1.316.86-2.073.858-.747.003-1.51-.29-2.076-.865l-4.65-4.646c-.566-.565-.87-1.33-.862-2.076-.007-.75.292-1.517.86-2.074l2.008-2.008c-.48-.937-.884-1.915-1.213-2.926h-2.84c-1.628-.005-2.93-1.315-2.938-2.935v-6.58c.007-1.62 1.31-2.93 2.937-2.936h2.843c.327-1.01.732-1.99 1.21-2.926l-2.004-2.005c-.566-.565-.87-1.33-.862-2.076-.007-.75.292-1.517.86-2.074l4.64-4.64c.574-.586 1.344-.878 2.09-.875.747-.003 1.516.294 2.078.86l2.005 2.008c.937-.477 1.92-.88 2.927-1.208v-2.842c.005-1.623 1.314-2.932 2.938-2.935l6.583.003c1.623 0 2.932 1.314 2.933 2.933v2.842c1.014.327 1.992.73 2.93 1.208l1.99-1.985c.57-.594 1.348-.886 2.092-.883.746-.003 1.514.292 2.078.86l4.647 4.65c.577.567.868 1.328.868 2.08 0 .746-.29 1.504-.86 2.072l-2.01 2.01c.477.936.884 1.912 1.21 2.922h2.844v2.934-2.935c1.627.005 2.93 1.315 2.934 2.934v6.58c-.005 1.62-1.307 2.93-2.935 2.936h-2.844c-.327 1.01-.734 1.99-1.21 2.924l2 2.002c.578.568.87 1.33.87 2.082 0 .745-.292 1.503-.86 2.073l-4.658 4.658c-.565.562-1.32.86-2.076.858-.744.003-1.516-.293-2.075-.865l-2.007-2.002c-.938.477-1.916.88-2.93 1.21v2.84c0 1.616-1.31 2.935-2.932 2.938l-6.583-.003z"
       fill="#212121"
       id="path160" />
    <path
       d="M755.896 326.487c.005 4.534 3.688 8.22 8.23 8.225 4.54-.005 8.222-3.69 8.23-8.225-.008-4.54-3.69-8.222-8.23-8.225-4.542.003-8.225 3.685-8.23 8.225m-3.617 0c0-6.537 5.305-11.84 11.845-11.842 6.538.003 11.844 5.305 11.844 11.842 0 6.536-5.307 11.835-11.845 11.838-6.54-.003-11.844-5.302-11.846-11.838M22.796 295.166c.057 0 .145.002.25.006l.746.015 1.04.014h60.073c7.632-.013 13.808-6.187 13.82-13.814-.012-7.634-6.188-13.807-13.82-13.818v-2.129V267.57c-.247 0-.496.007-.744.02-.766.04-1.477-.41-1.77-1.12-3.002-7.343-10.212-12.518-18.634-12.515-8.94-.003-16.513 5.83-19.136 13.892-.3.92-1.277 1.444-2.212 1.18-1.083-.307-2.22-.474-3.398-.474-5.31 0-9.838 3.324-11.633 8-.308.797-1.14 1.27-1.986 1.134-.488-.083-.98-.127-1.48-.127-4.884.008-8.837 3.96-8.847 8.843-.002 4.495 3.362 8.205 7.718 8.766h.016zm2.017 3.646c-.007 0-1.183-.015-1.846-.03-.27-.01-.276.006-.58-.024-6.167-.752-10.934-5.995-10.935-12.358 0-6.88 5.575-12.455 12.458-12.456.22 0 .438.005.657.017 2.606-5.34 8.095-9.017 14.443-9.02.934 0 1.85.084 2.738.236 3.52-8.7 12.046-14.834 22.008-14.835 9.493.002 17.678 5.57 21.475 13.616 9.48.176 17.11 7.91 17.11 17.43 0 9.624-7.807 17.424-17.435 17.426H24.813zM225.953 144.092c-.822-.565-1.032-1.69-.463-2.51.863-1.25 1.278-2.58 1.278-3.77-.023-1.554-.622-2.875-2.12-3.932-.936-.643-1.842-.9-2.744-.905-1.666-.005-3.45.967-4.753 2.848-.567.82-1.692 1.027-2.512.46-.823-.567-1.03-1.692-.46-2.514 1.835-2.662 4.646-4.4 7.726-4.407 1.636-.002 3.31.51 4.8 1.543 2.44 1.665 3.697 4.286 3.674 6.906 0 2.018-.685 4.036-1.914 5.818-.35.51-.912.782-1.488.782-.353 0-.71-.103-1.023-.32M191.745 174.662c-3.557-2.428-5.317-6.115-5.292-9.868.003-3.053 1.083-6.144 2.998-8.91.568-.822 1.692-1.026 2.513-.46.822.567 1.026 1.69.457 2.51-1.563 2.26-2.358 4.674-2.352 6.86.02 2.69 1.1 5.053 3.732 6.896 1.635 1.127 3.255 1.597 4.84 1.6 3.05.01 6.206-1.848 8.516-5.182.566-.82 1.693-1.024 2.512-.458.82.567 1.028 1.69.46 2.512-2.803 4.06-6.945 6.73-11.488 6.74-2.332.003-4.717-.733-6.895-2.24"
       fill="#212121"
       id="path162" />
    <path
       d="M198.395 170.024c-.013 0-.027-.003-.04-.005h-.007c-.008-.004-.016-.005-.024-.007-.007 0-.014 0-.02-.002h-.01c-.258-.043-.503-.143-.723-.295l-.655-.45c-.063-.043-.123-.09-.18-.14-.006-.006-.01-.013-.017-.017-.004-.004-.008-.01-.014-.012-.01-.01-.02-.018-.027-.027 0-.002-.002-.004-.004-.004-.108-.104-.198-.22-.27-.343-.01-.012-.018-.023-.024-.036l-.003-.003-.02-.035c0-.003 0-.004-.003-.005v-.002c-1.12-1.258-1.714-2.873-1.71-4.502 0-1.323.39-2.676 1.205-3.845.568-.82 1.694-1.022 2.514-.454.818.57 1.02 1.695.452 2.515-.38.55-.56 1.164-.56 1.786.004.882.362 1.742 1.05 2.355.332.168.62.223.9.226.714.017 1.683-.496 2.504-1.68.568-.822 1.69-1.027 2.514-.46.82.567 1.026 1.692.46 2.51-1.266 1.833-3.167 3.226-5.477 3.244h-.023c-.598 0-1.202-.107-1.79-.31M189.908 158.393c-.82-.564-1.026-1.69-.458-2.51l13.824-20.006c.568-.82 1.695-1.027 2.515-.46.82.566 1.024 1.692.458 2.51l-13.826 20.008c-.35.507-.914.78-1.487.78-.355 0-.714-.104-1.027-.322"
       fill="#212121"
       id="path164" />
    <path
       d="M196.305 162.81c-.82-.567-1.028-1.69-.46-2.51l18.334-26.53c.564-.823 1.69-1.027 2.512-.46.82.567 1.027 1.69.46 2.51l-18.335 26.53c-.347.507-.912.78-1.485.78-.354 0-.714-.104-1.027-.32M207.615 170.62c-.82-.567-1.025-1.692-.46-2.512l18.336-26.53c.568-.82 1.694-1.025 2.514-.46.822.57 1.027 1.693.458 2.513l-18.334 26.53c-.35.51-.912.78-1.485.78-.356 0-.714-.103-1.028-.32M203.17 167.55c-.822-.566-1.027-1.69-.46-2.51l13.525-19.574c.566-.82 1.692-1.024 2.514-.46.82.567 1.026 1.695.46 2.515l-13.526 19.57c-.352.51-.917.78-1.49.78-.355 0-.712-.104-1.024-.32"
       fill="#212121"
       id="path166" />
    <path
       d="M650.457 142.51h45.503V89.337h-45.503v53.173zm47.31 1.805v-1.805 1.805zm-49.116 1.806c-.477 0-.94-.19-1.277-.527-.337-.337-.53-.8-.53-1.278V87.533c0-.476.193-.94.53-1.278.336-.338.8-.53 1.278-.53h49.118c.475 0 .94.192 1.28.53.335.338.527.802.527 1.278v56.782c0 .483-.186.937-.53 1.278-.34.342-.794.528-1.277.528H648.65z"
       fill="#212121"
       id="path170" />
    <path
       d="M656.95 98.566c-1 0-1.81-.808-1.81-1.807 0-.996.81-1.804 1.81-1.804h32.52c.996 0 1.805.808 1.805 1.803 0 .998-.81 1.806-1.804 1.806h-32.52zM656.95 122.04c-1 0-1.81-.807-1.81-1.805 0-.996.81-1.804 1.81-1.804h32.52c.996 0 1.805.81 1.805 1.805 0 .998-.81 1.806-1.804 1.806h-32.52zM656.95 106.39c-1 0-1.81-.808-1.81-1.805 0-.998.81-1.805 1.81-1.805h18.428c1 0 1.807.807 1.807 1.805 0 .997-.808 1.806-1.807 1.806H656.95zM656.95 114.217c-.998 0-1.81-.81-1.81-1.805 0-.998.812-1.808 1.81-1.808h8.277c.996 0 1.81.81 1.81 1.808 0 .996-.814 1.805-1.81 1.805h-8.277zM673.506 114.217c-1 0-1.807-.81-1.807-1.806 0-.995.806-1.806 1.806-1.806h15.965c.996 0 1.805.81 1.805 1.807 0 .996-.81 1.807-1.804 1.807h-15.964zM681.19 129.87c-.998 0-1.806-.81-1.806-1.807 0-.998.808-1.808 1.806-1.808h8.28c.995 0 1.806.81 1.806 1.808 0 .996-.81 1.807-1.806 1.807h-8.28zM656.95 129.868c-.997 0-1.808-.81-1.808-1.806s.81-1.807 1.808-1.807h15.967c.996 0 1.806.81 1.806 1.807 0 .997-.81 1.806-1.806 1.806H656.95zM389.93 126.675c-3.445-.002-6.233-2.788-6.233-6.228V89.705c0-1 .807-1.808 1.808-1.808.997 0 1.806.807 1.806 1.808v30.742c.003 1.444 1.173 2.614 2.62 2.617h47.534c1.443-.003 2.612-1.173 2.615-2.617V89.705c-.004-1.45-1.173-2.617-2.616-2.62h-26.23c-.998 0-1.807-.805-1.807-1.806 0-1 .81-1.805 1.807-1.805h26.23c3.44 0 6.227 2.786 6.23 6.23l-.003 30.742c0 3.44-2.786 6.226-6.226 6.228H389.93z"
       fill="#212121"
       id="path172" />
    <path
       d="M383.697 91.804v-13.35c0-2.435 1.974-4.403 4.41-4.408h27.973c2.433 0 4.408 1.973 4.408 4.41l.002 6.826c0 .997-.812 1.805-1.808 1.805-.998 0-1.806-.808-1.806-1.805v-6.827c0-.44-.36-.795-.796-.797h-27.972c-.444 0-.797.358-.797.797v13.35c0 .996-.807 1.806-1.806 1.806-1 0-1.807-.81-1.807-1.806M411.024 137.173c.003 1.47 1.198 2.663 2.67 2.665 1.474-.002 2.667-1.195 2.672-2.665-.005-1.474-1.196-2.665-2.67-2.67-1.477.005-2.67 1.196-2.672 2.67m-3.612 0c0-3.47 2.813-6.28 6.283-6.28s6.283 2.81 6.283 6.28c-.003 3.465-2.813 6.277-6.283 6.277-3.472 0-6.283-2.812-6.283-6.277"
       fill="#212121"
       id="path174" />
    <path
       d="M411.887 132.7v-7.83c0-1 .81-1.808 1.81-1.808.994 0 1.803.808 1.803 1.807v7.83c0 .996-.81 1.805-1.804 1.805-1 0-1.81-.81-1.81-1.805M380.428 138.978c-1 0-1.807-.81-1.807-1.807 0-.996.808-1.804 1.808-1.804h28.79c.998 0 1.808.808 1.808 1.805 0 .998-.81 1.808-1.807 1.808h-28.792zM418.172 138.978c-1 0-1.806-.808-1.806-1.805 0-.998.806-1.807 1.806-1.807h28.79c.998 0 1.808.81 1.808 1.807 0 .997-.81 1.805-1.808 1.805h-28.79zM580.945 501.1c-3.447 0-6.23-2.792-6.23-6.23v-30.743c0-1 .806-1.805 1.806-1.805.997 0 1.807.806 1.807 1.805l-.003 30.742c.004 1.446 1.173 2.615 2.62 2.618l47.534.002c1.444-.005 2.616-1.176 2.618-2.62v-30.743c-.002-1.445-1.174-2.617-2.618-2.62h-26.23v.003c-.998 0-1.805-.81-1.805-1.807 0-.998.807-1.808 1.805-1.808l26.23.002c3.444 0 6.23 2.79 6.233 6.23l-.003 30.742c0 3.44-2.785 6.228-6.23 6.23h-47.532z"
       fill="#212121"
       id="path176" />
    <path
       d="M574.713 466.225V452.88c0-2.44 1.975-4.41 4.41-4.41h27.972c2.434 0 4.406 1.974 4.406 4.41l.004 6.826c0 .996-.81 1.808-1.808 1.808-.995 0-1.806-.812-1.806-1.808v-6.827c0-.444-.358-.797-.795-.8h-27.97c-.44.003-.8.358-.8.8v13.345c0 .997-.807 1.805-1.805 1.805-.997 0-1.807-.808-1.807-1.805M586.692 474.53c-1 0-1.806-.81-1.806-1.807 0-.996.807-1.808 1.806-1.808h25.256c.997 0 1.806.812 1.806 1.808s-.81 1.808-1.806 1.808h-25.256zM586.692 484.733c-1 0-1.806-.805-1.806-1.805 0-1 .807-1.805 1.806-1.805h15.58c.997 0 1.806.806 1.806 1.805 0 1-.81 1.805-1.805 1.805h-15.58zM175.99 441.873v29.63c0 1.497 1.218 2.712 2.715 2.715h43.71c1.498-.003 2.713-1.212 2.715-2.715v-29.63c-.002-1.502-1.217-2.713-2.714-2.713h-43.71c-1.5 0-2.715 1.21-2.716 2.713zm2.715 35.958c-3.496-.002-6.33-2.83-6.33-6.327v-29.63c0-3.496 2.836-6.325 6.33-6.325h43.71c3.495 0 6.326 2.83 6.326 6.325v29.63c0 3.494-2.828 6.325-6.324 6.328h-43.71z"
       fill="#212121"
       id="path178" />
    <path
       d="M178.705 477.83c-3.497-.002-6.33-2.83-6.33-6.328v-2.868c0-.562.26-1.088.702-1.428l15.41-11.908.002.003c.788-.61 1.922-.465 2.53.324.61.79.467 1.92-.324 2.53L175.99 469.52v1.982c0 1.5 1.22 2.713 2.715 2.716h43.71c1.498-.003 2.713-1.212 2.715-2.716v-1.982l-14.705-11.363c-.79-.612-.938-1.744-.33-2.533.612-.79 1.748-.935 2.537-.326l15.408 11.908c.446.34.7.868.7 1.428v2.868c0 3.494-2.826 6.326-6.325 6.33h-43.71z"
       fill="#212121"
       id="path180" />
    <path
       d="M196.258 464.16l-23.18-17.91c-.445-.346-.702-.868-.702-1.428v-2.948c0-3.497 2.834-6.326 6.33-6.326h43.71v3.61h-43.71c-1.498.003-2.713 1.216-2.716 2.716v2.06l22.48 17.37c.5.396 1.284.647 2.09.644.805.003 1.586-.248 2.093-.644l22.476-17.374v-2.056c-.005-1.503-1.217-2.713-2.714-2.716v-3.61c3.493 0 6.324 2.83 6.324 6.326v2.948c0 .56-.255 1.082-.7 1.428l-23.18 17.91c-1.262.966-2.792 1.396-4.3 1.4-1.508-.004-3.04-.43-4.302-1.4"
       fill="#212121"
       id="path182" />
    <path
       d="M361.57 538.12c-1.252-.812-2.437-1.58-3.183-1.265-.614.26-1.225.722-1.872 1.21-.758.577-1.542 1.17-2.477 1.56-1.648.682-3.655.246-5.654-1.232l-.058-.04c-1.192-.882-2.417-1.788-3.3-1.66-.716.107-1.522.71-2.376 1.347-.462.346-.942.703-1.46 1.027-1.774 1.106-3.983 1.1-5.764-.015-.51-.32-.978-.67-1.432-1.01-.86-.64-1.673-1.247-2.395-1.353-.93-.13-2.164.664-3.353 1.434-1.695 1.104-3.62 2.35-5.67 1.49-.927-.39-1.703-.98-2.454-1.548-.652-.494-1.268-.962-1.887-1.218-1.04-.432-2.475.494-3.04.91l-.056.042c-1.556 1.15-3.325 2.438-5.284 2.155-1.386-.21-2.504-1.044-3.585-1.853-.436-.326-.848-.635-1.27-.897l1.415-2.272c.518.324.995.68 1.458 1.027.853.636 1.66 1.24 2.38 1.348.89.14 2.108-.782 3.298-1.66l.056-.043c2-1.476 4.006-1.912 5.654-1.23.937.39 1.72.983 2.48 1.56.647.488 1.258.95 1.874 1.213.74.307 1.926-.456 3.177-1.267 1.53-.99 3.253-2.108 5.185-1.84 1.4.202 2.528 1.044 3.62 1.858.428.32.836.626 1.253.887.918.576 2.01.58 2.927.01.422-.264.837-.57 1.274-.9 1.078-.806 2.195-1.64 3.58-1.85 1.313-.2 2.543.32 3.68 1.032.557.348 1.092.743 1.603 1.12l.058.044c.567.418 1.996 1.344 3.04.912.622-.256 1.236-.724 1.888-1.218.75-.57 1.528-1.157 2.453-1.548 2.056-.864 3.98.39 5.675 1.488 1.187.772 2.42 1.564 3.352 1.434.722-.103 1.532-.71 2.393-1.353.453-.338.923-.688 1.43-1.008 1.783-1.115 3.99-1.12 5.766-.014l-1.415 2.272c-.913-.57-2.008-.566-2.927.01-.415.26-.822.564-1.254.885-1.09.816-2.22 1.658-3.614 1.86-.202.028-.4.04-.597.04-1.694 0-3.224-.993-4.59-1.88zM347.463 507.712c-4.275 0-7.752 3.477-7.752 7.752s3.478 7.753 7.753 7.753c4.274 0 7.75-3.478 7.75-7.753s-3.476-7.752-7.75-7.752m0 18.22c-5.77 0-10.463-4.698-10.463-10.468S341.693 505 347.463 505s10.462 4.694 10.462 10.464c0 5.77-4.693 10.468-10.462 10.468M628.463 529.712c-4.275 0-7.752 3.477-7.752 7.752s3.478 7.753 7.753 7.753c4.274 0 7.75-3.478 7.75-7.753s-3.476-7.752-7.75-7.752m0 18.22c-5.77 0-10.463-4.698-10.463-10.468S622.693 527 628.463 527s10.462 4.694 10.462 10.464c0 5.77-4.693 10.468-10.462 10.468M266.463 449.712c-4.275 0-7.752 3.477-7.752 7.752s3.478 7.753 7.753 7.753c4.274 0 7.75-3.478 7.75-7.753s-3.476-7.752-7.75-7.752m0 18.22c-5.77 0-10.463-4.698-10.463-10.468S260.693 447 266.463 447s10.462 4.694 10.462 10.464c0 5.77-4.693 10.468-10.462 10.468"
       fill="#0C8FD7"
       id="path222" />
    <path
       fill="#0C8FD7"
       d="M346 520.79h2.71V511H346M627 542.79h2.71V533H627M265 462.79h2.71V453H265"
       id="path224" />
    <path
       fill="#0C8FD7"
       d="M342 516.712h9.787V514H342M623 538.712h9.787V536H623M261 458.712h9.787V456H261"
       id="path226" />
    <path
       fill="#000"
       d="M281 582.712h13.557V580H281M266 582.712h8.138V580H266"
       id="path228" />
    <path
       fill="#0C8FD7"
       d="M242 574.712h24.745V572H242M174 500.712h24.745V498H174M286 574.712h11.863V572H286M218 500.712h11.863V498H218M275 574.712h6.1V572H275M207 500.712h6.1V498H207M279 567.712h13.217V565H279"
       id="path230" />
    <path
       fill="#000"
       d="M422.545 576.213h22.373V573.5h-22.373"
       id="path232" />
    <path
       fill="#0C8FD7"
       d="M466 576.712h16.61V574H466"
       id="path234" />
    <path
       d="M391.618 561.36l-1.132-1.793c-.727-1.157-1.575-2.222-2.525-3.17-.946-.95-2.01-1.8-3.164-2.526L383 552.74l1.796-1.134c1.15-.727 2.218-1.576 3.165-2.526.95-.948 1.8-2.013 2.526-3.167l1.132-1.797 1.132 1.797c.726 1.152 1.575 2.22 2.524 3.167.95.95 2.015 1.8 3.166 2.526l1.795 1.133-1.795 1.13c-1.15.728-2.216 1.577-3.166 2.527-.95.95-1.798 2.016-2.524 3.17l-1.132 1.794zM438.07 541c-2.243 0-4.07 1.823-4.07 4.07 0 2.242 1.827 4.065 4.07 4.065 2.24 0 4.068-1.823 4.068-4.066 0-2.247-1.827-4.07-4.07-4.07"
       stroke="#1393D9"
       stroke-width="3"
       id="path236" />
    <path
       fill="#0C8FD7"
       d="M429 590.712h16.61V588H429"
       id="path238" />
    <path
       fill="#000"
       d="M577 524.6h2.6V522H577M496 524.6h2.6V522H496M463 489.6h2.6V487H463"
       id="path240" />
    <path
       fill="#0C8FD7"
       d="M375 515.6h2.6V513H375M481 479.6h2.6V477H481"
       id="path242" />
    <path
       inkscape:connector-curvature="0"
       style="fill:#212121"
       d="m 121.68369,318.78772 0,-40.733 c 0,-1 0.81,-1.808 1.81,-1.808 0.995,0 1.804,0.808 1.804,1.808 l 0,40.733 c 0,0.996 -0.81,1.808 -1.805,1.808 -1,0 -1.81,-0.812 -1.81,-1.808 m 447.288,-179.993 c 0.006,2.602 2.108,4.703 4.714,4.707 2.6,-0.004 4.706,-2.107 4.71,-4.707 -0.004,-2.6 -2.11,-4.706 -4.71,-4.71 -2.605,0.004 -4.707,2.107 -4.713,4.71 m -3.614,0 c 0,-4.596 3.728,-8.32 8.328,-8.32 4.598,0 8.324,3.72 8.326,8.32 -0.002,4.594 -3.728,8.32 -8.325,8.32 -4.6,0 -8.327,-3.726 -8.327,-8.32 m 113.106,55.79 c 0.005,2.602 2.108,4.706 4.71,4.71 2.602,-0.004 4.708,-2.108 4.71,-4.71 -0.002,-2.602 -2.108,-4.703 -4.71,-4.707 -2.602,0.004 -4.705,2.105 -4.71,4.707 m -3.615,0 c 0,-4.595 3.727,-8.32 8.325,-8.32 4.6,0 8.325,3.725 8.325,8.32 0,4.6 -3.726,8.322 -8.325,8.322 -4.598,0 -8.325,-3.725 -8.325,-8.322"
       id="path12-4"
       sodipodi:nodetypes="cssssscccccccscscccccccsssc" />
  </g>
</svg>
