<svg xmlns="http://www.w3.org/2000/svg" viewBox="0 0 801.146 599.287"><title>Page 1</title><g fill="none" fill-rule="evenodd"><path fill="#0c8fd7" d="M361.363 50.345a1.786 1.786 0 1 1 0-3.573h19.989a1.786 1.786 0 0 1 0 3.57h-19.988zM202.055 105.75a1.789 1.789 0 1 1 0-3.575h23.208c.99 0 1.785.8 1.785 1.79 0 .985-.797 1.784-1.785 1.784h-23.208zm53.01 39.458v-7.091c0-.986.802-1.785 1.788-1.785.989 0 1.79.799 1.79 1.786v7.091a1.79 1.79 0 0 1-1.79 1.787 1.79 1.79 0 0 1-1.787-1.787m18.549 28.206a1.785 1.785 0 1 1 0-3.572h21.92a1.787 1.787 0 1 1 0 3.572zM13.06 449.822a1.784 1.784 0 1 1-.001-3.57H33.69a1.786 1.786 0 0 1 .002 3.57h-20.63zM43.362 221.52a1.786 1.786 0 1 1 0-3.573h23.207a1.786 1.786 0 0 1 0 3.571H43.362z"/><path fill="#212121" d="M443.612 247.473a2.382 2.382 0 1 1 0-4.763h48.245a2.384 2.384 0 0 1 2.383 2.381 2.383 2.383 0 0 1-2.383 2.382zm0 18.455a2.381 2.381 0 1 1 0-4.764h37.91a2.381 2.381 0 1 1 0 4.763h-37.91zm0-27.683a2.381 2.381 0 1 1 0-4.762h30.161a2.38 2.38 0 1 1-.002 4.762h-30.16zm0 18.455a2.383 2.383 0 1 1 0-4.765h17.593a2.385 2.385 0 0 1 2.385 2.384 2.385 2.385 0 0 1-2.383 2.381zm98.87 9.226a2.381 2.381 0 1 1 .001-4.762h2.154a2.38 2.38 0 1 1 0 4.761h-2.155zm-11.225 0a2.381 2.381 0 1 1 0-4.762h2.156a2.381 2.381 0 1 1 0 4.762zm22.448.002a2.382 2.382 0 0 1 0-4.763h2.156a2.38 2.38 0 1 1 0 4.762h-2.156zm11.226 0a2.382 2.382 0 0 1 0-4.764h2.154a2.383 2.383 0 0 1 0 4.764zm-42.987-27.683a2.382 2.382 0 1 1 0-4.764h2.156a2.381 2.381 0 0 1 2.38 2.382 2.381 2.381 0 0 1-2.38 2.383h-2.156zm10.418 0a2.382 2.382 0 0 1 .001-4.762h2.156a2.381 2.381 0 1 1-.002 4.762h-2.154zm20.57 5.466c0 3.25 2.637 5.877 5.884 5.881a5.888 5.888 0 0 0 5.885-5.88 5.897 5.897 0 0 0-5.888-5.881c-3.247.008-5.88 2.637-5.885 5.881m-4.767 0c0-5.88 4.771-10.641 10.652-10.641 5.882 0 10.649 4.762 10.649 10.641 0 5.881-4.77 10.646-10.652 10.646s-10.647-4.764-10.65-10.645"/><path fill="#212121" d="M556.433 243.712v-8.264a2.38 2.38 0 1 1 4.763 0v8.264a2.382 2.382 0 1 1-4.763 0"/><path fill="#212121" d="M440.414 263.639l.513 10.399h138.12V224.96H431.645v27.803l8.769 10.874zm141.015 12.778v-2.38 2.379zM438.086 262.61a2.4 2.4 0 0 1-1.684-.697c-.443-.443-.3-1.199-.698-1.686l-8.825-10.782v-26.87c0-.626.255-1.24.699-1.684a2.396 2.396 0 0 1 1.685-.698H581.43c.626 0 1.242.256 1.683.697a2.4 2.4 0 0 1 .7 1.685v53.84c0 .63-.255 1.243-.7 1.685a2.403 2.403 0 0 1-1.684.696H440.871l-2.785-16.188zm3.548 38.7a2.38 2.38 0 1 1 0-4.761h50.223a2.382 2.382 0 0 1 2.383 2.38 2.383 2.383 0 0 1-2.383 2.381zm17.802 18.456a2.381 2.381 0 1 1 0-4.763h22.085a2.381 2.381 0 1 1 0 4.763zm-17.802-27.684a2.38 2.38 0 1 1 0-4.763h32.14a2.382 2.382 0 1 1-.003 4.762h-32.138zm13.846 18.456c-.443-1.033-2.383-1.065-2.383-2.378a2.384 2.384 0 0 1 2.383-2.384h5.725a2.381 2.381 0 1 1 .002 4.763zm87.002 9.228a2.38 2.38 0 0 1-2.38-2.382 2.38 2.38 0 0 1 2.381-2.381h2.154a2.381 2.381 0 1 1 0 4.763zm-11.225.002a2.38 2.38 0 1 1 0-4.762h2.156a2.382 2.382 0 1 1 0 4.763h-2.156zm22.448 0a2.381 2.381 0 0 1 0-4.762h2.156a2.38 2.38 0 1 1 0 4.763h-2.156zm11.226 0a2.384 2.384 0 0 1-2.383-2.38 2.38 2.38 0 0 1 2.383-2.382h2.154a2.381 2.381 0 1 1 0 4.763h-2.154zm-42.987-27.685a2.381 2.381 0 1 1 0-4.761h2.156a2.38 2.38 0 0 1 0 4.76zm10.418-.001a2.382 2.382 0 0 1 .001-4.763h2.156a2.382 2.382 0 0 1-.002 4.762h-2.154zm20.57 5.471c0 3.246 2.637 5.873 5.884 5.879a5.892 5.892 0 0 0 5.888-5.878 5.892 5.892 0 0 0-5.885-5.882 5.89 5.89 0 0 0-5.885 5.882m-4.767 0c0-5.88 4.77-10.642 10.652-10.646 5.882 0 10.649 4.767 10.652 10.646 0 5.879-4.767 10.642-10.65 10.642-5.88 0-10.647-4.763-10.651-10.642"/><path fill="#212121" d="M556.433 297.553v-8.263a2.382 2.382 0 0 1 4.764 0v8.265a2.38 2.38 0 1 1-4.764 0M459.436 355.154a2.384 2.384 0 0 1-2.383-2.383 2.38 2.38 0 0 1 2.383-2.38h32.42a2.381 2.381 0 1 1 0 4.762h-32.42zm0 18.453a2.381 2.381 0 1 1 0-4.763h22.085a2.382 2.382 0 1 1 0 4.764h-22.085zm0-27.682a2.384 2.384 0 0 1-2.383-2.384 2.38 2.38 0 0 1 2.383-2.379h14.337a2.378 2.378 0 0 1 2.382 2.379 2.384 2.384 0 0 1-2.384 2.384h-14.336zm0 18.457a2.383 2.383 0 1 1 0-4.765h1.769a2.383 2.383 0 1 1 .002 4.765zm83.046 9.225a2.38 2.38 0 1 1 .001-4.763h2.154a2.382 2.382 0 0 1 0 4.763h-2.155zm-11.225 0a2.38 2.38 0 1 1 0-4.762h2.156a2.382 2.382 0 1 1 0 4.763h-2.156zm22.448 0a2.381 2.381 0 1 1 0-4.763h2.156a2.382 2.382 0 0 1 0 4.764h-2.156zm11.226 0a2.38 2.38 0 1 1 0-4.762h2.154a2.383 2.383 0 0 1 0 4.763h-2.154zm-42.987-27.682a2.383 2.383 0 1 1 0-4.764h2.156a2.383 2.383 0 0 1 0 4.763zm10.418 0a2.381 2.381 0 0 1 .001-4.764h2.156a2.381 2.381 0 1 1-.002 4.764h-2.154zm20.567 5.47a5.898 5.898 0 0 0 5.888 5.879 5.893 5.893 0 0 0 5.885-5.88 5.892 5.892 0 0 0-5.885-5.88 5.894 5.894 0 0 0-5.888 5.879m-4.763 0c0-5.88 4.77-10.644 10.652-10.646 5.88.003 10.646 4.767 10.649 10.647 0 5.879-4.767 10.644-10.65 10.644-5.882 0-10.652-4.765-10.652-10.644"/><path fill="#212121" d="M556.433 351.395v-8.261a2.384 2.384 0 0 1 2.384-2.384 2.38 2.38 0 0 1 2.38 2.384v8.26a2.382 2.382 0 0 1-4.764 0"/><path fill="#212121" d="M461.317 381.714h117.73v-49.076h-117.73zm120.112 2.385v-2.383zm-122.497 2.38a2.41 2.41 0 0 1-1.684-.695 2.41 2.41 0 0 1-.699-1.685v-53.843c0-.627.256-1.24.7-1.684a2.397 2.397 0 0 1 1.685-.698H581.43a2.39 2.39 0 0 1 2.384 2.379v53.844a2.4 2.4 0 0 1-.7 1.685 2.414 2.414 0 0 1-1.685.695H458.932zM232.171 247.47a2.383 2.383 0 0 1-2.385-2.379 2.382 2.382 0 0 1 2.385-2.381h48.245a2.38 2.38 0 1 1 0 4.76zm0 18.456a2.381 2.381 0 1 1 0-4.762h37.912a2.381 2.381 0 1 1 0 4.762zm0-27.68a2.386 2.386 0 0 1-2.385-2.382 2.386 2.386 0 0 1 2.385-2.384h30.162a2.381 2.381 0 0 1 2.38 2.384 2.381 2.381 0 0 1-2.38 2.38H232.17zm0 18.452a2.382 2.382 0 0 1-2.383-2.38 2.381 2.381 0 0 1 2.383-2.38h17.595a2.38 2.38 0 1 1-.001 4.762H232.17zm98.87 9.228a2.381 2.381 0 1 1 0-4.762h2.152a2.38 2.38 0 1 1-.001 4.762h-2.152zm-11.229 0a2.38 2.38 0 0 1 .001-4.762h2.16a2.381 2.381 0 1 1 0 4.762h-2.159zm22.453 0a2.382 2.382 0 1 1 0-4.762h2.154a2.381 2.381 0 1 1 0 4.762zm11.224 0a2.38 2.38 0 0 1 0-4.762h2.154a2.381 2.381 0 0 1 0 4.762zm-42.987-27.68a2.383 2.383 0 0 1 0-4.766h2.153a2.384 2.384 0 0 1 2.385 2.384 2.384 2.384 0 0 1-2.385 2.38h-2.153zm10.42 0a2.382 2.382 0 0 1 0-4.766h2.152a2.382 2.382 0 1 1 0 4.764h-2.152zm20.57 5.466c0 3.246 2.637 5.875 5.882 5.88a5.888 5.888 0 0 0 5.887-5.88 5.894 5.894 0 0 0-5.887-5.88 5.892 5.892 0 0 0-5.882 5.88m-4.767 0c0-5.88 4.769-10.641 10.649-10.645 5.884.003 10.651 4.767 10.651 10.645 0 5.88-4.767 10.644-10.651 10.647-5.88-.003-10.647-4.767-10.648-10.647"/><path fill="#212121" d="M344.993 243.714v-8.265a2.383 2.383 0 1 1 4.765 0v8.265a2.38 2.38 0 0 1-2.383 2.38 2.38 2.38 0 0 1-2.381-2.38"/><path fill="#212121" d="M220.205 274.038h138.481c1.97-5.61-.246-11.695 8.921-21.438v-27.64H220.205v49.077zm-2.383 4.76c-.626 0-1.24-.252-1.682-.696a2.399 2.399 0 0 1-.699-1.686v-53.837a2.4 2.4 0 0 1 .698-1.687 2.412 2.412 0 0 1 1.684-.698H369.99c.626 0 1.242.256 1.683.697.445.445.7 1.058.7 1.686v25.73c-14.524 20.057-7.827 18.353-13.688 30.488H217.822zm14.347 22.513a2.381 2.381 0 0 1 0-4.761h48.247a2.381 2.381 0 1 1 0 4.761zm0 18.456a2.383 2.383 0 1 1 0-4.763h37.912a2.383 2.383 0 1 1 0 4.763zm0-27.68a2.383 2.383 0 0 1 0-4.765h30.162a2.383 2.383 0 0 1-.001 4.765h-30.161zm0 18.452a2.382 2.382 0 1 1 0-4.762h17.595a2.382 2.382 0 0 1 0 4.763H232.17zm98.87 9.228a2.381 2.381 0 1 1 0-4.763h2.154a2.381 2.381 0 1 1 0 4.763h-2.153zm-11.225 0a2.38 2.38 0 1 1 0-4.763h2.156a2.38 2.38 0 0 1 2.38 2.381 2.38 2.38 0 0 1-2.38 2.382zm-9.314-27.68a2.383 2.383 0 0 1 0-4.765h2.156a2.383 2.383 0 1 1 0 4.766zm10.418 0a2.382 2.382 0 0 1 .001-4.764h2.156a2.383 2.383 0 1 1 0 4.765h-2.156zm20.57 5.467a5.897 5.897 0 0 0 5.887 5.879 5.886 5.886 0 0 0 5.882-5.878c0-3.248-2.633-5.875-5.882-5.882a5.895 5.895 0 0 0-5.887 5.882m-4.764 0c0-5.88 4.767-10.642 10.651-10.646 5.882 0 10.646 4.765 10.65 10.646 0 4.581-3.217 7.376-7.283 8.876-1.148.423-2.071 1.768-3.367 1.768-5.884-.004-10.65-4.769-10.651-10.645"/><path fill="#212121" d="M344.993 297.553v-8.263a2.38 2.38 0 0 1 2.383-2.38 2.38 2.38 0 0 1 2.382 2.38v8.265a2.38 2.38 0 0 1-2.382 2.38 2.38 2.38 0 0 1-2.383-2.38"/><path fill="#212121" d="M220.207 327.875h121.685c-.78-10.51-1.023-17.138 4.712-21.483 2.28-1.727 10.726 2.06 12.498-1.752 1.21-2.603-1.012-23.03-.08-25.682-40.57-.301-94.033-.159-138.814-.159zm122.089 2.38v-2.38 2.381zm-124.474 2.384a2.388 2.388 0 0 1-2.384-2.383V276.42c0-.625.257-1.24.7-1.686a2.418 2.418 0 0 1 1.684-.694H360.18l1.223.159c-.308 1.039 1.453 23.574-1.783 30.301-1.826 3.795-9.706-.592-12.014 2.031-6.345 7.212-7.859 18.318-3.722 23.65.1.621.538 1.323.097 1.766a2.396 2.396 0 0 1-1.685.697H217.822zm14.347 22.515a2.381 2.381 0 1 1 0-4.763h48.248a2.379 2.379 0 0 1 2.38 2.379 2.38 2.38 0 0 1-2.38 2.383H232.17zm0 18.453a2.384 2.384 0 0 1-2.383-2.384 2.38 2.38 0 0 1 2.383-2.38h37.91a2.381 2.381 0 1 1 0 4.765h-37.91zm0-27.682a2.38 2.38 0 1 1 0-4.762h30.162a2.382 2.382 0 0 1 .001 4.762H232.17zm0 18.457a2.383 2.383 0 0 1 0-4.765h17.595a2.38 2.38 0 0 1 2.38 2.383 2.381 2.381 0 0 1-2.38 2.382zm98.87 9.225a2.383 2.383 0 0 1-2.38-2.384 2.38 2.38 0 0 1 2.38-2.38h2.154a2.381 2.381 0 1 1 .002 4.765h-2.154zm-11.225 0a2.383 2.383 0 0 1-2.383-2.384 2.38 2.38 0 0 1 2.383-2.38h2.156a2.381 2.381 0 1 1 0 4.765h-2.156zm-9.314-27.682a2.382 2.382 0 0 1 0-4.763h2.156a2.38 2.38 0 1 1 0 4.763zm10.418 0a2.38 2.38 0 1 1 .002-4.762h2.153a2.378 2.378 0 0 1 2.38 2.378 2.383 2.383 0 0 1-2.38 2.384h-2.157zm15.807 5.468c0-4.476 2.762-8.305 6.674-9.88 1.612-3.128.113 18.095-.15 19.698a10.649 10.649 0 0 1-6.524-9.818"/><path fill="#212121" d="M220.205 381.714h120.663v-49.076H220.205zm121.068 2.383v-2.383zm-123.45 2.382a2.397 2.397 0 0 1-1.685-.698 2.392 2.392 0 0 1-.7-1.685v-53.843a2.384 2.384 0 0 1 2.383-2.38H341.27c.628 0 1.24.254 1.684.698a2.4 2.4 0 0 1 .698 1.681v53.843a2.41 2.41 0 0 1-.698 1.684 2.408 2.408 0 0 1-1.684.698H217.824z"/><path stroke="#1a1a1a" stroke-width="3.956" d="M353.294 407.038c-5.986 0-10.858-4.868-10.858-10.853v-80.64c0-5.984 4.872-10.853 10.858-10.853h94.119c5.987 0 10.857 4.868 10.857 10.853v80.64c0 5.984-4.87 10.853-10.857 10.853zm87.397-103.945V276.21c0-18.525-15.082-33.6-33.615-33.6H393.63c-18.534 0-33.61 15.073-33.61 33.6v26.883"/><path stroke="#1a1a1a" stroke-width="3.956" d="M413.636 342.424c0-7.411-5.641-13.44-13.057-13.44-7.414 0-13.508 6.029-13.508 13.44 0 4.965 2.526 9.297 6.661 11.622v29.18h12.405v-29.18c4.134-2.327 7.5-6.657 7.5-11.622z"/><path fill="#212121" d="M579.052 277.574c0-1.499 1.067-2.712 2.382-2.712 1.315 0 2.38 1.213 2.38 2.712v54.9c0 1.498-1.066 2.713-2.38 2.713-1.315 0-2.382-1.215-2.382-2.712zM105.852 234.405a1.791 1.791 0 0 1 0-2.527l9.576-9.571a1.793 1.793 0 0 1 2.527 0c.696.697.696 1.83 0 2.526l-9.572 9.57a1.79 1.79 0 0 1-2.53 0M43.956 314.875a4.668 4.668 0 0 0 4.66 4.656 4.662 4.662 0 0 0 4.659-4.658h.003a4.667 4.667 0 0 0-4.662-4.656 4.664 4.664 0 0 0-4.66 4.658zm-3.572 0a8.235 8.235 0 0 1 8.233-8.235 8.24 8.24 0 0 1 8.234 8.234 8.236 8.236 0 0 1-8.234 8.229c-4.55-.002-8.233-3.685-8.233-8.229zm148.908-40.29a4.664 4.664 0 0 0 4.658 4.655 4.664 4.664 0 0 0 4.662-4.655 4.667 4.667 0 0 0-4.66-4.66 4.666 4.666 0 0 0-4.659 4.661m-3.576 0c0-4.548 3.687-8.232 8.234-8.234a8.233 8.233 0 0 1 8.234 8.234c0 4.543-3.685 8.227-8.234 8.229-4.547-.002-8.234-3.686-8.234-8.229"/><path fill="#212121" d="M55.063 316.66a1.789 1.789 0 0 1-1.785-1.789c0-.986.8-1.785 1.784-1.785h67.051a1.787 1.787 0 0 1-.001 3.574h-67.05zm67.05-40.292a1.785 1.785 0 1 1 0-3.571h65.391a1.787 1.787 0 0 1 0 3.571z"/><path fill="#0c8fd7" d="M79.562 308.926a1.787 1.787 0 0 1 0-3.573h27.076a1.786 1.786 0 1 1 0 3.573zm60.603-25.777a1.786 1.786 0 0 1-.001-3.572h12.248a1.786 1.786 0 1 1 0 3.572zm19.985 0a1.787 1.787 0 0 1 .001-3.572h5.803c.987 0 1.79.799 1.79 1.787a1.79 1.79 0 0 1-1.79 1.785h-5.803z"/><path fill="#212121" d="M565.58 166.301v-23.003a1.787 1.787 0 0 1 3.574 0v23.003a1.79 1.79 0 0 1-1.786 1.786 1.788 1.788 0 0 1-1.786-1.786"/><path fill="#212121" d="M567.366 168.086a1.787 1.787 0 1 1 .001-3.572h45.774a1.788 1.788 0 1 1 0 3.573h-45.773z"/><path fill="#212121" d="M611.352 190.789V166.3c0-.987.8-1.785 1.79-1.785.984 0 1.786.798 1.786 1.785v24.489a1.788 1.788 0 0 1-3.577 0"/><path fill="#0c8fd7" d="M574.696 175.588a1.787 1.787 0 1 1 0-3.575h20.952c.987 0 1.788.801 1.788 1.786s-.801 1.787-1.787 1.787h-20.95zm43.663 8.848v-8.38c0-.987.8-1.785 1.787-1.785.987 0 1.79.798 1.79 1.785v8.38c0 .984-.803 1.787-1.79 1.787a1.79 1.79 0 0 1-1.786-1.788"/><path fill="#212121" d="M613.138 193.818a1.787 1.787 0 0 1 .001-3.572h56.073a1.787 1.787 0 0 1 .001 3.572zm-7.738 109.62a4.669 4.669 0 0 0 4.66 4.661 4.67 4.67 0 0 0 4.659-4.661 4.667 4.667 0 0 0-4.659-4.658 4.668 4.668 0 0 0-4.66 4.658m-3.574 0a8.233 8.233 0 0 1 8.234-8.229c4.547 0 8.235 3.684 8.237 8.229a8.237 8.237 0 0 1-16.471 0m109.352 73.156a4.662 4.662 0 0 0 4.658 4.657 4.667 4.667 0 0 0 4.663-4.657h-.003a4.663 4.663 0 0 0-4.66-4.658 4.664 4.664 0 0 0-4.66 4.658m-3.573 0a8.23 8.23 0 0 1 8.232-8.23 8.238 8.238 0 0 1 8.239 8.23h-.006c0 4.545-3.68 8.231-8.232 8.234-4.546-.004-8.232-3.689-8.232-8.235"/><path fill="#212121" d="M714.053 370.152v-36.426a1.787 1.787 0 1 1 3.574 0v36.423a1.786 1.786 0 1 1-3.574-.001"/><path fill="#212121" d="M691.293 335.513a1.786 1.786 0 0 1 0-3.57h24.543c.99 0 1.79.798 1.79 1.785 0 .985-.8 1.785-1.79 1.785z"/><path fill="#212121" d="M689.507 333.728v-29c0-.987.801-1.784 1.788-1.784.985 0 1.788.797 1.788 1.783v29c0 .985-.803 1.788-1.788 1.788a1.79 1.79 0 0 1-1.788-1.788"/><path fill="#212121" d="M616.509 305.224a1.784 1.784 0 1 1 0-3.57h74.785c.986 0 1.789.8 1.789 1.785 0 .986-.802 1.785-1.788 1.785H616.51zm28.367-7.086a1.785 1.785 0 1 1 0-3.57h24.498a1.786 1.786 0 0 1 .001 3.572h-24.499zm38.187 43v-19.654a1.788 1.788 0 0 1 3.573 0v19.654a1.786 1.786 0 1 1-3.573 0"/><path fill="#212121" d="M684.848 342.926a1.786 1.786 0 0 1 0-3.574h17.407a1.787 1.787 0 0 1-.001 3.572h-17.407zm-267.443 92.248a4.667 4.667 0 0 0 4.66 4.66 4.667 4.667 0 0 0 4.66-4.66 4.664 4.664 0 0 0-4.661-4.657 4.667 4.667 0 0 0-4.66 4.657m-3.575 0a8.234 8.234 0 0 1 8.236-8.227 8.232 8.232 0 0 1 8.236 8.227 8.237 8.237 0 0 1-8.236 8.231 8.234 8.234 0 0 1-8.235-8.231m101.276 72.4a4.668 4.668 0 0 0 4.662 4.658 4.665 4.665 0 0 0 4.658-4.659 4.665 4.665 0 0 0-4.658-4.658 4.669 4.669 0 0 0-4.661 4.658m-3.573 0a8.231 8.231 0 0 1 8.235-8.228 8.23 8.23 0 1 1 0 16.46 8.235 8.235 0 0 1-8.235-8.232"/><path fill="#212121" d="M420.278 459.555V441.62c0-.989.8-1.785 1.788-1.785.986 0 1.787.797 1.787 1.785v17.936a1.788 1.788 0 0 1-3.574 0"/><path fill="#212121" d="M422.066 461.34a1.788 1.788 0 1 1 0-3.573h97.703a1.787 1.787 0 0 1 0 3.573h-97.702z"/><path fill="#212121" d="M517.98 501.13v-41.578a1.787 1.787 0 0 1 3.574 0v41.579a1.788 1.788 0 0 1-3.574 0"/><path fill="#0c8fd7" d="M447.532 454.573a1.787 1.787 0 0 1 0-3.573h27.4a1.787 1.787 0 0 1 0 3.573h-27.399zm35.137 0a1.79 1.79 0 0 1-1.788-1.788c0-.984.8-1.785 1.788-1.785h4.513a1.788 1.788 0 0 1 0 3.573z"/><path fill="#212121" d="M511.182 486.915V471.45a1.787 1.787 0 1 1 3.575 0v15.465c0 .989-.801 1.785-1.787 1.785a1.785 1.785 0 0 1-1.788-1.785m-195.976-51.086a4.662 4.662 0 0 0 4.66 4.657 4.664 4.664 0 0 0 4.661-4.657 4.665 4.665 0 0 0-4.66-4.658 4.664 4.664 0 0 0-4.66 4.658m-3.575 0a8.23 8.23 0 0 1 8.234-8.231 8.233 8.233 0 1 1 0 16.464 8.235 8.235 0 0 1-8.234-8.233m-60.895 92.637a4.667 4.667 0 0 0 4.658 4.66 4.672 4.672 0 0 0 4.661-4.66 4.66 4.66 0 0 0-9.318 0m-3.574 0a8.232 8.232 0 0 1 8.233-8.231 8.236 8.236 0 0 1 8.233 8.23 8.234 8.234 0 0 1-8.234 8.231 8.23 8.23 0 0 1-8.234-8.23"/><path fill="#212121" d="M318.078 488.232v-45.96c0-.99.802-1.784 1.788-1.784.987 0 1.787.795 1.787 1.784v45.96a1.786 1.786 0 0 1-3.574-.001"/><path fill="#212121" d="M287.631 490.016a1.788 1.788 0 0 1 0-3.575h32.235a1.788 1.788 0 0 1 0 3.574h-32.234z"/><path fill="#212121" d="M285.844 528.469v-40.237a1.786 1.786 0 1 1 3.574 0v40.237c0 .982-.799 1.788-1.787 1.788a1.79 1.79 0 0 1-1.785-1.787"/><path fill="#212121" d="M261.841 530.256a1.789 1.789 0 0 1 0-3.576h25.146c.987 0 1.787.797 1.787 1.789 0 .982-.8 1.788-1.786 1.788h-25.145z"/><path fill="#0c8fd7" d="M278.11 511.765v-14.51a1.787 1.787 0 1 1 3.572 0l.001 14.51c0 .989-.8 1.79-1.786 1.79a1.787 1.787 0 0 1-1.784-1.79"/><path fill="#212121" d="M311.633 468.013v-12.89c0-.987.801-1.783 1.787-1.783.987 0 1.786.797 1.786 1.784v12.89a1.788 1.788 0 0 1-3.574 0"/><path fill="#0c8fd7" d="M301.171 497.106a1.787 1.787 0 0 1 0-3.574h12.894a1.787 1.787 0 0 1-.001 3.572h-12.895z"/><path fill="#212121" d="M474.65 25.327a4.665 4.665 0 0 0 4.663 4.658 4.666 4.666 0 0 0 4.66-4.658 4.666 4.666 0 0 0-4.66-4.656 4.666 4.666 0 0 0-4.662 4.658m-3.574 0a8.229 8.229 0 0 1 8.236-8.229 8.23 8.23 0 0 1 8.234 8.229c0 4.545-3.688 8.229-8.234 8.229-4.55 0-8.236-3.684-8.236-8.229M341.874 98.182a4.666 4.666 0 0 0 4.662 4.656 4.662 4.662 0 0 0 4.658-4.655 4.665 4.665 0 0 0-4.658-4.658 4.668 4.668 0 0 0-4.662 4.658m-3.57 0a8.232 8.232 0 0 1 8.232-8.232 8.232 8.232 0 1 1 0 16.463c-4.55-.002-8.234-3.687-8.234-8.231"/><path fill="#212121" d="M407.783 27.114a1.785 1.785 0 1 1 .001-3.572h65.081a1.788 1.788 0 0 1 0 3.574h-65.08z"/><path fill="#212121" d="M405.996 55.008V25.327a1.786 1.786 0 1 1 3.575 0v29.68a1.788 1.788 0 0 1-3.574-.001"/><path fill="#212121" d="M346.536 56.793c-.985 0-1.79-.801-1.79-1.786 0-.99.805-1.79 1.79-1.79h61.247a1.789 1.789 0 0 1 0 3.575h-61.247z"/><path fill="#212121" d="M344.749 91.737V55.005a1.785 1.785 0 1 1 3.571 0v36.732a1.787 1.787 0 0 1-3.573.001m-7.093-13.533v-16.11a1.79 1.79 0 1 1 3.578-.001v16.11a1.79 1.79 0 0 1-3.578.002m88.828-45.26c-.99 0-1.79-.8-1.79-1.786 0-.987.8-1.787 1.79-1.787h26.43a1.786 1.786 0 1 1 0 3.574h-26.43zM312.738 163.66a4.667 4.667 0 0 0 4.66 4.659 4.665 4.665 0 0 0 4.658-4.659 4.664 4.664 0 0 0-4.658-4.658 4.667 4.667 0 0 0-4.661 4.658m-3.575 0a8.23 8.23 0 0 1 8.235-8.228 8.228 8.228 0 0 1 8.233 8.228c0 4.547-3.684 8.23-8.234 8.232-4.55-.003-8.235-3.685-8.236-8.232M170.96 96.8a4.67 4.67 0 0 0 4.66 4.658 4.67 4.67 0 0 0 4.661-4.659 4.665 4.665 0 0 0-4.66-4.658 4.667 4.667 0 0 0-4.66 4.658m-3.575 0a8.232 8.232 0 0 1 8.235-8.231 8.232 8.232 0 0 1 8.232 8.232 8.228 8.228 0 0 1-8.232 8.229 8.23 8.23 0 0 1-8.235-8.229"/><path fill="#212121" d="M182.068 98.584a1.786 1.786 0 1 1 .001-3.571h67.05a1.786 1.786 0 1 1 0 3.57H182.07z"/><path fill="#212121" d="M247.33 163.251V96.798c0-.989.8-1.786 1.787-1.786.99 0 1.788.798 1.788 1.785v66.453a1.785 1.785 0 1 1-3.573 0"/><path fill="#212121" d="M249.12 165.446a1.786 1.786 0 1 1 0-3.573h61.834a1.787 1.787 0 1 1 0 3.573h-61.835zm5.946-35.06v-21.268c0-.986.8-1.785 1.787-1.785.989 0 1.79.8 1.79 1.786v21.268a1.79 1.79 0 0 1-3.577-.001M21.23 154.578v-13.75a1.786 1.786 0 0 1 3.575 0v13.75a1.786 1.786 0 0 1-3.574 0"/><path fill="#212121" d="M16.14 149.49a1.787 1.787 0 0 1 0-3.572h13.754c.985 0 1.788.8 1.788 1.785 0 .987-.802 1.788-1.788 1.788H16.141zm180.509 55.677V191.42a1.786 1.786 0 1 1 3.574 0v13.747a1.787 1.787 0 0 1-3.574 0"/><path fill="#212121" d="M191.558 200.078a1.786 1.786 0 0 1-.001-3.57h13.757a1.785 1.785 0 0 1 0 3.57h-13.758zm445.808 158.387v-13.749a1.787 1.787 0 0 1 3.573 0v13.75a1.788 1.788 0 0 1-3.574-.002"/><path fill="#0c8fd7" d="M632.274 353.378a1.789 1.789 0 0 1-1.787-1.79c0-.987.798-1.784 1.788-1.784h13.753c.988 0 1.788.797 1.788 1.785 0 .986-.8 1.79-1.787 1.79h-13.753zm82.25-277.119V62.512a1.787 1.787 0 1 1 3.574.002V76.26a1.787 1.787 0 0 1-3.573-.001"/><path fill="#0c8fd7" d="M709.436 71.171a1.785 1.785 0 1 1-.001-3.57h13.754c.984 0 1.786.801 1.786 1.783 0 .986-.801 1.787-1.786 1.787h-13.754zM323.531 15.533V1.785a1.787 1.787 0 0 1 3.575.001v13.748a1.788 1.788 0 0 1-3.575-.001"/><path fill="#0c8fd7" d="M318.44 10.446a1.787 1.787 0 0 1 0-3.573h13.756a1.788 1.788 0 0 1 0 3.574H318.44zM56.033 66.411a1.787 1.787 0 0 1 .001-3.575h25.791c.986 0 1.785.801 1.785 1.787 0 .987-.799 1.787-1.785 1.787H56.033zm37.395 0a1.789 1.789 0 0 1 0-3.575h10.315a1.788 1.788 0 0 1-.002 3.574H93.43zM476.409 179.53a1.788 1.788 0 0 1 0-3.574h25.789a1.787 1.787 0 0 1-.001 3.573h-25.79zm37.393 0a1.789 1.789 0 0 1 0-3.575h10.316c.985 0 1.787.804 1.787 1.79a1.79 1.79 0 0 1-1.787 1.785zm235.278 83.432a1.788 1.788 0 0 1 .001-3.574h25.79a1.787 1.787 0 0 1 0 3.575h-25.79zm37.394-.002a1.785 1.785 0 0 1 0-3.57h10.318a1.787 1.787 0 1 1 .001 3.572h-10.318zM94.466 518.888a1.786 1.786 0 1 1 0-3.572h25.788a1.787 1.787 0 1 1 0 3.574H94.466zm37.391 0a1.788 1.788 0 0 1-1.786-1.785c0-.987.801-1.787 1.787-1.787h10.318a1.79 1.79 0 0 1 1.787 1.788 1.79 1.79 0 0 1-1.788 1.786h-10.316zm429.92-115.679a1.786 1.786 0 1 1 0-3.57h25.785a1.785 1.785 0 1 1 0 3.572h-25.786zm37.392 0a1.786 1.786 0 1 1-.001-3.572h10.316a1.79 1.79 0 0 1 1.788 1.786c0 .985-.801 1.784-1.787 1.784h-10.316zM299.466 122.877a1.787 1.787 0 1 1 0-3.572h23.209a1.787 1.787 0 0 1 0 3.572zm-11.604 9.022a1.786 1.786 0 1 1-.001-3.573h20.629a1.786 1.786 0 1 1-.001 3.57h-20.63zm451.953-14.288a1.788 1.788 0 0 1 0-3.573h23.213a1.787 1.787 0 0 1-.001 3.573h-23.21zm-11.603 9.022a1.788 1.788 0 0 1-.001-3.574h20.631a1.787 1.787 0 0 1-.001 3.573H728.21zM776.15 370.76a1.784 1.784 0 1 1-.001-3.57h23.209a1.784 1.784 0 1 1 0 3.57zm-11.607 9.023a1.787 1.787 0 0 1 0-3.574h20.633a1.788 1.788 0 0 1 0 3.574zM569.601 587.16h29.837v-2.68h-29.837"/><path fill="#000" d="M629.275 587.16h11.733v-2.68h-11.734m-22.459 2.68h7.71v-2.68h-7.71"/><path fill="#0c8fd7" d="M609.494 579.446h10.058v-2.682h-10.058m-20.448 2.682H604.8v-2.682h-15.755"/><path fill="#212121" d="M24.666 440.803a1.787 1.787 0 0 1-.001-3.572h23.209a1.787 1.787 0 0 1 0 3.572zm7.092-210.262a1.785 1.785 0 1 1-.001-3.57h20.627a1.786 1.786 0 1 1 0 3.57H31.758zm104.24 174.062a1.79 1.79 0 0 1 0-2.527l9.576-9.571a1.796 1.796 0 0 1 2.526 0c.696.7.696 1.83 0 2.529l-9.572 9.57a1.79 1.79 0 0 1-2.532 0"/><path fill="#212121" d="M135.998 404.603l-9.571-9.57c-.7-.698-.7-1.83 0-2.528a1.796 1.796 0 0 1 2.526 0l9.575 9.572c.696.698.696 1.83 0 2.527a1.79 1.79 0 0 1-2.532 0m.005 11.76a1.786 1.786 0 0 1 0-2.528l9.574-9.572a1.793 1.793 0 0 1 2.528 0c.694.7.694 1.832 0 2.528l-9.574 9.57c-.349.348-.809.524-1.266.524-.458 0-.914-.176-1.26-.524"/><path fill="#212121" d="M136.001 416.363l-9.573-9.57c-.7-.696-.7-1.83 0-2.528a1.793 1.793 0 0 1 2.527 0l9.574 9.571a1.79 1.79 0 0 1 0 2.526c-.349.348-.809.524-1.266.524-.458 0-.914-.176-1.26-.524m33.859-81.766a1.788 1.788 0 0 1 0-2.527l9.572-9.57a1.794 1.794 0 0 1 2.531 0c.696.699.696 1.83 0 2.527l-9.576 9.57a1.784 1.784 0 0 1-2.526 0"/><path fill="#212121" d="M169.862 334.596l-9.574-9.57a1.787 1.787 0 0 1 2.526-2.528l9.574 9.571a1.788 1.788 0 0 1-1.264 3.051c-.455 0-.914-.176-1.262-.524m299.615 173.92l9.574-9.567c.699-.7 1.83-.7 2.528 0 .699.698.699 1.828 0 2.524l-9.572 9.57c-.35.347-.81.523-1.266.523a1.786 1.786 0 0 1-1.263-3.048z"/><path fill="#212121" d="M459.905 501.473a1.78 1.78 0 0 1 0-2.524c.696-.7 1.83-.7 2.528 0l9.574 9.569a1.793 1.793 0 0 1 0 2.527c-.35.346-.811.522-1.266.522-.458 0-.916-.175-1.264-.522l-9.572-9.57zm181.238-239.036a1.789 1.789 0 0 1 .003-2.527l9.576-9.57a1.785 1.785 0 0 1 2.525 2.524l-9.573 9.572a1.79 1.79 0 0 1-2.53 0"/><path fill="#212121" d="M641.144 262.437l-9.572-9.57a1.788 1.788 0 0 1 0-2.528 1.788 1.788 0 0 1 2.527.003l9.574 9.569a1.788 1.788 0 0 1-2.53 2.527"/><path fill="#0c8fd7" d="M487.106 77.161a1.788 1.788 0 0 1 0-2.527l9.578-9.568a1.79 1.79 0 0 1 2.527 0c.695.7.694 1.832-.004 2.527l-9.574 9.572a1.786 1.786 0 0 1-2.528-.002"/><g fill="#0c8fd7"><path d="M351.91 154.044l9.573-9.569a1.788 1.788 0 0 0-2.528-2.527l-9.574 9.57a1.786 1.786 0 1 0 1.266 3.048c.455 0 .912-.174 1.262-.523"/><path d="M349.384 154.043l-9.574-9.569a1.788 1.788 0 0 1 2.528-2.527l9.574 9.57c.695.698.695 1.829 0 2.525-.35.35-.807.522-1.266.522-.455 0-.912-.173-1.262-.522"/></g><path fill="#0c8fd7" d="M487.104 77.164l-9.568-9.57a1.78 1.78 0 0 1 0-2.525c.696-.7 1.83-.696 2.527 0l9.57 9.569c.699.696.698 1.828 0 2.526a1.786 1.786 0 0 1-2.529 0m.002 11.762a1.788 1.788 0 0 1 0-2.527l9.578-9.572a1.79 1.79 0 0 1 2.527 0c.695.699.694 1.827-.004 2.527l-9.574 9.57a1.788 1.788 0 0 1-2.528 0"/><path fill="#0c8fd7" d="M487.104 88.926l-9.568-9.572a1.781 1.781 0 0 1 0-2.526 1.787 1.787 0 0 1 2.527.003l9.57 9.568a1.784 1.784 0 0 1-1.265 3.048 1.79 1.79 0 0 1-1.264-.522"/><path fill="#212121" d="M105.853 234.403l-9.572-9.57c-.7-.696-.7-1.827 0-2.526a1.788 1.788 0 0 1 2.526 0l9.574 9.57c.695.699.695 1.831 0 2.527a1.79 1.79 0 0 1-2.53 0m.002 11.761c-.7-.698-.7-1.83 0-2.527l9.576-9.568a1.784 1.784 0 1 1 2.526 2.522l-9.576 9.572a1.787 1.787 0 0 1-2.527 0"/><path fill="#212121" d="M105.853 246.165l-9.572-9.57c-.7-.696-.7-1.827 0-2.523.696-.699 1.828-.699 2.525 0l9.574 9.567a1.79 1.79 0 0 1-1.266 3.051c-.457 0-.912-.176-1.262-.524"/><path fill="#0c8fd7" d="M702.04 551.76l-9.575-9.575a1.788 1.788 0 0 1 2.53-2.527l9.575 9.574c.695.699.695 1.83 0 2.527a1.794 1.794 0 0 1-2.532 0"/><path fill="#0c8fd7" d="M692.466 561.324a1.785 1.785 0 0 1 0-2.526l9.574-9.567a1.788 1.788 0 0 1 2.528 2.527l-9.574 9.566a1.78 1.78 0 0 1-2.528-.002m21.34-9.563l-9.575-9.574a1.79 1.79 0 0 1 0-2.527 1.791 1.791 0 0 1 2.53 0l9.574 9.574a1.786 1.786 0 1 1-2.527 2.527"/><path fill="#0c8fd7" d="M704.23 561.324a1.788 1.788 0 0 1 0-2.526l9.577-9.567a1.788 1.788 0 0 1 2.528 2.527l-9.574 9.566a1.785 1.785 0 0 1-2.53-.002"/><path fill="#212121" d="M422.77 160.298a1.788 1.788 0 0 1-1.787-1.785c0-.986.801-1.787 1.786-1.787h18.054a1.787 1.787 0 0 1-.001 3.571zm-61.445 288.336a1.786 1.786 0 0 1 0-3.572h18.053a1.787 1.787 0 0 1 0 3.573h-18.053zm-166.178-45.247a1.787 1.787 0 1 1 0-3.574H213.2a1.79 1.79 0 0 1 1.788 1.785 1.79 1.79 0 0 1-1.788 1.79h-18.053zM1.79 331.732a1.785 1.785 0 1 1 0-3.573h18.05a1.787 1.787 0 0 1 0 3.574H1.79zm548.194-309.38a1.787 1.787 0 0 1 0-3.571h18.055a1.787 1.787 0 0 1 0 3.572h-18.055zm187.94 149.656a1.787 1.787 0 1 1 0-3.571h18.049a1.787 1.787 0 0 1 0 3.571h-18.05zm4.593 336.934a1.79 1.79 0 0 1-1.787-1.785c0-.987.801-1.785 1.787-1.785h18.053c.987 0 1.788.798 1.788 1.785a1.79 1.79 0 0 1-1.788 1.785zM151.351 43.784c-.986 0-1.788-.799-1.788-1.785 0-.987.801-1.786 1.787-1.786h18.05c.987 0 1.79.801 1.79 1.787 0 .986-.803 1.785-1.79 1.785h-18.05zm18.22 190.616a1.785 1.785 0 0 1 0-3.572h2.581a1.786 1.786 0 0 1 0 3.573h-2.582zm-10.852 0a1.788 1.788 0 0 1-1.786-1.784c0-.987.801-1.788 1.785-1.788h2.582a1.787 1.787 0 0 1-.001 3.573h-2.582zm-10.852 0a1.788 1.788 0 0 1-1.787-1.784c0-.987.8-1.788 1.787-1.788h2.581a1.79 1.79 0 0 1 1.786 1.789c0 .983-.8 1.784-1.786 1.784h-2.581zM412.993 6.276c-.987 0-1.79-.799-1.79-1.785a1.79 1.79 0 0 1 1.79-1.785h2.578c.986 0 1.788.801 1.788 1.785 0 .986-.801 1.785-1.787 1.785h-2.577zm-10.854 0a1.786 1.786 0 0 1 .001-3.571h2.581c.985 0 1.788.8 1.788 1.786 0 .985-.802 1.785-1.788 1.785h-2.581zm-10.852 0a1.787 1.787 0 0 1 0-3.571h2.582a1.786 1.786 0 0 1 .001 3.571h-2.584zm111.964 126.311a1.786 1.786 0 0 1 0-3.57h2.582a1.786 1.786 0 1 1 0 3.571h-2.582zm-10.851 0a1.788 1.788 0 0 1-1.787-1.784 1.79 1.79 0 0 1 1.787-1.788h2.577c.987 0 1.79.8 1.79 1.788a1.79 1.79 0 0 1-1.79 1.785H492.4zm-10.85 0a1.785 1.785 0 1 1 0-3.57h2.577a1.787 1.787 0 1 1 0 3.572h-2.577zM653.11 422.44a1.788 1.788 0 0 1 0-3.573h2.582a1.79 1.79 0 0 1 1.786 1.788 1.79 1.79 0 0 1-1.787 1.785h-2.581zm-10.85 0a1.786 1.786 0 1 1 0-3.574h2.577c.986 0 1.79.802 1.79 1.789a1.79 1.79 0 0 1-1.79 1.785zm-10.851 0a1.785 1.785 0 1 1 0-3.573h2.576a1.788 1.788 0 1 1 0 3.573zm14.553-359.603a1.785 1.785 0 1 1 0-3.57h2.58c.989 0 1.785.798 1.785 1.785 0 .984-.796 1.785-1.784 1.785h-2.58zm-10.85.002a1.787 1.787 0 1 1-.001-3.573h2.579c.987 0 1.786.799 1.786 1.786s-.798 1.787-1.785 1.787zm-10.854 0a1.789 1.789 0 0 1-1.787-1.788c0-.984.8-1.785 1.787-1.785h2.581c.984 0 1.787.8 1.787 1.784 0 .987-.804 1.787-1.787 1.787h-2.581zM95.2 347.42a1.786 1.786 0 0 1 0-3.57h2.581c.984 0 1.787.798 1.787 1.785 0 .986-.803 1.785-1.788 1.785H95.2zm-10.852 0a1.785 1.785 0 0 1 0-3.57h2.58a1.785 1.785 0 0 1-.002 3.57h-2.58zm-10.85 0c-.988 0-1.79-.8-1.79-1.785 0-.987.802-1.785 1.79-1.785h2.58a1.784 1.784 0 1 1 0 3.57h-2.577zM410.337 514.58a2.877 2.877 0 0 0 2.871-2.864 2.872 2.872 0 0 0-5.743 0 2.88 2.88 0 0 0 2.873 2.864m-6.445-2.864a6.444 6.444 0 0 1 6.446-6.442 6.443 6.443 0 0 1 6.444 6.443 6.448 6.448 0 0 1-6.444 6.439c-3.56-.003-6.445-2.888-6.445-6.439m-26.166-22.661a1.787 1.787 0 0 1-.33-2.505c7.581-9.88 19.518-16.266 32.938-16.266 13.426 0 25.359 6.385 32.94 16.266a1.79 1.79 0 0 1-.332 2.505 1.788 1.788 0 0 1-2.505-.332c-6.94-9.036-17.828-14.865-30.103-14.865-12.27 0-23.166 5.829-30.104 14.865v.003c-.351.458-.88.696-1.418.696-.381 0-.764-.119-1.088-.366"/><path fill="#212121" d="M386.164 497.467a1.787 1.787 0 0 1-.47-2.481c5.363-7.859 14.403-13.025 24.642-13.025 10.232 0 19.276 5.166 24.637 13.025a1.783 1.783 0 0 1-.471 2.48 1.789 1.789 0 0 1-2.482-.468c-4.728-6.923-12.67-11.463-21.684-11.463-9.017 0-16.958 4.54-21.687 11.463a1.791 1.791 0 0 1-1.48.781c-.347 0-.697-.102-1.005-.313"/><path fill="#212121" d="M394.612 505.92a1.789 1.789 0 0 1-.47-2.483 19.559 19.559 0 0 1 16.19-8.562c6.722 0 12.673 3.39 16.197 8.565a1.785 1.785 0 1 1-2.953 2.008c-2.888-4.233-7.738-6.997-13.243-6.997-5.5 0-10.348 2.764-13.238 6.997a1.78 1.78 0 0 1-1.478.781c-.344 0-.696-.099-1.004-.31m304.604-275.812h61.946v-45.645h-61.946zm63.733 1.788v-1.789 1.788zm-65.517 1.783c-.472 0-.93-.186-1.262-.52a1.803 1.803 0 0 1-.527-1.264v-49.22a1.8 1.8 0 0 1 1.79-1.788h65.517c.471 0 .928.191 1.262.525.333.332.525.79.525 1.264v49.218c0 .474-.188.924-.525 1.26a1.772 1.772 0 0 1-1.262.524h-65.518z"/><path fill="#212121" d="M693.858 240.824h72.666l-.003-7.143h-72.664v7.143zm74.451 1.787v-1.787zm-76.236 1.786c-.471 0-.933-.193-1.266-.524a1.806 1.806 0 0 1-.521-1.262v-10.717c0-.47.19-.93.522-1.263a1.805 1.805 0 0 1 1.266-.522h76.236c.479 0 .93.184 1.266.523.338.339.521.786.521 1.264v10.717c0 .474-.184.922-.522 1.262a1.774 1.774 0 0 1-1.266.524h-76.236zm37.523-53.583a1.789 1.789 0 0 1-1.788-1.787c0-.985.801-1.785 1.79-1.785h1.19a1.787 1.787 0 0 1-.002 3.573h-1.19zm-22.037 35.128c-.987 0-1.79-.804-1.79-1.789a1.79 1.79 0 0 1 1.79-1.786h17.867a1.786 1.786 0 1 1 0 3.575zm24.418 0a1.787 1.787 0 1 1 .001-3.573h2.98a1.786 1.786 0 0 1 0 3.573h-2.98zm10.127 0a1.787 1.787 0 0 1-.001-3.574h10.723a1.786 1.786 0 0 1 0 3.573h-10.722zM527.782 96.745h61.945l-.004-45.644H527.78v45.644zm63.733 1.786v-1.786zm-65.518 1.785a1.79 1.79 0 0 1-1.788-1.784V49.315a1.792 1.792 0 0 1 1.788-1.785h65.517c.469 0 .93.188 1.263.521.332.331.524.793.524 1.263V98.53c0 .475-.188.927-.527 1.263a1.764 1.764 0 0 1-1.26.522h-65.517z"/><path fill="#212121" d="M555.28 111.034h6.948v-10.717h-6.949v10.717zm8.735 1.786v-1.786zm-10.523 1.786a1.792 1.792 0 0 1-1.786-1.787V98.533a1.79 1.79 0 0 1 1.786-1.787h10.523c.47 0 .93.19 1.266.524.33.331.521.791.521 1.264v14.287c0 .471-.191.93-.524 1.262a1.8 1.8 0 0 1-1.264.525h-10.523z"/><path fill="#212121" d="M532.499 114.607a1.787 1.787 0 1 1 0-3.573h52.513a1.787 1.787 0 0 1 0 3.572H532.5zm25.662-56.56c-.989 0-1.79-.801-1.79-1.785 0-.99.801-1.788 1.79-1.788h1.19a1.787 1.787 0 0 1 0 3.573zm-22.038 35.127a1.787 1.787 0 0 1 0-3.573h17.867c.986 0 1.787.801 1.787 1.788 0 .983-.801 1.784-1.787 1.784h-17.867zm24.419 0a1.786 1.786 0 1 1 0-3.573h2.979a1.79 1.79 0 0 1 1.787 1.787 1.79 1.79 0 0 1-1.788 1.785h-2.98zm10.124 0a1.787 1.787 0 0 1 .001-3.574h10.722a1.786 1.786 0 1 1 0 3.573h-10.72zM32.73 407.327h61.943v-45.643H32.727v45.643zm63.731 1.789v-1.789zM30.943 410.9c-.478 0-.926-.186-1.264-.524a1.772 1.772 0 0 1-.522-1.26v-49.218c0-.472.19-.932.522-1.263a1.79 1.79 0 0 1 1.264-.523H96.46a1.787 1.787 0 0 1 1.788 1.785v49.219c0 .474-.184.924-.524 1.26a1.775 1.775 0 0 1-1.264.525H30.943z"/><path fill="#212121" d="M63.107 368.73a1.788 1.788 0 0 1 0-3.573H64.3a1.788 1.788 0 0 1 0 3.573zm-11.02 35.128a1.786 1.786 0 0 1-1.786-1.788c0-.99.797-1.786 1.785-1.786h12.507a1.786 1.786 0 1 1 .001 3.573H52.088zm20.25 0a1.789 1.789 0 0 1-1.787-1.788c0-.99.801-1.786 1.789-1.786h2.98a1.786 1.786 0 0 1 0 3.573h-2.981zm97.091 143.307a1.79 1.79 0 0 1-.22-2.52l12.507-14.885a1.791 1.791 0 0 1 2.518-.217c.76.633.856 1.762.22 2.514l-12.506 14.885c-.355.421-.86.638-1.368.638-.406 0-.811-.137-1.15-.416m68.152-.22l-12.506-14.885a1.783 1.783 0 0 1 .218-2.515 1.788 1.788 0 0 1 2.516.217l12.511 14.885a1.793 1.793 0 0 1-.22 2.52 1.79 1.79 0 0 1-2.518-.222"/><path fill="#212121" d="M183.085 532.699a1.787 1.787 0 0 1-.001-3.573h43.359c.984 0 1.783.8 1.783 1.785a1.79 1.79 0 0 1-1.785 1.79h-43.359zm-12.507 14.885a1.786 1.786 0 1 1 .002-3.574h68.371c.984 0 1.784.797 1.784 1.785 0 .987-.8 1.789-1.785 1.789H170.58z"/><path fill="#212121" d="M171.814 559.073l-2.977-12.875a1.788 1.788 0 0 1 3.483-.806l2.977 12.877a1.788 1.788 0 0 1-3.484.804m63.756 1.338a1.787 1.787 0 0 1-1.34-2.141l2.98-12.877a1.787 1.787 0 0 1 3.481.805l-2.977 12.874a1.789 1.789 0 0 1-2.144 1.338"/><path fill="#212121" d="M173.558 560.459a1.786 1.786 0 0 1 0-3.57h62.414a1.784 1.784 0 1 1 0 3.57zm7.144-6.55a1.783 1.783 0 0 1-1.785-1.786c0-.986.797-1.785 1.785-1.785h15.487c.989 0 1.786.8 1.786 1.785 0 .99-.797 1.786-1.785 1.786h-15.487zm49.834-16.003v-34.532a1.789 1.789 0 0 1 3.575.001v34.532c0 .986-.804 1.79-1.79 1.79a1.79 1.79 0 0 1-1.785-1.79m274.106 35.357h32.569v-43.092h-32.57zm34.356 1.788v-1.788zm-36.14 1.785c-.471 0-.932-.188-1.265-.521a1.798 1.798 0 0 1-.524-1.263v-46.666c0-.471.192-.935.524-1.266.333-.33.794-.522 1.266-.522h36.139c.472 0 .933.191 1.266.522.331.334.524.795.524 1.266v46.665a1.785 1.785 0 0 1-1.79 1.786h-36.14z"/><path fill="#212121" d="M520.178 537.195a1.788 1.788 0 0 1-1.787-1.785c0-.99.8-1.785 1.787-1.785h1.506a1.787 1.787 0 0 1 .001 3.571h-1.505zm-3.266 32.619a1.787 1.787 0 0 1 0-3.574h8.03a1.785 1.785 0 1 1 .002 3.572h-8.031zM257.15 73.514h36.639v-40.58H257.15zm38.427 1.787v-1.787zm-40.214 1.786c-.469 0-.93-.19-1.263-.524a1.795 1.795 0 0 1-.522-1.262V31.15c0-.472.19-.93.521-1.262a1.795 1.795 0 0 1 1.263-.524h40.214a1.792 1.792 0 0 1 1.785 1.785V75.3c0 .477-.186.925-.524 1.263a1.778 1.778 0 0 1-1.262.524h-40.214z"/><path fill="#212121" d="M262.783 39.526c-.99 0-1.79-.802-1.79-1.784a1.79 1.79 0 0 1 1.79-1.788h13.841a1.787 1.787 0 1 1 0 3.572zm-.002 6.588a1.786 1.786 0 1 1-.001-3.57h8.074c.987 0 1.79.8 1.79 1.785a1.79 1.79 0 0 1-1.79 1.785h-8.074zm11.207 24.384a1.785 1.785 0 0 1 0-3.57h.989a1.785 1.785 0 1 1 0 3.57zm6.592 0a1.785 1.785 0 1 1 0-3.57h.99a1.785 1.785 0 1 1-.001 3.57h-.99zm6.592 0a1.787 1.787 0 1 1 0-3.574h.99a1.786 1.786 0 1 1 0 3.573l-.99.001zm-58.256-30.312c-.987 0-1.79-.803-1.79-1.787a1.79 1.79 0 0 1 1.79-1.787h26.448c.987 0 1.79.801 1.79 1.787 0 .984-.803 1.787-1.79 1.787zm15.82 7.084a1.79 1.79 0 0 1-1.791-1.789c0-.986.803-1.785 1.79-1.785h10.63a1.787 1.787 0 1 1 0 3.574zm-6.924 7.081a1.785 1.785 0 1 1 0-3.57h17.553a1.786 1.786 0 1 1 0 3.572h-17.553zm57.763 14.169a1.787 1.787 0 1 1 0-3.572h26.453a1.787 1.787 0 0 1 .001 3.572h-26.453zm.002-7.084a1.79 1.79 0 0 1-1.79-1.787 1.79 1.79 0 0 1 1.79-1.785h10.626c.99 0 1.79.801 1.79 1.785a1.79 1.79 0 0 1-1.79 1.788h-10.626zm0-7.083a1.79 1.79 0 0 1-1.788-1.787c0-.983.801-1.785 1.788-1.785h17.552a1.787 1.787 0 0 1 0 3.574h-17.552zm-29.309 47.634V75.303a1.787 1.787 0 1 1 3.573-.001v26.684c0 .986-.802 1.787-1.787 1.787a1.788 1.788 0 0 1-1.786-1.787m7.416-13.177V75.3a1.786 1.786 0 1 1 3.574 0v13.508a1.79 1.79 0 0 1-1.787 1.788 1.79 1.79 0 0 1-1.788-1.788m7.417 5.767V75.303a1.787 1.787 0 1 1 3.573-.001v19.273a1.786 1.786 0 0 1-3.572 0M281.1 31.15V4.463a1.787 1.787 0 0 1 3.573 0V31.15c0 .986-.8 1.788-1.786 1.788a1.789 1.789 0 0 1-1.786-1.788m-7.417 0V17.641a1.787 1.787 0 0 1 3.574.001V31.15a1.79 1.79 0 0 1-1.787 1.789 1.79 1.79 0 0 1-1.788-1.789m-7.415 0V11.876a1.786 1.786 0 1 1 3.573.001v19.275c0 .986-.802 1.788-1.787 1.788a1.788 1.788 0 0 1-1.786-1.788M691.78 430.433a1.786 1.786 0 0 1 0-3.572h12.163c.99 0 1.79.8 1.79 1.785 0 .989-.8 1.788-1.79 1.788H691.78zm0 5.79a1.788 1.788 0 0 1 0-3.575h7.097a1.788 1.788 0 0 1 0 3.574h-7.099zm38.084 3.329c-.987 0-1.786-.8-1.786-1.785 0-.985.8-1.788 1.786-1.788h.869c.987 0 1.786.803 1.786 1.788 0 .986-.8 1.785-1.786 1.785zm5.794 0c-.989 0-1.787-.8-1.787-1.785a1.79 1.79 0 0 1 1.788-1.788h.868c.989 0 1.787.803 1.787 1.788 0 .986-.798 1.785-1.787 1.785h-.868zm5.793 0c-.987 0-1.79-.8-1.79-1.785a1.79 1.79 0 0 1 1.79-1.785h.866c.99 0 1.79.8 1.79 1.785 0 .986-.8 1.785-1.79 1.785h-.865z"/><path fill="#212121" d="M685.818 442.277h62.461l-.003-18.139H685.82v18.139zm64.247 1.785v-1.785zm-66.031 1.785a1.79 1.79 0 0 1-1.788-1.785v-21.713a1.8 1.8 0 0 1 .524-1.261 1.804 1.804 0 0 1 1.264-.524h66.032c.468 0 .93.192 1.262.524a1.8 1.8 0 0 1 .525 1.262v21.713c0 .475-.186.925-.525 1.262-.336.34-.786.524-1.262.524h-66.032zm7.745 6.3a1.785 1.785 0 1 1 0-3.573h12.163a1.787 1.787 0 1 1 0 3.573H691.78zm0 5.789a1.789 1.789 0 0 1-1.786-1.787c0-.99.8-1.784 1.786-1.784h7.097c.986 0 1.786.796 1.786 1.785a1.79 1.79 0 0 1-1.787 1.788h-7.098zm38.084 3.33a1.786 1.786 0 1 1 0-3.574h.869a1.787 1.787 0 0 1 0 3.574h-.869zm5.794 0a1.79 1.79 0 0 1 .001-3.575l.868-.001a1.787 1.787 0 1 1 0 3.574h-.868zm5.793-.003c-.987 0-1.79-.797-1.79-1.783a1.79 1.79 0 0 1 1.79-1.788h.866a1.785 1.785 0 0 1 0 3.57h-.865z"/><path fill="#212121" d="M685.818 463.988h62.461l-.003-18.14H685.82v18.14zm64.247 1.785v-1.785zm-66.031 1.788c-.473 0-.93-.193-1.264-.524a1.8 1.8 0 0 1-.524-1.264v-21.711a1.791 1.791 0 0 1 1.788-1.785h66.032a1.793 1.793 0 0 1 1.787 1.785v21.711a1.782 1.782 0 0 1-1.787 1.788zm7.745 6.297a1.786 1.786 0 1 1 0-3.573h12.163a1.787 1.787 0 0 1 0 3.573H691.78zm0 5.79a1.787 1.787 0 0 1 0-3.574h7.097a1.787 1.787 0 1 1 0 3.573h-7.099zm38.084 3.328a1.785 1.785 0 1 1 0-3.572h.869a1.788 1.788 0 0 1 0 3.574h-.869zm5.794 0c-.989 0-1.787-.799-1.787-1.785a1.79 1.79 0 0 1 1.788-1.787h.868a1.788 1.788 0 0 1 0 3.574h-.868zm5.793 0c-.987 0-1.79-.799-1.79-1.785a1.79 1.79 0 0 1 1.79-1.784h.866c.99 0 1.79.801 1.79 1.785 0 .987-.8 1.786-1.79 1.786h-.865z"/><path fill="#212121" d="M685.818 485.7h62.461l-.003-18.139H685.82V485.7zm64.247 1.786v-1.785 1.786zm-66.031 1.785c-.473 0-.93-.187-1.264-.52a1.795 1.795 0 0 1-.524-1.264v-21.713a1.791 1.791 0 0 1 1.788-1.786h66.032c.468 0 .93.19 1.262.526.334.33.525.79.525 1.258v21.713c0 .475-.186.925-.525 1.263a1.776 1.776 0 0 1-1.262.522h-66.032zm7.745-80.55a1.787 1.787 0 0 1-1.786-1.785c0-.985.8-1.785 1.786-1.785h12.163c.99 0 1.79.8 1.79 1.785 0 .985-.8 1.785-1.79 1.785H691.78zm0 5.792a1.79 1.79 0 0 1 0-3.579h7.097a1.79 1.79 0 0 1 0 3.579h-7.099zm38.084 3.328a1.786 1.786 0 1 1 0-3.572h.869a1.787 1.787 0 0 1 0 3.574h-.869zm5.794 0c-.989 0-1.787-.8-1.787-1.785 0-.987.801-1.788 1.788-1.788h.868a1.787 1.787 0 1 1 0 3.573h-.868zm5.793-.002a1.79 1.79 0 0 1-1.79-1.783 1.79 1.79 0 0 1 1.79-1.788h.866c.99 0 1.79.802 1.79 1.788 0 .983-.8 1.783-1.79 1.783h-.865z"/><path fill="#212121" d="M685.818 420.563h62.461l-.003-18.14H685.82v18.14zm64.247 1.786v-1.785 1.786zm-66.031 1.788c-.473 0-.93-.193-1.264-.524a1.805 1.805 0 0 1-.524-1.264v-21.711a1.796 1.796 0 0 1 1.788-1.789h66.032a1.795 1.795 0 0 1 1.787 1.787v21.71c0 .476-.186.926-.525 1.265a1.778 1.778 0 0 1-1.262.524h-66.032zM94.472 133.435a1.786 1.786 0 1 1 .002-3.572h12.161a1.787 1.787 0 0 1 0 3.572zm0 5.792a1.787 1.787 0 0 1 0-3.574h7.095c.99 0 1.79.801 1.79 1.787a1.79 1.79 0 0 1-1.79 1.787zm38.084 3.328a1.785 1.785 0 1 1-.001-3.57h.87a1.785 1.785 0 0 1 0 3.57h-.87zm5.791 0a1.785 1.785 0 0 1 0-3.57h.869a1.786 1.786 0 1 1 0 3.57zm5.792 0a1.786 1.786 0 0 1 0-3.57h.87a1.785 1.785 0 0 1 0 3.57z"/><path fill="#212121" d="M88.51 145.28h62.46v-18.142H88.51zm64.245 1.785v-1.786zm-66.03 1.787a1.794 1.794 0 0 1-1.786-1.787v-21.712a1.797 1.797 0 0 1 1.787-1.79l66.03.001c.47 0 .934.193 1.264.524.334.335.525.795.525 1.264v21.712c0 .477-.188.924-.525 1.26a1.773 1.773 0 0 1-1.264.527H86.725zm7.745 6.295a1.785 1.785 0 1 1 0-3.571h12.165a1.785 1.785 0 1 1 0 3.57H94.47zm.002 5.79a1.785 1.785 0 1 1 0-3.572h7.094c.99 0 1.79.8 1.79 1.787 0 .985-.8 1.786-1.79 1.786zm38.084 3.332a1.788 1.788 0 0 1 0-3.575h.87a1.788 1.788 0 0 1 0 3.574h-.87zm5.792 0a1.787 1.787 0 1 1 0-3.574h.87a1.787 1.787 0 0 1 0 3.573h-.87zm5.791 0a1.789 1.789 0 0 1-1.785-1.787c0-.986.801-1.788 1.785-1.788h.87a1.787 1.787 0 0 1 0 3.574h-.87z"/><path fill="#212121" d="M88.512 166.99h62.457v-18.14H88.512zm64.247 1.788v-1.788zm-66.034 1.786a1.8 1.8 0 0 1-1.264-.524 1.794 1.794 0 0 1-.524-1.262v-21.711c0-.473.19-.93.524-1.264a1.797 1.797 0 0 1 1.263-.525h66.034c.465 0 .93.192 1.262.525.332.333.523.79.523 1.263v21.71a1.783 1.783 0 0 1-1.784 1.785H86.724zm7.747 6.295a1.785 1.785 0 1 1 .001-3.57h12.162a1.786 1.786 0 1 1 0 3.57zm0 5.789a1.787 1.787 0 0 1-1.786-1.783 1.79 1.79 0 0 1 1.787-1.789h7.094c.99 0 1.79.802 1.79 1.789 0 .983-.8 1.783-1.79 1.783zm38.084 3.333a1.785 1.785 0 1 1-.001-3.571h.867c.989 0 1.788.797 1.788 1.783 0 .987-.799 1.788-1.787 1.788zm5.793 0a1.785 1.785 0 1 1 0-3.571h.869c.985 0 1.785.797 1.785 1.783 0 .987-.801 1.788-1.785 1.788zm5.792 0a1.785 1.785 0 1 1 0-3.571h.867c.987 0 1.788.797 1.788 1.783 0 .987-.802 1.788-1.788 1.788z"/><path fill="#212121" d="M88.512 188.702h62.457v-18.14H88.512zm64.244 1.786v-1.786zm-66.03 1.787a1.792 1.792 0 0 1-1.788-1.787v-21.71a1.795 1.795 0 0 1 1.787-1.788h66.031c.47 0 .934.19 1.266.526.332.331.523.79.523 1.262v21.709c0 .48-.186.93-.523 1.264-.336.34-.788.524-1.266.524zm7.746-102.264a1.787 1.787 0 0 1 .001-3.572h12.163a1.785 1.785 0 1 1 0 3.572zm-.002 5.79c-.986 0-1.784-.8-1.784-1.786 0-.989.798-1.785 1.784-1.785h7.1a1.784 1.784 0 1 1 0 3.57h-7.099zm38.087 3.33a1.785 1.785 0 1 1-.001-3.571h.866a1.786 1.786 0 1 1 0 3.57zm5.791 0a1.783 1.783 0 0 1-1.786-1.786c0-.989.798-1.785 1.786-1.785h.868a1.786 1.786 0 1 1 0 3.57zm5.793 0a1.784 1.784 0 1 1 0-3.571h.868a1.785 1.785 0 1 1 0 3.57z"/><path fill="#212121" d="M88.51 101.855h62.46V83.716H88.51zm64.245 1.786v-1.786zm-66.03 1.784c-.47 0-.93-.19-1.264-.524a1.783 1.783 0 0 1-.524-1.26V81.93a1.789 1.789 0 0 1 1.787-1.786h66.03c.472 0 .934.19 1.266.524.333.332.523.79.523 1.261v21.712c0 .475-.186.923-.523 1.26a1.77 1.77 0 0 1-1.266.525h-66.03zm7.747 6.3c-.986 0-1.79-.803-1.79-1.789a1.79 1.79 0 0 1 1.79-1.786h12.162a1.788 1.788 0 0 1 0 3.575zm-.002 5.787a1.786 1.786 0 0 1 0-3.572h7.097a1.786 1.786 0 1 1 .001 3.574h-7.097zm38.087 3.33a1.785 1.785 0 1 1-.001-3.57h.866a1.786 1.786 0 1 1 0 3.57h-.866zm5.792 0a1.785 1.785 0 1 1 0-3.57h.867a1.786 1.786 0 1 1 0 3.57zm5.792 0a1.785 1.785 0 1 1 0-3.57h.867a1.786 1.786 0 1 1 0 3.57z"/><path fill="#212121" d="M88.51 123.565h62.46v-18.139H88.51zm64.247 1.788v-1.788zm-66.031 1.788c-.472 0-.93-.193-1.266-.525a1.803 1.803 0 0 1-.521-1.263v-21.712c0-.471.192-.93.524-1.264a1.798 1.798 0 0 1 1.264-.522h66.03c.472 0 .933.19 1.264.522.335.335.525.792.525 1.264v21.712c0 .475-.186.924-.525 1.263a1.779 1.779 0 0 1-1.263.525h-66.03zm268.757 454.82v-1.786zm-55.33-1.786h28.674c.432 0 .847.154 1.175.441l13.514 11.817-2.462-10.046a1.778 1.778 0 0 1 .326-1.527c.341-.432.86-.685 1.407-.685h10.91v-30.05H300.15v30.05zm45.267 18.675l-17.264-15.105h-29.79a1.789 1.789 0 0 1-1.787-1.785v-33.62a1.792 1.792 0 0 1 1.786-1.787h57.117a1.792 1.792 0 0 1 1.787 1.786v33.621a1.787 1.787 0 0 1-1.787 1.785h-10.419l3.268 13.333a1.783 1.783 0 0 1-1.733 2.21c-.423-.001-.845-.15-1.179-.438zm100.65-29.307h6.034v-2.683h-6.033z"/><path fill="#212121" d="M306.614 558.374a1.786 1.786 0 0 1-.001-3.572h40.616a1.787 1.787 0 1 1 0 3.573h-40.616zm0 8.09a1.787 1.787 0 1 1 0-3.574h28.242c.987 0 1.79.8 1.79 1.785 0 .986-.803 1.79-1.79 1.79h-28.241zm.002 8.087a1.787 1.787 0 0 1 0-3.574h33a1.787 1.787 0 0 1-.001 3.572h-33zM63.325 474.445a7.723 7.723 0 0 0 7.711 7.711 7.722 7.722 0 0 0 7.714-7.712h.003a7.723 7.723 0 0 0-7.717-7.709 7.718 7.718 0 0 0-7.711 7.708m-3.574 0c0-6.229 5.052-11.28 11.285-11.28 6.238 0 11.287 5.051 11.29 11.279-.003 6.23-5.053 11.28-11.29 11.28-6.233 0-11.285-5.051-11.285-11.281m42.673-24.83a4.064 4.064 0 0 0 4.06 4.054 4.062 4.062 0 0 0 4.055-4.055 4.066 4.066 0 0 0-4.055-4.062 4.067 4.067 0 0 0-4.06 4.061m-3.574 0a7.633 7.633 0 0 1 15.263 0h.003a7.637 7.637 0 0 1-7.633 7.628c-4.218-.003-7.634-3.416-7.634-7.63m4.67 39.268a7.906 7.906 0 0 0 7.896 7.89c4.362-.008 7.89-3.536 7.898-7.89h-.002a7.9 7.9 0 0 0-7.895-7.89 7.9 7.9 0 0 0-7.895 7.89m-3.574 0c0-6.336 5.135-11.463 11.47-11.463 6.336 0 11.469 5.127 11.473 11.463-.004 6.33-5.137 11.46-11.473 11.46-6.337 0-11.469-5.13-11.469-11.46"/><path fill="#212121" d="M76.778 469.278a1.785 1.785 0 0 1 .519-2.472l23.45-15.308a1.789 1.789 0 0 1 2.472.518 1.787 1.787 0 0 1-.52 2.472l-23.447 15.31a1.797 1.797 0 0 1-.98.287 1.775 1.775 0 0 1-1.495-.808m24.714 19.004l-22.938-7.093a1.778 1.778 0 0 1-1.177-2.23 1.78 1.78 0 0 1 2.233-1.18l22.938 7.087a1.788 1.788 0 0 1-1.055 3.416m656.834-144.63v-3.491c0-.82.56-1.533 1.358-1.731a16.185 16.185 0 0 0 4.497-1.865 1.787 1.787 0 0 1 2.191.27l2.463 2.462 3.656-3.656-2.466-2.465a1.787 1.787 0 0 1-.265-2.188 16.144 16.144 0 0 0 1.857-4.49 1.79 1.79 0 0 1 1.735-1.358h3.491v-5.168h-3.49a1.793 1.793 0 0 1-1.736-1.354 16.06 16.06 0 0 0-1.86-4.493 1.787 1.787 0 0 1 .268-2.187l2.463-2.467-3.656-3.652-2.462 2.462a1.784 1.784 0 0 1-2.191.27 15.96 15.96 0 0 0-4.493-1.858c-.801-.201-1.361-.92-1.361-1.736v-3.49l-5.168-.003v3.491c0 .818-.562 1.536-1.36 1.737a16.016 16.016 0 0 0-4.494 1.857 1.79 1.79 0 0 1-2.192-.267l-2.462-2.463-3.655 3.652 2.467 2.467c.583.58.69 1.48.262 2.19a16.1 16.1 0 0 0-1.86 4.489 1.79 1.79 0 0 1-1.732 1.356h-3.491v5.168h3.49a1.79 1.79 0 0 1 1.735 1.36 15.994 15.994 0 0 0 1.859 4.487c.425.707.32 1.608-.263 2.191l-2.466 2.468 3.653 3.654 2.462-2.463a1.785 1.785 0 0 1 2.193-.27 16.136 16.136 0 0 0 4.495 1.864 1.787 1.787 0 0 1 1.358 1.733v3.488l5.168.002zm-5.838 3.568a2.902 2.902 0 0 1-2.906-2.903v-2.808a20.358 20.358 0 0 1-2.894-1.197l-1.988 1.988a2.892 2.892 0 0 1-2.05.848 2.876 2.876 0 0 1-2.054-.855l-4.599-4.595a2.889 2.889 0 0 1-.852-2.053c-.007-.742.289-1.5.85-2.052l1.986-1.986a19.74 19.74 0 0 1-1.2-2.893h-2.808a2.91 2.91 0 0 1-2.906-2.903v-6.508a2.91 2.91 0 0 1 2.905-2.904h2.812c.323-.999.724-1.968 1.196-2.894l-1.982-1.983a2.889 2.889 0 0 1-.852-2.053c-.007-.742.289-1.5.85-2.051l4.59-4.59a2.905 2.905 0 0 1 4.122-.015l1.983 1.987c.927-.472 1.899-.87 2.895-1.195v-2.81a2.907 2.907 0 0 1 2.905-2.904l6.511.003a2.9 2.9 0 0 1 2.901 2.901v2.811c1.003.323 1.97.722 2.898 1.195l1.968-1.963a2.865 2.865 0 0 1 2.07-.874 2.902 2.902 0 0 1 2.054.85l4.596 4.6c.571.56.859 1.313.859 2.057a2.9 2.9 0 0 1-.85 2.05l-1.989 1.987a19.68 19.68 0 0 1 1.197 2.89h2.813v2.902-2.903a2.904 2.904 0 0 1 2.902 2.902v6.508a2.907 2.907 0 0 1-2.903 2.904h-2.813a19.83 19.83 0 0 1-1.197 2.891l1.978 1.98a2.89 2.89 0 0 1 .86 2.06c0 .737-.288 1.486-.85 2.05l-4.607 4.607a2.91 2.91 0 0 1-2.053.848c-.736.003-1.5-.29-2.052-.855l-1.985-1.98c-.928.472-1.895.87-2.898 1.197v2.808a2.907 2.907 0 0 1-2.9 2.906l-6.51-.003z"/><path fill="#212121" d="M747.603 322.557c.005 4.484 3.647 8.13 8.14 8.135 4.49-.005 8.131-3.65 8.14-8.135-.009-4.49-3.65-8.132-8.14-8.135a8.146 8.146 0 0 0-8.14 8.135m-3.578 0c0-6.465 5.247-11.71 11.715-11.712 6.467.003 11.714 5.247 11.714 11.712 0 6.464-5.248 11.705-11.715 11.708-6.468-.003-11.714-5.244-11.716-11.708M22.546 291.579c.056 0 .143.002.247.006l.738.015 1.029.014h59.413c7.549-.013 13.657-6.119 13.669-13.662-.012-7.55-6.12-13.656-13.669-13.667v-2.105 2.106c-.244 0-.49.007-.735.02a1.796 1.796 0 0 1-1.751-1.108c-2.969-7.262-10.1-12.38-18.43-12.377-8.841-.003-16.331 5.766-18.926 13.74a1.791 1.791 0 0 1-2.187 1.166 12.292 12.292 0 0 0-3.361-.469c-5.252 0-9.73 3.288-11.505 7.913a1.8 1.8 0 0 1-1.965 1.121 8.704 8.704 0 0 0-1.463-.125 8.761 8.761 0 0 0-8.75 8.746c-.002 4.445 3.325 8.115 7.633 8.67h.016zm1.995 3.606c-.007 0-1.17-.014-1.826-.03-.267-.01-.273.007-.574-.023-6.099-.744-10.814-5.93-10.815-12.222 0-6.805 5.514-12.319 12.322-12.32.217 0 .433.005.65.017a15.89 15.89 0 0 1 16.992-8.688c3.481-8.604 11.914-14.67 21.767-14.672 9.388.002 17.484 5.51 21.239 13.467 9.376.174 16.922 7.823 16.922 17.239 0 9.518-7.721 17.232-17.244 17.234H24.541zm198.933-153.022a1.78 1.78 0 0 1-.458-2.483c.854-1.236 1.264-2.551 1.264-3.728-.023-1.537-.615-2.844-2.097-3.889-.925-.636-1.822-.89-2.714-.895-1.647-.005-3.412.956-4.7 2.817a1.786 1.786 0 1 1-2.94-2.032c1.815-2.633 4.595-4.352 7.641-4.358 1.618-.002 3.274.504 4.748 1.526 2.413 1.646 3.656 4.239 3.633 6.83 0 1.996-.677 3.992-1.893 5.754a1.776 1.776 0 0 1-1.471.773 1.77 1.77 0 0 1-1.012-.316m-33.834 30.236c-3.518-2.402-5.258-6.048-5.234-9.76.003-3.02 1.071-6.077 2.965-8.812a1.787 1.787 0 0 1 2.486-.455 1.78 1.78 0 0 1 .452 2.482c-1.546 2.235-2.332 4.623-2.326 6.785.02 2.66 1.088 4.997 3.69 6.82 1.618 1.115 3.22 1.58 4.788 1.583 3.016.01 6.138-1.828 8.422-5.126a1.787 1.787 0 0 1 2.94 2.032c-2.773 4.015-6.87 6.656-11.362 6.666-2.307.003-4.666-.725-6.82-2.215"/><path fill="#212121" d="M196.218 167.81c-.013 0-.026-.003-.04-.004h-.006c-.008-.004-.016-.005-.024-.007-.007 0-.014 0-.02-.002h-.01a1.765 1.765 0 0 1-.715-.292l-.647-.445a1.863 1.863 0 0 1-.178-.139c-.006-.006-.01-.013-.017-.017-.004-.003-.008-.01-.014-.011-.01-.01-.02-.018-.027-.027a1.576 1.576 0 0 1-.271-.343.16.16 0 0 1-.024-.036l-.003-.003-.02-.034c0-.003 0-.004-.002-.005v-.002a6.685 6.685 0 0 1-.5-8.256 1.787 1.787 0 1 1 2.934 2.039 3.121 3.121 0 0 0 .485 4.096c.328.165.613.22.89.223.706.016 1.664-.49 2.476-1.662a1.787 1.787 0 0 1 2.941 2.028c-1.252 1.813-3.132 3.19-5.417 3.208h-.022a5.43 5.43 0 0 1-1.77-.307m-8.393-11.505a1.782 1.782 0 0 1-.453-2.482l13.673-19.787a1.785 1.785 0 1 1 2.94 2.028l-13.674 19.788a1.784 1.784 0 0 1-2.487.453"/><path fill="#212121" d="M194.151 160.676a1.783 1.783 0 0 1-.455-2.483l18.133-26.239a1.783 1.783 0 0 1 2.485-.455 1.784 1.784 0 0 1 .455 2.483l-18.134 26.239a1.787 1.787 0 0 1-2.484.455m11.186 7.724a1.788 1.788 0 0 1-.455-2.485l18.135-26.238a1.79 1.79 0 0 1 2.486-.455 1.784 1.784 0 0 1 .453 2.485l-18.132 26.239a1.773 1.773 0 0 1-1.47.771 1.78 1.78 0 0 1-1.016-.316m-4.397-3.037a1.782 1.782 0 0 1-.455-2.483l13.377-19.36a1.791 1.791 0 0 1 2.486-.454 1.79 1.79 0 0 1 .455 2.487l-13.378 19.356a1.784 1.784 0 0 1-2.486.455M643.32 140.598h45.004v-52.59h-45.003zm46.791 1.786v-1.786zm-48.577 1.786c-.471 0-.93-.188-1.263-.522a1.795 1.795 0 0 1-.524-1.263v-56.16a1.79 1.79 0 0 1 1.788-1.788h48.58c.47 0 .93.19 1.265.524.332.334.522.793.522 1.263v56.16c0 .477-.184.926-.525 1.263a1.767 1.767 0 0 1-1.263.523h-48.58z"/><path fill="#212121" d="M649.742 97.136c-.989 0-1.79-.799-1.79-1.787 0-.985.801-1.784 1.79-1.784h32.163a1.785 1.785 0 0 1 .001 3.57h-32.163zm0 23.217c-.989 0-1.79-.798-1.79-1.785 0-.985.801-1.785 1.79-1.785h32.163a1.787 1.787 0 0 1 .001 3.572h-32.163zm0-15.478a1.787 1.787 0 0 1 0-3.57h18.226a1.786 1.786 0 0 1 0 3.571h-18.226zm0 7.74a1.79 1.79 0 0 1-1.79-1.784 1.79 1.79 0 0 1 1.79-1.789h8.186c.986 0 1.79.801 1.79 1.789a1.79 1.79 0 0 1-1.79 1.785zm16.375 0a1.786 1.786 0 1 1-.001-3.572h15.79a1.787 1.787 0 0 1 0 3.575h-15.788zm7.6 15.482a1.787 1.787 0 0 1 0-3.575h8.188a1.789 1.789 0 0 1 0 3.575zm-23.975-.002a1.79 1.79 0 0 1-1.788-1.786 1.79 1.79 0 0 1 1.788-1.787h15.792a1.787 1.787 0 0 1 0 3.573zm-264.09-3.158a6.162 6.162 0 0 1-6.165-6.16V88.373c0-.99.798-1.788 1.788-1.788.987 0 1.787.798 1.787 1.788v30.404a2.594 2.594 0 0 0 2.59 2.589h47.013a2.593 2.593 0 0 0 2.587-2.589V88.373a2.593 2.593 0 0 0-2.588-2.592h-25.942a1.785 1.785 0 1 1 0-3.571h25.942a6.162 6.162 0 0 1 6.162 6.162l-.003 30.404a6.159 6.159 0 0 1-6.158 6.16h-47.013z"/><path fill="#212121" d="M379.487 90.449V77.245a4.363 4.363 0 0 1 4.362-4.36h27.666a4.36 4.36 0 0 1 4.36 4.362l.002 6.751a1.788 1.788 0 0 1-3.575 0v-6.752a.791.791 0 0 0-.787-.788H383.85a.787.787 0 0 0-.788.788V90.45a1.786 1.786 0 1 1-3.574 0m27.026 44.87a2.644 2.644 0 0 0 2.641 2.636 2.646 2.646 0 0 0 2.643-2.636 2.648 2.648 0 0 0-2.64-2.64 2.646 2.646 0 0 0-2.644 2.64m-3.572 0a6.212 6.212 0 0 1 6.214-6.211 6.212 6.212 0 0 1 6.214 6.21 6.214 6.214 0 0 1-6.214 6.209 6.21 6.21 0 0 1-6.214-6.208"/><path fill="#212121" d="M407.368 130.896v-7.744a1.786 1.786 0 1 1 3.573-.001v7.744a1.787 1.787 0 0 1-3.574 0m-31.113 6.21a1.787 1.787 0 1 1 .001-3.571h28.474a1.787 1.787 0 1 1 .001 3.573h-28.476zm37.33 0a1.785 1.785 0 1 1 0-3.572h28.474a1.787 1.787 0 0 1 0 3.572zm160.987 358.15a6.16 6.16 0 0 1-6.161-6.163v-30.405c0-.99.797-1.785 1.786-1.785.986 0 1.787.797 1.787 1.785l-.003 30.404a2.595 2.595 0 0 0 2.591 2.59l47.013.002a2.598 2.598 0 0 0 2.589-2.592v-30.405a2.596 2.596 0 0 0-2.59-2.592h-25.942v.003a1.786 1.786 0 0 1-1.785-1.787c0-.987.798-1.788 1.785-1.788l25.943.002a6.164 6.164 0 0 1 6.164 6.162l-.003 30.404a6.16 6.16 0 0 1-6.161 6.162h-47.01z"/><path fill="#212121" d="M568.408 460.762v-13.199a4.36 4.36 0 0 1 4.361-4.362h27.665a4.359 4.359 0 0 1 4.358 4.362l.004 6.751a1.79 1.79 0 0 1-1.788 1.788 1.79 1.79 0 0 1-1.786-1.788v-6.752a.79.79 0 0 0-.787-.791h-27.663a.794.794 0 0 0-.791.791v13.199a1.787 1.787 0 0 1-3.572 0m11.846 8.215a1.788 1.788 0 0 1 0-3.575h24.979a1.79 1.79 0 0 1 0 3.576h-24.979zm0 10.09a1.782 1.782 0 0 1-1.786-1.785c0-.989.798-1.785 1.786-1.785h15.41a1.785 1.785 0 1 1 0 3.57h-15.409zm-406.196-42.39v29.306a2.69 2.69 0 0 0 2.685 2.685h43.23a2.687 2.687 0 0 0 2.686-2.685v-29.305a2.684 2.684 0 0 0-2.684-2.683h-43.23a2.682 2.682 0 0 0-2.687 2.683zm2.685 35.564a6.259 6.259 0 0 1-6.26-6.257v-29.305a6.258 6.258 0 0 1 6.26-6.256h43.23a6.254 6.254 0 0 1 6.257 6.256v29.305a6.257 6.257 0 0 1-6.254 6.258h-43.23z"/><path fill="#212121" d="M176.744 472.24a6.258 6.258 0 0 1-6.26-6.26v-2.836c0-.556.257-1.076.694-1.412l15.241-11.777.002.003c.78-.604 1.9-.46 2.502.32a1.78 1.78 0 0 1-.32 2.502l-14.544 11.24v1.96a2.69 2.69 0 0 0 2.685 2.687h43.23a2.687 2.687 0 0 0 2.686-2.686v-1.96l-14.544-11.239a1.788 1.788 0 0 1-.326-2.505 1.791 1.791 0 0 1 2.51-.322l15.238 11.777c.441.336.692.858.692 1.412v2.837a6.258 6.258 0 0 1-6.255 6.26h-43.23z"/><path fill="#212121" d="M194.105 458.72l-22.926-17.714a1.782 1.782 0 0 1-.694-1.412v-2.916a6.256 6.256 0 0 1 6.26-6.257h43.23v3.57h-43.23a2.691 2.691 0 0 0-2.686 2.687v2.037l22.233 17.18c.495.391 1.27.64 2.068.637.796.003 1.568-.246 2.07-.637l22.229-17.184v-2.033a2.69 2.69 0 0 0-2.684-2.686v-3.57a6.254 6.254 0 0 1 6.254 6.256v2.916a1.78 1.78 0 0 1-.692 1.412l-22.926 17.713c-1.248.956-2.761 1.381-4.252 1.385-1.492-.004-3.007-.425-4.255-1.385"/><path fill="#0c8fd7" d="M357.603 531.868c-1.238-.803-2.41-1.563-3.148-1.251-.607.257-1.212.714-1.851 1.196-.75.571-1.526 1.158-2.45 1.543-1.63.675-3.615.244-5.592-1.218l-.058-.04c-1.179-.872-2.39-1.768-3.263-1.641-.709.105-1.506.702-2.35 1.332-.457.342-.932.695-1.444 1.015a5.344 5.344 0 0 1-5.701-.014 20.826 20.826 0 0 1-1.416-1c-.851-.632-1.655-1.233-2.37-1.337-.919-.129-2.14.656-3.315 1.418-1.677 1.092-3.58 2.324-5.608 1.474-.917-.386-1.684-.97-2.427-1.532-.645-.488-1.254-.951-1.867-1.204-1.028-.427-2.447.488-3.006.9l-.056.041c-1.538 1.138-3.288 2.412-5.226 2.132-1.37-.208-2.476-1.033-3.545-1.833-.431-.322-.839-.628-1.256-.887l1.4-2.247c.511.32.983.672 1.441 1.016.844.629 1.642 1.226 2.354 1.333.88.138 2.085-.774 3.262-1.642l.055-.043c1.978-1.46 3.962-1.89 5.592-1.216.927.386 1.701.972 2.453 1.543.64.483 1.244.94 1.853 1.2.732.303 1.905-.451 3.143-1.254 1.513-.979 3.217-2.084 5.128-1.82 1.384.2 2.5 1.033 3.58 1.838.423.317.827.62 1.24.878.907.57 1.987.573 2.894.01.418-.262.828-.564 1.26-.89 1.066-.798 2.171-1.623 3.54-1.83 1.3-.198 2.516.316 3.64 1.02.551.344 1.08.735 1.586 1.108l.057.044c.561.413 1.974 1.329 3.007.901.615-.253 1.222-.716 1.867-1.204.742-.564 1.511-1.144 2.426-1.531 2.034-.855 3.937.386 5.613 1.472 1.174.763 2.393 1.546 3.315 1.418.714-.102 1.515-.702 2.367-1.338.448-.335.913-.68 1.414-.997a5.347 5.347 0 0 1 5.703-.014l-1.4 2.247c-.902-.564-1.985-.56-2.894.01-.41.257-.813.558-1.24.875-1.079.807-2.196 1.64-3.575 1.84-.2.027-.396.04-.59.04-1.676 0-3.189-.983-4.54-1.86zm-13.952-30.074c-4.228 0-7.667 3.438-7.667 7.666 0 4.229 3.44 7.668 7.668 7.668 4.227 0 7.665-3.44 7.665-7.668s-3.438-7.666-7.665-7.666m0 18.02c-5.707 0-10.348-4.647-10.348-10.354 0-5.706 4.64-10.349 10.347-10.349s10.347 4.643 10.347 10.35c0 5.706-4.641 10.353-10.347 10.353m277.917 3.738c-4.228 0-7.667 3.439-7.667 7.667s3.44 7.668 7.668 7.668c4.227 0 7.665-3.44 7.665-7.668s-3.438-7.667-7.665-7.667m0 18.02c-5.707 0-10.348-4.646-10.348-10.353s4.64-10.35 10.347-10.35 10.347 4.643 10.347 10.35-4.641 10.353-10.347 10.353M263.54 444.43c-4.229 0-7.667 3.439-7.667 7.667s3.44 7.668 7.667 7.668c4.228 0 7.665-3.44 7.665-7.668s-3.437-7.667-7.665-7.667m0 18.02c-5.706 0-10.348-4.647-10.348-10.353 0-5.707 4.64-10.35 10.348-10.35 5.706 0 10.347 4.643 10.347 10.35 0 5.706-4.642 10.353-10.347 10.353"/><path fill="#0c8fd7" d="M342.204 514.728h2.68v-9.683h-2.68m277.917 31.442h2.68v-9.683h-2.68m-358.028-69.44h2.68v-9.682h-2.68"/><path fill="#0c8fd7" d="M338.248 510.695h9.68v-2.682h-9.68m277.917 24.44h9.68v-2.682h-9.68m-358.029-76.44h9.68v-2.682h-9.68"/><path fill="#000" d="M277.917 575.97h13.408v-2.682h-13.408m-14.835 2.683h8.048v-2.683h-8.048"/><path fill="#0c8fd7" d="M239.345 568.058h24.473v-2.682h-24.473M172.09 494.87h24.473v-2.682h-24.473m110.771 75.87h11.733v-2.682h-11.733m-67.254-70.506h11.733v-2.682h-11.733m56.375 75.87h6.033v-2.682h-6.033m-67.254-70.506h6.033v-2.682h-6.033m71.21 68.947h13.072v-2.682h-13.072"/><path fill="#000" d="M417.91 569.543h22.127v-2.683h-22.128"/><path fill="#0c8fd7" d="M460.887 570.036h16.428v-2.682h-16.428"/><path stroke="#1393d9" stroke-width="2.967" d="M387.321 554.853l-1.12-1.773a17.83 17.83 0 0 0-2.497-3.136 17.784 17.784 0 0 0-3.129-2.498l-1.777-1.119 1.776-1.121a17.878 17.878 0 0 0 5.629-5.63l1.12-1.778 1.119 1.777a17.95 17.95 0 0 0 2.496 3.133c.94.94 1.993 1.78 3.132 2.498l1.775 1.12-1.775 1.118a18.192 18.192 0 0 0-3.132 2.5c-.94.939-1.778 1.993-2.496 3.135l-1.12 1.774zm45.943-20.137a4.029 4.029 0 0 0-4.026 4.026 4.028 4.028 0 0 0 4.026 4.02 4.028 4.028 0 0 0 4.023-4.021 4.029 4.029 0 0 0-4.025-4.026"/><path fill="#0c8fd7" d="M424.293 583.883h16.428V581.2h-16.428"/><path fill="#000" d="M570.67 518.496h2.57v-2.571h-2.57m-80.112 2.571h2.572v-2.571h-2.572M457.92 483.88h2.572v-2.571h-2.572"/><path fill="#0c8fd7" d="M370.886 509.595h2.571v-2.572h-2.571m104.837-33.033h2.571v-2.572h-2.571"/><path fill="#212121" d="M120.349 314.942v-40.286a1.788 1.788 0 1 1 3.574 0v40.286a1.79 1.79 0 0 1-1.785 1.788 1.79 1.79 0 0 1-1.79-1.788m442.38-178.018a4.662 4.662 0 0 0 4.663 4.655 4.662 4.662 0 0 0 4.658-4.655 4.665 4.665 0 0 0-4.658-4.659 4.664 4.664 0 0 0-4.662 4.659m-3.574 0c0-4.546 3.687-8.229 8.237-8.229a8.23 8.23 0 0 1 8.234 8.229 8.234 8.234 0 0 1-8.234 8.229c-4.549 0-8.235-3.686-8.235-8.23m111.865 55.179a4.663 4.663 0 0 0 4.658 4.658 4.661 4.661 0 0 0 4.659-4.658 4.659 4.659 0 0 0-9.317 0m-3.575 0c0-4.545 3.686-8.229 8.233-8.229a8.23 8.23 0 1 1 0 16.46 8.231 8.231 0 0 1-8.233-8.231"/></g></svg>