<?xml version="1.0" encoding="UTF-8"?>
<svg version="1.1" viewBox="0 0 801.15 599.29" xmlns="http://www.w3.org/2000/svg" xmlns:cc="http://creativecommons.org/ns#" xmlns:dc="http://purl.org/dc/elements/1.1/" xmlns:rdf="http://www.w3.org/1999/02/22-rdf-syntax-ns#"><metadata><rdf:RDF><cc:Work rdf:about=""><dc:format>image/svg+xml</dc:format><dc:type rdf:resource="http://purl.org/dc/dcmitype/StillImage"/><dc:title>Page 1</dc:title></cc:Work></rdf:RDF></metadata><title>Page 1</title><path d="m388.81 470.06c-0.68659-0.4692-0.86384-1.4056-0.39623-2.0933 3.0725-4.5191 8.1843-7.2225 13.649-7.2182 5.667 0 10.684 2.8579 13.655 7.2207 1.1348 1.6609-1.3622 3.3588-2.4895 1.6928-2.4347-3.5686-6.5235-5.8988-11.165-5.8988-4.6368 0-8.7239 2.3302-11.16 5.8988-0.28004 0.41299-0.74704 0.65976-1.246 0.65843-0.29001 0-0.58677-0.0835-0.84643-0.26135" fill="#212121" fill-rule="evenodd" stroke-width=".84305"/><path d="m360.78 85.988a1.5061 1.5061 0 1 1 0-3.0122h16.852a1.5057 1.5057 0 0 1 0 3.0097h-16.851zm-134.3 46.709a1.5082 1.5082 0 1 1 0-3.0139h19.566c0.83462 0 1.5048 0.67444 1.5048 1.5091 0 0.8304-0.67191 1.504-1.5048 1.504h-19.566zm44.69 33.265v-5.9781c0-0.83125 0.67613-1.5048 1.5074-1.5048 0.83378 0 1.5091 0.67359 1.5091 1.5057v5.9781a1.5091 1.5091 0 0 1-1.5091 1.5065 1.5091 1.5091 0 0 1-1.5065-1.5065m15.638 23.779a1.5057 1.5057 0 1 1 0-3.0114h18.48a1.5065 1.5065 0 1 1 0 3.0114zm-219.66 233.02a1.5048 1.5048 0 1 1-8.43e-4 -3.0097h17.393a1.5057 1.5057 0 0 1 0.0017 3.0097h-17.392zm25.546-192.47a1.5061 1.5061 0 1 1 0-3.0122h19.565a1.5057 1.5057 0 0 1 0 3.0105h-19.565z" fill="#0c8fd7" fill-rule="evenodd" stroke-width=".84305"/><g fill="#212121" fill-rule="evenodd" stroke-width=".84305"><path d="m430.12 252.18a2.0081 2.0081 0 1 1 0-4.0154h40.673a2.0098 2.0098 0 0 1 2.009 2.0073 2.009 2.009 0 0 1-2.009 2.0082zm0 15.558a2.0081 2.0081 0 1 1 0-4.0163h31.96a2.0077 2.0077 0 1 1 0 4.0154h-31.96zm0-23.338a2.0073 2.0073 0 1 1 0-4.0146h25.427a2.0073 2.0073 0 1 1-2e-3 4.0146h-25.426zm0 15.558a2.009 2.009 0 1 1 0-4.0171h14.832a2.0107 2.0107 0 0 1 2.0107 2.0098 2.0107 2.0107 0 0 1-2.009 2.0073zm83.352 7.778a2.0073 2.0073 0 1 1 8.5e-4 -4.0146h1.8159a2.0069 2.0069 0 1 1 0 4.0138h-1.8168zm-9.4632 0a2.0073 2.0073 0 1 1 0-4.0146h1.8176a2.0073 2.0073 0 1 1 0 4.0146zm18.925 2e-3a2.0081 2.0081 0 0 1 0-4.0154h1.8176a2.0073 2.0073 0 1 1 0 4.0146h-1.8176zm9.4641 0a2.0081 2.0081 0 0 1 0-4.0163h1.8159a2.009 2.009 0 0 1 0 4.0163zm-36.24-23.338a2.0081 2.0081 0 1 1 0-4.0163h1.8176a2.0073 2.0073 0 0 1 2.0065 2.0082 2.0073 2.0073 0 0 1-2.0065 2.009h-1.8176zm8.7829 0a2.0081 2.0081 0 0 1 8.4e-4 -4.0146h1.8176a2.0073 2.0073 0 1 1-2e-3 4.0146h-1.8159zm17.342 4.6081c0 2.7399 2.2231 4.9546 4.9605 4.958a4.9639 4.9639 0 0 0 4.9614-4.9571 4.9715 4.9715 0 0 0-4.9639-4.958c-2.7374 7e-3 -4.9571 2.2231-4.9614 4.958m-4.0188 0c0-4.9571 4.0222-8.9709 8.9802-8.9709 4.9588 0 8.9776 4.0146 8.9776 8.9709 0 4.958-4.0214 8.9751-8.9802 8.9751s-8.976-4.0163-8.9785-8.9743"/><path d="m525.24 249.01v-6.967a2.0077 2.0077 0 1 1 4.0154 0v6.967a2.0081 2.0081 0 1 1-4.0154 0"/><path d="m427.43 265.81 0.43249 8.7669h116.44v-41.375h-124.27v23.439l7.3927 9.1673zm118.88 10.772v-2.0065 2.0056zm-120.85-11.64a2.0233 2.0233 0 0 1-1.4197-0.58761c-0.37347-0.37347-0.25292-1.0108-0.58845-1.4214l-7.4399-9.0898v-22.653c0-0.52775 0.21498-1.0454 0.58929-1.4197a2.0199 2.0199 0 0 1 1.4205-0.58845h128.28c0.52775 0 1.0471 0.21582 1.4188 0.5876a2.0233 2.0233 0 0 1 0.59014 1.4205v45.39c0 0.53112-0.21498 1.0479-0.59014 1.4205a2.0258 2.0258 0 0 1-1.4197 0.58676h-118.5l-2.3479-13.647zm2.9911 32.626a2.0069 2.0069 0 1 1 0-4.0138h42.34a2.0081 2.0081 0 0 1 2.009 2.0065 2.009 2.009 0 0 1-2.009 2.0073zm15.008 15.559a2.0077 2.0077 0 1 1 0-4.0154h18.619a2.0077 2.0077 0 1 1 0 4.0154zm-15.008-23.339a2.0077 2.0077 0 1 1 0-4.0154h27.096a2.0081 2.0081 0 1 1-3e-3 4.0146h-27.094zm11.673 15.559c-0.37347-0.87087-2.009-0.89785-2.009-2.0048a2.0098 2.0098 0 0 1 2.009-2.0098h4.8265a2.0077 2.0077 0 1 1 2e-3 4.0154zm73.347 7.7797a2.0065 2.0065 0 0 1-2.0065-2.0082 2.0065 2.0065 0 0 1 2.0073-2.0073h1.8159a2.0077 2.0077 0 1 1 0 4.0154zm-9.4632 2e-3a2.0073 2.0073 0 1 1 0-4.0146h1.8176a2.0081 2.0081 0 1 1 0 4.0154h-1.8176zm18.925 0a2.0073 2.0073 0 0 1 0-4.0146h1.8176a2.0077 2.0077 0 1 1 0 4.0154h-1.8176zm9.4641 0a2.0098 2.0098 0 0 1-2.009-2.0065 2.0065 2.0065 0 0 1 2.009-2.0081h1.8159a2.0077 2.0077 0 1 1 0 4.0154h-1.8159zm-36.24-23.34a2.0073 2.0073 0 1 1 0-4.0138h1.8176a2.0065 2.0065 0 0 1 0 4.0129zm8.7829-8.5e-4a2.0081 2.0081 0 0 1 8.4e-4 -4.0154h1.8176a2.0081 2.0081 0 0 1-2e-3 4.0146h-1.8159zm17.342 4.6123c0 2.7365 2.2231 4.9512 4.9605 4.9563a4.9673 4.9673 0 0 0 4.9639-4.9554 4.9673 4.9673 0 0 0-4.9614-4.9588 4.9656 4.9656 0 0 0-4.9614 4.9588m-4.0188 0c0-4.9571 4.0214-8.9717 8.9802-8.9751 4.9588 0 8.9776 4.0188 8.9802 8.9751 0 4.9563-4.0188 8.9717-8.9785 8.9717-4.9571 0-8.976-4.0154-8.9793-8.9717"/><path d="m525.24 294.4v-6.9661a2.0081 2.0081 0 0 1 4.0163 0v6.9678a2.0081 2.0081 0 1 1-4.0163 0m-81.773 48.559a2.0098 2.0098 0 0 1-2.009-2.009 2.0065 2.0065 0 0 1 2.009-2.0065h27.332a2.0073 2.0073 0 1 1 0 4.0146h-27.332zm0 15.557a2.0077 2.0077 0 1 1 0-4.0154h18.619a2.0081 2.0081 0 1 1 0 4.0163h-18.619zm0-23.337a2.0098 2.0098 0 0 1-2.009-2.0098 2.0065 2.0065 0 0 1 2.009-2.0056h12.087a2.0048 2.0048 0 0 1 2.0081 2.0056 2.0098 2.0098 0 0 1-2.0098 2.0098h-12.086zm0 15.56a2.009 2.009 0 1 1 0-4.0171h1.4914a2.009 2.009 0 1 1 2e-3 4.0171zm70.012 7.7771a2.0077 2.0077 0 1 1 8.5e-4 -4.0154h1.8159a2.0081 2.0081 0 0 1 0 4.0154zm-9.4632 0a2.0073 2.0073 0 1 1 0-4.0146h1.8176a2.0081 2.0081 0 1 1 0 4.0154h-1.8176zm18.925 0a2.0077 2.0077 0 1 1 0-4.0154h1.8176a2.0081 2.0081 0 0 1 0 4.0163h-1.8176zm9.4641 0a2.0073 2.0073 0 1 1 0-4.0146h1.8159a2.009 2.009 0 0 1 0 4.0154h-1.8159zm-36.24-23.337a2.009 2.009 0 1 1 0-4.0163h1.8176a2.009 2.009 0 0 1 0 4.0154zm8.7829 0a2.0081 2.0081 0 0 1 8.4e-4 -4.0163h1.8176a2.0081 2.0081 0 1 1-2e-3 4.0163h-1.8159zm17.339 4.6115a4.9723 4.9723 0 0 0 4.9639 4.9563 4.9681 4.9681 0 0 0 4.9614-4.9571 4.9673 4.9673 0 0 0-4.9614-4.9571 4.9689 4.9689 0 0 0-4.9639 4.9563m-4.0154 0c0-4.9571 4.0214-8.9734 8.9802-8.9751 4.9571 3e-3 8.9751 4.0188 8.9776 8.976 0 4.9563-4.0188 8.9734-8.9785 8.9734-4.9588 0-8.9802-4.0171-8.9802-8.9734"/><path d="m525.24 339.79v-6.9644a2.0098 2.0098 0 0 1 2.0098-2.0098 2.0065 2.0065 0 0 1 2.0065 2.0098v6.9636a2.0081 2.0081 0 0 1-4.0163 0"/><path d="m445.05 365.35h99.252v-41.374h-99.252zm101.26 2.0107v-2.009zm-103.27 2.0065a2.0318 2.0318 0 0 1-1.4197-0.58592 2.0318 2.0318 0 0 1-0.5893-1.4205v-45.392c0-0.52859 0.21582-1.0454 0.59014-1.4197a2.0208 2.0208 0 0 1 1.4205-0.58844h103.27a2.0149 2.0149 0 0 1 2.0098 2.0056v45.393a2.0233 2.0233 0 0 1-0.59013 1.4205 2.0351 2.0351 0 0 1-1.4205 0.58592h-103.27zm-191.17-117.19a2.009 2.009 0 0 1-2.0107-2.0056 2.0081 2.0081 0 0 1 2.0107-2.0073h40.673a2.0065 2.0065 0 1 1 0 4.0129zm0 15.559a2.0073 2.0073 0 1 1 0-4.0146h31.962a2.0073 2.0073 0 1 1 0 4.0146zm0-23.336a2.0115 2.0115 0 0 1-2.0107-2.0082 2.0115 2.0115 0 0 1 2.0107-2.0098h25.428a2.0073 2.0073 0 0 1 2.0065 2.0098 2.0073 2.0073 0 0 1-2.0065 2.0065h-25.429zm0 15.556a2.0081 2.0081 0 0 1-2.009-2.0064 2.0073 2.0073 0 0 1 2.009-2.0065h14.833a2.0073 2.0073 0 1 1-8.4e-4 4.0146h-14.833zm83.352 7.7797a2.0073 2.0073 0 1 1 0-4.0146h1.8142a2.0073 2.0073 0 1 1-8.5e-4 4.0146h-1.8142zm-9.4666 0a2.0073 2.0073 0 0 1 8.4e-4 -4.0146h1.821a2.0073 2.0073 0 1 1 0 4.0146h-1.8202zm18.929 0a2.0081 2.0081 0 1 1 0-4.0146h1.8159a2.0073 2.0073 0 1 1 0 4.0146zm9.4624 0a2.0073 2.0073 0 0 1 0-4.0146h1.8159a2.0073 2.0073 0 0 1 0 4.0146zm-36.24-23.336a2.009 2.009 0 0 1 0-4.018h1.8151a2.0098 2.0098 0 0 1 2.0107 2.0098 2.0098 2.0098 0 0 1-2.0107 2.0065h-1.8151zm8.7846 0a2.009 2.009 0 0 1 0-4.018h1.8142a2.0081 2.0081 0 1 1 0 4.0163h-1.8142zm17.342 4.6081c0 2.7365 2.2231 4.9529 4.9588 4.9571a4.9639 4.9639 0 0 0 4.963-4.9571 4.9689 4.9689 0 0 0-4.963-4.9571 4.9673 4.9673 0 0 0-4.9588 4.9571m-4.0188 0c0-4.9571 4.0205-8.9709 8.9776-8.9743 4.9605 3e-3 8.9793 4.0188 8.9793 8.9743 0 4.9571-4.0188 8.9734-8.9793 8.976-4.9571-3e-3 -8.976-4.0188-8.9768-8.976"/><path d="m346.98 249.01v-6.9678a2.009 2.009 0 1 1 4.0171 0v6.9678a2.0065 2.0065 0 0 1-2.009 2.0065 2.0065 2.0065 0 0 1-2.0073-2.0065"/><path d="m241.78 274.57h116.75c1.6608-4.7295-0.20739-9.8595 7.5208-18.073v-23.302h-124.27v41.374zm-2.009 4.0129c-0.52775 0-1.0454-0.21245-1.418-0.58677a2.0225 2.0225 0 0 1-0.58929-1.4214v-45.387a2.0233 2.0233 0 0 1 0.58845-1.4222 2.0334 2.0334 0 0 1 1.4197-0.58845h128.28c0.52775 0 1.0471 0.21582 1.4189 0.58761 0.37515 0.37515 0.59013 0.89194 0.59013 1.4214v21.692c-12.244 16.909-6.5986 15.472-11.54 25.703h-118.75zm12.095 18.98a2.0073 2.0073 0 0 1 0-4.0138h40.675a2.0073 2.0073 0 1 1 0 4.0138zm0 15.559a2.009 2.009 0 1 1 0-4.0154h31.962a2.009 2.009 0 1 1 0 4.0154zm0-23.336a2.009 2.009 0 0 1 0-4.0171h25.428a2.009 2.009 0 0 1-8.4e-4 4.0171zm0 15.556a2.0081 2.0081 0 1 1 0-4.0146h14.833a2.0081 2.0081 0 0 1 0 4.0154h-14.833zm83.352 7.7797a2.0077 2.0077 0 1 1 0-4.0154h1.8159a2.0077 2.0077 0 1 1 0 4.0154h-1.8151zm-9.4632 0a2.0077 2.0077 0 1 1 0-4.0154h1.8176a2.0065 2.0065 0 0 1 2.0065 2.0073 2.0065 2.0065 0 0 1-2.0065 2.0081zm-7.8522-23.336a2.009 2.009 0 0 1 0-4.0171h1.8176a2.009 2.009 0 1 1 0 4.018zm8.7829 0a2.0081 2.0081 0 0 1 8.4e-4 -4.0163h1.8176a2.009 2.009 0 1 1 0 4.0171h-1.8176zm17.342 4.609a4.9715 4.9715 0 0 0 4.963 4.9563 4.9622 4.9622 0 0 0 4.9588-4.9554c0-2.7382-2.2198-4.9529-4.9588-4.9588a4.9698 4.9698 0 0 0-4.963 4.9588m-4.0163 0c0-4.9571 4.0188-8.9717 8.9793-8.9751 4.9588 0 8.9751 4.0171 8.9785 8.9751 0 3.862-2.7121 6.2183-6.1399 7.4829-0.96782 0.35661-1.746 1.4905-2.8386 1.4905-4.9605-3e-3 -8.9785-4.0205-8.9793-8.9743"/><path d="m346.98 294.4v-6.9661a2.0065 2.0065 0 0 1 2.009-2.0065 2.0065 2.0065 0 0 1 2.0082 2.0065v6.9678a2.0065 2.0065 0 0 1-2.0082 2.0065 2.0065 2.0065 0 0 1-2.009-2.0065"/><path d="m241.78 319.96h102.59c-0.65758-8.8605-0.86244-14.448 3.9724-18.111 1.9222-1.456 9.0426 1.7367 10.536-1.477 1.0201-2.1945-0.85317-19.415-0.0675-21.651-34.203-0.25376-79.275-0.13405-117.03-0.13405zm102.93 2.0065v-2.0065 2.0073zm-104.94 2.0098a2.0132 2.0132 0 0 1-2.0098-2.009v-45.386c0-0.5269 0.21667-1.0454 0.59014-1.4214a2.0385 2.0385 0 0 1 1.4197-0.58507h120.01l1.031 0.13404c-0.25965 0.87593 1.225 19.874-1.5032 25.545-1.5394 3.1994-8.1826-0.49909-10.128 1.7122-5.3492 6.0801-6.6255 15.443-3.1378 19.938 0.0843 0.52354 0.45356 1.1154 0.0818 1.4888a2.0199 2.0199 0 0 1-1.4205 0.5876h-104.94zm12.095 18.981a2.0077 2.0077 0 1 1 0-4.0154h40.675a2.0056 2.0056 0 0 1 2.0065 2.0056 2.0065 2.0065 0 0 1-2.0065 2.009h-40.675zm0 15.557a2.0098 2.0098 0 0 1-2.009-2.0098 2.0065 2.0065 0 0 1 2.009-2.0065h31.96a2.0086 2.0086 0 1 1 0 4.0171h-31.96zm0-23.337a2.0073 2.0073 0 1 1 0-4.0146h25.428a2.0081 2.0081 0 0 1 8.5e-4 4.0146h-25.428zm0 15.56a2.009 2.009 0 0 1 0-4.0171h14.833a2.0065 2.0065 0 0 1 2.0065 2.009 2.0073 2.0073 0 0 1-2.0065 2.0081zm83.352 7.7771a2.009 2.009 0 0 1-2.0065-2.0098 2.0065 2.0065 0 0 1 2.0065-2.0065h1.8159a2.0086 2.0086 0 1 1 2e-3 4.0171h-1.8159zm-9.4632 0a2.009 2.009 0 0 1-2.009-2.0098 2.0065 2.0065 0 0 1 2.009-2.0065h1.8176a2.0086 2.0086 0 1 1 0 4.0171h-1.8176zm-7.8522-23.337a2.0081 2.0081 0 0 1 0-4.0154h1.8176a2.0077 2.0077 0 1 1 0 4.0154zm8.7829 0a2.0073 2.0073 0 1 1 2e-3 -4.0146h1.8151a2.0048 2.0048 0 0 1 2.0065 2.0048 2.009 2.009 0 0 1-2.0065 2.0098h-1.8185zm13.326 4.6098c0-3.7735 2.3285-7.0015 5.6265-8.3293 1.359-2.6371 0.0953 15.255-0.12645 16.606a8.9776 8.9776 0 0 1-5.5001-8.2771"/><path d="m241.78 365.35h101.72v-41.374h-101.72zm102.07 2.009v-2.009zm-104.07 2.0082a2.0208 2.0208 0 0 1-1.4205-0.58845 2.0166 2.0166 0 0 1-0.59014-1.4205v-45.392a2.0098 2.0098 0 0 1 2.009-2.0065h104.07c0.52944 0 1.0454 0.21414 1.4197 0.58845a2.0233 2.0233 0 0 1 0.58845 1.4172v45.392a2.0318 2.0318 0 0 1-0.58845 1.4197 2.0301 2.0301 0 0 1-1.4197 0.58845h-104.07z"/></g><path d="m353.98 386.7c-5.0465 0-9.1538-4.104-9.1538-9.1496v-67.984c0-5.0448 4.1073-9.1496 9.1538-9.1496h79.347c5.0473 0 9.153 4.104 9.153 9.1496v67.984c0 5.0448-4.1056 9.1496-9.153 9.1496zm73.68-87.631v-22.664c0-15.618-12.715-28.326-28.339-28.326h-11.336c-15.625 0-28.335 12.707-28.335 28.326v22.664" fill="none" stroke="#1a1a1a" stroke-width="3.3351"/><path d="m404.85 332.22c0-6.2478-4.7556-11.331-11.008-11.331-6.2504 0-11.388 5.0828-11.388 11.331 0 4.1858 2.1295 7.8378 5.6156 9.7979v24.6h10.458v-24.6c3.4852-1.9618 6.3229-5.6122 6.3229-9.7979z" fill="none" stroke="#1a1a1a" stroke-width="3.3351"/><g fill-rule="evenodd" stroke-width=".84305"><path d="m544.31 277.55c0-1.2637 0.89953-2.2864 2.0081-2.2864s2.0065 1.0226 2.0065 2.2864v46.283c0 1.2629-0.89869 2.2872-2.0065 2.2872-1.1086 0-2.0081-1.0243-2.0081-2.2864zm-398.93-36.394a1.5099 1.5099 0 0 1 0-2.1304l8.073-8.0688a1.5116 1.5116 0 0 1 2.1304 0c0.58676 0.58761 0.58676 1.5428 0 2.1296l-8.0697 8.068a1.5091 1.5091 0 0 1-2.1329 0m-52.182 67.842a3.9354 3.9354 0 0 0 3.9286 3.9252 3.9303 3.9303 0 0 0 3.9278-3.9269h3e-3a3.9345 3.9345 0 0 0-3.9303-3.9252 3.932 3.932 0 0 0-3.9286 3.9269zm-3.0114 0a6.9425 6.9425 0 0 1 6.9408-6.9425 6.9467 6.9467 0 0 1 6.9417 6.9417 6.9434 6.9434 0 0 1-6.9417 6.9374c-3.8359-2e-3 -6.9408-3.1066-6.9408-6.9374zm125.54-33.966a3.932 3.932 0 0 0 3.9269 3.9244 3.932 3.932 0 0 0 3.9303-3.9244 3.9345 3.9345 0 0 0-3.9286-3.9286 3.9337 3.9337 0 0 0-3.9278 3.9294m-3.0148 0c0-3.8342 3.1083-6.94 6.9417-6.9417a6.9408 6.9408 0 0 1 6.9417 6.9417c0 3.83-3.1066 6.9358-6.9417 6.9375-3.8334-2e-3 -6.9417-3.1075-6.9417-6.9375" fill="#212121"/><path d="m102.56 310.5a1.5082 1.5082 0 0 1-1.5048-1.5082c0-0.83125 0.67444-1.5048 1.504-1.5048h56.527a1.5065 1.5065 0 0 1-8.5e-4 3.0131h-56.526zm56.526-33.968a1.5053 1.5053 0 1 1 0-3.0105h55.128a1.5065 1.5065 0 0 1 0 3.0105z" fill="#212121"/><path d="m123.21 303.98a1.5065 1.5065 0 0 1 0-3.0122h22.826a1.5061 1.5061 0 1 1 0 3.0122zm51.091-21.731a1.5057 1.5057 0 0 1-8.4e-4 -3.0114h10.326a1.5057 1.5057 0 1 1 0 3.0114zm16.848 0a1.5065 1.5065 0 0 1 8.4e-4 -3.0114h4.8922c0.83209 0 1.5091 0.6736 1.5091 1.5065a1.5091 1.5091 0 0 1-1.5091 1.5048h-4.8922z" fill="#0c8fd7"/></g><g fill="#212121" fill-rule="evenodd" stroke-width=".84305"><path d="m532.95 183.74v-19.393a1.5065 1.5065 0 0 1 3.0131 0v19.393a1.5091 1.5091 0 0 1-1.5057 1.5057 1.5074 1.5074 0 0 1-1.5057-1.5057"/><path d="m534.45 185.25a1.5065 1.5065 0 1 1 8.4e-4 -3.0114h38.59a1.5074 1.5074 0 1 1 0 3.0122h-38.589z"/><path d="m571.54 204.39v-20.645c0-0.83209 0.67444-1.5048 1.5091-1.5048 0.82956 0 1.5057 0.67276 1.5057 1.5048v20.645a1.5078 1.5078 0 0 1-3.0156 0"/></g><path d="m540.63 191.57a1.507 1.507 0 1 1 0-3.0139h17.664c0.83209 0 1.5074 0.67528 1.5074 1.5057 0 0.8304-0.67528 1.5065-1.5065 1.5065h-17.662zm36.81 7.4593v-7.0648c0-0.83209 0.67444-1.5048 1.5065-1.5048s1.5091 0.67275 1.5091 1.5048v7.0648c0 0.82956-0.67697 1.5065-1.5091 1.5065a1.5091 1.5091 0 0 1-1.5057-1.5074" fill="#0c8fd7" fill-rule="evenodd" stroke-width=".84305"/><g fill="#212121" fill-rule="evenodd" stroke-width=".84305"><path d="m573.04 206.94a1.5065 1.5065 0 0 1 8.4e-4 -3.0114h47.272a1.5065 1.5065 0 0 1 8.4e-4 3.0114zm-6.5235 92.415a3.9362 3.9362 0 0 0 3.9286 3.9294 3.937 3.937 0 0 0 3.9278-3.9294 3.9345 3.9345 0 0 0-3.9278-3.9269 3.9354 3.9354 0 0 0-3.9286 3.9269m-3.0131 0a6.9408 6.9408 0 0 1 6.9417-6.9375c3.8334 0 6.9425 3.1058 6.9442 6.9375a6.9442 6.9442 0 0 1-13.886 0m92.189 61.674a3.9303 3.9303 0 0 0 3.9269 3.9261 3.9345 3.9345 0 0 0 3.9311-3.9261h-3e-3a3.9311 3.9311 0 0 0-3.9286-3.9269 3.932 3.932 0 0 0-3.9286 3.9269m-3.0122 0a6.9383 6.9383 0 0 1 6.94-6.9383 6.945 6.945 0 0 1 6.9459 6.9383h-5e-3c0 3.8317-3.1024 6.9391-6.94 6.9417-3.8325-3e-3 -6.94-3.11-6.94-6.9425"/><path d="m658.12 355.6v-30.709a1.5065 1.5065 0 1 1 3.0131 0v30.706a1.5065 1.5065 0 1 1-3.0131-8.4e-4"/><path d="m638.93 326.4a1.5057 1.5057 0 0 1 0-3.0097h20.691c0.83462 0 1.5091 0.67275 1.5091 1.5048 0 0.8304-0.67444 1.5048-1.5091 1.5048z"/><path d="m637.42 324.89v-24.448c0-0.83209 0.67528-1.504 1.5074-1.504 0.83041 0 1.5074 0.67191 1.5074 1.5032v24.448c0 0.8304-0.67697 1.5074-1.5074 1.5074a1.5091 1.5091 0 0 1-1.5074-1.5074"/><path d="m575.88 300.86a1.5048 1.5048 0 1 1 0-3.0097h63.047c0.83125 0 1.5082 0.67444 1.5082 1.5048 0 0.83125-0.67613 1.5048-1.5074 1.5048h-63.047zm23.915-5.9738a1.5048 1.5048 0 1 1 0-3.0097h20.653a1.5057 1.5057 0 0 1 8.5e-4 3.0114h-20.654zm32.194 36.251v-16.569a1.5074 1.5074 0 0 1 3.0122 0v16.569a1.5061 1.5061 0 1 1-3.0122 0"/><path d="m633.5 332.65a1.5065 1.5065 0 0 1 0-3.0131h14.675a1.5065 1.5065 0 0 1-8.4e-4 3.0114h-14.675zm-225.47 77.77a3.9345 3.9345 0 0 0 3.9286 3.9286 3.9345 3.9345 0 0 0 3.9286-3.9286 3.932 3.932 0 0 0-3.9294-3.9261 3.9345 3.9345 0 0 0-3.9286 3.9261m-3.0139 0a6.9417 6.9417 0 0 1 6.9434-6.9358 6.94 6.94 0 0 1 6.9434 6.9358 6.9442 6.9442 0 0 1-6.9434 6.9392 6.9417 6.9417 0 0 1-6.9425-6.9392m85.381 61.037a3.9354 3.9354 0 0 0 3.9303 3.9269 3.9328 3.9328 0 0 0 3.9269-3.9278 3.9328 3.9328 0 0 0-3.9269-3.9269 3.9362 3.9362 0 0 0-3.9295 3.9269m-3.0122 0a6.9391 6.9391 0 0 1 6.9425-6.9366 6.9383 6.9383 0 1 1 0 13.877 6.9425 6.9425 0 0 1-6.9425-6.94"/><path d="m410.45 430.97v-15.12c0-0.83377 0.67444-1.5048 1.5074-1.5048 0.83125 0 1.5065 0.67191 1.5065 1.5048v15.121a1.5074 1.5074 0 0 1-3.0131 0"/><path d="m411.96 432.48a1.5074 1.5074 0 1 1 0-3.0122h82.369a1.5065 1.5065 0 0 1 0 3.0122h-82.368z"/><path d="m492.82 466.02v-35.052a1.5065 1.5065 0 0 1 3.0131 0v35.053a1.5074 1.5074 0 0 1-3.0131 0"/></g><path d="m433.43 426.77a1.5065 1.5065 0 0 1 0-3.0122h23.1a1.5065 1.5065 0 0 1 0 3.0122h-23.099zm29.622 0a1.5091 1.5091 0 0 1-1.5074-1.5074c0-0.82957 0.67444-1.5048 1.5074-1.5048h3.8047a1.5074 1.5074 0 0 1 0 3.0122z" fill="#0c8fd7" fill-rule="evenodd" stroke-width=".84305"/><g fill="#212121" fill-rule="evenodd" stroke-width=".84305"><path d="m487.09 454.04v-13.038a1.507 1.507 0 1 1 3.0139 0v13.038c0 0.83378-0.67528 1.5048-1.5065 1.5048a1.5048 1.5048 0 0 1-1.5074-1.5048m-165.22-43.068a3.9303 3.9303 0 0 0 3.9286 3.9261 3.932 3.932 0 0 0 3.9295-3.9261 3.9328 3.9328 0 0 0-3.9286-3.9269 3.932 3.932 0 0 0-3.9286 3.9269m-3.0139 0a6.9383 6.9383 0 0 1 6.9417-6.9391 6.9408 6.9408 0 1 1 0 13.88 6.9425 6.9425 0 0 1-6.9417-6.9408m-51.338 78.098a3.9345 3.9345 0 0 0 3.9269 3.9286 3.9387 3.9387 0 0 0 3.9294-3.9286 3.9286 3.9286 0 0 0-7.8555 0m-3.0131 0a6.94 6.94 0 0 1 6.9408-6.9392 6.9434 6.9434 0 0 1 6.9408 6.9383 6.9417 6.9417 0 0 1-6.9417 6.9392 6.9383 6.9383 0 0 1-6.9417-6.9383"/><path d="m324.29 455.15v-38.747c0-0.83462 0.67612-1.504 1.5074-1.504 0.83209 0 1.5065 0.67023 1.5065 1.504v38.747a1.5065 1.5065 0 0 1-3.0131-8.5e-4"/><path d="m298.62 456.65a1.5074 1.5074 0 0 1 0-3.0139h27.176a1.5074 1.5074 0 0 1 0 3.0131h-27.175z"/><path d="m297.12 489.07v-33.922a1.5065 1.5065 0 1 1 3.0131 0v33.922c0 0.82787-0.6736 1.5074-1.5065 1.5074a1.5091 1.5091 0 0 1-1.5048-1.5065"/></g><g fill-rule="evenodd" stroke-width=".84305"><path d="m290.6 474.99v-12.233a1.5065 1.5065 0 1 1 3.0114 0l8.4e-4 12.233c0 0.83378-0.67444 1.5091-1.5057 1.5091a1.5065 1.5065 0 0 1-1.504-1.5091" fill="#0c8fd7"/><path d="m318.86 438.1v-10.867c0-0.83209 0.67528-1.5032 1.5065-1.5032 0.83209 0 1.5057 0.67191 1.5057 1.504v10.867a1.5074 1.5074 0 0 1-3.0131 0" fill="#212121"/><path d="m310.04 462.63a1.5065 1.5065 0 0 1 0-3.0131h10.87a1.5065 1.5065 0 0 1-8.5e-4 3.0114h-10.871z" fill="#0c8fd7"/></g><g fill="#212121" fill-rule="evenodd" stroke-width=".84305"><path d="m456.29 64.896a3.9328 3.9328 0 0 0 3.9311 3.9269 3.9337 3.9337 0 0 0 3.9286-3.9269 3.9337 3.9337 0 0 0-3.9286-3.9252 3.9337 3.9337 0 0 0-3.9303 3.9269m-3.0131 0a6.9375 6.9375 0 0 1 6.9434-6.9375 6.9383 6.9383 0 0 1 6.9417 6.9375c0 3.8317-3.1092 6.9375-6.9417 6.9375-3.8359 0-6.9434-3.1058-6.9434-6.9375m-108.92 61.419a3.9337 3.9337 0 0 0 3.9303 3.9252 3.9303 3.9303 0 0 0 3.9269-3.9244 3.9328 3.9328 0 0 0-3.9269-3.9269 3.9354 3.9354 0 0 0-3.9303 3.9269m-3.0097 0a6.94 6.94 0 0 1 6.94-6.94 6.94 6.94 0 1 1 0 13.879c-3.8359-2e-3 -6.9417-3.1083-6.9417-6.9392"/><path d="m399.92 66.403a1.5057 1.5057 0 1 1 8.4e-4 -3.0114h54.867a1.5074 1.5074 0 0 1 0 3.0131h-54.866z"/><path d="m398.41 89.919v-25.023a1.507 1.507 0 1 1 3.0139 0v25.022a1.5074 1.5074 0 0 1-3.0131-8.43e-4"/><path d="m348.28 91.424c-0.8304 0-1.5091-0.67528-1.5091-1.5057 0-0.83462 0.67866-1.5091 1.5091-1.5091h51.634a1.5082 1.5082 0 0 1 0 3.0139h-51.634z"/><path d="m346.78 120.88v-30.967a1.5053 1.5053 0 1 1 3.0105 0v30.967a1.5065 1.5065 0 0 1-3.0122 8.5e-4m-5.9798-11.409v-13.582a1.5091 1.5091 0 1 1 3.0164-8.43e-4v13.582a1.5091 1.5091 0 0 1-3.0164 2e-3m74.886-38.156c-0.83462 0-1.5091-0.67444-1.5091-1.5057 0-0.83209 0.67444-1.5065 1.5091-1.5065h22.282a1.5065 1.5065 0 1 1 0 3.0131h-22.282zm-95.892 110.2a3.9345 3.9345 0 0 0 3.9286 3.9278 3.9328 3.9328 0 0 0 3.9269-3.9278 3.932 3.932 0 0 0-3.9269-3.9269 3.9345 3.9345 0 0 0-3.9294 3.9269m-3.0139 0a6.9383 6.9383 0 0 1 6.9425-6.9366 6.9366 6.9366 0 0 1 6.9408 6.9366c0 3.8334-3.1058 6.9383-6.9417 6.94-3.8359-3e-3 -6.9425-3.1066-6.9434-6.94m-116.51-56.366a3.937 3.937 0 0 0 3.9286 3.9269 3.937 3.937 0 0 0 3.9295-3.9278 3.9328 3.9328 0 0 0-3.9286-3.9269 3.9345 3.9345 0 0 0-3.9286 3.9269m-3.0139 0a6.94 6.94 0 0 1 6.9425-6.9391 6.94 6.94 0 0 1 6.94 6.94 6.9366 6.9366 0 0 1-6.94 6.9374 6.9383 6.9383 0 0 1-6.9425-6.9374"/><path d="m209.63 126.66a1.5057 1.5057 0 1 1 8.4e-4 -3.0105h56.526a1.5057 1.5057 0 1 1 0 3.0097h-56.526z"/><path d="m264.65 181.17v-56.023c0-0.83378 0.67444-1.5057 1.5065-1.5057 0.83462 0 1.5074 0.67276 1.5074 1.5048v56.023a1.5061 1.5061 0 1 1-3.0122 0"/><path d="m266.16 183.02a1.5061 1.5061 0 1 1 0-3.0122h52.129a1.5065 1.5065 0 1 1 0 3.0122h-52.13zm5.0128-29.557v-17.93c0-0.83125 0.67444-1.5048 1.5065-1.5048 0.83378 0 1.5091 0.67444 1.5091 1.5057v17.93a1.5091 1.5091 0 0 1-3.0156-8.4e-4m-197.14 20.395v-11.592a1.507 1.507 0 0 1 3.0139 0v11.592a1.5065 1.5065 0 0 1-3.0131 0"/><path d="m69.743 169.57a1.5065 1.5065 0 0 1 0-3.0114h11.595c0.8304 0 1.5074 0.67444 1.5074 1.5048 0 0.83209-0.67613 1.5074-1.5074 1.5074h-11.594zm152.18 46.938v-11.589a1.5065 1.5065 0 1 1 3.0131 0v11.589a1.5065 1.5065 0 0 1-3.0131 0"/><path d="m217.63 212.22a1.5057 1.5057 0 0 1-8.4e-4 -3.0097h11.598a1.5048 1.5048 0 0 1 0 3.0097h-11.599zm375.84 133.53v-11.591a1.5065 1.5065 0 0 1 3.0122 0v11.592a1.5074 1.5074 0 0 1-3.0131-2e-3"/></g><g fill="#0c8fd7" fill-rule="evenodd" stroke-width=".84305"><path d="m589.17 341.46a1.5082 1.5082 0 0 1-1.5065-1.5091c0-0.83209 0.67276-1.504 1.5074-1.504h11.594c0.83293 0 1.5074 0.67191 1.5074 1.5048 0 0.83125-0.67444 1.5091-1.5065 1.5091h-11.594zm69.341-233.63v-11.589a1.5065 1.5065 0 1 1 3.0131 0.0017v11.589a1.5065 1.5065 0 0 1-3.0122-8.4e-4"/><path d="m654.23 103.55c-2.0069 1e-3 -2.0078-3.0087-8.4e-4 -3.0097h11.595c0.82956 0 1.5057 0.67528 1.5057 1.5032 0 0.83125-0.67528 1.5065-1.5057 1.5065h-11.595zm-385.34-6.9056v-11.59c4e-3 -2.0062 3.0114-2.0054 3.0139 8.43e-4v11.59c-0.0471 1.9622-2.9679 1.9614-3.0139-8.43e-4"/><path d="m264.6 92.351c-1.9612-0.04639-1.9612-2.9658 0-3.0122h11.597c1.9426 0.06499 1.9426 2.9481 0 3.0131h-11.597zm-161.22 7.1813c-2.0088-1e-3 -2.008-3.0149 8.4e-4 -3.0139h21.743c0.83125 0 1.5048 0.67528 1.5048 1.5065 0 0.83209-0.6736 1.5065-1.5048 1.5065h-21.744zm31.526 0c-1.9286-0.07902-1.9286-2.9349 0-3.0139h8.6961c1.9426 0.06627 1.9407 2.9494-2e-3 3.0131h-8.6927zm322.87 95.365c-1.9426-0.065-1.9426-2.948 0-3.0131h21.741c1.961 0.0471 1.9602 2.9662-8.4e-4 3.0122h-21.742zm31.524 0c-1.9287-0.0789-1.9287-2.935 0-3.0139h8.6969c0.83041 0 1.5065 0.67782 1.5065 1.5091-2e-3 0.8308-0.67573 1.5035-1.5065 1.5048zm258.35 130.34c-1.9426-0.0655-1.9418-2.9486 8.5e-4 -3.0131h21.742c2.0062 3e-3 2.0062 3.0109 0 3.0139h-21.742zm31.525-2e-3c-2.0065 0-2.0065-3.0097 0-3.0097h8.6986c2.0758-0.0699 2.0766 3.0802 8.4e-4 3.0114h-8.6986zm-643.4 155.76c-2.0076 0-2.0076-3.0114 0-3.0114h21.741c2.0097-1e-3 2.0097 3.012 0 3.0131h-21.741zm31.522 0c-0.83086-9.3e-4 -1.5043-0.67399-1.5057-1.5048 0-0.83209 0.67528-1.5065 1.5065-1.5065h8.6986c0.83178 1e-3 1.5056 0.67559 1.5065 1.5074-2e-3 0.83146-0.67592 1.5048-1.5074 1.5057h-8.6969zm362.44-97.523c-2.0747 0.0694-2.0747-3.0791 0-3.0097h21.738c2.0076 0 2.0076 3.0114 0 3.0114h-21.739zm31.523 0c-2.011 4e-3 -2.0119-3.0143-8.4e-4 -3.0114h8.6969c0.83146 9.2e-4 1.5055 0.67423 1.5074 1.5057 0 0.8304-0.67529 1.504-1.5065 1.504h-8.6969zm-252.66-236.33c-2.0758 0.0694-2.0758-3.0807 0-3.0114h19.566c1.9416 0.0649 1.9416 2.9465 0 3.0114zm-9.7828 7.606c-2.0086 1e-3 -2.0095-3.0112-8.4e-4 -3.0122h17.391c2.0747-0.0688 2.0739 3.0797-8.4e-4 3.0097h-17.392zm461.02-112.05c-1.9292 0-1.9276-2.9332 0-3.0122h19.57c1.9613 0.0469 1.9604 2.9664-8.4e-4 3.0122h-19.567zm-9.7819 7.606c-1.9426-0.0645-1.9434-2.9475-8.5e-4 -3.0131h17.393c1.9613 0.0469 1.9604 2.9664-8.5e-4 3.0122h-17.393zm-39.586 305.81c-2.0069 1e-3 -2.0078-3.0087-8.4e-4 -3.0097h19.566c2.0065 0 2.0065 3.0097 0 3.0097zm-9.7853 7.6068c-2.0077-1e-3 -2.0077-3.0141 0-3.0131h17.395c1.9426 0.065 1.9426 2.948 0 3.0131zm-164.35 154.83h25.154v-2.2594h-25.154"/></g><g fill="#212121" fill-rule="evenodd" stroke-width=".84305"><path d="m76.931 415.16a1.5065 1.5065 0 0 1-8.43e-4 -3.0114h19.566a1.5065 1.5065 0 0 1 0 3.0114zm5.9789-177.26a1.5048 1.5048 0 1 1-8.43e-4 -3.0097h17.39a1.5057 1.5057 0 1 1 0 3.0097zm87.88 146.74a1.5091 1.5091 0 0 1 0-2.1304l8.073-8.0688a1.5141 1.5141 0 0 1 2.1296 0c0.58676 0.59013 0.58676 1.5428 0 2.1321l-8.0697 8.068a1.5091 1.5091 0 0 1-2.1346 0"/><path d="m170.79 384.64-8.0688-8.068c-0.59013-0.58845-0.59013-1.5428 0-2.1312a1.5141 1.5141 0 0 1 2.1296 0l8.0722 8.0697c0.58676 0.58845 0.58676 1.5428 0 2.1304a1.5091 1.5091 0 0 1-2.1346 0m4e-3 9.9143a1.5057 1.5057 0 0 1 0-2.1312l8.0714-8.0697a1.5116 1.5116 0 0 1 2.1312 0c0.58508 0.59013 0.58508 1.5445 0 2.1312l-8.0714 8.068c-0.29422 0.29338-0.68202 0.44176-1.0673 0.44176-0.38611 0-0.77054-0.14838-1.0622-0.44176"/><path d="m170.79 394.56-8.0705-8.068c-0.59014-0.58676-0.59014-1.5428 0-2.1312a1.5116 1.5116 0 0 1 2.1304 0l8.0714 8.0688a1.5091 1.5091 0 0 1 0 2.1296c-0.29422 0.29338-0.68202 0.44176-1.0673 0.44176-0.38611 0-0.77054-0.14838-1.0622-0.44176m28.545-68.933a1.5074 1.5074 0 0 1 0-2.1304l8.0697-8.068a1.5124 1.5124 0 0 1 2.1338 0c0.58676 0.58929 0.58676 1.5428 0 2.1304l-8.073 8.068a1.504 1.504 0 0 1-2.1296 0"/><path d="m199.34 325.63-8.0714-8.068a1.5065 1.5065 0 0 1 2.1295-2.1312l8.0714 8.0688a1.5074 1.5074 0 0 1-1.0656 2.5722c-0.38359 0-0.77055-0.14838-1.0639-0.44176m252.59 146.62 8.0714-8.0655c0.58929-0.59013 1.5428-0.59013 2.1312 0 0.5893 0.58845 0.5893 1.5411 0 2.1279l-8.0697 8.068c-0.29507 0.29254-0.68287 0.44091-1.0673 0.44091a1.5057 1.5057 0 0 1-1.0648-2.5696z"/><path d="m443.86 466.31a1.5006 1.5006 0 0 1 0-2.1279c0.58676-0.59013 1.5428-0.59013 2.1312 0l8.0714 8.0672a1.5116 1.5116 0 0 1 0 2.1304c-0.29507 0.2917-0.68371 0.44008-1.0673 0.44008-0.38612 0-0.77224-0.14754-1.0656-0.44008l-8.0697-8.068zm152.79-201.52a1.5082 1.5082 0 0 1 3e-3 -2.1304l8.073-8.068a1.5049 1.5049 0 0 1 2.1287 2.1279l-8.0705 8.0697a1.5091 1.5091 0 0 1-2.1329 0"/><path d="m596.65 264.79-8.0697-8.068a1.5074 1.5074 0 0 1 0-2.1312 1.5074 1.5074 0 0 1 2.1304 3e-3l8.0714 8.0671a1.5074 1.5074 0 0 1-2.1329 2.1304"/></g><g fill="#0c8fd7" fill-rule="evenodd" stroke-width=".84305"><path d="m466.79 108.59a1.5074 1.5074 0 0 1 0-2.1304l8.0747-8.0663a1.5091 1.5091 0 0 1 2.1304 0c0.58592 0.59014 0.58508 1.5445-3e-3 2.1304l-8.0714 8.0697a1.5057 1.5057 0 0 1-2.1312-2e-3"/><path d="m352.81 173.41 8.0705-8.0672a1.5074 1.5074 0 0 0-2.1312-2.1304l-8.0714 8.068a1.5057 1.5057 0 1 0 1.0673 2.5696c0.38359 0 0.76886-0.14669 1.0639-0.44092"/><path d="m350.68 173.41-8.0714-8.0671a1.5074 1.5074 0 0 1 2.1312-2.1304l8.0714 8.068c0.58592 0.58845 0.58592 1.5419 0 2.1287-0.29507 0.29507-0.68034 0.44007-1.0673 0.44007-0.38359 0-0.76886-0.14585-1.0639-0.44007"/><path d="m466.79 108.6-8.0663-8.068a1.5006 1.5006 0 0 1 0-2.1287c0.58677-0.59014 1.5428-0.58676 2.1304 0l8.068 8.0671c0.58929 0.58677 0.58845 1.5411 0 2.1296a1.5057 1.5057 0 0 1-2.1321 0m2e-3 9.916a1.5074 1.5074 0 0 1 0-2.1304l8.0747-8.0697a1.5091 1.5091 0 0 1 2.1304 0c0.58592 0.58929 0.58508 1.5402-3e-3 2.1304l-8.0714 8.068a1.5074 1.5074 0 0 1-2.1312 0"/><path d="m466.79 118.51-8.0663-8.0697a1.5015 1.5015 0 0 1 0-2.1296 1.5065 1.5065 0 0 1 2.1304 3e-3l8.068 8.0663a1.504 1.504 0 0 1-1.0665 2.5696 1.5091 1.5091 0 0 1-1.0656-0.44007"/></g><g fill="#212121" fill-rule="evenodd" stroke-width=".84305"><path d="m145.38 241.16-8.0697-8.068c-0.59013-0.58676-0.59013-1.5402 0-2.1296a1.5074 1.5074 0 0 1 2.1296 0l8.0714 8.068c0.58592 0.58929 0.58592 1.5436 0 2.1304a1.5091 1.5091 0 0 1-2.1329 0m2e-3 9.9151c-0.59014-0.58845-0.59014-1.5428 0-2.1304l8.073-8.0663a1.5046 1.5046 0 1 1 2.1296 2.1262l-8.073 8.0697a1.5065 1.5065 0 0 1-2.1304 0"/><path d="m145.38 251.07-8.0697-8.068c-0.59013-0.58676-0.59013-1.5402 0-2.127 0.58676-0.5893 1.5411-0.5893 2.1287 0l8.0714 8.0654a1.5091 1.5091 0 0 1-1.0673 2.5722c-0.38527 0-0.76886-0.14838-1.0639-0.44176"/><path d="m412.55 178.68c-0.83118-4.6e-4 -1.5051-0.67366-1.5065-1.5048 0-0.83125 0.67528-1.5065 1.5057-1.5065h15.22c1.9264 0.0795 1.9256 2.9321-8.4e-4 3.0105zm-51.801 243.08c-2.0076 0-2.0076-3.0114 0-3.0114h15.22c1.9613 0.0463 1.9613 2.9659 0 3.0122h-15.22zm-140.1-38.145c-2.0087 0-2.0087-3.0131 0-3.0131h15.22c0.83113 9.3e-4 1.505 0.67372 1.5074 1.5048 0 0.83277-0.6746 1.5081-1.5074 1.5091h-15.22zm-163.01-60.409c-2.0081 0-2.0081-3.0122 0-3.0122h15.217c2.0087 0 2.0087 3.0131 0 3.0131h-15.217zm396.15-240.82c-1.9264-0.07899-1.9264-2.9315 0-3.0105h15.221c1.9415 0.06498 1.9415 2.9464 0 3.0114h-15.221zm224.44 6.1675c-2.0908 0.0856-2.0908-3.0961 0-3.0105h15.216c1.9266 0.0789 1.9266 2.9317 0 3.0105h-15.217zm3.8721 384.05c-0.8308-1e-3 -1.5042-0.67404-1.5065-1.5048 0-0.83209 0.67528-1.5048 1.5065-1.5048h15.22c0.83209 0 1.5074 0.67276 1.5074 1.5048-2e-3 0.83112-0.67624 1.5039-1.5074 1.5048zm-498.38-392.15c-0.83125 0-1.5074-0.6736-1.5074-1.5048 0-0.83209 0.67528-1.5057 1.5065-1.5057h15.217c0.83209 0 1.5091 0.67528 1.5091 1.5065s-0.67697 1.5048-1.5091 1.5048h-15.217zm15.36 160.7c-2.0076 0-2.0076-3.0114 0-3.0114h2.1759c2.0082 0 2.0082 3.0122 0 3.0122h-2.1768zm-9.1488 0c-0.83052-9.3e-4 -1.5038-0.67348-1.5057-1.504 0-0.83209 0.67528-1.5074 1.5048-1.5074h2.1768c1.9613 0.0469 1.9604 2.9664-8.4e-4 3.0122h-2.1768zm-9.1488 0c-0.83085-4.6e-4 -1.5047-0.67315-1.5065-1.504 0-0.83209 0.67444-1.5074 1.5065-1.5074h2.1759c0.83178 2e-3 1.5052 0.67644 1.5057 1.5082 0 0.82872-0.67444 1.504-1.5057 1.504h-2.1759zm157.51-172.32c-0.83209 0-1.5091-0.6736-1.5091-1.5048 2e-3 -0.83178 0.67727-1.5048 1.5091-1.5048h2.1734c0.83125 0 1.5074 0.67528 1.5074 1.5048 0 0.83125-0.67529 1.5048-1.5065 1.5048h-2.1725zm-9.1505 0c-1.9606 0-1.9592-2.9647 8.4e-4 -3.0105h2.1759c0.83041 0 1.5074 0.67444 1.5074 1.5057 0 0.8304-0.67612 1.5048-1.5074 1.5048h-2.1759zm-9.1488 0c-1.9264-0.07898-1.9264-2.9315 0-3.0105h2.1768c1.9601 0.04584 1.9609 2.9636 8.5e-4 3.0105h-2.1784zm160.39 86.486c-1.9402-0.0651-1.9402-2.9446 0-3.0097h2.1768c2.0551-0.0487 2.0551 3.0592 0 3.0105h-2.1768zm-9.1479 0c-0.83085-4.6e-4 -1.5047-0.67315-1.5065-1.504 9.3e-4 -0.83178 0.67475-1.506 1.5065-1.5074h2.1725c0.83209 0 1.5091 0.67444 1.5091 1.5074-2e-3 0.83179-0.67727 1.5048-1.5091 1.5048h-2.1725zm-9.1471 0c-2.0111 5e-3 -2.0111-3.0144 0-3.0097h2.1725c2.076-0.0696 2.076 3.0809 0 3.0114h-2.1725zm144.63 244.36c-1.9276-0.079-1.9276-2.9332 0-3.0122h2.1768c0.83145 2e-3 1.5048 0.67592 1.5057 1.5074-2e-3 0.8308-0.67573 1.5035-1.5065 1.5048zm-9.1471 0c-2.0087 0-2.0087-3.0131 0-3.0131h2.1725c0.83125 0 1.5091 0.67613 1.5091 1.5082-2e-3 0.83179-0.67727 1.5048-1.5091 1.5048zm-9.1479 0c-2.0082 0-2.0082-3.0122 0-3.0122h2.1717c2.0921-0.0857 2.0921 3.0979 0 3.0122zm12.269-303.16c-2.0072 7.32e-4 -2.0072-3.009 0-3.0097h2.1751c0.83378 0 1.5048 0.67275 1.5048 1.5048 0 0.82956-0.67106 1.5048-1.504 1.5048h-2.1751zm-9.1471 0.0017c-2.0562 0.0492-2.057-3.0603-8.4e-4 -3.0122h2.1742c0.83209 0 1.5057 0.6736 1.5057 1.5057 0 0.83209-0.67276 1.5065-1.5048 1.5065zm-9.1505 0c-0.83198-9.3e-4 -1.5061-0.6754-1.5065-1.5074 0-0.82956 0.67444-1.5048 1.5065-1.5048h2.1759c0.82956 0 1.5065 0.67444 1.5065 1.504 0 0.83209-0.67782 1.5065-1.5065 1.5065h-2.1759zm-446.02 239.92c-1.9404-0.0649-1.9404-2.9448 0-3.0097h2.1759c0.82956 0 1.5065 0.67276 1.5065 1.5048 0 0.83124-0.67697 1.5048-1.5074 1.5048zm-9.1488 0c-2.0065 0-2.0065-3.0097 0-3.0097h2.1751c2.0065 1e-3 2.0045 3.011-2e-3 3.0097h-2.1751zm-9.1471 0c-0.83293 0-1.509-0.67444-1.509-1.5048 0-0.83209 0.67612-1.5048 1.509-1.5048h2.1751c2.0065 0 2.0065 3.0097 0 3.0097h-2.1725zm283.97 140.92c1.3333-3e-3 2.4144-1.0812 2.4204-2.4145-0.059-3.1682-4.7827-3.1682-4.8416 0 7e-3 1.3334 1.0887 2.4113 2.4221 2.4145m-5.4334-2.4145c9.3e-4 -3.0004 2.434-5.4319 5.4343-5.4309 3.0002-4.6e-4 5.4326 2.4316 5.4326 5.4318-4e-3 2.9979-2.4347 5.4265-5.4326 5.4284-3.0013-3e-3 -5.4335-2.4347-5.4335-5.4284m-22.059-19.104c-0.65982-0.50645-0.78435-1.4518-0.2782-2.1118 6.3912-8.3293 16.455-13.713 27.768-13.713 11.319 0 21.379 5.3829 27.77 13.713 0.50432 0.66087 0.37917 1.6052-0.27989 2.1118-0.66061 0.50529-1.6057 0.38004-2.1118-0.27989-5.8508-7.6178-15.03-12.532-25.378-12.532-10.344 0-19.53 4.9141-25.379 12.532v3e-3c-0.29591 0.38611-0.74188 0.58676-1.1954 0.58676-0.3212 0-0.64409-0.10032-0.91724-0.30856"/><path d="m381.69 462.93a1.5065 1.5065 0 0 1-0.39623-2.0916c4.5213-6.6255 12.142-10.981 20.774-10.981 8.6261 0 16.251 4.3552 20.77 10.981a1.5032 1.5032 0 0 1-0.39708 2.0908 1.5082 1.5082 0 0 1-2.0924-0.39455c-3.9859-5.8364-10.681-9.6639-18.281-9.6639-7.6018 0-14.296 3.8274-18.283 9.6639a1.5099 1.5099 0 0 1-1.2477 0.65842c-0.29254 0-0.58761-0.086-0.84727-0.26387"/><path d="m83.729 386.94h52.221v-38.479h-52.224v38.479zm53.728 1.5082v-1.5082zm-55.235 1.504c-0.40298 0-0.78066-0.15681-1.0656-0.44176-0.28253-0.28119-0.44098-0.66363-0.44007-1.0622v-41.493c0-0.39792 0.16018-0.78573 0.44007-1.0648 0.28282-0.28225 0.66605-0.44081 1.0656-0.44091h55.234c0.8317-4.6e-4 1.5064 0.67314 1.5074 1.5048v41.494c0 0.3996-0.15512 0.77898-0.44176 1.0622-0.28175 0.28405-0.66552 0.44345-1.0656 0.4426h-55.234z"/><path d="m109.34 354.4a1.5074 1.5074 0 0 1 0-3.0122h1.0058a1.5074 1.5074 0 0 1 0 3.0122zm-9.2904 29.615a1.5057 1.5057 0 0 1-1.5057-1.5074c0-0.83462 0.67191-1.5057 1.5048-1.5057h10.544a1.5061 1.5061 0 1 1 8.4e-4 3.0122h-10.543zm17.072 0a1.5082 1.5082 0 0 1-1.5065-1.5074c0-0.83462 0.67529-1.5057 1.5082-1.5057h2.5123a1.5061 1.5061 0 0 1 0 3.0122h-2.5131zm81.853 120.81a1.5091 1.5091 0 0 1-0.18547-2.1245l10.544-12.549a1.5099 1.5099 0 0 1 2.1228-0.18294c0.64072 0.53365 0.72165 1.4855 0.18547 2.1194l-10.543 12.549c-0.29929 0.35492-0.72503 0.53786-1.1533 0.53786-0.34228 0-0.68372-0.11549-0.96951-0.35071m57.456-0.18547-10.543-12.549a1.5032 1.5032 0 0 1 0.18379-2.1203 1.5074 1.5074 0 0 1 2.1211 0.18294l10.547 12.549a1.5116 1.5116 0 0 1-0.18547 2.1245 1.5091 1.5091 0 0 1-2.1228-0.18716"/><path d="m495.28 496.02c-0.83118-4.6e-4 -1.5051-0.67366-1.5065-1.5048 0-0.83462 0.67444-1.5048 1.5065-1.5048h1.2696c1.9264 0.0785 1.9272 2.931 8.4e-4 3.0105h-1.2688zm-2.7534 27.499c-2.0077-1e-3 -2.0077-3.0141 0-3.0131h6.7697c2.0109-5e-3 2.0129 3.0134 2e-3 3.0114h-6.7705z"/><path d="m639.34 406.42c-2.0042-3e-3 -2.0042-3.0079 0-3.0114h10.254c0.83462 0 1.5091 0.67444 1.5091 1.5048 0 0.83378-0.67444 1.5074-1.5091 1.5074h-10.254zm0 4.8813c-1.9622-0.0465-1.9622-2.9674 0-3.0139h5.9831c1.9426 0.065 1.9426 2.948 0 3.0131h-5.9848zm32.107 2.8065c-0.8321 0-1.5057-0.67444-1.5057-1.5048 0-0.8304 0.67444-1.5074 1.5057-1.5074h0.73261c0.83209 0 1.5057 0.67697 1.5057 1.5074 0 0.83125-0.67444 1.5048-1.5057 1.5048zm4.8846 0c-0.83378 0-1.5065-0.67444-1.5065-1.5048 9.3e-4 -0.83211 0.67526-1.5064 1.5074-1.5074h0.73177c0.83377 0 1.5065 0.67697 1.5065 1.5074 0 0.83125-0.67276 1.5048-1.5065 1.5048h-0.73177zm4.8838 0c-0.83209 0-1.509-0.67444-1.509-1.5048 2e-3 -0.83178 0.67727-1.5048 1.509-1.5048h0.73009c0.83462 0 1.5091 0.67444 1.5091 1.5048 0 0.83125-0.67444 1.5048-1.5091 1.5048h-0.72924z"/><path d="m634.31 416.41h52.658l-3e-3 -15.292h-52.654v15.292zm54.163 1.5048v-1.5048zm-55.667 1.5048a1.5091 1.5091 0 0 1-1.5074-1.5048v-18.305a1.5175 1.5175 0 0 1 0.44176-1.0631 1.5209 1.5209 0 0 1 1.0656-0.44176h55.668c0.39455 0 0.78404 0.16187 1.0639 0.44176a1.5175 1.5175 0 0 1 0.4426 1.0639v18.305c0 0.40045-0.15681 0.77983-0.4426 1.0639-0.28327 0.28664-0.66264 0.44176-1.0639 0.44176h-55.668zm6.5294 5.3112a1.5061 1.5061 0 1 1 0-3.0122h10.254a1.5065 1.5065 0 1 1 0 3.0122h-10.253zm0 4.8804a1.5082 1.5082 0 0 1-1.5057-1.5065c0-0.83462 0.67444-1.504 1.5057-1.504h5.9831c0.83125 0 1.5057 0.67107 1.5057 1.5048a1.5091 1.5091 0 0 1-1.5065 1.5074h-5.984zm32.107 2.8074a1.5065 1.5065 0 1 1 0-3.0131h0.73261a1.5065 1.5065 0 0 1 0 3.0131zm4.8846 0a1.5091 1.5091 0 0 1 8.5e-4 -3.0139l0.73176-8.4e-4a1.5065 1.5065 0 1 1 0 3.0131h-0.73176zm4.8838-3e-3c-0.83209 0-1.5091-0.67191-1.5091-1.5032a1.5091 1.5091 0 0 1 1.5091-1.5074h0.73008a1.5048 1.5048 0 0 1 0 3.0097h-0.72924z"/><path d="m634.31 434.71h52.658l-3e-3 -15.293h-52.654v15.293zm54.163 1.5048v-1.5048zm-55.667 1.5074c-0.39877 0-0.78404-0.16271-1.0656-0.44176a1.5175 1.5175 0 0 1-0.44176-1.0656v-18.303a1.5099 1.5099 0 0 1 1.5074-1.5048h55.668a1.5116 1.5116 0 0 1 1.5065 1.5048v18.303a1.5023 1.5023 0 0 1-1.5065 1.5074zm6.5294 5.3087a1.5061 1.5061 0 1 1 0-3.0122h10.254a1.5065 1.5065 0 0 1 0 3.0122h-10.253zm0 4.8813a1.5065 1.5065 0 0 1 0-3.0131h5.9831a1.5065 1.5065 0 1 1 0 3.0122h-5.9848zm32.107 2.8057a1.5057 1.5057 0 1 1 0-3.0114h0.73261a1.5074 1.5074 0 0 1 0 3.0131h-0.73261zm4.8846 0c-0.83377 0-1.5065-0.6736-1.5065-1.5048a1.5091 1.5091 0 0 1 1.5074-1.5065h0.73176a1.5074 1.5074 0 0 1 0 3.0131h-0.73176zm4.8838 0c-0.83209 0-1.5091-0.6736-1.5091-1.5048a1.5091 1.5091 0 0 1 1.5091-1.504h0.73008c0.83462 0 1.5091 0.67528 1.5091 1.5048 0 0.8321-0.67444 1.5057-1.5091 1.5057h-0.72924z"/><path d="m634.31 453.01h52.658l-3e-3 -15.292h-52.654v15.292zm54.163 1.5057v-1.5048 1.5057zm-55.667 1.5048c-0.39877 0-0.78404-0.15766-1.0656-0.43839a1.5133 1.5133 0 0 1-0.44176-1.0656v-18.305a1.5099 1.5099 0 0 1 1.5074-1.5057h55.668c0.39455 0 0.78404 0.16018 1.0639 0.44345 0.28158 0.2782 0.4426 0.66601 0.4426 1.0606v18.305c0 0.40045-0.15681 0.77982-0.4426 1.0648a1.4973 1.4973 0 0 1-1.0639 0.44007h-55.668zm6.5294-67.908a1.5065 1.5065 0 0 1-1.5057-1.5048c0-0.8304 0.67444-1.5048 1.5057-1.5048h10.254c0.83462 0 1.5091 0.67444 1.5091 1.5048s-0.67444 1.5048-1.5091 1.5048h-10.253zm0 4.883a1.5091 1.5091 0 0 1 0-3.0173h5.9831a1.5091 1.5091 0 0 1 0 3.0173h-5.9848zm32.107 2.8057a1.5057 1.5057 0 1 1 0-3.0114h0.73261a1.5065 1.5065 0 0 1 0 3.0131h-0.73261zm4.8846 0c-0.83377 0-1.5065-0.67444-1.5065-1.5048 0-0.83209 0.67529-1.5074 1.5074-1.5074h0.73176a1.5065 1.5065 0 1 1 0 3.0122h-0.73176zm4.8838-2e-3a1.5091 1.5091 0 0 1-1.5091-1.5032 1.5091 1.5091 0 0 1 1.5091-1.5074h0.73008c0.83462 0 1.5091 0.67613 1.5091 1.5074 0 0.82872-0.67444 1.5032-1.5091 1.5032h-0.72924z"/><path d="m634.31 398.1h52.658l-3e-3 -15.293h-52.654v15.293zm54.163 1.5057v-1.5048 1.5057zm-55.667 1.5074c-0.39877 0-0.78404-0.16271-1.0656-0.44176a1.5217 1.5217 0 0 1-0.44176-1.0656v-18.303a1.5141 1.5141 0 0 1 1.5074-1.5082h55.668a1.5133 1.5133 0 0 1 1.5065 1.5065v18.303c0 0.40129-0.15681 0.78066-0.4426 1.0665a1.4989 1.4989 0 0 1-1.0639 0.44176h-55.668zm-497.03-245.08a1.5057 1.5057 0 1 1 2e-3 -3.0114h10.252a1.5065 1.5065 0 0 1 0 3.0114zm0 4.883a1.5065 1.5065 0 0 1 0-3.0131h5.9814c0.83462 0 1.5091 0.67528 1.5091 1.5065a1.5091 1.5091 0 0 1-1.5091 1.5065zm32.107 2.8057a1.5048 1.5048 0 1 1-8.5e-4 -3.0097h0.73346a1.5048 1.5048 0 0 1 0 3.0097h-0.73346zm4.8821 0a1.5048 1.5048 0 0 1 0-3.0097h0.73261a1.5057 1.5057 0 1 1 0 3.0097zm4.8829 0a1.5057 1.5057 0 0 1 0-3.0097h0.73346a1.5048 1.5048 0 0 1 0 3.0097z"/><path d="m130.75 166.02h52.657v-15.295h-52.657zm54.162 1.5048v-1.5057zm-55.667 1.5065a1.5124 1.5124 0 0 1-1.5057-1.5065v-18.304a1.515 1.515 0 0 1 1.5065-1.5091l55.667 8.4e-4c0.39623 0 0.7874 0.16271 1.0656 0.44176 0.28158 0.28242 0.4426 0.67023 0.4426 1.0656v18.304c0 0.40213-0.15849 0.77898-0.4426 1.0622a1.4947 1.4947 0 0 1-1.0656 0.44429h-55.667zm6.5294 5.307a1.5053 1.5053 0 1 1 0-3.0105h10.256a1.5048 1.5048 0 1 1 0 3.0097h-10.256zm2e-3 4.8813a1.5057 1.5057 0 1 1 0-3.0114h5.9806c0.83462 0 1.5091 0.67444 1.5091 1.5065 0 0.8304-0.67444 1.5057-1.5091 1.5057zm32.107 2.809a1.5074 1.5074 0 0 1 0-3.0139h0.73345a1.5074 1.5074 0 0 1 0 3.0131h-0.73345zm4.8829 0a1.5065 1.5065 0 1 1 0-3.0131h0.73346a1.5065 1.5065 0 0 1 0 3.0122h-0.73346zm4.8821 0a1.5082 1.5082 0 0 1-1.5048-1.5065c0-0.83125 0.67528-1.5074 1.5048-1.5074h0.73346a1.5065 1.5065 0 0 1 0 3.0131h-0.73346z"/><path d="m130.76 184.33h52.654v-15.293h-52.654zm54.163 1.5074v-1.5074zm-55.67 1.5057a1.5175 1.5175 0 0 1-1.0656-0.44176 1.5124 1.5124 0 0 1-0.44176-1.0639v-18.303c0-0.39877 0.16018-0.78404 0.44176-1.0656a1.515 1.515 0 0 1 1.0648-0.4426h55.67c0.39202 0 0.78404 0.16187 1.0639 0.4426 0.27989 0.28074 0.44092 0.66601 0.44092 1.0648v18.303a1.5032 1.5032 0 0 1-1.504 1.5048h-55.671zm6.5311 5.307a1.5048 1.5048 0 1 1 8.5e-4 -3.0097h10.253a1.5057 1.5057 0 1 1 0 3.0097zm0 4.8804a1.5065 1.5065 0 0 1-1.5057-1.5032 1.5091 1.5091 0 0 1 1.5065-1.5082h5.9806c0.83462 0 1.5091 0.67613 1.5091 1.5082 0 0.82872-0.67444 1.5032-1.5091 1.5032zm32.107 2.8099a1.5053 1.5053 0 1 1-8.5e-4 -3.0105h0.73093c0.83378 0 1.5074 0.67191 1.5074 1.5032 0 0.83209-0.67359 1.5074-1.5065 1.5074zm4.8838 0a1.5053 1.5053 0 1 1 0-3.0105h0.73261c0.8304 0 1.5048 0.67191 1.5048 1.5032 0 0.83209-0.67528 1.5074-1.5048 1.5074zm4.8829 0a1.5053 1.5053 0 1 1 0-3.0105h0.73093c0.83209 0 1.5074 0.67191 1.5074 1.5032 0 0.83209-0.67613 1.5074-1.5074 1.5074z"/><path d="m130.76 202.63h52.654v-15.293h-52.654zm54.161 1.5057v-1.5057zm-55.667 1.5065a1.5107 1.5107 0 0 1-1.5074-1.5065v-18.303a1.5133 1.5133 0 0 1 1.5065-1.5074h55.667c0.39623 0 0.7874 0.16018 1.0673 0.44345 0.27989 0.27904 0.44091 0.666 0.44091 1.0639v18.302c0 0.40466-0.1568 0.78403-0.44091 1.0656-0.28327 0.28664-0.66433 0.44176-1.0673 0.44176zm6.5303-86.214a1.5065 1.5065 0 0 1 8.5e-4 -3.0114h10.254a1.5057 1.5057 0 1 1 0 3.0114zm-2e-3 4.8813c-0.83125 0-1.504-0.67444-1.504-1.5057 0-0.83377 0.67275-1.5048 1.504-1.5048h5.9856a1.5048 1.5048 0 1 1 0 3.0097h-5.9848zm32.109 2.8074a1.5053 1.5053 0 1 1-8.4e-4 -3.0105h0.73008a1.5057 1.5057 0 1 1 0 3.0097zm4.8821 0a1.5032 1.5032 0 0 1-1.5057-1.5057c0-0.83378 0.67275-1.5048 1.5057-1.5048h0.73177a1.5057 1.5057 0 1 1 0 3.0097zm4.8838 0a1.5053 1.5053 0 1 1 0-3.0105h0.73177a1.5048 1.5048 0 1 1 0 3.0097z"/><path d="m130.75 129.41h52.657v-15.292h-52.657zm54.162 1.5057v-1.5057zm-55.667 1.504c-0.39624 0-0.78404-0.16018-1.0656-0.44176a1.5032 1.5032 0 0 1-0.44176-1.0622v-18.303a1.5082 1.5082 0 0 1 1.5065-1.5057h55.667c0.39792 0 0.78741 0.16018 1.0673 0.44175 0.28074 0.2799 0.44092 0.66601 0.44092 1.0631v18.304c0 0.40045-0.15681 0.77814-0.44092 1.0622a1.4922 1.4922 0 0 1-1.0673 0.4426h-55.667zm6.5311 5.3112c-0.83124 0-1.5091-0.67697-1.5091-1.5082a1.5091 1.5091 0 0 1 1.5091-1.5057h10.253a1.5074 1.5074 0 0 1 0 3.0139zm-2e-3 4.8787a1.5057 1.5057 0 0 1 0-3.0114h5.9831a1.5065 1.5065 0 1 1 8.5e-4 3.0131h-5.9831zm32.109 2.8074a1.5048 1.5048 0 1 1-8.4e-4 -3.0097h0.73008a1.5057 1.5057 0 1 1 0 3.0097h-0.73008zm4.883 0a1.5048 1.5048 0 1 1 0-3.0097h0.73092a1.5057 1.5057 0 1 1 0 3.0097zm4.8829 0a1.5048 1.5048 0 1 1 0-3.0097h0.73093a1.5057 1.5057 0 1 1 0 3.0097z"/><path d="m109.52 443.53c6e-3 3.588 2.9128 6.4952 6.5008 6.5008 3.5895-4e-3 6.4986-2.9121 6.5033-6.5016h3e-3c-7e-3 -3.5893-2.9165-6.4963-6.5058-6.4991-3.5879 3e-3 -6.4961 2.9103-6.5008 6.4982m-3.0131 0c0-5.2514 4.2591-9.5096 9.5138-9.5096 5.2589 0 9.5155 4.2582 9.518 9.5088-3e-3 5.2522-4.2599 9.5096-9.518 9.5096-5.2547 0-9.5138-4.2582-9.5138-9.5104m35.975-20.933c5e-3 1.8876 1.5352 3.4159 3.4228 3.4177 1.8867-3e-3 3.4153-1.5319 3.4186-3.4186-2e-3 -1.8882-1.5304-3.4194-3.4186-3.4245-1.8893 3e-3 -3.42 1.5343-3.4228 3.4236m-3.0131 0c0.0695-3.5035 2.9295-6.3074 6.4337-6.3074 3.5042 0 6.3642 2.8039 6.4337 6.3074h3e-3c-4e-3 3.5515-2.8835 6.4289-6.435 6.4308-3.556-3e-3 -6.4358-2.8798-6.4358-6.4325m3.937 33.105c7e-3 3.6725 2.9842 6.647 6.6567 6.6517 3.6774-7e-3 6.6517-2.981 6.6584-6.6517h-2e-3c-5e-3 -3.6733-2.9825-6.6494-6.6559-6.6517-3.6733 2e-3 -6.6512 2.9783-6.6559 6.6517m-3.0131 0c0-5.3416 4.3291-9.6639 9.6698-9.6639 5.3416 0 9.6689 4.3223 9.6723 9.6639-3e-3 5.3365-4.3308 9.6614-9.6723 9.6614-5.3424 0-9.6689-4.3248-9.6689-9.6614"/><path d="m120.86 439.17a1.5048 1.5048 0 0 1 0.43754-2.084l19.77-12.905a1.5082 1.5082 0 0 1 2.084 0.4367 1.5065 1.5065 0 0 1-0.43838 2.084l-19.767 12.907a1.515 1.515 0 0 1-0.82618 0.24196 1.4964 1.4964 0 0 1-1.2604-0.68118m20.835 16.021-19.338-5.9798a1.4989 1.4989 0 0 1-0.99227-1.88 1.5006 1.5006 0 0 1 1.8825-0.9948l19.338 5.9747a1.5074 1.5074 0 0 1-0.88942 2.8799m553.74-121.93v-2.9431c0-0.6913 0.47211-1.2924 1.1449-1.4593a13.645 13.645 0 0 0 3.7912-1.5723 1.5065 1.5065 0 0 1 1.8471 0.22762l2.0764 2.0756 3.0822-3.0822-2.079-2.0781a1.5065 1.5065 0 0 1-0.2234-1.8446 13.61 13.61 0 0 0 1.5655-3.7853 1.5091 1.5091 0 0 1 1.4627-1.1449h2.9431v-4.3569h-2.9422a1.5116 1.5116 0 0 1-1.4635-1.1415 13.539 13.539 0 0 0-1.5681-3.7878 1.5065 1.5065 0 0 1 0.22593-1.8438l2.0764-2.0798-3.0822-3.0788-2.0756 2.0756a1.504 1.504 0 0 1-1.8471 0.22762 13.455 13.455 0 0 0-3.7878-1.5664c-0.67528-0.16945-1.1474-0.7756-1.1474-1.4635v-2.9422l-4.3569-3e-3v2.9431c0 0.68962-0.4738 1.2949-1.1466 1.4644a13.502 13.502 0 0 0-3.7887 1.5655 1.5091 1.5091 0 0 1-1.848-0.22509l-2.0756-2.0764-3.0814 3.0788 2.0798 2.0798c0.49149 0.48897 0.5817 1.2477 0.22087 1.8463a13.573 13.573 0 0 0-1.5681 3.7844 1.5091 1.5091 0 0 1-1.4602 1.1432h-2.9431v4.3569h2.9422a1.5091 1.5091 0 0 1 1.4627 1.1466 13.484 13.484 0 0 0 1.5672 3.7828c0.35829 0.59604 0.26977 1.3556-0.22172 1.8471l-2.079 2.0806 3.0797 3.0805 2.0756-2.0764a1.5048 1.5048 0 0 1 1.8488-0.22762 13.603 13.603 0 0 0 3.7895 1.5714 1.5065 1.5065 0 0 1 1.1449 1.461v2.9406l4.3569 2e-3zm-4.9217 3.008a2.4465 2.4465 0 0 1-2.4499-2.4474v-2.3673a17.163 17.163 0 0 1-2.4398-1.0091l-1.676 1.676a2.4381 2.4381 0 0 1-1.7282 0.71491 2.4246 2.4246 0 0 1-1.7316-0.72081l-3.8772-3.8738a2.4356 2.4356 0 0 1-0.71828-1.7308c-6e-3 -0.62554 0.24364-1.2646 0.71659-1.7299l1.6743-1.6743a16.642 16.642 0 0 1-1.0117-2.439h-2.3673a2.4533 2.4533 0 0 1-2.4499-2.4474v-5.4866a2.4533 2.4533 0 0 1 2.4491-2.4482h2.3707c0.27231-0.8422 0.61037-1.6591 1.0083-2.4398l-1.6709-1.6718a2.4356 2.4356 0 0 1-0.71828-1.7308c-6e-3 -0.62554 0.24365-1.2646 0.7166-1.7291l3.8696-3.8696a2.4491 2.4491 0 0 1 3.475-0.0126l1.6718 1.6751c0.7815-0.39792 1.601-0.73345 2.4406-1.0074v-2.369a2.4507 2.4507 0 0 1 2.4491-2.4482l5.4891 3e-3a2.4448 2.4448 0 0 1 2.4457 2.4457v2.3698c0.84558 0.2723 1.6608 0.60868 2.4432 1.0074l1.6591-1.6549a2.4153 2.4153 0 0 1 1.7451-0.73682 2.4465 2.4465 0 0 1 1.7316 0.71659l3.8747 3.878c0.48138 0.47211 0.72418 1.1069 0.72418 1.7342a2.4448 2.4448 0 0 1-0.71659 1.7283l-1.6768 1.6751a16.591 16.591 0 0 1 1.0091 2.4364h2.3715v2.4465-2.4474a2.4482 2.4482 0 0 1 2.4465 2.4465v5.4866a2.4507 2.4507 0 0 1-2.4474 2.4482h-2.3715a16.718 16.718 0 0 1-1.0091 2.4372l1.6676 1.6692a2.4364 2.4364 0 0 1 0.72502 1.7367c0 0.62133-0.2428 1.2528-0.71659 1.7283l-3.8839 3.8839a2.4533 2.4533 0 0 1-1.7308 0.7149c-0.62049 3e-3 -1.2646-0.24448-1.7299-0.7208l-1.6735-1.6692c-0.78235 0.39792-1.5976 0.73345-2.4432 1.0091v2.3673a2.4507 2.4507 0 0 1-2.4448 2.4499l-5.4882-3e-3z"/><path d="m686.4 315.48c4e-3 3.7802 3.0746 6.854 6.8624 6.8582 3.7853-4e-3 6.8548-3.0771 6.8624-6.8582-8e-3 -3.7853-3.0771-6.8557-6.8624-6.8582a6.8675 6.8675 0 0 0-6.8624 6.8582m-3.0164 0c0-5.4503 4.4235-9.8721 9.8763-9.8738 5.452 3e-3 9.8755 4.4235 9.8755 9.8738 0 5.4495-4.4243 9.8679-9.8763 9.8704-5.4528-3e-3 -9.8755-4.421-9.8772-9.8704m-608.24-26.116c0.04721 0 0.12056 2e-3 0.20823 5e-3l0.62217 0.0126 0.8675 0.0118h50.088c6.3642-0.011 11.514-5.1586 11.524-11.518-0.0101-6.365-5.1595-11.513-11.524-11.522v-1.7746 1.7755c-0.2057 0-0.41309 6e-3 -0.61964 0.0169a1.5141 1.5141 0 0 1-1.4762-0.9341c-2.503-6.1222-8.5148-10.437-15.537-10.434-7.4534-3e-3 -13.768 4.861-15.956 11.584a1.5099 1.5099 0 0 1-1.8438 0.98299 10.363 10.363 0 0 0-2.8335-0.39539c-4.4277 0-8.2029 2.772-9.6993 6.6711a1.5175 1.5175 0 0 1-1.6566 0.94505 7.3379 7.3379 0 0 0-1.2334-0.10538 7.386 7.386 0 0 0-7.3767 7.3733c-0.0017 3.7474 2.8031 6.8414 6.435 7.3092h0.01349zm1.6819 3.04c-0.0059 0-0.98637-0.0118-1.5394-0.0253-0.22509-8e-3 -0.23015 6e-3 -0.48391-0.0194-5.1418-0.62722-9.1167-4.9993-9.1176-10.304 0-5.737 4.6486-10.386 10.388-10.386 0.18294 0 0.36504 4e-3 0.54798 0.0143a13.396 13.396 0 0 1 14.325-7.3244c2.9347-7.2536 10.044-12.368 18.351-12.369 7.9146 2e-3 14.74 4.6452 17.906 11.353 7.9044 0.14669 14.266 6.5952 14.266 14.533 0 8.0242-6.5092 14.527-14.538 14.529h-50.105zm167.71-129.01a1.5006 1.5006 0 0 1-0.38612-2.0933c0.71997-1.042 1.0656-2.1506 1.0656-3.1429-0.0194-1.2958-0.51848-2.3976-1.7679-3.2786-0.77982-0.53618-1.536-0.75032-2.288-0.75453-1.3885-4e-3 -2.8765 0.80595-3.9623 2.3749a1.5065 1.5065 0 1 1-2.4786-1.7131c1.5301-2.2198 3.8738-3.669 6.4418-3.674 1.364-2e-3 2.7601 0.4249 4.0028 1.2865 2.0343 1.3877 3.0822 3.5737 3.0628 5.758 0 1.6827-0.57074 3.3655-1.5959 4.8509a1.4973 1.4973 0 0 1-1.2401 0.65168 1.4922 1.4922 0 0 1-0.85317-0.2664m-28.524 25.49c-2.9658-2.025-4.4328-5.0988-4.4125-8.2282 3e-3 -2.546 0.90291-5.1232 2.4996-7.429a1.5065 1.5065 0 0 1 2.0958-0.38359 1.5006 1.5006 0 0 1 0.38106 2.0924c-1.3034 1.8842-1.966 3.8974-1.9609 5.7201 0.0169 2.2425 0.91724 4.2127 3.1108 5.7496 1.3641 0.94 2.7146 1.332 4.0365 1.3346 2.5426 8e-3 5.1746-1.5411 7.1002-4.3215a1.5065 1.5065 0 0 1 2.4786 1.7131c-2.3378 3.3848-5.7918 5.6113-9.5787 5.6198-1.9449 3e-3 -3.9337-0.61121-5.7496-1.8674"/><path d="m221.56 185.02c-0.011 0-0.0219-3e-3 -0.0337-3e-3h-5e-3c-7e-3 -3e-3 -0.0135-4e-3 -0.0202-6e-3 -6e-3 0-0.0118 0-0.0169-2e-3h-8e-3a1.488 1.488 0 0 1-0.60278-0.24617l-0.54546-0.37516a1.5706 1.5706 0 0 1-0.15006-0.11718c-5e-3 -5e-3 -8e-3 -0.011-0.0143-0.0143-3e-3 -3e-3 -7e-3 -8e-3 -0.0118-9e-3 -8e-3 -8e-3 -0.0169-0.0152-0.0228-0.0228a1.3286 1.3286 0 0 1-0.22846-0.28916 0.13489 0.13489 0 0 1-0.0202-0.0303l-3e-3 -3e-3 -0.0169-0.0287c0-3e-3 0-3e-3 -2e-3 -4e-3v-2e-3a5.6358 5.6358 0 0 1-0.42153-6.9602 1.5065 1.5065 0 1 1 2.4735 1.719 2.6312 2.6312 0 0 0 0.40888 3.4531c0.27652 0.13911 0.51679 0.18547 0.75031 0.188 0.5952 0.0135 1.4028-0.41309 2.0874-1.4012a1.5065 1.5065 0 0 1 2.4794 1.7097c-1.0555 1.5284-2.6404 2.6893-4.5668 2.7045h-0.0185a4.5778 4.5778 0 0 1-1.4922-0.25881m-7.0757-9.6993a1.5023 1.5023 0 0 1-0.3819-2.0924l11.527-16.681a1.5055 1.5055 0 1 1 2.4786 1.7097l-11.528 16.682a1.504 1.504 0 0 1-2.0967 0.3819"/><path d="m219.81 179a1.5032 1.5032 0 0 1-0.38359-2.0933l15.287-22.121a1.5032 1.5032 0 0 1 2.095-0.38358 1.504 1.504 0 0 1 0.38359 2.0933l-15.288 22.121a1.5065 1.5065 0 0 1-2.0941 0.38358m9.4304 6.5117a1.5074 1.5074 0 0 1-0.38358-2.095l15.289-22.12a1.5091 1.5091 0 0 1 2.0958-0.38359 1.504 1.504 0 0 1 0.3819 2.095l-15.286 22.121a1.4947 1.4947 0 0 1-1.2393 0.64999 1.5006 1.5006 0 0 1-0.85654-0.26641m-3.7069-2.5603a1.5023 1.5023 0 0 1-0.38359-2.0933l11.277-16.321a1.5099 1.5099 0 0 1 2.0958-0.38274 1.5091 1.5091 0 0 1 0.38359 2.0967l-11.278 16.318a1.504 1.504 0 0 1-2.0958 0.38358m372.95-20.88h37.941v-44.336h-37.94zm39.447 1.5057v-1.5057zm-40.953 1.5057c-0.39707 0-0.78403-0.15849-1.0648-0.44007a1.5133 1.5133 0 0 1-0.44176-1.0648v-47.346a1.5091 1.5091 0 0 1 1.5074-1.5074h40.955c0.39624 0 0.78404 0.16018 1.0665 0.44176 0.27989 0.28158 0.44007 0.66854 0.44007 1.0648v47.346c0 0.40214-0.15512 0.78067-0.4426 1.0648a1.4897 1.4897 0 0 1-1.0648 0.44091z"/><path d="m603.9 125.43c-0.83378 0-1.5091-0.6736-1.5091-1.5065 0-0.8304 0.67528-1.504 1.5091-1.504h27.115a1.5048 1.5048 0 0 1 8.5e-4 3.0097h-27.115zm0 19.573c-0.83378 0-1.5091-0.67275-1.5091-1.5048 0-0.83041 0.67528-1.5048 1.5091-1.5048h27.115a1.5065 1.5065 0 0 1 8.5e-4 3.0114h-27.115zm0-13.049a1.5065 1.5065 0 0 1 0-3.0097h15.365a1.5057 1.5057 0 0 1 0 3.0105h-15.365zm0 6.5252a1.5091 1.5091 0 0 1-1.5091-1.504 1.5091 1.5091 0 0 1 1.5091-1.5082h6.9012c0.83124 0 1.509 0.67529 1.509 1.5082a1.5091 1.5091 0 0 1-1.509 1.5048zm13.805 0a1.5057 1.5057 0 1 1-8.4e-4 -3.0114h13.312a1.507 1.507 0 0 1 0 3.0139h-13.31zm6.4072 13.052a1.507 1.507 0 0 1 0-3.0139h6.9029a1.5082 1.5082 0 0 1 0 3.0139zm-20.212-2e-3a1.5091 1.5091 0 0 1-1.5074-1.5057 1.5091 1.5091 0 0 1 1.5074-1.5065h13.313a1.5065 1.5065 0 0 1 0 3.0122zm-222.64-2.6624a5.1949 5.1949 0 0 1-5.1974-5.1932v-25.632c0-0.83461 0.67275-1.5074 1.5074-1.5074 0.83209 0 1.5065 0.67276 1.5065 1.5074v25.632a2.1869 2.1869 0 0 0 2.1835 2.1827h39.634a2.186 2.186 0 0 0 2.181-2.1827v-25.632a2.186 2.186 0 0 0-2.1818-2.1852h-21.87a1.5053 1.5053 0 1 1 0-3.0105h21.87a5.1949 5.1949 0 0 1 5.1949 5.1949l-3e-3 25.632a5.1923 5.1923 0 0 1-5.1915 5.1932h-39.634z"/><path d="m376.06 119.8v-11.132a3.6782 3.6782 0 0 1 3.6774-3.6757h23.324a3.6757 3.6757 0 0 1 3.6757 3.6774l2e-3 5.6914a1.5074 1.5074 0 0 1-3.0139 0v-5.6923a0.66685 0.66685 0 0 0-0.66348-0.66433h-23.323a0.66348 0.66348 0 0 0-0.66433 0.66433v11.132a1.5065 1.5065 0 1 1-3.0131 0m22.784 37.828a2.229 2.229 0 0 0 2.2265 2.2223 2.2307 2.2307 0 0 0 2.2282-2.2223 2.2324 2.2324 0 0 0-2.2257-2.2256 2.2307 2.2307 0 0 0-2.229 2.2256m-3.0114 0a5.237 5.237 0 0 1 5.2387-5.2362 5.237 5.237 0 0 1 5.2387 5.2353 5.2387 5.2387 0 0 1-5.2387 5.2345 5.2353 5.2353 0 0 1-5.2387-5.2336"/><path d="m399.57 153.9v-6.5286a1.5061 1.5061 0 1 1 3.0122-8.5e-4v6.5286a1.5065 1.5065 0 0 1-3.0131 0m-26.23 5.2353a1.5065 1.5065 0 1 1 8.4e-4 -3.0105h24.005a1.5065 1.5065 0 1 1 8.4e-4 3.0122h-24.007zm31.471 0a1.5057 1.5057 0 1 1 0-3.0114h24.005a1.5065 1.5065 0 0 1 0 3.0114zm135.72 301.94a5.1932 5.1932 0 0 1-5.194-5.1957v-25.633c0-0.83462 0.67191-1.5048 1.5057-1.5048 0.83125 0 1.5065 0.67191 1.5065 1.5048l-3e-3 25.632a2.1877 2.1877 0 0 0 2.1843 2.1835l39.634 2e-3a2.1902 2.1902 0 0 0 2.1826-2.1852v-25.633a2.1886 2.1886 0 0 0-2.1835-2.1852h-21.87v3e-3a1.5057 1.5057 0 0 1-1.5048-1.5065c0-0.83209 0.67275-1.5074 1.5048-1.5074l21.871 2e-3a5.1966 5.1966 0 0 1 5.1966 5.1949l-3e-3 25.632a5.1932 5.1932 0 0 1-5.194 5.1949h-39.632z"/><path d="m535.33 431.99v-11.127a3.6757 3.6757 0 0 1 3.6765-3.6774h23.323a3.6749 3.6749 0 0 1 3.674 3.6774l3e-3 5.6914a1.5091 1.5091 0 0 1-1.5074 1.5074 1.5091 1.5091 0 0 1-1.5057-1.5074v-5.6923a0.66601 0.66601 0 0 0-0.66348-0.66686h-23.321a0.66938 0.66938 0 0 0-0.66686 0.66686v11.127a1.5065 1.5065 0 0 1-3.0114 0m9.9868 6.9257a1.5074 1.5074 0 0 1 0-3.0139h21.059a1.5091 1.5091 0 0 1 0 3.0148h-21.059zm0 8.5064a1.5023 1.5023 0 0 1-1.5057-1.5048c0-0.83378 0.67275-1.5048 1.5057-1.5048h12.991a1.5048 1.5048 0 1 1 0 3.0097h-12.99zm-342.44-35.737v24.706a2.2678 2.2678 0 0 0 2.2636 2.2636h36.445a2.2653 2.2653 0 0 0 2.2644-2.2636v-24.706a2.2627 2.2627 0 0 0-2.2628-2.2619h-36.445a2.2611 2.2611 0 0 0-2.2653 2.2619zm2.2636 29.982a5.2766 5.2766 0 0 1-5.2775-5.275v-24.706a5.2758 5.2758 0 0 1 5.2775-5.2741h36.445a5.2724 5.2724 0 0 1 5.275 5.2741v24.706a5.275 5.275 0 0 1-5.2724 5.2758h-36.445z"/><path d="m205.14 441.67a5.2758 5.2758 0 0 1-5.2775-5.2775v-2.3909c0-0.46874 0.21666-0.90712 0.58507-1.1904l12.849-9.9286 2e-3 3e-3c0.65758-0.5092 1.6018-0.3878 2.1093 0.26978a1.5006 1.5006 0 0 1-0.26977 2.1093l-12.261 9.4759v1.6524a2.2678 2.2678 0 0 0 2.2636 2.2653h36.445a2.2653 2.2653 0 0 0 2.2644-2.2644v-1.6524l-12.261-9.475a1.5074 1.5074 0 0 1-0.27483-2.1118 1.5099 1.5099 0 0 1 2.116-0.27147l12.846 9.9286c0.37178 0.28327 0.58339 0.72334 0.58339 1.1904v2.3917a5.2758 5.2758 0 0 1-5.2733 5.2775h-36.445z"/><path d="m219.78 430.27-19.328-14.934a1.5023 1.5023 0 0 1-0.58507-1.1904v-2.4583a5.2741 5.2741 0 0 1 5.2775-5.275h36.445v3.0097h-36.445a2.2686 2.2686 0 0 0-2.2644 2.2653v1.7173l18.744 14.484c0.41731 0.32963 1.0707 0.53955 1.7434 0.53702 0.67106 3e-3 1.3219-0.20739 1.7451-0.53702l18.74-14.487v-1.7139a2.2678 2.2678 0 0 0-2.2628-2.2644v-3.0097a5.2724 5.2724 0 0 1 5.2724 5.2741v2.4583a1.5006 1.5006 0 0 1-0.58339 1.1904l-19.328 14.933c-1.0521 0.80596-2.3277 1.1643-3.5846 1.1676-1.2578-3e-3 -2.535-0.3583-3.5872-1.1676"/></g><g fill="#0c8fd7" fill-rule="evenodd" stroke-width=".84305"><path d="m357.61 491.94c-1.0437-0.67697-2.0318-1.3177-2.6539-1.0546-0.51173 0.21666-1.0218 0.60194-1.5605 1.0083-0.63229 0.48138-1.2865 0.97625-2.0655 1.3008-1.3742 0.56906-3.0476 0.20571-4.7143-1.0268l-0.0489-0.0337c-0.99395-0.73513-2.0149-1.4905-2.7509-1.3834-0.59772 0.0885-1.2696 0.59182-1.9812 1.1229-0.38527 0.28833-0.78572 0.58592-1.2174 0.8557a4.5053 4.5053 0 0 1-4.8062-0.0118 17.557 17.557 0 0 1-1.1938-0.84305c-0.71743-0.53281-1.3952-1.0395-1.998-1.1272-0.77477-0.10876-1.8041 0.55304-2.7947 1.1954-1.4138 0.92061-3.0181 1.9592-4.7278 1.2427-0.77308-0.32542-1.4197-0.81776-2.0461-1.2916-0.54377-0.41141-1.0572-0.80175-1.574-1.015-0.86666-0.35998-2.063 0.41141-2.5342 0.75875l-0.0472 0.0346c-1.2966 0.95939-2.772 2.0334-4.4058 1.7974-1.155-0.17536-2.0874-0.87087-2.9886-1.5453-0.36336-0.27147-0.70732-0.52944-1.0589-0.74779l1.1803-1.8943c0.4308 0.26977 0.82872 0.56653 1.2148 0.85654 0.71153 0.53027 1.3843 1.0336 1.9845 1.1238 0.74188 0.11634 1.7578-0.65252 2.75-1.3843l0.0464-0.0362c1.6676-1.2308 3.3402-1.5934 4.7143-1.0252 0.78151 0.32542 1.434 0.81945 2.068 1.3008 0.53955 0.40719 1.0488 0.79247 1.5622 1.0117 0.61712 0.25544 1.606-0.38022 2.6497-1.0572 1.2755-0.82534 2.7121-1.7569 4.3232-1.5344 1.1668 0.16861 2.1076 0.87087 3.0181 1.5495 0.35661 0.26725 0.6972 0.52269 1.0454 0.7402 0.76465 0.48054 1.6751 0.48306 2.4398 8e-3 0.35239-0.22088 0.69804-0.47548 1.0622-0.75032 0.89869-0.67275 1.8303-1.3683 2.9844-1.5428 1.096-0.16692 2.1211 0.26641 3.0687 0.85991 0.46452 0.29001 0.91049 0.61964 1.3371 0.9341l0.048 0.0371c0.47295 0.34818 1.6642 1.1204 2.535 0.75958 0.51848-0.21329 1.0302-0.60362 1.574-1.015 0.62555-0.47548 1.2738-0.96445 2.0452-1.2907 1.7148-0.7208 3.3191 0.32542 4.732 1.241 0.98974 0.64325 2.0174 1.3034 2.7947 1.1954 0.60194-0.086 1.2772-0.59182 1.9955-1.128 0.37769-0.28243 0.76971-0.57328 1.1921-0.84052a4.5078 4.5078 0 0 1 4.8079-0.0118l-1.1803 1.8943c-0.76043-0.47548-1.6734-0.47211-2.4398 8e-3 -0.34565 0.21666-0.6854 0.47042-1.0454 0.73767-0.90965 0.68034-1.8513 1.3826-3.0139 1.5512-0.16861 0.0228-0.33385 0.0337-0.4974 0.0337-1.413 0-2.6885-0.82872-3.8274-1.5681zm-11.762-25.354c-3.5644 0-6.4637 2.8984-6.4637 6.4628 0 3.5653 2.9001 6.4645 6.4645 6.4645 3.5636 0 6.462-2.9001 6.462-6.4645 0-3.5644-2.8984-6.4628-6.462-6.4628m0 15.192c-4.8113 0-8.7239-3.9176-8.7239-8.7289 0-4.8104 3.9118-8.7247 8.723-8.7247 4.8113 0 8.723 3.9143 8.723 8.7256 0 4.8104-3.9126 8.7281-8.723 8.7281m234.3 3.1513c-3.5644 0-6.4637 2.8992-6.4637 6.4637 0 3.5644 2.9001 6.4645 6.4645 6.4645 3.5636 0 6.462-2.9001 6.462-6.4645 0-3.5644-2.8984-6.4637-6.462-6.4637m0 15.192c-4.8113 0-8.7239-3.9168-8.7239-8.7281 0-4.8113 3.9118-8.7256 8.723-8.7256s8.723 3.9143 8.723 8.7256c0 4.8113-3.9126 8.7281-8.723 8.7281m-301.84-81.896c-3.5653 0-6.4637 2.8992-6.4637 6.4637 0 3.5644 2.9001 6.4645 6.4637 6.4645 3.5644 0 6.462-2.9001 6.462-6.4645 0-3.5644-2.8976-6.4637-6.462-6.4637m0 15.192c-4.8104 0-8.7239-3.9176-8.7239-8.7281 0-4.8113 3.9118-8.7256 8.7239-8.7256 4.8104 0 8.723 3.9143 8.723 8.7256 0 4.8104-3.9134 8.7281-8.723 8.7281"/><path d="m344.63 477.49h2.2594v-8.1633h-2.2594m234.3 26.507h2.2594v-8.1632h-2.2594m-301.84-58.541h2.2594v-8.1624h-2.2594"/><path d="m341.3 474.09h8.1607v-2.2611h-8.1607m234.3 20.604h8.1607v-2.2611h-8.1607m-301.84-64.443h8.1607v-2.2611h-8.1607"/><path d="m257.92 522.45h20.632v-2.2611h-20.632m-56.699-59.44h20.632v-2.2611h-20.632m93.385 63.962h9.8915v-2.2611h-9.8915m-56.698-59.44h9.8915v-2.2611h-9.8915m47.527 63.962h5.0861v-2.2611h-5.0861m-56.698-59.44h5.0861v-2.2611h-5.0861m60.034 58.126h11.02v-2.2611h-11.02"/></g><path d="m276.88 490.58a1.5082 1.5082 0 0 1 0-3.0148h21.199c0.83209 0 1.5065 0.67191 1.5065 1.5082 0 0.82787-0.67444 1.5074-1.5057 1.5074h-21.198z" fill="#212121" fill-rule="evenodd" stroke-width=".84305"/><path d="m586.65 518.55h9.8915v-2.2594h-9.8924m-18.934 2.2594h6.4999v-2.2594h-6.4999" fill-rule="evenodd" stroke-width=".84305"/><g fill="#0c8fd7" fill-rule="evenodd" stroke-width=".84305"><path d="m569.97 512.05h8.4794v-2.2611h-8.4794m-17.239 2.2611h13.281v-2.2611h-13.282"/><path d="m647.99 508.71-8.0722-8.0722a1.5074 1.5074 0 0 1 2.1329-2.1304l8.0722 8.0714c0.58592 0.58929 0.58592 1.5428 0 2.1304a1.5124 1.5124 0 0 1-2.1346 0"/><path d="m639.92 516.77a1.5048 1.5048 0 0 1 0-2.1295l8.0714-8.0655a1.5074 1.5074 0 0 1 2.1312 2.1304l-8.0714 8.0646a1.5006 1.5006 0 0 1-2.1312-2e-3m17.991-8.0621-8.0722-8.0714a1.5091 1.5091 0 0 1 0-2.1304 1.5099 1.5099 0 0 1 2.1329 0l8.0714 8.0714a1.5064 1.5064 0 1 1-2.1304 2.1304"/><path d="m649.84 516.77a1.5074 1.5074 0 0 1 0-2.1295l8.0739-8.0655a1.5074 1.5074 0 0 1 2.1312 2.1304l-8.0714 8.0646a1.5048 1.5048 0 0 1-2.1329-2e-3"/></g><g fill="#212121" fill-rule="evenodd" stroke-width=".84305"><path d="m210.49 492.64a1.5065 1.5065 0 0 1-8.5e-4 -3.0122h36.554c0.82956 0 1.5032 0.67444 1.5032 1.5048a1.5091 1.5091 0 0 1-1.5048 1.5091h-36.554zm-10.544 12.549a1.5065 1.5065 0 1 1 2e-3 -3.0131h57.64c0.82957 0 1.504 0.67191 1.504 1.5048 0 0.83209-0.67444 1.5082-1.5048 1.5082h-57.639z"/><path d="m200.98 514.87-2.5098-10.854a1.5074 1.5074 0 0 1 2.9363-0.6795l2.5098 10.856a1.5074 1.5074 0 0 1-2.9372 0.67782m53.749 1.128a1.5065 1.5065 0 0 1-1.1297-1.805l2.5123-10.856a1.5065 1.5065 0 0 1 2.9347 0.67866l-2.5098 10.853a1.5082 1.5082 0 0 1-1.8075 1.128"/><path d="m202.45 516.04a1.5057 1.5057 0 0 1 0-3.0097h52.618a1.5048 1.5048 0 1 1 0 3.0097zm6.0228-5.522a1.5032 1.5032 0 0 1-1.5048-1.5057c0-0.83125 0.67191-1.5048 1.5048-1.5048h13.056c0.83378 0 1.5057 0.67444 1.5057 1.5048 0 0.83462-0.67191 1.5057-1.5048 1.5057h-13.056zm42.013-13.491v-29.112a1.5082 1.5082 0 0 1 3.0139 8.4e-4v29.112c0 0.83125-0.67781 1.5091-1.5091 1.5091a1.5091 1.5091 0 0 1-1.5048-1.5091m231.09 29.808h27.457v-36.329h-27.458zm28.964 1.5074v-1.5074zm-30.468 1.5048c-0.39707 0-0.78572-0.1585-1.0665-0.43923a1.5158 1.5158 0 0 1-0.44175-1.0648v-39.342c0-0.39708 0.16186-0.78826 0.44175-1.0673 0.28074-0.27821 0.66939-0.44008 1.0673-0.44008h30.467c0.39792 0 0.78656 0.16103 1.0673 0.44008 0.27905 0.28157 0.44176 0.67022 0.44176 1.0673v39.341a1.5048 1.5048 0 0 1-1.5091 1.5057h-30.468z"/><path d="m130.75 147.72h52.657v-15.292h-52.657zm54.163 1.5074v-1.5074zm-55.667 1.5074c-0.39792 0-0.78404-0.1627-1.0673-0.4426-0.28042-0.28356-0.43817-0.66597-0.43923-1.0648v-18.304c0-0.39708 0.16186-0.78404 0.44176-1.0656 0.28337-0.28132 0.66631-0.43947 1.0656-0.44008h55.667c0.39792 0 0.78656 0.16018 1.0656 0.44008 0.28243 0.28242 0.44261 0.66769 0.44261 1.0656v18.304c0 0.40045-0.15681 0.77898-0.44261 1.0648-0.28176 0.28353-0.66505 0.44285-1.0648 0.4426h-55.667zm302.94 372.97h5.087v-2.2619h-5.0861z"/></g><g fill-rule="evenodd" stroke-width=".84305"><path d="m290.43 509.12h11.304v-2.2611h-11.304m-12.507 2.2619h6.7849v-2.2619h-6.7849"/><path d="m408.45 523.7h18.654v-2.2619h-18.655"/><path d="m444.69 524.11h13.85v-2.2611h-13.85" fill="#0c8fd7"/></g><path d="m382.67 511.31-0.94421-1.4947a15.032 15.032 0 0 0-2.1051-2.6438 14.993 14.993 0 0 0-2.6379-2.1059l-1.4981-0.94337 1.4973-0.94506a15.072 15.072 0 0 0 4.7455-4.7464l0.94422-1.4989 0.94337 1.4981a15.133 15.133 0 0 0 2.1042 2.6413c0.79247 0.79247 1.6802 1.5006 2.6404 2.1059l1.4964 0.94422-1.4964 0.94253a15.337 15.337 0 0 0-2.6404 2.1076c-0.79246 0.79163-1.4989 1.6802-2.1042 2.643l-0.94421 1.4956zm38.732-16.976a3.3966 3.3966 0 0 0-3.3941 3.3941 3.3958 3.3958 0 0 0 3.3941 3.3891 3.3958 3.3958 0 0 0 3.3916-3.3899 3.3966 3.3966 0 0 0-3.3933-3.3941" fill="none" stroke="#1393d9" stroke-width="2.5013"/><g fill-rule="evenodd" stroke-width=".84305"><path d="m413.84 515.79h13.85v-2.2619h-13.85" fill="#0c8fd7"/><path d="m537.24 480.66h2.1666v-2.1675h-2.1666m-67.538 2.1675h2.1683v-2.1675h-2.1683m-27.515-27.016h2.1683v-2.1675h-2.1683"/><path d="m368.81 473.16h2.1675v-2.1683h-2.1675m88.383-27.848h2.1675v-2.1683h-2.1675" fill="#0c8fd7"/></g><g fill="#212121" fill-rule="evenodd" stroke-width=".84305"><path d="m157.6 309.06v-33.963a1.5074 1.5074 0 1 1 3.0131 0v33.963a1.5091 1.5091 0 0 1-1.5048 1.5074 1.5091 1.5091 0 0 1-1.5091-1.5074m372.95-150.08a3.9303 3.9303 0 0 0 3.9311 3.9244 3.9303 3.9303 0 0 0 3.9269-3.9244 3.9328 3.9328 0 0 0-3.9269-3.9278 3.932 3.932 0 0 0-3.9303 3.9278m-3.0131 0c0-3.8325 3.1083-6.9375 6.9442-6.9375a6.9383 6.9383 0 0 1 6.9417 6.9375 6.9417 6.9417 0 0 1-6.9417 6.9375c-3.835 0-6.9425-3.1075-6.9425-6.9383m94.308 46.519a3.9311 3.9311 0 0 0 3.9269 3.9269 3.9295 3.9295 0 0 0 3.9278-3.9269 3.9278 3.9278 0 0 0-7.8547 0m-3.0139 0c0-3.8317 3.1075-6.9375 6.9408-6.9375a6.9383 6.9383 0 1 1 0 13.877 6.9391 6.9391 0 0 1-6.9408-6.9391"/><path d="m33.966 225.79c-0.83462 0-1.5091-0.67613-1.5091-1.504 9.3e-4 -0.83277 0.67628-1.5074 1.5091-1.5074h11.669c2.0758-0.0694 2.0758 3.0807 0 3.0114zm-2e-3 5.554c-2.0747 0.07-2.0756-3.0785-8.4e-4 -3.0097h6.8068c0.83209 0 1.5091 0.67444 1.5091 1.5048-2e-3 0.83178-0.67727 1.5048-1.5091 1.5048h-6.8068zm9.4481 20.557c-2.0048-2e-3 -2.0048-3.0113 0-3.0097h0.83377c2.0081-2e-3 2.0081 3.008 0 3.0097zm5.5574 0c-2.0081 2e-3 -2.0081-3.008 0-3.0097h0.83462c2.0082-1e-3 2.0073 3.0086-8.4e-4 3.0097h-0.83462zm5.5574 0c-2.0115 3e-3 -2.0115-3.0159 0-3.0131h0.83461c2.0126-4e-3 2.0126 3.0167 0 3.0122zm-49.112-25.555c-0.83209 0-1.5091-0.67697-1.5091-1.5065 1e-3 -0.83244 0.67662-1.5065 1.5091-1.5065h22.297c0.83209 0 1.5091 0.67528 1.5091 1.5065 0 0.82956-0.67697 1.5065-1.5091 1.5065zm13.337 5.9722c-0.83343 4.6e-4 -1.5094-0.67479-1.5099-1.5082 0-0.83125 0.67697-1.5048 1.5091-1.5048h8.9616c2.0097-1e-3 2.0097 3.012 0 3.0131zm-5.8373 5.9696c-2.0065 0-2.0065-3.0097 0-3.0097h14.798c2.0076 0 2.0076 3.0114 0 3.0114h-14.798zm48.697 11.945c-2.076 0.0696-2.076-3.0809 0-3.0114h22.301c1.9414 0.0645 1.9423 2.9458 8.5e-4 3.0114h-22.301zm2e-3 -5.9722c-0.83244 0-1.5077-0.67409-1.5091-1.5065 2e-3 -0.83178 0.67727-1.5048 1.5091-1.5048h8.9582c0.83462 0 1.5091 0.67528 1.5091 1.5048-9.3e-4 0.83277-0.67628 1.5074-1.5091 1.5074h-8.9582zm0-5.9713c-0.83178-9.3e-4 -1.506-0.67475-1.5074-1.5065 0-0.82872 0.67528-1.5048 1.5074-1.5048h14.797c2.0087 0 2.0087 3.0131 0 3.0131h-14.797zm-24.709 40.158v-22.496c-0.0491-2.0561 3.0602-2.057 3.0122-8.4e-4v22.496c0 0.83125-0.67613 1.5065-1.5065 1.5065-0.83151-9.3e-4 -1.5052-0.67502-1.5057-1.5065m6.2521-11.109v-11.389c-1e-3 -2.0097 3.012-2.0097 3.0131 0v11.388c-9.3e-4 0.83178-0.67475 1.506-1.5065 1.5074-0.83212-9.3e-4 -1.5064-0.67525-1.5074-1.5074m6.2529 4.8619v-16.247c-0.0494-2.0564 3.0605-2.0573 3.0122-8.4e-4v16.248c-3e-3 2.0042-3.0079 2.0042-3.0114 0m-8.4e-4 -53.47v-22.498c0.0466-1.961 2.9656-1.961 3.0122 0v22.498c0 0.83125-0.67444 1.5074-1.5057 1.5074-0.83165-1e-3 -1.5052-0.67573-1.5057-1.5074m-6.2529 0v-11.389c2e-3 -2.0076 3.0148-2.0067 3.0131 8.4e-4v11.388c-4.6e-4 0.83212-0.67442 1.5068-1.5065 1.5082-0.83245-9.3e-4 -1.5069-0.67577-1.5074-1.5082m-6.2512 0v-16.249c9e-5 -2.0086 3.0123-2.0078 3.0122 8.4e-4v16.25c0 0.83125-0.67613 1.5074-1.5065 1.5074-0.83184-9.3e-4 -1.5057-0.67553-1.5057-1.5074"/><path d="m30.917 253.16h28.888v-32.211h-28.888zm30.396 1.5065v-1.5065zm-31.902 1.5057c-0.3954 0-0.784-0.16018-1.0647-0.44176-0.2812-0.28281-0.4393-0.66515-0.4401-1.0639v-35.222c0-0.39792 0.1602-0.78403 0.4392-1.0639 0.2828-0.28196 0.6655-0.44075 1.0648-0.44175h31.902c0.8298 3e-3 1.5016 0.67508 1.5048 1.5048v35.221c0 0.40214-0.1568 0.77982-0.4417 1.0648-0.2817 0.28309-0.6646 0.4421-1.064 0.44176h-31.902z"/></g><g transform="translate(-1203.8 -49.599)" fill="#212121" fill-rule="evenodd" stroke-width=".84305"><path d="m1712.8 184.39h52.223v-38.48h-52.221v38.48zm53.73 1.5057v-1.5057zm-55.235 1.5048c-0.8308-9.6e-4 -1.5045-0.67323-1.5073-1.504v-41.492c0-0.83071 0.6766-1.503 1.5073-1.5048h55.234c0.3954 0 0.7841 0.15849 1.0648 0.43923 0.2799 0.27905 0.4418 0.66853 0.4418 1.0648v41.492c0 0.40045-0.1585 0.78151-0.4443 1.0648-0.2808 0.28319-0.6635 0.44175-1.0623 0.44008h-55.234z"/><path d="m1736 196.43h5.8575v-9.035h-5.8584v9.035zm7.364 1.5057v-1.5057zm-8.8714 1.5057c-0.8307-3e-3 -1.5034-0.67578-1.5057-1.5065v-12.044c0-0.83113 0.6746-1.5047 1.5057-1.5065h8.8714c0.3962 0 0.784 0.16018 1.0673 0.44176 0.2782 0.27905 0.4392 0.66685 0.4392 1.0656v12.045c0 0.39708-0.161 0.78404-0.4417 1.0639-0.2831 0.28209-0.666 0.44113-1.0656 0.4426h-8.8714z"/><path d="m1716.8 199.45c-2.0561 0.0486-2.0561-3.0608 0-3.0122h44.271c1.9414 0.0651 1.9414 2.9463 0 3.0114h-44.27zm21.634-47.683c-0.8338 0-1.5091-0.67528-1.5091-1.5048 0-0.83462 0.6753-1.5074 1.5091-1.5074h1.0032c1.961 0.0466 1.961 2.9656 0 3.0122zm-18.579 29.614c-1.9613-0.0463-1.9613-2.9659 0-3.0122h15.063c0.8313 0 1.5066 0.67528 1.5066 1.5074 0 0.82872-0.6753 1.504-1.5066 1.504h-15.063zm20.586 0c-2.0081 0-2.0081-3.0122 0-3.0122h2.5114c0.8315 1e-3 1.5052 0.67505 1.5066 1.5065 0 0.83114-0.6763 1.5039-1.5074 1.5048h-2.5123zm8.535 0c-2.0076-2e-3 -2.0067-3.0148 9e-4 -3.0131h9.0392c2.0126-4e-3 2.0126 3.0167 0 3.0122h-9.0375z"/></g><g transform="translate(174.67 -407.45)" fill="#212121" fill-rule="evenodd" stroke-width=".84305"><path d="m-122.62 880.58c-2.0041-3e-3 -2.005-3.0074-8.4e-4 -3.0114h34.241c2.0561-0.0486 2.0561 3.0608 0 3.0122h-34.241zm0 6.8203c-2.0097 1e-3 -2.0097-3.012 0-3.0131h23.809c0.83209 0 1.5091 0.67444 1.5091 1.5048 0 0.83125-0.67697 1.5091-1.5091 1.5091h-23.809zm2e-3 6.8177c-2.0077-1e-3 -2.0077-3.0141 0-3.0131h27.821c1.9416 0.0654 1.9408 2.9471-8.5e-4 3.0114h-27.821z"/><path d="m-81.417 900.46v-1.5057zm-46.646-1.5057h24.174c0.3642 0 0.71406 0.12983 0.99058 0.37178l11.393 9.9623-2.0756-8.4693c-0.11178-0.44853-0.01037-0.92355 0.27484-1.2873 0.28748-0.3642 0.72502-0.57749 1.1862-0.57749h9.1977v-25.334h-45.143v25.334zm38.162 15.744-14.554-12.734h-25.114c-0.83099-9.3e-4 -1.5047-0.67385-1.5065-1.5048v-28.343c2e-3 -0.83074 0.67494-1.5038 1.5057-1.5065h48.152c0.83075 2e-3 1.5038 0.67495 1.5065 1.5057v28.344c-9.33e-4 0.83137-0.67516 1.5048-1.5065 1.5048h-8.7837l2.7551 11.24c0.23388 0.9482-0.48439 1.8642-1.461 1.8631-0.35661-8.4e-4 -0.71238-0.12646-0.99396-0.36926z"/></g><g><path d="m746.67 392.15c-2.766 0.12-5.2 0.617-7.914 1.606-6.802 2.477-12.232 7.453-15.293 14.014-3.058 6.565-3.38 13.923-0.903 20.726 3.885 10.67 14.12 17.84 25.467 17.84 2.708 0 5.387-0.403 7.982-1.208l-9.34-25.662v-27.316zm1.357 56.9c-12.484 0-23.745-7.887-28.016-19.626-2.722-7.485-2.368-15.58 0.997-22.8 3.365-7.217 9.34-12.694 16.82-15.417 3.42-1.242 6.563-1.798 10.2-1.798h1.353v29.58l10.116 27.793-1.275 0.462c-3.293 1.2-6.723 1.805-10.196 1.805z"/><path d="m753.47 419.5 8.99 24.71c4.1-1.694 7.296-4.063 10.228-7.558 9.314-11.103 8.188-27.544-2.322-37.29zm7.38 28.212-10.463-28.757 19.665-23.437 1.04 0.87c12.59 10.57 14.238 29.41 3.67 42.005-3.5 4.178-7.516 6.99-12.64 8.854l-1.273 0.466z"/><path d="m757.18 375.68v23.346l15.007-17.884c-4.46-3.423-9.392-5.218-15.006-5.463zm-2.712 30.8v-33.542h1.358c7.3 0 13.567 2.28 19.16 6.976l1.04 0.87-21.558 25.695zm-9.809-59.406h14.903v-2.712h-14.903m29.047 2.712h8.843v-2.712h-8.842m-8.588 2.712h4.548v-2.712h-4.547m2.02-3.098h9.853v-2.71h-9.853m-22.481 2.71h16.72v-2.71h-16.72"/></g><path d="m715.83 522.77c-7.705 0-13.95-6.246-13.95-13.952 0-7.702 6.242-13.948 13.946-13.948v-6.424c-3.962 0-7.438 0.997-10.796 3.098-9.538 5.962-12.44 18.527-6.48 28.07 5.96 9.54 18.528 12.444 28.066 6.482l-3.4-5.445c-2.142 1.344-4.673 2.12-7.387 2.12" fill="#fff"/><path d="m714.47 489.85c-3.155 0.202-5.957 1.12-8.72 2.85-4.306 2.69-7.306 6.895-8.45 11.846-1.14 4.95-0.29 10.045 2.404 14.353 3.495 5.6 9.53 8.94 16.142 8.94 3.1 0 6.144-0.762 8.88-2.213l-1.97-3.152c-2.138 1.086-4.506 1.657-6.925 1.657-8.44 0-15.304-6.868-15.304-15.306 0-7.98 6.14-14.555 13.942-15.248v-3.726zm1.376 40.705c-7.553 0-14.445-3.82-18.445-10.218-3.072-4.922-4.047-10.746-2.744-16.4 1.306-5.655 4.736-10.465 9.657-13.538 3.552-2.224 7.318-3.303 11.513-3.303h1.353v9.136h-1.353c-6.943 4e-3 -12.59 5.65-12.59 12.595 0 6.944 5.65 12.595 12.593 12.595 2.365 0 4.668-0.66 6.668-1.914l1.153-0.717 4.838 7.745-1.15 0.72c-3.46 2.158-7.434 3.303-11.492 3.303z"/><path d="m719.32 489.23c5.423 0 10.116 3.094 12.427 7.615l5.718-2.914c-3.603-7.065-10.22-11.124-18.148-11.124v6.424" fill="#fff"/><path d="m720.67 487.94c4.787 0.418 9.06 3.04 11.614 7.117l3.314-1.694c-3.246-5.474-8.578-8.742-14.928-9.15zm10.484 10.735-0.618-1.206c-2.166-4.24-6.466-6.875-11.217-6.875h-1.358v-9.136h1.354c8.463 0 15.517 4.327 19.358 11.866l0.614 1.206-8.13 4.146z"/><path d="m733.98 499.57-5.718 2.914c0.97 1.903 1.523 4.055 1.523 6.337 0 4.99-2.62 9.367-6.56 11.83l3.402 5.445c8.975-5.61 12.16-17.09 7.354-26.525" fill="#fff"/><path d="m725.06 521.04 1.97 3.156c7.19-5.218 9.792-14.6 6.315-22.774l-3.31 1.69c0.733 1.813 1.104 3.73 1.104 5.716 0 4.853-2.25 9.327-6.08 12.212zm1.133 6.933-4.836-7.745 1.148-0.72c3.707-2.32 5.924-6.314 5.924-10.68 0-2.01-0.462-3.932-1.375-5.72l-0.617-1.21 8.138-4.144 0.615 1.21c5.15 10.113 1.78 22.275-7.846 28.29l-1.15 0.72z"/><path d="m727.54 365.75v5.27" fill="#fff"/><path d="m726.19 371.02h2.71v-5.272h-2.71"/><path d="m730.18 368.38h-5.27" fill="#fff"/><path d="m724.91 369.74h5.27v-2.712h-5.27"/><g transform="translate(-103.88 -562.72)"><path d="m799.07 803.94a51.947 51.947 0 0 1-0.287-5.34c0-14.1 7.928-22.984 22.37-25.155v-3.8h3.348v6.756l-1.482 0.172c-9.531 1.101-20.89 5.814-20.89 22.027 0 1.576 0.088 3.257 0.268 4.998l-3.328 0.342zm57.985-1e-3 -3.328-0.342a49.4 49.4 0 0 0 0.27-4.998c0-16.215-11.359-20.927-20.89-22.026l-1.483-0.17v-6.757h3.348v3.796c14.442 2.17 22.371 11.055 22.371 25.154 0 1.68-0.095 3.479-0.288 5.339"/><path d="m828.07 737.49c-6.86 0-11.655 5.84-11.655 14.2 0 9.26 5.664 18.012 11.655 18.012s11.655-8.753 11.655-18.01c0-8.363-4.792-14.2-11.653-14.2m0 35.56c-8.842 0-15.002-11.26-15.002-21.36 0-10.17 6.31-17.551 15.002-17.551 8.69 0 15.001 7.381 15.001 17.55 0 10.101-6.16 21.362-15.001 21.362"/><path d="m815.93 755.53-2.112-2.597c3.297-2.686 5.149-6.818 6.66-10.88l0.874-2.35 1.836 1.705c5.364 4.988 11.376 7.757 18.38 8.464l-0.338 3.332c-6.967-0.703-13.035-3.24-18.49-7.737-1.545 3.756-3.54 7.403-6.81 10.065m10.467 57.51h3.349v-22.93h-3.349"/><path d="m828.07 724.77c-23.86 0-43.273 19.424-43.273 43.297 0 23.878 19.413 43.3 43.272 43.3 23.862 0 43.273-19.422 43.273-43.298 0-23.872-19.41-43.297-43.273-43.297m0 89.946c-25.707 0-46.62-20.926-46.62-46.648 0-25.721 20.913-46.647 46.62-46.647s46.618 20.926 46.618 46.648c0 25.724-20.911 46.65-46.618 46.65"/><path d="m863.85 768.06h-3.349c0-6.074-1.689-11.996-4.883-17.128l2.845-1.77a35.735 35.735 0 0 1 5.386 18.9m-69.956 10.646a35.884 35.884 0 0 1 6.445-33.275l2.59 2.118a32.535 32.535 0 0 0-5.838 30.163l-3.195 0.994zm90.903 44.563c-0.369 0-0.87 0.063-1.18 0.373-0.362 0.363-0.468 1.104-0.281 1.99 0.225 1.088 0.866 2.245 1.711 3.09 1.398 1.401 3.157 1.639 4.217 0.572 0.49-0.488 0.726-1.11 0.68-1.795-0.05-0.82-0.482-1.659-1.252-2.427-1.076-1.076-2.644-1.804-3.895-1.804m2.835 10.06c-1.749 0-3.507-0.796-4.95-2.24-1.305-1.306-2.259-3.044-2.622-4.77-0.423-2.027 0.01-3.863 1.191-5.046 0.886-0.885 2.115-1.353 3.547-1.353 2.145 0 4.548 1.07 6.264 2.786 1.351 1.354 2.122 2.935 2.227 4.58a5.62 5.62 0 0 1-1.654 4.378 5.622 5.622 0 0 1-4 1.664"/><path d="m875.94 827.49c-2.272 0-4.76-0.938-7.407-3.583-0.295-0.298-3.719-3.797-4.373-4.687l-0.854-1.158 14.723-14.734 1.161 0.85c0.885 0.656 4.383 4.085 4.683 4.38 5.593 5.6 3.554 10.493 1.148 14.132l-2.79-1.848c2.37-3.591 2.957-6.231-0.724-9.916-0.628-0.625-2.16-2.107-3.235-3.103l-10.472 10.476a150.26 150.26 0 0 0 3.103 3.24c3.678 3.683 6.322 3.095 9.904 0.724l1.849 2.79c-1.918 1.271-4.183 2.44-6.719 2.44m-107.43-121.35c-0.622 0-1.189 0.238-1.637 0.684a2.278 2.278 0 0 0-0.68 1.797c0.054 0.817 0.485 1.654 1.253 2.422 1.076 1.079 2.647 1.804 3.898 1.804 0.369 0 0.87-0.062 1.178-0.371 0.805-0.805 0.288-3.357-1.431-5.08-0.813-0.81-1.727-1.257-2.582-1.257m2.834 10.059c-2.149 0-4.548-1.069-6.265-2.786-1.351-1.354-2.12-2.936-2.227-4.58a5.622 5.622 0 0 1 1.654-4.379 5.633 5.633 0 0 1 4.004-1.664c1.748 0 3.505 0.795 4.945 2.24 2.715 2.715 3.94 7.307 1.434 9.815-0.886 0.885-2.114 1.354-3.547 1.354"/><path d="m778.1 732.8-1.158-0.855c-0.882-0.65-4.338-4.034-4.683-4.379-5.593-5.599-3.551-10.491-1.148-14.13l2.793 1.846c-2.37 3.59-2.958 6.23 0.723 9.914 0.626 0.626 2.16 2.107 3.234 3.103l10.472-10.475a157.48 157.48 0 0 0-3.102-3.24c-3.683-3.682-6.322-3.094-9.91-0.722l-1.843-2.793c3.636-2.407 8.526-4.447 14.119 1.152 0.344 0.341 3.724 3.8 4.375 4.681l0.856 1.161-14.726 14.734zm-6.763 90.468c-1.252 0-2.82 0.726-3.897 1.804-0.768 0.769-1.2 1.607-1.25 2.428a2.257 2.257 0 0 0 0.677 1.793c1.064 1.066 2.815 0.828 4.217-0.573 0.847-0.844 1.486-2 1.714-3.09 0.188-0.885 0.081-1.627-0.282-1.99-0.309-0.31-0.81-0.372-1.18-0.372m-2.835 10.06a5.625 5.625 0 0 1-4-1.667 5.603 5.603 0 0 1-1.652-4.377c0.102-1.645 0.875-3.228 2.224-4.579 1.714-1.718 4.119-2.786 6.264-2.786 1.433 0 2.66 0.47 3.547 1.355 1.18 1.182 1.614 3.019 1.188 5.046-0.363 1.726-1.316 3.463-2.621 4.77-1.444 1.443-3.203 2.239-4.95 2.239"/><path d="m780.19 827.49c-2.535 0-4.8-1.168-6.719-2.434l1.85-2.794c3.584 2.37 6.225 2.963 9.906-0.723a173.58 173.58 0 0 0 3.103-3.237l-10.472-10.48c-1.076 1.001-2.609 2.48-3.237 3.103-3.678 3.685-3.09 6.328-0.72 9.916l-2.79 1.846c-2.408-3.636-4.447-8.533 1.148-14.125 0.297-0.3 3.795-3.729 4.683-4.38l1.158-0.856 14.726 14.736-0.854 1.16c-0.654 0.884-4.032 4.341-4.376 4.685-2.644 2.645-5.134 3.585-7.405 3.585m107.44-121.34c-0.854 0-1.773 0.447-2.582 1.257-1.72 1.723-2.232 4.276-1.432 5.08 0.31 0.31 0.81 0.372 1.179 0.372 1.254 0 2.82-0.726 3.897-1.805 0.77-0.768 1.201-1.605 1.255-2.422a2.276 2.276 0 0 0-0.68-1.798 2.267 2.267 0 0 0-1.637-0.685m-2.835 10.059c-1.434 0-2.661-0.47-3.546-1.354-2.505-2.507-1.281-7.1 1.432-9.816 1.442-1.444 3.2-2.24 4.95-2.24 1.505 0 2.927 0.592 4.003 1.667a5.613 5.613 0 0 1 1.651 4.376c-0.105 1.645-0.873 3.228-2.227 4.58-1.714 1.718-4.116 2.787-6.263 2.787"/><path d="m878.03 732.8-14.721-14.735 0.85-1.161c0.656-0.886 4.08-4.386 4.38-4.683 5.592-5.598 10.48-3.558 14.116-1.152l-1.844 2.794c-3.586-2.372-6.225-2.96-9.909 0.723-0.625 0.626-2.102 2.161-3.103 3.241l10.472 10.475a162.96 162.96 0 0 0 3.238-3.103c3.679-3.685 3.09-6.326 0.721-9.917l2.793-1.847c2.402 3.639 4.446 8.53-1.149 14.13-0.345 0.345-3.8 3.728-4.683 4.379l-1.159 0.853zm-49.964-37.94a4.164 4.164 0 0 0-4.158 4.16 4.165 4.165 0 0 0 4.158 4.16 4.166 4.166 0 0 0 4.158-4.16 4.164 4.164 0 0 0-4.159-4.16m0 11.669c-4.137 0-7.503-3.368-7.503-7.507 0-4.141 3.366-7.512 7.502-7.512s7.502 3.37 7.502 7.51-3.366 7.507-7.502 7.507m2e-3 126.41a4.166 4.166 0 0 0-4.159 4.162 4.165 4.165 0 0 0 4.16 4.16 4.166 4.166 0 0 0 4.157-4.16 4.167 4.167 0 0 0-4.16-4.162m0 11.669c-4.137 0-7.502-3.369-7.502-7.507 0-4.142 3.365-7.511 7.502-7.511 4.136 0 7.502 3.37 7.502 7.51 0 4.138-3.366 7.506-7.502 7.506m69-80.704a4.164 4.164 0 0 0-4.158 4.16 4.161 4.161 0 0 0 4.158 4.157 4.163 4.163 0 0 0 4.159-4.157 4.165 4.165 0 0 0-4.16-4.16m0 11.667c-4.136 0-7.502-3.366-7.502-7.507 0-4.14 3.365-7.511 7.503-7.511 4.137 0 7.503 3.37 7.503 7.51s-3.366 7.506-7.503 7.506m-138-11.665a4.164 4.164 0 0 0-4.158 4.16 4.161 4.161 0 0 0 4.158 4.157 4.162 4.162 0 0 0 4.157-4.157 4.163 4.163 0 0 0-4.156-4.16m0 11.667c-4.138 0-7.503-3.366-7.503-7.507 0-4.14 3.365-7.511 7.504-7.511 4.138 0 7.503 3.37 7.503 7.51s-3.365 7.506-7.503 7.506m36.031-38.124-12.006-12.008 2.367-2.369 12.006 12.009m73.2 77.98-12.002-12.01 2.365-2.367 12.005 12.01"/></g><g transform="translate(-1375.2 -294.27)" fill="#212121" fill-rule="evenodd" stroke-width=".84305"><path d="m1403.6 417.73h52.224v-38.481h-52.224zm53.73 1.5074v-1.5082 1.5074zm-55.234 1.5032c-0.398 0-0.7841-0.1568-1.064-0.43838-0.2825-0.28295-0.4421-0.6658-0.4443-1.0656v-41.495c0.01-0.83087 0.6782-1.5028 1.5091-1.5074h55.234c0.3971 0 0.7824 0.16103 1.0639 0.4426 0.2808 0.2799 0.4426 0.66601 0.4426 1.0656v41.493c0 0.39961-0.1585 0.77898-0.4426 1.0622-0.2813 0.28356-0.6645 0.44266-1.0639 0.44176h-55.235z"/><path d="m1399.1 426.76h61.261v-6.0219h-61.259v6.0219zm62.766 1.5065v-1.5065zm-64.271 1.5057c-0.3971 0-0.7866-0.16271-1.0673-0.44176-0.28-0.28351-0.4377-0.66548-0.4392-1.0639v-9.035c0-0.39623 0.1602-0.78403 0.4401-1.0648 0.2841-0.28119 0.6675-0.43927 1.0673-0.44007h64.271c0.4038 0 0.784 0.15512 1.0673 0.44091 0.285 0.2858 0.4392 0.66264 0.4392 1.0656v9.035c0 0.3996-0.1551 0.77729-0.44 1.0639-0.2823 0.28424-0.6668 0.44338-1.0673 0.44176h-64.271zm31.634-45.173c-0.832-4.6e-4 -1.5065-0.67455-1.5074-1.5065 0-0.8304 0.6753-1.5048 1.5091-1.5048h1.0032c1.9612 0.0476 1.9593 2.9672 0 3.0122h-1.0032zm-18.578 29.615c-0.8321 0-1.5091-0.67781-1.5091-1.5082 0-0.83211 0.677-1.5057 1.5091-1.5057h15.063c2.0122-3e-3 2.0122 3.0169 0 3.0139zm20.586 0c-2.0562 0.048-2.0553-3.0614 8e-4 -3.0122h2.5123c2.0082 0 2.0082 3.0122 0 3.0122h-2.5123zm8.5375 0c-2.0075-5.7e-4 -2.0084-3.0136-8e-4 -3.0131h9.04c2.0082 0 2.0082 3.0122 0 3.0122h-9.0392z"/></g></svg>
