<svg xmlns="http://www.w3.org/2000/svg" xmlns:svg="http://www.w3.org/2000/svg" id="svg2" width="393.987" height="393.987" version="1.1" viewBox="0 0 393.987 393.987" xml:space="preserve"><metadata id="metadata8"/><g id="g10" transform="matrix(1.25,0,0,-1.25,0,305.66562)"><g id="g12" transform="scale(0.1)"><path id="path14" fill="#fff" fill-opacity="1" fill-rule="nonzero" stroke="none" d="m 1693.51,246.301 c -202.77,0 -367.13,164.379 -367.13,367.129 0,202.797 164.36,367.156 367.13,367.156 202.76,0 367.15,-164.359 367.15,-367.156 0,-202.75 -164.39,-367.129 -367.15,-367.129 z m 0,744.285 c -207.95,0 -377.13,-169.184 -377.13,-377.156 0,-207.95 169.18,-377.129 377.13,-377.129 207.96,0 377.15,169.179 377.15,377.129 0,207.972 -169.19,377.156 -377.15,377.156"/><path id="path16" fill="#fff" fill-opacity="1" fill-rule="nonzero" stroke="none" d="m 1693.51,11.3398 c -223.17,0 -426.97,122.6012 -531.88,319.9412 l -8.83,16.61 -8.83,-16.61 C 1039.06,133.941 835.254,11.3398 612.086,11.3398 453.023,11.3398 303.027,72.832 189.734,184.449 76.582,295.93 12.8438,444.738 10.2539,603.469 l -0.2539,6 V 1615.92 l 0.0586,2.65 c 1.2891,60.72 51.7148,110.12 112.4064,110.12 60.695,0 111.129,-49.4 112.422,-110.13 l 0.058,-2.04 v -513.32 -20.01 l 16.008,12.02 c 104.824,78.72 229.699,120.32 361.133,120.32 223.172,0 426.974,-122.58 531.884,-319.905 l 8.83,-16.609 8.83,16.609 c 104.9,197.325 308.71,319.905 531.88,319.905 331.99,0 602.09,-270.096 602.09,-602.1 0,-331.989 -270.1,-602.0902 -602.09,-602.0902 z m 0,1214.1902 c -234.36,0 -437.87,-131.76 -540.71,-325.214 -102.84,193.454 -306.351,325.214 -540.714,325.214 -137.75,0 -264.859,-45.52 -367.141,-122.33 v 515.58 h -0.058 c -1.418,66.45 -55.629,119.91 -122.422,119.91 -66.7931,0 -120.99625,-53.46 -122.4064062,-119.91 L 0,1618.78 V 603.301 H 0.253906 C 5.69531,269.961 277.441,1.33984 612.086,1.33984 846.449,1.33984 1049.96,133.141 1152.8,326.582 1255.64,133.141 1459.15,1.33984 1693.51,1.33984 c 338.05,0 612.09,274.07016 612.09,612.09016 0,338.058 -274.04,612.1 -612.09,612.1"/><path id="path18" fill="#fff" fill-opacity="1" fill-rule="nonzero" stroke="none" d="m 612.086,246.301 c -202.77,0 -367.141,164.379 -367.141,367.129 0,202.797 164.371,367.156 367.141,367.156 202.773,0 367.144,-164.359 367.144,-367.156 0,-202.75 -164.371,-367.129 -367.144,-367.129 z m 0,744.285 c -207.953,0 -377.141,-169.184 -377.141,-377.156 0,-207.95 169.188,-377.129 377.141,-377.129 207.957,0 377.144,169.179 377.144,377.129 0,207.972 -169.187,377.156 -377.144,377.156"/><path id="path20" fill="#fff" fill-opacity="1" fill-rule="nonzero" stroke="none" d="M 3097.04,32.5117 C 3077.42,17.7891 3054.12,10 3029.65,10 c -34.83,0 -67.14,15.6797 -88.63,43.0586 l -0.88,1.1133 -269.57,360.3401 -8.01,10.699 -8,-10.699 -268.71,-359.2034 -1.75,-2.2305 C 2362.61,25.6992 2330.31,10 2295.47,10 c -24.46,0 -47.77,7.8086 -67.4,22.5508 C 2179.54,69 2168.89,138.781 2204.33,188.102 l 1.49,2.089 311.81,416.821 4.48,5.968 -4.48,6 -311.46,416.34 -1.84,2.55 c -35.44,49.31 -24.79,119.1 23.74,155.56 19.63,14.75 42.94,22.54 67.4,22.54 34.84,-0.01 67.14,-15.71 88.63,-43.08 l 1.46,-1.84 269,-359.589 8,-10.723 8.01,10.723 269.3,359.979 1.16,1.47 c 21.48,27.37 53.78,43.07 88.62,43.07 24.47,0 47.77,-7.79 67.39,-22.53 48.53,-36.45 59.19,-106.24 23.76,-155.57 l -1.51,-2.13 -311.79,-416.77 -4.48,-6 4.48,-5.968 311.25,-416.063 2.05,-2.847 c 35.43,-49.34 24.77,-119.1411 -23.76,-155.5903 z m 31.94,161.4493 -313.47,419.019 313.47,419.03 -0.06,0.04 c 38.77,53.98 27.54,129.28 -25.88,169.4 -22.03,16.55 -47.82,24.53 -73.39,24.53 -36.41,0 -72.38,-16.18 -96.49,-46.89 l -0.04,0.02 -270.56,-361.672 -270.54,361.672 -0.05,-0.05 c -24.11,30.71 -60.09,46.9 -96.5,46.91 -25.58,0 -51.36,-7.99 -73.4,-24.54 -53.41,-40.13 -64.65,-115.42 -25.85,-169.4 l -0.06,-0.02 313.46,-419.03 -313.46,-419.019 0.06,-0.02 C 2157.42,139.961 2168.66,64.6602 2222.07,24.5508 2244.11,8 2269.9,0 2295.47,0 c 36.41,0 72.39,16.1914 96.5,46.9102 l 0.05,-0.0391 270.54,361.6599 270.56,-361.6599 0.04,0.0195 C 2957.26,16.1914 2993.25,0 3029.65,0 c 25.58,0 51.36,7.96094 73.39,24.5313 53.42,40.1093 64.65,115.4097 25.88,169.3907 l 0.06,0.039"/><path id="path22" fill="#0f80cc" fill-opacity="1" fill-rule="nonzero" stroke="none" d="m 1693.51,246.359 c -202.77,0 -367.13,164.379 -367.13,367.141 0,202.785 164.36,367.148 367.13,367.148 202.76,0 367.15,-164.363 367.15,-367.148 0,-202.762 -164.39,-367.141 -367.15,-367.141 z m -1081.424,0 c -202.77,0 -367.141,164.379 -367.141,367.141 0,202.785 164.371,367.148 367.141,367.148 202.773,0 367.144,-164.363 367.144,-367.148 0,-202.762 -164.371,-367.141 -367.144,-367.141 z M 1693.51,1225.6 c -234.36,0 -437.87,-131.77 -540.71,-325.217 -102.84,193.447 -306.351,325.217 -540.714,325.217 -137.75,0 -264.859,-45.53 -367.141,-122.33 v 515.57 h -0.058 c -1.418,66.45 -55.629,119.91 -122.422,119.91 -66.7931,0 -120.99625,-53.46 -122.4064062,-119.91 L 0,1618.84 V 603.359 H 0.253906 C 5.69531,270.02 277.441,1.41016 612.086,1.41016 846.449,1.41016 1049.96,133.199 1152.8,326.648 1255.64,133.199 1459.15,1.41016 1693.51,1.41016 c 338.05,0 612.09,274.05084 612.09,612.08984 0,338.055 -274.04,612.1 -612.09,612.1"/><path id="path24" fill="#0f80cc" fill-opacity="1" fill-rule="nonzero" stroke="none" d="m 3128.98,194.031 -313.47,419.02 313.47,419.019 -0.06,0.04 c 38.77,53.98 27.54,129.28 -25.88,169.41 -53.4,40.1 -128.85,29.91 -169.88,-22.37 l -0.04,0.03 -270.56,-361.676 -270.54,361.676 -0.05,-0.06 c -41.05,52.3 -116.49,62.49 -169.9,22.37 -53.41,-40.12 -64.65,-115.42 -25.85,-169.4 l -0.06,-0.02 313.46,-419.019 -313.46,-419.02 0.06,-0.031 c -38.8,-53.98 -27.56,-129.2695 25.85,-169.3906 53.41,-40.1211 128.85,-29.92971 169.9,22.3711 l 0.05,-0.0508 270.54,361.6603 270.56,-361.6603 0.04,0.0195 c 41.03,-52.27733 116.48,-62.4687 169.88,-22.3711 53.42,40.1211 64.65,115.4219 25.88,169.4099 l 0.06,0.043"/></g></g></svg>