<svg xmlns="http://www.w3.org/2000/svg" xmlns:svg="http://www.w3.org/2000/svg" id="svg38898" width="111.98" height="111.98" x="0" y="0" enable-background="new 0 0 111.98 44.8" version="1.0" viewBox="0 0 111.98 111.98" xml:space="preserve"><metadata id="metadata33"/><g id="g38907" transform="matrix(1.25,0,0,-1.25,-539.88561,187.94313)"><g id="XMLID_1_"><g id="g22"><path id="path2" d="m 518.516,114.646 c 1.2,0 2.184,-0.976 2.184,-2.184 0,-1.208 -0.984,-2.184 -2.184,-2.184 -1.208,0 -2.191,0.976 -2.191,2.184 0,1.208 0.983,2.184 2.191,2.184 z m 1.896,-2.184 c 0,1.04 -0.848,1.896 -1.896,1.896 -1.048,0 -1.895,-0.856 -1.895,-1.896 0,-1.048 0.848,-1.896 1.895,-1.896 1.049,0 1.896,0.848 1.896,1.896 z"/><path id="path4" d="m 519.5,111.27 h -0.4 c -0.023,0.088 -0.032,0.168 -0.032,0.304 0,0.512 -0.159,0.648 -0.6,0.648 h -0.423 v -0.952 h -0.384 v 2.4 h 0.808 c 0.513,0 1.032,-0.112 1.032,-0.696 0,-0.408 -0.313,-0.544 -0.591,-0.584 0.359,-0.08 0.545,-0.296 0.545,-0.72 -0.002,-0.168 0.014,-0.336 0.045,-0.4 z m -0.424,1.704 c 0,0.28 -0.232,0.408 -0.609,0.408 h -0.423 v -0.872 h 0.423 c 0.394,0 0.609,0.152 0.609,0.464 z"/><polygon id="polygon6" points="495.772 96.55 502.997 106.31 497.461 114.582 504.076 114.582 506.212 110.758 508.685 114.582 515.325 114.582 509.357 106.286 515.629 96.55 509.14 96.55 506.133 101.862 502.325 96.55"/><polygon id="polygon8" points="489.421 114.582 494.837 114.582"/><path id="path10" d="m 492.133,95.03 c 1.872,0 3.391,-1.512 3.391,-3.384 0,-1.872 -1.52,-3.391 -3.391,-3.391 -1.873,0 -3.392,1.52 -3.392,3.391 -10e-4,1.872 1.52,3.384 3.392,3.384 z"/><path id="path12" d="m 482.716,103.734 5.513,-7.184 h -6.816 l -3.44,5.384 V 96.55 h -5.408 v 18.032 h 7.088 c 2.104,0 3.808,-0.592 4.927,-1.712 1,-1 1.505,-2.352 1.505,-4.032 0,-2.48 -1.305,-4.4 -3.369,-5.104 z m -1.472,4.832 c 0,0.608 -0.159,1.056 -0.48,1.384 -0.64,0.64 -1.872,0.728 -2.791,0.736 v -4.248 c 2.312,0.024 3.271,0.64 3.271,2.128 z"/><polygon id="polygon14" points="461.604 109.87 457.493 109.87 457.493 114.582 471.1 114.582 471.1 109.87 466.988 109.87 466.988 96.55 461.604 96.55"/><polygon id="polygon16" points="450.629 114.582 456.036 114.582 456.036 96.55 450.629 96.55 450.629 99.022 450.629 112.094"/><path id="path18" d="m 453.333,122.87 c 1.872,0 3.391,-1.52 3.391,-3.384 0,-1.872 -1.52,-3.4 -3.391,-3.4 -1.88,0 -3.392,1.528 -3.392,3.4 -10e-4,1.864 1.511,3.384 3.392,3.384 z"/><path id="path20" d="m 448.981,112.094 -2.848,-4.6 c -0.8,1.328 -2.377,2.184 -3.968,2.184 -2.273,0 -3.936,-1.848 -3.936,-4.12 0,-2.272 1.663,-4.113 3.936,-4.113 1.591,0 3.168,0.856 3.968,2.184 l 2.848,-4.608 c -1.72,-1.792 -4.136,-2.905 -6.816,-2.905 -5.216,0 -9.448,4.223 -9.448,9.441 0,5.216 4.232,9.456 9.448,9.456 2.68,10e-4 5.096,-1.119 6.816,-2.919 z"/></g></g></g><polygon id="polygon26" points="71.9 11.169 78.659 11.169 78.659 33.709 71.9 33.709 71.9 30.62 71.9 14.28" transform="translate(0,33.551002)"/></svg>