<svg xmlns="http://www.w3.org/2000/svg" xmlns:svg="http://www.w3.org/2000/svg" id="svg2985" width="460" height="460" version="1.1" xml:space="preserve"><metadata id="metadata2991"/><defs id="defs2989"><clipPath id="clipPath3019" clipPathUnits="userSpaceOnUse"><path id="path3021" stroke-width="1.067" d="M 0,181.33333 H 475.73333 V 0 H 0 Z"/></clipPath></defs><g id="g2993" transform="matrix(1.25,0,0,-1.25,0,460)"><g id="g869" transform="translate(-48.652055,94.254718)"><g id="g2995" transform="translate(81.190613,139.7104)"><path id="path2997" fill="#007ee5" fill-opacity="1" fill-rule="nonzero" stroke="none" stroke-width="1.067" d="m 0,0 -31.605333,-20.635733 21.8527997,-17.499734 31.8666663,19.6768 z"/></g><g id="g2999" transform="translate(49.585387,84.074453)"><path id="path3001" fill="#007ee5" fill-opacity="1" fill-rule="nonzero" stroke="none" stroke-width="1.067" d="M 0,0 31.605333,-20.635733 53.719467,-2.176 21.8528,17.5008 Z"/></g><g id="g3003" transform="translate(103.30517,81.898453)"><path id="path3005" fill="#007ee5" fill-opacity="1" fill-rule="nonzero" stroke="none" stroke-width="1.067" d="M 0,0 22.1152,-18.459733 53.719467,2.176 31.866667,19.6768 Z"/></g><g id="g3007" transform="translate(157.02496,119.07499)"><path id="path3009" fill="#007ee5" fill-opacity="1" fill-rule="nonzero" stroke="none" stroke-width="1.067" d="M 0,0 -31.604267,20.635733 -53.719467,2.1770667 -21.8528,-17.499733 Z"/></g><g id="g3011" transform="translate(103.36981,77.92704)"><path id="path3013" fill="#007ee5" fill-opacity="1" fill-rule="nonzero" stroke="none" stroke-width="1.067" d="m 0,0 -22.1792,-18.404267 -9.490133,6.196267 v -6.9472 L 0,-38.1472 l 31.6704,18.992 v 6.9472 l -9.489067,-6.196267 z"/></g><g id="g3015"><g id="g3017" clip-path="url(#clipPath3019)"><g id="g3023" transform="translate(185.30837,109.47712)"><path id="path3025" fill="#007ee5" fill-opacity="1" fill-rule="nonzero" stroke="none" stroke-width="1.067" d="m 0,0 h 2.0853333 c 4.9269334,0 11.6917337,-0.58346667 11.6917337,-17.666133 0,-18.167467 -6.8469337,-18.752 -11.6917337,-18.752 H 0 Z M -12.192,-46.001067 H 2.4202667 c 4.2581333,0 10.2688003,0 15.1978663,3.8336 C 23.629867,-37.584 26.72,-28.250667 26.72,-17.832533 26.72,9.5018667 9.4336,9.5850667 0.91626667,9.5850667 H -12.192 Z"/></g><g id="g3027" transform="translate(216.22603,104.56096)"><path id="path3029" fill="#007ee5" fill-opacity="1" fill-rule="nonzero" stroke="none" stroke-width="1.067" d="m 0,0 v -41.0848 h 11.437867 v 17.7504 c 0,3.166933 0,12.667733 8.432,12.667733 0.4192,0 0.9184,0 1.918933,-0.167466 V 0.3328 c -0.5824,0.16746667 -1.1648,0.25173333 -2.0032,0.25173333 -6.6784,0 -8.682667,-7.00160003 -9.684267,-10.50133333 V 0 Z"/></g><g id="g3031" transform="translate(256.3552,97.47712)"><path id="path3033" fill="#007ee5" fill-opacity="1" fill-rule="nonzero" stroke="none" stroke-width="1.067" d="M 0,0 C 3.5093333,0 4.8437333,-2.8330667 4.8437333,-13.4176 4.8437333,-24.418133 3.3408,-26.8352 0,-26.8352 c -3.4229333,0 -4.9248,2.501333 -4.9248,13.4176 C -4.9248,-3.3344 -3.7557333,0 -0.08213333,0 Z m 0,8.0010667 c -12.273067,0 -16.7808,-8.58453337 -16.7808,-21.4186667 0,-13.250133 4.840533,-21.416533 16.69866667,-21.416533 12.02346633,0 16.78293333,8.2496 16.78293333,21.416533 C 16.7008,-0.58346667 12.193067,8.0010667 0,8.0010667"/></g><g id="g3035" transform="translate(287.72192,88.060373)"><path id="path3037" fill="#007ee5" fill-opacity="1" fill-rule="nonzero" stroke="none" stroke-width="1.067" d="m 0,0 c 0,3.6661333 0,9.4986667 5.1765333,9.4986667 4.4256,0 4.7584,-5.7482667 4.7584,-12.9994667 C 9.9349333,-12.168533 9.52,-17.2512 4.8416,-17.2512 0,-17.2512 0,-13.7504 0,-7.8336 Z M -11.272533,16.500267 V -38.5024 H 0 v 16.916267 c 1.2522667,-1.332267 3.3397333,-3.5808 7.8485333,-3.5808 13.1082667,0 13.9455997,15.8335997 13.9455997,21.666133 0,6.9173333 -1.335466,13.3354667 -5.345066,17.4176 -2.002134,2 -5.093334,3.168 -7.8485337,3.168 -5.5946666,0 -7.84959997,-4.0832 -9.2693333,-6.750933 v 6.1664 z"/></g><g id="g3039" transform="translate(324.19371,90.059947)"><path id="path3041" fill="#007ee5" fill-opacity="1" fill-rule="nonzero" stroke="none" stroke-width="1.067" d="M 0,0 C 0,2.0832 0,4.1664 1.3386667,5.7514667 2.1728,6.8341333 3.5082667,7.4997333 5.0112,7.4997333 c 3.2565333,0 5.010133,-2.7498666 5.010133,-13.5829333 0,-10.584533 -1.5850663,-13.416533 -5.1775997,-13.416533 C 0,-19.499733 0,-14.167467 0,-9.4986667 Z M -11.272533,29.0016 V -26.583467 H -4.5088 c 0.9184,2.916267 1.3365333,3.749334 2.1728,5.333334 0.9994667,-2.0832 2.9216,-6.1664 9.5189333,-6.1664 2.1717334,0 4.4255997,0.416 6.6794667,1.581866 7.515733,3.9168 8.017067,16.2517337 8.017067,20.0853337 0,9.9157333 -3.173334,20.8352003 -13.2789337,20.8352003 -4.9258666,0 -7.1776,-2.6688 -8.6005333,-4.4192 V 29.0016 Z"/></g><g id="g3043" transform="translate(365.73024,97.47712)"><path id="path3045" fill="#007ee5" fill-opacity="1" fill-rule="nonzero" stroke="none" stroke-width="1.067" d="m 0,0 c 3.504,0 4.8416,-2.8330667 4.8416,-13.4176 0,-11.000533 -1.5018667,-13.4176 -4.8416,-13.4176 -3.4250667,0 -4.9301333,2.501333 -4.9301333,13.4176 0,10.0832 1.1712,13.4176 4.84586663,13.4176 z m 0,8.0010667 c -12.276267,0 -16.785067,-8.58453337 -16.785067,-21.4186667 0,-13.250133 4.8448,-21.416533 16.70080033,-21.416533 12.02346667,0 16.78293367,8.2496 16.78293367,21.416533 C 16.698667,-0.58346667 12.1888,8.0010667 0,8.0010667"/></g><g id="g3047" transform="translate(381.98443,104.56096)"><path id="path3049" fill="#007ee5" fill-opacity="1" fill-rule="nonzero" stroke="none" stroke-width="1.067" d="M 0,0 10.605867,-20.085333 -1.584,-41.0848 H 8.3498667 L 15.281067,-28.753067 21.2928,-41.0848 H 33.7344 L 21.4592,-18.084267 32.062933,0 H 22.129067 L 16.8672,-9.4997333 12.442667,0 Z"/></g></g></g></g></g></svg>