<?xml version="1.0" encoding="UTF-8" standalone="no"?>
<!-- Created with Inkscape (http://www.inkscape.org/) -->

<svg
   xmlns:dc="http://purl.org/dc/elements/1.1/"
   xmlns:cc="http://creativecommons.org/ns#"
   xmlns:rdf="http://www.w3.org/1999/02/22-rdf-syntax-ns#"
   xmlns:svg="http://www.w3.org/2000/svg"
   xmlns="http://www.w3.org/2000/svg"
   xmlns:sodipodi="http://sodipodi.sourceforge.net/DTD/sodipodi-0.dtd"
   xmlns:inkscape="http://www.inkscape.org/namespaces/inkscape"
   id="svg2985"
   version="1.1"
   inkscape:version="0.92.1 r"
   width="460"
   height="460"
   xml:space="preserve"
   sodipodi:docname="dropbox.svg"><metadata
     id="metadata2991"><rdf:RDF><cc:Work
         rdf:about=""><dc:format>image/svg+xml</dc:format><dc:type
           rdf:resource="http://purl.org/dc/dcmitype/StillImage" /><dc:title></dc:title></cc:Work></rdf:RDF></metadata><defs
     id="defs2989"><clipPath
       clipPathUnits="userSpaceOnUse"
       id="clipPath3019"><path
         d="M 0,181.33333 H 475.73333 V 0 H 0 Z"
         id="path3021"
         inkscape:connector-curvature="0"
         style="stroke-width:1.06666672" /></clipPath></defs><sodipodi:namedview
     pagecolor="#ffffff"
     bordercolor="#666666"
     borderopacity="1"
     objecttolerance="10"
     gridtolerance="10"
     guidetolerance="10"
     inkscape:pageopacity="0"
     inkscape:pageshadow="2"
     inkscape:window-width="2560"
     inkscape:window-height="1353"
     id="namedview2987"
     showgrid="false"
     inkscape:zoom="1.1946188"
     inkscape:cx="147.14566"
     inkscape:cy="174.82822"
     inkscape:window-x="0"
     inkscape:window-y="240"
     inkscape:window-maximized="1"
     inkscape:current-layer="g2993" /><g
     id="g2993"
     inkscape:groupmode="layer"
     inkscape:label="dropbox-logos_dropbox-logotype-blue"
     transform="matrix(1.25,0,0,-1.25,0,460)"><g
       id="g869"
       transform="translate(-48.652055,94.254718)"><g
         transform="translate(81.190613,139.7104)"
         id="g2995"><path
           inkscape:connector-curvature="0"
           id="path2997"
           style="fill:#007ee5;fill-opacity:1;fill-rule:nonzero;stroke:none;stroke-width:1.06666672"
           d="m 0,0 -31.605333,-20.635733 21.8527997,-17.499734 31.8666663,19.6768 z" /></g><g
         transform="translate(49.585387,84.074453)"
         id="g2999"><path
           inkscape:connector-curvature="0"
           id="path3001"
           style="fill:#007ee5;fill-opacity:1;fill-rule:nonzero;stroke:none;stroke-width:1.06666672"
           d="M 0,0 31.605333,-20.635733 53.719467,-2.176 21.8528,17.5008 Z" /></g><g
         transform="translate(103.30517,81.898453)"
         id="g3003"><path
           inkscape:connector-curvature="0"
           id="path3005"
           style="fill:#007ee5;fill-opacity:1;fill-rule:nonzero;stroke:none;stroke-width:1.06666672"
           d="M 0,0 22.1152,-18.459733 53.719467,2.176 31.866667,19.6768 Z" /></g><g
         transform="translate(157.02496,119.07499)"
         id="g3007"><path
           inkscape:connector-curvature="0"
           id="path3009"
           style="fill:#007ee5;fill-opacity:1;fill-rule:nonzero;stroke:none;stroke-width:1.06666672"
           d="M 0,0 -31.604267,20.635733 -53.719467,2.1770667 -21.8528,-17.499733 Z" /></g><g
         transform="translate(103.36981,77.92704)"
         id="g3011"><path
           inkscape:connector-curvature="0"
           id="path3013"
           style="fill:#007ee5;fill-opacity:1;fill-rule:nonzero;stroke:none;stroke-width:1.06666672"
           d="m 0,0 -22.1792,-18.404267 -9.490133,6.196267 v -6.9472 L 0,-38.1472 l 31.6704,18.992 v 6.9472 l -9.489067,-6.196267 z" /></g><g
         id="g3015"><g
           clip-path="url(#clipPath3019)"
           id="g3017"><g
             transform="translate(185.30837,109.47712)"
             id="g3023"><path
               inkscape:connector-curvature="0"
               id="path3025"
               style="fill:#007ee5;fill-opacity:1;fill-rule:nonzero;stroke:none;stroke-width:1.06666672"
               d="m 0,0 h 2.0853333 c 4.9269334,0 11.6917337,-0.58346667 11.6917337,-17.666133 0,-18.167467 -6.8469337,-18.752 -11.6917337,-18.752 H 0 Z M -12.192,-46.001067 H 2.4202667 c 4.2581333,0 10.2688003,0 15.1978663,3.8336 C 23.629867,-37.584 26.72,-28.250667 26.72,-17.832533 26.72,9.5018667 9.4336,9.5850667 0.91626667,9.5850667 H -12.192 Z" /></g><g
             transform="translate(216.22603,104.56096)"
             id="g3027"><path
               inkscape:connector-curvature="0"
               id="path3029"
               style="fill:#007ee5;fill-opacity:1;fill-rule:nonzero;stroke:none;stroke-width:1.06666672"
               d="m 0,0 v -41.0848 h 11.437867 v 17.7504 c 0,3.166933 0,12.667733 8.432,12.667733 0.4192,0 0.9184,0 1.918933,-0.167466 V 0.3328 c -0.5824,0.16746667 -1.1648,0.25173333 -2.0032,0.25173333 -6.6784,0 -8.682667,-7.00160003 -9.684267,-10.50133333 V 0 Z" /></g><g
             transform="translate(256.3552,97.47712)"
             id="g3031"><path
               inkscape:connector-curvature="0"
               id="path3033"
               style="fill:#007ee5;fill-opacity:1;fill-rule:nonzero;stroke:none;stroke-width:1.06666672"
               d="M 0,0 C 3.5093333,0 4.8437333,-2.8330667 4.8437333,-13.4176 4.8437333,-24.418133 3.3408,-26.8352 0,-26.8352 c -3.4229333,0 -4.9248,2.501333 -4.9248,13.4176 C -4.9248,-3.3344 -3.7557333,0 -0.08213333,0 Z m 0,8.0010667 c -12.273067,0 -16.7808,-8.58453337 -16.7808,-21.4186667 0,-13.250133 4.840533,-21.416533 16.69866667,-21.416533 12.02346633,0 16.78293333,8.2496 16.78293333,21.416533 C 16.7008,-0.58346667 12.193067,8.0010667 0,8.0010667" /></g><g
             transform="translate(287.72192,88.060373)"
             id="g3035"><path
               inkscape:connector-curvature="0"
               id="path3037"
               style="fill:#007ee5;fill-opacity:1;fill-rule:nonzero;stroke:none;stroke-width:1.06666672"
               d="m 0,0 c 0,3.6661333 0,9.4986667 5.1765333,9.4986667 4.4256,0 4.7584,-5.7482667 4.7584,-12.9994667 C 9.9349333,-12.168533 9.52,-17.2512 4.8416,-17.2512 0,-17.2512 0,-13.7504 0,-7.8336 Z M -11.272533,16.500267 V -38.5024 H 0 v 16.916267 c 1.2522667,-1.332267 3.3397333,-3.5808 7.8485333,-3.5808 13.1082667,0 13.9455997,15.8335997 13.9455997,21.666133 0,6.9173333 -1.335466,13.3354667 -5.345066,17.4176 -2.002134,2 -5.093334,3.168 -7.8485337,3.168 -5.5946666,0 -7.84959997,-4.0832 -9.2693333,-6.750933 v 6.1664 z" /></g><g
             transform="translate(324.19371,90.059947)"
             id="g3039"><path
               inkscape:connector-curvature="0"
               id="path3041"
               style="fill:#007ee5;fill-opacity:1;fill-rule:nonzero;stroke:none;stroke-width:1.06666672"
               d="M 0,0 C 0,2.0832 0,4.1664 1.3386667,5.7514667 2.1728,6.8341333 3.5082667,7.4997333 5.0112,7.4997333 c 3.2565333,0 5.010133,-2.7498666 5.010133,-13.5829333 0,-10.584533 -1.5850663,-13.416533 -5.1775997,-13.416533 C 0,-19.499733 0,-14.167467 0,-9.4986667 Z M -11.272533,29.0016 V -26.583467 H -4.5088 c 0.9184,2.916267 1.3365333,3.749334 2.1728,5.333334 0.9994667,-2.0832 2.9216,-6.1664 9.5189333,-6.1664 2.1717334,0 4.4255997,0.416 6.6794667,1.581866 7.515733,3.9168 8.017067,16.2517337 8.017067,20.0853337 0,9.9157333 -3.173334,20.8352003 -13.2789337,20.8352003 -4.9258666,0 -7.1776,-2.6688 -8.6005333,-4.4192 V 29.0016 Z" /></g><g
             transform="translate(365.73024,97.47712)"
             id="g3043"><path
               inkscape:connector-curvature="0"
               id="path3045"
               style="fill:#007ee5;fill-opacity:1;fill-rule:nonzero;stroke:none;stroke-width:1.06666672"
               d="m 0,0 c 3.504,0 4.8416,-2.8330667 4.8416,-13.4176 0,-11.000533 -1.5018667,-13.4176 -4.8416,-13.4176 -3.4250667,0 -4.9301333,2.501333 -4.9301333,13.4176 0,10.0832 1.1712,13.4176 4.84586663,13.4176 z m 0,8.0010667 c -12.276267,0 -16.785067,-8.58453337 -16.785067,-21.4186667 0,-13.250133 4.8448,-21.416533 16.70080033,-21.416533 12.02346667,0 16.78293367,8.2496 16.78293367,21.416533 C 16.698667,-0.58346667 12.1888,8.0010667 0,8.0010667" /></g><g
             transform="translate(381.98443,104.56096)"
             id="g3047"><path
               inkscape:connector-curvature="0"
               id="path3049"
               style="fill:#007ee5;fill-opacity:1;fill-rule:nonzero;stroke:none;stroke-width:1.06666672"
               d="M 0,0 10.605867,-20.085333 -1.584,-41.0848 H 8.3498667 L 15.281067,-28.753067 21.2928,-41.0848 H 33.7344 L 21.4592,-18.084267 32.062933,0 H 22.129067 L 16.8672,-9.4997333 12.442667,0 Z" /></g></g></g></g></g></svg>