<svg xmlns="http://www.w3.org/2000/svg" xmlns:svg="http://www.w3.org/2000/svg" id="svg2" width="969.292" height="969.292" version="1.1" viewBox="0 0 969.292 969.292" xml:space="preserve"><metadata id="metadata8"/><defs id="defs6"><clipPath id="clipPath20" clipPathUnits="userSpaceOnUse"><path id="path22" d="M 0,323 H 1000 V 0 H 0 Z"/></clipPath></defs><g id="g10" transform="matrix(1.25,0,0,-1.25,-116.96725,691.67581)"><g id="g12" transform="translate(126.1768,132.1582)"><path id="path14" fill="#489997" fill-opacity="1" fill-rule="nonzero" stroke="none" d="M 0,0 H 57.045 V 25.981 H 0 V 43.97 H 62.99 V 71.987 H -32.603 V -46.868 h 96.437 v 28.027 H 0 Z"/></g><g id="g16"><g id="g18" clip-path="url(#clipPath20)"><g id="g24" transform="translate(263.5454,130.6377)"><path id="path26" fill="#489997" fill-opacity="1" fill-rule="nonzero" stroke="none" d="m 0,0 h 23.436 v -14.438 c -4.927,-3.233 -11.042,-4.932 -19.015,-4.932 -18.851,0 -32.268,13.757 -32.268,32.945 v 0.333 c 0,18.171 13.256,32.606 30.4,32.606 11.706,0 20.195,-4.073 28.697,-11.207 L 50.606,58.568 C 38.03,69.431 23.269,75.885 2.375,75.885 c -36.847,0 -64.014,-27.167 -64.014,-61.803 v -0.333 c 0,-36.002 27.685,-61.466 64.697,-61.466 21.57,0 39.046,7.971 51.618,18.326 V 24.105 H 0 Z"/></g><g id="g28" transform="translate(416.1831,141.3232)"><path id="path30" fill="#489997" fill-opacity="1" fill-rule="nonzero" stroke="none" d="m 0,0 -48.892,62.822 h -30.74 V -56.033 H -47.03 V 9.171 L 3.74,-56.033 H 32.606 V 62.822 H 0 Z"/></g><g id="g32" transform="translate(653.877,175.2827)"><path id="path34" fill="#489997" fill-opacity="1" fill-rule="nonzero" stroke="none" d="M 0,0 H 35.658 V -89.993 H 68.603 V 0 h 35.648 V 28.862 H 0 Z"/></g><g id="g36" transform="translate(805.1572,113.3174)"><path id="path38" fill="#489997" fill-opacity="1" fill-rule="nonzero" stroke="none" d="M 0,0 V 18.841 H 57.055 V 44.822 H 0 V 62.811 H 62.996 V 90.828 H -32.597 V -28.027 H 63.85 V 0 Z"/></g><g id="g40" transform="translate(551.708,181.0659)"><path id="path42" fill="#489997" fill-opacity="1" fill-rule="nonzero" stroke="none" d="m 0,0 -59.306,43.702 -27.91,-20.563 70.58,-52.01 0.176,-0.232 v -81.758 h 33.102 v 82.002 l 70.56,51.998 -27.861,20.6 z"/></g><g id="g44" transform="translate(592.9932,140.4424)"><path id="path46" fill="#c12a3a" fill-opacity="1" fill-rule="nonzero" stroke="none" d="m 0,0 -9.827,-13.332 44.545,-32.831 9.819,13.327 z"/></g><path id="path48" fill="#c12a3a" fill-opacity="1" fill-rule="nonzero" stroke="none" d="m 543.531,205.708 h 16.562 v 55.335 h -16.562 z"/><g id="g50" transform="translate(465.8667,107.6064)"><path id="path52" fill="#c12a3a" fill-opacity="1" fill-rule="nonzero" stroke="none" d="m 0,0 9.827,-13.327 44.54,32.831 -9.826,13.332 z"/></g></g></g></g></svg>