<svg xmlns="http://www.w3.org/2000/svg" xmlns:svg="http://www.w3.org/2000/svg" id="Layer_1" width="250" height="250" x="0" y="0" enable-background="new 0 0 196.6 72" version="1.1" viewBox="0 0 250 250" xml:space="preserve"><metadata id="metadata20"/><rect id="rect4145" width="250" height="250" x="0" y="0" fill="#0082c9" fill-opacity="1" fill-rule="evenodd" stroke="none" stroke-dasharray="none" stroke-miterlimit="4" stroke-opacity="1" stroke-width=".1" opacity="1"/><path id="XMLID_107_" fill="#fff" fill-opacity="1" fill-rule="nonzero" stroke="none" stroke-dasharray="none" stroke-dashoffset="0" stroke-linecap="butt" stroke-linejoin="miter" stroke-miterlimit="10" stroke-opacity="1" stroke-width="5.566" d="m 126.26016,62.146179 c -19.67542,0 -36.351984,13.338635 -41.520593,31.410989 -4.492072,-9.585852 -14.226539,-16.301537 -25.438963,-16.301537 -15.419709,0 -28.095133,12.675419 -28.095133,28.095119 0,15.41971 12.675424,28.10092 28.095133,28.10092 11.212424,0 20.946891,-6.71981 25.438963,-16.30733 5.168609,18.07372 21.845173,31.41679 41.520593,31.41679 19.52991,0 36.12143,-13.14184 41.42224,-31.01171 4.57508,9.36989 14.18907,15.90225 25.24222,15.90225 15.41972,0 28.10092,-12.68121 28.10092,-28.10092 0,-15.4197 -12.6812,-28.095119 -28.10092,-28.095119 -11.05315,0 -20.66714,6.528252 -25.24222,15.896453 -5.30081,-17.86847 -21.89233,-31.005905 -41.42224,-31.005905 z m 0,16.492503 c 14.85271,0 26.71788,11.859402 26.71788,26.712068 0,14.85267 -11.86517,26.71787 -26.71788,26.71787 -14.85264,0 -26.712047,-11.8652 -26.712047,-26.71787 0,-14.852666 11.859407,-26.712068 26.712047,-26.712068 z M 59.300604,93.748134 c 6.507298,0 11.608407,5.095318 11.608407,11.602616 0,6.5073 -5.101109,11.60841 -11.608407,11.60841 -6.507316,0 -11.602637,-5.10111 -11.602637,-11.60841 0,-6.507298 5.095321,-11.602616 11.602637,-11.602616 z m 133.624016,0 c 6.50733,0 11.6084,5.095318 11.6084,11.602616 0,6.5073 -5.1011,11.60841 -11.6084,11.60841 -6.50729,0 -11.6026,-5.10111 -11.6026,-11.60841 0,-6.507298 5.09535,-11.602616 11.6026,-11.602616 z" baseline-shift="baseline" clip-rule="nonzero" color="#000" color-interpolation="sRGB" color-interpolation-filters="linearRGB" color-rendering="auto" direction="ltr" display="inline" enable-background="accumulate" font-family="sans-serif" font-size="medium" font-stretch="normal" font-style="normal" font-variant="normal" font-weight="normal" image-rendering="auto" letter-spacing="normal" opacity="1" overflow="visible" shape-rendering="auto" text-anchor="start" text-decoration="none" text-rendering="auto" visibility="visible" word-spacing="normal" writing-mode="lr-tb" style="line-height:normal;text-indent:0;text-align:start;text-decoration-line:none;text-decoration-style:solid;text-decoration-color:#000;text-transform:none;block-progression:tb;white-space:normal;isolation:auto;mix-blend-mode:normal;solid-color:#000;solid-opacity:1"/><g id="g4571" fill="#fff" fill-opacity="1" opacity="1" transform="matrix(0.78397546,0,0,0.78397546,50.187476,130.07889)"><path id="XMLID_121_" fill="#fff" fill-opacity="1" d="m 37.669669,48.9 c 5.9,0 9.2,4.2 9.2,10.5 0,0.6 -0.5,1.1 -1.1,1.1 l -15.9,0 c 0.1,5.6 4,8.8 8.5,8.8 2.8,0 4.8,-1.2 5.8,-2 0.6,-0.4 1.1,-0.3 1.4,0.3 l 0.3,0.5 c 0.3,0.5 0.2,1 -0.3,1.4 -1.2,0.9 -3.8,2.4 -7.3,2.4 -6.5,0 -11.5,-4.7 -11.5,-11.5 0.1,-7.2 4.9,-11.5 10.9,-11.5 z m 6.1,9.4 c -0.2,-4.6 -3,-6.9 -6.2,-6.9 -3.7,0 -6.9,2.4 -7.6,6.9 l 13.8,0 z"/><path id="XMLID_119_" fill="#fff" fill-opacity="1" d="m 76.9,52.1 0,-2.5 0,-5.2 c 0,-0.7 0.4,-1.1 1.1,-1.1 l 0.8,0 c 0.7,0 1,0.4 1,1.1 l 0,5.2 4.5,0 c 0.7,0 1.1,0.4 1.1,1.1 l 0,0.3 c 0,0.7 -0.4,1 -1.1,1 l -4.5,0 0,11 c 0,5.1 3.1,5.7 4.8,5.8 0.9,0.1 1.2,0.3 1.2,1.1 l 0,0.6 c 0,0.7 -0.3,1 -1.2,1 -4.8,0 -7.7,-2.9 -7.7,-8.1 l 0,-11.3 z"/><path id="XMLID_117_" fill="#fff" fill-opacity="1" d="m 99.8,48.9 c 3.8,0 6.2,1.6 7.3,2.5 0.5,0.4 0.6,0.9 0.1,1.5 l -0.3,0.5 c -0.4,0.6 -0.9,0.6 -1.5,0.2 -1,-0.7 -2.9,-2 -5.5,-2 -4.8,0 -8.6,3.6 -8.6,8.9 0,5.2 3.8,8.8 8.6,8.8 3.1,0 5.2,-1.4 6.2,-2.3 0.6,-0.4 1,-0.3 1.4,0.3 l 0.3,0.4 c 0.3,0.6 0.2,1 -0.3,1.5 -1.1,0.9 -3.8,2.8 -7.8,2.8 -6.5,0 -11.5,-4.7 -11.5,-11.5 0.1,-6.8 5.1,-11.6 11.6,-11.6 z"/><path id="XMLID_115_" fill="#fff" fill-opacity="1" d="m 113.1,41.8 c 0,-0.7 -0.4,-1.1 0.3,-1.1 l 0.8,0 c 0.7,0 1.8,0.4 1.8,1.1 l 0,23.9 c 0,2.8 1.3,3.1 2.3,3.2 0.5,0 0.9,0.3 0.9,1 l 0,0.7 c 0,0.7 -0.3,1.1 -1.1,1.1 -1.8,0 -5,-0.6 -5,-5.4 l 0,-24.5 z"/><path id="XMLID_112_" fill="#fff" fill-opacity="1" d="m 133.6,48.9 c 6.4,0 11.6,4.9 11.6,11.4 0,6.6 -5.2,11.6 -11.6,11.6 -6.4,0 -11.6,-5 -11.6,-11.6 0,-6.5 5.2,-11.4 11.6,-11.4 z m 0,20.4 c 4.7,0 8.5,-3.8 8.5,-9 0,-5 -3.8,-8.7 -8.5,-8.7 -4.7,0 -8.6,3.8 -8.6,8.7 0.1,5.1 3.9,9 8.6,9 z"/><path id="XMLID_109_" fill="#fff" fill-opacity="1" d="m 183.5,48.9 c 5.3,0 7.2,4.4 7.2,4.4 l 0.1,0 c 0,0 -0.1,-0.7 -0.1,-1.7 l 0,-9.9 c 0,-0.7 -0.3,-1.1 0.4,-1.1 l 0.8,0 c 0.7,0 1.8,0.4 1.8,1.1 l 0,28.5 c 0,0.7 -0.3,1.1 -1,1.1 l -0.7,0 c -0.7,0 -1.1,-0.3 -1.1,-1 l 0,-1.7 c 0,-0.8 0.2,-1.4 0.2,-1.4 l -0.1,0 c 0,0 -1.9,4.6 -7.6,4.6 -5.9,0 -9.6,-4.7 -9.6,-11.5 -0.2,-6.8 3.9,-11.4 9.7,-11.4 z m 0.1,20.4 c 3.7,0 7.1,-2.6 7.1,-8.9 0,-4.5 -2.3,-8.8 -7,-8.8 -3.9,0 -7.1,3.2 -7.1,8.8 0.1,5.4 2.9,8.9 7,8.9 z"/><path id="XMLID_103_" fill="#fff" fill-opacity="1" d="m 1,71.4 0.8,0 c 0.7,0 1.1,-0.4 1.1,-1.1 l 0,-21.472335 C 2.9,45.427665 6.6,43 10.8,43 c 4.2,0 7.9,2.427665 7.9,5.827665 L 18.7,70.3 c 0,0.7 0.4,1.1 1.1,1.1 l 0.8,0 c 0.7,0 1,-0.4 1,-1.1 l 0,-21.6 c 0,-5.7 -5.7,-8.5 -10.9,-8.5 l 0,0 0,0 0,0 0,0 C 5.7,40.2 0,43 0,48.7 l 0,21.6 c 0,0.7 0.3,1.1 1,1.1 z"/><path id="XMLID_102_" fill="#fff" fill-opacity="1" d="m 167.9,49.4 -0.8,0 c -0.7,0 -1.1,0.4 -1.1,1.1 l 0,12.1 c 0,3.4 -2.2,6.5 -6.5,6.5 -4.2,0 -6.5,-3.1 -6.5,-6.5 l 0,-12.1 c 0,-0.7 -0.4,-1.1 -1.1,-1.1 l -0.8,0 c -0.7,0 -1,0.4 -1,1.1 l 0,12.9 c 0,5.7 4.2,8.5 9.4,8.5 l 0,0 c 0,0 0,0 0,0 0,0 0,0 0,0 l 0,0 c 5.2,0 9.4,-2.8 9.4,-8.5 l 0,-12.9 c 0.1,-0.7 -0.3,-1.1 -1,-1.1 z"/><path id="path4165-9" fill="#fff" fill-opacity="1" d="m 68.908203,49.235938 c -0.244942,0.0391 -0.480102,0.202589 -0.705078,0.470703 l -4.046875,4.824218 -3.029297,3.609375 -4.585937,-5.466796 -2.488282,-2.966797 c -0.224975,-0.268116 -0.479748,-0.414718 -0.74414,-0.4375 -0.264393,-0.02278 -0.538524,0.07775 -0.806641,0.302734 l -0.613281,0.513672 c -0.536232,0.449952 -0.508545,0.948144 -0.05859,1.484375 l 4.048828,4.824219 3.357422,4 -4.916016,5.857421 c -0.0037,0.0044 -0.0061,0.0093 -0.0098,0.01367 l -2.480469,2.955078 c -0.449952,0.536232 -0.399531,1.100832 0.136719,1.550782 l 0.613281,0.511718 c 0.536231,0.449951 1.022704,0.33701 1.472656,-0.199218 l 4.046875,-4.824219 3.029297,-3.609375 4.585938,5.466797 c 0.003,0.0036 0.0067,0.0062 0.0098,0.0098 l 2.480469,2.957032 c 0.44995,0.536231 1.012595,0.584735 1.548828,0.134765 l 0.613282,-0.513671 c 0.536231,-0.449952 0.508544,-0.948144 0.05859,-1.484376 l -4.048828,-4.824218 -3.357422,-4 4.916016,-5.857422 c 0.0037,-0.0044 0.0061,-0.0093 0.0098,-0.01367 l 2.480469,-2.955078 c 0.449952,-0.53623 0.399532,-1.10083 -0.136719,-1.550781 l -0.613281,-0.513672 c -0.268115,-0.224976 -0.522636,-0.308636 -0.767578,-0.269531 z"/></g></svg>