<svg xmlns="http://www.w3.org/2000/svg" xmlns:svg="http://www.w3.org/2000/svg" id="svg2" width="1005.964" height="1005.964" version="1.1" xml:space="preserve"><metadata id="metadata8"/><g id="g10" transform="matrix(1.25,0,0,-1.25,-47.253067,1082.4691)"><g id="g12" transform="matrix(1.0173979,0,0,1.0267549,-13.461309,305.75376)"><path id="path14" fill="#dc3e15" fill-opacity="1" fill-rule="nonzero" stroke="none" stroke-width="1.067" d="m 145.5872,89.6064 c 0.2624,1.637333 0.3296,120.02453 0.08,122.608 -20.3008,-4.79147 -40.57173,-9.57867 -60.925867,-14.38293 V 114.3776 C 74.2624,110.31893 63.8208,106.27733 53.383467,102.24 c -0.0672,0.0373 -0.1248,0.0576 -0.1792,0.096 -0.04587,0.0331 -0.104534,0.0832 -0.1088,0.12907 -0.03307,0.31253 -0.07467,0.62506 -0.07467,0.94186 -0.0043,33.72054 -0.0043,67.44534 -0.0043,101.08267 0.4672,0.57067 1.070934,0.64213 1.595734,0.83307 29.8336,11.07093 59.675729,22.13013 89.512529,33.2 1.0336,0.384 1.9712,0.57173 3.1168,0.23786 16.3712,-4.70826 32.7584,-9.36213 49.14133,-14.03306 0.23787,-0.0715 0.47574,-0.15467 0.8128,-0.2624 V 82.336 c -4.704,-1.296 -9.3664,-2.592 -14.03306,-3.866667 -11.87947,-3.245866 -23.7664,-6.4672 -35.63734,-9.7376 -1.16266,-0.321066 -2.1792,-0.296533 -3.3216,0.120534 -29.34506,10.7456 -58.703993,21.458133 -88.053326,32.174933 -0.5792,0.21227 -1.146667,0.45013 -1.634133,0.96213 30.3584,-4.129063 60.716799,-8.253863 91.070929,-12.38293 z"/><path id="path16" fill="#dc3e15" fill-opacity="1" fill-rule="nonzero" stroke="none" stroke-width="1.067" d="M 367.56693,165.536 H 355.0912 v 9.90827 h 11.96267 c 0.704,0.6368 0.50453,1.2416 0.50453,1.7792 0.0203,3.5328 0.009,7.07093 0.0128,10.608 0.004,4.22506 0.71253,8.31253 2.72,12.07893 4.096,7.67147 10.55893,11.792 19.33333,12.288 2.88,0.16213 5.75467,0.0459 8.5632,-0.7296 0.4832,-0.13333 0.9536,-0.32107 1.48694,-0.50453 V 200.7104 c -0.5664,-0.27947 -0.95787,0.17067 -1.3952,0.3424 -3.17974,1.2448 -6.43734,1.59573 -9.78347,0.88747 -3.17973,-0.67947 -5.56267,-2.4256 -7.088,-5.30027 -0.96213,-1.8208 -1.52853,-3.77067 -1.70773,-5.78347 -0.4544,-5.0336 -0.1376,-10.07893 -0.21227,-15.23733 h 28.57067 c 0.40426,0.512 0.2496,1.0368 0.2496,1.52107 0.0171,3.79093 -0.0416,7.58293 0.0213,11.37066 0.112,6.704 2.2208,12.63254 7.14133,17.42934 3.8496,3.74506 8.512,5.7536 13.8496,6.20373 3.0624,0.25813 6.1376,0.18773 9.14987,-0.55787 0.6752,-0.1632 1.38773,-0.2464 1.9712,-0.7712 V 200.5024 c -1.94133,0.7328 -3.77067,1.4208 -5.74187,1.66187 -2,0.24213 -3.96586,0.1504 -5.89973,-0.32427 -3.2416,-0.8 -5.54987,-2.76267 -6.9376,-5.75893 -0.9664,-2.09174 -1.504,-4.3168 -1.5584,-6.59947 -0.096,-4.41707 -0.0587,-8.8416 -0.0704,-13.26293 0,-0.17494 0.0875,-0.34987 0.18347,-0.70827 h 17.04106 v -9.92427 H 420.2293 V 102.4608 h -11.8709 c -0.0875,2.94933 -0.0288,5.94987 -0.0416,8.94613 -0.009,2.9664 0,5.93707 0,8.90347 v 45.16267 h -28.81707 v -63.008 H 367.6128 c -0.096,2.2368 -0.0299,4.54186 -0.0416,6.8416 -0.0128,2.3328 -0.004,4.67093 -0.004,7.008 z"/><path id="path18" fill="#dc3e15" fill-opacity="1" fill-rule="nonzero" stroke="none" stroke-width="1.067" d="m 249.19573,152.33173 c 0.11307,9.9328 1.63734,19.34187 5.95414,28.16214 6.67093,13.6288 17.6544,21.808 32.55893,24.87466 8.8992,1.8336 17.8208,1.78774 26.55787,-0.89173 14.2752,-4.37867 23.84533,-13.77067 29.18293,-27.44533 3.4464,-8.81707 4.3168,-18.0128 3.71733,-27.3792 -0.4,-6.19947 -1.45813,-12.28374 -3.63733,-18.1376 -6.32107,-17.00374 -18.48427,-27.24587 -36.592,-30.20374 -10.0704,-1.645863 -20.03733,-0.8416 -29.5168,3.26187 -12.0416,5.2128 -19.94133,14.22933 -24.5088,26.26667 -2.65387,7.0048 -3.64907,14.288 -3.71627,21.49226 z m 85.38774,1.68747 c -0.0747,1.42933 -0.1248,3.51253 -0.29547,5.5872 -0.51733,6.208 -1.80907,12.23787 -4.62507,17.85813 -3.74613,7.4752 -9.3504,13.03787 -17.3632,16.00854 -3.92426,1.45386 -8.00853,2.09173 -12.1952,2.1792 -14.00426,0.2912 -24.69653,-5.37494 -31.8464,-17.32054 -3.53706,-5.90826 -5.38346,-12.40426 -5.9744,-19.2 -0.76266,-8.70826 -0.0213,-17.27573 3.29494,-25.49226 3.584,-8.88747 9.49226,-15.64587 18.5088,-19.4752 5.70453,-2.42027 11.68746,-3.01227 17.84213,-2.47894 13.43253,1.16267 22.94507,7.78774 28.51627,19.88374 3.18293,6.912 4.0288,14.29546 4.1376,22.45013 z"/><path id="path20" fill="#dc3e15" fill-opacity="1" fill-rule="nonzero" stroke="none" stroke-width="1.067" d="m 762.9792,203.6064 v -10.66667 c -0.49173,-0.3328 -0.85867,0.009 -1.24587,0.18347 -4.2208,1.92107 -8.64213,3.05813 -13.28746,3.37493 -8.20054,0.55467 -15.24587,-1.87946 -20.91627,-7.85813 -4.05013,-4.27093 -6.73813,-9.33333 -8.56747,-14.8544 -2.2912,-6.90027 -3.05813,-14.03307 -3.13706,-21.3664 0.86293,0.15787 0.91626,0.89173 1.19573,1.37493 2.6496,4.54934 6.17067,8.18774 11.0752,10.39147 2.82027,1.2672 5.78773,1.97547 8.87467,2.17493 4.3712,0.28374 8.69653,0.0416 12.88746,-1.32906 8.60054,-2.82134 14.37547,-8.61654 17.35467,-16.9376 3.29173,-9.2 3.10827,-18.512 -0.5248,-27.6 -5.2256,-13.0752 -17.07947,-20.41707 -31.55413,-19.83787 -9.60854,0.384 -17.13814,4.50453 -22.7008,12.192 -3.8208,5.27893 -6.0288,11.23307 -7.32907,17.54133 -1.79947,8.73387 -1.93707,17.54667 -1.2,26.3968 0.69227,8.2912 2.45013,16.33707 5.78347,24.01174 3.09546,7.1296 7.3792,13.4048 13.63306,18.23786 6.41707,4.95787 13.72907,7.38774 21.85814,7.4912 4.688,0.0544 9.32586,-0.28266 13.86666,-1.504 1.29174,-0.34986 2.56747,-0.7584 3.93387,-1.41653 z m -46.40427,-69.58293 c 0.0672,-5.3632 1.93387,-11.696 6.6624,-17.05067 6.08747,-6.896 15.06667,-7.74187 22.0128,-4.7456 5.70027,2.45867 9.11254,7.0208 10.80854,12.79573 1.80373,6.15467 1.63733,12.36267 -0.36694,18.45014 -1.80373,5.488 -5.2416,9.66293 -10.84586,11.7376 -4.2336,1.56266 -8.61654,1.76213 -13.00054,0.65813 -9.15733,-2.304 -15.32053,-10.512 -15.2704,-21.84533 z"/><path id="path22" fill="#dc3e15" fill-opacity="1" fill-rule="nonzero" stroke="none" stroke-width="1.067" d="m 782.92053,153.78133 c 1.16267,16.8416 2.3296,33.8208 3.51254,50.91627 h 47.88373 v -10.21227 c -0.009,-0.0117 -0.0373,-0.0661 -0.0832,-0.10346 -0.0459,-0.0416 -0.10453,-0.08 -0.1632,-0.096 -0.12053,-0.0373 -0.24533,-0.0789 -0.37013,-0.0789 -12.21227,0 -24.4256,0 -36.89174,0 -0.77973,-9.96266 -1.45066,-19.86346 -2.0832,-29.73013 0.8,-0.40747 1.4368,-0.19093 2.05334,-0.17493 4.9792,0.14186 9.96266,0.47573 14.93333,-0.22507 6.37973,-0.90347 12.27947,-2.9248 17.3504,-6.9792 5.2,-4.1536 8.29227,-9.57013 9.45387,-16.0032 1.17973,-6.48747 1.05066,-12.9792 -1.21174,-19.2544 -3.37066,-9.35893 -10.10453,-15.42933 -19.4336,-18.82987 -5.85813,-2.13653 -11.9584,-2.5248 -18.13333,-2.35413 -4.61653,0.12587 -9.17973,0.58773 -13.6128,1.95093 -1.46667,0.45334 -2.87467,1.0368 -4.2368,1.73654 -0.53333,0.2752 -0.9504,0.5632 -0.94613,1.27146 0.0245,3.77494 0.0128,7.55414 0.0128,11.4336 0.68266,0.0491 1.05386,-0.3296 1.45386,-0.5632 5.2288,-3.0784 10.8128,-5.1328 16.90774,-5.6832 5.1712,-0.4704 10.2464,-0.0544 15.01333,2.1088 7.39093,3.34934 11.60747,9.03254 12.49493,17.0784 0.34667,3.11254 0.2176,6.192 -0.608,9.20427 -1.6832,6.16747 -5.72053,10.304 -11.616,12.73387 -3.52106,1.4496 -7.2256,2.1376 -11.01333,2.26666 -6.4576,0.21227 -12.912,0.0747 -19.34507,-0.6336 -0.3584,-0.0416 -0.74666,-0.192 -1.3216,0.2208 z"/><path id="path24" fill="#dc3e15" fill-opacity="1" fill-rule="nonzero" stroke="none" stroke-width="1.067" d="m 601.008,135.96053 h -52.0832 c -0.22507,-2.59626 0.22933,-5.00373 0.72107,-7.39626 0.73706,-3.56587 2.096,-6.8832 4.37546,-9.7824 3.6032,-4.58774 8.44587,-7.0336 14.19094,-7.79627 9.42933,-1.25013 17.99573,0.99627 25.7792,6.3296 0.47146,0.32 0.95466,0.61653 1.43786,0.91627 0.0416,0.0288 0.11627,0.004 0.192,0.004 0.35414,-0.5088 0.1792,-1.09226 0.18667,-1.6416 0.0171,-2.4 -0.0747,-4.80426 0.0373,-7.19573 0.0715,-1.38773 -0.45333,-2.17067 -1.62026,-2.87573 -3.80054,-2.30827 -7.8752,-3.8912 -12.2336,-4.76587 -6.57494,-1.3216 -13.20854,-1.6832 -19.81227,-0.43413 -11.01227,2.09173 -18.34987,8.6336 -22.5504,18.7712 -1.63307,3.9456 -2.50773,8.0832 -2.88747,12.30826 -0.6496,7.2256 -0.3328,14.37974 2.1376,21.31307 3.17974,8.91627 8.51734,16.0992 17.27574,20.34133 8.6624,4.19627 17.64586,4.43734 26.61226,1.15414 7.80374,-2.85867 12.68694,-8.68374 15.59574,-16.23787 1.67466,-4.34987 2.416,-8.896 2.61653,-13.51253 0.1376,-3.07414 0.0288,-6.15787 0.0288,-9.49974 z m -12.18667,10.06294 c -0.0459,5.27893 -0.97173,10.16213 -3.99253,14.4832 -1.67467,2.39146 -3.83253,4.29546 -6.5952,5.30773 -6.63787,2.43413 -13.09973,2.13333 -19.0048,-1.96587 -6.17493,-4.29226 -9.06667,-10.53333 -10.2624,-17.82506 13.28747,0 26.43413,0 39.85493,0 z"/><path id="path26" fill="#dc3e15" fill-opacity="1" fill-rule="nonzero" stroke="none" stroke-width="1.067" d="m 641.57867,150.58987 v 9.50826 c 0.76693,0.35414 1.4752,0.19627 2.1632,0.19947 3.96266,0.0384 7.92853,-0.0907 11.88266,0.33387 3.3216,0.3584 6.57174,0.99626 9.63414,2.34986 6.1792,2.73387 9.4368,7.49974 9.9168,14.14187 0.18666,2.592 0.1248,5.18293 -0.51307,7.71627 -1.5744,6.25813 -5.7952,9.78346 -12.03733,11.05066 -8.88747,1.79947 -17.1296,0.112 -24.73387,-4.73813 -0.4288,-0.27093 -0.84907,-0.56213 -1.2704,-0.84587 -0.36267,-0.24533 -0.7296,-0.48746 -1.38773,-0.93333 -0.016,2.08747 -0.0331,3.9296 -0.0416,5.77067 -0.009,1.82506 0,3.6544 0,5.52106 3.50826,2.14187 7.23306,3.57974 11.17546,4.47894 7.38347,1.68426 14.816,2.1088 22.21227,0.21333 7.392,-1.89653 13.20853,-5.94667 16.67093,-12.86293 2.28694,-4.57494 2.52907,-9.47094 2.0128,-14.43307 -0.3008,-2.90453 -1.03786,-5.7088 -2.30826,-8.36267 -2.48747,-5.19573 -6.5792,-8.77866 -11.74187,-11.23733 -1.54987,-0.73387 -3.19147,-1.27893 -4.79573,-1.90827 -0.39574,-0.15466 -0.90027,-0.1088 -1.184,-0.69973 2.44586,-0.42133 4.86293,-0.82987 7.16693,-1.67147 7.89547,-2.87893 13.904,-7.87093 15.90827,-16.12906 2.65386,-10.9248 0.0288,-20.67094 -8.5248,-28.4544 -4.98347,-4.52907 -10.98347,-7.104 -17.62134,-8.18347 -8.4288,-1.37067 -16.80426,-1.12 -25.0624,1.21707 -2.40426,0.67946 -4.6784,1.66613 -6.8576,2.88746 -0.65493,0.36694 -1.088,0.75414 -1.07946,1.6 0.0459,3.65867 0.0331,7.32054 0.0501,10.98774 0,0.10026 0.11627,0.19946 0.2496,0.40853 0.56213,-0.37547 1.12533,-0.75413 1.68747,-1.13387 9.52533,-6.36693 19.904,-8.208 31.07946,-5.60426 3.01654,0.704 5.7376,2.10453 8.15787,4.0416 3.99147,3.20426 6.1216,7.3792 6.5504,12.39573 0.22933,2.65067 0.0875,5.28747 -0.61653,7.888 -1.16694,4.304 -3.68747,7.5712 -7.51254,9.88693 -3.38346,2.04587 -7.12106,3.0592 -10.99626,3.68747 -5.26614,0.8544 -10.57494,0.7008 -15.8784,0.72107 -0.75094,0 -1.52534,-0.15787 -2.3552,0.192 z"/><path id="path28" fill="#dc3e15" fill-opacity="1" fill-rule="nonzero" stroke="none" stroke-width="1.067" d="m 528.11627,173.58187 v -11.67574 c -0.80747,0 -1.29494,0.5632 -1.87094,0.90027 -5.34933,3.1712 -11.0912,4.75413 -17.36213,4.41707 -9.2288,-0.50027 -15.87947,-4.99627 -20.39147,-12.79254 -2.02453,-3.504 -3.11253,-7.32906 -3.53706,-11.31626 -0.58347,-5.44534 -0.36694,-10.85014 1.35786,-16.10774 3.28747,-10.0128 11.81654,-16.176 22.47894,-16.36693 6.3424,-0.11733 12.10026,1.60853 17.3792,5.02507 0.5248,0.33706 0.97066,0.816 1.7664,0.9664 V 105.7984 c -0.2368,-0.38827 -0.79147,-0.59627 -1.29494,-0.8416 -11.52533,-5.521067 -23.24586,-6.1088 -34.97173,-0.83733 -8.416,3.7824 -13.9456,10.41173 -16.8288,18.9824 -3.9744,11.82933 -3.39627,23.60853 2.22507,34.79253 5.72053,11.37493 15.37066,17.5744 28.112,19.09547 6.69226,0.79573 13.27146,0.35413 19.6544,-1.9296 1.07946,-0.3872 2.15466,-0.7872 3.2832,-1.4784 z"/><path id="path30" fill="#dc3e15" fill-opacity="1" fill-rule="nonzero" stroke="none" stroke-width="1.067" d="m 460.1248,102.34027 h -11.37493 c -0.4288,1.42826 -0.5952,69.09546 -0.208,72.8832 1.37066,0.33706 8.92906,0.43306 11.57866,0.14506 0.2624,-1.46666 0.29654,-70.99946 0.004,-73.02826 z"/><path id="path32" fill="#dc3e15" fill-opacity="1" fill-rule="nonzero" stroke="none" stroke-width="1.067" d="m 446.77547,201.86453 c 0.0832,4.304 3.55413,7.53387 7.9872,7.42934 4.4288,-0.10454 7.74933,-3.49974 7.6288,-7.79627 -0.12054,-4.2496 -3.6704,-7.53707 -8.0416,-7.4496 -4.45014,0.0917 -7.65867,3.40053 -7.5744,7.81653 z"/></g></g></svg>