<svg xmlns="http://www.w3.org/2000/svg" xmlns:svg="http://www.w3.org/2000/svg" id="svg2" width="744" height="744" version="1.1" viewBox="0 0 744 744" xml:space="preserve"><metadata id="metadata8"/><defs id="defs6"><clipPath id="clipPath16" clipPathUnits="userSpaceOnUse"><path id="path18" d="M 0,311.111 H 595.275 V 0 H 0 Z"/></clipPath><linearGradient id="linearGradient110" x1="0" x2="1" y1="0" y2="0" gradientTransform="matrix(-1.53e-5,-283.33377,283.33377,-1.53e-5,288.49414,255.22168)" gradientUnits="userSpaceOnUse" spreadMethod="pad"><stop id="stop112" offset="0" stop-color="#bed5e1" stop-opacity="1"/><stop id="stop114" offset="1" stop-color="#567b8f" stop-opacity="1"/></linearGradient><clipPath id="clipPath122" clipPathUnits="userSpaceOnUse"><path id="path124" d="M 0,311.111 H 595.275 V 0 H 0 Z"/></clipPath><linearGradient id="linearGradient142" x1="0" x2="1" y1="0" y2="0" gradientTransform="matrix(-1.53e-5,-283.33743,283.33743,-1.53e-5,251.21094,255.22314)" gradientUnits="userSpaceOnUse" spreadMethod="pad"><stop id="stop144" offset="0" stop-color="#bed5e1" stop-opacity="1"/><stop id="stop146" offset="1" stop-color="#567b8f" stop-opacity="1"/></linearGradient><clipPath id="clipPath154" clipPathUnits="userSpaceOnUse"><path id="path156" d="M 0,311.111 H 595.275 V 0 H 0 Z"/></clipPath><linearGradient id="linearGradient174" x1="0" x2="1" y1="0" y2="0" gradientTransform="matrix(-1.53e-5,-283.3385,283.3385,-1.53e-5,293.22461,255.22314)" gradientUnits="userSpaceOnUse" spreadMethod="pad"><stop id="stop176" offset="0" stop-color="#bed5e1" stop-opacity="1"/><stop id="stop178" offset="1" stop-color="#567b8f" stop-opacity="1"/></linearGradient><clipPath id="clipPath186" clipPathUnits="userSpaceOnUse"><path id="path188" d="M 0,311.111 H 595.275 V 0 H 0 Z"/></clipPath><linearGradient id="linearGradient206" x1="0" x2="1" y1="0" y2="0" gradientTransform="matrix(-1.53e-5,-283.33185,283.33185,-1.53e-5,375.33301,255.22168)" gradientUnits="userSpaceOnUse" spreadMethod="pad"><stop id="stop208" offset="0" stop-color="#bed5e1" stop-opacity="1"/><stop id="stop210" offset="1" stop-color="#567b8f" stop-opacity="1"/></linearGradient><clipPath id="clipPath218" clipPathUnits="userSpaceOnUse"><path id="path220" d="M 0,311.111 H 595.275 V 0 H 0 Z"/></clipPath><linearGradient id="linearGradient238" x1="0" x2="1" y1="0" y2="0" gradientTransform="matrix(-1.53e-5,-283.33115,283.33115,-1.53e-5,334.49219,255.22168)" gradientUnits="userSpaceOnUse" spreadMethod="pad"><stop id="stop240" offset="0" stop-color="#bed5e1" stop-opacity="1"/><stop id="stop242" offset="1" stop-color="#567b8f" stop-opacity="1"/></linearGradient><clipPath id="clipPath250" clipPathUnits="userSpaceOnUse"><path id="path252" d="M 0,311.111 H 595.275 V 0 H 0 Z"/></clipPath><linearGradient id="linearGradient270" x1="0" x2="1" y1="0" y2="0" gradientTransform="matrix(-1.53e-5,-283.34006,283.34006,-1.53e-5,458.42578,255.2251)" gradientUnits="userSpaceOnUse" spreadMethod="pad"><stop id="stop272" offset="0" stop-color="#bed5e1" stop-opacity="1"/><stop id="stop274" offset="1" stop-color="#567b8f" stop-opacity="1"/></linearGradient><clipPath id="clipPath282" clipPathUnits="userSpaceOnUse"><path id="path284" d="M 0,311.111 H 595.275 V 0 H 0 Z"/></clipPath><linearGradient id="linearGradient302" x1="0" x2="1" y1="0" y2="0" gradientTransform="matrix(-1.53e-5,-283.33447,283.33447,-1.53e-5,413.16211,255.22266)" gradientUnits="userSpaceOnUse" spreadMethod="pad"><stop id="stop304" offset="0" stop-color="#bed5e1" stop-opacity="1"/><stop id="stop306" offset="1" stop-color="#567b8f" stop-opacity="1"/></linearGradient><clipPath id="clipPath314" clipPathUnits="userSpaceOnUse"><path id="path316" d="M 0,311.111 H 595.275 V 0 H 0 Z"/></clipPath><linearGradient id="linearGradient334" x1="0" x2="1" y1="0" y2="0" gradientTransform="matrix(-1.53e-5,-283.34335,283.34335,-1.53e-5,290.76172,255.22607)" gradientUnits="userSpaceOnUse" spreadMethod="pad"><stop id="stop336" offset="0" stop-color="#bed5e1" stop-opacity="1"/><stop id="stop338" offset="1" stop-color="#567b8f" stop-opacity="1"/></linearGradient><clipPath id="clipPath346" clipPathUnits="userSpaceOnUse"><path id="path348" d="M 0,311.111 H 595.275 V 0 H 0 Z"/></clipPath><linearGradient id="linearGradient366" x1="0" x2="1" y1="0" y2="0" gradientTransform="matrix(-1.53e-5,-283.33578,283.33578,-1.53e-5,346.77344,255.22314)" gradientUnits="userSpaceOnUse" spreadMethod="pad"><stop id="stop368" offset="0" stop-color="#bed5e1" stop-opacity="1"/><stop id="stop370" offset="1" stop-color="#567b8f" stop-opacity="1"/></linearGradient><clipPath id="clipPath378" clipPathUnits="userSpaceOnUse"><path id="path380" d="M 0,311.111 H 595.275 V 0 H 0 Z"/></clipPath></defs><g id="g10" transform="matrix(1.6361649,0,0,-1.6361649,-102.46171,643.22476)"><g id="g12"><g id="g14" clip-path="url(#clipPath16)"><g id="g20" transform="translate(97.312,105.3145)"><path id="path22" fill="#e76e34" fill-opacity="1" fill-rule="nonzero" stroke="none" d="m 0,0 c -10.683,0 -19.374,-8.691 -19.374,-19.374 0,-10.683 8.691,-19.374 19.374,-19.374 10.683,0 19.374,8.691 19.374,19.374 C 19.374,-8.691 10.683,0 0,0 m 0,-43.998 c -13.578,0 -24.624,11.046 -24.624,24.624 0,13.578 11.046,24.624 24.624,24.624 13.578,0 24.624,-11.046 24.624,-24.624 0,-13.578 -11.046,-24.624 -24.624,-24.624"/></g><g id="g24" transform="translate(97.312,67.1914)"><path id="path26" fill="#e76e34" fill-opacity="1" fill-rule="nonzero" stroke="none" d="m 0,0 c -10.338,0 -18.749,8.411 -18.749,18.749 0,10.338 8.411,18.749 18.749,18.749 10.338,0 18.749,-8.411 18.749,-18.749 C 18.749,8.411 10.338,0 0,0 m 0,43.998 c -13.922,0 -25.249,-11.327 -25.249,-25.249 C -25.249,4.827 -13.922,-6.5 0,-6.5 13.922,-6.5 25.249,4.827 25.249,18.749 25.249,32.671 13.922,43.998 0,43.998 M 0,-1.25 c 11.027,0 19.999,8.972 19.999,19.999 0,11.027 -8.972,19.999 -19.999,19.999 -11.027,0 -19.999,-8.972 -19.999,-19.999 C -19.999,7.722 -11.027,-1.25 0,-1.25 m 0,43.998 c 13.233,0 23.999,-10.766 23.999,-23.999 C 23.999,5.516 13.233,-5.25 0,-5.25 c -13.233,0 -23.999,10.766 -23.999,23.999 0,13.233 10.766,23.999 23.999,23.999"/></g><g id="g28" transform="translate(364.8252,105.3164)"><path id="path30" fill="#567b8f" fill-opacity="1" fill-rule="nonzero" stroke="none" d="m 0,0 c -10.684,0 -19.376,-8.692 -19.376,-19.376 0,-10.684 8.692,-19.376 19.376,-19.376 10.684,0 19.376,8.692 19.376,19.376 C 19.376,-8.692 10.684,0 0,0 m 0,-44.002 c -13.579,0 -24.626,11.047 -24.626,24.626 0,13.579 11.047,24.626 24.626,24.626 13.579,0 24.626,-11.047 24.626,-24.626 0,-13.579 -11.047,-24.626 -24.626,-24.626"/></g><g id="g32" transform="translate(364.8252,67.1895)"><path id="path34" fill="#567b8f" fill-opacity="1" fill-rule="nonzero" stroke="none" d="m 0,0 c -10.339,0 -18.751,8.412 -18.751,18.751 0,10.339 8.412,18.751 18.751,18.751 10.339,0 18.751,-8.412 18.751,-18.751 C 18.751,8.412 10.339,0 0,0 m 0,44.002 c -13.924,0 -25.251,-11.327 -25.251,-25.251 C -25.251,4.827 -13.924,-6.5 0,-6.5 13.924,-6.5 25.251,4.827 25.251,18.751 25.251,32.675 13.924,44.002 0,44.002 M 0,-1.25 c 11.028,0 20.001,8.973 20.001,20.001 0,11.028 -8.973,20.001 -20.001,20.001 -11.028,0 -20.001,-8.973 -20.001,-20.001 C -20.001,7.723 -11.028,-1.25 0,-1.25 m 0,44.002 c 13.234,0 24.001,-10.767 24.001,-24.001 C 24.001,5.517 13.234,-5.25 0,-5.25 c -13.234,0 -24.001,10.767 -24.001,24.001 0,13.234 10.767,24.001 24.001,24.001"/></g><g id="g36" transform="translate(149.436,61.3232)"><path id="path38" fill="#e76e34" fill-opacity="1" fill-rule="nonzero" stroke="none" d="m 0,0 c -9.235,0 -16.748,7.513 -16.748,16.748 v 30.699 h 5.25 V 16.748 C -11.498,10.408 -6.34,5.25 0,5.25 c 6.341,0 11.5,5.158 11.5,11.498 v 30.699 h 5.25 V 16.748 C 16.75,7.513 9.236,0 0,0"/></g><g id="g40" transform="translate(166.811,109.3955)"><path id="path42" fill="#e76e34" fill-opacity="1" fill-rule="nonzero" stroke="none" d="m 0,0 h -1.25 -4 -1.25 v -1.25 -30.074 c 0,-5.995 -4.878,-10.873 -10.875,-10.873 -5.996,0 -10.873,4.878 -10.873,10.873 V -1.25 0 h -1.25 -4 -1.25 v -1.25 -30.074 c 0,-9.579 7.793,-17.373 17.373,-17.373 9.581,0 17.375,7.794 17.375,17.373 L 0,-1.25 Z m -1.25,-1.25 v -30.074 c 0,-8.891 -7.234,-16.123 -16.125,-16.123 -8.89,0 -16.123,7.232 -16.123,16.123 V -1.25 h 4 v -30.074 c 0,-6.685 5.438,-12.123 12.123,-12.123 6.686,0 12.125,5.438 12.125,12.123 V -1.25 h 4"/></g><g id="g44" transform="translate(177.686,61.3232)"><path id="path46" fill="#e76e34" fill-opacity="1" fill-rule="nonzero" stroke="none" d="m 0,0 c -9.236,0 -16.75,7.513 -16.75,16.748 v 30.699 h 5.25 V 16.748 C -11.5,10.408 -6.341,5.25 0,5.25 c 6.341,0 11.5,5.158 11.5,11.498 v 30.699 h 5.25 V 16.748 C 16.75,7.513 9.236,0 0,0"/></g><g id="g48" transform="translate(195.061,109.3955)"><path id="path50" fill="#e76e34" fill-opacity="1" fill-rule="nonzero" stroke="none" d="m 0,0 h -1.25 -4 -1.25 v -1.25 -30.074 c 0,-5.995 -4.878,-10.873 -10.875,-10.873 -5.997,0 -10.875,4.878 -10.875,10.873 V -1.25 0 h -1.25 -4 -1.25 v -1.25 -30.074 c 0,-9.579 7.794,-17.373 17.375,-17.373 9.581,0 17.375,7.794 17.375,17.373 V -1.25 Z m -1.25,-1.25 v -30.074 c 0,-8.891 -7.233,-16.123 -16.125,-16.123 -8.892,0 -16.125,7.232 -16.125,16.123 V -1.25 h 4 v -30.074 c 0,-6.685 5.439,-12.123 12.125,-12.123 6.686,0 12.125,5.438 12.125,12.123 V -1.25 h 4"/></g><g id="g52" transform="translate(333.7012,61.3232)"><path id="path54" fill="#567b8f" fill-opacity="1" fill-rule="nonzero" stroke="none" d="m 0,0 c -9.235,0 -16.748,7.513 -16.748,16.748 v 70.703 h 5.25 V 16.748 C -11.498,10.408 -6.34,5.25 0,5.25 H 0.625 V 0 Z"/></g><g id="g56" transform="translate(322.8281,149.3994)"><path id="path58" fill="#567b8f" fill-opacity="1" fill-rule="nonzero" stroke="none" d="m 0,0 h -1.25 -4 -1.25 v -1.25 -70.078 c 0,-9.579 7.794,-17.373 17.373,-17.373 h 1.25 v 1.25 4 1.25 h -1.25 C 4.878,-82.201 0,-77.323 0,-71.328 V -1.25 Z m -1.25,-1.25 v -70.078 c 0,-6.685 5.438,-12.123 12.123,-12.123 v -4 c -8.891,0 -16.123,7.232 -16.123,16.123 V -1.25 h 4"/></g><g id="g60" transform="translate(249.6938,63.3174)"><path id="path62" fill="#e76e34" fill-opacity="1" fill-rule="nonzero" stroke="none" d="m 0,0 v 22.826 c 0,10.684 -8.692,19.375 -19.377,19.375 -10.684,0 -19.375,-8.691 -19.375,-19.375 V 0 h -5.25 v 22.826 c 0,13.578 11.047,24.625 24.625,24.625 13.58,0 24.627,-11.047 24.627,-24.625 L 5.25,0 Z"/></g><g id="g64" transform="translate(230.3169,111.3936)"><path id="path66" fill="#e76e34" fill-opacity="1" fill-rule="nonzero" stroke="none" d="m 0,0 c -13.923,0 -25.25,-11.327 -25.25,-25.25 v -22.201 -1.25 h 1.25 4 1.25 v 1.25 22.201 c 0,10.339 8.411,18.75 18.75,18.75 10.34,0 18.752,-8.411 18.752,-18.75 v -22.201 -1.25 h 1.25 4 1.25 v 1.25 22.201 C 25.252,-11.327 13.924,0 0,0 m 0,-1.25 c 13.235,0 24.002,-10.767 24.002,-24 v -22.201 h -4 v 22.201 c 0,11.028 -8.973,20 -20.002,20 -11.028,0 -20,-8.972 -20,-20 v -22.201 h -4 v 22.201 c 0,13.233 10.766,24 24,24"/></g><g id="g68" transform="translate(423.3223,61.3174)"><path id="path70" fill="#567b8f" fill-opacity="1" fill-rule="nonzero" stroke="none" d="m 0,0 c -13.578,0 -24.625,11.046 -24.625,24.623 v 22.83 h 5.25 V 24.623 C -19.375,13.94 -10.684,5.25 0,5.25 c 10.685,0 19.377,8.69 19.377,19.373 v 22.83 h 5.25 V 24.623 C 24.627,11.046 13.579,0 0,0"/></g><g id="g72" transform="translate(448.5742,109.3955)"><path id="path74" fill="#567b8f" fill-opacity="1" fill-rule="nonzero" stroke="none" d="m 0,0 h -1.25 -4 -1.25 v -1.25 -22.205 c 0,-10.338 -8.412,-18.748 -18.752,-18.748 -10.339,0 -18.75,8.41 -18.75,18.748 V -1.25 0 h -1.25 -4 -1.25 v -1.25 -22.205 c 0,-13.922 11.327,-25.248 25.25,-25.248 13.924,0 25.252,11.326 25.252,25.248 L 0,-1.25 Z m -1.25,-1.25 v -22.205 c 0,-13.233 -10.768,-23.998 -24.002,-23.998 -13.233,0 -24,10.765 -24,23.998 V -1.25 h 4 v -22.205 c 0,-11.027 8.972,-19.998 20,-19.998 11.029,0 20.002,8.971 20.002,19.998 V -1.25 h 4"/></g><g id="g76" transform="translate(303.1455,61.3174)"><path id="path78" fill="#567b8f" fill-opacity="1" fill-rule="nonzero" stroke="none" d="M 0,0 C -20.838,0 -37.792,16.952 -37.792,37.789 -37.792,58.627 -20.838,75.58 0,75.58 H 0.625 V 70.33 H 0 C -17.943,70.33 -32.542,55.732 -32.542,37.789 -32.542,19.847 -17.943,5.25 0,5.25 H 0.625 V 0 Z"/></g><g id="g80" transform="translate(304.3955,137.5225)"><path id="path82" fill="#567b8f" fill-opacity="1" fill-rule="nonzero" stroke="none" d="m 0,0 h -1.25 c -21.183,0 -38.417,-17.233 -38.417,-38.416 0,-21.182 17.234,-38.414 38.417,-38.414 H 0 v 1.25 4 1.25 h -1.25 c -17.599,0 -31.917,14.316 -31.917,31.914 0,17.599 14.318,31.916 31.917,31.916 H 0 v 1.25 4 z m -1.25,-1.25 v -4 c -18.288,0 -33.167,-14.878 -33.167,-33.166 0,-18.287 14.879,-33.164 33.167,-33.164 v -4 c -20.494,0 -37.167,16.672 -37.167,37.164 0,20.493 16.673,37.166 37.167,37.166"/></g><path id="path84" fill="#567b8f" fill-opacity="1" fill-rule="nonzero" stroke="none" d="m 501.971,148.774 h 5.25 v -41.422 h -5.25 z"/><g id="g86" transform="translate(507.8457,149.3994)"><path id="path88" fill="#567b8f" fill-opacity="1" fill-rule="nonzero" stroke="none" d="m 0,0 h -1.25 -4 -1.25 v -1.25 -40.172 -1.25 h 1.25 4 H 0 v 1.25 40.172 z m -1.25,-41.422 h -4 V -1.25 h 4 z"/></g><g id="g90" transform="translate(482.3906,105.3271)"><path id="path92" fill="#567b8f" fill-opacity="1" fill-rule="nonzero" stroke="none" d="m 0,0 c -10.686,0 -19.378,-8.691 -19.378,-19.375 0,-10.683 8.691,-19.373 19.375,-19.373 h 7.849 c 5.079,0 11.622,5.438 11.733,11.551 0.11,6.017 0.043,21.628 0.014,27.219 z m -0.003,-43.998 c -13.578,0 -24.625,11.046 -24.625,24.623 0,13.578 11.047,24.625 24.625,24.625 L 24.813,5.278 24.83,2.536 c 0.022,-3.779 0.123,-22.977 -10e-4,-29.829 -0.169,-9.254 -9.43,-16.705 -16.983,-16.705 z"/></g><g id="g94" transform="translate(482.3877,67.2041)"><path id="path96" fill="#567b8f" fill-opacity="1" fill-rule="nonzero" stroke="none" d="m 0,0 c -10.339,0 -18.75,8.41 -18.75,18.748 0,10.339 8.412,18.75 18.752,18.75 l 18.973,0.023 C 19.005,31.473 19.063,16.738 18.957,10.937 18.854,5.304 12.612,0 7.849,0 Z M 25.437,44.026 24.193,44.025 -0.001,43.998 C -13.923,43.998 -25.25,32.671 -25.25,18.748 -25.25,4.826 -13.923,-6.5 0,-6.5 h 7.849 c 7.832,0 17.432,7.726 17.608,17.319 0.124,6.862 0.022,26.067 10e-4,29.847 l -10e-4,0.126 -0.013,1.991 z M 0,-1.25 h 7.849 c 5.349,0 12.241,5.728 12.358,12.164 0.112,6.121 0.041,22.212 0.011,27.857 L 0.002,38.748 C -11.028,38.748 -20,29.776 -20,18.748 -20,7.721 -11.028,-1.25 0,-1.25 m 24.194,44.025 0.013,-1.989 c 10e-4,-0.223 0.136,-22.454 0,-29.944 C 24.044,1.928 15.125,-5.25 7.849,-5.25 H 0 c -13.233,0 -24,10.766 -24,23.998 0,13.233 10.767,24 24,24 l 24.194,0.027"/></g></g></g><g id="g98"><g id="g100"><g id="g106"><g id="g108"><path id="path116" fill="url(#linearGradient110)" stroke="none" d="m 268.162,232.2 c 0,-11.229 9.103,-20.332 20.332,-20.332 v 0 c 11.229,0 20.332,9.103 20.332,20.332 v 0 c 0,11.228 -9.103,20.332 -20.332,20.332 v 0 c -11.229,0 -20.332,-9.104 -20.332,-20.332"/></g></g></g></g><g id="g118"><g id="g120" clip-path="url(#clipPath122)"><g id="g126" transform="translate(288.4941,250.5322)"><path id="path128" fill="#fff" fill-opacity="1" fill-rule="nonzero" stroke="none" d="m 0,0 c -10.108,0 -18.332,-8.224 -18.332,-18.332 0,-10.108 8.224,-18.332 18.332,-18.332 10.108,0 18.332,8.224 18.332,18.332 C 18.332,-8.224 10.108,0 0,0 m 0,-40.664 c -12.314,0 -22.332,10.018 -22.332,22.332 C -22.332,-6.018 -12.314,4 0,4 12.313,4 22.332,-6.018 22.332,-18.332 22.332,-30.646 12.313,-40.664 0,-40.664"/></g></g></g><g id="g130"><g id="g132"><g id="g138"><g id="g140"><path id="path148" fill="url(#linearGradient142)" stroke="none" d="m 213.969,161.534 c 0,-20.568 16.674,-37.242 37.242,-37.242 v 0 c 20.568,0 37.242,16.674 37.242,37.242 v 0 c 0,20.568 -16.674,37.243 -37.242,37.243 v 0 c -20.568,0 -37.242,-16.675 -37.242,-37.243"/></g></g></g></g><g id="g150"><g id="g152" clip-path="url(#clipPath154)"><g id="g158" transform="translate(251.2109,196.7764)"><path id="path160" fill="#fff" fill-opacity="1" fill-rule="nonzero" stroke="none" d="m 0,0 c -19.433,0 -35.242,-15.81 -35.242,-35.242 0,-19.433 15.809,-35.242 35.242,-35.242 19.433,0 35.242,15.809 35.242,35.242 C 35.242,-15.81 19.433,0 0,0 m 0,-74.484 c -21.638,0 -39.242,17.603 -39.242,39.242 C -39.242,-13.604 -21.638,4 0,4 21.638,4 39.242,-13.604 39.242,-35.242 39.242,-56.881 21.638,-74.484 0,-74.484"/></g></g></g><g id="g162"><g id="g164"><g id="g170"><g id="g172"><path id="path180" fill="url(#linearGradient174)" stroke="none" d="m 252.964,186.315 c 0,-22.236 18.025,-40.261 40.261,-40.261 v 0 c 22.236,0 40.261,18.025 40.261,40.261 v 0 c 0,22.236 -18.025,40.261 -40.261,40.261 v 0 c -22.236,0 -40.261,-18.025 -40.261,-40.261"/></g></g></g></g><g id="g182"><g id="g184" clip-path="url(#clipPath186)"><g id="g190" transform="translate(293.2251,224.5762)"><path id="path192" fill="#fff" fill-opacity="1" fill-rule="nonzero" stroke="none" d="m 0,0 c -21.097,0 -38.261,-17.164 -38.261,-38.261 0,-21.097 17.164,-38.261 38.261,-38.261 21.097,0 38.261,17.164 38.261,38.261 C 38.261,-17.164 21.097,0 0,0 m 0,-80.522 c -23.303,0 -42.261,18.958 -42.261,42.261 C -42.261,-14.958 -23.303,4 0,4 23.303,4 42.261,-14.958 42.261,-38.261 42.261,-61.564 23.303,-80.522 0,-80.522"/></g></g></g><g id="g194"><g id="g196"><g id="g202"><g id="g204"><path id="path212" fill="url(#linearGradient206)" stroke="none" d="m 338.092,202.639 c 0,-20.568 16.674,-37.242 37.242,-37.242 v 0 c 20.568,0 37.242,16.674 37.242,37.242 v 0 c 0,20.568 -16.674,37.242 -37.242,37.242 v 0 c -20.568,0 -37.242,-16.674 -37.242,-37.242"/></g></g></g></g><g id="g214"><g id="g216" clip-path="url(#clipPath218)"><g id="g222" transform="translate(375.334,237.8809)"><path id="path224" fill="#fff" fill-opacity="1" fill-rule="nonzero" stroke="none" d="m 0,0 c -19.433,0 -35.242,-15.81 -35.242,-35.242 0,-19.432 15.809,-35.241 35.242,-35.241 19.433,0 35.242,15.809 35.242,35.241 C 35.242,-15.81 19.433,0 0,0 m 0,-74.483 c -21.639,0 -39.242,17.603 -39.242,39.241 C -39.242,-13.604 -21.639,4 0,4 21.639,4 39.242,-13.604 39.242,-35.242 39.242,-56.88 21.639,-74.483 0,-74.483"/></g></g></g><g id="g226"><g id="g228"><g id="g234"><g id="g236"><path id="path244" fill="url(#linearGradient238)" stroke="none" d="m 297.252,231.608 c 0,-20.569 16.673,-37.242 37.241,-37.242 v 0 c 20.568,0 37.241,16.673 37.241,37.242 v 0 c 0,20.567 -16.673,37.24 -37.241,37.24 v 0 c -20.568,0 -37.241,-16.673 -37.241,-37.24"/></g></g></g></g><g id="g246"><g id="g248" clip-path="url(#clipPath250)"><g id="g254" transform="translate(334.4932,266.8477)"><path id="path256" fill="#fff" fill-opacity="1" fill-rule="nonzero" stroke="none" d="m 0,0 c -19.432,0 -35.241,-15.809 -35.241,-35.24 0,-19.432 15.809,-35.241 35.241,-35.241 19.432,0 35.241,15.809 35.241,35.241 C 35.241,-15.809 19.432,0 0,0 m 0,-74.481 c -21.638,0 -39.241,17.603 -39.241,39.241 C -39.241,-13.603 -21.638,4 0,4 21.638,4 39.241,-13.603 39.241,-35.24 39.241,-56.878 21.638,-74.481 0,-74.481"/></g></g></g><g id="g258"><g id="g260"><g id="g266"><g id="g268"><path id="path276" fill="url(#linearGradient270)" stroke="none" d="m 437.127,147.154 c 0,-11.764 9.536,-21.301 21.3,-21.301 v 0 c 11.764,0 21.3,9.537 21.3,21.301 v 0 c 0,11.763 -9.536,21.299 -21.3,21.299 v 0 c -11.764,0 -21.3,-9.536 -21.3,-21.299"/></g></g></g></g><g id="g278"><g id="g280" clip-path="url(#clipPath282)"><g id="g286" transform="translate(458.4268,166.4531)"><path id="path288" fill="#fff" fill-opacity="1" fill-rule="nonzero" stroke="none" d="m 0,0 c -10.642,0 -19.3,-8.658 -19.3,-19.3 0,-10.641 8.658,-19.3 19.3,-19.3 10.642,0 19.3,8.659 19.3,19.3 C 19.3,-8.658 10.642,0 0,0 m 0,-42.6 c -12.848,0 -23.3,10.453 -23.3,23.3 C -23.3,-6.452 -12.848,4 0,4 12.848,4 23.3,-6.452 23.3,-19.3 23.3,-32.147 12.848,-42.6 0,-42.6"/></g></g></g><g id="g290"><g id="g292"><g id="g298"><g id="g300"><path id="path308" fill="url(#linearGradient302)" stroke="none" d="m 372.902,163.548 c 0,-22.235 18.026,-40.261 40.261,-40.261 v 0 c 22.235,0 40.261,18.026 40.261,40.261 v 0 c 0,22.235 -18.026,40.261 -40.261,40.261 v 0 c -22.235,0 -40.261,-18.026 -40.261,-40.261"/></g></g></g></g><g id="g310"><g id="g312" clip-path="url(#clipPath314)"><g id="g318" transform="translate(413.1631,201.8096)"><path id="path320" fill="#fff" fill-opacity="1" fill-rule="nonzero" stroke="none" d="m 0,0 c -21.097,0 -38.261,-17.164 -38.261,-38.262 0,-21.096 17.164,-38.26 38.261,-38.26 21.097,0 38.261,17.164 38.261,38.26 C 38.261,-17.164 21.097,0 0,0 m 0,-80.522 c -23.303,0 -42.261,18.958 -42.261,42.26 C -42.261,-14.958 -23.303,4 0,4 23.303,4 42.261,-14.958 42.261,-38.262 42.261,-61.564 23.303,-80.522 0,-80.522"/></g></g></g><g id="g322"><g id="g324"><g id="g330"><g id="g332"><path id="path340" fill="url(#linearGradient334)" stroke="none" d="m 269.463,145.101 c 0,-11.764 9.536,-21.301 21.299,-21.301 v 0 c 11.763,0 21.299,9.537 21.299,21.301 v 0 c 0,11.763 -9.536,21.298 -21.299,21.298 v 0 c -11.763,0 -21.299,-9.535 -21.299,-21.298"/></g></g></g></g><g id="g342"><g id="g344" clip-path="url(#clipPath346)"><g id="g350" transform="translate(290.7622,164.3994)"><path id="path352" fill="#fff" fill-opacity="1" fill-rule="nonzero" stroke="none" d="m 0,0 c -10.642,0 -19.299,-8.657 -19.299,-19.299 0,-10.641 8.657,-19.3 19.299,-19.3 10.641,0 19.298,8.659 19.298,19.3 C 19.298,-8.657 10.641,0 0,0 m 0,-42.599 c -12.847,0 -23.299,10.453 -23.299,23.3 C -23.299,-6.452 -12.847,4 0,4 12.847,4 23.298,-6.452 23.298,-19.299 c 0,-12.847 -10.451,-23.3 -23.298,-23.3"/></g></g></g><g id="g354"><g id="g356"><g id="g362"><g id="g364"><path id="path372" fill="url(#linearGradient366)" stroke="none" d="m 295.44,175.442 c 0,-28.349 22.983,-51.327 51.334,-51.327 v 0 c 28.349,0 51.334,22.978 51.334,51.327 v 0 c 0,28.351 -22.986,51.334 -51.334,51.334 v 0 c -28.35,0 -51.334,-22.983 -51.334,-51.334"/></g></g></g></g><g id="g374"><g id="g376" clip-path="url(#clipPath378)"><g id="g382" transform="translate(346.7734,224.7754)"><path id="path384" fill="#fff" fill-opacity="1" fill-rule="nonzero" stroke="none" d="m 0,0 c -27.202,0 -49.333,-22.131 -49.333,-49.333 0,-27.199 22.131,-49.328 49.333,-49.328 27.203,0 49.334,22.129 49.334,49.328 C 49.334,-22.131 27.203,0 0,0 m 0,-102.661 c -29.408,0 -53.333,23.923 -53.333,53.328 C -53.333,-19.925 -29.408,4 0,4 29.408,4 53.334,-19.925 53.334,-49.333 53.334,-78.738 29.408,-102.661 0,-102.661"/></g></g></g></g></svg>