<svg xmlns="http://www.w3.org/2000/svg" xmlns:xlink="http://www.w3.org/1999/xlink" id="Layer_1" x="0" y="0" enable-background="new -171 449.9 2216.2 542.1" version="1.1" viewBox="-171 449.9 2216.2 542.1" xml:space="preserve"><style type="text/css">.st0{fill:#2d2d2d}.st1{fill:#fff}</style><g><g id="ypBCnK.tif"><g id="XMLID_1_"><path id="XMLID_125_" d="M99.9,992C-50.4,992-171.2,870.8-171,719.8c0.2-149.5,122.9-272.7,276.3-269.9 c147.8,2.7,268.3,124.4,265.7,276C368.4,874.6,246.6,992.5,99.9,992z M17,845.5c8.8-14.8,17.3-28.9,25.8-43.1 c-56.8-41.5-55.4-124.8-0.1-163.1c-8.5-14.2-17-28.4-25.5-42.6c-1,0.5-1.4,0.6-1.8,0.9c-29.3,20.3-48.9,47.6-59.2,81.7 c-0.9,2.9,0.3,4.5,2.3,6.4c18.9,18.1,20.6,48.1,2.9,67.1c-5.2,5.6-6.2,10.1-3.1,16.4c0.3,0.6,0.5,1.2,0.7,1.9 C-29.9,801.9-10.6,826.5,17,845.5z M58,630.7c31.6-13.1,62.2-12.6,91.6,4.4s45.1,43.3,49.4,76.1c17,0,33.3,0,50,0 c0-1.5,0.1-2.4,0-3.2c-3.2-35.3-17.1-65.7-41.7-91.2c-1-1-3.6-1.3-5.1-0.8c-28,7.8-54.9-7.7-62.3-35.8c-0.5-1.7-2.6-3.9-4.3-4.3 c-34-8.3-67-5.1-98.9,9.5c-1,0.4-1.8,1.2-2.8,1.9C42,601.8,49.9,616.1,58,630.7z M33.6,855.1c33.7,15.9,67.8,19.5,103.2,10.6 c1.3-0.3,2.7-2.3,3-3.8c7.3-28.3,33.9-43.9,61.9-35.9c2.9,0.8,4.5,0.4,6.5-1.7c20-21.3,33-46.2,38.6-74.9 c1.2-6.1,1.7-12.3,2.6-19.1c-17.5,0-33.9,0-50.4,0c-4.3,33.6-20.4,59.7-49.8,76.6c-29.4,16.9-60,17.2-91.2,4.2 C49.9,825.8,41.9,840.2,33.6,855.1z M153,872.7c0,19.5,15.4,35.1,34.7,35.1c19.3,0,34.6-15.6,34.6-35.1 c0-19.2-15.2-34.6-34.4-34.7C168.5,837.8,153,853.3,153,872.7z M153,568.9c0,19.6,15.2,35,34.6,35c19.3,0,34.6-15.2,34.7-34.4 c0.1-19.6-15-35.2-34.3-35.3C168.6,534,153,549.5,153,568.9z M-40.7,721c0-19.6-15.3-34.9-34.8-34.8c-19.4,0-34.9,15.5-34.8,34.9 c0.1,19.1,15.5,34.5,34.6,34.7C-56.2,755.9-40.7,740.4-40.7,721z" class="st0"/><g id="XMLID_2_"><path id="XMLID_108_" d="M17,845.5c-27.7-19-46.9-43.6-58-74.5c-0.2-0.6-0.4-1.3-0.7-1.9 c-3.2-6.3-2.1-10.8,3.1-16.4c17.6-19,15.9-49-2.9-67.1c-2-1.9-3.2-3.4-2.3-6.4c10.3-34.1,29.9-61.4,59.2-81.7 c0.4-0.3,0.9-0.4,1.8-0.9c8.5,14.2,17,28.4,25.5,42.6c-55.3,38.3-56.7,121.6,0.1,163.1C34.4,816.6,25.9,830.7,17,845.5z" class="st1"/><path id="XMLID_107_" d="M58,630.7c-8.1-14.6-16-28.9-24.1-43.4c1-0.7,1.8-1.5,2.8-1.9 c31.9-14.6,64.9-17.8,98.9-9.5c1.7,0.4,3.8,2.6,4.3,4.3c7.4,28.1,34.3,43.7,62.3,35.8c1.5-0.4,4.1-0.2,5.1,0.8 c24.6,25.5,38.5,55.9,41.7,91.2c0.1,0.8,0,1.6,0,3.2c-16.6,0-33,0-50,0c-4.3-32.8-20.1-59.1-49.4-76.1 C120.2,618.1,89.6,617.6,58,630.7z" class="st1"/><path id="XMLID_106_" d="M33.6,855.1c8.3-15,16.3-29.3,24.4-43.9c31.2,13,61.8,12.7,91.2-4.2s45.5-43,49.8-76.6 c16.5,0,32.9,0,50.4,0c-0.9,6.8-1.4,13-2.6,19.1c-5.6,28.7-18.6,53.6-38.6,74.9c-1.9,2.1-3.6,2.5-6.5,1.7 c-28-7.9-54.7,7.7-61.9,35.9c-0.4,1.5-1.8,3.5-3,3.8C101.4,874.7,67.3,871,33.6,855.1z" class="st1"/><path id="XMLID_105_" d="M153,872.7c0-19.4,15.6-34.9,34.9-34.8c19.2,0.1,34.4,15.5,34.4,34.7 c0,19.5-15.4,35.1-34.6,35.1C168.4,907.8,153,892.2,153,872.7z" class="st1"/><path id="XMLID_104_" d="M153,568.9c0-19.4,15.6-34.9,35-34.7c19.3,0.2,34.4,15.7,34.3,35.3 c-0.1,19.2-15.5,34.4-34.7,34.4C168.2,603.9,153,588.5,153,568.9z" class="st1"/><path id="XMLID_103_" d="M-40.7,721c0,19.4-15.5,34.9-34.9,34.8c-19.1-0.1-34.5-15.6-34.6-34.7 c-0.1-19.4,15.3-34.9,34.8-34.9C-56,686.2-40.7,701.4-40.7,721z" class="st1"/></g><path id="XMLID_122_" d="M670.3,610.2c9.9-1.7,19.4-3.3,29.6-5.1c0,29.3,0,58.2,0,86.9c8.8-2.8,17-6.4,25.5-8 c43.3-8,77.1,14,87.1,56.7c5,21.3,4.8,42.7-2.5,63.5c-10.5,29.8-36.3,48.8-67.8,50.7c-23.2,1.4-45.8-1.5-68.3-7.2 c-2.9-0.7-4-2-4-5.1c0.1-76.3,0.1-152.7,0.1-229C670.1,612.7,670.2,611.7,670.3,610.2z M700.1,773.1c0,16,0.1,32-0.1,47.9 c0,3.3,0.8,4.9,4.2,5.1c10.4,0.8,20.9,2.7,31.2,2.4c22.1-0.7,38.4-12.9,44.9-33.3c6.4-20.3,5.8-40.8-2.1-60.6 c-5.5-13.9-16.2-22.4-31.2-24.9c-15.3-2.6-29.3,0.9-42.6,8.6c-3.2,1.9-4.6,4-4.5,7.9C700.3,741.8,700.1,757.5,700.1,773.1z" class="st0"/><path id="XMLID_121_" d="M1313,686.2c9.3,0,18.1-0.1,26.9,0.2c1,0,2.7,2.2,2.7,3.5c0.3,6.3,0.1,12.7,0.1,19 c0.1,23.8-0.2,47.6,0.4,71.4c0.2,8.2,1.8,16.6,3.9,24.5c4,14.6,14.6,22.2,29.2,22.9c11.4,0.6,22.9-0.8,34.4-1.2 c4.4-0.2,5.7-2,5.7-6.5c-0.2-29.6-0.1-59.3-0.1-88.9c0-13.2,0.2-26.3-0.1-39.5c-0.1-4.5,1.4-5.7,5.7-5.5 c7.8,0.3,15.6,0.1,23.8,0.1c0,53.6,0,106.8,0,160.8c-9.3,1.8-18.8,4.5-28.5,5.2c-16.2,1.3-32.6,2.9-48.7,1.6 c-29.9-2.3-47.9-19.7-53.3-49.2c-1.5-8-2.3-16.2-2.3-24.3c-0.3-30-0.1-60-0.1-89.9C1312.7,689.2,1312.9,688.1,1313,686.2z" class="st0"/><path id="XMLID_120_" d="M627.8,847.2c-12.1,2.1-24.3,5.1-36.6,6c-15,1.1-30.4,1.9-45.3,0.1 c-26.7-3.3-43.9-21.2-48.7-48.4c-1.4-7.8-2.2-15.9-2.3-23.8c-0.3-30.2-0.1-60.3-0.1-90.5c0-1.3,0.2-2.6,0.3-4.5 c9.2,0,18.1,0,27.1,0c3.5,0,2.6,2.9,2.6,4.8c0.1,16.8,0,33.7,0,50.5c0,14-0.3,28,0.4,42c0.4,7.4,1.8,14.9,4,22 c4.3,14.2,14.9,21.7,29.3,22.2c11.6,0.5,23.2-1,34.9-1.4c4-0.1,4.8-2.1,4.8-5.7c-0.1-42.7-0.1-85.3-0.1-128c0-2,0-3.9,0-6.2 c10.2,0,19.7,0,29.7,0C627.8,739.9,627.8,793.1,627.8,847.2z" class="st0"/><path id="XMLID_119_" d="M1155.3,851.3c-10.2,0-19.6,0-29.6,0c0-2.3,0-4.2,0-6.2c0-25.5,0.1-51-0.1-76.5 c-0.1-8.8-0.6-17.6-1.7-26.4c-2.7-22.3-14.4-32.9-36.9-32.9c-11.4,0-22.9,1.3-34.9,2.1c0,47.1,0,93.3,0,139.8 c-10.2,0-19.8,0-29.8,0c0-53.3,0-106.5,0-160.6c9-1.7,18.2-3.8,27.5-5.2c18-2.7,36.1-3.8,54.2-1.6c26.1,3.1,44,20,48.8,46.8 c1.5,8.3,2.3,16.8,2.4,25.3c0.3,29.7,0.1,59.3,0.1,89C1155.3,846.8,1155.3,848.8,1155.3,851.3z" class="st0"/><path id="XMLID_118_" d="M846.7,686.5c9.9,0,19.3,0,29.3,0c0.1,2,0.3,3.9,0.3,5.8c0,26.7-0.4,53.3,0.2,80 c0.2,10.9,1.8,21.9,4.4,32.5c3.5,14.2,14,22.1,28.2,22.8c12.5,0.7,25.2-0.9,37.8-1.7c1.1-0.1,2.3-2,3-3.4 c0.5-0.9,0.1-2.3,0.1-3.5c0-42,0-84,0-125.9c0-2,0-4,0-6.4c10,0,19.7,0,29.7,0c0,53.3,0,106.5,0,160c-21.1,5.4-42.4,8.9-64.2,8.1 c-9.9-0.4-20.1-1.2-29.5-4.2c-21.7-6.8-32.8-23.5-37-45c-1.5-7.8-2.3-15.8-2.3-23.8c-0.3-29.7-0.1-59.3-0.1-89 C846.7,690.8,846.7,688.8,846.7,686.5z" class="st0"/><path id="XMLID_115_" d="M2029.8,827.6c1.1,4.9,2.1,9.7,3.2,14.3c0.6,2.5,0,4-2.6,5c-26.7,10.1-53.6,11.5-80.4,1 c-16.7-6.6-28.8-18.7-35-35.6c-10.6-28.9-11.5-58.1,1.1-86.6c12.1-27.4,33.6-42.3,63.8-42.4c34-0.1,57.2,19.9,63,53.6 c1.8,10.4,1.5,21.2,2.3,31.8c0.3,4.3-1.6,5.2-5.5,5.2c-34.5-0.1-69-0.1-103.4-0.1c-1.9,0-3.9,0-5.8,0 c-0.7,25.2,9.8,55.3,41.8,60.4c17.9,2.8,35.5,2.1,52.4-5c1.2-0.5,2.5-1,3.7-1.5C2028.6,827.6,2028.9,827.7,2029.8,827.6z M1930.4,755.6c31.1,0,62,0,93.3,0c-0.7-5.5-0.9-10.6-2-15.6c-3.4-16-10.3-29.9-27.2-35.3c-17.4-5.6-33.3-2.3-46.7,10.5 C1936.6,726,1931.7,739.9,1930.4,755.6z" class="st0"/><path id="XMLID_114_" d="M1223.8,635.1c0,17.3,0,33.8,0,50.9c20.8,0,41.2,0,61.9,0c0,8.8,0,16.8,0,25.4 c-20.5,0-40.7,0-61.2,0c-0.3,1.6-0.6,2.7-0.6,3.7c0.1,27.2,0,54.3,0.4,81.5c0.1,5.1,1.4,10.2,2.8,15.1 c2.9,10.2,10.2,15.2,20.5,16.1c13.1,1.2,20,0,38.8-6.7c2,7.7,4.1,15.3,5.9,22.9c0.2,0.7-1.5,2.4-2.6,2.9 c-19.6,8.2-39.9,10.5-60.6,5.4c-19.6-4.8-31.2-19.8-33.8-42.8c-0.8-7.4-1.3-14.9-1.3-22.4c-0.1-47.2,0-94.3-0.2-141.5 c0-4.1,1-5.8,5.2-6.4C1206.9,638.3,1214.9,636.6,1223.8,635.1z" class="st0"/><path id="XMLID_111_" d="M1635,764.2c0.2-16.5,4.8-37,18.8-54.4c32.9-40.7,97.6-33.9,120.7,13.1 c14.3,28.9,14.5,58.9,2.2,88.5c-11.9,28.7-38.8,45.1-69.3,43.8c-31.1-1.3-55.8-19.4-66.4-48.9 C1636.8,794.4,1634.9,782.1,1635,764.2z M1710.1,702.6c-19,0-34,7.9-42.7,24.6c-14.1,27.1-14.2,55.2-1,82.6 c8.9,18.3,24.8,26.7,45.2,26.1c19.9-0.5,34.6-9.9,42.7-27.8c11.9-26.1,11.8-52.8-0.6-78.6 C1745.3,711.6,1730.1,702.7,1710.1,702.6z" class="st0"/><path id="XMLID_110_" d="M1623.8,827.6c1.3,4.9,2.1,9.4,3.6,13.6c1.2,3.5,0.3,5.1-3,6.4c-16,6-32.5,8.4-49.5,6.9 c-41.9-3.9-62.3-32-66.8-68.1c-2.8-22-1.1-43.6,9-63.8c13.9-28,40.4-41.1,70.6-39c10.7,0.8,21.3,3.3,31.9,5.2 c4.9,0.8,6.7,3.3,4.5,8.3c-1.7,3.9-2.7,8.1-4.1,12.5c-12.9-6.3-26.2-7.5-39.8-6.8c-23.8,1.3-40.1,13.8-46.7,36.7 c-5.5,18.9-5.8,38.2-0.7,57.2c6.3,23.9,23,36.8,49.6,38.9c13,1,25.5-1,37.5-6.3C1620.8,828.7,1622.1,828.3,1623.8,827.6z" class="st0"/><path id="XMLID_109_" d="M1903.3,688.7c-1.5,6.3-2.8,11.9-3.8,16.5c-13-0.8-25.5-2-37.9-2c-6.9,0-13.8,2-20.6,3.1 c-3.6,0.6-4.7,2.5-4.6,6.2c0.2,30.6,0.1,61.3,0.1,91.9c0,13.7,0,27.3,0,41c0,1.8,0,3.6,0,6.2c-6.5,0-12.6,0.1-18.6-0.1 c-0.8,0-1.9-1.5-2.3-2.5s-0.1-2.3-0.1-3.5c0-48.5,0.1-96.9-0.1-145.4c0-4.2,1.4-6.1,5.3-7.5c25-8.9,50.5-11.5,76.6-5.8 C1899,687.3,1900.8,688,1903.3,688.7z" class="st0"/></g></g></g></svg>