<?xml version="1.0" encoding="utf-8"?>
<!-- Generator: Adobe Illustrator 19.0.0, SVG Export Plug-In . SVG Version: 6.00 Build 0)  -->
<svg version="1.1" id="Layer_1" xmlns="http://www.w3.org/2000/svg" xmlns:xlink="http://www.w3.org/1999/xlink" x="0px" y="0px"
	 viewBox="-153 455 2251.1 532" style="enable-background:new -153 455 2251.1 532;" xml:space="preserve">
<style type="text/css">
	.st0{fill:#2D2D2D;}
	.st1{fill:#FFFFFF;}
</style>
<path id="XMLID_125_" class="st0" d="M-152.9,721.8c0-42.8,0.1-85.6-0.1-128.5c0-4.1,1.3-6.1,4.8-8.1
	c74.4-42.9,148.8-85.8,223.1-128.9c3.2-1.9,5.4-1.7,8.5,0.1c74.3,43,148.7,86,223.1,128.8c3.5,2,4.7,4.3,4.7,8.2
	c-0.1,85.6-0.1,171.3,0,256.9c0,4.1-1.3,6.2-4.8,8.2c-72.6,41.8-145,83.7-217.6,125.5c-6.4,3.7-12.9,3.8-19.3,0.1
	c-72.7-41.9-145.3-83.9-218-125.7c-3.3-1.9-4.6-3.9-4.6-7.8C-152.8,807.8-152.9,764.8-152.9,721.8z"/>
<g id="hrbOFo.tif">
	<g id="XMLID_1_">
		<path id="XMLID_121_" class="st1" d="M92.2,742.5c0,22.8,0,45.3,0,68.3c16-2.7,31.3-5.2,46.8-7.9c0,4.5,0,8.2,0,12.2
			c-47.9,8.8-95.5,17.5-143,26.2c0,10.2,0,19.8,0,29.6c1.8-0.2,3.2-0.4,4.7-0.6c52.5-10,104.9-20,157.4-29.8c2.9-0.5,3.3-2,3.6-4.3
			c2.7-19.4,7.3-38.3,16.8-55.6c5.8-10.6,13-20.5,19.2-31c18-30.1,23.8-62.2,15.1-96.4c-14.9-58.8-63.2-100.2-124-105
			c-44-3.5-81.6,11.6-111.8,43.7c-23.2,24.7-35.2,54.4-37,88.3c-1.7,33.6,7.9,62.9,30.7,88c4.5,5,8.5,10.7,11.9,16.6
			c7.8,13.4,11.3,28.3,13.1,43.9c1.6-0.2,3.1-0.2,4.5-0.5c20-3.7,39.9-7.7,59.9-11.1c4.9-0.8,6.4-2.5,6.3-7.5
			c-0.3-20.5-0.1-41-0.1-61.5c0-1.8,0-3.6,0-5.5c3,0,5.4,0,8.1,0c0,23.9,0,47.5,0,71.6c3.3-0.7,6.1-1.3,9.3-2c0-23.5,0-46.6,0-69.8
			C86.6,742.5,88.9,742.5,92.2,742.5z M160.4,853.5C105.2,864,50.5,874.3-4,884.6c0,9.6,0,18.5,0,28c55-10.4,109.6-20.8,164.4-31.1
			C160.4,872,160.4,863,160.4,853.5z M78.6,953.3c0.8,0,1,0.1,1.1,0c26.1-14.9,52.3-29.8,78.4-44.7c1-0.6,2.1-1.8,2.2-2.9
			c0.3-3.4,0.1-6.8,0.1-10.7c-27.8,5.3-54.9,10.5-82.2,15.7c0,14.1,0,27.4,0,40.7C78.2,951.9,78.4,952.5,78.6,953.3z"/>
		<path id="XMLID_95_" class="st0" d="M23.4,801.8c-3.1-8.2-5.1-16.1-8.9-23c-5.8-10.6-11.7-21.6-19.7-30.4
			c-18.9-20.9-25.9-45-23.1-72.3c5-48.1,39.5-85.7,87-95.2c56.8-11.4,114.3,28.4,125,85.3c5,26.7-2.2,50-15.6,72.3
			c-7.2,12-14.3,24-21.6,35.9c-0.7,1.2-2.4,2.2-3.9,2.5c-13.5,3-27,5.7-41.5,8.8c0-3.6,0-6.8,0-10c0-7.3,0.1-14.7-0.1-22
			c-0.1-2.9,1-4.5,3.5-5.9c11.9-6.7,23.6-13.7,35.5-20.3c2.5-1.4,3.4-3.1,3.4-5.9c-0.1-22.3-0.1-44.7,0-67c0-2.7-0.9-4.1-3.2-5.4
			c-19.5-11.1-39-22.3-58.4-33.6c-2.5-1.5-4.3-1.3-6.7,0.1c-19.1,11.1-38.3,22.2-57.5,33.2c-2.5,1.4-3.5,3-3.5,5.9
			c0.1,22.5,0,45,0.2,67.5c0,1.8,1.6,4.3,3.2,5.3c11.8,7.1,23.8,14,35.8,20.8c2.5,1.4,3.5,2.9,3.5,5.9c-0.2,12.3,0,24.7-0.2,37
			c0,1.5-1.1,3.9-2.1,4.2C44.2,797.6,33.7,799.7,23.4,801.8z"/>
		<path id="XMLID_94_" class="st0" d="M40.5,688c0-6-0.2-12,0.1-18c0.1-1.9,1.5-4.4,3-5.4c10.5-6.4,21.2-12.5,32-18.5
			c1.5-0.8,4.2-0.8,5.7,0c10.8,5.9,21.5,12.1,32,18.4c1.6,0.9,3,3.5,3,5.4c0.3,12.3,0.2,24.7,0,37c0,1.6-1.2,3.9-2.5,4.7
			c-10.8,6.5-21.8,12.8-32.9,18.9c-1.4,0.8-3.9,0.6-5.3-0.2c-10.8-6-21.4-12.1-32-18.5c-1.6-1-3-3.5-3.1-5.3
			C40.2,700.3,40.5,694.2,40.5,688z"/>
		<path id="XMLID_120_" class="st0" d="M396.4,587c2.2-0.1,3.5-0.2,4.8-0.2c24.3,0,48.7,0.1,73-0.1c4,0,5.4,1.4,6.1,5.1
			c10.3,52.4,20.6,104.8,31,157.2c0.4,2.2,0.9,4.5,2.1,6.8c1.6-7.8,3.2-15.5,4.7-23.3c9.1-46.9,18.3-93.7,27.3-140.6
			c0.7-3.6,1.9-5.2,6-5.2c21.5,0.2,43,0.1,64.5,0.1c1.6,0,3.3,0,5.1,0c10.8,57.4,21.5,114.2,32.2,171.1c0.4,0,0.7,0,1.1,0
			c11.3-57,22.7-113.9,34-170.9c27.9,0,55.2,0,83.1,0c-0.4,1.7-0.6,3.1-1,4.4C745.7,679.9,721,768.5,696.2,857
			c-0.7,2.4-1.1,4.5-4.7,4.5c-25.5-0.2-51-0.1-76.5-0.1c-0.6,0-1.3-0.2-2.3-0.3c-9.8-55.4-19.6-110.7-29.4-166c-0.3,0-0.7-0.1-1-0.1
			c-9.6,55.4-19.2,110.8-28.8,166.5c-9.6,0-18.8,0-27.9,0c-16.5,0-33-0.1-49.5,0.1c-3.9,0.1-5.5-1.1-6.5-4.8
			c-22.3-82.5-44.7-165-67.1-247.5C400.4,602,398.5,594.8,396.4,587z"/>
		<path id="XMLID_117_" class="st0" d="M791.3,861.4c0-91.8,0-182.8,0-274.3c1.9-0.1,3.6-0.3,5.4-0.3c45.7,0,91.3-0.4,137,0.1
			c32.2,0.4,61.5,9.4,84.5,33.3c17.3,18,26.8,39.9,31.6,64c5.9,30,5.7,60-2.5,89.6c-12.6,45.1-42.8,72.4-88,82.4
			c-15.2,3.3-31,4.7-46.5,5c-38.3,0.7-76.6,0.2-115,0.2C795.7,861.4,793.7,861.4,791.3,861.4z M875.8,790.5
			c13.8,0,27.3,0.5,40.8-0.1c23.6-1.1,40.8-14.6,48-37.1c4.4-13.7,5.3-27.7,3.8-41.9c-2.7-25.2-17.8-44.2-40.3-50.8
			c-17.1-5-34.6-2.9-52.3-3.3C875.8,701.8,875.8,745.9,875.8,790.5z"/>
		<path id="XMLID_113_" class="st0" d="M1586.4,861.4c0-91.7,0-182.7,0-274.4c1.8-0.1,3.5-0.3,5.3-0.3c42.6,0,85.3-0.2,127.9,0.1
			c17.2,0.1,34.2,2.2,50.1,9.8c22.7,10.8,31.9,29.8,33,53.9c1.2,27-10,46.9-33.6,59.8c-0.6,0.3-1.2,0.6-1.7,1
			c-0.3,0.2-0.4,0.5-0.5,0.7c5.3,2.4,10.7,4.5,15.8,7.3c18.9,10.6,29.2,27.3,32.3,48.4c4.6,31.6-5.2,61.5-35.9,79.2
			c-11.4,6.5-23.7,10.7-36.6,12.4c-9.2,1.2-18.6,1.9-27.9,2c-40.6,0.2-81.3,0.1-122,0.1C1590.6,861.4,1588.6,861.4,1586.4,861.4z
			 M1646.7,814.4c18.1,0,35.9,0.1,53.7,0c8-0.1,16,0,23.9-1c12.6-1.6,23.4-6.7,28.6-19.5c11.1-27.1-5.1-53.3-34.2-54.3
			c-23.4-0.8-46.9-0.3-70.4-0.3c-0.4,0-0.9,0.3-1.5,0.5C1646.7,764.4,1646.7,789,1646.7,814.4z M1646.8,633.8c0,21.7,0,42.6,0,64
			c5.9,0,11.6,0,17.2,0c17-0.1,34,0.4,51-0.4c17.2-0.8,28.3-12.2,29.3-28.3c1.2-19.4-6.5-30.7-25.4-33.6
			c-12.9-1.9-26.2-1.3-39.3-1.6C1668.8,633.6,1658,633.8,1646.8,633.8z"/>
		<path id="XMLID_112_" class="st0" d="M1839.5,770.6c19.6,0,38.6,0,58,0c0.2,1.3,0.6,2.5,0.6,3.7c1.2,21.2,12.1,35.3,31.9,42
			c20.2,6.8,40.7,6.5,60.7-1c16.3-6.1,23.7-18.9,20.7-34.3c-1.7-9.1-7.4-15.7-15.4-19.2c-12-5.2-24.5-9.4-37-13.3
			c-20.5-6.3-41.3-11.4-61.6-18.3c-15-5.1-28-14-37.4-27.3c-20.3-28.8-13.8-72.7,14.3-96.8c18.5-15.9,40.6-23.4,64.4-25.3
			c27.5-2.2,54.2,1.1,79.1,14c28.7,14.9,43.5,41.5,43,73.2c-19.2,0-38.4,0-58.1,0c-0.3-2-0.5-4.1-0.8-6.2
			c-2.8-16.4-12-27.2-28.1-31.6c-14.4-3.9-29-4.7-43.4-0.6c-16.8,4.7-24.6,16.1-23.3,32.4c0.5,6.5,3.1,12.1,8.9,14.7
			c10.7,4.7,21.7,9.1,33,12.5c19,5.6,38.4,9.8,57.4,15.3c18.3,5.3,35.2,13.6,47.8,28.5c23,27.3,21.4,72.7-3.3,100.3
			c-15.1,16.8-34.4,26-56.1,30.4c-35.1,7.1-69.7,6-102.6-9.3c-32.3-15.1-50.1-40.6-52.7-76.4
			C1839.4,775.7,1839.5,773.4,1839.5,770.6z"/>
		<path id="XMLID_109_" class="st0" d="M1294,861.2c0.7-2.1,1.1-3.8,1.7-5.4c33.3-87.9,66.7-175.7,99.9-263.6c1.5-4,3.3-5.6,7.8-5.5
			c17,0.3,34,0.2,51,0c3.7,0,5.6,0.9,6.9,4.6c32.9,88.4,66,176.7,99,265c0.6,1.5,0.9,3.1,1.4,5.2c-2.4,0-4.2,0-6,0
			c-16.8,0-33.7-0.2-50.5,0.1c-4.6,0.1-6.3-1.5-7.6-5.6c-5.6-17.2-11.7-34.3-17.3-51.5c-1.1-3.3-2.6-4.3-6-4.3
			c-31.2,0.1-62.3,0.2-93.5,0c-4,0-5.4,1.5-6.6,5c-5.9,17.3-12.1,34.5-18,51.8c-1.1,3.3-2.6,4.7-6.3,4.6c-17-0.2-34-0.1-51-0.1
			C1297.5,861.4,1296.1,861.3,1294,861.2z M1391.9,755.2c23.9,0,47.2,0,71.1,0c-11.6-33.7-23-67.1-34.9-101.8
			C1415.7,688.2,1403.9,721.4,1391.9,755.2z"/>
		<path id="XMLID_108_" class="st0" d="M1155.1,810.4c44.7,0,88.8,0,133.5,0c-0.5,2-0.8,3.4-1.2,4.7c-4.7,14-9.4,28.1-14,42.1
			c-0.9,2.9-2.1,4.2-5.5,4.2c-56.5-0.1-113-0.1-169.4-0.1c-1,0-2-0.2-3.5-0.3c-0.1-1.8-0.3-3.6-0.3-5.4c0-87.8,0-175.6-0.1-263.4
			c0-4.3,0.9-5.8,5.5-5.7c16.3,0.3,32.7,0.3,49,0c4.8-0.1,6.2,1.2,6.2,6.1c-0.2,70.3-0.1,140.6-0.1,210.9
			C1155.1,805.7,1155.1,807.9,1155.1,810.4z"/>
		<path id="XMLID_107_" class="st0" d="M2075.7,586.8c10.1-2.8,7.4,7.1,11.2,10.2c3.5-3.4,1.2-13.2,11.2-10.1c0,6.1,0,12.1,0,18.5
			c-1.6,0-3,0-4.6,0c0-3.3,0-6.5,0-9.6c-0.3-0.1-0.6-0.2-1-0.3c-0.8,2.2-1.5,4.5-2.6,6.6c-0.8,1.4-2.2,2.4-3.3,3.6
			c-1.1-1.3-2.4-2.4-3.2-3.8c-1-1.9-1.5-4-2.3-6c-3,2.5,2.7,9.7-5.5,9.9C2075.7,599.1,2075.7,593.1,2075.7,586.8z"/>
		<path id="XMLID_106_" class="st0" d="M2074,588.1c-1.6,1.1-3.3,2.3-5.8,4.1c0,3.5,0,8.2,0,13.2c-2,0-3.4,0-5.4,0
			c0-4.7,0-9.5,0-14.4c-1.4-0.2-2.5-0.1-3.2-0.6c-0.9-0.6-1.5-1.6-2.2-2.4c0.8-0.5,1.6-1.5,2.4-1.6c4.3-0.2,8.6-0.1,12.9-0.1
			C2073.1,587,2073.6,587.6,2074,588.1z"/>
	</g>
</g>
<path id="XMLID_102_" class="st1" d="M92.2,742.5c-3.3,0-5.6,0-8.4,0c0,23.2,0,46.2,0,69.8c-3.2,0.7-6,1.3-9.3,2
	c0-24.1,0-47.7,0-71.6c-2.8,0-5.2,0-8.1,0c0,1.9,0,3.7,0,5.5c0,20.5-0.2,41,0.1,61.5c0.1,5-1.5,6.7-6.3,7.5
	c-20,3.5-39.9,7.4-59.9,11.1c-1.4,0.3-2.9,0.3-4.5,0.5c-1.8-15.6-5.3-30.4-13.1-43.9c-3.4-5.9-7.4-11.6-11.9-16.6
	c-22.7-25-32.4-54.4-30.7-88c1.7-34,13.7-63.6,37-88.3c30.2-32.1,67.8-47.2,111.8-43.7c60.9,4.8,109.1,46.1,124,105
	c8.7,34.3,2.8,66.4-15.1,96.4c-6.2,10.4-13.3,20.3-19.2,31c-9.5,17.3-14.2,36.2-16.8,55.6c-0.3,2.3-0.7,3.8-3.6,4.3
	c-52.5,9.8-104.9,19.9-157.4,29.8c-1.4,0.3-2.9,0.4-4.7,0.6c0-9.9,0-19.5,0-29.6c47.6-8.7,95.1-17.4,143-26.2c0-3.9,0-7.7,0-12.2
	c-15.5,2.6-30.8,5.2-46.8,7.9C92.2,787.8,92.2,765.4,92.2,742.5z M23.4,801.8c10.4-2.2,20.8-4.2,31.1-6.7c1-0.2,2.1-2.7,2.1-4.2
	c0.2-12.3,0-24.7,0.2-37c0-2.9-1-4.5-3.5-5.9c-12-6.8-24-13.7-35.8-20.8c-1.6-1-3.2-3.5-3.2-5.3c-0.2-22.5-0.1-45-0.2-67.5
	c0-2.9,1-4.5,3.5-5.9c19.2-11,38.4-22.1,57.5-33.2c2.4-1.4,4.2-1.5,6.7-0.1c19.4,11.3,38.9,22.5,58.4,33.6c2.3,1.3,3.2,2.7,3.2,5.4
	c-0.1,22.3-0.1,44.7,0,67c0,2.8-0.8,4.5-3.4,5.9c-11.9,6.7-23.6,13.6-35.5,20.3c-2.5,1.4-3.6,3-3.5,5.9c0.2,7.3,0.1,14.7,0.1,22
	c0,3.2,0,6.4,0,10c14.5-3,28-5.8,41.5-8.8c1.4-0.3,3.1-1.3,3.9-2.5c7.3-11.9,14.4-23.9,21.6-35.9c13.5-22.3,20.7-45.5,15.6-72.3
	c-10.7-56.9-68.2-96.6-125-85.3c-47.5,9.5-82,47.1-87,95.2c-2.8,27.3,4.2,51.4,23.1,72.3c8,8.9,13.9,19.9,19.7,30.4
	C18.2,785.7,20.3,793.6,23.4,801.8z M40.5,688c0,6.2-0.2,12.3,0.1,18.5c0.1,1.9,1.5,4.4,3.1,5.3c10.5,6.4,21.2,12.5,32,18.5
	c1.4,0.8,4,0.9,5.3,0.2c11.1-6.1,22-12.4,32.9-18.9c1.3-0.8,2.5-3.1,2.5-4.7c0.2-12.3,0.2-24.7,0-37c0-1.8-1.5-4.4-3-5.4
	c-10.5-6.4-21.2-12.5-32-18.4c-1.5-0.8-4.2-0.8-5.7,0c-10.8,6-21.5,12.1-32,18.5c-1.6,1-2.9,3.5-3,5.4C40.2,676,40.5,682,40.5,688z"
	/>
<path id="XMLID_101_" class="st1" d="M160.4,853.5c0,9.5,0,18.5,0,28C105.6,891.9,51,902.2-4,912.6c0-9.5,0-18.4,0-28
	C50.5,874.3,105.2,864,160.4,853.5z"/>
<path id="XMLID_100_" class="st1" d="M78.6,953.3c-0.1-0.7-0.4-1.4-0.4-2c0-13.3,0-26.6,0-40.7c27.2-5.2,54.4-10.4,82.2-15.7
	c0,3.9,0.2,7.3-0.1,10.7c-0.1,1-1.2,2.3-2.2,2.9c-26.1,15-52.3,29.9-78.4,44.7C79.5,953.3,79.3,953.3,78.6,953.3z"/>
<g id="XMLID_15_">
</g>
<g id="XMLID_16_">
</g>
<g id="XMLID_17_">
</g>
<g id="XMLID_18_">
</g>
<g id="XMLID_19_">
</g>
<g id="XMLID_20_">
</g>
<g id="XMLID_21_">
</g>
<g id="XMLID_22_">
</g>
<g id="XMLID_23_">
</g>
<g id="XMLID_24_">
</g>
<g id="XMLID_25_">
</g>
<g id="XMLID_26_">
</g>
<g id="XMLID_27_">
</g>
<g id="XMLID_28_">
</g>
<g id="XMLID_29_">
</g>
</svg>
