<svg xmlns="http://www.w3.org/2000/svg" height="255" width="250" viewBox="0 0 250.00001 254.99573"><defs><linearGradient id="a"><stop offset="0" stop-color="#35537a"/><stop offset="1" stop-color="#1d2d44"/></linearGradient></defs><flowRoot style="line-height:125%" xml:space="preserve" transform="translate(-538.733 669.425)" font-style="normal" font-weight="400" font-size="40" font-family="Sans" letter-spacing="0" word-spacing="0" fill="#000" fill-opacity="1" stroke="none"><flowRegion><path d="M8.715 148.731h286.492V295.79H8.715z"/></flowRegion><flowPara/></flowRoot><path style="text-indent:0;text-transform:none;block-progression:tb" d="M150.666-.002c-11.241 0-20.323 9.081-20.323 20.322 0 4.633 1.543 8.898 4.145 12.313 5.643-6.532 13.972-10.68 23.27-10.68 4.55 0 8.865 1.014 12.752 2.79.315-1.423.478-2.903.478-4.423.01-11.24-9.08-20.322-20.32-20.322zm-26.54 9.404c-5.853 0-10.56 4.746-10.56 10.599 0 1.895.49 3.686 1.355 5.22a24.284 24.284 0 0 1 11.954-3.148c.419 0 .822.017 1.236.04a22.625 22.625 0 0 1-.08-1.793c0-3.26.708-6.363 1.952-9.165-1.675-1.124-3.683-1.754-5.858-1.754zm50.129 7.292c-.433 0-.85.053-1.275.08.184 1.161.318 2.334.318 3.546 0 1.887-.24 3.708-.677 5.46 5.128 2.837 9.387 7.084 12.193 12.232a24.28 24.28 0 0 1 9.603-2.71c-.888-10.414-9.516-18.608-20.163-18.608zm-16.497 7.571c-15.73 0-28.452 12.721-28.452 28.451s12.722 28.451 28.452 28.451c15.73 0 28.45-12.723 28.45-28.45 0-15.73-12.721-28.452-28.45-28.452zm-30.883.12c-12.203 0-22.076 9.872-22.076 22.076 0 7.183 3.423 13.543 8.727 17.573 2.236-4.313 6.727-7.252 11.914-7.252.627 0 1.229.076 1.833.159a31.031 31.031 0 0 1-.279-4.224 30.614 30.614 0 0 1 6.017-18.29 22.624 22.624 0 0 1-4.582-9.962c-.513-.036-1.033-.08-1.554-.08zm69.18 13.149c-3.705 0-7.176.946-10.24 2.55a30.625 30.625 0 0 1 2.71 12.632 30.68 30.68 0 0 1-8.887 21.637 22.024 22.024 0 0 0 16.417 7.292c12.203 0 22.076-9.872 22.076-22.076 0-12.203-9.872-22.036-22.076-22.036zm-93.403 2.909c-11.24 0-20.362 9.041-20.362 20.282 0 11.24 9.121 20.362 20.362 20.362 4.279 0 8.242-1.333 11.516-3.586a13.467 13.467 0 0 1-2.151-7.293c0-1.389.205-2.723.597-3.984-6.13-4.43-10.12-11.638-10.12-19.765 0-2.064.271-4.06.756-5.977-.2-.006-.395-.04-.597-.04zm119.5 17.453c-.599 0-1.179.068-1.752.16.032.506.04.999.04 1.513 0 6.482-2.558 12.364-6.695 16.736 2.036 2.367 5.025 3.866 8.408 3.866 6.162 0 11.157-4.956 11.157-11.117 0-6.163-4.995-11.157-11.157-11.157zm-96.71 1.195a11.09 11.09 0 0 0-11.118 11.117c0 6.162 4.956 11.157 11.118 11.157 4.724 0 8.733-2.947 10.36-7.093a30.781 30.781 0 0 1-8.089-14.943 11.131 11.131 0 0 0-2.27-.239zm122.211 9.364v22.036h-11.675c-7.632 0-13.827 6.235-13.827 13.867 0 7.632 6.195 13.828 13.827 13.828h4.543c2.239 0 4.474-1.088 6.256-2.75 1.781-1.662 3.14-3.964 3.187-6.535.08-4.412 0-17.254 0-17.254V68.456h-2.31zm-106.75 9.962V108.9c0 5.124 4.2 9.285 9.324 9.285v-2.311c-3.877 0-7.013-3.097-7.013-6.974V79.851c-.805-.432-1.552-.934-2.311-1.434zm-23.113 2.83c-4.093 3.905-6.654 9.405-6.654 15.5 0 11.828 9.612 21.439 21.438 21.439v-2.312c-10.58 0-19.127-8.546-19.127-19.127 0-5.69 2.484-10.805 6.415-14.305a13.215 13.215 0 0 1-2.072-1.195zm-27.216 9.165c-7.632 0-13.827 6.194-13.827 13.827v12.79h2.312v-12.79c0-6.386 5.13-11.556 11.516-11.556s11.556 5.17 11.556 11.556v12.79h2.31v-12.79c0-7.633-6.233-13.827-13.866-13.827zm77.584.08c-7.633 0-13.827 6.234-13.827 13.866 0 7.633 6.194 13.867 13.827 13.867 7.632 0 13.867-6.234 13.867-13.867 0-7.632-6.235-13.867-13.867-13.867zm-154.29.04C6.234 90.53 0 96.725 0 104.357c0 7.632 6.235 13.827 13.867 13.827 7.632 0 13.827-6.195 13.827-13.827S21.5 90.531 13.867 90.531zm20.76 1.035v17.334c0 5.124 4.162 9.285 9.285 9.285a9.378 9.378 0 0 0 8.169-4.782 9.3 9.3 0 0 0 8.128 4.782c5.124 0 9.325-4.161 9.325-9.285V91.567h-2.311v17.334c0 3.877-3.137 6.973-7.014 6.973a6.941 6.941 0 0 1-6.973-6.973V91.567h-2.311v17.334c0 3.877-3.135 6.973-7.013 6.973a6.942 6.942 0 0 1-6.974-6.973V91.567h-2.311zm153.45 0v12.791c0 7.631 6.196 13.827 13.828 13.827s13.867-6.196 13.867-13.827v-12.79h-2.311v12.79c0 6.384-5.171 11.516-11.556 11.516a11.485 11.485 0 0 1-11.516-11.516v-12.79h-2.312zm-19.923 1.235c6.385 0 11.556 5.17 11.556 11.556 0 6.386-5.17 11.556-11.556 11.556-6.386 0-11.516-5.17-11.516-11.556 0-6.385 5.13-11.556 11.516-11.556zm67.82 0h11.676c.01 1.527.073 12.046 0 16.06-.033 1.785-1.012 3.577-2.43 4.9-1.42 1.324-3.255 2.113-4.703 2.113h-4.542a11.485 11.485 0 0 1-11.516-11.516c0-6.386 5.13-11.556 11.516-11.556zm-222.11.04a11.484 11.484 0 0 1 11.516 11.516 11.484 11.484 0 0 1-11.516 11.516c-6.385 0-11.556-5.13-11.556-11.516 0-6.385 5.17-11.516 11.556-11.516z" color="#000" fill="#fff"/><text style="line-height:125%" x="-3.001" y="142.149" transform="matrix(.94854 0 0 .94854 2.026 11.573)" font-size="40.75" font-weight="400" font-family="Sans" letter-spacing="0" word-spacing="0"><tspan x="-3.001" y="142.149" style="line-height:125%;-inkscape-font-specification:'Open Sans, Light';text-align:start" dy="25.469" font-weight="300" font-size="61.125" font-family="Open Sans" fill="#fff">federated</tspan><tspan x="-3.001" y="237.345" style="line-height:125%;-inkscape-font-specification:'Open Sans, Light';text-align:start" font-weight="300" font-size="80.277" font-family="Open Sans" fill="#fff">sharing</tspan></text></svg>