<?xml version="1.0" encoding="UTF-8" standalone="no"?>
<svg
   xmlns:dc="http://purl.org/dc/elements/1.1/"
   xmlns:cc="http://creativecommons.org/ns#"
   xmlns:rdf="http://www.w3.org/1999/02/22-rdf-syntax-ns#"
   xmlns:svg="http://www.w3.org/2000/svg"
   xmlns="http://www.w3.org/2000/svg"
   xmlns:xlink="http://www.w3.org/1999/xlink"
   xmlns:sodipodi="http://sodipodi.sourceforge.net/DTD/sodipodi-0.dtd"
   xmlns:inkscape="http://www.inkscape.org/namespaces/inkscape"
   enable-background="new 0 0 595.275 311.111"
   xml:space="preserve"
   height="255"
   width="250"
   version="1.1"
   y="0px"
   x="0px"
   viewBox="0 0 250.00001 254.99573"
   id="svg2982"
   inkscape:version="0.91 r13725"
   sodipodi:docname="federation-logo.svg"
   inkscape:export-filename="ownCloud Contributor Conference logo.png"
   inkscape:export-xdpi="90"
   inkscape:export-ydpi="90"><metadata
     id="metadata2990"><rdf:RDF><cc:Work
         rdf:about=""><dc:format>image/svg+xml</dc:format><dc:type
           rdf:resource="http://purl.org/dc/dcmitype/StillImage" /><dc:title></dc:title></cc:Work></rdf:RDF></metadata><defs
     id="defs2988"><linearGradient
       inkscape:collect="always"
       xlink:href="#linearGradient3763"
       id="linearGradient3822"
       gradientUnits="userSpaceOnUse"
       gradientTransform="translate(8,7)"
       x1="59.882252"
       y1="-7.5668597"
       x2="59.882252"
       y2="133.9725" /><linearGradient
       id="linearGradient3763"><stop
         style="stop-color:#35537a;stop-opacity:1;"
         offset="0"
         id="stop3765" /><stop
         style="stop-color:#1d2d44;stop-opacity:1;"
         offset="1"
         id="stop3767" /></linearGradient><clipPath
       clipPathUnits="userSpaceOnUse"
       id="clipPath3846"><rect
         style="fill:url(#linearGradient3850);fill-opacity:1;stroke:none"
         id="rect3848"
         width="144"
         height="144"
         x="0"
         y="0"
         rx="20"
         ry="20" /></clipPath><linearGradient
       id="linearGradient3807"><stop
         style="stop-color:#ffffff;stop-opacity:1;"
         offset="0"
         id="stop3809" /><stop
         style="stop-color:#e6e6e6;stop-opacity:1;"
         offset="1"
         id="stop3811" /></linearGradient><linearGradient
       id="linearGradient3807-6"><stop
         style="stop-color:#ffffff;stop-opacity:1;"
         offset="0"
         id="stop3809-5" /><stop
         style="stop-color:#e6e6e6;stop-opacity:1;"
         offset="1"
         id="stop3811-1" /></linearGradient></defs><sodipodi:namedview
     pagecolor="#ffffff"
     bordercolor="#666666"
     borderopacity="1"
     objecttolerance="10"
     gridtolerance="10"
     guidetolerance="10"
     inkscape:pageopacity="0"
     inkscape:pageshadow="2"
     inkscape:window-width="1600"
     inkscape:window-height="900"
     id="namedview2986"
     showgrid="false"
     inkscape:zoom="2.5964961"
     inkscape:cx="160.75336"
     inkscape:cy="140.10281"
     inkscape:window-x="0"
     inkscape:window-y="0"
     inkscape:window-maximized="1"
     inkscape:current-layer="svg2982"
     fit-margin-top="0"
     fit-margin-left="0"
     fit-margin-right="0"
     fit-margin-bottom="0"
     showguides="false"
     inkscape:snap-bbox="true"
     inkscape:bbox-paths="true"
     inkscape:snap-center="true"
     inkscape:snap-text-baseline="false"
     inkscape:snap-page="true"
     inkscape:snap-bbox-midpoints="true"
     inkscape:snap-bbox-edge-midpoints="true"
     inkscape:bbox-nodes="true"
     inkscape:snap-midpoints="true"
     inkscape:snap-object-midpoints="true"
     inkscape:snap-grids="true"
     borderlayer="true" /><flowRoot
     xml:space="preserve"
     id="flowRoot3824"
     style="font-style:normal;font-weight:normal;font-size:40px;line-height:125%;font-family:Sans;letter-spacing:0px;word-spacing:0px;fill:#000000;fill-opacity:1;stroke:none"
     transform="translate(-1078.7334,669.42414)"><flowRegion
       id="flowRegion3826"><rect
         id="rect3828"
         width="286.49237"
         height="147.05882"
         x="8.7145967"
         y="148.73109" /></flowRegion><flowPara
       id="flowPara3830" /></flowRoot><flowRoot
     style="font-style:normal;font-weight:normal;font-size:40px;line-height:125%;font-family:Sans;letter-spacing:0px;word-spacing:0px;fill:#000000;fill-opacity:1;stroke:none"
     id="flowRoot3879"
     xml:space="preserve"
     transform="translate(-538.73337,669.42514)"><flowRegion
       id="flowRegion3881"><rect
         y="148.73109"
         x="8.7145967"
         height="147.05882"
         width="286.49237"
         id="rect3883" /></flowRegion><flowPara
       id="flowPara3885" /></flowRoot><path
     inkscape:connector-curvature="0"
     style="color:#000000;text-indent:0;text-transform:none;block-progression:tb;fill:#ffffff;enable-background:accumulate"
     d="m 150.66558,-0.00214386 c -11.24104,0 -20.32209,9.08153666 -20.32209,20.32207986 0,4.633518 1.54292,8.898035 4.14423,12.313048 5.64311,-6.531525 13.97205,-10.679042 23.27109,-10.679042 4.54961,0 8.86393,1.013104 12.75104,2.789311 0.3147,-1.423406 0.47821,-2.903711 0.47821,-4.423117 0.0101,-11.2400432 -9.08004,-20.32207986 -20.32008,-20.32207986 z M 124.12647,9.4018938 c -5.85392,0 -10.56003,4.7456182 -10.56003,10.5990412 0,1.895307 0.48899,3.686214 1.3548,5.22002 3.53251,-1.992707 7.61642,-3.148012 11.95405,-3.148012 0.4186,0 0.8219,0.01701 1.2353,0.03981 -0.047,-0.593432 -0.08,-1.187805 -0.08,-1.793107 0,-3.260512 0.7082,-6.362725 1.9525,-9.165036 -1.6754,-1.123503 -3.68281,-1.7533062 -5.85762,-1.7533062 z m 50.1282,7.2921282 c -0.4325,0 -0.8493,0.0531 -1.27511,0.0797 0.18421,1.161303 0.31881,2.333909 0.31881,3.546413 0,1.887107 -0.24,3.708015 -0.67741,5.459121 5.12842,2.838111 9.38734,7.084728 12.19305,12.233048 2.91051,-1.515206 6.15733,-2.47871 9.60334,-2.709611 -0.88811,-10.41504 -9.51664,-18.609072 -20.16308,-18.609072 z m -16.49707,7.571129 c -15.72906,0 -28.45111,12.72105 -28.45111,28.451111 0,15.729065 12.72105,28.451115 28.45111,28.451115 15.73006,0 28.45111,-12.723049 28.45111,-28.451115 0,-15.730061 -12.72204,-28.451111 -28.45111,-28.451111 z m -30.88212,0.119541 c -12.20304,0 -22.07608,9.872738 -22.07608,22.076086 0,7.183628 3.42271,13.543057 8.72664,17.573073 2.236,-4.312718 6.72702,-7.252328 11.91404,-7.252328 0.62701,0 1.22871,0.076 1.833,0.159389 -0.1897,-1.380108 -0.2789,-2.792014 -0.2789,-4.223919 0,-6.846027 2.22841,-13.177052 6.01702,-18.290072 -2.2678,-2.837711 -3.89071,-6.247425 -4.58251,-9.961939 -0.5127,-0.0355 -1.03231,-0.0797 -1.55411,-0.0797 z m 69.18027,13.149051 c -3.70541,0 -7.17632,0.945994 -10.24104,2.55031 1.74011,3.854515 2.70961,8.131232 2.70961,12.632049 0,8.426837 -3.38811,16.079067 -8.88603,21.637088 4.03901,4.484118 9.89914,7.292129 16.41707,7.292129 12.20304,0 22.07608,-9.872739 22.07608,-22.076086 0,-12.203352 -9.87274,-22.03609 -22.07608,-22.03609 z m -93.40336,2.908911 c -11.241035,0 -20.36207,9.041336 -20.36207,20.282084 0,11.240744 9.121035,20.362079 20.36207,20.362079 4.27852,0 8.24193,-1.333005 11.51605,-3.586314 -1.35291,-2.102308 -2.15181,-4.615618 -2.15181,-7.292129 0,-1.389205 0.20499,-2.72381 0.5977,-3.984815 -6.12943,-4.429618 -10.12104,-11.638049 -10.12104,-19.764082 0,-2.064807 0.2721,-4.061315 0.75711,-5.977222 -0.2013,-0.006 -0.39491,-0.0399 -0.59771,-0.0399 z m 119.50046,17.453073 c -0.59969,0 -1.1799,0.0683 -1.75331,0.15939 0.032,0.506882 0.0401,0.999394 0.0401,1.514206 0,6.481625 -2.55741,12.364049 -6.69443,16.736066 2.03531,2.366809 5.02483,3.865214 8.40794,3.865214 6.16232,0 11.15704,-4.955219 11.15704,-11.117043 0,-6.162324 -4.99512,-11.157043 -11.15704,-11.157043 z m -96.71038,1.195404 c -6.16201,0 -11.11803,4.95552 -11.11803,11.117043 0,6.162024 4.95552,11.157044 11.11803,11.157044 4.72323,0 8.73234,-2.947212 10.36004,-7.092927 -3.97261,-4.046016 -6.82761,-9.207737 -8.08912,-14.943059 -0.73821,-0.15266 -1.48751,-0.239091 -2.27131,-0.239091 z m 122.21049,9.364237 0,22.036086 -11.67505,0 c -7.63223,0 -13.82706,6.234728 -13.82706,13.867036 0,7.63114 6.19503,13.82706 13.82706,13.82706 l 4.54262,0 c 2.23901,0 4.47481,-1.0874 6.25613,-2.74951 1.7813,-1.66211 3.1409,-3.96442 3.1878,-6.53503 0.08,-4.41221 0,-17.254052 0,-17.254052 l 0,-23.191091 -2.31121,0 z m -106.75042,9.961939 0,30.483113 c 0,5.12322 4.20112,9.28453 9.32444,9.28453 l 0,-2.3112 c -3.87662,0 -7.01323,-3.09672 -7.01323,-6.97333 l 0,-29.049108 c -0.80461,-0.432502 -1.5514,-0.934494 -2.31121,-1.434505 z m -23.11209,2.829211 c -4.09352,3.905915 -6.65463,9.405336 -6.65463,15.501064 0,11.827028 9.61184,21.438068 21.43809,21.438068 l 0,-2.31121 c -10.57904,0 -19.12708,-8.54693 -19.12708,-19.127058 0,-5.690526 2.48391,-10.805046 6.41553,-14.30506 -0.7348,-0.338511 -1.41551,-0.735023 -2.07211,-1.195405 z m -27.216098,9.165035 c -7.63223,0 -13.827054,6.194929 -13.827054,13.827037 l 0,12.79105 2.311209,0 0,-12.79105 c 0,-6.385208 5.13092,-11.556028 11.516045,-11.556028 6.386425,0 11.556038,5.17062 11.556038,11.556028 l 0,12.79105 2.3112,0 0,-12.79105 c 0,-7.632208 -6.233808,-13.827037 -13.867038,-13.827037 z m 77.583298,0.0797 c -7.63264,0 -13.82706,6.234429 -13.82706,13.867047 0,7.63262 6.19453,13.86705 13.82706,13.86705 7.63262,0 13.86705,-6.23443 13.86705,-13.86705 0,-7.632618 -6.23443,-13.867047 -13.86705,-13.867047 z m -154.290597,0.0398 C 6.2350235,90.53105 -6.543935e-7,96.726272 -6.543935e-7,104.3581 c 0,7.63203 6.2350241543935,13.82705 13.8670536543935,13.82705 7.632029,0 13.827054,-6.19522 13.827054,-13.82705 0,-7.632028 -6.195224,-13.82705 -13.827054,-13.82705 z m 20.761081,1.036004 0,17.334053 c 0,5.12342 4.162216,9.28454 9.284537,9.28454 3.491213,0 6.571624,-1.93031 8.168831,-4.78172 1.585706,2.85141 4.638418,4.78172 8.128931,4.78172 5.123321,0 9.324337,-4.16112 9.324337,-9.28454 l 0,-17.334053 -2.311209,0 0,17.334053 c 0,3.87641 -3.136612,6.97333 -7.013227,6.97333 -3.876616,0 -6.973327,-3.09692 -6.973327,-6.97333 l 0,-17.334053 -2.311209,0 0,17.334053 c 0,3.87662 -3.135213,6.97333 -7.013228,6.97333 -3.875315,0 -6.973327,-3.09692 -6.973327,-6.97333 l 0,-17.334053 -2.311209,0 z m 153.450586,0 0,12.791043 c 0,7.63112 6.19503,13.82705 13.82706,13.82705 7.63223,0 13.86706,-6.19593 13.86706,-13.82705 l 0,-12.791043 -2.31122,0 0,12.791043 c 0,6.38372 -5.17072,11.51604 -11.55604,11.51604 -6.38513,0 -11.51605,-5.13222 -11.51605,-11.51604 l 0,-12.791043 -2.31121,0 z m -19.92407,1.235305 c 6.38562,0 11.55604,5.17022 11.55604,11.556028 0,6.38564 -5.17022,11.55605 -11.55604,11.55605 -6.38563,0 -11.51605,-5.17022 -11.51605,-11.55605 0,-6.385608 5.13042,-11.556028 11.51605,-11.556028 z m 67.82126,0 11.67505,0 c 0.0101,1.527105 0.0729,12.046038 0,16.059058 -0.033,1.7858 -1.01211,3.57761 -2.43071,4.90131 -1.41861,1.32361 -3.25442,2.11191 -4.70202,2.11191 l -4.54262,0 c -6.38512,0 -11.51604,-5.13221 -11.51604,-11.51605 0,-6.385208 5.13092,-11.556029 11.51604,-11.556029 z m -222.110857,0.0399 c 6.385025,0 11.516045,5.13102 11.516045,11.516038 0,6.38502 -5.13102,11.51604 -11.516045,11.51604 -6.3850246,0 -11.5560447,-5.13102 -11.5560447,-11.51604 0,-6.385018 5.1708202,-11.516038 11.5560447,-11.516038 z"
     id="path4159"
     inkscape:export-filename="/home/jan/ownCloud Contributor Conference logo.png"
     inkscape:export-xdpi="179.59"
     inkscape:export-ydpi="179.59" /><g
     style="font-style:normal;font-weight:normal;font-size:40px;line-height:100%;font-family:Sans;letter-spacing:0px;word-spacing:0px;fill:#000000;fill-opacity:1;stroke:none"
     id="text4161"
     transform="matrix(0.94854443,0,0,0.94854443,2.0255347,11.572912)"><text
       xml:space="preserve"
       style="font-style:normal;font-weight:normal;font-size:40.74972534px;line-height:125%;font-family:Sans;letter-spacing:0px;word-spacing:0px;fill:#000000;fill-opacity:1;stroke:none;stroke-width:1px;stroke-linecap:butt;stroke-linejoin:miter;stroke-opacity:1"
       x="-3.0009475"
       y="142.14912"
       id="text3357"
       sodipodi:linespacing="125%"
       transform="translate(2.5149035e-8,3.5670058e-6)"><tspan
         sodipodi:role="line"
         id="tspan3359"
         x="-3.0009475"
         y="142.14912"
         style="font-style:normal;font-variant:normal;font-weight:300;font-stretch:normal;font-size:61.12459564px;line-height:125%;font-family:'Open Sans';-inkscape-font-specification:'Open Sans, Light';text-align:start;writing-mode:lr-tb;text-anchor:start;fill:#ffffff"
         dy="25.468578">federated</tspan><tspan
         sodipodi:role="line"
         x="-3.0009475"
         y="237.3448"
         style="font-style:normal;font-variant:normal;font-weight:300;font-stretch:normal;font-size:80.27676392px;line-height:125%;font-family:'Open Sans';-inkscape-font-specification:'Open Sans, Light';text-align:start;writing-mode:lr-tb;text-anchor:start;fill:#ffffff"
         id="tspan3361">sharing</tspan></text>
</g></svg>