<svg xmlns="http://www.w3.org/2000/svg" height="207" width="253" viewBox="0 0 253.00001 206.99653"><defs><linearGradient id="a"><stop offset="0" stop-color="#35537a"/><stop offset="1" stop-color="#1d2d44"/></linearGradient></defs><flowRoot style="line-height:125%" xml:space="preserve" transform="translate(-538.733 621.425)" font-size="40" font-style="normal" font-weight="400" letter-spacing="0" word-spacing="0" fill="#000" fill-opacity="1" stroke="none" font-family="Sans"><flowRegion><path d="M8.715 148.731h286.492V295.79H8.715z"/></flowRegion><flowPara/></flowRoot><path style="text-indent:0;text-transform:none;block-progression:tb" d="M151.927 1.425c-11.241 0-20.322 9.082-20.322 20.322 0 4.634 1.543 8.898 4.144 12.313 5.643-6.531 13.972-10.679 23.27-10.679 4.55 0 8.865 1.013 12.752 2.79.315-1.424.478-2.904.478-4.424.01-11.24-9.08-20.322-20.32-20.322zm-26.54 9.404c-5.853 0-10.56 4.746-10.56 10.6 0 1.894.49 3.685 1.355 5.22a24.284 24.284 0 0 1 11.954-3.149c.419 0 .822.017 1.236.04a22.625 22.625 0 0 1-.08-1.793c0-3.26.708-6.363 1.952-9.165-1.675-1.124-3.683-1.753-5.857-1.753zm50.129 7.292c-.433 0-.85.053-1.275.08.184 1.161.318 2.334.318 3.546 0 1.887-.24 3.708-.677 5.46 5.128 2.838 9.387 7.084 12.193 12.232a24.28 24.28 0 0 1 9.603-2.71c-.888-10.414-9.516-18.608-20.163-18.608zm-16.497 7.571c-15.73 0-28.451 12.721-28.451 28.451s12.72 28.451 28.45 28.451c15.73 0 28.452-12.723 28.452-28.45 0-15.73-12.722-28.452-28.451-28.452zm-30.882.12c-12.203 0-22.076 9.873-22.076 22.076 0 7.183 3.422 13.543 8.726 17.573 2.236-4.313 6.727-7.252 11.914-7.252.627 0 1.229.076 1.833.159a31.031 31.031 0 0 1-.279-4.224 30.613 30.613 0 0 1 6.017-18.29 22.624 22.624 0 0 1-4.582-9.962c-.513-.035-1.032-.08-1.554-.08zm69.18 13.149c-3.706 0-7.177.946-10.241 2.55a30.625 30.625 0 0 1 2.71 12.632 30.68 30.68 0 0 1-8.887 21.637 22.024 22.024 0 0 0 16.417 7.292c12.203 0 22.076-9.872 22.076-22.076 0-12.203-9.872-22.036-22.076-22.036zm-93.403 2.909c-11.241 0-20.362 9.041-20.362 20.282 0 11.24 9.12 20.362 20.362 20.362 4.278 0 8.242-1.333 11.516-3.587a13.467 13.467 0 0 1-2.152-7.292c0-1.389.205-2.723.598-3.984-6.13-4.43-10.121-11.638-10.121-19.764 0-2.065.272-4.062.757-5.978-.202-.006-.395-.04-.598-.04zm119.5 17.453c-.6 0-1.18.068-1.754.16.032.506.04.999.04 1.513 0 6.482-2.557 12.364-6.694 16.736 2.035 2.367 5.025 3.866 8.408 3.866 6.162 0 11.157-4.956 11.157-11.117 0-6.163-4.995-11.157-11.157-11.157zm-96.71 1.195a11.09 11.09 0 0 0-11.118 11.117c0 6.162 4.955 11.157 11.118 11.157 4.723 0 8.732-2.947 10.36-7.093a30.781 30.781 0 0 1-8.09-14.943 11.131 11.131 0 0 0-2.27-.239zm122.21 9.364v22.036h-11.675c-7.633 0-13.827 6.235-13.827 13.867 0 7.631 6.195 13.827 13.827 13.827h4.542c2.24 0 4.475-1.087 6.256-2.75 1.782-1.661 3.141-3.964 3.188-6.534.08-4.412 0-17.254 0-17.254V69.883h-2.311zm-106.75 9.962v30.483c0 5.123 4.2 9.285 9.324 9.285V117.3c-3.877 0-7.013-3.097-7.013-6.974V81.278c-.805-.432-1.552-.934-2.311-1.434zm-23.112 2.83c-4.094 3.905-6.655 9.405-6.655 15.5 0 11.827 9.612 21.438 21.438 21.438v-2.31c-10.579 0-19.127-8.548-19.127-19.128 0-5.69 2.484-10.805 6.416-14.305a13.215 13.215 0 0 1-2.073-1.195zm-27.216 9.164c-7.633 0-13.827 6.195-13.827 13.827v12.791h2.31v-12.79c0-6.386 5.132-11.557 11.517-11.557 6.386 0 11.556 5.171 11.556 11.556v12.791h2.311v-12.79c0-7.633-6.234-13.828-13.867-13.828zm77.583.08c-7.633 0-13.827 6.235-13.827 13.867 0 7.633 6.194 13.867 13.827 13.867 7.632 0 13.867-6.234 13.867-13.867 0-7.632-6.235-13.867-13.867-13.867zm-154.29.04c-7.632 0-13.867 6.195-13.867 13.827s6.235 13.827 13.867 13.827c7.632 0 13.827-6.195 13.827-13.827S22.76 91.958 15.129 91.958zm20.76 1.036v17.334c0 5.123 4.163 9.284 9.285 9.284a9.377 9.377 0 0 0 8.169-4.781 9.3 9.3 0 0 0 8.129 4.781c5.123 0 9.324-4.16 9.324-9.284V92.994h-2.311v17.334c0 3.876-3.137 6.973-7.013 6.973a6.941 6.941 0 0 1-6.974-6.973V92.994h-2.31v17.334c0 3.877-3.136 6.973-7.014 6.973a6.942 6.942 0 0 1-6.973-6.973V92.994H35.89zm153.45 0v12.791c0 7.631 6.196 13.827 13.828 13.827s13.867-6.196 13.867-13.827V92.994h-2.312v12.791c0 6.384-5.17 11.516-11.556 11.516a11.485 11.485 0 0 1-11.516-11.516V92.994h-2.31zm-19.923 1.235c6.385 0 11.556 5.17 11.556 11.556 0 6.386-5.17 11.556-11.556 11.556-6.386 0-11.516-5.17-11.516-11.556 0-6.385 5.13-11.556 11.516-11.556zm67.82 0h11.676c.01 1.527.073 12.046 0 16.06-.033 1.785-1.012 3.577-2.431 4.9-1.419 1.324-3.254 2.112-4.702 2.112h-4.543a11.485 11.485 0 0 1-11.516-11.516c0-6.385 5.131-11.556 11.516-11.556zm-222.11.04a11.484 11.484 0 0 1 11.517 11.516 11.484 11.484 0 0 1-11.516 11.516c-6.385 0-11.556-5.13-11.556-11.516 0-6.385 5.17-11.516 11.556-11.516z" color="#000" fill="#fff"/><path style="line-height:100%;-inkscape-font-specification:Source Sans Pro" d="M13.813 133.77c-1.807 0-3.484.344-5.032 1.032a11.21 11.21 0 0 0-3.969 2.875c-1.118 1.261-1.963 2.788-2.593 4.594-.63 1.806-.969 3.829-.969 6.093 0 2.294.304 4.384.906 6.219.63 1.806 1.505 3.332 2.594 4.594a11.524 11.524 0 0 0 3.906 2.844c1.52.659 3.16.968 4.938.968 1.806 0 3.408-.346 4.812-1.062 1.405-.717 2.663-1.71 3.782-3l-2-2.219c-.918 1.003-1.906 1.8-2.938 2.344-1.003.544-2.187.812-3.563.812-1.347 0-2.566-.268-3.656-.812-1.06-.545-1.973-1.34-2.719-2.344-.745-1.003-1.32-2.189-1.75-3.594-.4-1.433-.593-3.035-.593-4.812 0-1.749.195-3.346.625-4.75.43-1.405 1.038-2.588 1.812-3.563.774-1.003 1.692-1.765 2.782-2.281 1.089-.545 2.308-.812 3.656-.812 1.204 0 2.267.231 3.156.718.917.459 1.755 1.104 2.5 1.907l2-2.282c-.831-.917-1.866-1.718-3.156-2.406-1.29-.717-2.812-1.062-4.532-1.062zm21.406 0c-1.778 0-3.385.31-4.875.97a10.658 10.658 0 0 0-3.813 2.874c-1.06 1.233-1.867 2.757-2.468 4.563-.574 1.777-.876 3.798-.875 6.062 0 2.265.301 4.322.875 6.157.601 1.806 1.408 3.366 2.468 4.656 1.06 1.261 2.35 2.218 3.813 2.906 1.49.688 3.097 1.031 4.875 1.031 1.777 0 3.413-.343 4.875-1.031a10.824 10.824 0 0 0 3.812-2.906c1.09-1.29 1.927-2.85 2.5-4.656.602-1.835.906-3.892.907-6.157 0-2.236-.305-4.222-.907-6-.573-1.806-1.41-3.33-2.5-4.562a10.417 10.417 0 0 0-3.812-2.875c-1.462-.688-3.098-1.031-4.875-1.031zm180.031 0c-1.777 0-3.416.31-4.906.97a10.55 10.55 0 0 0-3.781 2.874c-1.061 1.233-1.898 2.757-2.5 4.563-.574 1.777-.875 3.798-.875 6.062 0 2.265.301 4.322.875 6.157.602 1.806 1.439 3.366 2.5 4.656a10.974 10.974 0 0 0 3.78 2.906c1.491.688 3.13 1.031 4.907 1.031 1.777 0 3.382-.343 4.844-1.031 1.49-.688 2.783-1.645 3.844-2.906 1.089-1.29 1.895-2.85 2.468-4.656.602-1.835.906-3.892.906-6.157 0-2.236-.304-4.222-.906-6-.573-1.806-1.38-3.33-2.469-4.562a10.523 10.523 0 0 0-3.843-2.875c-1.462-.688-3.067-1.031-4.844-1.031zm-163.188.5v28.22h3.376v-14.75c0-1.491-.042-2.976-.157-4.438-.086-1.49-.198-2.942-.312-4.375h.187l3.032 5.781 10.25 17.781h3.687v-28.218h-3.406v14.593c0 1.491.07 2.984.156 4.532.115 1.519.195 3.004.281 4.437H69l-3.063-5.844-10.187-17.718h-3.688zm23.782 0v3h8.531v25.22h3.594v-25.22H96.5v-3H75.844zm24.344 0v28.22h3.593v-11.907h5.094l6.813 11.906h4.03l-7.124-12.312c1.92-.488 3.447-1.369 4.594-2.688 1.146-1.318 1.718-3.105 1.718-5.312 0-1.462-.231-2.684-.719-3.688-.487-1.003-1.173-1.838-2.062-2.468-.86-.631-1.924-1.055-3.156-1.313-1.204-.287-2.504-.437-3.938-.437h-8.844zm23.624 0v28.22h3.563v-28.22h-3.563zm10 0v28.22h9c1.577 0 3.026-.188 4.344-.532 1.319-.344 2.46-.843 3.406-1.531a7.075 7.075 0 0 0 2.188-2.594c.516-1.032.781-2.218.781-3.594 0-1.949-.603-3.507-1.75-4.625-1.146-1.118-2.748-1.81-4.812-2.125v-.187c1.662-.43 2.916-1.195 3.719-2.313.802-1.146 1.187-2.439 1.187-3.843 0-1.233-.231-2.265-.719-3.125a5.479 5.479 0 0 0-1.969-2.157c-.83-.544-1.858-.96-3.062-1.218-1.175-.258-2.473-.375-3.906-.375h-8.406zm23.844 0v16.563c0 2.265.234 4.17.75 5.719.516 1.548 1.237 2.806 2.125 3.781a8.17 8.17 0 0 0 3.219 2.063c1.261.4 2.598.593 4.031.593 1.434 0 2.768-.192 4-.593a7.865 7.865 0 0 0 3.188-2.063c.917-.975 1.64-2.233 2.156-3.781.516-1.548.781-3.454.781-5.719v-16.562h-3.437v16.656c0 1.691-.188 3.103-.531 4.25-.345 1.146-.805 2.062-1.407 2.75a5.445 5.445 0 0 1-2.125 1.5 7.758 7.758 0 0 1-2.625.437c-.917 0-1.76-.15-2.562-.437a5.445 5.445 0 0 1-2.125-1.5c-.574-.688-1.031-1.604-1.375-2.75-.344-1.147-.5-2.559-.5-4.25V134.27h-3.563zm23.844 0v3h8.5v25.22h3.625v-25.22h8.5v-3H181.5zm50.563 0v28.22h3.562v-11.907h5.125l6.781 11.906h4.031l-7.125-12.312c1.921-.488 3.448-1.369 4.594-2.688 1.147-1.318 1.719-3.105 1.719-5.312 0-1.462-.231-2.684-.719-3.688-.487-1.003-1.174-1.838-2.062-2.468-.86-.631-1.924-1.055-3.156-1.313-1.205-.287-2.505-.437-3.938-.437h-8.813zm-196.844 2.626c1.261 0 2.403.267 3.406.812 1.032.516 1.908 1.275 2.625 2.25.745.975 1.317 2.158 1.719 3.563.401 1.404.593 2.97.593 4.718 0 1.778-.192 3.38-.593 4.813-.402 1.404-.974 2.624-1.719 3.656-.717 1.003-1.593 1.8-2.625 2.344-1.003.544-2.145.812-3.406.812-1.262 0-2.406-.268-3.438-.812-1.003-.545-1.88-1.34-2.625-2.344-.716-1.032-1.255-2.252-1.656-3.656-.401-1.434-.625-3.035-.625-4.813 0-1.748.224-3.314.625-4.718.401-1.405.94-2.588 1.656-3.563.746-.975 1.622-1.734 2.625-2.25 1.032-.545 2.176-.812 3.438-.812zm180.031 0c1.261 0 2.372.267 3.375.812 1.032.516 1.908 1.275 2.625 2.25.745.975 1.317 2.158 1.719 3.563.401 1.404.625 2.97.625 4.718 0 1.778-.224 3.38-.625 4.813-.402 1.404-.974 2.624-1.719 3.656-.717 1.003-1.593 1.8-2.625 2.344-1.003.544-2.114.812-3.375.812-1.261 0-2.437-.268-3.469-.812-1.003-.545-1.848-1.34-2.594-2.344-.716-1.032-1.286-2.252-1.687-3.656-.401-1.434-.594-3.035-.594-4.813 0-1.748.193-3.314.594-4.718.401-1.405.97-2.588 1.688-3.563.745-.975 1.59-1.734 2.593-2.25 1.032-.545 2.208-.812 3.469-.812zm-77.844.218h4.313c2.207 0 3.88.344 4.969 1.032 1.117.659 1.656 1.764 1.656 3.312 0 1.577-.533 2.762-1.594 3.594-1.032.831-2.75 1.25-5.188 1.25h-4.156v-9.188zm-33.625.031h4.719c2.207 0 3.887.38 5.063 1.125 1.175.746 1.78 2.043 1.78 3.907 0 1.834-.605 3.207-1.78 4.125-1.176.888-2.856 1.343-5.063 1.343h-4.719v-10.5zm131.844 0h4.719c2.207 0 3.918.38 5.094 1.125 1.175.746 1.75 2.043 1.75 3.907 0 1.834-.575 3.207-1.75 4.125-1.176.888-2.887 1.343-5.094 1.343h-4.719v-10.5zm-98.219 11.844h4.875c2.494 0 4.4.419 5.719 1.25 1.319.803 2 2.064 2 3.813 0 1.92-.684 3.332-2.031 4.25-1.348.888-3.251 1.343-5.688 1.343h-4.875V148.99zM14.375 176.927c-1.806 0-3.522.34-5.156 1a12.539 12.539 0 0 0-4.25 2.875c-1.204 1.261-2.19 2.821-2.907 4.656C1.347 187.264 1 189.324 1 191.646c0 2.35.343 4.412 1.031 6.218.688 1.778 1.64 3.265 2.844 4.469a12.216 12.216 0 0 0 4.219 2.75c1.605.602 3.287.906 5.094.906 1.748 0 3.384-.343 4.874-1.031 1.52-.688 2.856-1.718 4.032-3.094l-3.469-3.812a8.615 8.615 0 0 1-2.313 1.781c-.86.459-1.884.688-3.03.688-2.065 0-3.706-.768-4.938-2.344-1.233-1.606-1.844-3.855-1.844-6.75 0-1.405.156-2.663.5-3.781.373-1.118.87-2.07 1.5-2.844a6.56 6.56 0 0 1 2.219-1.781c.86-.43 1.775-.625 2.75-.625.974 0 1.814.19 2.531.562.745.373 1.47.872 2.188 1.531l3.5-3.906c-.947-.975-2.16-1.815-3.594-2.531-1.405-.746-2.97-1.125-4.719-1.125zm22.781 0c-1.892 0-3.61.34-5.187 1a10.835 10.835 0 0 0-4 2.781c-1.118 1.204-1.995 2.725-2.625 4.531-.602 1.778-.907 3.8-.907 6.094 0 2.293.305 4.35.907 6.156.63 1.806 1.507 3.333 2.625 4.594a11.59 11.59 0 0 0 4 2.938c1.576.659 3.295.968 5.187.968 1.892 0 3.608-.31 5.157-.968a11.561 11.561 0 0 0 4.062-2.938c1.118-1.261 1.96-2.788 2.563-4.594.63-1.806.937-3.863.937-6.156 0-2.265-.307-4.285-.938-6.062-.602-1.806-1.444-3.33-2.562-4.563-1.118-1.233-2.486-2.15-4.063-2.781-1.548-.66-3.264-1-5.156-1zm183.313 0c-1.806 0-3.523.34-5.156 1a12.539 12.539 0 0 0-4.25 2.875c-1.205 1.261-2.159 2.821-2.875 4.656-.717 1.806-1.094 3.866-1.094 6.188 0 2.35.343 4.412 1.031 6.218.688 1.778 1.64 3.265 2.844 4.469a12.216 12.216 0 0 0 4.219 2.75c1.605.602 3.318.906 5.125.906 1.748 0 3.353-.343 4.843-1.031 1.52-.688 2.856-1.718 4.031-3.094l-3.468-3.812a8.615 8.615 0 0 1-2.313 1.781c-.86.459-1.884.688-3.031.688-2.064 0-3.705-.768-4.938-2.344-1.232-1.606-1.843-3.855-1.843-6.75 0-1.405.156-2.663.5-3.781.372-1.118.9-2.07 1.531-2.844.63-.774 1.356-1.38 2.188-1.781.86-.43 1.775-.625 2.75-.625.974 0 1.814.19 2.53.562.746.373 1.472.872 2.188 1.531l3.5-3.906c-.946-.975-2.16-1.815-3.594-2.531-1.404-.746-2.97-1.125-4.718-1.125zm-165.313.531v28.031h6.032v-9.937c0-1.663-.112-3.38-.313-5.156-.172-1.778-.325-3.452-.469-5h.157l2.78 6.125 7.282 13.968h6.5v-28.031h-6v9.875c0 1.663.078 3.415.25 5.25.2 1.835.357 3.51.5 5h-.156l-2.75-6.219-7.313-13.906h-6.5zm28.563 0v28.031h6.312v-10.875h9.719v-5.343h-9.719v-6.5h11.344v-5.313H83.719zm22.5 0v28.031h17.969v-5.343H112.53v-6.438h9.563v-5.312h-9.563v-5.625h11.25v-5.313H106.22zm23.594 0v28.031h6.343v-10.125h3.469L145 205.49h7.094l-6.375-11.218c1.52-.66 2.736-1.65 3.625-2.97.917-1.347 1.375-3.06 1.375-5.124 0-1.663-.302-3.07-.875-4.188-.574-1.118-1.338-1.997-2.313-2.656-.974-.688-2.119-1.182-3.437-1.469-1.29-.286-2.666-.406-4.156-.406h-10.125zm26.468 0v28.031h17.969v-5.343h-11.656v-6.438h9.562v-5.312h-9.562v-5.625h11.219v-5.313H156.28zm23.594 0v28.031h6.031v-9.937c0-1.663-.112-3.38-.312-5.156-.172-1.778-.326-3.452-.469-5h.156l2.75 6.125 7.313 13.968h6.5v-28.031h-6v9.875c0 1.663.078 3.415.25 5.25.2 1.835.356 3.51.5 5h-.156l-2.75-6.219-7.313-13.906h-6.5zm53.594 0v28.031h17.969v-5.343H239.78v-6.438h9.531v-5.312h-9.53v-5.625H251v-5.313h-17.531zm-196.313 4.938c1.92 0 3.445.798 4.563 2.375 1.118 1.576 1.687 3.753 1.687 6.562 0 2.838-.57 5.087-1.687 6.75-1.118 1.634-2.642 2.438-4.563 2.438-1.92 0-3.444-.804-4.562-2.438-1.118-1.663-1.657-3.912-1.657-6.75 0-2.81.539-4.986 1.657-6.562 1.118-1.577 2.642-2.375 4.562-2.375zm99 .093h3.25c1.663 0 2.921.268 3.781.813.89.544 1.344 1.499 1.344 2.875s-.455 2.408-1.344 3.125c-.86.688-2.118 1.031-3.78 1.031h-3.25v-7.844z" font-size="43" letter-spacing="-1.33" fill="#fff" font-family="Source Sans Pro" font-weight="400" word-spacing="0"/></svg>