<?xml version="1.0" encoding="UTF-8" standalone="no"?>
<svg
   xmlns:dc="http://purl.org/dc/elements/1.1/"
   xmlns:cc="http://creativecommons.org/ns#"
   xmlns:rdf="http://www.w3.org/1999/02/22-rdf-syntax-ns#"
   xmlns:svg="http://www.w3.org/2000/svg"
   xmlns="http://www.w3.org/2000/svg"
   xmlns:xlink="http://www.w3.org/1999/xlink"
   xmlns:sodipodi="http://sodipodi.sourceforge.net/DTD/sodipodi-0.dtd"
   xmlns:inkscape="http://www.inkscape.org/namespaces/inkscape"
   enable-background="new 0 0 595.275 311.111"
   xml:space="preserve"
   height="207"
   width="253"
   version="1.1"
   y="0px"
   x="0px"
   viewBox="0 0 253.00001 206.99653"
   id="svg2982"
   inkscape:version="0.48.4 r9939"
   sodipodi:docname="ownCloud Contributor Conference logo.svg"
   inkscape:export-filename="ownCloud Contributor Conference logo.png"
   inkscape:export-xdpi="90"
   inkscape:export-ydpi="90"><metadata
     id="metadata2990"><rdf:RDF><cc:Work
         rdf:about=""><dc:format>image/svg+xml</dc:format><dc:type
           rdf:resource="http://purl.org/dc/dcmitype/StillImage" /><dc:title></dc:title></cc:Work></rdf:RDF></metadata><defs
     id="defs2988"><linearGradient
       inkscape:collect="always"
       xlink:href="#linearGradient3763"
       id="linearGradient3822"
       gradientUnits="userSpaceOnUse"
       gradientTransform="translate(8,7)"
       x1="59.882252"
       y1="-7.5668597"
       x2="59.882252"
       y2="133.9725" /><linearGradient
       id="linearGradient3763"><stop
         style="stop-color:#35537a;stop-opacity:1;"
         offset="0"
         id="stop3765" /><stop
         style="stop-color:#1d2d44;stop-opacity:1;"
         offset="1"
         id="stop3767" /></linearGradient><clipPath
       clipPathUnits="userSpaceOnUse"
       id="clipPath3846"><rect
         style="fill:url(#linearGradient3850);fill-opacity:1;stroke:none"
         id="rect3848"
         width="144"
         height="144"
         x="0"
         y="0"
         rx="20"
         ry="20" /></clipPath><linearGradient
       id="linearGradient3807"><stop
         style="stop-color:#ffffff;stop-opacity:1;"
         offset="0"
         id="stop3809" /><stop
         style="stop-color:#e6e6e6;stop-opacity:1;"
         offset="1"
         id="stop3811" /></linearGradient><linearGradient
       id="linearGradient3807-6"><stop
         style="stop-color:#ffffff;stop-opacity:1;"
         offset="0"
         id="stop3809-5" /><stop
         style="stop-color:#e6e6e6;stop-opacity:1;"
         offset="1"
         id="stop3811-1" /></linearGradient></defs><sodipodi:namedview
     pagecolor="#ffffff"
     bordercolor="#666666"
     borderopacity="1"
     objecttolerance="10"
     gridtolerance="10"
     guidetolerance="10"
     inkscape:pageopacity="0"
     inkscape:pageshadow="2"
     inkscape:window-width="1920"
     inkscape:window-height="1002"
     id="namedview2986"
     showgrid="false"
     inkscape:zoom="3.672"
     inkscape:cx="52.130044"
     inkscape:cy="91.840799"
     inkscape:window-x="0"
     inkscape:window-y="34"
     inkscape:window-maximized="1"
     inkscape:current-layer="svg2982"
     fit-margin-top="0"
     fit-margin-left="0"
     fit-margin-right="0"
     fit-margin-bottom="0" /><flowRoot
     xml:space="preserve"
     id="flowRoot3824"
     style="font-size:40px;font-style:normal;font-weight:normal;line-height:125%;letter-spacing:0px;word-spacing:0px;fill:#000000;fill-opacity:1;stroke:none;font-family:Sans"
     transform="translate(-1078.7334,621.42414)"><flowRegion
       id="flowRegion3826"><rect
         id="rect3828"
         width="286.49237"
         height="147.05882"
         x="8.7145967"
         y="148.73109" /></flowRegion><flowPara
       id="flowPara3830" /></flowRoot><flowRoot
     style="font-size:40px;font-style:normal;font-weight:normal;line-height:125%;letter-spacing:0px;word-spacing:0px;fill:#000000;fill-opacity:1;stroke:none;font-family:Sans"
     id="flowRoot3879"
     xml:space="preserve"
     transform="translate(-538.73337,621.42514)"><flowRegion
       id="flowRegion3881"><rect
         y="148.73109"
         x="8.7145967"
         height="147.05882"
         width="286.49237"
         id="rect3883" /></flowRegion><flowPara
       id="flowPara3885" /></flowRoot><path
     inkscape:connector-curvature="0"
     style="text-indent:0;text-transform:none;block-progression:tb;color:#000000;fill:#ffffff;enable-background:accumulate"
     d="m 151.92663,1.4251328 c -11.241,0 -20.322,9.0815002 -20.322,20.3220002 0,4.6335 1.5429,8.898 4.1442,12.313 5.6431,-6.5315 13.972,-10.679 23.271,-10.679 4.5496,0 8.8639,1.0131 12.751,2.7893 0.3147,-1.4234 0.4782,-2.9037 0.4782,-4.4231 0.01,-11.24 -9.08,-20.3220002 -20.32,-20.3220002 z m -26.539,9.4040002 c -5.8539,0 -10.56,4.7456 -10.56,10.599 0,1.8953 0.489,3.6862 1.3548,5.22 3.5325,-1.9927 7.6164,-3.148 11.954,-3.148 0.4186,0 0.8219,0.017 1.2353,0.0398 -0.047,-0.59343 -0.08,-1.1878 -0.08,-1.7931 0,-3.2605 0.7082,-6.3627 1.9525,-9.165 -1.6754,-1.1235 -3.6828,-1.7533 -5.8576,-1.7533 z m 50.128,7.2921 c -0.4325,0 -0.8493,0.0531 -1.2751,0.0797 0.1842,1.1613 0.3188,2.3339 0.3188,3.5464 0,1.8871 -0.24,3.708 -0.6774,5.4591 5.1284,2.8381 9.3873,7.0847 12.193,12.233 2.9105,-1.5152 6.1573,-2.4787 9.6033,-2.7096 -0.8881,-10.415 -9.5166,-18.609 -20.163,-18.609 z m -16.497,7.5711 c -15.729,0 -28.451,12.721 -28.451,28.451 0,15.729 12.721,28.451 28.451,28.451 15.73,0 28.451,-12.723 28.451,-28.451 0,-15.73 -12.722,-28.451 -28.451,-28.451 z m -30.882,0.11954 c -12.203,0 -22.076,9.8727 -22.076,22.076 0,7.1836 3.4227,13.543 8.7266,17.573 2.236,-4.3127 6.727,-7.2523 11.914,-7.2523 0.627,0 1.2287,0.076 1.833,0.15939 -0.1897,-1.3801 -0.2789,-2.792 -0.2789,-4.2239 0,-6.846 2.2284,-13.177 6.017,-18.29 -2.2678,-2.8377 -3.8907,-6.2474 -4.5825,-9.9619 -0.5127,-0.0355 -1.0323,-0.0797 -1.5541,-0.0797 z m 69.18,13.149 c -3.7054,0 -7.1763,0.94599 -10.241,2.5503 1.7401,3.8545 2.7096,8.1312 2.7096,12.632 0,8.4268 -3.3881,16.079 -8.886,21.637 4.039,4.4841 9.8991,7.2921 16.417,7.2921 12.203,0 22.076,-9.8727 22.076,-22.076 0,-12.2033 -9.8727,-22.036 -22.076,-22.036 z m -93.403,2.9089 c -11.240996,0 -20.361996,9.0413 -20.361996,20.282 0,11.2407 9.121,20.362 20.361996,20.362 4.2785,0 8.2419,-1.333 11.516,-3.5863 -1.3529,-2.1023 -2.1518,-4.6156 -2.1518,-7.2921 0,-1.3892 0.205,-2.7238 0.5977,-3.9848 -6.1294,-4.4296 -10.121,-11.638 -10.121,-19.764 0,-2.0648 0.2721,-4.0613 0.7571,-5.9772 -0.2013,-0.006 -0.3949,-0.0399 -0.5977,-0.0399 z m 119.5,17.453 c -0.5997,0 -1.1799,0.0683 -1.7533,0.15939 0.032,0.50688 0.04,0.99939 0.04,1.5142 0,6.4816 -2.5574,12.364 -6.6944,16.736 2.0353,2.3668 5.0248,3.8652 8.4079,3.8652 6.1623,0 11.157,-4.9552 11.157,-11.117 0,-6.1623 -4.9951,-11.157 -11.157,-11.157 z m -96.71,1.1954 c -6.162,0 -11.118,4.9555 -11.118,11.117 0,6.162 4.9555,11.157 11.118,11.157 4.7232,0 8.7323,-2.9472 10.36,-7.0929 -3.9726,-4.046 -6.8276,-9.2077 -8.0891,-14.943 -0.7382,-0.15266 -1.4875,-0.23909 -2.2713,-0.23909 z m 122.21,9.3642 v 22.036 h -11.675 c -7.6322,0 -13.827,6.2347 -13.827,13.866997 0,7.6311 6.195,13.827 13.827,13.827 h 4.5426 c 2.239,0 4.4748,-1.0874 6.2561,-2.7495 1.7813,-1.6621 3.1409,-3.9644 3.1878,-6.535 0.08,-4.4122 0,-17.253997 0,-17.253997 v -23.191 h -2.3112 z m -106.75,9.9619 v 30.482997 c 0,5.1232 4.2011,9.2845 9.3244,9.2845 v -2.3112 c -3.8766,0 -7.0132,-3.0967 -7.0132,-6.9733 V 81.278273 c -0.8046,-0.4325 -1.5514,-0.93449 -2.3112,-1.4345 z m -23.112,2.8292 c -4.0935,3.9059 -6.6546,9.4053 -6.6546,15.501 0,11.826997 9.6118,21.437997 21.438,21.437997 v -2.3112 c -10.579,0 -19.127,-8.5469 -19.127,-19.126997 0,-5.6905 2.4839,-10.805 6.4155,-14.305 -0.7348,-0.33851 -1.4155,-0.73502 -2.0721,-1.1954 z m -27.215996,9.165 c -7.6322,0 -13.827,6.1949 -13.827,13.826997 v 12.791 h 2.3112 v -12.791 c 0,-6.385197 5.1309,-11.555997 11.516,-11.555997 6.3864,0 11.555996,5.1706 11.555996,11.555997 v 12.791 h 2.3112 v -12.791 c 0,-7.632197 -6.233796,-13.826997 -13.866996,-13.826997 z m 77.582996,0.0797 c -7.6326,0 -13.827,6.2344 -13.827,13.866997 0,7.6326 6.1945,13.867 13.827,13.867 7.6326,0 13.867,-6.2344 13.867,-13.867 0,-7.632597 -6.2344,-13.866997 -13.867,-13.866997 z m -154.289996,0.0398 c -7.6320003,0 -13.8670003,6.1952 -13.8670003,13.826997 0,7.632 6.235,13.827 13.8670003,13.827 7.632,0 13.827,-6.1952 13.827,-13.827 0,-7.631997 -6.1952,-13.826997 -13.827,-13.826997 z m 20.761,1.036 v 17.333997 c 0,5.1234 4.1622,9.2845 9.2845,9.2845 3.4912,0 6.5716,-1.9303 8.1688,-4.7817 1.5857,2.8514 4.6384,4.7817 8.1289,4.7817 5.1233,0 9.3243,-4.1611 9.3243,-9.2845 V 92.993973 h -2.3112 v 17.333997 c 0,3.8764 -3.1366,6.9733 -7.0132,6.9733 -3.8766,0 -6.9733,-3.0969 -6.9733,-6.9733 V 92.993973 h -2.3112 v 17.333997 c 0,3.8766 -3.1352,6.9733 -7.0132,6.9733 -3.8753,0 -6.9733,-3.0969 -6.9733,-6.9733 V 92.993973 h -2.3112 z m 153.449996,0 v 12.790997 c 0,7.6311 6.195,13.827 13.827,13.827 7.6322,0 13.867,-6.1959 13.867,-13.827 V 92.993973 h -2.3112 v 12.790997 c 0,6.3837 -5.1707,11.516 -11.556,11.516 -6.3851,0 -11.516,-5.1322 -11.516,-11.516 V 92.993973 h -2.3112 z m -19.924,1.2353 c 6.3856,0 11.556,5.1702 11.556,11.555997 0,6.3856 -5.1702,11.556 -11.556,11.556 -6.3856,0 -11.516,-5.1702 -11.516,-11.556 0,-6.385597 5.1304,-11.555997 11.516,-11.555997 z m 67.821,0 h 11.675 c 0.01,1.5271 0.073,12.045997 0,16.058997 -0.033,1.7858 -1.0121,3.5776 -2.4307,4.9013 -1.4186,1.3236 -3.2544,2.1119 -4.702,2.1119 h -4.5426 c -6.3851,0 -11.516,-5.1322 -11.516,-11.516 0,-6.385197 5.1309,-11.555997 11.516,-11.555997 z m -222.109996,0.0399 c 6.385,0 11.516,5.131 11.516,11.515997 0,6.385 -5.131,11.516 -11.516,11.516 -6.3850003,0 -11.5560003,-5.131 -11.5560003,-11.516 0,-6.384997 5.1708,-11.515997 11.5560003,-11.515997 z"
     id="path4159"
     inkscape:export-filename="/home/jan/ownCloud Contributor Conference logo.png"
     inkscape:export-xdpi="179.59"
     inkscape:export-ydpi="179.59" /><g
     style="font-size:40px;font-style:normal;font-weight:normal;line-height:100%;letter-spacing:0px;word-spacing:0px;fill:#000000;fill-opacity:1;stroke:none;font-family:Sans"
     id="text4161"
     transform="translate(1,1.4284958)"><path
       style="font-size:43px;font-variant:normal;font-stretch:normal;line-height:100%;letter-spacing:-1.33000028px;fill:#ffffff;fill-opacity:1;font-family:Source Sans Pro;-inkscape-font-specification:Source Sans Pro"
       d="m 12.8125,132.34375 c -1.806013,3e-5 -3.4832614,0.34328 -5.03125,1.03125 -1.5193416,0.65937 -2.850757,1.6137 -3.96875,2.875 -1.1180047,1.26136 -1.9630872,2.78778 -2.59375,4.59375 -0.63066924,1.80602 -0.96875224,3.8291 -0.96875,6.09375 -2.24e-6,2.29335 0.30424743,4.3841 0.90625,6.21875 0.6306629,1.80601 1.504412,3.33243 2.59375,4.59375 1.1179931,1.23267 2.4155751,2.18442 3.90625,2.84375 1.5193221,0.65934 3.160154,0.96875 4.9375,0.96875 1.805984,0 3.407815,-0.34583 4.8125,-1.0625 1.404646,-0.71666 2.663228,-1.70999 3.78125,-3 l -2,-2.21875 c -0.917354,1.00334 -1.905519,1.79909 -2.9375,2.34375 -1.003351,0.54467 -2.186516,0.81251 -3.5625,0.8125 -1.347347,1e-5 -2.566929,-0.26783 -3.65625,-0.8125 -1.0606767,-0.54466 -1.9734258,-1.34041 -2.71875,-2.34375 -0.7453409,-1.00332 -1.320007,-2.18907 -1.75,-3.59375 -0.4013395,-1.43332 -0.593756,-3.03515 -0.59375,-4.8125 -6e-6,-1.74865 0.1949938,-3.34531 0.625,-4.75 0.4299929,-1.40464 1.0384923,-2.58781 1.8125,-3.5625 0.7739908,-1.0033 1.6919065,-1.76522 2.78125,-2.28125 1.089321,-0.54464 2.308903,-0.81247 3.65625,-0.8125 1.203984,3e-5 2.267566,0.23145 3.15625,0.71875 0.917314,0.4587 1.754647,1.10361 2.5,1.90625 l 2,-2.28125 c -0.831355,-0.9173 -1.866271,-1.71822 -3.15625,-2.40625 -1.290018,-0.71663 -2.811267,-1.06247 -4.53125,-1.0625 z m 21.40625,0 c -1.777346,3e-5 -3.384344,0.30945 -4.875,0.96875 -1.462008,0.65937 -2.75184,1.6137 -3.8125,2.875 -1.060671,1.2327 -1.866754,2.75653 -2.46875,4.5625 -0.573336,1.77736 -0.875002,3.79785 -0.875,6.0625 -2e-6,2.26468 0.301664,4.3216 0.875,6.15625 0.601996,1.80601 1.408079,3.36626 2.46875,4.65625 1.06066,1.26134 2.350492,2.21826 3.8125,2.90625 1.490656,0.688 3.097654,1.03125 4.875,1.03125 1.777317,0 3.412982,-0.34325 4.875,-1.03125 1.490646,-0.68799 2.751811,-1.64491 3.8125,-2.90625 1.089309,-1.28999 1.926642,-2.85024 2.5,-4.65625 0.601974,-1.83465 0.906224,-3.89157 0.90625,-6.15625 -2.6e-5,-2.23598 -0.304276,-4.22264 -0.90625,-6 -0.573358,-1.80597 -1.410691,-3.3298 -2.5,-4.5625 -1.060689,-1.2613 -2.321854,-2.21563 -3.8125,-2.875 -1.462018,-0.68797 -3.097683,-1.03122 -4.875,-1.03125 z m 180.03125,0 c -1.77734,3e-5 -3.41559,0.30945 -4.90625,0.96875 -1.46201,0.65937 -2.72059,1.6137 -3.78125,2.875 -1.06067,1.2327 -1.898,2.75653 -2.5,4.5625 -0.57333,1.77736 -0.875,3.79785 -0.875,6.0625 0,2.26468 0.30167,4.3216 0.875,6.15625 0.602,1.80601 1.43933,3.36626 2.5,4.65625 1.06066,1.26134 2.31924,2.21826 3.78125,2.90625 1.49066,0.688 3.12891,1.03125 4.90625,1.03125 1.77732,0 3.38173,-0.34325 4.84375,-1.03125 1.49065,-0.68799 2.78306,-1.64491 3.84375,-2.90625 1.08931,-1.28999 1.89539,-2.85024 2.46875,-4.65625 0.60198,-1.83465 0.90623,-3.89157 0.90625,-6.15625 -2e-5,-2.23598 -0.30427,-4.22264 -0.90625,-6 -0.57336,-1.80597 -1.37944,-3.3298 -2.46875,-4.5625 -1.06069,-1.2613 -2.3531,-2.21563 -3.84375,-2.875 -1.46202,-0.68797 -3.06643,-1.03122 -4.84375,-1.03125 z m -163.1875,0.5 0,28.21875 3.375,0 0,-14.75 c -7e-6,-1.49065 -0.04159,-2.97548 -0.15625,-4.4375 -0.08601,-1.49064 -0.19784,-2.94164 -0.3125,-4.375 l 0.1875,0 3.03125,5.78125 10.25,17.78125 3.6875,0 0,-28.21875 -3.40625,0 0,14.59375 c -2e-5,1.49068 0.07023,2.98327 0.15625,4.53125 0.114646,1.51935 0.19523,3.00418 0.28125,4.4375 l -0.15625,0 -3.0625,-5.84375 -10.1875,-17.71875 -3.6875,0 z m 23.78125,0 0,3 8.53125,0 0,25.21875 3.59375,0 0,-25.21875 8.53125,0 0,-3 -20.65625,0 z m 24.34375,0 0,28.21875 3.59375,0 0,-11.90625 5.09375,0 6.8125,11.90625 4.03125,0 -7.125,-12.3125 c 1.92065,-0.48732 3.44706,-1.36881 4.59375,-2.6875 1.14664,-1.31865 1.71872,-3.10514 1.71875,-5.3125 -3e-5,-1.46197 -0.23144,-2.68414 -0.71875,-3.6875 -0.48736,-1.0033 -1.17386,-1.83805 -2.0625,-2.46875 -0.86002,-0.63063 -1.9236,-1.05447 -3.15625,-1.3125 -1.20402,-0.28663 -2.50418,-0.43747 -3.9375,-0.4375 l -8.84375,0 z m 23.625,0 0,28.21875 3.5625,0 0,-28.21875 -3.5625,0 z m 10,0 0,28.21875 9,0 c 1.57665,0 3.02507,-0.18724 4.34375,-0.53125 1.31865,-0.34399 2.46023,-0.84324 3.40625,-1.53125 0.94598,-0.68799 1.67148,-1.56174 2.1875,-2.59375 0.51598,-1.03199 0.78123,-2.21774 0.78125,-3.59375 -2e-5,-1.94932 -0.60336,-3.50698 -1.75,-4.625 -1.14669,-1.11798 -2.74852,-1.80965 -4.8125,-2.125 l 0,-0.1875 c 1.66265,-0.42998 2.91606,-1.19448 3.71875,-2.3125 0.80265,-1.14664 1.18748,-2.43906 1.1875,-3.84375 -2e-5,-1.23264 -0.23144,-2.26497 -0.71875,-3.125 -0.45869,-0.88864 -1.10877,-1.61155 -1.96875,-2.15625 -0.83135,-0.54463 -1.85852,-0.96072 -3.0625,-1.21875 -1.17535,-0.25797 -2.47293,-0.37497 -3.90625,-0.375 l -8.40625,0 z m 23.84375,0 0,16.5625 c -1e-5,2.26468 0.23399,4.17076 0.75,5.71875 0.51599,1.54801 1.23632,2.80659 2.125,3.78125 0.91732,0.94601 1.98607,1.63251 3.21875,2.0625 1.26132,0.40134 2.5979,0.59375 4.03125,0.59375 1.43331,0 2.76731,-0.19241 4,-0.59375 1.23264,-0.42999 2.29881,-1.11649 3.1875,-2.0625 0.91731,-0.97466 1.64022,-2.23324 2.15625,-3.78125 0.51597,-1.54799 0.78122,-3.45407 0.78125,-5.71875 l 0,-16.5625 -3.4375,0 0,16.65625 c -3e-5,1.69135 -0.18727,3.10335 -0.53125,4.25 -0.34402,1.14668 -0.80427,2.06201 -1.40625,2.75 -0.60202,0.68801 -1.32236,1.18468 -2.125,1.5 -0.80269,0.28667 -1.67902,0.43751 -2.625,0.4375 -0.91735,1e-5 -1.75985,-0.15083 -2.5625,-0.4375 -0.80268,-0.31532 -1.52301,-0.81199 -2.125,-1.5 -0.57335,-0.68799 -1.03101,-1.60332 -1.375,-2.75 -0.34401,-1.14665 -0.50001,-2.55865 -0.5,-4.25 l 0,-16.65625 -3.5625,0 z m 23.84375,0 0,3 8.5,0 0,25.21875 3.625,0 0,-25.21875 8.5,0 0,-3 -20.625,0 z m 50.5625,0 0,28.21875 3.5625,0 0,-11.90625 5.125,0 6.78125,11.90625 4.03125,0 -7.125,-12.3125 c 1.92065,-0.48732 3.44706,-1.36881 4.59375,-2.6875 1.14664,-1.31865 1.71872,-3.10514 1.71875,-5.3125 -3e-5,-1.46197 -0.23144,-2.68414 -0.71875,-3.6875 -0.48736,-1.0033 -1.17386,-1.83805 -2.0625,-2.46875 -0.86002,-0.63063 -1.9236,-1.05447 -3.15625,-1.3125 -1.20402,-0.28663 -2.50418,-0.43747 -3.9375,-0.4375 l -8.8125,0 z m -196.84375,2.625 c 1.261318,3e-5 2.4029,0.26786 3.40625,0.8125 1.031981,0.51603 1.908314,1.27536 2.625,2.25 0.745312,0.97469 1.317395,2.15786 1.71875,3.5625 0.401311,1.40469 0.593727,2.9701 0.59375,4.71875 -2.3e-5,1.77735 -0.192439,3.37918 -0.59375,4.8125 -0.401355,1.40468 -0.973438,2.62426 -1.71875,3.65625 -0.716686,1.00334 -1.593019,1.79909 -2.625,2.34375 -1.00335,0.54467 -2.144932,0.81251 -3.40625,0.8125 -1.261346,1e-5 -2.405512,-0.26783 -3.4375,-0.8125 -1.003343,-0.54466 -1.879676,-1.34041 -2.625,-2.34375 -0.716674,-1.03199 -1.254924,-2.25157 -1.65625,-3.65625 -0.40134,-1.43332 -0.625006,-3.03515 -0.625,-4.8125 -6e-6,-1.74865 0.22366,-3.31406 0.625,-4.71875 0.401326,-1.40464 0.939576,-2.58781 1.65625,-3.5625 0.745324,-0.97464 1.621657,-1.73397 2.625,-2.25 1.031988,-0.54464 2.176154,-0.81247 3.4375,-0.8125 z m 180.03125,0 c 1.26132,3e-5 2.37165,0.26786 3.375,0.8125 1.03198,0.51603 1.90832,1.27536 2.625,2.25 0.74531,0.97469 1.3174,2.15786 1.71875,3.5625 0.40131,1.40469 0.62498,2.9701 0.625,4.71875 -2e-5,1.77735 -0.22369,3.37918 -0.625,4.8125 -0.40135,1.40468 -0.97344,2.62426 -1.71875,3.65625 -0.71668,1.00334 -1.59302,1.79909 -2.625,2.34375 -1.00335,0.54467 -2.11368,0.81251 -3.375,0.8125 -1.26134,1e-5 -2.43676,-0.26783 -3.46875,-0.8125 -1.00334,-0.54466 -1.84842,-1.34041 -2.59375,-2.34375 -0.71667,-1.03199 -1.28617,-2.25157 -1.6875,-3.65625 -0.40134,-1.43332 -0.59375,-3.03515 -0.59375,-4.8125 0,-1.74865 0.19241,-3.31406 0.59375,-4.71875 0.40133,-1.40464 0.97083,-2.58781 1.6875,-3.5625 0.74533,-0.97464 1.59041,-1.73397 2.59375,-2.25 1.03199,-0.54464 2.20741,-0.81247 3.46875,-0.8125 z m -77.84375,0.21875 4.3125,0 c 2.20732,3e-5 3.8794,0.34328 4.96875,1.03125 1.11798,0.65936 1.65623,1.76453 1.65625,3.3125 -2e-5,1.57669 -0.5331,2.76244 -1.59375,3.59375 -1.03202,0.83135 -2.75085,1.25002 -5.1875,1.25 l -4.15625,0 0,-9.1875 z m -33.625,0.0312 4.71875,0 c 2.20732,3e-5 3.88715,0.3797 5.0625,1.125 1.17531,0.74536 1.78123,2.04294 1.78125,3.90625 -2e-5,1.83469 -0.60594,3.20769 -1.78125,4.125 -1.17535,0.88869 -2.85518,1.34377 -5.0625,1.34375 l -4.71875,0 0,-10.5 z m 131.84375,0 4.71875,0 c 2.20732,3e-5 3.9184,0.3797 5.09375,1.125 1.17531,0.74536 1.74998,2.04294 1.75,3.90625 -2e-5,1.83469 -0.57469,3.20769 -1.75,4.125 -1.17535,0.88869 -2.88643,1.34377 -5.09375,1.34375 l -4.71875,0 0,-10.5 z m -98.21875,11.84375 4.875,0 c 2.49399,2e-5 4.40007,0.41868 5.71875,1.25 1.31865,0.80268 1.99998,2.06385 2,3.8125 -2e-5,1.92068 -0.68394,3.33268 -2.03125,4.25 -1.34735,0.88867 -3.25085,1.34376 -5.6875,1.34375 l -4.875,0 0,-10.65625 z M 13.375,175.5 c -1.806014,3e-5 -3.5222619,0.3407 -5.15625,1 -1.605342,0.65937 -3.0173405,1.6137 -4.25,2.875 -1.2040048,1.26136 -2.1895871,2.82161 -2.90625,4.65625 -0.71666903,1.80602 -1.062501978,3.86552 -1.0625,6.1875 -1.978e-6,2.35068 0.34324765,4.41276 1.03125,6.21875 0.6879963,1.77734 1.6397453,3.26476 2.84375,4.46875 1.2039929,1.20401 2.6134082,2.11934 4.21875,2.75 1.6053216,0.602 3.287737,0.90625 5.09375,0.90625 1.74865,0 3.384315,-0.34325 4.875,-1.03125 1.519312,-0.68799 2.855894,-1.71774 4.03125,-3.09375 L 18.625,196.625 c -0.68802,0.74535 -1.452519,1.32259 -2.3125,1.78125 -0.860017,0.45868 -1.8846,0.68751 -3.03125,0.6875 -2.064013,1e-5 -3.7048449,-0.76707 -4.9375,-2.34375 C 7.1110742,195.14468 6.4999915,192.89535 6.5,190 c -8.5e-6,-1.40465 0.1559913,-2.66323 0.5,-3.78125 0.3726573,-1.11798 0.8693234,-2.06973 1.5,-2.84375 0.6306555,-0.77397 1.3874048,-1.37989 2.21875,-1.78125 0.859986,-0.42997 1.775319,-0.62497 2.75,-0.625 0.97465,3e-5 1.814566,0.18986 2.53125,0.5625 0.745315,0.37269 1.470814,0.87194 2.1875,1.53125 l 3.5,-3.90625 c -0.946023,-0.97464 -2.160438,-1.81455 -3.59375,-2.53125 -1.404685,-0.7453 -2.9701,-1.12497 -4.71875,-1.125 z m 22.78125,0 c -1.892013,3e-5 -3.610845,0.3407 -5.1875,1 -1.548008,0.6307 -2.882007,1.54861 -4,2.78125 -1.118005,1.20403 -1.994337,2.72528 -2.625,4.53125 -0.602003,1.77736 -0.906252,3.80044 -0.90625,6.09375 -2e-6,2.29335 0.304247,4.35026 0.90625,6.15625 0.630663,1.80601 1.506995,3.33243 2.625,4.59375 1.117993,1.26134 2.451992,2.24951 4,2.9375 1.576655,0.65934 3.295487,0.96875 5.1875,0.96875 1.891983,0 3.608231,-0.30941 5.15625,-0.96875 1.576645,-0.68799 2.944477,-1.67616 4.0625,-2.9375 1.117975,-1.26132 1.960474,-2.78774 2.5625,-4.59375 0.630639,-1.80599 0.937472,-3.8629 0.9375,-6.15625 -2.8e-5,-2.26465 -0.306861,-4.28514 -0.9375,-6.0625 -0.602026,-1.80597 -1.444525,-3.3298 -2.5625,-4.5625 -1.118023,-1.23264 -2.485855,-2.15055 -4.0625,-2.78125 -1.548019,-0.6593 -3.264267,-0.99997 -5.15625,-1 z m 183.3125,0 c -1.80602,3e-5 -3.52227,0.3407 -5.15625,1 -1.60535,0.65937 -3.01734,1.6137 -4.25,2.875 -1.20401,1.26136 -2.15834,2.82161 -2.875,4.65625 -0.71667,1.80602 -1.09376,3.86552 -1.09375,6.1875 -1e-5,2.35068 0.34324,4.41276 1.03125,6.21875 0.68799,1.77734 1.63974,3.26476 2.84375,4.46875 1.20399,1.20401 2.6134,2.11934 4.21875,2.75 1.60532,0.602 3.31898,0.90625 5.125,0.90625 1.74865,0 3.35306,-0.34325 4.84375,-1.03125 1.51931,-0.68799 2.85589,-1.71774 4.03125,-3.09375 l -3.46875,-3.8125 c -0.68802,0.74535 -1.45252,1.32259 -2.3125,1.78125 -0.86002,0.45868 -1.8846,0.68751 -3.03125,0.6875 -2.06402,1e-5 -3.70485,-0.76707 -4.9375,-2.34375 -1.23268,-1.60532 -1.84376,-3.85465 -1.84375,-6.75 -1e-5,-1.40465 0.15599,-2.66323 0.5,-3.78125 0.37265,-1.11798 0.90057,-2.06973 1.53125,-2.84375 0.63065,-0.77397 1.35615,-1.37989 2.1875,-1.78125 0.85998,-0.42997 1.77532,-0.62497 2.75,-0.625 0.97465,3e-5 1.81456,0.18986 2.53125,0.5625 0.74531,0.37269 1.47081,0.87194 2.1875,1.53125 l 3.5,-3.90625 c -0.94603,-0.97464 -2.16044,-1.81455 -3.59375,-2.53125 -1.40469,-0.7453 -2.9701,-1.12497 -4.71875,-1.125 z m -165.3125,0.53125 0,28.03125 6.03125,0 0,-9.9375 c -1e-5,-1.66265 -0.111843,-3.3789 -0.3125,-5.15625 -0.172009,-1.77731 -0.325426,-3.45198 -0.46875,-5 l 0.15625,0 2.78125,6.125 7.28125,13.96875 6.5,0 0,-28.03125 -6,0 0,9.875 c -1.9e-5,1.66269 0.07798,3.41535 0.25,5.25 0.200647,1.83468 0.356647,3.50935 0.5,5 l -0.15625,0 -2.75,-6.21875 -7.3125,-13.90625 -6.5,0 z m 28.5625,0 0,28.03125 6.3125,0 0,-10.875 9.71875,0 0,-5.34375 -9.71875,0 0,-6.5 11.34375,0 0,-5.3125 -17.65625,0 z m 22.5,0 0,28.03125 17.96875,0 0,-5.34375 -11.65625,0 0,-6.4375 9.5625,0 0,-5.3125 -9.5625,0 0,-5.625 11.25,0 0,-5.3125 -17.5625,0 z m 23.59375,0 0,28.03125 6.34375,0 0,-10.125 3.46875,0 5.375,10.125 7.09375,0 -6.375,-11.21875 c 1.51931,-0.65932 2.73631,-1.65007 3.625,-2.96875 0.91731,-1.34731 1.37498,-3.06098 1.375,-5.125 -2e-5,-1.66264 -0.30169,-3.06947 -0.875,-4.1875 -0.57335,-1.11797 -1.33785,-1.99689 -2.3125,-2.65625 -0.97469,-0.68797 -2.11885,-1.18205 -3.4375,-1.46875 -1.29002,-0.28663 -2.6656,-0.40622 -4.15625,-0.40625 l -10.125,0 z m 26.46875,0 0,28.03125 17.96875,0 0,-5.34375 -11.65625,0 0,-6.4375 9.5625,0 0,-5.3125 -9.5625,0 0,-5.625 11.21875,0 0,-5.3125 -17.53125,0 z m 23.59375,0 0,28.03125 6.03125,0 0,-9.9375 c -1e-5,-1.66265 -0.11184,-3.3789 -0.3125,-5.15625 -0.17201,-1.77731 -0.32543,-3.45198 -0.46875,-5 l 0.15625,0 2.75,6.125 7.3125,13.96875 6.5,0 0,-28.03125 -6,0 0,9.875 c -2e-5,1.66269 0.078,3.41535 0.25,5.25 0.20065,1.83468 0.35665,3.50935 0.5,5 l -0.15625,0 -2.75,-6.21875 -7.3125,-13.90625 -6.5,0 z m 53.59375,0 0,28.03125 17.96875,0 0,-5.34375 -11.65625,0 0,-6.4375 9.53125,0 0,-5.3125 -9.53125,0 0,-5.625 11.21875,0 0,-5.3125 -17.53125,0 z m -196.3125,4.9375 c 1.92065,3e-5 3.444481,0.79836 4.5625,2.375 1.117979,1.57669 1.687479,3.75319 1.6875,6.5625 -2.1e-5,2.83802 -0.569521,5.08735 -1.6875,6.75 -1.118019,1.63401 -2.64185,2.43751 -4.5625,2.4375 -1.92068,1e-5 -3.444512,-0.80349 -4.5625,-2.4375 -1.118009,-1.66265 -1.656259,-3.91198 -1.65625,-6.75 -9e-6,-2.80931 0.538241,-4.98581 1.65625,-6.5625 1.117988,-1.57664 2.64182,-2.37497 4.5625,-2.375 z m 99,0.0937 3.25,0 c 1.66265,3e-5 2.92124,0.26786 3.78125,0.8125 0.88865,0.54469 1.34373,1.49903 1.34375,2.875 -2e-5,1.37602 -0.4551,2.40836 -1.34375,3.125 -0.86001,0.68802 -2.1186,1.03127 -3.78125,1.03125 l -3.25,0 0,-7.84375 z"
       transform="translate(0,-0.00171673)"
       id="path3115"
       inkscape:connector-curvature="0" /></g></svg>