<svg xmlns="http://www.w3.org/2000/svg" xmlns:svg="http://www.w3.org/2000/svg" id="svg2574" width="900" height="600" version="1.0"><metadata id="metadata9"/><g id="layer1" transform="matrix(1.0122197,0,0,1.0122197,-5.4988171,96.672153)"><g id="g2584" transform="matrix(6.2918274,0,0,6.2918274,-1685.5171,-1336.8611)"><path id="path959" fill="#c8c7c8" fill-opacity="1" fill-rule="evenodd" stroke="none" d="m 276.649,262.74518 c 2.15375,2.3825 4.69652,4.36419 7.62902,5.94794 4.47375,2.41625 9.4575,3.645 14.9525,3.68875 4.08375,-0.0425 8.0575,-0.98 11.92375,-2.81 3.62125,-1.715 6.69273,-3.99144 9.21273,-6.82769 l -3.479,0.001 c -0.035,0.0288 -0.0712,0.0542 -0.10623,0.0792 -2.6975,1.84 -5.5225,3.24 -8.475,4.2 -2.9525,0.96125 -6.07875,1.44375 -9.37625,1.45 -4.2225,-0.05 -7.9525,-1.085 -11.19375,-3.105 -1.24,-0.77375 -2.37877,-1.65044 -3.41377,-2.62419 z m 57.129,0 c 0.1825,0.1925 0.38252,0.37544 0.59877,0.54544 1.37,1.07875 3.0175,1.625 4.94375,1.63875 1.92375,-0.0138 3.56125,-0.56 4.91375,-1.63875 0.2125,-0.17 0.41048,-0.35294 0.59173,-0.54544 z m 64.12252,4.4e-4 c 0.17125,0.20375 0.36,0.3925 0.56375,0.5675 1.2425,1.0675 2.845,1.60625 4.80875,1.61625 1.3625,10e-4 2.6025,-0.33375 3.71875,-1.0075 0.52125,-0.315 0.96148,-0.70794 1.32023,-1.17669 h -10.411 m -128.075,-14.453 c 0.56375,3.81125 1.81202,7.26469 3.74702,10.36719 0.9175,1.4725 1.94223,2.83456 3.07598,4.08581 h 7.674 c -1.67,-1.5675 -3.07373,-3.39831 -4.21248,-5.49081 -1.49,-2.73625 -2.38877,-5.72469 -2.69752,-8.96219 z m 19,-3.1e-4 -1.49673,3.41375 c -0.2575,0.57 -0.5075,1.1575 -0.75125,1.765 -0.2425,0.6075 -0.3725,1.24125 -0.39,1.90125 0.0175,0.85625 0.2975,1.5475 0.84125,2.07375 0.54375,0.525 1.245,0.79625 2.10375,0.81125 1.1275,-0.05 2.0275,-0.47625 2.6975,-1.2775 0.67,-0.80125 1.1925,-1.6775 1.57,-2.63 l 2.65648,-6.05719 z m 13.211,3.1e-4 -1.54398,3.47344 c -0.285,0.57 -0.5425,1.15625 -0.77375,1.7575 -0.23125,0.60125 -0.355,1.2175 -0.36875,1.84875 0.015,0.85625 0.28625,1.5475 0.81125,2.07375 0.52625,0.525 1.2175,0.79625 2.07375,0.81125 1.1275,-0.0487 2.02875,-0.46375 2.705,-1.2475 0.67625,-0.78375 1.2175,-1.65 1.6225,-2.6 l 2.73398,-6.1175 z m 15.721,0 c -0.57,1.1 -1.23623,2.11594 -1.99873,3.05219 l 2.10375,1.80375 c 1.4925,-1.4025 2.77523,-3.01969 3.84898,-4.85594 z m 47.768,16.276 h 4.147 l 2e-5,-18.934 h -4.1475 z m 7.827,-16.276 c 0.1025,0.41375 0.31127,0.77719 0.62627,1.09094 0.44625,0.4475 0.995,0.68 1.645,0.69875 0.65,-0.0188 1.1975,-0.25125 1.645,-0.69875 0.31375,-0.31375 0.52223,-0.67594 0.62473,-1.09094 z m -52.986,14.452 c 0.17,-0.1925 0.33727,-0.38481 0.50102,-0.57981 l -1.20125,-1.80375 c -0.87,0.88 -1.79752,1.67206 -2.77877,2.38456 z m 24.459,0.001 c 0.9675,-1.03125 1.47577,-2.38706 1.52702,-4.06831 -0.06,-1.995 -0.76625,-3.53375 -2.11875,-4.6125 -1.3525,-1.08 -2.99,-1.62625 -4.91375,-1.63875 -1.92625,0.009 -3.57375,0.5475 -4.94375,1.61625 -1.37,1.0675 -2.08625,2.6125 -2.14875,4.635 0.0525,1.68125 0.56873,3.03706 1.54998,4.06831 z m 8.56,1.823 -4.8e-4,-6.07131 c -0.015,-0.74375 0.135,-1.375 0.45,-1.89375 0.31625,-0.51875 0.8875,-0.78875 1.71375,-0.81125 0.81625,0.0238 1.3475,0.29125 1.5925,0.80375 0.245,0.5125 0.35625,1.12625 0.33,1.84125 l 2.3e-4,6.13131 h 4.147 l 2.7e-4,-7.27381 c 0.008,-1.48875 -0.35125,-2.6575 -1.07375,-3.50875 -0.7225,-0.85 -1.8475,-1.2825 -3.37375,-1.3 -0.80875,-0.009 -1.52,0.13 -2.13375,0.41375 -0.61375,0.28375 -1.145,0.7675 -1.5925,1.45 h -0.06 v -1.5025 h -4.1475 l -2e-5,11.72131 z m 20.195,0 h 4.087 l 2e-5,-11.72131 h -4.0875 z m 11.901,0 -2.3e-4,-6.07131 c -0.015,-0.74375 0.135,-1.375 0.45,-1.89375 0.31625,-0.51875 0.8875,-0.78875 1.71375,-0.81125 0.76125,0.02 1.26625,0.26625 1.5175,0.73625 0.25,0.47125 0.365,1.0475 0.345,1.72875 l -2e-5,6.31131 h 4.148 l -4.8e-4,-7.27381 c 0.006,-1.48875 -0.35125,-2.6575 -1.07375,-3.50875 -0.72375,-0.85 -1.8475,-1.2825 -3.37375,-1.3 -0.65125,0.0288 -1.3175,0.2425 -1.99875,0.63875 -0.68125,0.3975 -1.2575,0.80625 -1.7275,1.225 v -1.5025 h -4.2075 l -2.7e-4,11.72131 z m 22.83,-1.823 c 0.40875,-0.53375 0.71227,-1.16831 0.91102,-1.90456 h -3.9675 c -0.21375,0.36125 -0.4925,0.63125 -0.83375,0.8125 -0.34125,0.18 -0.725,0.27 -1.14875,0.27 -0.825,0 -1.475,-0.21 -1.95375,-0.63125 -0.47875,-0.42125 -0.70875,-1.05125 -0.69125,-1.89375 h 8.715 c 0.0125,-2.13125 -0.49375,-3.81875 -1.5175,-5.06375 -1.025,-1.24375 -2.6425,-1.88125 -4.85375,-1.90875 -1.925,0.02 -3.47,0.58125 -4.635,1.68375 -1.16625,1.10125 -1.765,2.62375 -1.79625,4.5675 0.0337,1.69125 0.48673,3.04456 1.36048,4.06831 z m -2.75523,-5.75081 h -4.80875 c 0.1325,-0.60625 0.42375,-1.0775 0.87125,-1.4125 0.44875,-0.33625 0.97875,-0.50625 1.5925,-0.51125 0.56,0.0125 1.06375,0.1975 1.51,0.55625 0.4475,0.3575 0.72625,0.81375 0.835,1.3675 z m -63.59125,1.6825 c -0.0125,0.795 -0.25875,1.43 -0.73625,1.90875 -0.47875,0.47875 -1.115,0.72375 -1.90875,0.73625 -0.79625,-0.0125 -1.4425,-0.2575 -1.93875,-0.73625 -0.495,-0.47875 -0.75125,-1.11375 -0.76625,-1.90875 0.015,-0.79375 0.27125,-1.43 0.76625,-1.9075 0.49625,-0.47875 1.1425,-0.72375 1.93875,-0.73625 0.79375,0.0125 1.43,0.2575 1.90875,0.73625 0.4775,0.4775 0.72375,1.11375 0.73625,1.9075 M 277.413,248.29218 c -0.0738,-0.7725 -0.11373,-1.55781 -0.12123,-2.35781 -0.0288,-4.71625 0.64375,-9.0675 2.02,-13.05375 1.375,-3.9875 3.62875,-7.19875 6.76,-9.635 3.1325,-2.4375 7.3175,-3.69 12.5575,-3.75875 3.9725,0.0225 7.56125,0.86 10.7675,2.51 3.2075,1.65 5.75875,3.9775 7.65625,6.9825 1.8975,3.00625 2.86875,6.55375 2.91375,10.64375 -0.0138,2.055 -0.3925,4.12125 -1.135,6.19875 -0.30875,0.865 -0.66627,1.68656 -1.07377,2.47031 h 3.954 c 0.40125,-0.69 0.77477,-1.40656 1.11727,-2.15531 1.26125,-2.74625 1.91,-5.5175 1.94625,-8.31625 -0.0575,-4.9675 -1.245,-9.21875 -3.5625,-12.755 -2.31625,-3.535 -5.41875,-6.24625 -9.305,-8.13125 -3.88625,-1.88625 -8.2125,-2.83875 -12.9775,-2.85625 -5.7375,0.0525 -10.8125,1.36375 -15.2225,3.93375 -4.41125,2.57 -7.8725,6.085 -10.3875,10.545 -2.51375,4.46 -3.795,9.55125 -3.84125,15.27375 0.0175,1.53875 0.13298,3.02406 0.34673,4.46156 z m 18.644,0 6.77977,-15.46031 c 0.3475,-0.72375 0.66,-1.4725 0.93875,-2.2475 0.28,-0.775 0.4275,-1.56875 0.44375,-2.38125 -0.015,-0.85625 -0.285,-1.5475 -0.81125,-2.07375 -0.52625,-0.52625 -1.2175,-0.79625 -2.07375,-0.81125 -1.0025,0.0188 -1.7925,0.31125 -2.36625,0.87875 -0.575,0.5675 -1.04875,1.29625 -1.42,2.18625 l -8.72202,19.90906 z m 13.24,0 1.05352,-2.35781 c 0.34625,-0.7225 0.65875,-1.47125 0.93875,-2.24625 0.27875,-0.775 0.4275,-1.56875 0.4425,-2.38125 -0.015,-0.85625 -0.285,-1.54875 -0.81125,-2.07375 -0.525,-0.52625 -1.21625,-0.7975 -2.0725,-0.8125 -1.00375,0.0237 -1.7925,0.32375 -2.3675,0.9025 -0.575,0.5775 -1.0475,1.3 -1.42,2.16375 l -3.02352,6.80531 z m 68.597,0 c 0.0437,-0.17625 0.069,-0.36156 0.074,-0.55406 -0.0188,-0.6475 -0.25125,-1.18625 -0.69875,-1.615 -0.4475,-0.43 -0.995,-0.6525 -1.645,-0.67 -0.65,0.0175 -1.19875,0.24 -1.645,0.67 -0.4475,0.42875 -0.68,0.9675 -0.69875,1.615 0.005,0.1925 0.03,0.37906 0.0725,0.55406 z m 20.81027,-13.59781 c 0.0138,-2.105 -0.48,-3.785 -1.48,-5.04125 -1,-1.25625 -2.59125,-1.9 -4.77125,-1.93125 -1.92625,0.0225 -3.48125,0.59375 -4.665,1.71375 -1.18375,1.11875 -1.79125,2.65125 -1.82625,4.5975 0.0425,2.02 0.69375,3.555 1.95375,4.60625 1.26,1.05 2.8725,1.57875 4.83875,1.585 1.35875,0.001 2.5775,-0.33125 3.65875,-0.99875 1.08,-0.6675 1.80375,-1.6775 2.17125,-3.02875 h -3.84625 c -0.215,0.36125 -0.4925,0.63125 -0.835,0.8125 -0.34125,0.18 -0.725,0.27 -1.14875,0.27 -0.825,-0.002 -1.475,-0.22375 -1.95375,-0.66125 -0.4775,-0.43875 -0.70875,-1.08 -0.69125,-1.92375 z m -28.79,-11.54 c -0.0188,-0.6475 -0.25125,-1.18625 -0.69875,-1.615 -0.4475,-0.43 -0.99625,-0.65375 -1.645,-0.67 -0.65,0.0162 -1.19875,0.24 -1.64625,0.67 -0.4475,0.42875 -0.68,0.9675 -0.6975,1.615 0.0175,0.65 0.25,1.1975 0.6975,1.645 0.4475,0.4475 0.99625,0.68 1.64625,0.69875 0.64875,-0.0188 1.1975,-0.25125 1.645,-0.69875 0.4475,-0.4475 0.68,-0.995 0.69875,-1.645 z m 13.46375,12.6825 c -0.065,-1.37 -0.5225,-2.27125 -1.37125,-2.7025 -0.84875,-0.4325 -1.69875,-0.715 -2.5475,-0.84625 -0.84875,-0.13125 -1.30625,-0.43125 -1.37,-0.9 0.0238,-0.295 0.185,-0.5 0.48,-0.615 0.29625,-0.115 0.57625,-0.17125 0.84125,-0.16625 0.39375,0 0.77875,0.045 1.1575,0.13625 0.3775,0.09 0.73375,0.225 1.06625,0.405 l 1.3825,-2.645 c -1.20125,-0.53 -2.465,-0.79125 -3.78625,-0.78125 -1.3225,-0.001 -2.51,0.3475 -3.56125,1.045 -1.05125,0.6975 -1.60875,1.75125 -1.6675,3.1625 0.0637,1.3075 0.51625,2.15875 1.355,2.55375 0.83875,0.395 1.67875,0.6625 2.5175,0.80375 0.84,0.14125 1.29125,0.485 1.35625,1.03 -0.0188,0.325 -0.1625,0.5475 -0.42875,0.66875 -0.26625,0.12125 -0.54375,0.18 -0.83375,0.17375 -0.58125,-0.009 -1.1625,-0.12625 -1.7425,-0.35375 -0.58125,-0.22625 -1.1025,-0.50875 -1.56375,-0.84875 l -1.5025,2.945 c 0.72375,0.42375 1.485,0.74875 2.285,0.9775 0.79875,0.2275 1.62,0.3425 2.46375,0.345 1.41125,0.009 2.66125,-0.33875 3.74875,-1.04375 1.08875,-0.70625 1.6625,-1.82 1.72125,-3.34375 z m -17.8525,4.0875 h 4.1475 v -11.66125 h -4.1475 z m -3.305,-5.23 c 0.006,-2.13125 -0.5175,-3.81875 -1.57,-5.06375 -1.05375,-1.245 -2.67375,-1.88125 -4.86125,-1.90875 -1.925,0.0225 -3.47,0.59375 -4.635,1.71375 -1.16625,1.11875 -1.765,2.65125 -1.79625,4.5975 0.04,2.02 0.68125,3.555 1.92375,4.60625 1.2425,1.05 2.845,1.57875 4.80875,1.585 1.36625,0.005 2.615,-0.32 3.74875,-0.97625 1.1325,-0.65625 1.8875,-1.67375 2.26125,-3.05125 h -4.0275 c -0.21375,0.36125 -0.49125,0.63125 -0.83375,0.8125 -0.34125,0.18 -0.725,0.27 -1.14875,0.27 -0.825,-0.002 -1.475,-0.22375 -1.95375,-0.66125 -0.47875,-0.43875 -0.70875,-1.08 -0.69125,-1.92375 z m -15.8675,5.23 v -7.21375 c 0.005,-1.44125 -0.35125,-2.615 -1.0675,-3.52375 -0.71625,-0.9075 -1.8225,-1.37625 -3.32,-1.405 -1.5725,0.01 -2.815,0.65125 -3.72625,1.92375 h -0.0612 v -9.37625 h -4.14625 v 19.595 h 4.14625 v -6.01125 c -0.0113,-0.7225 0.1475,-1.36625 0.47375,-1.93125 0.3275,-0.565 0.89,-0.8625 1.69,-0.89375 0.815,0.035 1.335,0.34125 1.5625,0.91625 0.22875,0.57625 0.32875,1.2125 0.30125,1.90875 v 6.01125 z m 48.685,-7.63375 h -4.80875 c 0.13375,-0.60375 0.42375,-1.065 0.8725,-1.3825 0.4475,-0.31875 0.97875,-0.47875 1.5925,-0.48125 0.56,0.01 1.0625,0.185 1.51,0.52625 0.44625,0.34 0.725,0.78625 0.83375,1.3375 z m -36.66375,0 h -4.80875 c 0.1325,-0.60375 0.42375,-1.065 0.87125,-1.3825 0.44875,-0.31875 0.97875,-0.47875 1.59375,-0.48125 0.55875,0.01 1.0625,0.185 1.50875,0.52625 0.4475,0.34 0.72625,0.78625 0.835,1.3375"/></g></g></svg>