<?xml version="1.0" encoding="UTF-8" standalone="no"?>
<svg
   xmlns:dc="http://purl.org/dc/elements/1.1/"
   xmlns:cc="http://creativecommons.org/ns#"
   xmlns:rdf="http://www.w3.org/1999/02/22-rdf-syntax-ns#"
   xmlns:svg="http://www.w3.org/2000/svg"
   xmlns="http://www.w3.org/2000/svg"
   xmlns:sodipodi="http://sodipodi.sourceforge.net/DTD/sodipodi-0.dtd"
   xmlns:inkscape="http://www.inkscape.org/namespaces/inkscape"
   viewBox="0 0 900.00001 600.00001"
   height="600"
   width="900"
   xml:space="preserve"
   id="svg2"
   version="1.1"
   sodipodi:docname="Nitrokey_Logo.svg"
   inkscape:version="0.92.4 (5da689c313, 2019-01-14)"><sodipodi:namedview
     pagecolor="#ffffff"
     bordercolor="#666666"
     borderopacity="1"
     objecttolerance="10"
     gridtolerance="10"
     guidetolerance="10"
     inkscape:pageopacity="0"
     inkscape:pageshadow="2"
     inkscape:window-width="1920"
     inkscape:window-height="1007"
     id="namedview20"
     showgrid="false"
     inkscape:zoom="0.45306549"
     inkscape:cx="325.56"
     inkscape:cy="94.120003"
     inkscape:window-x="0"
     inkscape:window-y="0"
     inkscape:window-maximized="1"
     inkscape:current-layer="svg2" /><metadata
     id="metadata8"><rdf:RDF><cc:Work
         rdf:about=""><dc:format>image/svg+xml</dc:format><dc:type
           rdf:resource="http://purl.org/dc/dcmitype/StillImage" /><dc:title></dc:title></cc:Work></rdf:RDF></metadata><defs
     id="defs6" /><g
     transform="matrix(1.8440636,0,0,-1.8440636,-0.26869734,430.17176)"
     id="g10"><g
       transform="scale(0.1)"
       id="g12"><path
         id="path14"
         style="fill:#181818;fill-opacity:1;fill-rule:nonzero;stroke:none"
         d="M 4136.92,236.352 C 4144.31,225.98 4148,212.93 4148,197.238 v -8.09 h -87.72 c 0.35,17.704 4.78,32.571 13.27,44.641 8.5,12.07 19.37,18.109 32.61,18.109 13.12,0 23.38,-5.187 30.76,-15.546 z m 5.01,-156.6606 c 9.08,4.3789 16.5,10.2383 22.24,17.5977 l -8.61,14.8829 c -5.39,-6.75 -11.87,-11.942 -19.43,-15.6134 -7.56,-3.668 -16.55,-5.5 -26.98,-5.5 -15,0 -26.89,6.1328 -35.68,18.3514 -8.79,12.238 -13.19,27.578 -13.19,46.02 v 15.789 h 108.81 v 20.84 c 0,23.953 -5.51,43 -16.52,57.203 -11.02,14.179 -26.49,21.277 -46.41,21.277 -18.4,0 -34.13,-7.937 -47.2,-23.828 -13.06,-15.879 -19.59,-35.832 -19.59,-59.84 V 155.23 c 0,-23.921 6.5,-43.582 19.51,-58.9917 13,-15.4063 29.76,-23.0977 50.27,-23.0977 12.77,0 23.7,2.1797 32.78,6.5508 z M 3990.15,76.832 V 249.09 h 36.02 v 17.93 h -36.02 v 27.421 c 0,13.25 2.36,23.43 7.11,30.579 4.74,7.152 11.75,10.73 21,10.73 2.93,0 5.6,-0.199 8,-0.609 2.4,-0.411 4.78,-0.981 7.12,-1.672 l 2.65,17.75 c -3.41,1.062 -6.78,1.91 -10.12,2.543 -3.34,0.648 -6.65,0.976 -9.92,0.976 -14.78,0 -26.29,-5.25 -34.54,-15.738 -8.27,-10.48 -12.4,-25.34 -12.4,-44.559 V 267.02 h -25.67 v -17.93 h 25.67 V 76.832 Z m -76.66,274.219 h -21.27 V 321.16 h 21.27 z m 0,-84.031 h -21.27 V 76.832 h 21.27 z m -66.1,84.031 h -21.27 V 76.832 h 21.27 z m -135.02,0 H 3691.1 V 76.832 h 21.27 z M 3553.81,101.789 c -5.39,6.441 -8.09,14.762 -8.09,24.949 0,11.961 4.31,22 12.92,30.153 8.62,8.14 20.13,12.218 34.55,12.218 h 33.75 v -41.14 c -3.76,-10.43 -10.17,-19 -19.25,-25.739 -9.09,-6.7417 -19.49,-10.1206 -31.2,-10.1206 -9.73,0 -17.29,3.2304 -22.68,9.6796 z m 98.26,-24.957 c -1.51,6.0782 -2.58,12.2969 -3.15,18.6172 -0.6,6.3398 -0.89,12.8908 -0.89,19.6988 v 93.34 c 0,19.91 -5.38,35.242 -16.16,45.961 -10.8,10.731 -24.97,16.09 -42.54,16.09 -17.83,0 -32.44,-5.609 -43.87,-16.801 -11.43,-11.179 -16.85,-23.929 -16.26,-38.226 l 0.35,-1.051 19.69,-0.172 c 0,10.543 3.66,19.441 10.99,26.723 7.32,7.258 16.66,10.886 28.03,10.886 12.19,0 21.68,-3.796 28.48,-11.429 6.79,-7.617 10.2,-18.16 10.2,-31.637 v -23.383 h -33.23 c -21.21,0 -38.03,-5.23 -50.45,-15.719 -12.42,-10.492 -18.63,-24.582 -18.63,-42.281 0,-16.648 4.29,-29.8474 12.83,-39.6404 8.57,-9.7773 20.68,-14.668 36.39,-14.668 11.25,0 21.47,3.0703 30.67,9.2188 9.2,6.1601 16.67,13.9687 22.42,23.4606 0,-4.332 0.26,-8.6012 0.79,-12.8317 0.52,-4.2188 1.31,-9.6094 2.37,-16.1563 z M 3444.29,315.539 V 267.02 h -26.37 v -17.93 h 26.37 V 125.809 c 0,-18.25 3.19,-31.6098 9.58,-40.0395 6.39,-8.4297 15.21,-12.6289 26.46,-12.6289 4.57,0 9.11,0.4297 13.63,1.3086 4.5,0.8828 8.16,2.0313 10.98,3.4297 l -2.82,16.1719 c -3.4,-0.711 -6.44,-1.2305 -9.14,-1.582 -2.69,-0.3594 -5.45,-0.5274 -8.26,-0.5274 -5.74,0 -10.37,2.5703 -13.89,7.7305 -3.51,5.1371 -5.27,13.8671 -5.27,26.1601 V 249.09 h 33.05 v 17.93 h -33.05 v 48.519 z m -52.56,35.512 h -21.27 V 321.16 h 21.27 z m 0,-84.031 h -21.27 V 76.832 h 21.27 z m -172.1,-85.782 c 0,20.852 3.75,37.793 11.25,50.801 7.5,13 18.69,19.512 33.57,19.512 10.43,0 19.09,-3.129 25.93,-9.403 6.86,-6.277 12.29,-14.437 16.26,-24.519 v -94.231 c -4.1,-9.839 -9.67,-17.546 -16.7,-23.109 -7.03,-5.5585 -15.64,-8.3476 -25.84,-8.3476 -14.88,0 -26,5.75 -33.4,17.2186 -7.38,11.488 -11.07,26.852 -11.07,46.07 z m -21.27,-26.008 c 0,-24.859 5.42,-44.742 16.26,-59.6792 10.84,-14.9414 25.81,-22.4102 44.91,-22.4102 10.31,0 19.39,2.2696 27.25,6.8477 7.85,4.5703 14.47,11.1328 19.86,19.6836 V 76.6484 c 0,-18.75 -3.63,-32.9882 -10.9,-42.707 -7.27,-9.7422 -18.45,-14.5898 -33.57,-14.5898 -7.5,0 -14.77,1.0195 -21.8,3.0703 -7.03,2.0469 -13.42,4.8867 -19.16,8.5195 l -5.8,-18.4531 c 6.68,-3.75002 14.33,-6.76955 22.94,-9.04689 C 3246.96,1.14844 3255.02,0 3262.52,0 c 20.86,0 36.97,6.67969 48.34,20.0391 11.36,13.3593 17.05,32.2422 17.05,56.6093 V 267.02 h -17.93 l -2.11,-26.551 c -5.27,9.613 -11.92,17.019 -19.95,22.25 -8.03,5.203 -17.37,7.82 -28.04,7.82 -19.22,0 -34.26,-8.148 -45.17,-24.437 -10.9,-16.293 -16.35,-37.911 -16.35,-64.864 z m -35.87,195.821 h -21.27 V 321.16 h 21.27 z m 0,-84.031 h -21.27 V 76.832 h 21.27 z m -171.91,-96.848 c 0,24.25 3.62,43.879 10.89,58.879 7.27,15 18.34,22.5 33.22,22.5 10.43,0 19.1,-3.199 26.02,-9.582 6.91,-6.379 12.3,-14.668 16.17,-24.879 v -93.149 c -4.1,-10.089 -9.64,-17.929 -16.61,-23.562 -6.97,-5.6173 -15.62,-8.4376 -25.92,-8.4376 -14.77,0 -25.76,6.707 -32.97,20.1286 -7.2,13.418 -10.8,31.551 -10.8,54.41 z m -21.45,-3.692 c 0,-28.359 5.36,-51.019 16.08,-67.9409 10.72,-16.9493 25.58,-25.3985 44.57,-25.3985 10.65,0 19.98,2.4297 27.94,7.2813 7.97,4.8672 14.59,11.8789 19.86,21.0191 l 1.77,-24.609 h 18.62 v 274.219 h -21.09 V 242.238 c -5.27,9.012 -11.81,15.992 -19.6,20.91 -7.79,4.934 -16.9,7.391 -27.33,7.391 -19.22,0 -34.17,-9.109 -44.83,-27.34 -10.66,-18.23 -15.99,-42.558 -15.99,-73.027 z m -84.05,102.122 c -1.29,0.468 -3.04,0.898 -5.27,1.32 -2.23,0.406 -4.45,0.617 -6.68,0.617 -9.84,0 -18.43,-3.078 -25.75,-9.23 -7.33,-6.149 -13.21,-14.739 -17.67,-25.75 l -2.45,31.461 h -18.64 V 76.832 h 21.09 v 135 c 3.05,11.59 7.8,20.699 14.25,27.316 6.44,6.622 14.58,9.942 24.43,9.942 l 13.89,-1.051 z M 2749.2,76.832 h 18.98 V 267.02 h -21.09 V 128.512 c -3.28,-11.383 -8.7,-20.313 -16.26,-26.821 -7.56,-6.4918 -17.38,-9.7496 -29.43,-9.7496 -11.5,0 -20.26,4.9492 -26.29,14.8596 -6.04,9.89 -9.06,26.39 -9.06,49.469 v 110.75 h -21.09 V 156.629 c 0,-28.59 4.72,-49.66 14.15,-63.1876 9.43,-13.543 22.59,-20.3008 39.46,-20.3008 11.14,0 20.86,2.8985 29.18,8.6992 8.32,5.8008 15,14.0196 20.04,24.6912 z M 2494.84,185.66 c 0,18.68 4.21,34.379 12.65,47.129 8.44,12.75 20.45,19.109 36.04,19.109 15.47,0 27.48,-6.359 36.03,-19.109 8.57,-12.75 12.83,-28.449 12.83,-47.129 v -28 c 0,-18.922 -4.26,-34.75 -12.83,-47.48 -8.55,-12.7503 -20.51,-19.1214 -35.86,-19.1214 -15.7,0 -27.77,6.3398 -36.21,19.0194 -8.44,12.692 -12.65,28.543 -12.65,47.582 z m -21.27,-27.801 c 0,-24.961 6.32,-45.328 18.98,-61.0777 12.66,-15.7618 29.71,-23.6407 51.15,-23.6407 21.33,0 38.32,7.8789 50.98,23.6407 12.66,15.7497 18.98,36.1167 18.98,61.0777 v 27.95 c 0,24.73 -6.35,45.023 -19.07,60.902 -12.71,15.891 -29.74,23.828 -51.06,23.828 -21.33,0 -38.32,-7.98 -50.98,-23.91 -12.66,-15.938 -18.98,-36.219 -18.98,-60.82 z M 2347.52,267.02 h -23.37 l 60.11,-187.7309 -7.91,-25.1407 c -2.69,-9.8398 -6.27,-18.0976 -10.72,-24.7773 -4.46,-6.6797 -10.26,-10.0195 -17.4,-10.0195 -1.29,0 -3.28,0.1367 -5.98,0.4375 -2.7,0.289 -4.63,0.5507 -5.8,0.7929 L 2334.16,2.46875 C 2335.69,2 2338.03,1.48047 2341.2,0.878906 2344.36,0.300781 2347,0 2349.11,0 c 12.53,0 22.17,4.57031 28.91,13.7188 6.74,9.1406 12.16,20.0312 16.26,32.7031 l 67.85,220.5981 h -23.55 l -45,-156.981 h -1.06 l -4.92,19.16 z m -136.6,-30.668 C 2218.31,225.98 2222,212.93 2222,197.238 v -8.09 h -87.72 c 0.35,17.704 4.78,32.571 13.27,44.641 8.5,12.07 19.37,18.109 32.61,18.109 13.12,0 23.38,-5.187 30.76,-15.546 z m 5.01,-156.6606 c 9.08,4.3789 16.5,10.2383 22.24,17.5977 l -8.61,14.8829 c -5.4,-6.75 -11.87,-11.942 -19.43,-15.6134 -7.56,-3.668 -16.55,-5.5 -26.98,-5.5 -15,0 -26.89,6.1328 -35.68,18.3514 -8.79,12.238 -13.19,27.578 -13.19,46.02 v 15.789 h 108.81 v 20.84 c 0,23.953 -5.51,43 -16.52,57.203 -11.02,14.179 -26.49,21.277 -46.41,21.277 -18.4,0 -34.13,-7.937 -47.2,-23.828 -13.06,-15.879 -19.6,-35.832 -19.6,-59.84 V 155.23 c 0,-23.921 6.51,-43.582 19.52,-58.9917 13,-15.4063 29.76,-23.0977 50.27,-23.0977 12.77,0 23.7,2.1797 32.78,6.5508 z M 2103.16,268.602 c -1.29,0.468 -3.05,0.898 -5.27,1.32 -2.23,0.406 -4.46,0.617 -6.68,0.617 -9.84,0 -18.43,-3.078 -25.75,-9.23 -7.33,-6.149 -13.22,-14.739 -17.67,-25.75 l -2.46,31.461 H 2026.7 V 76.832 h 21.09 v 135 c 3.05,11.59 7.79,20.699 14.24,27.316 6.44,6.622 14.59,9.942 24.43,9.942 l 13.89,-1.051 z M 1967.28,76.832 h 18.98 V 267.02 h -21.09 V 128.512 c -3.28,-11.383 -8.7,-20.313 -16.26,-26.821 -7.56,-6.4918 -17.38,-9.7496 -29.45,-9.7496 -11.48,0 -20.24,4.9492 -26.28,14.8596 -6.03,9.89 -9.05,26.39 -9.05,49.469 v 110.75 h -21.09 V 156.629 c 0,-28.59 4.71,-49.66 14.15,-63.1876 9.43,-13.543 22.59,-20.3008 39.46,-20.3008 11.13,0 20.86,2.8985 29.18,8.6992 8.32,5.8008 15,14.0196 20.04,24.6912 z m -231.16,32.719 c -7.5,12.34 -11.25,28.078 -11.25,47.23 v 29.598 c 0,18.891 3.75,34.543 11.25,46.93 7.5,12.39 19.45,18.589 35.86,18.589 11.83,0 21.71,-4.476 29.62,-13.437 7.91,-8.973 11.86,-21.012 11.86,-36.129 h 18.81 l 0.35,0.879 c 0.35,20.148 -5.24,36.41 -16.79,48.777 -11.54,12.371 -26.16,18.551 -43.85,18.551 -21.92,0 -38.76,-7.879 -50.54,-23.648 -11.78,-15.762 -17.67,-35.879 -17.67,-60.379 V 156.98 c 0,-24.609 5.89,-44.73 17.67,-60.3784 11.78,-15.6407 28.62,-23.461 50.54,-23.461 16.4,0 30.7,5.9102 42.89,17.7383 12.18,11.8511 18.1,26.5511 17.75,44.1211 l -0.53,1.059 h -18.63 c 0,-14.059 -4.16,-25.059 -12.48,-33.028 -8.32,-7.9919 -17.99,-11.9724 -29,-11.9724 -16.41,0 -28.36,6.1719 -35.86,18.4924 z m -86.14,126.801 c 7.38,-10.372 11.07,-23.422 11.07,-39.114 v -8.09 h -87.71 c 0.35,17.704 4.77,32.571 13.27,44.641 8.49,12.07 19.36,18.109 32.61,18.109 13.12,0 23.37,-5.187 30.76,-15.546 z m 5.01,-156.6606 c 9.08,4.3789 16.49,10.2383 22.23,17.5977 l -8.61,14.8829 c -5.39,-6.75 -11.86,-11.942 -19.42,-15.6134 -7.56,-3.668 -16.56,-5.5 -26.99,-5.5 -15,0 -26.89,6.1328 -35.68,18.3514 -8.79,12.238 -13.18,27.578 -13.18,46.02 v 15.789 h 108.81 v 20.84 c 0,23.953 -5.51,43 -16.53,57.203 -11.01,14.179 -26.48,21.277 -46.4,21.277 -18.4,0 -34.14,-7.937 -47.2,-23.828 -13.07,-15.879 -19.6,-35.832 -19.6,-59.84 V 155.23 c 0,-23.921 6.5,-43.582 19.51,-58.9917 13.01,-15.4063 29.77,-23.0977 50.27,-23.0977 12.78,0 23.7,2.1797 32.79,6.5508 z m -157.77,20.3866 c -6.8,-6.0194 -16.12,-9.0194 -27.95,-9.0194 -10.9,0 -20.39,3.0898 -28.48,9.2734 -8.09,6.18 -12.48,16.109 -13.18,29.77 h -19.69 l -0.35,-1.063 c -0.59,-15.187 4.66,-28.309 15.73,-39.3476 11.07,-11.043 26.4,-16.5508 45.97,-16.5508 17.81,0 32.14,4.6211 42.98,13.8789 10.83,9.25 16.26,21.4495 16.26,36.5625 0,13.719 -4.69,25.047 -14.07,34.02 -9.37,8.957 -23.55,17.25 -42.54,24.867 -16.17,7.742 -26.71,14.152 -31.64,19.242 -4.92,5.109 -7.38,11.871 -7.38,20.309 0,7.96 3.1,14.941 9.32,20.91 6.21,5.992 15.23,8.968 27.07,8.968 11.6,0 20.8,-3.796 27.59,-11.429 6.8,-7.617 10.2,-16.571 10.2,-26.887 h 19.86 l 0.36,1.047 c 0.46,15.953 -4.58,29.25 -15.12,39.91 -10.55,10.672 -24.85,16 -42.89,16 -17,0 -30.82,-4.809 -41.49,-14.418 -10.66,-9.609 -15.99,-21.211 -15.99,-34.812 0,-13.36 4.48,-24.161 13.44,-32.418 8.97,-8.262 23.12,-16.391 42.46,-24.352 15.11,-6.937 25.51,-13.57 31.2,-19.867 5.68,-6.313 8.52,-13.813 8.52,-22.524 0,-8.707 -3.4,-16.078 -10.19,-22.07 v 0"
         inkscape:connector-curvature="0" /><path
         id="path16"
         style="fill:#181818;fill-opacity:1;fill-rule:nonzero;stroke:none"
         d="M 2756.22,970.375 H 2581.78 V 449.141 h 177.57 v 372.218 l 65.82,-0.347 h 59.53 V 970.23 h -15.67 c -30.65,0 -112.81,0.145 -112.81,0.145"
         inkscape:connector-curvature="0" /><path
         id="path18"
         style="fill:#181818;fill-opacity:1;fill-rule:nonzero;stroke:none"
         d="m 3181.34,595.383 c 0,-15.324 -8.72,-22.981 -26.11,-22.981 h -28.21 c -17.41,0 -26.11,7.657 -26.11,22.981 v 228.754 c 0,15.312 8.7,22.984 26.11,22.984 h 28.21 c 17.39,0 26.11,-7.672 26.11,-22.984 z m 26.11,374.992 H 3074.8 c -52.92,0 -90.88,-11.145 -113.86,-33.418 -22.98,-22.297 -34.47,-54.32 -34.47,-96.098 V 578.672 c 0,-41.785 11.49,-73.817 34.47,-96.094 22.98,-22.305 60.94,-33.437 113.86,-33.437 h 132.65 c 52.92,0 90.88,11.132 113.86,33.437 22.98,22.277 34.47,54.309 34.47,96.094 v 262.187 c 0,41.778 -11.49,73.801 -34.47,96.098 -22.98,22.273 -60.94,33.418 -113.86,33.418"
         inkscape:connector-curvature="0" /><path
         id="path20"
         style="fill:#181818;fill-opacity:1;fill-rule:nonzero;stroke:none"
         d="m 1972.67,1022.61 h 183.84 v 125.34 h -183.84 v -125.34"
         inkscape:connector-curvature="0" /><path
         id="path22"
         style="fill:#181818;fill-opacity:1;fill-rule:nonzero;stroke:none"
         d="m 1975.81,449.141 h 177.57 V 970.375 H 1975.81 V 449.141"
         inkscape:connector-curvature="0" /><path
         id="path24"
         style="fill:#181818;fill-opacity:1;fill-rule:nonzero;stroke:none"
         d="m 1725.26,774.707 -151.58,373.243 h -159 V 449.348 h 169.6 v 366.711 l 151.58,-366.711 h 159 v 698.602 h -169.6 V 774.707"
         inkscape:connector-curvature="0" /><path
         id="path26"
         style="fill:#181818;fill-opacity:1;fill-rule:nonzero;stroke:none"
         d="m 4704.82,970.375 -56.4,-317.543 -70.81,317.543 h -178.84 l 165.77,-539.23 -67.67,-256.774 c 57.09,0 161.09,0 161.09,0 l 225.48,796.004 h -178.62"
         inkscape:connector-curvature="0" /><path
         id="path28"
         style="fill:#181818;fill-opacity:1;fill-rule:nonzero;stroke:none"
         d="m 4207.43,759.379 h -98.19 v 65.812 c 0,15.309 8.7,22.977 26.12,22.977 h 45.96 c 17.4,0 26.11,-7.668 26.11,-22.977 z m 14.62,210.996 h -127.43 c -102.36,0 -153.55,-43.176 -153.55,-129.516 V 578.672 c 0,-86.356 51.19,-129.531 153.55,-129.531 h 127.43 c 102.37,0 153.56,43.175 153.56,129.531 v 47.004 h -168.18 v -29.25 c 0,-16.707 0.24,-25.078 0.24,-25.078 h -72.31 c -17.42,0 -26.12,7.668 -26.12,22.988 v 68.937 h 266.37 v 177.586 c 0,86.34 -51.19,129.516 -153.56,129.516"
         inkscape:connector-curvature="0" /><path
         id="path30"
         style="fill:#181818;fill-opacity:1;fill-rule:nonzero;stroke:none"
         d="M 2437.36,1146.05 H 2259.79 V 969.008 h -57.45 v -130.57 h 57.45 V 447.969 c 0,0 51.18,-0.196 153.55,-0.196 h 88.78 V 578.34 l -64.76,0.019 v 260.079 h 65.81 v 130.57 h -65.81 v 177.042"
         inkscape:connector-curvature="0" /><path
         id="path32"
         style="fill:#181818;fill-opacity:1;fill-rule:nonzero;stroke:none"
         d="M 3709.87,970.375 3611.68,733.266 V 1147.95 H 3434.11 V 449.141 h 177.57 V 692.52 l 97.14,-243.379 h 184.89 l -111.77,264.281 111.77,256.953 h -183.84"
         inkscape:connector-curvature="0" /><path
         id="path34"
         style="fill:#cc1b3f;fill-opacity:1;fill-rule:nonzero;stroke:none"
         d="M 723.691,562.402 436.879,396.828 c -19.438,-11.226 -44.524,-4.508 -55.746,14.934 L 227.73,677.441 c -11.214,19.446 -4.5,44.547 14.942,55.766 L 529.48,898.801 723.691,562.402 v 0"
         inkscape:connector-curvature="0" /><path
         id="path36"
         style="fill:#cc1b3f;fill-opacity:1;fill-rule:nonzero;stroke:none"
         d="m 860.602,741.059 -28.434,-16.571 c -4.656,-2.707 -10.68,-1.105 -13.398,3.543 l -24.067,41.328 c -2.723,4.668 -1.133,10.692 3.527,13.399 l 28.43,16.558 c 4.656,2.711 10.684,1.125 13.399,-3.539 l 24.082,-41.328 c 2.711,-4.66 1.125,-10.683 -3.539,-13.39 z M 718.418,900.336 c -2.715,4.66 -1.129,10.695 3.523,13.398 l 28.442,16.563 c 4.656,2.711 10.676,1.125 13.394,-3.539 l 24.075,-41.344 c 2.711,-4.648 1.117,-10.676 -3.532,-13.387 l -28.441,-16.558 c -4.649,-2.711 -10.68,-1.117 -13.391,3.531 z M 574.82,870.238 720.152,618.527 1007.72,784.555 862.402,1036.27 574.82,870.238 v 0"
         inkscape:connector-curvature="0" /><path
         id="path38"
         style="fill:#cc1b3f;fill-opacity:1;fill-rule:nonzero;stroke:none"
         d="m 616.641,1301.84 c -1.27,0 -2.532,-0.27 -3.758,-0.78 L 117.98,1091.94 c -4.652,-1.98 -7.98,-7.53 -7.98,-13.45 V 643.605 c 0,-2.109 0.371,-4.132 1.07,-5.851 24.961,-62.422 165.578,-378.313 501.821,-512.875 2.441,-0.969 5.031,-0.981 7.531,0.012 336.199,134.539 476.818,450.441 501.588,512.406 0.81,2.07 1.27,4.266 1.27,6.308 v 434.885 c 0,5.95 -3.19,11.45 -7.77,13.37 l -495.166,209.22 c -1.164,0.49 -2.434,0.76 -3.703,0.76 z m 0,-1287.6994 c -15.313,0 -30.313,2.8985 -44.598,8.5977 C 194.121,173.98 36.832,527.188 9.13281,596.457 3.12891,611.055 0,627.07 0,643.605 v 434.885 c 0,50.31 29.4648,95.35 75.0469,114.73 l 495.0861,209.19 c 29.73,12.51 63.32,12.5 92.957,0.03 l 495.02,-209.17 c 45.58,-19.04 75.17,-64.13 75.17,-114.78 V 643.605 c 0,-15.898 -3.04,-31.691 -9.03,-46.894 -27.81,-69.523 -185.11,-422.731 -563,-573.961 -14.309,-5.7109 -29.309,-8.6094 -44.609,-8.6094 v 0"
         inkscape:connector-curvature="0" /></g></g></svg>