<?xml version="1.0" encoding="UTF-8" standalone="no"?>
<svg xmlns="http://www.w3.org/2000/svg" height="64px" width="96px" version="1.1" xmlns:xlink="http://www.w3.org/1999/xlink" viewBox="0 0 96 64">
 <defs>
  <polygon id="d" points="0.3019 9 7.7407 9 7.7407 0.3073 0.3019 0.3073"/>
 </defs>
 <g fill="none" fill-rule="evenodd">
  <g transform="translate(-128 -19)">
   <g filter="url(#c)">
    <g transform="translate(130 20)">
     <path d="m77.625 15.169c3.124 0 5.572 2.446 5.572 5.569 0 3.124-2.448 5.572-5.572 5.572-3.123 0-5.569-2.448-5.569-5.572 0-3.123 2.446-5.569 5.569-5.569m-64.14 0c3.124 0 5.573 2.446 5.573 5.569 0 3.124-2.449 5.572-5.573 5.572-3.123 0-5.5688-2.448-5.5688-5.572 0-3.123 2.4458-5.569 5.5688-5.569m32.141-7.2531c7.129 0 12.825 5.6931 12.825 12.822 0 7.13-5.696 12.825-12.825 12.825s-12.822-5.695-12.822-12.825c0-7.129 5.693-12.822 12.822-12.822m0-7.9161c-9.444 0-17.449 6.403-19.93 15.077-2.156-4.601-6.829-7.8241-12.211-7.8241-7.4008 0-13.485 6.0841-13.485 13.485 0.0002 7.402 6.0842 13.489 13.485 13.489 5.382 0 10.055-3.226 12.211-7.828 2.481 8.676 10.486 15.08 19.93 15.08 9.374 0 17.338-6.308 19.883-14.885 2.196 4.497 6.81 7.633 12.116 7.633 7.401 0 13.488-6.087 13.488-13.489 0-7.401-6.087-13.485-13.488-13.485-5.306-0.0001-9.92 3.133-12.116 7.63-2.545-8.5771-10.509-14.883-19.883-14.883" fill="#0082C9"/>
     <path d="m25.582 54.546c-0.075-1.73-1.129-2.596-2.333-2.596-1.392 0-2.597 0.904-2.86 2.596h5.193zm-2.295-3.536c2.22 0 3.462 1.58 3.462 3.95 0 0.226-0.189 0.414-0.414 0.414h-5.984c0.038 2.108 1.506 3.312 3.199 3.312 1.054 0 1.806-0.452 2.183-0.752 0.225-0.152 0.413-0.114 0.526 0.112l0.113 0.188c0.113 0.188 0.076 0.376-0.113 0.528-0.451 0.338-1.43 0.902-2.747 0.902-2.446 0-4.327-1.768-4.327-4.328 0.037-2.708 1.844-4.326 4.102-4.326z" fill="#231F20"/>
     <path d="m38.05 52.213v-2.898c0-0.263 0.15-0.414 0.414-0.414h0.3c0.264 0 0.376 0.151 0.376 0.414v1.957h1.694c0.264 0 0.414 0.151 0.414 0.414v0.113c0 0.263-0.15 0.376-0.414 0.376h-1.694v4.14c0 1.919 1.168 2.145 1.808 2.182 0.338 0.038 0.45 0.113 0.45 0.414v0.226c0 0.263-0.112 0.376-0.45 0.376-1.808 0-2.898-1.091-2.898-3.048v-4.252" fill="#231F20"/>
     <g transform="translate(42 50.702)">
      <mask id="c" fill="white">
       <use xlink:href="#d"/>
      </mask>
      <path mask="url(#c)" d="m4.6669 0.3073c1.43 0 2.333 0.602 2.747 0.941 0.188 0.15 0.226 0.338 0.038 0.564l-0.113 0.188c-0.151 0.226-0.339 0.226-0.565 0.076-0.376-0.264-1.091-0.753-2.069-0.753-1.807 0-3.237 1.355-3.237 3.349 0 1.957 1.43 3.312 3.237 3.312 1.166 0 1.956-0.527 2.333-0.866 0.226-0.15 0.376-0.113 0.527 0.113l0.112 0.151c0.113 0.225 0.076 0.376-0.112 0.564-0.414 0.339-1.43 1.054-2.936 1.054-2.446 0-4.327-1.769-4.327-4.328 0.037-2.559 1.919-4.365 4.365-4.365" fill="#231F20"/>
     </g>
     <g fill="#231F20">
      <path d="m51.672 48.337c0-0.263-0.151-0.414 0.113-0.414h0.301c0.263 0 0.677 0.151 0.677 0.414v8.994c0 1.053 0.49 1.166 0.866 1.204 0.188 0 0.338 0.113 0.338 0.376v0.264c0 0.263-0.112 0.414-0.413 0.414-0.678 0-1.882-0.226-1.882-2.032v-9.22"/>
      <path d="m59.386 58.686c1.769 0 3.199-1.43 3.199-3.387 0-1.881-1.43-3.274-3.199-3.274s-3.236 1.43-3.236 3.274c0.037 1.919 1.467 3.387 3.236 3.387m0-7.677c2.408 0 4.365 1.844 4.365 4.29 0 2.484-1.957 4.365-4.365 4.365s-4.365-1.881-4.365-4.365c0-2.446 1.957-4.29 4.365-4.29"/>
      <path d="m78.202 58.686c1.392 0 2.672-0.978 2.672-3.349 0-1.694-0.866-3.312-2.634-3.312-1.468 0-2.672 1.205-2.672 3.312 0.036 2.032 1.09 3.349 2.634 3.349zm-0.038-7.677c1.994 0 2.71 1.656 2.71 1.656h0.036s-0.036-0.263-0.036-0.64v-3.725c0-0.264-0.114-0.414 0.15-0.414h0.3c0.264 0 0.678 0.15 0.678 0.414v10.725c0 0.263-0.112 0.414-0.376 0.414h-0.264c-0.262 0-0.414-0.113-0.414-0.377v-0.639c0-0.301 0.076-0.527 0.076-0.527h-0.038s-0.714 1.731-2.86 1.731c-2.22 0-3.612-1.769-3.612-4.328-0.076-2.559 1.468-4.29 3.65-4.29z"/>
      <path d="m9.4877 59.476h0.301c0.2633 0 0.4143-0.151 0.4143-0.414v-8.08c0-1.28 1.392-2.193 2.973-2.193 1.58 0 2.973 0.913 2.973 2.193v8.08c0 0.263 0.15 0.414 0.414 0.414h0.301c0.263 0 0.376-0.151 0.376-0.414v-8.128c0-2.145-2.145-3.199-4.102-3.199-1.881 0-4.0263 1.054-4.0263 3.199v8.128c0 0.263 0.113 0.414 0.376 0.414"/>
      <path d="m72.294 51.197h-0.302c-0.262 0-0.414 0.151-0.414 0.414v4.553c0 1.28-0.828 2.446-2.446 2.446-1.58 0-2.446-1.166-2.446-2.446v-4.553c0-0.263-0.15-0.414-0.414-0.414h-0.3c-0.264 0-0.376 0.151-0.376 0.414v4.854c0 2.145 1.58 3.199 3.536 3.199 1.958 0 3.538-1.054 3.538-3.199v-4.854c0.038-0.263-0.114-0.414-0.376-0.414z"/>
      <path d="m35.042 51.136c-0.092 0.015-0.181 0.076-0.265 0.177l-1.523 1.816-1.14 1.358-1.726-2.057-0.936-1.117c-0.085-0.101-0.181-0.156-0.28-0.165-0.1-0.008-0.203 0.03-0.304 0.114l-0.231 0.194c-0.201 0.169-0.191 0.356-0.022 0.558l1.524 1.816 1.263 1.505-1.85 2.204c-0.001 0.002-0.002 0.004-0.003 0.005l-0.934 1.112c-0.169 0.202-0.15 0.415 0.052 0.584l0.231 0.192c0.201 0.17 0.384 0.127 0.554-0.075l1.523-1.815 1.14-1.358 1.725 2.057c0.001 0.001 0.003 0.002 0.004 0.004l0.933 1.112c0.17 0.202 0.381 0.22 0.583 0.051l0.231-0.193c0.202-0.169 0.191-0.357 0.022-0.559l-1.524-1.815-1.263-1.505 1.85-2.205c0.001-0.001 0.002-0.003 0.004-0.005l0.933-1.112c0.169-0.201 0.15-0.414-0.051-0.583l-0.231-0.194c-0.101-0.084-0.197-0.116-0.289-0.101z"/>
     </g>
    </g>
   </g>
  </g>
 </g>
</svg>
