<svg xmlns="http://www.w3.org/2000/svg" height="60" width="92" xmlns:xlink="http://www.w3.org/1999/xlink" viewBox="0 0 92 60"><defs><path id="a" d="M.302 9H7.74V.307H.3z"/></defs><g fill="#fff" fill-rule="evenodd"><path d="M77.625 15.169c3.124 0 5.572 2.446 5.572 5.569 0 3.124-2.448 5.572-5.572 5.572-3.123 0-5.569-2.448-5.569-5.572 0-3.123 2.446-5.569 5.569-5.569m-64.14 0c3.124 0 5.573 2.446 5.573 5.569 0 3.124-2.449 5.572-5.573 5.572-3.123 0-5.569-2.448-5.569-5.572 0-3.123 2.446-5.569 5.569-5.569m32.141-7.253a12.764 12.764 0 0 1 12.825 12.822c0 7.13-5.696 12.825-12.825 12.825s-12.822-5.695-12.822-12.825A12.762 12.762 0 0 1 45.626 7.916m0-7.916c-9.444 0-17.449 6.403-19.93 15.077-2.156-4.601-6.829-7.824-12.211-7.824C6.085 7.253 0 13.337 0 20.738c0 7.402 6.084 13.489 13.485 13.489 5.382 0 10.055-3.226 12.211-7.828 2.481 8.676 10.486 15.08 19.93 15.08 9.374 0 17.338-6.308 19.883-14.885 2.196 4.497 6.81 7.633 12.116 7.633 7.401 0 13.488-6.087 13.488-13.49 0-7.4-6.087-13.484-13.488-13.484-5.306 0-9.92 3.133-12.116 7.63C62.964 6.306 55 0 45.626 0M25.582 54.546c-.075-1.73-1.129-2.596-2.333-2.596-1.392 0-2.597.904-2.86 2.596h5.193zm-2.295-3.536c2.22 0 3.462 1.58 3.462 3.95a.418.418 0 0 1-.414.414h-5.984c.038 2.108 1.506 3.312 3.199 3.312a3.516 3.516 0 0 0 2.183-.752c.225-.152.413-.114.526.112l.113.188c.113.188.076.376-.113.528a4.668 4.668 0 0 1-2.747.902c-2.446 0-4.327-1.768-4.327-4.328.037-2.708 1.844-4.326 4.102-4.326zM38.05 52.213v-2.898c0-.263.15-.414.414-.414h.3c.264 0 .376.151.376.414v1.957h1.694c.264 0 .414.151.414.414v.113c0 .263-.15.376-.414.376H39.14v4.14c0 1.919 1.168 2.145 1.808 2.182.338.038.45.113.45.414v.226c0 .263-.112.376-.45.376-1.808 0-2.898-1.091-2.898-3.048v-4.252"/><g transform="translate(42 50.702)"><mask id="b"><use xlink:href="#a"/></mask><path mask="url(#b)" d="M4.667.307c1.43 0 2.333.602 2.747.941.188.15.226.338.038.564L7.339 2c-.151.226-.34.226-.565.076-.376-.264-1.091-.753-2.07-.753-1.806 0-3.236 1.355-3.236 3.35 0 1.956 1.43 3.311 3.237 3.311a3.481 3.481 0 0 0 2.333-.866c.226-.15.376-.113.527.113l.112.151c.113.225.076.376-.112.564A4.629 4.629 0 0 1 4.629 9C2.183 9 .302 7.231.302 4.672.339 2.113 2.22.307 4.667.307"/></g><g><path d="M51.672 48.337c0-.263-.151-.414.113-.414h.301c.263 0 .677.151.677.414v8.994c0 1.053.49 1.166.866 1.204.188 0 .338.113.338.376v.264c0 .263-.112.414-.413.414-.678 0-1.882-.226-1.882-2.032v-9.22M59.386 58.686c1.769 0 3.199-1.43 3.199-3.387 0-1.881-1.43-3.274-3.199-3.274s-3.236 1.43-3.236 3.274c.037 1.919 1.467 3.387 3.236 3.387m0-7.677c2.408 0 4.365 1.844 4.365 4.29 0 2.484-1.957 4.365-4.365 4.365s-4.365-1.881-4.365-4.365c0-2.446 1.957-4.29 4.365-4.29M78.202 58.686c1.392 0 2.672-.978 2.672-3.349 0-1.694-.866-3.312-2.634-3.312-1.468 0-2.672 1.205-2.672 3.312.036 2.032 1.09 3.349 2.634 3.349zm-.038-7.677c1.994 0 2.71 1.656 2.71 1.656h.036s-.036-.263-.036-.64V48.3c0-.264-.114-.414.15-.414h.3c.264 0 .678.15.678.414v10.725c0 .263-.112.414-.376.414h-.264c-.262 0-.414-.113-.414-.377v-.639c0-.301.076-.527.076-.527h-.038s-.714 1.731-2.86 1.731c-2.22 0-3.612-1.769-3.612-4.328-.076-2.559 1.468-4.29 3.65-4.29zM9.488 59.476h.3c.264 0 .415-.151.415-.414v-8.08c0-1.28 1.392-2.193 2.973-2.193 1.58 0 2.973.913 2.973 2.193v8.08c0 .263.15.414.414.414h.301c.263 0 .376-.151.376-.414v-8.128c0-2.145-2.145-3.199-4.102-3.199-1.881 0-4.026 1.054-4.026 3.199v8.128c0 .263.113.414.376.414M72.294 51.197h-.302c-.262 0-.414.151-.414.414v4.553c0 1.28-.828 2.446-2.446 2.446-1.58 0-2.446-1.166-2.446-2.446v-4.553c0-.263-.15-.414-.414-.414h-.3c-.264 0-.376.151-.376.414v4.854c0 2.145 1.58 3.199 3.536 3.199 1.958 0 3.538-1.054 3.538-3.199v-4.854c.038-.263-.114-.414-.376-.414zM35.042 51.136c-.092.015-.181.076-.265.177l-1.523 1.816-1.14 1.358-1.726-2.057-.936-1.117a.421.421 0 0 0-.28-.165.423.423 0 0 0-.304.114l-.231.194c-.201.169-.191.356-.022.558l1.524 1.816 1.263 1.505-1.85 2.204-.003.005-.934 1.112c-.169.202-.15.415.052.584l.231.192c.201.17.384.127.554-.075l1.523-1.815 1.14-1.358 1.725 2.057.004.004.933 1.112c.17.202.381.22.583.051l.231-.193c.202-.169.191-.357.022-.559l-1.524-1.815-1.263-1.505 1.85-2.205.004-.005.933-1.112c.169-.201.15-.414-.051-.583l-.231-.194c-.101-.084-.197-.116-.289-.101z"/></g></g></svg>