<?xml version="1.0" encoding="utf-8"?>
<!-- Generator: Adobe Illustrator 19.0.0, SVG Export Plug-In . SVG Version: 6.00 Build 0)  -->
<svg version="1.1" id="Layer_1" xmlns="http://www.w3.org/2000/svg" xmlns:xlink="http://www.w3.org/1999/xlink" x="0px" y="0px"
	 viewBox="-1231 689 96 64" style="enable-background:new -1231 689 96 64;" xml:space="preserve">
<style type="text/css">
	.st0{fill:#0082C9;}
	.st1{fill:#231F20;}
	.st2{filter:url(#Adobe_OpacityMaskFilter);}
	.st3{fill:#FFFFFF;}
	.st4{mask:url(#c_1_);fill:#231F20;}
</style>
<g>
	<g transform="translate(-128 -19)">
		<g>
			<g transform="translate(130 20)">
				<path class="st0" d="M-1153.4,704.2c3.1,0,5.6,2.4,5.6,5.6c0,3.1-2.4,5.6-5.6,5.6c-3.1,0-5.6-2.4-5.6-5.6
					C-1158.9,706.6-1156.5,704.2-1153.4,704.2 M-1217.5,704.2c3.1,0,5.6,2.4,5.6,5.6c0,3.1-2.4,5.6-5.6,5.6c-3.1,0-5.6-2.4-5.6-5.6
					C-1223.1,706.6-1220.6,704.2-1217.5,704.2 M-1185.4,696.9c7.1,0,12.8,5.7,12.8,12.8c0,7.1-5.7,12.8-12.8,12.8
					s-12.8-5.7-12.8-12.8C-1198.2,702.6-1192.5,696.9-1185.4,696.9 M-1185.4,689c-9.4,0-17.4,6.4-19.9,15.1
					c-2.2-4.6-6.8-7.8-12.2-7.8c-7.4,0-13.5,6.1-13.5,13.5c0,7.4,6.1,13.5,13.5,13.5c5.4,0,10.1-3.2,12.2-7.8
					c2.5,8.7,10.5,15.1,19.9,15.1c9.4,0,17.3-6.3,19.9-14.9c2.2,4.5,6.8,7.6,12.1,7.6c7.4,0,13.5-6.1,13.5-13.5
					c0-7.4-6.1-13.5-13.5-13.5c-5.3,0-9.9,3.1-12.1,7.6C-1168,695.3-1176,689-1185.4,689"/>
				<path class="st1" d="M-1205.4,743.5c-0.1-1.7-1.1-2.6-2.3-2.6c-1.4,0-2.6,0.9-2.9,2.6H-1205.4z M-1207.7,740
					c2.2,0,3.5,1.6,3.5,4c0,0.2-0.2,0.4-0.4,0.4h-6c0,2.1,1.5,3.3,3.2,3.3c1.1,0,1.8-0.5,2.2-0.8c0.2-0.2,0.4-0.1,0.5,0.1l0.1,0.2
					c0.1,0.2,0.1,0.4-0.1,0.5c-0.5,0.3-1.4,0.9-2.7,0.9c-2.4,0-4.3-1.8-4.3-4.3C-1211.8,741.6-1210,740-1207.7,740z"/>
				<path class="st1" d="M-1192.9,741.2v-2.9c0-0.3,0.1-0.4,0.4-0.4h0.3c0.3,0,0.4,0.2,0.4,0.4v2h1.7c0.3,0,0.4,0.2,0.4,0.4v0.1
					c0,0.3-0.2,0.4-0.4,0.4h-1.7v4.1c0,1.9,1.2,2.1,1.8,2.2c0.3,0,0.4,0.1,0.4,0.4v0.2c0,0.3-0.1,0.4-0.4,0.4c-1.8,0-2.9-1.1-2.9-3
					V741.2"/>
				<g transform="translate(42 50.702)">
					<defs>
						<filter id="Adobe_OpacityMaskFilter" filterUnits="userSpaceOnUse" x="-1230.7" y="689.3" width="7.4" height="8.7">
							<feColorMatrix  type="matrix" values="1 0 0 0 0  0 1 0 0 0  0 0 1 0 0  0 0 0 1 0"/>
						</filter>
					</defs>
					<mask maskUnits="userSpaceOnUse" x="-1230.7" y="689.3" width="7.4" height="8.7" id="c_1_">
						<g class="st2">
							<polygon id="d_1_" class="st3" points="-1230.7,698 -1223.3,698 -1223.3,689.3 -1230.7,689.3 							"/>
						</g>
					</mask>
					<path class="st4" d="M-1226.3,689.3c1.4,0,2.3,0.6,2.7,0.9c0.2,0.2,0.2,0.3,0,0.6l-0.1,0.2c-0.2,0.2-0.3,0.2-0.6,0.1
						c-0.4-0.3-1.1-0.8-2.1-0.8c-1.8,0-3.2,1.4-3.2,3.3c0,2,1.4,3.3,3.2,3.3c1.2,0,2-0.5,2.3-0.9c0.2-0.1,0.4-0.1,0.5,0.1l0.1,0.2
						c0.1,0.2,0.1,0.4-0.1,0.6c-0.4,0.3-1.4,1.1-2.9,1.1c-2.4,0-4.3-1.8-4.3-4.3C-1230.7,691.1-1228.8,689.3-1226.3,689.3"/>
				</g>
				<g>
					<path class="st1" d="M-1179.3,737.3c0-0.3-0.2-0.4,0.1-0.4h0.3c0.3,0,0.7,0.2,0.7,0.4v9c0,1.1,0.5,1.2,0.9,1.2
						c0.2,0,0.3,0.1,0.3,0.4v0.3c0,0.3-0.1,0.4-0.4,0.4c-0.7,0-1.9-0.2-1.9-2V737.3"/>
					<path class="st1" d="M-1171.6,747.7c1.8,0,3.2-1.4,3.2-3.4c0-1.9-1.4-3.3-3.2-3.3s-3.2,1.4-3.2,3.3
						C-1174.8,746.2-1173.4,747.7-1171.6,747.7 M-1171.6,740c2.4,0,4.4,1.8,4.4,4.3c0,2.5-2,4.4-4.4,4.4s-4.4-1.9-4.4-4.4
						C-1176,741.9-1174,740-1171.6,740"/>
					<path class="st1" d="M-1152.8,747.7c1.4,0,2.7-1,2.7-3.3c0-1.7-0.9-3.3-2.6-3.3c-1.5,0-2.7,1.2-2.7,3.3
						C-1155.4,746.4-1154.3,747.7-1152.8,747.7z M-1152.8,740c2,0,2.7,1.7,2.7,1.7h0c0,0,0-0.3,0-0.6v-3.7c0-0.3-0.1-0.4,0.2-0.4
						h0.3c0.3,0,0.7,0.2,0.7,0.4V748c0,0.3-0.1,0.4-0.4,0.4h-0.3c-0.3,0-0.4-0.1-0.4-0.4v-0.6c0-0.3,0.1-0.5,0.1-0.5h0
						c0,0-0.7,1.7-2.9,1.7c-2.2,0-3.6-1.8-3.6-4.3C-1156.6,741.7-1155,740-1152.8,740z"/>
					<path class="st1" d="M-1221.5,748.5h0.3c0.3,0,0.4-0.2,0.4-0.4V740c0-1.3,1.4-2.2,3-2.2c1.6,0,3,0.9,3,2.2v8.1
						c0,0.3,0.1,0.4,0.4,0.4h0.3c0.3,0,0.4-0.2,0.4-0.4v-8.1c0-2.1-2.1-3.2-4.1-3.2c-1.9,0-4,1.1-4,3.2v8.1
						C-1221.9,748.3-1221.8,748.5-1221.5,748.5"/>
					<path class="st1" d="M-1158.7,740.2h-0.3c-0.3,0-0.4,0.2-0.4,0.4v4.6c0,1.3-0.8,2.4-2.4,2.4c-1.6,0-2.4-1.2-2.4-2.4v-4.6
						c0-0.3-0.2-0.4-0.4-0.4h-0.3c-0.3,0-0.4,0.2-0.4,0.4v4.9c0,2.1,1.6,3.2,3.5,3.2c2,0,3.5-1.1,3.5-3.2v-4.9
						C-1158.3,740.3-1158.4,740.2-1158.7,740.2z"/>
					<path class="st1" d="M-1196,740.1c-0.1,0-0.2,0.1-0.3,0.2l-1.5,1.8l-1.1,1.4l-1.7-2.1l-0.9-1.1c-0.1-0.1-0.2-0.2-0.3-0.2
						c-0.1,0-0.2,0-0.3,0.1l-0.2,0.2c-0.2,0.2-0.2,0.4,0,0.6l1.5,1.8l1.3,1.5l-1.8,2.2c0,0,0,0,0,0l-0.9,1.1
						c-0.2,0.2-0.2,0.4,0.1,0.6l0.2,0.2c0.2,0.2,0.4,0.1,0.6-0.1l1.5-1.8l1.1-1.4l1.7,2.1c0,0,0,0,0,0l0.9,1.1
						c0.2,0.2,0.4,0.2,0.6,0.1l0.2-0.2c0.2-0.2,0.2-0.4,0-0.6l-1.5-1.8l-1.3-1.5l1.8-2.2c0,0,0,0,0,0l0.9-1.1
						c0.2-0.2,0.1-0.4-0.1-0.6l-0.2-0.2C-1195.8,740.2-1195.9,740.1-1196,740.1L-1196,740.1z"/>
				</g>
			</g>
		</g>
	</g>
</g>
</svg>
