<svg id="Layer_1" xmlns="http://www.w3.org/2000/svg" viewBox="-1231 689 96 64" enable-background="new -1231 689 96 64"><style>.st0{fill:#0082c9}.st1{fill:#231f20}.st2{filter:url(#Adobe_OpacityMaskFilter)}.st3{fill:#fff}.st4{mask:url(#c_1_);fill:#231f20}</style><path class="st0" d="M-1153.4 704.2c3.1 0 5.6 2.4 5.6 5.6 0 3.1-2.4 5.6-5.6 5.6-3.1 0-5.6-2.4-5.6-5.6.1-3.2 2.5-5.6 5.6-5.6m-64.1 0c3.1 0 5.6 2.4 5.6 5.6 0 3.1-2.4 5.6-5.6 5.6-3.1 0-5.6-2.4-5.6-5.6 0-3.2 2.5-5.6 5.6-5.6m32.1-7.3c7.1 0 12.8 5.7 12.8 12.8 0 7.1-5.7 12.8-12.8 12.8s-12.8-5.7-12.8-12.8c0-7.1 5.7-12.8 12.8-12.8m0-7.9c-9.4 0-17.4 6.4-19.9 15.1-2.2-4.6-6.8-7.8-12.2-7.8-7.4 0-13.5 6.1-13.5 13.5s6.1 13.5 13.5 13.5c5.4 0 10.1-3.2 12.2-7.8 2.5 8.7 10.5 15.1 19.9 15.1 9.4 0 17.3-6.3 19.9-14.9 2.2 4.5 6.8 7.6 12.1 7.6 7.4 0 13.5-6.1 13.5-13.5s-6.1-13.5-13.5-13.5c-5.3 0-9.9 3.1-12.1 7.6-2.5-8.6-10.5-14.9-19.9-14.9" transform="translate(2 1)"/><path class="st1" d="M-1205.4 743.5c-.1-1.7-1.1-2.6-2.3-2.6-1.4 0-2.6.9-2.9 2.6h5.2zm-2.3-3.5c2.2 0 3.5 1.6 3.5 4 0 .2-.2.4-.4.4h-6c0 2.1 1.5 3.3 3.2 3.3 1.1 0 1.8-.5 2.2-.8.2-.2.4-.1.5.1l.1.2c.1.2.1.4-.1.5-.5.3-1.4.9-2.7.9-2.4 0-4.3-1.8-4.3-4.3-.1-2.7 1.7-4.3 4-4.3zM-1192.9 741.2v-2.9c0-.3.1-.4.4-.4h.3c.3 0 .4.2.4.4v2h1.7c.3 0 .4.2.4.4v.1c0 .3-.2.4-.4.4h-1.7v4.1c0 1.9 1.2 2.1 1.8 2.2.3 0 .4.1.4.4v.2c0 .3-.1.4-.4.4-1.8 0-2.9-1.1-2.9-3v-4.3" transform="translate(2 1)"/><g transform="translate(44 51.702)"><defs><filter id="Adobe_OpacityMaskFilter" filterUnits="userSpaceOnUse" x="-1230.7" y="689.3" width="7.4" height="8.7"><feColorMatrix values="1 0 0 0 0 0 1 0 0 0 0 0 1 0 0 0 0 0 1 0"/></filter></defs><mask maskUnits="userSpaceOnUse" x="-1230.7" y="689.3" width="7.4" height="8.7" id="c_1_"><g class="st2"><path id="d_1_" class="st3" d="M-1230.7 698h7.4v-8.7h-7.4z"/></g></mask><path class="st4" d="M-1226.3 689.3c1.4 0 2.3.6 2.7.9.2.2.2.3 0 .6l-.1.2c-.2.2-.3.2-.6.1-.4-.3-1.1-.8-2.1-.8-1.8 0-3.2 1.4-3.2 3.3 0 2 1.4 3.3 3.2 3.3 1.2 0 2-.5 2.3-.9.2-.1.4-.1.5.1l.1.2c.1.2.1.4-.1.6-.4.3-1.4 1.1-2.9 1.1-2.4 0-4.3-1.8-4.3-4.3.1-2.6 2-4.4 4.5-4.4"/></g><path class="st1" d="M-1179.3 737.3c0-.3-.2-.4.1-.4h.3c.3 0 .7.2.7.4v9c0 1.1.5 1.2.9 1.2.2 0 .3.1.3.4v.3c0 .3-.1.4-.4.4-.7 0-1.9-.2-1.9-2v-9.3M-1171.6 747.7c1.8 0 3.2-1.4 3.2-3.4 0-1.9-1.4-3.3-3.2-3.3s-3.2 1.4-3.2 3.3 1.4 3.4 3.2 3.4m0-7.7c2.4 0 4.4 1.8 4.4 4.3s-2 4.4-4.4 4.4-4.4-1.9-4.4-4.4c0-2.4 2-4.3 4.4-4.3M-1152.8 747.7c1.4 0 2.7-1 2.7-3.3 0-1.7-.9-3.3-2.6-3.3-1.5 0-2.7 1.2-2.7 3.3 0 2 1.1 3.3 2.6 3.3zm0-7.7c2 0 2.7 1.7 2.7 1.7v-4.3c0-.3-.1-.4.2-.4h.3c.3 0 .7.2.7.4V748c0 .3-.1.4-.4.4h-.3c-.3 0-.4-.1-.4-.4v-.6c0-.3.1-.5.1-.5s-.7 1.7-2.9 1.7-3.6-1.8-3.6-4.3c-.2-2.6 1.4-4.3 3.6-4.3zM-1221.5 748.5h.3c.3 0 .4-.2.4-.4V740c0-1.3 1.4-2.2 3-2.2s3 .9 3 2.2v8.1c0 .3.1.4.4.4h.3c.3 0 .4-.2.4-.4V740c0-2.1-2.1-3.2-4.1-3.2-1.9 0-4 1.1-4 3.2v8.1c-.1.2 0 .4.3.4M-1158.7 740.2h-.3c-.3 0-.4.2-.4.4v4.6c0 1.3-.8 2.4-2.4 2.4-1.6 0-2.4-1.2-2.4-2.4v-4.6c0-.3-.2-.4-.4-.4h-.3c-.3 0-.4.2-.4.4v4.9c0 2.1 1.6 3.2 3.5 3.2 2 0 3.5-1.1 3.5-3.2v-4.9c0-.3-.1-.4-.4-.4zM-1196 740.1c-.1 0-.2.1-.3.2l-1.5 1.8-1.1 1.4-1.7-2.1-.9-1.1c-.1-.1-.2-.2-.3-.2-.1 0-.2 0-.3.1l-.2.2c-.2.2-.2.4 0 .6l1.5 1.8 1.3 1.5-1.8 2.2-.9 1.1c-.2.2-.2.4.1.6l.2.2c.2.2.4.1.6-.1l1.5-1.8 1.1-1.4 1.7 2.1.9 1.1c.2.2.4.2.6.1l.2-.2c.2-.2.2-.4 0-.6l-1.5-1.8-1.3-1.5 1.8-2.2.9-1.1c.2-.2.1-.4-.1-.6l-.2-.2c-.1 0-.2-.1-.3-.1z" transform="translate(2 1)"/></svg>