<svg xmlns="http://www.w3.org/2000/svg" xmlns:svg="http://www.w3.org/2000/svg" xmlns:xlink="http://www.w3.org/1999/xlink" id="svg20" width="100" height="100" version="1.1" viewBox="0 0 100 100"><metadata id="metadata24"/><defs id="defs3"><path id="a" d="M 0.302,9 H 7.74 V 0.307 H 0.3 Z"/></defs><g id="g18" fill="#0082c9" fill-rule="evenodd" transform="matrix(1.0975382,0,0,1.0975382,9.917e-7,27.237607)"><path id="path5" fill="#0082c9" d="m 77.625,15.169 c 3.124,0 5.572,2.446 5.572,5.569 0,3.124 -2.448,5.572 -5.572,5.572 -3.123,0 -5.569,-2.448 -5.569,-5.572 0,-3.123 2.446,-5.569 5.569,-5.569 m -64.14,0 c 3.124,0 5.573,2.446 5.573,5.569 0,3.124 -2.449,5.572 -5.573,5.572 -3.123,0 -5.569,-2.448 -5.569,-5.572 0,-3.123 2.446,-5.569 5.569,-5.569 M 45.626,7.916 c 7.095908,-0.033986 12.857326,5.726084 12.825,12.822 0,7.13 -5.696,12.825 -12.825,12.825 -7.129,0 -12.822,-5.695 -12.822,-12.825 C 32.770563,13.642801 38.530801,7.8825631 45.626,7.916 M 45.626,0 C 36.182,0 28.177,6.403 25.696,15.077 23.54,10.476 18.867,7.253 13.485,7.253 6.085,7.253 0,13.337 0,20.738 c 0,7.402 6.084,13.489 13.485,13.489 5.382,0 10.055,-3.226 12.211,-7.828 2.481,8.676 10.486,15.08 19.93,15.08 9.374,0 17.338,-6.308 19.883,-14.885 2.196,4.497 6.81,7.633 12.116,7.633 7.401,0 13.488,-6.087 13.488,-13.49 0,-7.4 -6.087,-13.484 -13.488,-13.484 -5.306,0 -9.92,3.133 -12.116,7.63 C 62.964,6.306 55,0 45.626,0"/><g id="g12" fill="#0082c9" transform="translate(42,50.702)"><mask id="b"><use id="use7" width="100%" height="100%" x="0" y="0" xlink:href="#a"/></mask></g></g></svg>