<?xml version="1.0" encoding="UTF-8" standalone="no"?>
<svg
   xmlns:dc="http://purl.org/dc/elements/1.1/"
   xmlns:cc="http://creativecommons.org/ns#"
   xmlns:rdf="http://www.w3.org/1999/02/22-rdf-syntax-ns#"
   xmlns:svg="http://www.w3.org/2000/svg"
   xmlns="http://www.w3.org/2000/svg"
   xmlns:xlink="http://www.w3.org/1999/xlink"
   xmlns:sodipodi="http://sodipodi.sourceforge.net/DTD/sodipodi-0.dtd"
   xmlns:inkscape="http://www.inkscape.org/namespaces/inkscape"
   version="1.1"
   id="Layer_1"
   x="0px"
   y="0px"
   viewBox="0 0 150.00001 149.99999"
   enable-background="new 0 0 196.6 72"
   xml:space="preserve"
   inkscape:version="1.0.1 (3bc2e813f5, 2020-09-07)"
   sodipodi:docname="Nextcloud-Hub-logo.svg"
   width="160"
   height="160"
   inkscape:export-filename="nextcloud-logo.png"
   inkscape:export-xdpi="300.09631"
   inkscape:export-ydpi="300.09631"><metadata
     id="metadata20"><rdf:RDF><cc:Work
         rdf:about=""><dc:format>image/svg+xml</dc:format><dc:type
           rdf:resource="http://purl.org/dc/dcmitype/StillImage" /><dc:title></dc:title></cc:Work></rdf:RDF></metadata><defs
     id="defs18"><linearGradient
       inkscape:collect="always"
       id="linearGradient857"><stop
         style="stop-color:#0082c9;stop-opacity:1;"
         offset="0"
         id="stop853" /><stop
         style="stop-color:#1cafff;stop-opacity:1"
         offset="1"
         id="stop855" /></linearGradient><clipPath
       clipPathUnits="userSpaceOnUse"
       id="clipPath8812"><circle
         id="circle8814"
         cx="95.669289"
         cy="95.669296"
         r="79.724197"
         style="fill:#00080d;fill-opacity:1;stroke-width:1" /></clipPath><linearGradient
       gradientTransform="translate(1e-5,7.88471e-6)"
       inkscape:collect="always"
       xlink:href="#linearGradient857"
       id="linearGradient1192"
       gradientUnits="userSpaceOnUse"
       x1="18.230097"
       y1="150"
       x2="150.00002"
       y2="-7.6293945e-06" /></defs><sodipodi:namedview
     pagecolor="#ffffff"
     bordercolor="#666666"
     borderopacity="1"
     objecttolerance="10"
     gridtolerance="10"
     guidetolerance="10"
     inkscape:pageopacity="0"
     inkscape:pageshadow="2"
     inkscape:window-width="3840"
     inkscape:window-height="2057"
     id="namedview16"
     showgrid="false"
     inkscape:zoom="2.5142857"
     inkscape:cx="-24.368777"
     inkscape:cy="0.71515247"
     inkscape:current-layer="Layer_1"
     fit-margin-top="0"
     fit-margin-left="0"
     fit-margin-right="0"
     fit-margin-bottom="0"
     inkscape:window-x="0"
     inkscape:window-y="0"
     inkscape:window-maximized="1"
     units="px"
     inkscape:snap-bbox="true"
     inkscape:bbox-paths="true"
     inkscape:bbox-nodes="true"
     inkscape:snap-bbox-edge-midpoints="true"
     inkscape:snap-bbox-midpoints="true"
     inkscape:snap-page="true"
     inkscape:document-rotation="0" /><rect
     y="-1.6940659e-21"
     x="0"
     height="150"
     width="150.00002"
     id="rect1050"
     style="opacity:1;fill:url(#linearGradient1192);fill-opacity:1;fill-rule:evenodd;stroke:none;stroke-width:0.1;stroke-miterlimit:4;stroke-dasharray:none;stroke-opacity:1"
     inkscape:export-filename="nextcloud-icon.png"
     inkscape:export-xdpi="300"
     inkscape:export-ydpi="300" /><g
     id="g964"
     transform="translate(-1.3463775,-5.9705615)"><g
       id="g1024"
       transform="matrix(0.82272145,0,0,0.82272145,-132.62487,-32.438811)"><g
         id="g993"><rect
           style="opacity:1;fill:#0082c9;fill-opacity:0;stroke:none;stroke-width:2.91042;stroke-linecap:butt;stroke-linejoin:round;stroke-miterlimit:4;stroke-dasharray:none;stroke-dashoffset:10;stroke-opacity:1;paint-order:markers fill stroke"
           id="rect8004"
           width="16.933332"
           height="16.933332"
           x="298.45001"
           y="172.11662" /><path
           inkscape:connector-curvature="0"
           style="fill:#ffffff;stroke-width:0.264583"
           d="m 299.39075,175.29162 c -0.52118,0 -0.94075,0.41989 -0.94075,0.94107 v 8.70267 c 0,0.52123 0.41957,0.9398 0.94075,0.9398 h 15.05162 c 0.52123,0 0.94086,-0.41857 0.94086,-0.9398 v -8.70267 c 0,-0.52118 -0.41963,-0.94107 -0.94086,-0.94107 z m 0.79375,1.08807 6.43837,6.43837 h 0.55859 l 6.46747,-6.43837 0.64675,0.64675 -3.85117,3.90996 2.91042,2.9692 -0.64675,0.64675 -2.9692,-2.96921 -2.14609,2.17546 h -1.35234 l -2.14577,-2.17487 -2.96937,2.99825 -0.6468,-0.67627 2.93984,-2.96916 -3.88054,-3.90979 z"
           id="path120" /></g><g
         id="g980"><rect
           style="opacity:1;fill:#0082c9;fill-opacity:0;stroke:none;stroke-width:2.91042;stroke-linecap:butt;stroke-linejoin:round;stroke-miterlimit:4;stroke-dasharray:none;stroke-dashoffset:10;stroke-opacity:1;paint-order:markers fill stroke"
           id="rect8004-5"
           width="16.933332"
           height="16.933332"
           x="234.95"
           y="172.11661" /><path
           inkscape:connector-curvature="0"
           style="fill:#ffffff;stroke-width:0.0370417"
           d="m 243.41581,173.17388 a 7.4075913,7.4076973 0 0 0 -7.40749,7.40791 7.4075913,7.4076973 0 0 0 7.40749,7.4077 7.4075913,7.4076973 0 0 0 3.84259,-1.08373 c 0.91042,0.36176 2.94968,1.4351 3.43503,0.97148 0.50718,-0.48434 -0.59542,-2.76394 -0.85976,-3.61103 a 7.4075913,7.4076973 0 0 0 0.98954,-3.68449 7.4075913,7.4076973 0 0 0 -7.40738,-7.40759 z m 8.4e-4,2.81633 a 4.5931661,4.5932717 0 0 1 4.59317,4.59327 4.5931661,4.5932717 0 0 1 -4.59317,4.59296 4.5931661,4.5932717 0 0 1 -4.59316,-4.59296 4.5931661,4.5932717 0 0 1 4.59316,-4.59327 z"
           id="path130" /></g><g
         id="g972"><rect
           style="opacity:1;fill:#0082c9;fill-opacity:0;stroke:none;stroke-width:2.91042;stroke-linecap:butt;stroke-linejoin:round;stroke-miterlimit:4;stroke-dasharray:none;stroke-dashoffset:10;stroke-opacity:1;paint-order:markers fill stroke"
           id="rect8004-6-3"
           width="16.933332"
           height="16.933332"
           x="192.61665"
           y="172.11662" /><path
           inkscape:connector-curvature="0"
           style="color:#000000;text-indent:0;text-transform:none;fill:#ffffff;stroke-width:0.264583"
           d="m 194.03883,174.23329 c -0.20902,0.0404 -0.36756,0.24702 -0.3638,0.46302 v 11.77396 c 0,0.24342 0.22437,0.46356 0.46302,0.46356 h 13.89063 c 0.2387,-2e-5 0.46301,-0.22062 0.46302,-0.46302 v -11.59194 c -5.3e-4,-0.35618 -0.27993,-0.64712 -0.54557,-0.64504 z m 0.69448,1.05828 h 12.7 v 5.29168 l -1.05833,-1.05834 -3.175,4.23334 -3.175,-3.175 -4.23334,4.23332 h -1.05833 z m 2.64594,1.05834 c -0.87678,0 -1.5875,0.71072 -1.5875,1.5875 0,0.87678 0.71072,1.5875 1.5875,1.5875 0.87678,0 1.5875,-0.71072 1.5875,-1.5875 0,-0.87678 -0.71072,-1.5875 -1.5875,-1.5875 z"
           id="path90" /></g><g
         id="g997"><rect
           style="opacity:1;fill:#0082c9;fill-opacity:0;stroke:none;stroke-width:2.91042;stroke-linecap:butt;stroke-linejoin:round;stroke-miterlimit:4;stroke-dasharray:none;stroke-dashoffset:10;stroke-opacity:1;paint-order:markers fill stroke"
           id="rect8004-6-2"
           width="16.933332"
           height="16.933332"
           x="319.61667"
           y="172.1167" /><path
           inkscape:connector-curvature="0"
           style="color:#000000;text-indent:0;text-transform:none;fill:#ffffff;stroke-width:0.264583"
           d="m 322.10333,173.17716 c -0.20903,0.0404 -0.3737,0.24692 -0.37,0.46302 v 13.88746 c 0,0.24342 0.21812,0.46354 0.45678,0.46354 h 11.78772 c 0.23918,0 0.4572,-0.22012 0.4572,-0.46354 v -10.73362 c -0.004,-0.0708 -0.0243,-0.1408 -0.0582,-0.20268 l -3.5052,-3.38582 c -0.0455,-0.018 -0.0942,-0.027 -0.14288,-0.0288 h -8.53917 c -0.0282,-0.002 -0.0582,-0.002 -0.0866,0 z m 1.74667,2.11456 h 6.35 v 1.05832 h -6.35 z m 0,3.175 h 5.29167 v 1.05832 H 323.85 Z m 0,3.175 h 8.46667 v 1.05832 H 323.85 Z m 0,3.175 h 4.23333 v 1.05832 H 323.85 Z"
           id="path60" /></g><g
         id="g968"><rect
           style="opacity:1;fill:#0082c9;fill-opacity:0;stroke:none;stroke-width:2.91042;stroke-linecap:butt;stroke-linejoin:round;stroke-miterlimit:4;stroke-dasharray:none;stroke-dashoffset:10;stroke-opacity:1;paint-order:markers fill stroke"
           id="rect8004-6-1"
           width="16.933332"
           height="16.933332"
           x="171.45"
           y="172.11668" /><path
           inkscape:connector-curvature="0"
           style="fill:#ffffff;stroke-width:0.264583"
           d="m 173.03749,174.23334 c -0.26458,0 -0.52917,0.26458 -0.52917,0.52916 v 11.64168 c 0,0.27516 0.254,0.52916 0.52917,0.52916 h 13.75833 c 0.27517,0 0.52917,-0.25506 0.52917,-0.52916 v -9.525 c 0,-0.26458 -0.26459,-0.52918 -0.52917,-0.52918 h -6.87916 l -2.11667,-2.11666 z"
           id="path40" /></g><g
         id="g984"><rect
           style="opacity:1;fill:#0082c9;fill-opacity:0;stroke:none;stroke-width:2.91042;stroke-linecap:butt;stroke-linejoin:round;stroke-miterlimit:4;stroke-dasharray:none;stroke-dashoffset:10;stroke-opacity:1;paint-order:markers fill stroke"
           id="rect8004-6-27"
           width="16.933332"
           height="16.933332"
           x="256.11667"
           y="172.11661" /><path
           inkscape:connector-curvature="0"
           style="color:#000000;text-indent:0;text-transform:none;fill:#ffffff;stroke-width:0.264583"
           d="m 260.477,174.45552 c -1.17819,0 -2.17768,0.86164 -2.17768,1.97358 0.008,0.35146 0.0398,0.78486 0.24953,1.70138 v 0.0227 l 0.0227,0.0227 c 0.0673,0.19286 0.1653,0.30318 0.29489,0.4537 0.12958,0.15052 0.28409,0.32768 0.431,0.47638 0.0174,0.0176 0.0284,0.0283 0.0454,0.0454 0.0292,0.1268 0.0644,0.26325 0.0907,0.38565 0.07,0.32565 0.0628,0.55626 0.0454,0.63516 -0.50628,0.17776 -1.13612,0.38947 -1.70132,0.63515 -0.3173,0.13794 -0.60442,0.26114 -0.83932,0.40834 -0.23488,0.1472 -0.46849,0.25841 -0.5444,0.58981 -10e-4,0.015 -10e-4,0.0303 0,0.0454 -0.0742,0.68124 -0.18642,1.68306 -0.27221,2.35923 -0.0186,0.14234 0.0565,0.29238 0.18148,0.36296 1.02616,0.55431 2.60249,0.7774 4.17385,0.77132 1.57136,-0.006 3.13516,-0.24235 4.12851,-0.77132 0.12498,-0.0706 0.2,-0.22062 0.18148,-0.36296 -0.0274,-0.21136 -0.061,-0.68797 -0.0907,-1.15691 -0.0297,-0.46897 -0.0555,-0.93028 -0.0907,-1.20232 -0.0122,-0.0674 -0.0442,-0.13118 -0.0907,-0.18148 -0.31556,-0.37683 -0.78703,-0.60717 -1.33837,-0.83937 -0.50335,-0.21195 -1.09347,-0.43206 -1.67862,-0.68056 -0.0328,-0.073 -0.0653,-0.28524 0,-0.61251 0.0176,-0.0879 0.045,-0.18198 0.0681,-0.27222 0.055,-0.0616 0.0979,-0.11192 0.15878,-0.18148 0.12996,-0.14834 0.2696,-0.30394 0.38563,-0.4537 0.11602,-0.14976 0.21095,-0.27823 0.27221,-0.4537 l 0.0227,-0.0227 c 0.2371,-0.95699 0.23723,-1.3563 0.24953,-1.70137 v -0.0227 c 0,-1.11194 -0.99949,-1.97358 -2.17768,-1.97358 z m 6.22935,-1.81102 c -1.71773,0 -3.17495,1.25619 -3.17495,2.87729 0.0122,0.51239 0.058,1.14427 0.3638,2.48042 v 0.0331 l 0.0331,0.0331 c 0.0982,0.28116 0.24101,0.442 0.42994,0.66145 0.18894,0.21945 0.41418,0.47773 0.62839,0.69453 0.0252,0.0255 0.0413,0.0413 0.0661,0.0662 0.0425,0.18484 0.0939,0.38379 0.1323,0.56224 0.10204,0.47477 0.0916,0.811 0.0662,0.92604 -0.73814,0.25917 -1.65645,0.5678 -2.48042,0.92605 -0.46261,0.20111 -0.88122,0.38069 -1.2237,0.59531 -0.34246,0.2146 -0.68304,0.37674 -0.79375,0.85989 -0.002,0.022 -0.002,0.0441 0,0.0662 -0.10818,0.9932 -0.27179,2.45375 -0.39686,3.43954 -0.027,0.20751 0.0824,0.42625 0.26457,0.52916 1.49612,0.80814 3.79434,1.13342 6.08542,1.12447 2.29097,-0.009 4.57089,-0.3533 6.01927,-1.12447 0.1822,-0.1029 0.29158,-0.32165 0.26458,-0.52916 -0.04,-0.30817 -0.089,-1.00301 -0.1323,-1.68674 -0.0433,-0.68369 -0.0809,-1.35626 -0.13228,-1.75287 -0.018,-0.0983 -0.0644,-0.19124 -0.1323,-0.26458 -0.46007,-0.54938 -1.14745,-0.88519 -1.9513,-1.22369 -0.73385,-0.30901 -1.59422,-0.62992 -2.44735,-0.99219 -0.0477,-0.10638 -0.0952,-0.41585 0,-0.89297 0.0256,-0.12812 0.0656,-0.26533 0.0992,-0.39687 0.0802,-0.0898 0.14266,-0.16318 0.23151,-0.26458 0.18948,-0.21626 0.39307,-0.44312 0.56224,-0.66146 0.16916,-0.21833 0.30756,-0.40563 0.39687,-0.66146 l 0.0331,-0.0331 c 0.3457,-1.3952 0.34588,-1.97734 0.36381,-2.48042 v -0.0331 c 0,-1.6211 -1.45722,-2.87729 -3.17495,-2.87729 z"
           id="path30" /></g><g
         id="g989"><rect
           style="opacity:1;fill:#0082c9;fill-opacity:0;stroke:none;stroke-width:2.91042;stroke-linecap:butt;stroke-linejoin:round;stroke-miterlimit:4;stroke-dasharray:none;stroke-dashoffset:10;stroke-opacity:1;paint-order:markers fill stroke"
           id="rect8004-6-61"
           width="16.933332"
           height="16.933332"
           x="277.28329"
           y="172.11661" /><g
           style="stroke-width:0.5"
           transform="matrix(0.52916661,0,0,0.52916661,584.57562,171.28238)"
           id="g4"><path
             d="m -572.71,3.5765 c -1.108,0 -2,0.892 -2,2 v 4 c 0,1.108 0.892,2 2,2 1.108,0 2,-0.892 2,-2 v -4 c 0,-1.108 -0.892,-2 -2,-2 z m 16,0 c -1.108,0 -2,0.892 -2,2 v 4 c 0,1.108 0.892,2 2,2 1.108,0 2,-0.892 2,-2 v -4 c 0,-1.108 -0.892,-2 -2,-2 z m -13,4 v 2 c 0,1.662 -1.338,3 -3,3 -1.662,0 -3,-1.338 -3,-3 v -1.875 c -1.728,0.44254 -3,2.0052 -3,3.875 v 16 c 0,2.216 1.784,4 4,4 h 20 c 2.216,0 4,-1.784 4,-4 v -16 c 0,-1.8698 -1.272,-3.4325 -3,-3.875 v 1.875 c 0,1.662 -1.338,3 -3,3 -1.662,0 -3,-1.338 -3,-3 v -2 z m -5.9062,9 h 21.812 c 0.0554,0 0.0937,0.03835 0.0937,0.09375 v 11.812 c 0,0.0554 -0.0384,0.09375 -0.0937,0.09375 h -21.812 c -0.0554,0 -0.0937,-0.03835 -0.0937,-0.09375 v -11.812 c 0,-0.0554 0.0384,-0.09375 0.0937,-0.09375 z"
             id="path2-8"
             inkscape:connector-curvature="0"
             style="fill:#ffffff;stroke-width:0.5" /></g></g><g
         id="g976"><rect
           style="opacity:1;fill:#0082c9;fill-opacity:0;stroke:none;stroke-width:2.91042;stroke-linecap:butt;stroke-linejoin:round;stroke-miterlimit:4;stroke-dasharray:none;stroke-dashoffset:10;stroke-opacity:1;paint-order:markers fill stroke"
           id="rect8004-6-922"
           width="16.933332"
           height="16.933332"
           x="213.78325"
           y="172.11661" /><path
           d="m 222.24992,172.64578 -5.29167,9.525 h 5.82083 l -0.52916,6.34999 5.29166,-9.52499 h -5.82083 z"
           id="path2-89"
           inkscape:connector-curvature="0"
           style="fill:#ffffff;stroke-width:0.264583" /></g></g><g
       id="g2156"
       transform="matrix(0.82272145,0,0,0.82272145,-205.54327,-22.432687)"><path
         inkscape:export-ydpi="300"
         inkscape:export-xdpi="300"
         inkscape:export-filename="Nextcloud Hub logo variants.png"
         style="color:#000000;font-style:normal;font-variant:normal;font-weight:normal;font-stretch:normal;font-size:medium;line-height:normal;font-family:sans-serif;text-indent:0;text-align:start;text-decoration:none;text-decoration-line:none;text-decoration-style:solid;text-decoration-color:#000000;letter-spacing:normal;word-spacing:normal;text-transform:none;writing-mode:lr-tb;direction:ltr;baseline-shift:baseline;text-anchor:start;white-space:normal;clip-rule:nonzero;display:inline;overflow:visible;visibility:visible;opacity:1;isolation:auto;mix-blend-mode:normal;color-interpolation:sRGB;color-interpolation-filters:linearRGB;solid-color:#000000;solid-opacity:1;fill:#ffffff;fill-opacity:1;fill-rule:nonzero;stroke:none;stroke-width:1.57082;stroke-linecap:butt;stroke-linejoin:miter;stroke-miterlimit:10;stroke-dasharray:none;stroke-dashoffset:0;stroke-opacity:1;color-rendering:auto;image-rendering:auto;shape-rendering:auto;text-rendering:auto;enable-background:accumulate"
         d="m 342.71138,74.480986 c -10.96992,0 -20.26786,7.436873 -23.14961,17.513022 -2.5045,-5.344537 -7.93191,-9.088838 -14.18335,-9.088838 -8.59719,0 -15.6643,7.067121 -15.6643,15.664299 0,8.597181 7.06711,15.667521 15.6643,15.667521 6.25144,0 11.67885,-3.7466 14.18335,-9.09205 2.88175,10.0769 12.17969,17.51624 23.14961,17.51624 10.88882,0 20.13935,-7.32717 23.09478,-17.29041 2.5508,5.22412 7.91104,8.86622 14.07368,8.86622 8.59718,0 15.66753,-7.07034 15.66753,-15.667521 0,-8.597178 -7.07035,-15.664299 -15.66753,-15.664299 -6.16264,0 -11.52288,3.639797 -14.07368,8.862998 -2.95543,-9.96249 -12.20596,-17.287182 -23.09478,-17.287182 z m 0,9.195312 c 8.28105,0 14.89643,6.612143 14.89643,14.893171 0,8.281021 -6.61538,14.896391 -14.89643,14.896391 -8.28099,0 -14.89318,-6.61537 -14.89318,-14.896391 0,-8.281028 6.61219,-14.893171 14.89318,-14.893171 z m -37.33296,8.424192 c 3.6281,0 6.47221,2.840879 6.47221,6.468979 0,3.628111 -2.84411,6.472211 -6.47221,6.472211 -3.62811,0 -6.46899,-2.8441 -6.46899,-6.472211 0,-3.6281 2.84088,-6.468979 6.46899,-6.468979 z m 74.50142,0 c 3.6281,0 6.47221,2.840879 6.47221,6.468979 0,3.628111 -2.84411,6.472211 -6.47221,6.472211 -3.62811,0 -6.46899,-2.8441 -6.46899,-6.472211 0,-3.6281 2.84088,-6.468979 6.46899,-6.468979 z"
         id="path1052-3"
         inkscape:connector-curvature="0" /><g
         style="stroke-width:0.303712"
         inkscape:export-ydpi="300"
         inkscape:export-xdpi="300"
         inkscape:export-filename="Nextcloud Hub logo variants.png"
         transform="matrix(0.92924198,0,0,0.92924198,-76.150083,22.408384)"
         id="g1385"><path
           sodipodi:nodetypes="ssssccssssssssccsssss"
           inkscape:connector-curvature="0"
           id="path1229"
           style="font-style:normal;font-variant:normal;font-weight:normal;font-stretch:normal;font-size:medium;line-height:1;font-family:MuseoSansW01-Rounded100;-inkscape-font-specification:MuseoSansW01-Rounded100;letter-spacing:-0.7125px;word-spacing:0px;opacity:1;fill:#ffffff;fill-opacity:1;stroke:none;stroke-width:0.28473"
           d="m 479.22729,116.1047 c 0,-0.20487 0.10244,-0.30731 0.30732,-0.30731 h 0.16269 c 0.20487,0 0.30731,0.10244 0.30731,0.30731 v 5.64007 h 7.08892 v -5.64007 c 0,-0.20487 0.10243,-0.30731 0.30731,-0.30731 h 0.1627 c 0.20487,0 0.30731,0.10244 0.30731,0.30731 v 12.03939 c 0,0.20487 -0.10244,0.30731 -0.30731,0.30731 h -0.1627 c -0.20488,0 -0.34069,-0.10517 -0.30731,-0.30731 v -5.67623 h -7.08892 v 5.67623 c 0,0.20487 -0.10244,0.30731 -0.30731,0.30731 h -0.16269 c -0.20488,0 -0.30732,-0.10244 -0.30732,-0.30731 z" /><path
           style="font-style:normal;font-variant:normal;font-weight:normal;font-stretch:normal;font-size:medium;line-height:1;font-family:MuseoSansW01-Rounded100;-inkscape-font-specification:MuseoSansW01-Rounded100;letter-spacing:-0.7125px;word-spacing:0px;opacity:1;fill:#ffffff;fill-opacity:1;stroke:none;stroke-width:0.28473"
           d="m 490.3697,119.41223 c -0.20487,0 -0.30761,0.10275 -0.30761,0.30762 v 5.224 c -3.5e-4,2.05723 1.66713,3.72471 3.72436,3.72436 2.05723,3.5e-4 3.72471,-1.66712 3.72437,-3.72436 v -5.224 c 0,-0.20487 -0.10275,-0.30762 -0.30762,-0.30762 h -0.14465 c -0.20487,0 -0.30764,0.10275 -0.30762,0.30762 v 5.15259 c 0,0.0245 -0.004,0.047 -0.004,0.0714 h 0.004 c 7e-5,0.0991 -0.005,0.19806 -0.0146,0.29663 -0.01,0.0983 -0.0245,0.1961 -0.0439,0.29296 -0.0196,0.097 -0.0441,0.19292 -0.0732,0.28748 -0.0295,0.0944 -0.0637,0.18731 -0.10255,0.27832 -0.0383,0.0906 -0.0811,0.17919 -0.12817,0.2655 -0.0476,0.0868 -0.0996,0.1711 -0.15564,0.25269 -0.0559,0.0817 -0.11571,0.16051 -0.17944,0.23621 -0.0635,0.0759 -0.13068,0.14866 -0.20141,0.21789 -0.0706,0.0684 -0.14452,0.1331 -0.22156,0.1941 -0.0776,0.062 -0.15827,0.12004 -0.2417,0.17395 -0.0835,0.0531 -0.16972,0.10199 -0.25818,0.14648 -0.0877,0.0447 -0.1775,0.085 -0.26916,0.12085 -0.0924,0.0358 -0.18649,0.0669 -0.28199,0.0934 -0.0953,0.0268 -0.19182,0.0488 -0.28931,0.0659 -0.097,0.0164 -0.19478,0.028 -0.29297,0.0348 -0.07,0.005 -0.1403,0.007 -0.21057,0.007 -0.0985,1e-5 -0.19683,-0.005 -0.2948,-0.0147 -0.0983,-0.01 -0.19609,-0.0243 -0.29296,-0.044 -0.097,-0.0196 -0.19293,-0.0441 -0.28748,-0.0732 -0.0944,-0.0295 -0.18731,-0.0638 -0.27832,-0.10254 -0.0912,-0.0383 -0.18042,-0.081 -0.26733,-0.12817 -0.0868,-0.0476 -0.1711,-0.0996 -0.25269,-0.15565 -0.0817,-0.0552 -0.16047,-0.11451 -0.23621,-0.1776 -0.0754,-0.0641 -0.14746,-0.13193 -0.21607,-0.20325 -0.069,-0.0706 -0.13433,-0.14449 -0.19591,-0.22156 -0.0614,-0.0776 -0.11882,-0.1583 -0.17212,-0.2417 -0.0537,-0.0829 -0.10317,-0.16847 -0.14832,-0.25635 -0.0448,-0.0882 -0.0851,-0.17869 -0.12085,-0.27099 -0.0358,-0.0923 -0.067,-0.18647 -0.0934,-0.28199 -0.0262,-0.0953 -0.0475,-0.19186 -0.0641,-0.2893 -0.0171,-0.097 -0.0291,-0.19476 -0.0366,-0.29297 -0.005,-0.07 -0.007,-0.14031 -0.007,-0.21057 h 0.004 c -1.4e-4,-0.0245 -0.004,-0.0469 -0.004,-0.0714 v -5.15259 c 0,-0.20487 -0.10274,-0.30762 -0.30761,-0.30762 z"
           id="path1231"
           inkscape:connector-curvature="0" /><path
           inkscape:connector-curvature="0"
           id="path1233"
           style="font-style:normal;font-variant:normal;font-weight:normal;font-stretch:normal;font-size:medium;line-height:1;font-family:MuseoSansW01-Rounded100;-inkscape-font-specification:MuseoSansW01-Rounded100;letter-spacing:-0.7125px;word-spacing:0px;opacity:1;fill:#ffffff;fill-opacity:1;stroke:none;stroke-width:0.28473"
           d="m 500.43883,123.95019 q 0,0.75924 0.18078,1.48233 0.19884,0.705 0.59654,1.2654 0.3977,0.54231 0.97617,0.88578 0.59654,0.34346 1.39194,0.34346 0.66885,0 1.24732,-0.27115 0.59655,-0.27116 1.0304,-0.77732 0.43385,-0.50616 0.68693,-1.24733 0.25308,-0.74116 0.25308,-1.69925 0,-0.92193 -0.235,-1.64502 -0.235,-0.74116 -0.65078,-1.2654 -0.41577,-0.52424 -0.99424,-0.7954 -0.57847,-0.28923 -1.2654,-0.28923 -0.6327,0 -1.21117,0.235 -0.57847,0.21693 -1.0304,0.70501 -0.43385,0.48808 -0.70501,1.24732 -0.27116,0.75925 -0.27116,1.8258 z m -0.74116,-7.84549 q 0,-0.30731 0.30731,-0.30731 h 0.14462 q 0.30731,0 0.30731,0.30731 v 4.39275 q 0,0.16269 -0.0181,0.30731 0,0.12654 -0.0181,0.21693 -0.0181,0.10846 -0.0362,0.21692 h 0.0362 q 0.25308,-0.56039 0.70501,-1.01232 0.37962,-0.37962 0.99424,-0.70501 0.6327,-0.32539 1.57271,-0.32539 0.90386,0 1.62695,0.34347 0.72308,0.34347 1.22924,0.97617 0.50616,0.61462 0.77732,1.5004 0.27116,0.86771 0.27116,1.91618 0,1.08463 -0.30731,1.95233 -0.28924,0.86771 -0.83155,1.50041 -0.54232,0.61462 -1.28348,0.95809 -0.74116,0.32539 -1.62694,0.32539 -0.86771,0 -1.46425,-0.30732 -0.59655,-0.32538 -0.95809,-0.705 -0.45193,-0.45193 -0.70501,-1.0304 h -0.0362 q 0.0181,0.0904 0.0362,0.21692 0.0181,0.10847 0.0181,0.25308 0.0181,0.14462 0.0181,0.32539 v 0.72309 q 0,0.30731 -0.30731,0.30731 h -0.14462 q -0.30731,0 -0.30731,-0.30731 z" /><path
           style="fill:#ffffff;fill-opacity:1;stroke-width:0.142862"
           inkscape:connector-curvature="0"
           d="m 408.96979,119.44084 c 2.38791,0 3.72351,1.69985 3.72351,4.24965 0,0.24283 -0.20236,0.44519 -0.44521,0.44519 h -6.43518 c 0.0404,2.26649 1.61892,3.56162 3.44019,3.56162 1.13324,0 1.9427,-0.48568 2.34743,-0.80946 0.24284,-0.16189 0.4452,-0.12142 0.56662,0.12142 l 0.12142,0.20236 c 0.12142,0.20237 0.081,0.40474 -0.12142,0.56662 -0.48568,0.36426 -1.53797,0.97136 -2.95451,0.97136 -2.63074,0 -4.65438,-1.90224 -4.65438,-4.65438 0.0404,-2.91405 1.98316,-4.65438 4.41153,-4.65438 z m 2.46885,3.80445 c -0.081,-1.86176 -1.21418,-2.79263 -2.50931,-2.79263 -1.4975,0 -2.79263,0.97134 -3.07594,2.79263 z"
           id="path1174-6" /><path
           style="fill:#ffffff;fill-opacity:1;stroke-width:0.142862"
           inkscape:connector-curvature="0"
           d="m 424.64577,120.73597 v -1.01182 -2.10459 c 0,-0.28331 0.16188,-0.4452 0.44519,-0.4452 h 0.32379 c 0.28331,0 0.40473,0.16189 0.40473,0.4452 v 2.10459 h 1.82128 c 0.28331,0 0.4452,0.16189 0.4452,0.4452 v 0.12141 c 0,0.28331 -0.16189,0.40473 -0.4452,0.40473 h -1.82128 v 4.45202 c 0,2.06411 1.25466,2.30695 1.9427,2.34742 0.36425,0.0404 0.48567,0.12143 0.48567,0.4452 v 0.24285 c 0,0.28331 -0.12142,0.40472 -0.48567,0.40472 -1.9427,0 -3.11641,-1.17371 -3.11641,-3.2783 z"
           id="path1176-7" /><path
           style="fill:#ffffff;fill-opacity:1;stroke-width:0.142862"
           inkscape:connector-curvature="0"
           d="m 434.11571,119.44084 c 1.53798,0 2.50932,0.64756 2.95452,1.01182 0.20237,0.16189 0.24284,0.36426 0.0404,0.60709 l -0.12141,0.20237 c -0.1619,0.24283 -0.36426,0.24283 -0.6071,0.081 -0.40472,-0.28331 -1.17371,-0.80946 -2.22601,-0.80946 -1.94269,0 -3.48066,1.45702 -3.48066,3.60208 0,2.1046 1.53797,3.56161 3.48066,3.56161 1.25467,0 2.10459,-0.56662 2.50932,-0.93087 0.24284,-0.16189 0.40474,-0.12142 0.56662,0.12142 l 0.12142,0.16189 c 0.12142,0.24284 0.081,0.40473 -0.12142,0.6071 -0.44519,0.36425 -1.53796,1.13323 -3.15688,1.13323 -2.63074,0 -4.65437,-1.90222 -4.65437,-4.65438 0.0404,-2.75215 2.06411,-4.69484 4.69484,-4.69484 z"
           id="path1178-5" /><path
           style="fill:#ffffff;fill-opacity:1;stroke-width:0.142862"
           inkscape:connector-curvature="0"
           d="m 439.4986,116.56726 c 0,-0.28331 -0.16189,-0.4452 0.12142,-0.4452 h 0.32379 c 0.28331,0 0.72851,0.16189 0.72851,0.4452 v 9.67302 c 0,1.13324 0.52614,1.25465 0.93088,1.29513 0.20236,0 0.36425,0.12142 0.36425,0.40472 v 0.28331 c 0,0.28331 -0.12142,0.44521 -0.4452,0.44521 -0.72851,0 -2.02365,-0.24284 -2.02365,-2.18554 z"
           id="path1180" /><path
           style="fill:#ffffff;fill-opacity:1;stroke-width:0.142862"
           inkscape:connector-curvature="0"
           d="m 447.79554,119.44084 c 2.59027,0 4.69485,1.98316 4.69485,4.6139 0,2.67121 -2.10458,4.69486 -4.69485,4.69486 -2.59026,0 -4.69485,-2.02365 -4.69485,-4.69486 0,-2.63074 2.10459,-4.6139 4.69485,-4.6139 z m 0,8.25646 c 1.90223,0 3.44019,-1.53797 3.44019,-3.64256 0,-2.02364 -1.53796,-3.52113 -3.44019,-3.52113 -1.90222,0 -3.48066,1.53796 -3.48066,3.52113 0.0404,2.06412 1.57844,3.64256 3.48066,3.64256 z"
           id="path1182-3" /><path
           style="fill:#ffffff;fill-opacity:1;stroke-width:0.142862"
           inkscape:connector-curvature="0"
           d="m 467.9915,119.44084 c 2.14506,0 2.91405,1.7808 2.91405,1.7808 h 0.0404 c 0,0 -0.0404,-0.28331 -0.0404,-0.68803 v -4.00682 c 0,-0.28331 -0.12142,-0.4452 0.16189,-0.4452 h 0.32378 c 0.28331,0 0.72851,0.16189 0.72851,0.4452 v 11.53476 c 0,0.28331 -0.12142,0.4452 -0.40473,0.4452 h -0.28331 c -0.28331,0 -0.4452,-0.12141 -0.4452,-0.40472 v -0.68804 c 0,-0.32378 0.081,-0.56663 0.081,-0.56663 h -0.0404 c 0,0 -0.76899,1.86176 -3.07594,1.86176 -2.3879,0 -3.88539,-1.90222 -3.88539,-4.65438 -0.081,-2.75215 1.57844,-4.6139 3.92586,-4.6139 z m 0.0404,8.25646 c 1.4975,0 2.87357,-1.0523 2.87357,-3.60208 0,-1.82129 -0.93088,-3.56161 -2.8331,-3.56161 -1.57844,0 -2.87358,1.29513 -2.87358,3.56161 0.0404,2.18553 1.17372,3.60208 2.83311,3.60208 z"
           id="path1184" /><path
           id="path1186-5"
           d="m 461.67773,119.6432 h -0.32378 c -0.28331,0 -0.4452,0.16189 -0.4452,0.4452 v 4.89721 c 0,1.37608 -0.89041,2.63075 -2.63074,2.63075 -1.69986,0 -2.63074,-1.25467 -2.63074,-2.63075 v -4.89721 c 0,-0.28331 -0.16188,-0.4452 -0.4452,-0.4452 h -0.32378 c -0.28331,0 -0.40472,0.16189 -0.40472,0.4452 v 5.221 c 0,2.30696 1.69985,3.4402 3.80444,3.4402 v 0 c 0,0 0,0 0,0 0,0 0,0 0,0 v 0 c 2.10459,0 3.80445,-1.13324 3.80445,-3.4402 v -5.221 c 0.0404,-0.28331 -0.12142,-0.4452 -0.40473,-0.4452 z"
           inkscape:connector-curvature="0"
           style="fill:#ffffff;fill-opacity:1;stroke-width:0.142862" /><path
           style="fill:#ffffff;fill-opacity:1;stroke-width:0.142862"
           d="m 421.61292,119.5768 c -0.0991,0.0158 -0.19431,0.082 -0.28536,0.19051 l -1.63789,1.9525 -1.22604,1.46082 -1.85606,-2.21257 -1.00708,-1.20075 c -0.0911,-0.10852 -0.19417,-0.16785 -0.30118,-0.17708 -0.107,-0.009 -0.21795,0.0315 -0.32647,0.12254 l -0.24821,0.20789 c -0.21702,0.18211 -0.20582,0.38374 -0.0238,0.60077 l 1.63868,1.9525 1.35884,1.61891 -1.98965,2.37067 c -0.002,0.002 -0.003,0.003 -0.004,0.005 l -1.00391,1.19601 c -0.18211,0.21702 -0.16171,0.44553 0.0553,0.62764 l 0.2482,0.20711 c 0.21703,0.18211 0.41392,0.13639 0.59603,-0.0806 l 1.63789,-1.9525 1.22604,-1.46082 1.85606,2.21257 c 8.6e-4,0.002 0.003,0.003 0.004,0.004 l 1.00392,1.1968 c 0.18211,0.21703 0.40982,0.23666 0.62686,0.0546 l 0.2482,-0.2079 c 0.21703,-0.18211 0.20583,-0.38374 0.0237,-0.60076 l -1.63867,-1.95251 -1.35885,-1.61891 1.98966,-2.37067 c 0.002,-0.002 0.003,-0.003 0.004,-0.005 l 1.00391,-1.19601 c 0.18211,-0.21702 0.16171,-0.44553 -0.0553,-0.62764 l -0.24821,-0.20789 c -0.10851,-0.0911 -0.21153,-0.12492 -0.31065,-0.1091 z"
           id="path1188-6"
           inkscape:connector-curvature="0" /><path
           inkscape:connector-curvature="0"
           id="path1190-2"
           d="m 394.12809,115.91914 c -0.2833,0 -0.4049,0.16254 -0.4049,0.44587 v 11.73729 c 0,0.28331 0.1216,0.44428 0.4049,0.44428 h 0.32455 c 0.28331,0 0.44429,-0.16097 0.44429,-0.44428 v -9.74747 l 6.40745,9.94441 c 0.0279,0.0434 0.0578,0.0737 0.0882,0.10555 0.009,0.0106 0.0166,0.022 0.0268,0.0315 0.0273,0.0248 0.0573,0.0383 0.0867,0.0536 0.0164,0.009 0.029,0.0205 0.0472,0.0268 0.0127,0.004 0.0262,0.003 0.0394,0.006 0.0452,0.0116 0.0906,0.0237 0.14495,0.0237 h 0.32298 c 0.28331,0 0.40488,-0.16097 0.40488,-0.44428 v -11.73704 c 0,-0.28333 -0.12157,-0.44587 -0.40488,-0.44587 h -0.32298 c -0.28332,0 -0.44586,0.16254 -0.44586,0.44587 v 9.74746 l -6.40746,-9.94439 c -0.0219,-0.0339 -0.0479,-0.0557 -0.0725,-0.0819 -0.074,-0.10465 -0.192,-0.167 -0.35921,-0.167 z"
           style="fill:#ffffff;fill-opacity:1;stroke-width:0.142862" /></g></g></g></svg>
