<?xml version="1.0" encoding="UTF-8" standalone="no"?>
<svg
   xmlns:dc="http://purl.org/dc/elements/1.1/"
   xmlns:cc="http://creativecommons.org/ns#"
   xmlns:rdf="http://www.w3.org/1999/02/22-rdf-syntax-ns#"
   xmlns:svg="http://www.w3.org/2000/svg"
   xmlns="http://www.w3.org/2000/svg"
   xmlns:xlink="http://www.w3.org/1999/xlink"
   xmlns:sodipodi="http://sodipodi.sourceforge.net/DTD/sodipodi-0.dtd"
   xmlns:inkscape="http://www.inkscape.org/namespaces/inkscape"
   version="1.1"
   id="Layer_1"
   x="0px"
   y="0px"
   viewBox="0 0 150.00001 149.99999"
   enable-background="new 0 0 196.6 72"
   xml:space="preserve"
   inkscape:version="1.0.1 (3bc2e813f5, 2020-09-07)"
   sodipodi:docname="nextcloud-Enterprise-logo.svg"
   width="160"
   height="160"
   inkscape:export-filename="nextcloud-logo.png"
   inkscape:export-xdpi="300.09631"
   inkscape:export-ydpi="300.09631"><metadata
     id="metadata20"><rdf:RDF><cc:Work
         rdf:about=""><dc:format>image/svg+xml</dc:format><dc:type
           rdf:resource="http://purl.org/dc/dcmitype/StillImage" /><dc:title></dc:title></cc:Work></rdf:RDF></metadata><defs
     id="defs18"><linearGradient
       inkscape:collect="always"
       id="linearGradient857"><stop
         style="stop-color:#0082c9;stop-opacity:1;"
         offset="0"
         id="stop853" /><stop
         style="stop-color:#1cafff;stop-opacity:1"
         offset="1"
         id="stop855" /></linearGradient><clipPath
       clipPathUnits="userSpaceOnUse"
       id="clipPath8812"><circle
         id="circle8814"
         cx="95.669289"
         cy="95.669296"
         r="79.724197"
         style="fill:#00080d;fill-opacity:1;stroke-width:1" /></clipPath><linearGradient
       gradientTransform="translate(1e-5,7.88471e-6)"
       inkscape:collect="always"
       xlink:href="#linearGradient857"
       id="linearGradient1192"
       gradientUnits="userSpaceOnUse"
       x1="18.230097"
       y1="150"
       x2="150.00002"
       y2="-7.6293945e-06" /></defs><sodipodi:namedview
     pagecolor="#ffffff"
     bordercolor="#666666"
     borderopacity="1"
     objecttolerance="10"
     gridtolerance="10"
     guidetolerance="10"
     inkscape:pageopacity="0"
     inkscape:pageshadow="2"
     inkscape:window-width="3840"
     inkscape:window-height="2057"
     id="namedview16"
     showgrid="false"
     inkscape:zoom="2.5142857"
     inkscape:cx="149.24572"
     inkscape:cy="8.7530744"
     inkscape:current-layer="Layer_1"
     fit-margin-top="0"
     fit-margin-left="0"
     fit-margin-right="0"
     fit-margin-bottom="0"
     inkscape:window-x="0"
     inkscape:window-y="0"
     inkscape:window-maximized="1"
     units="px"
     inkscape:snap-bbox="true"
     inkscape:bbox-paths="true"
     inkscape:bbox-nodes="true"
     inkscape:snap-bbox-edge-midpoints="true"
     inkscape:snap-bbox-midpoints="true"
     inkscape:snap-page="true"
     inkscape:document-rotation="0" /><rect
     y="-1.6940659e-21"
     x="0"
     height="150"
     width="150.00002"
     id="rect1050"
     style="opacity:1;fill:url(#linearGradient1192);fill-opacity:1;fill-rule:evenodd;stroke:none;stroke-width:0.1;stroke-miterlimit:4;stroke-dasharray:none;stroke-opacity:1"
     inkscape:export-filename="nextcloud-logo.png"
     inkscape:export-xdpi="300"
     inkscape:export-ydpi="300" /><g
     id="g854"
     transform="translate(-186.14562,-11.325847)"><text
       xml:space="preserve"
       style="font-style:normal;font-weight:normal;font-size:12.0333px;line-height:1;font-family:sans-serif;letter-spacing:0px;word-spacing:0px;fill:#fbffff;fill-opacity:1;stroke:none;stroke-width:0.9025"
       x="214.01389"
       y="130.71461"
       id="text9394"
       inkscape:export-filename="Nextcloud Enterprise.png"
       inkscape:export-xdpi="300"
       inkscape:export-ydpi="300"><tspan
         sodipodi:role="line"
         id="tspan9392"
         x="214.01389"
         y="130.71461"
         style="font-style:normal;font-variant:normal;font-weight:bold;font-stretch:normal;font-size:18.05px;font-family:'Open Sans';-inkscape-font-specification:'Open Sans Bold';fill:#fbffff;fill-opacity:1;stroke-width:0.9025">Enterprise</tspan></text><path
       inkscape:connector-curvature="0"
       id="path1052-3"
       d="m 261.23235,37.600848 c -11.79557,0 -21.79327,8.003199 -24.8919,18.84662 -2.69302,-5.75151 -8.5289,-9.780941 -15.25083,-9.780941 -9.24424,0 -16.84324,7.60527 -16.84324,16.857111 0,9.251841 7.599,16.860571 16.84324,16.860571 6.72193,0 12.55781,-4.031881 15.25083,-9.784411 3.09863,10.844251 13.09633,18.850111 24.8919,18.850111 11.70831,0 21.65505,-7.88511 24.83292,-18.607051 2.74277,5.621931 8.50643,9.541351 15.13287,9.541351 9.24424,0 16.84671,-7.60873 16.84671,-16.860571 0,-9.251841 -7.60247,-16.857111 -16.84671,-16.857111 -6.62644,0 -12.3901,3.916971 -15.13287,9.5379 -3.17787,-10.7211 -13.12461,-18.603579 -24.83292,-18.603579 z m 0,9.89552 c 8.9043,0 16.01754,7.11565 16.01754,16.02727 0,8.911611 -7.11324,16.030741 -16.01754,16.030741 -8.90427,0 -16.01406,-7.11913 -16.01406,-16.030741 0,-8.91162 7.10979,-16.02727 16.01406,-16.02727 z m -40.14273,9.065689 c 3.90116,0 6.95932,3.057181 6.95932,6.961581 0,3.90439 -3.05816,6.96505 -6.95932,6.96505 -3.90118,0 -6.95588,-3.06066 -6.95588,-6.96505 0,-3.9044 3.0547,-6.961581 6.95588,-6.961581 z m 80.10852,0 c 3.9012,0 6.95934,3.057181 6.95934,6.961581 0,3.90439 -3.05816,6.96505 -6.95934,6.96505 -3.90114,0 -6.95584,-3.06066 -6.95584,-6.96505 0,-3.9044 3.05471,-6.961581 6.95584,-6.961581 z"
       style="color:#000000;font-style:normal;font-variant:normal;font-weight:normal;font-stretch:normal;font-size:medium;line-height:normal;font-family:sans-serif;text-indent:0;text-align:start;text-decoration:none;text-decoration-line:none;text-decoration-style:solid;text-decoration-color:#000000;letter-spacing:normal;word-spacing:normal;text-transform:none;writing-mode:lr-tb;direction:ltr;baseline-shift:baseline;text-anchor:start;white-space:normal;clip-rule:nonzero;display:inline;overflow:visible;visibility:visible;opacity:1;isolation:auto;mix-blend-mode:normal;color-interpolation:sRGB;color-interpolation-filters:linearRGB;solid-color:#000000;solid-opacity:1;fill:#ffffff;fill-opacity:1;fill-rule:nonzero;stroke:none;stroke-width:5.5659;stroke-linecap:butt;stroke-linejoin:miter;stroke-miterlimit:10;stroke-dasharray:none;stroke-dashoffset:0;stroke-opacity:1;color-rendering:auto;image-rendering:auto;shape-rendering:auto;text-rendering:auto;enable-background:accumulate"
       inkscape:export-filename="Nextcloud Hub logo variants.png"
       inkscape:export-xdpi="300"
       inkscape:export-ydpi="300" /><path
       style="fill:#ffffff;fill-opacity:1;stroke-width:0.470385"
       d="m 216.09731,97.26961 c -0.32898,0 -0.47108,0.187939 -0.47108,0.517239 v 13.642691 c 0,0.32927 0.1421,0.51495 0.47108,0.51495 h 0.37733 c 0.32899,0 0.5145,-0.18568 0.5145,-0.51495 v -11.32885 l 7.44118,11.55773 c 0.0324,0.0505 0.0676,0.0842 0.10291,0.12123 0.0106,0.0125 0.0179,0.0256 0.0298,0.0366 0.0317,0.0289 0.0665,0.044 0.10057,0.0618 0.019,0.01 0.0338,0.0247 0.055,0.032 0.0148,0.005 0.0304,0.002 0.0458,0.006 0.0525,0.0135 0.10608,0.0275 0.16921,0.0275 h 0.37504 c 0.32899,0 0.47107,-0.18567 0.47107,-0.51495 V 97.786619 c 0,-0.329299 -0.14208,-0.51724 -0.47107,-0.51724 h -0.37504 c -0.32901,0 -0.51681,0.187941 -0.51681,0.51724 v 11.329351 l -7.44117,-11.557721 c -0.0254,-0.0394 -0.056,-0.0634 -0.0846,-0.0939 -0.0859,-0.12161 -0.22201,-0.19455 -0.41619,-0.19455 z m 89.34655,0.18768 c -0.32899,0 -0.18751,0.18795 -0.18751,0.517239 v 4.657421 c 0,0.47037 0.0456,0.79872 0.0456,0.79872 h -0.0456 c 0,0 -0.89344,-2.06893 -3.38441,-2.06893 -2.72597,0 -4.65389,2.16372 -4.55983,5.36231 0,3.19862 1.73882,5.41041 4.51179,5.41041 2.67899,0 3.57197,-2.16508 3.57197,-2.16508 h 0.048 c 0,0 -0.0938,0.28283 -0.0938,0.65913 v 0.79874 c 0,0.32926 0.1878,0.47148 0.51681,0.47148 h 0.3293 c 0.32899,0 0.46877,-0.18798 0.46877,-0.51724 V 97.974529 c 0,-0.329289 -0.5171,-0.517239 -0.8461,-0.517239 z m -36.51976,0.0481 c -0.32901,0 -0.13949,0.18797 -0.13949,0.51724 v 11.52339 c 0,2.25783 1.50253,2.54039 2.34852,2.54039 0.376,0 0.51679,-0.18795 0.51679,-0.5172 v -0.32958 c 0,-0.32927 -0.18805,-0.46919 -0.42304,-0.46919 -0.47002,-0.047 -1.07936,-0.18886 -1.07936,-1.50594 V 98.022629 c 0,-0.329269 -0.5171,-0.517249 -0.84611,-0.517249 z m -16.87182,1.22216 c -0.329,0 -0.51682,0.18797 -0.51682,0.51724 v 2.44659 1.17638 5.31423 c 0,2.44599 1.36398,3.81064 3.61996,3.81064 0.42299,0 0.56255,-0.13993 0.56255,-0.46918 v -0.2838 c 0,-0.37629 -0.13956,-0.47024 -0.56255,-0.51724 -0.79899,-0.047 -2.25704,-0.32912 -2.25704,-2.72809 v -5.17464 h 2.11527 c 0.329,0 0.51681,-0.1399 0.51681,-0.46918 v -0.1419 c 0,-0.32926 -0.18781,-0.51722 -0.51681,-0.51722 h -2.11527 v -2.4466 c 0,-0.32926 -0.13979,-0.51724 -0.46879,-0.51724 z m -18.71955,2.63427 c -2.81997,0 -5.07774,2.02359 -5.12466,5.41037 0,3.19859 2.35096,5.40809 5.40594,5.40809 1.64497,0 2.86616,-0.70495 3.43016,-1.12831 0.23507,-0.18814 0.28278,-0.42392 0.14178,-0.65912 l -0.14178,-0.23346 c -0.141,-0.28223 -0.3743,-0.33005 -0.65631,-0.14188 -0.46999,0.37629 -1.41212,0.94064 -2.72812,0.94064 -2.11497,0 -3.94807,-1.50604 -3.99499,-4.14019 h 7.47318 c 0.28201,0 0.51681,-0.23501 0.51681,-0.51725 0,-2.9634 -1.54901,-4.93889 -4.32201,-4.93889 z m 29.19983,0 c -3.05497,0 -5.40475,2.25755 -5.45167,5.45614 0,3.1986 2.35096,5.41039 5.40593,5.41039 1.87999,0 3.14872,-0.89493 3.6657,-1.31828 0.23507,-0.2352 0.2805,-0.42265 0.13951,-0.7049 l -0.13951,-0.18766 c -0.18798,-0.28225 -0.37659,-0.33005 -0.65858,-0.14191 -0.47,0.42334 -1.45635,1.08255 -2.91335,1.08255 -2.25598,0 -4.04302,-1.69419 -4.04302,-4.14019 0,-2.49302 1.78704,-4.18596 4.04302,-4.18596 1.222,0 2.11406,0.61137 2.58405,0.94065 0.282,0.18807 0.51632,0.18838 0.70433,-0.0938 l 0.14178,-0.23572 c 0.23508,-0.28224 0.18698,-0.51677 -0.0481,-0.7049 -0.51699,-0.42337 -1.64415,-1.17638 -3.43015,-1.17638 z m 15.88622,0 c -3.00797,0 -5.45167,2.30482 -5.45167,5.36231 0,3.10451 2.4437,5.45615 5.45167,5.45615 3.008,0 5.45168,-2.35164 5.45168,-5.45615 0,-3.05749 -2.44368,-5.36231 -5.45168,-5.36231 z m -30.40494,0.15793 c -0.11509,0.0184 -0.22586,0.0959 -0.33159,0.22197 l -1.9026,2.26805 -1.42237,1.69818 -2.15644,-2.57015 -1.16853,-1.39608 c -0.1058,-0.12611 -0.22562,-0.19525 -0.34987,-0.20597 -0.12426,-0.01 -0.2536,0.0361 -0.37961,0.14189 l -0.28814,0.24258 c -0.25202,0.21167 -0.23882,0.44583 -0.0275,0.69807 l 1.9026,2.26803 1.57787,1.88357 -2.30964,2.75326 c -0.002,0.002 -0.004,0.005 -0.005,0.006 l -1.16625,1.38923 c -0.21148,0.25223 -0.18798,0.51842 0.0641,0.73009 l 0.28812,0.2403 c 0.25204,0.21164 0.48143,0.15841 0.6929,-0.0939 l 1.90031,-2.26806 1.42466,-1.69818 2.15643,2.57244 c 10e-4,0.002 0.004,0.004 0.005,0.005 l 1.16397,1.3915 c 0.21147,0.25223 0.47744,0.27337 0.72948,0.0617 l 0.28813,-0.2403 c 0.25203,-0.21165 0.23894,-0.44581 0.0275,-0.69805 l -1.90259,-2.27034 -1.57788,-1.88129 2.30965,-2.75554 c 0.002,-0.002 0.004,-0.004 0.005,-0.006 l 1.16624,-1.38921 c 0.21149,-0.25224 0.18799,-0.51844 -0.0641,-0.73009 l -0.28813,-0.2403 c -0.12601,-0.10587 -0.24621,-0.14655 -0.3613,-0.12815 z m 38.63047,0.0779 c -0.32901,0 -0.47109,0.18796 -0.47109,0.51723 v 6.06722 c 0,2.6812 1.97407,3.99829 4.41805,3.99829 2.44399,0 4.41807,-1.31709 4.41807,-3.99829 v -6.06723 c 0.047,-0.32926 -0.1398,-0.51723 -0.4688,-0.51723 h -0.37731 c -0.32901,0 -0.51683,0.18797 -0.51683,0.51723 v 5.69189 c 0,1.59931 -1.03414,3.05766 -3.05513,3.05766 -1.97397,0 -3.05511,-1.45835 -3.05511,-3.05766 v -5.69189 c 0,-0.32926 -0.18782,-0.51723 -0.51684,-0.51723 z m -53.3596,0.94063 c 1.50399,0 2.81929,1.08155 2.91335,3.24531 h -6.48529 c 0.329,-2.11674 1.83296,-3.24531 3.57194,-3.24531 z m 45.13407,0.0939 c 2.20899,0 3.99501,1.74023 3.99501,4.09214 0,2.44598 -1.78602,4.23401 -3.99501,4.23401 -2.20896,0 -3.9961,-1.83505 -4.043,-4.23401 0,-2.30488 1.83404,-4.09214 4.043,-4.09214 z m 23.5469,0 c 2.20901,0 3.29067,2.02346 3.29067,4.1402 0,2.9634 -1.59968,4.18595 -3.33868,4.18595 -1.92696,0 -3.24147,-1.6459 -3.28838,-4.18595 0,-2.63415 1.50341,-4.1402 3.33639,-4.1402 z"
       id="path1174-6"
       inkscape:connector-curvature="0" /></g></svg>
