<svg xmlns="http://www.w3.org/2000/svg" xmlns:svg="http://www.w3.org/2000/svg" xmlns:xlink="http://www.w3.org/1999/xlink" id="Layer_1" width="121.485" height="103.946" x="0" y="0" enable-background="new 0 0 196.6 72" version="1.1" viewBox="0 0 113.892 97.45" xml:space="preserve"><metadata id="metadata20"/><defs id="defs18"><linearGradient id="linearGradient5230"><stop id="stop5226" offset="0" stop-color="#6d6d6d" stop-opacity="1"/><stop id="stop5228" offset="1" stop-color="#6d6d6d" stop-opacity="0"/></linearGradient><radialGradient id="radialGradient5232" cx="713.498" cy="525" r="42.462" fx="713.498" fy="525" gradientTransform="matrix(1,0,0,0.18841374,0,426.08272)" gradientUnits="userSpaceOnUse" xlink:href="#linearGradient5230"/></defs><path display="inline" style="line-height:normal;text-indent:0;text-align:start;text-decoration-line:none;text-decoration-style:solid;text-decoration-color:#000;text-transform:none;white-space:normal;isolation:auto;mix-blend-mode:normal;solid-color:#000;solid-opacity:1" id="path9320" fill="#fbffff" fill-opacity="1" fill-rule="nonzero" stroke="none" stroke-dasharray="none" stroke-dashoffset="0" stroke-linecap="butt" stroke-linejoin="miter" stroke-miterlimit="10" stroke-opacity="1" stroke-width="5.566" d="M 57.0328,0 C 45.22755,0 35.22162,8.003181 32.12045,18.846591 29.42521,13.095081 23.58453,9.065667 16.85708,9.065667 7.60525,9.065667 0,16.670918 0,25.922741 c 0,9.25182 7.60525,16.86055 16.85708,16.86055 6.72745,0 12.56813,-4.03189 15.26337,-9.7844 3.10117,10.84423 13.1071,18.85007 24.91235,18.85007 11.71795,0 21.67286,-7.8851 24.85334,-18.60702 2.74505,5.62193 8.51344,9.54135 15.14533,9.54135 9.25183,0 16.86055,-7.60873 16.86055,-16.86055 0,-9.251823 -7.60872,-16.857074 -16.86055,-16.857074 -6.63189,0 -12.40028,3.916959 -15.14533,9.537874 C 78.70566,7.882461 68.75075,0 57.0328,0 Z m 0,9.8955 c 8.91163,0 16.03073,7.115643 16.03073,16.027241 0,8.9116 -7.1191,16.03072 -16.03073,16.03072 -8.91158,0 -16.02722,-7.11912 -16.02722,-16.03072 0,-8.911598 7.11564,-16.027239 16.02722,-16.027241 z m -40.17572,9.065671 c 3.90437,0 6.96504,3.05719 6.96504,6.96157 0,3.90438 -3.06067,6.96504 -6.96504,6.96504 -3.90439,0 -6.96159,-3.06066 -6.96159,-6.96504 0,-3.90438 3.0572,-6.96157 6.96159,-6.96157 z m 80.17439,0 c 3.9044,0 6.96504,3.05719 6.96504,6.96157 0,3.90438 -3.06066,6.96504 -6.96504,6.96504 -3.90437,0 -6.96156,-3.06066 -6.96156,-6.96504 0,-3.90438 3.05721,-6.96157 6.96156,-6.96157 z" baseline-shift="baseline" clip-rule="nonzero" color="#000" color-interpolation="sRGB" color-interpolation-filters="linearRGB" color-rendering="auto" direction="ltr" enable-background="accumulate" font-family="sans-serif" font-size="medium" font-stretch="normal" font-style="normal" font-variant="normal" font-weight="normal" image-rendering="auto" letter-spacing="normal" opacity="1" overflow="visible" shape-rendering="auto" text-anchor="start" text-decoration="none" text-rendering="auto" visibility="visible" word-spacing="normal" writing-mode="lr-tb"/><g id="g9340" fill="#fbffff" fill-opacity="1" opacity="1" transform="matrix(0.47038519,0,0,0.47038519,11.3892,40.759621)"><path id="path9322" fill="#fbffff" fill-opacity="1" d="m 37.669669,48.9 c 5.9,0 9.2,4.2 9.2,10.5 0,0.6 -0.5,1.1 -1.1,1.1 h -15.9 c 0.1,5.6 4,8.8 8.5,8.8 2.8,0 4.8,-1.2 5.8,-2 0.6,-0.4 1.1,-0.3 1.4,0.3 l 0.3,0.5 c 0.3,0.5 0.2,1 -0.3,1.4 -1.2,0.9 -3.8,2.4 -7.3,2.4 -6.5,0 -11.5,-4.7 -11.5,-11.5 0.1,-7.2 4.9,-11.5 10.9,-11.5 z m 6.1,9.4 c -0.2,-4.6 -3,-6.9 -6.2,-6.9 -3.7,0 -6.9,2.4 -7.6,6.9 z"/><path id="path9324" fill="#fbffff" fill-opacity="1" d="m 76.9,52.1 v -2.5 -5.2 c 0,-0.7 0.4,-1.1 1.1,-1.1 h 0.8 c 0.7,0 1,0.4 1,1.1 v 5.2 h 4.5 c 0.7,0 1.1,0.4 1.1,1.1 V 51 c 0,0.7 -0.4,1 -1.1,1 h -4.5 v 11 c 0,5.1 3.1,5.7 4.8,5.8 0.9,0.1 1.2,0.3 1.2,1.1 v 0.6 c 0,0.7 -0.3,1 -1.2,1 -4.8,0 -7.7,-2.9 -7.7,-8.1 z"/><path id="path9326" fill="#fbffff" fill-opacity="1" d="m 99.8,48.9 c 3.8,0 6.2,1.6 7.3,2.5 0.5,0.4 0.6,0.9 0.1,1.5 l -0.3,0.5 c -0.4,0.6 -0.9,0.6 -1.5,0.2 -1,-0.7 -2.9,-2 -5.5,-2 -4.8,0 -8.6,3.6 -8.6,8.9 0,5.2 3.8,8.8 8.6,8.8 3.1,0 5.2,-1.4 6.2,-2.3 0.6,-0.4 1,-0.3 1.4,0.3 l 0.3,0.4 c 0.3,0.6 0.2,1 -0.3,1.5 -1.1,0.9 -3.8,2.8 -7.8,2.8 -6.5,0 -11.5,-4.7 -11.5,-11.5 0.1,-6.8 5.1,-11.6 11.6,-11.6 z"/><path id="path9328" fill="#fbffff" fill-opacity="1" d="m 113.1,41.8 c 0,-0.7 -0.4,-1.1 0.3,-1.1 h 0.8 c 0.7,0 1.8,0.4 1.8,1.1 v 23.9 c 0,2.8 1.3,3.1 2.3,3.2 0.5,0 0.9,0.3 0.9,1 v 0.7 c 0,0.7 -0.3,1.1 -1.1,1.1 -1.8,0 -5,-0.6 -5,-5.4 z"/><path id="path9330" fill="#fbffff" fill-opacity="1" d="m 133.6,48.9 c 6.4,0 11.6,4.9 11.6,11.4 0,6.6 -5.2,11.6 -11.6,11.6 -6.4,0 -11.6,-5 -11.6,-11.6 0,-6.5 5.2,-11.4 11.6,-11.4 z m 0,20.4 c 4.7,0 8.5,-3.8 8.5,-9 0,-5 -3.8,-8.7 -8.5,-8.7 -4.7,0 -8.6,3.8 -8.6,8.7 0.1,5.1 3.9,9 8.6,9 z"/><path id="path9332" fill="#fbffff" fill-opacity="1" d="m 183.5,48.9 c 5.3,0 7.2,4.4 7.2,4.4 h 0.1 c 0,0 -0.1,-0.7 -0.1,-1.7 v -9.9 c 0,-0.7 -0.3,-1.1 0.4,-1.1 h 0.8 c 0.7,0 1.8,0.4 1.8,1.1 v 28.5 c 0,0.7 -0.3,1.1 -1,1.1 H 192 c -0.7,0 -1.1,-0.3 -1.1,-1 v -1.7 c 0,-0.8 0.2,-1.4 0.2,-1.4 H 191 c 0,0 -1.9,4.6 -7.6,4.6 -5.9,0 -9.6,-4.7 -9.6,-11.5 -0.2,-6.8 3.9,-11.4 9.7,-11.4 z m 0.1,20.4 c 3.7,0 7.1,-2.6 7.1,-8.9 0,-4.5 -2.3,-8.8 -7,-8.8 -3.9,0 -7.1,3.2 -7.1,8.8 0.1,5.4 2.9,8.9 7,8.9 z"/><path id="path9334" fill="#fbffff" fill-opacity="1" d="m 1,71.4 h 0.8 c 0.7,0 1.1,-0.4 1.1,-1.1 V 48.827665 C 2.9,45.427665 6.6,43 10.8,43 c 4.2,0 7.9,2.427665 7.9,5.827665 L 18.7,70.3 c 0,0.7 0.4,1.1 1.1,1.1 h 0.8 c 0.7,0 1,-0.4 1,-1.1 V 48.7 c 0,-5.7 -5.7,-8.5 -10.9,-8.5 v 0 0 0 0 C 5.7,40.2 0,43 0,48.7 v 21.6 c 0,0.7 0.3,1.1 1,1.1 z"/><path id="path9336" fill="#fbffff" fill-opacity="1" d="m 167.9,49.4 h -0.8 c -0.7,0 -1.1,0.4 -1.1,1.1 v 12.1 c 0,3.4 -2.2,6.5 -6.5,6.5 -4.2,0 -6.5,-3.1 -6.5,-6.5 V 50.5 c 0,-0.7 -0.4,-1.1 -1.1,-1.1 h -0.8 c -0.7,0 -1,0.4 -1,1.1 v 12.9 c 0,5.7 4.2,8.5 9.4,8.5 v 0 c 0,0 0,0 0,0 0,0 0,0 0,0 v 0 c 5.2,0 9.4,-2.8 9.4,-8.5 V 50.5 c 0.1,-0.7 -0.3,-1.1 -1,-1.1 z"/><path id="path9338" fill="#fbffff" fill-opacity="1" d="m 68.908203,49.235938 c -0.244942,0.0391 -0.480102,0.202589 -0.705078,0.470703 l -4.046875,4.824218 -3.029297,3.609375 -4.585937,-5.466796 -2.488282,-2.966797 c -0.224975,-0.268116 -0.479748,-0.414718 -0.74414,-0.4375 -0.264393,-0.02278 -0.538524,0.07775 -0.806641,0.302734 l -0.613281,0.513672 c -0.536232,0.449952 -0.508545,0.948144 -0.05859,1.484375 l 4.048828,4.824219 3.357422,4 -4.916016,5.857421 c -0.0037,0.0044 -0.0061,0.0093 -0.0098,0.01367 l -2.480469,2.955078 c -0.449952,0.536232 -0.399531,1.100832 0.136719,1.550782 l 0.613281,0.511718 c 0.536231,0.449951 1.022704,0.33701 1.472656,-0.199218 l 4.046875,-4.824219 3.029297,-3.609375 4.585938,5.466797 c 0.003,0.0036 0.0067,0.0062 0.0098,0.0098 l 2.480469,2.957032 c 0.44995,0.536231 1.012595,0.584735 1.548828,0.134765 l 0.613282,-0.513671 c 0.536231,-0.449952 0.508544,-0.948144 0.05859,-1.484376 l -4.048828,-4.824218 -3.357422,-4 4.916016,-5.857422 c 0.0037,-0.0044 0.0061,-0.0093 0.0098,-0.01367 l 2.480469,-2.955078 c 0.449952,-0.53623 0.399532,-1.10083 -0.136719,-1.550781 l -0.613281,-0.513672 c -0.268115,-0.224976 -0.522636,-0.308636 -0.767578,-0.269531 z"/></g><text id="text9394" x="9.768" y="93.113" fill="#fbffff" fill-opacity="1" stroke="none" stroke-width=".903" font-family="sans-serif" font-size="12.033" font-style="normal" font-weight="normal" letter-spacing="0" word-spacing="0" xml:space="preserve" style="line-height:1"><tspan id="tspan9392" x="9.768" y="93.113" fill="#fbffff" fill-opacity="1" stroke-width=".903" font-family="Open Sans" font-size="18.05" font-stretch="normal" font-style="normal" font-variant="normal" font-weight="bold" style="-inkscape-font-specification:'Open Sans Bold'">Enterprise</tspan></text></svg>