<?xml version="1.0" encoding="UTF-8" standalone="no"?>
<svg
   xmlns:dc="http://purl.org/dc/elements/1.1/"
   xmlns:cc="http://creativecommons.org/ns#"
   xmlns:rdf="http://www.w3.org/1999/02/22-rdf-syntax-ns#"
   xmlns:svg="http://www.w3.org/2000/svg"
   xmlns="http://www.w3.org/2000/svg"
   xmlns:sodipodi="http://sodipodi.sourceforge.net/DTD/sodipodi-0.dtd"
   xmlns:inkscape="http://www.inkscape.org/namespaces/inkscape"
   id="svg4"
   version="1.1"
   viewBox="0 0 180.18149 180.18065"
   height="180.18065"
   width="180.18149"
   sodipodi:docname="Open_Iconic_puzzle_piece.svg"
   inkscape:version="0.92.4 (5da689c313, 2019-01-14)">
  <path
     style="fill:#0082c9;stroke-width:22.52256203"
     id="path2"
     d="m 67.568677,180.18065 c -6.306318,0 -12.162184,-2.25225 -16.216246,-6.30631 -4.054061,-4.05406 -6.306318,-9.90993 -6.306318,-16.21625 0,-6.30631 4.054063,-10.81083 6.306318,-16.21624 0.661712,-1.32342 0.675389,-1.51089 0.675672,-4.13931 -0.0152,-2.1738 -0.0091,-2.17764 -2.154419,-2.16701 H 2.3580595 C 0.33683661,135.13315 0.01671568,134.67906 9.8948531e-4,132.7791 V 2.3048443 C -0.01463558,0.71979974 0.80873518,0.00878435 2.3324495,1.5434857e-4 H 49.443997 C 52.036278,0.00654181 52.049649,0.00652214 52.025593,2.4898343 c -0.02581,2.48456 -0.250201,2.54776 -0.673162,3.81663 -2.252255,5.4054217 -6.306318,9.9099347 -6.306318,16.2162517 0,6.306318 2.252257,12.162184 6.306318,16.216245 4.054062,4.054062 9.909928,6.306317 16.216246,6.306317 6.306318,0 12.162184,-2.252255 16.216245,-6.306317 4.05406,-4.054061 6.306317,-9.909927 6.306317,-16.216245 0,-6.306317 -4.054061,-10.81083 -6.306317,-16.2162517 -0.650647,-1.30128 -0.67475,-1.43798 -0.675643,-4.0078299 0.0067,-2.23295704 0.0096,-2.27715498 2.389405,-2.29848005143 H 132.31118 C 134.36801,0.01273848 135.09992,0.79467157 135.13636,2.6970644 V 49.755662 c 0.0361,2.233748 0.0335,2.272552 2.32319,2.270524 2.55884,-0.01735 2.68601,-0.242216 3.98313,-0.67459 5.40542,-2.252255 9.90993,-6.306318 16.21625,-6.306318 6.30631,0 12.16218,2.252257 16.21624,6.306318 4.05406,4.054062 6.30632,9.909928 6.30632,16.216246 0,6.306318 -2.25226,12.162184 -6.30632,16.216245 -4.05406,4.05406 -9.90993,6.306317 -16.21624,6.306317 -6.30632,0 -10.81083,-4.054061 -16.21625,-6.306317 -1.29314,-0.646573 -1.41125,-0.674423 -3.95961,-0.675623 -2.32425,0.06183 -2.32039,0.05543 -2.34671,2.358135 v 46.038921 c -0.14248,3.51945 -0.20934,3.55317 -3.135,3.63001 H 85.291653 c -2.154934,0.048 -2.16246,0.05 -2.182119,2.16699 0.0091,2.62843 0.234245,2.8159 0.675388,4.13933 2.252256,5.40541 6.306317,9.90993 6.306317,16.21624 0,6.30632 -2.252257,12.16219 -6.306317,16.21625 -4.054061,4.05406 -9.909927,6.30631 -16.216245,6.30631 z" />
</svg>
