<svg xmlns="http://www.w3.org/2000/svg" xmlns:svg="http://www.w3.org/2000/svg" id="Layer_1" width="13cm" height="13cm" x="0" y="0" enable-background="new 0 0 196.6 72" version="1.1" viewBox="0 0 460.63 460.63" xml:space="preserve"><metadata id="metadata20"/><style id="style839" type="text/css">.st0,.st1{enable-background:new}.st0{opacity:.42;fill:#0082c9}.st1{opacity:.72}.st1,.st2{fill:#0082c9}</style><g id="g966"><path style="fill:#fff;stroke-width:3.92070746" id="path863" d="m 88.467843,325.33564 c -3.93128,0 -7.190546,3.25927 -7.190546,7.19059 v 8.49224 H 80.35071 c -5.301966,-0.0749 -5.301966,7.91632 0,7.84142 h 0.926587 v 8.49227 c 0,3.93129 3.259218,7.19056 7.190546,7.19056 h 16.984507 c 3.9313,0 7.1906,-3.25923 7.1906,-7.19056 v -8.49227 h 13.07906 l -6.9914,6.9914 c -3.84869,3.69534 1.84865,9.39284 5.54427,5.54428 l 13.68405,-13.68405 c 1.51734,-1.52043 1.53302,-4.01049 0,-5.54428 l -13.68405,-13.68403 c -0.73826,-0.75868 -1.75174,-1.18684 -2.81035,-1.18692 -3.51844,0 -5.25531,4.2771 -2.73379,6.73106 l 6.9914,6.99141 h -13.07911 v -8.49222 c 0,-3.93133 -3.25922,-7.19061 -7.19055,-7.19061 H 88.467976 Z m 0,5.88106 h 16.984507 c 0.7749,0 1.30945,0.53455 1.30945,1.30945 v 24.82592 c 0,0.7749 -0.53455,1.30946 -1.30945,1.30946 H 88.467843 c -0.7749,0 -1.309452,-0.53456 -1.309452,-1.30946 v -24.82592 c 0,-0.7749 0.534552,-1.30945 1.309452,-1.30945 z"/><g id="g948" transform="translate(154.64571,156.65104)"><path id="path1052" d="m 75.75608,37.287704 c -11.80525,0 -21.81118,8.003181 -24.91235,18.846589 -2.69524,-5.751508 -8.53592,-9.780922 -15.26337,-9.780922 -9.25183,0 -16.85708,7.605251 -16.85708,16.857074 0,9.251825 7.60525,16.860546 16.85708,16.860546 6.72745,0 12.56813,-4.031883 15.26337,-9.784394 3.10117,10.844224 13.1071,18.850064 24.91235,18.850064 11.71795,0 21.67286,-7.8851 24.85334,-18.607016 2.74505,5.621927 8.51344,9.541346 15.14533,9.541346 9.25183,0 16.86055,-7.608721 16.86055,-16.860546 0,-9.251823 -7.60872,-16.857074 -16.86055,-16.857074 -6.63189,0 -12.40028,3.916959 -15.14533,9.537876 C 97.42894,45.170165 87.47403,37.287704 75.75608,37.287704 Z m 0,9.8955 c 8.91163,0 16.03073,7.115643 16.03073,16.027241 0,8.9116 -7.1191,16.030716 -16.03073,16.030716 -8.91158,0 -16.02722,-7.119116 -16.02722,-16.030716 0,-8.911598 7.11564,-16.027239 16.02722,-16.027241 z m -40.17572,9.06567 c 3.90437,0 6.96504,3.057187 6.96504,6.961571 0,3.904385 -3.06067,6.965045 -6.96504,6.965045 -3.90439,0 -6.96159,-3.06066 -6.96159,-6.965045 0,-3.904384 3.0572,-6.961571 6.96159,-6.961571 z m 80.17439,0 c 3.9044,0 6.96504,3.057187 6.96504,6.961571 0,3.904385 -3.06066,6.965045 -6.96504,6.965045 -3.90437,0 -6.96156,-3.06066 -6.96156,-6.965045 0,-3.904384 3.05721,-6.961571 6.96156,-6.961571 z" style="color:#000;font-style:normal;font-variant:normal;font-weight:400;font-stretch:normal;font-size:medium;line-height:normal;font-family:sans-serif;text-indent:0;text-align:start;text-decoration:none;text-decoration-line:none;text-decoration-style:solid;text-decoration-color:#000;letter-spacing:normal;word-spacing:normal;text-transform:none;writing-mode:lr-tb;direction:ltr;baseline-shift:baseline;text-anchor:start;white-space:normal;clip-rule:nonzero;display:inline;overflow:visible;visibility:visible;opacity:1;isolation:auto;mix-blend-mode:normal;color-interpolation:sRGB;color-interpolation-filters:linearRGB;solid-color:#000;solid-opacity:1;fill:#fff;fill-opacity:1;fill-rule:nonzero;stroke:none;stroke-width:5.56589985;stroke-linecap:butt;stroke-linejoin:miter;stroke-miterlimit:10;stroke-dasharray:none;stroke-dashoffset:0;stroke-opacity:1;color-rendering:auto;image-rendering:auto;shape-rendering:auto;text-rendering:auto;enable-background:accumulate"/><g id="g1385" transform="translate(-375,-18.75)"><path style="font-style:normal;font-variant:normal;font-weight:400;font-stretch:normal;font-size:medium;line-height:1;font-family:MuseoSansW01-Rounded100;-inkscape-font-specification:MuseoSansW01-Rounded100;letter-spacing:-.71249998px;word-spacing:0;opacity:1;fill:#fff;fill-opacity:1;stroke:none;stroke-width:.9375" id="path1229" d="m 479.22729,116.1047 c 0,-0.20487 0.10244,-0.30731 0.30732,-0.30731 h 0.16269 c 0.20487,0 0.30731,0.10244 0.30731,0.30731 v 5.64007 h 7.08892 v -5.64007 c 0,-0.20487 0.10243,-0.30731 0.30731,-0.30731 h 0.1627 c 0.20487,0 0.30731,0.10244 0.30731,0.30731 v 12.03939 c 0,0.20487 -0.10244,0.30731 -0.30731,0.30731 h -0.1627 c -0.20488,0 -0.34069,-0.10517 -0.30731,-0.30731 v -5.67623 h -7.08892 v 5.67623 c 0,0.20487 -0.10244,0.30731 -0.30731,0.30731 h -0.16269 c -0.20488,0 -0.30732,-0.10244 -0.30732,-0.30731 z"/><path id="path1231" d="m 490.3697,119.41223 c -0.20487,0 -0.30761,0.10275 -0.30761,0.30762 v 5.224 c -3.5e-4,2.05723 1.66713,3.72471 3.72436,3.72436 2.05723,3.5e-4 3.72471,-1.66712 3.72437,-3.72436 v -5.224 c 0,-0.20487 -0.10275,-0.30762 -0.30762,-0.30762 h -0.14465 c -0.20487,0 -0.30764,0.10275 -0.30762,0.30762 v 5.15259 c 0,0.0245 -0.004,0.047 -0.004,0.0714 h 0.004 c 7e-5,0.0991 -0.005,0.19806 -0.0146,0.29663 -0.01,0.0983 -0.0245,0.1961 -0.0439,0.29296 -0.0196,0.097 -0.0441,0.19292 -0.0732,0.28748 -0.0295,0.0944 -0.0637,0.18731 -0.10255,0.27832 -0.0383,0.0906 -0.0811,0.17919 -0.12817,0.2655 -0.0476,0.0868 -0.0996,0.1711 -0.15564,0.25269 -0.0559,0.0817 -0.11571,0.16051 -0.17944,0.23621 -0.0635,0.0759 -0.13068,0.14866 -0.20141,0.21789 -0.0706,0.0684 -0.14452,0.1331 -0.22156,0.1941 -0.0776,0.062 -0.15827,0.12004 -0.2417,0.17395 -0.0835,0.0531 -0.16972,0.10199 -0.25818,0.14648 -0.0877,0.0447 -0.1775,0.085 -0.26916,0.12085 -0.0924,0.0358 -0.18649,0.0669 -0.28199,0.0934 -0.0953,0.0268 -0.19182,0.0488 -0.28931,0.0659 -0.097,0.0164 -0.19478,0.028 -0.29297,0.0348 -0.07,0.005 -0.1403,0.007 -0.21057,0.007 -0.0985,1e-5 -0.19683,-0.005 -0.2948,-0.0147 -0.0983,-0.01 -0.19609,-0.0243 -0.29296,-0.044 -0.097,-0.0196 -0.19293,-0.0441 -0.28748,-0.0732 -0.0944,-0.0295 -0.18731,-0.0638 -0.27832,-0.10254 -0.0912,-0.0383 -0.18042,-0.081 -0.26733,-0.12817 -0.0868,-0.0476 -0.1711,-0.0996 -0.25269,-0.15565 -0.0817,-0.0552 -0.16047,-0.11451 -0.23621,-0.1776 -0.0754,-0.0641 -0.14746,-0.13193 -0.21607,-0.20325 -0.069,-0.0706 -0.13433,-0.14449 -0.19591,-0.22156 -0.0614,-0.0776 -0.11882,-0.1583 -0.17212,-0.2417 -0.0537,-0.0829 -0.10317,-0.16847 -0.14832,-0.25635 -0.0448,-0.0882 -0.0851,-0.17869 -0.12085,-0.27099 -0.0358,-0.0923 -0.067,-0.18647 -0.0934,-0.28199 -0.0262,-0.0953 -0.0475,-0.19186 -0.0641,-0.2893 -0.0171,-0.097 -0.0291,-0.19476 -0.0366,-0.29297 -0.005,-0.07 -0.007,-0.14031 -0.007,-0.21057 h 0.004 c -1.4e-4,-0.0245 -0.004,-0.0469 -0.004,-0.0714 v -5.15259 c 0,-0.20487 -0.10274,-0.30762 -0.30761,-0.30762 z" style="font-style:normal;font-variant:normal;font-weight:400;font-stretch:normal;font-size:medium;line-height:1;font-family:MuseoSansW01-Rounded100;-inkscape-font-specification:MuseoSansW01-Rounded100;letter-spacing:-.71249998px;word-spacing:0;opacity:1;fill:#fff;fill-opacity:1;stroke:none;stroke-width:.9375"/><path style="font-style:normal;font-variant:normal;font-weight:400;font-stretch:normal;font-size:medium;line-height:1;font-family:MuseoSansW01-Rounded100;-inkscape-font-specification:MuseoSansW01-Rounded100;letter-spacing:-.71249998px;word-spacing:0;opacity:1;fill:#fff;fill-opacity:1;stroke:none;stroke-width:.9375" id="path1233" d="m 500.43883,123.95019 q 0,0.75924 0.18078,1.48233 0.19884,0.705 0.59654,1.2654 0.3977,0.54231 0.97617,0.88578 0.59654,0.34346 1.39194,0.34346 0.66885,0 1.24732,-0.27115 0.59655,-0.27116 1.0304,-0.77732 0.43385,-0.50616 0.68693,-1.24733 0.25308,-0.74116 0.25308,-1.69925 0,-0.92193 -0.235,-1.64502 -0.235,-0.74116 -0.65078,-1.2654 -0.41577,-0.52424 -0.99424,-0.7954 -0.57847,-0.28923 -1.2654,-0.28923 -0.6327,0 -1.21117,0.235 -0.57847,0.21693 -1.0304,0.70501 -0.43385,0.48808 -0.70501,1.24732 -0.27116,0.75925 -0.27116,1.8258 z m -0.74116,-7.84549 q 0,-0.30731 0.30731,-0.30731 h 0.14462 q 0.30731,0 0.30731,0.30731 v 4.39275 q 0,0.16269 -0.0181,0.30731 0,0.12654 -0.0181,0.21693 -0.0181,0.10846 -0.0362,0.21692 h 0.0362 q 0.25308,-0.56039 0.70501,-1.01232 0.37962,-0.37962 0.99424,-0.70501 0.6327,-0.32539 1.57271,-0.32539 0.90386,0 1.62695,0.34347 0.72308,0.34347 1.22924,0.97617 0.50616,0.61462 0.77732,1.5004 0.27116,0.86771 0.27116,1.91618 0,1.08463 -0.30731,1.95233 -0.28924,0.86771 -0.83155,1.50041 -0.54232,0.61462 -1.28348,0.95809 -0.74116,0.32539 -1.62694,0.32539 -0.86771,0 -1.46425,-0.30732 -0.59655,-0.32538 -0.95809,-0.705 -0.45193,-0.45193 -0.70501,-1.0304 h -0.0362 q 0.0181,0.0904 0.0362,0.21692 0.0181,0.10847 0.0181,0.25308 0.0181,0.14462 0.0181,0.32539 v 0.72309 q 0,0.30731 -0.30731,0.30731 h -0.14462 q -0.30731,0 -0.30731,-0.30731 z"/><path id="path1174" d="m 408.96979,119.44084 c 2.38791,0 3.72351,1.69985 3.72351,4.24965 0,0.24283 -0.20236,0.44519 -0.44521,0.44519 h -6.43518 c 0.0404,2.26649 1.61892,3.56162 3.44019,3.56162 1.13324,0 1.9427,-0.48568 2.34743,-0.80946 0.24284,-0.16189 0.4452,-0.12142 0.56662,0.12142 l 0.12142,0.20236 c 0.12142,0.20237 0.081,0.40474 -0.12142,0.56662 -0.48568,0.36426 -1.53797,0.97136 -2.95451,0.97136 -2.63074,0 -4.65438,-1.90224 -4.65438,-4.65438 0.0404,-2.91405 1.98316,-4.65438 4.41153,-4.65438 z m 2.46885,3.80445 c -0.081,-1.86176 -1.21418,-2.79263 -2.50931,-2.79263 -1.4975,0 -2.79263,0.97134 -3.07594,2.79263 z" style="fill:#fff;fill-opacity:1;stroke-width:.47038522"/><path id="path1176" d="m 424.64577,120.73597 v -1.01182 -2.10459 c 0,-0.28331 0.16188,-0.4452 0.44519,-0.4452 h 0.32379 c 0.28331,0 0.40473,0.16189 0.40473,0.4452 v 2.10459 h 1.82128 c 0.28331,0 0.4452,0.16189 0.4452,0.4452 v 0.12141 c 0,0.28331 -0.16189,0.40473 -0.4452,0.40473 h -1.82128 v 4.45202 c 0,2.06411 1.25466,2.30695 1.9427,2.34742 0.36425,0.0404 0.48567,0.12143 0.48567,0.4452 v 0.24285 c 0,0.28331 -0.12142,0.40472 -0.48567,0.40472 -1.9427,0 -3.11641,-1.17371 -3.11641,-3.2783 z" style="fill:#fff;fill-opacity:1;stroke-width:.47038522"/><path id="path1178" d="m 434.11571,119.44084 c 1.53798,0 2.50932,0.64756 2.95452,1.01182 0.20237,0.16189 0.24284,0.36426 0.0404,0.60709 l -0.12141,0.20237 c -0.1619,0.24283 -0.36426,0.24283 -0.6071,0.081 -0.40472,-0.28331 -1.17371,-0.80946 -2.22601,-0.80946 -1.94269,0 -3.48066,1.45702 -3.48066,3.60208 0,2.1046 1.53797,3.56161 3.48066,3.56161 1.25467,0 2.10459,-0.56662 2.50932,-0.93087 0.24284,-0.16189 0.40474,-0.12142 0.56662,0.12142 l 0.12142,0.16189 c 0.12142,0.24284 0.081,0.40473 -0.12142,0.6071 -0.44519,0.36425 -1.53796,1.13323 -3.15688,1.13323 -2.63074,0 -4.65437,-1.90222 -4.65437,-4.65438 0.0404,-2.75215 2.06411,-4.69484 4.69484,-4.69484 z" style="fill:#fff;fill-opacity:1;stroke-width:.47038522"/><path id="path1180" d="m 439.4986,116.56726 c 0,-0.28331 -0.16189,-0.4452 0.12142,-0.4452 h 0.32379 c 0.28331,0 0.72851,0.16189 0.72851,0.4452 v 9.67302 c 0,1.13324 0.52614,1.25465 0.93088,1.29513 0.20236,0 0.36425,0.12142 0.36425,0.40472 v 0.28331 c 0,0.28331 -0.12142,0.44521 -0.4452,0.44521 -0.72851,0 -2.02365,-0.24284 -2.02365,-2.18554 z" style="fill:#fff;fill-opacity:1;stroke-width:.47038522"/><path id="path1182" d="m 447.79554,119.44084 c 2.59027,0 4.69485,1.98316 4.69485,4.6139 0,2.67121 -2.10458,4.69486 -4.69485,4.69486 -2.59026,0 -4.69485,-2.02365 -4.69485,-4.69486 0,-2.63074 2.10459,-4.6139 4.69485,-4.6139 z m 0,8.25646 c 1.90223,0 3.44019,-1.53797 3.44019,-3.64256 0,-2.02364 -1.53796,-3.52113 -3.44019,-3.52113 -1.90222,0 -3.48066,1.53796 -3.48066,3.52113 0.0404,2.06412 1.57844,3.64256 3.48066,3.64256 z" style="fill:#fff;fill-opacity:1;stroke-width:.47038522"/><path id="path1184" d="m 467.9915,119.44084 c 2.14506,0 2.91405,1.7808 2.91405,1.7808 h 0.0404 c 0,0 -0.0404,-0.28331 -0.0404,-0.68803 v -4.00682 c 0,-0.28331 -0.12142,-0.4452 0.16189,-0.4452 h 0.32378 c 0.28331,0 0.72851,0.16189 0.72851,0.4452 v 11.53476 c 0,0.28331 -0.12142,0.4452 -0.40473,0.4452 h -0.28331 c -0.28331,0 -0.4452,-0.12141 -0.4452,-0.40472 v -0.68804 c 0,-0.32378 0.081,-0.56663 0.081,-0.56663 h -0.0404 c 0,0 -0.76899,1.86176 -3.07594,1.86176 -2.3879,0 -3.88539,-1.90222 -3.88539,-4.65438 -0.081,-2.75215 1.57844,-4.6139 3.92586,-4.6139 z m 0.0404,8.25646 c 1.4975,0 2.87357,-1.0523 2.87357,-3.60208 0,-1.82129 -0.93088,-3.56161 -2.8331,-3.56161 -1.57844,0 -2.87358,1.29513 -2.87358,3.56161 0.0404,2.18553 1.17372,3.60208 2.83311,3.60208 z" style="fill:#fff;fill-opacity:1;stroke-width:.47038522"/><path style="fill:#fff;fill-opacity:1;stroke-width:.47038522" id="path1186" d="m 461.67773,119.6432 h -0.32378 c -0.28331,0 -0.4452,0.16189 -0.4452,0.4452 v 4.89721 c 0,1.37608 -0.89041,2.63075 -2.63074,2.63075 -1.69986,0 -2.63074,-1.25467 -2.63074,-2.63075 v -4.89721 c 0,-0.28331 -0.16188,-0.4452 -0.4452,-0.4452 h -0.32378 c -0.28331,0 -0.40472,0.16189 -0.40472,0.4452 v 5.221 c 0,2.30696 1.69985,3.4402 3.80444,3.4402 v 0 c 0,0 0,0 0,0 0,0 0,0 0,0 v 0 c 2.10459,0 3.80445,-1.13324 3.80445,-3.4402 v -5.221 c 0.0404,-0.28331 -0.12142,-0.4452 -0.40473,-0.4452 z"/><path id="path1188" d="m 421.61292,119.5768 c -0.0991,0.0158 -0.19431,0.082 -0.28536,0.19051 l -1.63789,1.9525 -1.22604,1.46082 -1.85606,-2.21257 -1.00708,-1.20075 c -0.0911,-0.10852 -0.19417,-0.16785 -0.30118,-0.17708 -0.107,-0.009 -0.21795,0.0315 -0.32647,0.12254 l -0.24821,0.20789 c -0.21702,0.18211 -0.20582,0.38374 -0.0238,0.60077 l 1.63868,1.9525 1.35884,1.61891 -1.98965,2.37067 c -0.002,0.002 -0.003,0.003 -0.004,0.005 l -1.00391,1.19601 c -0.18211,0.21702 -0.16171,0.44553 0.0553,0.62764 l 0.2482,0.20711 c 0.21703,0.18211 0.41392,0.13639 0.59603,-0.0806 l 1.63789,-1.9525 1.22604,-1.46082 1.85606,2.21257 c 8.6e-4,0.002 0.003,0.003 0.004,0.004 l 1.00392,1.1968 c 0.18211,0.21703 0.40982,0.23666 0.62686,0.0546 l 0.2482,-0.2079 c 0.21703,-0.18211 0.20583,-0.38374 0.0237,-0.60076 l -1.63867,-1.95251 -1.35885,-1.61891 1.98966,-2.37067 c 0.002,-0.002 0.003,-0.003 0.004,-0.005 l 1.00391,-1.19601 c 0.18211,-0.21702 0.16171,-0.44553 -0.0553,-0.62764 l -0.24821,-0.20789 c -0.10851,-0.0911 -0.21153,-0.12492 -0.31065,-0.1091 z" style="fill:#fff;fill-opacity:1;stroke-width:.47038522"/><path style="fill:#fff;fill-opacity:1;stroke-width:.47038522" id="path1190" d="m 394.12809,115.91914 c -0.2833,0 -0.4049,0.16254 -0.4049,0.44587 v 11.73729 c 0,0.28331 0.1216,0.44428 0.4049,0.44428 h 0.32455 c 0.28331,0 0.44429,-0.16097 0.44429,-0.44428 v -9.74747 l 6.40745,9.94441 c 0.0279,0.0434 0.0578,0.0737 0.0882,0.10555 0.009,0.0106 0.0166,0.022 0.0268,0.0315 0.0273,0.0248 0.0573,0.0383 0.0867,0.0536 0.0164,0.009 0.029,0.0205 0.0472,0.0268 0.0127,0.004 0.0262,0.003 0.0394,0.006 0.0452,0.0116 0.0906,0.0237 0.14495,0.0237 h 0.32298 c 0.28331,0 0.40488,-0.16097 0.40488,-0.44428 v -11.73704 c 0,-0.28333 -0.12157,-0.44587 -0.40488,-0.44587 h -0.32298 c -0.28332,0 -0.44586,0.16254 -0.44586,0.44587 v 9.74746 l -6.40746,-9.94439 c -0.0219,-0.0339 -0.0479,-0.0557 -0.0725,-0.0819 -0.074,-0.10465 -0.192,-0.167 -0.35921,-0.167 z"/></g></g><g style="fill:#fff" id="XMLID_5_" transform="matrix(1.9122564,0,0,1.9122564,326.32855,96.770783)"><path style="opacity:.42000002;fill:#fff;enable-background:new" id="XMLID_3_" d="M 13.8,30.3 1,24.2 c -1.2,-0.5 -1.2,-1.3 0,-1.8 l 4.3,-2.2 8.5,4 c 1.2,0.5 2.8,0.5 4,0 l 8.5,-4 4.5,2.2 c 1.2,0.5 1.2,1.3 0,1.8 L 18,30.3 c -1.3,0.5 -3.1,0.5 -4.2,0 z" class="st0"/><path style="opacity:.72000002;fill:#fff;enable-background:new" id="XMLID_2_" d="M 13.8,23 1,16.9 c -1.2,-0.5 -1.2,-1.3 0,-1.8 l 4.5,-2.2 8.5,4 c 1.2,0.5 2.8,0.5 4,0 l 8.6,-4 4.5,2 c 1.2,0.5 1.2,1.3 0,1.8 l -12.9,6.1 c -1.5,0.7 -3.3,0.7 -4.4,0.2 z" class="st1"/><path style="fill:#fff" id="XMLID_1_" d="M 13.8,15.8 1,9.6 C -0.2,9.1 -0.2,8.3 1,7.8 L 13.8,1.7 c 1.2,-0.5 2.8,-0.5 4,0 l 12.8,6.1 c 1.2,0.5 1.2,1.3 0,1.8 l -12.8,6.1 c -1.1,0.5 -2.9,0.5 -4,0.1 z" class="st2"/></g><path style="fill:#fff;stroke-width:1.87512743" id="path857" d="m 201.06032,359.14424 c -1.84683,0 -3.33361,1.48792 -3.33361,3.33472 v 30.83836 c 0,1.84701 1.48678,3.33023 3.33361,3.33023 h 53.33614 c 1.84698,0 3.33397,-1.48322 3.33397,-3.33023 v -30.83836 c 0,-1.8468 -1.48699,-3.33472 -3.33397,-3.33472 z m 2.8127,3.85564 22.81466,22.81467 h 1.97939 l 22.9178,-22.81467 2.29178,2.29178 -13.6468,13.85514 10.31319,10.52152 -2.29176,2.29179 -10.52155,-10.52153 -7.60474,7.70884 h -4.79209 l -7.60363,-7.70678 -10.52209,10.62448 -2.29198,-2.39643 10.41746,-10.52133 -13.75087,-13.85456 z"/><g style="fill:#fff" id="g870" transform="matrix(2.0197937,0,0,2.0197937,1538.13,205.47535)"><path style="fill:#fff" id="path868" d="m -572.71,3.5765 c -1.108,0 -2,0.892 -2,2 v 4 c 0,1.108 0.892,2 2,2 1.108,0 2,-0.892 2,-2 v -4 c 0,-1.108 -0.892,-2 -2,-2 z m 16,0 c -1.108,0 -2,0.892 -2,2 v 4 c 0,1.108 0.892,2 2,2 1.108,0 2,-0.892 2,-2 v -4 c 0,-1.108 -0.892,-2 -2,-2 z m -13,4 v 2 c 0,1.662 -1.338,3 -3,3 -1.662,0 -3,-1.338 -3,-3 v -1.875 c -1.728,0.44254 -3,2.0052 -3,3.875 v 16 c 0,2.216 1.784,4 4,4 h 20 c 2.216,0 4,-1.784 4,-4 v -16 c 0,-1.8698 -1.272,-3.4325 -3,-3.875 v 1.875 c 0,1.662 -1.338,3 -3,3 -1.662,0 -3,-1.338 -3,-3 v -2 z m -5.9062,9 h 21.812 c 0.0554,0 0.0937,0.03835 0.0937,0.09375 v 11.812 c 0,0.0554 -0.0384,0.09375 -0.0937,0.09375 h -21.812 c -0.0554,0 -0.0937,-0.03835 -0.0937,-0.09375 v -11.812 c 0,-0.0554 0.0384,-0.09375 0.0937,-0.09375 z"/></g><path style="color:#000;text-indent:0;text-transform:none;fill:#fff;stroke-width:1.83094394" id="path882" d="m 342.90475,323.7412 c -4.07659,0 -7.53487,2.98132 -7.53487,6.82869 0.0289,1.21606 0.13768,2.71565 0.86336,5.88685 v 0.0785 l 0.0785,0.0785 c 0.23296,0.66728 0.57198,1.04902 1.02035,1.56985 0.44839,0.52079 0.98295,1.13378 1.49127,1.6483 0.06,0.0605 0.0982,0.098 0.15683,0.15702 0.10098,0.4387 0.22294,0.91084 0.31395,1.33435 0.24219,1.12679 0.21737,1.92469 0.15683,2.19768 -1.75173,0.6151 -3.93104,1.3476 -5.88668,2.19768 -1.09786,0.47732 -2.0913,0.90354 -2.90406,1.41287 -0.8127,0.50932 -1.621,0.8941 -1.88368,2.04075 -0.004,0.0521 -0.004,0.10468 0,0.15702 -0.25668,2.35717 -0.64502,5.82352 -0.94185,8.16308 -0.0641,0.49249 0.19547,1.01164 0.6279,1.25586 3.55057,1.91793 9.00477,2.68986 14.44177,2.66879 5.43698,-0.0213 10.84778,-0.83851 14.28483,-2.66879 0.43243,-0.2442 0.69199,-0.76337 0.6279,-1.25586 -0.0949,-0.73132 -0.21118,-2.3804 -0.31394,-4.00298 -0.10273,-1.62264 -0.19199,-3.21881 -0.31396,-4.1601 -0.0423,-0.23332 -0.15291,-0.45388 -0.31396,-0.62791 -1.09184,-1.30384 -2.72315,-2.10083 -4.63082,-2.90424 -1.74161,-0.73337 -3.78345,-1.49495 -5.80812,-2.35477 -0.11327,-0.25247 -0.22587,-0.98694 0,-2.11933 0.0606,-0.30405 0.15567,-0.62969 0.23549,-0.9419 0.19021,-0.21311 0.33859,-0.38728 0.54941,-0.62793 0.44968,-0.51325 0.93286,-1.05165 1.3343,-1.56983 0.40145,-0.51817 0.72989,-0.96267 0.94185,-1.56982 l 0.0785,-0.0785 c 0.8204,-3.31127 0.82083,-4.6929 0.86338,-5.88685 v -0.0785 c 0,-3.84736 -3.4583,-6.82869 -7.53488,-6.82869 z m 21.55387,-6.26622 c -5.94343,0 -10.98548,4.34647 -10.98548,9.95557 0.0422,1.77292 0.20075,3.95923 1.25878,8.58237 v 0.11445 l 0.11443,0.11444 c 0.33964,0.97285 0.83389,1.52938 1.48762,2.28869 0.65373,0.75929 1.43309,1.65295 2.17425,2.40312 0.0871,0.0883 0.14297,0.14296 0.22884,0.22889 0.14706,0.63959 0.32504,1.32793 0.45775,1.94539 0.35308,1.64271 0.31685,2.8061 0.22889,3.20414 -2.55399,0.89675 -5.73142,1.96461 -8.58237,3.20416 -1.60064,0.69584 -3.04908,1.31723 -4.23406,2.0598 -1.18493,0.74255 -2.3634,1.30355 -2.74642,2.97529 -0.006,0.0762 -0.006,0.15273 0,0.22891 -0.37428,3.43649 -0.94044,8.49008 -1.3732,11.90094 -0.0934,0.71801 0.28502,1.4749 0.91545,1.83093 5.17665,2.79622 13.12863,3.92172 21.05588,3.89076 7.92688,-0.0307 15.81551,-1.22244 20.82698,-3.89076 0.63045,-0.35603 1.00888,-1.11292 0.91545,-1.83093 -0.13827,-1.06618 -0.30788,-3.47035 -0.45774,-5.83613 -0.1498,-2.36558 -0.27991,-4.6927 -0.45769,-6.065 -0.0621,-0.34016 -0.22288,-0.66172 -0.45774,-0.91545 -1.59186,-1.90088 -3.97021,-3.06281 -6.7516,-4.23406 -2.53916,-1.06918 -5.51611,-2.17956 -8.46793,-3.43302 -0.16524,-0.36804 -0.32936,-1.43886 0,-3.08972 0.0885,-0.44327 0.22691,-0.91804 0.34329,-1.37319 0.27744,-0.31071 0.49364,-0.56462 0.80103,-0.91548 0.65562,-0.74825 1.36006,-1.5332 1.9454,-2.28866 0.58529,-0.75543 1.06414,-1.40349 1.37317,-2.2887 l 0.11445,-0.11444 c 1.19613,-4.82744 1.19676,-6.84168 1.25878,-8.58235 v -0.11445 c 0,-5.60909 -5.04206,-9.95559 -10.98547,-9.95559 z"/><g style="fill:#fff" id="g910" transform="matrix(1.7190953,0,0,1.7190953,200.22304,57.105976)"><path style="fill:#fff" id="path893" d="M 2.8,4 A 1.3,1.3 0 0 0 1.5,5.3 v 22.4 c 0,0.6 0.7,1.3 1.3,1.3 h 26.4 c 0.6,0 1.3,-0.7 1.3,-1.3 V 5.3 C 30.5,4.7 29.8,4 29.2,4 Z m 0.7,2 h 25 v 19 h -25 z"/><circle style="fill:#fff" id="circle895" cx="8.5" cy="11.2" r="3"/><path style="fill:#fff" id="path897" d="M 26.4,14.5 21.7,20.7 20,23 18.4,21.2 13.9,16.6 7.9,22.3 3.2,26.6 H 29.4 V 17.9 Z"/></g><path style="fill:#fff;stroke-width:.4653461" id="path912" d="m 107.73562,104.09807 a 23.264979,23.265311 0 0 0 -23.264658,23.26596 23.264979,23.265311 0 0 0 23.264658,23.26532 23.264979,23.265311 0 0 0 12.06843,-3.40368 c 2.85934,1.13626 9.26402,4.50721 10.78837,3.05115 1.59289,-1.52119 -1.87003,-8.68072 -2.70025,-11.34115 a 23.264979,23.265311 0 0 0 3.10785,-11.57182 23.264979,23.265311 0 0 0 -23.26433,-23.265 z m 0.002,8.84523 a 14.42573,14.426062 0 0 1 14.42573,14.42604 14.42573,14.426062 0 0 1 -14.42573,14.4251 14.42573,14.426062 0 0 1 -14.425738,-14.4251 14.42573,14.426062 0 0 1 14.425738,-14.42604 z"/><path style="fill:#fff;stroke-width:3.71093631" id="path923" d="m 36.675964,218.71064 c -0.92772,0 -1.85547,0.92775 -1.85547,1.85546 v 40.8203 c 0,0.96485 0.89062,1.85547 1.85547,1.85547 h 48.242169 c 0.964844,0 1.855465,-0.89435 1.855465,-1.85547 v -33.39843 c 0,-0.92771 -0.927714,-1.85546 -1.855465,-1.85546 H 60.797044 l -7.42187,-7.42187 z m 32.470704,12.98827 a 4.63867,4.63867 0 0 1 4.638657,4.63869 4.63867,4.63867 0 0 1 -4.638657,4.63865 4.63867,4.63867 0 0 1 -2.971714,-1.07987 l -9.09625,4.55144 a 4.63867,4.63867 0 0 1 0.008,0.23948 4.63867,4.63867 0 0 1 -0.0158,0.23948 l 9.103287,4.55146 a 4.63867,4.63867 0 0 1 2.971718,-1.07988 4.63867,4.63867 0 0 1 4.638647,4.63869 4.63867,4.63867 0 0 1 -4.638647,4.63865 4.63867,4.63867 0 0 1 -4.638692,-4.63865 4.63867,4.63867 0 0 1 0.01582,-0.2375 l -9.103283,-4.55335 a 4.63867,4.63867 0 0 1 -2.97172,1.07992 4.63867,4.63867 0 0 1 -4.6387,-4.6387 4.63867,4.63867 0 0 1 4.6387,-4.63865 4.63867,4.63867 0 0 1 2.97172,1.07987 l 9.096233,-4.55144 a 4.63867,4.63867 0 0 1 -0.0079,-0.23948 4.63867,4.63867 0 0 1 4.638687,-4.63869 z"/></g></svg>