<svg xmlns="http://www.w3.org/2000/svg" xmlns:svg="http://www.w3.org/2000/svg" xmlns:xlink="http://www.w3.org/1999/xlink" id="Layer_1" width="121.485" height="103.946" x="0" y="0" enable-background="new 0 0 196.6 72" version="1.1" viewBox="0 0 113.892 97.45" xml:space="preserve"><metadata id="metadata20"/><defs id="defs18"><linearGradient id="linearGradient5230"><stop style="stop-color:#6d6d6d;stop-opacity:1" id="stop5226" offset="0"/><stop style="stop-color:#6d6d6d;stop-opacity:0" id="stop5228" offset="1"/></linearGradient><radialGradient id="radialGradient5232" cx="713.498" cy="525" r="42.462" fx="713.498" fy="525" gradientTransform="matrix(1,0,0,0.18841374,0,426.08272)" gradientUnits="userSpaceOnUse" xlink:href="#linearGradient5230"/></defs><text style="font-style:normal;font-weight:400;font-size:12.03333759px;line-height:1;font-family:sans-serif;letter-spacing:0;word-spacing:0;fill:#0082c9;fill-opacity:1;stroke:none;stroke-width:.90250027" id="text9394" x="9.768" y="93.113" xml:space="preserve"><tspan id="tspan9392" x="9.768" y="93.113" style="font-style:normal;font-variant:normal;font-weight:700;font-stretch:normal;font-size:18.05000496px;font-family:'Open Sans';-inkscape-font-specification:'Open Sans Bold';fill:#0082c9;fill-opacity:1;stroke-width:.90250027">Enterprise</tspan></text><path id="path1052" d="m 57.032903,-4.5591153e-4 c -11.80528,0 -21.81122,8.00319601153 -24.9124,18.84662191153 C 29.425263,13.094648 23.584573,9.0652268 16.857111,9.0652268 7.60526,9.0652268 0,16.670491 0,25.922336 c 0,9.251833 7.60526,16.860567 16.857111,16.860567 6.727462,0 12.568152,-4.031884 15.263392,-9.784412 3.10118,10.84425 13.10712,18.850107 24.9124,18.850107 11.71796,0 21.67289,-7.885111 24.85338,-18.607049 2.74503,5.621934 8.51344,9.541354 15.14534,9.541354 9.251857,0 16.860577,-7.608734 16.860577,-16.860567 0,-9.251845 -7.60872,-16.8571092 -16.860577,-16.8571092 -6.6319,0 -12.40031,3.9169652 -15.14534,9.5378922 C 78.705793,7.8820191 68.750863,-4.5591153e-4 57.032903,-4.5591153e-4 Z m 0,9.89551771153 c 8.91164,0 16.03074,7.1156542 16.03074,16.0272742 0,8.911605 -7.1191,16.030737 -16.03074,16.030737 -8.9116,0 -16.02725,-7.119132 -16.02725,-16.030737 0,-8.91162 7.11565,-16.0272722 16.02725,-16.0272742 z M 16.857111,18.960747 c 3.90438,0 6.965052,3.057187 6.965052,6.961589 0,3.904386 -3.060672,6.965049 -6.965052,6.965049 -3.904391,0 -6.961611,-3.060663 -6.961611,-6.965049 0,-3.904402 3.05722,-6.961589 6.961611,-6.961589 z m 80.174512,0 c 3.904427,0 6.965067,3.057187 6.965067,6.961589 0,3.904386 -3.06066,6.965049 -6.965067,6.965049 -3.90436,0 -6.96157,-3.060663 -6.96157,-6.965049 0,-3.904402 3.05722,-6.961589 6.96157,-6.961589 z" style="color:#000;font-style:normal;font-variant:normal;font-weight:400;font-stretch:normal;font-size:medium;line-height:normal;font-family:sans-serif;text-indent:0;text-align:start;text-decoration:none;text-decoration-line:none;text-decoration-style:solid;text-decoration-color:#000;letter-spacing:normal;word-spacing:normal;text-transform:none;writing-mode:lr-tb;direction:ltr;baseline-shift:baseline;text-anchor:start;white-space:normal;clip-rule:nonzero;display:inline;overflow:visible;visibility:visible;opacity:1;isolation:auto;mix-blend-mode:normal;color-interpolation:sRGB;color-interpolation-filters:linearRGB;solid-color:#000;solid-opacity:1;fill:#0082c9;fill-opacity:1;fill-rule:nonzero;stroke:none;stroke-width:5.5659008;stroke-linecap:butt;stroke-linejoin:miter;stroke-miterlimit:10;stroke-dasharray:none;stroke-dashoffset:0;stroke-opacity:1;color-rendering:auto;image-rendering:auto;shape-rendering:auto;text-rendering:auto;enable-background:accumulate"/><path style="fill:#0082c9;fill-opacity:1;stroke-width:.47038525" id="path1174" d="m 11.860693,59.668302 c -0.329259,0 -0.47147,0.187936 -0.47147,0.517242 v 13.642682 c 0,0.329271 0.142211,0.51495 0.47147,0.51495 h 0.377631 c 0.329269,0 0.514939,-0.185679 0.514939,-0.51495 V 62.49938 l 7.447301,11.557727 c 0.0324,0.0505 0.0677,0.0842 0.10299,0.12123 0.0106,0.0125 0.0179,0.0256 0.0298,0.0366 0.0317,0.0289 0.0665,0.044 0.10065,0.0618 0.019,0.01 0.0338,0.0247 0.055,0.032 0.0148,0.005 0.0304,0.002 0.0458,0.006 0.0525,0.0135 0.106179,0.0275 0.169359,0.0275 h 0.375341 c 0.32926,0 0.471459,-0.18567 0.471459,-0.51495 V 60.185315 c 0,-0.329306 -0.142199,-0.517242 -0.471459,-0.517242 h -0.375341 c -0.329289,0 -0.517239,0.187936 -0.517239,0.517242 v 11.329341 l -7.4473,-11.557715 c -0.0254,-0.03939 -0.0561,-0.06339 -0.0847,-0.0939 -0.086,-0.121612 -0.222199,-0.194546 -0.416539,-0.194546 z m 89.420157,0.187676 c -0.32926,0 -0.18767,0.187956 -0.18767,0.517242 v 4.657416 c 0,0.47037 0.0456,0.79872 0.0456,0.79872 h -0.0456 c 0,0 -0.89418,-2.06893 -3.387207,-2.06893 -2.72821,0 -4.65772,2.163721 -4.56358,5.362311 0,3.198619 1.74025,5.41041 4.51551,5.41041 2.681187,0 3.574907,-2.165081 3.574907,-2.165081 h 0.048 c 0,0 -0.0939,0.282831 -0.0939,0.65913 v 0.798741 c 0,0.329259 0.18796,0.47148 0.51725,0.47148 h 0.32956 c 0.32927,0 0.46916,-0.18798 0.46916,-0.51724 V 60.37322 c 0,-0.329286 -0.51753,-0.517242 -0.8468,-0.517242 z m -36.549857,0.0481 c -0.32928,0 -0.13961,0.187977 -0.13961,0.517242 v 11.523397 c 0,2.25783 1.50377,2.54039 2.35046,2.54039 0.37631,0 0.51722,-0.187959 0.51722,-0.517209 v -0.32958 c 0,-0.329261 -0.18821,-0.469181 -0.42339,-0.469181 -0.47041,-0.047 -1.08025,-0.188869 -1.08025,-1.50594 V 60.421316 c 0,-0.329266 -0.51753,-0.517241 -0.84681,-0.517241 z m -16.88572,1.222159 c -0.32927,0 -0.51724,0.187975 -0.51724,0.51724 v 2.44659 1.17638 5.31423 c 0,2.44599 1.3651,3.810641 3.62294,3.810641 0.42334,0 0.56301,-0.139931 0.56301,-0.469181 v -0.2838 c 0,-0.37629 -0.13967,-0.470239 -0.56301,-0.51724 -0.79965,-0.047 -2.2589,-0.32912 -2.2589,-2.728089 v -5.17464 h 2.11701 c 0.32927,0 0.51724,-0.139901 0.51724,-0.469181 v -0.1419 c 0,-0.32926 -0.18797,-0.51722 -0.51724,-0.51722 h -2.11701 v -2.44659 c 0,-0.329265 -0.13991,-0.51724 -0.46918,-0.51724 z m -18.73497,2.63427 c -2.82229,0 -5.08192,2.02359 -5.12888,5.41037 0,3.198591 2.35289,5.408091 5.41039,5.408091 1.64633,0 2.86852,-0.704951 3.43299,-1.128311 0.23526,-0.18814 0.28301,-0.423919 0.14189,-0.659119 l -0.14189,-0.233461 c -0.14112,-0.282231 -0.37461,-0.330051 -0.65685,-0.14188 -0.47038,0.37629 -1.41329,0.940639 -2.73037,0.940639 -2.11671,0 -3.95132,-1.506039 -3.99828,-4.140189 h 7.47933 c 0.28225,0 0.51724,-0.235011 0.51724,-0.517251 0,-2.9634 -1.55029,-4.93889 -4.32557,-4.938889 z m 29.22389,0 c -3.05749,0 -5.40921,2.25755 -5.45617,5.456141 0,3.1986 2.3529,5.410389 5.41039,5.410389 1.88154,0 3.15131,-0.89493 3.66872,-1.31828 0.23526,-0.2352 0.28073,-0.42265 0.13962,-0.704899 l -0.13962,-0.187661 c -0.18814,-0.28225 -0.3769,-0.330049 -0.65913,-0.14191 -0.47038,0.42334 -1.45755,1.08255 -2.91575,1.08255 -2.25783,0 -4.04635,-1.69419 -4.04635,-4.140189 0,-2.493021 1.78852,-4.18596 4.04635,-4.18596 1.22301,0 2.11581,0.61137 2.58618,0.94065 0.28224,0.18807 0.51675,0.188379 0.70491,-0.0938 l 0.1419,-0.235719 c 0.23527,-0.28224 0.18713,-0.516771 -0.0481,-0.704901 -0.51742,-0.42337 -1.64551,-1.17638 -3.43298,-1.17638 z m 15.8993,0 c -3.01045,0 -5.45616,2.304821 -5.45616,5.36231 0,3.104511 2.44571,5.456151 5.45616,5.456151 3.01048,0 5.45617,-2.35164 5.45617,-5.456151 0,-3.057489 -2.44569,-5.36231 -5.45617,-5.36231 z m -30.42999,0.15793 c -0.11518,0.0184 -0.22604,0.0959 -0.33186,0.22197 l -1.90417,2.26805 -1.42354,1.69818 -2.15821,-2.570149 -1.1695,-1.396081 c -0.10588,-0.12611 -0.2258,-0.19525 -0.35016,-0.20597 -0.12436,-0.01 -0.2538,0.0361 -0.37992,0.14189 l -0.28838,0.24258 c -0.25222,0.21167 -0.23901,0.44583 -0.0275,0.698071 l 1.90417,2.26803 1.57917,1.883569 -2.31154,2.753261 c -0.002,0.002 -0.004,0.005 -0.005,0.006 l -1.16721,1.389229 c -0.21166,0.25223 -0.18814,0.51842 0.0641,0.730091 l 0.28836,0.2403 c 0.25224,0.211639 0.48182,0.158409 0.69347,-0.0939 l 1.90187,-2.26806 1.42584,-1.69818 2.1582,2.57244 c 10e-4,0.002 0.004,0.004 0.005,0.005 l 1.16493,1.391501 c 0.21165,0.252229 0.47783,0.273369 0.73008,0.0617 l 0.28837,-0.2403 c 0.25224,-0.21165 0.23914,-0.445811 0.0275,-0.698051 l -1.90416,-2.27034 -1.57918,-1.881289 2.31155,-2.755541 c 0.002,-0.002 0.004,-0.004 0.005,-0.006 l 1.16721,-1.38921 c 0.21166,-0.25224 0.18814,-0.51844 -0.0641,-0.73009 l -0.28837,-0.2403 c -0.12611,-0.10587 -0.24641,-0.14655 -0.3616,-0.12815 z m 38.6623,0.0779 c -0.32928,0 -0.47148,0.18796 -0.47148,0.51723 v 6.06722 c 0,2.681201 1.9757,3.998291 4.42169,3.998291 2.446,0 4.42171,-1.31709 4.42171,-3.998291 v -6.06723 c 0.047,-0.32926 -0.13992,-0.51723 -0.46919,-0.51723 h -0.37762 c -0.32928,0 -0.51725,0.18797 -0.51725,0.51723 v 5.691891 c 0,1.599309 -1.035,3.05766 -3.05765,3.05766 -1.9756,0 -3.05763,-1.458351 -3.05763,-3.05766 v -5.691891 c 0,-0.32926 -0.18797,-0.51723 -0.51726,-0.51723 z m -53.40356,0.94063 c 1.50523,0 2.82161,1.08155 2.91575,3.245311 h -6.49063 c 0.32927,-2.11674 1.83447,-3.245311 3.57488,-3.245311 z m 45.17125,0.0939 c 2.21081,0 3.9983,1.74023 3.9983,4.09214 0,2.445979 -1.78749,4.234009 -3.9983,4.234009 -2.21078,0 -3.99939,-1.835049 -4.04633,-4.234009 0,-2.304881 1.83555,-4.09214 4.04633,-4.09214 z m 23.5663,0 c 2.210827,0 3.293387,2.02346 3.293387,4.1402 0,2.9634 -1.601007,4.185949 -3.341437,4.185949 -1.92855,0 -3.24413,-1.645899 -3.29108,-4.185949 0,-2.63415 1.50465,-4.1402 3.33913,-4.1402 z"/></svg>