<svg xmlns="http://www.w3.org/2000/svg" xmlns:svg="http://www.w3.org/2000/svg" xmlns:xlink="http://www.w3.org/1999/xlink" id="Layer_1" width="121.485" height="103.946" x="0" y="0" enable-background="new 0 0 196.6 72" version="1.1" viewBox="0 0 113.892 97.45" xml:space="preserve"><metadata id="metadata20"/><defs id="defs18"><linearGradient id="linearGradient5230"><stop style="stop-color:#6d6d6d;stop-opacity:1" id="stop5226" offset="0"/><stop style="stop-color:#6d6d6d;stop-opacity:0" id="stop5228" offset="1"/></linearGradient><radialGradient id="radialGradient5232" cx="713.498" cy="525" r="42.462" fx="713.498" fy="525" gradientTransform="matrix(1,0,0,0.18841374,0,426.08272)" gradientUnits="userSpaceOnUse" xlink:href="#linearGradient5230"/></defs><text style="font-style:normal;font-weight:400;font-size:12.03333759px;line-height:1;font-family:sans-serif;letter-spacing:0;word-spacing:0;fill:#fbffff;fill-opacity:1;stroke:none;stroke-width:.90250027" id="text9394" x="9.768" y="93.113" xml:space="preserve"><tspan id="tspan9392" x="9.768" y="93.113" style="font-style:normal;font-variant:normal;font-weight:700;font-stretch:normal;font-size:18.05000496px;font-family:'Open Sans';-inkscape-font-specification:'Open Sans Bold';fill:#fbffff;fill-opacity:1;stroke-width:.90250027">Enterprise</tspan></text><path id="path1052" d="M 56.985962,-4.6224925e-4 C 45.1904,-4.6224925e-4 35.192696,8.0027368 32.094069,18.846157 29.401048,13.094647 23.565165,9.0652168 16.843233,9.0652168 7.5989987,9.0652168 0,16.670487 0,25.922327 c 0,9.25184 7.5989987,16.86057 16.843233,16.86057 6.721932,0 12.557815,-4.03188 15.250836,-9.78441 3.098627,10.84425 13.096331,18.85011 24.891893,18.85011 11.708315,0 21.65505,-7.88511 24.832922,-18.60705 2.742771,5.62193 8.506432,9.54135 15.132873,9.54135 9.244233,0 16.846703,-7.60873 16.846703,-16.86057 0,-9.25184 -7.60247,-16.8571102 -16.846703,-16.8571102 -6.626441,0 -12.390102,3.9169702 -15.132873,9.5379002 C 78.641012,7.8820168 68.694277,-4.6224925e-4 56.985962,-4.6224925e-4 Z m 0,9.89551904925 c 8.904305,0 16.017545,7.1156502 16.017545,16.0272702 0,8.91161 -7.11324,16.03074 -16.017545,16.03074 -8.904264,0 -16.014057,-7.11913 -16.014057,-16.03074 0,-8.91162 7.109793,-16.0272702 16.014057,-16.0272702 z M 16.843233,18.960747 c 3.901166,0 6.959327,3.05718 6.959327,6.96158 0,3.90439 -3.058161,6.96505 -6.959327,6.96505 -3.901176,0 -6.9558795,-3.06066 -6.9558795,-6.96505 0,-3.9044 3.0547035,-6.96158 6.9558795,-6.96158 z m 80.108524,0 c 3.901203,0 6.959343,3.05718 6.959343,6.96158 0,3.90439 -3.05816,6.96505 -6.959343,6.96505 -3.901146,0 -6.955839,-3.06066 -6.955839,-6.96505 0,-3.9044 3.054703,-6.96158 6.955839,-6.96158 z" style="color:#000;font-style:normal;font-variant:normal;font-weight:400;font-stretch:normal;font-size:medium;line-height:normal;font-family:sans-serif;text-indent:0;text-align:start;text-decoration:none;text-decoration-line:none;text-decoration-style:solid;text-decoration-color:#000;letter-spacing:normal;word-spacing:normal;text-transform:none;writing-mode:lr-tb;direction:ltr;baseline-shift:baseline;text-anchor:start;white-space:normal;clip-rule:nonzero;display:inline;overflow:visible;visibility:visible;opacity:1;isolation:auto;mix-blend-mode:normal;color-interpolation:sRGB;color-interpolation-filters:linearRGB;solid-color:#000;solid-opacity:1;fill:#fff;fill-opacity:1;fill-rule:nonzero;stroke:none;stroke-width:5.56590128;stroke-linecap:butt;stroke-linejoin:miter;stroke-miterlimit:10;stroke-dasharray:none;stroke-dashoffset:0;stroke-opacity:1;color-rendering:auto;image-rendering:auto;shape-rendering:auto;text-rendering:auto;enable-background:accumulate"/><path style="fill:#fff;fill-opacity:1;stroke-width:.47038525" id="path1174" d="m 11.850926,59.668297 c -0.328979,0 -0.471082,0.18794 -0.471082,0.51724 v 13.64269 c 0,0.32927 0.142103,0.51495 0.471082,0.51495 h 0.377329 c 0.328989,0 0.514506,-0.18568 0.514506,-0.51495 v -11.32885 l 7.44118,11.55773 c 0.03237,0.0505 0.06764,0.0842 0.102905,0.12123 0.01059,0.0125 0.01788,0.0256 0.02978,0.0366 0.03167,0.0289 0.06645,0.044 0.100567,0.0618 0.01898,0.01 0.03377,0.0247 0.05495,0.032 0.01479,0.005 0.03037,0.002 0.04576,0.006 0.05246,0.0135 0.106082,0.0275 0.16921,0.0275 h 0.375041 c 0.328989,0 0.471072,-0.18567 0.471072,-0.51495 v -13.64198 c 0,-0.3293 -0.142083,-0.51724 -0.471072,-0.51724 h -0.375041 c -0.329009,0 -0.516804,0.18794 -0.516804,0.51724 v 11.32935 l -7.441167,-11.55772 c -0.02538,-0.0394 -0.05605,-0.0634 -0.08463,-0.0939 -0.08593,-0.12161 -0.222017,-0.19455 -0.416197,-0.19455 z m 89.346554,0.18768 c -0.32899,0 -0.18751,0.18795 -0.18751,0.51724 v 4.65742 c 0,0.47037 0.0456,0.79872 0.0456,0.79872 h -0.0456 c 0,0 -0.89344,-2.06893 -3.384418,-2.06893 -2.725964,0 -4.653886,2.16372 -4.559823,5.36231 0,3.19862 1.738817,5.41041 4.511793,5.41041 2.678988,0 3.571968,-2.16508 3.571968,-2.16508 h 0.048 c 0,0 -0.0938,0.28283 -0.0938,0.65913 v 0.79874 c 0,0.32926 0.1878,0.47148 0.51681,0.47148 h 0.32929 c 0.329,0 0.46877,-0.18798 0.46877,-0.51724 v -13.40696 c 0,-0.32929 -0.51709,-0.51724 -0.84609,-0.51724 z m -36.519764,0.0481 c -0.329009,0 -0.139495,0.18797 -0.139495,0.51724 v 11.52339 c 0,2.25783 1.502532,2.54039 2.348525,2.54039 0.376,0 0.516794,-0.18795 0.516794,-0.5172 v -0.32958 c 0,-0.32927 -0.188055,-0.46919 -0.423041,-0.46919 -0.470023,-0.047 -1.079361,-0.18886 -1.079361,-1.50594 v -11.24187 c 0,-0.32927 -0.517104,-0.51725 -0.846113,-0.51725 z m -16.871821,1.22216 c -0.328999,0 -0.516814,0.18797 -0.516814,0.51724 v 2.44659 1.17638 5.31423 c 0,2.44599 1.363976,3.81064 3.619958,3.81064 0.422991,0 0.562546,-0.13993 0.562546,-0.46918 v -0.2838 c 0,-0.37629 -0.139555,-0.47024 -0.562546,-0.51724 -0.798992,-0.047 -2.257041,-0.32912 -2.257041,-2.72809 v -5.17464 h 2.115267 c 0.328999,0 0.516815,-0.1399 0.516815,-0.46918 v -0.1419 c 0,-0.32926 -0.187816,-0.51722 -0.516815,-0.51722 h -2.115267 v -2.4466 c 0,-0.32926 -0.139795,-0.51724 -0.468794,-0.51724 z m -18.719548,2.63427 c -2.819967,0 -5.077737,2.02359 -5.124658,5.41037 0,3.19859 2.350953,5.40809 5.405936,5.40809 1.644975,0 2.866159,-0.70495 3.430164,-1.12831 0.235067,-0.18814 0.282777,-0.42392 0.141773,-0.65912 l -0.141773,-0.23346 c -0.141004,-0.28223 -0.374301,-0.33005 -0.656309,-0.14188 -0.469993,0.37629 -1.412127,0.94064 -2.728123,0.94064 -2.114967,0 -3.948067,-1.50604 -3.994988,-4.14019 h 7.473173 c 0.282018,0 0.516814,-0.23501 0.516814,-0.51725 0,-2.9634 -1.549014,-4.93889 -4.322009,-4.93889 z m 29.199834,0 c -3.054973,0 -5.404757,2.25755 -5.451679,5.45614 0,3.1986 2.350964,5.41039 5.405937,5.41039 1.879991,0 3.148716,-0.89493 3.6657,-1.31828 0.235066,-0.2352 0.280499,-0.42265 0.139505,-0.7049 l -0.139505,-0.18766 c -0.187985,-0.28225 -0.37659,-0.33005 -0.658587,-0.14191 -0.469993,0.42334 -1.456351,1.08255 -2.91335,1.08255 -2.255972,0 -4.04302,-1.69419 -4.04302,-4.14019 0,-2.49302 1.787048,-4.18596 4.04302,-4.18596 1.222003,0 2.114068,0.61137 2.584051,0.94065 0.282008,0.18807 0.516324,0.18838 0.70433,-0.0938 l 0.141783,-0.23572 c 0.235076,-0.28224 0.186976,-0.51677 -0.04806,-0.7049 -0.516994,-0.42337 -1.644155,-1.17638 -3.430154,-1.17638 z m 15.886213,0 c -3.007972,0 -5.451669,2.30482 -5.451669,5.36231 0,3.10451 2.443697,5.45615 5.451669,5.45615 3.008002,0 5.451678,-2.35164 5.451678,-5.45615 0,-3.05749 -2.443676,-5.36231 -5.451678,-5.36231 z m -30.404942,0.15793 c -0.115085,0.0184 -0.225854,0.0959 -0.331587,0.22197 l -1.902602,2.26805 -1.422368,1.69818 -2.156434,-2.57015 -1.168537,-1.39608 c -0.105793,-0.12611 -0.225614,-0.19525 -0.349872,-0.20597 -0.124258,-0.01 -0.253591,0.0361 -0.379607,0.14189 l -0.288143,0.24258 c -0.252012,0.21167 -0.238813,0.44583 -0.02748,0.69807 l 1.902602,2.26803 1.57787,1.88357 -2.309637,2.75326 c -0.002,0.002 -0.004,0.005 -0.005,0.006 l -1.166249,1.38923 c -0.211486,0.25223 -0.187985,0.51842 0.06405,0.73009 l 0.288123,0.2403 c 0.252032,0.21164 0.481423,0.15841 0.692899,-0.0939 l 1.900305,-2.26806 1.424666,-1.69818 2.156423,2.57244 c 10e-4,0.002 0.004,0.004 0.005,0.005 l 1.163971,1.3915 c 0.211476,0.25223 0.477437,0.27337 0.729479,0.0617 l 0.288133,-0.2403 c 0.252032,-0.21165 0.238943,-0.44581 0.02748,-0.69805 l -1.902592,-2.27034 -1.57788,-1.88129 2.309647,-2.75554 c 0.002,-0.002 0.004,-0.004 0.005,-0.006 l 1.166249,-1.38921 c 0.211486,-0.25224 0.187985,-0.51844 -0.06405,-0.73009 l -0.288133,-0.2403 c -0.126006,-0.10587 -0.246207,-0.14655 -0.361302,-0.12815 z m 38.630475,0.0779 c -0.329009,0 -0.471092,0.18796 -0.471092,0.51723 v 6.06722 c 0,2.6812 1.974074,3.99829 4.418051,3.99829 2.443986,0 4.41807,-1.31709 4.41807,-3.99829 v -6.06723 c 0.04696,-0.32926 -0.139805,-0.51723 -0.468804,-0.51723 h -0.377309 c -0.329009,0 -0.516824,0.18797 -0.516824,0.51723 v 5.69189 c 0,1.59931 -1.034148,3.05766 -3.055133,3.05766 -1.973974,0 -3.055113,-1.45835 -3.055113,-3.05766 v -5.69189 c 0,-0.32926 -0.187816,-0.51723 -0.516835,-0.51723 z m -53.359601,0.94063 c 1.503991,0 2.819288,1.08155 2.91335,3.24531 h -6.485287 c 0.328999,-2.11674 1.83296,-3.24531 3.571937,-3.24531 z m 45.134068,0.0939 c 2.20899,0 3.995008,1.74023 3.995008,4.09214 0,2.44598 -1.786018,4.23401 -3.995008,4.23401 -2.208961,0 -3.996098,-1.83505 -4.043,-4.23401 0,-2.30488 1.834039,-4.09214 4.043,-4.09214 z m 23.546901,0 c 2.209011,0 3.290675,2.02346 3.290675,4.1402 0,2.9634 -1.599688,4.18595 -3.338685,4.18595 -1.926963,0 -3.24147,-1.6459 -3.288381,-4.18595 0,-2.63415 1.503411,-4.1402 3.336391,-4.1402 z"/></svg>