<svg xmlns="http://www.w3.org/2000/svg" width="32" height="32"><path d="M8 2a2 2 0 00-2 2v2.94a2 2 0 104 0V4a2 2 0 00-2-2zm16 0a2 2 0 00-2 2v2.94a2 2 0 104 0V4a2 2 0 00-2-2zM11 6v.95a3 3 0 11-6 0v-.83A4 4 0 002 10v16a4 4 0 004 4h20a4 4 0 004-4V10a4 4 0 00-3-3.88v.83a3 3 0 11-6 0V6H11zm-5.9 7.05h21.8c.06 0 .1.04.1.1V26.9c0 .05-.04.1-.1.1H5.1a.09.09 0 01-.1-.1V13.15c0-.06.04-.1.1-.1zM8 15v2h4v-2H8zm6 0v2h4v-2h-4zm6 0v2h4v-2h-4zM8 19v2h4v-2H8zm6 0v2h4v-2h-4zm6 0v2h4v-2h-4zM8 23v2h4v-2H8zm6 0v2h4v-2h-4z"/></svg>