<!DOCTYPE svg  PUBLIC '-//W3C//DTD SVG 1.1//EN'  'http://www.w3.org/Graphics/SVG/1.1/DTD/svg11.dtd'>
<svg width="512px" height="512px" enable-background="new 0 0 512 512" version="1.1" viewBox="0 0 512 512" xml:space="preserve" xmlns="http://www.w3.org/2000/svg"><g stroke="#000" stroke-miterlimit="10">
<path d="m374.92 200.79c0 9.03-7.322 16.35-16.352 16.35h-195.42c-9.03 0-16.35-7.32-16.35-16.35v-126.13c0-9.03 7.32-16.35 16.35-16.35h195.42c9.029 0 16.352 7.32 16.352 16.35v126.13z"/>
<path d="m242.68 402.09c0 7.675-6.223 13.897-13.897 13.897h-166.09c-7.674 0-13.896-6.223-13.896-13.897v-107.2c0-7.676 6.222-13.897 13.896-13.897h166.09c7.674 0 13.897 6.222 13.897 13.897v107.2z"/>
<path d="m462.68 402.09c0 7.675-6.223 13.897-13.896 13.897h-166.09c-7.674 0-13.896-6.223-13.896-13.897v-107.2c0-7.676 6.223-13.897 13.896-13.897h166.09c7.674 0 13.896 6.222 13.896 13.897v107.2z"/>
<line x1="260.86" x2="142.71" y1="137.73" y2="348.49" stroke-width="30"/>
</g><line x1="260.86" x2="365.74" y1="137.73" y2="348.49" fill="none" stroke="#000" stroke-miterlimit="10" stroke-width="30"/>
</svg>
