<svg enable-background="new 0 0 490 490" version="1.1" viewBox="0 0 490 490" xml:space="preserve" xmlns="http://www.w3.org/2000/svg">
		<path d="m436.94 351.6-119.48-105.63c-8.201 14.577-18.348 28.375-30.709 40.767-12.392 12.392-26.16 22.508-40.735 30.709l105.56 119.48c11.044 12.48 26.789 19.873 43.43 20.381 16.702 0.509 32.834-5.866 44.627-17.689 11.822-11.792 18.197-27.925 17.69-44.596-0.51-16.672-7.903-32.386-20.383-43.431z"/>
		<path d="m262.36 44.957c-59.951-59.929-157.47-59.929-217.42 0-59.922 59.951-59.922 157.47 0.029 217.42 59.922 59.922 157.44 59.922 217.39 0 59.921-59.951 59.921-157.46 0-217.42zm-36.577 180.84c-39.747 39.749-104.49 39.749-144.27 0-39.749-39.778-39.749-104.52 0-144.27 39.778-39.778 104.52-39.778 144.3 0 39.749 39.749 39.749 104.49-0.031 144.27z"/>
		<path d="m126.23 101.86c-2.725-2.724-6.226-4.04-9.758-4.579-5.179-0.749-10.625 0.568-14.636 4.579-28.585 28.584-28.554 75.067 0 103.62 4.011 4.013 9.457 5.329 14.666 4.58 3.532-0.539 7.003-1.855 9.728-4.58 6.734-6.733 6.705-17.628 0-24.394-15.145-15.115-15.145-39.718 0-54.833 6.734-6.764 6.705-17.659 0-24.393z"/>
</svg>
