<!DOCTYPE svg  PUBLIC '-//W3C//DTD SVG 1.1//EN'  'http://www.w3.org/Graphics/SVG/1.1/DTD/svg11.dtd'>
<svg enable-background="new 0 0 68 68" version="1.1" viewBox="0 0 68 68" xml:space="preserve" xmlns="http://www.w3.org/2000/svg">
	<path d="m0 34c0 21.9 30 34 34 34s34-12.1 34-34v-34h-68v34zm45.4 16.3h-22.8v-6.5h22.8v6.5zm-23.8-34.1s6.5 2.4 9.2 4.1c-0.6-2.6-1.2-10-1.2-10h8.6s-0.6 7.8-1.2 10c1.2-0.6 9.4-4.1 9.4-4.1l2.7 8.3s-7.5 1.8-10.1 1.9c1.8 1.4 6.7 7.4 6.7 7.4l-7 5.3s-3.8-6.3-5-8.9c-1.2 2.9-5 8.9-5 8.9l-7.2-5.3s5.7-6.3 7.1-7.4c-1.4-0.1-9.9-1.9-9.9-1.9l2.9-8.3z"/>
</svg>
