<svg xmlns="http://www.w3.org/2000/svg" width="64" height="64" version="1.1" viewBox="0 0 16.933 16.933"><g transform="translate(0 -280.07)"><ellipse cx="5.963" cy="295" r=".529" fill="#ff9e00"/><g><path d="m18 4c-2.77 0-5 2.23-5 5v46c0 2.77 2.23 5 5 5h28c2.77 0 5-2.23 5-5v-46c0-2.77-2.23-5-5-5h-28zm0 6h28v40h-28v-40zm14 42a3 3 0 0 1 3 3 3 3 0 0 1-3 3 3 3 0 0 1-3-3 3 3 0 0 1 3-3z" transform="matrix(.26458 0 0 .26458 0 280.07)"/><path d="m8.4667 287.74a2.3812 2.3812 0 0 0-2.3812 2.3812 2.3812 2.3812 0 0 0 2.3812 2.3812 2.3812 2.3812 0 0 0 2.3813-2.3812 2.3812 2.3812 0 0 0-2.3813-2.3812zm0 1.0583a1.3229 1.3229 0 0 1 1.3229 1.3229 1.3229 1.3229 0 0 1-1.3229 1.3229 1.3229 1.3229 0 0 1-1.3229-1.3229 1.3229 1.3229 0 0 1 1.3229-1.3229z"/><rect width="1.058" height="4.498" x="7.673" y="283.51"/><rect width="2.381" height=".794" x="7.673" y="284.04"/><rect width="1.852" height=".794" x="7.673" y="285.36"/></g></g></svg>